<svg xmlns="http://www.w3.org/2000/svg" viewBox="0 0 77 77"><defs><style>.b{fill:#e63b25}</style></defs><path style="fill:#fff" d="M0 0h77v77H0z"/><path class="b" d="M65.24 39.28a3.39 3.39 0 0 0-3.15-.36L56 41.33c-1.47-17.44-10.47-29.66-22.53-29.66-13.22 0-23.2 14.86-23.2 34.57v.44a3.31 3.31 0 0 0 2.16 3.1l10.49 3.94V63l-5-2.13a3.31 3.31 0 1 0-2.6 6.13l9.61 4.11a3.47 3.47 0 0 0 1.3.26A3.32 3.32 0 0 0 29.55 68V51.42a3.33 3.33 0 0 0-2.15-3.11l-10.46-3.92c.54-14.77 7.61-26.09 16.53-26.09S49.36 30 49.54 45.61a3.38 3.38 0 0 0 4.57 3.74l5.83-2.29V56l-8.45 3.79A3.4 3.4 0 0 0 54.26 66l10.46-4.7a3.4 3.4 0 0 0 2-3.1V42.08a3.39 3.39 0 0 0-1.48-2.8Z"/><path class="b" d="M33.68 41.7A10.14 10.14 0 0 1 28 40.16a7.66 7.66 0 0 1-3.45-5.76 1.69 1.69 0 1 1 3.38-.25 4.34 4.34 0 0 0 1.95 3.18 6.75 6.75 0 0 0 3.81 1 5.29 5.29 0 0 0 3.44-.89 3.33 3.33 0 0 0 1.41-2.82 1.69 1.69 0 0 1 3.38-.26 6.73 6.73 0 0 1-2.82 5.84 9 9 0 0 1-5.4 1.5ZM51.93 5.68h7.85v7.85h-7.85z"/></svg>
