<?xml version="1.0" encoding="UTF-8" standalone="no"?>
<!-- Created with Inkscape (http://www.inkscape.org/) -->

<svg
   width="100.18946mm"
   height="56.358212mm"
   viewBox="0 0 100.18946 56.358212"
   version="1.1"
   id="svg220441"
   inkscape:version="1.1.2 (0a00cf5339, 2022-02-04)"
   sodipodi:docname="carto.svg"
   xmlns:inkscape="http://www.inkscape.org/namespaces/inkscape"
   xmlns:sodipodi="http://sodipodi.sourceforge.net/DTD/sodipodi-0.dtd"
   xmlns:xlink="http://www.w3.org/1999/xlink"
   xmlns="http://www.w3.org/2000/svg"
   xmlns:svg="http://www.w3.org/2000/svg">
  <sodipodi:namedview
     id="namedview220443"
     pagecolor="#ffffff"
     bordercolor="#000000"
     borderopacity="0.25"
     inkscape:pageshadow="2"
     inkscape:pageopacity="0.0"
     inkscape:pagecheckerboard="0"
     inkscape:document-units="mm"
     showgrid="false"
     fit-margin-top="0"
     fit-margin-left="0"
     fit-margin-right="0"
     fit-margin-bottom="0"
     inkscape:zoom="0.80087682"
     inkscape:cx="-315.27944"
     inkscape:cy="454.50185"
     inkscape:window-width="2560"
     inkscape:window-height="1363"
     inkscape:window-x="0"
     inkscape:window-y="0"
     inkscape:window-maximized="1"
     inkscape:current-layer="layer1" />
  <defs
     id="defs220438">
    <linearGradient
       inkscape:collect="always"
       xlink:href="#linearGradient113217"
       id="linearGradient176607"
       gradientUnits="userSpaceOnUse"
       gradientTransform="matrix(0.78874953,0,0,0.78874953,186.21563,42.455958)"
       x1="85.556458"
       y1="18.666378"
       x2="25.035019"
       y2="27.630049" />
    <linearGradient
       inkscape:collect="always"
       id="linearGradient113217">
      <stop
         style="stop-color:#c89e26;stop-opacity:1;"
         offset="0"
         id="stop113213" />
      <stop
         style="stop-color:#fcc802;stop-opacity:1"
         offset="1"
         id="stop113215" />
    </linearGradient>
  </defs>
  <g
     inkscape:label="Layer 1"
     inkscape:groupmode="layer"
     id="layer1"
     transform="translate(-188.4303,-27.983298)">
    <rect
       style="fill:#808000;fill-opacity:0.995744;stroke-width:0.0264583;stroke-linecap:square;stroke-linejoin:round;paint-order:markers fill stroke"
       id="rect876"
       width="100.18897"
       height="56.357838"
       x="188.43048"
       y="27.983301" />
    <path
       style="fill:#f2c009;fill-opacity:1;stroke-width:0.020869;stroke-linecap:square;stroke-linejoin:round;paint-order:markers fill stroke"
       d="m 218.73141,35.245548 -0.3331,30.6404 40.19525,-2.24853 -0.12093,-22.66701 z"
       id="path129495-0" />
    <path
       style="fill:#bc9514;fill-opacity:1;stroke-width:0.020869;stroke-linecap:square;stroke-linejoin:round;paint-order:markers fill stroke"
       d="m 207.73545,27.983302 h -2.01267 v 30.554466 l 15.08416,-0.34723 0.23457,-22.28609 v -7.92115 h -1.56541 l 0.11181,7.72641 -0.08,19.94799 -11.77248,0.19626 z"
       id="path1545-9"
       sodipodi:nodetypes="ccccccccccc" />
    <path
       style="fill:#bc9514;fill-opacity:1;stroke-width:0.020869;stroke-linecap:square;stroke-linejoin:round;paint-order:markers fill stroke"
       d="m 232.78217,27.983318 h 2.01267 v 30.55446 l -15.08416,-0.34723 -0.23457,-22.28608 v -7.921153 h 1.56542 l -0.11182,7.726413 0.08,19.94799 11.77248,0.19626 z"
       id="path1545-3-3"
       sodipodi:nodetypes="ccccccccccc" />
    <path
       style="fill:url(#linearGradient176607);fill-opacity:1;stroke-width:0.020869;stroke-linecap:square;stroke-linejoin:round;paint-order:markers fill stroke"
       d="m 205.72278,27.983302 -17.29248,2.06e-4 v 46.24556 l 100.189,-8.28477 v -37.96079 l -53.82486,-2.06e-4 v 30.554476 l -13.9879,-0.34724 -15.08416,0.34723 z"
       id="path53784-6"
       sodipodi:nodetypes="cccccccccc" />
    <path
       style="fill:#d6ae37;fill-opacity:1;stroke-width:0.020869;stroke-linecap:square;stroke-linejoin:round;paint-order:markers fill stroke"
       d="m 271.80582,37.515138 v 10.25952 l -15.1964,-0.29806 0.15939,-14.17988 z"
       id="path1711-0"
       sodipodi:nodetypes="ccccc" />
    <path
       style="fill:#d8b554;fill-opacity:1;stroke-width:0.0171289;stroke-linecap:square;stroke-linejoin:round;paint-order:markers fill stroke"
       d="m 270.73033,38.305068 v 8.46553 l -12.40707,-0.24596 0.13014,-11.70036 z"
       id="path1711-7-6"
       sodipodi:nodetypes="ccccc" />
    <path
       style="fill:#a38025;fill-opacity:1;stroke-width:0.020869;stroke-linecap:square;stroke-linejoin:round;paint-order:markers fill stroke"
       d="m 288.6193,65.944298 -100.189,8.28477 v 10.11244 h 54.88267 l 45.30633,-9.95911 z"
       id="path1826-2"
       sodipodi:nodetypes="cccccc" />
    <path
       style="fill:#cfae55;fill-opacity:1;stroke-width:0.020869;stroke-linecap:square;stroke-linejoin:round;paint-order:markers fill stroke"
       d="m 288.61976,74.382398 -9.2e-4,2.19427 -32.43929,7.76484 h -12.86658 z"
       id="path35713-6"
       sodipodi:nodetypes="ccccc" />
    <path
       style="fill:#c2992a;fill-opacity:1;stroke-width:0.020869;stroke-linecap:square;stroke-linejoin:round;paint-order:markers fill stroke"
       d="m 288.6193,76.576668 v 7.76484 h -32.44 z"
       id="path40853-1"
       sodipodi:nodetypes="cccc" />
    <path
       style="fill:#f9cf39;fill-opacity:1;stroke-width:0.020869;stroke-linecap:square;stroke-linejoin:round;paint-order:markers fill stroke"
       d="m 207.73545,27.983302 11.74066,1.3e-5 0.0318,27.674373 -11.77248,0.19625 V 27.983302"
       id="path122911-8" />
    <path
       style="fill:#f9cf39;fill-opacity:1;stroke-width:0.020869;stroke-linecap:square;stroke-linejoin:round;paint-order:markers fill stroke"
       d="m 232.78217,27.983318 v 27.87066 l -11.77248,-0.19626 0.0319,-27.674403 z"
       id="path127903-7" />
    <path
       style="fill:#695341;fill-opacity:1;stroke-width:0.111816"
       d="m 237.38722,76.202968 c -0.49199,-0.0771 -1.29706,-0.24908 -1.78905,-0.38204 -1.001,-0.27048 -2.96596,-1.19861 -3.67337,-1.73507 -0.25509,-0.19344 -0.63992,-0.46241 -0.85517,-0.5977 -0.21524,-0.13529 -0.45862,-0.29029 -0.54083,-0.34446 -0.12147,-0.08 -0.1037,-0.20496 0.0948,-0.66631 0.24269,-0.56415 0.24903,-0.5689 0.9881,-0.74242 0.40911,-0.096 1.57407,-0.28113 2.5888,-0.41128 1.01472,-0.13013 1.85895,-0.24884 1.87607,-0.26377 0.0389,-0.0339 0.69434,-4.08269 0.69512,-4.29353 4.5e-4,-0.12679 -0.24307,-0.14066 -1.36917,-0.0784 -0.75336,0.0416 -1.62133,0.0983 -1.92882,0.12562 -0.3075,0.0273 -2.52145,0.17546 -4.91989,0.32895 -2.39845,0.15347 -4.66271,0.30166 -5.0317,0.32928 -3.02494,0.22641 -5.17072,0.30148 -5.45102,0.1907 l -0.3075,-0.12151 -4.4e-4,-3.94426 c -1.6e-4,-2.16935 0.0541,-9.45399 0.12075,-16.18809 l 0.12108,-12.24382 c 0.15368,-0.16004 0.352,-0.38981 0.45685,-0.50817 3.42678,0.46433 4.23537,0.60644 6.96114,1.01161 0.79948,0.1188 2.86248,0.42062 4.58444,0.67062 1.72197,0.25002 3.78496,0.55358 4.58444,0.67459 0.79949,0.121 6.38468,0.95003 12.41154,1.84225 12.17504,1.80237 11.6653,1.72208 11.74438,1.85004 0.1313,0.21245 0.40186,24.16945 0.27439,24.29639 -0.03,0.0299 -1.13631,0.13418 -2.45853,0.23181 -3.63054,0.26807 -15.33937,1.0707 -15.62624,1.07115 l -0.25158,3.8e-4 v 2.21904 2.21904 l 1.44377,0.069 c 2.20259,0.10532 4.1355,0.56367 6.9253,1.64203 0.82352,0.31833 0.9525,0.40668 1.09635,0.75095 0.14916,0.35697 0.14585,0.40317 -0.0388,0.54321 -0.11101,0.0842 -0.23653,0.15463 -0.27894,0.15659 -0.0424,0.003 -0.0927,0.19047 -0.11182,0.41891 -0.0336,0.40233 -0.0558,0.42188 -0.7056,0.62272 -1.53895,0.47564 -4.22248,0.93531 -7.32393,1.25454 -1.89677,0.19523 -3.06669,0.1956 -4.3049,10e-4 z m -15.54238,-10.51176 c 0.369,-0.0288 1.24954,-0.0791 1.95678,-0.11175 0.70723,-0.0327 1.66325,-0.0833 2.1245,-0.11252 0.46124,-0.0291 1.34179,-0.0793 1.95677,-0.11135 2.14478,-0.11186 7.16335,-0.38769 8.10663,-0.44547 0.52275,-0.032 1.98194,-0.10801 3.24266,-0.16873 1.26072,-0.0607 3.14761,-0.16604 4.19309,-0.23393 1.04547,-0.0678 4.88204,-0.28641 8.5257,-0.48558 3.64366,-0.19917 6.64967,-0.38698 6.68003,-0.41735 0.0622,-0.0622 -0.11858,-22.56033 -0.1818,-22.6188 -0.0223,-0.0207 -3.53767,-0.54577 -7.81183,-1.16688 -4.27415,-0.62113 -10.01029,-1.45469 -12.74698,-1.85238 -2.73669,-0.39769 -8.10574,-1.17813 -11.93122,-1.73436 -3.82548,-0.55621 -7.02508,-1.0113 -7.11021,-1.0113 -0.12995,0 -0.16669,1.44903 -0.22899,9.0291 -0.0408,4.96603 -0.10738,11.86569 -0.14794,15.33259 l -0.0737,6.30348 1.38782,-0.0712 c 0.76331,-0.0392 1.68973,-0.0949 2.05872,-0.12357 z"
       id="path1251-9"
       sodipodi:nodetypes="sssssssssssssssccscccssssssscccsssssssssssssssssssssssssscsss" />
    <path
       style="fill:#1a170f;fill-opacity:1;stroke-width:0.111816"
       d="m 237.82659,76.213508 c -1.72893,-0.18231 -3.61527,-0.79948 -5.10778,-1.67114 -0.42584,-0.2487 -0.77426,-0.47304 -0.77426,-0.4985 0,-0.0254 0.31448,0.0944 0.69884,0.26662 2.10066,0.94064 2.93984,1.06773 6.49603,0.98385 4.2156,-0.0994 7.87629,-0.5071 9.70726,-1.08104 0.90108,-0.28248 0.87656,-0.28545 0.87656,0.10672 0,0.31865 -0.0367,0.3429 -0.92249,0.60974 -1.71729,0.51734 -4.17926,0.92778 -7.43734,1.2399 -1.88467,0.18054 -2.20267,0.18449 -3.53682,0.0438 z m -0.54104,-4.39333 c -0.59862,-0.13806 -1.12219,-0.28481 -1.16349,-0.32611 -0.0413,-0.0413 0.0974,-1.17005 0.30821,-2.50834 l 0.38331,-2.43326 0.55655,-0.068 c 0.3061,-0.0374 1.17294,-0.10468 1.9263,-0.14958 l 1.36974,-0.0815 v 2.84712 2.84713 l -0.34943,0.0697 c -0.67356,0.13472 -1.95268,0.0514 -3.03119,-0.19729 z m -18.88724,-5.93423 c 0,0 -0.19093,-3.05839 -0.0916,-15.66509 0.0673,-8.5423 0.15508,-15.56415 0.15508,-15.56415 l 40.35512,5.97105 0.23286,22.97096 -0.58256,0.0293 0.005,-22.65761 -39.62037,-5.78257 -0.18997,30.68632 z m 21.48515,-0.45556 c -0.15375,-0.28772 -0.37813,-0.56048 -0.49862,-0.60618 -0.21046,-0.0797 0.16447,-0.11302 3.38114,-0.29945 l 1.2612,-0.0731 -0.31077,0.60145 c -0.35687,0.6907 -0.35833,0.6912 -2.37935,0.82352 l -1.17407,0.0768 z"
       id="path1249-2"
       sodipodi:nodetypes="sssssssssssssscsscccsssccccccccccccscsscsc" />
    <path
       style="fill:#f2c009;fill-opacity:1;stroke-width:0.020869;stroke-linecap:square;stroke-linejoin:round;paint-order:markers fill stroke"
       d="m 218.8523,35.187838 -0.18997,30.68632 39.80488,-2.24614 0.005,-22.65761 z"
       id="path179864" />
    <path
       style="fill:#c2992a;fill-opacity:1;stroke-width:0.020869;stroke-linecap:square;stroke-linejoin:round;paint-order:markers fill stroke"
       d="m 229.60388,40.509218 5.18464,3.35745 0.001,20.03058 -5.2375,-1.38642 z"
       id="path150268" />
    <path
       style="fill:#695341;fill-opacity:1;stroke-width:0.020869;stroke-linecap:square;stroke-linejoin:round;paint-order:markers fill stroke"
       d="m 234.78852,43.866668 5.16409,-1.42808 0.095,17.81023 -5.25745,3.64843 z"
       id="path150416" />
    <path
       style="fill:#c2992a;fill-opacity:1;stroke-width:0.020869;stroke-linecap:square;stroke-linejoin:round;paint-order:markers fill stroke"
       d="m 239.95261,42.438588 4.97001,1.54638 0.30341,15.73998 -5.17841,0.52387 z"
       id="path150564" />
    <path
       style="fill:#695341;fill-opacity:1;stroke-width:0.020869;stroke-linecap:square;stroke-linejoin:round;paint-order:markers fill stroke"
       d="m 244.92262,43.984968 5.34408,0.29518 0.0231,13.60933 -5.06381,1.83547 z"
       id="path150712" />
    <path
       id="path150268-5"
       style="fill:#f8d25f;fill-opacity:1;stroke-width:0.020869;stroke-linecap:square;stroke-linejoin:round;paint-order:markers fill stroke"
       d="m 232.01217,47.857508 c -0.0108,-7.8e-4 -0.0182,2.7e-4 -0.022,0.004 -0.0305,0.0305 0.006,0.49187 0.0823,1.02512 0.12759,0.89876 0.162,0.9828 0.47078,1.15227 0.69406,0.38091 1.00963,0.77068 2.25116,2.90128 l -4.1e-4,-3.16377 c -0.19932,-0.0257 -0.30331,-0.19922 -0.53966,-0.62974 -0.14326,-0.26096 -0.76563,-0.65786 -1.03163,-0.65786 -0.0555,0 -0.34323,-0.15351 -0.63911,-0.34117 -0.25891,-0.16418 -0.49587,-0.28345 -0.57145,-0.29019 z m 2.78267,10.68027 c -0.0886,0.22784 -0.19135,0.47198 -0.28654,0.67623 l -0.33464,0.71817 0.2629,0.20176 c 0.13172,0.10133 0.19926,0.16256 0.35828,0.17893 z" />
    <path
       id="path150416-3"
       style="fill:#f2c009;fill-opacity:1;stroke-width:0.020869;stroke-linecap:square;stroke-linejoin:round;paint-order:markers fill stroke"
       d="m 239.97092,45.200378 -0.0248,0.086 c -0.19983,0.69784 -0.21859,0.72059 -1.0198,1.22644 -0.56806,0.35866 -0.81683,0.5833 -0.81683,0.73817 0,0.22649 -0.27577,0.34059 -1.24235,0.51358 -0.31131,0.0557 -0.41914,0.0315 -0.4716,-0.10518 -0.0385,-0.10027 -0.19722,-0.17691 -0.36561,-0.17691 h -0.29755 l 0.0762,0.8103 c 0.0418,0.44588 0.10111,0.89694 0.13206,1.00189 0.0446,0.15112 -0.0744,0.22852 -0.57267,0.37335 -0.27426,0.0797 -0.44416,0.12512 -0.5739,0.10841 l 4.1e-4,3.16377 c 0.0969,0.16636 0.1869,0.31997 0.29591,0.50868 0.15374,0.26616 0.34255,0.46241 0.41942,0.43613 0.18848,-0.0644 0.17619,0.22302 -0.0762,1.75919 -0.15312,0.93199 -0.17692,1.30683 -0.086,1.36301 0.0883,0.0547 0.0747,0.13735 -0.0464,0.28002 -0.0946,0.11135 -0.2364,0.4288 -0.31507,0.70554 -0.0379,0.13362 -0.10847,0.33232 -0.19117,0.54497 v 1.77509 c 0.2436,0.0251 0.70397,-0.0558 1.95443,-0.26534 1.29012,-0.21612 1.92023,-0.37788 2.39138,-0.61466 0.29735,-0.14944 0.66959,-0.27498 0.90446,-0.3106 z" />
    <path
       id="path150564-5"
       style="fill:#f8d25f;fill-opacity:1;stroke-width:0.020869;stroke-linecap:square;stroke-linejoin:round;paint-order:markers fill stroke"
       d="m 240.14986,44.575118 -0.17894,0.62526 0.0742,13.9219 c 0.043,-0.006 0.083,-0.0115 0.11535,-0.0115 0.37224,0 0.38151,-0.0115 0.45487,-0.56493 0.0584,-0.43996 0.1542,-0.63668 0.43369,-0.89102 0.46417,-0.42234 0.87653,-0.42429 2.4949,-0.0115 l 1.24195,0.31671 0.397,-0.37866 -0.18219,-9.45789 c -0.27176,-0.14714 -0.63005,-0.35524 -0.99087,-0.57958 -0.99309,-0.61752 -1.26669,-0.85734 -1.91774,-1.67889 -1.01266,-1.27782 -1.02757,-1.29046 -1.51708,-1.29046 z" />
    <path
       id="path150712-6"
       style="fill:#f1c109;fill-opacity:1;stroke-width:0.020869;stroke-linecap:square;stroke-linejoin:round;paint-order:markers fill stroke"
       d="m 245.00068,48.124078 0.18219,9.4579 0.70963,-0.67621 1.10622,-1.05446 -0.46996,0.0734 c -0.46229,0.0723 -0.47273,0.0666 -0.65175,-0.35461 -0.13945,-0.32816 -0.17275,-0.69635 -0.14225,-1.57455 l 0.0399,-1.14617 h -0.31874 c -0.30948,0 -0.29481,-0.0266 0.5095,-0.93055 0.74351,-0.83567 0.84961,-1.01355 1.03855,-1.74206 0.1633,-0.62958 0.27182,-0.8437 0.48504,-0.95543 0.26022,-0.13634 0.23616,-0.15073 -0.45242,-0.27064 -0.39993,-0.0696 -0.84078,-0.12639 -0.97987,-0.12639 -0.15514,0 -0.27461,-0.083 -0.30896,-0.2144 -0.0308,-0.11778 -0.17363,-0.24351 -0.31752,-0.27962 -0.0625,-0.0157 -0.2213,-0.0934 -0.42961,-0.20623 z" />
  </g>
</svg>
