<svg xmlns="http://www.w3.org/2000/svg" width="81" viewBox="0 0 495.907 210.067">
  <path d="M62.416.004-.001 36.041v72.072L59.084 210.07h6.664l59.087-101.956V36.041L62.415.004" fill="#e1000f"/>
  <path d="M80.263 61.773h23.654V48.116L62.416 24.152 20.91 48.116V96.04l41.505 23.965 41.501-23.965V82.38H80.263V61.773" fill="#fff"/>
  <path d="M80.263 82.38V61.773L62.416 51.467 44.569 61.773V82.38l17.847 10.307L80.263 82.38" fill="#000091"/>
  <path d="m199.335 34.925 6.067 4.656c-3.467 4.713-9.1 7.746-15.979 7.746-11.97 0-20.15-9.206-20.15-20.04 0-10.832 8.18-20.042 20.15-20.042 6.879 0 12.512 3.088 15.979 7.692l-6.067 4.713c-2.168-3.087-5.579-5.2-9.912-5.2-7.15 0-12.242 5.58-12.242 12.836 0 7.259 5.092 12.839 12.242 12.839 4.333 0 7.744-2.114 9.912-5.2m41.166-7.639c0-7.257-5.09-12.835-12.185-12.835-7.152 0-12.243 5.578-12.243 12.835 0 7.259 5.09 12.839 12.243 12.839 7.094 0 12.185-5.58 12.185-12.839zm7.909 0c0 10.835-8.18 20.041-20.094 20.041-11.97 0-20.152-9.206-20.152-20.04 0-10.832 8.181-20.042 20.152-20.042 11.914 0 20.094 9.21 20.094 20.041m6.664-18.957h9.858l16.953 27.136V8.329h7.692v37.915h-9.859L262.767 19v27.244h-7.693V8.33m46.638 27.516c2.275 2.924 5.307 4.657 8.394 4.657 3.034 0 4.875-1.623 4.875-4.387 0-6.77-17.331-5.252-17.331-17.874 0-6.012 4.93-10.996 12.132-10.996 5.687 0 10.074 2.547 13.27 6.394l-5.633 5.035c-2.22-2.87-4.712-4.711-7.583-4.711-2.654 0-4.388 1.734-4.388 3.954 0 6.77 17.332 5.2 17.332 18.036-.107 7.042-5.63 11.374-12.565 11.374-6.39 0-10.724-2.328-14.082-6.337l5.58-5.145m28.49-27.516h22.1v6.555h-14.409v8.774h12.243v6.555h-12.243v9.478h14.41v6.553h-22.1V8.33m30.332 0h7.69v37.915h-7.69V8.33m17.66 0h7.69v30.928h14.407v6.987h-22.097V8.33m28.22 0h7.69v30.928h14.407v6.987h-22.096V8.33m28.221 0h22.097v6.555H442.33v8.774h12.24v6.555h-12.24v9.478h14.406v6.553h-22.097V8.33m38.024 6.555v9.478h4.331c3.252 0 5.148-1.733 5.148-4.82 0-2.871-1.896-4.658-5.148-4.658zm-7.691-6.555h11.59c8.342 0 13.485 4.28 13.485 11.321 0 4.55-2.218 7.962-6.063 9.804l11.914 16.79h-9.207l-10.074-15.329h-3.954v15.33h-7.691V8.328M169.814 62.987h9.859l16.953 27.134V62.987h7.692V100.9h-9.859l-16.953-27.244V100.9h-7.692V62.987m66.408 0h7.69V86.06c0 9.967-5.85 15.924-15.382 15.924-9.478 0-15.327-5.957-15.327-15.924V62.987h7.69V86.71c0 5.091 2.872 8.07 7.692 8.07 4.712 0 7.637-2.979 7.637-8.07V62.987m16.574 0h9.697l9.154 15.6 9.154-15.6h9.694V100.9h-7.691V73.926l-8.45 13.976h-5.417l-8.448-13.976V100.9h-7.693V62.987m55.087-3.252 6.121-7.31h7.908l-7.04 7.31zm-7.475 3.252h22.1v6.553h-14.406v8.773h12.24v6.556h-12.24v9.48h14.406v6.551h-22.1V62.987m38.08 6.553v9.479h4.334c3.248 0 5.144-1.734 5.144-4.822 0-2.87-1.896-4.657-5.144-4.657zm-7.692-6.553h11.591c8.342 0 13.488 4.277 13.488 11.32 0 4.549-2.221 7.96-6.068 9.804l11.917 16.79h-9.209l-10.074-15.33h-3.952v15.33h-7.693V62.986m35.047 0h7.692V100.9h-7.692V62.987m46.744 18.955c0-7.258-5.093-12.835-12.189-12.835-7.148 0-12.241 5.577-12.241 12.835 0 7.259 5.093 12.838 12.241 12.838 7.096 0 12.189-5.58 12.189-12.838zm10.67 21.612c.811 0 1.895-.107 2.707-.432v6.5c-1.245.488-2.328.702-4.007.702-4.226 0-8.126-1.733-11.862-4.98l-4.496-4.01c-1.624.435-3.357.65-5.201.65-11.969 0-20.149-9.207-20.149-20.042 0-10.832 8.18-20.04 20.149-20.04 11.918 0 20.095 9.208 20.095 20.04 0 6.338-2.815 12.133-7.474 15.818l2.276 2.165c2.923 2.653 5.525 3.63 7.961 3.63m25.84-40.568h7.691V86.06c0 9.967-5.85 15.924-15.383 15.924-9.479 0-15.33-5.957-15.33-15.924V62.987h7.692V86.71c0 5.091 2.871 8.07 7.692 8.07 4.712 0 7.637-2.979 7.637-8.07V62.987m16.579 0h22.096v6.553h-14.405v8.773h12.24v6.556h-12.24v9.48h14.405v6.551h-22.096V62.987"/>
  <path d="M169.998 119.616H192.1v6.551h-14.41v8.775h12.241v6.556h-12.24v16.032h-7.693v-37.914m26.76 10.614h6.878v2.708c1.788-1.84 4.116-3.248 7.204-3.248a7.63 7.63 0 0 1 2.383.377v7.206a11.786 11.786 0 0 0-3.034-.38c-3.358 0-5.525 1.84-6.553 3.523v17.114h-6.878v-27.3m30.008 22.857c3.087 0 5.308-1.623 6.716-3.842v-3.74l-6.446 1.137c-2.924.488-4.062 1.679-4.062 3.412s1.463 3.033 3.792 3.033zm-10.615-2.761c0-4.172 3.194-7.368 9.098-8.341l8.233-1.407v-.707c0-2.87-2.166-4.711-5.254-4.711-2.654 0-4.875 1.138-6.122 3.249l-5.09-3.844c2.437-3.36 6.5-5.418 11.429-5.418 7.908 0 11.97 4.713 11.97 10.724v17.659h-6.933v-2.547c-1.733 2.166-4.93 3.629-8.125 3.629-5.472 0-9.206-3.14-9.206-8.286m30.927-20.096h6.878v2.165c1.896-1.84 4.442-3.248 8.07-3.248 5.906 0 10.618 4.063 10.618 12.132v16.25h-6.987v-15.98c0-3.628-2.005-5.901-5.364-5.901-3.466 0-5.307 2.328-6.337 4.06v17.822h-6.878v-27.3m51.35 18.688 5.47 4.17c-2.547 3.359-6.555 5.524-11.537 5.524-9.424 0-15.057-6.77-15.057-14.731 0-7.963 5.633-14.734 15.057-14.734 4.982 0 8.99 2.166 11.537 5.525l-5.47 4.173c-1.3-1.898-3.36-3.197-6.175-3.197-4.496 0-7.8 3.466-7.8 8.233 0 4.82 3.304 8.231 7.908 8.231 2.654 0 4.766-1.298 6.066-3.194m14.952-8.83h12.294c-.11-2.707-2.113-5.198-5.741-5.198-3.359 0-5.633 1.623-6.553 5.198zm7.69 18.524c-9.695 0-15.166-6.77-15.166-14.731 0-8.072 5.09-14.734 14.029-14.734 7.582 0 12.565 5.093 12.565 12.24 0 1.52-.216 2.982-.433 3.903h-19.12c.435 4.493 3.576 7.147 8.233 7.147 2.98 0 5.418-1.297 6.879-3.249l4.93 3.9c-2.548 3.414-6.771 5.524-11.917 5.524" fill="#000091"/>
  <path d="M172.326 198.884c1.678 2.114 3.683 3.63 6.282 3.63 2.169 0 3.36-1.194 3.36-2.818 0-4.766-12.728-2.762-12.728-12.618 0-4.824 4.061-8.397 9.694-8.397 4.224 0 8.015 2.004 10.021 4.66l-4.604 4.115c-1.409-1.787-3.196-3.143-5.362-3.143-2.059 0-3.141.976-3.141 2.493 0 4.659 12.727 2.763 12.727 12.456-.108 5.744-4.712 8.884-9.857 8.884-4.874 0-8.34-1.95-10.942-5.036l4.55-4.226m26.921-9.26h12.296c-.11-2.709-2.114-5.2-5.743-5.2-3.357 0-5.633 1.622-6.553 5.2zm7.692 18.522c-9.695 0-15.166-6.77-15.166-14.73 0-8.071 5.091-14.735 14.027-14.735 7.584 0 12.567 5.092 12.567 12.24 0 1.518-.216 2.982-.434 3.902h-19.118c.432 4.494 3.573 7.15 8.232 7.15 2.977 0 5.416-1.299 6.88-3.251l4.926 3.9c-2.542 3.413-6.77 5.524-11.914 5.524m16.954-28.382h6.879v2.709c1.788-1.84 4.115-3.25 7.205-3.25.92 0 1.73.164 2.381.378v7.205a11.805 11.805 0 0 0-3.03-.38c-3.36 0-5.526 1.842-6.556 3.523v17.114h-6.879v-27.3m24.917 0 7.094 19.5 7.04-19.5h7.423l-9.968 27.3h-9.044l-9.912-27.3h7.367m24.7 0h6.878v27.3h-6.879zm-1.03-9.26c0-2.44 2.058-4.495 4.496-4.495 2.436 0 4.442 2.056 4.442 4.495 0 2.438-2.006 4.494-4.442 4.494-2.438 0-4.496-2.056-4.496-4.494m34.123 27.95 5.47 4.169c-2.542 3.359-6.553 5.524-11.534 5.524-9.425 0-15.06-6.77-15.06-14.73 0-7.965 5.635-14.735 15.06-14.735 4.981 0 8.992 2.167 11.535 5.525l-5.471 4.172c-1.3-1.896-3.359-3.196-6.173-3.196-4.495 0-7.8 3.466-7.8 8.233 0 4.82 3.305 8.23 7.91 8.23 2.652 0 4.763-1.297 6.063-3.192m14.952-8.83h12.295c-.109-2.708-2.113-5.2-5.742-5.2-3.356 0-5.632 1.623-6.553 5.2zm7.691 18.523c-9.694 0-15.166-6.77-15.166-14.73 0-8.071 5.092-14.735 14.028-14.735 7.584 0 12.565 5.092 12.565 12.24 0 1.518-.215 2.982-.432 3.902h-19.118c.432 4.494 3.574 7.15 8.231 7.15 2.978 0 5.416-1.299 6.88-3.251l4.927 3.9c-2.544 3.413-6.77 5.524-11.915 5.524m19.067-9.262c1.678 2.114 3.682 3.63 6.282 3.63 2.168 0 3.359-1.194 3.359-2.818 0-4.766-12.73-2.762-12.73-12.618 0-4.824 4.063-8.397 9.696-8.397 4.224 0 8.015 2.004 10.022 4.66l-4.606 4.115c-1.406-1.787-3.194-3.143-5.36-3.143-2.06 0-3.143.976-3.143 2.493 0 4.659 12.729 2.763 12.729 12.456-.108 5.744-4.712 8.884-9.856 8.884-4.876 0-8.343-1.95-10.943-5.036l4.55-4.226" fill="#e1000f"/>
</svg>
