<svg
  xmlns:dc="http://purl.org/dc/elements/1.1/"
  xmlns:cc="http://creativecommons.org/ns#"
  xmlns:rdf="http://www.w3.org/1999/02/22-rdf-syntax-ns#"
  xmlns:svg="http://www.w3.org/2000/svg"
  xmlns="http://www.w3.org/2000/svg"
  xmlns:sodipodi="http://sodipodi.sourceforge.net/DTD/sodipodi-0.dtd"
  xmlns:inkscape="http://www.inkscape.org/namespaces/inkscape"
  version="1.1"
  id="svg2"
  xml:space="preserve"
  width="80.90668"
  height="80.06667"
  viewBox="0 0 495.90668 210.06667"
  sodipodi:docname="logo-conseiller-numeÌrique.eps">
  <defs id="defs6" />
  <g
    id="g10"
    inkscape:groupmode="layer"
    inkscape:label="ink_ext_XXXXXX"
    transform="matrix(1.3333333,0,0,-1.3333333,0,210.06667)">
    <g id="g12" transform="scale(0.1)">
      <path
        d="M 468.129,1575.51 -0.00390625,1305.23 V 764.672 L 443.141,-0.0117188 h 49.98 L 936.285,764.672 v 540.558 l -468.156,270.28"
        style="fill: #e1000f; fill-opacity: 1; fill-rule: nonzero; stroke: none"
        id="path14" />
      <path
        d="m 601.988,1112.23 h 177.41 v 102.43 L 468.129,1394.4 156.84,1214.66 V 855.234 L 468.129,675.488 779.398,855.234 v 102.438 h -177.41 v 154.558"
        style="fill: #ffffff; fill-opacity: 1; fill-rule: nonzero; stroke: none"
        id="path16" />
      <path
        d="m 601.988,957.68 v 154.55 l -133.859,77.3 -133.856,-77.3 V 957.68 l 133.856,-77.309 133.859,77.309"
        style="fill: #000091; fill-opacity: 1; fill-rule: nonzero; stroke: none"
        id="path18" />
      <path
        d="m 1495.05,1313.6 45.5,-34.92 c -26,-35.35 -68.25,-58.1 -119.84,-58.1 -89.78,0 -151.13,69.05 -151.13,150.31 0,81.24 61.35,150.31 151.13,150.31 51.59,0 93.84,-23.16 119.84,-57.69 l -45.5,-35.35 c -16.26,23.16 -41.84,39 -74.34,39 -53.63,0 -91.82,-41.84 -91.82,-96.27 0,-54.44 38.19,-96.29 91.82,-96.29 32.5,0 58.08,15.85 74.34,39"
        style="fill: #000000; fill-opacity: 1; fill-rule: nonzero; stroke: none"
        id="path20" />
      <path
        d="m 1803.8,1370.89 c 0,54.43 -38.18,96.27 -91.39,96.27 -53.64,0 -91.82,-41.84 -91.82,-96.27 0,-54.44 38.18,-96.29 91.82,-96.29 53.21,0 91.39,41.85 91.39,96.29 z m 59.32,0 c 0,-81.26 -61.35,-150.31 -150.71,-150.31 -89.78,0 -151.14,69.05 -151.14,150.31 0,81.24 61.36,150.31 151.14,150.31 89.36,0 150.71,-69.07 150.71,-150.31"
        style="fill: #000000; fill-opacity: 1; fill-rule: nonzero; stroke: none"
        id="path22" />
      <path
        d="m 1913.1,1513.07 h 73.94 l 127.15,-203.52 v 203.52 h 57.69 V 1228.7 h -73.94 L 1970.8,1433.04 V 1228.7 h -57.7 v 284.37"
        style="fill: #000000; fill-opacity: 1; fill-rule: nonzero; stroke: none"
        id="path24" />
      <path
        d="m 2262.9,1306.7 c 17.06,-21.93 39.8,-34.93 62.95,-34.93 22.76,0 36.57,12.17 36.57,32.9 0,50.78 -129.99,39.39 -129.99,134.06 0,45.09 36.97,82.47 90.99,82.47 42.66,0 75.56,-19.1 99.53,-47.95 l -42.25,-37.77 c -16.65,21.53 -35.34,35.34 -56.87,35.34 -19.91,0 -32.91,-13.01 -32.91,-29.66 0,-50.78 129.99,-39 129.99,-135.27 -0.8,-52.82 -42.23,-85.31 -94.24,-85.31 -47.93,0 -80.43,17.46 -105.62,47.53 l 41.85,38.59"
        style="fill: #000000; fill-opacity: 1; fill-rule: nonzero; stroke: none"
        id="path26" />
      <path
        d="m 2476.59,1513.07 h 165.75 v -49.16 h -108.07 v -65.81 h 91.82 v -49.16 h -91.82 v -71.09 h 108.07 v -49.15 h -165.75 v 284.37"
        style="fill: #000000; fill-opacity: 1; fill-rule: nonzero; stroke: none"
        id="path28" />
      <path
        d="m 2704.09,1513.07 h 57.68 V 1228.7 h -57.68 v 284.37"
        style="fill: #000000; fill-opacity: 1; fill-rule: nonzero; stroke: none"
        id="path30" />
      <path
        d="m 2836.54,1513.07 h 57.68 v -231.96 h 108.05 v -52.41 h -165.73 v 284.37"
        style="fill: #000000; fill-opacity: 1; fill-rule: nonzero; stroke: none"
        id="path32" />
      <path
        d="m 3048.2,1513.07 h 57.67 v -231.96 h 108.06 V 1228.7 H 3048.2 v 284.37"
        style="fill: #000000; fill-opacity: 1; fill-rule: nonzero; stroke: none"
        id="path34" />
      <path
        d="m 3259.87,1513.07 h 165.73 v -49.16 h -108.05 v -65.81 h 91.8 v -49.16 h -91.8 v -71.09 h 108.05 v -49.15 h -165.73 v 284.37"
        style="fill: #000000; fill-opacity: 1; fill-rule: nonzero; stroke: none"
        id="path36" />
      <path
        d="m 3545.05,1463.91 v -71.09 h 32.49 c 24.39,0 38.61,13 38.61,36.16 0,21.53 -14.22,34.93 -38.61,34.93 z m -57.68,49.16 h 86.93 c 62.56,0 101.14,-32.1 101.14,-84.91 0,-34.12 -16.64,-59.71 -45.48,-73.53 l 89.36,-125.93 h -69.05 l -75.56,114.97 h -29.66 V 1228.7 h -57.68 v 284.37"
        style="fill: #000000; fill-opacity: 1; fill-rule: nonzero; stroke: none"
        id="path38" />
      <path
        d="m 1273.64,1103.13 h 73.94 l 127.15,-203.509 v 203.509 h 57.69 V 818.77 h -73.94 l -127.15,204.34 V 818.77 h -57.69 v 284.36"
        style="fill: #000000; fill-opacity: 1; fill-rule: nonzero; stroke: none"
        id="path40" />
      <path
        d="m 1771.71,1103.13 h 57.68 V 930.078 c 0,-74.754 -43.88,-119.433 -115.37,-119.433 -71.09,0 -114.96,44.679 -114.96,119.433 v 173.052 h 57.68 V 925.203 c 0,-38.187 21.54,-60.531 57.69,-60.531 35.34,0 57.28,22.344 57.28,60.531 v 177.927"
        style="fill: #000000; fill-opacity: 1; fill-rule: nonzero; stroke: none"
        id="path42" />
      <path
        d="m 1896.02,1103.13 h 72.73 l 68.65,-117.001 68.66,117.001 h 72.71 V 818.77 h -57.69 v 202.31 l -63.37,-104.822 h -40.63 l -63.36,104.822 V 818.77 h -57.7 v 284.36"
        style="fill: #000000; fill-opacity: 1; fill-rule: nonzero; stroke: none"
        id="path44" />
      <path
        d="m 2309.18,1127.52 45.91,54.83 h 59.31 l -52.8,-54.83 z m -56.06,-24.39 h 165.75 v -49.15 h -108.05 v -65.804 h 91.8 v -49.164 h -91.8 V 867.91 h 108.05 v -49.14 h -165.75 v 284.36"
        style="fill: #000000; fill-opacity: 1; fill-rule: nonzero; stroke: none"
        id="path46" />
      <path
        d="m 2538.73,1053.98 v -71.093 h 32.5 c 24.36,0 38.58,13 38.58,36.163 0,21.52 -14.22,34.93 -38.58,34.93 z m -57.7,49.15 h 86.94 c 62.56,0 101.16,-32.08 101.16,-84.9 0,-34.121 -16.66,-59.71 -45.51,-73.535 L 2713,818.77 h -69.07 l -75.56,114.968 h -29.64 V 818.77 h -57.7 v 284.36"
        style="fill: #000000; fill-opacity: 1; fill-rule: nonzero; stroke: none"
        id="path48" />
      <path
        d="m 2743.89,1103.13 h 57.69 V 818.77 h -57.69 v 284.36"
        style="fill: #000000; fill-opacity: 1; fill-rule: nonzero; stroke: none"
        id="path50" />
      <path
        d="m 3094.48,960.961 c 0,54.439 -38.2,96.269 -91.42,96.269 -53.61,0 -91.81,-41.83 -91.81,-96.269 0,-54.441 38.2,-96.289 91.81,-96.289 53.22,0 91.42,41.848 91.42,96.289 z m 80.02,-162.094 c 6.09,0 14.22,0.805 20.31,3.242 v -48.75 c -9.34,-3.66 -17.46,-5.269 -30.05,-5.269 -31.7,0 -60.95,12.996 -88.97,37.359 l -33.72,30.071 c -12.18,-3.262 -25.18,-4.875 -39.01,-4.875 -89.77,0 -151.12,69.054 -151.12,150.316 0,81.239 61.35,150.309 151.12,150.309 89.39,0 150.72,-69.07 150.72,-150.309 0,-47.535 -21.12,-90.996 -56.06,-118.637 l 17.07,-16.238 c 21.92,-19.902 41.44,-27.219 59.71,-27.219"
        style="fill: #000000; fill-opacity: 1; fill-rule: nonzero; stroke: none"
        id="path52" />
      <path
        d="m 3368.3,1103.13 h 57.69 V 930.078 c 0,-74.754 -43.88,-119.433 -115.38,-119.433 -71.09,0 -114.97,44.679 -114.97,119.433 v 173.052 h 57.69 V 925.203 c 0,-38.187 21.53,-60.531 57.69,-60.531 35.34,0 57.28,22.344 57.28,60.531 v 177.927"
        style="fill: #000000; fill-opacity: 1; fill-rule: nonzero; stroke: none"
        id="path54" />
      <path
        d="m 3492.64,1103.13 h 165.73 v -49.15 h -108.04 v -65.804 h 91.8 v -49.164 h -91.8 V 867.91 h 108.04 v -49.14 h -165.73 v 284.36"
        style="fill: #000000; fill-opacity: 1; fill-rule: nonzero; stroke: none"
        id="path56" />
      <path
        d="m 1275.02,678.398 h 165.76 v -49.136 h -108.07 v -65.813 h 91.81 v -49.168 h -91.81 V 394.039 h -57.69 v 284.359"
        style="fill: #000091; fill-opacity: 1; fill-rule: nonzero; stroke: none"
        id="path58" />
      <path
        d="m 1475.72,598.793 h 51.59 V 578.48 c 13.41,13.797 30.87,24.364 54.03,24.364 6.91,0 13,-1.223 17.87,-2.832 v -54.043 c -6.49,1.633 -13.4,2.851 -22.75,2.851 -25.19,0 -41.44,-13.808 -49.15,-26.422 V 394.039 h -51.59 v 204.754"
        style="fill: #000091; fill-opacity: 1; fill-rule: nonzero; stroke: none"
        id="path60" />
      <path
        d="m 1700.79,427.359 c 23.15,0 39.81,12.172 50.37,28.821 v 28.05 l -48.35,-8.531 c -21.93,-3.66 -30.46,-12.59 -30.46,-25.59 0,-13 10.97,-22.75 28.44,-22.75 z m -79.62,20.711 c 0,31.289 23.96,55.258 68.24,62.559 l 61.75,10.551 v 5.3 c 0,21.532 -16.25,35.34 -39.41,35.34 -19.9,0 -36.56,-8.539 -45.91,-24.371 l -38.18,28.832 c 18.28,25.196 48.75,40.637 85.72,40.637 59.31,0 89.78,-35.348 89.78,-80.438 V 394.039 h -52 v 19.102 c -13,-16.243 -36.98,-27.219 -60.94,-27.219 -41.04,0 -69.05,23.547 -69.05,62.148"
        style="fill: #000091; fill-opacity: 1; fill-rule: nonzero; stroke: none"
        id="path62" />
      <path
        d="m 1853.13,598.793 h 51.59 v -16.242 c 14.22,13.801 33.31,24.367 60.53,24.367 44.29,0 79.63,-30.473 79.63,-90.996 V 394.039 h -52.4 v 119.852 c 0,27.218 -15.04,44.269 -40.23,44.269 -26,0 -39.81,-17.461 -47.53,-30.461 v -133.66 h -51.59 v 204.754"
        style="fill: #000091; fill-opacity: 1; fill-rule: nonzero; stroke: none"
        id="path64" />
      <path
        d="m 2238.26,458.629 41.03,-31.27 c -19.1,-25.199 -49.16,-41.437 -86.53,-41.437 -70.68,0 -112.93,50.777 -112.93,110.488 0,59.719 42.25,110.508 112.93,110.508 37.37,0 67.43,-16.25 86.53,-41.438 l -41.03,-31.3 c -9.75,14.23 -25.19,23.98 -46.31,23.98 -33.72,0 -58.5,-26 -58.5,-61.75 0,-36.148 24.78,-61.738 59.31,-61.738 19.91,0 35.75,9.738 45.5,23.957"
        style="fill: #000091; fill-opacity: 1; fill-rule: nonzero; stroke: none"
        id="path66" />
      <path
        d="m 2350.4,524.852 h 92.21 c -0.82,20.308 -15.85,38.988 -43.06,38.988 -25.19,0 -42.25,-12.168 -49.15,-38.988 z m 57.68,-138.93 c -72.72,0 -113.75,50.777 -113.75,110.488 0,60.539 38.18,110.508 105.22,110.508 56.87,0 94.24,-38.199 94.24,-91.809 0,-11.39 -1.62,-22.359 -3.25,-29.269 h -143.4 c 3.26,-33.699 26.82,-53.602 61.75,-53.602 22.35,0 40.63,9.723 51.59,24.364 l 36.98,-29.243 c -19.11,-25.609 -50.79,-41.437 -89.38,-41.437"
        style="fill: #000091; fill-opacity: 1; fill-rule: nonzero; stroke: none"
        id="path68" />
      <path
        d="m 1292.48,83.8711 c 12.58,-15.8516 27.62,-27.2227 47.11,-27.2227 16.27,0 25.2,8.9532 25.2,21.1329 0,35.7497 -95.46,20.7187 -95.46,94.6407 0,36.18 30.46,62.976 72.71,62.976 31.68,0 60.11,-15.027 75.16,-34.949 l -34.53,-30.859 c -10.57,13.398 -23.97,23.57 -40.22,23.57 -15.44,0 -23.56,-7.32 -23.56,-18.699 0,-34.941 95.46,-20.723 95.46,-93.4219 -0.81,-43.0782 -35.34,-66.6289 -73.93,-66.6289 -36.56,0 -62.55,14.6289 -82.07,37.7695 l 34.13,31.6914"
        style="fill: #e1000f; fill-opacity: 1; fill-rule: nonzero; stroke: none"
        id="path70" />
      <path
        d="m 1494.39,153.328 h 92.22 c -0.82,20.313 -15.85,39.004 -43.07,39.004 -25.18,0 -42.25,-12.172 -49.15,-39.004 z m 57.69,-138.9178 c -72.71,0 -113.75,50.7812 -113.75,110.4808 0,60.531 38.19,110.507 105.21,110.507 56.88,0 94.25,-38.187 94.25,-91.796 0,-11.391 -1.62,-22.372 -3.25,-29.27 h -143.39 c 3.24,-33.7031 26.8,-53.6211 61.74,-53.6211 22.33,0 40.62,9.7383 51.6,24.3789 l 36.95,-29.25 c -19.07,-25.6015 -50.78,-41.4296 -89.36,-41.4296"
        style="fill: #e1000f; fill-opacity: 1; fill-rule: nonzero; stroke: none"
        id="path72" />
      <path
        d="m 1679.24,227.281 h 51.59 v -20.32 c 13.41,13.801 30.87,24.371 54.04,24.371 6.9,0 12.98,-1.223 17.86,-2.832 v -54.039 c -6.49,1.629 -13.4,2.848 -22.73,2.848 -25.2,0 -41.44,-13.809 -49.17,-26.418 V 22.5313 h -51.59 V 227.281"
        style="fill: #e1000f; fill-opacity: 1; fill-rule: nonzero; stroke: none"
        id="path74" />
      <path
        d="m 1866.12,227.281 53.21,-146.2419 52.8,146.2419 h 55.67 L 1953.04,22.5313 h -67.83 l -74.34,204.7497 h 55.25"
        style="fill: #e1000f; fill-opacity: 1; fill-rule: nonzero; stroke: none"
        id="path76" />
      <path
        d="m 2051.37,227.281 h 51.59 V 22.5313 h -51.59 z m -7.72,69.457 c 0,18.293 15.44,33.711 33.72,33.711 18.27,0 33.32,-15.418 33.32,-33.711 0,-18.289 -15.05,-33.707 -33.32,-33.707 -18.28,0 -33.72,15.418 -33.72,33.707"
        style="fill: #e1000f; fill-opacity: 1; fill-rule: nonzero; stroke: none"
        id="path78" />
      <path
        d="m 2299.58,87.1094 41.03,-31.2696 c -19.07,-25.1914 -49.15,-41.4296 -86.51,-41.4296 -70.69,0 -112.95,50.7812 -112.95,110.4808 0,59.73 42.26,110.507 112.95,110.507 37.36,0 67.44,-16.25 86.51,-41.437 l -41.03,-31.289 c -9.75,14.219 -25.19,23.969 -46.3,23.969 -33.71,0 -58.5,-25.993 -58.5,-61.75 0,-36.1527 24.79,-61.7308 59.32,-61.7308 19.9,0 35.73,9.7304 45.48,23.9492"
        style="fill: #e1000f; fill-opacity: 1; fill-rule: nonzero; stroke: none"
        id="path80" />
      <path
        d="m 2411.72,153.328 h 92.22 c -0.82,20.313 -15.85,39.004 -43.07,39.004 -25.17,0 -42.24,-12.172 -49.15,-39.004 z m 57.69,-138.9178 c -72.71,0 -113.75,50.7812 -113.75,110.4808 0,60.531 38.19,110.507 105.21,110.507 56.88,0 94.24,-38.187 94.24,-91.796 0,-11.391 -1.61,-22.372 -3.24,-29.27 h -143.39 c 3.24,-33.7031 26.81,-53.6211 61.74,-53.6211 22.33,0 40.62,9.7383 51.6,24.3789 l 36.95,-29.25 c -19.08,-25.6015 -50.78,-41.4296 -89.36,-41.4296"
        style="fill: #e1000f; fill-opacity: 1; fill-rule: nonzero; stroke: none"
        id="path82" />
      <path
        d="m 2612.41,83.8711 c 12.59,-15.8516 27.62,-27.2227 47.12,-27.2227 16.26,0 25.19,8.9532 25.19,21.1329 0,35.7497 -95.47,20.7187 -95.47,94.6407 0,36.18 30.47,62.976 72.72,62.976 31.68,0 60.11,-15.027 75.16,-34.949 l -34.54,-30.859 c -10.55,13.398 -23.96,23.57 -40.21,23.57 -15.44,0 -23.57,-7.32 -23.57,-18.699 0,-34.941 95.47,-20.723 95.47,-93.4219 -0.81,-43.0782 -35.34,-66.6289 -73.92,-66.6289 -36.57,0 -62.57,14.6289 -82.07,37.7695 l 34.12,31.6914"
        style="fill: #e1000f; fill-opacity: 1; fill-rule: nonzero; stroke: none"
        id="path84" />
    </g>
  </g>
</svg>
