<svg xmlns="http://www.w3.org/2000/svg" xlink="http://www.w3.org/1999/xlink" width="0" height="0" style="display:none;"><symbol viewBox="0 0 24 24" id="wifi-line"><path fill="none" d="M0 0h24v24H0z"/><path d="M.69 6.997A17.925 17.925 0 0 1 12 3c4.285 0 8.22 1.497 11.31 3.997l-1.256 1.556A15.933 15.933 0 0 0 12 5C8.191 5 4.694 6.33 1.946 8.553L.69 6.997zm3.141 3.89A12.946 12.946 0 0 1 12 8c3.094 0 5.936 1.081 8.169 2.886l-1.257 1.556A10.954 10.954 0 0 0 12 10c-2.618 0-5.023.915-6.912 2.442l-1.257-1.556zm3.142 3.89A7.967 7.967 0 0 1 12 13c1.904 0 3.653.665 5.027 1.776l-1.257 1.556A5.975 5.975 0 0 0 12 15c-1.428 0-2.74.499-3.77 1.332l-1.257-1.556zm3.142 3.89A2.987 2.987 0 0 1 12 18c.714 0 1.37.25 1.885.666L12 21l-1.885-2.334z"/></symbol><symbol viewBox="0 0 24 24" id="computer-line"><path fill="none" d="M0 0h24v24H0z"/><path d="M4 16h16V5H4v11zm9 2v2h4v2H7v-2h4v-2H2.992A.998.998 0 0 1 2 16.993V4.007C2 3.451 2.455 3 2.992 3h18.016c.548 0 .992.449.992 1.007v12.986c0 .556-.455 1.007-.992 1.007H13z"/></symbol><symbol viewBox="0 0 24 24" id="printer-line"><path fill="none" d="M0 0h24v24H0z"/><path d="M6 19H3a1 1 0 0 1-1-1V8a1 1 0 0 1 1-1h3V3a1 1 0 0 1 1-1h10a1 1 0 0 1 1 1v4h3a1 1 0 0 1 1 1v10a1 1 0 0 1-1 1h-3v2a1 1 0 0 1-1 1H7a1 1 0 0 1-1-1v-2zm0-2v-1a1 1 0 0 1 1-1h10a1 1 0 0 1 1 1v1h2V9H4v8h2zM8 4v3h8V4H8zm0 13v3h8v-3H8zm-3-7h3v2H5v-2z"/></symbol><symbol viewBox="0 0 24 24" id="phone-line"><path fill="none" d="M0 0h24v24H0z"/><path d="M9.366 10.682a10.556 10.556 0 0 0 3.952 3.952l.884-1.238a1 1 0 0 1 1.294-.296 11.422 11.422 0 0 0 4.583 1.364 1 1 0 0 1 .921.997v4.462a1 1 0 0 1-.898.995c-.53.055-1.064.082-1.602.082C9.94 21 3 14.06 3 5.5c0-.538.027-1.072.082-1.602A1 1 0 0 1 4.077 3h4.462a1 1 0 0 1 .997.921A11.422 11.422 0 0 0 10.9 8.504a1 1 0 0 1-.296 1.294l-1.238.884zm-2.522-.657l1.9-1.357A13.41 13.41 0 0 1 7.647 5H5.01c-.006.166-.009.333-.009.5C5 12.956 11.044 19 18.5 19c.167 0 .334-.003.5-.01v-2.637a13.41 13.41 0 0 1-3.668-1.097l-1.357 1.9a12.442 12.442 0 0 1-1.588-.75l-.058-.033a12.556 12.556 0 0 1-4.702-4.702l-.033-.058a12.442 12.442 0 0 1-.75-1.588z"/></symbol><symbol viewBox="0 0 24 24" id="map-pin-2-line"><path fill="none" d="M0 0h24v24H0z"/><path d="M12 23.728l-6.364-6.364a9 9 0 1 1 12.728 0L12 23.728zm4.95-7.778a7 7 0 1 0-9.9 0L12 20.9l4.95-4.95zM12 13a2 2 0 1 1 0-4 2 2 0 0 1 0 4z"/></symbol><symbol viewBox="0 0 24 24" id="add-line"><path fill="none" d="M0 0h24v24H0z"/><path d="M11 11V5h2v6h6v2h-6v6h-2v-6H5v-2z"/></symbol><symbol viewBox="0 0 24 24" id="check-line"><path fill="none" d="M0 0h24v24H0z"/><path d="M10 15.172l9.192-9.193 1.415 1.414L10 18l-6.364-6.364 1.414-1.414z"/></symbol><symbol viewBox="0 0 24 24" id="close-line"><path fill="none" d="M0 0h24v24H0z"/><path d="M12 10.586l4.95-4.95 1.414 1.414-4.95 4.95 4.95 4.95-1.414 1.414-4.95-4.95-4.95 4.95-1.414-1.414 4.95-4.95-4.95-4.95L7.05 5.636z"/></symbol><symbol viewBox="0 0 24 24" id="checkbox-blank-circle-line"><path fill="none" d="M0 0h24v24H0z"/><path d="M12 22C6.477 22 2 17.523 2 12S6.477 2 12 2s10 4.477 10 10-4.477 10-10 10zm0-2a8 8 0 1 0 0-16 8 8 0 0 0 0 16z"/></symbol><symbol viewBox="0 0 24 24" id="calendar-check-line"><path fill="none" d="M0 0h24v24H0z"/><path d="M9 1v2h6V1h2v2h4a1 1 0 0 1 1 1v16a1 1 0 0 1-1 1H3a1 1 0 0 1-1-1V4a1 1 0 0 1 1-1h4V1h2zm11 9H4v9h16v-9zm-4.964 1.136l1.414 1.414-4.95 4.95-3.536-3.536L9.38 12.55l2.121 2.122 3.536-3.536zM7 5H4v3h16V5h-3v1h-2V5H9v1H7V5z"/></symbol><symbol viewBox="0 0 24 24" id="mail-line"><path fill="none" d="M0 0h24v24H0z"/><path d="M3 3h18a1 1 0 0 1 1 1v16a1 1 0 0 1-1 1H3a1 1 0 0 1-1-1V4a1 1 0 0 1 1-1zm17 4.238l-7.928 7.1L4 7.216V19h16V7.238zM4.511 5l7.55 6.662L19.502 5H4.511z"/></symbol><symbol viewBox="0 0 24 24" id="arrow-right-s-line"><path fill="none" d="M0 0h24v24H0z"/><path d="M13.172 12l-4.95-4.95 1.414-1.414L16 12l-6.364 6.364-1.414-1.414z"/></symbol><symbol viewBox="0 0 24 24" id="arrow-left-s-line"><path fill="none" d="M0 0h24v24H0z"/><path d="M10.828 12l4.95 4.95-1.414 1.414L8 12l6.364-6.364 1.414 1.414z"/></symbol><symbol viewBox="0 0 24 24" id="notification-3-line"><path fill="none" d="M0 0h24v24H0z"/><path d="M20 17h2v2H2v-2h2v-7a8 8 0 1 1 16 0v7zm-2 0v-7a6 6 0 1 0-12 0v7h12zm-9 4h6v2H9v-2z"/></symbol><symbol viewBox="0 0 24 24" id="mouse-line"><path fill="none" d="M0 0h24v24H0z"/><path d="M11.141 4c-1.582 0-2.387.169-3.128.565a3.453 3.453 0 0 0-1.448 1.448C6.169 6.753 6 7.559 6 9.14v5.718c0 1.582.169 2.387.565 3.128.337.63.818 1.111 1.448 1.448.74.396 1.546.565 3.128.565h1.718c1.582 0 2.387-.169 3.128-.565a3.453 3.453 0 0 0 1.448-1.448c.396-.74.565-1.546.565-3.128V9.14c0-1.582-.169-2.387-.565-3.128a3.453 3.453 0 0 0-1.448-1.448C15.247 4.169 14.441 4 12.86 4H11.14zm0-2h1.718c2.014 0 3.094.278 4.072.801a5.452 5.452 0 0 1 2.268 2.268c.523.978.801 2.058.801 4.072v5.718c0 2.014-.278 3.094-.801 4.072a5.452 5.452 0 0 1-2.268 2.268c-.978.523-2.058.801-4.072.801H11.14c-2.014 0-3.094-.278-4.072-.801a5.452 5.452 0 0 1-2.268-2.268C4.278 17.953 4 16.873 4 14.859V9.14c0-2.014.278-3.094.801-4.072A5.452 5.452 0 0 1 7.07 2.801C8.047 2.278 9.127 2 11.141 2zM11 6h2v5h-2V6z"/></symbol><symbol viewBox="0 0 24 24" id="group-line"><path fill="none" d="M0 0h24v24H0z"/><path d="M2 22a8 8 0 1 1 16 0h-2a6 6 0 1 0-12 0H2zm8-9c-3.315 0-6-2.685-6-6s2.685-6 6-6 6 2.685 6 6-2.685 6-6 6zm0-2c2.21 0 4-1.79 4-4s-1.79-4-4-4-4 1.79-4 4 1.79 4 4 4zm8.284 3.703A8.002 8.002 0 0 1 23 22h-2a6.001 6.001 0 0 0-3.537-5.473l.82-1.824zm-.688-11.29A5.5 5.5 0 0 1 21 8.5a5.499 5.499 0 0 1-5 5.478v-2.013a3.5 3.5 0 0 0 1.041-6.609l.555-1.943z"/></symbol><symbol viewBox="0 0 24 24" id="wheelchair-line"><path fill="none" d="M0 0H24V24H0z"/><path d="M8 10.341v2.194C6.804 13.227 6 14.52 6 16c0 2.21 1.79 4 4 4 1.48 0 2.773-.804 3.465-2h2.193c-.823 2.33-3.046 4-5.658 4-3.314 0-6-2.686-6-6 0-2.613 1.67-4.835 4-5.659zM12 17c-1.657 0-3-1.343-3-3v-4c0-1.044.534-1.964 1.343-2.501C9.533 6.964 9 6.044 9 5c0-1.657 1.343-3 3-3s3 1.343 3 3c0 1.044-.534 1.964-1.343 2.501C14.467 8.036 15 8.956 15 10v4.999l1.434.001c.648 0 1.253.314 1.626.836l.089.135 2.708 4.515-1.714 1.028L16.433 17 15 16.999 12 17zm0-8c-.552 0-1 .448-1 1v4c0 .552.448 1 1 1h.999L13 10c0-.552-.448-1-1-1zm0-5c-.552 0-1 .448-1 1s.448 1 1 1 1-.448 1-1-.448-1-1-1z"/></symbol><symbol viewBox="0 0 24 24" id="parent-line"><path fill="none" d="M0 0h24v24H0z"/><path d="M7 9a2.5 2.5 0 1 0 0-5 2.5 2.5 0 0 0 0 5zm0 2a4.5 4.5 0 1 1 0-9 4.5 4.5 0 0 1 0 9zm10.5 2a2 2 0 1 0 0-4 2 2 0 0 0 0 4zm0 2a4 4 0 1 1 0-8 4 4 0 0 1 0 8zm2.5 6v-.5a2.5 2.5 0 1 0-5 0v.5h-2v-.5a4.5 4.5 0 1 1 9 0v.5h-2zm-10 0v-4a3 3 0 0 0-6 0v4H2v-4a5 5 0 0 1 10 0v4h-2z"/></symbol><symbol viewBox="0 0 24 24" id="mail-line"><path fill="none" d="M0 0h24v24H0z"/><path d="M3 3h18a1 1 0 0 1 1 1v16a1 1 0 0 1-1 1H3a1 1 0 0 1-1-1V4a1 1 0 0 1 1-1zm17 4.238l-7.928 7.1L4 7.216V19h16V7.238zM4.511 5l7.55 6.662L19.502 5H4.511z"/></symbol><symbol viewBox="0 0 24 24" id="user-3-line"><path fill="none" d="M0 0h24v24H0z"/><path d="M20 22h-2v-2a3 3 0 0 0-3-3H9a3 3 0 0 0-3 3v2H4v-2a5 5 0 0 1 5-5h6a5 5 0 0 1 5 5v2zm-8-9a6 6 0 1 1 0-12 6 6 0 0 1 0 12zm0-2a4 4 0 1 0 0-8 4 4 0 0 0 0 8z"/></symbol><symbol viewBox="0 0 24 24" id="tools-line"><path fill="none" d="M0 0h24v24H0z"/><path d="M5.33 3.271a3.5 3.5 0 0 1 4.254 4.963l10.709 10.71-1.414 1.414-10.71-10.71a3.502 3.502 0 0 1-4.962-4.255L5.444 7.63a1.5 1.5 0 1 0 2.121-2.121L5.329 3.27zm10.367 1.884l3.182-1.768 1.414 1.414-1.768 3.182-1.768.354-2.12 2.121-1.415-1.414 2.121-2.121.354-1.768zm-6.718 8.132l1.414 1.414-5.303 5.303a1 1 0 0 1-1.492-1.327l.078-.087 5.303-5.303z"/></symbol><symbol viewBox="0 0 24 24" id="error-warning-line"><path fill="none" d="M0 0h24v24H0z"/><path d="M12 22C6.477 22 2 17.523 2 12S6.477 2 12 2s10 4.477 10 10-4.477 10-10 10zm0-2a8 8 0 1 0 0-16 8 8 0 0 0 0 16zm-1-5h2v2h-2v-2zm0-8h2v6h-2V7z"/></symbol><symbol viewBox="0 0 24 24" id="service-line"><path fill="none" d="M0 0h24v24H0z"/><path d="M3.161 4.469a6.5 6.5 0 0 1 8.84-.328 6.5 6.5 0 0 1 9.178 9.154l-7.765 7.79a2 2 0 0 1-2.719.102l-.11-.101-7.764-7.791a6.5 6.5 0 0 1 .34-8.826zm1.414 1.414a4.5 4.5 0 0 0-.146 6.21l.146.154L12 19.672l5.303-5.304-3.535-3.535-1.06 1.06a3 3 0 1 1-4.244-4.242l2.102-2.103a4.501 4.501 0 0 0-5.837.189l-.154.146zm8.486 2.828a1 1 0 0 1 1.414 0l4.242 4.242.708-.706a4.5 4.5 0 0 0-6.211-6.51l-.153.146-3.182 3.182a1 1 0 0 0-.078 1.327l.078.087a1 1 0 0 0 1.327.078l.087-.078 1.768-1.768z"/></symbol><symbol viewBox="0 0 24 24" id="checkbox-blank-circle-fill"><path fill="none" d="M0 0h24v24H0z"/><path d="undefined"/></symbol><symbol viewBox="0 0 24 24" id="equalizer-fill"><path fill="none" d="M0 0h24v24H0z"/><path d="M6.17 18a3.001 3.001 0 0 1 5.66 0H22v2H11.83a3.001 3.001 0 0 1-5.66 0H2v-2h4.17zm6-7a3.001 3.001 0 0 1 5.66 0H22v2h-4.17a3.001 3.001 0 0 1-5.66 0H2v-2h10.17zm-6-7a3.001 3.001 0 0 1 5.66 0H22v2H11.83a3.001 3.001 0 0 1-5.66 0H2V4h4.17z"/></symbol><symbol viewBox="0 0 24 24" id="account-pin-circle-fill"><path fill="none" d="M0 0h24v24H0z"/><path d="M14.256 21.744L12 24l-2.256-2.256C5.31 20.72 2 16.744 2 12 2 6.48 6.48 2 12 2s10 4.48 10 10c0 4.744-3.31 8.72-7.744 9.744zm-8.233-6.328C7.491 17.606 9.695 19 12.16 19c2.464 0 4.669-1.393 6.136-3.584A8.968 8.968 0 0 0 12.16 13a8.968 8.968 0 0 0-6.137 2.416zM12 11a3 3 0 1 0 0-6 3 3 0 0 0 0 6z"/></symbol><symbol viewBox="0 0 24 24" id="arrow-right-circle-fill"><path fill="none" d="M0 0h24v24H0z"/><path d="M12 2c5.52 0 10 4.48 10 10s-4.48 10-10 10S2 17.52 2 12 6.48 2 12 2zm0 9H8v2h4v3l4-4-4-4v3z"/></symbol><symbol viewBox="0 0 24 24" id="arrow-left-circle-fill"><path fill="none" d="M0 0h24v24H0z"/><path d="M12 2c5.52 0 10 4.48 10 10s-4.48 10-10 10S2 17.52 2 12 6.48 2 12 2zm0 9V8l-4 4 4 4v-3h4v-2h-4z"/></symbol><symbol viewBox="0 0 24 24" id="external-link-line"><path fill="none" d="M0 0h24v24H0z"/><path d="M10 6v2H5v11h11v-5h2v6a1 1 0 0 1-1 1H4a1 1 0 0 1-1-1V7a1 1 0 0 1 1-1h6zm11-3v8h-2V6.413l-7.793 7.794-1.414-1.414L17.585 5H13V3h8z"/></symbol><symbol viewBox="0 0 24 24" id="arrow-go-back-line"><path fill="none" d="M0 0h24v24H0z"/><path d="M5.828 7l2.536 2.536L6.95 10.95 2 6l4.95-4.95 1.414 1.414L5.828 5H13a8 8 0 1 1 0 16H4v-2h9a6 6 0 1 0 0-12H5.828z"/></symbol><symbol viewBox="0 0 24 24" id="file-text-line"><path fill="none" d="M0 0h24v24H0z"/><path d="M21 8v12.993A1 1 0 0 1 20.007 22H3.993A.993.993 0 0 1 3 21.008V2.992C3 2.455 3.449 2 4.002 2h10.995L21 8zm-2 1h-5V4H5v16h14V9zM8 7h3v2H8V7zm0 4h8v2H8v-2zm0 4h8v2H8v-2z"/></symbol><symbol viewBox="0 0 24 24" id="link"><path fill="none" d="M0 0h24v24H0z"/><path d="M18.364 15.536L16.95 14.12l1.414-1.414a5 5 0 1 0-7.071-7.071L9.879 7.05 8.464 5.636 9.88 4.222a7 7 0 0 1 9.9 9.9l-1.415 1.414zm-2.828 2.828l-1.415 1.414a7 7 0 0 1-9.9-9.9l1.415-1.414L7.05 9.88l-1.414 1.414a5 5 0 1 0 7.071 7.071l1.414-1.414 1.415 1.414zm-.708-10.607l1.415 1.415-7.071 7.07-1.415-1.414 7.071-7.07z"/></symbol><symbol viewBox="0 0 24 24" id="list-check"><path fill="none" d="M0 0h24v24H0z"/><path d="M8 4h13v2H8V4zm-5-.5h3v3H3v-3zm0 7h3v3H3v-3zm0 7h3v3H3v-3zM8 11h13v2H8v-2zm0 7h13v2H8v-2z"/></symbol><symbol viewBox="0 0 24 24" id="mail-send-line"><path fill="none" d="M0 0h24v24H0z"/><path d="M22 20.007a1 1 0 0 1-.992.993H2.992A.993.993 0 0 1 2 20.007V19h18V7.3l-8 7.2-10-9V4a1 1 0 0 1 1-1h18a1 1 0 0 1 1 1v16.007zM4.434 5L12 11.81 19.566 5H4.434zM0 15h8v2H0v-2zm0-5h5v2H0v-2z"/></symbol><symbol viewBox="0 0 24 24" id="skip-forward-line"><path fill="none" d="M0 0h24v24H0z"/><path d="M16 12.667L5.777 19.482A.5.5 0 0 1 5 19.066V4.934a.5.5 0 0 1 .777-.416L16 11.333V5a1 1 0 0 1 2 0v14a1 1 0 0 1-2 0v-6.333zm-9-4.93v8.526L13.394 12 7 7.737z"/></symbol><symbol viewBox="0 0 24 24" id="map-pin-5-line"><path fill="none" d="M0 0h24v24H0z"/><path d="M12 18.485l4.243-4.242a6 6 0 1 0-8.486 0L12 18.485zm5.657-2.828L12 21.314l-5.657-5.657a8 8 0 1 1 11.314 0zM5 22h14v2H5v-2z"/></symbol><symbol viewBox="0 0 24 24" id="settings-4-line"><path fill="none" d="M0 0h24v24H0z"/><path d="M2 12c0-.865.11-1.703.316-2.504A3 3 0 0 0 4.99 4.867a9.99 9.99 0 0 1 4.335-2.505 3 3 0 0 0 5.348 0 9.99 9.99 0 0 1 4.335 2.505 3 3 0 0 0 2.675 4.63c.206.8.316 1.638.316 2.503 0 .865-.11 1.703-.316 2.504a3 3 0 0 0-2.675 4.629 9.99 9.99 0 0 1-4.335 2.505 3 3 0 0 0-5.348 0 9.99 9.99 0 0 1-4.335-2.505 3 3 0 0 0-2.675-4.63C2.11 13.704 2 12.866 2 12zm4.804 3c.63 1.091.81 2.346.564 3.524.408.29.842.541 1.297.75A4.993 4.993 0 0 1 12 18c1.26 0 2.438.471 3.335 1.274.455-.209.889-.46 1.297-.75A4.993 4.993 0 0 1 17.196 15a4.993 4.993 0 0 1 2.77-2.25 8.126 8.126 0 0 0 0-1.5A4.993 4.993 0 0 1 17.195 9a4.993 4.993 0 0 1-.564-3.524 7.989 7.989 0 0 0-1.297-.75A4.993 4.993 0 0 1 12 6a4.993 4.993 0 0 1-3.335-1.274 7.99 7.99 0 0 0-1.297.75A4.993 4.993 0 0 1 6.804 9a4.993 4.993 0 0 1-2.77 2.25 8.126 8.126 0 0 0 0 1.5A4.993 4.993 0 0 1 6.805 15zM12 15a3 3 0 1 1 0-6 3 3 0 0 1 0 6zm0-2a1 1 0 1 0 0-2 1 1 0 0 0 0 2z"/></symbol><symbol viewBox="0 0 24 24" id="calendar-todo-line"><path fill="none" d="M0 0h24v24H0z"/><path d="M17 3h4a1 1 0 0 1 1 1v16a1 1 0 0 1-1 1H3a1 1 0 0 1-1-1V4a1 1 0 0 1 1-1h4V1h2v2h6V1h2v2zm-2 2H9v2H7V5H4v4h16V5h-3v2h-2V5zm5 6H4v8h16v-8zM6 14h2v2H6v-2zm4 0h8v2h-8v-2z"/></symbol><symbol viewBox="0 0 24 24" id="road-map-line"><path fill="none" d="M0 0h24v24H0z"/><path d="M4 6.143v12.824l5.065-2.17 6 3L20 17.68V4.857l1.303-.558a.5.5 0 0 1 .697.46V19l-7 3-6-3-6.303 2.701a.5.5 0 0 1-.697-.46V7l2-.857zm12.243 5.1L12 15.485l-4.243-4.242a6 6 0 1 1 8.486 0zM12 12.657l2.828-2.829a4 4 0 1 0-5.656 0L12 12.657z"/></symbol><symbol viewBox="0 0 24 24" id="subtract-line"><path fill="none" d="M0 0h24v24H0z"/><path d="M5 11h14v2H5z"/></symbol><symbol viewBox="0 0 24 24" id="smartphone-line"><path fill="none" d="M0 0h24v24H0z"/><path d="M7 4v16h10V4H7zM6 2h12a1 1 0 0 1 1 1v18a1 1 0 0 1-1 1H6a1 1 0 0 1-1-1V3a1 1 0 0 1 1-1zm6 15a1 1 0 1 1 0 2 1 1 0 0 1 0-2z"/></symbol><symbol viewBox="0 0 24 24" id="user-line"><path fill="none" d="M0 0h24v24H0z"/><path d="M4 22a8 8 0 1 1 16 0h-2a6 6 0 1 0-12 0H4zm8-9c-3.315 0-6-2.685-6-6s2.685-6 6-6 6 2.685 6 6-2.685 6-6 6zm0-2c2.21 0 4-1.79 4-4s-1.79-4-4-4-4 1.79-4 4 1.79 4 4 4z"/></symbol><symbol viewBox="0 0 24 24" id="user-star-line"><path fill="none" d="M0 0h24v24H0z"/><path d="M12 14v2a6 6 0 0 0-6 6H4a8 8 0 0 1 8-8zm0-1c-3.315 0-6-2.685-6-6s2.685-6 6-6 6 2.685 6 6-2.685 6-6 6zm0-2c2.21 0 4-1.79 4-4s-1.79-4-4-4-4 1.79-4 4 1.79 4 4 4zm6 10.5l-2.939 1.545.561-3.272-2.377-2.318 3.286-.478L18 14l1.47 2.977 3.285.478-2.377 2.318.56 3.272L18 21.5z"/></symbol><symbol viewBox="0 0 24 24" id="slideshow-line"><path fill="none" d="M0 0h24v24H0z"/><path d="M13 21v2h-2v-2H3a1 1 0 0 1-1-1V6h20v14a1 1 0 0 1-1 1h-8zm-9-2h16V8H4v11zm9-9h5v2h-5v-2zm0 4h5v2h-5v-2zm-4-4v3h3a3 3 0 1 1-3-3zM2 3h20v2H2V3z"/></symbol><symbol viewBox="0 0 24 24" id="stethoscope-line"><path fill="none" d="M0 0H24V24H0z"/><path d="M8 3v2H6v4c0 2.21 1.79 4 4 4s4-1.79 4-4V5h-2V3h3c.552 0 1 .448 1 1v5c0 2.973-2.162 5.44-5 5.917V16.5c0 1.933 1.567 3.5 3.5 3.5 1.497 0 2.775-.94 3.275-2.263C16.728 17.27 16 16.22 16 15c0-1.657 1.343-3 3-3s3 1.343 3 3c0 1.371-.92 2.527-2.176 2.885C19.21 20.252 17.059 22 14.5 22 11.462 22 9 19.538 9 16.5v-1.583C6.162 14.441 4 11.973 4 9V4c0-.552.448-1 1-1h3zm11 11c-.552 0-1 .448-1 1s.448 1 1 1 1-.448 1-1-.448-1-1-1z"/></symbol><symbol viewBox="0 0 24 24" id="shopping-cart-line"><path fill="none" d="M0 0h24v24H0z"/><path d="M4 16V4H2V2h3a1 1 0 0 1 1 1v12h12.438l2-8H8V5h13.72a1 1 0 0 1 .97 1.243l-2.5 10a1 1 0 0 1-.97.757H5a1 1 0 0 1-1-1zm2 7a2 2 0 1 1 0-4 2 2 0 0 1 0 4zm12 0a2 2 0 1 1 0-4 2 2 0 0 1 0 4z"/></symbol><symbol viewBox="0 0 24 24" id="settings-5-line"><path fill="none" d="M0 0h24v24H0z"/><path d="M2.213 14.06a9.945 9.945 0 0 1 0-4.12c1.11.13 2.08-.237 2.396-1.001.317-.765-.108-1.71-.986-2.403a9.945 9.945 0 0 1 2.913-2.913c.692.877 1.638 1.303 2.403.986.765-.317 1.132-1.286 1.001-2.396a9.945 9.945 0 0 1 4.12 0c-.13 1.11.237 2.08 1.001 2.396.765.317 1.71-.108 2.403-.986a9.945 9.945 0 0 1 2.913 2.913c-.877.692-1.303 1.638-.986 2.403.317.765 1.286 1.132 2.396 1.001a9.945 9.945 0 0 1 0 4.12c-1.11-.13-2.08.237-2.396 1.001-.317.765.108 1.71.986 2.403a9.945 9.945 0 0 1-2.913 2.913c-.692-.877-1.638-1.303-2.403-.986-.765.317-1.132 1.286-1.001 2.396a9.945 9.945 0 0 1-4.12 0c.13-1.11-.237-2.08-1.001-2.396-.765-.317-1.71.108-2.403.986a9.945 9.945 0 0 1-2.913-2.913c.877-.692 1.303-1.638.986-2.403-.317-.765-1.286-1.132-2.396-1.001zM4 12.21c1.1.305 2.007 1.002 2.457 2.086.449 1.085.3 2.22-.262 3.212.096.102.195.201.297.297.993-.562 2.127-.71 3.212-.262 1.084.45 1.781 1.357 2.086 2.457.14.004.28.004.42 0 .305-1.1 1.002-2.007 2.086-2.457 1.085-.449 2.22-.3 3.212.262.102-.096.201-.195.297-.297-.562-.993-.71-2.127-.262-3.212.45-1.084 1.357-1.781 2.457-2.086.004-.14.004-.28 0-.42-1.1-.305-2.007-1.002-2.457-2.086-.449-1.085-.3-2.22.262-3.212a7.935 7.935 0 0 0-.297-.297c-.993.562-2.127.71-3.212.262C13.212 6.007 12.515 5.1 12.21 4a7.935 7.935 0 0 0-.42 0c-.305 1.1-1.002 2.007-2.086 2.457-1.085.449-2.22.3-3.212-.262-.102.096-.201.195-.297.297.562.993.71 2.127.262 3.212C6.007 10.788 5.1 11.485 4 11.79c-.004.14-.004.28 0 .42zM12 15a3 3 0 1 1 0-6 3 3 0 0 1 0 6zm0-2a1 1 0 1 0 0-2 1 1 0 0 0 0 2z"/></symbol><symbol viewBox="0 0 24 24" id="contacts-line"><path fill="none" d="M0 0h24v24H0z"/><path d="M19 7h5v2h-5V7zm-2 5h7v2h-7v-2zm3 5h4v2h-4v-2zM2 22a8 8 0 1 1 16 0h-2a6 6 0 1 0-12 0H2zm8-9c-3.315 0-6-2.685-6-6s2.685-6 6-6 6 2.685 6 6-2.685 6-6 6zm0-2c2.21 0 4-1.79 4-4s-1.79-4-4-4-4 1.79-4 4 1.79 4 4 4z"/></symbol><symbol viewBox="0 0 24 24" id="medal-line"><path fill="none" d="M0 0h24v24H0z"/><path d="M12 7a8 8 0 1 1 0 16 8 8 0 0 1 0-16zm0 2a6 6 0 1 0 0 12 6 6 0 0 0 0-12zm0 1.5l1.323 2.68 2.957.43-2.14 2.085.505 2.946L12 17.25l-2.645 1.39.505-2.945-2.14-2.086 2.957-.43L12 10.5zM18 2v3l-1.363 1.138A9.935 9.935 0 0 0 13 5.049L13 2 18 2zm-7-.001v3.05a9.935 9.935 0 0 0-3.636 1.088L6 5V2l5-.001z"/></symbol><symbol viewBox="0 0 24 24" id="image-2-line"><path fill="none" d="M0 0h24v24H0z"/><path d="M5 11.1l2-2 5.5 5.5 3.5-3.5 3 3V5H5v6.1zm0 2.829V19h3.1l2.986-2.985L7 11.929l-2 2zM10.929 19H19v-2.071l-3-3L10.929 19zM4 3h16a1 1 0 0 1 1 1v16a1 1 0 0 1-1 1H4a1 1 0 0 1-1-1V4a1 1 0 0 1 1-1zm11.5 7a1.5 1.5 0 1 1 0-3 1.5 1.5 0 0 1 0 3z"/></symbol><symbol viewBox="0 0 24 24" id="pen-nib-line"><path fill="none" d="M0 0h24v24H0z"/><path d="M16.596 1.04l6.347 6.346a.5.5 0 0 1-.277.848l-1.474.23-5.656-5.656.212-1.485a.5.5 0 0 1 .848-.283zM4.595 20.15c3.722-3.331 7.995-4.328 12.643-5.52l.446-4.018-4.297-4.297-4.018.446c-1.192 4.648-2.189 8.92-5.52 12.643L2.454 18.01c2.828-3.3 3.89-6.953 5.303-13.081l6.364-.707 5.657 5.657-.707 6.364c-6.128 1.414-9.782 2.475-13.081 5.303L4.595 20.15zm5.284-6.03a2 2 0 1 1 2.828-2.828A2 2 0 0 1 9.88 14.12z"/></symbol><symbol viewBox="0 0 24 24" id="map-pin-4-line"><path fill="none" d="M0 0h24v24H0z"/><path d="M11 17.938A8.001 8.001 0 0 1 12 2a8 8 0 0 1 1 15.938V21h-2v-3.062zM12 16a6 6 0 1 0 0-12 6 6 0 0 0 0 12zm-7 6h14v2H5v-2z"/></symbol><symbol viewBox="0 0 24 24" id="map-2-line"><path fill="none" d="M0 0h24v24H0z"/><path d="M2 5l7-3 6 3 6.303-2.701a.5.5 0 0 1 .697.46V19l-7 3-6-3-6.303 2.701a.5.5 0 0 1-.697-.46V5zm14 14.395l4-1.714V5.033l-4 1.714v12.648zm-2-.131V6.736l-4-2v12.528l4 2zm-6-2.011V4.605L4 6.319v12.648l4-1.714z"/></symbol><symbol viewBox="0 0 24 24" id="focus-3-line"><path fill="none" d="M0 0h24v24H0z"/><path d="M13 1l.001 3.062A8.004 8.004 0 0 1 19.938 11H23v2l-3.062.001a8.004 8.004 0 0 1-6.937 6.937L13 23h-2v-3.062a8.004 8.004 0 0 1-6.938-6.937L1 13v-2h3.062A8.004 8.004 0 0 1 11 4.062V1h2zm-1 5a6 6 0 1 0 0 12 6 6 0 0 0 0-12zm0 4a2 2 0 1 1 0 4 2 2 0 0 1 0-4z"/></symbol><symbol viewBox="0 0 24 24" id="sound-module-line"><path fill="none" d="M0 0h24v24H0z"/><path d="M21 18v3h-2v-3h-2v-2h6v2h-2zM5 18v3H3v-3H1v-2h6v2H5zm6-12V3h2v3h2v2H9V6h2zm0 4h2v11h-2V10zm-8 4V3h2v11H3zm16 0V3h2v11h-2z"/></symbol></svg>