<?xml version="1.0" standalone="no"?><!DOCTYPE svg PUBLIC "-//W3C//DTD SVG 1.1//EN" "http://www.w3.org/Graphics/SVG/1.1/DTD/svg11.dtd" >
<svg xmlns="http://www.w3.org/2000/svg">
<defs>
    <font id="remixicon" horiz-adv-x="1200">
    <font-face font-family="remixicon"
      units-per-em="1200" ascent="1020"
      descent="180" />
    <missing-glyph horiz-adv-x="0" /><glyph glyph-name="wifi-line"
            unicode="&#xF2C0;"
            horiz-adv-x="1200" d="M34.476325 670.1705C189.017175 795.148 385.766675 870 599.9986749999999 870C814.228675 870 1010.978675 795.148 1165.523675 670.1705L1102.683675 592.374C965.313675 703.4649999999999 790.428675 770 599.9986749999999 770C409.570175 770 234.681675 703.4649999999999 97.312175 592.374L34.476325 670.1705zM191.565675 475.6799999999999C303.178675 565.9405 445.2756750000001 620 599.9986749999999 620C754.723675 620 896.8186749999999 565.9405 1008.433675 475.6799999999999L945.5936749999998 397.88C851.1536749999999 474.255 730.9186749999999 520 599.9986749999999 520C469.079175 520 348.843175 474.255 254.401675 397.88L191.565675 475.6799999999999zM348.655675 281.185C417.3401750000001 336.735 504.783675 370 599.9986749999999 370C695.2136749999999 370 782.6586749999999 336.735 851.343675 281.185L788.5086749999999 203.39C736.9936749999999 245.05 671.4086749999999 270 599.9986749999999 270C528.588675 270 463.004675 245.05 411.491175 203.39L348.655675 281.185zM505.743675 86.6949999999999C531.5036749999999 107.525 564.2936749999999 120 599.9986749999999 120C635.703675 120 668.4936749999999 107.525 694.2536749999999 86.6949999999999L599.9986749999999 -30L505.743675 86.6949999999999z" /><glyph glyph-name="computer-line"
            unicode="&#xEBCA;"
            horiz-adv-x="1200" d="M200 245H1000V795H200V245zM650 145V45H850V-55H350V45H550V145H149.59C122.2025 145 100 167.4449999999999 100 195.375V844.626C100 872.4465 122.7655 895 149.59 895H1050.4099999999999C1077.8 895 1100 872.554 1100 844.626V195.375C1100 167.5550000000001 1077.235 145 1050.4099999999999 145H650z" /><glyph glyph-name="printer-line"
            unicode="&#xF029;"
            horiz-adv-x="1200" d="M850 920C877.6149999999999 920 900 897.614 900 870V670H1050C1077.615 670 1100 647.614 1100 620V120C1100 92.3850000000001 1077.615 70 1050 70H900V-30C900 -57.615 877.6149999999999 -80 850 -80H350C322.386 -80 300 -57.615 300 -30V70H150C122.386 70 100 92.3850000000001 100 120V620C100 647.614 122.386 670 150 670H300V870C300 897.614 322.386 920 350 920H850zM800 170H400V20H800V170zM1000 570H200V170H300V220C300 247.615 322.386 270 350 270H850C877.6149999999999 270 900 247.615 900 220V170H1000V570zM400 520V420H250V520H400zM800 820H400V670H800V820z" /><glyph glyph-name="phone-line"
            unicode="&#xEFEC;"
            horiz-adv-x="1200" d="M468.278 485.895C515.1 403.5600000000001 583.5600000000001 335.1 665.895 288.28L710.12 350.195C724.8249999999999 370.775 752.58 377.135 774.78 365.01C845.12 326.5850000000001 922.855 303.235 1003.945 296.8150000000001C1029.95 294.755 1050 273.055 1050 246.9700000000001V23.8299999999999C1050 -1.8049999999999 1030.6100000000001 -23.2850000000001 1005.11 -25.905C978.6149999999998 -28.6300000000001 951.885 -30 925 -30C496.9795 -30 150 316.98 150 745C150 771.8865 151.371 798.6145 154.0945 825.112C156.715 850.6125 178.197 870 203.8325 870H426.971C453.055 870 474.7565 849.948 476.8150000000001 823.9455C483.2334999999999 742.856 506.585 665.1179999999999 545.01 594.778C557.135 572.58 550.775 544.8230000000001 530.1949999999999 530.1215L468.278 485.895zM342.2125 518.74L437.21 586.5955C410.2735 644.7429999999999 391.814 706.4085 382.3635 770H250.4535C250.1515 761.684 250 753.3499999999999 250 745C250 372.2100000000001 552.21 70 925 70C933.3500000000003 70 941.685 70.15 950 70.455V202.365C886.4100000000001 211.8150000000001 824.7450000000001 230.2750000000001 766.5949999999999 257.2099999999999L698.74 162.21C671.2900000000001 172.875 644.78 185.425 619.37 199.6950000000001L616.465 201.3499999999999C518.485 257.0650000000001 437.067 338.485 381.35 436.4650000000001L379.697 439.37C365.4245 464.78 352.877 491.2900000000001 342.2125 518.74z" /><glyph glyph-name="map-pin-2-line"
            unicode="&#xEF0A;"
            horiz-adv-x="1200" d="M599.999375 -123.1975L281.801375 194.9975C106.065375 370.7375 106.065375 655.6595 281.801375 831.3955C457.537375 1007.1315 742.459375 1007.1315 918.199375 831.3955C1093.9343749999998 655.6595 1093.9343749999998 370.7375 918.199375 194.9975L599.999375 -123.1975zM847.484375 265.7125C984.169375 402.3925 984.169375 624.0015 847.484375 760.685C710.804375 897.3685 489.195375 897.3685 352.511875 760.685C215.828375 624.0015 215.828375 402.3925 352.511875 265.7125L599.999375 18.2225000000001L847.484375 265.7125zM599.999375 413.1975C544.769375 413.1975 499.999375 457.9675 499.999375 513.1975C499.999375 568.426 544.769375 613.1975 599.999375 613.1975C655.229375 613.1975 699.999375 568.426 699.999375 513.1975C699.999375 457.9675 655.229375 413.1975 599.999375 413.1975z" /><glyph glyph-name="add-line"
            unicode="&#xEA13;"
            horiz-adv-x="1200" d="M550 470V770H650V470H950V370H650V70H550V370H250V470H550z" /><glyph glyph-name="check-line"
            unicode="&#xEB7B;"
            horiz-adv-x="1200" d="M493.934 260.9005L953.554 720.5195000000001L1024.2640000000001 649.809L493.934 119.4805L175.736 437.6755L246.447 508.3855L493.934 260.9005z" /><glyph glyph-name="checkbox-blank-circle-line"
            unicode="&#xEB7D;"
            horiz-adv-x="1200" d="M600 -80C323.8575 -80 100 143.86 100 420C100 696.1424999999999 323.8575 920 600 920C876.14 920 1100 696.1424999999999 1100 420C1100 143.86 876.14 -80 600 -80zM600 20C820.915 20 1000 199.085 1000 420C1000 640.914 820.915 820 600 820C379.086 820 200 640.914 200 420C200 199.085 379.086 20 600 20z" /><glyph glyph-name="calendar-check-line"
            unicode="&#xEB23;"
            horiz-adv-x="1200" d="M450 920V820H750V920H850V820H1050C1077.615 820 1100 797.614 1100 770V-30C1100 -57.615 1077.615 -80 1050 -80H150C122.386 -80 100 -57.615 100 -30V770C100 797.614 122.386 820 150 820H350V920H450zM1000 470H200V20H1000V470zM751.7750000000001 413.2000000000001L822.485 342.485L575 95L398.2235 271.7750000000001L468.934 342.485L575 236.42L751.7750000000001 413.2000000000001zM350 720H200V570H1000V720H850V670H750V720H450V670H350V720z" /><glyph glyph-name="mail-line"
            unicode="&#xEEF6;"
            horiz-adv-x="1200" d="M150 870H1050C1077.615 870 1100 847.614 1100 820V20C1100 -7.615 1077.615 -30 1050 -30H150C122.386 -30 100 -7.615 100 20V820C100 847.614 122.386 870 150 870zM1000 658.104L603.59 303.1L200 659.203V70H1000V658.104zM225.573 770L603.095 436.9L975.05 770H225.573z" /><glyph glyph-name="arrow-right-s-line"
            unicode="&#xEA6E;"
            horiz-adv-x="1200" d="M653.0345 419.9980000000001L405.5455000000001 667.4865000000001L476.2565 738.197L794.4545 419.9980000000001L476.2565 101.803L405.5455000000001 172.5130000000002L653.0345 419.9980000000001z" /><glyph glyph-name="arrow-left-s-line"
            unicode="&#xEA64;"
            horiz-adv-x="1200" d="M546.9649999999999 419.9980000000001L794.4549999999999 172.5130000000002L723.7450000000001 101.803L405.545 419.9980000000001L723.7450000000001 738.197L794.4549999999999 667.4865000000001L546.9649999999999 419.9980000000001z" /><glyph glyph-name="notification-3-line"
            unicode="&#xEF94;"
            horiz-adv-x="1200" d="M1000 195H1100V95H100V195H200V545C200 765.914 379.086 945 600 945C820.915 945 1000 765.914 1000 545V195zM900 195V545C900 710.6855 765.6850000000001 845 600 845C434.3145 845 300 710.6855 300 545V195H900zM450 -5H750V-105H450V-5z" /><glyph glyph-name="mouse-line"
            unicode="&#xEF7D;"
            horiz-adv-x="1200" d="M557.055 820C477.935 820 437.6805 811.562 400.6330000000001 791.749C369.171 774.9225 345.0775 750.829 328.251 719.367C308.438 682.3195000000001 300 642.065 300 562.9445000000001V277.055C300 197.9350000000001 308.438 157.68 328.251 120.635C345.0775 89.1700000000001 369.171 65.0749999999999 400.6330000000001 48.2500000000001C437.6805 28.4400000000001 477.935 20 557.055 20H642.945C722.065 20 762.3199999999999 28.4400000000001 799.365 48.2500000000001C830.8299999999999 65.0749999999999 854.9250000000001 89.1700000000001 871.7499999999999 120.635C891.56 157.68 900 197.9350000000001 900 277.055V562.9445000000001C900 642.065 891.56 682.3195000000001 871.7499999999999 719.367C854.9250000000001 750.829 830.8299999999999 774.9225 799.365 791.749C762.3199999999999 811.562 722.065 820 642.945 820H557.055zM557.055 920H642.945C743.64 920 797.64 906.076 846.525 879.9300000000001C895.4150000000001 853.784 933.785 815.4155000000001 959.93 766.527C986.075 717.6379999999999 1000 663.6395 1000 562.9445000000001V277.055C1000 176.3599999999999 986.075 122.36 959.93 73.475C933.785 24.5849999999999 895.4150000000001 -13.7849999999999 846.525 -39.9299999999998C797.64 -66.075 743.64 -80 642.945 -80H557.055C456.3605 -80 402.362 -66.075 353.473 -39.9299999999998C304.5845 -13.7849999999999 266.216 24.5849999999999 240.07 73.475C213.924 122.36 200 176.3599999999999 200 277.055V562.9445000000001C200 663.6395 213.924 717.6379999999999 240.07 766.527C266.216 815.4155000000001 304.5845 853.784 353.473 879.9300000000001C402.362 906.076 456.3605 920 557.055 920zM550 720H650V470H550V720z" /><glyph glyph-name="group-line"
            unicode="&#xEDE3;"
            horiz-adv-x="1200" d="M75 -105C75 115.915 254.086 295 475 295C695.915 295 875 115.915 875 -105H775C775 60.6850000000001 640.6850000000001 195 475 195C309.3145 195 175 60.6850000000001 175 -105H75zM475 345C309.25 345 175 479.25 175 645C175 810.75 309.25 945 475 945C640.75 945 775 810.75 775 645C775 479.25 640.75 345 475 345zM475 445C585.5 445 675 534.5 675 645C675 755.5 585.5 845 475 845C364.5 845 275 755.5 275 645C275 534.5 364.5 445 475 445zM889.185 259.86C1028.22 197.1950000000001 1125 57.4000000000001 1125 -105H1025C1025 16.8 952.415 121.6450000000001 848.1400000000001 168.645L889.185 259.86zM854.81 824.3395C954.72 783.1485 1025 684.8195000000001 1025 570C1025 426.49 915.21 308.74 775 296.12V396.77C859.835 408.89 925 481.8000000000001 925 570C925 639.0325 885.0799999999999 698.6985 827.0500000000001 727.1825L854.81 824.3395z" /><glyph glyph-name="wheelchair-line"
            unicode="&#xF2BE;"
            horiz-adv-x="1200" d="M378.5797500000001 502.9349999999999L378.5577500000001 393.24C318.7807500000002 358.66 278.5637500000002 294.025 278.5637500000002 220C278.5637500000002 109.5450000000001 368.1067500000001 20 478.56375 20C552.5912500000002 20 617.2212500000002 60.215 651.8012500000001 119.995L761.48625 119.98C720.2962500000001 3.47 609.1762500000001 -80 478.56375 -80C312.8782500000001 -80 178.5637500000001 54.3149999999999 178.5637500000001 220C178.5637500000001 350.63 262.0522500000001 461.755 378.5797500000001 502.9349999999999zM578.5612500000001 170C495.7212500000002 170 428.5637500000001 237.155 428.5637500000001 320V520C428.5637500000001 572.2194999999999 455.2472500000001 618.2065 495.7212500000002 645.0695000000001C455.2472500000001 671.7935 428.5637500000001 717.7805000000001 428.5637500000001 770C428.5637500000001 852.8425 495.7212500000002 920 578.5612500000001 920C661.4062500000001 920 728.5612500000001 852.8425 728.5612500000001 770C728.5612500000001 717.7805000000001 701.8812500000001 671.7935 661.4012500000001 644.9304999999999C701.8812500000001 618.2065 728.5612500000001 572.2194999999999 728.5612500000001 520V270.05L800.25625 270C832.6762500000002 270 862.90625 254.295 881.5812500000001 228.1900000000001L886.00125 221.4500000000001L1021.43625 -4.2749999999999L935.69125 -55.7250000000001L800.25625 170L728.5612500000001 170.0500000000001L578.5612500000001 170zM578.5612500000001 570C550.9512500000001 570 528.5612500000001 547.614 528.5612500000001 520V320C528.5612500000001 292.385 550.9512500000001 270 578.5612500000001 270H628.5112500000001L628.5612500000001 520C628.5612500000001 547.614 606.1762500000001 570 578.5612500000001 570zM578.5612500000001 820C550.9512500000001 820 528.5612500000001 797.614 528.5612500000001 770C528.5612500000001 742.386 550.9512500000001 720 578.5612500000001 720C606.1762500000001 720 628.5612500000001 742.386 628.5612500000001 770C628.5612500000001 797.614 606.1762500000001 820 578.5612500000001 820z" /><glyph glyph-name="parent-line"
            unicode="&#xEFCA;"
            horiz-adv-x="1200" d="M350 545C419.0355 545 475 600.9645 475 670C475 739.0355 419.0355 795 350 795C280.9645000000001 795 225 739.0355 225 670C225 600.9645 280.9645000000001 545 350 545zM350 445C225.736 445 125 545.7360000000001 125 670C125 794.264 225.736 895 350 895C474.264 895 575 794.264 575 670C575 545.7360000000001 474.264 445 350 445zM875 345C930.23 345 975 389.77 975 445C975 500.2285000000001 930.23 545 875 545C819.77 545 775 500.2285000000001 775 445C775 389.77 819.77 345 875 345zM875 245C764.5450000000001 245 675 334.5450000000001 675 445C675 555.457 764.5450000000001 645 875 645C985.455 645 1075 555.457 1075 445C1075 334.5450000000001 985.455 245 875 245zM1000 -55V-30C1000 39.0350000000001 944.035 95 875 95C805.9649999999999 95 750 39.0350000000001 750 -30V-55H650V-30C650 94.265 750.735 195 875 195C999.265 195 1100 94.265 1100 -30V-55H1000zM500 -55V145C500 227.8450000000001 432.8425000000001 295 350 295C267.1575 295 200 227.8450000000001 200 145V-55H100V145C100 283.0700000000001 211.929 395 350 395C488.071 395 600 283.0700000000001 600 145V-55H500z" /><glyph glyph-name="mail-line"
            unicode="&#xEEF6;"
            horiz-adv-x="1200" d="M150 870H1050C1077.615 870 1100 847.614 1100 820V20C1100 -7.615 1077.615 -30 1050 -30H150C122.386 -30 100 -7.615 100 20V820C100 847.614 122.386 870 150 870zM1000 658.104L603.59 303.1L200 659.203V70H1000V658.104zM225.573 770L603.095 436.9L975.05 770H225.573z" /><glyph glyph-name="user-3-line"
            unicode="&#xF256;"
            horiz-adv-x="1200" d="M1000 -105H900V-5C900 77.845 832.845 145 750 145H450C367.1575 145 300 77.845 300 -5V-105H200V-5C200 133.0699999999999 311.929 245 450 245H750C888.0699999999999 245 1000 133.0699999999999 1000 -5V-105zM600 345C434.3145 345 300 479.3149999999999 300 645C300 810.6855 434.3145 945 600 945C765.6850000000001 945 900 810.6855 900 645C900 479.3149999999999 765.6850000000001 345 600 345zM600 445C710.4549999999999 445 800 534.543 800 645C800 755.457 710.4549999999999 845 600 845C489.543 845 400 755.457 400 645C400 534.543 489.543 445 600 445z" /><glyph glyph-name="tools-line"
            unicode="&#xF21B;"
            horiz-adv-x="1200" d="M284.0366525871922 842.1034235214181C345.6911525871923 864.022423521418 417.1801525871922 850.3079235214182 466.5286525871921 800.9594235214181C522.5751525871922 744.9139235214182 532.6601525871922 660.3119235214181 496.7801525871922 593.990423521418L1032.2151525871923 58.4994235214181L961.5051525871922 -12.2155764785819L426.0561525871922 523.2449235214181C359.7276525871922 487.339423521418 275.0996525871922 497.4144235214181 219.0411525871922 553.4719235214181C169.6786525871922 602.8344235214181 155.9701525871922 674.3499235214181 177.9156525871922 736.0164235214181L289.7516525871922 624.1824235214181C319.0411525871922 594.8934235214181 366.5286525871922 594.8934235214181 395.8176525871923 624.1824235214181C425.1071525871922 653.4719235214181 425.1071525871922 700.9594235214181 395.8176525871923 730.2484235214181L284.0366525871922 842.1034235214181zM802.4051525871922 747.9264235214182L961.5051525871922 836.314923521418L1032.2151525871923 765.603923521418L943.8251525871922 606.504923521418L855.4351525871922 588.827423521418L749.3701525871923 482.7594235214181L678.6601525871922 553.4719235214181L784.7251525871922 659.5379235214182L802.4051525871922 747.9264235214182zM466.5286525871921 341.3394235214182L537.2401525871921 270.629423521418L272.0741525871922 5.464423521418C252.5481525871922 -14.0605764785819 220.8896525871922 -14.0605764785819 201.3636525871922 5.464423521418C183.2321525871922 23.594423521418 181.9371525871922 52.1894235214181 197.4781525871922 71.8144235214182L201.3636525871922 76.1744235214181L466.5286525871921 341.3394235214182z" /><glyph glyph-name="error-warning-line"
            unicode="&#xECA1;"
            horiz-adv-x="1200" d="M600 -80C323.8575 -80 100 143.86 100 420C100 696.1424999999999 323.8575 920 600 920C876.14 920 1100 696.1424999999999 1100 420C1100 143.86 876.14 -80 600 -80zM600 20C820.915 20 1000 199.085 1000 420C1000 640.914 820.915 820 600 820C379.086 820 200 640.914 200 420C200 199.085 379.086 20 600 20zM550 270H650V170H550V270zM550 670H650V370H550V670z" /><glyph glyph-name="service-line"
            unicode="&#xF0E2;"
            horiz-adv-x="1200" d="M158.0588642658946 802.4747103550808C279.2563642658946 923.6722103550808 472.3603642658946 929.1372103550806 600.0423642658945 818.8697103550808C727.6423642658946 929.1372103550806 920.7473642658946 923.6722103550808 1041.9423642658946 802.4747103550808C1162.9223642658947 681.4942103550807 1168.5823642658945 488.8622103550808 1058.9273642658945 361.1772103550807L670.7123642658945 -28.3777896449192C633.4323642658945 -65.6527896449193 574.0473642658945 -67.3477896449193 534.7623642658946 -33.4577896449194L529.2923642658947 -28.3777896449192L141.0728642658946 361.1772103550807C31.4164642658946 488.8622103550808 37.0784642658946 681.4942103550807 158.0588642658946 802.4747103550808zM228.7693642658946 731.7642103550809C143.4118642658946 646.4067103550808 140.9733642658946 509.5322103550807 221.4533642658946 421.2272103550807L228.7693642658946 413.5672103550807L600.0023642658946 42.3372103550807L865.1323642658947 307.5372103550808L688.3873642658946 484.2772103550807L635.3573642658946 431.2422103550808C576.7773642658947 372.6672103550808 481.8023642658945 372.6672103550808 423.2238642658946 431.2422103550808C364.6453642658946 489.8222103550807 364.6453642658946 584.7972103550808 423.2238642658946 643.3757103550809L528.2823642658946 748.5007103550809C442.6483642658946 817.0557103550807 318.5403642658946 813.9157103550808 236.4323642658946 739.0807103550808L228.7693642658946 731.7642103550809zM653.0323642658947 590.3427103550807C672.5573642658946 609.8692103550807 704.2173642658946 609.8692103550807 723.7423642658946 590.3427103550807L935.8423642658946 378.2472103550807L971.2323642658948 413.5672103550807C1059.0973642658946 501.4322103550807 1059.0973642658946 643.8962103550807 971.2323642658948 731.7642103550809C885.8723642658947 817.1217103550807 748.9973642658946 819.5602103550807 660.6973642658946 739.0807103550808L653.0323642658947 731.7642103550809L493.9343642658946 572.6652103550807C475.8028642658946 554.5337103550808 474.5078642658946 525.9412103550808 490.0493642658946 506.3172103550807L493.9343642658946 501.9522103550807C512.0673642658946 483.8222103550808 540.6573642658946 482.5272103550807 560.2823642658946 498.0672103550807L564.6473642658946 501.9522103550807L653.0323642658947 590.3427103550807z" /><glyph glyph-name="checkbox-blank-circle-fill"
            unicode="&#xEB7C;"
            horiz-adv-x="1200" d="M600 -80C876.14 -80 1100 143.86 1100 420C1100 696.1424999999999 876.14 920 600 920C323.8575 920 100 696.1424999999999 100 420C100 143.86 323.8575 -80 600 -80z" /><glyph glyph-name="equalizer-fill"
            unicode="&#xEC9C;"
            horiz-adv-x="1200" d="M308.5355 120C329.127 178.26 384.689 220 450 220C515.3100000000001 220 570.875 178.26 591.465 120H1100V20H591.465C570.875 -38.26 515.3100000000001 -80 450 -80C384.689 -80 329.127 -38.26 308.5355 20H100V120H308.5355zM608.535 470C629.125 528.2595000000001 684.6899999999999 570 750 570C815.3100000000001 570 870.875 528.2595000000001 891.465 470H1100V370H891.465C870.875 311.74 815.3100000000001 270 750 270C684.6899999999999 270 629.125 311.74 608.535 370H100V470H608.535zM308.5355 820C329.127 878.2595 384.689 920 450 920C515.3100000000001 920 570.875 878.2595 591.465 820H1100V720H591.465C570.875 661.7405 515.3100000000001 620 450 620C384.689 620 329.127 661.7405 308.5355 720H100V820H308.5355z" /><glyph glyph-name="account-pin-circle-fill"
            unicode="&#xEA0C;"
            horiz-adv-x="1200" d="M712.7900000000001 -17.21L600 -130L487.208 -17.21C265.4705 33.98 100 232.7850000000001 100 470C100 746 324 970 600 970C876 970 1100 746 1100 470C1100 232.7850000000001 934.53 33.98 712.7900000000001 -17.21zM301.166 299.1850000000001C374.5415 189.655 484.7555 120 607.985 120C731.215 120 841.4300000000001 189.655 914.805 299.1850000000001C834.4250000000001 374.14 726.5600000000001 420 607.985 420C489.4105 420 381.5475 374.14 301.166 299.1850000000001zM600 520C682.845 520 750 587.1575 750 670C750 752.8425 682.845 820 600 820C517.155 820 450 752.8425 450 670C450 587.1575 517.155 520 600 520z" /><glyph glyph-name="arrow-right-circle-fill"
            unicode="&#xEA67;"
            horiz-adv-x="1200" d="M600 920C876 920 1100 696 1100 420C1100 144 876 -80 600 -80C324 -80 100 144 100 420C100 696 324 920 600 920zM600 470H400V370H600V220L800 420L600 620V470z" /><glyph glyph-name="arrow-left-circle-fill"
            unicode="&#xEA5B;"
            horiz-adv-x="1200" d="M600 920C876 920 1100 696 1100 420C1100 144 876 -80 600 -80C324 -80 100 144 100 420C100 696 324 920 600 920zM600 470V620L400 420L600 220V370H800V470H600z" /><glyph glyph-name="external-link-line"
            unicode="&#xECAF;"
            horiz-adv-x="1200" d="M500 720V620H250V70H800V320H900V20C900 -7.615 877.6149999999999 -30 850 -30H200C172.386 -30 150 -7.615 150 20V670C150 697.614 172.386 720 200 720H500zM1050 870V470H950L949.995 699.3499999999999L560.355 309.645L489.6445 380.355L879.245 770H650V870H1050z" /><glyph glyph-name="arrow-go-back-line"
            unicode="&#xEA58;"
            horiz-adv-x="1200" d="M316.4215 621.2575L443.1980000000001 494.4805L372.4875 423.7700000000001L125 671.2575L372.4875 918.745L443.1980000000001 848.034L316.4215 721.2575H675C895.915 721.2575 1075 542.1715 1075 321.2550000000001C1075 100.345 895.915 -78.745 675 -78.745H225V21.255H675C840.6850000000001 21.255 975 155.5699999999999 975 321.2550000000001C975 486.943 840.6850000000001 621.2575 675 621.2575H316.4215z" /><glyph glyph-name="file-text-line"
            unicode="&#xED0F;"
            horiz-adv-x="1200" d="M1050 620V-29.6600000000001C1050 -57.5050000000001 1027.76 -80 1000.33 -80H199.67C172.2475 -80 150 -57.7999999999999 150 -30.4099999999999V870.41C150 897.2345 172.435 920 200.1105 920H749.84L1050 620zM950 570H700V820H250V20H950V570zM400 670H550V570H400V670zM400 470H800V370H400V470zM400 270H800V170H400V270z" /><glyph glyph-name="link"
            unicode="&#xEEB2;"
            horiz-adv-x="1200" d="M918.1984375 243.2241875L847.4884375 313.9341875000001L918.1984375 384.6441875000001C1015.8284375 482.2741875 1015.8284375 640.5661875000001 918.1984375 738.1971875C820.5684375000001 835.8286875000001 662.2734375 835.8286875000001 564.6434375 738.1971875L493.9329375 667.4866875L423.2224375000001 738.1971875L493.9329375 808.9081875C630.6184375 945.5916875 852.2234375 945.5916875 988.9084375 808.9081875C1125.5934375000002 672.2246875000001 1125.5934375000002 450.6191875000001 988.9084375 313.9341875000001L918.1984375 243.2241875zM776.7734375 101.7991875L706.0634375000001 31.0891875000002C569.3834375 -105.5908125000001 347.7739375000001 -105.5908125000001 211.0904375000001 31.0891875000002C74.4069375000001 167.7741875000002 74.4069375000001 389.3841875000001 211.0904375000001 526.0651875000001L281.8009375000001 596.7761875000001L352.5119375000001 526.0651875000001L281.8009375000001 455.3541875000001C184.1699375000001 357.7241875000001 184.1699375000001 199.4341875 281.8009375000001 101.7991875C379.4319375000001 4.1691875 537.7234375 4.1691875 635.3534374999999 101.7991875L706.0634375000001 172.5141875000001L776.7734375 101.7991875zM741.4184375000001 632.1311875000001L812.1334375 561.4206875000001L458.5779375000001 207.8691875000001L387.8669375000001 278.5791875000001L741.4184375000001 632.1311875000001z" /><glyph glyph-name="list-check"
            unicode="&#xEEBA;"
            horiz-adv-x="1200" d="M400 820H1050V720H400V820zM150 845H300V695H150V845zM150 495H300V345H150V495zM150 145H300V-5H150V145zM400 470H1050V370H400V470zM400 120H1050V20H400V120z" /><glyph glyph-name="mail-send-line"
            unicode="&#xEEFC;"
            horiz-adv-x="1200" d="M1100 870C1127.615 870 1150 847.614 1150 820V19.6700000000001C1150 -7.76 1127.235 -30 1100.4099999999999 -30H199.59C172.2025 -30 150 -7.7549999999999 150 19.6700000000001V70H1050V655L650 295L150 745V820C150 847.614 172.386 870 200 870H1100zM450 270V170H50V270H450zM300 520V420H50V520H300zM1028.295 770H271.707L650 429.535L1028.295 770z" /><glyph glyph-name="skip-forward-line"
            unicode="&#xF144;"
            horiz-adv-x="1200" d="M825 386.665L313.8675 45.91C302.3795 38.2550000000001 286.8575 41.355 279.1985 52.845C276.461 56.9500000000001 275 61.775 275 66.715V773.287C275 787.094 286.193 798.287 300 798.287C304.9355 798.287 309.761 796.826 313.8675 794.0885000000001L825 453.335V770C825 797.614 847.3850000000001 820 875 820C902.6149999999998 820 925 797.614 925 770V70C925 42.3850000000001 902.6149999999998 20 875 20C847.3850000000001 20 825 42.3850000000001 825 70V386.665zM375 633.1485V206.8499999999999L694.7199999999999 420L375 633.1485z" /><glyph glyph-name="map-pin-5-line"
            unicode="&#xEF10;"
            horiz-adv-x="1200" d="M600.000625 145.735L812.130625 357.87C929.290625 475.025 929.290625 664.9745 812.130625 782.1320000000001C694.975625 899.2895 505.025625 899.2895 387.868625 782.1320000000001C270.711125 664.9745 270.711125 475.025 387.868625 357.87L600.000625 145.735zM882.845625 287.155L600.000625 4.3150000000001L317.158125 287.155C160.948125 443.365 160.948125 696.633 317.158125 852.8425C473.367625 1009.0525 726.635625 1009.0525 882.845625 852.8425C1039.0506249999999 696.633 1039.0506249999999 443.365 882.845625 287.155zM250.000625 -30H950.000625V-130H250.000625V-30z" /><glyph glyph-name="settings-4-line"
            unicode="&#xF0E8;"
            horiz-adv-x="1200" d="M100 420.00075C100 463.2257499999999 105.485 505.1707499999999 115.7975 545.17525C170.311 542.34925 224.424 569.48325 253.59 619.99975C282.7335 670.4782499999999 279.203 730.8552500000001 249.5605 776.6402499999999C309.177 835.2262499999999 383.416 878.97975 466.3015 901.92425C491.11 853.29825 541.665 819.99975 600 819.99975C658.335 819.99975 708.89 853.29825 733.6999999999999 901.92425C816.585 878.97975 890.825 835.2262499999999 950.44 776.6402499999999C920.795 730.8552500000001 917.2650000000002 670.4782499999999 946.41 619.99975C975.575 569.48325 1029.69 542.34925 1084.205 545.17525C1094.515 505.1707499999999 1100 463.2257499999999 1100 420.00075C1100 376.77575 1094.515 334.8307499999999 1084.205 294.8257500000001C1029.69 297.65075 975.575 270.51575 946.41 220.00075C917.2650000000002 169.52075 920.795 109.1457500000001 950.44 63.36075C890.825 4.77575 816.585 -38.97925 733.6999999999999 -61.92425C708.89 -13.29925 658.335 20.00075 600 20.00075C541.665 20.00075 491.11 -13.29925 466.3015 -61.92425C383.416 -38.97925 309.177 4.77575 249.5605 63.36075C279.203 109.1457500000001 282.7335 169.52075 253.59 220.00075C224.424 270.51575 170.311 297.65075 115.7975 294.8257500000001C105.485 334.8307499999999 100 376.77575 100 420.00075zM340.1925 270.00075C371.6975 215.4307499999999 380.729 152.6957499999999 368.409 93.81075C388.7985 79.3007499999999 410.5025000000001 66.73075 433.2445 56.28575C478.088 96.4307500000001 536.96 120.00075 600 120.00075C663.04 120.00075 721.91 96.4307500000001 766.755 56.28575C789.495 66.73075 811.2 79.3007499999999 831.5899999999999 93.81075C819.27 152.6957499999999 828.3 215.4307499999999 859.8100000000001 270.00075C891.31 324.5657500000001 941.1250000000002 363.75075 998.275 382.52575C999.42 394.91575 1000 407.41075 1000 420.00075C1000 432.5857499999999 999.42 445.0857499999999 998.275 457.4707499999999C941.1250000000002 476.24575 891.31 515.43075 859.8100000000001 569.99975C828.3 624.56825 819.27 687.3017499999999 831.5899999999999 746.1882499999999C811.2 760.6967500000001 789.495 773.2672499999999 766.755 783.7147499999999C721.91 743.5687499999999 663.04 719.99975 600 719.99975C536.96 719.99975 478.088 743.5687499999999 433.2445 783.7147499999999C410.5025000000001 773.2672499999999 388.7985 760.6967500000001 368.409 746.1882499999999C380.729 687.3017499999999 371.6975 624.56825 340.1925 569.99975C308.688 515.43075 258.877 476.24575 201.7255 457.4707499999999C200.5785 445.0857499999999 200 432.5857499999999 200 420.00075C200 407.41075 200.5785 394.91575 201.7255 382.52575C258.877 363.75075 308.688 324.5657500000001 340.1925 270.00075zM600 270.00075C517.155 270.00075 450 337.15575 450 420.00075C450 502.84075 517.155 569.99975 600 569.99975C682.845 569.99975 750 502.84075 750 420.00075C750 337.15575 682.845 270.00075 600 270.00075zM600 370.00075C627.615 370.00075 650 392.38575 650 420.00075C650 447.61575 627.615 470.00075 600 470.00075C572.385 470.00075 550 447.61575 550 420.00075C550 392.38575 572.385 370.00075 600 370.00075z" /><glyph glyph-name="calendar-todo-line"
            unicode="&#xEB29;"
            horiz-adv-x="1200" d="M450 920V820H750V920H850V820H1050C1077.615 820 1100 797.614 1100 770V-30C1100 -57.615 1077.615 -80 1050 -80H150C122.386 -80 100 -57.615 100 -30V770C100 797.614 122.386 820 150 820H350V920H450zM1000 420H200V20H1000V420zM400 270V170H300V270H400zM900 270V170H500V270H900zM350 720H200V520H1000V720H850V620H750V720H450V620H350V720z" /><glyph glyph-name="road-map-line"
            unicode="&#xF08E;"
            horiz-adv-x="1200" d="M200 687.8570125V46.6550125000001L453.238 155.1850125000001L753.24 5.1850125000001L1000 110.9400125V752.1430125L1065.15 780.0650125000001C1077.845 785.5040125 1092.54 779.6255125 1097.98 766.9345125000001C1099.31 763.8225125 1100 760.4720125 1100 757.0865125V45.0000125L750 -104.9999875L450 45.0000125L134.848 -90.0649875C122.157 -95.5049874999999 107.4605 -89.6249875 102.0215 -76.9349874999999C100.6875 -73.8249875 100 -70.4699875 100 -67.0849875V645.0000125L200 687.8570125zM812.13 432.8700125000001L600 220.7350125000001L387.868 432.8700125000001C270.7105 550.0255125 270.7105 739.9745125000001 387.868 857.1320125000001C505.025 974.2893125 694.975 974.2893125 812.13 857.1320125000001C929.29 739.9745125000001 929.29 550.0255125 812.13 432.8700125000001zM600 362.1550125L741.42 503.5785125C819.525 581.6835125 819.525 708.3165125 741.42 786.4215125000001C663.3149999999999 864.5260125000001 536.6850000000001 864.5260125000001 458.5785 786.4215125000001C380.474 708.3165125 380.474 581.6835125 458.5785 503.5785125L600 362.1550125z" /><glyph glyph-name="subtract-line"
            unicode="&#xF1AF;"
            horiz-adv-x="1200" d="M250 470V370H950V470H250z" /><glyph glyph-name="smartphone-line"
            unicode="&#xF15A;"
            horiz-adv-x="1200" d="M350 820V20H850V820H350zM300 920H900C927.6149999999998 920 950 897.614 950 870V-30C950 -57.615 927.6149999999998 -80 900 -80H300C272.386 -80 250 -57.615 250 -30V870C250 897.614 272.386 920 300 920zM600 170C627.615 170 650 147.6149999999999 650 120C650 92.3850000000001 627.615 70 600 70C572.385 70 550 92.3850000000001 550 120C550 147.6149999999999 572.385 170 600 170z" /><glyph glyph-name="user-line"
            unicode="&#xF264;"
            horiz-adv-x="1200" d="M200 -105C200 115.915 379.086 295 600 295C820.915 295 1000 115.915 1000 -105H900C900 60.6850000000001 765.6850000000001 195 600 195C434.3145 195 300 60.6850000000001 300 -105H200zM600 345C434.25 345 300 479.25 300 645C300 810.75 434.25 945 600 945C765.75 945 900 810.75 900 645C900 479.25 765.75 345 600 345zM600 445C710.5 445 800 534.5 800 645C800 755.5 710.5 845 600 845C489.4999999999999 845 400 755.5 400 645C400 534.5 489.4999999999999 445 600 445z" /><glyph glyph-name="user-star-line"
            unicode="&#xF276;"
            horiz-adv-x="1200" d="M531.1175000000001 321.1275000000001V221.1275000000001C365.432 221.1275000000001 231.1175000000001 86.8125000000001 231.1175000000001 -78.8724999999999H131.1175000000001C131.1175000000001 142.0425 310.2035000000001 321.1275000000001 531.1175000000001 321.1275000000001zM531.1175000000001 371.1275000000001C365.3675000000001 371.1275000000001 231.1175000000001 505.3775000000001 231.1175000000001 671.1275C231.1175000000001 836.8775 365.3675000000001 971.1275 531.1175000000001 971.1275C696.8675000000001 971.1275 831.1175000000001 836.8775 831.1175000000001 671.1275C831.1175000000001 505.3775000000001 696.8675000000001 371.1275000000001 531.1175000000001 371.1275000000001zM531.1175000000001 471.1275000000001C641.6175000000001 471.1275000000001 731.1175000000001 560.6275 731.1175000000001 671.1275C731.1175000000001 781.6275 641.6175000000001 871.1275 531.1175000000001 871.1275C420.6175 871.1275 331.1175000000001 781.6275 331.1175000000001 671.1275C331.1175000000001 560.6275 420.6175 471.1275000000001 531.1175000000001 471.1275000000001zM831.1175000000001 -53.8724999999999L684.1725 -131.1275L712.2375000000001 32.5025000000001L593.3525000000001 148.3825000000002L757.6425 172.2525000000001L831.1175000000001 321.1275000000001L904.5925 172.2525000000001L1068.8825 148.3825000000002L949.9975000000002 32.5025000000001L978.0625 -131.1275L831.1175000000001 -53.8724999999999z" /><glyph glyph-name="slideshow-line"
            unicode="&#xF158;"
            horiz-adv-x="1200" d="M650 20V-80H550V20H150C122.386 20 100 42.385 100 70V770H1100V70C1100 42.385 1077.615 20 1050 20H650zM200 120H1000V670H200V120zM650 570H900V470H650V570zM650 370H900V270H650V370zM450 570V420H600C600 337.155 532.845 270 450 270C367.1575 270 300 337.155 300 420C300 502.845 367.1575 570 450 570zM100 920H1100V820H100V920z" /><glyph glyph-name="stethoscope-line"
            unicode="&#xF197;"
            horiz-adv-x="1200" d="M350 895V795H250V595C250 484.5450000000001 339.543 395 450 395C560.4549999999999 395 650 484.5450000000001 650 595V795H550V895H700C727.615 895 750 872.614 750 845V595C750 446.365 641.9050000000001 322.975 500.04 299.155L500 220C500 123.35 578.35 45 675 45C749.865 45 813.7499999999999 92.01 838.7449999999999 158.125C786.4150000000001 181.5 750 233.9950000000001 750 295C750 377.8450000000001 817.155 445 900 445C982.845 445 1050 377.8450000000001 1050 295C1050 226.4450000000001 1004.01 168.63 941.2 150.73C910.51 32.4000000000001 802.96 -55 675 -55C523.12 -55 400 68.1199999999999 400 220L400.0095 299.145C258.119 322.945 150 446.3450000000001 150 595V845C150 872.614 172.386 895 200 895H350zM900 345C872.3850000000001 345 850 322.615 850 295C850 267.385 872.3850000000001 245 900 245C927.6149999999998 245 950 267.385 950 295C950 322.615 927.6149999999998 345 900 345z" /><glyph glyph-name="shopping-cart-line"
            unicode="&#xF120;"
            horiz-adv-x="1200" d="M182.0195 245V845H82.0195V945H232.0195C259.634 945 282.0195 922.614 282.0195 895V295H903.9405L1003.9405 695H382.0195V795H1067.9805C1095.5955 795 1117.9805 772.614 1117.9805 745C1117.9805 740.912 1117.4805 736.8389999999999 1116.4855 732.873L991.4854999999998 232.875C985.9254999999998 210.615 965.9255 195 942.9805 195H232.0195C204.4055 195 182.0195 217.3850000000001 182.0195 245zM282.0195 -105C226.791 -105 182.0195 -60.23 182.0195 -5C182.0195 50.23 226.791 95 282.0195 95C337.248 95 382.0195 50.23 382.0195 -5C382.0195 -60.23 337.248 -105 282.0195 -105zM882.0205 -105C826.7905000000001 -105 782.0205 -60.23 782.0205 -5C782.0205 50.23 826.7905000000001 95 882.0205 95C937.2505 95 982.0205 50.23 982.0205 -5C982.0205 -60.23 937.2505 -105 882.0205 -105z" /><glyph glyph-name="settings-5-line"
            unicode="&#xF0EA;"
            horiz-adv-x="1200" d="M110.6317093377623 317.0036874309566C95.9797093377623 386.2336874309566 96.5732093377623 456.2936874309565 110.6737093377623 522.9896874309566C166.1697093377623 516.4536874309566 214.6092093377623 534.8336874309566 230.4482093377623 573.0731874309565C246.2877093377623 611.3126874309565 225.0317093377623 658.5606874309566 181.1692093377623 693.1811874309566C218.3607093377623 750.3136874309566 267.4812093377623 800.2731874309566 326.7927093377623 838.8641874309566C361.4157093377622 794.9791874309566 408.6777093377623 773.7081874309565 446.9267093377622 789.5516874309566C485.1757093377623 805.3951874309565 503.5557093377623 853.8546874309566 497.0052093377623 909.3681874309566C566.2307093377622 924.0201874309566 636.2907093377622 923.4266874309566 702.9907093377623 909.3266874309566C696.4557093377623 853.8306874309566 714.8357093377623 805.3911874309565 753.0757093377622 789.5516874309566C791.3107093377623 773.7121874309565 838.5607093377623 794.9686874309566 873.1807093377622 838.8306874309566C930.3157093377624 801.6391874309566 980.2757093377622 752.5186874309566 1018.8657093377622 693.2076874309566C974.9807093377622 658.5841874309566 953.7107093377622 611.3221874309565 969.5507093377622 573.0731874309565C985.3957093377622 534.8241874309565 1033.8557093377622 516.4436874309565 1089.3707093377623 522.9946874309567C1104.0207093377624 453.7686874309566 1103.4257093377623 383.7086874309565 1089.3257093377622 317.0086874309566C1033.8307093377623 323.5436874309566 985.3907093377622 305.1636874309566 969.5507093377622 266.9286874309566C953.7107093377622 228.6886874309567 974.9707093377622 181.4386874309566 1018.8307093377624 146.8186874309566C981.6407093377622 89.6886874309565 932.5207093377622 39.7286874309566 873.2057093377622 1.1336874309565C838.5857093377622 45.0186874309566 791.3207093377623 66.2936874309565 753.0757093377622 50.4486874309565C714.8257093377623 34.6036874309565 696.4457093377622 -13.8563125690434 702.9957093377623 -69.3663125690434C633.7657093377622 -84.0213125690434 563.7057093377622 -83.4263125690434 497.0102093377623 -69.3263125690435C503.5457093377623 -13.8313125690433 485.1662093377623 34.6086874309567 446.9267093377622 50.4486874309565C408.6872093377623 66.2886874309565 361.4397093377624 45.0336874309566 326.8187093377623 1.1686874309567C269.6862093377623 38.3586874309566 219.7267093377623 87.4786874309565 181.1362093377623 146.7936874309566C225.0207093377623 181.4136874309567 246.2917093377623 228.6786874309567 230.4482093377623 266.9286874309566C214.6052093377623 305.1736874309567 166.1452093377623 323.5536874309566 110.6317093377623 317.0036874309566zM200.0032093377623 409.4886874309566C254.9937093377623 394.2686874309566 300.3747093377623 359.4236874309566 322.8362093377623 305.1936874309565C345.2977093377623 250.9686874309565 337.8492093377622 194.2386874309566 309.7262093377623 144.5936874309566C314.5542093377623 139.5086874309566 319.5147093377623 134.5486874309567 324.6022093377623 129.7286874309566C374.2457093377623 157.8486874309565 430.9717093377623 165.2936874309566 485.1952093377623 142.8336874309565C539.4207093377622 120.3736874309566 574.2657093377622 74.9986874309565 589.4857093377623 20.0136874309566C596.4907093377623 19.8236874309566 603.5007093377623 19.8186874309566 610.5107093377623 20.0036874309566C625.7307093377623 74.9936874309565 660.5757093377622 120.3736874309566 714.8057093377622 142.8336874309565C769.0307093377622 165.2986874309565 825.7607093377623 157.8486874309565 875.4057093377622 129.7236874309565C880.4957093377623 134.5536874309567 885.4507093377623 139.5136874309566 890.2707093377622 144.6036874309566C862.1507093377622 194.2436874309566 854.7057093377623 250.9736874309566 877.1657093377622 305.1936874309565C899.6257093377623 359.4186874309566 945.0007093377621 394.2636874309566 999.9857093377622 409.4836874309566C1000.1757093377622 416.4886874309566 1000.1807093377622 423.5036874309566 999.9957093377622 430.5136874309566C945.0057093377623 445.7286874309566 899.6257093377623 480.5786874309565 877.1657093377622 534.8051874309566C854.7007093377622 589.0321874309566 862.1507093377622 645.7616874309565 890.2757093377622 695.4066874309565C885.4457093377623 700.4931874309566 880.4857093377623 705.4486874309566 875.3957093377622 710.2691874309565C825.7557093377623 682.1501874309565 769.0307093377622 674.7036874309565 714.8057093377622 697.1636874309565C660.5807093377622 719.6236874309566 625.7357093377623 765.0006874309565 610.5157093377622 819.9866874309565C603.5107093377623 820.1756874309566 596.5007093377623 820.1791874309565 589.4857093377623 819.9966874309566C574.2707093377622 765.0061874309565 539.4207093377622 719.6251874309565 485.1952093377623 697.1636874309565C430.9677093377623 674.7021874309565 374.2387093377623 682.1511874309565 324.5932093377623 710.2736874309566C319.5067093377623 705.4456874309566 314.5512093377623 700.4851874309566 309.7312093377623 695.3976874309566C337.8497093377623 645.7541874309566 345.2962093377623 589.0281874309566 322.8362093377623 534.8051874309566C300.3762093377623 480.5836874309565 254.9992093377623 445.7336874309566 200.0132093377623 430.5136874309566C199.8242093377623 423.5086874309566 199.8207093377623 416.4986874309566 200.0032093377623 409.4886874309566zM600.0007093377623 269.9986874309566C517.1557093377622 269.9986874309566 450.0002093377623 337.1586874309566 450.0002093377623 419.9986874309566C450.0002093377623 502.8436874309566 517.1557093377622 569.9996874309566 600.0007093377623 569.9996874309566C682.8407093377622 569.9996874309566 750.0007093377623 502.8436874309566 750.0007093377623 419.9986874309566C750.0007093377623 337.1586874309566 682.8407093377622 269.9986874309566 600.0007093377623 269.9986874309566zM600.0007093377623 369.9986874309566C627.6157093377623 369.9986874309566 650.0007093377623 392.3836874309566 650.0007093377623 419.9986874309566C650.0007093377623 447.6136874309566 627.6157093377623 469.9986874309566 600.0007093377623 469.9986874309566C572.3857093377623 469.9986874309566 550.0007093377623 447.6136874309566 550.0007093377623 419.9986874309566C550.0007093377623 392.3836874309566 572.3857093377623 369.9986874309566 600.0007093377623 369.9986874309566z" /><glyph glyph-name="contacts-line"
            unicode="&#xEBD2;"
            horiz-adv-x="1200" d="M900 645H1150V545H900V645zM800 395H1150V295H800V395zM950 145H1150V45H950V145zM50 -105C50 115.915 229.086 295 450 295C670.915 295 850 115.915 850 -105H750C750 60.6850000000001 615.6850000000001 195 450 195C284.3145 195 150 60.6850000000001 150 -105H50zM450 345C284.25 345 150 479.25 150 645C150 810.75 284.25 945 450 945C615.75 945 750 810.75 750 645C750 479.25 615.75 345 450 345zM450 445C560.5 445 650 534.5 650 645C650 755.5 560.5 845 450 845C339.5 845 250 755.5 250 645C250 534.5 339.5 445 450 445z" /><glyph glyph-name="medal-line"
            unicode="&#xEF28;"
            horiz-adv-x="1200" d="M600 694.97525C820.915 694.97525 1000 515.8897499999999 1000 294.97475C1000 74.05975 820.915 -105.02525 600 -105.02525C379.086 -105.02525 200 74.05975 200 294.97475C200 515.8897499999999 379.086 694.97525 600 694.97525zM600 594.97525C434.3145 594.97525 300 460.65975 300 294.97475C300 129.2897499999999 434.3145 -5.02525 600 -5.02525C765.6850000000001 -5.02525 900 129.2897499999999 900 294.97475C900 460.65975 765.6850000000001 594.97525 600 594.97525zM600 519.97475L666.125 385.98975L813.9900000000001 364.50475L706.995 260.20975L732.25 112.94475L600 182.47475L467.7485 112.94475L493.006 260.20975L386.0125 364.50475L533.875 385.98975L600 519.97475zM900 944.97525V794.97525L831.83 738.0972499999999C776.525 767.08975 715.125 786.03275 650.055 792.50075L650 945.02525L900 944.97525zM550 945.02525L549.985 792.50525C484.92 786.04325 423.523 767.10725 368.2205 738.12325L300 794.97525V944.97525L550 945.02525z" /><glyph glyph-name="image-2-line"
            unicode="&#xEE45;"
            horiz-adv-x="1200" d="M250 464.975L350 564.9749999999999L625 289.975L800 464.975L950 314.975V770H250V464.975zM250 323.555V70H405.0250000000001L554.2900000000001 219.265L350 423.555L250 323.555zM546.445 70H950V173.5550000000001L800 323.555L546.445 70zM200 870H1000C1027.615 870 1050 847.614 1050 820V20C1050 -7.615 1027.615 -30 1000 -30H200C172.386 -30 150 -7.615 150 20V820C150 847.614 172.386 870 200 870zM775 520C733.58 520 700 553.5785 700 595C700 636.4214999999999 733.58 670 775 670C816.42 670 850 636.4214999999999 850 595C850 553.5785 816.42 520 775 520z" /><glyph glyph-name="pen-nib-line"
            unicode="&#xEFDE;"
            horiz-adv-x="1200" d="M791.2256249999999 928.9894815601772L1108.555625 611.6589815601774C1118.320625 601.8959815601773 1118.320625 586.0669815601773 1108.555625 576.3039815601774C1104.810625 572.5584815601774 1099.975625 570.0994815601773 1094.7406250000001 569.2814815601773L1021.0356249999998 557.7584815601773L738.195625 840.6009815601774L748.800625 914.8474815601774C750.7556249999999 928.5154815601774 763.415625 938.0131815601774 777.085625 936.0605815601772C782.440625 935.2955815601774 787.400625 932.8144315601774 791.2256249999999 928.9894815601772zM191.159125 -26.5750184398227C377.278125 139.9999815601774 590.910625 189.8149815601773 823.310625 249.4499815601773L845.630625 450.3199815601774L630.760625 665.1944815601773L429.8836250000001 642.8749815601773C370.2526250000001 410.4749815601773 320.4346250000001 196.8399815601773 153.858625 10.7249815601773L84.120625 80.4599815601773C225.5421250000001 245.4549815601773 278.575125 428.1199815601773 349.2856250000001 734.5349815601774L667.4856249999999 769.8904815601774L950.330625 487.0454815601773L914.970625 168.8499815601773C608.560625 98.1399815601773 425.8891250000001 45.1049815601773 260.897625 -96.3150184398228L191.159125 -26.5750184398227zM455.351625 274.9149815601774C416.2991250000001 313.9699815601773 416.2991250000001 377.2849815601773 455.351625 416.3349815601773C494.405625 455.3899815601774 557.7206249999999 455.3899815601774 596.770625 416.3349815601773C635.8256250000001 377.2849815601773 635.8256250000001 313.9699815601773 596.770625 274.9149815601774C557.7206249999999 235.8649815601774 494.405625 235.8649815601774 455.351625 274.9149815601774z" /><glyph glyph-name="map-pin-4-line"
            unicode="&#xEF0E;"
            horiz-adv-x="1200" d="M550 173.095C352.6845 197.6999999999999 200 366.02 200 570C200 790.914 379.086 970 600 970C820.915 970 1000 790.914 1000 570C1000 366.02 847.315 197.6999999999999 650 173.095V20H550V173.095zM600 270C765.6850000000001 270 900 404.315 900 570C900 735.6855 765.6850000000001 870 600 870C434.3145 870 300 735.6855 300 570C300 404.315 434.3145 270 600 270zM250 -30H950V-130H250V-30z" /><glyph glyph-name="map-2-line"
            unicode="&#xEF06;"
            horiz-adv-x="1200" d="M100 770L450 920L750 770L1065.15 905.065C1077.845 910.504 1092.54 904.6255 1097.98 891.9345C1099.31 888.8225 1100 885.472 1100 882.0865V70L750 -80L450 70L134.848 -65.065C122.157 -70.5049999999999 107.4605 -64.625 102.0215 -51.9349999999999C100.6875 -48.825 100 -45.47 100 -42.085V770zM800 50.2250000000001L1000 135.94V768.346L800 682.6320000000001V50.2250000000001zM700 56.8050000000001V683.1965L500 783.1965V156.8050000000001L700 56.8050000000001zM400 157.3699999999999V789.7745L200 704.0605V71.6550000000001L400 157.3699999999999z" /><glyph glyph-name="focus-3-line"
            unicode="&#xED4C;"
            horiz-adv-x="1200" d="M650 970L650.05 816.8995C830.9599999999999 794.3175 974.345 650.9185 996.905 470L1150 470V370L996.9 369.9500000000001C974.32 189.055 830.945 45.6800000000001 650.05 23.1L650 -130H550L550 23.095C369.0815 45.6550000000001 225.6825 189.0400000000001 203.1005 369.9500000000001L50 370V470L203.0945 470C225.656 650.9355 369.0645 794.344 550 816.9055L550 970H650zM600 720C434.3145 720 300 585.6855 300 420C300 254.315 434.3145 120 600 120C765.6850000000001 120 900 254.315 900 420C900 585.6855 765.6850000000001 720 600 720zM600 520C655.23 520 700 475.23 700 420C700 364.77 655.23 320 600 320C544.77 320 500 364.77 500 420C500 475.23 544.77 520 600 520z" /><glyph glyph-name="sound-module-line"
            unicode="&#xF162;"
            horiz-adv-x="1200" d="M1050 120V-30H950V120H850V220H1150V120H1050zM250 120V-30H150V120H50V220H350V120H250zM550 720V870H650V720H750V620H450V720H550zM550 520H650V-30H550V520zM150 320V870H250V320H150zM950 320V870H1050V320H950z" /><glyph glyph-name="arrow-left-right-line"
            unicode="&#xEA62;"
            horiz-adv-x="1200" d="M802.515 417.4875000000001L1050 169.9975000000001L802.515 -77.4875000000001L731.8 -6.7775L858.6 120.0375000000001L200 119.9975000000001V219.9975000000002L858.6 220.0375000000001L731.8 346.7775000000001L802.515 417.4875000000001zM397.4875 917.4875L468.198 846.7765L341.4000000000001 720.0375L1000 720.0000000000001V620.0000000000001L341.4000000000001 620.0375L468.198 493.2225000000001L397.4875 422.5125000000002L150 670.0000000000001L397.4875 917.4875z" /><glyph glyph-name="arrow-down-s-line"
            unicode="&#xEA4E;"
            horiz-adv-x="1200" d="M599.99775 366.9695L847.48775 614.4555L918.19775 543.745L599.99775 225.5445L281.80225 543.745L352.51275 614.4555L599.99775 366.9695z" /><glyph glyph-name="account-circle-fill"
            unicode="&#xEA08;"
            horiz-adv-x="1200" d="M600 920C876 920 1100 696 1100 420C1100 144 876 -80 600 -80C324 -80 100 144 100 420C100 696 324 920 600 920zM301.166 249.1850000000001C374.5415 139.655 484.7555 70 607.985 70C731.215 70 841.4300000000001 139.655 914.805 249.1850000000001C834.4250000000001 324.14 726.5600000000001 370 607.985 370C489.4105 370 381.5475 324.14 301.166 249.1850000000001zM600 470C682.845 470 750 537.1575 750 620C750 702.8425 682.845 770 600 770C517.155 770 450 702.8425 450 620C450 537.1575 517.155 470 600 470z" /><glyph glyph-name="close-line"
            unicode="&#xEB99;"
            horiz-adv-x="1200" d="M599.999 490.7080000000001L847.489 738.197L918.199 667.4865000000001L670.7090000000001 419.9980000000001L918.199 172.5130000000002L847.489 101.803L599.999 349.288L352.512 101.803L281.801 172.5130000000002L529.289 419.9980000000001L281.801 667.4865000000001L352.512 738.197L599.999 490.7080000000001z" /><glyph glyph-name="close-circle-fill"
            unicode="&#xEB96;"
            horiz-adv-x="1200" d="M600 -80C323.8575 -80 100 143.86 100 420C100 696.1424999999999 323.8575 920 600 920C876.14 920 1100 696.1424999999999 1100 420C1100 143.86 876.14 -80 600 -80zM600 490.7099999999999L458.5785 632.1320000000001L387.868 561.4215L529.2900000000001 420L387.868 278.5800000000001L458.5785 207.87L600 349.2900000000001L741.42 207.87L812.13 278.5800000000001L670.7099999999999 420L812.13 561.4215L741.42 632.1320000000001L600 490.7099999999999z" /><glyph glyph-name="edit-line"
            unicode="&#xEC86;"
            horiz-adv-x="1200" d="M320.7105 220.7355L827.815 727.8430000000001L757.105 798.554L250 291.4455000000001V220.7355H320.7105zM362.132 120.7355H150V332.8705L721.75 904.62C741.28 924.146 772.9350000000001 924.146 792.46 904.62L933.8850000000002 763.1985C953.41 743.6725 953.41 712.014 933.8850000000002 692.488L362.132 120.7355zM150 20.7355H1050V-79.2645H150V20.7355z" /><glyph glyph-name="information-line"
            unicode="&#xEE59;"
            horiz-adv-x="1200" d="M600 -80C323.8575 -80 100 143.86 100 420C100 696.1424999999999 323.8575 920 600 920C876.14 920 1100 696.1424999999999 1100 420C1100 143.86 876.14 -80 600 -80zM600 20C820.915 20 1000 199.085 1000 420C1000 640.914 820.915 820 600 820C379.086 820 200 640.914 200 420C200 199.085 379.086 20 600 20zM550 670H650V570H550V670zM550 470H650V170H550V470z" /><glyph glyph-name="close-circle-line"
            unicode="&#xEB97;"
            horiz-adv-x="1200" d="M600 -80C323.8575 -80 100 143.86 100 420C100 696.1424999999999 323.8575 920 600 920C876.14 920 1100 696.1424999999999 1100 420C1100 143.86 876.14 -80 600 -80zM600 20C820.915 20 1000 199.085 1000 420C1000 640.914 820.915 820 600 820C379.086 820 200 640.914 200 420C200 199.085 379.086 20 600 20zM600 490.7099999999999L741.42 632.1320000000001L812.13 561.4215L670.7099999999999 420L812.13 278.5800000000001L741.42 207.87L600 349.2900000000001L458.5785 207.87L387.868 278.5800000000001L529.2900000000001 420L387.868 561.4215L458.5785 632.1320000000001L600 490.7099999999999z" /><glyph glyph-name="alert-line"
            unicode="&#xEA21;"
            horiz-adv-x="1200" d="M643.29486905392 857.4964760368797L1119.60986905392 32.4949760368797C1133.41986905392 8.5799760368797 1125.22486905392 -22.0000239631202 1101.30986905392 -35.8050239631202C1093.7098690539199 -40.1950239631203 1085.08486905392 -42.5050239631203 1076.30986905392 -42.5050239631203H123.6813690539201C96.0673690539201 -42.5050239631203 73.6813690539201 -20.1200239631203 73.6813690539201 7.4949760368797C73.6813690539201 16.2749760368797 75.9918690539201 24.8949760368797 80.3803690539201 32.4949760368797L556.6948690539201 857.4964760368797C570.4998690539201 881.4114760368798 601.07986905392 889.6049760368797 624.9948690539201 875.7979760368797C632.5948690539201 871.4094760368797 638.90986905392 865.0974760368797 643.29486905392 857.4964760368797zM210.2838690539201 57.4949760368797H989.7048690539202L599.9948690539201 732.4964760368798L210.2838690539201 57.4949760368797zM549.9948690539201 207.4949760368797H649.9948690539201V107.4949760368797H549.9948690539201V207.4949760368797zM549.9948690539201 557.4964760368797H649.9948690539201V307.4949760368798H549.9948690539201V557.4964760368797z" /><glyph glyph-name="compass-3-line"
            unicode="&#xEBBE;"
            horiz-adv-x="1200" d="M600 -80C323.8575 -80 100 143.86 100 420C100 696.1424999999999 323.8575 920 600 920C876.14 920 1100 696.1424999999999 1100 420C1100 143.86 876.14 -80 600 -80zM600 20C820.915 20 1000 199.085 1000 420C1000 640.914 820.915 820 600 820C379.086 820 200 640.914 200 420C200 199.085 379.086 20 600 20zM825 645L700 320L375 195L500 520L825 645zM600 370C627.615 370 650 392.385 650 420C650 447.615 627.615 470 600 470C572.385 470 550 447.615 550 420C550 392.385 572.385 370 600 370z" /><glyph glyph-name="arrow-drop-right-fill"
            unicode="&#xEA53;"
            horiz-adv-x="1200" d="M700 420L500 220V620L700 420z" /><glyph glyph-name="search-line"
            unicode="&#xF0D1;"
            horiz-adv-x="1200" d="M893.7075 197.0025L1107.8425 -17.1324999999999L1037.1325 -87.8425L822.9975000000001 126.2925C746.0025 64.6924999999999 648.3575000000001 27.8425 542.1575 27.8425C293.7575000000001 27.8425 92.1575 229.4425 92.1575 477.8425C92.1575 726.2425 293.7575000000001 927.8425 542.1575 927.8425C790.5575 927.8425 992.1575 726.2425 992.1575 477.8425C992.1575 371.6425 955.3075000000002 273.9975 893.7075 197.0025zM793.3925 234.1025C854.5324999999999 297.1125 892.1575 383.0625 892.1575 477.8425C892.1575 671.2175 735.5325 827.8425 542.1575 827.8425C348.7825000000001 827.8425 192.1575 671.2175 192.1575 477.8425C192.1575 284.4675 348.7825000000001 127.8425 542.1575 127.8425C636.9375 127.8425 722.8875 165.4675000000001 785.8975 226.6075L793.3925 234.1025z" /><glyph glyph-name="question-line"
            unicode="&#xF045;"
            horiz-adv-x="1200" d="M600 -80C323.8575 -80 100 143.86 100 420C100 696.1424999999999 323.8575 920 600 920C876.14 920 1100 696.1424999999999 1100 420C1100 143.86 876.14 -80 600 -80zM600 20C820.915 20 1000 199.085 1000 420C1000 640.914 820.915 820 600 820C379.086 820 200 640.914 200 420C200 199.085 379.086 20 600 20zM550 270H650V170H550V270zM650 352.245V320H550V395C550 422.615 572.385 445 600 445C641.42 445 675 478.58 675 520C675 561.4215 641.42 595 600 595C563.615 595 533.28 569.0885 526.44 534.7115000000001L428.3655000000001 554.327C444.3185 634.5405 515.1 695 600 695C696.65 695 775 616.65 775 520C775 440.725 722.285 373.76 650 352.245z" /><glyph glyph-name="menu-line"
            unicode="&#xEF3E;"
            horiz-adv-x="1200" d="M150 820H1050V720H150V820zM150 470H1050V370H150V470zM150 120H1050V20H150V120z" /><glyph glyph-name="map-pin-2-fill"
            unicode="&#xEF09;"
            horiz-adv-x="1200" d="M918.199375 194.9975L599.999375 -123.1975L281.801375 194.9975C106.065375 370.7375 106.065375 655.6595 281.801375 831.3955C457.537375 1007.1315 742.459375 1007.1315 918.199375 831.3955C1093.9343749999998 655.6595 1093.9343749999998 370.7375 918.199375 194.9975zM599.999375 413.1975C655.229375 413.1975 699.999375 457.9675 699.999375 513.1975C699.999375 568.426 655.229375 613.1975 599.999375 613.1975C544.769375 613.1975 499.999375 568.426 499.999375 513.1975C499.999375 457.9675 544.769375 413.1975 599.999375 413.1975z" /><glyph glyph-name="pie-chart-2-fill"
            unicode="&#xEFF5;"
            horiz-adv-x="1200" d="M513.5725 881.1036750000001V333.5711750000001H1061.1025C1036.0175 80.9061750000001 822.8375000000001 -116.4288249999999 563.5725 -116.4288249999999C287.43 -116.4288249999999 63.5725 107.4311750000001 63.5725 383.5711750000001C63.5725 642.840175 260.9065 856.017675 513.5725 881.1036750000001zM613.5725 956.428825C891.2475 932.510675 1112.5125 711.246175 1136.4275 433.5711750000001H613.5725V956.428825z" /><glyph glyph-name="bank-fill"
            unicode="&#xEA93;"
            horiz-adv-x="1200" d="M100 20H1100V-80H100V20zM200 420H300V70H200V420zM450 420H550V70H450V420zM650 420H750V70H650V420zM900 420H1000V70H900V420zM100 670L600 920L1100 670V470H100V670zM600 620C627.615 620 650 642.386 650 670C650 697.614 627.615 720 600 720C572.385 720 550 697.614 550 670C550 642.386 572.385 620 600 620z" /><glyph glyph-name="medal-2-line"
            unicode="&#xEF26;"
            horiz-adv-x="1200" d="M600.0025 619.3025L705.8025 364.9275L980.4225 342.9075000000001L771.1925 163.6775L835.1125000000001 -104.3025L600.0025 39.3024999999999L364.8860000000001 -104.3025L428.8100000000001 163.6775L219.5775000000001 342.9075000000001L494.199 364.9275L600.0025 619.3025zM600.0025 358.9525L563.0725000000001 270.1275000000001L467.2500000000001 262.4525L540.2525 199.8874999999999L517.9025 106.3525L600.0025 156.4825000000001L682.0525 106.3525L659.7475000000001 199.8874999999999L732.7025 262.4525L636.9275 270.1275000000001L600.0025 358.9525zM400 944.3025V494.3025H300V944.3025H400zM900.0025 944.3025V494.3025H800.0025V944.3025H900.0025zM650.0025 944.3025V694.3025H550.0025V944.3025H650.0025z" /><glyph glyph-name="community-line"
            unicode="&#xEBBA;"
            horiz-adv-x="1200" d="M1050 -30H150C122.386 -30 100 -7.615 100 20V395.66C100 410.1099999999999 106.2505 423.855 117.141 433.35L300 592.7825V820C300 847.614 322.386 870 350 870H1050C1077.615 870 1100 847.614 1100 820V20C1100 -7.615 1077.615 -30 1050 -30zM450 70H600V372.9200000000001L400 547.299L200 372.9200000000001V70H350V270H450V70zM700 70H1000V770H400V663.6355C411.722 663.6355 423.444 659.531 432.8590000000001 651.3225L682.86 433.35C693.75 423.855 700 410.1099999999999 700 395.66V70zM800 470H900V370H800V470zM800 270H900V170H800V270zM800 670H900V570H800V670zM600 670H700V570H600V670z" /><glyph glyph-name="timer-fill"
            unicode="&#xF212;"
            horiz-adv-x="1200" d="M880.885 696.595L953.555 769.264L1024.2649999999999 698.5535L951.595 625.8845C1013.175 548.9005 1050 451.25 1050 345C1050 96.4699999999999 848.5300000000001 -105 600 -105C351.472 -105 150 96.4699999999999 150 345C150 593.528 351.472 795 600 795C706.25 795 803.9 758.1765 880.885 696.595zM550 595V295H650V595H550zM400 945H800V845H400V945z" /><glyph glyph-name="arrow-down-line"
            unicode="&#xEA4C;"
            horiz-adv-x="1200" d="M649.9994999999999 211.42L918.1995 479.62L988.9095 408.91L599.9994999999999 20L211.0905 408.91L281.8015 479.62L549.9994999999999 211.42V820H649.9994999999999V211.42z" /><glyph glyph-name="smartphone-fill"
            unicode="&#xF159;"
            horiz-adv-x="1200" d="M300 920H900C927.6149999999998 920 950 897.614 950 870V-30C950 -57.615 927.6149999999998 -80 900 -80H300C272.386 -80 250 -57.615 250 -30V870C250 897.614 272.386 920 300 920zM600 170C572.385 170 550 147.6149999999999 550 120C550 92.3850000000001 572.385 70 600 70C627.615 70 650 92.3850000000001 650 120C650 147.6149999999999 627.615 170 600 170z" /><glyph glyph-name="mouse-fill"
            unicode="&#xEF7C;"
            horiz-adv-x="1200" d="M557.055 920H642.945C743.64 920 797.64 906.076 846.525 879.9300000000001C895.4150000000001 853.784 933.785 815.4155000000001 959.93 766.527C986.075 717.6379999999999 1000 663.6395 1000 562.9445000000001V277.055C1000 176.3599999999999 986.075 122.36 959.93 73.475C933.785 24.5849999999999 895.4150000000001 -13.7849999999999 846.525 -39.9299999999998C797.64 -66.075 743.64 -80 642.945 -80H557.055C456.3605 -80 402.362 -66.075 353.473 -39.9299999999998C304.5845 -13.7849999999999 266.216 24.5849999999999 240.07 73.475C213.924 122.36 200 176.3599999999999 200 277.055V562.9445000000001C200 663.6395 213.924 717.6379999999999 240.07 766.527C266.216 815.4155000000001 304.5845 853.784 353.473 879.9300000000001C402.362 906.076 456.3605 920 557.055 920zM550 720V470H650V720H550z" /><glyph glyph-name="calendar-fill"
            unicode="&#xEB26;"
            horiz-adv-x="1200" d="M100 420H1100V-30C1100 -57.615 1077.615 -80 1050 -80H150C122.386 -80 100 -57.615 100 -30V420zM850 820H1050C1077.615 820 1100 797.614 1100 770V520H100V770C100 797.614 122.386 820 150 820H350V920H450V820H750V920H850V820z" /><glyph glyph-name="vip-crown-fill"
            unicode="&#xF28D;"
            horiz-adv-x="1200" d="M99.9995000000001 45H1100.0004999999999V-55H99.9995000000001V45zM99.9995000000001 745L349.9995000000002 595L600.0005000000001 895L850.0005000000001 595L1100.0004999999999 745V145H99.9995000000001V745z" /><glyph glyph-name="image-fill"
            unicode="&#xEE4A;"
            horiz-adv-x="1200" d="M1000 770H200V70L664.615 534.6755C684.14 554.2025 715.795 554.2045 735.325 534.6795L1000 269.48V770zM100 820.33C100 847.762 122.7655 870 149.59 870H1050.4099999999999C1077.8 870 1100 847.7525 1100 820.33V19.6700000000001C1100 -7.76 1077.235 -30 1050.4099999999999 -30H149.59C122.2025 -30 100 -7.7549999999999 100 19.6700000000001V820.33zM400 470C344.7715 470 300 514.77 300 570C300 625.2284999999999 344.7715 670 400 670C455.2285000000001 670 500 625.2284999999999 500 570C500 514.77 455.2285000000001 470 400 470z" /><glyph glyph-name="medal-2-fill"
            unicode="&#xEF25;"
            horiz-adv-x="1200" d="M600.0025 619.3025L705.8025 364.9275L980.4225 342.9075000000001L771.1925 163.6775L835.1125000000001 -104.3025L600.0025 39.3024999999999L364.8860000000001 -104.3025L428.8100000000001 163.6775L219.5775000000001 342.9075000000001L494.199 364.9275L600.0025 619.3025zM400 944.3025V494.3025H300V944.3025H400zM900.0025 944.3025V494.3025H800.0025V944.3025H900.0025zM650.0025 944.3025V694.3025H550.0025V944.3025H650.0025z" /><glyph glyph-name="parent-fill"
            unicode="&#xEFC9;"
            horiz-adv-x="1200" d="M350 445C225.736 445 125 545.7360000000001 125 670C125 794.264 225.736 895 350 895C474.264 895 575 794.264 575 670C575 545.7360000000001 474.264 445 350 445zM875 245C764.5450000000001 245 675 334.5450000000001 675 445C675 555.457 764.5450000000001 645 875 645C985.455 645 1075 555.457 1075 445C1075 334.5450000000001 985.455 245 875 245zM875 195C999.265 195 1100 94.265 1100 -30V-55H650V-30C650 94.265 750.735 195 875 195zM350 395C488.071 395 600 283.0700000000001 600 145V-55H100V145C100 283.0700000000001 211.929 395 350 395z" /><glyph glyph-name="palette-fill"
            unicode="&#xEFC4;"
            horiz-adv-x="1200" d="M600 920C876.1100000000001 920 1100 721.111 1100 475.5550000000001C1100 322.2200000000001 975.555 197.78 822.22 197.78H723.89C677.78 197.78 640.555 160.555 640.555 114.4449999999999C640.555 93.3349999999999 648.89 73.89 661.665 59.4450000000001C675 44.4450000000001 683.335 25.0000000000001 683.335 3.3349999999999C683.335 -42.78 645 -80 600 -80C323.889 -80 100 143.8899999999999 100 420C100 696.111 323.889 920 600 920zM375 420C416.4215000000001 420 450 453.58 450 495C450 536.4215 416.4215000000001 570 375 570C333.5785 570 300 536.4215 300 495C300 453.58 333.5785 420 375 420zM825 420C866.42 420 900 453.58 900 495C900 536.4215 866.42 570 825 570C783.58 570 750 536.4215 750 495C750 453.58 783.58 420 825 420zM600 570C641.42 570 675 603.5785 675 645C675 686.4214999999999 641.42 720 600 720C558.58 720 525 686.4214999999999 525 645C525 603.5785 558.58 570 600 570z" /><glyph glyph-name="stethoscope-fill"
            unicode="&#xF196;"
            horiz-adv-x="1200" d="M350 895V795H250V595C250 484.5450000000001 339.543 395 450 395C560.4549999999999 395 650 484.5450000000001 650 595V795H550V895H700C727.615 895 750 872.614 750 845V595C750 446.365 641.9050000000001 322.975 500.04 299.155L500 220C500 123.35 578.35 45 675 45C749.865 45 813.7499999999999 92.01 838.7449999999999 158.125C786.4150000000001 181.5 750 233.9950000000001 750 295C750 377.8450000000001 817.155 445 900 445C982.845 445 1050 377.8450000000001 1050 295C1050 226.4450000000001 1004.01 168.63 941.2 150.73C910.51 32.4000000000001 802.96 -55 675 -55C523.12 -55 400 68.1199999999999 400 220L400.0095 299.145C258.119 322.945 150 446.3450000000001 150 595V845C150 872.614 172.386 895 200 895H350z" /><glyph glyph-name="user-star-fill"
            unicode="&#xF275;"
            horiz-adv-x="1200" d="M531.1175000000001 321.1275000000001V-78.8724999999999H131.1175000000001C131.1175000000001 142.0425 310.2035000000001 321.1275000000001 531.1175000000001 321.1275000000001zM831.1175000000001 -53.8724999999999L684.1725 -131.1275L712.2375000000001 32.5025000000001L593.3525000000001 148.3825000000002L757.6425 172.2525000000001L831.1175000000001 321.1275000000001L904.5925 172.2525000000001L1068.8825 148.3825000000002L949.9975000000002 32.5025000000001L978.0625 -131.1275L831.1175000000001 -53.8724999999999zM531.1175000000001 371.1275000000001C365.3675000000001 371.1275000000001 231.1175000000001 505.3775000000001 231.1175000000001 671.1275C231.1175000000001 836.8775 365.3675000000001 971.1275 531.1175000000001 971.1275C696.8675000000001 971.1275 831.1175000000001 836.8775 831.1175000000001 671.1275C831.1175000000001 505.3775000000001 696.8675000000001 371.1275000000001 531.1175000000001 371.1275000000001z" /><glyph glyph-name="wifi-fill"
            unicode="&#xF2BF;"
            horiz-adv-x="1200" d="M34.476325 670.1705C189.017175 795.148 385.766675 870 599.9986749999999 870C814.228675 870 1010.978675 795.148 1165.523675 670.1705L1071.268675 553.4755C942.4836749999998 657.6234999999999 778.5236749999999 720 599.9986749999999 720C421.472175 720 257.514175 657.6234999999999 128.730175 553.4755L34.476325 670.1705zM191.565675 475.6799999999999C303.178675 565.9405 445.2756750000001 620 599.9986749999999 620C754.723675 620 896.8186749999999 565.9405 1008.433675 475.6799999999999L914.1786749999998 358.985C828.323675 428.415 719.0186749999999 470 599.9986749999999 470C480.980675 470 371.675675 428.415 285.819675 358.985L191.565675 475.6799999999999zM348.655675 281.185C417.3401750000001 336.735 504.783675 370 599.9986749999999 370C695.2136749999999 370 782.6586749999999 336.735 851.343675 281.185L757.088675 164.49C714.1586749999999 199.2099999999999 659.5086749999999 220 599.9986749999999 220C540.488675 220 485.837175 199.2099999999999 442.909175 164.49L348.655675 281.185zM505.743675 86.6949999999999C531.5036749999999 107.525 564.2936749999999 120 599.9986749999999 120C635.703675 120 668.4936749999999 107.525 694.2536749999999 86.6949999999999L599.9986749999999 -30L505.743675 86.6949999999999z" /><glyph glyph-name="lifebuoy-fill"
            unicode="&#xEEA4;"
            horiz-adv-x="1200" d="M600 920C876.14 920 1100 696.1424999999999 1100 420C1100 143.86 876.14 -80 600 -80C323.8575 -80 100 143.86 100 420C100 696.1424999999999 323.8575 920 600 920zM359.8545000000001 285.9L251.1215 177.225C276.3325 141.06 307.0225000000001 109.005 341.9875 82.255L357.231 71.115L465.9015 179.8549999999999C425.5390000000001 202.4400000000001 391.4545 234.91 366.924 273.985L359.8545000000001 285.9zM840.1450000000001 285.9C817.56 245.54 785.09 211.4550000000001 746.015 186.925L734.1 179.8549999999999L842.775 71.12C878.9350000000001 96.3299999999999 910.99 127.02 937.745 161.98L948.88 177.225L840.1450000000001 285.9zM600 620C489.543 620 400 530.457 400 420C400 309.5450000000001 489.543 220 600 220C710.4549999999999 220 800 309.5450000000001 800 420C800 530.457 710.4549999999999 620 600 620zM357.231 768.884C321.0665 743.672 289.0060000000001 712.9805 262.253 678.0135L251.116 662.769L359.8545000000001 554.0985000000001C382.4415 594.461 414.91 628.5455 453.9845 653.076L465.9015 660.1455L357.231 768.884zM842.775 768.8785L734.1 660.1455C774.46 637.5585 808.545 605.09 833.075 566.0155L840.1450000000001 554.0985000000001L948.885 662.769C923.675 698.9315 892.985 730.99 858.02 757.742L842.775 768.8785z" /><glyph glyph-name="settings-5-fill"
            unicode="&#xF0E9;"
            horiz-adv-x="1200" d="M106.5786250690988 338.469624930901C97.4751250690988 393.2646249309011 97.7756250690987 448.3096249309011 106.6231250690987 501.534624930901C161.6836250690988 500.194624930901 211.2021250690988 526.6106249309012 230.4476250690988 573.074124930901C249.6936250690988 619.5376249309011 233.3576250690988 673.231124930901 193.4781250690987 711.219124930901C224.8576250690987 755.110624930901 263.5676250690988 794.245624930901 308.7506250690988 826.554124930901C346.7401250690988 786.6516249309011 400.4501250690987 770.3016249309011 446.9261250690987 789.5526249309011C493.4021250690988 808.803624930901 519.8201250690988 858.3436249309011 518.4651250690988 913.421624930901C573.2601250690988 922.525124930901 628.3051250690987 922.224624930901 681.5301250690987 913.3771249309012C680.1951250690988 858.3171249309011 706.6101250690988 808.798624930901 753.0751250690987 789.5526249309011C799.5351250690987 770.3066249309011 853.2301250690987 786.6431249309011 891.2201250690988 826.5221249309011C935.1101250690986 795.1426249309011 974.2451250690988 756.433124930901 1006.5551250690988 711.2496249309011C966.6501250690987 673.260124930901 950.3001250690988 619.5501249309011 969.5501250690988 573.074124930901C988.8001250690988 526.598124930901 1038.3401250690988 500.1796249309011 1093.4201250690987 501.534624930901C1102.5251250690987 446.7396249309011 1102.2251250690988 391.694624930901 1093.3751250690989 338.469624930901C1038.3151250690987 339.804624930901 988.7951250690988 313.3896249309011 969.5501250690988 266.929624930901C950.3051250690988 220.4646249309011 966.6401250690988 166.769624930901 1006.5201250690986 128.7846249309011C975.1401250690988 84.8896249309011 936.4301250690988 45.7546249309011 891.2501250690988 13.4496249309011C853.2601250690989 53.349624930901 799.5501250690987 69.6996249309011 753.0751250690987 50.449624930901C706.5951250690988 31.1996249309011 680.1801250690988 -18.3403750690988 681.5301250690987 -73.420375069099C626.7351250690988 -82.5253750690988 571.6901250690988 -82.2253750690988 518.4701250690987 -73.3753750690989C519.8051250690987 -18.315375069099 493.3896250690988 31.2046249309011 446.9261250690987 50.449624930901C400.4626250690988 69.6946249309011 346.7691250690988 53.3596249309012 308.7811250690988 13.479624930901C264.8896250690988 44.8596249309011 225.7546250690987 83.5696249309011 193.4461250690988 128.7496249309011C233.3486250690987 166.7396249309011 249.6986250690988 220.4496249309012 230.4476250690988 266.929624930901C211.1966250690987 313.4046249309011 161.6571250690988 339.8196249309011 106.5786250690988 338.469624930901zM600.0001250690988 269.9996249309011C682.8401250690987 269.9996249309011 750.0001250690988 337.1596249309011 750.0001250690988 419.9996249309011C750.0001250690988 502.8446249309011 682.8401250690987 570.000624930901 600.0001250690988 570.000624930901C517.1551250690987 570.000624930901 449.9996250690988 502.8446249309011 449.9996250690988 419.9996249309011C449.9996250690988 337.1596249309011 517.1551250690987 269.9996249309011 600.0001250690988 269.9996249309011z" /><glyph glyph-name="shopping-cart-fill"
            unicode="&#xF11F;"
            horiz-adv-x="1200" d="M282.0195 595H978.9405L1003.9405 695H382.0195V795H1067.9805C1095.5955 795 1117.9805 772.614 1117.9805 745C1117.9805 740.912 1117.4805 736.8389999999999 1116.4855 732.873L991.4854999999998 232.875C985.9254999999998 210.615 965.9255 195 942.9805 195H232.0195C204.4055 195 182.0195 217.3850000000001 182.0195 245V845H82.0195V945H232.0195C259.634 945 282.0195 922.614 282.0195 895V595zM282.0195 -105C226.791 -105 182.0195 -60.23 182.0195 -5C182.0195 50.23 226.791 95 282.0195 95C337.248 95 382.0195 50.23 382.0195 -5C382.0195 -60.23 337.248 -105 282.0195 -105zM882.0205 -105C826.7905000000001 -105 782.0205 -60.23 782.0205 -5C782.0205 50.23 826.7905000000001 95 882.0205 95C937.2505 95 982.0205 50.23 982.0205 -5C982.0205 -60.23 937.2505 -105 882.0205 -105z" /><glyph glyph-name="calendar-event-fill"
            unicode="&#xEB24;"
            horiz-adv-x="1200" d="M850 820H1050C1077.615 820 1100 797.614 1100 770V-30C1100 -57.615 1077.615 -80 1050 -80H150C122.386 -80 100 -57.615 100 -30V770C100 797.614 122.386 820 150 820H350V920H450V820H750V920H850V820zM200 520V20H1000V520H200zM300 320H550V120H300V320z" /><glyph glyph-name="arrow-right-line"
            unicode="&#xEA6C;"
            horiz-adv-x="1200" d="M808.58 469.997L540.38 738.1975L611.09 808.9079999999999L1000 419.997L611.09 31.092L540.38 101.802L808.58 369.997H200V469.997H808.58z" /><glyph glyph-name="arrow-left-line"
            unicode="&#xEA60;"
            horiz-adv-x="1200" d="M391.4215 469.997H1000V369.997H391.4215L659.62 101.802L588.91 31.092L200 419.997L588.91 808.9079999999999L659.62 738.1975L391.4215 469.997z" /><glyph glyph-name="user-fill"
            unicode="&#xF25F;"
            horiz-adv-x="1200" d="M200 -105C200 115.915 379.086 295 600 295C820.915 295 1000 115.915 1000 -105H200zM600 345C434.25 345 300 479.25 300 645C300 810.75 434.25 945 600 945C765.75 945 900 810.75 900 645C900 479.25 765.75 345 600 345z" /><glyph glyph-name="slideshow-2-fill"
            unicode="&#xF151;"
            horiz-adv-x="1200" d="M650 170V20H900V-80H300V20H550V170H200C172.386 170 150 192.3850000000001 150 220V820H100V920H1100V820H1050V220C1050 192.3850000000001 1027.615 170 1000 170H650zM500 720V370L750 545L500 720z" /><glyph glyph-name="service-fill"
            unicode="&#xF0E1;"
            horiz-adv-x="1200" d="M706.066617558865 501.9522778285693C686.541617558865 521.4822778285694 654.8816175588651 521.4822778285694 635.3566175588651 501.9522778285693L600.0016175588651 466.5972778285694C560.946617558865 427.5472778285694 497.6311175588651 427.5472778285694 458.5786175588651 466.5972778285694C419.5261175588651 505.6522778285694 419.5261175588651 568.9682778285694 458.5786175588651 608.0207778285694L740.111617558865 889.6282778285694C845.306617558865 913.4257778285694 960.0416175588653 884.3747778285693 1041.9416175588651 802.4747778285694C1162.911617558865 681.5067778285693 1168.581617558865 488.9022778285694 1058.961617558865 361.2172778285693L953.5516175588652 254.4672778285693L706.066617558865 501.9522778285693zM158.0581175588651 802.4747778285694C266.7276175588651 911.1442778285694 433.2071175588652 926.7707778285694 558.5016175588651 849.3542778285694L387.8676175588651 678.7312778285693C309.7631175588651 600.6262778285693 309.7631175588651 473.9922778285694 387.8676175588651 395.8872778285694C463.6061175588652 320.1522778285694 584.9766175588651 317.8572778285694 663.4766175588651 389.0022778285693L670.711617558865 395.8872778285694L882.8416175588651 183.7572778285694L670.711617558865 -28.3777221714306C631.6566175588652 -67.4277221714308 568.3416175588651 -67.4277221714308 529.2916175588651 -28.3777221714306L158.0581175588651 342.8572778285694C31.1377175588651 469.7772778285694 31.1377175588651 675.5547778285693 158.0581175588651 802.4747778285694z" /><glyph glyph-name="group-fill"
            unicode="&#xEDE2;"
            horiz-adv-x="1200" d="M75.41 -105C75.41 115.915 254.496 295 475.41 295C696.3249999999999 295 875.41 115.915 875.41 -105H75.41zM475.41 345C309.66 345 175.41 479.25 175.41 645C175.41 810.75 309.66 945 475.41 945C641.16 945 775.41 810.75 775.41 645C775.41 479.25 641.16 345 475.41 345zM843.55 233.3400000000001C997.82 193.9150000000001 1113.8049999999998 58.8249999999999 1124.5900000000001 -105H975.41C975.41 25.49 925.42 144.3050000000001 843.55 233.3400000000001zM742.415 347.1550000000001C824.05 420.39 875.41 526.6965 875.41 645C875.41 715.867 856.9799999999999 782.4295 824.655 840.1565C939.175 817.3015 1025.4099999999999 716.2674999999999 1025.4099999999999 595C1025.4099999999999 456.875 913.535 345 775.41 345C764.225 345 753.2099999999999 345.735 742.415 347.1550000000001z" /><glyph glyph-name="star-line"
            unicode="&#xF18B;"
            horiz-adv-x="1200" d="M600.0027249999999 74.7049999999999L247.330225 -122.705L326.096725 273.7100000000001L29.367275 548.115L430.719225 595.7020000000001L600.0027249999999 962.705L769.282725 595.7020000000001L1170.632725 548.115L873.9077249999999 273.7100000000001L952.672725 -122.705L600.0027249999999 74.7049999999999zM600.0027249999999 189.3050000000001L812.337725 70.4500000000002L764.912725 309.12L943.567725 474.335L701.9227249999999 502.9879999999999L600.0027249999999 723.9540000000001L498.0797249999999 502.9879999999999L256.433225 474.335L435.088225 309.12L387.664225 70.4500000000002L600.0027249999999 189.3050000000001z" /><glyph glyph-name="book-marked-line"
            unicode="&#xEAD9;"
            horiz-adv-x="1200" d="M150 95V770C150 852.8425 217.1575 920 300 920H1000C1027.615 920 1050 897.614 1050 870V-30C1050 -57.615 1027.615 -80 1000 -80H325C228.35 -80 150 -1.65 150 95zM950 20V170H325C283.5785 170 250 136.42 250 95C250 53.58 283.5785 20 325 20H950zM500 820H300C272.386 820 250 797.614 250 770V253.16C272.7315 263.9600000000001 298.16 270 325 270H950V820H850V420L675 520L500 420V820z" /></font>
</defs>
</svg>
