<svg xmlns="http://www.w3.org/2000/svg" xmlns:xlink="http://www.w3.org/1999/xlink" width="0" height="0" style="display:none;"><symbol viewBox="0 0 24 24" id="wifi-line"><path d="M0.689453 6.99659C3.78027 4.49704 7.71526 3 11.9999 3C16.2845 3 20.2195 4.49704 23.3104 6.99659L22.0536 8.55252C19.3062 6.3307 15.8085 5 11.9999 5C8.19133 5 4.69356 6.3307 1.94617 8.55252L0.689453 6.99659ZM3.83124 10.8864C6.0635 9.08119 8.90544 8 11.9999 8C15.0944 8 17.9363 9.08119 20.1686 10.8864L18.9118 12.4424C17.023 10.9149 14.6183 10 11.9999 10C9.38151 10 6.97679 10.9149 5.08796 12.4424L3.83124 10.8864ZM6.97304 14.7763C8.34673 13.6653 10.0956 13 11.9999 13C13.9042 13 15.6531 13.6653 17.0268 14.7763L15.7701 16.3322C14.7398 15.499 13.4281 15 11.9999 15C10.5717 15 9.26002 15.499 8.22975 16.3322L6.97304 14.7763ZM10.1148 18.6661C10.63 18.2495 11.2858 18 11.9999 18C12.714 18 13.3698 18.2495 13.885 18.6661L11.9999 21L10.1148 18.6661Z"></path></symbol><symbol viewBox="0 0 24 24" id="computer-line"><path d="M4 16H20V5H4V16ZM13 18V20H17V22H7V20H11V18H2.9918C2.44405 18 2 17.5511 2 16.9925V4.00748C2 3.45107 2.45531 3 2.9918 3H21.0082C21.556 3 22 3.44892 22 4.00748V16.9925C22 17.5489 21.5447 18 21.0082 18H13Z"></path></symbol><symbol viewBox="0 0 24 24" id="printer-line"><path d="M17 2C17.5523 2 18 2.44772 18 3V7H21C21.5523 7 22 7.44772 22 8V18C22 18.5523 21.5523 19 21 19H18V21C18 21.5523 17.5523 22 17 22H7C6.44772 22 6 21.5523 6 21V19H3C2.44772 19 2 18.5523 2 18V8C2 7.44772 2.44772 7 3 7H6V3C6 2.44772 6.44772 2 7 2H17ZM16 17H8V20H16V17ZM20 9H4V17H6V16C6 15.4477 6.44772 15 7 15H17C17.5523 15 18 15.4477 18 16V17H20V9ZM8 10V12H5V10H8ZM16 4H8V7H16V4Z"></path></symbol><symbol viewBox="0 0 24 24" id="phone-line"><path d="M9.36556 10.6821C10.302 12.3288 11.6712 13.698 13.3179 14.6344L14.2024 13.3961C14.4965 12.9845 15.0516 12.8573 15.4956 13.0998C16.9024 13.8683 18.4571 14.3353 20.0789 14.4637C20.599 14.5049 21 14.9389 21 15.4606V19.9234C21 20.4361 20.6122 20.8657 20.1022 20.9181C19.5723 20.9726 19.0377 21 18.5 21C9.93959 21 3 14.0604 3 5.5C3 4.96227 3.02742 4.42771 3.08189 3.89776C3.1343 3.38775 3.56394 3 4.07665 3H8.53942C9.0611 3 9.49513 3.40104 9.5363 3.92109C9.66467 5.54288 10.1317 7.09764 10.9002 8.50444C11.1427 8.9484 11.0155 9.50354 10.6039 9.79757L9.36556 10.6821ZM6.84425 10.0252L8.7442 8.66809C8.20547 7.50514 7.83628 6.27183 7.64727 5H5.00907C5.00303 5.16632 5 5.333 5 5.5C5 12.9558 11.0442 19 18.5 19C18.667 19 18.8337 18.997 19 18.9909V16.3527C17.7282 16.1637 16.4949 15.7945 15.3319 15.2558L13.9748 17.1558C13.4258 16.9425 12.8956 16.6915 12.3874 16.4061L12.3293 16.373C10.3697 15.2587 8.74134 13.6303 7.627 11.6707L7.59394 11.6126C7.30849 11.1044 7.05754 10.5742 6.84425 10.0252Z"></path></symbol><symbol viewBox="0 0 24 24" id="map-pin-2-line"><path d="M12 23.7279L5.63604 17.364C2.12132 13.8492 2.12132 8.15076 5.63604 4.63604C9.15076 1.12132 14.8492 1.12132 18.364 4.63604C21.8787 8.15076 21.8787 13.8492 18.364 17.364L12 23.7279ZM16.9497 15.9497C19.6834 13.2161 19.6834 8.78392 16.9497 6.05025C14.2161 3.31658 9.78392 3.31658 7.05025 6.05025C4.31658 8.78392 4.31658 13.2161 7.05025 15.9497L12 20.8995L16.9497 15.9497ZM12 13C10.8954 13 10 12.1046 10 11C10 9.89543 10.8954 9 12 9C13.1046 9 14 9.89543 14 11C14 12.1046 13.1046 13 12 13Z"></path></symbol><symbol viewBox="0 0 24 24" id="add-line"><path d="M11 11V5H13V11H19V13H13V19H11V13H5V11H11Z"></path></symbol><symbol viewBox="0 0 24 24" id="check-line"><path d="M10.0007 15.1709L19.1931 5.97852L20.6073 7.39273L10.0007 17.9993L3.63672 11.6354L5.05093 10.2212L10.0007 15.1709Z"></path></symbol><symbol viewBox="0 0 24 24" id="checkbox-blank-circle-line"><path d="M12 22C6.47715 22 2 17.5228 2 12C2 6.47715 6.47715 2 12 2C17.5228 2 22 6.47715 22 12C22 17.5228 17.5228 22 12 22ZM12 20C16.4183 20 20 16.4183 20 12C20 7.58172 16.4183 4 12 4C7.58172 4 4 7.58172 4 12C4 16.4183 7.58172 20 12 20Z"></path></symbol><symbol viewBox="0 0 24 24" id="calendar-check-line"><path d="M9 1V3H15V1H17V3H21C21.5523 3 22 3.44772 22 4V20C22 20.5523 21.5523 21 21 21H3C2.44772 21 2 20.5523 2 20V4C2 3.44772 2.44772 3 3 3H7V1H9ZM20 10H4V19H20V10ZM15.0355 11.136L16.4497 12.5503L11.5 17.5L7.96447 13.9645L9.37868 12.5503L11.5 14.6716L15.0355 11.136ZM7 5H4V8H20V5H17V6H15V5H9V6H7V5Z"></path></symbol><symbol viewBox="0 0 24 24" id="mail-line"><path d="M3 3H21C21.5523 3 22 3.44772 22 4V20C22 20.5523 21.5523 21 21 21H3C2.44772 21 2 20.5523 2 20V4C2 3.44772 2.44772 3 3 3ZM20 7.23792L12.0718 14.338L4 7.21594V19H20V7.23792ZM4.51146 5L12.0619 11.662L19.501 5H4.51146Z"></path></symbol><symbol viewBox="0 0 24 24" id="arrow-right-s-line"><path d="M13.1714 12.0007L8.22168 7.05093L9.63589 5.63672L15.9999 12.0007L9.63589 18.3646L8.22168 16.9504L13.1714 12.0007Z"></path></symbol><symbol viewBox="0 0 24 24" id="arrow-left-s-line"><path d="M10.8284 12.0007L15.7782 16.9504L14.364 18.3646L8 12.0007L14.364 5.63672L15.7782 7.05093L10.8284 12.0007Z"></path></symbol><symbol viewBox="0 0 24 24" id="notification-3-line"><path d="M20 17H22V19H2V17H4V10C4 5.58172 7.58172 2 12 2C16.4183 2 20 5.58172 20 10V17ZM18 17V10C18 6.68629 15.3137 4 12 4C8.68629 4 6 6.68629 6 10V17H18ZM9 21H15V23H9V21Z"></path></symbol><symbol viewBox="0 0 24 24" id="mouse-line"><path d="M11.1411 4C9.5587 4 8.75361 4.16876 8.01266 4.56502C7.38342 4.90155 6.90155 5.38342 6.56502 6.01266C6.16876 6.75361 6 7.5587 6 9.14111V14.8589C6 16.4413 6.16876 17.2464 6.56502 17.9873C6.90155 18.6166 7.38342 19.0985 8.01266 19.435C8.75361 19.8312 9.5587 20 11.1411 20H12.8589C14.4413 20 15.2464 19.8312 15.9873 19.435C16.6166 19.0985 17.0985 18.6166 17.435 17.9873C17.8312 17.2464 18 16.4413 18 14.8589V9.14111C18 7.5587 17.8312 6.75361 17.435 6.01266C17.0985 5.38342 16.6166 4.90155 15.9873 4.56502C15.2464 4.16876 14.4413 4 12.8589 4H11.1411ZM11.1411 2H12.8589C14.8728 2 15.9528 2.27848 16.9305 2.8014C17.9083 3.32432 18.6757 4.09169 19.1986 5.06946C19.7215 6.04724 20 7.12721 20 9.14111V14.8589C20 16.8728 19.7215 17.9528 19.1986 18.9305C18.6757 19.9083 17.9083 20.6757 16.9305 21.1986C15.9528 21.7215 14.8728 22 12.8589 22H11.1411C9.12721 22 8.04724 21.7215 7.06946 21.1986C6.09169 20.6757 5.32432 19.9083 4.8014 18.9305C4.27848 17.9528 4 16.8728 4 14.8589V9.14111C4 7.12721 4.27848 6.04724 4.8014 5.06946C5.32432 4.09169 6.09169 3.32432 7.06946 2.8014C8.04724 2.27848 9.12721 2 11.1411 2ZM11 6H13V11H11V6Z"></path></symbol><symbol viewBox="0 0 24 24" id="group-line"><path d="M2 22C2 17.5817 5.58172 14 10 14C14.4183 14 18 17.5817 18 22H16C16 18.6863 13.3137 16 10 16C6.68629 16 4 18.6863 4 22H2ZM10 13C6.685 13 4 10.315 4 7C4 3.685 6.685 1 10 1C13.315 1 16 3.685 16 7C16 10.315 13.315 13 10 13ZM10 11C12.21 11 14 9.21 14 7C14 4.79 12.21 3 10 3C7.79 3 6 4.79 6 7C6 9.21 7.79 11 10 11ZM18.2837 14.7028C21.0644 15.9561 23 18.752 23 22H21C21 19.564 19.5483 17.4671 17.4628 16.5271L18.2837 14.7028ZM17.5962 3.41321C19.5944 4.23703 21 6.20361 21 8.5C21 11.3702 18.8042 13.7252 16 13.9776V11.9646C17.6967 11.7222 19 10.264 19 8.5C19 7.11935 18.2016 5.92603 17.041 5.35635L17.5962 3.41321Z"></path></symbol><symbol viewBox="0 0 24 24" id="wheelchair-line"><path d="M7.99837 10.3413L7.99793 12.5352C6.80239 13.2268 5.99805 14.5195 5.99805 16C5.99805 18.2091 7.78891 20 9.99805 20C11.4786 20 12.7712 19.1957 13.4628 18.0001L15.6565 18.0004C14.8327 20.3306 12.6103 22 9.99805 22C6.68434 22 3.99805 19.3137 3.99805 16C3.99805 13.3874 5.66782 11.1649 7.99837 10.3413ZM11.998 17C10.3412 17 8.99805 15.6569 8.99805 14V10C8.99805 8.95561 9.53172 8.03587 10.3412 7.49861C9.53172 6.96413 8.99805 6.04439 8.99805 5C8.99805 3.34315 10.3412 2 11.998 2C13.6549 2 14.998 3.34315 14.998 5C14.998 6.04439 14.4644 6.96413 13.6548 7.50139C14.4644 8.03587 14.998 8.95561 14.998 10V14.999L16.4319 15C17.0803 15 17.6849 15.3141 18.0584 15.8362L18.1468 15.971L20.8555 20.4855L19.1406 21.5145L16.4319 17L14.998 16.999L11.998 17ZM11.998 9C11.4458 9 10.998 9.44772 10.998 10V14C10.998 14.5523 11.4458 15 11.998 15H12.997L12.998 10C12.998 9.44772 12.5503 9 11.998 9ZM11.998 4C11.4458 4 10.998 4.44772 10.998 5C10.998 5.55228 11.4458 6 11.998 6C12.5503 6 12.998 5.55228 12.998 5C12.998 4.44772 12.5503 4 11.998 4Z"></path></symbol><symbol viewBox="0 0 24 24" id="parent-line"><path d="M7 9C8.38071 9 9.5 7.88071 9.5 6.5C9.5 5.11929 8.38071 4 7 4C5.61929 4 4.5 5.11929 4.5 6.5C4.5 7.88071 5.61929 9 7 9ZM7 11C4.51472 11 2.5 8.98528 2.5 6.5C2.5 4.01472 4.51472 2 7 2C9.48528 2 11.5 4.01472 11.5 6.5C11.5 8.98528 9.48528 11 7 11ZM17.5 13C18.6046 13 19.5 12.1046 19.5 11C19.5 9.89543 18.6046 9 17.5 9C16.3954 9 15.5 9.89543 15.5 11C15.5 12.1046 16.3954 13 17.5 13ZM17.5 15C15.2909 15 13.5 13.2091 13.5 11C13.5 8.79086 15.2909 7 17.5 7C19.7091 7 21.5 8.79086 21.5 11C21.5 13.2091 19.7091 15 17.5 15ZM20 21V20.5C20 19.1193 18.8807 18 17.5 18C16.1193 18 15 19.1193 15 20.5V21H13V20.5C13 18.0147 15.0147 16 17.5 16C19.9853 16 22 18.0147 22 20.5V21H20ZM10 21V17C10 15.3431 8.65685 14 7 14C5.34315 14 4 15.3431 4 17V21H2V17C2 14.2386 4.23858 12 7 12C9.76142 12 12 14.2386 12 17V21H10Z"></path></symbol><symbol viewBox="0 0 24 24" id="mail-line"><path d="M3 3H21C21.5523 3 22 3.44772 22 4V20C22 20.5523 21.5523 21 21 21H3C2.44772 21 2 20.5523 2 20V4C2 3.44772 2.44772 3 3 3ZM20 7.23792L12.0718 14.338L4 7.21594V19H20V7.23792ZM4.51146 5L12.0619 11.662L19.501 5H4.51146Z"></path></symbol><symbol viewBox="0 0 24 24" id="user-3-line"><path d="M20 22H18V20C18 18.3431 16.6569 17 15 17H9C7.34315 17 6 18.3431 6 20V22H4V20C4 17.2386 6.23858 15 9 15H15C17.7614 15 20 17.2386 20 20V22ZM12 13C8.68629 13 6 10.3137 6 7C6 3.68629 8.68629 1 12 1C15.3137 1 18 3.68629 18 7C18 10.3137 15.3137 13 12 13ZM12 11C14.2091 11 16 9.20914 16 7C16 4.79086 14.2091 3 12 3C9.79086 3 8 4.79086 8 7C8 9.20914 9.79086 11 12 11Z"></path></symbol><symbol viewBox="0 0 24 24" id="tools-line"><path d="M5.32894 3.27158C6.56203 2.8332 7.99181 3.10749 8.97878 4.09446C10.0997 5.21537 10.3014 6.90741 9.58382 8.23385L20.2925 18.9437L18.8783 20.3579L8.16933 9.64875C6.84277 10.3669 5.1502 10.1654 4.02903 9.04421C3.04178 8.05696 2.76761 6.62665 3.20652 5.39332L5.44325 7.63C6.02903 8.21578 6.97878 8.21578 7.56457 7.63C8.15035 7.04421 8.15035 6.09446 7.56457 5.50868L5.32894 3.27158ZM15.6963 5.15512L18.8783 3.38736L20.2925 4.80157L18.5247 7.98355L16.757 8.3371L14.6356 10.4584L13.2214 9.04421L15.3427 6.92289L15.6963 5.15512ZM8.97878 13.2868L10.393 14.7011L5.08969 20.0044C4.69917 20.3949 4.066 20.3949 3.67548 20.0044C3.31285 19.6417 3.28695 19.0699 3.59777 18.6774L3.67548 18.5902L8.97878 13.2868Z"></path></symbol><symbol viewBox="0 0 24 24" id="error-warning-line"><path d="M12 22C6.47715 22 2 17.5228 2 12C2 6.47715 6.47715 2 12 2C17.5228 2 22 6.47715 22 12C22 17.5228 17.5228 22 12 22ZM12 20C16.4183 20 20 16.4183 20 12C20 7.58172 16.4183 4 12 4C7.58172 4 4 7.58172 4 12C4 16.4183 7.58172 20 12 20ZM11 15H13V17H11V15ZM11 7H13V13H11V7Z"></path></symbol><symbol viewBox="0 0 24 24" id="service-line"><path d="M3.16113 4.46875C5.58508 2.0448 9.44716 1.9355 12.0008 4.14085C14.5528 1.9355 18.4149 2.0448 20.8388 4.46875C23.2584 6.88836 23.3716 10.741 21.1785 13.2947L13.4142 21.0858C12.6686 21.8313 11.4809 21.8652 10.6952 21.1874L10.5858 21.0858L2.82141 13.2947C0.628282 10.741 0.741522 6.88836 3.16113 4.46875ZM4.57534 5.88296C2.86819 7.59011 2.81942 10.3276 4.42902 12.0937L4.57534 12.2469L12 19.6715L17.3026 14.3675L13.7677 10.8327L12.7071 11.8934C11.5355 13.0649 9.636 13.0649 8.46443 11.8934C7.29286 10.7218 7.29286 8.8223 8.46443 7.65073L10.5656 5.54823C8.85292 4.17713 6.37076 4.23993 4.7286 5.73663L4.57534 5.88296ZM13.0606 8.71139C13.4511 8.32086 14.0843 8.32086 14.4748 8.71139L18.7168 12.9533L19.4246 12.2469C21.1819 10.4896 21.1819 7.64032 19.4246 5.88296C17.7174 4.17581 14.9799 4.12704 13.2139 5.73663L13.0606 5.88296L9.87864 9.06494C9.51601 9.42757 9.49011 9.99942 9.80094 10.3919L9.87864 10.4792C10.2413 10.8418 10.8131 10.8677 11.2056 10.5569L11.2929 10.4792L13.0606 8.71139Z"></path></symbol><symbol viewBox="0 0 24 24" id="checkbox-blank-circle-fill"><path d="M12 22C17.5228 22 22 17.5228 22 12C22 6.47715 17.5228 2 12 2C6.47715 2 2 6.47715 2 12C2 17.5228 6.47715 22 12 22Z"></path></symbol><symbol viewBox="0 0 24 24" id="equalizer-fill"><path d="M6.17071 18C6.58254 16.8348 7.69378 16 9 16C10.3062 16 11.4175 16.8348 11.8293 18H22V20H11.8293C11.4175 21.1652 10.3062 22 9 22C7.69378 22 6.58254 21.1652 6.17071 20H2V18H6.17071ZM12.1707 11C12.5825 9.83481 13.6938 9 15 9C16.3062 9 17.4175 9.83481 17.8293 11H22V13H17.8293C17.4175 14.1652 16.3062 15 15 15C13.6938 15 12.5825 14.1652 12.1707 13H2V11H12.1707ZM6.17071 4C6.58254 2.83481 7.69378 2 9 2C10.3062 2 11.4175 2.83481 11.8293 4H22V6H11.8293C11.4175 7.16519 10.3062 8 9 8C7.69378 8 6.58254 7.16519 6.17071 6H2V4H6.17071Z"></path></symbol><symbol viewBox="0 0 24 24" id="account-pin-circle-fill"><path d="M14.2558 21.7442L12 24L9.74416 21.7442C5.30941 20.7204 2 16.7443 2 12C2 6.48 6.48 2 12 2C17.52 2 22 6.48 22 12C22 16.7443 18.6906 20.7204 14.2558 21.7442ZM6.02332 15.4163C7.49083 17.6069 9.69511 19 12.1597 19C14.6243 19 16.8286 17.6069 18.2961 15.4163C16.6885 13.9172 14.5312 13 12.1597 13C9.78821 13 7.63095 13.9172 6.02332 15.4163ZM12 11C13.6569 11 15 9.65685 15 8C15 6.34315 13.6569 5 12 5C10.3431 5 9 6.34315 9 8C9 9.65685 10.3431 11 12 11Z"></path></symbol><symbol viewBox="0 0 24 24" id="arrow-right-circle-fill"><path d="M12 2C17.52 2 22 6.48 22 12C22 17.52 17.52 22 12 22C6.48 22 2 17.52 2 12C2 6.48 6.48 2 12 2ZM12 11H8V13H12V16L16 12L12 8V11Z"></path></symbol><symbol viewBox="0 0 24 24" id="arrow-left-circle-fill"><path d="M12 2C17.52 2 22 6.48 22 12C22 17.52 17.52 22 12 22C6.48 22 2 17.52 2 12C2 6.48 6.48 2 12 2ZM12 11V8L8 12L12 16V13H16V11H12Z"></path></symbol><symbol viewBox="0 0 24 24" id="external-link-line"><path d="M10 6V8H5V19H16V14H18V20C18 20.5523 17.5523 21 17 21H4C3.44772 21 3 20.5523 3 20V7C3 6.44772 3.44772 6 4 6H10ZM21 3V11H19L18.9999 6.413L11.2071 14.2071L9.79289 12.7929L17.5849 5H13V3H21Z"></path></symbol><symbol viewBox="0 0 24 24" id="arrow-go-back-line"><path d="M5.82843 6.99955L8.36396 9.53509L6.94975 10.9493L2 5.99955L6.94975 1.0498L8.36396 2.46402L5.82843 4.99955H13C17.4183 4.99955 21 8.58127 21 12.9996C21 17.4178 17.4183 20.9996 13 20.9996H4V18.9996H13C16.3137 18.9996 19 16.3133 19 12.9996C19 9.68584 16.3137 6.99955 13 6.99955H5.82843Z"></path></symbol><symbol viewBox="0 0 24 24" id="file-text-line"><path d="M21 8V20.9932C21 21.5501 20.5552 22 20.0066 22H3.9934C3.44495 22 3 21.556 3 21.0082V2.9918C3 2.45531 3.4487 2 4.00221 2H14.9968L21 8ZM19 9H14V4H5V20H19V9ZM8 7H11V9H8V7ZM8 11H16V13H8V11ZM8 15H16V17H8V15Z"></path></symbol><symbol viewBox="0 0 24 24" id="link"><path d="M18.3643 15.5353L16.95 14.1211L18.3643 12.7069C20.3169 10.7543 20.3169 7.58847 18.3643 5.63585C16.4116 3.68323 13.2458 3.68323 11.2932 5.63585L9.87898 7.05007L8.46477 5.63585L9.87898 4.22164C12.6127 1.48797 17.0448 1.48797 19.7785 4.22164C22.5121 6.95531 22.5121 11.3875 19.7785 14.1211L18.3643 15.5353ZM15.5358 18.3638L14.1216 19.778C11.388 22.5117 6.9558 22.5117 4.22213 19.778C1.48846 17.0443 1.48846 12.6122 4.22213 9.87849L5.63634 8.46428L7.05055 9.87849L5.63634 11.2927C3.68372 13.2453 3.68372 16.4112 5.63634 18.3638C7.58896 20.3164 10.7548 20.3164 12.7074 18.3638L14.1216 16.9496L15.5358 18.3638ZM14.8287 7.75717L16.2429 9.17139L9.17187 16.2425L7.75766 14.8282L14.8287 7.75717Z"></path></symbol><symbol viewBox="0 0 24 24" id="list-check"><path d="M8 4H21V6H8V4ZM3 3.5H6V6.5H3V3.5ZM3 10.5H6V13.5H3V10.5ZM3 17.5H6V20.5H3V17.5ZM8 11H21V13H8V11ZM8 18H21V20H8V18Z"></path></symbol><symbol viewBox="0 0 24 24" id="mail-send-line"><path d="M21 3C21.5523 3 22 3.44772 22 4V20.0066C22 20.5552 21.5447 21 21.0082 21H2.9918C2.44405 21 2 20.5551 2 20.0066V19H20V7.3L12 14.5L2 5.5V4C2 3.44772 2.44772 3 3 3H21ZM8 15V17H0V15H8ZM5 10V12H0V10H5ZM19.5659 5H4.43414L12 11.8093L19.5659 5Z"></path></symbol><symbol viewBox="0 0 24 24" id="skip-forward-line"><path d="M16 12.6667L5.77735 19.4818C5.54759 19.6349 5.23715 19.5729 5.08397 19.3431C5.02922 19.261 5 19.1645 5 19.0657V4.93426C5 4.65812 5.22386 4.43426 5.5 4.43426C5.59871 4.43426 5.69522 4.46348 5.77735 4.51823L16 11.3333V5C16 4.44772 16.4477 4 17 4C17.5523 4 18 4.44772 18 5V19C18 19.5523 17.5523 20 17 20C16.4477 20 16 19.5523 16 19V12.6667ZM7 7.73703V16.263L13.3944 12L7 7.73703Z"></path></symbol><symbol viewBox="0 0 24 24" id="map-pin-5-line"><path d="M12 18.4853L16.2426 14.2426C18.5858 11.8995 18.5858 8.10051 16.2426 5.75736C13.8995 3.41421 10.1005 3.41421 7.75736 5.75736C5.41421 8.10051 5.41421 11.8995 7.75736 14.2426L12 18.4853ZM17.6569 15.6569L12 21.3137L6.34315 15.6569C3.21895 12.5327 3.21895 7.46734 6.34315 4.34315C9.46734 1.21895 14.5327 1.21895 17.6569 4.34315C20.781 7.46734 20.781 12.5327 17.6569 15.6569ZM5 22H19V24H5V22Z"></path></symbol><symbol viewBox="0 0 24 24" id="settings-4-line"><path d="M2 11.9998C2 11.1353 2.1097 10.2964 2.31595 9.49631C3.40622 9.55283 4.48848 9.01015 5.0718 7.99982C5.65467 6.99025 5.58406 5.78271 4.99121 4.86701C6.18354 3.69529 7.66832 2.82022 9.32603 2.36133C9.8222 3.33385 10.8333 3.99982 12 3.99982C13.1667 3.99982 14.1778 3.33385 14.674 2.36133C16.3317 2.82022 17.8165 3.69529 19.0088 4.86701C18.4159 5.78271 18.3453 6.99025 18.9282 7.99982C19.5115 9.01015 20.5938 9.55283 21.6841 9.49631C21.8903 10.2964 22 11.1353 22 11.9998C22 12.8643 21.8903 13.7032 21.6841 14.5033C20.5938 14.4468 19.5115 14.9895 18.9282 15.9998C18.3453 17.0094 18.4159 18.2169 19.0088 19.1326C17.8165 20.3043 16.3317 21.1794 14.674 21.6383C14.1778 20.6658 13.1667 19.9998 12 19.9998C10.8333 19.9998 9.8222 20.6658 9.32603 21.6383C7.66832 21.1794 6.18354 20.3043 4.99121 19.1326C5.58406 18.2169 5.65467 17.0094 5.0718 15.9998C4.48848 14.9895 3.40622 14.4468 2.31595 14.5033C2.1097 13.7032 2 12.8643 2 11.9998ZM6.80385 14.9998C7.43395 16.0912 7.61458 17.3459 7.36818 18.5236C7.77597 18.8138 8.21005 19.0652 8.66489 19.2741C9.56176 18.4712 10.7392 17.9998 12 17.9998C13.2608 17.9998 14.4382 18.4712 15.3351 19.2741C15.7899 19.0652 16.224 18.8138 16.6318 18.5236C16.3854 17.3459 16.566 16.0912 17.1962 14.9998C17.8262 13.9085 18.8225 13.1248 19.9655 12.7493C19.9884 12.5015 20 12.2516 20 11.9998C20 11.7481 19.9884 11.4981 19.9655 11.2504C18.8225 10.8749 17.8262 10.0912 17.1962 8.99982C16.566 7.90845 16.3854 6.65378 16.6318 5.47605C16.224 5.18588 15.7899 4.93447 15.3351 4.72552C14.4382 5.52844 13.2608 5.99982 12 5.99982C10.7392 5.99982 9.56176 5.52844 8.66489 4.72552C8.21005 4.93447 7.77597 5.18588 7.36818 5.47605C7.61458 6.65378 7.43395 7.90845 6.80385 8.99982C6.17376 10.0912 5.17754 10.8749 4.03451 11.2504C4.01157 11.4981 4 11.7481 4 11.9998C4 12.2516 4.01157 12.5015 4.03451 12.7493C5.17754 13.1248 6.17376 13.9085 6.80385 14.9998ZM12 14.9998C10.3431 14.9998 9 13.6567 9 11.9998C9 10.343 10.3431 8.99982 12 8.99982C13.6569 8.99982 15 10.343 15 11.9998C15 13.6567 13.6569 14.9998 12 14.9998ZM12 12.9998C12.5523 12.9998 13 12.5521 13 11.9998C13 11.4475 12.5523 10.9998 12 10.9998C11.4477 10.9998 11 11.4475 11 11.9998C11 12.5521 11.4477 12.9998 12 12.9998Z"></path></symbol><symbol viewBox="0 0 24 24" id="calendar-todo-line"><path d="M9 1V3H15V1H17V3H21C21.5523 3 22 3.44772 22 4V20C22 20.5523 21.5523 21 21 21H3C2.44772 21 2 20.5523 2 20V4C2 3.44772 2.44772 3 3 3H7V1H9ZM20 11H4V19H20V11ZM8 14V16H6V14H8ZM18 14V16H10V14H18ZM7 5H4V9H20V5H17V7H15V5H9V7H7V5Z"></path></symbol><symbol viewBox="0 0 24 24" id="road-map-line"><path d="M4 6.14286V18.9669L9.06476 16.7963L15.0648 19.7963L20 17.6812V4.85714L21.303 4.2987C21.5569 4.18992 21.8508 4.30749 21.9596 4.56131C21.9862 4.62355 22 4.69056 22 4.75827V19L15 22L9 19L2.69696 21.7013C2.44314 21.8101 2.14921 21.6925 2.04043 21.4387C2.01375 21.3765 2 21.3094 2 21.2417V7L4 6.14286ZM16.2426 11.2426L12 15.4853L7.75736 11.2426C5.41421 8.89949 5.41421 5.10051 7.75736 2.75736C10.1005 0.414214 13.8995 0.414214 16.2426 2.75736C18.5858 5.10051 18.5858 8.89949 16.2426 11.2426ZM12 12.6569L14.8284 9.82843C16.3905 8.26633 16.3905 5.73367 14.8284 4.17157C13.2663 2.60948 10.7337 2.60948 9.17157 4.17157C7.60948 5.73367 7.60948 8.26633 9.17157 9.82843L12 12.6569Z"></path></symbol><symbol viewBox="0 0 24 24" id="subtract-line"><path d="M5 11V13H19V11H5Z"></path></symbol><symbol viewBox="0 0 24 24" id="smartphone-line"><path d="M7 4V20H17V4H7ZM6 2H18C18.5523 2 19 2.44772 19 3V21C19 21.5523 18.5523 22 18 22H6C5.44772 22 5 21.5523 5 21V3C5 2.44772 5.44772 2 6 2ZM12 17C12.5523 17 13 17.4477 13 18C13 18.5523 12.5523 19 12 19C11.4477 19 11 18.5523 11 18C11 17.4477 11.4477 17 12 17Z"></path></symbol><symbol viewBox="0 0 24 24" id="user-line"><path d="M4 22C4 17.5817 7.58172 14 12 14C16.4183 14 20 17.5817 20 22H18C18 18.6863 15.3137 16 12 16C8.68629 16 6 18.6863 6 22H4ZM12 13C8.685 13 6 10.315 6 7C6 3.685 8.685 1 12 1C15.315 1 18 3.685 18 7C18 10.315 15.315 13 12 13ZM12 11C14.21 11 16 9.21 16 7C16 4.79 14.21 3 12 3C9.79 3 8 4.79 8 7C8 9.21 9.79 11 12 11Z"></path></symbol><symbol viewBox="0 0 24 24" id="user-star-line"><path d="M12 14V16C8.68629 16 6 18.6863 6 22H4C4 17.5817 7.58172 14 12 14ZM12 13C8.685 13 6 10.315 6 7C6 3.685 8.685 1 12 1C15.315 1 18 3.685 18 7C18 10.315 15.315 13 12 13ZM12 11C14.21 11 16 9.21 16 7C16 4.79 14.21 3 12 3C9.79 3 8 4.79 8 7C8 9.21 9.79 11 12 11ZM18 21.5L15.0611 23.0451L15.6224 19.7725L13.2447 17.4549L16.5305 16.9775L18 14L19.4695 16.9775L22.7553 17.4549L20.3776 19.7725L20.9389 23.0451L18 21.5Z"></path></symbol><symbol viewBox="0 0 24 24" id="slideshow-line"><path d="M13 21V23H11V21H3C2.44772 21 2 20.5523 2 20V6H22V20C22 20.5523 21.5523 21 21 21H13ZM4 19H20V8H4V19ZM13 10H18V12H13V10ZM13 14H18V16H13V14ZM9 10V13H12C12 14.6569 10.6569 16 9 16C7.34315 16 6 14.6569 6 13C6 11.3431 7.34315 10 9 10ZM2 3H22V5H2V3Z"></path></symbol><symbol viewBox="0 0 24 24" id="stethoscope-line"><path d="M8 3V5H6V9C6 11.2091 7.79086 13 10 13C12.2091 13 14 11.2091 14 9V5H12V3H15C15.5523 3 16 3.44772 16 4V9C16 11.9727 13.8381 14.4405 11.0008 14.9169L11 16.5C11 18.433 12.567 20 14.5 20C15.9973 20 17.275 19.0598 17.7749 17.7375C16.7283 17.27 16 16.2201 16 15C16 13.3431 17.3431 12 19 12C20.6569 12 22 13.3431 22 15C22 16.3711 21.0802 17.5274 19.824 17.8854C19.2102 20.252 17.0592 22 14.5 22C11.4624 22 9 19.5376 9 16.5L9.00019 14.9171C6.16238 14.4411 4 11.9731 4 9V4C4 3.44772 4.44772 3 5 3H8ZM19 14C18.4477 14 18 14.4477 18 15C18 15.5523 18.4477 16 19 16C19.5523 16 20 15.5523 20 15C20 14.4477 19.5523 14 19 14Z"></path></symbol><symbol viewBox="0 0 24 24" id="shopping-cart-line"><path d="M4.00488 16V4H2.00488V2H5.00488C5.55717 2 6.00488 2.44772 6.00488 3V15H18.4433L20.4433 7H8.00488V5H21.7241C22.2764 5 22.7241 5.44772 22.7241 6C22.7241 6.08176 22.7141 6.16322 22.6942 6.24254L20.1942 16.2425C20.083 16.6877 19.683 17 19.2241 17H5.00488C4.4526 17 4.00488 16.5523 4.00488 16ZM6.00488 23C4.90031 23 4.00488 22.1046 4.00488 21C4.00488 19.8954 4.90031 19 6.00488 19C7.10945 19 8.00488 19.8954 8.00488 21C8.00488 22.1046 7.10945 23 6.00488 23ZM18.0049 23C16.9003 23 16.0049 22.1046 16.0049 21C16.0049 19.8954 16.9003 19 18.0049 19C19.1095 19 20.0049 19.8954 20.0049 21C20.0049 22.1046 19.1095 23 18.0049 23Z"></path></symbol><symbol viewBox="0 0 24 24" id="settings-5-line"><path d="M2.21329 14.0601C1.92026 12.6755 1.93213 11.2743 2.21413 9.94038C3.32405 10.0711 4.29284 9.7035 4.60963 8.93871C4.92641 8.17392 4.50129 7.22896 3.62405 6.53655C4.36788 5.3939 5.35029 4.39471 6.53651 3.62289C7.22898 4.50059 8.17422 4.92601 8.9392 4.60914C9.70418 4.29227 10.0717 3.32308 9.94077 2.21281C11.3253 1.91977 12.7265 1.93164 14.0605 2.21364C13.9298 3.32356 14.2973 4.29235 15.0621 4.60914C15.8269 4.92593 16.7719 4.5008 17.4643 3.62356C18.6069 4.36739 19.6061 5.3498 20.3779 6.53602C19.5002 7.22849 19.0748 8.17373 19.3917 8.93871C19.7086 9.70369 20.6778 10.0713 21.788 9.94028C22.0811 11.3248 22.0692 12.726 21.7872 14.06C20.6773 13.9293 19.7085 14.2969 19.3917 15.0616C19.0749 15.8264 19.5 16.7714 20.3773 17.4638C19.6335 18.6064 18.651 19.6056 17.4648 20.3775C16.7724 19.4998 15.8271 19.0743 15.0621 19.3912C14.2971 19.7081 13.9296 20.6773 14.0606 21.7875C12.676 22.0806 11.2748 22.0687 9.94087 21.7867C10.0716 20.6768 9.70399 19.708 8.9392 19.3912C8.17441 19.0744 7.22945 19.4995 6.53703 20.3768C5.39439 19.633 4.3952 18.6506 3.62338 17.4643C4.50108 16.7719 4.92649 15.8266 4.60963 15.0616C4.29276 14.2967 3.32356 13.9291 2.21329 14.0601ZM4.00073 12.2104C5.10054 12.5148 6.00815 13.2117 6.45739 14.2963C6.90662 15.3808 6.75764 16.5154 6.19519 17.5083C6.29175 17.61 6.39096 17.7092 6.4927 17.8056C7.48558 17.2432 8.6201 17.0943 9.70456 17.5435C10.789 17.9927 11.4859 18.9002 11.7904 19.9999C11.9305 20.0037 12.0707 20.0038 12.2109 20.0001C12.5153 18.9003 13.2122 17.9927 14.2968 17.5435C15.3813 17.0942 16.5159 17.2432 17.5088 17.8057C17.6105 17.7091 17.7096 17.6099 17.806 17.5081C17.2437 16.5153 17.0947 15.3807 17.5439 14.2963C17.9931 13.2118 18.9007 12.5149 20.0004 12.2105C20.0042 12.0704 20.0043 11.9301 20.0006 11.7899C18.9008 11.4856 17.9932 10.7886 17.5439 9.70407C17.0947 8.61953 17.2437 7.48494 17.8061 6.49204C17.7096 6.39031 17.6104 6.2912 17.5086 6.19479C16.5158 6.75717 15.3812 6.9061 14.2968 6.4569C13.2123 6.0077 12.5154 5.10016 12.211 4.00044C12.0709 3.99666 11.9306 3.99659 11.7904 4.00024C11.486 5.10005 10.7891 6.00767 9.70456 6.4569C8.62002 6.90613 7.48543 6.75715 6.49252 6.1947C6.39079 6.29126 6.29169 6.39047 6.19528 6.49222C6.75766 7.48509 6.90659 8.61961 6.45739 9.70407C6.00819 10.7885 5.10065 11.4855 4.00092 11.7899C3.99715 11.93 3.99708 12.0702 4.00073 12.2104ZM12.0007 15.0002C10.3438 15.0002 9.00066 13.657 9.00066 12.0002C9.00066 10.3433 10.3438 9.00018 12.0007 9.00018C13.6575 9.00018 15.0007 10.3433 15.0007 12.0002C15.0007 13.657 13.6575 15.0002 12.0007 15.0002ZM12.0007 13.0002C12.5529 13.0002 13.0007 12.5525 13.0007 12.0002C13.0007 11.4479 12.5529 11.0002 12.0007 11.0002C11.4484 11.0002 11.0007 11.4479 11.0007 12.0002C11.0007 12.5525 11.4484 13.0002 12.0007 13.0002Z"></path></symbol><symbol viewBox="0 0 24 24" id="contacts-line"><path d="M19 7H24V9H19V7ZM17 12H24V14H17V12ZM20 17H24V19H20V17ZM2 22C2 17.5817 5.58172 14 10 14C14.4183 14 18 17.5817 18 22H16C16 18.6863 13.3137 16 10 16C6.68629 16 4 18.6863 4 22H2ZM10 13C6.685 13 4 10.315 4 7C4 3.685 6.685 1 10 1C13.315 1 16 3.685 16 7C16 10.315 13.315 13 10 13ZM10 11C12.21 11 14 9.21 14 7C14 4.79 12.21 3 10 3C7.79 3 6 4.79 6 7C6 9.21 7.79 11 10 11Z"></path></symbol><symbol viewBox="0 0 24 24" id="medal-line"><path d="M12 7.00002C16.4183 7.00002 20 10.5817 20 15C20 19.4183 16.4183 23 12 23C7.58172 23 4 19.4183 4 15C4 10.5817 7.58172 7.00002 12 7.00002ZM12 9.00002C8.68629 9.00002 6 11.6863 6 15C6 18.3137 8.68629 21 12 21C15.3137 21 18 18.3137 18 15C18 11.6863 15.3137 9.00002 12 9.00002ZM12 10.5L13.3225 13.1797L16.2798 13.6094L14.1399 15.6953L14.645 18.6406L12 17.25L9.35497 18.6406L9.86012 15.6953L7.72025 13.6094L10.6775 13.1797L12 10.5ZM18 2.00002V5.00002L16.6366 6.13758C15.5305 5.55773 14.3025 5.17887 13.0011 5.04951L13 1.99902L18 2.00002ZM11 1.99902L10.9997 5.04943C9.6984 5.17866 8.47046 5.55738 7.36441 6.13706L6 5.00002V2.00002L11 1.99902Z"></path></symbol><symbol viewBox="0 0 24 24" id="image-2-line"><path d="M5 11.1005L7 9.1005L12.5 14.6005L16 11.1005L19 14.1005V5H5V11.1005ZM5 13.9289V19H8.1005L11.0858 16.0147L7 11.9289L5 13.9289ZM10.9289 19H19V16.9289L16 13.9289L10.9289 19ZM4 3H20C20.5523 3 21 3.44772 21 4V20C21 20.5523 20.5523 21 20 21H4C3.44772 21 3 20.5523 3 20V4C3 3.44772 3.44772 3 4 3ZM15.5 10C14.6716 10 14 9.32843 14 8.5C14 7.67157 14.6716 7 15.5 7C16.3284 7 17 7.67157 17 8.5C17 9.32843 16.3284 10 15.5 10Z"></path></symbol><symbol viewBox="0 0 24 24" id="pen-nib-line"><path d="M16.5962 1.03665L22.9428 7.38325C23.1381 7.57852 23.1381 7.8951 22.9428 8.09036C22.8679 8.16526 22.7712 8.21444 22.6665 8.23081L21.1924 8.46127L15.5356 2.80441L15.7477 1.31949C15.7868 1.04612 16.04 0.856173 16.3134 0.895226C16.4205 0.910525 16.5197 0.960149 16.5962 1.03665ZM4.59487 20.148C8.31725 16.8165 12.5899 15.8201 17.2379 14.6275L17.6843 10.61L13.3869 6.31255L9.36936 6.75894C8.17674 11.407 7.18038 15.6796 3.84886 19.402L2.4541 18.0072C5.28253 14.7074 6.34319 11.054 7.7574 4.92573L14.1214 4.21863L19.7783 9.87552L19.0711 16.2394C12.9429 17.6537 9.28947 18.7143 5.98964 21.5427L4.59487 20.148ZM9.87872 14.1181C9.09767 13.3371 9.09767 12.0707 9.87872 11.2897C10.6598 10.5086 11.9261 10.5086 12.7071 11.2897C13.4882 12.0707 13.4882 13.3371 12.7071 14.1181C11.9261 14.8992 10.6598 14.8992 9.87872 14.1181Z"></path></symbol><symbol viewBox="0 0 24 24" id="map-pin-4-line"><path d="M11 17.9381C7.05369 17.446 4 14.0796 4 10C4 5.58172 7.58172 2 12 2C16.4183 2 20 5.58172 20 10C20 14.0796 16.9463 17.446 13 17.9381V21H11V17.9381ZM12 16C15.3137 16 18 13.3137 18 10C18 6.68629 15.3137 4 12 4C8.68629 4 6 6.68629 6 10C6 13.3137 8.68629 16 12 16ZM5 22H19V24H5V22Z"></path></symbol><symbol viewBox="0 0 24 24" id="map-2-line"><path d="M2 5L9 2L15 5L21.303 2.2987C21.5569 2.18992 21.8508 2.30749 21.9596 2.56131C21.9862 2.62355 22 2.69056 22 2.75827V19L15 22L9 19L2.69696 21.7013C2.44314 21.8101 2.14921 21.6925 2.04043 21.4387C2.01375 21.3765 2 21.3094 2 21.2417V5ZM16 19.3955L20 17.6812V5.03308L16 6.74736V19.3955ZM14 19.2639V6.73607L10 4.73607V17.2639L14 19.2639ZM8 17.2526V4.60451L4 6.31879V18.9669L8 17.2526Z"></path></symbol><symbol viewBox="0 0 24 24" id="focus-3-line"><path d="M13 1L13.001 4.06201C16.6192 4.51365 19.4869 7.38163 19.9381 11L23 11V13L19.938 13.001C19.4864 16.6189 16.6189 19.4864 13.001 19.938L13 23H11L11 19.9381C7.38163 19.4869 4.51365 16.6192 4.06201 13.001L1 13V11L4.06189 11C4.51312 7.38129 7.38129 4.51312 11 4.06189L11 1H13ZM12 6C8.68629 6 6 8.68629 6 12C6 15.3137 8.68629 18 12 18C15.3137 18 18 15.3137 18 12C18 8.68629 15.3137 6 12 6ZM12 10C13.1046 10 14 10.8954 14 12C14 13.1046 13.1046 14 12 14C10.8954 14 10 13.1046 10 12C10 10.8954 10.8954 10 12 10Z"></path></symbol><symbol viewBox="0 0 24 24" id="sound-module-line"><path d="M21 18V21H19V18H17V16H23V18H21ZM5 18V21H3V18H1V16H7V18H5ZM11 6V3H13V6H15V8H9V6H11ZM11 10H13V21H11V10ZM3 14V3H5V14H3ZM19 14V3H21V14H19Z"></path></symbol><symbol viewBox="0 0 24 24" id="arrow-left-right-line"><path d="M16.0503 12.0498L21 16.9996L16.0503 21.9493L14.636 20.5351L17.172 17.9988L4 17.9996V15.9996L17.172 15.9988L14.636 13.464L16.0503 12.0498ZM7.94975 2.0498L9.36396 3.46402L6.828 5.9988L20 5.99955V7.99955L6.828 7.9988L9.36396 10.5351L7.94975 11.9493L3 6.99955L7.94975 2.0498Z"></path></symbol><symbol viewBox="0 0 24 24" id="arrow-down-s-line"><path d="M11.9997 13.1714L16.9495 8.22168L18.3637 9.63589L11.9997 15.9999L5.63574 9.63589L7.04996 8.22168L11.9997 13.1714Z"></path></symbol><symbol viewBox="0 0 24 24" id="account-circle-fill"><path d="M12 2C17.52 2 22 6.48 22 12C22 17.52 17.52 22 12 22C6.48 22 2 17.52 2 12C2 6.48 6.48 2 12 2ZM6.02332 15.4163C7.49083 17.6069 9.69511 19 12.1597 19C14.6243 19 16.8286 17.6069 18.2961 15.4163C16.6885 13.9172 14.5312 13 12.1597 13C9.78821 13 7.63095 13.9172 6.02332 15.4163ZM12 11C13.6569 11 15 9.65685 15 8C15 6.34315 13.6569 5 12 5C10.3431 5 9 6.34315 9 8C9 9.65685 10.3431 11 12 11Z"></path></symbol><symbol viewBox="0 0 24 24" id="close-line"><path d="M12.0007 10.5865L16.9504 5.63672L18.3646 7.05093L13.4149 12.0007L18.3646 16.9504L16.9504 18.3646L12.0007 13.4149L7.05093 18.3646L5.63672 16.9504L10.5865 12.0007L5.63672 7.05093L7.05093 5.63672L12.0007 10.5865Z"></path></symbol><symbol viewBox="0 0 24 24" id="close-circle-fill"><path d="M12 22C6.47715 22 2 17.5228 2 12C2 6.47715 6.47715 2 12 2C17.5228 2 22 6.47715 22 12C22 17.5228 17.5228 22 12 22ZM12 10.5858L9.17157 7.75736L7.75736 9.17157L10.5858 12L7.75736 14.8284L9.17157 16.2426L12 13.4142L14.8284 16.2426L16.2426 14.8284L13.4142 12L16.2426 9.17157L14.8284 7.75736L12 10.5858Z"></path></symbol><symbol viewBox="0 0 24 24" id="edit-line"><path d="M6.41421 15.89L16.5563 5.74786L15.1421 4.33365L5 14.4758V15.89H6.41421ZM7.24264 17.89H3V13.6474L14.435 2.21233C14.8256 1.8218 15.4587 1.8218 15.8492 2.21233L18.6777 5.04075C19.0682 5.43128 19.0682 6.06444 18.6777 6.45497L7.24264 17.89ZM3 19.89H21V21.89H3V19.89Z"></path></symbol><symbol viewBox="0 0 24 24" id="information-line"><path d="M12 22C6.47715 22 2 17.5228 2 12C2 6.47715 6.47715 2 12 2C17.5228 2 22 6.47715 22 12C22 17.5228 17.5228 22 12 22ZM12 20C16.4183 20 20 16.4183 20 12C20 7.58172 16.4183 4 12 4C7.58172 4 4 7.58172 4 12C4 16.4183 7.58172 20 12 20ZM11 7H13V9H11V7ZM11 11H13V17H11V11Z"></path></symbol><symbol viewBox="0 0 24 24" id="close-circle-line"><path d="M12 22C6.47715 22 2 17.5228 2 12C2 6.47715 6.47715 2 12 2C17.5228 2 22 6.47715 22 12C22 17.5228 17.5228 22 12 22ZM12 20C16.4183 20 20 16.4183 20 12C20 7.58172 16.4183 4 12 4C7.58172 4 4 7.58172 4 12C4 16.4183 7.58172 20 12 20ZM12 10.5858L14.8284 7.75736L16.2426 9.17157L13.4142 12L16.2426 14.8284L14.8284 16.2426L12 13.4142L9.17157 16.2426L7.75736 14.8284L10.5858 12L7.75736 9.17157L9.17157 7.75736L12 10.5858Z"></path></symbol><symbol viewBox="0 0 24 24" id="alert-line"><path d="M12.865 3.00017L22.3912 19.5002C22.6674 19.9785 22.5035 20.5901 22.0252 20.8662C21.8732 20.954 21.7008 21.0002 21.5252 21.0002H2.47266C1.92037 21.0002 1.47266 20.5525 1.47266 20.0002C1.47266 19.8246 1.51886 19.6522 1.60663 19.5002L11.1329 3.00017C11.4091 2.52187 12.0206 2.358 12.4989 2.63414C12.651 2.72191 12.7772 2.84815 12.865 3.00017ZM4.20471 19.0002H19.7932L11.9989 5.50017L4.20471 19.0002ZM10.9989 16.0002H12.9989V18.0002H10.9989V16.0002ZM10.9989 9.00017H12.9989V14.0002H10.9989V9.00017Z"></path></symbol></svg>