<svg xmlns="http://www.w3.org/2000/svg" xlink="http://www.w3.org/1999/xlink" width="0" height="0" style="display:none;"><symbol viewBox="0 0 24 24" id="car-line"><path fill="none" d="M0 0h24v24H0z"/><path d="M19 20H5v1a1 1 0 0 1-1 1H3a1 1 0 0 1-1-1V11l2.48-5.788A2 2 0 0 1 6.32 4H17.68a2 2 0 0 1 1.838 1.212L22 11v10a1 1 0 0 1-1 1h-1a1 1 0 0 1-1-1v-1zm1-7H4v5h16v-5zM4.176 11h15.648l-2.143-5H6.32l-2.143 5zM6.5 17a1.5 1.5 0 1 1 0-3 1.5 1.5 0 0 1 0 3zm11 0a1.5 1.5 0 1 1 0-3 1.5 1.5 0 0 1 0 3z"/></symbol><symbol viewBox="0 0 24 24" id="walk-line"><path fill="none" d="M0 0h24v24H0z"/><path d="M7.617 8.712l3.205-2.328A1.995 1.995 0 0 1 12.065 6a2.616 2.616 0 0 1 2.427 1.82c.186.583.356.977.51 1.182A4.992 4.992 0 0 0 19 11v2a6.986 6.986 0 0 1-5.402-2.547l-.697 3.955 2.061 1.73 2.223 6.108-1.88.684-2.04-5.604-3.39-2.845a2 2 0 0 1-.713-1.904l.509-2.885-.677.492-2.127 2.928-1.618-1.176L7.6 8.7l.017.012zM13.5 5.5a2 2 0 1 1 0-4 2 2 0 0 1 0 4zm-2.972 13.181l-3.214 3.83-1.532-1.285 2.976-3.546.746-2.18 1.791 1.5-.767 1.681z"/></symbol><symbol viewBox="0 0 24 24" id="stock-line"><path fill="none" d="M0 0h24v24H0z"/><path d="M8 5h3v9H8v3H6v-3H3V5h3V2h2v3zM5 7v5h4V7H5zm13 3h3v9h-3v3h-2v-3h-3v-9h3V7h2v3zm-3 2v5h4v-5h-4z"/></symbol><symbol viewBox="0 0 24 24" id="user-search-line"><path fill="none" d="M0 0h24v24H0z"/><path d="M12 14v2a6 6 0 0 0-6 6H4a8 8 0 0 1 8-8zm0-1c-3.315 0-6-2.685-6-6s2.685-6 6-6 6 2.685 6 6-2.685 6-6 6zm0-2c2.21 0 4-1.79 4-4s-1.79-4-4-4-4 1.79-4 4 1.79 4 4 4zm9.446 9.032l1.504 1.504-1.414 1.414-1.504-1.504a4 4 0 1 1 1.414-1.414zM18 20a2 2 0 1 0 0-4 2 2 0 0 0 0 4z"/></symbol><symbol viewBox="0 0 24 24" id="wifi-line"><path fill="none" d="M0 0h24v24H0z"/><path d="M.69 6.997A17.925 17.925 0 0 1 12 3c4.285 0 8.22 1.497 11.31 3.997l-1.256 1.556A15.933 15.933 0 0 0 12 5C8.191 5 4.694 6.33 1.946 8.553L.69 6.997zm3.141 3.89A12.946 12.946 0 0 1 12 8c3.094 0 5.936 1.081 8.169 2.886l-1.257 1.556A10.954 10.954 0 0 0 12 10c-2.618 0-5.023.915-6.912 2.442l-1.257-1.556zm3.142 3.89A7.967 7.967 0 0 1 12 13c1.904 0 3.653.665 5.027 1.776l-1.257 1.556A5.975 5.975 0 0 0 12 15c-1.428 0-2.74.499-3.77 1.332l-1.257-1.556zm3.142 3.89A2.987 2.987 0 0 1 12 18c.714 0 1.37.25 1.885.666L12 21l-1.885-2.334z"/></symbol><symbol viewBox="0 0 24 24" id="computer-line"><path fill="none" d="M0 0h24v24H0z"/><path d="M4 16h16V5H4v11zm9 2v2h4v2H7v-2h4v-2H2.992A.998.998 0 0 1 2 16.993V4.007C2 3.451 2.455 3 2.992 3h18.016c.548 0 .992.449.992 1.007v12.986c0 .556-.455 1.007-.992 1.007H13z"/></symbol><symbol viewBox="0 0 24 24" id="printer-line"><path fill="none" d="M0 0h24v24H0z"/><path d="M6 19H3a1 1 0 0 1-1-1V8a1 1 0 0 1 1-1h3V3a1 1 0 0 1 1-1h10a1 1 0 0 1 1 1v4h3a1 1 0 0 1 1 1v10a1 1 0 0 1-1 1h-3v2a1 1 0 0 1-1 1H7a1 1 0 0 1-1-1v-2zm0-2v-1a1 1 0 0 1 1-1h10a1 1 0 0 1 1 1v1h2V9H4v8h2zM8 4v3h8V4H8zm0 13v3h8v-3H8zm-3-7h3v2H5v-2z"/></symbol><symbol viewBox="0 0 24 24" id="folder-user-line"><path fill="none" d="M0 0h24v24H0z"/><path d="M12.414 5H21a1 1 0 0 1 1 1v14a1 1 0 0 1-1 1H3a1 1 0 0 1-1-1V4a1 1 0 0 1 1-1h7.414l2 2zM4 5v14h16V7h-8.414l-2-2H4zm4 13a4 4 0 1 1 8 0H8zm4-5a2.5 2.5 0 1 1 0-5 2.5 2.5 0 0 1 0 5z"/></symbol><symbol viewBox="0 0 24 24" id="search-eye-line"><path fill="none" d="M0 0h24v24H0z"/><path d="M18.031 16.617l4.283 4.282-1.415 1.415-4.282-4.283A8.96 8.96 0 0 1 11 20c-4.968 0-9-4.032-9-9s4.032-9 9-9 9 4.032 9 9a8.96 8.96 0 0 1-1.969 5.617zm-2.006-.742A6.977 6.977 0 0 0 18 11c0-3.868-3.133-7-7-7-3.868 0-7 3.132-7 7 0 3.867 3.132 7 7 7a6.977 6.977 0 0 0 4.875-1.975l.15-.15zm-3.847-8.699a2 2 0 1 0 2.646 2.646 4 4 0 1 1-2.646-2.646z"/></symbol><symbol viewBox="0 0 24 24" id="speed-line"><path fill="none" d="M0 0h24v24H0z"/><path d="M12 13.333l-9.223 6.149A.5.5 0 0 1 2 19.066V4.934a.5.5 0 0 1 .777-.416L12 10.667V4.934a.5.5 0 0 1 .777-.416l10.599 7.066a.5.5 0 0 1 0 .832l-10.599 7.066a.5.5 0 0 1-.777-.416v-5.733zM10.394 12L4 7.737v8.526L10.394 12zM14 7.737v8.526L20.394 12 14 7.737z"/></symbol><symbol viewBox="0 0 24 24" id="thumb-up-line"><path fill="none" d="M0 0h24v24H0z"/><path d="M14.6 8H21a2 2 0 0 1 2 2v2.104a2 2 0 0 1-.15.762l-3.095 7.515a1 1 0 0 1-.925.619H2a1 1 0 0 1-1-1V10a1 1 0 0 1 1-1h3.482a1 1 0 0 0 .817-.423L11.752.85a.5.5 0 0 1 .632-.159l1.814.907a2.5 2.5 0 0 1 1.305 2.853L14.6 8zM7 10.588V19h11.16L21 12.104V10h-6.4a2 2 0 0 1-1.938-2.493l.903-3.548a.5.5 0 0 0-.261-.571l-.661-.33-4.71 6.672c-.25.354-.57.644-.933.858zM5 11H3v8h2v-8z"/></symbol><symbol viewBox="0 0 24 24" id="phone-line"><path fill="none" d="M0 0h24v24H0z"/><path d="M9.366 10.682a10.556 10.556 0 0 0 3.952 3.952l.884-1.238a1 1 0 0 1 1.294-.296 11.422 11.422 0 0 0 4.583 1.364 1 1 0 0 1 .921.997v4.462a1 1 0 0 1-.898.995c-.53.055-1.064.082-1.602.082C9.94 21 3 14.06 3 5.5c0-.538.027-1.072.082-1.602A1 1 0 0 1 4.077 3h4.462a1 1 0 0 1 .997.921A11.422 11.422 0 0 0 10.9 8.504a1 1 0 0 1-.296 1.294l-1.238.884zm-2.522-.657l1.9-1.357A13.41 13.41 0 0 1 7.647 5H5.01c-.006.166-.009.333-.009.5C5 12.956 11.044 19 18.5 19c.167 0 .334-.003.5-.01v-2.637a13.41 13.41 0 0 1-3.668-1.097l-1.357 1.9a12.442 12.442 0 0 1-1.588-.75l-.058-.033a12.556 12.556 0 0 1-4.702-4.702l-.033-.058a12.442 12.442 0 0 1-.75-1.588z"/></symbol><symbol viewBox="0 0 24 24" id="map-pin-2-line"><path fill="none" d="M0 0h24v24H0z"/><path d="M12 23.728l-6.364-6.364a9 9 0 1 1 12.728 0L12 23.728zm4.95-7.778a7 7 0 1 0-9.9 0L12 20.9l4.95-4.95zM12 13a2 2 0 1 1 0-4 2 2 0 0 1 0 4z"/></symbol><symbol viewBox="0 0 24 24" id="add-line"><path fill="none" d="M0 0h24v24H0z"/><path d="M11 11V5h2v6h6v2h-6v6h-2v-6H5v-2z"/></symbol><symbol viewBox="0 0 24 24" id="check-line"><path fill="none" d="M0 0h24v24H0z"/><path d="M10 15.172l9.192-9.193 1.415 1.414L10 18l-6.364-6.364 1.414-1.414z"/></symbol><symbol viewBox="0 0 24 24" id="close-line"><path fill="none" d="M0 0h24v24H0z"/><path d="M12 10.586l4.95-4.95 1.414 1.414-4.95 4.95 4.95 4.95-1.414 1.414-4.95-4.95-4.95 4.95-1.414-1.414 4.95-4.95-4.95-4.95L7.05 5.636z"/></symbol><symbol viewBox="0 0 24 24" id="radio-button-line"><path fill="none" d="M0 0h24v24H0z"/><path d="M12 22C6.477 22 2 17.523 2 12S6.477 2 12 2s10 4.477 10 10-4.477 10-10 10zm0-2a8 8 0 1 0 0-16 8 8 0 0 0 0 16zm0-3a5 5 0 1 1 0-10 5 5 0 0 1 0 10z"/></symbol><symbol viewBox="0 0 24 24" id="checkbox-blank-circle-line"><path fill="none" d="M0 0h24v24H0z"/><path d="M12 22C6.477 22 2 17.523 2 12S6.477 2 12 2s10 4.477 10 10-4.477 10-10 10zm0-2a8 8 0 1 0 0-16 8 8 0 0 0 0 16z"/></symbol><symbol viewBox="0 0 24 24" id="search-line"><path fill="none" d="M0 0h24v24H0z"/><path d="M18.031 16.617l4.283 4.282-1.415 1.415-4.282-4.283A8.96 8.96 0 0 1 11 20c-4.968 0-9-4.032-9-9s4.032-9 9-9 9 4.032 9 9a8.96 8.96 0 0 1-1.969 5.617zm-2.006-.742A6.977 6.977 0 0 0 18 11c0-3.868-3.133-7-7-7-3.868 0-7 3.132-7 7 0 3.867 3.132 7 7 7a6.977 6.977 0 0 0 4.875-1.975l.15-.15z"/></symbol><symbol viewBox="0 0 24 24" id="home-5-line"><path fill="none" d="M0 0h24v24H0z"/><path d="M13 19h6V9.978l-7-5.444-7 5.444V19h6v-6h2v6zm8 1a1 1 0 0 1-1 1H4a1 1 0 0 1-1-1V9.49a1 1 0 0 1 .386-.79l8-6.222a1 1 0 0 1 1.228 0l8 6.222a1 1 0 0 1 .386.79V20z"/></symbol><symbol viewBox="0 0 24 24" id="calendar-check-line"><path fill="none" d="M0 0h24v24H0z"/><path d="M9 1v2h6V1h2v2h4a1 1 0 0 1 1 1v16a1 1 0 0 1-1 1H3a1 1 0 0 1-1-1V4a1 1 0 0 1 1-1h4V1h2zm11 9H4v9h16v-9zm-4.964 1.136l1.414 1.414-4.95 4.95-3.536-3.536L9.38 12.55l2.121 2.122 3.536-3.536zM7 5H4v3h16V5h-3v1h-2V5H9v1H7V5z"/></symbol><symbol viewBox="0 0 24 24" id="error-warning-line"><path fill="none" d="M0 0h24v24H0z"/><path d="M12 22C6.477 22 2 17.523 2 12S6.477 2 12 2s10 4.477 10 10-4.477 10-10 10zm0-2a8 8 0 1 0 0-16 8 8 0 0 0 0 16zm-1-5h2v2h-2v-2zm0-8h2v6h-2V7z"/></symbol></svg>