<svg xmlns="http://www.w3.org/2000/svg" xlink="http://www.w3.org/1999/xlink" width="0" height="0" style="display:none;"><symbol viewBox="0 0 24 24" id="wifi-line"><path fill="none" d="M0 0h24v24H0z"/><path d="M.69 6.997A17.925 17.925 0 0 1 12 3c4.285 0 8.22 1.497 11.31 3.997l-1.256 1.556A15.933 15.933 0 0 0 12 5C8.191 5 4.694 6.33 1.946 8.553L.69 6.997zm3.141 3.89A12.946 12.946 0 0 1 12 8c3.094 0 5.936 1.081 8.169 2.886l-1.257 1.556A10.954 10.954 0 0 0 12 10c-2.618 0-5.023.915-6.912 2.442l-1.257-1.556zm3.142 3.89A7.967 7.967 0 0 1 12 13c1.904 0 3.653.665 5.027 1.776l-1.257 1.556A5.975 5.975 0 0 0 12 15c-1.428 0-2.74.499-3.77 1.332l-1.257-1.556zm3.142 3.89A2.987 2.987 0 0 1 12 18c.714 0 1.37.25 1.885.666L12 21l-1.885-2.334z"/></symbol><symbol viewBox="0 0 24 24" id="computer-line"><path fill="none" d="M0 0h24v24H0z"/><path d="M4 16h16V5H4v11zm9 2v2h4v2H7v-2h4v-2H2.992A.998.998 0 0 1 2 16.993V4.007C2 3.451 2.455 3 2.992 3h18.016c.548 0 .992.449.992 1.007v12.986c0 .556-.455 1.007-.992 1.007H13z"/></symbol><symbol viewBox="0 0 24 24" id="printer-line"><path fill="none" d="M0 0h24v24H0z"/><path d="M6 19H3a1 1 0 0 1-1-1V8a1 1 0 0 1 1-1h3V3a1 1 0 0 1 1-1h10a1 1 0 0 1 1 1v4h3a1 1 0 0 1 1 1v10a1 1 0 0 1-1 1h-3v2a1 1 0 0 1-1 1H7a1 1 0 0 1-1-1v-2zm0-2v-1a1 1 0 0 1 1-1h10a1 1 0 0 1 1 1v1h2V9H4v8h2zM8 4v3h8V4H8zm0 13v3h8v-3H8zm-3-7h3v2H5v-2z"/></symbol><symbol viewBox="0 0 24 24" id="phone-line"><path fill="none" d="M0 0h24v24H0z"/><path d="M9.366 10.682a10.556 10.556 0 0 0 3.952 3.952l.884-1.238a1 1 0 0 1 1.294-.296 11.422 11.422 0 0 0 4.583 1.364 1 1 0 0 1 .921.997v4.462a1 1 0 0 1-.898.995c-.53.055-1.064.082-1.602.082C9.94 21 3 14.06 3 5.5c0-.538.027-1.072.082-1.602A1 1 0 0 1 4.077 3h4.462a1 1 0 0 1 .997.921A11.422 11.422 0 0 0 10.9 8.504a1 1 0 0 1-.296 1.294l-1.238.884zm-2.522-.657l1.9-1.357A13.41 13.41 0 0 1 7.647 5H5.01c-.006.166-.009.333-.009.5C5 12.956 11.044 19 18.5 19c.167 0 .334-.003.5-.01v-2.637a13.41 13.41 0 0 1-3.668-1.097l-1.357 1.9a12.442 12.442 0 0 1-1.588-.75l-.058-.033a12.556 12.556 0 0 1-4.702-4.702l-.033-.058a12.442 12.442 0 0 1-.75-1.588z"/></symbol><symbol viewBox="0 0 24 24" id="map-pin-2-line"><path fill="none" d="M0 0h24v24H0z"/><path d="M12 23.728l-6.364-6.364a9 9 0 1 1 12.728 0L12 23.728zm4.95-7.778a7 7 0 1 0-9.9 0L12 20.9l4.95-4.95zM12 13a2 2 0 1 1 0-4 2 2 0 0 1 0 4z"/></symbol><symbol viewBox="0 0 24 24" id="add-line"><path fill="none" d="M0 0h24v24H0z"/><path d="M11 11V5h2v6h6v2h-6v6h-2v-6H5v-2z"/></symbol><symbol viewBox="0 0 24 24" id="check-line"><path fill="none" d="M0 0h24v24H0z"/><path d="M10 15.172l9.192-9.193 1.415 1.414L10 18l-6.364-6.364 1.414-1.414z"/></symbol><symbol viewBox="0 0 24 24" id="close-line"><path fill="none" d="M0 0h24v24H0z"/><path d="M12 10.586l4.95-4.95 1.414 1.414-4.95 4.95 4.95 4.95-1.414 1.414-4.95-4.95-4.95 4.95-1.414-1.414 4.95-4.95-4.95-4.95L7.05 5.636z"/></symbol><symbol viewBox="0 0 24 24" id="radio-button-line"><path fill="none" d="M0 0h24v24H0z"/><path d="M12 22C6.477 22 2 17.523 2 12S6.477 2 12 2s10 4.477 10 10-4.477 10-10 10zm0-2a8 8 0 1 0 0-16 8 8 0 0 0 0 16zm0-3a5 5 0 1 1 0-10 5 5 0 0 1 0 10z"/></symbol><symbol viewBox="0 0 24 24" id="checkbox-blank-circle-line"><path fill="none" d="M0 0h24v24H0z"/><path d="M12 22C6.477 22 2 17.523 2 12S6.477 2 12 2s10 4.477 10 10-4.477 10-10 10zm0-2a8 8 0 1 0 0-16 8 8 0 0 0 0 16z"/></symbol><symbol viewBox="0 0 24 24" id="search-line"><path fill="none" d="M0 0h24v24H0z"/><path d="M18.031 16.617l4.283 4.282-1.415 1.415-4.282-4.283A8.96 8.96 0 0 1 11 20c-4.968 0-9-4.032-9-9s4.032-9 9-9 9 4.032 9 9a8.96 8.96 0 0 1-1.969 5.617zm-2.006-.742A6.977 6.977 0 0 0 18 11c0-3.868-3.133-7-7-7-3.868 0-7 3.132-7 7 0 3.867 3.132 7 7 7a6.977 6.977 0 0 0 4.875-1.975l.15-.15z"/></symbol><symbol viewBox="0 0 24 24" id="home-5-line"><path fill="none" d="M0 0h24v24H0z"/><path d="M13 19h6V9.978l-7-5.444-7 5.444V19h6v-6h2v6zm8 1a1 1 0 0 1-1 1H4a1 1 0 0 1-1-1V9.49a1 1 0 0 1 .386-.79l8-6.222a1 1 0 0 1 1.228 0l8 6.222a1 1 0 0 1 .386.79V20z"/></symbol><symbol viewBox="0 0 24 24" id="calendar-check-line"><path fill="none" d="M0 0h24v24H0z"/><path d="M9 1v2h6V1h2v2h4a1 1 0 0 1 1 1v16a1 1 0 0 1-1 1H3a1 1 0 0 1-1-1V4a1 1 0 0 1 1-1h4V1h2zm11 9H4v9h16v-9zm-4.964 1.136l1.414 1.414-4.95 4.95-3.536-3.536L9.38 12.55l2.121 2.122 3.536-3.536zM7 5H4v3h16V5h-3v1h-2V5H9v1H7V5z"/></symbol><symbol viewBox="0 0 24 24" id="mail-line"><path fill="none" d="M0 0h24v24H0z"/><path d="M3 3h18a1 1 0 0 1 1 1v16a1 1 0 0 1-1 1H3a1 1 0 0 1-1-1V4a1 1 0 0 1 1-1zm17 4.238l-7.928 7.1L4 7.216V19h16V7.238zM4.511 5l7.55 6.662L19.502 5H4.511z"/></symbol><symbol viewBox="0 0 24 24" id="compasses-2-fill"><path fill="none" d="M0 0h24v24H0z"/><path d="M16.33 13.5A6.988 6.988 0 0 0 19 8h2a8.987 8.987 0 0 1-3.662 7.246l2.528 4.378a2 2 0 0 1-.732 2.732l-3.527-6.108A8.97 8.97 0 0 1 12 17a8.97 8.97 0 0 1-3.607-.752l-3.527 6.108a2 2 0 0 1-.732-2.732l5.063-8.77A4.002 4.002 0 0 1 11 4.126V2h2v2.126a4.002 4.002 0 0 1 1.803 6.728L16.33 13.5zM14.6 14.502l-1.528-2.647a4.004 4.004 0 0 1-2.142 0l-1.528 2.647c.804.321 1.68.498 2.599.498.918 0 1.795-.177 2.599-.498zM12 9a1 1 0 1 0 0-2 1 1 0 0 0 0 2z"/></symbol><symbol viewBox="0 0 24 24" id="notification-3-line"><path fill="none" d="M0 0h24v24H0z"/><path d="M20 17h2v2H2v-2h2v-7a8 8 0 1 1 16 0v7zm-2 0v-7a6 6 0 1 0-12 0v7h12zm-9 4h6v2H9v-2z"/></symbol><symbol viewBox="0 0 24 24" id="arrow-right-s-line"><path fill="none" d="M0 0h24v24H0z"/><path d="M13.172 12l-4.95-4.95 1.414-1.414L16 12l-6.364 6.364-1.414-1.414z"/></symbol><symbol viewBox="0 0 24 24" id="arrow-left-s-line"><path fill="none" d="M0 0h24v24H0z"/><path d="M10.828 12l4.95 4.95-1.414 1.414L8 12l6.364-6.364 1.414 1.414z"/></symbol><symbol viewBox="0 0 24 24" id="file-list-3-line"><path fill="none" d="M0 0h24v24H0z"/><path d="M19 22H5a3 3 0 0 1-3-3V3a1 1 0 0 1 1-1h14a1 1 0 0 1 1 1v12h4v4a3 3 0 0 1-3 3zm-1-5v2a1 1 0 0 0 2 0v-2h-2zm-2 3V4H4v15a1 1 0 0 0 1 1h11zM6 7h8v2H6V7zm0 4h8v2H6v-2zm0 4h5v2H6v-2z"/></symbol><symbol viewBox="0 0 24 24" id="compasses-2-fill"><path fill="none" d="M0 0h24v24H0z"/><path d="M16.33 13.5A6.988 6.988 0 0 0 19 8h2a8.987 8.987 0 0 1-3.662 7.246l2.528 4.378a2 2 0 0 1-.732 2.732l-3.527-6.108A8.97 8.97 0 0 1 12 17a8.97 8.97 0 0 1-3.607-.752l-3.527 6.108a2 2 0 0 1-.732-2.732l5.063-8.77A4.002 4.002 0 0 1 11 4.126V2h2v2.126a4.002 4.002 0 0 1 1.803 6.728L16.33 13.5zM14.6 14.502l-1.528-2.647a4.004 4.004 0 0 1-2.142 0l-1.528 2.647c.804.321 1.68.498 2.599.498.918 0 1.795-.177 2.599-.498zM12 9a1 1 0 1 0 0-2 1 1 0 0 0 0 2z"/></symbol><symbol viewBox="0 0 24 24" id="notification-3-line"><path fill="none" d="M0 0h24v24H0z"/><path d="M20 17h2v2H2v-2h2v-7a8 8 0 1 1 16 0v7zm-2 0v-7a6 6 0 1 0-12 0v7h12zm-9 4h6v2H9v-2z"/></symbol><symbol viewBox="0 0 24 24" id="mouse-line"><path fill="none" d="M0 0h24v24H0z"/><path d="M11.141 4c-1.582 0-2.387.169-3.128.565a3.453 3.453 0 0 0-1.448 1.448C6.169 6.753 6 7.559 6 9.14v5.718c0 1.582.169 2.387.565 3.128.337.63.818 1.111 1.448 1.448.74.396 1.546.565 3.128.565h1.718c1.582 0 2.387-.169 3.128-.565a3.453 3.453 0 0 0 1.448-1.448c.396-.74.565-1.546.565-3.128V9.14c0-1.582-.169-2.387-.565-3.128a3.453 3.453 0 0 0-1.448-1.448C15.247 4.169 14.441 4 12.86 4H11.14zm0-2h1.718c2.014 0 3.094.278 4.072.801a5.452 5.452 0 0 1 2.268 2.268c.523.978.801 2.058.801 4.072v5.718c0 2.014-.278 3.094-.801 4.072a5.452 5.452 0 0 1-2.268 2.268c-.978.523-2.058.801-4.072.801H11.14c-2.014 0-3.094-.278-4.072-.801a5.452 5.452 0 0 1-2.268-2.268C4.278 17.953 4 16.873 4 14.859V9.14c0-2.014.278-3.094.801-4.072A5.452 5.452 0 0 1 7.07 2.801C8.047 2.278 9.127 2 11.141 2zM11 6h2v5h-2V6z"/></symbol><symbol viewBox="0 0 24 24" id="price-tag-3-line"><path fill="none" d="M0 0h24v24H0z"/><path d="M10.9 2.1l9.899 1.415 1.414 9.9-9.192 9.192a1 1 0 0 1-1.414 0l-9.9-9.9a1 1 0 0 1 0-1.414L10.9 2.1zm.707 2.122L3.828 12l8.486 8.485 7.778-7.778-1.06-7.425-7.425-1.06zm2.12 6.364a2 2 0 1 1 2.83-2.829 2 2 0 0 1-2.83 2.829z"/></symbol><symbol viewBox="0 0 24 24" id="group-line"><path fill="none" d="M0 0h24v24H0z"/><path d="M2 22a8 8 0 1 1 16 0h-2a6 6 0 1 0-12 0H2zm8-9c-3.315 0-6-2.685-6-6s2.685-6 6-6 6 2.685 6 6-2.685 6-6 6zm0-2c2.21 0 4-1.79 4-4s-1.79-4-4-4-4 1.79-4 4 1.79 4 4 4zm8.284 3.703A8.002 8.002 0 0 1 23 22h-2a6.001 6.001 0 0 0-3.537-5.473l.82-1.824zm-.688-11.29A5.5 5.5 0 0 1 21 8.5a5.499 5.499 0 0 1-5 5.478v-2.013a3.5 3.5 0 0 0 1.041-6.609l.555-1.943z"/></symbol><symbol viewBox="0 0 24 24" id="wheelchair-line"><path fill="none" d="M0 0H24V24H0z"/><path d="M8 10.341v2.194C6.804 13.227 6 14.52 6 16c0 2.21 1.79 4 4 4 1.48 0 2.773-.804 3.465-2h2.193c-.823 2.33-3.046 4-5.658 4-3.314 0-6-2.686-6-6 0-2.613 1.67-4.835 4-5.659zM12 17c-1.657 0-3-1.343-3-3v-4c0-1.044.534-1.964 1.343-2.501C9.533 6.964 9 6.044 9 5c0-1.657 1.343-3 3-3s3 1.343 3 3c0 1.044-.534 1.964-1.343 2.501C14.467 8.036 15 8.956 15 10v4.999l1.434.001c.648 0 1.253.314 1.626.836l.089.135 2.708 4.515-1.714 1.028L16.433 17 15 16.999 12 17zm0-8c-.552 0-1 .448-1 1v4c0 .552.448 1 1 1h.999L13 10c0-.552-.448-1-1-1zm0-5c-.552 0-1 .448-1 1s.448 1 1 1 1-.448 1-1-.448-1-1-1z"/></symbol><symbol viewBox="0 0 24 24" id="parent-line"><path fill="none" d="M0 0h24v24H0z"/><path d="M7 9a2.5 2.5 0 1 0 0-5 2.5 2.5 0 0 0 0 5zm0 2a4.5 4.5 0 1 1 0-9 4.5 4.5 0 0 1 0 9zm10.5 2a2 2 0 1 0 0-4 2 2 0 0 0 0 4zm0 2a4 4 0 1 1 0-8 4 4 0 0 1 0 8zm2.5 6v-.5a2.5 2.5 0 1 0-5 0v.5h-2v-.5a4.5 4.5 0 1 1 9 0v.5h-2zm-10 0v-4a3 3 0 0 0-6 0v4H2v-4a5 5 0 0 1 10 0v4h-2z"/></symbol><symbol viewBox="0 0 24 24" id="calendar-event-line"><path fill="none" d="M0 0h24v24H0z"/><path d="M17 3h4a1 1 0 0 1 1 1v16a1 1 0 0 1-1 1H3a1 1 0 0 1-1-1V4a1 1 0 0 1 1-1h4V1h2v2h6V1h2v2zm3 6V5h-3v2h-2V5H9v2H7V5H4v4h16zm0 2H4v8h16v-8zM6 13h5v4H6v-4z"/></symbol><symbol viewBox="0 0 24 24" id="translate-2"><path fill="none" d="M0 0h24v24H0z"/><path d="M18.5 10l4.4 11h-2.155l-1.201-3h-4.09l-1.199 3h-2.154L16.5 10h2zM10 2v2h6v2h-1.968a18.222 18.222 0 0 1-3.62 6.301 14.864 14.864 0 0 0 2.336 1.707l-.751 1.878A17.015 17.015 0 0 1 9 13.725a16.676 16.676 0 0 1-6.201 3.548l-.536-1.929a14.7 14.7 0 0 0 5.327-3.042A18.078 18.078 0 0 1 4.767 8h2.24A16.032 16.032 0 0 0 9 10.877a16.165 16.165 0 0 0 2.91-4.876L2 6V4h6V2h2zm7.5 10.885L16.253 16h2.492L17.5 12.885z"/></symbol><symbol viewBox="0 0 24 24" id="mail-line"><path fill="none" d="M0 0h24v24H0z"/><path d="M3 3h18a1 1 0 0 1 1 1v16a1 1 0 0 1-1 1H3a1 1 0 0 1-1-1V4a1 1 0 0 1 1-1zm17 4.238l-7.928 7.1L4 7.216V19h16V7.238zM4.511 5l7.55 6.662L19.502 5H4.511z"/></symbol><symbol viewBox="0 0 24 24" id="user-3-line"><path fill="none" d="M0 0h24v24H0z"/><path d="M20 22h-2v-2a3 3 0 0 0-3-3H9a3 3 0 0 0-3 3v2H4v-2a5 5 0 0 1 5-5h6a5 5 0 0 1 5 5v2zm-8-9a6 6 0 1 1 0-12 6 6 0 0 1 0 12zm0-2a4 4 0 1 0 0-8 4 4 0 0 0 0 8z"/></symbol><symbol viewBox="0 0 24 24" id="tools-line"><path fill="none" d="M0 0h24v24H0z"/><path d="M5.33 3.271a3.5 3.5 0 0 1 4.254 4.963l10.709 10.71-1.414 1.414-10.71-10.71a3.502 3.502 0 0 1-4.962-4.255L5.444 7.63a1.5 1.5 0 1 0 2.121-2.121L5.329 3.27zm10.367 1.884l3.182-1.768 1.414 1.414-1.768 3.182-1.768.354-2.12 2.121-1.415-1.414 2.121-2.121.354-1.768zm-6.718 8.132l1.414 1.414-5.303 5.303a1 1 0 0 1-1.492-1.327l.078-.087 5.303-5.303z"/></symbol><symbol viewBox="0 0 24 24" id="error-warning-line"><path fill="none" d="M0 0h24v24H0z"/><path d="M12 22C6.477 22 2 17.523 2 12S6.477 2 12 2s10 4.477 10 10-4.477 10-10 10zm0-2a8 8 0 1 0 0-16 8 8 0 0 0 0 16zm-1-5h2v2h-2v-2zm0-8h2v6h-2V7z"/></symbol><symbol viewBox="0 0 24 24" id="book-2-line"><path fill="none" d="M0 0h24v24H0z"/><path d="M21 18H6a1 1 0 0 0 0 2h15v2H6a3 3 0 0 1-3-3V4a2 2 0 0 1 2-2h16v16zM5 16.05c.162-.033.329-.05.5-.05H19V4H5v12.05zM16 9H8V7h8v2z"/></symbol><symbol viewBox="0 0 24 24" id="service-line"><path fill="none" d="M0 0h24v24H0z"/><path d="M3.161 4.469a6.5 6.5 0 0 1 8.84-.328 6.5 6.5 0 0 1 9.178 9.154l-7.765 7.79a2 2 0 0 1-2.719.102l-.11-.101-7.764-7.791a6.5 6.5 0 0 1 .34-8.826zm1.414 1.414a4.5 4.5 0 0 0-.146 6.21l.146.154L12 19.672l5.303-5.304-3.535-3.535-1.06 1.06a3 3 0 1 1-4.244-4.242l2.102-2.103a4.501 4.501 0 0 0-5.837.189l-.154.146zm8.486 2.828a1 1 0 0 1 1.414 0l4.242 4.242.708-.706a4.5 4.5 0 0 0-6.211-6.51l-.153.146-3.182 3.182a1 1 0 0 0-.078 1.327l.078.087a1 1 0 0 0 1.327.078l.087-.078 1.768-1.768z"/></symbol><symbol viewBox="0 0 24 24" id="checkbox-blank-circle-fill"><path fill="none" d="M0 0h24v24H0z"/><path d="undefined"/></symbol><symbol viewBox="0 0 24 24" id="equalizer-fill"><path fill="none" d="M0 0h24v24H0z"/><path d="M6.17 18a3.001 3.001 0 0 1 5.66 0H22v2H11.83a3.001 3.001 0 0 1-5.66 0H2v-2h4.17zm6-7a3.001 3.001 0 0 1 5.66 0H22v2h-4.17a3.001 3.001 0 0 1-5.66 0H2v-2h10.17zm-6-7a3.001 3.001 0 0 1 5.66 0H22v2H11.83a3.001 3.001 0 0 1-5.66 0H2V4h4.17z"/></symbol><symbol viewBox="0 0 24 24" id="account-pin-circle-fill"><path fill="none" d="M0 0h24v24H0z"/><path d="M14.256 21.744L12 24l-2.256-2.256C5.31 20.72 2 16.744 2 12 2 6.48 6.48 2 12 2s10 4.48 10 10c0 4.744-3.31 8.72-7.744 9.744zm-8.233-6.328C7.491 17.606 9.695 19 12.16 19c2.464 0 4.669-1.393 6.136-3.584A8.968 8.968 0 0 0 12.16 13a8.968 8.968 0 0 0-6.137 2.416zM12 11a3 3 0 1 0 0-6 3 3 0 0 0 0 6z"/></symbol><symbol viewBox="0 0 24 24" id="arrow-right-circle-fill"><path fill="none" d="M0 0h24v24H0z"/><path d="M12 2c5.52 0 10 4.48 10 10s-4.48 10-10 10S2 17.52 2 12 6.48 2 12 2zm0 9H8v2h4v3l4-4-4-4v3z"/></symbol><symbol viewBox="0 0 24 24" id="arrow-left-circle-fill"><path fill="none" d="M0 0h24v24H0z"/><path d="M12 2c5.52 0 10 4.48 10 10s-4.48 10-10 10S2 17.52 2 12 6.48 2 12 2zm0 9V8l-4 4 4 4v-3h4v-2h-4z"/></symbol><symbol viewBox="0 0 24 24" id="external-link-line"><path fill="none" d="M0 0h24v24H0z"/><path d="M10 6v2H5v11h11v-5h2v6a1 1 0 0 1-1 1H4a1 1 0 0 1-1-1V7a1 1 0 0 1 1-1h6zm11-3v8h-2V6.413l-7.793 7.794-1.414-1.414L17.585 5H13V3h8z"/></symbol></svg>