<svg width="236" height="91" viewBox="0 0 236 91" fill="none" xmlns="http://www.w3.org/2000/svg">
<path d="M11.0723 34.2549C11.0723 30.0643 14.3401 27.0272 20.2222 26.066L29.2183 24.5667V23.1442C29.2183 19.7226 26.681 17.6465 23.1056 17.6465C20.0684 17.6465 17.7233 19.0306 16.1086 21.2988L11.8796 18.031C14.3401 14.7247 18.3384 12.6487 23.2978 12.6487C30.7562 12.6102 34.8698 17.0314 34.8698 23.1442V41.4825H29.1799V38.33C27.1808 40.7521 23.7207 42.2899 20.2991 42.2899C14.8014 42.2899 11.0723 39.1758 11.0723 34.2549V34.2549ZM21.3755 37.6765C24.8356 37.6765 27.5268 36.0233 29.1799 33.3706V28.6034L21.6831 29.8721C18.223 30.4872 16.7621 31.9481 16.7621 34.0626C16.8006 36.1771 18.4922 37.6765 21.3755 37.6765V37.6765ZM37.9454 13.7251H43.6353V16.4163C45.7113 14.2249 48.4793 12.6102 52.4392 12.6102C58.552 12.6102 63.2423 16.7239 63.2423 24.7973V41.4825H57.514V24.9896C57.514 20.5684 55.0919 17.9541 51.1321 17.9541C47.326 17.9541 45.0577 20.3377 43.6353 22.7598V41.4825H37.9454V13.7251ZM34.024 68.817L38.599 72.3155C35.9847 75.8141 31.8326 78.0823 26.5656 78.0823C17.0312 78.0823 11.0338 71.0469 11.0338 62.7427C11.0338 54.4386 17.0312 47.4031 26.5656 47.4031C31.7557 47.4031 35.9847 49.6714 38.599 53.1699L34.024 56.6299C32.4477 54.4386 29.8335 52.8623 26.5656 52.8623C21.1064 52.8623 17.1466 57.1682 17.1466 62.7427C17.1466 68.3941 21.1064 72.6231 26.6425 72.6231C29.8719 72.6231 32.4477 71.0469 34.024 68.817V68.817ZM47.5567 54.3617H41.4054V49.2485H47.5567V42.2899H53.285V49.2485H63.2038V54.3617H53.285V67.3561C53.285 71.0853 55.2841 72.3155 58.3597 72.3155C60.2436 72.3155 62.2427 72.0849 63.2423 71.7004V76.6983C61.9351 77.2365 59.6284 77.5056 57.514 77.5056C51.0167 77.5056 47.5951 74.084 47.5951 67.3177V54.3617H47.5567ZM67.0868 8.80416V12.6102H72.6229V7.26636C72.6229 5.3441 70.8928 3.38339 68.9706 3.22961H63.2423V8.57349L67.0868 8.80416ZM67.0868 82.0422V78.2361H72.6229V83.58C72.6229 85.5022 70.8928 87.4629 68.9706 87.6167H63.2423V82.3113L67.0868 82.0422ZM7.22775 82.0422V78.2361H1.69165V83.58C1.69165 85.5022 3.42168 87.4629 5.34394 87.6167H11.0723V82.3113L7.22775 82.0422ZM7.22775 8.80416V12.6102H1.69165V7.26636C1.69165 5.3441 3.42168 3.38339 5.34394 3.22961H11.0723V8.57349L7.22775 8.80416Z" fill="white"/>
<path d="M91.5379 29.0647C91.5379 28.0651 92.3068 27.3731 93.6908 27.1424L95.8822 26.7964V26.3351C95.8822 25.4124 95.2286 24.9126 94.306 24.9126C93.5371 24.9126 92.9604 25.2586 92.5375 25.8353L91.6917 25.1817C92.2684 24.4128 93.191 23.913 94.3444 23.913C95.9975 23.913 96.9971 24.8742 96.9971 26.3351V30.7178H95.8822V29.872C95.3824 30.5256 94.5366 30.8716 93.6908 30.8716C92.4221 30.91 91.5379 30.1796 91.5379 29.0647V29.0647ZM93.8831 29.9874C94.7673 29.9874 95.4593 29.5645 95.8822 28.8724V27.6038L93.9599 27.9113C93.0757 28.0651 92.6528 28.488 92.6528 29.0262C92.6528 29.6029 93.1142 29.9874 93.8831 29.9874V29.9874ZM101.764 30.2565C101.457 30.0258 101.303 29.6798 101.303 29.3338C101.303 28.7956 101.572 28.3727 102.072 28.0651C101.495 27.6422 101.149 26.9886 101.149 26.2582C101.149 24.9895 102.149 23.9515 103.687 23.9515C104.148 23.9515 104.609 24.0668 104.955 24.2206H107.377V25.1817H105.955C106.147 25.4893 106.224 25.8737 106.224 26.2582C106.224 27.4884 105.263 28.5649 103.687 28.5649C103.379 28.5649 103.033 28.5264 102.764 28.4495C102.495 28.6418 102.341 28.8724 102.341 29.1416C102.341 29.4107 102.495 29.6029 102.879 29.6029H104.763C106.493 29.6029 107.3 30.4487 107.3 31.602C107.3 32.9861 105.916 33.9856 103.956 33.9856C102.033 33.9856 100.765 33.2167 100.765 31.9096C100.803 31.256 101.111 30.7178 101.764 30.2565V30.2565ZM103.994 33.063C105.378 33.063 106.224 32.5247 106.224 31.6789C106.224 31.0638 105.878 30.564 104.725 30.564H102.61C102.149 30.91 101.88 31.2945 101.88 31.7943C101.88 32.5632 102.687 33.063 103.994 33.063V33.063ZM105.224 26.2197C105.224 25.4124 104.686 24.7588 103.725 24.7588C102.764 24.7588 102.226 25.4124 102.226 26.2197C102.226 27.0271 102.764 27.6422 103.725 27.6422C104.686 27.6806 105.224 27.0271 105.224 26.2197ZM113.798 30.9869C111.606 30.9869 110.222 29.3722 110.222 27.45C110.222 25.4508 111.491 23.913 113.529 23.913C115.297 23.913 116.45 25.1433 116.45 26.758C116.45 27.0271 116.412 27.2578 116.373 27.45H111.337C111.376 29.0262 112.375 29.9489 113.759 29.9489C114.605 29.9489 115.297 29.5645 115.758 28.9878L116.566 29.6413C115.989 30.4487 115.028 30.9869 113.798 30.9869V30.9869ZM111.452 26.6426H115.374C115.335 25.6815 114.682 24.8742 113.529 24.8742C112.452 24.8742 111.683 25.4893 111.452 26.6426ZM120.679 24.1821H121.794V24.9126C122.332 24.3359 122.986 23.913 123.986 23.913C125.446 23.913 126.523 24.9126 126.523 26.758V30.7178H125.408V26.7964C125.408 25.6431 124.754 24.951 123.716 24.951C122.755 24.951 122.179 25.4893 121.756 26.1813V30.7178H120.641V24.1821H120.679ZM135.942 28.9878L136.826 29.6413C136.211 30.4487 135.25 30.9869 134.058 30.9869C131.905 30.9869 130.521 29.3722 130.521 27.45C130.521 25.5277 131.905 23.913 134.058 23.913C135.25 23.913 136.211 24.4513 136.826 25.2586L135.942 25.9122C135.558 25.3355 134.866 24.951 134.058 24.951C132.674 24.951 131.675 26.066 131.675 27.45C131.675 28.834 132.674 29.9489 134.097 29.9489C134.904 29.9489 135.558 29.5645 135.942 28.9878V28.9878ZM143.439 30.9869C141.247 30.9869 139.863 29.3722 139.863 27.45C139.863 25.4508 141.132 23.913 143.17 23.913C144.938 23.913 146.092 25.1433 146.092 26.758C146.092 27.0271 146.053 27.2578 146.015 27.45H140.978C141.017 29.0262 142.016 29.9489 143.4 29.9489C144.246 29.9489 144.938 29.5645 145.399 28.9878L146.207 29.6413C145.63 30.4487 144.631 30.9869 143.439 30.9869V30.9869ZM141.055 26.6426H144.977C144.938 25.6815 144.285 24.8742 143.131 24.8742C142.055 24.8742 141.286 25.4893 141.055 26.6426ZM156.126 24.1821H157.241V24.9126C157.779 24.3359 158.432 23.913 159.432 23.913C160.893 23.913 162.008 24.9126 162.008 26.758V30.7178H160.893V26.7964C160.893 25.6431 160.239 24.951 159.201 24.951C158.24 24.951 157.663 25.4893 157.241 26.1813V30.7178H156.126V24.1821V24.1821ZM166.16 29.0647C166.16 28.0651 166.929 27.3731 168.313 27.1424L170.504 26.7964V26.3351C170.504 25.4124 169.851 24.9126 168.928 24.9126C168.159 24.9126 167.582 25.2586 167.159 25.8353L166.314 25.1817C166.89 24.4128 167.813 23.913 168.966 23.913C170.619 23.913 171.619 24.8742 171.619 26.3351V30.7178H170.504V29.872C170.004 30.5256 169.159 30.8716 168.313 30.8716C167.006 30.91 166.16 30.1796 166.16 29.0647V29.0647ZM168.467 29.9874C169.351 29.9874 170.043 29.5645 170.466 28.8724V27.6038L168.543 27.9113C167.659 28.0651 167.236 28.488 167.236 29.0262C167.275 29.6029 167.736 29.9874 168.467 29.9874ZM176.54 25.1817H175.31V24.1821H176.54V22.529H177.655V24.1821H179.923V25.1817H177.655V28.5264C177.655 29.5645 178.193 29.8336 178.962 29.8336C179.385 29.8336 179.693 29.7951 179.923 29.6798V30.6794C179.616 30.7947 179.27 30.8716 178.808 30.8716C177.347 30.8716 176.54 30.1411 176.54 28.5649V25.1817ZM183.729 21.7217C183.729 21.2988 184.075 20.9528 184.498 20.9528C184.921 20.9528 185.267 21.2988 185.267 21.7217C185.267 22.1446 184.921 22.4906 184.498 22.4906C184.075 22.4906 183.729 22.1446 183.729 21.7217ZM183.921 24.1821H185.036V30.7178H183.921V24.1821V24.1821ZM196.224 27.45C196.224 29.3722 194.801 30.9869 192.687 30.9869C190.572 30.9869 189.15 29.3722 189.15 27.45C189.15 25.5277 190.572 23.913 192.687 23.913C194.801 23.913 196.224 25.5662 196.224 27.45ZM195.071 27.45C195.071 26.1044 194.071 24.951 192.725 24.951C191.341 24.951 190.342 26.066 190.342 27.45C190.342 28.7956 191.341 29.9489 192.725 29.9489C194.071 29.9489 195.071 28.7956 195.071 27.45ZM200.338 24.1821H201.452V24.9126C201.991 24.3359 202.644 23.913 203.644 23.913C205.105 23.913 206.22 24.9126 206.22 26.758V30.7178H205.105V26.7964C205.105 25.6431 204.451 24.951 203.413 24.951C202.452 24.951 201.875 25.4893 201.452 26.1813V30.7178H200.338V24.1821V24.1821ZM210.372 29.0647C210.372 28.0651 211.141 27.3731 212.525 27.1424L214.716 26.7964V26.3351C214.716 25.4124 214.062 24.9126 213.14 24.9126C212.371 24.9126 211.794 25.2586 211.371 25.8353L210.525 25.1817C211.102 24.4128 212.025 23.913 213.178 23.913C214.831 23.913 215.831 24.8742 215.831 26.3351V30.7178H214.716V29.872C214.216 30.5256 213.37 30.8716 212.525 30.8716C211.256 30.91 210.372 30.1796 210.372 29.0647V29.0647ZM212.717 29.9874C213.601 29.9874 214.293 29.5645 214.716 28.8724V27.6038L212.794 27.9113C211.91 28.0651 211.487 28.488 211.487 29.0262C211.487 29.6029 211.948 29.9874 212.717 29.9874V29.9874ZM220.367 20.9912H221.482V30.7178H220.367V20.9912ZM229.171 30.9869C226.98 30.9869 225.596 29.3722 225.596 27.45C225.596 25.4508 226.865 23.913 228.902 23.913C230.671 23.913 231.824 25.1433 231.824 26.758C231.824 27.0271 231.786 27.2578 231.747 27.45H226.711C226.749 29.0262 227.749 29.9489 229.133 29.9489C229.979 29.9489 230.709 29.5645 231.132 28.9878L231.939 29.6413C231.363 30.4487 230.363 30.9869 229.171 30.9869ZM226.788 26.6426H230.709C230.671 25.6815 230.017 24.8742 228.864 24.8742C227.787 24.8742 227.018 25.4893 226.788 26.6426V26.6426ZM94.7288 40.1369C95.69 40.1369 96.4589 40.5213 97.0356 41.1749V37.215H98.1505V46.9416H97.0356V46.1727C96.4589 46.8263 95.69 47.2107 94.7288 47.2107C92.6913 47.2107 91.3841 45.5961 91.3841 43.6738C91.3457 41.7515 92.6528 40.1369 94.7288 40.1369ZM94.8442 46.1727C95.7669 46.1727 96.5742 45.7498 97.0356 44.9809V42.4051C96.5358 41.6362 95.7284 41.2133 94.8442 41.2133C93.4602 41.2133 92.5375 42.3282 92.5375 43.7122C92.5375 45.0578 93.4602 46.1727 94.8442 46.1727V46.1727ZM105.801 47.2107C103.61 47.2107 102.226 45.5961 102.226 43.6738C102.226 41.6747 103.494 40.1369 105.532 40.1369C107.3 40.1369 108.454 41.3671 108.454 42.9818C108.454 43.2509 108.415 43.4816 108.377 43.6738H103.341C103.379 45.25 104.379 46.1727 105.763 46.1727C106.608 46.1727 107.339 45.7883 107.762 45.2116L108.569 45.8652C107.992 46.6725 107.031 47.2107 105.801 47.2107V47.2107ZM103.456 42.828H107.377C107.339 41.8669 106.685 41.0595 105.532 41.0595C104.417 41.098 103.687 41.7131 103.456 42.828ZM118.526 37.215H119.641V46.9416H118.526V37.215ZM123.909 45.2885C123.909 44.2889 124.678 43.5969 126.062 43.3662L128.253 43.0202V42.5589C128.253 41.6362 127.599 41.1364 126.677 41.1364C125.908 41.1364 125.331 41.4824 124.908 42.0591L124.062 41.4055C124.639 40.6366 125.562 40.1369 126.715 40.1369C128.368 40.1369 129.368 41.098 129.368 42.5589V46.9416H128.253V46.0958C127.753 46.7494 126.907 47.0954 126.062 47.0954C124.793 47.1339 123.909 46.4034 123.909 45.2885V45.2885ZM126.254 46.2112C127.138 46.2112 127.83 45.7883 128.253 45.0963V43.8276L126.331 44.1351C125.446 44.2889 125.024 44.7118 125.024 45.25C125.024 45.8267 125.485 46.2112 126.254 46.2112ZM144.631 45.2116L145.515 45.8652C144.9 46.6725 143.939 47.2107 142.747 47.2107C140.594 47.2107 139.21 45.5961 139.21 43.6738C139.21 41.7515 140.594 40.1369 142.747 40.1369C143.939 40.1369 144.9 40.6751 145.515 41.4824L144.631 42.136C144.246 41.5593 143.554 41.1749 142.747 41.1749C141.363 41.1749 140.363 42.2898 140.363 43.6738C140.363 45.0578 141.363 46.1727 142.785 46.1727C143.554 46.1727 144.246 45.7883 144.631 45.2116V45.2116ZM155.626 43.6738C155.626 45.5961 154.203 47.2107 152.089 47.2107C149.974 47.2107 148.552 45.5961 148.552 43.6738C148.552 41.7515 149.974 40.1369 152.089 40.1369C154.165 40.1369 155.626 41.7515 155.626 43.6738ZM154.473 43.6738C154.473 42.3282 153.473 41.1749 152.127 41.1749C150.743 41.1749 149.744 42.2898 149.744 43.6738C149.744 45.0194 150.743 46.1727 152.127 46.1727C153.473 46.1727 154.473 45.0194 154.473 43.6738ZM159.74 37.215H160.854V41.1364C161.393 40.5597 162.046 40.1369 163.046 40.1369C164.507 40.1369 165.583 41.1364 165.583 42.9818V46.9416H164.468V43.0202C164.468 41.8669 163.815 41.1749 162.777 41.1749C161.816 41.1749 161.239 41.7515 160.816 42.4051V46.9416H159.701V37.215H159.74ZM173.157 47.2107C170.965 47.2107 169.581 45.5961 169.581 43.6738C169.581 41.6747 170.85 40.1369 172.888 40.1369C174.656 40.1369 175.81 41.3671 175.81 42.9818C175.81 43.2509 175.771 43.4816 175.733 43.6738H170.696C170.735 45.25 171.734 46.1727 173.118 46.1727C173.964 46.1727 174.695 45.7883 175.118 45.2116L175.925 45.8652C175.348 46.6725 174.349 47.2107 173.157 47.2107V47.2107ZM170.773 42.828H174.695C174.656 41.8669 174.003 41.0595 172.849 41.0595C171.773 41.098 171.004 41.7131 170.773 42.828ZM172.388 39.368L173.734 37.215H174.964L173.426 39.368H172.388ZM180.039 45.4038C180.5 45.9805 181.038 46.2881 181.692 46.2881C182.422 46.2881 182.845 45.8652 182.845 45.2885C182.845 43.8276 179.577 44.3274 179.577 42.0207C179.577 40.9826 180.461 40.1369 181.692 40.1369C182.614 40.1369 183.422 40.5597 183.883 41.2133L183.114 41.8669C182.768 41.3671 182.268 41.0595 181.692 41.0595C181 41.0595 180.615 41.4824 180.615 41.9822C180.615 43.4431 183.883 42.9818 183.883 45.2116C183.883 46.4418 182.883 47.2107 181.692 47.2107C180.654 47.2107 179.846 46.7879 179.231 46.0574L180.039 45.4038V45.4038ZM187.804 37.9455C187.804 37.5226 188.15 37.1766 188.573 37.1766C188.996 37.1766 189.342 37.5226 189.342 37.9455C189.342 38.3684 188.996 38.7144 188.573 38.7144C188.15 38.7144 187.804 38.3684 187.804 37.9455ZM188.035 40.406H189.15V46.9416H188.035V40.406ZM200.338 43.6738C200.338 45.5961 198.915 47.2107 196.801 47.2107C194.686 47.2107 193.264 45.5961 193.264 43.6738C193.264 41.7515 194.686 40.1369 196.801 40.1369C198.915 40.1369 200.338 41.7515 200.338 43.6738ZM199.184 43.6738C199.184 42.3282 198.185 41.1749 196.839 41.1749C195.455 41.1749 194.455 42.2898 194.455 43.6738C194.455 45.0194 195.455 46.1727 196.839 46.1727C198.185 46.1727 199.184 45.0194 199.184 43.6738ZM204.451 40.406H205.566V41.1364C206.104 40.5597 206.758 40.1369 207.757 40.1369C209.218 40.1369 210.333 41.1364 210.333 42.9818V46.9416H209.218V43.0202C209.218 41.8669 208.565 41.1749 207.527 41.1749C206.566 41.1749 205.989 41.7131 205.566 42.4051V46.9416H204.451V40.406V40.406ZM94.7288 56.3607C95.69 56.3607 96.4589 56.7451 97.0356 57.3987V53.4389H98.1505V63.1655H97.0356V62.3966C96.4589 63.0501 95.69 63.4346 94.7288 63.4346C92.6913 63.4346 91.3841 61.8199 91.3841 59.8976C91.3841 57.9754 92.6528 56.3607 94.7288 56.3607ZM94.8442 62.3966C95.7669 62.3966 96.5742 61.9737 97.0356 61.2048V58.6289C96.5358 57.86 95.7284 57.4371 94.8442 57.4371C93.4602 57.4371 92.5375 58.552 92.5375 59.9361C92.5375 61.3201 93.4602 62.3966 94.8442 62.3966V62.3966ZM105.801 63.4346C103.61 63.4346 102.226 61.8199 102.226 59.8976C102.226 57.8985 103.494 56.3607 105.532 56.3607C107.3 56.3607 108.454 57.5909 108.454 59.2056C108.454 59.4747 108.415 59.7054 108.377 59.8976H103.341C103.379 61.4739 104.379 62.3966 105.763 62.3966C106.608 62.3966 107.339 62.0121 107.762 61.4354L108.569 62.089C107.992 62.8963 107.031 63.4346 105.801 63.4346V63.4346ZM103.456 59.0518H107.377C107.339 58.0907 106.685 57.2834 105.532 57.2834C104.417 57.2834 103.687 57.9369 103.456 59.0518ZM112.683 61.6277C113.144 62.2043 113.682 62.5119 114.336 62.5119C115.066 62.5119 115.489 62.089 115.489 61.5123C115.489 60.0514 112.221 60.5512 112.221 58.2445C112.221 57.2065 113.106 56.3607 114.336 56.3607C115.259 56.3607 116.066 56.7836 116.527 57.4371L115.758 58.0907C115.412 57.5909 114.913 57.2834 114.336 57.2834C113.644 57.2834 113.259 57.7063 113.259 58.206C113.259 59.667 116.527 59.2056 116.527 61.4354C116.527 62.6657 115.528 63.4346 114.336 63.4346C113.298 63.4346 112.49 63.0117 111.875 62.2812L112.683 61.6277V61.6277ZM126.907 57.6294H125.677V56.6298H126.907V54.9767H128.022V56.6298H130.291V57.6294H128.022V60.9741C128.022 62.0121 128.561 62.2812 129.329 62.2812C129.752 62.2812 130.06 62.2428 130.291 62.1274V63.127C129.983 63.2423 129.637 63.3192 129.176 63.3192C127.715 63.3192 126.907 62.5888 126.907 61.0125V57.6294V57.6294ZM137.211 63.4346C135.019 63.4346 133.635 61.8199 133.635 59.8976C133.635 57.8985 134.904 56.3607 136.942 56.3607C138.71 56.3607 139.863 57.5909 139.863 59.2056C139.863 59.4747 139.825 59.7054 139.787 59.8976H134.75C134.789 61.4739 135.788 62.3966 137.172 62.3966C138.018 62.3966 138.71 62.0121 139.171 61.4354L139.979 62.089C139.402 62.8963 138.441 63.4346 137.211 63.4346V63.4346ZM134.866 59.0518H138.787C138.748 58.0907 138.095 57.2834 136.942 57.2834C135.827 57.2834 135.096 57.9369 134.866 59.0518V59.0518ZM144.092 56.6298H145.207V57.4371C145.669 56.8605 146.284 56.476 147.13 56.476C147.322 56.476 147.514 56.5145 147.706 56.5529V57.6294C147.514 57.5909 147.322 57.5525 147.053 57.5525C146.207 57.5525 145.63 57.9754 145.246 58.6674V63.1655H144.131V56.6298H144.092ZM151.551 56.6298H152.666V57.4371C153.127 56.8605 153.742 56.476 154.588 56.476C154.78 56.476 154.972 56.5145 155.165 56.5529V57.6294C154.972 57.5909 154.78 57.5525 154.511 57.5525C153.665 57.5525 153.089 57.9754 152.704 58.6674V63.1655H151.589V56.6298H151.551ZM158.817 54.1309C158.817 53.708 159.163 53.362 159.586 53.362C160.009 53.362 160.355 53.708 160.355 54.1309C160.355 54.5538 160.009 54.8998 159.586 54.8998C159.163 54.9382 158.817 54.5922 158.817 54.1309ZM159.048 56.6298H160.162V63.1655H159.048V56.6298ZM165.199 57.6294H163.968V56.6298H165.199V54.9767H166.314V56.6298H168.582V57.6294H166.314V60.9741C166.314 62.0121 166.852 62.2812 167.621 62.2812C168.044 62.2812 168.351 62.2428 168.582 62.1274V63.127C168.274 63.2423 167.928 63.3192 167.467 63.3192C166.006 63.3192 165.199 62.5888 165.199 61.0125V57.6294V57.6294ZM179.001 59.8976C179.001 61.8199 177.578 63.4346 175.464 63.4346C173.349 63.4346 171.927 61.8199 171.927 59.8976C171.927 57.9754 173.349 56.3607 175.464 56.3607C177.578 56.3607 179.001 57.9754 179.001 59.8976ZM177.847 59.8976C177.847 58.552 176.848 57.3987 175.502 57.3987C174.118 57.3987 173.118 58.5136 173.118 59.8976C173.118 61.2816 174.118 62.3966 175.502 62.3966C176.848 62.3966 177.847 61.2432 177.847 59.8976ZM182.883 54.1309C182.883 53.708 183.229 53.362 183.652 53.362C184.075 53.362 184.421 53.708 184.421 54.1309C184.421 54.5538 184.075 54.8998 183.652 54.8998C183.268 54.9382 182.883 54.5922 182.883 54.1309ZM183.114 56.6298H184.229V63.1655H183.114V56.6298ZM188.881 56.6298H189.996V57.4371C190.457 56.8605 191.072 56.476 191.918 56.476C192.11 56.476 192.303 56.5145 192.495 56.5529V57.6294C192.303 57.5909 192.11 57.5525 191.841 57.5525C190.995 57.5525 190.419 57.9754 190.034 58.6674V63.1655H188.919V56.6298H188.881ZM198.992 63.4346C196.801 63.4346 195.417 61.8199 195.417 59.8976C195.417 57.8985 196.685 56.3607 198.723 56.3607C200.491 56.3607 201.645 57.5909 201.645 59.2056C201.645 59.4747 201.606 59.7054 201.568 59.8976H196.531C196.57 61.4739 197.569 62.3966 198.954 62.3966C199.799 62.3966 200.491 62.0121 200.953 61.4354L201.76 62.089C201.183 62.8963 200.222 63.4346 198.992 63.4346V63.4346ZM196.647 59.0518H200.568C200.53 58.0907 199.876 57.2834 198.723 57.2834C197.646 57.2834 196.877 57.9369 196.647 59.0518V59.0518ZM205.912 61.6277C206.373 62.2043 206.912 62.5119 207.565 62.5119C208.296 62.5119 208.719 62.089 208.719 61.5123C208.719 60.0514 205.451 60.5512 205.451 58.2445C205.451 57.2065 206.335 56.3607 207.565 56.3607C208.488 56.3607 209.295 56.7836 209.757 57.4371L208.988 58.0907C208.642 57.5909 208.142 57.2834 207.565 57.2834C206.873 57.2834 206.489 57.7063 206.489 58.206C206.489 59.667 209.757 59.2056 209.757 61.4354C209.757 62.6657 208.757 63.4346 207.565 63.4346C206.527 63.4346 205.72 63.0117 205.105 62.2812L205.912 61.6277V61.6277Z" fill="white"/>
</svg>
