<svg
  xmlns:dc="http://purl.org/dc/elements/1.1/"
  xmlns:cc="http://creativecommons.org/ns#"
  xmlns:rdf="http://www.w3.org/1999/02/22-rdf-syntax-ns#"
  xmlns:svg="http://www.w3.org/2000/svg"
  xmlns="http://www.w3.org/2000/svg"
  xmlns:sodipodi="http://sodipodi.sourceforge.net/DTD/sodipodi-0.dtd"
  xmlns:inkscape="http://www.inkscape.org/namespaces/inkscape"
  version="1.1"
  id="svg2"
  xml:space="preserve"
  width="80.69336"
  height="70.69336"
  viewBox="0 0 516.69336 628.69336"
  sodipodi:docname="Logo_FRANCE_SERVICES_CMJN.eps">
  <g
    id="g10"
    inkscape:groupmode="layer"
    inkscape:label="ink_ext_XXXXXX"
    transform="matrix(1.3333333,0,0,-1.3333333,0,628.69333)">
    <g id="g12" transform="scale(0.1)">
      <path
        d="M 32.2695,2956.98 H 452.57 V 2824.1 H 178.551 V 2669.57 H 411.363 V 2536.68 H 178.551 v -300.8 H 32.2695 v 721.1"
        style="fill: #283a7f; fill-opacity: 1; fill-rule: nonzero; stroke: none"
        id="path14" />
      <path
        d="m 551.473,2755.08 h 132.886 v -50.48 c 33.993,35.02 77.266,60.78 135.981,60.78 16.484,0 32.965,-3.09 45.328,-7.21 v -137.02 c -15.457,4.13 -32.965,7.22 -57.691,7.22 -63.868,0 -105.075,-35.03 -123.618,-66.96 V 2235.88 H 551.473 v 519.2"
        style="fill: #283a7f; fill-opacity: 1; fill-rule: nonzero; stroke: none"
        id="path16" />
      <path
        d="m 1118.05,2325.5 c 57.69,0 98.9,29.87 125.68,71.08 v 62.84 l -116.4,-19.57 c -52.54,-9.28 -73.14,-29.88 -73.14,-60.78 0,-32.96 24.72,-53.57 63.86,-53.57 z m -191.601,47.39 c 0,80.35 59.746,140.1 168.941,159.67 l 148.34,24.73 v 14.42 c 0,54.6 -39.14,89.62 -96.83,89.62 -47.39,0 -88.59,-22.66 -112.29,-62.84 l -96.833,74.17 c 47.387,62.84 121.553,103.02 214.273,103.02 148.34,0 223.54,-90.65 223.54,-203.97 v -335.83 h -131.86 v 48.42 c -32.96,-41.21 -91.68,-69.02 -149.37,-69.02 -99.922,0 -167.911,59.74 -167.911,157.61"
        style="fill: #283a7f; fill-opacity: 1; fill-rule: nonzero; stroke: none"
        id="path18" />
      <path
        d="m 1510.55,2755.08 h 132.89 v -39.15 c 36.06,33.99 83.44,59.75 150.41,59.75 114.34,0 202.93,-77.26 202.93,-230.76 v -309.04 h -131.86 v 303.89 c 0,69.02 -38.11,113.32 -103.01,113.32 -65.93,0 -99.93,-45.33 -118.47,-77.26 v -339.95 h -132.89 v 519.2"
        style="fill: #283a7f; fill-opacity: 1; fill-rule: nonzero; stroke: none"
        id="path20" />
      <path
        d="m 2496.42,2399.67 105.08,-80.35 c -48.42,-63.87 -125.68,-104.04 -221.48,-104.04 -177.19,0 -284.33,128.76 -284.33,280.2 0,151.43 107.14,280.2 284.33,280.2 95.8,0 173.06,-40.18 221.48,-104.05 l -105.08,-80.35 c -24.72,36.06 -62.84,61.81 -115.38,61.81 -86.52,0 -150.4,-66.96 -150.4,-157.61 0,-91.69 63.88,-157.62 150.4,-157.62 50.48,0 90.66,25.76 115.38,61.81"
        style="fill: #283a7f; fill-opacity: 1; fill-rule: nonzero; stroke: none"
        id="path22" />
      <path
        d="m 2810.61,2574.8 h 230.76 c -3.09,47.38 -41.21,90.65 -113.32,90.65 -37.09,0 -65.92,-11.33 -87.56,-33.99 -13.39,-14.43 -23.7,-30.91 -29.88,-56.66 z m 144.23,-359.52 c -184.4,0 -287.42,128.76 -287.42,280.2 0,152.46 95.81,280.2 271.96,280.2 139.07,0 231.79,-97.87 231.79,-232.82 0,-28.84 -3.09,-57.69 -8.24,-74.17 h -359.52 c 8.24,-85.5 66.96,-135.97 154.52,-135.97 57.69,0 104.04,23.68 130.83,61.8 l 92.71,-75.2 c -49.44,-64.9 -128.77,-104.04 -226.63,-104.04"
        style="fill: #283a7f; fill-opacity: 1; fill-rule: nonzero; stroke: none"
        id="path24" />
      <path
        d="m 640.453,1702.61 h 230.754 c -3.09,47.38 -41.203,90.65 -113.312,90.65 -37.09,0 -65.934,-11.33 -87.571,-33.99 -13.386,-14.42 -23.691,-30.91 -29.871,-56.66 z m 144.223,-359.53 c -184.399,0 -287.418,128.77 -287.418,280.2 0,152.46 95.805,280.21 271.965,280.21 139.07,0 231.787,-97.87 231.787,-232.81 0,-28.85 -3.092,-57.69 -8.244,-74.17 H 633.238 c 8.242,-85.51 66.965,-135.99 154.528,-135.99 57.691,0 104.043,23.69 130.832,61.82 l 92.712,-75.21 c -49.447,-64.9 -128.767,-104.05 -226.634,-104.05"
        style="fill: #ed1c24; fill-opacity: 1; fill-rule: nonzero; stroke: none"
        id="path26" />
      <path
        d="m 1103.83,1882.88 h 132.89 v -50.48 c 33.99,35.03 77.26,60.79 135.98,60.79 16.48,0 32.96,-3.09 45.32,-7.21 v -137.02 c -15.45,4.13 -32.96,7.21 -57.69,7.21 -63.86,0 -105.07,-35.02 -123.61,-66.96 v -325.53 h -132.89 v 519.2"
        style="fill: #ed1c24; fill-opacity: 1; fill-rule: nonzero; stroke: none"
        id="path28" />
      <path
        d="m 1594.39,1882.88 134.95,-369.82 133.92,369.82 h 140.1 l -188.52,-519.2 h -172.03 l -188.53,519.2 h 140.11"
        style="fill: #ed1c24; fill-opacity: 1; fill-rule: nonzero; stroke: none"
        id="path30" />
      <path
        d="m 2074.44,1882.88 h 132.89 v -519.2 h -132.89 z m -19.57,168.95 c 0,45.33 39.14,84.47 85.5,84.47 46.36,0 85.51,-39.14 85.51,-84.47 0,-47.39 -39.15,-85.5 -85.51,-85.5 -46.36,0 -85.5,38.11 -85.5,85.5"
        style="fill: #ed1c24; fill-opacity: 1; fill-rule: nonzero; stroke: none"
        id="path32" />
      <path
        d="m 2717.24,1527.48 105.08,-80.35 c -48.42,-63.87 -125.67,-104.05 -221.48,-104.05 -177.19,0 -284.32,128.77 -284.32,280.2 0,151.44 107.13,280.21 284.32,280.21 95.81,0 173.06,-40.18 221.48,-104.04 l -105.08,-80.37 c -24.71,36.07 -62.83,61.82 -115.37,61.82 -86.53,0 -150.4,-66.96 -150.4,-157.62 0,-91.68 63.87,-157.6 150.4,-157.6 50.48,0 90.66,25.75 115.37,61.8"
        style="fill: #ed1c24; fill-opacity: 1; fill-rule: nonzero; stroke: none"
        id="path34" />
      <path
        d="m 3031.44,1702.61 h 230.75 c -3.08,47.38 -41.2,90.65 -113.31,90.65 -37.09,0 -65.92,-11.33 -87.56,-33.99 -13.39,-14.42 -23.7,-30.91 -29.88,-56.66 z m 144.22,-359.53 c -184.39,0 -287.41,128.77 -287.41,280.2 0,152.46 95.81,280.21 271.96,280.21 139.07,0 231.79,-97.87 231.79,-232.81 0,-28.85 -3.09,-57.69 -8.24,-74.17 h -359.52 c 8.23,-85.51 66.96,-135.99 154.52,-135.99 57.68,0 104.04,23.69 130.83,61.82 l 92.71,-75.21 c -49.45,-64.9 -128.77,-104.05 -226.64,-104.05"
        style="fill: #ed1c24; fill-opacity: 1; fill-rule: nonzero; stroke: none"
        id="path36" />
      <path
        d="m 3558.89,1522.34 c 31.94,-40.19 71.09,-69.03 116.41,-69.03 40.18,0 63.88,20.61 63.88,51.51 0,79.31 -239.01,53.56 -239.01,238.99 0,92.72 77.27,159.68 185.43,159.68 80.35,0 150.4,-38.12 189.55,-88.6 l -86.53,-82.41 c -26.79,35.03 -61.81,60.78 -98.9,60.78 -42.23,0 -60.78,-20.6 -60.78,-43.27 0,-78.29 239,-53.56 239,-237.97 -2.05,-109.19 -89.62,-168.94 -187.49,-168.94 -92.71,0 -157.61,37.09 -208.09,94.77 l 86.53,84.49"
        style="fill: #ed1c24; fill-opacity: 1; fill-rule: nonzero; stroke: none"
        id="path38" />
      <path
        d="m 86.5313,1522.34 c 31.9377,-40.19 71.0817,-69.03 116.4067,-69.03 40.179,0 63.875,20.61 63.875,51.51 0,79.31 -238.9966,53.56 -238.9966,238.99 0,92.72 77.2656,159.68 185.4296,159.68 80.344,0 150.399,-38.12 189.543,-88.6 l -86.531,-82.41 c -26.789,35.03 -61.809,60.78 -98.891,60.78 -42.242,0 -60.781,-20.6 -60.781,-43.27 0,-78.29 238.992,-53.56 238.992,-237.97 -2.055,-109.19 -89.625,-168.94 -187.488,-168.94 -92.711,0 -157.6134,37.09 -208.09390625,94.77 L 86.5313,1522.34"
        style="fill: #ed1c24; fill-opacity: 1; fill-rule: nonzero; stroke: none"
        id="path40" />
      <path
        d="m 1272.06,3482.4 c 0.37,0.18 0.72,0.41 1.08,0.59 3.88,1.79 7.26,4.18 10.39,6.86 -0.44,0.1 -0.85,0.21 -1.22,0.34 -3.47,-2.41 -6.85,-5 -10.25,-7.79"
        style="fill: #283a7f; fill-opacity: 1; fill-rule: nonzero; stroke: none"
        id="path42" />
      <path
        d="m 1787.39,3654.28 c -1.16,-0.87 -2.33,-1.74 -3.5,-2.61 1.93,0.1 3.5,0.58 3.5,2.61"
        style="fill: #283a7f; fill-opacity: 1; fill-rule: nonzero; stroke: none"
        id="path44" />
      <path
        d="m 1160.1,3707.44 c -2.65,2.66 7.98,0 10.63,5.32 -7.97,0 -13.28,0 -21.25,0 -2.67,0 -2.67,2.66 -2.67,5.32 -13.29,-2.66 -29.23,-7.98 -42.53,-10.64 -18.6,-5.31 -34.55,-18.6 -55.81,-23.92 -29.24,-10.63 -53.154,-34.55 -85.052,-45.18 -2.664,0 -2.664,2.65 -2.664,5.31 2.664,7.98 13.293,10.63 18.605,18.61 0,2.66 0,5.32 -2.656,5.32 21.27,29.23 50.497,45.18 77.087,69.1 0,2.66 0,5.32 0,7.98 7.97,10.63 21.26,15.95 26.58,29.24 2.65,7.97 13.28,18.6 26.58,23.91 -2.67,2.67 -7.98,2.67 -7.98,7.98 -10.63,0 -21.26,-5.31 -31.9,2.66 4.96,4.95 10.65,7.69 16.67,9.44 -2.29,0.47 -4.35,1.6 -6.03,3.85 -2.66,5.31 5.13,11.25 13.29,13.29 10.63,2.66 23.92,2.66 31.89,10.63 -18.61,2.66 -39.87,-5.32 -58.48,5.32 13.3,34.55 34.56,63.79 66.46,79.73 2.65,0 7.97,0 7.97,-2.65 0,-13.29 -7.97,-23.92 -21.26,-26.58 21.26,-5.32 42.52,-5.32 63.79,-15.95 -2.66,-5.32 -7.98,-2.65 -10.64,-2.65 13.3,-7.98 29.25,-2.67 42.53,-13.3 -7.97,-7.97 -15.94,0 -23.92,0 82.41,-23.92 170.12,-42.53 239.22,-95.68 -58.47,-29.24 -119.61,-42.53 -183.4,-55.82 -7.97,0 -13.29,0 -21.27,2.65 0,-2.65 0,-7.97 -2.65,-7.97 -10.63,0 -18.61,0 -26.57,-5.32 -10.64,-5.31 -26.59,-7.97 -34.57,0 z m -54.42,-184.89 c -0.22,-0.16 -0.45,-0.31 -0.67,-0.46 -9.95,-7.01 -19.86,-14.16 -30.35,-20.25 -11.36,-6.59 -23.27,-11.61 -35.06,-17.21 -0.09,0.23 -0.19,0.44 -0.34,0.65 -0.9,1.24 -2.76,2 -4.49,1.07 -10.06,-5.45 -18.63,-12.63 -26.76,-20.37 -1.24,-1.18 -2.47,-2.38 -3.69,-3.58 -0.07,-0.07 -0.15,-0.14 -0.22,-0.21 -0.07,-0.07 -0.14,-0.14 -0.21,-0.21 -1.26,-1.24 -2.52,-2.5 -3.77,-3.76 -0.151,-0.14 -0.304,-0.29 -0.448,-0.44 -0.078,-0.08 -0.094,-0.16 -0.164,-0.24 -1.887,-1.88 -3.715,-3.78 -5.781,-6.22 -1.329,-1.57 -1.786,-2.54 -3.555,-3.72 -1.645,-1.09 -6.219,-1.07 -5.793,1.99 0.023,0.18 0.008,0.35 0.027,0.52 -1.566,-0.83 -3.133,-1.65 -4.715,-2.41 -1.461,-0.7 -2.8,-1.5 -4.156,-2.28 -0.578,0.23 -1.195,0.3 -1.828,0.27 -0.676,-0.04 -1.348,-0.2 -1.918,-0.65 -3.246,-2.54 -6.469,-5.25 -9.598,-8.09 -5.543,-5.03 -10.777,-10.52 -15.425,-16.4 -0.094,-0.08 -0.153,-0.16 -0.239,-0.25 -0.172,-0.23 -0.347,-0.48 -0.519,-0.73 -0.27,-0.34 -0.535,-0.68 -0.797,-1.03 -0.273,-0.36 -0.57,-0.72 -0.848,-1.09 -0.078,-0.12 -0.172,-0.22 -0.254,-0.33 -0.629,-0.87 -1.203,-1.77 -1.808,-2.65 -0.031,-0.05 -0.067,-0.1 -0.102,-0.16 -0.449,-0.5 -1.215,-0.85 -2.176,-1.04 -0.355,0.53 -0.734,1.04 -1.07,1.58 -0.258,0.42 -0.492,0.86 -0.742,1.28 -0.805,1.38 -1.555,2.81 -2.27,4.27 -0.019,0.05 -0.05,0.1 -0.07,0.15 -0.215,0.44 -0.433,0.88 -0.641,1.33 2.887,3.09 5.665,6.29 8.352,9.56 0.18,0.21 0.356,0.43 0.531,0.65 0.93,1.13 1.852,2.26 2.766,3.41 1.504,1.89 2.98,3.78 4.453,5.68 0.535,0.71 1.086,1.41 1.625,2.11 2.918,3.81 5.707,7.5 8.316,11.23 0.063,0.09 0.125,0.18 0.188,0.28 0.391,0.56 0.773,1.12 1.148,1.67 1.274,1.89 2.496,3.79 3.645,5.71 1.027,1.74 2,3.51 2.91,5.31 0.066,0.13 0.145,0.26 0.211,0.39 0.09,0.19 0.188,0.37 0.277,0.55 0.161,0.33 0.282,0.67 0.434,0.99 0.937,2 1.773,4.07 2.527,6.2 0.086,0.23 0.157,0.46 0.235,0.69 0.203,0.58 0.406,1.15 0.593,1.74 0.297,0.96 0.575,1.94 0.832,2.93 0,0.01 0,0.01 0.008,0.02 0.051,0.21 0.094,0.43 0.149,0.64 0.324,1.29 0.672,2.55 0.925,3.9 0.129,0.7 -0.046,1.28 -0.324,1.79 2.856,4.99 6.457,9.79 10.539,14.35 -0.398,-0.25 -0.832,-0.45 -1.222,-0.7 -3.797,-2.44 -6.325,-5.87 -9.868,-8.52 -2.894,-2.16 -8.23,1.42 -4.796,3.99 2.332,1.74 4.109,3.64 6.043,5.48 0.101,0.14 0.148,0.28 0.293,0.43 4.375,4.31 8.554,9.84 13.543,13.49 3.062,2.23 5.707,4.09 8.183,6.24 0.391,0.34 0.777,0.7 1.168,1.06 1.836,2.44 3.846,4.64 5.946,6.7 0.09,0.09 0.17,0.19 0.27,0.26 25.44,24.56 68.27,23.47 101.82,39.12 13.29,5.32 29.23,-2.66 42.53,0 7.97,0 15.94,0 23.91,-5.32 -23.87,-13.02 -45.94,-27.7 -67.71,-41.36 z m 47.62,-21.97 c -1.2,-2.91 -3.9,-5.43 -6.54,-7.75 3.32,-0.68 5.65,-2.14 3.51,-4.11 -6.18,-5.66 -12.06,-11.34 -20.16,-14.06 -0.56,-0.19 -2.17,-0.44 -4.08,-0.56 -3.25,-3.15 -6.53,-6.28 -9.92,-9.29 -3.15,-2.8 -17.76,-0.77 -13.3,3.19 6.75,5.98 13,12.47 19.65,18.54 3.76,3.44 7.73,6.73 11.05,10.59 1.85,2.14 3.38,4.24 5.72,5.89 2.17,1.53 16.23,2.78 14.07,-2.44 z m -123.44,398.24 c -2.66,-5.32 -5.59,-5.88 -7.97,-10.63 -2.66,-5.31 -5.32,-7.98 -10.63,-10.64 -2.66,0 -5.32,0 -5.32,2.66 2.66,10.64 10.63,21.27 21.26,23.93 2.66,0 2.66,-2.66 2.66,-5.32 z M 809.25,3723.39 c 0,0 -2.656,2.66 -2.656,5.32 34.554,45.19 61.129,87.71 85.054,135.56 34.555,18.61 63.239,45.69 90.372,74.42 45.18,47.85 93.03,90.37 148.85,116.95 21.26,7.97 47.84,5.32 69.11,-2.66 -7.98,-10.63 -21.27,-7.97 -31.9,-15.95 -2.66,0 -5.32,0 -7.98,2.67 2.66,2.65 2.66,5.31 2.66,7.97 -26.58,-29.24 -63.79,-42.53 -85.05,-77.08 -15.95,-26.58 -26.58,-61.14 -61.14,-69.11 -10.63,-2.66 2.66,7.97 -2.66,5.31 -82.394,-50.49 -140.871,-111.63 -204.66,-183.4 z m 406.68,-58.47 c -5.32,0 -15.95,-2.66 -13.3,2.66 2.66,13.28 21.26,13.28 31.9,18.6 5.32,2.66 13.28,7.97 18.6,5.32 5.32,-7.98 13.29,-5.32 18.62,-10.64 -15.96,-15.94 -37.22,-7.97 -55.82,-15.94 z m 408.74,-190.41 c 15.09,15.1 30.34,31.3 45.49,47.58 h -0.33 c 28.25,31.95 55.91,62.42 88.65,90.48 9.98,8.91 19.65,16.76 28.91,23.11 2.66,2.66 2.66,7.97 5.32,10.63 -13.29,-5.32 -21.27,-15.95 -34.56,-21.26 -2.66,0 -5.31,2.65 -2.66,5.31 9.47,7.1 18.94,14.2 28.4,21.31 -0.58,-0.04 -1.2,-0.04 -1.81,-0.04 -2.66,0 -2.66,2.65 -2.66,5.31 -34.56,5.32 -61.14,-18.6 -85.06,-39.87 -5.32,-2.65 -10.63,2.66 -13.29,2.66 -39.87,-13.29 -69.11,-47.84 -108.98,-63.79 0,2.66 0,2.66 0,5.32 -15.94,-5.32 -31.43,-14.96 -47.84,-18.61 -23.93,-5.32 -45.19,-2.66 -66.45,-2.66 -32.22,-3.22 -64.43,-10.32 -96.65,-17.2 -0.92,-0.24 -1.87,-0.45 -2.78,-0.7 -17.28,-4.73 -33.59,-11.18 -49.53,-19.95 -0.61,-0.34 -1.22,-0.69 -1.81,-1.05 -1.32,-1.66 -2.62,-3.26 -3.85,-4.6 -5.71,-6.28 -10.64,-12.04 -18.23,-15.9 -16.34,-8.32 -29.66,-22.8 -44.07,-34.54 -1.04,-0.85 -2.61,-1.26 -4.27,-1.36 -14.25,-13.67 -28.32,-27.54 -42.8,-40.97 -1.03,-0.95 -5.14,-1.48 -8.12,-0.98 0.07,0.09 0.17,0.15 0.23,0.25 0.5,0.85 1.02,1.68 1.53,2.53 2.24,3.75 4.52,7.49 6.81,11.21 2.57,4.16 5.2,8.27 7.89,12.35 3.62,5.5 7.34,10.93 11.3,16.18 1.04,1.37 0.76,2.59 -0.09,3.49 -0.84,0.89 -2.24,1.4 -3.67,1.38 13.26,12.87 29.02,23.84 44.61,33.3 0,0.16 -0.01,0.31 -0.01,0.45 -1.77,-0.61 -4.35,0.81 -3,2.68 1.68,2.35 3,4.86 4.58,7.25 0.3,0.78 0.57,1.57 0.85,2.37 -0.66,0.7 -1.34,1.39 -2.01,2.09 -4.28,-2.8 -8.85,-5.44 -12.49,-8.73 -6.36,-5.73 -11.34,-17.45 -20.99,-17.34 -0.63,0.01 -2.52,0.11 -4.03,0.58 -1.15,0.2 -2.15,0.52 -2.79,0.94 0.11,0.21 0.23,0.42 0.34,0.62 0.14,0.25 0.27,0.49 0.4,0.73 0.13,0.23 0.26,0.46 0.39,0.69 0.41,0.76 0.83,1.52 1.26,2.28 0.42,0.77 0.84,1.53 1.26,2.3 0.36,0.61 0.68,1.23 1.02,1.84 0.64,1.12 1.25,2.26 1.89,3.37 0.46,0.81 0.94,1.6 1.4,2.41 1.13,1.96 2.28,3.91 3.42,5.86 0.55,0.94 1.1,1.89 1.65,2.82 0.95,1.61 1.86,3.23 2.82,4.84 1.32,2.2 -0.06,4.02 -1.99,4.75 4.93,6.38 10.95,11.73 18.2,15.86 h -0.8 c 10.17,5.12 20.35,11.34 30.52,17.06 1.46,1.27 2.92,2.56 4.4,3.8 -15.17,-5.09 -28.8,-11.98 -42.28,-20.86 0,0 -3.5,-1.43 -4.49,-2.42 0,0 -3.06,-1.15 -6.63,2.42 -0.36,0.49 -0.64,1.08 -0.64,1.95 2.67,5.32 10.64,7.98 15.95,13.29 2.66,0 5.31,0 5.31,-2.66 85.06,66.45 202.02,50.51 300.37,85.06 7.97,5.32 15.94,10.63 23.91,15.95 13.29,5.31 23.92,18.6 39.87,26.58 21.27,15.95 37.21,34.55 45.19,61.13 0,2.66 -2.66,5.32 -2.66,5.32 -34.55,-37.21 -74.42,-66.45 -116.95,-87.72 -55.82,-29.24 -116.95,-23.92 -175.43,-31.89 2.66,5.32 7.98,5.32 13.29,5.32 0,7.97 5.32,10.63 10.64,15.94 2.65,0 5.31,0 7.97,0 2.66,0 2.66,5.32 5.31,5.32 5.32,0 13.29,2.66 10.64,2.66 -7.98,10.63 -23.92,-7.98 -37.22,0 5.32,5.31 2.66,13.29 7.98,15.94 2.65,0 7.97,0 10.63,0 0,5.32 5.32,10.64 5.32,10.64 39.87,23.92 77.08,42.52 114.29,63.79 -7.97,0 -13.29,-7.98 -21.27,-2.66 5.32,0 0,7.97 5.32,7.97 29.24,7.98 53.17,23.93 82.4,34.55 -10.63,0 -18.61,-7.96 -29.23,0 5.31,2.67 7.97,7.98 15.94,7.98 0,2.66 0,5.32 0,7.97 0,2.66 2.66,2.66 5.32,2.66 -2.66,0 -5.32,2.66 -5.32,2.66 2.66,5.32 10.63,2.66 15.95,7.97 -2.66,0 -7.98,0 -7.98,2.67 7.98,10.63 21.27,13.29 34.56,15.94 -2.66,5.32 -10.64,0 -10.64,5.32 0,2.65 2.66,2.65 5.32,2.65 -2.66,0 -2.66,0 -5.32,0 -5.31,2.66 -2.65,7.98 -2.65,10.64 15.94,18.61 15.94,42.52 23.91,63.79 -2.65,0 -5.31,0 -5.31,2.66 -26.58,-29.24 -69.11,-39.87 -108.97,-50.5 -2.67,0 -10.63,0 -13.3,0 -13.29,-5.32 -31.89,-5.32 -45.18,2.66 -10.63,5.31 -15.95,13.28 -26.58,21.26 -21.26,13.29 -42.53,23.92 -66.45,31.89 -66.45,21.27 -135.55,31.9 -204.67,29.24 29.24,15.95 61.49,17.31 93.04,26.58 45.18,13.29 87.71,29.24 135.55,26.58 -7.97,2.66 -18.6,0 -26.58,0 -37.21,2.66 -74.42,-7.97 -114.29,-15.95 -26.58,-5.31 -50.5,-15.94 -77.08,-21.26 -15.95,-5.32 -23.93,-21.27 -42.53,-18.6 0,0 0,5.31 0,7.97 26.58,31.89 58.47,63.79 101.01,66.45 47.83,7.97 93.02,0 140.87,-5.32 34.55,-2.66 66.44,-10.63 101,-18.6 13.29,0 15.95,-21.27 26.58,-23.93 15.94,-5.31 31.9,0 47.84,-10.63 0,5.32 -2.66,10.63 0,15.95 10.63,10.63 23.93,-2.66 34.56,2.66 21.26,13.29 -18.6,37.21 -29.24,55.81 0,2.66 2.65,5.32 2.65,5.32 21.27,-18.6 37.22,-39.87 63.8,-53.16 13.28,-5.31 45.18,-13.29 39.86,2.66 -13.28,29.24 -39.86,53.16 -61.12,79.74 0,2.66 0,7.97 0,10.63 -5.32,0 -5.32,2.66 -7.98,5.32 0,2.66 0,7.97 0,10.63 -10.63,5.32 -7.97,15.95 -13.29,23.92 -7.97,13.29 -2.66,31.9 -7.97,47.85 -5.31,15.94 -7.97,29.24 -10.64,45.18 -7.97,45.19 -18.6,85.06 -23.92,127.59 -5.31,50.49 29.25,90.37 53.16,135.55 18.61,31.9 39.87,63.8 74.43,85.06 7.97,31.9 29.24,58.47 50.5,85.05 21.22,25.95 56.5,41.75 82.04,53.17 37.13,16.58 70.63,26.95 70.65,26.96 H 32.2695 V 3308.63 H 1317.38 c 50.6,36.43 101.14,53.74 171.78,88.54 33.34,16.44 109.65,51.48 135.51,77.34"
        style="fill: #283a7f; fill-opacity: 1; fill-rule: nonzero; stroke: none"
        id="path46" />
      <path
        d="M 3875.15,4715.21 H 2380.56 c 0.02,0 2.86,-0.47 14.37,-6.65 12.28,-6.59 28.18,-15.09 38.17,-20.31 19.5,-10.21 38.47,-22.98 50.69,-42.54 5.31,-7.97 13.29,-23.92 7.97,-34.55 -5.32,-13.28 -7.97,-34.55 -21.26,-39.87 -15.95,-7.97 -37.22,-7.97 -55.82,-5.31 -10.63,0 -21.26,2.66 -31.9,5.31 39.86,-15.95 77.08,-34.56 103.66,-71.76 2.66,-5.32 13.29,-7.98 23.93,-7.98 2.65,0 2.65,-5.31 2.65,-7.97 -5.32,-5.32 -10.63,-7.98 -7.97,-15.95 2.65,0 5.32,0 7.97,0 13.3,5.32 10.63,31.9 29.24,23.92 13.29,-7.97 18.61,-26.58 10.64,-39.87 -10.64,-10.63 -21.27,-18.6 -31.91,-26.57 -2.65,-5.32 -2.65,-13.3 0,-18.61 7.98,-10.63 10.64,-21.27 13.29,-31.9 7.98,-18.6 10.64,-39.87 18.62,-58.47 10.62,-39.87 21.26,-79.75 18.59,-119.61 0,-21.27 -10.62,-39.87 -2.65,-61.14 5.32,-21.26 18.61,-37.21 29.24,-55.82 10.63,-15.95 21.26,-26.58 29.24,-42.53 15.94,-26.57 45.18,-53.15 31.89,-85.05 -7.97,-18.6 -37.21,-15.95 -55.81,-26.58 -15.95,-13.29 -2.66,-34.55 5.31,-47.85 13.29,-23.91 -15.95,-39.86 -34.55,-47.84 5.31,-7.97 15.94,-5.32 18.6,-10.63 2.66,-13.29 15.95,-21.27 7.98,-34.56 -10.64,-15.95 -42.53,-23.91 -26.58,-47.84 10.62,-18.6 3.74,-39.27 -2.67,-58.47 -7.97,-23.93 -29.23,-34.56 -47.84,-39.87 -15.95,-5.32 -34.55,-5.32 -50.5,-2.66 -5.31,2.66 -10.63,5.31 -15.95,5.31 -45.18,5.32 -90.37,18.61 -135.55,18.61 -13.29,-2.66 -26.58,-5.32 -37.21,-10.63 -12.01,-8.82 -22.7,-18.38 -32.19,-28.46 -0.1,-0.11 -0.2,-0.22 -0.31,-0.34 -1.99,-2.12 -3.91,-4.27 -5.79,-6.44 -1.16,-1.35 -2.3,-2.71 -3.43,-4.07 -0.76,-0.92 -1.52,-1.83 -2.26,-2.75 -7.77,-9.71 -14.72,-19.97 -20.92,-30.63 -0.4,-0.68 -0.79,-1.35 -1.18,-2.03 -0.7,-1.24 -1.37,-2.48 -2.05,-3.72 -8.72,-16.15 -15.34,-32.64 -20.13,-48.77 -18.07,-60.87 -10.17,-113.09 2.52,-125.77 3.52,-3.53 87.72,-29.52 146.38,-55.62 27.52,-12.24 46.76,-21.67 62.73,-31.74 h 1467.34 v 1406.58"
        style="fill: #ed1c24; fill-opacity: 1; fill-rule: nonzero; stroke: none"
        id="path48" />
      <path
        d="m 2470.56,4202.08 c 10.63,-2.66 26.58,-2.66 26.58,-7.97 -5.32,-21.27 -37.22,-26.58 -53.17,-47.86 h -7.98 c -7.97,-5.31 -5.31,-18.6 -13.28,-18.6 -7.99,2.65 -15.96,0 -23.92,-2.66 10.63,-10.63 23.92,-18.61 39.86,-15.94 2.68,0 7.98,-5.33 7.98,-10.65 0,0 2.65,0 5.31,2.67 2.67,0 5.33,0 5.33,-2.67 v -10.63 c -7.99,-10.63 -21.28,-5.3 -31.9,-7.97 21.26,-5.32 42.54,-5.32 61.12,0 15.96,5.31 0,31.9 10.65,45.19 -5.32,0 0,7.97 -5.32,7.97 5.32,5.32 10.63,13.29 15.95,15.95 5.32,0 13.28,2.66 15.94,7.99 0,5.3 -10.62,7.96 -7.97,13.28 15.95,10.62 29.24,26.58 23.93,42.53 -2.67,7.97 -23.93,7.97 -37.22,13.28 -13.29,5.32 -29.24,0 -45.18,-2.65 -13.3,0 -26.59,-7.98 -39.88,-10.63 -18.6,-5.32 -34.55,-15.95 -50.51,-26.58 18.63,7.98 37.23,10.63 58.49,15.95 15.96,0 29.49,3.92 45.19,0"
        style="fill: #918f90; fill-opacity: 1; fill-rule: nonzero; stroke: none"
        id="path50" />
      <path
        d="M 138.461,6.08203 141.5,15.5 c -40.422,7.6016 -45.5898,7.6016 -29.48,51.6602 l 16.41,45.2808 h 44.679 c 20.059,0 20.36,-8.199 17.325,-30.0816 h 11.546 l 26.743,73.2426 h -11.547 c -10.031,-17.321 -17.93,-30.09 -39.817,-30.09 h -44.066 l 23.402,64.129 c 7.293,20.359 11.551,24.621 38.903,24.621 h 19.449 c 28.266,0 31.605,-7.602 31.605,-36.172 h 11.246 l 9.422,49.84 H 99.5586 l -3.0391,-9.41 c 32.5195,-6.688 35.5585,-9.731 20.3635,-51.668 L 80.4141,67.1602 C 65.2188,25.5313 58.8359,22.1797 21.4531,15.5 L 18.7188,6.08203 Z M 371.258,128.25 c 5.769,19.75 2.734,37.07 -12.461,37.07 -17.93,0 -22.492,-13.672 -40.727,-52.879 v 22.489 c 0,16.121 -5.168,30.39 -19.754,30.39 -17.019,0 -32.519,-26.429 -44.375,-52.57 h 7.907 c 8.203,11.852 15.8,18.84 21.879,18.84 7.296,0 11.246,-11.25 0,-36.1681 L 250.906,22.4805 c -6.078,-13.67191 0.301,-22.4922188 13.676,-22.4922188 8.203,0 11.852,2.1328088 15.195,10.9531188 l 32.219,85.3984 c 9.113,11.2422 17.317,20.9692 27.656,31.9102 z m 147.699,44.07 -12.762,0.899 -14.289,-13.969 h -3.035 c -69.293,0 -129.168,-77.8008 -129.168,-134.3398 0,-15.80082 9.727,-24.9219188 24.922,-24.9219188 17.93,0 35.559,25.5430188 55.313,52.8906188 l -0.911,-9.7187 c -2.433,-27.961 6.078,-43.1719188 20.668,-43.1719188 17.016,0 32.516,26.4531188 44.371,52.5820188 h -7.902 c -8.207,-11.8515 -15.805,-18.8398 -21.883,-18.8398 -6.383,0 -10.945,11.5586 0,36.1601 z M 391.008,47.3984 c 0,37.3907 41.637,88.1406 65.039,88.1406 5.168,0 10.031,-0.609 14.281,-1.82 L 446.02,68.9883 C 432.039,51.9609 410.457,31.3008 400.426,31.3008 c -5.77,0 -9.418,4.8594 -9.418,16.0976 M 544.48,141.93 h 27.965 L 528.07,20.6719 c -3.953,-10.3399 1.524,-20.6836188 12.157,-20.6836188 25.226,0 65.953,24.9219188 80.234,58.9726188 h -7.898 c -11.247,-11.8593 -32.829,-27.6601 -51.364,-31 L 601.922,141.93 h 41.637 l 5.164,17.32 h -40.418 l 15.5,43.762 H 607.699 L 578.824,159.25 544.48,154.391 Z M 742.941,58.6484 H 732.605 C 719.539,43.1602 705.559,31 691.578,31 677.293,31 670,39.5 670,58.6484 c 0,7.9024 0.91,15.8008 2.43,23.1016 l 84.183,27.66 c 16.418,38.899 -3.34,55.91 -26.441,55.91 -39.809,0 -85.09,-66.5505 -85.09,-124.8981 0,-26.1406 12.453,-40.4336188 31.906,-40.4336188 22.793,0 46.5,22.1914188 65.953,58.6601188 M 714.07,142.832 c 11.246,0 20.965,-8.5 15.801,-30.082 l -52.277,-12.148 c 9.121,24.296 24.316,42.23 36.476,42.23 M 900.672,128.25 c 5.777,19.75 2.734,37.07 -12.461,37.07 -17.93,0 -22.492,-13.672 -40.723,-52.879 v 22.489 c 0,16.121 -5.168,30.39 -19.758,30.39 -17.015,0 -32.519,-26.429 -44.367,-52.57 h 7.899 c 8.207,11.852 15.804,18.84 21.886,18.84 7.29,0 11.239,-11.25 0,-36.1681 L 780.32,22.4805 c -6.074,-13.67191 0.309,-22.4922188 13.676,-22.4922188 8.207,0 11.856,2.1328088 15.195,10.9531188 l 32.219,85.3984 c 9.113,11.2422 17.324,20.9692 27.656,31.9102 z m 0.605,-105.7695 c -6.078,-13.67191 0.301,-22.4922188 13.676,-22.4922188 8.203,0 11.852,2.1328088 15.195,10.9531188 l 32.219,85.3984 c 14.891,18.2302 45.583,37.6912 57.743,37.6912 8.81,0 7.6,-7.301 1.82,-18.242 L 972.395,20.6719 c -4.864,-9.4336 1.519,-20.6836188 12.152,-20.6836188 24.313,0 53.193,21.8906188 64.733,52.5820188 h -7.9 c -7.9,-11.2383 -21.27,-23.6992 -33.73,-25.8281 l 42.55,86.0078 c 5.47,10.941 8.2,21.281 8.2,29.48 0,13.981 -7.9,23.09 -22.49,23.09 -20.97,0 -42.242,-23.699 -67.465,-52.879 v 22.489 c 0,16.121 -5.172,30.39 -19.757,30.39 -9.114,0 -17.93,-7.898 -26.137,-19.14 v -3.032 c 15.804,0.903 22.793,-22.808 11.547,-47.7261 z M 1169.03,208.492 c 10.93,0 20.05,8.809 20.05,20.059 0,10.929 -9.12,20.058 -20.05,20.058 -11.25,0 -20.06,-9.129 -20.06,-20.058 0,-11.25 8.81,-20.059 20.06,-20.059 m -8.51,-60.793 c 3.34,11.25 -4.26,17.621 -10.03,17.621 -24.32,0 -53.19,-21.871 -64.74,-52.57 h 7.9 c 7.91,11.25 21.28,23.711 33.74,25.84 l -46.5,-120.9689 c -4.26,-11.24219 4.25,-17.6328188 10.03,-17.6328188 23.1,0 50.14,22.1914188 61.69,52.5820188 h -7.9 c -7.9,-11.2383 -21.27,-23.6992 -33.74,-25.8281 z m 37.68,-5.769 h 27.95 L 1181.78,20.6719 c -3.95,-10.3399 1.52,-20.6836188 12.16,-20.6836188 25.23,0 65.95,24.9219188 80.24,58.9726188 h -7.91 c -11.24,-11.8593 -32.82,-27.6601 -51.36,-31 l 40.73,113.9691 h 41.63 l 5.17,17.32 h -40.42 l 15.5,43.762 h -16.11 l -28.87,-43.762 -34.34,-4.859 z m 181.73,38.902 59.27,55.309 v 6.379 h -31.91 l -36.47,-61.688 z m 16.72,-122.1836 h -10.33 C 1373.25,43.1602 1359.27,31 1345.29,31 c -14.29,0 -21.58,8.5 -21.58,27.6484 0,7.9024 0.91,15.8008 2.43,23.1016 l 84.18,27.66 c 16.42,38.899 -3.34,55.91 -26.44,55.91 -39.81,0 -85.09,-66.5505 -85.09,-124.8981 0,-26.1406 12.46,-40.4336188 31.91,-40.4336188 22.79,0 46.5,22.1914188 65.95,58.6601188 m -28.87,84.1836 c 11.24,0 20.97,-8.5 15.8,-30.082 l -52.27,-12.148 c 9.12,24.296 24.31,42.23 36.47,42.23"
        style="fill: #0d0906; fill-opacity: 1; fill-rule: nonzero; stroke: none"
        id="path52" />
      <path
        d="m 198.637,622.73 59.261,40.719 v 6.383 H 222.039 L 189.215,622.73 Z M 174.324,495.379 c 20.059,0 20.36,-8.199 17.321,-30.09 h 11.55 l 26.743,73.25 h -11.547 c -10.028,-17.328 -17.93,-30.09 -39.813,-30.09 h -44.07 l 22.187,61.082 c 7.293,20.367 11.551,24.321 38.903,24.321 h 19.449 c 28.266,0 31.605,-7.602 31.605,-35.86 h 11.246 l 9.422,49.84 H 99.5586 l -3.0391,-9.422 c 32.5195,-6.691 35.5585,-9.73 20.3635,-51.668 L 80.4141,447.059 C 65.2188,405.422 58.8359,402.082 21.4531,395.391 l -2.7343,-9.422 H 205.32 l 33.434,52.883 h -12.766 c -21.273,-20.063 -48.015,-39.204 -85.398,-39.204 -49.5431,0 -44.9806,2.133 -28.57,47.411 l 17.625,48.32 z M 386.762,365.301 c 0,19.461 -17.324,26.449 -45.586,34.961 -24.317,7.289 -35.254,9.418 -35.254,17.32 0,6.379 5.164,13.969 15.496,19.449 39.816,2.117 65.645,37.989 65.645,68.078 0,6.379 -1.215,11.84 -3.34,16.711 h 33.73 l 5.172,17.321 h -53.492 c -6.383,3.961 -13.981,6.089 -21.578,6.089 -42.246,0 -69.598,-37.082 -69.598,-67.171 0,-22.789 14.59,-37.079 32.215,-40.418 -19.754,-8.821 -30.695,-19.149 -30.695,-31.309 0,-6.98 2.429,-11.852 8.207,-16.41 -45.586,-13.371 -63.52,-28.57 -63.52,-50.141 0,-20.972 27.656,-29.793 60.481,-29.793 55.617,0 102.117,30.094 102.117,55.313 m -65.953,83.281 c -10.032,0 -13.981,8.508 -13.981,18.238 0,27.039 14.59,66.852 37.383,66.852 10.031,0 13.98,-8.5 13.98,-18.231 0,-27.05 -14.586,-66.859 -37.382,-66.859 M 257.898,350.41 c 0,16.121 15.504,26.141 37.684,34.949 7.297,-3.64 18.238,-7.589 32.824,-12.461 23.102,-7.597 31.914,-10.628 31.914,-17.617 0,-14.902 -25.226,-26.14 -59.57,-26.14 -28.871,0 -42.852,6.078 -42.852,21.269 m 309.383,201.809 -12.761,0.91 -14.282,-13.988 h -3.043 c -69.293,0 -129.164,-77.801 -129.164,-134.321 0,-15.808 9.727,-24.929 24.922,-24.929 17.93,0 35.555,25.531 55.313,52.89 l -0.914,-9.73 c -2.434,-27.961 6.078,-43.16 20.668,-43.16 17.015,0 32.519,26.441 44.371,52.578 h -7.903 c -8.207,-11.848 -15.804,-18.848 -21.879,-18.848 -6.386,0 -10.941,11.559 0,36.18 z M 439.332,427.309 c 0,37.382 41.637,88.132 65.039,88.132 5.168,0 10.031,-0.601 14.285,-1.82 l -24.312,-64.742 c -13.981,-17.008 -35.559,-37.688 -45.586,-37.688 -5.778,0 -9.426,4.868 -9.426,16.118 m 161.074,-20.668 84.793,222.16 -2.734,3.34 -53.184,-6.071 v -6.39 l 10.332,-7.899 c 9.422,-7.301 6.379,-14.281 -2.129,-36.769 L 571.227,400.559 c -4.856,-9.43 1.523,-20.668 12.16,-20.668 24.316,0 50.144,21.89 61.695,52.578 h -7.902 c -7.899,-11.25 -24.313,-23.707 -36.774,-25.828 m 161.688,181.738 c 10.937,0 20.058,8.812 20.058,20.062 0,10.938 -9.121,20.059 -20.058,20.059 -11.246,0 -20.059,-9.121 -20.059,-20.059 0,-11.25 8.813,-20.062 20.059,-20.062 m -8.512,-60.777 c 3.34,11.238 -4.258,17.628 -10.031,17.628 -24.317,0 -53.188,-21.89 -64.735,-52.582 h 7.907 c 7.898,11.243 21.273,23.704 33.73,25.832 l -46.5,-120.96 c -4.254,-11.25 4.258,-17.629 10.027,-17.629 23.102,0 50.149,22.191 61.7,52.578 h -7.903 c -7.902,-11.25 -21.277,-23.707 -33.734,-25.828 z m 37.68,-5.782 h 27.961 L 774.852,400.559 c -3.95,-10.329 1.519,-20.668 12.156,-20.668 25.226,0 65.949,24.929 80.234,58.961 h -7.902 c -11.246,-11.852 -32.824,-27.661 -51.363,-31 l 40.726,113.968 h 41.637 l 5.164,17.321 h -40.418 l 15.496,43.769 h -16.105 l -28.875,-43.769 -34.34,-4.86 z M 973,560.719 l 59.26,55.32 v 6.383 h -31.91 l -36.467,-61.703 z m 16.719,-122.168 h -10.336 c -13.067,-15.5 -27.047,-27.66 -41.028,-27.66 -14.285,0 -21.582,8.519 -21.582,27.66 0,7.898 0.915,15.808 2.434,23.09 l 84.183,27.66 c 16.41,38.898 -3.34,55.929 -26.441,55.929 -39.808,0 -85.09,-66.57 -85.09,-124.921 0,-26.129 12.454,-40.418 31.907,-40.418 22.793,0 46.5,22.191 65.953,58.66 m -28.875,84.187 c 11.242,0 20.969,-8.519 15.804,-30.09 l -52.273,-12.156 c 9.117,24.317 24.313,42.246 36.469,42.246"
        style="fill: #0d0906; fill-opacity: 1; fill-rule: nonzero; stroke: none"
        id="path54" />
      <path
        d="M 209.578,987.73 H 98.9531 l -3.0429,-9.429 c 32.5198,-6.68 35.5628,-9.719 20.3628,-51.66 L 80.4141,826.949 c -15.1953,-41.64 -21.5782,-44.98 -58.961,-51.66 l -2.7343,-9.418 H 187.086 l 36.473,65.039 h -12.766 c -20.668,-22.789 -44.98,-51.371 -82.363,-51.371 -28.262,0 -31.6058,4.871 -16.41,47.41 l 35.863,99.692 c 14.887,41.629 21.578,44.98 58.961,51.66 z m 122.477,-19.46 c 10.937,0 20.058,8.82 20.058,20.062 0,10.949 -9.121,20.058 -20.058,20.058 -11.246,0 -20.059,-9.109 -20.059,-20.058 0,-11.242 8.813,-20.062 20.059,-20.062 m -8.512,-60.782 c 3.34,11.25 -4.258,17.633 -10.031,17.633 -24.317,0 -53.188,-21.891 -64.735,-52.582 h 7.907 c 7.898,11.25 21.269,23.711 33.73,25.832 l -46.5,-120.961 c -4.254,-11.238 4.258,-17.621 10.027,-17.621 23.102,0 50.149,22.18 61.7,52.582 h -7.903 C 299.836,801.121 286.461,788.66 274,786.539 Z m 165.328,-16.097 c 0,24.621 -9.117,33.73 -26.141,33.73 -21.273,0 -41.332,-22.492 -61.39,-49.84 l 50.758,133.409 -2.739,3.35 -53.183,-6.08 v -6.378 l 10.332,-7.902 c 9.422,-7.289 6.379,-14.891 -2.129,-36.782 L 349.676,813.891 c -3.949,-10.332 -8.813,-22.493 -8.813,-25.832 0,-14.59 19.754,-28.27 37.684,-28.27 41.332,0 110.324,74.461 110.324,131.602 M 393.137,784.41 c -8.207,0 -20.059,7.59 -20.059,14.281 0,2.129 3.645,11.547 8.203,23.399 l 13.676,36.172 c 14.59,17.316 36.773,35.859 49.234,35.859 7.598,0 13.375,-4.859 13.375,-16.109 0,-33.133 -31,-93.602 -64.429,-93.602 m 206.351,34.039 h -10.332 c -13.066,-15.508 -27.051,-27.66 -41.027,-27.66 -14.285,0 -21.578,8.512 -21.578,27.66 0,7.903 0.914,15.801 2.429,23.09 l 84.188,27.66 c 16.41,38.903 -3.348,55.922 -26.441,55.922 -39.817,0 -85.098,-66.551 -85.098,-124.91 0,-26.141 12.461,-40.422 31.914,-40.422 22.793,0 46.5,22.18 65.945,58.66 m -28.871,84.18 c 11.246,0 20.973,-8.508 15.805,-30.09 l -52.274,-12.16 c 9.118,24.32 24.317,42.25 36.469,42.25 m 186.606,-14.59 c 5.777,19.75 2.734,37.082 -12.461,37.082 -17.93,0 -22.489,-13.672 -40.719,-52.883 v 22.492 c 0,16.102 -5.172,30.391 -19.758,30.391 -17.023,0 -32.519,-26.441 -44.375,-52.582 h 7.906 c 8.204,11.859 15.801,18.852 21.879,18.852 7.293,0 11.246,-11.25 0,-36.172 l -32.82,-72.938 c -6.082,-13.672 0.301,-22.492 13.676,-22.492 8.203,0 11.847,2.133 15.195,10.941 l 32.215,85.399 c 9.117,11.242 17.324,20.973 27.656,31.91 z m 21.882,13.68 h 22.18 l -44.367,-121.27 c -3.953,-10.328 1.516,-20.66 12.156,-20.66 25.227,0 65.949,24.922 80.235,58.961 h -7.907 c -11.242,-11.852 -32.82,-27.648 -51.359,-31 l 40.727,113.969 h 41.636 l 5.164,17.32 h -40.418 l 15.496,43.762 h -16.105 l -28.875,-43.762 -28.563,-4.859 z m 174.141,38.902 59.264,55.309 v 6.39 h -31.916 l -36.469,-61.699 z m 16.711,-122.172 h -10.332 c -13.07,-15.508 -27.051,-27.66 -41.027,-27.66 -14.285,0 -21.578,8.512 -21.578,27.66 0,7.903 0.914,15.801 2.429,23.09 l 84.188,27.66 c 16.413,38.903 -3.344,55.922 -26.442,55.922 -39.816,0 -85.097,-66.551 -85.097,-124.91 0,-26.141 12.461,-40.422 31.91,-40.422 22.797,0 46.496,22.18 65.949,58.66 m -28.871,84.18 c 11.246,0 20.973,-8.508 15.805,-30.09 l -52.274,-12.16 c 9.117,24.32 24.313,42.25 36.469,42.25"
        style="fill: #0d0906; fill-opacity: 1; fill-rule: nonzero; stroke: none"
        id="path56" />
    </g>
  </g>
</svg>
