<svg fill="none" xmlns="http://www.w3.org/2000/svg" viewBox="0 0 44 44"><path d="M7 10h30v17a2 2 0 0 1-2 2H9a2 2 0 0 1-2-2V10Z" fill="#fff"/><rect x="6.25" y="9.25" width="31.5" height="20.5" rx="2.75" stroke="#333" stroke-width="1.5"/><path d="M6 27a2 2 0 0 0 2 2h28a2 2 0 0 0 2-2H6Z" fill="#333"/><path d="M17 34h11" stroke="#333" stroke-width="1.5" stroke-linecap="round" stroke-linejoin="round"/><path d="M23.25 30v-.75h-1.5V30h1.5Zm-1.5 4a.75.75 0 0 0 1.5 0h-1.5Zm0-4V34h1.5V30h-1.5Z" fill="#333"/><path d="M22.371 13.626v-.012l.003-.042a1.798 1.798 0 0 1 .169-.651c.084-.174.206-.34.383-.461.175-.121.419-.21.766-.21H29.726v10.875H23.692c-.438 0-.783.114-1.05.298a1.557 1.557 0 0 0-.27.238V13.626ZM21.871 13.626v-.012l-.002-.042a1.795 1.795 0 0 0-.169-.651 1.164 1.164 0 0 0-.383-.461c-.176-.121-.42-.21-.767-.21H14.517v10.875H20.552c.438 0 .783.114 1.05.298.103.072.193.152.27.238V13.626Z" stroke="#DA3635" stroke-width=".5"/><path fill-rule="evenodd" clip-rule="evenodd" d="M14.265 13.955H13V25.09h6.754c.474 0 1.2.102 1.464.254.033.019.048.065.067.123.054.163.139.418.715.418.78 0 .78-.47.78-.47.32-.19.77-.325 1.406-.325H31V13.955h-1.026V23H14.265v-9.045Z" fill="#DA3635"/><rect x="15.738" y="15.546" width="4.686" height=".795" rx=".398" fill="#DA3635"/><rect x="23.594" y="15.546" width="4.686" height=".795" rx=".398" fill="#DA3635"/><rect x="15.738" y="17.932" width="4.686" height=".795" rx=".398" fill="#DA3635"/><rect x="23.594" y="17.932" width="4.686" height=".795" rx=".398" fill="#DA3635"/><rect x="15.738" y="20.318" width="4.686" height=".795" rx=".398" fill="#DA3635"/><rect x="23.594" y="20.318" width="4.686" height=".795" rx=".398" fill="#DA3635"/></svg>