<svg width="22" height="16" viewBox="0 0 22 16" fill="none" xmlns="http://www.w3.org/2000/svg">
<path fill-rule="evenodd" clip-rule="evenodd" d="M7.99519 3.00001C8.83101 2.37183 9.87111 2 11 2C13.7667 2 16 4.23333 16 7C16 9.76667 13.7667 12 11 12C8.23333 12 6 9.76667 6 7C6 6.5747 6.05278 6.162 6.15215 5.76809C6.45257 6.49223 7.16566 7 8 7C9.10667 7 10 6.10667 10 5C10 3.89333 9.10667 3 8 3C7.9984 3 7.9968 3 7.99519 3.00001Z" fill="#828282"/>
<path d="M1 8C2.57273 3.90267 6.45455 1 11 1C15.5455 1 19.4273 3.90267 21 8" stroke="#828282" stroke-width="1.5" stroke-linecap="round"/>
<path d="M1 8C2.57273 12.0973 6.45455 15 11 15C15.5455 15 19.4273 12.0973 21 8" stroke="#828282" stroke-width="1.5" stroke-linecap="round"/>
</svg>
