<svg width="180" height="180" viewBox="0 0 180 180" fill="none" xmlns="http://www.w3.org/2000/svg">
<path d="M26 140H24.5C24.5 140.828 25.1716 141.5 26 141.5V140ZM83.5 87L83.5 85.5L83.5 87ZM103.426 88.0228L103.589 86.5318L103.426 88.0228ZM63.5739 88.0223L63.7373 89.5133L63.5739 88.0223ZM83.5 141.5C84.3284 141.5 85 140.828 85 140C85 139.172 84.3284 138.5 83.5 138.5V141.5ZM63.7373 89.5133C69.4973 88.882 76.0577 88.4999 83.5 88.5L83.5 85.5C75.9551 85.4999 69.2853 85.8873 63.4105 86.5312L63.7373 89.5133ZM83.5 88.5C90.9421 88.5001 97.5024 88.8825 103.262 89.5139L103.589 86.5318C97.7145 85.8878 91.0448 85.5001 83.5 85.5L83.5 88.5ZM27.5 140C27.5 127.476 30.5094 115.481 36.5387 106.319C42.5441 97.1935 51.5563 90.8484 63.7373 89.5133L63.4105 86.5312C50.2549 87.9731 40.4801 94.8727 34.0327 104.67C27.6093 114.43 24.5 127.036 24.5 140H27.5ZM83.5 138.5H26V141.5H83.5V138.5ZM129.642 100.23C123.32 92.8079 114.639 87.743 103.589 86.5318L103.262 89.5139C113.517 90.638 121.509 95.3091 127.358 102.176L129.642 100.23Z" fill="#696969"/>
<circle cx="84.0416" cy="63.4879" r="30.9879" fill="white" stroke="#696969" stroke-width="3" stroke-linejoin="round"/>
<path d="M154.686 93.624C151.223 90.5385 145.919 90.8517 142.842 94.3221L110.73 130.534L93.1433 116.368C89.5313 113.458 84.2499 114.036 81.3486 117.655C78.4489 121.272 79.0227 126.56 82.6326 129.468L106.442 148.646C109.928 151.453 114.998 151.027 117.968 147.678L155.382 105.486C158.458 102.018 158.147 96.7077 154.686 93.624Z" fill="#47C562" stroke="white" stroke-width="3" stroke-linecap="round" stroke-linejoin="round"/>
</svg>
