<svg width="179" height="179" viewBox="0 0 179 179" fill="none" xmlns="http://www.w3.org/2000/svg">
<circle cx="89.4997" cy="89.5" r="67.2273" fill="#EAF8FB" stroke="#348899" stroke-width="12"/>
<path opacity="0.35" d="M91.5 40C91.5 38.8954 90.6046 38 89.5 38C88.3954 38 87.5 38.8954 87.5 40H91.5ZM89.5 89.5H87.5C87.5 90.1511 87.817 90.7615 88.3496 91.1361L89.5 89.5ZM120.35 113.636C121.253 114.271 122.501 114.054 123.136 113.15C123.771 112.247 123.554 110.999 122.65 110.364L120.35 113.636ZM87.5 40V89.5H91.5V40H87.5ZM88.3496 91.1361L120.35 113.636L122.65 110.364L90.6504 87.8639L88.3496 91.1361Z" fill="#348899"/>
<path d="M62.9482 109V81.1562L55.0908 85.876V79.2842C60.1357 76.8408 64.126 73.8174 67.0615 70.2139H69.8037V109H62.9482ZM83.9365 106.073L86.6523 100.431C89.4473 102.61 91.8467 103.7 93.8506 103.7C98.2803 103.7 100.495 100.976 100.495 95.5264C100.495 92.9072 99.9941 91 98.9922 89.8047C97.9902 88.5918 96.3115 87.9854 93.9561 87.9854C91.8291 87.9854 89.7549 89.0312 87.7334 91.123L85.0176 89.3564V70.2139H105.821V76.041H91.6094V82.9492C92.7695 82.4219 94.1582 82.1582 95.7754 82.1582C99.5723 82.1582 102.49 83.2568 104.529 85.4541C106.586 87.6514 107.614 90.7627 107.614 94.7881C107.614 104.614 103.035 109.527 93.877 109.527C90.0801 109.527 86.7666 108.376 83.9365 106.073ZM124.146 69.1855L126.335 72.1123C124.7 73.3604 123.698 74.2832 123.329 74.8809C122.96 75.4785 122.775 76.1113 122.775 76.7793C122.775 77.4824 123.206 78.2646 124.067 79.126C124.929 79.9873 125.359 80.9102 125.359 81.8945C125.359 84.7422 123.953 86.166 121.141 86.166C119.717 86.166 118.609 85.709 117.818 84.7949C117.045 83.8809 116.658 82.6504 116.658 81.1035C116.658 76.252 119.154 72.2793 124.146 69.1855Z" fill="#DC2A59"/>
</svg>
