<svg xmlns="http://www.w3.org/2000/svg">
<symbol id="typeStructure_public" viewBox="0 0 28 31" xmlns="http://www.w3.org/2000/svg">
<path d="M14.0002 6.44446L25.6668 13.4445H2.3335L14.0002 6.44446Z" stroke="none"/>
<path d="M2.3335 13.4445H25.6668V14C25.6668 14.5523 25.2191 15 24.6668 15H3.3335C2.78121 15 2.3335 14.5523 2.3335 14V13.4445Z" stroke="none"/>
<path d="M2.3335 26.6667H25.6668V28.2222H2.3335V26.6667Z" stroke="none"/>
<path d="M0 29H28V30.5556H0V29Z" stroke="none"/>
<rect x="4.6665" y="15.7778" width="2.33333" height="10.1111" stroke="none"/>
<rect x="10.1113" y="15.7778" width="2.33333" height="10.1111" stroke="none"/>
<rect x="15.5557" y="15.7778" width="2.33333" height="10.1111" stroke="none"/>
<rect x="21" y="15.7778" width="2.33333" height="10.1111" stroke="none"/>
<path d="M13.667 7.22222L13.667 1" stroke-linecap="round" stroke-linejoin="round" fill="none"/>
<path d="M13.667 1.44444C13.667 1.44444 13.2781 1 12.5003 1C11.7225 1 11.3337 1.44444 11.3337 1.44444V4.11111C11.3337 4.11111 11.7225 3.66667 12.5003 3.66667C13.2781 3.66667 13.667 4.11111 13.667 4.11111V1.44444Z" stroke="none"/>
<path d="M11.3335 4.44447C11.3335 4.44447 10.9446 4.88892 10.1668 4.88892C9.38905 4.88892 9.00016 4.44447 9.00016 4.44447V1.7778C9.00016 1.7778 9.38905 2.22225 10.1668 2.22225C10.9446 2.22225 11.3335 1.7778 11.3335 1.7778V4.44447Z" stroke="none"/>
</symbol>

<symbol id="validateVector" viewBox="0 0 14 11" fill="none" xmlns="http://www.w3.org/2000/svg">
<path d="M2.00002 5.81818L5.8889 9L12 2" stroke="white" stroke-width="3" stroke-linecap="round" stroke-linejoin="round"/>
</symbol>

<symbol id="typeStructure_private" viewBox="0 0 20 45" xmlns="http://www.w3.org/2000/svg">
<path d="M3.56201 15.4203L16.562 10V43H3.56201V15.4203Z" stroke="none"/>
<rect x="0.562012" y="44" width="19" height="1" stroke="none"/>
<path d="M7.06201 0L7.56201 15H6.56201L7.06201 0Z" stroke="none"/>
<rect x="5.56201" y="17" width="4" height="1" fill="white" stroke="none"/>
<rect x="10.562" y="17" width="4" height="1" fill="white" stroke="none"/>
<rect x="3.56201" y="17" width="1" height="1" fill="white" stroke="none"/>
<rect x="3.56201" y="19" width="1" height="1" fill="white" stroke="none"/>
<rect x="3.56201" y="21" width="1" height="1" fill="white" stroke="none"/>
<rect x="3.56201" y="23" width="1" height="1" fill="white" stroke="none"/>
<rect x="3.56201" y="25" width="1" height="1" fill="white" stroke="none"/>
<rect x="3.56201" y="27" width="1" height="1" fill="white" stroke="none"/>
<rect x="3.56201" y="29" width="1" height="1" fill="white" stroke="none"/>
<rect x="3.56201" y="31" width="1" height="1" fill="white" stroke="none"/>
<rect x="3.56201" y="33" width="1" height="1" fill="white" stroke="none"/>
<rect x="3.56201" y="35" width="1" height="1" fill="white" stroke="none"/>
<rect x="3.56201" y="37" width="1" height="1" fill="white" stroke="none"/>
<rect x="3.56201" y="39" width="1" height="1" fill="white" stroke="none"/>
<rect x="15.562" y="17" width="1" height="1" fill="white" stroke="none"/>
<rect x="15.562" y="19" width="1" height="1" fill="white" stroke="none"/>
<rect x="15.562" y="21" width="1" height="1" fill="white" stroke="none"/>
<rect x="15.562" y="23" width="1" height="1" fill="white" stroke="none"/>
<rect x="15.562" y="25" width="1" height="1" fill="white" stroke="none"/>
<rect x="15.562" y="27" width="1" height="1" fill="white" stroke="none"/>
<rect x="15.562" y="29" width="1" height="1" fill="white" stroke="none"/>
<rect x="15.562" y="31" width="1" height="1" fill="white" stroke="none"/>
<rect x="15.562" y="33" width="1" height="1" fill="white" stroke="none"/>
<rect x="15.562" y="35" width="1" height="1" fill="white" stroke="none"/>
<rect x="15.562" y="37" width="1" height="1" fill="white" stroke="none"/>
<rect x="15.562" y="39" width="1" height="1" fill="white" stroke="none"/>
<rect x="5.56201" y="19" width="4" height="1" fill="white" stroke="none"/>
<rect x="10.562" y="19" width="4" height="1" fill="white" stroke="none"/>
<rect x="5.56201" y="21" width="4" height="1" fill="white" stroke="none"/>
<rect x="10.562" y="21" width="4" height="1" fill="white" stroke="none"/>
<rect x="5.56201" y="23" width="4" height="1" fill="white" stroke="none"/>
<rect x="10.562" y="23" width="4" height="1" fill="white" stroke="none"/>
<rect x="5.56201" y="25" width="4" height="1" fill="white" stroke="none"/>
<rect x="10.562" y="25" width="4" height="1" fill="white" stroke="none"/>
<rect x="5.56201" y="27" width="4" height="1" fill="white" stroke="none"/>
<rect x="10.562" y="27" width="4" height="1" fill="white" stroke="none"/>
<rect x="5.56201" y="29" width="4" height="1" fill="white" stroke="none"/>
<rect x="10.562" y="29" width="4" height="1" fill="white" stroke="none"/>
<rect x="5.56201" y="31" width="4" height="1" fill="white" stroke="none"/>
<rect x="10.562" y="31" width="4" height="1" fill="white" stroke="none"/>
<rect x="5.56201" y="33" width="4" height="1" fill="white" stroke="none"/>
<rect x="10.562" y="33" width="4" height="1" fill="white" stroke="none"/>
<rect x="5.56201" y="35" width="4" height="1" fill="white" stroke="none"/>
<rect x="10.562" y="35" width="4" height="1" fill="white" stroke="none"/>
<rect x="5.56201" y="37" width="4" height="1" fill="white" stroke="none"/>
<rect x="10.562" y="37" width="4" height="1" fill="white" stroke="none"/>
<rect x="5.56201" y="39" width="4" height="1" fill="white" stroke="none"/>
<rect x="10.562" y="39" width="4" height="1" fill="white" stroke="none"/>
</symbol>

<symbol id="typeStructure_privateLucratif" viewBox="0 0 20 25" xmlns="http://www.w3.org/2000/svg">
<path d="M3.12402 8H16.124V23H3.12402V8Z" stroke="none"/>
<path d="M9.79077 10.5L9.79077 1" fill="none" stroke-linecap="round" stroke-linejoin="round"/>
<path d="M9.79077 1.44444C9.79077 1.44444 9.40188 1 8.6241 1C7.84633 1 7.45744 1.44444 7.45744 1.44444V4.11111C7.45744 4.11111 7.84633 3.66667 8.6241 3.66667C9.40188 3.66667 9.79077 4.11111 9.79077 4.11111V1.44444Z" stroke="none"/>
<path d="M7.45728 4.44444C7.45728 4.44444 7.06839 4.88889 6.29061 4.88889C5.51283 4.88889 5.12394 4.44444 5.12394 4.44444V1.77777C5.12394 1.77777 5.51283 2.22222 6.29061 2.22222C7.06839 2.22222 7.45728 1.77777 7.45728 1.77777V4.44444Z" stroke="none"/>
<rect x="0.124023" y="24" width="19" height="1" stroke="none"/>
<rect x="4.12402" y="11" width="2" height="1" fill="white" stroke="none"/>
<rect x="7.12402" y="11" width="2" height="1" fill="white" stroke="none"/>
<rect x="10.124" y="11" width="2" height="1" fill="white" stroke="none"/>
<rect x="13.124" y="11" width="2" height="1" fill="white" stroke="none"/>
<rect x="4.12402" y="14" width="2" height="1" fill="white" stroke="none"/>
<rect x="7.12402" y="14" width="2" height="1" fill="white" stroke="none"/>
<rect x="10.124" y="14" width="2" height="1" fill="white" stroke="none"/>
<rect x="13.124" y="14" width="2" height="1" fill="white" stroke="none"/>
<rect x="4.12402" y="17" width="2" height="1" fill="white" stroke="none"/>
<rect x="7.12402" y="17" width="2" height="1" fill="white" stroke="none"/>
<rect x="10.124" y="17" width="2" height="1" fill="white" stroke="none"/>
<rect x="13.124" y="17" width="2" height="1" fill="white" stroke="none"/>
<rect x="4.12402" y="20" width="2" height="1" fill="white" stroke="none"/>
<rect x="7.12402" y="20" width="2" height="1" fill="white" stroke="none"/>
<rect x="10.124" y="20" width="2" height="1" fill="white" stroke="none"/>
<rect x="13.124" y="20" width="2" height="1" fill="white" stroke="none"/>
</symbol>

</svg>