<svg xmlns="http://www.w3.org/2000/svg">
<symbol id="typeStructure_public" viewBox="0 0 28 31" xmlns="http://www.w3.org/2000/svg">
<path d="M14.0002 6.44446L25.6668 13.4445H2.3335L14.0002 6.44446Z" stroke="none"/>
<path d="M2.3335 13.4445H25.6668V14C25.6668 14.5523 25.2191 15 24.6668 15H3.3335C2.78121 15 2.3335 14.5523 2.3335 14V13.4445Z" stroke="none"/>
<path d="M2.3335 26.6667H25.6668V28.2222H2.3335V26.6667Z" stroke="none"/>
<path d="M0 29H28V30.5556H0V29Z" stroke="none"/>
<rect x="4.6665" y="15.7778" width="2.33333" height="10.1111" stroke="none"/>
<rect x="10.1113" y="15.7778" width="2.33333" height="10.1111" stroke="none"/>
<rect x="15.5557" y="15.7778" width="2.33333" height="10.1111" stroke="none"/>
<rect x="21" y="15.7778" width="2.33333" height="10.1111" stroke="none"/>
<path d="M13.667 7.22222L13.667 1" stroke-linecap="round" stroke-linejoin="round" fill="none"/>
<path d="M13.667 1.44444C13.667 1.44444 13.2781 1 12.5003 1C11.7225 1 11.3337 1.44444 11.3337 1.44444V4.11111C11.3337 4.11111 11.7225 3.66667 12.5003 3.66667C13.2781 3.66667 13.667 4.11111 13.667 4.11111V1.44444Z" stroke="none"/>
<path d="M11.3335 4.44447C11.3335 4.44447 10.9446 4.88892 10.1668 4.88892C9.38905 4.88892 9.00016 4.44447 9.00016 4.44447V1.7778C9.00016 1.7778 9.38905 2.22225 10.1668 2.22225C10.9446 2.22225 11.3335 1.7778 11.3335 1.7778V4.44447Z" stroke="none"/>
</symbol>

<symbol id="checkVector" viewBox="0 0 14 11" xmlns="http://www.w3.org/2000/svg">
<path d="M2.00002 5.81818L5.8889 9L12 2" fill="none" stroke-width="3" stroke-linecap="round" stroke-linejoin="round"/>
</symbol>

<symbol id="typeStructure_private" viewBox="0 0 20 45" xmlns="http://www.w3.org/2000/svg">
<path d="M3.56201 15.4203L16.562 10V43H3.56201V15.4203Z" stroke="none"/>
<rect x="0.562012" y="44" width="19" height="1" stroke="none"/>
<path d="M7.06201 0L7.56201 15H6.56201L7.06201 0Z" stroke="none"/>
<rect x="5.56201" y="17" width="4" height="1" fill="white" stroke="none"/>
<rect x="10.562" y="17" width="4" height="1" fill="white" stroke="none"/>
<rect x="3.56201" y="17" width="1" height="1" fill="white" stroke="none"/>
<rect x="3.56201" y="19" width="1" height="1" fill="white" stroke="none"/>
<rect x="3.56201" y="21" width="1" height="1" fill="white" stroke="none"/>
<rect x="3.56201" y="23" width="1" height="1" fill="white" stroke="none"/>
<rect x="3.56201" y="25" width="1" height="1" fill="white" stroke="none"/>
<rect x="3.56201" y="27" width="1" height="1" fill="white" stroke="none"/>
<rect x="3.56201" y="29" width="1" height="1" fill="white" stroke="none"/>
<rect x="3.56201" y="31" width="1" height="1" fill="white" stroke="none"/>
<rect x="3.56201" y="33" width="1" height="1" fill="white" stroke="none"/>
<rect x="3.56201" y="35" width="1" height="1" fill="white" stroke="none"/>
<rect x="3.56201" y="37" width="1" height="1" fill="white" stroke="none"/>
<rect x="3.56201" y="39" width="1" height="1" fill="white" stroke="none"/>
<rect x="15.562" y="17" width="1" height="1" fill="white" stroke="none"/>
<rect x="15.562" y="19" width="1" height="1" fill="white" stroke="none"/>
<rect x="15.562" y="21" width="1" height="1" fill="white" stroke="none"/>
<rect x="15.562" y="23" width="1" height="1" fill="white" stroke="none"/>
<rect x="15.562" y="25" width="1" height="1" fill="white" stroke="none"/>
<rect x="15.562" y="27" width="1" height="1" fill="white" stroke="none"/>
<rect x="15.562" y="29" width="1" height="1" fill="white" stroke="none"/>
<rect x="15.562" y="31" width="1" height="1" fill="white" stroke="none"/>
<rect x="15.562" y="33" width="1" height="1" fill="white" stroke="none"/>
<rect x="15.562" y="35" width="1" height="1" fill="white" stroke="none"/>
<rect x="15.562" y="37" width="1" height="1" fill="white" stroke="none"/>
<rect x="15.562" y="39" width="1" height="1" fill="white" stroke="none"/>
<rect x="5.56201" y="19" width="4" height="1" fill="white" stroke="none"/>
<rect x="10.562" y="19" width="4" height="1" fill="white" stroke="none"/>
<rect x="5.56201" y="21" width="4" height="1" fill="white" stroke="none"/>
<rect x="10.562" y="21" width="4" height="1" fill="white" stroke="none"/>
<rect x="5.56201" y="23" width="4" height="1" fill="white" stroke="none"/>
<rect x="10.562" y="23" width="4" height="1" fill="white" stroke="none"/>
<rect x="5.56201" y="25" width="4" height="1" fill="white" stroke="none"/>
<rect x="10.562" y="25" width="4" height="1" fill="white" stroke="none"/>
<rect x="5.56201" y="27" width="4" height="1" fill="white" stroke="none"/>
<rect x="10.562" y="27" width="4" height="1" fill="white" stroke="none"/>
<rect x="5.56201" y="29" width="4" height="1" fill="white" stroke="none"/>
<rect x="10.562" y="29" width="4" height="1" fill="white" stroke="none"/>
<rect x="5.56201" y="31" width="4" height="1" fill="white" stroke="none"/>
<rect x="10.562" y="31" width="4" height="1" fill="white" stroke="none"/>
<rect x="5.56201" y="33" width="4" height="1" fill="white" stroke="none"/>
<rect x="10.562" y="33" width="4" height="1" fill="white" stroke="none"/>
<rect x="5.56201" y="35" width="4" height="1" fill="white" stroke="none"/>
<rect x="10.562" y="35" width="4" height="1" fill="white" stroke="none"/>
<rect x="5.56201" y="37" width="4" height="1" fill="white" stroke="none"/>
<rect x="10.562" y="37" width="4" height="1" fill="white" stroke="none"/>
<rect x="5.56201" y="39" width="4" height="1" fill="white" stroke="none"/>
<rect x="10.562" y="39" width="4" height="1" fill="white" stroke="none"/>
</symbol>

<symbol id="typeStructure_privateLucratif" viewBox="0 0 20 25" xmlns="http://www.w3.org/2000/svg">
<path d="M3.12402 8H16.124V23H3.12402V8Z" stroke="none"/>
<path d="M9.79077 10.5L9.79077 1" fill="none" stroke-linecap="round" stroke-linejoin="round"/>
<path d="M9.79077 1.44444C9.79077 1.44444 9.40188 1 8.6241 1C7.84633 1 7.45744 1.44444 7.45744 1.44444V4.11111C7.45744 4.11111 7.84633 3.66667 8.6241 3.66667C9.40188 3.66667 9.79077 4.11111 9.79077 4.11111V1.44444Z" stroke="none"/>
<path d="M7.45728 4.44444C7.45728 4.44444 7.06839 4.88889 6.29061 4.88889C5.51283 4.88889 5.12394 4.44444 5.12394 4.44444V1.77777C5.12394 1.77777 5.51283 2.22222 6.29061 2.22222C7.06839 2.22222 7.45728 1.77777 7.45728 1.77777V4.44444Z" stroke="none"/>
<rect x="0.124023" y="24" width="19" height="1" stroke="none"/>
<rect x="4.12402" y="11" width="2" height="1" fill="white" stroke="none"/>
<rect x="7.12402" y="11" width="2" height="1" fill="white" stroke="none"/>
<rect x="10.124" y="11" width="2" height="1" fill="white" stroke="none"/>
<rect x="13.124" y="11" width="2" height="1" fill="white" stroke="none"/>
<rect x="4.12402" y="14" width="2" height="1" fill="white" stroke="none"/>
<rect x="7.12402" y="14" width="2" height="1" fill="white" stroke="none"/>
<rect x="10.124" y="14" width="2" height="1" fill="white" stroke="none"/>
<rect x="13.124" y="14" width="2" height="1" fill="white" stroke="none"/>
<rect x="4.12402" y="17" width="2" height="1" fill="white" stroke="none"/>
<rect x="7.12402" y="17" width="2" height="1" fill="white" stroke="none"/>
<rect x="10.124" y="17" width="2" height="1" fill="white" stroke="none"/>
<rect x="13.124" y="17" width="2" height="1" fill="white" stroke="none"/>
<rect x="4.12402" y="20" width="2" height="1" fill="white" stroke="none"/>
<rect x="7.12402" y="20" width="2" height="1" fill="white" stroke="none"/>
<rect x="10.124" y="20" width="2" height="1" fill="white" stroke="none"/>
<rect x="13.124" y="20" width="2" height="1" fill="white" stroke="none"/>
</symbol>

<symbol id="accesLibre" viewBox="0 0 44 44" xmlns="http://www.w3.org/2000/svg">
<rect x="22" y="8" width="10" height="28" fill="white" stroke="#4F4F4F" stroke-width="2"/>
<path fill-rule="evenodd" clip-rule="evenodd" d="M10 5V37L23 43.5L23 0.5L10 5ZM19 23C19 21.8954 19.8954 21 21 21V25C19.8954 25 19 24.1046 19 23Z" stroke="none"/>
<rect x="33" y="35" width="3" height="2" fill="#4F4F4F" stroke="none"/>
<rect x="7" y="35" width="3" height="2" fill="#4F4F4F" stroke="none"/>
</symbol>

<symbol id="surRdv" viewBox="0 0 44 44" xmlns="http://www.w3.org/2000/svg">
<path fill-rule="evenodd" clip-rule="evenodd" d="M13.1111 6C12.1293 6 11.3333 6.79594 11.3333 7.77778V9.55556H7.77778C6.79594 9.55556 6 10.3515 6 11.3333V36.2222C6 37.2041 6.79594 38 7.77778 38H36.2222C37.2041 38 38 37.2041 38 36.2222V11.3333C38 10.3515 37.2041 9.55556 36.2222 9.55556H32.6667V7.77778C32.6667 6.79594 31.8707 6 30.8889 6C29.9071 6 29.1111 6.79594 29.1111 7.77778V9.55556H14.8889V7.77778C14.8889 6.79594 14.093 6 13.1111 6ZM7.77778 16.2222V36.2222H36.2222V16.2222H7.77778Z" fill="#4F4F4F" stroke="none"/>
<rect x="7.77783" y="15.7778" width="28.4444" height="20.4444" fill="white" stroke="none"/>
<path d="M16.6666 26.3636L20.8148 30L27.3333 22" fill="none" stroke-width="4" stroke-linecap="round" stroke-linejoin="round"/>
</symbol>

<symbol id="telephoneVisio" viewBox="0 0 44 44" xmlns="http://www.w3.org/2000/svg">
<g clip-path="url(#clip0)">
<path d="M25.0419 30.0674L20.6788 34.4303L11.9528 25.7043L16.3158 21.3413C16.8339 20.8232 16.8339 19.9845 16.3158 19.4678L9.6911 12.8431C9.17304 12.325 8.33434 12.325 7.81763 12.8431L3.45459 17.2061C3.45459 31.8693 14.5112 42.9285 29.177 42.9285L33.5401 38.5656C34.0581 38.0474 34.0581 37.2088 33.5401 36.692L26.9153 30.0674C26.3986 29.5506 25.5587 29.5506 25.0419 30.0674Z" fill="#4F4F4F" stroke="none"/>
<path fill-rule="evenodd" clip-rule="evenodd" d="M32.6799 24.3312C32.7893 21.4558 31.6409 18.5585 29.2978 16.5266C26.982 14.5183 23.9945 13.785 21.192 14.2656L19.7273 12.5443C23.4085 11.5374 27.5084 12.3275 30.6082 15.0156C33.7509 17.741 35.1078 21.7601 34.5737 25.5945L32.6799 24.3312Z" stroke="none"/>
<path fill-rule="evenodd" clip-rule="evenodd" d="M26.935 24.7419C26.8751 23.2343 26.2165 21.7539 24.9866 20.6874C23.7682 19.6308 22.2271 19.1867 20.7391 19.3283L19.2476 17.5754C21.6325 16.923 24.2887 17.4349 26.2969 19.1764C28.333 20.9421 29.2121 23.546 28.866 26.0301L26.935 24.7419Z" stroke="none"/>
<path fill-rule="evenodd" clip-rule="evenodd" d="M38.9258 23.3934C39.2657 18.7937 37.5047 14.0969 33.7522 10.8427C30.0465 7.62914 25.2228 6.53725 20.7641 7.46158L19.3115 5.75444C24.6404 4.29671 30.5754 5.44046 35.0626 9.33177C39.6119 13.277 41.5761 19.095 40.8029 24.6457L38.9258 23.3934Z" stroke="none"/>
</g>
<defs>
<clipPath id="clip0">
<rect width="44" height="44" fill="white"/>
</clipPath>
</defs>
</symbol>

<symbol id="add" viewBox="0 0 24 25" xmlns="http://www.w3.org/2000/svg">
<path d="M12 5.5C11.4477 5.5 11 5.94772 11 6.5V11.5H6C5.44772 11.5 5 11.9477 5 12.5C5 13.0523 5.44772 13.5 6 13.5H11V18.5C11 19.0523 11.4477 19.5 12 19.5C12.5523 19.5 13 19.0523 13 18.5V13.5H18C18.5523 13.5 19 13.0523 19 12.5C19 11.9477 18.5523 11.5 18 11.5H13V6.5C13 5.94772 12.5523 5.5 12 5.5Z" stroke="none"/>
</symbol>


</svg>