<svg xmlns="http://www.w3.org/2000/svg">
<symbol id="typeStructure_public" viewBox="0 0 28 31" xmlns="http://www.w3.org/2000/svg">
<path d="M14.0002 6.44446L25.6668 13.4445H2.3335L14.0002 6.44446Z" stroke="none"/>
<path d="M2.3335 13.4445H25.6668V14C25.6668 14.5523 25.2191 15 24.6668 15H3.3335C2.78121 15 2.3335 14.5523 2.3335 14V13.4445Z" stroke="none"/>
<path d="M2.3335 26.6667H25.6668V28.2222H2.3335V26.6667Z" stroke="none"/>
<path d="M0 29H28V30.5556H0V29Z" stroke="none"/>
<rect x="4.6665" y="15.7778" width="2.33333" height="10.1111" stroke="none"/>
<rect x="10.1113" y="15.7778" width="2.33333" height="10.1111" stroke="none"/>
<rect x="15.5557" y="15.7778" width="2.33333" height="10.1111" stroke="none"/>
<rect x="21" y="15.7778" width="2.33333" height="10.1111" stroke="none"/>
<path d="M13.667 7.22222L13.667 1" stroke-linecap="round" stroke-linejoin="round" fill="none"/>
<path d="M13.667 1.44444C13.667 1.44444 13.2781 1 12.5003 1C11.7225 1 11.3337 1.44444 11.3337 1.44444V4.11111C11.3337 4.11111 11.7225 3.66667 12.5003 3.66667C13.2781 3.66667 13.667 4.11111 13.667 4.11111V1.44444Z" stroke="none"/>
<path d="M11.3335 4.44447C11.3335 4.44447 10.9446 4.88892 10.1668 4.88892C9.38905 4.88892 9.00016 4.44447 9.00016 4.44447V1.7778C9.00016 1.7778 9.38905 2.22225 10.1668 2.22225C10.9446 2.22225 11.3335 1.7778 11.3335 1.7778V4.44447Z" stroke="none"/>
</symbol>

<symbol id="checkVector" viewBox="0 0 14 11" xmlns="http://www.w3.org/2000/svg">
<path d="M2.00002 5.81818L5.8889 9L12 2" fill="none" stroke-width="3" stroke-linecap="round" stroke-linejoin="round"/>
</symbol>

<symbol id="typeStructure_private" viewBox="0 0 20 45" xmlns="http://www.w3.org/2000/svg">
<path d="M3.56201 15.4203L16.562 10V43H3.56201V15.4203Z" stroke="none"/>
<rect x="0.562012" y="44" width="19" height="1" stroke="none"/>
<path d="M7.06201 0L7.56201 15H6.56201L7.06201 0Z" stroke="none"/>
<rect x="5.56201" y="17" width="4" height="1" fill="white" stroke="none"/>
<rect x="10.562" y="17" width="4" height="1" fill="white" stroke="none"/>
<rect x="3.56201" y="17" width="1" height="1" fill="white" stroke="none"/>
<rect x="3.56201" y="19" width="1" height="1" fill="white" stroke="none"/>
<rect x="3.56201" y="21" width="1" height="1" fill="white" stroke="none"/>
<rect x="3.56201" y="23" width="1" height="1" fill="white" stroke="none"/>
<rect x="3.56201" y="25" width="1" height="1" fill="white" stroke="none"/>
<rect x="3.56201" y="27" width="1" height="1" fill="white" stroke="none"/>
<rect x="3.56201" y="29" width="1" height="1" fill="white" stroke="none"/>
<rect x="3.56201" y="31" width="1" height="1" fill="white" stroke="none"/>
<rect x="3.56201" y="33" width="1" height="1" fill="white" stroke="none"/>
<rect x="3.56201" y="35" width="1" height="1" fill="white" stroke="none"/>
<rect x="3.56201" y="37" width="1" height="1" fill="white" stroke="none"/>
<rect x="3.56201" y="39" width="1" height="1" fill="white" stroke="none"/>
<rect x="15.562" y="17" width="1" height="1" fill="white" stroke="none"/>
<rect x="15.562" y="19" width="1" height="1" fill="white" stroke="none"/>
<rect x="15.562" y="21" width="1" height="1" fill="white" stroke="none"/>
<rect x="15.562" y="23" width="1" height="1" fill="white" stroke="none"/>
<rect x="15.562" y="25" width="1" height="1" fill="white" stroke="none"/>
<rect x="15.562" y="27" width="1" height="1" fill="white" stroke="none"/>
<rect x="15.562" y="29" width="1" height="1" fill="white" stroke="none"/>
<rect x="15.562" y="31" width="1" height="1" fill="white" stroke="none"/>
<rect x="15.562" y="33" width="1" height="1" fill="white" stroke="none"/>
<rect x="15.562" y="35" width="1" height="1" fill="white" stroke="none"/>
<rect x="15.562" y="37" width="1" height="1" fill="white" stroke="none"/>
<rect x="15.562" y="39" width="1" height="1" fill="white" stroke="none"/>
<rect x="5.56201" y="19" width="4" height="1" fill="white" stroke="none"/>
<rect x="10.562" y="19" width="4" height="1" fill="white" stroke="none"/>
<rect x="5.56201" y="21" width="4" height="1" fill="white" stroke="none"/>
<rect x="10.562" y="21" width="4" height="1" fill="white" stroke="none"/>
<rect x="5.56201" y="23" width="4" height="1" fill="white" stroke="none"/>
<rect x="10.562" y="23" width="4" height="1" fill="white" stroke="none"/>
<rect x="5.56201" y="25" width="4" height="1" fill="white" stroke="none"/>
<rect x="10.562" y="25" width="4" height="1" fill="white" stroke="none"/>
<rect x="5.56201" y="27" width="4" height="1" fill="white" stroke="none"/>
<rect x="10.562" y="27" width="4" height="1" fill="white" stroke="none"/>
<rect x="5.56201" y="29" width="4" height="1" fill="white" stroke="none"/>
<rect x="10.562" y="29" width="4" height="1" fill="white" stroke="none"/>
<rect x="5.56201" y="31" width="4" height="1" fill="white" stroke="none"/>
<rect x="10.562" y="31" width="4" height="1" fill="white" stroke="none"/>
<rect x="5.56201" y="33" width="4" height="1" fill="white" stroke="none"/>
<rect x="10.562" y="33" width="4" height="1" fill="white" stroke="none"/>
<rect x="5.56201" y="35" width="4" height="1" fill="white" stroke="none"/>
<rect x="10.562" y="35" width="4" height="1" fill="white" stroke="none"/>
<rect x="5.56201" y="37" width="4" height="1" fill="white" stroke="none"/>
<rect x="10.562" y="37" width="4" height="1" fill="white" stroke="none"/>
<rect x="5.56201" y="39" width="4" height="1" fill="white" stroke="none"/>
<rect x="10.562" y="39" width="4" height="1" fill="white" stroke="none"/>
</symbol>

<symbol id="typeStructure_privateLucratif" viewBox="0 0 20 25" xmlns="http://www.w3.org/2000/svg">
<path d="M3.12402 8H16.124V23H3.12402V8Z" stroke="none"/>
<path d="M9.79077 10.5L9.79077 1" fill="none" stroke-linecap="round" stroke-linejoin="round"/>
<path d="M9.79077 1.44444C9.79077 1.44444 9.40188 1 8.6241 1C7.84633 1 7.45744 1.44444 7.45744 1.44444V4.11111C7.45744 4.11111 7.84633 3.66667 8.6241 3.66667C9.40188 3.66667 9.79077 4.11111 9.79077 4.11111V1.44444Z" stroke="none"/>
<path d="M7.45728 4.44444C7.45728 4.44444 7.06839 4.88889 6.29061 4.88889C5.51283 4.88889 5.12394 4.44444 5.12394 4.44444V1.77777C5.12394 1.77777 5.51283 2.22222 6.29061 2.22222C7.06839 2.22222 7.45728 1.77777 7.45728 1.77777V4.44444Z" stroke="none"/>
<rect x="0.124023" y="24" width="19" height="1" stroke="none"/>
<rect x="4.12402" y="11" width="2" height="1" fill="white" stroke="none"/>
<rect x="7.12402" y="11" width="2" height="1" fill="white" stroke="none"/>
<rect x="10.124" y="11" width="2" height="1" fill="white" stroke="none"/>
<rect x="13.124" y="11" width="2" height="1" fill="white" stroke="none"/>
<rect x="4.12402" y="14" width="2" height="1" fill="white" stroke="none"/>
<rect x="7.12402" y="14" width="2" height="1" fill="white" stroke="none"/>
<rect x="10.124" y="14" width="2" height="1" fill="white" stroke="none"/>
<rect x="13.124" y="14" width="2" height="1" fill="white" stroke="none"/>
<rect x="4.12402" y="17" width="2" height="1" fill="white" stroke="none"/>
<rect x="7.12402" y="17" width="2" height="1" fill="white" stroke="none"/>
<rect x="10.124" y="17" width="2" height="1" fill="white" stroke="none"/>
<rect x="13.124" y="17" width="2" height="1" fill="white" stroke="none"/>
<rect x="4.12402" y="20" width="2" height="1" fill="white" stroke="none"/>
<rect x="7.12402" y="20" width="2" height="1" fill="white" stroke="none"/>
<rect x="10.124" y="20" width="2" height="1" fill="white" stroke="none"/>
<rect x="13.124" y="20" width="2" height="1" fill="white" stroke="none"/>
</symbol>

<symbol id="accesLibre" viewBox="0 0 44 44" xmlns="http://www.w3.org/2000/svg">
<rect x="22" y="8" width="10" height="28" fill="white" stroke="#4F4F4F" stroke-width="2"/>
<path fill-rule="evenodd" clip-rule="evenodd" d="M10 5V37L23 43.5L23 0.5L10 5ZM19 23C19 21.8954 19.8954 21 21 21V25C19.8954 25 19 24.1046 19 23Z" stroke="none"/>
<rect x="33" y="35" width="3" height="2" fill="#4F4F4F" stroke="none"/>
<rect x="7" y="35" width="3" height="2" fill="#4F4F4F" stroke="none"/>
</symbol>

<symbol id="surRdv" viewBox="0 0 44 44" xmlns="http://www.w3.org/2000/svg">
<path fill-rule="evenodd" clip-rule="evenodd" d="M13.1111 6C12.1293 6 11.3333 6.79594 11.3333 7.77778V9.55556H7.77778C6.79594 9.55556 6 10.3515 6 11.3333V36.2222C6 37.2041 6.79594 38 7.77778 38H36.2222C37.2041 38 38 37.2041 38 36.2222V11.3333C38 10.3515 37.2041 9.55556 36.2222 9.55556H32.6667V7.77778C32.6667 6.79594 31.8707 6 30.8889 6C29.9071 6 29.1111 6.79594 29.1111 7.77778V9.55556H14.8889V7.77778C14.8889 6.79594 14.093 6 13.1111 6ZM7.77778 16.2222V36.2222H36.2222V16.2222H7.77778Z" fill="#4F4F4F" stroke="none"/>
<rect x="7.77783" y="15.7778" width="28.4444" height="20.4444" fill="white" stroke="none"/>
<path d="M16.6666 26.3636L20.8148 30L27.3333 22" fill="none" stroke-width="4" stroke-linecap="round" stroke-linejoin="round"/>
</symbol>

<symbol id="telephoneVisio" viewBox="0 0 44 44" xmlns="http://www.w3.org/2000/svg">
<g clip-path="url(#clip0)">
<path d="M25.0419 30.0674L20.6788 34.4303L11.9528 25.7043L16.3158 21.3413C16.8339 20.8232 16.8339 19.9845 16.3158 19.4678L9.6911 12.8431C9.17304 12.325 8.33434 12.325 7.81763 12.8431L3.45459 17.2061C3.45459 31.8693 14.5112 42.9285 29.177 42.9285L33.5401 38.5656C34.0581 38.0474 34.0581 37.2088 33.5401 36.692L26.9153 30.0674C26.3986 29.5506 25.5587 29.5506 25.0419 30.0674Z" fill="#4F4F4F" stroke="none"/>
<path fill-rule="evenodd" clip-rule="evenodd" d="M32.6799 24.3312C32.7893 21.4558 31.6409 18.5585 29.2978 16.5266C26.982 14.5183 23.9945 13.785 21.192 14.2656L19.7273 12.5443C23.4085 11.5374 27.5084 12.3275 30.6082 15.0156C33.7509 17.741 35.1078 21.7601 34.5737 25.5945L32.6799 24.3312Z" stroke="none"/>
<path fill-rule="evenodd" clip-rule="evenodd" d="M26.935 24.7419C26.8751 23.2343 26.2165 21.7539 24.9866 20.6874C23.7682 19.6308 22.2271 19.1867 20.7391 19.3283L19.2476 17.5754C21.6325 16.923 24.2887 17.4349 26.2969 19.1764C28.333 20.9421 29.2121 23.546 28.866 26.0301L26.935 24.7419Z" stroke="none"/>
<path fill-rule="evenodd" clip-rule="evenodd" d="M38.9258 23.3934C39.2657 18.7937 37.5047 14.0969 33.7522 10.8427C30.0465 7.62914 25.2228 6.53725 20.7641 7.46158L19.3115 5.75444C24.6404 4.29671 30.5754 5.44046 35.0626 9.33177C39.6119 13.277 41.5761 19.095 40.8029 24.6457L38.9258 23.3934Z" stroke="none"/>
</g>
<defs>
<clipPath id="clip0">
<rect width="44" height="44" fill="white"/>
</clipPath>
</defs>
</symbol>

<symbol id="twitter" viewBox="0 0 22 22" xmlns="http://www.w3.org/2000/svg">
<path d="M19.6429 0C20.2976 0 20.8542 0.229167 21.3125 0.6875C21.7708 1.14583 22 1.70238 22 2.35714V19.6429C22 20.2976 21.7708 20.8542 21.3125 21.3125C20.8542 21.7708 20.2976 22 19.6429 22H2.35714C1.70238 22 1.14583 21.7708 0.6875 21.3125C0.229167 20.8542 0 20.2976 0 19.6429V2.35714C0 1.70238 0.229167 1.14583 0.6875 0.6875C1.14583 0.229167 1.70238 0 2.35714 0H19.6429ZM17.2366 7.80804C17.8586 7.3497 18.3988 6.79315 18.8571 6.13839C18.2351 6.4003 17.6131 6.56399 16.9911 6.62946C17.6786 6.20387 18.1533 5.61458 18.4152 4.86161C17.7604 5.25446 17.0729 5.51637 16.3527 5.64732C15.7307 4.95982 14.9613 4.61607 14.0446 4.61607C13.0298 4.61607 12.1949 5.00893 11.5402 5.79464C10.8854 6.58036 10.6726 7.51339 10.9018 8.59375C8.18452 8.43006 5.95833 7.3006 4.22321 5.20536C3.92857 5.69643 3.78125 6.23661 3.78125 6.82589C3.78125 7.15327 3.84673 7.49702 3.97768 7.85714C4.10863 8.18452 4.28869 8.49554 4.51786 8.79018C4.74702 9.08482 4.99256 9.33036 5.25446 9.52679C4.73065 9.49405 4.23958 9.34673 3.78125 9.08482V9.13393C3.78125 9.91964 4.02679 10.6071 4.51786 11.1964C5.00893 11.7857 5.63095 12.1622 6.38393 12.3259C5.9256 12.4241 5.43452 12.4405 4.91071 12.375C5.10714 13.0298 5.48363 13.5699 6.04018 13.9955C6.59673 14.3884 7.21875 14.5848 7.90625 14.5848C6.72768 15.5015 5.40179 15.9598 3.92857 15.9598C3.63393 15.9598 3.37202 15.9435 3.14286 15.9107C4.64881 16.8929 6.30208 17.3839 8.10268 17.3839C9.96875 17.3839 11.622 16.9092 13.0625 15.9598C14.503 15.0104 15.5506 13.8482 16.2054 12.4732C16.8929 11.0982 17.2366 9.67411 17.2366 8.20089C17.2366 8.0372 17.2366 7.90625 17.2366 7.80804Z" stroke="none"/>
</symbol>

<symbol id="facebook" viewBox="0 0 22 22" xmlns="http://www.w3.org/2000/svg">
<path d="M19.6429 0C20.2976 0 20.8542 0.229167 21.3125 0.6875C21.7708 1.14583 22 1.70238 22 2.35714V19.6429C22 20.2976 21.7708 20.8542 21.3125 21.3125C20.8542 21.7708 20.2976 22 19.6429 22H12.9152V14.5357H15.7634L16.3036 11H12.9152V8.69196C12.9152 7.44792 13.5699 6.82589 14.8795 6.82589H16.4018V3.83036C15.4851 3.66667 14.5848 3.58482 13.7009 3.58482C12.7515 3.58482 11.933 3.76488 11.2455 4.125C10.5908 4.48512 10.067 5.0253 9.67411 5.74554C9.28125 6.46577 9.08482 7.31696 9.08482 8.29911V11H5.99107V14.5357H9.08482V22H2.35714C1.70238 22 1.14583 21.7708 0.6875 21.3125C0.229167 20.8542 0 20.2976 0 19.6429V2.35714C0 1.70238 0.229167 1.14583 0.6875 0.6875C1.14583 0.229167 1.70238 0 2.35714 0H19.6429Z" stroke="none"/>
</symbol>

<symbol id="linkedin" viewBox="0 0 22 22" xmlns="http://www.w3.org/2000/svg">
<path d="M20.4286 0C20.8542 0 21.2143 0.16369 21.5089 0.491071C21.8363 0.785714 22 1.14583 22 1.57143V20.4286C22 20.8542 21.8363 21.2143 21.5089 21.5089C21.2143 21.8363 20.8542 22 20.4286 22H1.57143C1.14583 22 0.769345 21.8363 0.441964 21.5089C0.147321 21.2143 0 20.8542 0 20.4286V1.57143C0 1.14583 0.147321 0.785714 0.441964 0.491071C0.769345 0.16369 1.14583 0 1.57143 0H20.4286ZM6.62946 18.8571H6.67857V8.34821H3.38839V18.8571H6.62946ZM3.68304 6.38393C4.04315 6.74405 4.48512 6.92411 5.00893 6.92411C5.53274 6.92411 5.9747 6.74405 6.33482 6.38393C6.72768 5.99107 6.92411 5.54911 6.92411 5.05804C6.92411 4.53423 6.72768 4.09226 6.33482 3.73214C5.9747 3.33929 5.53274 3.14286 5.00893 3.14286C4.48512 3.14286 4.04315 3.33929 3.68304 3.73214C3.32292 4.09226 3.14286 4.53423 3.14286 5.05804C3.14286 5.54911 3.32292 5.99107 3.68304 6.38393ZM18.8571 18.8571V13.1116C18.8571 12.3259 18.808 11.6548 18.7098 11.0982C18.6116 10.5417 18.4315 10.0342 18.1696 9.57589C17.9077 9.08482 17.4985 8.7247 16.942 8.49554C16.4182 8.23363 15.7634 8.10268 14.9777 8.10268C14.2247 8.10268 13.5699 8.26637 13.0134 8.59375C12.4896 8.92113 12.1131 9.31399 11.8839 9.77232H11.8348V8.34821H8.69196V18.8571H11.9821V13.6518C11.9821 12.8333 12.1131 12.1786 12.375 11.6875C12.6369 11.1964 13.1443 10.9509 13.8973 10.9509C14.2902 10.9509 14.6176 11.0327 14.8795 11.1964C15.1414 11.3601 15.3051 11.6057 15.3705 11.933C15.4688 12.2604 15.5342 12.5551 15.567 12.817C15.5997 13.0461 15.6161 13.3571 15.6161 13.75V18.8571H18.8571Z" stroke="none"/>
</symbol>

<symbol id="instagram" viewBox="0 0 22 22" xmlns="http://www.w3.org/2000/svg">
<path d="M10.8207 13.4828C10.0871 13.4828 9.45997 13.2226 8.93937 12.7019C8.41877 12.1813 8.15846 11.5542 8.15846 10.8207C8.15846 10.0871 8.41877 9.45998 8.93937 8.93937C9.45997 8.41875 10.0871 8.15846 10.8207 8.15846C11.5542 8.15846 12.1813 8.41875 12.7019 8.93937C13.2225 9.45998 13.4828 10.0871 13.4828 10.8207C13.4828 11.5542 13.2225 12.1813 12.7019 12.7019C12.1813 13.2226 11.5542 13.4828 10.8207 13.4828Z" stroke="none"/>
<path fill-rule="evenodd" clip-rule="evenodd" d="M17.2099 14.7962C17.1626 15.0802 17.1034 15.3168 17.0324 15.5061C16.7485 16.216 16.2397 16.7248 15.5061 17.0324C15.3168 17.1034 15.0683 17.1626 14.7607 17.2099C14.4767 17.2572 14.1218 17.2927 13.6958 17.3164C13.2935 17.3401 12.9622 17.3519 12.7019 17.3519H8.90387C8.66724 17.3519 8.33594 17.3401 7.90999 17.3164C7.50769 17.2927 7.15274 17.2572 6.84511 17.2099C6.56114 17.1626 6.32451 17.1034 6.13519 17.0324C5.42527 16.7485 4.91649 16.2397 4.60887 15.5061C4.56153 15.3405 4.51421 15.1275 4.46688 14.8672C4.41955 14.6069 4.38405 14.3584 4.36039 14.1218C4.33673 13.8615 4.31306 13.5538 4.2894 13.1989V8.93937C4.2894 8.67907 4.30124 8.34776 4.3249 7.94548C4.34856 7.51953 4.38405 7.16457 4.43139 6.8806C4.47872 6.57296 4.53787 6.32449 4.60887 6.13519C4.89283 5.4016 5.40161 4.89283 6.13519 4.60887C6.32451 4.53787 6.56114 4.4787 6.84511 4.43139C7.15274 4.38407 7.50769 4.34857 7.90999 4.3249C8.33594 4.30122 8.67906 4.2894 8.93937 4.2894H12.7019C12.9622 4.2894 13.2935 4.30122 13.6958 4.3249C14.1218 4.34857 14.4767 4.38407 14.7607 4.43139C15.0683 4.4787 15.3168 4.53787 15.5061 4.60887C16.2397 4.89283 16.7485 5.4016 17.0324 6.13519C17.1034 6.32449 17.1626 6.57296 17.2099 6.8806C17.2573 7.16457 17.2927 7.51953 17.3164 7.94548C17.3401 8.34776 17.3519 8.67907 17.3519 8.93937V12.7019C17.3519 12.9622 17.3401 13.3054 17.3164 13.7313C17.2927 14.1336 17.2573 14.4886 17.2099 14.7962ZM10.8207 6.73862C9.68478 6.73862 8.71456 7.1409 7.90999 7.94548C7.12908 8.72639 6.73862 9.68478 6.73862 10.8207C6.73862 11.9565 7.12908 12.9267 7.90999 13.7313C8.71456 14.5122 9.68478 14.9027 10.8207 14.9027C11.9565 14.9027 12.9149 14.5122 13.6958 13.7313C14.5004 12.9267 14.9027 11.9565 14.9027 10.8207C14.9027 9.68478 14.5004 8.72639 13.6958 7.94548C12.9149 7.1409 11.9565 6.73862 10.8207 6.73862ZM16.0031 6.56114C16.0031 6.30085 15.9084 6.08787 15.7191 5.92221C15.5534 5.73291 15.3405 5.63825 15.0802 5.63825C14.8199 5.63825 14.5951 5.73291 14.4057 5.92221C14.2164 6.08787 14.1218 6.30085 14.1218 6.56114C14.1218 6.82143 14.2164 7.04626 14.4057 7.23556C14.5951 7.42487 14.8199 7.51953 15.0802 7.51953C15.3405 7.51953 15.5534 7.42487 15.7191 7.23556C15.9084 7.04626 16.0031 6.82143 16.0031 6.56114Z" stroke="none"/>
<path fill-rule="evenodd" clip-rule="evenodd" d="M1.91304 0C0.8565 0 0 0.856485 0 1.91304V20.087C0 21.1435 0.8565 22 1.91304 22H20.087C21.1435 22 22 21.1435 22 20.087V1.91304C22 0.856485 21.1435 0 20.087 0H1.91304ZM18.7717 10.8207C18.7717 9.28251 18.7599 8.19395 18.7362 7.55503C18.6653 6.11152 18.2275 4.99932 17.4229 4.21841C16.642 3.41383 15.5298 2.97605 14.0863 2.90506C13.4474 2.88139 12.3588 2.86957 10.8207 2.86957C9.28249 2.86957 8.19395 2.88139 7.55503 2.90506C6.11153 2.97605 4.99932 3.41383 4.21841 4.21841C3.4375 4.99932 3.01155 6.09969 2.94056 7.51953C2.89322 8.18213 2.86957 9.28251 2.86957 10.8207C2.86957 12.3588 2.89322 13.4474 2.94056 14.0863C2.94056 14.5595 2.97605 14.9737 3.04704 15.3286C3.1417 15.6836 3.28368 16.0504 3.473 16.429C3.66231 16.8076 3.91078 17.1389 4.21841 17.4229C4.99932 18.2038 6.11153 18.6298 7.55503 18.7007C8.19395 18.7481 9.28249 18.7717 10.8207 18.7717C12.3588 18.7717 13.4474 18.7481 14.0863 18.7007C15.5298 18.6534 16.642 18.2393 17.4229 17.4584C18.2275 16.6538 18.6653 15.5298 18.7362 14.0863C18.7599 13.4474 18.7717 12.3588 18.7717 10.8207Z" stroke="none"/>
</symbol>


<symbol id="add" viewBox="0 0 24 25" xmlns="http://www.w3.org/2000/svg">
<path d="M12 5.5C11.4477 5.5 11 5.94772 11 6.5V11.5H6C5.44772 11.5 5 11.9477 5 12.5C5 13.0523 5.44772 13.5 6 13.5H11V18.5C11 19.0523 11.4477 19.5 12 19.5C12.5523 19.5 13 19.0523 13 18.5V13.5H18C18.5523 13.5 19 13.0523 19 12.5C19 11.9477 18.5523 11.5 18 11.5H13V6.5C13 5.94772 12.5523 5.5 12 5.5Z" stroke="none"/>
</symbol>


</svg>