<svg width="180" height="180" viewBox="0 0 180 180" fill="none" xmlns="http://www.w3.org/2000/svg">
<mask id="path-1-outside-1_5987_73910" maskUnits="userSpaceOnUse" x="16" y="14" width="109" height="141" fill="black">
<rect fill="white" x="16" y="14" width="109" height="141"/>
<path fill-rule="evenodd" clip-rule="evenodd" d="M28.5545 44.4103C21.5551 47.3434 17 54.1911 17 61.7802V153.793L60.9444 153.793V125.543C60.9444 120.343 65.1604 116.127 70.3611 116.127C75.5618 116.127 79.7778 120.343 79.7778 125.543V153.793L123.722 153.793V62.1604C123.722 54.3809 118.939 47.402 111.683 44.5954L102.098 40.8877C99.4214 39.8523 97.0166 38.2188 95.0676 36.1119L79.265 19.0294C74.4112 13.7825 66.1626 13.6404 61.1309 18.717L43.3554 36.6511C41.6129 38.4091 39.541 39.8064 37.258 40.7631L28.5545 44.4103ZM79.7778 37.6544C79.7778 42.8551 75.5618 47.071 70.3611 47.071C65.1604 47.071 60.9444 42.8551 60.9444 37.6544C60.9444 32.4537 65.1604 28.2377 70.3611 28.2377C75.5618 28.2377 79.7778 32.4537 79.7778 37.6544ZM37.4028 109.443C32.9491 110.19 29.5556 114.064 29.5556 118.73V127.113H37.4028V109.443ZM29.5556 146.98V130.252H37.4028V146.98H29.5556ZM40.5417 146.98V130.252H48.3889V146.98H40.5417ZM48.3889 118.73V127.113H40.5417V109.443C44.9953 110.19 48.3889 114.064 48.3889 118.73ZM92.3333 118.73C92.3333 114.064 95.7269 110.19 100.181 109.443V127.113H92.3333V118.73ZM92.3333 130.252V146.98H100.181V130.252H92.3333ZM103.319 130.252V146.98H111.167V130.252H103.319ZM111.167 127.113V118.73C111.167 114.064 107.773 110.19 103.319 109.443V127.113H111.167ZM100.181 59.6266C95.7269 60.3738 92.3333 64.2471 92.3333 68.9131V77.2961H100.181V59.6266ZM92.3333 97.1631V80.435H100.181V97.1631H92.3333ZM103.319 97.1631V80.435H111.167V97.1631H103.319ZM111.167 68.9131V77.2961H103.319V59.6266C107.773 60.3738 111.167 64.2471 111.167 68.9131ZM60.9444 68.9131C60.9444 64.2471 64.338 60.3738 68.7917 59.6266V77.2961H60.9444V68.9131ZM60.9444 80.435V97.1631H68.7917V80.435H60.9444ZM71.9306 80.435V97.1631H79.7778V80.435H71.9306ZM79.7778 77.2961V68.9131C79.7778 64.2471 76.3842 60.3738 71.9306 59.6266V77.2961H79.7778ZM37.4028 59.6266C32.9491 60.3738 29.5556 64.2471 29.5556 68.9131V77.2961H37.4028V59.6266ZM29.5556 97.1631V80.435H37.4028V97.1631H29.5556ZM40.5417 97.1631V80.435H48.3889V97.1631H40.5417ZM48.3889 68.9131V77.2961H40.5417V59.6266C44.9953 60.3738 48.3889 64.2471 48.3889 68.9131Z"/>
</mask>
<path fill-rule="evenodd" clip-rule="evenodd" d="M28.5545 44.4103C21.5551 47.3434 17 54.1911 17 61.7802V153.793L60.9444 153.793V125.543C60.9444 120.343 65.1604 116.127 70.3611 116.127C75.5618 116.127 79.7778 120.343 79.7778 125.543V153.793L123.722 153.793V62.1604C123.722 54.3809 118.939 47.402 111.683 44.5954L102.098 40.8877C99.4214 39.8523 97.0166 38.2188 95.0676 36.1119L79.265 19.0294C74.4112 13.7825 66.1626 13.6404 61.1309 18.717L43.3554 36.6511C41.6129 38.4091 39.541 39.8064 37.258 40.7631L28.5545 44.4103ZM79.7778 37.6544C79.7778 42.8551 75.5618 47.071 70.3611 47.071C65.1604 47.071 60.9444 42.8551 60.9444 37.6544C60.9444 32.4537 65.1604 28.2377 70.3611 28.2377C75.5618 28.2377 79.7778 32.4537 79.7778 37.6544ZM37.4028 109.443C32.9491 110.19 29.5556 114.064 29.5556 118.73V127.113H37.4028V109.443ZM29.5556 146.98V130.252H37.4028V146.98H29.5556ZM40.5417 146.98V130.252H48.3889V146.98H40.5417ZM48.3889 118.73V127.113H40.5417V109.443C44.9953 110.19 48.3889 114.064 48.3889 118.73ZM92.3333 118.73C92.3333 114.064 95.7269 110.19 100.181 109.443V127.113H92.3333V118.73ZM92.3333 130.252V146.98H100.181V130.252H92.3333ZM103.319 130.252V146.98H111.167V130.252H103.319ZM111.167 127.113V118.73C111.167 114.064 107.773 110.19 103.319 109.443V127.113H111.167ZM100.181 59.6266C95.7269 60.3738 92.3333 64.2471 92.3333 68.9131V77.2961H100.181V59.6266ZM92.3333 97.1631V80.435H100.181V97.1631H92.3333ZM103.319 97.1631V80.435H111.167V97.1631H103.319ZM111.167 68.9131V77.2961H103.319V59.6266C107.773 60.3738 111.167 64.2471 111.167 68.9131ZM60.9444 68.9131C60.9444 64.2471 64.338 60.3738 68.7917 59.6266V77.2961H60.9444V68.9131ZM60.9444 80.435V97.1631H68.7917V80.435H60.9444ZM71.9306 80.435V97.1631H79.7778V80.435H71.9306ZM79.7778 77.2961V68.9131C79.7778 64.2471 76.3842 60.3738 71.9306 59.6266V77.2961H79.7778ZM37.4028 59.6266C32.9491 60.3738 29.5556 64.2471 29.5556 68.9131V77.2961H37.4028V59.6266ZM29.5556 97.1631V80.435H37.4028V97.1631H29.5556ZM40.5417 97.1631V80.435H48.3889V97.1631H40.5417ZM48.3889 68.9131V77.2961H40.5417V59.6266C44.9953 60.3738 48.3889 64.2471 48.3889 68.9131Z" fill="#DA3635"/>
<path d="M28.5545 44.4103L28.941 45.3326L28.5545 44.4103ZM17 153.793H16V154.793H17L17 153.793ZM60.9444 153.793V154.793H61.9444V153.793H60.9444ZM79.7778 153.793H78.7778V154.793H79.7778V153.793ZM123.722 153.793V154.793H124.722V153.793H123.722ZM111.683 44.5954L111.323 45.528L111.683 44.5954ZM102.098 40.8877L102.459 39.9551L102.098 40.8877ZM95.0676 36.1119L95.8017 35.4328L95.0676 36.1119ZM79.265 19.0294L79.9991 18.3504V18.3504L79.265 19.0294ZM61.1309 18.717L61.8411 19.4209L61.1309 18.717ZM43.3554 36.6511L44.0657 37.355L43.3554 36.6511ZM37.258 40.7631L36.8716 39.8408L37.258 40.7631ZM37.4028 109.443H38.4028V108.261L37.2373 108.457L37.4028 109.443ZM29.5556 127.113H28.5556V128.113H29.5556V127.113ZM37.4028 127.113V128.113H38.4028V127.113H37.4028ZM29.5556 146.98H28.5556V147.98H29.5556V146.98ZM29.5556 130.252V129.252H28.5556V130.252H29.5556ZM37.4028 130.252H38.4028V129.252H37.4028V130.252ZM37.4028 146.98V147.98H38.4028V146.98H37.4028ZM40.5417 146.98H39.5417V147.98H40.5417V146.98ZM40.5417 130.252V129.252H39.5417V130.252H40.5417ZM48.3889 130.252H49.3889V129.252H48.3889V130.252ZM48.3889 146.98V147.98H49.3889V146.98H48.3889ZM48.3889 127.113V128.113H49.3889V127.113H48.3889ZM40.5417 127.113H39.5417V128.113H40.5417V127.113ZM40.5417 109.443L40.7071 108.457L39.5417 108.261V109.443H40.5417ZM100.181 109.443H101.181V108.261L100.015 108.457L100.181 109.443ZM100.181 127.113V128.113H101.181V127.113H100.181ZM92.3333 127.113H91.3333V128.113H92.3333V127.113ZM92.3333 130.252V129.252H91.3333V130.252H92.3333ZM92.3333 146.98H91.3333V147.98H92.3333V146.98ZM100.181 146.98V147.98H101.181V146.98H100.181ZM100.181 130.252H101.181V129.252H100.181V130.252ZM103.319 130.252V129.252H102.319V130.252H103.319ZM103.319 146.98H102.319V147.98H103.319V146.98ZM111.167 146.98V147.98H112.167V146.98H111.167ZM111.167 130.252H112.167V129.252H111.167V130.252ZM111.167 127.113V128.113H112.167V127.113H111.167ZM103.319 109.443L103.485 108.457L102.319 108.261V109.443H103.319ZM103.319 127.113H102.319V128.113H103.319V127.113ZM100.181 59.6266H101.181V58.4449L100.015 58.6404L100.181 59.6266ZM92.3333 77.2961H91.3333V78.2961H92.3333V77.2961ZM100.181 77.2961V78.2961H101.181V77.2961H100.181ZM92.3333 97.1631H91.3333V98.1631H92.3333V97.1631ZM92.3333 80.435V79.435H91.3333V80.435H92.3333ZM100.181 80.435H101.181V79.435H100.181V80.435ZM100.181 97.1631V98.1631H101.181V97.1631H100.181ZM103.319 97.1631H102.319V98.1631H103.319V97.1631ZM103.319 80.435V79.435H102.319V80.435H103.319ZM111.167 80.435H112.167V79.435H111.167V80.435ZM111.167 97.1631V98.1631H112.167V97.1631H111.167ZM111.167 77.2961V78.2961H112.167V77.2961H111.167ZM103.319 77.2961H102.319V78.2961H103.319V77.2961ZM103.319 59.6266L103.485 58.6404L102.319 58.4449V59.6266H103.319ZM68.7917 59.6266H69.7917V58.4449L68.6262 58.6404L68.7917 59.6266ZM68.7917 77.2961V78.2961H69.7917V77.2961H68.7917ZM60.9444 77.2961H59.9444V78.2961H60.9444V77.2961ZM60.9444 80.435V79.435H59.9444V80.435H60.9444ZM60.9444 97.1631H59.9444V98.1631H60.9444V97.1631ZM68.7917 97.1631V98.1631H69.7917V97.1631H68.7917ZM68.7917 80.435H69.7917V79.435H68.7917V80.435ZM71.9306 80.435V79.435H70.9306V80.435H71.9306ZM71.9306 97.1631H70.9306V98.1631H71.9306V97.1631ZM79.7778 97.1631V98.1631H80.7778V97.1631H79.7778ZM79.7778 80.435H80.7778V79.435H79.7778V80.435ZM79.7778 77.2961V78.2961H80.7778V77.2961H79.7778ZM71.9306 59.6266L72.096 58.6404L70.9306 58.4449V59.6266H71.9306ZM71.9306 77.2961H70.9306V78.2961H71.9306V77.2961ZM37.4028 59.6266H38.4028V58.4449L37.2373 58.6404L37.4028 59.6266ZM29.5556 77.2961H28.5556V78.2961H29.5556V77.2961ZM37.4028 77.2961V78.2961H38.4028V77.2961H37.4028ZM29.5556 97.1631H28.5556V98.1631H29.5556V97.1631ZM29.5556 80.435V79.435H28.5556V80.435H29.5556ZM37.4028 80.435H38.4028V79.435H37.4028V80.435ZM37.4028 97.1631V98.1631H38.4028V97.1631H37.4028ZM40.5417 97.1631H39.5417V98.1631H40.5417V97.1631ZM40.5417 80.435V79.435H39.5417V80.435H40.5417ZM48.3889 80.435H49.3889V79.435H48.3889V80.435ZM48.3889 97.1631V98.1631H49.3889V97.1631H48.3889ZM48.3889 77.2961V78.2961H49.3889V77.2961H48.3889ZM40.5417 77.2961H39.5417V78.2961H40.5417V77.2961ZM40.5417 59.6266L40.7071 58.6404L39.5417 58.4449V59.6266H40.5417ZM28.168 43.488C20.7969 46.5768 16 53.7881 16 61.7802H18C18 54.594 22.3132 48.11 28.941 45.3326L28.168 43.488ZM16 61.7802V153.793H18V61.7802H16ZM17 154.793L60.9444 154.793V152.793L17 152.793L17 154.793ZM61.9444 153.793V125.543H59.9444V153.793H61.9444ZM61.9444 125.543C61.9444 120.895 65.7127 117.127 70.3611 117.127V115.127C64.6081 115.127 59.9444 119.79 59.9444 125.543H61.9444ZM70.3611 117.127C75.0095 117.127 78.7778 120.895 78.7778 125.543H80.7778C80.7778 119.79 76.1141 115.127 70.3611 115.127V117.127ZM78.7778 125.543V153.793H80.7778V125.543H78.7778ZM79.7778 154.793L123.722 154.793V152.793L79.7778 152.793V154.793ZM124.722 153.793V62.1604H122.722V153.793H124.722ZM124.722 62.1604C124.722 53.9678 119.685 46.6183 112.044 43.6627L111.323 45.528C118.193 48.1856 122.722 54.794 122.722 62.1604H124.722ZM112.044 43.6627L102.459 39.9551L101.737 41.8204L111.323 45.528L112.044 43.6627ZM102.459 39.9551C99.9243 38.9746 97.6472 37.4278 95.8017 35.4328L94.3335 36.791C96.386 39.0097 98.9185 40.73 101.737 41.8204L102.459 39.9551ZM95.8017 35.4328L79.9991 18.3504L78.531 19.7085L94.3335 36.791L95.8017 35.4328ZM79.9991 18.3504C74.7587 12.6855 65.8531 12.5321 60.4206 18.013L61.8411 19.4209C66.4721 14.7487 74.0637 14.8795 78.531 19.7085L79.9991 18.3504ZM60.4206 18.013L42.6452 35.9471L44.0657 37.355L61.8411 19.4209L60.4206 18.013ZM42.6452 35.9471C40.9952 37.6118 39.0333 38.9349 36.8716 39.8408L37.6445 41.6854C40.0487 40.6779 42.2307 39.2064 44.0657 37.355L42.6452 35.9471ZM36.8716 39.8408L28.168 43.488L28.941 45.3326L37.6445 41.6854L36.8716 39.8408ZM78.7778 37.6544C78.7778 42.3028 75.0095 46.071 70.3611 46.071V48.071C76.1141 48.071 80.7778 43.4073 80.7778 37.6544H78.7778ZM70.3611 46.071C65.7127 46.071 61.9444 42.3028 61.9444 37.6544H59.9444C59.9444 43.4073 64.6081 48.071 70.3611 48.071V46.071ZM61.9444 37.6544C61.9444 33.006 65.7127 29.2377 70.3611 29.2377V27.2377C64.6081 27.2377 59.9444 31.9014 59.9444 37.6544H61.9444ZM70.3611 29.2377C75.0095 29.2377 78.7778 33.006 78.7778 37.6544H80.7778C80.7778 31.9014 76.1141 27.2377 70.3611 27.2377V29.2377ZM37.2373 108.457C32.31 109.284 28.5556 113.567 28.5556 118.73H30.5556C30.5556 114.56 33.5883 111.097 37.5682 110.429L37.2373 108.457ZM28.5556 118.73V127.113H30.5556V118.73H28.5556ZM29.5556 128.113H37.4028V126.113H29.5556V128.113ZM38.4028 127.113V109.443H36.4028V127.113H38.4028ZM30.5556 146.98V130.252H28.5556V146.98H30.5556ZM29.5556 131.252H37.4028V129.252H29.5556V131.252ZM36.4028 130.252V146.98H38.4028V130.252H36.4028ZM37.4028 145.98H29.5556V147.98H37.4028V145.98ZM41.5417 146.98V130.252H39.5417V146.98H41.5417ZM40.5417 131.252H48.3889V129.252H40.5417V131.252ZM47.3889 130.252V146.98H49.3889V130.252H47.3889ZM48.3889 145.98H40.5417V147.98H48.3889V145.98ZM47.3889 118.73V127.113H49.3889V118.73H47.3889ZM48.3889 126.113H40.5417V128.113H48.3889V126.113ZM41.5417 127.113V109.443H39.5417V127.113H41.5417ZM40.3762 110.429C44.3561 111.097 47.3889 114.56 47.3889 118.73H49.3889C49.3889 113.567 45.6345 109.284 40.7071 108.457L40.3762 110.429ZM93.3333 118.73C93.3333 114.56 96.3661 111.097 100.346 110.429L100.015 108.457C95.0878 109.284 91.3333 113.567 91.3333 118.73H93.3333ZM99.1806 109.443V127.113H101.181V109.443H99.1806ZM100.181 126.113H92.3333V128.113H100.181V126.113ZM93.3333 127.113V118.73H91.3333V127.113H93.3333ZM91.3333 130.252V146.98H93.3333V130.252H91.3333ZM92.3333 147.98H100.181V145.98H92.3333V147.98ZM101.181 146.98V130.252H99.1806V146.98H101.181ZM100.181 129.252H92.3333V131.252H100.181V129.252ZM102.319 130.252V146.98H104.319V130.252H102.319ZM103.319 147.98H111.167V145.98H103.319V147.98ZM112.167 146.98V130.252H110.167V146.98H112.167ZM111.167 129.252H103.319V131.252H111.167V129.252ZM112.167 127.113V118.73H110.167V127.113H112.167ZM112.167 118.73C112.167 113.567 108.412 109.284 103.485 108.457L103.154 110.429C107.134 111.097 110.167 114.56 110.167 118.73H112.167ZM102.319 109.443V127.113H104.319V109.443H102.319ZM103.319 128.113H111.167V126.113H103.319V128.113ZM100.015 58.6404C95.0878 59.467 91.3333 63.7506 91.3333 68.9131H93.3333C93.3333 64.7436 96.3661 61.2805 100.346 60.6128L100.015 58.6404ZM91.3333 68.9131V77.2961H93.3333V68.9131H91.3333ZM92.3333 78.2961H100.181V76.2961H92.3333V78.2961ZM101.181 77.2961V59.6266H99.1806V77.2961H101.181ZM93.3333 97.1631V80.435H91.3333V97.1631H93.3333ZM92.3333 81.435H100.181V79.435H92.3333V81.435ZM99.1806 80.435V97.1631H101.181V80.435H99.1806ZM100.181 96.1631H92.3333V98.1631H100.181V96.1631ZM104.319 97.1631V80.435H102.319V97.1631H104.319ZM103.319 81.435H111.167V79.435H103.319V81.435ZM110.167 80.435V97.1631H112.167V80.435H110.167ZM111.167 96.1631H103.319V98.1631H111.167V96.1631ZM110.167 68.9131V77.2961H112.167V68.9131H110.167ZM111.167 76.2961H103.319V78.2961H111.167V76.2961ZM104.319 77.2961V59.6266H102.319V77.2961H104.319ZM103.154 60.6128C107.134 61.2805 110.167 64.7436 110.167 68.9131H112.167C112.167 63.7506 108.412 59.467 103.485 58.6404L103.154 60.6128ZM61.9444 68.9131C61.9444 64.7436 64.9772 61.2805 68.9571 60.6128L68.6262 58.6404C63.6989 59.467 59.9444 63.7506 59.9444 68.9131H61.9444ZM67.7917 59.6266V77.2961H69.7917V59.6266H67.7917ZM68.7917 76.2961H60.9444V78.2961H68.7917V76.2961ZM61.9444 77.2961V68.9131H59.9444V77.2961H61.9444ZM59.9444 80.435V97.1631H61.9444V80.435H59.9444ZM60.9444 98.1631H68.7917V96.1631H60.9444V98.1631ZM69.7917 97.1631V80.435H67.7917V97.1631H69.7917ZM68.7917 79.435H60.9444V81.435H68.7917V79.435ZM70.9306 80.435V97.1631H72.9306V80.435H70.9306ZM71.9306 98.1631H79.7778V96.1631H71.9306V98.1631ZM80.7778 97.1631V80.435H78.7778V97.1631H80.7778ZM79.7778 79.435H71.9306V81.435H79.7778V79.435ZM80.7778 77.2961V68.9131H78.7778V77.2961H80.7778ZM80.7778 68.9131C80.7778 63.7506 77.0234 59.467 72.096 58.6404L71.7651 60.6128C75.745 61.2805 78.7778 64.7436 78.7778 68.9131H80.7778ZM70.9306 59.6266V77.2961H72.9306V59.6266H70.9306ZM71.9306 78.2961H79.7778V76.2961H71.9306V78.2961ZM37.2373 58.6404C32.31 59.467 28.5556 63.7506 28.5556 68.9131H30.5556C30.5556 64.7436 33.5883 61.2805 37.5682 60.6128L37.2373 58.6404ZM28.5556 68.9131V77.2961H30.5556V68.9131H28.5556ZM29.5556 78.2961H37.4028V76.2961H29.5556V78.2961ZM38.4028 77.2961V59.6266H36.4028V77.2961H38.4028ZM30.5556 97.1631V80.435H28.5556V97.1631H30.5556ZM29.5556 81.435H37.4028V79.435H29.5556V81.435ZM36.4028 80.435V97.1631H38.4028V80.435H36.4028ZM37.4028 96.1631H29.5556V98.1631H37.4028V96.1631ZM41.5417 97.1631V80.435H39.5417V97.1631H41.5417ZM40.5417 81.435H48.3889V79.435H40.5417V81.435ZM47.3889 80.435V97.1631H49.3889V80.435H47.3889ZM48.3889 96.1631H40.5417V98.1631H48.3889V96.1631ZM47.3889 68.9131V77.2961H49.3889V68.9131H47.3889ZM48.3889 76.2961H40.5417V78.2961H48.3889V76.2961ZM41.5417 77.2961V59.6266H39.5417V77.2961H41.5417ZM40.3762 60.6128C44.3561 61.2805 47.3889 64.7436 47.3889 68.9131H49.3889C49.3889 63.7506 45.6345 59.467 40.7071 58.6404L40.3762 60.6128Z" fill="#333333" mask="url(#path-1-outside-1_5987_73910)"/>
<path d="M161.686 108.624C158.223 105.539 152.92 105.852 149.842 109.322L117.73 145.534L100.143 131.368C96.5313 128.458 91.2499 129.036 88.3486 132.655C85.4489 136.272 86.0227 141.56 89.6326 144.468L113.442 163.646C116.928 166.453 121.998 166.027 124.968 162.678L162.382 120.486C165.458 117.018 165.147 111.708 161.686 108.624Z" fill="#47C562" stroke="white" stroke-width="3" stroke-linecap="round" stroke-linejoin="round"/>
</svg>
