<svg height="35" width="35" viewBox="0 0 35 35" xmlns="http://www.w3.org/2000/svg">
<path fill-rule="evenodd" stroke="none" clip-rule="evenodd" d="M23.492 12.1384C23.6409 12.0504 23.8145 12 24 12L27.7415 12C28.005 12 28.2578 12.104 28.4451 12.2894L34.1522 17.9404C34.546 18.3303 34.5476 18.9662 34.1557 19.3581L30.3697 23.1441C29.978 23.5357 29.3427 23.5345 28.9526 23.1412L23.29 17.4329C23.1042 17.2456 23 16.9925 23 16.7286L23 13C23 12.8145 23.0505 12.6408 23.1384 12.492L21.3232 10.6768L21.6768 10.3232L23.492 12.1384ZM26.596 14.3347C26.9067 14.6453 26.9067 15.149 26.596 15.4596C26.2854 15.7703 25.7817 15.7703 25.4711 15.4596C25.1605 15.149 25.1605 14.6453 25.4711 14.3347C25.7817 14.0241 26.2854 14.0241 26.596 14.3347Z" fill="#348899"/>
<rect x="1" y="9" width="20" height="12" stroke="none" fill="white"/>
<path fill-rule="evenodd" clip-rule="evenodd" stroke="none" d="M0 9C0 8.44772 0.447715 8 1 8H21C21.5523 8 22 8.44772 22 9V23C22 23.5523 21.5523 24 21 24H14V25.6L16.3685 26.3106C16.7433 26.423 17 26.768 17 27.1593C17 27.6487 16.6033 28.0454 16.1139 28.0454H5.88612C5.39673 28.0454 5 27.6487 5 27.1593C5 26.768 5.25668 26.423 5.63149 26.3106L8 25.6V24H1C0.447716 24 0 23.5523 0 23V9ZM1 9H21V21H1V9Z" fill="#333333"/>
</svg>
