<svg xmlns="http://www.w3.org/2000/svg" width="70" viewBox="0 0 482 427">
  <path d="M1.533 424.077v-102.7h34.3v13.4h-19v26.4h18.3v13.4h-18.3v49.5h-15.3zm56.192-60.126h2.9c5.3 0 6.5-2.9 6.5-6.6v-18.6c0-3.9-2.3-5-5.8-5h-3.6v30.2zm-15.3 60.2v-102.8h20.2c12.3 0 19.8 4.3 19.8 17.6v14.6c0 7.6-2.2 14-15.1 15.4v.3c6.8.9 14 3.2 14.6 12.5.9 13.7 0 28.1 2.5 42.3h-15.4c-2.6-11.8-1.9-27.2-1.9-39.2 0-6.2-2.3-8.7-9.4-8.4v47.6c0 .1-15.3.1-15.3.1zm49.558-.074v-102.7h34.1v13.4h-18.8v26.4h18v13.4h-18v36.1h19v13.4h-34.3zm65.569-102.732 4.3 29.6c3.5 19 5.9 38.8 7.2 58.1h.6v-5.4c.1-10-.4-20.1-.4-30v-52.2h12.6v102.7h-22.7l-7.2-51.4c-2.4-12.7-3.3-24.2-4.6-36.4h-.6c0 4.5.3 8.9.4 13.3v74.4h-12.5v-102.7h22.9zm57.282 37.56v-20.9c0-5.2-1.6-6.4-4.6-6.4-3.2 0-4.8 1.2-4.8 6.4v69.5c0 5.2 1.6 6.3 4.8 6.3 3 0 4.6-1.1 4.6-6.3v-22.2h15.3v23.5c0 13.4-10.5 17.3-20.1 17.3-9.4 0-19.9-3.9-19.9-17.3v-72.1c0-13.4 10.5-17.3 19.9-17.3 9.5 0 20.1 3.9 20.1 17.3v22.2h-15.3zm24.647 65.172v-102.7h15.3v39.4h8.5v-39.4h15.3v102.7h-15.3v-49.9h-8.5v49.9h-15.3zm105.501-102.672v13.4h-13.3v89.2h-15.3v-89.2h-13.4v-13.4h42zm6.168 102.646v-102.7h34v13.4h-18.7v26.4h18v13.4h-18v36h19v13.4h-34.3zm66.74-65.177v-20.9c0-5.2-1.6-6.3-4.6-6.3-3.2 0-4.8 1.2-4.8 6.3v69.5c0 5.2 1.6 6.3 4.8 6.3 3 0 4.6-1.2 4.6-6.3v-22.2h15.3v23.5c0 13.4-10.5 17.3-20 17.3-9.4 0-19.9-3.9-19.9-17.3v-72.1c0-13.4 10.5-17.3 19.9-17.3 9.5 0 20 3.9 20 17.3v22.2h-15.3zm24.073 65.177v-102.7h15.3v39.4h8.5v-39.4h15.3v102.6h-15.3v-49.9h-8.5v49.9h-15.3zM1.6 291.8v-106h15.8V278h20.1v13.9H1.6zm61.013-44.071c-4 2.4-6.8 4.2-6.8 8.6v21.4c.3 1.8 1.5 3 3.4 2.8 1.9-.3 3.4-1.5 3.4-3.4v-29.4zm14.3 44.1h-13.4c-.9-1.8-.9-3.9-.9-5.8h-.3c-3 4.9-5.2 6.9-11.2 6.9-6.2 0-9.7-3.4-9.7-9.8v-28.7c0-17.3 20.7-8.2 20.7-29.9 0-2.5.6-8.5-2.8-8.5-4.2 0-3.4 6.9-3.4 9.8v11.2h-14.5v-17.1c0-8.8 6.9-14.3 17.8-14.3s17.7 5.5 17.7 14.3v71.9z" style="fill:#51646e"/>
  <path d="m163.5 134.2-27 17.3 8.4-47.8 41.2.8 54.9 43.2 31.5-89.5-24.9-37.7 18.1-5L280.2 2l16.2 10.5 20.9-4-2.7 20.6-2.6 12.4 20.6 12.1-26.1 15-1.3 6.6 20.6 42.8 21.6 75.2-32.8 36.7-24.6 16.6h-7.3l4.6 31.3 24.3 12.7H245l5.4-8-9.5-2.2 13.5-11.8-5.8-22.2-7.6.1-75.7-60.4 6.2-3.3h10.3L164 171l6.2-3.3h13.7l-20.4-33.5z" style="fill:#c92358"/>
  <clipPath id="a"/>
  <g style="clip-path:url(#a)">
    <linearGradient id="b" gradientUnits="userSpaceOnUse" x1="232.585" y1="1314.813" x2="233.769" y2="1314.813" gradientTransform="translate(-4452.63 -26398.018) scale(20.2783)">
      <stop offset="0" style="stop-color:#c92358"/>
      <stop offset="1" style="stop-color:#e73151"/>
    </linearGradient>
    <path style="fill:url(#b)" d="m263.8 246.5 10.4 29.9 13.6 5.4-5.2-35.3h-18.8z"/>
  </g>
  <clipPath id="c"/>
  <g style="clip-path:url(#c)">
    <linearGradient id="d" gradientUnits="userSpaceOnUse" x1="244.627" y1="1260.869" x2="245.811" y2="1260.869" gradientTransform="rotate(180 3866.788 19269.799) scale(30.481)">
      <stop offset="0" style="stop-color:#c92358"/>
      <stop offset="1" style="stop-color:#93231e"/>
    </linearGradient>
    <path style="fill:url(#d)" d="M273.3 56.2 241 147.8V159l6.4-9 29.7-94.7-3.8.9z"/>
  </g>
  <linearGradient id="e" gradientUnits="userSpaceOnUse" x1="243.868" y1="1264.303" x2="245.052" y2="1264.303" gradientTransform="rotate(180 4504.659 22618.193) scale(35.7544)">
    <stop offset="0" style="stop-color:#93231e"/>
    <stop offset=".673" style="stop-color:#c92358"/>
    <stop offset=".673" style="stop-color:#c92358"/>
    <stop offset="1" style="stop-color:#c92358"/>
  </linearGradient>
  <path style="fill:url(#e)" d="m265.8 15.5-18.1 5L275 62l15-18.4L280.4 2l-14.6 13.5z"/>
  <linearGradient id="f" gradientUnits="userSpaceOnUse" x1="242.588" y1="1270.278" x2="243.772" y2="1270.278" gradientTransform="rotate(180 6895.551 35589.492) scale(55.9009)">
    <stop offset="0" style="stop-color:#93231e"/>
    <stop offset="1" style="stop-color:#bc2222"/>
  </linearGradient>
  <path style="fill:url(#f)" d="m164 171 66.2-2.9-60-.4-6.2 3.3z"/>
  <linearGradient id="g" gradientUnits="userSpaceOnUse" x1="242.176" y1="1271.869" x2="243.359" y2="1271.869" gradientTransform="rotate(180 8006.046 41510.688) scale(65.1221)">
    <stop offset="0" style="stop-color:#93231e"/>
    <stop offset=".356" style="stop-color:#c92358"/>
    <stop offset=".356" style="stop-color:#c92358"/>
    <stop offset=".991" style="stop-color:#e6332d"/>
    <stop offset="1" style="stop-color:#e6332d"/>
  </linearGradient>
  <path style="fill:url(#g)" d="m164 171 77.1 50.6-1.1-53.9-76 3.3z"/>
  <linearGradient id="h" gradientUnits="userSpaceOnUse" x1="245.65" y1="1275.546" x2="246.834" y2="1275.546" gradientTransform="rotate(150 22475.56 46073.532) scale(76.018)">
    <stop offset="0" style="stop-color:#e35d90"/>
    <stop offset=".559" style="stop-color:#d22527"/>
    <stop offset="1" style="stop-color:#93231e"/>
  </linearGradient>
  <path style="fill:url(#h)" d="m280.2 45.3-32.8 104.6 76.2 28L290 43.6l-9.8 1.7z"/>
  <linearGradient id="i" gradientUnits="userSpaceOnUse" x1="243.112" y1="1267.968" x2="244.296" y2="1267.968" gradientTransform="rotate(180 5759.396 29482.514) scale(46.3892)">
    <stop offset="0" style="stop-color:#e73151"/>
    <stop offset="1" style="stop-color:#93231e"/>
  </linearGradient>
  <path style="fill:url(#i)" d="m231.5 184.9 9.5.7v-37.8l-54.9-43.2 45.4 80.3z"/>
  <linearGradient id="j" gradientUnits="userSpaceOnUse" x1="237.589" y1="1290.801" x2="238.773" y2="1290.801" gradientTransform="translate(-17232.824 -94266.766) scale(73.1421)">
    <stop offset="0" style="stop-color:#e6332d"/>
    <stop offset=".484" style="stop-color:#e73151"/>
    <stop offset=".973" style="stop-color:#e35d9d"/>
    <stop offset="1" style="stop-color:#e35d9d"/>
  </linearGradient>
  <path style="fill:url(#j)" d="m195.3 186.5 36.2-1.6-45.4-80.3-41.2-.8 50.4 82.7z"/>
  <linearGradient id="k" gradientUnits="userSpaceOnUse" x1="247.004" y1="1253.644" x2="248.188" y2="1253.644" gradientTransform="rotate(180 2898.834 14361.651) scale(22.8101)">
    <stop offset="0" style="stop-color:#93231e"/>
    <stop offset="1" style="stop-color:#c92358"/>
  </linearGradient>
  <path style="fill:url(#k)" d="m136.5 151.5 27-17.3-18.6-30.5-8.4 47.8z"/>
  <linearGradient id="l" gradientUnits="userSpaceOnUse" x1="223.797" y1="1292.208" x2="224.981" y2="1292.208" gradientTransform="rotate(-45 -51792.664 32921.73) scale(36.1108)">
    <stop offset="0" style="stop-color:#93231e"/>
    <stop offset="1" style="stop-color:#c92358"/>
  </linearGradient>
  <path style="fill:url(#l)" d="m240.9 280.4 41.7 10.2h28.9l-34.7-18.1-22.5-3.8-13.4 11.7z"/>
  <linearGradient id="m" gradientUnits="userSpaceOnUse" x1="244.302" y1="1261.844" x2="245.486" y2="1261.844" gradientTransform="rotate(180 3983.02 19764.682) scale(31.3086)">
    <stop offset="0" style="stop-color:#d22527"/>
    <stop offset="1" style="stop-color:#c92358"/>
    <stop offset="1" style="stop-color:#c92358"/>
  </linearGradient>
  <path style="fill:url(#m)" d="m290 43.6 24.6-14.4 2.7-20.6-20.9 4L280.2 2l9.8 41.6z"/>
  <linearGradient id="n" gradientUnits="userSpaceOnUse" x1="246.57" y1="1251.44" x2="247.753" y2="1251.44" gradientTransform="rotate(180 2720.811 13038.504) scale(20.7935)">
    <stop offset="0" style="stop-color:#bc2322"/>
    <stop offset="1" style="stop-color:#e73151"/>
  </linearGradient>
  <path style="fill:url(#n)" d="m290 43.6 14 37.7 10.6-52.1L290 43.6z"/>
  <linearGradient id="o" gradientUnits="userSpaceOnUse" x1="246.851" y1="1249.575" x2="248.035" y2="1249.575" gradientTransform="rotate(180 2580.496 12245.193) scale(19.5605)">
    <stop offset="0" style="stop-color:#e35d9d"/>
    <stop offset=".641" style="stop-color:#e73151"/>
    <stop offset=".641" style="stop-color:#e73151"/>
    <stop offset="1" style="stop-color:#bc2322"/>
  </linearGradient>
  <path style="fill:url(#o)" d="m309.3 54.5 23.2-.9L312 41.5l-2.7 13z"/>
  <linearGradient id="p" gradientUnits="userSpaceOnUse" x1="246.06" y1="1253.138" x2="247.244" y2="1253.138" gradientTransform="rotate(180 2879.236 13846.887) scale(22.0508)">
    <stop offset="0" style="stop-color:#e73151"/>
    <stop offset=".569" style="stop-color:#c92358"/>
    <stop offset="1" style="stop-color:#93231e"/>
    <stop offset="1" style="stop-color:#93231e"/>
  </linearGradient>
  <path style="fill:url(#p)" d="m309.6 53.6-3 15 26.1-15h-23.1z"/>
  <linearGradient id="q" gradientUnits="userSpaceOnUse" x1="242.215" y1="1271.65" x2="243.399" y2="1271.65" gradientTransform="rotate(180 7875.903 40823.539) scale(64.0369)">
    <stop offset="0" style="stop-color:#93231e"/>
    <stop offset=".356" style="stop-color:#c92358"/>
    <stop offset=".356" style="stop-color:#c92358"/>
    <stop offset=".991" style="stop-color:#e6332d"/>
    <stop offset="1" style="stop-color:#e6332d"/>
  </linearGradient>
  <path style="fill:url(#q)" d="m165.3 186 75.8 60.5v-63.8l-75.8 3.3z"/>
  <linearGradient id="r" gradientUnits="userSpaceOnUse" x1="242.63" y1="1268.604" x2="243.813" y2="1268.604" gradientTransform="rotate(180 6058.177 30835.729) scale(48.5059)">
    <stop offset="0" style="stop-color:#e35d91"/>
    <stop offset="1" style="stop-color:#d22527"/>
  </linearGradient>
  <path style="fill:url(#r)" d="m325 184.9-10.4 45 32.8-36.7-21.6-75.2L290 43.6l35 141.3z"/>
  <linearGradient id="s" gradientUnits="userSpaceOnUse" x1="213.628" y1="1275.819" x2="214.811" y2="1275.819" gradientTransform="rotate(-90 -13035.037 18544.084) scale(24.9329)">
    <stop offset="0" style="stop-color:#93231e"/>
    <stop offset="1" style="stop-color:#e73151"/>
  </linearGradient>
  <path style="fill:url(#s)" d="m220.1 164.7 10.2 18h11l-.4-29.5-20.8 11.5z"/>
  <linearGradient id="t" gradientUnits="userSpaceOnUse" x1="234.201" y1="1276.802" x2="235.385" y2="1276.802" gradientTransform="rotate(-120 -22161.012 62859.584) scale(88.9746)">
    <stop offset="0" style="stop-color:#e24c89"/>
    <stop offset=".509" style="stop-color:#e73151"/>
    <stop offset=".509" style="stop-color:#e73151"/>
    <stop offset="1" style="stop-color:#c92358"/>
  </linearGradient>
  <path style="fill:url(#t)" d="M241 153.2v93.4h49l24.6-16.7-67.1-79.9c0-.1-6.5 3.2-6.5 3.2z"/>
  <linearGradient id="u" gradientUnits="userSpaceOnUse" x1="237.988" y1="1290.103" x2="239.172" y2="1290.103" gradientTransform="translate(-18850.842 -103339.61) scale(80.249)">
    <stop offset="0" style="stop-color:#93231e"/>
    <stop offset=".642" style="stop-color:#c92358"/>
    <stop offset=".642" style="stop-color:#c92358"/>
    <stop offset=".991" style="stop-color:#e6332d"/>
    <stop offset="1" style="stop-color:#e6332d"/>
  </linearGradient>
  <path style="fill:url(#u)" d="m314.6 229.8 27.9-45-95-34.9 67.1 79.9z"/>
  <linearGradient id="v" gradientUnits="userSpaceOnUse" x1="242.218" y1="1271.709" x2="243.402" y2="1271.709" gradientTransform="rotate(180 7865.612 40755.984) scale(63.9514)">
    <stop offset="0" style="stop-color:#93231e"/>
    <stop offset="1" style="stop-color:#c92358"/>
  </linearGradient>
  <path style="fill:url(#v)" d="m171.5 182.7-6.2 3.3 75.7-3.3h-69.5z"/>
  <path d="M138-333.8c0 2.2 1.8 4 4 4s3.9-1.8 3.9-4-1.8-4-3.9-4c-2.3 0-4 1.8-4 4" style="fill:#fff" transform="translate(160.666 382.002)"/>
  <linearGradient id="w" gradientUnits="userSpaceOnUse" x1="216.143" y1="1297.038" x2="217.327" y2="1297.038" gradientTransform="rotate(-45 -35041.375 21978.628) scale(24.3578)">
    <stop offset="0" style="stop-color:#c92358"/>
    <stop offset=".598" style="stop-color:#e73151"/>
    <stop offset=".598" style="stop-color:#e73151"/>
    <stop offset="1" style="stop-color:#e73151"/>
  </linearGradient>
  <path style="fill:url(#w)" d="m248.6 246.4 7.4 28.1 7.8 5.1 18.8 11-14-44.2h-20z"/>
  <linearGradient id="x" gradientUnits="userSpaceOnUse" x1="223.519" y1="1264.165" x2="224.703" y2="1264.165" gradientTransform="scale(28.4973 -28.4973) rotate(30 2494.403 226.026)">
    <stop offset="0" style="stop-color:#e73151"/>
    <stop offset="1" style="stop-color:#d22527"/>
  </linearGradient>
  <path style="fill:url(#x)" d="M245 290.6h38.9L256 274.5l-11 16.1z"/>
  <g/>
  <clipPath id="y"/>
  <g style="opacity:.8;clip-path:url(#y)">
    <linearGradient id="z" gradientUnits="userSpaceOnUse" x1="195.817" y1="1213.254" x2="197.001" y2="1213.254" gradientTransform="rotate(-135 -1087.94 5464.892) scale(8.3386)">
      <stop offset="0" style="stop-color:#bc2222"/>
      <stop offset=".893" style="stop-color:#93231e"/>
      <stop offset="1" style="stop-color:#93231e"/>
    </linearGradient>
    <path style="fill:url(#z)" d="M282.7 246.5h-14l2.9 9.2 11.1-9.2z"/>
  </g>
</svg>
