<svg xmlns="http://www.w3.org/2000/svg" height="60" viewBox="0 0 372 506">
  <path d="M185.8 504.8c-8.1-10.1-15.9-19.9-23.6-29.7-31.4-39.7-62-80-89.9-122.3-21.1-32.1-41-65-55.9-100.6-6.5-15.6-12.3-31.5-14.1-48.3-1.1-10.7-.9-21.7-.2-32.5 1.1-16 4.2-31.7 9.5-46.9C28.4 75.7 61.5 42 107.5 20.2c18.8-9 38.7-14.7 59.3-17.6 23.4-3.4 46.3 0 68.7 6.7 33.6 10.1 63.1 27.1 87.4 52.8 22.5 23.9 36.5 52.2 43.2 84.1 3.6 17 5.2 34.3 4.1 51.6-.9 15.4-5.4 30.1-10.9 44.4-12.6 33.1-30.1 63.7-48.9 93.6-27.4 43.4-57.9 84.4-89.5 124.8-11 14-22.1 27.9-33.2 41.9-.5.7-1 1.3-1.9 2.3zM152 200.4c-4.5.7-9.2.9-13.5 2.1-15.4 4.4-24.6 14.6-26.3 30.6-1.5 14 2.8 26.1 15 34 12.5 8.1 26.2 8 40.1 4.1 3.8-1.1 6.4-2.8 6.7-7 .2-2 .4-3.9.6-5.9-1.8.8-3.8 1.4-5.4 2.5-14.4 10-32.3 3.7-36.7-13-1.9-7.3-1.8-14.7.2-22 2.3-8.3 6.9-14.8 16-16.6 8.8-1.7 16.4.2 21.6 8.1.4.6 1.5 1.1 2 .9.7-.3 1.4-1.2 1.6-1.9.7-2.5.9-5.1 1.8-7.5.9-2.3.1-3.2-1.9-4-7-2.8-14.2-4.1-21.8-4.4zm34.8 34.9c1.1-.7 2-1.3 2.8-1.9 3.6-2.8 7.7-3.3 12.1-2.8 3.3.4 5.3 2.7 5.9 6 .6 3.8-1.5 4.9-4.5 5.9-4.9 1.6-9.9 3-14.6 5.2-7 3.2-9.4 9.6-7.2 17.1 2 6.5 8.3 10.6 15.5 9.2 4.3-.9 8.3-3 12.8-4.7 4.5 5.2 9.8 6 17.4 2.3 2.6-1.3 3.5-2.9 2.3-5.6-5.7.4-6.1.1-6.1-5.6 0-7.7.3-15.3.3-23 0-7.4-3.6-12.2-10.7-14.5-7.9-2.6-15.6-1.7-23 1.9-5.8 2.9-6 3.8-3 10.5zm67.2 36.8v-37.2c0-5 0-5 4.8-5.1.9 0 1.8-.2 2.7-.3v-6.6h-2c-7.3.2-7.3.1-10-6.6-.2-.5-.4-1.1-.6-1.7-1.2-3.9.4-6 4.5-5.6 2.3.2 4.6 1 6.8 1.8 3.2 1.1 3.6.8 3.7-2.6.1-2.8.2-5.6.5-8.4.2-2-.3-2.8-2.3-2.9-6.8-.5-13 1.4-16.9 7-3 4.2-5.1 9.3-6.6 14.2-1.1 3.7-2.1 6-6.4 5.1-.2 0-.4.2-.6.3v6.3c2.3.6 5.7-1.2 5.5 3.4-.3 11-.1 21.9-.2 32.9 0 2-.3 4.1-.5 6.2 6.4-.2 12-.2 17.6-.2zM81.9 192.8c-8.1-1.5-16.1-3-24.3-4.5.3-1.5.6-2.6.7-3.6.1-4.7.9-9.4.1-13.9-1.2-7-7.8-11.8-15.4-12.2-6.2-.3-11.8 3.5-14.2 10.1-1.1 3.1-1.6 6.4-2.2 9.6-1 5-1.8 10-2.7 14.9 18.8 3.7 37.1 7.4 55.7 11.1.7-3.9 1.5-7.5 2.3-11.5zm48.2-85.7c-1.2-1.7-2.2-3.2-3.1-4.6-3.6-5.7-7.3-11.3-10.6-17.1-2.6-4.7-1.3-9.3 2.5-11.4 4.2-2.4 7.2-1.6 10.6 3.5 4 6.1 7.6 12.4 11.4 18.7.6 1 1.1 1.9 1.7 3 3.3-2.1 6.3-4 9.4-6-5.4-8.4-10.5-16.8-16.1-24.9-2.6-3.8-6.8-5.6-11.5-4.4-5.7 1.4-10.4 4.4-12.3 10.5-.3 1-.6 2.1-1 3.4-1.1-1.6-1.9-2.8-2.7-4.1-3 1.9-5.8 3.6-8.5 5.4C107 90.5 114 101.7 121 113c2.9-2 5.7-3.8 9.1-5.9zm-72.8 33.3c0 11.1 10.1 20.6 22.1 20.7 10.9.1 20.9-10.9 20.9-23 0-10.7-11-20.6-23-20.6-10.4-.1-20 10.8-20 22.9zm241.1-30.5c1.7.7 2.8 1.6 3.9 1.6 4.3.3 8.3 3.4 9.1 7.6.7 3.4-1.3 5.6-3.7 7.5-2.3 1.8-3.7-.4-5.1-1.5-3.2-2.6-6.2-5.5-9.6-7.8-4.5-3.1-9.7-2.4-13.9 1.5-3.6 3.4-4.3 8.1-1.9 12.9 2.2 4.4 6 6.8 10.4 8.1-1.2 5.8.5 10.1 5.1 12.4 1 .5 2.5-.2 4.9-.4-4.2-3.5-2.3-5.3.1-6.9 5-3.3 10.1-6.5 15.2-9.7 3-2 5.5-4.3 6.3-8.1 1.3-5.9-2.6-14-8.7-18.1-5.4-3.7-5.7-3.7-12.1.9zm-37.3-11c-8.2.5-16 .6-19.6-8-1.7-4.1-.3-8.2 2.1-12 1.9 1 3.4 1.8 5 2.6 5.4 2.9 10.7 5.9 16.2 8.7.8.4 2.5.5 3 0 4.6-4.6 5.1-15 1-20.4-5.5-7.4-16.8-10.6-24.7-6.9-8.3 3.8-14.7 15.9-12.9 24.3 1.9 9.1 11.1 16.5 20.8 17.5 4.2.2 6.9-1.3 9.1-5.8zm81 92.4c1.9-6.9 1.2-13.1-2.7-18.7-3.2-4.7-8-5.6-13.2-4.7-5.3 1-8.1 4.4-9.1 9.9-.5 3-.7 6.1-1.7 9-.5 1.4-2.4 3.3-3.7 3.3-1.7 0-4.7-1.4-5-2.6-.7-2.9-.4-6.1.1-9.1.3-1.6 1.8-3 2.7-4.5-2.1-.3-4.2-.9-6.3-1-.7 0-2 .9-2.2 1.6-1.6 6.5-1.4 12.9 2.6 18.6 3.5 5 9.7 7.1 15.3 5.5 4.8-1.4 7.4-5.2 8.1-11.7.3-2.8.6-5.6 1.5-8.3.4-1.3 2-2.8 3.3-3 1.3-.2 3.2.7 4.2 1.7 2.5 2.6 2.2 6.9-.1 9.7-.8.9-1.6 1.8-3 3.5 3.5.2 6.1.5 9.2.8zm-73.3-71.1c14.2-14.9 28.3-29.7 42.4-44.5-2.7-2.5-5.3-5-7.8-7.4-14.2 15-28.2 29.8-42.3 44.7 2.7 2.5 5.2 4.9 7.7 7.2zM157.6 34.9c-2.4 2.6-4 4.7-6 6.2-2.5 1.9-2.7 3.9-1.8 6.7 1.5 4.7 1.3 4.7-3.5 5.9-.3.1-.6.3-1.2.7.4 1.4.7 2.8 1.1 4.3.7-.1 1.2 0 1.6-.2 3.3-1.5 4.7-.4 5.3 3.2 1.3 6.9 2.9 13.8 4.7 20.6 1.8 6.6 6.9 9.4 13.3 7.6 2-.6 3.9-1.6 5.8-2.5 2.9-1.3 3.7-3.3 1.8-6.2-.5.2-.9.4-1.3.6-5.2 3.2-8 2.4-9.8-3.5-2.2-7.5-3.9-15.2-5.9-23.1 3-.8 5.7-1.5 8.6-2.3-.4-1.7-.8-3.1-1.3-4.9-1.8.5-3.4.8-4.9 1.4-2.4.9-3.6.3-4-2.5-.3-3.7-1.4-7.2-2.5-12zm54.1 53.9c1.4-7.7 2.5-15 4.1-22.3 1.2-5.7 5.6-7.7 11-5.8 1 .4 2.1.8 3.3 1.3.8-3.7 1.4-6.8 2.1-9.9-4.6-2.1-5.2-2-14.3 3.1.3-2 .5-3.7.8-5.5-3.6-.7-6.9-1.3-10.4-2-.4 2.6-.6 4.8-1 7-1.9 9.8-3.9 19.6-5.8 29.4-.2 1 .3 3 .9 3.1 3 .8 6.1 1.1 9.3 1.6zm82 69.4c1.4 3.5 2.7 6.7 4 9.8 12.6-4.8 24.8-9.5 37.2-14.2-1.4-3.5-2.7-6.9-3.9-10-12.6 4.8-24.8 9.5-37.3 14.4zM80.2 100.1c10 8.8 20 17.5 30 26.3 2.4-2.7 4.6-5.3 7-7.9-10.1-8.9-19.9-17.7-29.9-26.5-2.5 2.8-4.8 5.5-7.1 8.1zm-6.4-6.6c3.4-.1 6-2.7 6-6.1 0-3.6-2.7-6.2-6.3-6.1-3.4.1-5.9 2.8-5.8 6.2.1 3.4 2.8 6.1 6.1 6zm271.4 56.4c3.5 0 6.3-2.7 6.2-6.2-.1-3.1-2.7-5.6-5.9-5.7-3.6-.1-6.3 2.4-6.3 6-.1 3.3 2.5 5.8 6 5.9z" fill="#189086"/>
  <path d="M152 200.4c7.6.3 14.8 1.6 21.8 4.4 2 .8 2.8 1.7 1.9 4-.9 2.4-1.1 5-1.8 7.5-.2.8-.9 1.7-1.6 1.9-.5.2-1.7-.4-2-.9-5.3-8-12.8-9.9-21.6-8.1-9.1 1.8-13.7 8.3-16 16.6-2 7.3-2.1 14.7-.2 22 4.4 16.8 22.3 23 36.7 13 1.6-1.1 3.6-1.7 5.4-2.5-.2 2-.4 3.9-.6 5.9-.3 4.2-2.9 5.9-6.7 7-13.9 3.9-27.6 4-40.1-4.1-12.2-7.9-16.5-20-15-34 1.7-16 10.9-26.2 26.3-30.6 4.4-1.2 9-1.4 13.5-2.1zm34.8 34.9c-3-6.6-2.7-7.6 3.1-10.4 7.4-3.6 15.1-4.4 23-1.9 7.1 2.3 10.7 7 10.7 14.5 0 7.7-.3 15.3-.3 23 0 5.7.4 6 6.1 5.6 1.2 2.7.3 4.3-2.3 5.6-7.6 3.7-12.9 2.8-17.4-2.3-4.5 1.7-8.5 3.8-12.8 4.7-7.2 1.5-13.6-2.6-15.5-9.2-2.3-7.5.2-13.9 7.2-17.1 4.7-2.1 9.7-3.6 14.6-5.2 3-1 5.1-2.1 4.5-5.9-.6-3.3-2.6-5.6-5.9-6-4.3-.5-8.5.1-12.1 2.8-.9.5-1.8 1-2.9 1.8zm20.6 12.5c-8.4 1.2-11 4.1-10.8 11.5.1 3.1 1.1 5.3 4.6 5.6 3.4.3 5.8-1.4 6.1-4.9.3-3.9.1-7.9.1-12.2zm46.6 24.3h-17.3c.2-2.2.5-4.2.5-6.2.1-11-.1-22 .2-32.9.1-4.6-3.3-2.8-5.5-3.4v-6.3c.2-.1.4-.4.6-.3 4.2.9 5.3-1.4 6.4-5.1 1.5-5 3.6-10 6.6-14.2 3.9-5.6 10-7.5 16.9-7 2.1.2 2.6 1 2.3 2.9-.3 2.8-.5 5.6-.5 8.4-.1 3.4-.6 3.7-3.7 2.6-2.2-.8-4.5-1.5-6.8-1.8-4-.4-5.6 1.8-4.5 5.6.2.6.4 1.1.6 1.7 2.7 6.8 2.7 6.8 10 6.6h2v6.6c-.9.1-1.8.3-2.7.3-4.8.1-4.8.1-4.8 5.1-.3 12.4-.3 24.7-.3 37.4zM81.9 192.8c-.8 4-1.6 7.6-2.3 11.4-18.6-3.7-37-7.3-55.7-11.1.9-4.9 1.7-9.9 2.7-14.9.6-3.2 1.1-6.5 2.2-9.6 2.4-6.6 8-10.4 14.2-10.1 7.6.4 14.2 5.2 15.4 12.2.8 4.5 0 9.3-.1 13.9 0 1-.4 2.1-.7 3.6 8.2 1.6 16.2 3.1 24.3 4.6zm-28.1-11.5c.2-6.5-5.6-11.2-13.6-11-5.5.1-9.8 5.3-9.1 11.1.1.8 1.4 1.7 2.2 2 4.7 1.1 9.4 1.9 14.1 2.8 5.3 1 6.2.3 6.4-4.9zm76.3-74.2c-3.3 2.1-6.2 3.9-9.2 5.7-7-11.3-14-22.5-21.1-33.9 2.7-1.7 5.5-3.5 8.5-5.4.8 1.3 1.7 2.5 2.7 4.1.4-1.3.6-2.3 1-3.4 1.9-6.1 6.6-9 12.3-10.5 4.7-1.2 8.9.6 11.5 4.4 5.6 8.1 10.8 16.5 16.1 24.9-3.1 2-6.1 3.9-9.4 6-.6-1-1.2-2-1.7-3-3.8-6.2-7.4-12.6-11.4-18.7-3.3-5.1-6.3-5.9-10.6-3.5-3.8 2.2-5.1 6.7-2.5 11.4 3.2 5.9 7 11.4 10.6 17.1 1 1.6 2 3 3.2 4.8zm-72.8 33.3c0-12 9.6-22.9 20.1-22.9 11.9.1 23 10 23 20.6 0 12.1-10 23.1-20.9 23-12.1-.1-22.2-9.6-22.2-20.7zm27.9 11.1c4.1.4 6.9-1.4 8.6-4.9 1.8-3.7.7-6.9-1.9-9.7-5.3-5.5-11.9-8.7-19.5-9.8-3.9-.5-7 1.1-8.7 4.6-1.7 3.4-1.3 6.7 1.2 9.5 5.5 6.1 12.3 9.3 20.3 10.3zm213.2-41.6c6.4-4.6 6.8-4.6 12.2-1 6.1 4 10 12.2 8.7 18.1-.8 3.8-3.3 6.1-6.3 8.1-5 3.3-10.1 6.4-15.2 9.7-2.4 1.6-4.3 3.4-.1 6.9-2.4.2-4 .9-4.9.4-4.6-2.3-6.3-6.6-5.1-12.4-4.5-1.3-8.3-3.7-10.4-8.1-2.4-4.8-1.7-9.5 1.9-12.9 4.2-3.9 9.4-4.6 13.9-1.5 3.4 2.3 6.3 5.3 9.6 7.8 1.5 1.2 2.8 3.3 5.1 1.5 2.4-1.9 4.4-4.1 3.7-7.5-.8-4.2-4.8-7.2-9.1-7.6-1.3 0-2.3-.8-4-1.5zm3.3 20.3c-3-2.3-5.3-4.3-7.9-5.8-3.3-1.9-5.9.2-8 2.4-1.9 1.9-2 4.2-.5 6.4 1.9 2.7 4.8 3.3 7.5 2.1 2.9-1.1 5.5-3 8.9-5.1zm-40.6-31.3c-2.2 4.5-4.9 6-9.1 5.6-9.7-.9-18.9-8.4-20.8-17.5-1.8-8.4 4.6-20.5 12.9-24.3 7.8-3.6 19.1-.5 24.7 6.9 4 5.4 3.6 15.8-1 20.4-.5.5-2.2.5-3 0-5.4-2.8-10.8-5.8-16.2-8.7-1.5-.8-3.1-1.6-5-2.6-2.4 3.9-3.8 7.9-2.1 12 3.5 8.8 11.4 8.7 19.6 8.2zm-14.8-24.4c4.6 2.5 9.1 5 13.7 7.5 4.3-6.4 4.1-11.7-.4-14.3-4.6-2.7-10.2 0-13.3 6.8zm95.8 116.8c-3-.3-5.6-.5-9.2-.9 1.4-1.7 2.2-2.6 3-3.5 2.4-2.8 2.6-7.1.1-9.7-1-1-2.9-1.9-4.2-1.7-1.3.2-2.9 1.7-3.3 3-.9 2.6-1.2 5.5-1.5 8.3-.7 6.5-3.2 10.3-8.1 11.7-5.6 1.6-11.8-.5-15.3-5.5-4-5.7-4.2-12.1-2.6-18.6.2-.7 1.5-1.6 2.2-1.6 2.1.1 4.2.6 6.3 1-1 1.5-2.5 2.9-2.7 4.5-.5 3-.8 6.3-.1 9.1.3 1.3 3.2 2.6 5 2.6 1.3 0 3.2-1.9 3.7-3.3 1-2.8 1.2-6 1.7-9 .9-5.6 3.8-9 9.1-9.9 5.2-1 10 0 13.2 4.7 3.8 5.7 4.6 11.9 2.7 18.8zm-73.3-71.1c-2.4-2.3-5-4.7-7.6-7.2 14.1-14.9 28.1-29.7 42.3-44.7 2.5 2.3 5.1 4.8 7.8 7.4-14.3 14.9-28.4 29.7-42.5 44.5zM157.6 34.9c1.1 4.8 2.2 8.4 2.7 12 .4 2.8 1.6 3.3 4 2.5 1.5-.5 3.1-.9 4.9-1.4.5 1.7.8 3.2 1.3 4.9-2.9.8-5.6 1.5-8.6 2.3 2 7.9 3.7 15.6 5.9 23.1 1.8 5.9 4.5 6.8 9.8 3.5.4-.2.8-.4 1.3-.6 1.9 2.9 1.1 4.9-1.8 6.2-1.9.9-3.8 1.9-5.8 2.5-6.4 1.8-11.5-1-13.3-7.6-1.8-6.8-3.5-13.7-4.7-20.6-.7-3.6-2-4.7-5.3-3.2-.4.2-.9.1-1.6.2-.4-1.5-.8-2.9-1.1-4.3.6-.3.9-.6 1.2-.7 4.8-1.2 5-1.2 3.5-5.9-.9-2.8-.7-4.8 1.8-6.7 1.8-1.5 3.4-3.6 5.8-6.2zm54.1 53.9c-3.2-.5-6.4-.9-9.4-1.6-.5-.1-1.1-2.1-.9-3.1 1.8-9.8 3.8-19.6 5.8-29.4.4-2.2.6-4.4 1-7 3.6.7 6.8 1.3 10.4 2-.2 1.8-.5 3.6-.8 5.5 9-5.1 9.6-5.3 14.3-3.1-.7 3.1-1.3 6.3-2.1 9.9-1.2-.5-2.2-.9-3.3-1.3-5.4-1.9-9.8.1-11 5.8-1.5 7.3-2.6 14.6-4 22.3zm82 69.4c12.5-4.9 24.7-9.6 37.2-14.5 1.2 3.2 2.5 6.5 3.9 10-12.4 4.7-24.6 9.4-37.2 14.2-1.2-3-2.4-6.2-3.9-9.7zM80.2 100.1c2.3-2.6 4.6-5.2 7.1-8.1 9.9 8.8 19.8 17.6 29.9 26.5-2.3 2.6-4.6 5.2-7 7.9-10.1-8.8-20-17.5-30-26.3zm-6.4-6.6c-3.3.1-6-2.6-6.1-6-.1-3.4 2.4-6.1 5.8-6.2 3.6-.1 6.3 2.5 6.3 6.1 0 3.4-2.6 6-6 6.1zm271.4 56.4c-3.5 0-6.1-2.5-6-5.9 0-3.6 2.6-6.2 6.3-6 3.3.1 5.9 2.6 5.9 5.7 0 3.4-2.7 6.2-6.2 6.2z" fill="#fff"/>
  <path d="M207.4 247.8c0 4.3.2 8.3-.1 12.2-.3 3.5-2.7 5.2-6.1 4.9-3.4-.3-4.4-2.5-4.6-5.6-.3-7.4 2.3-10.3 10.8-11.5zM53.8 181.3c-.2 5.2-1.1 5.9-6.3 4.9-4.7-.9-9.4-1.8-14.1-2.8-.9-.2-2.1-1.2-2.2-2-.7-5.8 3.6-11 9.1-11.1 7.8-.2 13.7 4.5 13.5 11zm31.4-29.8c-7.9-1-14.8-4.2-20.2-10.2-2.5-2.8-2.9-6.1-1.2-9.5 1.8-3.5 4.9-5.2 8.7-4.6 7.6 1 14.2 4.2 19.5 9.8 2.6 2.7 3.7 6 1.9 9.7-1.9 3.5-4.7 5.2-8.7 4.8zm216.5-21.3c-3.4 2.1-6 4-8.8 5.2-2.8 1.2-5.6.6-7.5-2.1-1.6-2.2-1.4-4.5.5-6.4 2.2-2.2 4.7-4.3 8-2.4 2.5 1.4 4.8 3.5 7.8 5.7zm-55.4-55.7c3.1-6.8 8.6-9.5 13.3-6.8 4.5 2.6 4.7 7.9.4 14.3-4.5-2.5-9.1-5-13.7-7.5z" fill="#189086"/>
  <path d="M233.6 400c0 1.6-1.4 3-3 3h-86.8c-1.6 0-3-1.4-3-3v-86.8c0-1.6 1.4-3 3-3h86.8c1.6 0 3 1.4 3 3V400z" fill="#fff"/>
  <path d="M144.1 313.5h86.1v86.1h-86.1z" fill="#0f6baf"/>
  <path d="m169.9 352-2.3-1.5c-.7-.4-1.1-1.1-1.3-2-.1-.6-.1-1.2.1-1.7h-14.9v5.3l18.4-.1c0 .1 0 .1 0 0m5.1-4.8.6-.3h-1.1c.2.1.4.2.5.3m9 4c-.5-.2-.8-.5-1-1 0-.1-.1-.2-.1-.2-.2.3-.5.5-.9.7l-2.9 1.6h4.5c.2-.5.3-.8.4-1.1m8.7-.7c-.3-.2-.5-.4-.7-.7l-.3.6c-.4.6-1 .9-1.6.9.1.3.2.6.2.9h4.7v-.1l-2.3-1.6m16.4-3.7c.2 1.4-.5 3-1.9 3.7 0 0-1.9 1-2.9 1.6h18.5v-5.3h-13.7" fill="#afc2e1"/>
  <path d="M190.3 320.7c1.7 0 3.2-1.3 3.5-3 .2-1.6-.9-3-2.6-3-1.7 0-3.2 1.3-3.5 3-.2 1.7.9 3 2.6 3m10.4-1.2c-.6-1.4-2.3-1.8-3.8-1l-6.9 3.6-5.8-3.6c-1.3-.8-3.1-.3-4.1 1-1 1.4-.8 3.1.5 3.9l4 2.5-1 7.1c0 .2 0 .4.1.5.2.5.9.7 1.4.4l3.5-1.8 2.9 1.8c.5.3 1.2.1 1.6-.4.1-.2.2-.4.2-.5l1-7.1 4.7-2.5c1.6-.8 2.3-2.5 1.7-3.9m-13.3 21c1.7 0 3.2-1.3 3.5-3 .2-1.6-.9-3-2.6-3-1.7 0-3.2 1.3-3.5 3-.2 1.6.9 3 2.6 3m10.4-1.2c-.6-1.4-2.3-1.8-3.8-1l-6.9 3.6-5.8-3.6c-1.3-.8-3.1-.3-4.1 1-1 1.4-.8 3.1.5 3.9l4 2.5-1 7.1c0 .2 0 .4.1.5.2.5.9.7 1.4.4l3.5-1.8 2.9 1.8c.5.3 1.2.1 1.6-.4.1-.2.2-.4.2-.5l1-7.1 4.7-2.5c1.6-.8 2.3-2.6 1.7-3.9m-26.3-8.7c1.7 0 3.2-1.3 3.5-3 .2-1.6-.9-3-2.6-3-1.7 0-3.2 1.3-3.5 3-.2 1.6.9 3 2.6 3m10.4-1.2c-.6-1.4-2.3-1.8-3.8-1l-6.9 3.6-5.8-3.6c-1.3-.8-3.1-.3-4.1 1-1 1.4-.8 3.1.5 3.9l4 2.5-1 7.1c0 .2 0 .4.1.5.2.5.9.7 1.4.4l3.5-1.8 2.9 1.8c.5.3 1.2.1 1.6-.4.1-.2.2-.4.2-.5l1-7.1 4.7-2.5c1.6-.8 2.3-2.5 1.7-3.9m-13.3 20.9c1.7 0 3.2-1.3 3.5-3 .2-1.6-.9-3-2.6-3-1.7 0-3.2 1.3-3.5 3-.2 1.7.9 3 2.6 3m10.4-1.1c-.6-1.4-2.3-1.8-3.8-1l-6.9 3.6-5.8-3.6c-1.3-.8-3.1-.3-4.1 1-1 1.4-.8 3.1.5 3.9l4 2.5-1 7.1c0 .2 0 .4.1.5.2.5.9.7 1.4.4l3.5-1.8 2.9 1.8c.5.3 1.2.1 1.6-.4.1-.2.2-.4.2-.5l1-7.1 4.7-2.5c1.6-.8 2.3-2.6 1.7-3.9m27.2-18.6c-1.7 0-2.8-1.3-2.6-3 .2-1.6 1.8-3 3.5-3s2.8 1.3 2.6 3c-.3 1.6-1.8 3-3.5 3m-10.1-1.2c1-1.4 2.8-1.8 4.1-1l5.8 3.6 6.9-3.6c1.5-.8 3.2-.3 3.8 1 .6 1.4-.1 3.1-1.6 3.9l-4.7 2.5-1 7.1c0 .2-.1.4-.2.5-.4.5-1.1.7-1.6.4l-2.9-1.8-3.5 1.8c-.6.3-1.2.1-1.4-.4-.1-.2-.1-.4-.1-.5l1-7.1-4-2.5c-1.4-.8-1.6-2.5-.6-3.9m7.2 20.9c-1.7 0-2.8-1.3-2.6-3 .2-1.6 1.8-3 3.5-3s2.8 1.3 2.6 3c-.3 1.7-1.8 3-3.5 3m-10.1-1.1c1-1.4 2.8-1.8 4.1-1l5.8 3.6 6.9-3.6c1.5-.8 3.2-.3 3.8 1 .6 1.4-.1 3.1-1.6 3.9l-4.7 2.5-1 7.1c0 .2-.1.4-.2.5-.4.5-1.1.7-1.6.4l-2.9-1.8-3.5 1.8c-.6.3-1.2.1-1.4-.4-.1-.2-.1-.4-.1-.5l1-7.1-4-2.5c-1.4-.8-1.6-2.6-.6-3.9m-8.7 11c1.7 0 3.2-1.3 3.5-3 .2-1.6-.9-3-2.6-3s-3.2 1.3-3.5 3c-.2 1.7.9 3 2.6 3m10.4-1.2c-.6-1.4-2.3-1.8-3.8-1l-6.9 3.6-5.8-3.6c-1.3-.8-3.1-.3-4.1 1-1 1.4-.8 3.1.5 3.9l4 2.5-1 7.1c0 .2 0 .4.1.5.2.5.9.7 1.4.4l3.5-1.8 2.9 1.8c.5.3 1.2.1 1.6-.4.1-.2.2-.4.2-.5l1-7.1 4.7-2.5c1.6-.8 2.3-2.5 1.7-3.9m-44 20.9-.5-2.8-1.6 2.8h2.1m-2.5.7c-.5.9-.9 1.6-1.3 2.5H146l4.9-8.3h.8l1.7 8.3c-.3 0-.7-.1-1-.1s-.7 0-1 .1c-.1-.9-.2-1.7-.4-2.5h-2.6zm8.3 1.6c1 0 1.9-.1 2.7-.2-.1.2-.1.3-.2.5v.5h-4.4l1.5-8.1c.3 0 .6.1.9.1.3 0 .6 0 .9-.1l-1.4 7.3m6 0c1 0 1.9-.1 2.7-.2-.1.2-.1.3-.2.5v.5h-4.4l1.5-8.1c.3 0 .6.1.9.1.3 0 .6 0 .9-.1l-1.4 7.3m6.2-2.9c-.3 1.5.1 3.2 1.8 3.2 1.8 0 2.9-1.8 3.3-3.8.3-1.5-.1-3.3-1.8-3.3-1.6 0-2.8 1.3-3.3 3.9m1.6 3.9c-2.6 0-4-1.6-3.5-4.3.4-2.4 2.5-4.3 5.4-4.3 3.3 0 3.8 2.4 3.5 4.2-.5 2.5-2.6 4.4-5.4 4.4zm12.7-1.5-.5 1c-.8.4-1.6.5-2.4.5-2.5 0-4.1-1.6-3.6-4 .6-3.1 2.9-4.5 5.5-4.5.8 0 1.7.2 2.3.6-.2.4-.3.8-.5 1.2h-.2c-.3-.6-1-1.1-1.7-1.1-1.9 0-3.1 1.9-3.4 3.7-.4 2 .3 3.5 2.1 3.5.7 0 1.6-.4 2.2-.9h.2m5.6-1.8-.5-2.8-1.6 2.8h2.1m-2.6.7c-.5.9-.9 1.6-1.3 2.5h-1.1l4.9-8.3h.8l1.7 8.3c-.3 0-.6-.1-1-.1-.3 0-.7 0-1 .1-.1-.9-.2-1.7-.4-2.5h-2.6zm9.7 2.5c-.3 0-.6-.1-.9-.1-.3 0-.6 0-.9.1l1.4-7.3c-.8 0-1.6.1-2.2.2.1-.2.1-.3.2-.5v-.5h6c-.1.2-.1.3-.2.5v.5c-.7-.1-1.3-.2-2-.2l-1.4 7.3m5.1-8.2c.3 0 .6.1.9.1.3 0 .6 0 .9-.1l-1.5 8.2c-.3 0-.6-.1-.9-.1-.3 0-.6 0-.9.1l1.5-8.2m4.4 4.4c-.3 1.5.1 3.2 1.8 3.2 1.8 0 2.9-1.8 3.3-3.8.3-1.5-.1-3.3-1.8-3.3-1.6 0-2.8 1.3-3.3 3.9m1.6 3.9c-2.6 0-4-1.6-3.5-4.3.4-2.4 2.5-4.3 5.4-4.3 3.3 0 3.8 2.4 3.5 4.2-.4 2.5-2.6 4.4-5.4 4.4zm7.7-8.3h1.1c1.3 1.9 2.7 3.7 4 5.6l1.1-5.6h1l-1.5 8.2h-1c-1.1-1.5-2-3-3.1-4.4l-1-1.4-1.1 5.8h-1l1.5-8.2m12.5 1.5c-.1-.6-.5-1-1.1-1-.9 0-1.4.5-1.5 1.2-.3 1.6 3.3 1.3 2.8 4-.3 1.5-1.8 2.6-3.6 2.6-.6 0-1.3-.2-1.8-.5.2-.5.5-1 .6-1.5h.2c0 .8.6 1.3 1.4 1.3.7 0 1.4-.4 1.6-1.2.4-1.9-3.2-1.2-2.7-4.1.3-1.4 1.4-2.5 3.2-2.5.8 0 1.5.3 1.7.6l-.6 1.2-.2-.1M152 395.3c-.3 0-.7-.1-1-.1s-.7 0-1 .1l1.8-8.4h5.1c-.1.2-.1.4-.2.5v.5c-.8-.1-1.7-.2-3.1-.2l-.6 2.6h1.4c.5 0 1.1 0 1.7-.1-.1.2-.1.4-.2.5v.5c-.6 0-1.1-.1-1.6-.1h-1.4l-.9 4.2m9.6-3.3-.6-2.9-1.9 2.9h2.5m-3 .7c-.5.9-1 1.7-1.5 2.5h-1.3l5.7-8.5h1l1.9 8.6c-.4 0-.8-.1-1.1-.1-.4 0-.8 0-1.2.1-.1-.9-.2-1.7-.4-2.6h-3.1zm17.6-5.9c.2 0 .4.1.6.1.2 0 .4 0 .6-.1-.3 3.3-.5 6-.6 8.4-.4 0-.7-.1-1.1-.1-.4 0-.7 0-1.1.1.3-2 .4-3.8.6-5.7l-4.2 5.7h-.5c-.5-1.7-1.2-3.6-1.8-5.5-.8 2.2-1.3 3.9-1.8 5.6-.2 0-.4-.1-.6-.1-.2 0-.4 0-.6.1 1-2.5 2-5.3 3.2-8.4.2 0 .3.1.5.1s.4 0 .6-.1c.6 1.9 1.2 3.9 1.9 5.8 1.2-1.8 2.8-3.7 4.3-5.9m4.2 0c.3 0 .7.1 1 .1s.7 0 1-.1l-1.8 8.4c-.3 0-.7-.1-1-.1s-.7 0-1 .1l1.8-8.4m4.9 7.5c1.2 0 2.2-.1 3.1-.2-.1.2-.1.4-.2.5v.5h-5.1l1.8-8.4c.3 0 .7.1 1 .1s.7 0 1-.1l-1.6 7.6m6.6-7.5c.3 0 .7.1 1 .1s.7 0 1-.1l-1.8 8.4c-.3 0-.7-.1-1-.1s-.7 0-1 .1l1.8-8.4m7.5 5.2-.6-2.9-1.8 2.9h2.4m-2.9.7c-.5.9-1 1.7-1.5 2.5h-1.3l5.7-8.5h1l1.9 8.6c-.4 0-.8-.1-1.1-.1-.4 0-.8 0-1.2.1-.1-.9-.2-1.7-.4-2.6h-3.1zm9.4 1.6c1.2 0 2.2-.1 3.1-.2-.1.2-.1.4-.2.5v.5h-5.1l1.8-8.4c.3 0 .7.1 1 .1s.7 0 1-.1l-1.6 7.6m11.7-7.5c-.1.2-.1.4-.2.5v.5c-.8-.1-1.7-.2-3.1-.2l-.6 2.6h1.4c.6 0 1.2 0 1.7-.1-.1.2-.1.4-.2.5v.5c-.5-.1-1-.1-1.6-.1h-1.4l-.7 3.1c1.4 0 2.3-.1 3.1-.2-.1.2-.1.4-.2.5v.5h-5.1l1.8-8.4 5.1.3m5.7 1.6c-.1-.7-.6-1.1-1.3-1.1-1.1 0-1.6.5-1.7 1.2-.4 1.7 3.8 1.4 3.2 4.2-.3 1.6-2.1 2.7-4.1 2.7-.7 0-1.5-.2-2.1-.5.3-.5.5-1 .7-1.6h.3c0 .8.6 1.4 1.6 1.4.8 0 1.7-.4 1.8-1.3.4-2-3.7-1.3-3.1-4.2.3-1.4 1.6-2.6 3.7-2.6 1 0 1.8.3 2 .6-.2.4-.5.8-.7 1.2h-.3" fill="#fff"/>
</svg>
