<svg id="caf" width="40" height="40" viewBox="0 0 40 40" fill="none" xmlns="http://www.w3.org/2000/svg">
<path d="M39.6006 0.403076H0.4021V39.5973H39.6006V0.403076Z" fill="#0F6BAF"/>
<path fill-rule="evenodd" clip-rule="evenodd" d="M14.4909 15.7165L14.7599 15.5667H14.2632C14.347 15.6211 14.4243 15.6716 14.4909 15.7165Z" fill="#9CB4DA"/>
<path fill-rule="evenodd" clip-rule="evenodd" d="M18.5905 17.5453C18.374 17.466 18.2047 17.3017 18.1141 17.0821C18.0991 17.0468 18.0875 17.0104 18.0777 16.9729C17.9645 17.088 17.8347 17.1902 17.6885 17.2718L16.3877 17.9954H18.4465C18.4877 17.8399 18.5484 17.6929 18.6269 17.556L18.5905 17.5453Z" fill="#9CB4DA"/>
<path fill-rule="evenodd" clip-rule="evenodd" d="M22.5562 17.2533C22.4233 17.1655 22.3104 17.0549 22.219 16.9287C22.1896 17.0179 22.1484 17.1051 22.094 17.1833C21.9198 17.4362 21.654 17.5795 21.385 17.5939C21.4307 17.7218 21.459 17.857 21.4717 17.9958H23.5929C23.5957 17.9766 23.598 17.9577 23.6005 17.9385L22.5562 17.2533Z" fill="#9CB4DA"/>
<path fill-rule="evenodd" clip-rule="evenodd" d="M30.012 15.5662C30.1122 16.2215 29.7777 16.924 29.1532 17.2711C29.1532 17.2717 28.2983 17.7475 27.8518 17.9953H36.2695V15.5662H30.012Z" fill="#9CB4DA"/>
<path fill-rule="evenodd" clip-rule="evenodd" d="M12.1361 17.9383L11.0912 17.253C10.7856 17.0512 10.5796 16.7332 10.5096 16.3567C10.4619 16.0965 10.4825 15.8241 10.5669 15.5662H3.76831V17.9953H12.1281C12.1307 17.9761 12.1335 17.9575 12.1361 17.9383Z" fill="#AFC2E1"/>
<path fill-rule="evenodd" clip-rule="evenodd" d="M25.7273 15.5662C25.8122 15.6206 25.8882 15.6714 25.9551 15.716L26.2246 15.5662H25.7273Z" fill="#9CB4DA"/>
<path fill-rule="evenodd" clip-rule="evenodd" d="M21.4411 3.65969C22.2034 3.65969 22.9106 3.05346 23.0204 2.30443C23.1308 1.55681 22.601 0.949463 21.8385 0.949463C21.0773 0.949463 20.3689 1.55653 20.2591 2.30443C20.149 3.05346 20.6782 3.65969 21.4411 3.65969Z" fill="white"/>
<path fill-rule="evenodd" clip-rule="evenodd" d="M26.1976 3.128C25.9252 2.51133 25.1536 2.30079 24.4746 2.65668L21.354 4.29077L18.7152 2.65668C18.1397 2.30079 17.3057 2.51133 16.8525 3.128C16.3995 3.74438 16.4997 4.53236 17.0743 4.88825L18.9031 6.01405L18.4298 9.23708C18.418 9.32005 18.4262 9.40416 18.46 9.48064C18.563 9.71433 18.8568 9.7942 19.1142 9.65929L20.6871 8.83632L22.0172 9.65929C22.2354 9.79448 22.552 9.71433 22.7239 9.48064C22.7801 9.40416 22.8137 9.32005 22.8269 9.23708L23.2994 6.01405L25.4578 4.88825C26.1386 4.53208 26.4693 3.7441 26.1976 3.128Z" fill="white"/>
<path fill-rule="evenodd" clip-rule="evenodd" d="M20.1202 12.6585C20.8817 12.6585 21.5889 12.0512 21.6996 11.3033C21.8088 10.5551 21.2802 9.948 20.5176 9.948C19.755 9.948 19.048 10.5548 18.9383 11.3033C18.8285 12.0512 19.3568 12.6585 20.1202 12.6585Z" fill="white"/>
<path fill-rule="evenodd" clip-rule="evenodd" d="M24.877 12.1263C24.6046 11.5099 23.833 11.2988 23.1528 11.6544L20.0334 13.2891L17.394 11.6544C16.8185 11.2988 15.9846 11.5099 15.5316 12.1263C15.0786 12.7427 15.1782 13.5309 15.7534 13.8854L17.582 15.0121L17.1081 18.2351C17.0965 18.3189 17.1058 18.4022 17.1394 18.4786C17.2424 18.7123 17.5354 18.7922 17.7936 18.6579L19.3659 17.8338L20.6958 18.6579C20.9145 18.7925 21.2309 18.7123 21.4019 18.4786C21.4581 18.4022 21.4928 18.3189 21.5044 18.2351L21.9779 15.0121L24.137 13.8854C24.818 13.5309 25.1485 12.7427 24.877 12.1263Z" fill="white"/>
<path fill-rule="evenodd" clip-rule="evenodd" d="M12.8775 8.16095C13.6398 8.16095 14.3471 7.55472 14.4569 6.80569C14.5672 6.05807 14.0375 5.45044 13.2752 5.45044C12.5126 5.45044 11.8056 6.05779 11.6956 6.80569C11.5858 7.55444 12.115 8.16095 12.8775 8.16095Z" fill="white"/>
<path fill-rule="evenodd" clip-rule="evenodd" d="M17.634 7.62854C17.3619 7.01216 16.5901 6.80162 15.9102 7.15723L12.7904 8.79217L10.1516 7.15723C9.57615 6.80162 8.74189 7.01216 8.28892 7.62854C7.83651 8.24493 7.93557 9.03347 8.51075 9.38908L10.3393 10.5152L9.86628 13.7382C9.85443 13.8206 9.86374 13.9047 9.89733 13.9815C10.0001 14.2152 10.2936 14.2947 10.551 14.1598L12.1235 13.3369L13.4542 14.1598C13.673 14.295 13.9888 14.2152 14.1604 13.9815C14.2162 13.9047 14.2498 13.8206 14.2625 13.7382L14.7358 10.5152L16.8951 9.38908C17.575 9.03319 17.9058 8.24465 17.634 7.62854Z" fill="white"/>
<path fill-rule="evenodd" clip-rule="evenodd" d="M11.5559 17.1594C12.319 17.1594 13.0257 16.5527 13.1358 15.8039C13.2459 15.0557 12.717 14.4492 11.9547 14.4492C11.1921 14.4492 10.4848 15.0557 10.3748 15.8039C10.265 16.5524 10.7936 17.1594 11.5559 17.1594Z" fill="white"/>
<path fill-rule="evenodd" clip-rule="evenodd" d="M16.313 16.6268C16.041 16.011 15.2694 15.7999 14.5898 16.156L11.4698 17.7898L8.83009 16.156C8.25462 15.7999 7.42093 16.011 6.96795 16.6268C6.51498 17.2432 6.61432 18.0314 7.18978 18.3862L9.01833 19.5134L8.54504 22.737C8.53318 22.8191 8.5425 22.9029 8.57636 22.98C8.67938 23.2131 8.97205 23.2935 9.23028 23.1586L10.802 22.3351L12.1327 23.1586C12.3511 23.2938 12.6681 23.2131 12.8391 22.98C12.8958 22.9029 12.9294 22.8191 12.9421 22.737L13.4154 19.5134L15.5742 18.3862C16.2543 18.0314 16.5851 17.2432 16.313 16.6268Z" fill="white"/>
<path fill-rule="evenodd" clip-rule="evenodd" d="M28.6869 8.16095C27.9252 8.16095 27.3949 7.55472 27.5049 6.80569C27.6147 6.05807 28.322 5.45044 29.0848 5.45044C29.8471 5.45044 30.3763 6.05779 30.2668 6.80569C30.1559 7.55444 29.4492 8.16095 28.6869 8.16095Z" fill="white"/>
<path fill-rule="evenodd" clip-rule="evenodd" d="M24.0863 7.62854C24.5392 7.01216 25.3735 6.80162 25.9484 7.15723L28.5883 8.79217L31.7084 7.15723C32.388 6.80162 33.1599 7.01216 33.4314 7.62854C33.7029 8.24493 33.3724 9.03347 32.6928 9.38908L30.5332 10.5152L30.0602 13.7382C30.048 13.8206 30.015 13.9047 29.9583 13.9815C29.7858 14.2152 29.4695 14.2947 29.251 14.1598L27.9203 13.3369L26.3483 14.1598C26.0915 14.295 25.7977 14.2152 25.6947 13.9815C25.6611 13.9047 25.6518 13.8206 25.6639 13.7382L26.1375 10.5152L24.3089 9.38908C23.7324 9.03319 23.6336 8.24465 24.0863 7.62854Z" fill="white"/>
<path fill-rule="evenodd" clip-rule="evenodd" d="M27.3661 17.1594C26.6033 17.1594 26.0741 16.5527 26.1842 15.8039C26.2939 15.0557 27.0015 14.4492 27.7641 14.4492C28.5266 14.4492 29.055 15.0557 28.946 15.8039C28.8351 16.5524 28.1284 17.1594 27.3661 17.1594Z" fill="white"/>
<path fill-rule="evenodd" clip-rule="evenodd" d="M22.7656 16.6268C23.2183 16.011 24.0518 15.7999 24.6278 16.156L27.2666 17.7898L30.3866 16.156C31.0668 15.7999 31.8387 16.011 32.1102 16.6268C32.3825 17.2432 32.0518 18.0314 31.3716 18.3862L29.2126 19.5134L28.739 22.737C28.7274 22.8191 28.6944 22.9029 28.6377 22.98C28.4652 23.2131 28.1494 23.2935 27.9304 23.1586L26.5997 22.3351L25.0277 23.1586C24.7697 23.2938 24.4776 23.2131 24.3741 22.98C24.3399 22.9029 24.3312 22.8191 24.3433 22.737L24.8163 19.5134L22.9875 18.3862C22.4117 18.0314 22.3121 17.2432 22.7656 16.6268Z" fill="white"/>
<path fill-rule="evenodd" clip-rule="evenodd" d="M18.7985 21.6568C19.5611 21.6568 20.268 21.05 20.3787 20.3013C20.4879 19.5528 19.9584 18.9463 19.1961 18.9463C18.4339 18.9463 17.7266 19.5525 17.6165 20.3013C17.5065 21.05 18.0362 21.6568 18.7985 21.6568Z" fill="white"/>
<path fill-rule="evenodd" clip-rule="evenodd" d="M23.555 21.1251C23.2832 20.5087 22.5116 20.2976 21.832 20.6532L18.7126 22.2887L16.0732 20.6532C15.4977 20.2976 14.6632 20.5087 14.2102 21.1251C13.7575 21.7409 13.8566 22.5291 14.4326 22.8845L16.2612 24.01L15.7879 27.2341C15.776 27.3174 15.7845 27.4007 15.8186 27.4771C15.9219 27.7108 16.214 27.7907 16.4726 27.6558L18.0446 26.8328L19.3753 27.6558C19.5929 27.791 19.9101 27.7108 20.082 27.4771C20.1375 27.4007 20.172 27.3174 20.1844 27.2341L20.6574 24.01L22.8159 22.8845C23.4966 22.5289 23.8279 21.7406 23.555 21.1251Z" fill="white"/>
<path d="M3.52239 30.6071L3.29124 29.341L2.55491 30.6071H3.52239ZM2.34973 30.9401C2.13468 31.3519 1.93881 31.6897 1.76778 32.0651C1.68424 32.0592 1.60691 32.0476 1.52225 32.0476C1.43786 32.0476 1.35122 32.0592 1.26514 32.0651L3.48852 28.2974C3.55512 28.3084 3.61778 28.314 3.68636 28.314C3.75494 28.314 3.81901 28.3084 3.89041 28.2974L4.65073 32.0755C4.49917 32.0651 4.35439 32.0473 4.20086 32.0473C4.04733 32.0473 3.89662 32.0648 3.74139 32.0755C3.69567 31.6736 3.65531 31.3039 3.58081 30.9401H2.34973Z" fill="white"/>
<path d="M6.11937 31.6565C6.57968 31.6565 6.97818 31.6178 7.34395 31.5809C7.31911 31.6565 7.28807 31.7381 7.27339 31.8146C7.259 31.8908 7.25956 31.9718 7.25589 32.0471H5.25293L5.95285 28.3457C6.08296 28.3567 6.21165 28.3734 6.34374 28.3734C6.47554 28.3734 6.61129 28.3567 6.74563 28.3457L6.11937 31.6565Z" fill="white"/>
<path d="M8.86794 31.6565C9.3274 31.6565 9.72563 31.6178 10.092 31.5809C10.0674 31.6565 10.0361 31.7381 10.022 31.8146C10.0076 31.8908 10.0076 31.9718 10.0033 32.0471H8.00122L8.70058 28.3457C8.83125 28.3567 8.95994 28.3734 9.09203 28.3734C9.22411 28.3734 9.35901 28.3567 9.49364 28.3457L8.86794 31.6565Z" fill="white"/>
<path d="M11.6805 30.3635C11.5467 31.0691 11.7163 31.8198 12.5094 31.8198C13.323 31.8198 13.8457 30.983 14.0165 30.0801C14.1488 29.3797 13.9834 28.5742 13.1918 28.5742C12.4566 28.5742 11.9102 29.1454 11.6805 30.3635ZM12.4213 32.1455C11.2537 32.1455 10.6001 31.4394 10.8332 30.2052C11.0376 29.1231 11.9692 28.2488 13.2844 28.2488C14.7909 28.2488 15.028 29.3407 14.8736 30.1834C14.6788 31.2438 13.7156 32.1455 12.4213 32.1455Z" fill="white"/>
<path d="M18.2068 31.4444L18.0016 31.9118C17.6528 32.0811 17.2659 32.1454 16.9117 32.1454C15.7808 32.1454 15.06 31.4289 15.2714 30.3144C15.5386 28.895 16.6125 28.249 17.764 28.249C18.1128 28.249 18.5187 28.341 18.7921 28.5152C18.7097 28.6997 18.6434 28.8846 18.5647 29.0751H18.4904C18.3507 28.7813 18.051 28.5741 17.7084 28.5741C16.8307 28.5741 16.3136 29.4389 16.1621 30.2379C15.9868 31.1672 16.3077 31.8198 17.1205 31.8198C17.4485 31.8198 17.8619 31.6467 18.1439 31.4119L18.2068 31.4444Z" fill="white"/>
<path d="M20.7586 30.6071L20.5278 29.341L19.7917 30.6071H20.7586ZM19.5868 30.9401C19.3706 31.3519 19.1753 31.6897 19.0035 32.0651C18.9205 32.0592 18.8432 32.0476 18.7588 32.0476C18.6744 32.0476 18.5875 32.0592 18.502 32.0651L20.7256 28.2974C20.7917 28.3084 20.8546 28.314 20.9229 28.314C20.9906 28.314 21.0558 28.3084 21.1258 28.2974L21.887 32.0755C21.7354 32.0651 21.5915 32.0473 21.4377 32.0473C21.2839 32.0473 21.1334 32.0648 20.9779 32.0755C20.9328 31.6736 20.8907 31.3039 20.8171 30.9401H19.5868Z" fill="white"/>
<path d="M23.9744 32.0753C23.8443 32.0649 23.7153 32.0471 23.5824 32.0471C23.4506 32.0471 23.3157 32.0646 23.1822 32.0753L23.8133 28.7321C23.4385 28.7321 23.0984 28.7696 22.8162 28.8083C22.841 28.7321 22.8706 28.6562 22.8867 28.574C22.9017 28.4978 22.8989 28.4225 22.9028 28.3457H25.6243C25.6 28.4222 25.5704 28.4978 25.5549 28.574C25.5394 28.6562 25.5422 28.7324 25.5382 28.8083C25.2334 28.7696 24.9281 28.7321 24.6055 28.7321L23.9744 32.0753Z" fill="white"/>
<path d="M26.3221 28.3459C26.4522 28.357 26.5812 28.3736 26.713 28.3736C26.8454 28.3736 26.9803 28.357 27.1149 28.3459L26.4099 32.0756C26.2803 32.0651 26.1502 32.0474 26.019 32.0474C25.8866 32.0474 25.7512 32.0648 25.6177 32.0756L26.3221 28.3459Z" fill="white"/>
<path d="M28.3065 30.3635C28.173 31.0691 28.3429 31.8198 29.136 31.8198C29.9496 31.8198 30.472 30.983 30.643 30.0801C30.776 29.3797 30.6112 28.5742 29.8178 28.5742C29.0837 28.5742 28.5368 29.1454 28.3065 30.3635ZM29.0473 32.1455C27.8803 32.1455 27.2267 31.4394 27.4592 30.2052C27.6639 29.1231 28.5952 28.2488 29.9115 28.2488C31.4175 28.2488 31.654 29.3407 31.4996 30.1834C31.3057 31.2438 30.3428 32.1455 29.0473 32.1455Z" fill="white"/>
<path d="M32.5764 28.3459H33.0991C33.6901 29.1887 34.3217 30.015 34.9017 30.8905L35.3823 28.3459C35.4495 28.357 35.5212 28.3626 35.5901 28.3626C35.6589 28.3626 35.7346 28.357 35.8046 28.3459L35.1001 32.0756L34.6519 32.0699C34.1719 31.3689 33.7277 30.6997 33.2529 30.0531L32.7938 29.4331L32.2959 32.0651C32.2293 32.0592 32.1559 32.0476 32.0888 32.0476C32.0199 32.0476 31.9431 32.0592 31.8743 32.0651L32.5764 28.3459Z" fill="white"/>
<path d="M38.2605 29.0478C38.2102 28.759 38.0432 28.5742 37.7417 28.5742C37.3243 28.5742 37.1183 28.798 37.0604 29.1073C36.9216 29.8417 38.5543 29.7059 38.3183 30.95C38.1871 31.6468 37.5114 32.146 36.6921 32.146C36.4017 32.146 36.1034 32.0755 35.8853 31.9118C35.9917 31.684 36.0935 31.456 36.1697 31.2212H36.2696C36.2778 31.5977 36.5217 31.8198 36.8866 31.8198C37.214 31.8198 37.5402 31.629 37.6108 31.2548C37.7756 30.385 36.1418 30.6996 36.3893 29.391C36.5073 28.7641 37.0221 28.2488 37.8258 28.2488C38.2057 28.2488 38.5165 28.3955 38.6107 28.509C38.5153 28.6831 38.4278 28.8623 38.3395 29.0475H38.2605" fill="white"/>
<path d="M3.98277 37.6342C3.83177 37.6227 3.68248 37.6054 3.52923 37.6054C3.37598 37.6054 3.21934 37.6227 3.06299 37.6342L3.88088 33.7866H6.21687C6.18752 33.8648 6.15168 33.9486 6.13446 34.0271C6.11809 34.1053 6.11866 34.1896 6.11414 34.2681C5.74866 34.2289 5.35834 34.1899 4.71486 34.1899L4.4586 35.3959H5.10772C5.34705 35.3959 5.5971 35.3733 5.86042 35.3451C5.83135 35.4244 5.79551 35.5082 5.77886 35.5869C5.76249 35.6651 5.76249 35.7495 5.75854 35.828C5.50566 35.8054 5.26605 35.7777 5.02108 35.7777H4.37704L3.98277 37.6342Z" fill="white"/>
<path d="M8.36964 36.1192L8.10181 34.8122L7.24836 36.1192H8.36964ZM7.01016 36.4615C6.76011 36.8883 6.53291 37.2354 6.33394 37.6223C6.23714 37.6167 6.14739 37.6051 6.04946 37.6051C5.95153 37.6051 5.85077 37.6167 5.75171 37.6223L8.3307 33.7361C8.40774 33.746 8.48028 33.7527 8.55986 33.7527C8.63973 33.7527 8.71452 33.7462 8.79694 33.7361L9.67889 37.6339C9.50363 37.6223 9.33599 37.6051 9.15819 37.6051C8.98038 37.6051 8.80512 37.6223 8.62478 37.6339C8.572 37.2182 8.52402 36.838 8.43823 36.4615H7.01016Z" fill="white"/>
<path d="M15.0031 33.7866C15.0858 33.7982 15.1682 33.8148 15.2546 33.8148C15.3401 33.8148 15.4355 33.7982 15.5238 33.7866C15.3934 35.2948 15.2749 36.518 15.2458 37.6342C15.0765 37.6227 14.9145 37.6054 14.7432 37.6054C14.5713 37.6054 14.4146 37.6227 14.2405 37.6342C14.3808 36.743 14.4409 35.8841 14.5321 35.0197C13.8838 35.8785 13.2417 36.7362 12.6214 37.6054C12.5446 37.5939 12.4718 37.5888 12.3891 37.6054C12.1613 36.8316 11.8616 35.9629 11.5825 35.082C11.2317 36.0698 10.9684 36.8482 10.7827 37.6342C10.6873 37.6227 10.5992 37.6054 10.501 37.6054C10.4025 37.6054 10.3133 37.6227 10.2131 37.6342C10.6732 36.5064 11.1456 35.2051 11.6556 33.7866C11.7391 33.7982 11.8148 33.8148 11.9006 33.8148C11.9866 33.8148 12.0761 33.7982 12.1645 33.7866C12.4185 34.6675 12.7168 35.5418 13.0145 36.4226C13.6244 35.6253 14.3328 34.7456 15.0031 33.7866Z" fill="white"/>
<path d="M16.9516 33.7866C17.1026 33.7982 17.2519 33.8148 17.406 33.8148C17.5587 33.8148 17.7156 33.7982 17.8714 33.7866L17.0535 37.6342C16.9031 37.6227 16.7535 37.6054 16.6 37.6054C16.4467 37.6054 16.2901 37.6227 16.134 37.6342L16.9516 33.7866Z" fill="white"/>
<path d="M19.1793 37.2018C19.7135 37.2018 20.175 37.1621 20.6 37.1225C20.5718 37.2018 20.5351 37.2862 20.519 37.3644C20.5018 37.4426 20.5024 37.527 20.497 37.6054H18.1746L18.986 33.7866C19.1372 33.7982 19.2868 33.8148 19.4401 33.8148C19.5927 33.8148 19.7499 33.7982 19.9055 33.7866L19.1793 37.2018Z" fill="white"/>
<path d="M22.1797 33.7866C22.3307 33.7982 22.4806 33.8148 22.6327 33.8148C22.7865 33.8148 22.9443 33.7982 23.0995 33.7866L22.2822 37.6342C22.1306 37.6227 21.9813 37.6054 21.8281 37.6054C21.6748 37.6054 21.5182 37.6227 21.3618 37.6342L22.1797 33.7866Z" fill="white"/>
<path d="M25.6061 36.1192L25.3383 34.8122L24.4851 36.1192H25.6061ZM24.2455 36.4615C23.9957 36.8883 23.7691 37.2354 23.5701 37.6223C23.473 37.6167 23.3838 37.6051 23.2845 37.6051C23.1868 37.6051 23.0866 37.6167 22.9873 37.6223L25.566 33.7361C25.6436 33.746 25.7164 33.7527 25.7963 33.7527C25.8756 33.7527 25.9507 33.7462 26.0328 33.7361L26.9148 37.6339C26.7395 37.6223 26.5707 37.6051 26.3926 37.6051C26.2151 37.6051 26.0404 37.6223 25.8601 37.6339C25.8076 37.2182 25.7599 36.838 25.6738 36.4615H24.2455Z" fill="white"/>
<path d="M28.5575 37.2018C29.0917 37.2018 29.5534 37.1621 29.9785 37.1225C29.9497 37.2018 29.9138 37.2862 29.8963 37.3644C29.8797 37.4426 29.8808 37.527 29.876 37.6054H27.5527L28.3636 33.7866C28.5151 33.7982 28.6644 33.8148 28.8182 33.8148C28.9721 33.8148 29.1281 33.7982 29.2845 33.7866L28.5575 37.2018Z" fill="white"/>
<path d="M33.8765 33.7866C33.8469 33.8648 33.8099 33.9486 33.7938 34.0271C33.7772 34.1053 33.7772 34.1896 33.7735 34.2681C33.4097 34.2241 33.0019 34.1789 32.3728 34.1899L32.1177 35.3959H32.7549C33.0315 35.3959 33.2875 35.3733 33.5201 35.3451C33.4907 35.4244 33.4546 35.5082 33.4379 35.5869C33.4218 35.6651 33.4218 35.7495 33.4176 35.828C33.1978 35.8003 32.9508 35.7777 32.6739 35.7777H32.0361L31.7336 37.2021C32.3604 37.197 32.7837 37.1685 33.1667 37.1228C33.1379 37.2021 33.1018 37.2865 33.0857 37.3647C33.0682 37.4429 33.0685 37.5272 33.0637 37.6057H30.7283L31.5402 33.7869H33.8765" fill="white"/>
<path d="M36.4691 34.5096C36.4084 34.2119 36.2171 34.0214 35.8677 34.0214C35.3831 34.0214 35.1446 34.2517 35.076 34.5715C34.9146 35.329 36.8086 35.1878 36.5357 36.4725C36.3825 37.1902 35.5993 37.7073 34.6493 37.7073C34.3115 37.7073 33.9652 37.6339 33.7129 37.4654C33.8368 37.23 33.9542 36.9947 34.042 36.7533H34.1594C34.1687 37.1403 34.4509 37.3697 34.8743 37.3697C35.2536 37.3697 35.6329 37.1742 35.7153 36.7878C35.9055 35.8897 34.0092 36.2151 34.2965 34.8636C34.4343 34.2181 35.0315 33.6855 35.9634 33.6855C36.4042 33.6855 36.7643 33.8371 36.8741 33.9551C36.7624 34.1337 36.6624 34.3189 36.56 34.5102H36.4691" fill="white"/>
</svg>