<svg id="aidants.svg" width="120" height="56" viewBox="0 0 120 56" fill="none" xmlns="http://www.w3.org/2000/svg">
<path d="M31.6926 35.1771C31.4886 34.8727 31.2845 34.5974 31.0367 34.3365C30.2787 33.5249 29.3458 33.0611 28.2234 33.0032C26.5471 32.9307 25.1914 33.5249 24.3168 35.0032C23.3548 36.6264 23.588 38.8582 24.827 40.2061C25.585 41.0322 26.5471 41.4235 27.6549 41.4959C28.7773 41.5684 29.7685 41.2785 30.6285 40.5539C30.993 40.2351 31.3136 39.8872 31.576 39.4669C31.6635 39.3365 31.7072 39.351 31.8238 39.4235C32.4069 39.8438 32.99 40.2496 33.573 40.6553C33.6897 40.7278 33.6751 40.7858 33.6168 40.8872C32.611 42.5104 31.1533 43.4959 29.2729 43.8438C27.4217 44.1916 25.6579 43.9017 24.069 42.8872C22.3198 41.7568 21.2849 40.1336 21.0516 38.0611C20.8184 36.0322 21.3723 34.2351 22.7717 32.7278C23.8649 31.5394 25.2497 30.8582 26.8386 30.6264C28.2234 30.4235 29.5499 30.5684 30.8326 31.1481C32.0279 31.6843 32.9608 32.5249 33.6459 33.6409C33.6897 33.6988 33.748 33.7568 33.6313 33.8293C32.9754 34.264 32.334 34.7278 31.6926 35.1771Z" fill="#003188"/>
<path d="M61.4437 34.8727C61.5603 34.7713 61.6623 34.6843 61.7644 34.6119C62.6244 33.9597 63.601 33.7423 64.6506 33.8148C65.5397 33.8727 66.3269 34.1771 66.9537 34.8293C67.5368 35.438 67.8283 36.1771 67.9303 36.9887C67.9741 37.2496 67.9741 37.5104 67.9741 37.7713C67.9741 39.6988 67.9741 41.6409 67.9741 43.5684C67.9741 43.7278 67.9303 43.7568 67.7846 43.7568C67.0266 43.7423 66.254 43.7423 65.496 43.7568C65.3502 43.7568 65.3065 43.7133 65.3211 43.5684C65.3211 41.7133 65.3211 39.8582 65.3211 38.0177C65.3211 37.1916 64.8546 36.5104 64.1258 36.293C62.9305 35.9452 61.6769 36.6119 61.6623 38.0611C61.6478 39.8872 61.6623 41.7133 61.6623 43.5539C61.6623 43.7278 61.6186 43.7568 61.4437 43.7568C60.6711 43.7423 59.8986 43.7423 59.1406 43.7568C59.0094 43.7568 58.9802 43.7278 58.9802 43.5974C58.9802 40.4669 58.9802 37.322 58.9802 34.1916C58.9802 34.0611 59.024 34.0322 59.1406 34.0322C59.8548 34.0322 60.5691 34.0322 61.2688 34.0322C61.4 34.0322 61.4291 34.0756 61.4291 34.1916C61.4291 34.3945 61.4437 34.6119 61.4437 34.8727Z" fill="#003188"/>
<path d="M66.2687 20.0467C66.3853 19.9452 66.4727 19.8727 66.5602 19.8003C67.5223 19.0612 68.6155 18.8438 69.7962 19.0177C70.8895 19.1626 71.7349 19.6988 72.2888 20.6554C72.6533 21.293 72.8136 21.9742 72.8136 22.6988C72.8136 24.7133 72.8136 26.7278 72.8136 28.7423C72.8136 28.8727 72.7844 28.9017 72.6533 28.9017C71.8807 28.9017 71.1081 28.8872 70.3501 28.9017C70.2044 28.9017 70.1606 28.8727 70.1606 28.7133C70.1606 26.8583 70.1606 25.0032 70.1606 23.1336C70.1606 22.3655 69.7379 21.7278 69.0674 21.4669C68.3531 21.1916 67.5077 21.351 66.9975 21.8872C66.6331 22.2641 66.5019 22.7278 66.5019 23.2351C66.5019 25.0467 66.5019 26.8727 66.5019 28.6843C66.5019 28.8438 66.4727 28.9017 66.2978 28.9017C65.5252 28.8872 64.7527 28.8872 63.9947 28.9017C63.8635 28.9017 63.8344 28.8727 63.8344 28.7423C63.8344 25.5974 63.8344 22.4669 63.8344 19.322C63.8344 19.1916 63.8781 19.1626 63.9947 19.1626C64.709 19.1626 65.4232 19.1626 66.1229 19.1626C66.2541 19.1626 66.2832 19.2061 66.2832 19.322C66.2541 19.5684 66.2687 19.7858 66.2687 20.0467Z" fill="#003188"/>
<path d="M50.1759 34.8727C51.2546 33.9162 52.479 33.6409 53.8347 33.8727C55.2778 34.1046 56.3273 35.1771 56.6043 36.6409C56.6771 37.0032 56.7063 37.3655 56.7063 37.7423C56.7063 39.6843 56.7063 41.6264 56.7063 43.5539C56.7063 43.6988 56.6771 43.7423 56.5168 43.7423C55.7588 43.7278 54.9862 43.7278 54.2282 43.7423C54.0679 43.7423 54.0387 43.6988 54.0387 43.5539C54.0387 41.7133 54.0387 39.8582 54.0387 38.0177C54.0387 37.1916 53.5869 36.5104 52.8435 36.2785C51.6919 35.9162 50.38 36.5539 50.38 38.0466C50.3654 39.8872 50.38 41.7133 50.38 43.5539C50.38 43.7133 50.3363 43.7568 50.1759 43.7568C49.4179 43.7423 48.6454 43.7568 47.8874 43.7568C47.7562 43.7568 47.6979 43.7278 47.6979 43.5829C47.6979 40.4524 47.6979 37.3365 47.6979 34.2061C47.6979 34.0611 47.7416 34.0322 47.8874 34.0322C48.5871 34.0466 49.3013 34.0466 50.001 34.0322C50.1322 34.0322 50.1759 34.0611 50.1613 34.1916C50.1613 34.3945 50.1759 34.6264 50.1759 34.8727Z" fill="#003188"/>
<path d="M86.4428 33.7858C87.8276 33.8003 89.0083 34.2061 89.9703 35.1626C90.2327 35.438 90.4659 35.7278 90.6554 36.0612C90.7137 36.1626 90.7138 36.2061 90.6117 36.2785C90.0578 36.6988 89.5185 37.1191 88.9645 37.5394C88.8625 37.6119 88.8334 37.5974 88.775 37.5104C88.4398 37.0177 88.0316 36.6119 87.4631 36.38C86.0492 35.8293 84.2417 36.5394 83.9793 38.4235C83.8773 39.1771 84.0085 39.8872 84.4603 40.5104C85.3495 41.7278 87.1716 41.8583 88.2794 40.7858C88.4689 40.6119 88.6293 40.4235 88.775 40.2061C88.8188 40.1336 88.8625 40.1191 88.9354 40.1771C89.4893 40.6119 90.0432 41.0322 90.6117 41.4525C90.7283 41.5394 90.6846 41.5974 90.6263 41.6698C89.9412 42.7858 88.95 43.5249 87.6672 43.8148C85.437 44.322 83.0027 43.438 81.8511 41.3075C80.2185 38.322 81.822 34.5394 85.437 33.8583C85.8014 33.8293 86.1367 33.8003 86.4428 33.7858Z" fill="#003188"/>
<path d="M86.7489 29.1336C85.3787 29.1191 84.1543 28.7133 83.1485 27.7568C83.0173 27.6264 82.8861 27.4669 82.7549 27.3365C82.6966 27.2785 82.7112 27.2206 82.7549 27.1626C83.1485 26.6988 83.542 26.2206 83.9356 25.7423C84.0231 25.6409 84.0522 25.6554 84.1397 25.7423C84.6644 26.2496 85.2621 26.6698 85.9763 26.8583C86.4428 26.9742 86.9093 27.0032 87.3757 26.8727C87.5069 26.8438 87.6235 26.7858 87.7401 26.6988C88.1191 26.4235 88.1191 25.9307 87.7401 25.6554C87.5215 25.4814 87.2591 25.3945 86.9967 25.2785C86.3845 25.0177 85.7431 24.7858 85.1455 24.4814C84.5624 24.1916 84.0231 23.8293 83.6732 23.2641C82.8423 21.9452 83.3817 20.1336 84.7811 19.409C85.5682 19.0177 86.3991 18.9017 87.2591 18.9597C88.4107 19.0322 89.431 19.438 90.2619 20.2496C90.3785 20.3655 90.4222 20.438 90.2911 20.5974C89.9121 21.0322 89.5476 21.4814 89.1832 21.9452C89.0958 22.0612 89.052 22.0467 88.95 21.9597C88.294 21.409 87.5506 21.0901 86.676 21.1481C86.4865 21.1626 86.3116 21.2061 86.1367 21.293C85.7723 21.5104 85.7285 21.9742 86.0492 22.2641C86.2096 22.409 86.4136 22.4959 86.6031 22.5829C87.3028 22.8872 88.0317 23.1481 88.7168 23.4814C89.0666 23.6554 89.4019 23.8727 89.708 24.1191C90.4368 24.7568 90.6555 25.5684 90.5243 26.4814C90.3202 27.8438 89.431 28.5829 88.1628 28.9597C87.711 29.0901 87.2445 29.1481 86.7489 29.1336Z" fill="#003188"/>
<path d="M93.221 38.7713C93.221 37.8872 93.221 37.1481 93.221 36.409C93.221 36.293 93.1919 36.2496 93.0607 36.2496C92.6525 36.2641 92.2298 36.2496 91.8217 36.2496C91.7051 36.2496 91.6759 36.2206 91.6759 36.1046C91.6759 35.4525 91.6759 34.8003 91.6759 34.1481C91.6759 34.0322 91.7196 34.0032 91.8217 34.0032C92.2298 34.0032 92.6525 34.0032 93.0607 34.0032C93.1919 34.0032 93.221 33.9597 93.221 33.8438C93.221 33.1336 93.221 32.4235 93.221 31.7133C93.221 31.5684 93.2648 31.5394 93.396 31.5394C94.1831 31.5394 94.9557 31.5539 95.7428 31.5394C95.9032 31.5394 95.9177 31.5829 95.9177 31.7278C95.9177 32.438 95.9177 33.1336 95.9177 33.8438C95.9177 33.9742 95.9615 34.0032 96.0781 34.0032C96.8944 34.0032 97.7107 34.0032 98.527 34.0032C98.6436 34.0032 98.6873 34.0322 98.6873 34.1481C98.6873 34.8003 98.6727 35.438 98.6873 36.0901C98.6873 36.2351 98.6436 36.2496 98.5124 36.2496C97.6961 36.2496 96.8944 36.2496 96.0781 36.2496C95.9323 36.2496 95.9032 36.2785 95.9032 36.4235C95.9032 37.6554 95.9032 38.8872 95.9032 40.1191C95.9032 41.0032 96.355 41.4814 97.2588 41.5684C97.7836 41.6119 98.3229 41.5539 98.8477 41.5249C98.9643 41.5104 98.9934 41.5394 98.9934 41.6554C98.9934 42.3075 98.9934 42.9597 98.9934 43.6119C98.9934 43.6698 99.0226 43.7278 98.9205 43.7568C97.769 44.0177 96.632 44.0901 95.495 43.7423C94.1977 43.3365 93.498 42.4235 93.3085 41.1191C93.1627 40.293 93.2502 39.4525 93.221 38.7713Z" fill="#003188"/>
<path d="M78.5714 23.6119C78.586 24.1626 78.5277 24.8438 78.6005 25.5249C78.6588 26.1916 79.0233 26.5684 79.6938 26.6988C80.1894 26.7858 80.685 26.7568 81.1952 26.7133C81.2681 26.7133 81.341 26.6988 81.4284 26.6988C81.6762 26.6843 81.6762 26.6843 81.6762 26.9452C81.6762 27.5539 81.6762 28.1481 81.6762 28.7568C81.6762 28.8293 81.6908 28.9162 81.5742 28.9307C80.4226 29.1916 79.2711 29.2496 78.1195 28.8872C76.8951 28.4959 76.21 27.6409 75.9913 26.3945C75.933 26.0756 75.9184 25.7568 75.9184 25.4235C75.9184 24.1481 75.9184 22.8728 75.9184 21.5974C75.9184 21.438 75.8747 21.3945 75.7143 21.3945C75.3062 21.409 74.9126 21.3945 74.5045 21.3945C74.4024 21.3945 74.3733 21.3655 74.3733 21.2641C74.3733 20.5974 74.3733 19.9452 74.3733 19.2785C74.3733 19.1771 74.4024 19.1481 74.5045 19.1481C74.9126 19.1481 75.3354 19.1481 75.7435 19.1481C75.8747 19.1481 75.9038 19.1191 75.9038 18.9887C75.9038 18.2785 75.9038 17.5684 75.9038 16.8583C75.9038 16.7278 75.933 16.6988 76.0642 16.6988C76.8513 16.6988 77.6385 16.6988 78.4256 16.6988C78.5422 16.6988 78.586 16.7278 78.586 16.8583C78.586 17.5684 78.586 18.2785 78.586 18.9887C78.586 19.1336 78.6297 19.1626 78.7609 19.1626C79.5772 19.1626 80.3789 19.1626 81.1952 19.1626C81.3264 19.1626 81.3701 19.1916 81.3701 19.3365C81.3555 19.9742 81.3701 20.6264 81.3701 21.2641C81.3701 21.3945 81.3264 21.4235 81.2098 21.409C80.3935 21.409 79.5772 21.409 78.7609 21.409C78.6297 21.409 78.586 21.438 78.586 21.5829C78.5714 22.2206 78.5714 22.8583 78.5714 23.6119Z" fill="#003188"/>
<path d="M37.9752 24.0467C37.9752 25.5974 37.9752 27.1626 37.9752 28.7133C37.9752 28.8727 37.9315 28.9017 37.7711 28.9017C37.0131 28.8872 36.2406 28.9017 35.4826 28.9017C35.3514 28.9017 35.2931 28.8727 35.2931 28.7278C35.2931 25.5974 35.2931 22.4814 35.2931 19.351C35.2931 19.2206 35.3222 19.1771 35.468 19.1771C36.2552 19.1771 37.0277 19.1916 37.8149 19.1771C37.9606 19.1771 37.9752 19.2351 37.9752 19.351C37.9752 20.9162 37.9752 22.4814 37.9752 24.0467Z" fill="#003188"/>
<path d="M50.2196 14.1771C49.4616 14.1771 48.689 14.1916 47.9311 14.1771C47.7707 14.1771 47.7124 14.2061 47.7124 14.38C47.727 16.0322 47.7124 17.6988 47.7124 19.351C47.7124 19.5974 47.7124 19.8293 47.7124 20.1191C47.6249 20.0467 47.5812 19.9887 47.5229 19.9452C46.6629 19.1771 45.6425 18.9162 44.5201 18.9887C42.7126 19.1046 41.4007 19.9742 40.599 21.5829C40.0013 22.7858 39.9139 24.0612 40.1908 25.3655C40.3949 26.351 40.8614 27.2206 41.6048 27.9307C42.5668 28.8293 43.733 29.2061 45.0449 29.1481C45.9924 29.1046 46.8524 28.8293 47.5521 28.1626C47.6833 28.0467 47.7999 27.9017 47.9311 27.7568C47.9311 28.1046 47.9311 28.4235 47.9311 28.7423C47.9311 28.8583 47.9456 28.9162 48.0914 28.9162C48.8057 28.9017 49.5199 28.9017 50.2488 28.9162C50.3799 28.9162 50.4091 28.8727 50.4091 28.7423C50.4091 23.9452 50.4091 19.1481 50.4091 14.3365C50.4091 14.1916 50.3508 14.1771 50.2196 14.1771ZM47.6395 24.9887C47.3334 26.0612 46.4442 26.7133 45.3073 26.7133C43.9808 26.7133 42.9312 25.7713 42.8001 24.438C42.7272 23.6988 42.8292 23.0032 43.2665 22.3945C43.9079 21.5249 44.7971 21.2206 45.832 21.438C46.867 21.6409 47.4646 22.322 47.6833 23.3365C47.8144 23.8727 47.7999 24.438 47.6395 24.9887Z" fill="#003188"/>
<path d="M33.6313 28.7423C33.3397 28.0322 33.0482 27.3075 32.7567 26.5974C31.299 23.0177 29.8413 19.4235 28.3837 15.8438C28.3399 15.7423 28.2816 15.7133 28.1796 15.7133C27.7131 15.7133 27.2321 15.7278 26.7656 15.7133C26.6053 15.7133 26.5324 15.7713 26.4741 15.9162C25.6432 17.9597 24.8124 20.0032 23.9669 22.0467C23.0632 24.2641 22.1448 26.4959 21.2265 28.7278C21.1828 28.8438 21.1682 28.9017 21.3285 28.9017C22.174 28.8872 23.034 28.9017 23.8795 28.9017C23.9961 28.9017 24.0544 28.8583 24.0981 28.7568C24.3022 28.2785 24.5063 27.8003 24.7103 27.322C24.7395 27.2351 24.7832 27.2206 24.8707 27.2206C26.5616 27.2206 28.267 27.2206 29.9579 27.2206C30.06 27.2206 30.1037 27.2496 30.1329 27.3365C30.3369 27.8148 30.541 28.293 30.7451 28.7713C30.7888 28.8727 30.8325 28.9162 30.9492 28.9017C31.3719 28.9017 31.7946 28.9017 32.2319 28.9017C32.6692 28.9017 33.0774 28.9017 33.5147 28.9017C33.675 28.9162 33.6896 28.8727 33.6313 28.7423ZM25.7015 25.0322C26.27 23.351 26.8531 21.6698 27.4362 19.9597C28.0192 21.6698 28.5877 23.351 29.1708 25.0322C28.0047 25.0322 26.8677 25.0322 25.7015 25.0322Z" fill="#003188"/>
<path d="M45.3073 37.3655C44.593 35.1191 42.3336 33.6264 39.9139 33.8148C38.5874 33.9162 37.4067 34.38 36.4884 35.3365C35.0599 36.8148 34.6954 38.5684 35.3077 40.4959C35.9636 42.5829 37.9752 43.9597 40.3075 43.9597C40.7156 43.9452 41.1675 43.9017 41.6194 43.7858C44.5056 43.0901 46.1965 40.1481 45.3073 37.3655ZM40.9926 41.409C39.4766 41.8148 38.0044 40.9597 37.7857 39.3075C37.6545 38.3365 37.8877 37.4669 38.6311 36.8003C39.841 35.7278 42.0858 36.0756 42.6689 38.0322C42.7126 38.1771 42.7418 38.3365 42.7709 38.4959C42.7855 38.6264 42.7855 38.7423 42.8001 38.8727C42.8001 40.1046 42.1004 41.1191 40.9926 41.409Z" fill="#003188"/>
<path d="M61.2542 23.2206C61.2542 22.8293 61.2251 22.438 61.1522 22.0467C60.9044 20.7568 60.2193 19.8003 58.9802 19.3075C58.0036 18.9162 56.9978 18.8872 55.9774 19.0612C54.7093 19.2785 53.6889 19.9307 52.858 20.8872C52.7997 20.9452 52.7997 20.9887 52.858 21.0612C53.2808 21.5394 53.6889 22.0322 54.097 22.5249C54.1554 22.5974 54.1991 22.6119 54.272 22.5249C54.374 22.4235 54.476 22.322 54.5781 22.2206C55.2632 21.5684 56.0649 21.1916 57.0415 21.2785C57.6975 21.3365 58.2223 21.6119 58.4701 22.2641C58.5867 22.5829 58.5721 22.9162 58.5867 23.2351C58.5867 23.3655 58.5429 23.3945 58.4263 23.3945C57.6392 23.3945 56.852 23.3945 56.0649 23.3945C55.4381 23.3945 54.8259 23.4959 54.2428 23.7133C51.9251 24.5829 52.0855 27.2641 53.3682 28.3365C53.9367 28.8003 54.5927 29.0467 55.3069 29.1046C56.371 29.2061 57.3768 29.0322 58.266 28.4235C58.4555 28.293 58.6158 28.1481 58.8053 27.9887C58.8053 28.2496 58.8199 28.4814 58.8053 28.7133C58.8053 28.8583 58.8345 28.9017 58.9802 28.9017C59.6654 28.8872 60.3505 28.8872 61.0356 28.9017C61.2105 28.9017 61.2542 28.8727 61.2542 28.6843C61.2542 26.8727 61.2542 25.0467 61.2542 23.2206ZM56.648 27.1916C56.3127 27.2061 55.992 27.1771 55.7005 27.0322C55.3069 26.8438 55.0883 26.4814 55.132 26.0612C55.1757 25.6264 55.409 25.3655 55.8608 25.2351C56.0795 25.1771 56.2981 25.1626 56.5168 25.1626C56.7937 25.1626 57.0707 25.1626 57.3331 25.1626C57.6975 25.1626 58.0619 25.1626 58.4409 25.1626C58.5575 25.1626 58.5867 25.2061 58.5867 25.3075C58.5429 26.3365 57.7121 27.1626 56.648 27.1916Z" fill="#003188"/>
<path d="M40.6719 18.0756C40.497 17.9452 40.3221 17.8148 40.1472 17.6843C39.9868 17.5104 39.8265 17.322 39.6953 17.1336C39.5058 16.7568 39.3309 16.38 39.3017 15.9452C39.3017 15.9452 39.3017 15.9307 39.2871 15.9307C39.2871 15.9307 39.2871 15.9452 39.3017 15.9452C39.3017 15.7133 39.2871 15.4814 39.3309 15.2495C39.3892 14.8872 39.5349 14.5684 39.6953 14.2495C39.841 14.0756 39.9868 13.8872 40.1472 13.7133C40.3221 13.5539 40.5116 13.4235 40.7157 13.3075C41.0072 13.1771 41.3133 13.0756 41.634 13.0032C41.3424 13.0032 41.0509 13.0032 40.7594 13.0032C40.5553 13.0032 40.3658 13.0032 40.1617 13.0032C40.0014 13.0032 39.841 13.0032 39.6661 13.0032C39.5204 13.0032 39.3892 13.0032 39.2434 13.0032C39.1122 13.0032 38.981 13.0032 38.8644 13.0032C38.7478 13.0032 38.6312 13.0032 38.5146 13.0032C38.398 13.0032 38.2813 13.0032 38.1647 13.0032C38.0481 13.0032 37.9315 13.0032 37.8149 13.0032C37.6983 13.0032 37.5817 13.0032 37.465 13.0032C37.3484 13.0032 37.2318 13.0032 37.1152 13.0032C37.0132 13.0032 36.9111 13.0032 36.7945 13.0032C36.6925 13.0032 36.5904 13.0032 36.4738 13.0032C36.3426 12.9887 36.2114 13.0322 36.0948 13.0322C35.9053 13.0611 35.7158 13.1481 35.5409 13.2061C35.3514 13.2785 35.1911 13.409 35.0162 13.5249C34.9578 13.5684 34.8995 13.5974 34.8412 13.6409C34.5934 13.8727 34.3894 14.0901 34.4039 14.4959C34.4331 15.351 34.4185 16.2206 34.4039 17.0756C34.4039 17.2061 34.4185 17.322 34.506 17.4235C34.6517 17.5684 34.7829 17.7423 34.9724 17.8582C35.1473 17.9887 35.3223 18.1046 35.5263 18.1771C35.6867 18.2785 35.8616 18.322 36.0511 18.351C36.1823 18.3945 36.3281 18.3945 36.4738 18.4235C36.5759 18.4235 36.6779 18.4235 36.7945 18.4235C36.8966 18.4235 36.9986 18.4235 37.1152 18.4235C37.2318 18.4235 37.3484 18.4235 37.465 18.4235C37.5817 18.4235 37.6983 18.4235 37.8149 18.4235C37.9315 18.4235 38.0481 18.4235 38.1647 18.4235C38.2813 18.4235 38.398 18.4235 38.5146 18.4235C38.6312 18.4235 38.7478 18.4235 38.8644 18.4235C38.981 18.4235 39.0976 18.4235 39.2142 18.4235C39.36 18.4235 39.5204 18.4235 39.6661 18.4235C39.8119 18.4235 39.9722 18.4235 40.118 18.4235C40.3075 18.4235 40.497 18.4235 40.6719 18.4235C41.0072 18.4235 41.357 18.4235 41.6923 18.4235C41.3424 18.3365 40.9926 18.2351 40.6719 18.0756Z" fill="url(#paint0_linear)"/>
<path d="M41.5756 13.0177C42.3336 12.9452 43.0333 13.0901 43.6455 13.5539C44.5056 14.2061 44.8991 15.322 44.6368 16.38C44.3744 17.438 43.4852 18.2206 42.4065 18.3945C42.1441 18.438 41.8963 18.4235 41.634 18.4235C41.2695 18.4235 40.9343 18.3075 40.6136 18.1336C40.4241 18.0177 40.2346 17.8872 40.0742 17.7278C39.8847 17.5539 39.739 17.3655 39.5932 17.1481C39.3891 16.7713 39.1996 16.3945 39.1996 15.9597C39.1705 15.4959 39.2142 15.0467 39.4037 14.6264C39.462 14.5104 39.5203 14.3945 39.5786 14.293C39.7098 14.0901 39.8702 13.9017 40.0597 13.7278C40.2346 13.5539 40.4241 13.409 40.6427 13.3075C40.9488 13.1336 41.255 13.0322 41.5756 13.0177Z" fill="#FE3954"/>
<path d="M79.6792 37.7133C79.5335 36.5684 79.0524 35.5974 78.1633 34.8582C77.0117 33.9017 75.6561 33.6264 74.213 33.8727C71.7932 34.2785 70.0878 36.2206 69.9857 38.6553C69.8983 40.8727 71.1227 42.8148 73.178 43.5684C75.3354 44.3655 77.347 44.0177 79.169 42.5974C79.2565 42.5249 79.2419 42.4814 79.1982 42.409C78.8775 41.8872 78.5568 41.38 78.2507 40.8582C78.1778 40.7278 78.1195 40.7278 78.0029 40.8148C77.0554 41.5104 75.9913 41.8293 74.796 41.6409C73.7757 41.4814 73.076 40.9452 72.7261 39.9597C72.6824 39.8148 72.6824 39.7713 72.8573 39.7713C73.936 39.7858 75.0147 39.7713 76.0934 39.7713C77.1866 39.7713 78.2799 39.7713 79.3731 39.7713C79.4752 39.7713 79.5335 39.7568 79.5626 39.6264C79.6938 39.0032 79.7667 38.3655 79.6792 37.7133ZM76.9388 37.9017C76.2537 37.8872 75.5832 37.9017 74.8981 37.9017C74.213 37.9017 73.5279 37.9017 72.8428 37.9017C72.7699 37.9017 72.6824 37.9307 72.7261 37.7858C73.0031 36.8727 73.557 36.2206 74.5336 35.9887C75.5394 35.7568 76.5744 36.2206 76.968 37.0756C77.0554 37.2785 77.0992 37.4814 77.1283 37.6988C77.1429 37.8582 77.1137 37.9017 76.9388 37.9017Z" fill="#003188"/>
<defs>
<linearGradient id="paint0_linear" x1="34.4071" y1="15.7001" x2="41.6955" y2="15.7001" gradientUnits="userSpaceOnUse">
<stop stop-color="white"/>
<stop offset="1" stop-color="#FEACB7"/>
</linearGradient>
</defs>
</svg>
