<svg id="aidants.svg" width="40" height="40" viewBox="0 0 40 40" fill="none" xmlns="http://www.w3.org/2000/svg">
<path d="M5.4836 23.3734C5.37894 23.2173 5.27428 23.0761 5.1472 22.9423C4.75847 22.5261 4.28004 22.2882 3.70443 22.2585C2.84475 22.2213 2.14953 22.5261 1.701 23.2842C1.20761 24.1166 1.32722 25.2612 1.96264 25.9524C2.35136 26.3761 2.84475 26.5768 3.41288 26.6139C3.9885 26.6511 4.49683 26.5024 4.93789 26.1308C5.12477 25.9673 5.28924 25.7889 5.42379 25.5734C5.46865 25.5065 5.49107 25.5139 5.55088 25.5511C5.8499 25.7666 6.14892 25.9747 6.44794 26.1828C6.50774 26.22 6.50027 26.2497 6.47036 26.3018C5.95455 27.1342 5.20701 27.6396 4.24267 27.818C3.29328 27.9964 2.38874 27.8477 1.57391 27.3274C0.676852 26.7477 0.146091 25.9153 0.0264831 24.8524C-0.0931249 23.8119 0.190944 22.8903 0.908592 22.1173C1.46925 21.5078 2.17943 21.1585 2.99426 21.0396C3.70443 20.9355 4.3847 21.0099 5.04254 21.3072C5.65553 21.5822 6.13397 22.0132 6.48532 22.5855C6.50774 22.6153 6.53764 22.645 6.47784 22.6822C6.14144 22.9051 5.81252 23.143 5.4836 23.3734Z" fill="#003188"/>
<path d="M20.7411 23.2171C20.8009 23.1651 20.8533 23.1205 20.9056 23.0833C21.3467 22.7489 21.8475 22.6374 22.3858 22.6746C22.8418 22.7043 23.2454 22.8604 23.5669 23.1948C23.8659 23.507 24.0154 23.886 24.0677 24.3023C24.0902 24.436 24.0902 24.5698 24.0902 24.7036C24.0902 25.6921 24.0902 26.6881 24.0902 27.6766C24.0902 27.7583 24.0677 27.7732 23.993 27.7732C23.6043 27.7658 23.2081 27.7658 22.8193 27.7732C22.7446 27.7732 22.7222 27.7509 22.7296 27.6766C22.7296 26.7252 22.7296 25.7739 22.7296 24.83C22.7296 24.4063 22.4904 24.057 22.1166 23.9455C21.5036 23.7671 20.8608 24.109 20.8533 24.8523C20.8458 25.7887 20.8533 26.7252 20.8533 27.6692C20.8533 27.7583 20.8308 27.7732 20.7411 27.7732C20.3449 27.7658 19.9487 27.7658 19.56 27.7732C19.4927 27.7732 19.4778 27.7583 19.4778 27.6915C19.4778 26.086 19.4778 24.4732 19.4778 22.8678C19.4778 22.8009 19.5002 22.786 19.56 22.786C19.9263 22.786 20.2926 22.786 20.6514 22.786C20.7187 22.786 20.7337 22.8083 20.7337 22.8678C20.7337 22.9719 20.7411 23.0833 20.7411 23.2171Z" fill="#003188"/>
<path d="M23.2155 15.6139C23.2753 15.5618 23.3201 15.5247 23.365 15.4875C23.8583 15.1085 24.419 14.997 25.0245 15.0862C25.5852 15.1605 26.0188 15.4355 26.3028 15.926C26.4897 16.2531 26.572 16.6024 26.572 16.974C26.572 18.0071 26.572 19.0402 26.572 20.0733C26.572 20.1402 26.557 20.1551 26.4897 20.1551C26.0935 20.1551 25.6973 20.1477 25.3086 20.1551C25.2338 20.1551 25.2114 20.1402 25.2114 20.0585C25.2114 19.1071 25.2114 18.1558 25.2114 17.197C25.2114 16.8031 24.9946 16.476 24.6507 16.3422C24.2844 16.201 23.8509 16.2828 23.5892 16.5578C23.4023 16.751 23.3351 16.9889 23.3351 17.249C23.3351 18.1781 23.3351 19.1145 23.3351 20.0436C23.3351 20.1254 23.3201 20.1551 23.2304 20.1551C22.8342 20.1477 22.438 20.1477 22.0493 20.1551C21.982 20.1551 21.967 20.1402 21.967 20.0733C21.967 18.4605 21.967 16.8551 21.967 15.2422C21.967 15.1754 21.9895 15.1605 22.0493 15.1605C22.4156 15.1605 22.7819 15.1605 23.1407 15.1605C23.208 15.1605 23.2229 15.1828 23.2229 15.2422C23.208 15.3686 23.2155 15.4801 23.2155 15.6139Z" fill="#003188"/>
<path d="M14.9625 23.2172C15.5157 22.7266 16.1436 22.5854 16.8388 22.7043C17.5789 22.8232 18.1172 23.3732 18.2592 24.1239C18.2966 24.3097 18.3115 24.4955 18.3115 24.6888C18.3115 25.6847 18.3115 26.6807 18.3115 27.6692C18.3115 27.7435 18.2966 27.7658 18.2143 27.7658C17.8256 27.7584 17.4294 27.7584 17.0407 27.7658C16.9584 27.7658 16.9435 27.7435 16.9435 27.6692C16.9435 26.7253 16.9435 25.7739 16.9435 24.83C16.9435 24.4063 16.7118 24.057 16.3305 23.9381C15.7399 23.7523 15.0671 24.0793 15.0671 24.8449C15.0597 25.7888 15.0671 26.7253 15.0671 27.6692C15.0671 27.7509 15.0447 27.7732 14.9625 27.7732C14.5738 27.7658 14.1776 27.7732 13.7888 27.7732C13.7216 27.7732 13.6917 27.7584 13.6917 27.6841C13.6917 26.0786 13.6917 24.4807 13.6917 22.8753C13.6917 22.8009 13.7141 22.7861 13.7888 22.7861C14.1477 22.7935 14.514 22.7935 14.8728 22.7861C14.9401 22.7861 14.9625 22.8009 14.955 22.8678C14.955 22.9719 14.9625 23.0908 14.9625 23.2172Z" fill="#003188"/>
<path d="M33.5616 22.6597C34.2718 22.6671 34.8773 22.8752 35.3707 23.3657C35.5052 23.507 35.6248 23.6556 35.722 23.8266C35.7519 23.8786 35.7519 23.9009 35.6996 23.938C35.4155 24.1536 35.1389 24.3691 34.8549 24.5847C34.8025 24.6218 34.7876 24.6144 34.7577 24.5698C34.5858 24.3171 34.3764 24.109 34.0849 23.9901C33.3598 23.7076 32.4328 24.0718 32.2983 25.038C32.2459 25.4245 32.3132 25.7887 32.5449 26.1083C33.0009 26.7326 33.9354 26.7995 34.5035 26.2495C34.6007 26.1603 34.6829 26.0637 34.7577 25.9522C34.7801 25.9151 34.8025 25.9076 34.8399 25.9374C35.124 26.1603 35.4081 26.3759 35.6996 26.5914C35.7594 26.636 35.737 26.6658 35.7071 26.7029C35.3557 27.2752 34.8474 27.6543 34.1896 27.8029C33.0458 28.0631 31.7974 27.6097 31.2068 26.5171C30.3696 24.986 31.1919 23.0462 33.0458 22.6968C33.2327 22.682 33.4046 22.6671 33.5616 22.6597Z" fill="#003188"/>
<path d="M33.7186 20.2739C33.0159 20.2664 32.388 20.0583 31.8722 19.5678C31.8049 19.5009 31.7376 19.4191 31.6704 19.3522C31.6405 19.3225 31.6479 19.2928 31.6704 19.263C31.8722 19.0252 32.074 18.7799 32.2759 18.5347C32.3207 18.4826 32.3357 18.4901 32.3805 18.5347C32.6496 18.7948 32.9561 19.0103 33.3224 19.107C33.5617 19.1664 33.8009 19.1813 34.0401 19.1144C34.1074 19.0995 34.1672 19.0698 34.227 19.0252C34.4213 18.884 34.4213 18.6313 34.227 18.4901C34.1148 18.4009 33.9803 18.3563 33.8457 18.2968C33.5318 18.163 33.2028 18.0441 32.8963 17.888C32.5973 17.7394 32.3207 17.5536 32.1413 17.2637C31.7152 16.5874 31.9918 15.6583 32.7095 15.2867C33.1131 15.086 33.5392 15.0266 33.9803 15.0563C34.5709 15.0934 35.0941 15.3016 35.5202 15.7178C35.58 15.7772 35.6025 15.8144 35.5352 15.8961C35.3408 16.1191 35.1539 16.3495 34.9671 16.5874C34.9222 16.6468 34.8998 16.6394 34.8474 16.5948C34.511 16.3124 34.1298 16.1488 33.6813 16.1786C33.5841 16.186 33.4944 16.2083 33.4047 16.2529C33.2178 16.3644 33.1954 16.6022 33.3598 16.7509C33.4421 16.8252 33.5467 16.8698 33.6439 16.9144C34.0027 17.0705 34.3765 17.2043 34.7278 17.3752C34.9073 17.4644 35.0792 17.5759 35.2362 17.7022C35.6099 18.0293 35.7221 18.4455 35.6548 18.9137C35.5501 19.6124 35.0941 19.9914 34.4438 20.1847C34.212 20.2516 33.9728 20.2813 33.7186 20.2739Z" fill="#003188"/>
<path d="M37.0378 25.2166C37.0378 24.7632 37.0378 24.3842 37.0378 24.0051C37.0378 23.9457 37.0228 23.9234 36.9555 23.9234C36.7462 23.9308 36.5294 23.9234 36.3201 23.9234C36.2603 23.9234 36.2454 23.9085 36.2454 23.849C36.2454 23.5146 36.2454 23.1801 36.2454 22.8457C36.2454 22.7862 36.2678 22.7713 36.3201 22.7713C36.5294 22.7713 36.7462 22.7713 36.9555 22.7713C37.0228 22.7713 37.0378 22.749 37.0378 22.6896C37.0378 22.3254 37.0378 21.9612 37.0378 21.597C37.0378 21.5227 37.0602 21.5078 37.1275 21.5078C37.5312 21.5078 37.9274 21.5152 38.331 21.5078C38.4133 21.5078 38.4207 21.5301 38.4207 21.6044C38.4207 21.9686 38.4207 22.3254 38.4207 22.6896C38.4207 22.7565 38.4432 22.7713 38.503 22.7713C38.9216 22.7713 39.3402 22.7713 39.7589 22.7713C39.8187 22.7713 39.8411 22.7862 39.8411 22.8457C39.8411 23.1801 39.8336 23.5071 39.8411 23.8416C39.8411 23.9159 39.8187 23.9234 39.7514 23.9234C39.3328 23.9234 38.9216 23.9234 38.503 23.9234C38.4282 23.9234 38.4133 23.9382 38.4133 24.0125C38.4133 24.6443 38.4133 25.2761 38.4133 25.9078C38.4133 26.3612 38.645 26.6065 39.1085 26.6511C39.3776 26.6734 39.6542 26.6436 39.9233 26.6288C39.9831 26.6213 39.9981 26.6362 39.9981 26.6957C39.9981 27.0301 39.9981 27.3646 39.9981 27.699C39.9981 27.7288 40.013 27.7585 39.9607 27.7734C39.3701 27.9071 38.787 27.9443 38.2039 27.7659C37.5386 27.5578 37.1798 27.0896 37.0826 26.4207C37.0079 25.997 37.0527 25.5659 37.0378 25.2166Z" fill="#003188"/>
<path d="M29.5248 17.4422C29.5322 17.7247 29.5023 18.074 29.5397 18.4233C29.5696 18.7652 29.7565 18.9585 30.1004 19.0254C30.3546 19.07 30.6087 19.0551 30.8704 19.0328C30.9077 19.0328 30.9451 19.0254 30.99 19.0254C31.1171 19.0179 31.1171 19.0179 31.1171 19.1517C31.1171 19.4639 31.1171 19.7686 31.1171 20.0808C31.1171 20.1179 31.1245 20.1625 31.0647 20.17C30.4742 20.3037 29.8836 20.3335 29.293 20.1477C28.6651 19.947 28.3137 19.5085 28.2016 18.8693C28.1717 18.7058 28.1642 18.5422 28.1642 18.3713C28.1642 17.7172 28.1642 17.0632 28.1642 16.4091C28.1642 16.3274 28.1418 16.3051 28.0596 16.3051C27.8503 16.3125 27.6484 16.3051 27.4391 16.3051C27.3868 16.3051 27.3718 16.2902 27.3718 16.2382C27.3718 15.8963 27.3718 15.5618 27.3718 15.2199C27.3718 15.1679 27.3868 15.1531 27.4391 15.1531C27.6484 15.1531 27.8652 15.1531 28.0745 15.1531C28.1418 15.1531 28.1568 15.1382 28.1568 15.0713C28.1568 14.7071 28.1568 14.3429 28.1568 13.9787C28.1568 13.9118 28.1717 13.897 28.239 13.897C28.6427 13.897 29.0463 13.897 29.45 13.897C29.5098 13.897 29.5322 13.9118 29.5322 13.9787C29.5322 14.3429 29.5322 14.7071 29.5322 15.0713C29.5322 15.1456 29.5547 15.1605 29.622 15.1605C30.0406 15.1605 30.4517 15.1605 30.8704 15.1605C30.9376 15.1605 30.9601 15.1754 30.9601 15.2497C30.9526 15.5767 30.9601 15.9112 30.9601 16.2382C30.9601 16.3051 30.9376 16.3199 30.8778 16.3125C30.4592 16.3125 30.0406 16.3125 29.622 16.3125C29.5547 16.3125 29.5322 16.3274 29.5322 16.4017C29.5248 16.7287 29.5248 17.0558 29.5248 17.4422Z" fill="#003188"/>
<path d="M8.70557 17.6653C8.70557 18.4605 8.70557 19.2632 8.70557 20.0585C8.70557 20.1403 8.68314 20.1551 8.60091 20.1551C8.21219 20.1477 7.81599 20.1551 7.42726 20.1551C7.35998 20.1551 7.33008 20.1403 7.33008 20.0659C7.33008 18.4605 7.33008 16.8626 7.33008 15.2572C7.33008 15.1903 7.34503 15.168 7.41978 15.168C7.82346 15.168 8.21966 15.1754 8.62334 15.168C8.6981 15.168 8.70557 15.1977 8.70557 15.2572C8.70557 16.0599 8.70557 16.8626 8.70557 17.6653Z" fill="#003188"/>
<path d="M14.9848 12.6038C14.5961 12.6038 14.1999 12.6112 13.8112 12.6038C13.7289 12.6038 13.699 12.6186 13.699 12.7078C13.7065 13.5551 13.699 14.4098 13.699 15.2571C13.699 15.3835 13.699 15.5024 13.699 15.6511C13.6542 15.6139 13.6317 15.5842 13.6018 15.5619C13.1608 15.168 12.6375 15.0342 12.0619 15.0713C11.1349 15.1308 10.4621 15.5767 10.051 16.4017C9.74449 17.0186 9.69963 17.6727 9.84167 18.3416C9.94633 18.847 10.1855 19.293 10.5668 19.6571C11.0602 20.118 11.6582 20.3112 12.331 20.2815C12.8169 20.2592 13.258 20.118 13.6168 19.7761C13.6841 19.7166 13.7439 19.6423 13.8112 19.568C13.8112 19.7463 13.8112 19.9099 13.8112 20.0734C13.8112 20.1328 13.8186 20.1626 13.8934 20.1626C14.2597 20.1551 14.626 20.1551 14.9998 20.1626C15.067 20.1626 15.082 20.1403 15.082 20.0734C15.082 17.6132 15.082 15.1531 15.082 12.6855C15.082 12.6112 15.0521 12.6038 14.9848 12.6038ZM13.6617 18.1484C13.5047 18.6984 13.0487 19.0328 12.4656 19.0328C11.7853 19.0328 11.2471 18.5497 11.1798 17.8659C11.1424 17.4869 11.1947 17.1301 11.419 16.818C11.7479 16.372 12.2039 16.2159 12.7347 16.3274C13.2654 16.4315 13.5719 16.7808 13.6841 17.3011C13.7514 17.5761 13.7439 17.8659 13.6617 18.1484Z" fill="#003188"/>
<path d="M6.47796 20.0734C6.32845 19.7092 6.17894 19.3376 6.02943 18.9734C5.28188 17.1376 4.53433 15.2943 3.78678 13.4585C3.76435 13.4065 3.73445 13.3916 3.68212 13.3916C3.44291 13.3916 3.19621 13.399 2.957 13.3916C2.87477 13.3916 2.83739 13.4213 2.80749 13.4957C2.38138 14.5436 1.95528 15.5916 1.5217 16.6396C1.05822 17.7767 0.587264 18.9213 0.116307 20.0659C0.0938806 20.1254 0.0864051 20.1551 0.168636 20.1551C0.602215 20.1477 1.04327 20.1551 1.47685 20.1551C1.53665 20.1551 1.56655 20.1328 1.58898 20.0808C1.69364 19.8355 1.7983 19.5903 1.90295 19.345C1.9179 19.3004 1.94033 19.293 1.98518 19.293C2.85234 19.293 3.72697 19.293 4.59413 19.293C4.64646 19.293 4.66889 19.3078 4.68384 19.3524C4.7885 19.5977 4.89315 19.843 4.99781 20.0882C5.02024 20.1403 5.04266 20.1626 5.10247 20.1551C5.31926 20.1551 5.53605 20.1551 5.76031 20.1551C5.98458 20.1551 6.19389 20.1551 6.41816 20.1551C6.50039 20.1626 6.50786 20.1403 6.47796 20.0734ZM2.41129 18.1707C2.70283 17.3085 3.00185 16.4463 3.30087 15.5693C3.59989 16.4463 3.89144 17.3085 4.19046 18.1707C3.59242 18.1707 3.00933 18.1707 2.41129 18.1707Z" fill="#003188"/>
<path d="M12.4656 24.4957C12.0993 23.3436 10.9406 22.5781 9.69968 22.6747C9.01941 22.7267 8.41389 22.9646 7.94294 23.4551C7.21034 24.2132 7.02345 25.1126 7.33742 26.1011C7.67382 27.1713 8.70544 27.8774 9.90152 27.8774C10.1108 27.87 10.3426 27.8477 10.5743 27.7882C12.0545 27.4315 12.9216 25.9227 12.4656 24.4957ZM10.2529 26.5693C9.47541 26.7774 8.72039 26.3389 8.60826 25.4916C8.54098 24.9936 8.66059 24.5477 9.04184 24.2058C9.6623 23.6558 10.8135 23.8342 11.1125 24.8376C11.135 24.9119 11.1499 24.9936 11.1649 25.0754C11.1724 25.1423 11.1724 25.2017 11.1798 25.2686C11.1798 25.9004 10.821 26.4207 10.2529 26.5693Z" fill="#003188"/>
<path d="M20.6438 17.2414C20.6438 17.0407 20.6289 16.84 20.5915 16.6394C20.4644 15.9779 20.113 15.4873 19.4776 15.2346C18.9768 15.034 18.461 15.0191 17.9377 15.1083C17.2873 15.2198 16.764 15.5542 16.3379 16.0448C16.308 16.0745 16.308 16.0968 16.3379 16.134C16.5547 16.3792 16.764 16.6319 16.9733 16.8846C17.0032 16.9218 17.0257 16.9292 17.063 16.8846C17.1154 16.8326 17.1677 16.7806 17.22 16.7286C17.5714 16.3941 17.9825 16.2009 18.4834 16.2454C18.8198 16.2752 19.0889 16.4164 19.216 16.7509C19.2758 16.9144 19.2683 17.0853 19.2758 17.2488C19.2758 17.3157 19.2534 17.3306 19.1936 17.3306C18.7899 17.3306 18.3862 17.3306 17.9825 17.3306C17.6611 17.3306 17.3471 17.3826 17.0481 17.4941C15.8595 17.94 15.9417 19.315 16.5996 19.865C16.8911 20.1029 17.2275 20.2292 17.5938 20.259C18.1395 20.311 18.6553 20.2218 19.1113 19.9096C19.2085 19.8427 19.2907 19.7684 19.3879 19.6867C19.3879 19.8205 19.3954 19.9394 19.3879 20.0583C19.3879 20.1326 19.4029 20.1549 19.4776 20.1549C19.829 20.1475 20.1803 20.1475 20.5317 20.1549C20.6214 20.1549 20.6438 20.14 20.6438 20.0434C20.6438 19.1144 20.6438 18.1779 20.6438 17.2414ZM18.2815 19.2779C18.1096 19.2853 17.9452 19.2705 17.7956 19.1961C17.5938 19.0995 17.4817 18.9137 17.5041 18.6982C17.5265 18.4752 17.6461 18.3414 17.8779 18.2745C17.99 18.2448 18.1021 18.2373 18.2143 18.2373C18.3563 18.2373 18.4983 18.2373 18.6329 18.2373C18.8198 18.2373 19.0067 18.2373 19.201 18.2373C19.2608 18.2373 19.2758 18.2596 19.2758 18.3117C19.2534 18.8394 18.8273 19.263 18.2815 19.2779Z" fill="#003188"/>
<path d="M10.0886 14.6029C9.99892 14.536 9.90921 14.4691 9.8195 14.4022C9.73727 14.313 9.65504 14.2164 9.58776 14.1198C9.49058 13.9265 9.40088 13.7333 9.38593 13.5103C9.38593 13.5103 9.38593 13.5029 9.37845 13.5029C9.37845 13.5029 9.37845 13.5103 9.38593 13.5103C9.38593 13.3914 9.37845 13.2725 9.40088 13.1535C9.43078 12.9677 9.50553 12.8042 9.58776 12.6407C9.66252 12.5515 9.73727 12.4549 9.8195 12.3657C9.90921 12.2839 10.0064 12.2171 10.1111 12.1576C10.2606 12.0907 10.4175 12.0387 10.582 12.0015C10.4325 12.0015 10.283 12.0015 10.1335 12.0015C10.0288 12.0015 9.93164 12.0015 9.82698 12.0015C9.74475 12.0015 9.66252 12.0015 9.57281 12.0015C9.49806 12.0015 9.43078 12.0015 9.35602 12.0015C9.28874 12.0015 9.22146 12.0015 9.16166 12.0015C9.10186 12.0015 9.04205 12.0015 8.98225 12.0015C8.92244 12.0015 8.86264 12.0015 8.80284 12.0015C8.74303 12.0015 8.68323 12.0015 8.62342 12.0015C8.56362 12.0015 8.50382 12.0015 8.44401 12.0015C8.38421 12.0015 8.3244 12.0015 8.2646 12.0015C8.21227 12.0015 8.15994 12.0015 8.10014 12.0015C8.04781 12.0015 7.99548 12.0015 7.93568 12.0015C7.8684 11.9941 7.80112 12.0164 7.74131 12.0164C7.64413 12.0312 7.54695 12.0758 7.45725 12.1056C7.36006 12.1427 7.27783 12.2096 7.18813 12.2691C7.15823 12.2914 7.12832 12.3062 7.09842 12.3285C6.97134 12.4475 6.86668 12.559 6.87416 12.7671C6.88911 13.2056 6.88163 13.6515 6.87416 14.09C6.87416 14.1569 6.88163 14.2164 6.92648 14.2684C7.00124 14.3427 7.06852 14.4319 7.1657 14.4914C7.25541 14.5583 7.34511 14.6177 7.44977 14.6549C7.532 14.7069 7.62171 14.7292 7.71889 14.7441C7.78617 14.7664 7.86092 14.7664 7.93568 14.7813C7.98801 14.7813 8.04034 14.7813 8.10014 14.7813C8.15247 14.7813 8.2048 14.7813 8.2646 14.7813C8.3244 14.7813 8.38421 14.7813 8.44401 14.7813C8.50382 14.7813 8.56362 14.7813 8.62342 14.7813C8.68323 14.7813 8.74303 14.7813 8.80284 14.7813C8.86264 14.7813 8.92244 14.7813 8.98225 14.7813C9.04205 14.7813 9.10186 14.7813 9.16166 14.7813C9.22146 14.7813 9.28127 14.7813 9.34107 14.7813C9.41583 14.7813 9.49806 14.7813 9.57281 14.7813C9.64757 14.7813 9.7298 14.7813 9.80455 14.7813C9.90174 14.7813 9.99892 14.7813 10.0886 14.7813C10.2606 14.7813 10.44 14.7813 10.6119 14.7813C10.4325 14.7367 10.2531 14.6846 10.0886 14.6029Z" fill="url(#paint0_linear_1547_3776)"/>
<path d="M10.5521 12.0091C10.9408 11.9719 11.2996 12.0462 11.6136 12.2841C12.0547 12.6185 12.2565 13.1908 12.1219 13.7334C11.9874 14.276 11.5314 14.6773 10.9782 14.7665C10.8436 14.7888 10.7165 14.7814 10.582 14.7814C10.3951 14.7814 10.2232 14.7219 10.0587 14.6327C9.96151 14.5733 9.86433 14.5064 9.7821 14.4246C9.68492 14.3354 9.61016 14.2388 9.53541 14.1273C9.43075 13.9341 9.33357 13.7408 9.33357 13.5178C9.31862 13.28 9.34105 13.0496 9.43823 12.8341C9.46813 12.7746 9.49803 12.7151 9.52793 12.6631C9.59521 12.5591 9.67744 12.4624 9.77462 12.3733C9.86433 12.2841 9.96151 12.2097 10.0736 12.1577C10.2306 12.0685 10.3876 12.0165 10.5521 12.0091Z" fill="#FE3954"/>
<path d="M30.0928 24.674C30.0181 24.0868 29.7714 23.5888 29.3154 23.2098C28.7248 22.7192 28.0296 22.578 27.2895 22.7044C26.0486 22.9125 25.174 23.9084 25.1216 25.1571C25.0768 26.2942 25.7047 27.2902 26.7588 27.6767C27.8651 28.0855 28.8968 27.9071 29.8312 27.1787C29.8761 27.1415 29.8686 27.1192 29.8462 27.0821C29.6817 26.8145 29.5172 26.5544 29.3602 26.2868C29.3229 26.2199 29.293 26.2199 29.2332 26.2645C28.7473 26.6213 28.2015 26.7848 27.5886 26.6882C27.0653 26.6064 26.7064 26.3314 26.527 25.826C26.5046 25.7517 26.5046 25.7294 26.5943 25.7294C27.1475 25.7368 27.7007 25.7294 28.2539 25.7294C28.8145 25.7294 29.3752 25.7294 29.9359 25.7294C29.9882 25.7294 30.0181 25.7219 30.033 25.6551C30.1003 25.3355 30.1377 25.0084 30.0928 24.674ZM28.6875 24.7706C28.3361 24.7632 27.9922 24.7706 27.6409 24.7706C27.2895 24.7706 26.9382 24.7706 26.5868 24.7706C26.5495 24.7706 26.5046 24.7855 26.527 24.7111C26.6691 24.2429 26.9531 23.9084 27.454 23.7895C27.9698 23.6706 28.5006 23.9084 28.7024 24.3469C28.7473 24.451 28.7697 24.555 28.7846 24.6665C28.7921 24.7483 28.7772 24.7706 28.6875 24.7706Z" fill="#003188"/>
<defs>
<linearGradient id="paint0_linear_1547_3776" x1="6.87577" y1="13.3846" x2="10.6136" y2="13.3846" gradientUnits="userSpaceOnUse">
<stop stop-color="white"/>
<stop offset="1" stop-color="#FEACB7"/>
</linearGradient>
</defs>
</svg>