<svg id="caf" width="120" height="56" viewBox="0 0 120 56" fill="none" xmlns="http://www.w3.org/2000/svg">
<path d="M87.4411 0.564224H32.5632V55.4362H87.4411V0.564224Z" fill="#0F6BAF"/>
<path fill-rule="evenodd" clip-rule="evenodd" d="M52.2874 22.0029L52.6639 21.7931H51.9685C52.0859 21.8693 52.1941 21.9401 52.2874 22.0029Z" fill="#9CB4DA"/>
<path fill-rule="evenodd" clip-rule="evenodd" d="M58.0268 24.5633C57.7237 24.4522 57.4866 24.2223 57.3598 23.9149C57.3389 23.8655 57.3227 23.8145 57.3088 23.762C57.1504 23.9232 56.9686 24.0662 56.764 24.1804L54.9429 25.1935H57.8253C57.8829 24.9758 57.9679 24.7699 58.0777 24.5783L58.0268 24.5633Z" fill="#9CB4DA"/>
<path fill-rule="evenodd" clip-rule="evenodd" d="M63.5787 24.1543C63.3926 24.0314 63.2346 23.8766 63.1065 23.6999C63.0654 23.8248 63.0078 23.9469 62.9315 24.0563C62.6877 24.4104 62.3155 24.6111 61.939 24.6312C62.003 24.8102 62.0425 24.9995 62.0603 25.1939H65.03C65.0339 25.167 65.0371 25.1405 65.0406 25.1137L63.5787 24.1543Z" fill="#9CB4DA"/>
<path fill-rule="evenodd" clip-rule="evenodd" d="M74.0169 21.7927C74.1572 22.7102 73.689 23.6936 72.8146 24.1796C72.8146 24.1804 71.6178 24.8466 70.9927 25.1935H82.7775V21.7927H74.0169Z" fill="#9CB4DA"/>
<path fill-rule="evenodd" clip-rule="evenodd" d="M48.9905 25.1137L47.5277 24.1543C47.0998 23.8718 46.8114 23.4265 46.7134 22.8994C46.6466 22.5351 46.6755 22.1538 46.7936 21.7927H37.2756V25.1935H48.9794C48.983 25.1666 48.9869 25.1405 48.9905 25.1137Z" fill="#AFC2E1"/>
<path fill-rule="evenodd" clip-rule="evenodd" d="M68.0183 21.7927C68.1372 21.869 68.2435 21.9401 68.3372 22.0025L68.7145 21.7927H68.0183Z" fill="#9CB4DA"/>
<path fill-rule="evenodd" clip-rule="evenodd" d="M62.0176 5.12351C63.0848 5.12351 64.0749 4.27479 64.2286 3.22615C64.3831 2.17949 63.6415 1.32919 62.5739 1.32919C61.5083 1.32919 60.5165 2.17909 60.3628 3.22615C60.2087 4.27479 60.9496 5.12351 62.0176 5.12351Z" fill="white"/>
<path fill-rule="evenodd" clip-rule="evenodd" d="M68.6766 4.37909C68.2953 3.51576 67.215 3.221 66.2644 3.71924L61.8956 6.00697L58.2012 3.71924C57.3956 3.221 56.228 3.51576 55.5934 4.37909C54.9593 5.24203 55.0995 6.34519 55.904 6.84344L58.4644 8.41956L57.8018 12.9318C57.7852 13.048 57.7966 13.1657 57.844 13.2728C57.9882 13.5999 58.3996 13.7118 58.7599 13.5229L60.9619 12.3707L62.8241 13.5229C63.1295 13.7122 63.5728 13.5999 63.8135 13.2728C63.8921 13.1657 63.9391 13.048 63.9577 12.9318L64.6191 8.41956L67.641 6.84344C68.594 6.3448 69.0571 5.24163 68.6766 4.37909Z" fill="white"/>
<path fill-rule="evenodd" clip-rule="evenodd" d="M60.1684 17.7218C61.2344 17.7218 62.2246 16.8715 62.3795 15.8244C62.5324 14.777 61.7923 13.9271 60.7247 13.9271C59.6571 13.9271 58.6673 14.7766 58.5136 15.8244C58.3599 16.8715 59.0996 17.7218 60.1684 17.7218Z" fill="white"/>
<path fill-rule="evenodd" clip-rule="evenodd" d="M66.8276 16.9766C66.4463 16.1137 65.3661 15.8181 64.4138 16.316L60.0466 18.6045L56.3515 16.316C55.5458 15.8181 54.3782 16.1137 53.7441 16.9766C53.1099 17.8396 53.2494 18.9431 54.0546 19.4394L56.6146 21.0167L55.9512 25.5289C55.935 25.6463 55.948 25.7628 55.9951 25.8699C56.1393 26.1971 56.5494 26.3089 56.9109 26.1208L59.1121 24.9671L60.9739 26.1208C61.2801 26.3093 61.7231 26.1971 61.9625 25.8699C62.0411 25.7628 62.0897 25.6463 62.1059 25.5289L62.769 21.0167L65.7916 19.4394C66.745 18.9431 67.2077 17.8396 66.8276 16.9766Z" fill="white"/>
<path fill-rule="evenodd" clip-rule="evenodd" d="M50.0285 11.4252C51.0957 11.4252 52.0858 10.5765 52.2395 9.52786C52.394 8.4812 51.6524 7.63051 50.5852 7.63051C49.5176 7.63051 48.5278 8.4808 48.3737 9.52786C48.22 10.5761 48.9608 11.4252 50.0285 11.4252Z" fill="white"/>
<path fill-rule="evenodd" clip-rule="evenodd" d="M56.6877 10.68C56.3068 9.81708 55.2262 9.52233 54.2743 10.0202L49.9067 12.3091L46.2124 10.0202C45.4067 9.52233 44.2387 9.81708 43.6046 10.68C42.9712 11.543 43.1099 12.6469 43.9151 13.1448L46.4751 14.7213L45.8129 19.2335C45.7963 19.3489 45.8093 19.4666 45.8564 19.5741C46.0002 19.9013 46.4111 20.0127 46.7714 19.8238L48.973 18.6717L50.836 19.8238C51.1422 20.0131 51.5844 19.9013 51.8246 19.5741C51.9028 19.4666 51.9499 19.3489 51.9676 19.2335L52.6302 14.7213L55.6533 13.1448C56.6051 12.6465 57.0682 11.5426 56.6877 10.68Z" fill="white"/>
<path fill-rule="evenodd" clip-rule="evenodd" d="M48.1782 24.0232C49.2466 24.0232 50.2359 23.1736 50.39 22.1254C50.5441 21.0779 49.8037 20.2288 48.7365 20.2288C47.6689 20.2288 46.6787 21.0779 46.5246 22.1254C46.3709 23.1733 47.1109 24.0232 48.1782 24.0232Z" fill="white"/>
<path fill-rule="evenodd" clip-rule="evenodd" d="M54.8383 23.2776C54.4574 22.4154 53.3772 22.1199 52.4257 22.6185L48.0577 24.9058L44.3622 22.6185C43.5565 22.1199 42.3893 22.4154 41.7552 23.2776C41.121 24.1405 41.2601 25.2441 42.0657 25.7407L44.6257 27.3188L43.9631 31.8318C43.9465 31.9468 43.9595 32.0642 44.007 32.172C44.1512 32.4984 44.5609 32.611 44.9224 32.4222L47.1229 31.2692L48.9858 32.4222C49.2917 32.6114 49.7354 32.4984 49.9748 32.172C50.0542 32.0642 50.1013 31.9468 50.119 31.8318L50.7816 27.3188L53.8039 25.7407C54.7561 25.2441 55.2192 24.1405 54.8383 23.2776Z" fill="white"/>
<path fill-rule="evenodd" clip-rule="evenodd" d="M72.1618 11.4252C71.0954 11.4252 70.353 10.5765 70.5071 9.52786C70.6608 8.4812 71.6509 7.63051 72.7189 7.63051C73.7861 7.63051 74.527 8.4808 74.3737 9.52786C74.2184 10.5761 73.229 11.4252 72.1618 11.4252Z" fill="white"/>
<path fill-rule="evenodd" clip-rule="evenodd" d="M65.7209 10.68C66.355 9.81708 67.523 9.52233 68.3279 10.0202L72.0238 12.3091L76.3918 10.0202C77.3432 9.52233 78.4239 9.81708 78.804 10.68C79.1841 11.543 78.7214 12.6469 77.77 13.1448L74.7465 14.7213L74.0843 19.2335C74.0673 19.3489 74.0211 19.4666 73.9417 19.5741C73.7003 19.9013 73.2573 20.0127 72.9515 19.8238L71.0885 18.6717L68.8877 19.8238C68.5282 20.0131 68.1169 19.9013 67.9726 19.5741C67.9256 19.4666 67.9126 19.3489 67.9296 19.2335L68.5926 14.7213L66.0326 13.1448C65.2254 12.6465 65.0871 11.5426 65.7209 10.68Z" fill="white"/>
<path fill-rule="evenodd" clip-rule="evenodd" d="M70.3127 24.0232C69.2447 24.0232 68.5039 23.1736 68.658 22.1254C68.8117 21.0779 69.8022 20.2288 70.8698 20.2288C71.9374 20.2288 72.6771 21.0779 72.5246 22.1254C72.3693 23.1733 71.3799 24.0232 70.3127 24.0232Z" fill="white"/>
<path fill-rule="evenodd" clip-rule="evenodd" d="M63.8719 23.2776C64.5056 22.4154 65.6724 22.1199 66.4788 22.6185L70.1732 24.9058L74.5412 22.6185C75.4934 22.1199 76.5741 22.4154 76.9542 23.2776C77.3355 24.1405 76.8724 25.2441 75.9202 25.7407L72.8975 27.3188L72.2345 31.8318C72.2183 31.9468 72.1721 32.0642 72.0927 32.172C71.8513 32.4984 71.4091 32.611 71.1025 32.4222L69.2395 31.2692L67.0387 32.4222C66.6776 32.6114 66.2686 32.4984 66.1236 32.172C66.0758 32.0642 66.0636 31.9468 66.0806 31.8318L66.7428 27.3188L64.1824 25.7407C63.3764 25.2441 63.2369 24.1405 63.8719 23.2776Z" fill="white"/>
<path fill-rule="evenodd" clip-rule="evenodd" d="M58.3181 30.3193C59.3857 30.3193 60.3755 29.4698 60.5303 28.4216C60.6833 27.3737 59.942 26.5246 58.8748 26.5246C57.8076 26.5246 56.8174 27.3733 56.6633 28.4216C56.5092 29.4698 57.2509 30.3193 58.3181 30.3193Z" fill="white"/>
<path fill-rule="evenodd" clip-rule="evenodd" d="M64.9771 29.5749C64.5966 28.712 63.5164 28.4165 62.5649 28.9143L58.1977 31.204L54.5025 28.9143C53.6969 28.4165 52.5285 28.712 51.8944 29.5749C51.2606 30.4371 51.3993 31.5407 52.2057 32.0381L54.7657 33.6138L54.1031 38.1277C54.0865 38.2442 54.0983 38.3608 54.1461 38.4679C54.2907 38.795 54.6997 38.9068 55.0616 38.718L57.2624 37.5658L59.1254 38.718C59.43 38.9072 59.8742 38.795 60.1148 38.4679C60.1926 38.3608 60.2408 38.2442 60.2582 38.1277L60.9204 33.6138L63.9423 32.0381C64.8953 31.5403 65.3592 30.4367 64.9771 29.5749Z" fill="white"/>
<path d="M36.9316 42.8497L36.608 41.0772L35.5772 42.8497H36.9316ZM35.2899 43.3159C34.9888 43.8924 34.7146 44.3654 34.4752 44.8909C34.3582 44.8826 34.25 44.8664 34.1314 44.8664C34.0133 44.8664 33.892 44.8826 33.7715 44.8909L36.8842 39.6161C36.9775 39.6315 37.0652 39.6394 37.1612 39.6394C37.2572 39.6394 37.3469 39.6315 37.4469 39.6161L38.5113 44.9055C38.2991 44.8909 38.0964 44.866 37.8815 44.866C37.6666 44.866 37.4556 44.8905 37.2382 44.9055C37.1742 44.3429 37.1177 43.8252 37.0134 43.3159H35.2899Z" fill="white"/>
<path d="M40.567 44.3191C41.2115 44.3191 41.7694 44.265 42.2814 44.2133C42.2467 44.3191 42.2032 44.4333 42.1827 44.5404C42.1625 44.6471 42.1633 44.7605 42.1582 44.866H39.354L40.3339 39.684C40.516 39.6994 40.6962 39.7227 40.8811 39.7227C41.0657 39.7227 41.2557 39.6994 41.4438 39.684L40.567 44.3191Z" fill="white"/>
<path d="M44.4151 44.3191C45.0583 44.3191 45.6158 44.265 46.1287 44.2133C46.0943 44.3191 46.0505 44.4333 46.0307 44.5404C46.0105 44.6471 46.0105 44.7605 46.0046 44.866H43.2017L44.1808 39.684C44.3637 39.6994 44.5439 39.7227 44.7288 39.7227C44.9137 39.7227 45.1026 39.6994 45.291 39.684L44.4151 44.3191Z" fill="white"/>
<path d="M48.3528 42.5087C48.1655 43.4965 48.403 44.5475 49.5133 44.5475C50.6524 44.5475 51.3841 43.376 51.6232 42.112C51.8085 41.1313 51.577 40.0037 50.4687 40.0037C49.4394 40.0037 48.6744 40.8034 48.3528 42.5087ZM49.39 45.0035C47.7554 45.0035 46.8403 44.0149 47.1667 42.2871C47.4527 40.7722 48.757 39.5481 50.5983 39.5481C52.7074 39.5481 53.0393 41.0768 52.8232 42.2566C52.5505 43.7411 51.202 45.0035 49.39 45.0035Z" fill="white"/>
<path d="M57.4894 44.022L57.2022 44.6763C56.7138 44.9134 56.1721 45.0035 55.6762 45.0035C54.093 45.0035 53.0839 44.0003 53.3798 42.44C53.754 40.4529 55.2574 39.5485 56.8695 39.5485C57.3579 39.5485 57.926 39.6773 58.3089 39.9211C58.1935 40.1795 58.1007 40.4383 57.9904 40.705H57.8865C57.6909 40.2937 57.2713 40.0037 56.7917 40.0037C55.5628 40.0037 54.839 41.2143 54.6268 42.3329C54.3814 43.634 54.8307 44.5475 55.9686 44.5475C56.4278 44.5475 57.0066 44.3053 57.4013 43.9766L57.4894 44.022Z" fill="white"/>
<path d="M61.0622 42.8497L60.739 41.0772L59.7085 42.8497H61.0622ZM59.4217 43.3159C59.119 43.8924 58.8456 44.3654 58.605 44.8909C58.4888 44.8826 58.3805 44.8664 58.2624 44.8664C58.1443 44.8664 58.0226 44.8826 57.9028 44.8909L61.016 39.6161C61.1084 39.6315 61.1965 39.6394 61.2922 39.6394C61.387 39.6394 61.4783 39.6315 61.5762 39.6161L62.6419 44.9055C62.4297 44.8909 62.2282 44.866 62.0128 44.866C61.7975 44.866 61.5869 44.8905 61.3692 44.9055C61.306 44.3429 61.2471 43.8252 61.144 43.3159H59.4217Z" fill="white"/>
<path d="M65.5642 44.9055C65.382 44.8909 65.2015 44.866 65.0154 44.866C64.8308 44.866 64.642 44.8905 64.4551 44.9055L65.3386 40.2249C64.8139 40.2249 64.3377 40.2775 63.9426 40.3316C63.9774 40.2249 64.0189 40.1187 64.0414 40.0037C64.0623 39.897 64.0584 39.7915 64.0639 39.684H67.874C67.8401 39.7911 67.7986 39.897 67.7768 40.0037C67.7551 40.1187 67.7591 40.2253 67.7535 40.3316C67.3268 40.2775 66.8993 40.2249 66.4477 40.2249L65.5642 44.9055Z" fill="white"/>
<path d="M68.8512 39.6844C69.0334 39.6998 69.2139 39.7231 69.3984 39.7231C69.5838 39.7231 69.7726 39.6998 69.9611 39.6844L68.9741 44.9059C68.7927 44.8913 68.6106 44.8664 68.4268 44.8664C68.2415 44.8664 68.0519 44.8909 67.865 44.9059L68.8512 39.6844Z" fill="white"/>
<path d="M71.6291 42.5087C71.4422 43.4965 71.6801 44.5475 72.7904 44.5475C73.9295 44.5475 74.6609 43.376 74.9003 42.112C75.0864 41.1313 74.8557 40.0037 73.745 40.0037C72.7173 40.0037 71.9516 40.8034 71.6291 42.5087ZM72.6663 45.0035C71.0325 45.0035 70.1174 44.0149 70.443 42.2871C70.7295 40.7722 72.0333 39.5481 73.8762 39.5481C75.9845 39.5481 76.3156 41.0768 76.0995 42.2566C75.8281 43.7411 74.4799 45.0035 72.6663 45.0035Z" fill="white"/>
<path d="M77.6068 39.6844H78.3386C79.166 40.8642 80.0502 42.0211 80.8622 43.2468L81.5351 39.6844C81.6291 39.6998 81.7295 39.7077 81.8259 39.7077C81.9223 39.7077 82.0282 39.6998 82.1262 39.6844L81.14 44.9059L80.5125 44.898C79.8404 43.9165 79.2185 42.9797 78.5539 42.0745L77.9111 41.2064L77.2141 44.8913C77.1208 44.883 77.0181 44.8668 76.9241 44.8668C76.8277 44.8668 76.7202 44.883 76.6238 44.8913L77.6068 39.6844Z" fill="white"/>
<path d="M85.5646 40.6667C85.4942 40.2625 85.2603 40.0037 84.8383 40.0037C84.254 40.0037 83.9655 40.317 83.8845 40.75C83.6901 41.7781 85.9759 41.5881 85.6456 43.3298C85.4618 44.3053 84.5159 45.0043 83.3689 45.0043C82.9623 45.0043 82.5447 44.9055 82.2393 44.6763C82.3882 44.3575 82.5309 44.0382 82.6375 43.7095H82.7774C82.7889 44.2366 83.1302 44.5475 83.6411 44.5475C84.0995 44.5475 84.5562 44.2804 84.655 43.7565C84.8858 42.5387 82.5984 42.9793 82.9449 41.1471C83.1101 40.2696 83.8308 39.5481 84.9561 39.5481C85.4879 39.5481 85.9229 39.7536 86.0549 39.9124C85.9214 40.1562 85.7989 40.4071 85.6752 40.6663H85.5646" fill="white"/>
<path d="M37.576 52.6877C37.3646 52.6715 37.1556 52.6474 36.9411 52.6474C36.7265 52.6474 36.5072 52.6715 36.2883 52.6877L37.4334 47.3011H40.7038C40.6627 47.4105 40.6125 47.5279 40.5884 47.6377C40.5655 47.7472 40.5663 47.8653 40.5599 47.9752C40.0483 47.9202 39.5018 47.8657 38.601 47.8657L38.2422 49.554H39.151C39.486 49.554 39.8361 49.5224 40.2047 49.4829C40.164 49.594 40.1139 49.7113 40.0905 49.8215C40.0676 49.931 40.0676 50.0491 40.0621 50.159C39.7081 50.1274 39.3726 50.0886 39.0297 50.0886H38.128L37.576 52.6877Z" fill="white"/>
<path d="M43.7176 50.5667L43.3426 48.7369L42.1478 50.5667H43.7176ZM41.8143 51.046C41.4642 51.6434 41.1462 52.1294 40.8676 52.6711C40.7321 52.6632 40.6064 52.647 40.4693 52.647C40.3322 52.647 40.1912 52.6632 40.0525 52.6711L43.6631 47.2304C43.7709 47.2442 43.8725 47.2537 43.9839 47.2537C44.0957 47.2537 44.2004 47.2446 44.3158 47.2304L45.5505 52.6873C45.3052 52.6711 45.0705 52.647 44.8216 52.647C44.5726 52.647 44.3273 52.6711 44.0748 52.6873C44.0009 52.1053 43.9337 51.5731 43.8136 51.046H41.8143Z" fill="white"/>
<path d="M53.0045 47.3011C53.1203 47.3173 53.2357 47.3406 53.3566 47.3406C53.4763 47.3406 53.6098 47.3173 53.7335 47.3011C53.551 49.4126 53.385 51.125 53.3443 52.6877C53.1072 52.6715 52.8805 52.6474 52.6406 52.6474C52.4 52.6474 52.1807 52.6715 51.9369 52.6877C52.1333 51.4399 52.2174 50.2376 52.3451 49.0274C51.4375 50.2297 50.5386 51.4305 49.6701 52.6474C49.5626 52.6312 49.4607 52.6241 49.3449 52.6474C49.0261 51.564 48.6065 50.3478 48.2157 49.1147C47.7246 50.4976 47.3559 51.5873 47.0959 52.6877C46.9624 52.6715 46.8391 52.6474 46.7016 52.6474C46.5637 52.6474 46.4389 52.6715 46.2986 52.6877C46.9426 51.1088 47.6041 49.2869 48.318 47.3011C48.435 47.3173 48.5409 47.3406 48.661 47.3406C48.7815 47.3406 48.9068 47.3173 49.0304 47.3011C49.386 48.5342 49.8037 49.7583 50.2205 50.9915C51.0744 49.8753 52.0661 48.6437 53.0045 47.3011Z" fill="white"/>
<path d="M55.7323 47.3011C55.9437 47.3173 56.1527 47.3406 56.3684 47.3406C56.5822 47.3406 56.8019 47.3173 57.02 47.3011L55.8749 52.6877C55.6643 52.6715 55.4549 52.6474 55.24 52.6474C55.0254 52.6474 54.8061 52.6715 54.5876 52.6877L55.7323 47.3011Z" fill="white"/>
<path d="M58.8512 52.0824C59.5992 52.0824 60.2452 52.0267 60.8402 51.9714C60.8007 52.0824 60.7493 52.2005 60.7268 52.31C60.7027 52.4194 60.7035 52.5376 60.696 52.6474H57.4446L58.5805 47.3011C58.7923 47.3173 59.0017 47.3406 59.2163 47.3406C59.43 47.3406 59.6501 47.3173 59.8678 47.3011L58.8512 52.0824Z" fill="white"/>
<path d="M63.0515 47.3011C63.2629 47.3173 63.4727 47.3406 63.6857 47.3406C63.901 47.3406 64.1219 47.3173 64.3392 47.3011L63.195 52.6877C62.9828 52.6715 62.7738 52.6474 62.5592 52.6474C62.3447 52.6474 62.1254 52.6715 61.9065 52.6877L63.0515 47.3011Z" fill="white"/>
<path d="M67.8487 50.5667L67.4737 48.7369L66.2793 50.5667H67.8487ZM65.9438 51.046C65.5941 51.6434 65.2768 52.1294 64.9983 52.6711C64.8624 52.6632 64.7375 52.647 64.5984 52.647C64.4617 52.647 64.3215 52.6632 64.1824 52.6711L67.7926 47.2304C67.9012 47.2442 68.0032 47.2537 68.115 47.2537C68.226 47.2537 68.3311 47.2446 68.4461 47.2304L69.6808 52.6873C69.4355 52.6711 69.1992 52.647 68.9499 52.647C68.7013 52.647 68.4568 52.6711 68.2043 52.6873C68.1308 52.1053 68.064 51.5731 67.9435 51.046H65.9438Z" fill="white"/>
<path d="M71.9803 52.0824C72.7283 52.0824 73.3747 52.0267 73.9698 51.9714C73.9295 52.0824 73.8793 52.2005 73.8548 52.31C73.8315 52.4194 73.8331 52.5376 73.8263 52.6474H70.5737L71.7089 47.3011C71.9211 47.3173 72.1301 47.3406 72.3454 47.3406C72.5608 47.3406 72.7793 47.3173 72.9982 47.3011L71.9803 52.0824Z" fill="white"/>
<path d="M79.4273 47.3011C79.3858 47.4105 79.3341 47.5279 79.3115 47.6377C79.2882 47.7472 79.2882 47.8653 79.2831 47.9752C78.7738 47.9135 78.2028 47.8503 77.3221 47.8657L76.9649 49.554H77.8571C78.2443 49.554 78.6027 49.5224 78.9283 49.4829C78.8872 49.5939 78.8366 49.7113 78.8133 49.8215C78.7908 49.931 78.7908 50.0491 78.7848 50.159C78.4771 50.1202 78.1313 50.0886 77.7437 50.0886H76.8507L76.4272 52.0828C77.3047 52.0757 77.8974 52.0358 78.4336 51.9718C78.3933 52.0828 78.3427 52.2009 78.3202 52.3104C78.2957 52.4198 78.2961 52.538 78.2894 52.6478H75.0198L76.1565 47.3015H79.4273" fill="white"/>
<path d="M83.0567 48.3134C82.9718 47.8965 82.7039 47.6298 82.2147 47.6298C81.5363 47.6298 81.2024 47.9522 81.1064 48.3999C80.8804 49.4604 83.532 49.2628 83.15 51.0614C82.9354 52.0662 81.839 52.7901 80.509 52.7901C80.036 52.7901 79.5512 52.6873 79.198 52.4514C79.3715 52.1219 79.5358 51.7924 79.6587 51.4546H79.8231C79.8361 51.9963 80.2312 52.3175 80.8239 52.3175C81.3549 52.3175 81.886 52.0437 82.0014 51.5028C82.2677 50.2455 79.6129 50.7011 80.0151 48.8089C80.2079 47.9052 81.044 47.1596 82.3487 47.1596C82.9658 47.1596 83.47 47.3718 83.6237 47.537C83.4673 47.7871 83.3274 48.0463 83.1839 48.3142H83.0567" fill="white"/>
</svg>
