<svg id="carsat" width="120" height="56" viewBox="0 0 120 56" fill="none" xmlns="http://www.w3.org/2000/svg">
<g clip-path="url(#clip0)">
<path d="M43.7276 44.6566C43.5488 45.549 42.9229 46.4413 42.2971 46.4413H41.2242C41.2242 46.4413 41.4924 45.192 41.5818 44.6566C41.7606 43.5858 42.3864 42.9612 43.0123 42.9612C43.4594 43.0504 43.9958 43.5858 43.7276 44.6566ZM45.8734 44.6566C46.1417 43.4073 45.2475 42.2473 43.1017 42.2473C41.0453 42.2473 39.5254 44.032 39.1678 45.9951C38.8101 48.0475 39.8831 49.743 41.6712 49.743H44.4429L44.5323 49.0291H41.7606C41.1348 49.0291 40.7771 48.4937 40.8666 47.7798L40.9559 47.1552H42.0288C44.4429 47.1552 45.6052 45.9059 45.8734 44.6566Z" fill="#1173B7"/>
<path d="M50.7913 43.1399H49.3607L48.5561 47.5123C48.3772 48.4047 48.9137 49.1185 49.6289 49.1185L49.5396 49.8324C47.5726 49.8324 46.3208 48.2262 46.7679 46.1738L47.2149 43.586C47.3043 43.1399 47.0361 42.8721 46.6784 42.8721L46.7679 42.4259H47.3937L47.8408 39.9274L50.1654 38.8566L49.5396 42.4259H50.9701L50.7913 43.1399Z" fill="#1173B7"/>
<path d="M55.8875 44.389H55.4405C55.5299 43.8536 55.2616 43.3182 54.7253 43.3182C54.1888 43.3182 53.7417 43.7643 53.6523 44.389L52.6688 49.6538H50.6124L51.6853 43.5859C51.7748 43.1397 51.5065 42.872 51.2383 42.872L51.3277 42.3366H54.01L53.9205 42.7828C54.3676 42.3366 55.0829 42.1581 55.7087 42.1581C56.0664 42.1581 56.6028 42.2474 56.7816 42.3366L55.8875 44.389Z" fill="#1173B7"/>
<path d="M60.7157 43.1397C60.7157 43.1397 60.0004 46.9768 59.911 47.6907C59.8215 48.4045 59.1957 48.9399 58.5699 48.9399C57.944 48.9399 57.5864 48.3153 57.7652 47.6907C57.8546 46.9768 58.391 44.4782 58.391 44.4782C58.4804 43.7644 59.1063 43.2289 59.6428 43.2289H60.7157V43.1397ZM62.9509 42.4259H59.7322C57.944 42.4259 56.2452 43.9428 55.8876 45.9952C55.5299 48.0476 56.6029 49.7431 58.391 49.7431C58.9275 49.7431 59.4639 49.4754 59.7322 49.2077L59.6428 49.6538H62.2356L62.325 49.2077C61.9674 49.2077 61.7885 48.8507 61.878 48.4938L62.9509 42.4259Z" fill="#1173B7"/>
<path d="M65.2759 49.6539H63.2195L64.2924 43.586C64.3818 43.1399 64.1136 42.8721 63.8454 42.8721L63.9348 42.4259H66.617L65.2759 49.6539ZM66.7959 41.2659H64.7394L65.1865 38.8566H67.2429L66.7959 41.2659Z" fill="#1173B7"/>
<path d="M71.5337 43.1397H70.1031L69.2985 47.5122C69.12 48.4045 69.6564 49.1185 70.3713 49.1185L70.2817 49.8323C68.315 49.8323 67.0633 48.2261 67.421 46.2629L67.868 43.6751C67.9574 43.2289 67.6892 42.9613 67.3315 42.9613L67.421 42.5151H68.0468L68.4938 40.0165L70.8188 38.9457L70.1928 42.5151H71.6234L71.5337 43.1397Z" fill="#1173B7"/>
<path d="M76.0042 44.6566C75.8256 45.549 75.1996 46.4413 74.5742 46.4413H73.5008C73.5008 46.4413 73.769 45.192 73.8586 44.6566C74.0372 43.5858 74.6632 42.9612 75.2892 42.9612C75.8256 43.0504 76.2723 43.5858 76.0042 44.6566ZM78.1504 44.6566C78.4186 43.4073 77.5244 42.2473 75.3788 42.2473C73.3222 42.2473 71.802 44.032 71.4448 45.9951C71.087 48.0475 72.1598 49.743 73.9482 49.743H76.7198L76.8094 49.0291H74.0372C73.4118 49.0291 73.054 48.4937 73.1436 47.7798L73.2326 47.1552H74.3054C76.7198 47.1552 77.8822 45.9059 78.1504 44.6566Z" fill="#1173B7"/>
<path d="M36.486 44.2999L37.6484 48.7616C37.7378 49.0293 37.9166 49.2078 38.1848 49.2078L38.0954 49.6539H35.3238L33.8038 43.586H34.3403C35.4132 43.586 36.486 42.6937 36.7543 41.5336C37.0225 40.3735 36.3073 39.4812 35.2343 39.4812H34.0721L31.9262 49.6539H29.5122L31.5686 40.0166C31.658 39.5705 31.3898 39.3027 31.0322 39.3027L31.1216 38.8566H37.0225C38.5425 38.8566 39.526 40.1059 39.2578 41.6229C38.8107 42.8721 37.7378 44.0321 36.486 44.2999Z" fill="#1173B7"/>
<path d="M50.7024 23.5082L47.0366 27.7914L46.9472 28.1484C47.3048 28.1484 47.4836 28.4161 47.3942 28.773L46.2319 33.8594C45.8743 35.4656 47.126 36.8934 49.0036 36.8934L49.093 36.2687C48.2883 36.2687 47.8412 35.6441 48.0201 34.9302L50.7024 23.5082ZM52.8481 23.419L52.2223 26.8991H53.6528L54.2787 23.419H52.8481Z" fill="#1173B7"/>
<path d="M68.0473 31.0929H67.6003C67.6897 30.4683 67.5109 29.9329 66.885 29.9329C66.1697 29.9329 65.8121 30.4683 65.7227 30.9144C65.6333 31.3606 65.7227 31.5391 65.991 31.8068L66.9745 32.6991C67.5109 33.2345 67.7791 33.7699 67.6003 34.6623C67.4215 35.6439 66.3486 36.8039 64.471 36.8039H62.7722L62.9511 36.09H64.024C64.6498 36.09 65.2757 35.6439 65.3651 34.93C65.4545 34.5731 65.3651 34.2161 65.1862 34.0377L64.2028 33.1453C63.6663 32.6099 63.4875 31.8068 63.6663 31.0929C63.9346 30.0221 65.2757 29.219 66.885 29.219C67.4215 29.219 67.9579 29.3082 68.4049 29.5759L68.0473 31.0929Z" fill="#1173B7"/>
<path d="M73.8592 31.0929H73.4118C73.5014 30.4683 73.3222 29.9329 72.6968 29.9329C71.9812 29.9329 71.624 30.4683 71.5344 30.9144C71.4448 31.3606 71.5344 31.5391 71.8026 31.8068L72.7858 32.6991C73.3222 33.2345 73.591 33.7699 73.4118 34.6623C73.2332 35.6439 72.1604 36.8039 70.2824 36.8039H68.5839L68.7626 36.09H69.8356C70.4616 36.09 71.087 35.6439 71.1766 34.93C71.2662 34.5731 71.1766 34.2161 70.998 34.0377L70.0142 33.1453C69.4778 32.6099 69.2992 31.8068 69.4778 31.0929C69.746 30.0221 71.087 29.219 72.6968 29.219C73.2332 29.219 73.7696 29.3082 74.2164 29.5759L73.8592 31.0929Z" fill="#1173B7"/>
<path d="M81.1005 35.5545C81.0109 36.0007 81.2791 36.2684 81.6369 36.2684L81.548 36.7145H78.8653L78.955 36.2684C78.6868 36.5361 78.1504 36.8038 77.614 36.8038C77.2562 36.8038 76.8983 36.7145 76.6302 36.6253C75.4677 36.0899 74.7528 34.7514 75.1099 33.0559L75.5574 30.7359C75.647 30.2897 75.3788 30.022 75.021 30.022L75.1099 29.5758H77.9711L76.988 34.8407C76.8983 35.5545 77.2562 36.0899 77.7926 36.0899C78.4186 36.0899 79.0439 35.5545 79.1335 34.8407L80.1174 29.5758H82.2629L81.1005 35.5545Z" fill="#1173B7"/>
<path d="M88.4321 31.5393H87.9846C88.0743 31.0038 87.8061 30.4684 87.2697 30.4684C86.7333 30.4684 86.2858 30.9146 86.1969 31.5393L85.2131 36.8041H83.1571L84.2299 30.7362C84.3188 30.29 84.0507 30.0223 83.7825 30.0223L83.8721 29.4869H86.554L86.4651 29.933C86.9119 29.4869 87.6275 29.3084 88.2528 29.3084C88.6107 29.3084 89.147 29.3976 89.3263 29.4869L88.4321 31.5393Z" fill="#1173B7"/>
<path d="M93.2603 30.2901C93.2603 30.2901 92.5447 34.1272 92.4557 34.841C92.3661 35.555 91.7401 36.0904 91.1141 36.0904C90.4887 36.0904 90.1309 35.4657 90.3095 34.841C90.3991 34.1272 90.9355 31.6286 90.9355 31.6286C91.0251 30.9148 91.6505 30.3794 92.1875 30.3794H93.2603V30.2901ZM95.4955 29.487H92.2765C90.4887 29.487 88.7899 31.004 88.4321 33.0564C88.0743 35.1088 89.1471 36.8042 90.9355 36.8042C91.4719 36.8042 92.0083 36.5365 92.2765 36.2688L92.1875 36.715H94.7799L94.8695 36.2688C94.5117 36.2688 94.3331 35.9119 94.4227 35.555L95.4955 29.487Z" fill="#1173B7"/>
<path d="M103.363 36.804H100.592C100.592 36.804 101.396 32.2531 101.575 31.5392C101.665 30.8253 101.307 30.2899 100.681 30.2899C100.055 30.2899 99.4295 30.9146 99.2502 31.5392C99.1613 32.2531 98.2671 36.804 98.2671 36.804H96.2104L97.3728 30.7361C97.4625 30.2899 97.1943 30.0222 96.8365 30.0222L96.9261 29.576H99.6977L99.608 29.933C99.6977 29.7545 100.234 29.3976 100.77 29.3976C102.559 29.3976 103.721 31.093 103.363 33.1454L102.916 35.644C102.827 36.0901 103.095 36.3578 103.452 36.3578L103.363 36.804Z" fill="#1173B7"/>
<path d="M109.801 31.4499H109.264C109.354 30.736 108.996 30.2005 108.46 30.2005C107.923 30.2005 107.297 30.8252 107.209 31.4499C107.119 32.1637 106.672 34.7515 106.672 34.7515C106.582 35.4654 106.94 36.0008 107.477 36.0008H109.086L108.996 36.7147H107.297C105.599 36.7147 104.615 35.0192 104.973 32.9668C105.33 31.0929 106.851 29.219 108.728 29.219C109.444 29.219 109.89 29.3975 110.248 29.6651L109.801 31.4499Z" fill="#1173B7"/>
<path d="M116.954 31.8069C117.222 30.5576 116.328 29.3976 114.182 29.3976C112.126 29.3976 110.606 31.1822 110.248 33.1454C109.891 35.1978 110.963 36.8932 112.751 36.8932H115.523L115.612 36.1794H112.841C112.215 36.1794 111.858 35.5547 111.946 34.9301L112.036 34.3054H113.109C115.523 34.2162 116.685 33.0562 116.954 31.8069ZM114.808 31.8069C114.629 32.6992 114.003 33.5916 113.377 33.5916H112.304C112.304 33.5916 112.572 32.3423 112.662 31.8069C112.841 30.7361 113.467 30.1114 114.093 30.1114C114.539 30.1114 114.987 30.6468 114.808 31.8069Z" fill="#1173B7"/>
<path d="M56.424 26.3636C57.1393 26.3636 57.2286 26.7206 57.1393 27.0775C56.9605 27.4344 52.2218 36.804 52.2218 36.804H54.8147C54.8147 36.804 56.7816 32.967 56.9605 32.5208C57.2286 32.0746 57.4075 31.7176 58.3016 31.7176L58.7486 36.7148H62.0567L61.9674 36.2686C61.6097 36.2686 61.3415 36.0009 61.2521 35.5548L60.358 25.9174H56.3346L56.424 26.3636ZM56.424 30.9146L57.9439 27.8806L58.2121 30.9146H56.424Z" fill="#1173B7"/>
<path d="M27.0982 33.2349C27.0982 33.2349 18.9621 32.2533 15.654 24.133C15.654 24.133 15.1175 22.7052 15.5645 22.616C15.5645 22.616 16.8163 21.7237 19.3197 22.5268C19.3197 22.5268 19.7668 22.8837 19.7668 23.3299C19.7668 23.3299 20.5714 26.0069 22.449 27.9701C22.449 27.9701 24.5948 31.0933 29.9593 31.6287C29.9593 31.6287 38.5425 27.4347 44.98 14.7634L45.5164 13.6926C45.5164 13.6926 45.9635 12.8002 47.6622 12.9787C47.6622 12.9787 49.9868 13.1572 49.808 14.0495C49.808 14.0495 50.0762 14.0495 48.0198 17.5297C48.0198 17.5297 42.2083 28.1485 32.1051 33.5026C32.1051 33.5026 26.1147 37.3397 17.1739 38.589C17.1739 38.589 11.2729 39.4813 9.39537 39.0351C9.39537 39.0351 7.78601 38.589 8.76951 37.6966C8.76951 37.6966 9.75297 37.2505 11.0942 37.2505C11.0047 37.2505 20.8396 36.9827 27.0982 33.2349Z" fill="#F9B92B"/>
<path d="M35.1449 18.69C36.7543 20.2962 36.2178 23.4194 33.9826 25.6503C31.7474 27.8812 28.6181 28.4166 27.0087 26.8104C25.3993 25.2042 25.9358 22.0809 28.171 19.8501C30.4063 17.6192 33.5355 17.0838 35.1449 18.69Z" fill="#1173B7"/>
<path d="M5.46106 31.4502C5.63987 31.2717 5.72928 31.0932 5.81869 30.7363C5.9081 30.2902 5.72928 30.0224 5.46106 29.9332C5.19283 29.844 4.9246 30.0224 4.74579 30.3794C4.47756 30.8256 4.11993 31.0932 3.67288 31.004C3.22584 30.9148 2.86821 30.3794 3.04703 29.844C3.13643 29.487 3.22584 29.3086 3.31525 29.2193L3.58348 29.3978C3.49407 29.487 3.40466 29.6655 3.31525 29.9332C3.22584 30.3794 3.40466 30.5578 3.67288 30.647C3.94111 30.7363 4.11993 30.5578 4.38815 30.2009C4.74579 29.7548 5.01401 29.487 5.46106 29.5762C5.9081 29.6655 6.26573 30.1116 6.08692 30.9148C5.99751 31.1824 5.81869 31.5394 5.72928 31.6286L5.46106 31.4502Z" fill="#1173B7"/>
<path d="M5.64007 26.8992L5.28244 28.0592L6.35533 28.4162L6.80238 27.0777L7.16001 27.2562L6.53415 28.9516L3.49426 27.8808L4.12012 26.2746L4.38835 26.3638L4.03072 27.6131L4.9248 27.97L5.37184 26.81L5.64007 26.8992Z" fill="#1173B7"/>
<path d="M3.31524 26.1854L3.67287 26.8993L3.58347 27.2563L3.22583 26.6316L3.31524 26.1854Z" fill="#1173B7"/>
<path d="M8.32176 24.3115C8.32176 24.49 8.23234 24.7577 8.14294 25.1147C7.78531 25.9177 6.98063 26.2747 5.99713 25.8285C5.10305 25.3823 4.74541 24.49 5.19246 23.5977C5.37127 23.2407 5.55009 23.0623 5.6395 22.973L5.90773 23.2407C5.81832 23.3299 5.6395 23.5084 5.55009 23.7761C5.19246 24.49 5.46068 25.1147 6.26536 25.4716C6.98063 25.8285 7.60648 25.5608 7.96412 24.9362C8.05353 24.6685 8.14294 24.49 8.14294 24.2223L8.32176 24.3115Z" fill="#1173B7"/>
<path d="M6.26566 21.6345L7.87502 22.6161C8.50087 22.973 8.94791 22.8838 9.12674 22.5269C9.39496 22.1699 9.30555 21.7237 8.67969 21.3668L7.07033 20.3852L7.24916 20.0283L8.85851 21.0099C9.66321 21.5453 9.75256 22.1699 9.39496 22.7945C9.03732 23.3299 8.50088 23.5977 7.60679 23.0623L5.99744 22.0807L6.26566 21.6345Z" fill="#1173B7"/>
<path d="M8.14294 18.8681C8.23235 18.6897 8.41117 18.422 8.58998 18.2435C8.85821 17.8865 9.12643 17.7081 9.39466 17.7081C9.57348 17.7081 9.84168 17.7081 10.0205 17.8865C10.3781 18.1543 10.3781 18.5112 10.2887 18.8681C10.4676 18.6897 10.7358 18.7789 11.0934 18.8681C11.5405 19.0466 11.8087 19.2251 11.8981 19.2251L11.6299 19.582C11.5405 19.582 11.2722 19.4928 10.9146 19.2251C10.4676 19.0466 10.2887 19.0466 10.0205 19.3143L9.75233 19.582L10.8252 20.4743L10.557 20.8313L8.14294 18.8681ZM9.57348 19.4928L9.84168 19.1359C10.1099 18.7789 10.1099 18.4219 9.84168 18.1543C9.48407 17.8865 9.21584 17.9758 8.94762 18.3327C8.85821 18.5112 8.7688 18.6005 8.6794 18.6897L9.57348 19.4928Z" fill="#1173B7"/>
<path d="M10.4679 16.1019L12.7925 18.3327L12.5243 18.6005L10.1997 16.4588L10.4679 16.1019Z" fill="#1173B7"/>
<path d="M12.0771 15.0309L11.3618 15.6556L11.183 15.3879L12.8817 13.7817L13.15 14.0494L12.4347 14.7633L14.3122 16.8157L14.0441 17.1726L12.0771 15.0309Z" fill="#1173B7"/>
<path d="M16.0115 13.6032L15.028 14.3171L15.7432 15.2987L16.8162 14.4955L17.0844 14.7633L15.5645 15.8341L13.6869 13.2463L15.1174 12.1755L15.2962 12.4432L14.2233 13.2463L14.8492 14.0494L15.8327 13.3355L16.0115 13.6032Z" fill="#1173B7"/>
<path d="M14.5812 11.7295L14.4024 12.5326L14.1342 12.7111V11.9972L14.5812 11.7295Z" fill="#1173B7"/>
<path d="M18.6934 13.157C18.8722 13.157 19.2298 13.1571 19.4087 12.9786C19.7663 12.8001 19.9451 12.4432 19.7663 12.1755C19.5875 11.9078 19.4087 11.8185 18.9616 11.9078C18.4252 11.997 17.9781 11.9078 17.7993 11.4616C17.5311 11.0154 17.7993 10.48 18.3358 10.2123C18.604 10.0338 18.8722 10.0338 19.0511 10.0338L19.1404 10.3908C19.0511 10.3908 18.7828 10.3908 18.5146 10.5693C18.1569 10.7477 18.0676 11.1047 18.1569 11.2831C18.3358 11.5508 18.5146 11.5508 19.0511 11.5508C19.6769 11.4616 20.0345 11.6401 20.2133 11.997C20.4816 12.4432 20.3028 12.9786 19.6769 13.3355C19.4087 13.514 19.0511 13.514 18.8722 13.514L18.6934 13.157Z" fill="#1173B7"/>
<path d="M22.5384 11.9972C21.7338 12.2649 20.9291 11.9079 20.5715 11.0156C20.2138 10.034 20.5715 9.23092 21.3762 8.87398C22.1808 8.60628 22.9855 8.96322 23.3432 9.85556C23.7008 10.9264 23.3432 11.6402 22.5384 11.9972ZM22.4491 11.6402C23.0749 11.3725 23.1643 10.7479 22.8961 10.034C22.6279 9.40938 22.0914 8.96322 21.4656 9.14168C20.8397 9.40938 20.7503 10.1233 20.9291 10.7479C21.2867 11.4618 21.8232 11.9079 22.4491 11.6402Z" fill="#1173B7"/>
<path d="M26.8294 10.5693C26.74 10.6585 26.3823 10.837 26.0247 10.9262C25.1306 11.1047 24.3259 10.7477 24.0577 9.67692C23.7895 8.69534 24.3259 7.89223 25.3094 7.62453C25.6671 7.53529 25.9353 7.53529 26.1141 7.62453V7.98146C25.9353 7.98146 25.7565 7.98146 25.4883 7.98146C24.773 8.15994 24.4153 8.78458 24.5942 9.58768C24.773 10.3908 25.3094 10.7477 26.1141 10.5693C26.3823 10.48 26.5612 10.3908 26.74 10.3016L26.8294 10.5693Z" fill="#1173B7"/>
<path d="M27.6349 7.35683L28.0819 10.48L27.7243 10.5693L27.1879 7.35683H27.6349Z" fill="#1173B7"/>
<path d="M29.6013 9.31999L29.333 10.3908H28.886L29.7801 7.08913H30.3165L31.6576 10.2123H31.2106L30.7636 9.23076L29.6013 9.31999ZM30.5847 8.87382L30.2271 7.98147C30.1377 7.803 30.0483 7.62453 30.0483 7.44606C30.0483 7.62453 29.9589 7.803 29.9589 8.0707L29.6906 9.05228L30.5847 8.87382Z" fill="#1173B7"/>
<path d="M32.462 7H32.909L32.7302 9.8555L34.1608 9.94474V10.3017L32.2832 10.2124L32.462 7Z" fill="#1173B7"/>
<path d="M36.754 9.14173L35.5023 8.96326L35.3235 10.1233L36.754 10.3018L36.6647 10.6587L34.8765 10.391L35.3235 7.17857L37.0223 7.44628V7.80322L35.6812 7.62475L35.5918 8.60632L36.754 8.7848V9.14173Z" fill="#1173B7"/>
</g>
<defs>
<clipPath id="clip0">
<rect width="114" height="42.8324" fill="white" transform="translate(3 7)"/>
</clipPath>
</defs>
</svg>
