<svg id="carsat" width="40" height="40" viewBox="0 0 40 40" fill="none" xmlns="http://www.w3.org/2000/svg">
<g clip-path="url(#clip0_1422_17305)">
<path d="M14.2905 25.2128C14.2277 25.5259 14.0081 25.839 13.7886 25.839H13.4121C13.4121 25.839 13.5062 25.4007 13.5376 25.2128C13.6003 24.8371 13.8199 24.6179 14.0395 24.6179C14.1964 24.6492 14.3846 24.8371 14.2905 25.2128ZM15.0434 25.2128C15.1375 24.7745 14.8238 24.3674 14.0709 24.3674C13.3493 24.3674 12.816 24.9936 12.6905 25.6825C12.5651 26.4026 12.9415 26.9975 13.5689 26.9975H14.5415L14.5728 26.747H13.6003C13.3807 26.747 13.2552 26.5592 13.2866 26.3087L13.318 26.0895H13.6944C14.5415 26.0895 14.9493 25.6512 15.0434 25.2128Z" fill="#1173B7"/>
<path d="M16.769 24.6806H16.267L15.9847 26.2148C15.9219 26.5279 16.1102 26.7784 16.3611 26.7784L16.3298 27.0289C15.6396 27.0289 15.2004 26.4653 15.3572 25.7452L15.5141 24.8372C15.5455 24.6806 15.4514 24.5867 15.3259 24.5867L15.3572 24.4301H15.5768L15.7337 23.5535L16.5493 23.1777L16.3298 24.4301H16.8317L16.769 24.6806Z" fill="#1173B7"/>
<path d="M18.557 25.1189H18.4001C18.4315 24.9311 18.3374 24.7432 18.1492 24.7432C17.9609 24.7432 17.804 24.8998 17.7727 25.1189L17.4276 26.9662H16.7061L17.0825 24.8372C17.1139 24.6806 17.0198 24.5867 16.9257 24.5867L16.957 24.3988H17.8982L17.8668 24.5553C18.0236 24.3988 18.2746 24.3362 18.4942 24.3362C18.6197 24.3362 18.8079 24.3675 18.8707 24.3988L18.557 25.1189Z" fill="#1173B7"/>
<path d="M20.2511 24.6807C20.2511 24.6807 20.0001 26.027 19.9687 26.2775C19.9373 26.528 19.7177 26.7158 19.4981 26.7158C19.2785 26.7158 19.1531 26.4967 19.2158 26.2775C19.2472 26.027 19.4354 25.1503 19.4354 25.1503C19.4668 24.8998 19.6864 24.712 19.8746 24.712H20.2511V24.6807ZM21.0353 24.4302H19.906C19.2785 24.4302 18.6825 24.9624 18.557 25.6826C18.4315 26.4027 18.808 26.9976 19.4354 26.9976C19.6236 26.9976 19.8119 26.9037 19.906 26.8098L19.8746 26.9663H20.7844L20.8157 26.8098C20.6903 26.8098 20.6275 26.6845 20.6589 26.5593L21.0353 24.4302Z" fill="#1173B7"/>
<path d="M21.8512 26.9663H21.1296L21.5061 24.8372C21.5375 24.6806 21.4434 24.5867 21.3492 24.5867L21.3806 24.4301H22.3218L21.8512 26.9663ZM22.3845 24.0231H21.663L21.8198 23.1777H22.5414L22.3845 24.0231Z" fill="#1173B7"/>
<path d="M24.047 24.6806H23.545L23.2627 26.2148C23.2 26.5279 23.3882 26.7784 23.6391 26.7784L23.6077 27.0288C22.9176 27.0288 22.4784 26.4653 22.6039 25.7764L22.7607 24.8684C22.7921 24.7119 22.698 24.618 22.5725 24.618L22.6039 24.4614H22.8235L22.9803 23.5847L23.7961 23.209L23.5764 24.4614H24.0784L24.047 24.6806Z" fill="#1173B7"/>
<path d="M25.6155 25.2128C25.5529 25.5259 25.3332 25.839 25.1138 25.839H24.7372C24.7372 25.839 24.8313 25.4007 24.8627 25.2128C24.9254 24.8371 25.145 24.6179 25.3647 24.6179C25.5529 24.6492 25.7096 24.8371 25.6155 25.2128ZM26.3686 25.2128C26.4627 24.7745 26.1489 24.3674 25.3961 24.3674C24.6745 24.3674 24.1411 24.9936 24.0158 25.6825C23.8902 26.4026 24.2666 26.9975 24.8941 26.9975H25.8666L25.8981 26.747H24.9254C24.7059 26.747 24.5804 26.5592 24.6118 26.3087L24.643 26.0895H25.0195C25.8666 26.0895 26.2745 25.6512 26.3686 25.2128Z" fill="#1173B7"/>
<path d="M11.7494 25.0877L12.1573 26.6532C12.1887 26.7471 12.2514 26.8097 12.3455 26.8097L12.3141 26.9663H11.3416L10.8083 24.8372H10.9965C11.373 24.8372 11.7494 24.5241 11.8436 24.117C11.9377 23.71 11.6867 23.3969 11.3103 23.3969H10.9024L10.1495 26.9663H9.30249L10.024 23.5848C10.0554 23.4282 9.96129 23.3343 9.83581 23.3343L9.86718 23.1777H11.9377C12.471 23.1777 12.8161 23.6161 12.722 24.1483C12.5651 24.5867 12.1887 24.9937 11.7494 25.0877Z" fill="#1173B7"/>
<path d="M16.7377 17.7923L15.4515 19.2952L15.4201 19.4204C15.5456 19.4204 15.6083 19.5144 15.5769 19.6396L15.1691 21.4243C15.0436 21.9879 15.4828 22.4888 16.1416 22.4888L16.173 22.2697C15.8907 22.2697 15.7338 22.0505 15.7965 21.8L16.7377 17.7923ZM17.4906 17.761L17.271 18.9821H17.7729L17.9925 17.761H17.4906Z" fill="#1173B7"/>
<path d="M22.8236 20.4536H22.6667C22.6981 20.2345 22.6353 20.0466 22.4158 20.0466C22.1648 20.0466 22.0393 20.2345 22.0079 20.391C21.9765 20.5476 22.0079 20.6102 22.102 20.7041L22.4471 21.0172C22.6353 21.2051 22.7295 21.393 22.6667 21.7061C22.604 22.0505 22.2275 22.4575 21.5687 22.4575H20.9727L21.0354 22.207H21.4119C21.6315 22.207 21.8511 22.0505 21.8824 21.8C21.9138 21.6748 21.8824 21.5495 21.8197 21.4869L21.4746 21.1738C21.2864 20.9859 21.2236 20.7041 21.2864 20.4536C21.3805 20.0779 21.8511 19.7961 22.4158 19.7961C22.604 19.7961 22.7922 19.8274 22.949 19.9214L22.8236 20.4536Z" fill="#1173B7"/>
<path d="M24.863 20.4536H24.706C24.7374 20.2345 24.6745 20.0466 24.4551 20.0466C24.204 20.0466 24.0787 20.2345 24.0472 20.391C24.0158 20.5476 24.0472 20.6102 24.1414 20.7041L24.4863 21.0172C24.6745 21.2051 24.7689 21.393 24.706 21.7061C24.6433 22.0505 24.2669 22.4575 23.6079 22.4575H23.012L23.0747 22.207H23.4512C23.6708 22.207 23.8903 22.0505 23.9217 21.8C23.9531 21.6748 23.9217 21.5495 23.859 21.4869L23.5138 21.1738C23.3256 20.9859 23.263 20.7041 23.3256 20.4536C23.4197 20.0779 23.8903 19.7961 24.4551 19.7961C24.6433 19.7961 24.8315 19.8274 24.9883 19.9214L24.863 20.4536Z" fill="#1173B7"/>
<path d="M27.4037 22.0192C27.3722 22.1757 27.4663 22.2697 27.5919 22.2697L27.5607 22.4262H26.6194L26.6508 22.2697C26.5567 22.3636 26.3685 22.4575 26.1803 22.4575C26.0548 22.4575 25.9292 22.4262 25.8351 22.3949C25.4272 22.207 25.1764 21.7374 25.3017 21.1425L25.4587 20.3284C25.4901 20.1719 25.396 20.0779 25.2705 20.0779L25.3017 19.9214H26.3056L25.9607 21.7687C25.9292 22.0192 26.0548 22.207 26.243 22.207C26.4626 22.207 26.682 22.0192 26.7135 21.7687L27.0587 19.9214H27.8115L27.4037 22.0192Z" fill="#1173B7"/>
<path d="M29.9761 20.6101H29.8191C29.8506 20.4223 29.7565 20.2344 29.5683 20.2344C29.38 20.2344 29.223 20.391 29.1918 20.6101L28.8466 22.4574H28.1252L28.5017 20.3284C28.5329 20.1718 28.4388 20.0779 28.3447 20.0779L28.3761 19.89H29.3172L29.2859 20.0466C29.4427 19.89 29.6938 19.8274 29.9132 19.8274C30.0388 19.8274 30.227 19.8587 30.2899 19.89L29.9761 20.6101Z" fill="#1173B7"/>
<path d="M31.6703 20.1719C31.6703 20.1719 31.4192 21.5183 31.388 21.7688C31.3566 22.0192 31.1369 22.2071 30.9173 22.2071C30.6978 22.2071 30.5723 21.9879 30.6349 21.7688C30.6664 21.5183 30.8546 20.6416 30.8546 20.6416C30.886 20.3911 31.1055 20.2032 31.2939 20.2032H31.6703V20.1719ZM32.4546 19.8901H31.3251C30.6978 19.8901 30.1018 20.4224 29.9762 21.1426C29.8507 21.8627 30.2271 22.4576 30.8546 22.4576C31.0428 22.4576 31.231 22.3637 31.3251 22.2697L31.2939 22.4263H32.2035L32.2349 22.2697C32.1094 22.2697 32.0467 22.1445 32.0782 22.0192L32.4546 19.8901Z" fill="#1173B7"/>
<path d="M35.2151 22.4576H34.2427C34.2427 22.4576 34.525 20.8608 34.5876 20.6103C34.6191 20.3598 34.4935 20.172 34.2739 20.172C34.0542 20.172 33.8348 20.3912 33.7719 20.6103C33.7407 20.8608 33.4269 22.4576 33.4269 22.4576H32.7053L33.1132 20.3285C33.1446 20.172 33.0505 20.0781 32.925 20.0781L32.9564 19.9215H33.9289L33.8975 20.0467C33.9289 19.9841 34.1171 19.8589 34.3053 19.8589C34.9328 19.8589 35.3405 20.4538 35.2151 21.1739L35.0582 22.0506C35.0269 22.2071 35.121 22.3011 35.2464 22.3011L35.2151 22.4576Z" fill="#1173B7"/>
<path d="M37.4739 20.5789H37.2857C37.3172 20.3284 37.1916 20.1405 37.0034 20.1405C36.8152 20.1405 36.5956 20.3597 36.5643 20.5789C36.5329 20.8294 36.3761 21.7374 36.3761 21.7374C36.3447 21.9879 36.4702 22.1757 36.6585 22.1757H37.2231L37.1916 22.4262H36.5956C35.9995 22.4262 35.6545 21.8313 35.7801 21.1112C35.9054 20.4536 36.4388 19.7961 37.0975 19.7961C37.3486 19.7961 37.5054 19.8588 37.6309 19.9527L37.4739 20.5789Z" fill="#1173B7"/>
<path d="M39.9837 20.7043C40.0778 20.2659 39.7641 19.8589 39.011 19.8589C38.2896 19.8589 37.7562 20.4851 37.6307 21.1739C37.5054 21.8941 37.8818 22.4889 38.5091 22.4889H39.4818L39.513 22.2385H38.5405C38.3209 22.2385 38.1955 22.0193 38.2267 21.8001L38.2582 21.5809H38.6346C39.4818 21.5496 39.8894 21.1426 39.9837 20.7043ZM39.2307 20.7043C39.168 21.0174 38.9484 21.3305 38.7287 21.3305H38.3523C38.3523 21.3305 38.4464 20.8921 38.4778 20.7043C38.5405 20.3285 38.7602 20.1094 38.9798 20.1094C39.1366 20.1094 39.2936 20.2972 39.2307 20.7043Z" fill="#1173B7"/>
<path d="M18.7452 18.7943C18.9962 18.7943 19.0275 18.9195 18.9962 19.0447C18.9334 19.17 17.2708 22.4576 17.2708 22.4576H18.1805C18.1805 22.4576 18.8707 21.1112 18.9334 20.9547C19.0275 20.7981 19.0903 20.6729 19.404 20.6729L19.5609 22.4262H20.7216L20.6902 22.2697C20.5647 22.2697 20.4706 22.1758 20.4393 22.0192L20.1256 18.6377H18.7138L18.7452 18.7943ZM18.7452 20.3911L19.2785 19.3265L19.3726 20.3911H18.7452Z" fill="#1173B7"/>
<path d="M8.45543 21.2053C8.45543 21.2053 5.60063 20.8609 4.43989 18.0117C4.43989 18.0117 4.25166 17.5107 4.40851 17.4794C4.40851 17.4794 4.84773 17.1663 5.72611 17.4481C5.72611 17.4481 5.88299 17.5733 5.88299 17.7299C5.88299 17.7299 6.16532 18.6692 6.82412 19.358C6.82412 19.358 7.57702 20.4539 9.45931 20.6417C9.45931 20.6417 12.471 19.1702 14.7297 14.7241L14.9179 14.3484C14.9179 14.3484 15.0748 14.0353 15.6709 14.0979C15.6709 14.0979 16.4865 14.1605 16.4238 14.4736C16.4238 14.4736 16.5179 14.4736 15.7963 15.6947C15.7963 15.6947 13.7572 19.4206 10.2122 21.2993C10.2122 21.2993 8.11034 22.6456 4.97321 23.084C4.97321 23.084 2.90269 23.397 2.24389 23.2405C2.24389 23.2405 1.67921 23.084 2.02429 22.7708C2.02429 22.7708 2.36937 22.6143 2.83996 22.6143C2.80858 22.6143 6.25943 22.5203 8.45543 21.2053Z" fill="#F9B92B"/>
<path d="M11.2789 16.1017C11.8436 16.6653 11.6554 17.7611 10.8711 18.5439C10.0868 19.3266 8.98879 19.5145 8.4241 18.9509C7.8594 18.3873 8.04763 17.2915 8.83191 16.5087C9.61621 15.726 10.7142 15.5381 11.2789 16.1017Z" fill="#1173B7"/>
<path d="M0.863528 20.5789C0.92627 20.5163 0.957642 20.4536 0.989013 20.3284C1.02039 20.1719 0.957642 20.0779 0.863528 20.0466C0.769413 20.0153 0.675299 20.0779 0.612557 20.2032C0.518442 20.3597 0.392957 20.4536 0.236099 20.4223C0.0792428 20.391 -0.0462427 20.2032 0.0165002 20.0153C0.0478715 19.8901 0.079243 19.8274 0.110614 19.7961L0.204729 19.8588C0.173357 19.8901 0.141986 19.9527 0.110614 20.0466C0.079243 20.2032 0.141986 20.2658 0.236099 20.2971C0.330215 20.3284 0.392957 20.2658 0.487071 20.1405C0.612557 19.984 0.706671 19.8901 0.863528 19.9214C1.02039 19.9527 1.14587 20.1092 1.08313 20.391C1.05176 20.485 0.989013 20.6102 0.957642 20.6415L0.863528 20.5789Z" fill="#1173B7"/>
<path d="M0.926253 18.9821L0.800769 19.3891L1.17722 19.5144L1.33408 19.0447L1.45957 19.1074L1.23997 19.7022L0.17334 19.3265L0.39294 18.7629L0.487053 18.7942L0.361569 19.2326L0.675282 19.3578L0.83214 18.9508L0.926253 18.9821Z" fill="#1173B7"/>
<path d="M0.110717 18.7317L0.236203 18.9822L0.204832 19.1074L0.0793457 18.8882L0.110717 18.7317Z" fill="#1173B7"/>
<path d="M1.86719 18.0742C1.86719 18.1368 1.83582 18.2307 1.80444 18.356C1.67896 18.6377 1.39662 18.763 1.05153 18.6064C0.737818 18.4499 0.612332 18.1368 0.769189 17.8237C0.831932 17.6984 0.894674 17.6358 0.926047 17.6045L1.02016 17.6984C0.988789 17.7297 0.926047 17.7924 0.894674 17.8863C0.769189 18.1368 0.863303 18.356 1.14565 18.4812C1.39662 18.6064 1.61622 18.5125 1.7417 18.2933C1.77307 18.1994 1.80444 18.1368 1.80444 18.0429L1.86719 18.0742Z" fill="#1173B7"/>
<path d="M1.14587 17.1349L1.71056 17.4793C1.93016 17.6045 2.08701 17.5732 2.14976 17.448C2.24387 17.3227 2.2125 17.1662 1.9929 17.041L1.42821 16.6965L1.49096 16.5713L2.05564 16.9157C2.33799 17.1036 2.36935 17.3227 2.24387 17.5419C2.11838 17.7298 1.93016 17.8237 1.61644 17.6358L1.05176 17.2914L1.14587 17.1349Z" fill="#1173B7"/>
<path d="M1.80444 16.1644C1.83581 16.1017 1.89856 16.0078 1.9613 15.9452C2.05541 15.8199 2.14953 15.7573 2.24364 15.7573C2.30639 15.7573 2.40049 15.7573 2.46324 15.8199C2.58872 15.9139 2.58872 16.0391 2.55735 16.1644C2.6201 16.1017 2.7142 16.133 2.83971 16.1644C2.99656 16.227 3.09066 16.2896 3.12204 16.2896L3.02794 16.4149C2.99656 16.4149 2.90243 16.3835 2.77695 16.2896C2.6201 16.227 2.55735 16.227 2.46324 16.3209L2.36914 16.4149L2.74558 16.7279L2.65147 16.8532L1.80444 16.1644ZM2.30639 16.3835L2.40049 16.2583C2.49462 16.133 2.49462 16.0078 2.40049 15.9139C2.27501 15.8199 2.1809 15.8513 2.08679 15.9765C2.05541 16.0391 2.02404 16.0704 1.99267 16.1017L2.30639 16.3835Z" fill="#1173B7"/>
<path d="M2.62023 15.1936L3.43588 15.9764L3.34178 16.0703L2.52612 15.3189L2.62023 15.1936Z" fill="#1173B7"/>
<path d="M3.1848 14.818L2.93382 15.0372L2.87109 14.9432L3.46714 14.3796L3.56127 14.4736L3.31028 14.7241L3.96908 15.4442L3.87498 15.5694L3.1848 14.818Z" fill="#1173B7"/>
<path d="M4.56541 14.3169L4.22032 14.5674L4.47128 14.9118L4.84774 14.63L4.94187 14.7239L4.40855 15.0996L3.74976 14.1916L4.2517 13.8159L4.31443 13.9099L3.93799 14.1916L4.15757 14.4734L4.50266 14.223L4.56541 14.3169Z" fill="#1173B7"/>
<path d="M4.06359 13.6594L4.00084 13.9412L3.90674 14.0038V13.7534L4.06359 13.6594Z" fill="#1173B7"/>
<path d="M5.50639 14.1603C5.56914 14.1603 5.69462 14.1603 5.75737 14.0977C5.88285 14.0351 5.9456 13.9098 5.88285 13.8159C5.8201 13.722 5.75737 13.6907 5.60052 13.722C5.41229 13.7533 5.25543 13.722 5.19268 13.5654C5.09857 13.4089 5.19268 13.221 5.38091 13.1271C5.47501 13.0645 5.56914 13.0645 5.63189 13.0645L5.66324 13.1897C5.63189 13.1897 5.53777 13.1897 5.44366 13.2523C5.31816 13.3149 5.28681 13.4402 5.31816 13.5028C5.38091 13.5967 5.44366 13.5967 5.63189 13.5967C5.85148 13.5654 5.97696 13.628 6.03971 13.7533C6.13383 13.9098 6.07108 14.0977 5.85148 14.2229C5.75737 14.2856 5.63189 14.2856 5.56914 14.2856L5.50639 14.1603Z" fill="#1173B7"/>
<path d="M6.8555 13.7533C6.57316 13.8473 6.29083 13.722 6.16535 13.4089C6.03985 13.0645 6.16535 12.7827 6.44768 12.6575C6.73002 12.5635 7.01238 12.6888 7.13786 13.0019C7.26334 13.3776 7.13786 13.6281 6.8555 13.7533ZM6.82415 13.6281C7.04373 13.5341 7.07511 13.315 6.981 13.0645C6.88687 12.8453 6.69864 12.6888 6.47906 12.7514C6.25945 12.8453 6.22808 13.0958 6.29083 13.315C6.41631 13.5655 6.60454 13.722 6.82415 13.6281Z" fill="#1173B7"/>
<path d="M8.36116 13.2523C8.32979 13.2836 8.20431 13.3462 8.07883 13.3775C7.76512 13.4401 7.48276 13.3149 7.38865 12.9392C7.29452 12.5948 7.48276 12.313 7.82784 12.219C7.95335 12.1877 8.04745 12.1877 8.1102 12.219V12.3443C8.04745 12.3443 7.9847 12.3443 7.89059 12.3443C7.63961 12.4069 7.51413 12.6261 7.57688 12.9079C7.63961 13.1897 7.82784 13.3149 8.1102 13.2523C8.20431 13.221 8.26706 13.1897 8.32979 13.1583L8.36116 13.2523Z" fill="#1173B7"/>
<path d="M8.64392 12.1252L8.80077 13.2211L8.67527 13.2524L8.48706 12.1252H8.64392Z" fill="#1173B7"/>
<path d="M9.33375 12.814L9.23962 13.1897H9.08276L9.39647 12.0312H9.58471L10.0553 13.1271H9.89842L9.74156 12.7827L9.33375 12.814ZM9.67881 12.6575L9.55333 12.3444C9.52196 12.2817 9.4906 12.2191 9.4906 12.1565C9.4906 12.2191 9.45923 12.2817 9.45923 12.3757L9.3651 12.7201L9.67881 12.6575Z" fill="#1173B7"/>
<path d="M10.3376 12H10.4945L10.4318 13.0019L10.9337 13.0332V13.1585L10.2749 13.1272L10.3376 12Z" fill="#1173B7"/>
<path d="M11.8436 12.7516L11.4044 12.689L11.3417 13.096L11.8436 13.1586L11.8123 13.2838L11.1848 13.1899L11.3417 12.0627L11.9377 12.1567V12.2819L11.4672 12.2193L11.4358 12.5637L11.8436 12.6263V12.7516Z" fill="#1173B7"/>
</g>
<defs>
<clipPath id="clip0_1422_17305">
<rect width="40" height="15.0289" fill="white" transform="translate(0 12)"/>
</clipPath>
</defs>
</svg>