<?xml version="1.0" encoding="utf-8"?>
<!-- Generator: Adobe Illustrator 26.3.1, SVG Export Plug-In . SVG Version: 6.00 Build 0)  -->
<svg version="1.1" id="Calque_1" xmlns="http://www.w3.org/2000/svg" xmlns:xlink="http://www.w3.org/1999/xlink" x="0px" y="0px"
	 viewBox="0 0 1060 1060" style="enable-background:new 0 0 1060 1060;" xml:space="preserve">
<style type="text/css">
	.st0{fill:none;stroke:#FFFFFF;stroke-miterlimit:10;}
</style>
<g>
	<polygon class="st0" points="1020,807.6 997.8,815.4 980.6,806.2 968.7,803.9 957.2,790 956.8,789.9 960.5,780.5 953.2,770.3 
		957.3,767 959.8,755.8 959.8,755.6 960.2,755.3 963.5,751.3 970.2,751.4 963.2,733.9 951.8,733.4 942,727.2 940.5,714.9 
		935.3,714.7 930.9,704.8 930.9,704.7 967.2,689.1 970.9,682.3 968.7,677.4 973.9,667.7 960.2,658.1 956,647.9 957.3,642 
		946.8,637.7 941.5,632.7 940.6,626.6 940.8,626.5 956.3,611.3 958.2,605.4 951.8,596.9 937.3,583 941.5,571.5 934.6,561.3 
		935.6,556 929.3,554.6 913.4,555.8 903.9,563.7 897.5,561 884.3,560.2 877.8,556.5 877.5,556.3 884.2,533.6 906.2,513.4 
		904.7,495.2 920.8,484 942.8,456.9 942.3,451.6 946.6,447.6 938.6,440.9 940.5,435.4 947.5,427.3 954.8,426.3 955.3,426.5 
		958.8,433.2 973,433.2 984.4,425.3 984.7,419.5 988.9,415.8 983.6,401.3 988.6,372.4 984.9,353 996.1,326.8 998.9,297.4 
		1018.5,271.8 1025.8,251.8 1010,246.1 982.2,245.1 966.5,231 954.8,238.9 941.8,236.6 937,238.9 932.8,231.5 927.1,228.9 
		921.9,231.9 921.4,237.4 916.2,236.1 901.2,218.9 898,208 892.4,204.1 871.6,199.3 863.3,205.8 858.1,206 848.4,201.6 841.7,196.1 
		828.9,196.1 826.5,201.3 816,202.6 809.5,189.1 803.6,189.6 803.6,183.8 792.3,180.9 779.6,169.7 768.6,170.1 770.2,157.9 
		764.9,147.2 764.9,139.5 769.9,129.8 764.9,127 757,135 753.9,147 737.5,154.4 727.5,151.2 722.1,152.4 721.5,152.4 714.6,150.2 
		720.8,138.3 715.1,128.5 713.8,117.4 706.1,108.3 694.7,110.3 684.5,107.9 676.3,94.6 666.2,92.1 658.6,91.1 652.6,89 646.9,73.2 
		647.8,67.5 640.4,59.3 629.4,60.1 619,67.3 613.5,65 608.2,55.1 602,55.1 599.5,50.1 601.5,39.4 596.7,28.1 591.5,24.9 560.9,32.6 
		535.2,40.6 524.3,50 524.3,83.7 524.7,87 523.3,98.1 524.2,105.3 521.5,110.9 520.8,116.6 521.3,124.1 509.1,140.8 508.8,141.3 
		488.4,155.5 447,165.9 420.2,180.3 409.4,204 412.6,208.2 413.4,216.2 404.4,224 386.2,229.2 370.3,222.5 346.9,219.9 329,213.7 
		319,218 307,198.3 311.7,183.6 309.6,178.4 297.5,177.1 292.8,180.4 280.6,181.3 259.2,172.6 258.9,177.9 265,181.3 266,190.5 
		262.4,194.3 267.2,213.3 283.1,230.5 280.6,249.4 284.3,254.8 283.3,266 279.1,276.7 286.9,294.2 281.4,300.7 259.7,300.7 
		260.2,290.2 254.2,291.5 246.7,298.7 238.5,300.9 230.8,301.5 229,295.7 221.3,293.5 214.6,294 194.4,310.7 192.7,303.9 185.2,299 
		185,293.2 176.5,278.5 171,277.3 166.5,272.6 156,265.1 139.4,272 136.7,267.5 128.2,274.3 127.6,285.8 121.5,286.8 112.4,281.2 
		107,282.3 98.5,277.5 71.4,285.7 68.6,280.7 49.5,291 38.7,291.9 35.2,296.4 32.5,313.2 35.8,317.6 41,315.4 45.9,317.8 45,326.6 
		49.5,336.5 52.9,331.3 58.1,331.8 68.2,337.6 69.9,343.6 66.9,348.3 62.4,345.8 38.7,348.2 35.8,352.8 53.7,359.5 60.7,371.2 
		58.7,381.6 72.4,382.7 79.3,374.9 79.3,374.2 84.8,377.9 93.5,374.7 102.3,385.9 107.7,384.7 108.3,384.6 108.3,384.7 113.2,382.9 
		112,388.2 117.4,389.4 124.5,386.6 126.2,395.3 130.9,398.3 136.1,395.6 140.6,400.4 147.4,403.3 147.8,403.5 148.4,408.6 
		152.4,414 152.8,419.8 157.8,415.3 163.8,414 168.3,417.3 170,419.5 179,426.5 202.2,424.7 201.7,427.8 204.7,432.7 196.4,440.9 
		200.9,452.4 212.3,454.4 216.1,458.1 225.3,451.2 226.1,454.9 224.9,467.4 230.5,473.8 239.5,483.1 224.8,498.7 225.6,507 
		245.2,529.9 249,543.1 264.2,555.8 273.2,557.8 276.1,564.5 287.4,566.7 296.1,573.9 297.5,568.7 302.8,569.5 294.3,587.6 
		299.8,589.2 307.5,604.3 305.3,615.1 299.8,626 290.9,632 293.3,640.2 308,649.4 327.5,670.2 331.5,684.3 331.5,684.4 323.8,681.1 
		303.8,661.4 302,656.2 296.5,666.9 284.9,761.1 283.1,772.7 283.3,781.5 262.7,875.4 255.5,888.8 255.4,888.8 246.8,900.6 
		235,909.3 245.8,914.3 251,916.3 263.4,918.8 266,924.2 262.5,935.2 257.7,939.5 260,944.9 267.4,946.7 274.2,944.6 285.3,950.4 
		303.3,957.4 315.2,956.8 320,965.6 334.7,977.6 339.1,974.6 343.4,977.3 354.6,971.5 354.8,971.6 375.8,990.3 398.7,987.2 
		403.4,991.2 421.9,990.8 433.6,991.5 438,987.3 437.3,975.1 441.8,972.6 454.5,977 473.2,981.8 482.2,990 494.2,989.2 
		504.9,1003.4 506.8,997.9 513.1,997.5 533,1007 529.3,1016.2 545.9,1021.1 550.2,1031.8 556.2,1032.1 564.6,1024.6 570.6,1024.2 
		588.3,1028.4 597,1035.1 608.7,1034.3 608.7,1028.6 623.9,1020.7 635.7,1018.6 651.8,1022.9 640.9,1009.4 640.3,976.5 641.1,957.9 
		651.6,937.9 656.6,932.9 666.8,925.2 679.5,925.2 692,911.6 712.6,896.8 728.3,892.3 733.8,901.5 739.5,902.8 739.8,902.8 
		766.7,903.6 770.4,908.3 769.6,913.5 776.4,915.2 794.6,913 806.7,914.7 831.4,911.8 838.7,928.4 856.9,932.9 862.1,931.2 
		862.4,931.5 874,938.2 890,938.5 901.2,941.6 907.2,936.5 921.3,933.5 931.8,931.2 936.8,926.5 944,927.2 948.2,917 941.5,914 
		953,898.8 963.2,897.4 971.4,882.9 982.1,877.9 984.1,870.1 1011.1,855.3 1012.1,841.8 1023.7,825.6 1027.5,817.4 	"/>
	<path class="st0" d="M509.1,140.8L509.1,140.8l23.6,20l6.3,15.9l-5.7,8.7L536,202l-2.7,15l6.7,15.7l-7.5,4.8l3,6l10.5,2.2l11.9-3.5
		l17.2,4.2l4.2-3l20.4,11.9l12.9,2l3.8-4.2l4.7,3l15.2-5.5l5,1.3l3.2,4.7l-1.2,5.3l7.4,7.9l17.5,11.2l14.2-19l-3-7.5l7.2-8.7
		l-6-15.2l2.3-5l14.9-7.5l10.2,3.5l1.7-5.2l4.7-27.4l9.4-13.5v-12.4l-1.5-10.7h-0.7"/>
	<path class="st0" d="M532.5,237.6l-7.4,17.7H518l-4.5,4.7l3.3,11l7,12.4l0.8,20.4l11.5,10.2l2.3,10.5l4.2,4l5.8-1.2l5.3,19.9l0,0
		l13-1.5l6.3-0.3l5.2-3.2l7,1l1.3,5.8l7.9,8l-1,5l12.2,4.2l21-5l7.4-10l0.3-10.9l28.9-5.8l-0.8-16l5.5-1.3l5.7-9.4l-4.8-3.2
		l-6.5-15.5l4.7-4.2l1-3.8"/>
	<polyline class="st0" points="954.8,426.3 955.3,426.5 946.1,417 945.3,399.9 931.1,390.6 913.6,379.4 903.9,383.6 894.7,376.7 
		884.2,379.7 871,371.7 855.8,382.6 856.3,385.2 851.9,391.3 846.6,390.6 842.7,395.1 842.1,410.8 836.4,412.6 832.2,409.3 
		819.8,416.6 808.7,419.5 803,416.6 785.8,412.8 781.4,403.8 786.6,399.3 784.8,393.6 781.4,389.3 776.6,383.4 770.6,376.4 
		764.1,375.1 764.1,375.2 756.9,374.2 748,381.6 736.5,383.2 726.8,384.4 703.2,387.4 693.9,366.9 687,359 678.7,347.7 670.3,337.3 
		663.5,334.5 	"/>
	<polyline class="st0" points="635.6,519.2 646.4,531.1 658.5,531.4 663.8,528.2 671.8,535.1 683,523.9 695.7,549.1 710.4,554.6 
		713.4,559.2 712.6,569.5 705.6,578.2 705.6,583.9 715.3,589.9 730.3,587.1 744.8,583.9 745.5,578.2 753.9,578 762.9,577.9 
		776.6,587.9 787.6,548.6 798.6,551.5 808.7,549.1 817.7,555.1 817.8,555.1 825.9,569.7 831.4,575.4 836.9,575 844.4,567 850.8,570 
		851.4,575 858.8,574.9 869,568.7 877.8,556.5 877.5,556.3 	"/>
	<path class="st0" d="M516.8,271l-11.2,13l0.5,5.2l-11.2,2.5l-15.4,3l-11.2,2l-4.5,4.8l0.3,6l8.9,8.2l-0.3,8.5l1,8.5l-14.2,9.7l2,14
		h0.2l3.8,7.2l-0.8,3.3v0.2l-0.5,8l0.7,10.4l-11.7,20l-6,1.8l-1.2,6.7l-14.4,8.4l-5.2-0.5l-10.5,1.3l-1.5,4.5l-3.2,17.4L400.5,474
		v0.2l10.2,6l6,5.5l2.5,11.4l5.2,2.7l18.9-0.8l7.4,0.2l0.3,5.8l17.4,24.6l-1.7,10.9l8.9,8.2h5.3l5,10.2l1.7,7.7l5,2l10.9-2l8.4-0.8
		l21.6-2l3.5-4.7l24.9,5l5.2-1.5l9.2,0.3l0,0l6.5-11.2l16.4-1.8l3.2-4.5l-3.2-10l4.2-3.5l15.9-5.3l9-7h7.5l2.5-16.7l0.5-11l-4.2-3.7
		l-0.5-11l-5.8-14.2l-5.2-4l3.2-10.9l-3.7-12.2l2.8-4.5l1.2-14.2l-5.7-5.3l9.9-6.2l3-4.5l-2-5.5l8.7-9.2l-0.8-10.7l-12.5-14.2"/>
	<path class="st0" d="M204.7,432.7l28.9-8.5l0.7-11.2l9.9-6.3l24.6-0.8l3-5.3l16.9-7.4l13.7,2.7l6.7-16.2l10.4-4.2l-3.5-32.6
		l2.8-4.3l0.2-22.7l-10.2-4.3l-13.4,8.9l-5-1.7l-8.9-17.9"/>
	<path class="st0" d="M464.7,367.2V367l0.8-3.3l-3.8-7.2h-0.2l-5.8-1.3l-6-6.5l-5.3,1.8l-13.5-9.4l-3-15.7l-5.2-2.8L402,333.5
		l-5.7-0.2l-6-8.4l-3.7-11.4l-5.2-0.5l-1.3,5.2h-17l-17.4,3l-10.7-4l-16.2-1.5"/>
	<polyline class="st0" points="400.5,474.1 383.8,481 365.6,481.3 355.1,482.8 348.2,491.8 325.2,493.3 329.4,504 337.4,511.7 
		346.2,545.3 345.7,559.3 333.4,571.3 329,568 319.3,563 302.8,569.5 	"/>
	<path class="st0" d="M557.9,729.6l6.2-3.7l3-8.4l0.5-6.3l1-7.9l14.2-17.9l1.2-6.5l11.7,3.8l-3.7-26.1l3.3-4.7l-2.3-10.4l-8.4-10.4
		l17.5-16.2l-4.3-12.7l1-7.7l-6.8-15.5c-4.5-3.2-9.2-6.2-13.9-9.2l-2-7.4"/>
	<path class="st0" d="M739.5,902.8h0.3l7.2-11l10.9-3.3l-1.8-5.2l7.9-9l6.2,1.7l3.5-19.9l15.9-17l-11.9-12l-0.3-10.2l-4.8-8.5
		l-11.4-6.3h-5.2l-5-1.7l-13.2,8.2l-14.5-9.4l-13.2-26.7l-3.8-17l-16.9-14.4l-5.3-0.5l-0.3,5.3l-12-2.3l-2.8-10.7l-4.2-3.2
		l-17.9,8.4l-21.4,11.5l-2.3-7.9l-9.9-7.5l-8.9,8l-5.7,16.9l-7.2,9.2l-11.9-3l-9.7,6l-6.2-9.4l3.3-10.7l-7.2-11.4l-1.8-10.2
		l-12.7-0.3l-9.9,5l-12.7-11.4l-15,1.3l-1.3,9.5l-2.7,10l-8.5,6l1.3,6.7l-11.4,6.3l-8.9,12l-6.3,6l5,17l-14,3.7v5.5l4.5,2.7
		l-8.4,10.2l-2.8,4.7l-6.7,8.9l-5,2.5l-16-1.8l-9.5,5.3l-18.2,3.3l-12.2,6.8l-18.7-0.5l0.8,11.9l-8,20.9l3,5l12.4,0.7l0,0l4.7,10.9
		l2.7,5.2l1,13.7l-3.5,8.4l-15.2,17.4l-5.5,7l-3,5.3l-2.3,16v0.2"/>
	<path class="st0" d="M930.9,704.8L930.9,704.8l-11.4,2.2l-18.4-2.8l-2.8,7.2l3.2,7.9l8.2,5.8l-6.3,8.9l-23.7,7.2l-1.7,5.3
		l-10.4,2.3l-1.8,5.7l-0.7,6.3l-10.7,0.7l-4.7,12.7l-6.8,6.2l-6.2,9.5l2.8,5l18.7,10.7l-0.3,8.9l-1.8,0.3l-4.3,0.2l-8,9l-9.9-4.3
		l-0.2-5.3l-17.5-1.5l-5.5-6.7l-4.5-2.7l-16.4,7.4l-6.7-8l-10.9-1.3l0.2,6.8"/>
</g>
</svg>
