<svg xmlns="http://www.w3.org/2000/svg" x="" y="0" viewBox="30 0 1060 1060" style="enable-background:new 0 0 1060 1060" xml:space="preserve"><style>.st0{fill:none;stroke:#fff;stroke-miterlimit:10}</style><path class="st0" d="m1020 807.6-22.2 7.8-17.2-9.2-11.9-2.3-11.5-13.9-.4-.1 3.7-9.4-7.3-10.2 4.1-3.3 2.5-11.2v-.2l.4-.3 3.3-4 6.7.1-7-17.5-11.4-.5-9.8-6.2-1.5-12.3-5.2-.2-4.4-9.9v-.1l36.3-15.6 3.7-6.8-2.2-4.9 5.2-9.7-13.7-9.6-4.2-10.2 1.3-5.9-10.5-4.3-5.3-5-.9-6.1.2-.1 15.5-15.2 1.9-5.9-6.4-8.5-14.5-13.9 4.2-11.5-6.9-10.2 1-5.3-6.3-1.4-15.9 1.2-9.5 7.9-6.4-2.7-13.2-.8-6.5-3.7-.3-.2 6.7-22.7 22-20.2-1.5-18.2 16.1-11.2 22-27.1-.5-5.3 4.3-4-8-6.7 1.9-5.5 7-8.1 7.3-1 .5.2 3.5 6.7H973l11.4-7.9.3-5.8 4.2-3.7-5.3-14.5 5-28.9-3.7-19.4 11.2-26.2 2.8-29.4 19.6-25.6 7.3-20-15.8-5.7-27.8-1-15.7-14.1-11.7 7.9-13-2.3-4.8 2.3-4.2-7.4-5.7-2.6-5.2 3-.5 5.5-5.2-1.3-15-17.2L898 208l-5.6-3.9-20.8-4.8-8.3 6.5-5.2.2-9.7-4.4-6.7-5.5h-12.8l-2.4 5.2-10.5 1.3-6.5-13.5-5.9.5v-5.8l-11.3-2.9-12.7-11.2-11 .4 1.6-12.2-5.3-10.7v-7.7l5-9.7-5-2.8-7.9 8-3.1 12-16.4 7.4-10-3.2-5.4 1.2h-.6l-6.9-2.2 6.2-11.9-5.7-9.8-1.3-11.1-7.7-9.1-11.4 2-10.2-2.4-8.2-13.3-10.1-2.5-7.6-1-6-2.1-5.7-15.8.9-5.7-7.4-8.2-11 .8-10.4 7.2-5.5-2.3-5.3-9.9H602l-2.5-5 2-10.7-4.8-11.3-5.2-3.2-30.6 7.7-25.7 8-10.9 9.4v33.7l.4 3.3-1.4 11.1.9 7.2-2.7 5.6-.7 5.7.5 7.5-12.2 16.7-.3.5-20.4 14.2-41.4 10.4-26.8 14.4-10.8 23.7 3.2 4.2.8 8-9 7.8-18.2 5.2-15.9-6.7-23.4-2.6-17.9-6.2-10 4.3-12-19.7 4.7-14.7-2.1-5.2-12.1-1.3-4.7 3.3-12.2.9-21.4-8.7-.3 5.3 6.1 3.4 1 9.2-3.6 3.8 4.8 19 15.9 17.2-2.5 18.9 3.7 5.4-1 11.2-4.2 10.7 7.8 17.5-5.5 6.5h-21.7l.5-10.5-6 1.3-7.5 7.2-8.2 2.2-7.7.6-1.8-5.8-7.7-2.2-6.7.5-20.2 16.7-1.7-6.8-7.5-4.9-.2-5.8-8.5-14.7-5.5-1.2-4.5-4.7-10.5-7.5-16.6 6.9-2.7-4.5-8.5 6.8-.6 11.5-6.1 1-9.1-5.6-5.4 1.1-8.5-4.8-27.1 8.2-2.8-5L49.5 291l-10.8.9-3.5 4.5-2.7 16.8 3.3 4.4 5.2-2.2 4.9 2.4-.9 8.8 4.5 9.9 3.4-5.2 5.2.5 10.1 5.8 1.7 6-3 4.7-4.5-2.5-23.7 2.4-2.9 4.6 17.9 6.7 7 11.7-2 10.4 13.7 1.1 6.9-7.8v-.7l5.5 3.7 8.7-3.2 8.8 11.2 5.4-1.2.6-.1v.1l4.9-1.8-1.2 5.3 5.4 1.2 7.1-2.8 1.7 8.7 4.7 3 5.2-2.7 4.5 4.8 6.8 2.9.4.2.6 5.1 4 5.4.4 5.8 5-4.5 6-1.3 4.5 3.3 1.7 2.2 9 7 23.2-1.8-.5 3.1 3 4.9-8.3 8.2 4.5 11.5 11.4 2 3.8 3.7 9.2-6.9.8 3.7-1.2 12.5 5.6 6.4 9 9.3-14.7 15.6.8 8.3 19.6 22.9 3.8 13.2 15.2 12.7 9 2 2.9 6.7 11.3 2.2 8.7 7.2 1.4-5.2 5.3.8-8.5 18.1 5.5 1.6 7.7 15.1-2.2 10.8-5.5 10.9-8.9 6 2.4 8.2 14.7 9.2 19.5 20.8 4 14.1v.1l-7.7-3.3-20-19.7-1.8-5.2-5.5 10.7-11.6 94.2-1.8 11.6.2 8.8-20.6 93.9-7.2 13.4h-.1l-8.6 11.8-11.8 8.7 10.8 5 5.2 2 12.4 2.5 2.6 5.4-3.5 11-4.8 4.3 2.3 5.4 7.4 1.8 6.8-2.1 11.1 5.8 18 7 11.9-.6 4.8 8.8 14.7 12 4.4-3 4.3 2.7 11.2-5.8.2.1 21 18.7 22.9-3.1 4.7 4 18.5-.4 11.7.7 4.4-4.2-.7-12.2 4.5-2.5 12.7 4.4 18.7 4.8 9 8.2 12-.8 10.7 14.2 1.9-5.5 6.3-.4 19.9 9.5-3.7 9.2 16.6 4.9 4.3 10.7 6 .3 8.4-7.5 6-.4 17.7 4.2 8.7 6.7 11.7-.8v-5.7l15.2-7.9 11.8-2.1 16.1 4.3-10.9-13.5-.6-32.9.8-18.6 10.5-20 5-5 10.2-7.7h12.7l12.5-13.6 20.6-14.8 15.7-4.5 5.5 9.2 5.7 1.3h.3l26.9.8 3.7 4.7-.8 5.2 6.8 1.7 18.2-2.2 12.1 1.7 24.7-2.9 7.3 16.6 18.2 4.5 5.2-1.7.3.3 11.6 6.7 16 .3 11.2 3.1 6-5.1 14.1-3 10.5-2.3 5-4.7 7.2.7 4.2-10.2-6.7-3 11.5-15.2 10.2-1.4 8.2-14.5 10.7-5 2-7.8 27-14.8 1-13.5 11.6-16.2 3.8-8.2z"/><path class="st0" d="m509.1 140.8 23.6 20 6.3 15.9-5.7 8.7L536 202l-2.7 15 6.7 15.7-7.5 4.8 3 6 10.5 2.2 11.9-3.5 17.2 4.2 4.2-3 20.4 11.9 12.9 2 3.8-4.2 4.7 3 15.2-5.5 5 1.3 3.2 4.7-1.2 5.3 7.4 7.9 17.5 11.2 14.2-19-3-7.5 7.2-8.7-6-15.2 2.3-5 14.9-7.5 10.2 3.5 1.7-5.2 4.7-27.4 9.4-13.5v-12.4l-1.5-10.7h-.7"/><path class="st0" d="m532.5 237.6-7.4 17.7H518l-4.5 4.7 3.3 11 7 12.4.8 20.4 11.5 10.2 2.3 10.5 4.2 4 5.8-1.2 5.3 19.9 13-1.5 6.3-.3 5.2-3.2 7 1 1.3 5.8 7.9 8-1 5 12.2 4.2 21-5 7.4-10 .3-10.9 28.9-5.8-.8-16 5.5-1.3 5.7-9.4-4.8-3.2-6.5-15.5 4.7-4.2 1-3.8m286.8 145.2.5.2-9.2-9.5-.8-17.1-14.2-9.3-17.5-11.2-9.7 4.2-9.2-6.9-10.5 3-13.2-8-15.2 10.9.5 2.6-4.4 6.1-5.3-.7-3.9 4.5-.6 15.7-5.7 1.8-4.2-3.3-12.4 7.3-11.1 2.9-5.7-2.9-17.2-3.8-4.4-9 5.2-4.5-1.8-5.7-3.4-4.3-4.8-5.9-6-7-6.5-1.3v.1l-7.2-1-8.9 7.4-11.5 1.6-9.7 1.2-23.6 3-9.3-20.5-6.9-7.9-8.3-11.3-8.4-10.4-6.8-2.8m-27.9 184.7 10.8 11.9 12.1.3 5.3-3.2 8 6.9 11.2-11.2 12.7 25.2 14.7 5.5 3 4.6-.8 10.3-7 8.7v5.7l9.7 6 15-2.8 14.5-3.2.7-5.7 8.4-.2 9-.1 13.7 10 11-39.3 11 2.9 10.1-2.4 9 6h.1l8.1 14.6 5.5 5.7 5.5-.4 7.5-8 6.4 3 .6 5 7.4-.1 10.2-6.2 8.8-12.2-.3-.2"/><path class="st0" d="m516.8 271-11.2 13 .5 5.2-11.2 2.5-15.4 3-11.2 2-4.5 4.8.3 6 8.9 8.2-.3 8.5 1 8.5-14.2 9.7 2 14h.2l3.8 7.2-.8 3.3v.2l-.5 8 .7 10.4-11.7 20-6 1.8-1.2 6.7-14.4 8.4-5.2-.5-10.5 1.3-1.5 4.5-3.2 17.4-10.7 28.9v.2l10.2 6 6 5.5 2.5 11.4 5.2 2.7 18.9-.8 7.4.2.3 5.8 17.4 24.6-1.7 10.9 8.9 8.2h5.3l5 10.2 1.7 7.7 5 2 10.9-2 8.4-.8 21.6-2 3.5-4.7 24.9 5 5.2-1.5 9.2.3 6.5-11.2 16.4-1.8 3.2-4.5-3.2-10 4.2-3.5 15.9-5.3 9-7h7.5l2.5-16.7.5-11-4.2-3.7-.5-11-5.8-14.2-5.2-4 3.2-10.9-3.7-12.2 2.8-4.5 1.2-14.2-5.7-5.3 9.9-6.2 3-4.5-2-5.5 8.7-9.2-.8-10.7-12.5-14.2m-422.5 71.1 28.9-8.5.7-11.2 9.9-6.3 24.6-.8 3-5.3 16.9-7.4 13.7 2.7 6.7-16.2 10.4-4.2-3.5-32.6 2.8-4.3.2-22.7-10.2-4.3-13.4 8.9-5-1.7-8.9-17.9"/><path class="st0" d="M464.7 367.2v-.2l.8-3.3-3.8-7.2h-.2l-5.8-1.3-6-6.5-5.3 1.8-13.5-9.4-3-15.7-5.2-2.8-20.7 10.9-5.7-.2-6-8.4-3.7-11.4-5.2-.5-1.3 5.2h-17l-17.4 3-10.7-4-16.2-1.5m81.7 158.4-16.7 6.9-18.2.3-10.5 1.5-6.9 9-23 1.5 4.2 10.7 8 7.7 8.8 33.6-.5 14-12.3 12-4.4-3.3-9.7-5-16.5 6.5m255.1 160.1 6.2-3.7 3-8.4.5-6.3 1-7.9 14.2-17.9 1.2-6.5 11.7 3.8-3.7-26.1 3.3-4.7-2.3-10.4-8.4-10.4 17.5-16.2-4.3-12.7 1-7.7L592 579c-4.5-3.2-9.2-6.2-13.9-9.2l-2-7.4"/><path class="st0" d="M739.5 902.8h.3l7.2-11 10.9-3.3-1.8-5.2 7.9-9 6.2 1.7 3.5-19.9 15.9-17-11.9-12-.3-10.2-4.8-8.5-11.4-6.3H756l-5-1.7-13.2 8.2-14.5-9.4-13.2-26.7-3.8-17-16.9-14.4-5.3-.5-.3 5.3-12-2.3-2.8-10.7-4.2-3.2-17.9 8.4-21.4 11.5-2.3-7.9-9.9-7.5-8.9 8-5.7 16.9-7.2 9.2-11.9-3-9.7 6-6.2-9.4 3.3-10.7-7.2-11.4-1.8-10.2-12.7-.3-9.9 5-12.7-11.4-15 1.3-1.3 9.5-2.7 10-8.5 6 1.3 6.7-11.4 6.3-8.9 12-6.3 6 5 17-14 3.7v5.5l4.5 2.7-8.4 10.2-2.8 4.7-6.7 8.9-5 2.5-16-1.8-9.5 5.3-18.2 3.3-12.2 6.8-18.7-.5.8 11.9-8 20.9 3 5 12.4.7 4.7 10.9 2.7 5.2 1 13.7-3.5 8.4-15.2 17.4-5.5 7-3 5.3-2.3 16v.2"/><path class="st0" d="m930.9 704.8-11.4 2.2-18.4-2.8-2.8 7.2 3.2 7.9 8.2 5.8-6.3 8.9-23.7 7.2-1.7 5.3-10.4 2.3-1.8 5.7-.7 6.3-10.7.7-4.7 12.7-6.8 6.2-6.2 9.5 2.8 5 18.7 10.7-.3 8.9-1.8.3-4.3.2-8 9-9.9-4.3-.2-5.3-17.5-1.5-5.5-6.7-4.5-2.7-16.4 7.4-6.7-8-10.9-1.3.2 6.8"/></svg>
