<svg id="conseillerNumFranceServices" width="40" height="40" viewBox="0 0 40 40" fill="none" xmlns="http://www.w3.org/2000/svg">
<g clip-path="url(#clip0_5970_70992)">
<path d="M5.78257 12L1 14.8251V20.4742L5.52714 28.4667H6.03799L10.5662 20.4742V14.8251L5.78257 12Z" fill="#E1000F"/>
<path d="M7.15065 16.8423H8.96314V15.772L5.7826 13.8928L2.60205 15.772V19.5284L5.7826 21.4066L8.96314 19.5284V18.4571H7.15065V16.8423Z" fill="white"/>
<path d="M7.15061 18.4571V16.8423L5.78256 16.0344L4.41553 16.8423V18.4571L5.78256 19.265L7.15061 18.4571Z" fill="#000091"/>
<path d="M16.2754 14.7395L16.7403 15.1043C16.5981 15.2982 16.4126 15.4545 16.1993 15.5601C15.986 15.6658 15.7511 15.7177 15.5143 15.7115C15.2556 15.7076 15.0022 15.6367 14.7775 15.5055C14.5529 15.3744 14.3643 15.1871 14.2294 14.9614C14.0946 14.7356 14.0178 14.4785 14.0062 14.2142C13.9946 13.9498 14.0486 13.6868 14.1632 13.4495C14.2777 13.2123 14.4491 13.0086 14.6614 12.8574C14.8737 12.7062 15.1199 12.6124 15.3772 12.5847C15.6344 12.5571 15.8944 12.5966 16.1327 12.6994C16.371 12.8022 16.5801 12.9651 16.7403 13.1728L16.2754 13.5428C16.1913 13.4161 16.0779 13.3126 15.9453 13.2415C15.8127 13.1703 15.665 13.1338 15.5153 13.1352C14.9676 13.1352 14.5774 13.572 14.5774 14.1406C14.5774 14.7092 14.9676 15.1471 15.5153 15.1471C15.665 15.1484 15.8127 15.1119 15.9453 15.0408C16.0779 14.9697 16.1913 14.8662 16.2754 14.7395Z" fill="black"/>
<path d="M20.0362 14.1383C20.0382 14.451 19.9494 14.7572 19.7811 15.0182C19.6127 15.2791 19.3723 15.4831 19.0905 15.604C18.8086 15.725 18.498 15.7577 18.198 15.6978C17.898 15.6379 17.6222 15.4882 17.4055 15.2677C17.1888 15.0472 17.041 14.7658 16.9809 14.4593C16.9207 14.1527 16.951 13.8348 17.0678 13.5458C17.1845 13.2569 17.3826 13.0099 17.6368 12.8363C17.891 12.6627 18.1898 12.5702 18.4955 12.5706C18.6983 12.5663 18.8998 12.6039 19.0881 12.6811C19.2763 12.7583 19.4475 12.8735 19.5913 13.0198C19.735 13.1661 19.8486 13.3406 19.925 13.5328C20.0015 13.7249 20.0393 13.9309 20.0362 14.1383ZM19.4293 14.1383C19.4293 13.5698 19.0401 13.1329 18.4955 13.1329C17.9509 13.1329 17.5576 13.5698 17.5576 14.1383C17.5576 14.7069 17.9479 15.1448 18.4955 15.1448C19.0431 15.1448 19.4293 14.708 19.4293 14.1383ZM20.546 12.649H21.3021L22.6007 14.7759V12.649H23.1943V15.6246H22.4392L21.1356 13.4851V15.6246H20.546V12.649ZM24.1199 14.8093C24.1929 14.9164 24.2888 15.0051 24.4004 15.0685C24.5119 15.1319 24.6362 15.1683 24.7636 15.1751C24.9955 15.1751 25.1365 15.0476 25.1365 14.8313C25.1365 14.3003 23.8083 14.4195 23.8083 13.4297C23.8083 12.9583 24.1853 12.5674 24.737 12.5674C24.9335 12.5655 25.1278 12.6097 25.305 12.6967C25.4821 12.7836 25.6374 12.9111 25.7587 13.0691L25.3266 13.4632C25.157 13.2384 24.9659 13.0942 24.7462 13.0942C24.7036 13.09 24.6605 13.0949 24.6198 13.1088C24.5792 13.1226 24.5418 13.1451 24.5101 13.1746C24.4784 13.2042 24.4531 13.2402 24.4359 13.2803C24.4187 13.3205 24.4099 13.3639 24.4101 13.4078C24.4101 13.9377 25.7383 13.8154 25.7383 14.8208C25.7301 15.3737 25.3072 15.7124 24.7759 15.7124C24.5706 15.7221 24.3659 15.6822 24.1785 15.596C23.991 15.5097 23.8261 15.3795 23.697 15.2159L24.1199 14.8093ZM26.3033 12.649H27.9963V13.1716H26.8928V13.8593H27.8307V14.3735H26.8928V15.1166H27.9963V15.6298H26.3033V12.649ZM28.6277 12.649H29.2223V15.6246H28.6328L28.6277 12.649ZM29.9814 12.649H30.5709V15.0769H31.6744V15.6246H29.9814V12.649ZM32.1433 12.649H32.7329V15.0769H33.8373V15.6246H32.1433V12.649ZM34.3063 12.649H35.9992V13.1716H34.8958V13.8593H35.8337V14.3735H34.8958V15.1166H35.9992V15.6298H34.3063V12.649ZM36.6306 12.649H37.5185C38.1581 12.649 38.5524 12.9834 38.5524 13.5363C38.5585 13.6971 38.5174 13.8561 38.4346 13.993C38.3518 14.1298 38.231 14.2383 38.0876 14.3045L39.001 15.6204H38.295L37.5226 14.4258H37.2161V15.6246H36.6265L36.6306 12.649ZM37.2202 13.1716V13.9147H37.5522C37.8015 13.9147 37.9466 13.7788 37.9466 13.5363C37.9466 13.3116 37.8015 13.1716 37.5522 13.1716H37.2202ZM14.0133 16.9342H14.7683L16.0679 19.0611V16.9342H16.6554V19.9066H15.9004L14.6028 17.7703V19.9066H14.0133V16.9342ZM19.1014 16.9342H19.6909V18.7423C19.6909 19.5241 19.2424 19.9965 18.5118 19.9965C17.7813 19.9965 17.3379 19.5293 17.3379 18.7423V16.9342H17.9274V18.7935C17.9274 19.1928 18.1471 19.4269 18.517 19.4269C18.8868 19.4269 19.1014 19.1928 19.1014 18.7935V16.9342ZM20.3724 16.9342H21.1151L21.816 18.157L22.5179 16.9342H23.2607V19.9066H22.6712V17.7943L22.0234 18.8907H21.6086L20.9609 17.7943V19.9098H20.3724V16.9342ZM24.0208 16.9342H25.7138V17.4473H24.6093V18.1351H25.5442V18.6493H24.6063V19.3924H25.7107V19.9066H24.0208V16.9342ZM24.593 16.6791L25.0619 16.1064H25.6678L25.1284 16.6791H24.593ZM26.3493 16.9342H27.2371C27.8767 16.9342 28.2711 17.2697 28.2711 17.8215C28.2772 17.9825 28.236 18.1416 28.153 18.2785C28.07 18.4154 27.9489 18.5238 27.8052 18.5897L28.7186 19.9066H28.0136L27.2412 18.711H26.9347V19.9129H26.3452L26.3493 16.9342ZM26.9388 17.4473V18.1905H27.2709C27.5191 18.1905 27.6642 18.0546 27.6642 17.8132C27.6642 17.5884 27.5191 17.4473 27.2709 17.4473H26.9388ZM29.0343 16.9342H29.6238V19.9066H29.0343V16.9342ZM33.4337 20.1178C33.5033 20.1187 33.5725 20.107 33.6381 20.0833V20.5923C33.5406 20.6315 33.4363 20.65 33.3316 20.6466C32.9917 20.6363 32.6677 20.4974 32.4223 20.2568L32.0779 19.9432C31.7687 20.0268 31.4417 20.0092 31.1427 19.8931C30.8437 19.777 30.5877 19.5681 30.4106 19.2957C30.2335 19.0233 30.1441 18.701 30.155 18.3741C30.1659 18.0471 30.2765 17.7318 30.4713 17.4723C30.6662 17.2129 30.9355 17.0223 31.2415 16.9273C31.5475 16.8322 31.8749 16.8375 32.1779 16.9424C32.4808 17.0473 32.7441 17.2464 32.9308 17.5121C33.1176 17.7777 33.2184 18.0964 33.2192 18.4235C33.2217 18.6611 33.1714 18.8961 33.0721 19.1108C32.9728 19.3256 32.8271 19.5144 32.646 19.6631L32.8207 19.8324C33.0475 20.0404 33.2478 20.1178 33.4337 20.1178ZM32.6164 18.4235C32.6164 17.8539 32.2261 17.417 31.6825 17.417C31.139 17.417 30.7446 17.8539 30.7446 18.4235C30.7446 18.9932 31.1349 19.43 31.6825 19.43C32.2302 19.43 32.6164 18.9921 32.6164 18.4235ZM35.4138 16.9342H36.0033V18.7423C36.0033 19.5241 35.5548 19.9965 34.8243 19.9965C34.0938 19.9965 33.6503 19.5293 33.6503 18.7423V16.9342H34.2399V18.7935C34.2399 19.1928 34.4595 19.4269 34.8294 19.4269C35.1992 19.4269 35.4138 19.1928 35.4138 18.7935V16.9342ZM36.6807 16.9342H38.3737V17.4473H37.2702V18.1351H38.2132V18.6493H37.2753V19.3924H38.3788V19.9066H36.6807V16.9342Z" fill="black"/>
<path d="M14.0276 21.3762H15.7206V21.8904H14.6121V22.5782H15.55V23.0913H14.6121V24.3456H14.0236L14.0276 21.3762ZM16.0772 22.2082H16.6044V22.4172C16.6742 22.338 16.7595 22.2745 16.8546 22.2307C16.9498 22.187 17.0528 22.164 17.1571 22.1632C17.2189 22.163 17.2803 22.1729 17.339 22.1925V22.7579C17.2633 22.7372 17.1853 22.727 17.107 22.7276C17.0071 22.7252 16.9082 22.7494 16.8201 22.7978C16.732 22.8461 16.6577 22.917 16.6044 23.0036V24.3456H16.0772V22.2082ZM17.5637 23.7843C17.5637 23.4572 17.8089 23.2063 18.2605 23.13L18.8919 23.0192V22.9638C18.8919 22.7391 18.7254 22.5949 18.4894 22.5949C18.396 22.5904 18.3032 22.6117 18.2207 22.6565C18.1382 22.7014 18.069 22.7682 18.0204 22.8499L17.6302 22.5479C17.7322 22.4105 17.865 22.3003 18.0174 22.2265C18.1698 22.1526 18.3372 22.1173 18.5057 22.1235C19.1116 22.1235 19.4253 22.4925 19.4253 22.9597V24.3445H18.894V24.1459C18.8161 24.236 18.7203 24.308 18.613 24.357C18.5057 24.406 18.3893 24.431 18.2718 24.4302C17.8498 24.4333 17.5637 24.1867 17.5637 23.7843ZM18.3811 24.0006C18.4846 24.0003 18.5863 23.9723 18.6759 23.9193C18.7655 23.8663 18.84 23.7902 18.8919 23.6986V23.4059L18.3974 23.4948C18.1737 23.5335 18.0909 23.6265 18.0909 23.7623C18.0909 23.8982 18.1982 24.0006 18.377 24.0006H18.3811ZM19.9341 22.2082H20.4603V22.3785C20.5414 22.2957 20.6381 22.2304 20.7445 22.1866C20.8508 22.1428 20.9648 22.1213 21.0794 22.1235C21.532 22.1235 21.8968 22.4371 21.8968 23.0746V24.3487H21.3553V23.1008C21.3553 22.8165 21.202 22.6388 20.9466 22.6388C20.8453 22.641 20.7466 22.6713 20.6609 22.7265C20.5752 22.7818 20.5059 22.8598 20.4603 22.9523V24.3497H19.9341V22.2082ZM23.8686 23.6735L24.2875 24.0006C24.1841 24.139 24.05 24.2503 23.8964 24.3255C23.7428 24.4007 23.574 24.4377 23.4038 24.4333C22.6814 24.4333 22.2503 23.9024 22.2503 23.2784C22.2503 22.6545 22.6814 22.1287 23.4038 22.1287C23.574 22.1247 23.7427 22.1617 23.8963 22.2369C24.0498 22.3121 24.1839 22.4233 24.2875 22.5614L23.8686 22.8886C23.8167 22.8096 23.7461 22.7453 23.6634 22.7016C23.5808 22.6579 23.4886 22.6363 23.3956 22.6388C23.2326 22.6465 23.0789 22.7184 22.9667 22.8395C22.8544 22.9605 22.7923 23.1213 22.7933 23.2882C22.7944 23.4551 22.8585 23.615 22.9723 23.7346C23.0861 23.8542 23.2407 23.924 23.4038 23.9296C23.4959 23.9298 23.5867 23.9064 23.6679 23.8617C23.7491 23.817 23.818 23.7523 23.8686 23.6735ZM25.6035 24.4333C24.8607 24.4333 24.4418 23.9024 24.4418 23.2784C24.4418 22.6545 24.8311 22.1287 25.5166 22.1287C26.097 22.1287 26.4791 22.528 26.4791 23.0882C26.4789 23.1912 26.4679 23.2939 26.4464 23.3944H24.9813C25.014 23.7467 25.2551 23.9547 25.6117 23.9547C25.7129 23.9576 25.8135 23.936 25.9051 23.8917C25.9967 23.8474 26.0768 23.7816 26.1389 23.6996L26.5169 24.0059C26.4082 24.1456 26.2689 24.2571 26.1102 24.3314C25.9515 24.4057 25.7779 24.4406 25.6035 24.4333ZM25.014 22.9816H25.9529C25.9517 22.9248 25.9392 22.8689 25.9161 22.8173C25.8931 22.7656 25.86 22.7193 25.8189 22.6812C25.7778 22.6431 25.7295 22.6139 25.677 22.5955C25.6245 22.577 25.5689 22.5697 25.5136 22.574C25.3957 22.5664 25.2793 22.604 25.187 22.6793C25.0947 22.7546 25.033 22.8624 25.014 22.9816Z" fill="#000091"/>
<path d="M14.2034 27.595C14.3321 27.7601 14.4854 27.8793 14.6846 27.8793C14.8511 27.8793 14.9421 27.7852 14.9421 27.6588C14.9421 27.2846 13.9674 27.4414 13.9674 26.669C13.9674 26.2906 14.2739 26.0105 14.7101 26.0105C14.8567 26.0086 15.0018 26.0404 15.1346 26.1038C15.2675 26.1671 15.3847 26.2603 15.4774 26.3763L15.1229 26.6941C15.0775 26.6241 15.0171 26.5655 14.9463 26.523C14.8755 26.4804 14.7961 26.4549 14.7142 26.4484C14.5559 26.4484 14.4731 26.5247 14.4731 26.6439C14.4731 27.0087 15.4488 26.8602 15.4488 27.6201C15.4407 28.0706 15.0871 28.3162 14.6938 28.3162C14.5337 28.321 14.3746 28.2878 14.2291 28.2193C14.0836 28.1508 13.9555 28.0487 13.855 27.9211L14.2034 27.595ZM16.8598 28.3162C16.117 28.3162 15.6981 27.7852 15.6981 27.1613C15.6981 26.5373 16.0874 26.0116 16.7729 26.0116C17.3533 26.0116 17.7354 26.4108 17.7354 26.971C17.7352 27.074 17.7242 27.1767 17.7027 27.2773H16.2355C16.2682 27.6295 16.5094 27.8375 16.8659 27.8375C16.9672 27.8404 17.0678 27.8189 17.1594 27.7746C17.251 27.7302 17.3311 27.6644 17.3931 27.5825L17.7711 27.8887C17.6627 28.0281 17.5237 28.1395 17.3654 28.2137C17.207 28.288 17.0338 28.3231 16.8598 28.3162ZM16.2682 26.8634H17.2102C17.209 26.8066 17.1965 26.7507 17.1734 26.6991C17.1504 26.6474 17.1173 26.6011 17.0762 26.563C17.0351 26.5248 16.9868 26.4957 16.9343 26.4772C16.8819 26.4588 16.8262 26.4515 16.7709 26.4558C16.6525 26.4474 16.5354 26.4846 16.4424 26.56C16.3494 26.6354 16.2873 26.7436 16.2682 26.8634ZM18.1573 26.091H18.6845V26.3C18.7542 26.2207 18.8392 26.157 18.9342 26.1131C19.0292 26.0692 19.132 26.046 19.2363 26.045C19.2983 26.0449 19.3601 26.0548 19.4191 26.0743V26.6397C19.3432 26.6189 19.2648 26.6087 19.1862 26.6094C19.0864 26.6069 18.9876 26.631 18.8996 26.6794C18.8117 26.7278 18.7376 26.7987 18.6845 26.8853V28.2273H18.1573V26.091ZM20.0659 26.091L20.6104 27.6201L21.1509 26.091H21.719L20.9558 28.2315H20.262L19.5029 26.091H20.0659ZM21.8804 25.3657C21.8815 25.2726 21.9181 25.1836 21.9824 25.1178C22.0468 25.052 22.1337 25.0145 22.2247 25.0134C22.316 25.0134 22.4036 25.0505 22.4682 25.1166C22.5328 25.1826 22.569 25.2722 22.569 25.3657C22.569 25.4591 22.5328 25.5487 22.4682 25.6147C22.4036 25.6808 22.316 25.7179 22.2247 25.7179C22.1337 25.7168 22.0468 25.6793 21.9824 25.6135C21.9181 25.5477 21.8815 25.4587 21.8804 25.3657ZM21.9591 26.091H22.4863V28.2315H21.9591V26.091ZM24.4949 27.5563L24.9138 27.8835C24.8104 28.0219 24.6764 28.1333 24.5228 28.2085C24.3692 28.2837 24.2003 28.3206 24.0301 28.3162C23.3077 28.3162 22.8766 27.7852 22.8766 27.1613C22.8766 26.5373 23.3077 26.0116 24.0301 26.0116C24.2004 26.0073 24.3693 26.0445 24.5229 26.1198C24.6765 26.1952 24.8105 26.3068 24.9138 26.4453L24.4949 26.7714C24.4432 26.6923 24.3726 26.6278 24.2899 26.5842C24.2072 26.5405 24.115 26.5189 24.0219 26.5216C23.8589 26.5293 23.7052 26.6012 23.593 26.7223C23.4807 26.8433 23.4186 27.0042 23.4196 27.171C23.4207 27.3379 23.4848 27.4979 23.5986 27.6174C23.7124 27.737 23.867 27.8069 24.0301 27.8124C24.1223 27.8128 24.2131 27.7895 24.2943 27.7448C24.3755 27.7001 24.4445 27.6353 24.4949 27.5563ZM26.2298 28.3162C25.487 28.3162 25.0681 27.7852 25.0681 27.1613C25.0681 26.5373 25.4584 26.0116 26.1429 26.0116C26.7243 26.0116 27.1054 26.4108 27.1054 26.971C27.1052 27.074 27.0942 27.1767 27.0727 27.2773H25.6076C25.6413 27.6295 25.8814 27.8375 26.238 27.8375C26.3393 27.8405 26.4398 27.819 26.5315 27.7747C26.6231 27.7303 26.7032 27.6645 26.7652 27.5825L27.1432 27.8887C27.0345 28.0284 26.8952 28.1399 26.7365 28.2142C26.5778 28.2885 26.4042 28.3234 26.2298 28.3162ZM25.6464 26.8634H26.5884C26.5872 26.8065 26.5746 26.7505 26.5515 26.6988C26.5284 26.6471 26.4952 26.6007 26.454 26.5626C26.4128 26.5244 26.3644 26.4953 26.3118 26.4769C26.2592 26.4585 26.2035 26.4513 26.148 26.4558C26.0298 26.4474 25.9128 26.4846 25.82 26.5601C25.7271 26.6355 25.6652 26.7437 25.6464 26.8634ZM27.6898 27.595C27.8185 27.7601 27.9728 27.8793 28.172 27.8793C28.3375 27.8793 28.4285 27.7852 28.4285 27.6588C28.4285 27.2846 27.4538 27.4414 27.4538 26.669C27.4538 26.2906 27.7654 26.0105 28.1965 26.0105C28.3432 26.0086 28.4885 26.0405 28.6215 26.1038C28.7545 26.1672 28.8718 26.2603 28.9649 26.3763L28.6093 26.6941C28.5641 26.6238 28.5038 26.5652 28.4329 26.5226C28.3621 26.48 28.2826 26.4546 28.2006 26.4484C28.0433 26.4484 27.9595 26.5247 27.9595 26.6439C27.9595 27.0087 28.9352 26.8602 28.9352 27.6201C28.9271 28.0706 28.5746 28.3162 28.1802 28.3162C28.0201 28.321 27.861 28.2878 27.7155 28.2193C27.57 28.1508 27.4419 28.0487 27.3414 27.9211L27.6898 27.595Z" fill="#E1000F"/>
</g>
<defs>
<clipPath id="clip0_5970_70992">
<rect width="38" height="16.4667" fill="white" transform="translate(1 12)"/>
</clipPath>
</defs>
</svg>