<svg id="conseillerNumFranceServices" xmlns="http://www.w3.org/2000/svg" viewBox="0 0 371.93 157.55"><defs></defs><path fill="#e1000f" d="M46.81 0 0 27.03v54.05l44.31 76.47h5l44.32-76.47V27.03L46.81 0z"/><path style="fill:#fff" d="M60.2 46.33h17.74V36.09L46.81 18.11 15.68 36.09v35.94L46.81 90l31.13-17.97V61.78H60.2V46.33z"/><path fill="#000091" d="M60.2 61.78V46.33L46.81 38.6l-13.38 7.73v15.45l13.38 7.73 13.39-7.73z"/><path fill="#000000" d="m187.28 64 4.55 3.49a14.54 14.54 0 0 1-12 5.81 15 15 0 1 1 12-24.29l-4.55 3.54a8.9 8.9 0 0 0-7.44-3.9c-5.36 0-9.18 4.18-9.18 9.62s3.82 9.63 9.18 9.63a8.9 8.9 0 0 0 7.44-3.9Z" transform="translate(-37.77 -37.79)"/><path fill="#000000" d="M224.09 58.25a15.1 15.1 0 1 1-15.08-15 14.78 14.78 0 0 1 15.08 15Zm-5.94 0c0-5.44-3.81-9.62-9.14-9.62s-9.18 4.18-9.18 9.62 3.82 9.63 9.18 9.63 9.14-4.18 9.14-9.63ZM229.08 44h7.4l12.71 20.35V44H255v28.47h-7.39L234.85 52v20.47h-5.77ZM264.06 64.67a8.2 8.2 0 0 0 6.3 3.5c2.27 0 3.65-1.22 3.65-3.29 0-5.08-13-3.94-13-13.41 0-4.51 3.69-8.25 9.09-8.25a12.56 12.56 0 0 1 10 4.8l-4.23 3.77c-1.66-2.15-3.53-3.53-5.68-3.53a3 3 0 0 0-3.29 3c0 5.07 13 3.9 13 13.52-.08 5.29-4.22 8.53-9.42 8.53a12.81 12.81 0 0 1-10.56-4.75ZM285.43 44H302v5h-10.8v6.58h9.18v4.92h-9.18v7.11H302v4.91h-16.57ZM308.18 44H314v28.47h-5.77ZM321.43 44h5.77v23.23H338v5.24h-16.57ZM342.59 44h5.77v23.23h10.81v5.24h-16.58ZM363.76 44h16.57v5h-10.8v6.58h9.18v4.92h-9.18v7.11h10.8v4.91h-16.57ZM386.51 44h8.69c6.26 0 10.12 3.2 10.12 8.49a7.74 7.74 0 0 1-4.55 7.35l8.94 12.59h-6.91L395.24 61h-3v11.47h-5.77Zm5.77 5v7.11h3.25c2.44 0 3.86-1.3 3.86-3.62 0-2.15-1.42-3.49-3.86-3.49ZM165.14 85h7.39l12.72 20.35V85H191v28.44h-7.39L170.91 93v20.44h-5.77ZM214.94 85h5.77v17.3c0 7.48-4.39 12-11.54 12s-11.49-4.47-11.49-12V85h5.77v17.79c0 3.82 2.15 6.06 5.77 6.06s5.72-2.24 5.72-6.06ZM227.38 85h7.27l6.86 11.7 6.87-11.7h7.27v28.44h-5.77V93.23l-6.34 10.49h-4.06l-6.34-10.49v20.24h-5.76ZM263.09 85h16.57v4.91h-10.81v6.58H278v4.92h-9.18v7.11h10.81v4.92h-16.54Zm5.6-2.44 4.59-5.48h5.93l-5.28 5.48ZM285.88 85h8.69c6.26 0 10.12 3.21 10.12 8.49a7.73 7.73 0 0 1-4.56 7.35l8.94 12.6h-6.9L294.61 102h-3v11.5h-5.77Zm5.77 4.91v7.11h3.25c2.43 0 3.85-1.3 3.85-3.61 0-2.15-1.42-3.5-3.85-3.5ZM312.16 85h5.77v28.44h-5.77ZM355.22 115.46a5.76 5.76 0 0 0 2-.33V120a7.56 7.56 0 0 1-3 .52 13.44 13.44 0 0 1-8.9-3.73l-3.37-3a15 15 0 1 1 11.17-14.54 15 15 0 0 1-5.61 11.86l1.71 1.62c2.22 1.99 4.18 2.73 6 2.73Zm-8-16.21c0-5.45-3.82-9.63-9.14-9.63s-9.18 4.18-9.18 9.63 3.82 9.63 9.18 9.63 9.14-4.19 9.14-9.63ZM374.6 85h5.77v17.3c0 7.48-4.39 12-11.54 12s-11.49-4.47-11.49-12V85h5.77v17.79c0 3.82 2.15 6.06 5.77 6.06s5.72-2.24 5.72-6.06ZM387 85h16.57v4.91h-10.8v6.58H402v4.92h-9.18v7.11h10.8v4.92H387Z" transform="translate(-37.77 -37.79)"/><path fill="#000091" d="M165.28 127.5h16.57v4.92H171V139h9.18v4.91H171v12h-5.76ZM185.34 135.46h5.16v2a7.36 7.36 0 0 1 5.41-2.43 5.68 5.68 0 0 1 1.78.28v5.41a8.53 8.53 0 0 0-2.27-.29 5.66 5.66 0 0 0-4.92 2.64v12.84h-5.16ZM199.89 150.54c0-3.13 2.4-5.53 6.82-6.26l6.18-1.06v-.53c0-2.15-1.63-3.53-3.94-3.53a5.09 5.09 0 0 0-4.59 2.44l-3.82-2.89a10.3 10.3 0 0 1 8.57-4.06c5.93 0 9 3.53 9 8v13.25h-5.2V154a8.06 8.06 0 0 1-6.09 2.72c-4.13.03-6.93-2.33-6.93-6.18Zm8 2.07a5.8 5.8 0 0 0 5-2.89v-2.8l-4.84.85c-2.19.37-3 1.26-3 2.56s1.05 2.28 2.8 2.28ZM223.09 135.46h5.15v1.63a8.36 8.36 0 0 1 6.06-2.44c4.43 0 8 3 8 9.1v12.19H237V144c0-2.72-1.5-4.42-4-4.42a5.46 5.46 0 0 0-4.76 3v13.37h-5.15ZM261.6 149.48l4.1 3.13a10.56 10.56 0 0 1-8.65 4.14c-7.07 0-11.29-5.08-11.29-11.05s4.22-11 11.29-11a10.59 10.59 0 0 1 8.65 4.14l-4.1 3.13a5.41 5.41 0 0 0-4.63-2.39 6.18 6.18 0 0 0 .08 12.35 5.43 5.43 0 0 0 4.55-2.45ZM278.58 156.75c-7.27 0-11.37-5.08-11.37-11.05s3.81-11 10.52-11c5.68 0 9.42 3.82 9.42 9.18a13.8 13.8 0 0 1-.32 2.93h-14.34c.32 3.37 2.68 5.36 6.17 5.36a6.3 6.3 0 0 0 5.16-2.44l3.7 2.93a10.86 10.86 0 0 1-8.94 4.09Zm-5.77-13.89H282a4 4 0 0 0-4.3-3.9 4.66 4.66 0 0 0-4.89 3.9Z" transform="translate(-37.77 -37.79)"/><path fill="#e1000f" d="M167 187c1.26 1.58 2.76 2.72 4.71 2.72 1.63 0 2.52-.9 2.52-2.11 0-3.58-9.54-2.08-9.54-9.47 0-3.62 3-6.3 7.27-6.3a9.54 9.54 0 0 1 7.51 3.5l-3.47 3.04a5.29 5.29 0 0 0-4-2.35c-1.55 0-2.36.73-2.36 1.87 0 3.49 9.55 2.07 9.55 9.34-.08 4.31-3.54 6.66-7.39 6.66a10.16 10.16 0 0 1-8.21-3.78ZM193 193.9c-7.27 0-11.37-5.08-11.37-11.05s3.81-11 10.52-11c5.68 0 9.42 3.82 9.42 9.18a13.8 13.8 0 0 1-.32 2.93h-14.36c.32 3.37 2.68 5.36 6.17 5.36a6.3 6.3 0 0 0 5.16-2.44l3.7 2.93a10.86 10.86 0 0 1-8.92 4.09Zm-5.79-13.9h9.22a4 4 0 0 0-4.3-3.9 4.66 4.66 0 0 0-4.92 3.9ZM205.7 172.61h5.16v2a7.35 7.35 0 0 1 5.4-2.44 5.8 5.8 0 0 1 1.79.28v5.41a8.55 8.55 0 0 0-2.28-.29 5.63 5.63 0 0 0-4.91 2.64v12.84h-5.16ZM224.38 172.61l5.33 14.63 5.29-14.63h5.56l-7.47 20.48h-6.79l-7.43-20.48ZM242.14 165.67a3.41 3.41 0 0 1 3.37-3.37 3.37 3.37 0 0 1 0 6.74 3.41 3.41 0 0 1-3.37-3.37Zm.77 6.94h5.16v20.48h-5.16ZM267.73 186.63l4.1 3.13a10.55 10.55 0 0 1-8.65 4.14c-7.07 0-11.29-5.08-11.29-11.05s4.22-11 11.29-11a10.56 10.56 0 0 1 8.65 4.15l-4.1 3.12a5.39 5.39 0 0 0-4.63-2.39 6.18 6.18 0 0 0 .08 12.35 5.41 5.41 0 0 0 4.55-2.45ZM284.71 193.9c-7.27 0-11.37-5.08-11.37-11.05s3.82-11 10.52-11c5.69 0 9.42 3.82 9.42 9.18a13.8 13.8 0 0 1-.32 2.93h-14.34c.33 3.37 2.68 5.36 6.17 5.36a6.29 6.29 0 0 0 5.16-2.44l3.7 2.93a10.86 10.86 0 0 1-8.94 4.09ZM279 180h9.22a4 4 0 0 0-4.31-3.9A4.65 4.65 0 0 0 279 180ZM299 187c1.26 1.58 2.77 2.72 4.72 2.72 1.62 0 2.51-.9 2.51-2.11 0-3.58-9.54-2.08-9.54-9.47 0-3.62 3.05-6.3 7.27-6.3a9.57 9.57 0 0 1 7.52 3.5l-3.48 3.04a5.25 5.25 0 0 0-4-2.35c-1.54 0-2.36.73-2.36 1.87 0 3.49 9.55 2.07 9.55 9.34-.08 4.31-3.53 6.66-7.39 6.66a10.16 10.16 0 0 1-8.21-3.78Z" transform="translate(-37.77 -37.79)"/></svg>