<svg id="cpam" width="40" height="40" viewBox="0 0 40 40" fill="none" xmlns="http://www.w3.org/2000/svg">
<path d="M4.2915 20.9673H11.1396V20.8822H4.2915V20.9673Z" fill="#95C11F"/>
<path d="M4.42932 19.0403H11.9865V18.9552H4.42932V19.0403Z" fill="#95C11F"/>
<path d="M4.2915 17.1125H12.0865V17.0278H4.2915V17.1125Z" fill="#95C11F"/>
<path d="M4.2915 15.1855H12.0865V15.1001H4.2915V15.1855Z" fill="#95C11F"/>
<path d="M4.2915 13.2581H12.0865V13.1727H4.2915V13.2581Z" fill="#95C11F"/>
<path d="M1.80992 17.1944C1.8433 17.144 1.86947 17.0711 1.87111 16.9929C1.87307 16.8767 1.81385 16.8077 1.72419 16.8064C1.64337 16.805 1.59364 16.8512 1.5475 16.969C1.49253 17.1116 1.41531 17.1993 1.29261 17.1967C1.15551 17.1947 1.05571 17.0796 1.05866 16.9081C1.06029 16.8194 1.08254 16.7533 1.10512 16.7157L1.19707 16.7488C1.18005 16.7756 1.15387 16.8345 1.15257 16.914C1.1506 17.0338 1.22161 17.0809 1.28148 17.0819C1.36394 17.0832 1.4055 17.0305 1.45458 16.9097C1.51576 16.7619 1.58775 16.6886 1.71667 16.6912C1.85246 16.6935 1.96992 16.7949 1.96633 17.0023C1.96469 17.0871 1.93688 17.1797 1.90448 17.2258L1.80992 17.1944Z" fill="#005DA9"/>
<path d="M1.63691 15.904L1.58946 16.2414L1.90358 16.2856L1.95659 15.908L2.05115 15.9214L1.98211 16.4128L1.11043 16.2901L1.17653 15.818L1.27109 15.8311L1.22103 16.1897L1.49588 16.2283L1.54333 15.8906L1.63691 15.904ZM0.971698 15.8311L1.10094 16.0195L1.08786 16.1115L0.952393 15.9682L0.971698 15.8311Z" fill="#005DA9"/>
<path d="M2.24425 15.061C2.25309 15.1058 2.25047 15.1928 2.22168 15.2962C2.15493 15.5351 1.95435 15.6719 1.67459 15.5937C1.40824 15.5191 1.27965 15.2894 1.35327 15.0266C1.38239 14.9222 1.42395 14.8607 1.44718 14.8355L1.52866 14.8885C1.49692 14.9229 1.46583 14.9779 1.44587 15.0485C1.39057 15.2471 1.48088 15.4147 1.70338 15.4768C1.91214 15.5351 2.07803 15.4526 2.13497 15.2475C2.15395 15.1794 2.15918 15.1074 2.15002 15.0577L2.24425 15.061Z" fill="#005DA9"/>
<path d="M1.59338 14.3818L2.0711 14.5932C2.25041 14.6724 2.36231 14.6266 2.40976 14.5192C2.46244 14.4008 2.41761 14.2882 2.24092 14.2097L1.76352 13.9987L1.80999 13.8936L2.28051 14.1017C2.52755 14.2113 2.57041 14.3854 2.49287 14.5601C2.42023 14.7251 2.272 14.8078 2.02103 14.6969L1.54724 14.4868L1.59338 14.3818Z" fill="#005DA9"/>
<path d="M2.4339 13.6256L2.49574 13.5271C2.5602 13.4244 2.54515 13.3236 2.46007 13.2696C2.36355 13.2097 2.27749 13.2526 2.21369 13.3543C2.18457 13.4008 2.16886 13.4358 2.16297 13.4554L2.4339 13.6256ZM2.03503 13.5091C2.05532 13.4545 2.0936 13.3792 2.13418 13.3138C2.19896 13.211 2.26113 13.1564 2.33246 13.1361C2.38776 13.1194 2.45222 13.1299 2.51079 13.1665C2.60797 13.2274 2.63382 13.3318 2.6119 13.4257L2.61484 13.4276C2.67014 13.3838 2.74507 13.3828 2.83374 13.4129C2.95383 13.4538 3.03628 13.4813 3.07457 13.4849L3.01142 13.5844C2.98328 13.5834 2.90867 13.5595 2.80331 13.5215C2.6865 13.4787 2.62237 13.4954 2.5638 13.5804L2.50654 13.6711L2.82982 13.8743L2.76928 13.9705L2.03503 13.5091Z" fill="#005DA9"/>
<path d="M2.63884 12.6136L3.32924 13.1597L3.25758 13.25L2.5675 12.7039L2.63884 12.6136Z" fill="#005DA9"/>
<path d="M3.07464 12.2599L2.88911 12.4533L2.81909 12.3865L3.26998 11.9157L3.33968 11.9824L3.15415 12.1768L3.71989 12.7186L3.6407 12.8018L3.07464 12.2599Z" fill="#005DA9"/>
<path d="M3.69341 11.2903L3.662 11.5167L3.59034 11.5756L3.58674 11.3786L3.69341 11.2903ZM4.13546 11.7928L3.87272 12.0098L4.07493 12.2549L4.36909 12.0114L4.4293 12.085L4.04712 12.4011L3.48596 11.7228L3.85407 11.4189L3.9146 11.4925L3.63582 11.7228L3.81317 11.9371L4.07559 11.7199L4.13546 11.7928Z" fill="#005DA9"/>
<path d="M4.95536 11.5691C5.01524 11.5737 5.09181 11.5609 5.16052 11.5236C5.26294 11.468 5.29402 11.3832 5.25116 11.3037C5.2132 11.2324 5.14874 11.2124 5.0231 11.2298C4.8716 11.252 4.7574 11.2278 4.69916 11.1195C4.63372 10.9988 4.68575 10.8551 4.83593 10.774C4.91414 10.7318 4.98252 10.7184 5.0267 10.72L5.04306 10.8162C5.01099 10.8146 4.94718 10.8208 4.87749 10.8584C4.77147 10.9157 4.76558 11.0007 4.79438 11.0537C4.83332 11.1257 4.89941 11.1362 5.02833 11.1198C5.18768 11.1005 5.2865 11.1274 5.34801 11.2409C5.41247 11.3607 5.38171 11.5125 5.19913 11.611C5.1242 11.6515 5.02997 11.6722 4.97402 11.6673L4.95536 11.5691Z" fill="#005DA9"/>
<path d="M5.95628 11.1608C6.12479 11.097 6.16144 10.9059 6.09076 10.7184C6.02892 10.5548 5.87873 10.4164 5.70139 10.4834C5.52437 10.5502 5.49885 10.7482 5.56625 10.9265C5.63169 11.0999 5.78777 11.2239 5.95464 11.1611L5.95628 11.1608ZM5.98376 11.2488C5.76519 11.3316 5.54989 11.2206 5.45598 10.9713C5.35717 10.7095 5.45369 10.4776 5.67357 10.3944C5.9 10.309 6.11039 10.4265 6.20234 10.6713C6.30933 10.9533 6.19416 11.1696 5.98507 11.2485L5.98376 11.2488Z" fill="#005DA9"/>
<path d="M7.1663 10.8796C7.13063 10.9084 7.05243 10.947 6.94805 10.9703C6.70526 11.0233 6.49062 10.9097 6.42845 10.6267C6.36922 10.3564 6.51189 10.1349 6.77856 10.0763C6.88425 10.0534 6.95819 10.0613 6.99059 10.0701L6.98274 10.1667C6.93725 10.1555 6.87443 10.1529 6.80244 10.1689C6.60121 10.2128 6.49553 10.3715 6.54526 10.5969C6.59172 10.809 6.74191 10.9163 6.95001 10.8705C7.01873 10.8554 7.08482 10.8263 7.12474 10.7952L7.1663 10.8796Z" fill="#005DA9"/>
<path d="M7.44814 9.99071L7.54597 10.8657L7.43145 10.8784L7.33362 10.0035L7.44814 9.99071Z" fill="#005DA9"/>
<path d="M8.29158 10.4668L8.20323 10.2135C8.18491 10.1566 8.17149 10.1039 8.15808 10.0532H8.15415C8.1427 10.1042 8.1283 10.1592 8.11161 10.2125L8.02687 10.4678L8.29158 10.4668ZM8.00331 10.5564L7.91333 10.8339L7.79553 10.8342L8.09133 9.95306L8.2281 9.95241L8.53207 10.8313L8.41068 10.8319L8.31513 10.5551L8.00331 10.5564Z" fill="#005DA9"/>
<path d="M8.86946 9.98152L8.983 9.99559L8.88582 10.7747L9.25949 10.8211L9.24771 10.916L8.7605 10.8552L8.86946 9.98152Z" fill="#005DA9"/>
<path d="M10.0006 10.6654L9.66913 10.5846L9.59354 10.8932L9.96427 10.9835L9.94169 11.0764L9.45972 10.9583L9.6688 10.1033L10.1321 10.2165L10.1092 10.3088L9.7578 10.2231L9.69138 10.4933L10.0228 10.5742L10.0006 10.6654Z" fill="#005DA9"/>
<path d="M19.9238 25.15C19.9238 25.4933 19.824 25.6759 19.5291 25.6759C19.2739 25.6759 19.1345 25.5103 19.1345 25.1157V23.9158C19.1345 23.5212 19.2739 23.356 19.5291 23.356C19.7834 23.356 19.9238 23.5212 19.9238 23.9158V25.15ZM20.643 25.2233V21.6332H19.9247V22.8508C19.8806 22.8128 19.7343 22.7405 19.5291 22.7405C18.7151 22.7405 18.4219 23.2621 18.4219 24.013V25.0185C18.4219 25.7691 18.7151 26.291 19.5291 26.291C20.1413 26.291 20.643 26.0008 20.643 25.2233Z" fill="#005DA9"/>
<path d="M10.7516 21.6332V26.2275H10.0415V22.6358H10.0285L9.31547 26.2275H8.9333L8.21999 22.6358H8.20756V26.2275H7.49719V21.6332H8.55734L9.11817 24.317H9.1306L9.69078 21.6332H10.7516Z" fill="#005DA9"/>
<path d="M21.3026 22.8037H22.0149V26.2275H21.3026V22.8037Z" fill="#005DA9"/>
<path d="M22.0745 21.9919C22.0745 22.2216 21.8886 22.4075 21.6589 22.4075C21.4292 22.4075 21.243 22.2216 21.243 21.9919C21.243 21.7622 21.4292 21.576 21.6589 21.576C21.8886 21.576 22.0745 21.7622 22.0745 21.9919Z" fill="#005DA9"/>
<path d="M17.1082 25.3647C16.9583 25.5103 16.8271 25.6847 16.6033 25.6847C16.4031 25.6847 16.2594 25.5391 16.2594 25.2812C16.2594 24.7989 16.6315 24.6867 17.1082 24.5807V25.3647ZM17.8228 25.8647V23.6694C17.8228 23.0458 17.4472 22.7405 16.7856 22.7405C16.1174 22.7405 15.6783 23.1158 15.6404 23.8092H16.353C16.3658 23.5166 16.4358 23.3259 16.7601 23.3259C16.996 23.3259 17.1102 23.478 17.1102 23.7647L17.1108 24.032C16.0517 24.1766 15.5563 24.7142 15.5563 25.3804C15.5563 25.8499 15.8262 26.293 16.3651 26.293C16.7388 26.293 16.8586 26.1981 17.1455 25.9726C17.1504 26.0374 17.1645 26.1146 17.1861 26.2275H17.8673C17.8483 26.1127 17.8228 25.9726 17.8228 25.8647Z" fill="#005DA9"/>
<path d="M12.7999 25.3647C12.6507 25.5103 12.5198 25.6847 12.2957 25.6847C12.0951 25.6847 11.9515 25.5391 11.9515 25.2812C11.9515 24.7989 12.3235 24.6867 12.7999 24.5807V25.3647ZM13.5152 25.8647V23.6694C13.5152 23.0458 13.1395 22.7405 12.4776 22.7405C11.8098 22.7405 11.3707 23.1158 11.3324 23.8092H12.0454C12.0578 23.5166 12.1281 23.3259 12.4524 23.3259C12.6883 23.3259 12.8022 23.478 12.8022 23.7647L12.8028 24.032C11.7434 24.1766 11.2483 24.7142 11.2483 25.3804C11.2483 25.8499 11.5182 26.293 12.0578 26.293C12.4308 26.293 12.5506 26.1981 12.8379 25.9726C12.8424 26.0374 12.8565 26.1146 12.8784 26.2275H13.5593C13.5407 26.1127 13.5152 25.9726 13.5152 25.8647Z" fill="#005DA9"/>
<path d="M15.1892 25.6877C14.824 25.6871 14.7988 25.4862 14.7988 25.2359V21.6333H14.0858V25.209C14.0858 25.7879 14.3427 26.2734 15.1931 26.2734H15.2634V25.6877H15.1892Z" fill="#005DA9"/>
<path d="M23.325 23.8861C23.325 23.4914 23.4647 23.3262 23.7193 23.3262C23.9742 23.3262 24.1139 23.4914 24.1139 23.8861V24.0641H23.325V23.8861ZM24.8269 24.6498V24.013C24.8269 23.2621 24.5343 22.7405 23.7193 22.7405C22.9049 22.7405 22.6127 23.2621 22.6127 24.013V25.0185C22.6127 25.7691 22.9049 26.291 23.7193 26.291C24.4571 26.291 24.7676 25.8637 24.8193 25.2233C24.8193 25.2233 24.8236 25.1625 24.8203 25.1347H24.1132L24.1119 25.223C24.0943 25.562 23.9568 25.706 23.7193 25.706C23.4647 25.706 23.325 25.5404 23.325 25.1458V24.6498H24.8269Z" fill="#005DA9"/>
<path d="M17.2551 19.3135H17.9131L17.5872 17.2901H17.5744L17.2551 19.3135ZM17.008 20.9675H16.245L17.0911 16.3739H18.0711L18.9176 20.9675H18.1539L18.008 19.9162H17.1595L17.008 20.9675Z" fill="#005DA9"/>
<path d="M26.9053 20.9675V17.545H27.5862V17.8362H27.5989C27.7704 17.544 28.1748 17.4805 28.4071 17.4805H28.5534V18.2252C28.4261 18.1935 28.3054 18.1552 28.0947 18.1552C27.8535 18.1552 27.6183 18.3077 27.6183 18.6136V20.9675H26.9053Z" fill="#005DA9"/>
<path fill-rule="evenodd" clip-rule="evenodd" d="M26.2784 17.5448V19.7583C26.2784 20.5089 25.9856 21.0315 25.1708 21.0315C24.3571 21.0315 24.0642 20.5089 24.0642 19.7583V17.5448H24.7772V19.8859C24.7772 20.2802 24.9169 20.4458 25.1708 20.4458C25.426 20.4458 25.5658 20.2802 25.5658 19.8859V17.5448H26.2784Z" fill="#005DA9"/>
<path d="M31.4902 20.9675V18.7537C31.4902 18.0266 31.7828 17.4805 32.5975 17.4805C33.4119 17.4805 33.7048 18.0266 33.7048 18.7537V20.9675H32.9918V18.631C32.9918 18.2642 32.8439 18.092 32.5975 18.092C32.3508 18.092 32.2026 18.2642 32.2026 18.631V20.9675H31.4902Z" fill="#005DA9"/>
<path d="M30.2131 20.1052C30.0645 20.2505 29.933 20.4246 29.7088 20.4246C29.5083 20.4246 29.3649 20.2793 29.3649 20.0215C29.3649 19.5389 29.737 19.4266 30.2131 19.3203V20.1052ZM30.9287 20.6049V18.4093C30.9287 17.786 30.5527 17.4804 29.8911 17.4804C29.2229 17.4804 28.7838 17.8557 28.7459 18.5497H29.4589C29.4713 18.2569 29.5413 18.0658 29.8659 18.0658C30.1015 18.0658 30.2157 18.2183 30.2157 18.5049L30.2163 18.7722C29.1568 18.9168 28.6621 19.4544 28.6621 20.1206C28.6621 20.5898 28.9317 21.0332 29.4713 21.0332C29.844 21.0332 29.9641 20.938 30.2507 20.7132C30.2559 20.7777 30.2703 20.8549 30.2916 20.9674H30.9722C30.9542 20.8529 30.9287 20.7129 30.9287 20.6049Z" fill="#005DA9"/>
<path d="M15.1892 20.4288C14.824 20.4278 14.7988 20.2269 14.7988 19.9766V16.3741H14.0858V19.9501C14.0858 20.5283 14.3427 21.0142 15.1931 21.0142H15.2634V20.4288H15.1892Z" fill="#005DA9"/>
<path d="M19.8547 18.3396C19.8547 18.1616 19.9879 18.066 20.1809 18.066C20.4234 18.066 20.5232 18.1989 20.5644 18.4924L21.1998 18.4374C21.1351 17.9957 20.9132 17.4803 20.1472 17.4803C19.5893 17.4803 19.1509 17.856 19.1509 18.3968C19.1509 19.3323 20.549 19.5551 20.549 20.1467C20.549 20.3378 20.4096 20.4461 20.2136 20.4461C19.875 20.4461 19.7686 20.1916 19.7222 19.9053L19.0629 20.0106C19.1404 20.6614 19.556 21.0315 20.2074 21.0315C20.8151 21.0315 21.2538 20.7197 21.2538 20.1088C21.2538 19.0905 19.8547 18.8739 19.8547 18.3396Z" fill="#005DA9"/>
<path d="M22.2776 18.3396C22.2776 18.1616 22.4105 18.066 22.6029 18.066C22.8424 18.066 22.9422 18.1989 22.9834 18.4924L23.6189 18.4374C23.5547 17.9957 23.3322 17.4803 22.5698 17.4803C22.0119 17.4803 21.5728 17.856 21.5728 18.3968C21.5728 19.3323 22.9684 19.5551 22.9684 20.1467C22.9684 20.3378 22.829 20.4461 22.6356 20.4461C22.2976 20.4461 22.1913 20.1916 22.1448 19.9053L21.4855 20.0106C21.563 20.6614 21.9786 21.0315 22.6297 21.0315C23.2341 21.0315 23.6725 20.7197 23.6725 20.1088C23.6725 19.0905 22.2776 18.8739 22.2776 18.3396Z" fill="#005DA9"/>
<path d="M37.5457 18.6259C37.5457 18.2313 37.6858 18.066 37.9407 18.066C38.1952 18.066 38.335 18.2313 38.335 18.6259V18.8042H37.5457V18.6259ZM39.0476 19.3899V18.7535C39.0476 18.0026 38.7561 17.4803 37.9407 17.4803C37.1259 17.4803 36.8337 18.0026 36.8337 18.7535V19.7587C36.8337 20.5096 37.1259 21.0315 37.9407 21.0315C38.6779 21.0315 38.9887 20.6042 39.0404 19.9638C39.0404 19.9638 39.0443 19.9026 39.0414 19.8748H38.3343L38.3333 19.9632C38.3153 20.3018 38.1782 20.4461 37.9407 20.4461C37.6858 20.4461 37.5457 20.2809 37.5457 19.8859V19.3899H39.0476Z" fill="#005DA9"/>
<path d="M15.5254 16.3742V17.0256H15.7325C15.6671 17.1906 15.5277 17.5449 15.5277 17.5449H15.8758L16.1769 17.0256V16.3742H15.5254Z" fill="#005DA9"/>
<path d="M35.7108 19.8342L35.7102 19.9632C35.6925 20.3018 35.5551 20.4461 35.3178 20.4461C35.0626 20.4461 34.9232 20.2809 34.9232 19.8859V18.6259C34.9232 18.2313 35.0626 18.066 35.3178 18.066C35.5724 18.066 35.7124 18.2313 35.7124 18.6259V18.7532L36.4248 18.7535C36.4248 18.0026 36.1323 17.4803 35.3178 17.4803C34.5031 17.4803 34.2106 18.0026 34.2106 18.7535V19.7587C34.2106 20.5096 34.5031 21.0315 35.3178 21.0315C36.1872 21.0315 36.4202 20.418 36.4202 19.8342H35.7108Z" fill="#005DA9"/>
<path fill-rule="evenodd" clip-rule="evenodd" d="M4.72013 15.4707C4.82549 15.706 4.74402 16.0427 4.59481 16.2106C4.8592 16.5463 5.5208 16.4062 5.87615 16.3104C5.97268 16.2914 6.04924 16.1183 6.14119 16.1854C6.16507 16.205 6.32344 16.0365 6.30413 16.1955C6.30413 16.2914 6.26127 16.3941 6.1618 16.4311C6.0872 16.4586 5.87321 16.5224 5.87321 16.5224C5.49365 16.6421 5.28718 16.6951 4.90729 16.8781C4.73224 16.9707 4.77739 17.3073 4.80193 17.4297C4.82582 17.5521 4.94329 17.9915 4.84022 18.2101C4.75547 18.3888 4.46099 18.5543 4.45575 18.7752C4.45575 18.8714 4.61543 18.9879 4.52316 19.0661C4.4636 19.1168 4.41943 19.125 4.38311 19.0913C4.38311 19.0913 4.09812 18.7978 4.13378 18.6973C4.13149 18.6584 4.45411 18.1957 4.31603 17.987C4.23914 18.0589 4.23031 18.2546 4.07488 18.3259C4.00159 18.3593 3.8959 18.2746 3.83308 18.3102C3.80821 18.325 3.81116 18.4238 3.7876 18.4473C3.76404 18.4715 3.66064 18.4679 3.63839 18.4238C3.57851 18.3034 3.60207 18.0976 3.62432 17.9964C3.65704 17.8463 3.96985 18.0108 3.86842 17.7972C3.83112 17.719 3.78334 17.6166 3.78694 17.452C3.78989 17.3257 3.89492 17.1801 3.7912 17.1163C3.67537 17.058 3.40084 16.9363 3.3956 16.7923C3.36321 16.4501 3.99864 16.4501 4.14327 16.1425C4.14327 15.9943 3.95742 15.8683 3.99439 15.6343C4.01271 15.5156 4.10499 15.3798 4.25779 15.3592C4.44888 15.333 4.56635 15.3556 4.72013 15.4707Z" fill="#005DA9"/>
<path fill-rule="evenodd" clip-rule="evenodd" d="M13.0721 15.5548C13.0963 15.3916 12.9965 15.0113 13.0472 14.8553L13.3371 15.0061C13.2753 15.1082 13.1526 15.3359 13.0721 15.5548ZM13.6349 14.7771C13.2461 14.5268 12.9088 14.0854 12.4713 14.158C12.241 14.1384 12.4288 13.8936 12.366 13.7977C12.2603 13.6103 12.2485 13.5396 11.8375 13.5792C11.7243 13.5903 11.634 13.6318 11.5921 13.7303C11.5551 13.8403 11.5892 13.8141 11.5627 13.9165C11.5293 14.0186 11.4079 14.066 11.525 14.1433C11.5345 14.1766 11.5336 14.2342 11.525 14.3402C11.5188 14.4142 11.6118 14.4073 11.65 14.4312C11.1838 14.7725 10.3451 14.711 9.9345 14.443C9.85859 14.3936 9.59355 14.4044 9.5929 14.4345C9.59355 14.5035 9.76533 14.5186 9.8275 14.5906C9.79904 14.6004 9.74897 14.5889 9.7709 14.6318C9.79216 14.6747 10.1063 14.7326 10.1073 14.7326C10.3481 14.8958 10.7227 14.974 11.0149 15.0316C11.6108 15.12 11.7786 15.0873 11.8565 15.4685C11.9354 15.8542 11.8434 16.2099 11.7554 16.736C11.6837 17.2066 11.7816 17.4991 11.8565 17.9601C11.8706 18.0455 11.9147 18.1862 11.8729 18.2225C11.7901 18.2955 11.5725 18.3583 11.4789 18.4401C11.4383 18.5746 11.8163 18.4882 12.0679 18.5013C12.188 18.5108 12.2168 18.3825 12.2168 18.3056C12.239 17.5855 12.2603 17.36 12.3755 16.9088C12.4432 17.2979 12.4514 17.9523 12.5377 18.3465C12.4393 18.463 12.1762 18.5677 12.2413 18.6312C12.3179 18.7032 12.4484 18.6911 12.5171 18.6738C12.6778 18.6348 12.7681 18.5848 12.8849 18.4787C12.8849 18.4787 13.1244 16.8987 13.0819 16.1163C13.058 15.6808 13.486 15.4302 13.7023 15.0411C13.7546 14.9403 13.7523 14.8527 13.6349 14.7771Z" fill="#005DA9"/>
<path fill-rule="evenodd" clip-rule="evenodd" d="M8.40715 13.3871C8.57599 13.4178 8.97027 13.5297 9.0164 13.5389C9.06254 13.5484 9.1787 13.6567 9.21436 13.6652C9.23367 13.6698 9.23956 13.6727 9.25625 13.6423C9.27228 13.6122 9.33968 13.6596 9.40872 13.639C9.45388 13.6256 9.49707 13.5045 9.48594 13.4908C9.44177 13.4378 9.21207 13.376 9.10115 13.3753C8.97158 13.3321 8.67022 13.2088 8.44347 13.1368C7.93074 12.9745 7.39576 12.7291 6.90495 13.0213C6.69979 12.9368 6.69619 12.6705 6.3415 12.6983C6.17266 12.7114 6.05061 12.8423 6.01004 12.9588C5.96881 13.0756 5.95212 13.2209 6.02804 13.3652C6.06992 13.4447 6.15172 13.4836 6.23319 13.5111C6.27377 13.5248 6.31696 13.534 6.35753 13.5484C6.41577 13.5687 6.4269 13.6155 6.493 13.606C6.5424 13.5985 6.5833 13.5909 6.63468 13.5939C6.68114 13.5968 6.80057 13.6155 6.82053 13.5523C6.82151 13.5523 6.82315 13.5523 6.82478 13.5526C6.82904 13.6698 6.80646 13.8422 6.74593 13.8713C6.66445 13.8906 6.62846 13.8396 6.4305 13.7823C6.23483 13.7261 5.77282 13.6675 5.76431 14.0212C5.74958 14.5889 5.81764 14.7715 5.42532 15.2528C5.35759 15.3359 5.24307 15.3408 5.31015 15.4279C5.36315 15.4818 5.44921 15.4409 5.49011 15.4072C5.58991 15.6612 5.92726 15.2836 6.00121 15.2253C6.15336 15.1062 5.98092 15.0022 6.05323 14.8873C6.17724 14.6462 6.36866 14.548 6.40923 14.3677C6.60686 14.5218 6.84703 14.6422 7.09276 14.6226C7.19387 14.6033 7.28647 14.5653 7.40066 14.4495C7.51519 14.3337 7.54594 13.9649 7.55609 13.7094C7.57703 13.1901 7.93532 13.301 8.40715 13.3871Z" fill="#005DA9"/>
<path d="M11.8136 20.7901C11.6098 20.7416 11.3798 20.597 11.2646 20.4193C11.1841 20.2947 11.1268 20.154 11.0614 20.01C10.8399 19.5254 10.7126 18.9937 10.5689 18.816C10.3157 18.5022 9.82128 18.0648 9.48819 17.8485C9.38937 17.7843 9.29841 17.7382 9.21628 17.7025C9.2971 17.3102 9.27845 16.893 9.27845 16.893C9.27845 16.8132 9.28009 16.8109 9.30823 16.7775C9.39395 16.7098 9.45056 16.627 9.42504 16.4981C9.42209 16.4798 9.35109 16.326 9.33048 16.2926C9.44991 16.3404 9.97638 16.4651 10.1289 16.4543C10.3913 16.4363 11.0146 16.0037 11.1085 15.9379C11.1769 15.8977 11.2162 15.8875 11.2518 15.8777C11.2881 15.8676 11.3781 15.8106 11.3987 15.7547C11.4072 15.7298 11.3801 15.5492 11.3176 15.5381C11.2904 15.5355 11.2194 15.5793 11.1946 15.5721C11.1795 15.5679 11.1632 15.5394 11.1501 15.54C11.1157 15.5387 11.0807 15.5937 11.064 15.6202C11.0414 15.6552 11.0339 15.7187 11.0103 15.7481C10.9675 15.8028 10.3628 15.9736 10.1622 16.0682C10.1275 16.0845 10.0912 16.0976 10.0556 16.0865C9.89687 16.0374 9.25751 15.6706 9.00491 15.7229C8.92507 15.7396 8.8004 15.7848 8.74609 15.7259C8.71729 15.6945 8.70126 15.6444 8.72547 15.5947C8.7523 15.5381 8.8858 15.5306 8.91165 15.4654C8.93979 15.3935 8.89333 15.2501 8.89366 15.242C8.89497 15.2145 8.9267 15.2011 8.92376 15.1768C8.92049 15.151 8.88744 15.1232 8.85079 15.0712C8.81218 15.0185 8.80106 14.8843 8.76605 14.8258C8.77423 14.8071 8.79811 14.6854 8.65578 14.6023C8.51344 14.5205 8.27851 14.5018 8.14665 14.6176C8.07204 14.6841 7.97257 14.6585 7.89339 14.6998C7.74353 14.7786 7.83973 14.9363 7.59171 15.1605C7.48406 15.2577 7.54753 15.4458 7.57306 15.488C7.46802 15.6843 7.65388 15.9157 7.82108 15.8764C7.87605 15.9291 7.91073 15.9526 7.97159 15.9497C7.97257 15.9556 7.97454 15.9615 7.97683 15.9677C7.9392 15.9814 7.85838 16.022 7.82304 16.04C7.72815 16.0897 7.67253 16.1506 7.58483 16.2357C7.30442 16.5086 6.88789 16.932 5.89449 17.429C5.78161 17.498 5.45767 17.4683 5.45767 17.5386C5.47829 17.5726 5.54864 17.608 5.54864 17.608C5.5506 17.6482 5.42921 17.6643 5.36344 17.6787C5.30618 17.711 5.41677 17.7565 5.45964 17.7961C5.68017 17.8357 5.79404 17.7863 5.9812 17.6296C6.73639 17.3364 7.29788 17.0498 7.90975 16.6516C8.03965 16.5675 8.11294 16.6588 8.21765 17.0468C8.2579 17.1973 8.05765 17.3204 7.98108 17.5337C7.8947 17.7722 7.90517 17.9509 7.9693 18.0896C7.89895 18.2441 7.68201 18.4489 7.68201 18.4489C7.68201 18.4489 7.16798 18.8746 6.90817 19.1318C6.68306 19.3549 6.41082 19.3032 6.20108 19.4034C5.98774 19.5064 5.79404 19.6687 5.61309 19.8183C5.4809 19.9275 5.34871 20.0247 5.173 20.0974C5.10494 20.1252 5.07157 20.134 4.99926 20.1438C4.90862 20.1563 4.85398 20.24 4.86183 20.3169C4.8687 20.3876 4.93218 20.5466 5.00024 20.6834C5.03689 20.7586 5.12065 20.9334 5.22928 20.9553C5.30258 20.971 5.45767 21.0021 5.49236 20.935C5.53849 20.846 5.34151 20.8208 5.32744 20.7047C5.31861 20.6304 5.31076 20.5087 5.3353 20.4377C5.37783 20.3149 5.55387 20.2299 5.65923 20.1729C5.98513 19.9959 6.94875 19.7692 7.23603 19.6828C7.65126 19.5012 7.97912 19.3523 8.24873 19.1756C8.48792 19.031 8.6813 18.8016 8.83051 18.6109C9.18651 18.7879 9.71102 19.0084 10.0592 19.1416C10.264 19.2201 10.1527 19.3517 10.2669 19.6468C10.3484 19.8578 10.495 20.012 10.9809 20.5859C11.0506 20.6811 10.976 20.7465 10.991 20.8522C11.0084 20.9667 11.0643 20.9703 11.17 20.9681C11.2682 20.9648 11.367 20.9681 11.4652 20.9681C11.5905 20.9681 11.7479 20.9687 11.8729 20.9674C11.919 20.9667 12.0103 20.952 12.0103 20.8849C12.0103 20.8107 11.8761 20.8051 11.8136 20.7901Z" fill="#005DA9"/>
<path d="M15.6076 30.2617C15.5697 30.4044 15.4473 30.8513 14.8498 30.8513C14.3548 30.8513 14.0181 30.4914 14.0181 29.9221C14.0181 29.4142 14.2759 28.9624 14.8701 28.9624C14.9725 28.9624 15.2274 28.9725 15.429 29.1718C15.5212 29.2637 15.5671 29.3707 15.6027 29.4983L15.2379 29.5854C15.1921 29.3861 15.0412 29.2791 14.8524 29.2791C14.3983 29.2791 14.3983 29.7791 14.3983 29.8969C14.3983 30.0677 14.4189 30.2388 14.4951 30.3559C14.5616 30.4583 14.6839 30.5346 14.8472 30.5346C15.0923 30.5346 15.2048 30.3484 15.2506 30.1495L15.6076 30.2617Z" fill="#005DA9"/>
<path d="M16.7309 30.1848C16.6952 30.1979 16.6645 30.208 16.583 30.2257C16.565 30.228 16.4783 30.2463 16.4629 30.2515C16.3988 30.264 16.2587 30.2996 16.2587 30.4224C16.2587 30.4966 16.3173 30.6036 16.4524 30.6036C16.5342 30.6036 16.6033 30.5676 16.6569 30.5218C16.7309 30.4583 16.7309 30.3739 16.7309 30.2542V30.1848ZM15.9446 29.8432C16.0032 29.6312 16.1236 29.4679 16.5166 29.4679C17.0728 29.4679 17.0754 29.728 17.0754 29.9656C17.0754 30.0474 17.0702 30.4044 17.0728 30.4786C17.0803 30.652 17.0983 30.7106 17.1494 30.8206H16.8048C16.797 30.8026 16.7894 30.7849 16.779 30.7463L16.7587 30.6753C16.69 30.744 16.5624 30.8513 16.348 30.8513C16.0827 30.8513 15.9089 30.69 15.9089 30.4606C15.9089 30.1364 16.2077 30.0778 16.3912 30.0421C16.5879 30.0065 16.6618 29.9859 16.7309 29.9577V29.9221C16.7309 29.8353 16.7309 29.7359 16.491 29.7359C16.3196 29.7359 16.2846 29.8353 16.261 29.9014L15.9446 29.8432Z" fill="#005DA9"/>
<path d="M17.4886 29.4981H17.8384V30.8203H17.4886V29.4981ZM17.4886 28.9929H17.8384V29.3171H17.4886V28.9929Z" fill="#005DA9"/>
<path d="M18.5355 30.3893C18.576 30.5653 18.7063 30.601 18.8185 30.601C18.8492 30.601 19.0711 30.5984 19.0711 30.4557C19.0711 30.3788 19.0102 30.3612 18.9284 30.3432C18.5276 30.2561 18.2341 30.1874 18.2341 29.8733C18.2341 29.57 18.5122 29.4679 18.7903 29.4679C19.1041 29.4679 19.3011 29.5546 19.3774 29.8173L19.0456 29.8785C19.002 29.7231 18.8594 29.7179 18.7979 29.7179C18.7396 29.7179 18.5584 29.7208 18.5584 29.8278C18.5584 29.8661 18.5862 29.8942 18.6245 29.9093C18.6905 29.9348 18.8339 29.9705 18.9206 29.9911C19.1552 30.0474 19.4209 30.1161 19.4209 30.407C19.4209 30.6138 19.255 30.8513 18.8185 30.8513C18.6905 30.8513 18.4792 30.8281 18.326 30.69C18.2262 30.601 18.1981 30.4937 18.1857 30.443L18.5355 30.3893Z" fill="#005DA9"/>
<path d="M20.0307 30.3893C20.0716 30.5653 20.2015 30.601 20.3141 30.601C20.3445 30.601 20.567 30.5984 20.567 30.4557C20.567 30.3788 20.5055 30.3612 20.4237 30.3432C20.0232 30.2561 19.7297 30.1874 19.7297 29.8733C19.7297 29.57 20.0078 29.4679 20.2856 29.4679C20.5997 29.4679 20.7964 29.5546 20.873 29.8173L20.5415 29.8785C20.498 29.7231 20.3547 29.7179 20.2935 29.7179C20.2346 29.7179 20.0536 29.7208 20.0536 29.8278C20.0536 29.8661 20.0818 29.8942 20.1197 29.9093C20.1868 29.9348 20.3295 29.9705 20.4162 29.9911C20.6508 30.0474 20.9165 30.1161 20.9165 30.407C20.9165 30.6138 20.7503 30.8513 20.3141 30.8513C20.1868 30.8513 19.9744 30.8281 19.8213 30.69C19.7222 30.601 19.6937 30.4937 19.6813 30.443L20.0307 30.3893Z" fill="#005DA9"/>
<path d="M22.0598 30.0448C22.0522 29.7562 21.853 29.7359 21.7993 29.7359C21.6334 29.7359 21.5339 29.8713 21.5365 30.0448H22.0598ZM22.3889 30.4583C22.3608 30.5395 22.2508 30.8513 21.8121 30.8513C21.6975 30.8513 21.3909 30.8359 21.2506 30.5346C21.192 30.407 21.1714 30.2767 21.1714 30.1671C21.1714 29.8098 21.3605 29.4679 21.779 29.4679C22.2764 29.4679 22.4144 29.8684 22.4069 30.2587H21.529C21.5339 30.4174 21.6184 30.583 21.8173 30.583C21.9806 30.583 22.0215 30.4606 22.0395 30.3994L22.3889 30.4583Z" fill="#005DA9"/>
<path d="M23.5656 28.9931H23.9229L24.6653 30.2133H24.6705V28.9931H25.0128V30.8206H24.6427L23.9124 29.6285H23.9075V30.8206H23.5656V28.9931Z" fill="#005DA9"/>
<path d="M26.2042 30.1848C26.1688 30.1979 26.1381 30.208 26.0563 30.2257C26.0386 30.228 25.9516 30.2463 25.9365 30.2515C25.8724 30.264 25.7323 30.2996 25.7323 30.4224C25.7323 30.4966 25.7909 30.6036 25.9264 30.6036C26.0082 30.6036 26.0769 30.5676 26.1306 30.5218C26.2042 30.4583 26.2042 30.3739 26.2042 30.2542V30.1848ZM25.4186 29.8432C25.4771 29.6312 25.5969 29.4679 25.9902 29.4679C26.5464 29.4679 26.549 29.728 26.549 29.9656C26.549 30.0474 26.5438 30.4044 26.5464 30.4786C26.554 30.652 26.5716 30.7106 26.623 30.8206H26.2785C26.2706 30.8026 26.2631 30.7849 26.2529 30.7463L26.2323 30.6753C26.1636 30.744 26.036 30.8513 25.8213 30.8513C25.5563 30.8513 25.3826 30.69 25.3826 30.4606C25.3826 30.1364 25.6813 30.0778 25.8649 30.0421C26.0615 30.0065 26.1355 29.9859 26.2042 29.9577V29.9221C26.2042 29.8353 26.2042 29.7359 25.9647 29.7359C25.7935 29.7359 25.7579 29.8353 25.735 29.9014L25.4186 29.8432Z" fill="#005DA9"/>
<path d="M27.5699 29.7764H27.3323V30.3098C27.3323 30.4992 27.3323 30.5601 27.4292 30.5601C27.4753 30.5601 27.5162 30.5473 27.5597 30.5293L27.5699 30.5271L27.6006 30.7977C27.4854 30.8461 27.3604 30.8513 27.3248 30.8513C27.2175 30.8513 27.0797 30.8153 27.0287 30.7159C26.9851 30.6344 26.9802 30.5549 26.9802 30.3533V29.7764H26.8196V29.4983H26.9802V29.2356L27.3323 29.0288V29.4983H27.5699V29.7764Z" fill="#005DA9"/>
<path d="M27.8889 29.4981H28.2384V30.8203H27.8889V29.4981ZM27.8889 28.9929H28.2384V29.3171H27.8889V28.9929Z" fill="#005DA9"/>
<path d="M29.272 30.5653C29.4304 30.5653 29.5963 30.4505 29.5963 30.157C29.5963 29.8913 29.4507 29.7535 29.272 29.7535C29.1035 29.7535 28.9507 29.8812 28.9507 30.1593C28.9507 30.4403 29.1061 30.5653 29.272 30.5653ZM29.272 29.4679C29.7314 29.4679 29.9559 29.82 29.9559 30.1544C29.9559 30.5192 29.7007 30.8513 29.2746 30.8513C29.0652 30.8513 28.5905 30.7541 28.5905 30.1416C28.5905 29.8278 28.8025 29.4679 29.272 29.4679Z" fill="#005DA9"/>
<path d="M31.1609 30.1439C31.1609 29.927 31.1609 29.7359 30.9463 29.7359C30.8364 29.7359 30.7369 29.7944 30.6934 29.8913C30.6577 29.9679 30.6554 30.1138 30.6554 30.2208V30.8206H30.3053V29.4983H30.6322V29.6927H30.6374C30.7676 29.5137 30.9335 29.4679 31.0687 29.4679C31.1276 29.4679 31.2627 29.478 31.3723 29.5647C31.5127 29.6721 31.5075 29.8684 31.5104 29.9986V30.8206H31.1609V30.1439Z" fill="#005DA9"/>
<path d="M32.6845 30.1848C32.6485 30.1979 32.6181 30.208 32.5363 30.2257C32.5183 30.228 32.4316 30.2463 32.4162 30.2515C32.3527 30.264 32.212 30.2996 32.212 30.4224C32.212 30.4966 32.2709 30.6036 32.406 30.6036C32.4878 30.6036 32.5566 30.5676 32.6102 30.5218C32.6845 30.4583 32.6845 30.3739 32.6845 30.2542V30.1848ZM31.8985 29.8432C31.9571 29.6312 32.0769 29.4679 32.4702 29.4679C33.0264 29.4679 33.029 29.728 33.029 29.9656C33.029 30.0474 33.0238 30.4044 33.0264 30.4786C33.0339 30.652 33.0519 30.7106 33.1027 30.8206H32.7581C32.7509 30.8026 32.7434 30.7849 32.7329 30.7463L32.7126 30.6753C32.6436 30.744 32.516 30.8513 32.3013 30.8513C32.0356 30.8513 31.8625 30.69 31.8625 30.4606C31.8625 30.1364 32.161 30.0778 32.3452 30.0421C32.5412 30.0065 32.6155 29.9859 32.6845 29.9577V29.9221C32.6845 29.8353 32.6845 29.7359 32.4446 29.7359C32.2732 29.7359 32.2379 29.8353 32.2146 29.9014L31.8985 29.8432Z" fill="#005DA9"/>
<path d="M33.4423 28.9929H33.792V30.8203H33.4423V28.9929Z" fill="#005DA9"/>
<path d="M35.0221 30.0448C35.0145 29.7562 34.8156 29.7359 34.7616 29.7359C34.596 29.7359 34.4962 29.8713 34.4989 30.0448H35.0221ZM35.3512 30.4583C35.3231 30.5395 35.2132 30.8513 34.7747 30.8513C34.6599 30.8513 34.3533 30.8359 34.2129 30.5346C34.1543 30.407 34.134 30.2767 34.134 30.1671C34.134 29.8098 34.3228 29.4679 34.7413 29.4679C35.2387 29.4679 35.3764 29.8684 35.3692 30.2587H34.491C34.4962 30.4174 34.5807 30.583 34.7796 30.583C34.9429 30.583 34.9838 30.4606 35.0015 30.3994L35.3512 30.4583Z" fill="#005DA9"/>
</svg>