<svg id="cpam" width="120" height="56" viewBox="0 0 120 56" fill="none" xmlns="http://www.w3.org/2000/svg">
<path d="M27.0332 29.1903H41.4479V29.0112H27.0332V29.1903Z" fill="#95C11F"/>
<path d="M27.3232 25.1342H43.2304V24.9552H27.3232V25.1342Z" fill="#95C11F"/>
<path d="M27.0332 21.0762H43.4411V20.8978H27.0332V21.0762Z" fill="#95C11F"/>
<path d="M27.0332 17.0202H43.4411V16.8404H27.0332V17.0202Z" fill="#95C11F"/>
<path d="M27.0332 12.9628H43.4411V12.783H27.0332V12.9628Z" fill="#95C11F"/>
<path d="M21.8098 21.2486C21.88 21.1426 21.9351 20.989 21.9386 20.8244C21.9427 20.5799 21.818 20.4345 21.6293 20.4318C21.4592 20.429 21.3545 20.5261 21.2574 20.7741C21.1417 21.0744 20.9791 21.259 20.7209 21.2535C20.4323 21.2493 20.2222 21.0069 20.2284 20.646C20.2318 20.4593 20.2787 20.3202 20.3262 20.241L20.5197 20.3106C20.4839 20.367 20.4288 20.491 20.4261 20.6584C20.4219 20.9105 20.5714 21.0096 20.6974 21.0117C20.871 21.0145 20.9585 20.9036 21.0618 20.6494C21.1906 20.3381 21.3421 20.1838 21.6135 20.1894C21.8993 20.1942 22.1466 20.4077 22.139 20.8443C22.1355 21.0227 22.077 21.2176 22.0088 21.3148L21.8098 21.2486Z" fill="#005DA9"/>
<path d="M21.4455 18.5322L21.3456 19.2423L22.0068 19.3353L22.1184 18.5405L22.3174 18.5687L22.1721 19.6032L20.3373 19.3449L20.4764 18.3511L20.6755 18.3786L20.5701 19.1335L21.1486 19.2148L21.2485 18.504L21.4455 18.5322ZM20.0453 18.3786L20.3173 18.7754L20.2898 18.9689L20.0046 18.6672L20.0453 18.3786Z" fill="#005DA9"/>
<path d="M22.7238 16.758C22.7424 16.8524 22.7369 17.0356 22.6763 17.2532C22.5358 17.756 22.1136 18.0439 21.5247 17.8793C20.9641 17.7223 20.6934 17.2388 20.8483 16.6857C20.9096 16.466 20.9971 16.3365 21.046 16.2835L21.2175 16.3951C21.1507 16.4674 21.0853 16.5831 21.0433 16.7319C20.9269 17.1499 21.117 17.5026 21.5853 17.6334C22.0247 17.756 22.3739 17.5825 22.4938 17.1506C22.5337 17.0074 22.5447 16.8558 22.5254 16.7512L22.7238 16.758Z" fill="#005DA9"/>
<path d="M21.3538 15.3282L22.3594 15.7731C22.7368 15.9398 22.9724 15.8434 23.0722 15.6175C23.1831 15.3681 23.0888 15.1312 22.7168 14.9659L21.712 14.5217L21.8098 14.3006L22.8002 14.7386C23.3202 14.9694 23.4104 15.3358 23.2472 15.7036C23.0943 16.0507 22.7823 16.2249 22.254 15.9915L21.2567 15.5493L21.3538 15.3282Z" fill="#005DA9"/>
<path d="M23.1231 13.7365L23.2533 13.5292C23.389 13.3129 23.3573 13.1008 23.1782 12.9872C22.9751 12.8611 22.7939 12.9513 22.6596 13.1655C22.5983 13.2633 22.5653 13.337 22.5529 13.3784L23.1231 13.7365ZM22.2836 13.4913C22.3263 13.3763 22.4069 13.2179 22.4923 13.0801C22.6286 12.8639 22.7595 12.7489 22.9096 12.7062C23.026 12.671 23.1617 12.6931 23.285 12.7702C23.4896 12.8983 23.544 13.118 23.4978 13.3157L23.504 13.3198C23.6204 13.2275 23.7781 13.2255 23.9648 13.2888C24.2176 13.3749 24.3911 13.4328 24.4717 13.4404L24.3388 13.6497C24.2795 13.6477 24.1225 13.5974 23.9007 13.5175C23.6549 13.4273 23.5199 13.4624 23.3966 13.6415L23.276 13.8322L23.9565 14.26L23.8291 14.4624L22.2836 13.4913Z" fill="#005DA9"/>
<path d="M23.5544 11.6062L25.0077 12.7557L24.8569 12.9458L23.4043 11.7963L23.5544 11.6062Z" fill="#005DA9"/>
<path d="M24.4717 10.8617L24.0812 11.2688L23.9338 11.1283L24.8829 10.1372L25.0296 10.2777L24.6391 10.6868L25.8299 11.8273L25.6633 12.0023L24.4717 10.8617Z" fill="#005DA9"/>
<path d="M25.7742 8.82096L25.7081 9.29757L25.5572 9.42155L25.5497 9.00692L25.7742 8.82096ZM26.7047 9.87887L26.1516 10.3355L26.5773 10.8514L27.1964 10.3389L27.3232 10.4939L26.5187 11.1592L25.3375 9.73148L26.1124 9.09164L26.2398 9.24661L25.653 9.73148L26.0263 10.1826L26.5786 9.72528L26.7047 9.87887Z" fill="#005DA9"/>
<path d="M28.4306 9.40778C28.5567 9.41742 28.7178 9.39056 28.8625 9.31205C29.0781 9.19496 29.1435 9.01658 29.0533 8.84921C28.9734 8.69907 28.8377 8.65705 28.5732 8.69356C28.2543 8.74039 28.0139 8.68943 27.8914 8.46145C27.7536 8.20731 27.8631 7.90495 28.1792 7.73414C28.3439 7.64529 28.4878 7.61705 28.5808 7.6205L28.6152 7.82299C28.5477 7.81954 28.4134 7.83263 28.2667 7.91184C28.0436 8.03237 28.0312 8.21144 28.0918 8.32301C28.1737 8.47454 28.3129 8.49658 28.5842 8.46214C28.9196 8.4215 29.1276 8.47798 29.2571 8.71697C29.3928 8.96905 29.3281 9.28863 28.9437 9.49594C28.786 9.58135 28.5877 9.62474 28.4699 9.61441L28.4306 9.40778Z" fill="#005DA9"/>
<path d="M30.5375 8.54824C30.8922 8.41394 30.9693 8.01171 30.8205 7.61707C30.6904 7.27269 30.3742 6.98136 30.0009 7.12255C29.6283 7.26305 29.5746 7.67974 29.7165 8.0551C29.8542 8.42014 30.1828 8.68117 30.534 8.54893L30.5375 8.54824ZM30.5953 8.73352C30.1352 8.90777 29.6821 8.67428 29.4844 8.14946C29.2764 7.59847 29.4796 7.11015 29.9424 6.93521C30.419 6.75545 30.8619 7.00271 31.0554 7.51789C31.2806 8.11158 31.0382 8.56684 30.5981 8.73283L30.5953 8.73352Z" fill="#005DA9"/>
<path d="M33.0845 7.95661C33.0094 8.01722 32.8448 8.09849 32.6251 8.14739C32.1141 8.25896 31.6622 8.01997 31.5314 7.42421C31.4067 6.85531 31.707 6.38903 32.2683 6.26575C32.4908 6.21753 32.6465 6.23406 32.7146 6.25266L32.6981 6.45584C32.6024 6.43242 32.4701 6.42691 32.3186 6.46066C31.895 6.55295 31.6726 6.88699 31.7773 7.36153C31.8751 7.80784 32.1912 8.03374 32.6292 7.93732C32.7739 7.90564 32.913 7.84434 32.997 7.77891L33.0845 7.95661Z" fill="#005DA9"/>
<path d="M33.6776 6.0853L33.8835 7.927L33.6425 7.95386L33.4365 6.11216L33.6776 6.0853Z" fill="#005DA9"/>
<path d="M35.4531 7.08741L35.2671 6.55433C35.2285 6.43449 35.2003 6.3236 35.1721 6.21684H35.1638C35.1397 6.32429 35.1094 6.44 35.0743 6.55226L34.8959 7.08948L35.4531 7.08741ZM34.8463 7.27613L34.6569 7.86018L34.4089 7.86087L35.0316 6.00609L35.3195 6.00471L35.9593 7.85467L35.7038 7.85605L35.5027 7.27337L34.8463 7.27613Z" fill="#005DA9"/>
<path d="M36.6694 6.06599L36.9084 6.09561L36.7039 7.7355L37.4904 7.8333L37.4656 8.03304L36.4401 7.90493L36.6694 6.06599Z" fill="#005DA9"/>
<path d="M39.0504 7.50553L38.3527 7.33541L38.1936 7.98489L38.9739 8.17499L38.9264 8.37059L37.9119 8.12195L38.352 6.32227L39.3272 6.56058L39.279 6.7548L38.5393 6.57435L38.3995 7.14325L39.0972 7.31337L39.0504 7.50553Z" fill="#005DA9"/>
<path d="M59.9378 37.9947C59.9378 38.7172 59.7278 39.1015 59.1072 39.1015C58.57 39.1015 58.2766 38.753 58.2766 37.9224V35.3968C58.2766 34.5661 58.57 34.2183 59.1072 34.2183C59.6423 34.2183 59.9378 34.5661 59.9378 35.3968V37.9947ZM61.4517 38.149V30.5921H59.9399V33.1549C59.8469 33.075 59.539 32.9228 59.1072 32.9228C57.3936 32.9228 56.7765 34.0206 56.7765 35.6013V37.7178C56.7765 39.2978 57.3936 40.3963 59.1072 40.3963C60.3958 40.3963 61.4517 39.7854 61.4517 38.149Z" fill="#005DA9"/>
<path d="M40.6311 30.5921V40.2627H39.1365V32.7024H39.109L37.6082 40.2627H36.8038L35.3023 32.7024H35.2761V40.2627H33.7809V30.5921H36.0124L37.1929 36.2411H37.2191L38.3982 30.5921H40.6311Z" fill="#005DA9"/>
<path d="M62.8402 33.0555H64.3396V40.2625H62.8402V33.0555Z" fill="#005DA9"/>
<path d="M64.4649 31.347C64.4649 31.8305 64.0737 32.2217 63.5902 32.2217C63.1067 32.2217 62.7148 31.8305 62.7148 31.347C62.7148 30.8635 63.1067 30.4716 63.5902 30.4716C64.0737 30.4716 64.4649 30.8635 64.4649 31.347Z" fill="#005DA9"/>
<path d="M54.0112 38.4465C53.6958 38.753 53.4196 39.1201 52.9485 39.1201C52.527 39.1201 52.2246 38.8136 52.2246 38.2709C52.2246 37.2557 53.0077 37.0195 54.0112 36.7963V38.4465ZM55.5154 39.4989V34.8782C55.5154 33.5654 54.7247 32.9228 53.3321 32.9228C51.9257 32.9228 51.0014 33.7128 50.9215 35.1723H52.4216C52.4485 34.5565 52.5958 34.155 53.2784 34.155C53.775 34.155 54.0153 34.4753 54.0153 35.0786L54.0167 35.6413C51.7873 35.9457 50.7445 37.0773 50.7445 38.4796C50.7445 39.4679 51.3127 40.4005 52.4471 40.4005C53.2336 40.4005 53.4857 40.2008 54.0897 39.7262C54.1001 39.8626 54.1297 40.0251 54.1751 40.2627H55.6091C55.5691 40.021 55.5154 39.7262 55.5154 39.4989Z" fill="#005DA9"/>
<path d="M44.9427 38.4465C44.6286 38.753 44.3531 39.1201 43.8813 39.1201C43.4591 39.1201 43.1567 38.8136 43.1567 38.2709C43.1567 37.2557 43.9398 37.0195 44.9427 36.7963V38.4465ZM46.4482 39.4989V34.8782C46.4482 33.5654 45.6576 32.9228 44.2642 32.9228C42.8585 32.9228 41.9342 33.7128 41.8536 35.1723H43.3544C43.3806 34.5565 43.5287 34.155 44.2112 34.155C44.7078 34.155 44.9475 34.4753 44.9475 35.0786L44.9488 35.6413C42.7187 35.9457 41.6766 37.0773 41.6766 38.4796C41.6766 39.4679 42.2448 40.4005 43.3806 40.4005C44.1658 40.4005 44.4178 40.2008 45.0225 39.7262C45.0322 39.8626 45.0618 40.0251 45.1079 40.2627H46.5412C46.502 40.021 46.4482 39.7262 46.4482 39.4989Z" fill="#005DA9"/>
<path d="M49.9719 39.1263C49.2032 39.1249 49.1502 38.702 49.1502 38.1751V30.5921H47.6494V38.1187C47.6494 39.3371 48.1901 40.3591 49.9801 40.3591H50.1282V39.1263H49.9719Z" fill="#005DA9"/>
<path d="M67.0973 35.3341C67.0973 34.5035 67.3914 34.1556 67.9272 34.1556C68.4637 34.1556 68.7578 34.5035 68.7578 35.3341V35.7088H67.0973V35.3341ZM70.2586 36.9416V35.6013C70.2586 34.0207 69.6429 32.9228 67.9272 32.9228C66.2129 32.9228 65.5979 34.0207 65.5979 35.6013V37.7178C65.5979 39.2978 66.2129 40.3963 67.9272 40.3963C69.4803 40.3963 70.1339 39.4968 70.2428 38.149C70.2428 38.149 70.2517 38.0209 70.2448 37.9623H68.7565L68.7537 38.1483C68.7165 38.8618 68.4272 39.1649 67.9272 39.1649C67.3914 39.1649 67.0973 38.8164 67.0973 37.9857V36.9416H70.2586Z" fill="#005DA9"/>
<path d="M54.3204 25.7089H55.7054L55.0194 21.4497H54.9926L54.3204 25.7089ZM53.8004 29.1905H52.1942L53.9753 19.5212H56.0381L57.8199 29.1905H56.2123L55.9052 26.9776H54.1192L53.8004 29.1905Z" fill="#005DA9"/>
<path d="M74.6335 29.1905V21.9863H76.0668V22.5992H76.0937C76.4546 21.9842 77.3059 21.8506 77.7949 21.8506H78.1027V23.4181C77.8348 23.3513 77.5807 23.2708 77.1371 23.2708C76.6295 23.2708 76.1343 23.5917 76.1343 24.2357V29.1905H74.6335Z" fill="#005DA9"/>
<path fill-rule="evenodd" clip-rule="evenodd" d="M73.3139 21.9863V26.6456C73.3139 28.2256 72.6975 29.3255 70.9825 29.3255C69.2696 29.3255 68.6532 28.2256 68.6532 26.6456V21.9863H70.154V26.9142C70.154 27.7442 70.4481 28.0927 70.9825 28.0927C71.5197 28.0927 71.8138 27.7442 71.8138 26.9142V21.9863H73.3139Z" fill="#005DA9"/>
<path d="M84.2842 29.1905V24.5305C84.2842 23.0001 84.8999 21.8506 86.6149 21.8506C88.3292 21.8506 88.9456 23.0001 88.9456 24.5305V29.1905H87.4448V24.2722C87.4448 23.5001 87.1335 23.1378 86.6149 23.1378C86.0956 23.1378 85.7836 23.5001 85.7836 24.2722V29.1905H84.2842Z" fill="#005DA9"/>
<path d="M81.5959 27.3756C81.2832 27.6814 81.0064 28.0478 80.5346 28.0478C80.1124 28.0478 79.8107 27.742 79.8107 27.1993C79.8107 26.1834 80.5938 25.9472 81.5959 25.7233V27.3756ZM83.1022 28.4273V23.8059C83.1022 22.4938 82.3108 21.8505 80.9182 21.8505C79.5118 21.8505 78.5875 22.6405 78.5076 24.1014H80.0084C80.0346 23.4849 80.1819 23.0827 80.8652 23.0827C81.3611 23.0827 81.6014 23.4037 81.6014 24.007L81.6028 24.5697C79.3727 24.8741 78.3313 26.0057 78.3313 27.408C78.3313 28.3957 78.8988 29.3289 80.0346 29.3289C80.819 29.3289 81.0718 29.1285 81.6751 28.6553C81.6862 28.791 81.7165 28.9535 81.7612 29.1905H83.1938C83.1559 28.9494 83.1022 28.6546 83.1022 28.4273Z" fill="#005DA9"/>
<path d="M49.9719 28.0569C49.2032 28.0548 49.1502 27.6319 49.1502 27.105V19.522H47.6494V27.0493C47.6494 28.2663 48.1901 29.289 49.9801 29.289H50.1282V28.0569H49.9719Z" fill="#005DA9"/>
<path d="M59.7926 23.6593C59.7926 23.2846 60.0729 23.0835 60.4793 23.0835C60.9896 23.0835 61.1997 23.3631 61.2865 23.9809L62.624 23.8652C62.4877 22.9354 62.0207 21.8506 60.4083 21.8506C59.234 21.8506 58.3111 22.6413 58.3111 23.7798C58.3111 25.7489 61.2541 26.2179 61.2541 27.4632C61.2541 27.8654 60.9607 28.0934 60.5482 28.0934C59.8353 28.0934 59.6115 27.5575 59.5137 26.9549L58.1259 27.1767C58.2891 28.5466 59.1638 29.3255 60.5351 29.3255C61.8141 29.3255 62.7377 28.6692 62.7377 27.3833C62.7377 25.2399 59.7926 24.784 59.7926 23.6593Z" fill="#005DA9"/>
<path d="M64.8927 23.6593C64.8927 23.2846 65.1723 23.0835 65.5773 23.0835C66.0814 23.0835 66.2915 23.3631 66.3783 23.9809L67.7158 23.8652C67.5808 22.9354 67.1125 21.8506 65.5077 21.8506C64.3334 21.8506 63.4091 22.6413 63.4091 23.7798C63.4091 25.7489 66.3466 26.2179 66.3466 27.4632C66.3466 27.8654 66.0532 28.0934 65.6461 28.0934C64.9347 28.0934 64.7108 27.5575 64.613 26.9549L63.2252 27.1767C63.3885 28.5466 64.2632 29.3255 65.6337 29.3255C66.9059 29.3255 67.8288 28.6692 67.8288 27.3833C67.8288 25.2399 64.8927 24.784 64.8927 23.6593Z" fill="#005DA9"/>
<path d="M97.0308 24.2619C97.0308 23.4313 97.3256 23.0835 97.8621 23.0835C98.398 23.0835 98.692 23.4313 98.692 24.2619V24.6373H97.0308V24.2619ZM100.192 25.8701V24.5305C100.192 22.9499 99.5785 21.8506 97.8621 21.8506C96.1471 21.8506 95.5321 22.9499 95.5321 24.5305V26.6463C95.5321 28.227 96.1471 29.3255 97.8621 29.3255C99.4138 29.3255 100.068 28.426 100.177 27.0782C100.177 27.0782 100.185 26.9494 100.179 26.8908H98.6907L98.6886 27.0768C98.6507 27.7897 98.3621 28.0934 97.8621 28.0934C97.3256 28.0934 97.0308 27.7456 97.0308 26.9143V25.8701H100.192Z" fill="#005DA9"/>
<path d="M50.6797 19.522V20.8933H51.1157C50.9779 21.2404 50.6845 21.9863 50.6845 21.9863H51.4173L52.051 20.8933V19.522H50.6797Z" fill="#005DA9"/>
<path d="M93.1683 26.8054L93.1669 27.0768C93.1297 27.7896 92.8404 28.0934 92.3411 28.0934C91.8039 28.0934 91.5105 27.7456 91.5105 26.9142V24.2619C91.5105 23.4313 91.8039 23.0835 92.3411 23.0835C92.8769 23.0835 93.1717 23.4313 93.1717 24.2619V24.5298L94.6711 24.5305C94.6711 22.9498 94.0554 21.8506 92.3411 21.8506C90.6261 21.8506 90.0104 22.9498 90.0104 24.5305V26.6463C90.0104 28.227 90.6261 29.3255 92.3411 29.3255C94.1711 29.3255 94.6615 28.0341 94.6615 26.8054H93.1683Z" fill="#005DA9"/>
<path fill-rule="evenodd" clip-rule="evenodd" d="M27.9354 17.6203C28.1572 18.1155 27.9857 18.8242 27.6717 19.1776C28.2282 19.8842 29.6208 19.5894 30.3688 19.3876C30.5719 19.3477 30.7331 18.9833 30.9266 19.1245C30.9769 19.1659 31.3103 18.8112 31.2696 19.1459C31.2696 19.3477 31.1794 19.564 30.97 19.6418C30.813 19.6996 30.3626 19.8339 30.3626 19.8339C29.5636 20.086 29.129 20.1976 28.3294 20.5826C27.9609 20.7775 28.056 21.4862 28.1076 21.7438C28.1579 22.0014 28.4052 22.9264 28.1882 23.3865C28.0098 23.7625 27.39 24.111 27.3789 24.5759C27.3789 24.7784 27.715 25.0236 27.5208 25.1882C27.3955 25.295 27.3025 25.3122 27.226 25.2413C27.226 25.2413 26.6261 24.6235 26.7012 24.412C26.6964 24.3301 27.3755 23.3562 27.0848 22.9168C26.923 23.0683 26.9044 23.4801 26.5772 23.6303C26.423 23.7005 26.2005 23.5222 26.0683 23.5972C26.0159 23.6282 26.0221 23.8362 25.9725 23.8858C25.9229 23.9368 25.7053 23.9292 25.6585 23.8362C25.5324 23.5828 25.582 23.1495 25.6288 22.9367C25.6977 22.6206 26.3562 22.967 26.1426 22.5173C26.0641 22.3527 25.9636 22.1371 25.9711 21.7907C25.9773 21.5248 26.1984 21.2183 25.9801 21.084C25.7363 20.9614 25.1584 20.7052 25.1474 20.4022C25.0792 19.6817 26.4168 19.6817 26.7212 19.0343C26.7212 18.7223 26.33 18.4571 26.4078 17.9647C26.4464 17.7147 26.6406 17.4289 26.9622 17.3855C27.3645 17.3304 27.6117 17.3779 27.9354 17.6203Z" fill="#005DA9"/>
<path fill-rule="evenodd" clip-rule="evenodd" d="M45.5157 17.7973C45.5666 17.4537 45.3566 16.6533 45.4633 16.3248L46.0735 16.6423C45.9434 16.8572 45.6851 17.3366 45.5157 17.7973ZM46.7003 16.1602C45.8821 15.6333 45.172 14.7042 44.2511 14.8571C43.7662 14.8158 44.1616 14.3006 44.0293 14.0988C43.8069 13.7041 43.7821 13.5554 42.917 13.6387C42.6787 13.6621 42.4886 13.7496 42.4005 13.9569C42.3226 14.1883 42.3943 14.1332 42.3385 14.3488C42.2682 14.5637 42.0127 14.6636 42.2593 14.8261C42.2793 14.8964 42.2772 15.0176 42.2593 15.2407C42.2462 15.3964 42.4418 15.3819 42.5224 15.4322C41.5409 16.1506 39.7757 16.0211 38.9113 15.457C38.7515 15.353 38.1936 15.3757 38.1923 15.4391C38.1936 15.5844 38.5552 15.6161 38.6861 15.7676C38.6262 15.7883 38.5208 15.7642 38.5669 15.8544C38.6117 15.9446 39.2729 16.0665 39.275 16.0665C39.7819 16.4102 40.5705 16.5748 41.1855 16.696C42.4397 16.882 42.7931 16.8131 42.957 17.6155C43.123 18.4275 42.9294 19.1762 42.7442 20.2837C42.5933 21.2741 42.7993 21.8898 42.957 22.8603C42.9866 23.04 43.0796 23.3362 42.9914 23.4126C42.8172 23.5662 42.3591 23.6985 42.1622 23.8707C42.0768 24.1537 42.8723 23.9719 43.4019 23.9994C43.6547 24.0194 43.7153 23.7494 43.7153 23.5876C43.7621 22.0717 43.8069 21.5971 44.0493 20.6473C44.1919 21.4663 44.2091 22.8437 44.3909 23.6737C44.1836 23.9189 43.6299 24.1393 43.7669 24.2729C43.9281 24.4244 44.2029 24.3989 44.3475 24.3624C44.6857 24.2805 44.8758 24.1751 45.1217 23.9519C45.1217 23.9519 45.6259 20.626 45.5363 18.9792C45.486 18.0625 46.3869 17.5349 46.8422 16.716C46.9524 16.5039 46.9475 16.3193 46.7003 16.1602Z" fill="#005DA9"/>
<path fill-rule="evenodd" clip-rule="evenodd" d="M35.6962 13.2345C36.0516 13.2992 36.8815 13.5347 36.9786 13.554C37.0757 13.574 37.3202 13.802 37.3953 13.8199C37.4359 13.8295 37.4483 13.8357 37.4835 13.7717C37.5172 13.7083 37.6591 13.8082 37.8044 13.7648C37.8995 13.7365 37.9904 13.4817 37.967 13.4528C37.874 13.3412 37.3905 13.211 37.157 13.2097C36.8843 13.1187 36.2499 12.8591 35.7726 12.7076C34.6934 12.3659 33.5673 11.8494 32.5342 12.4644C32.1023 12.2867 32.0947 11.7261 31.3482 11.7847C30.9928 11.8122 30.7359 12.0877 30.6505 12.3329C30.5637 12.5788 30.5286 12.8846 30.6883 13.1883C30.7765 13.3557 30.9487 13.4376 31.1202 13.4955C31.2056 13.5244 31.2965 13.5437 31.3819 13.574C31.5045 13.6167 31.5279 13.7152 31.667 13.6952C31.771 13.6794 31.8571 13.6635 31.9653 13.6697C32.0631 13.6759 32.3145 13.7152 32.3565 13.5823C32.3585 13.5823 32.362 13.5823 32.3654 13.583C32.3744 13.8295 32.3269 14.1925 32.1994 14.2538C32.0279 14.2944 31.9522 14.187 31.5355 14.0665C31.1236 13.948 30.1511 13.8247 30.1332 14.5692C30.1022 15.7642 30.2455 16.1485 29.4197 17.1617C29.2771 17.3366 29.036 17.3469 29.1772 17.5301C29.2888 17.6438 29.47 17.5577 29.556 17.4867C29.7661 18.0212 30.4762 17.2264 30.6319 17.1038C30.9521 16.8531 30.5892 16.6341 30.7414 16.3923C31.0024 15.8847 31.4053 15.6781 31.4907 15.2986C31.9067 15.623 32.4123 15.8765 32.9295 15.8351C33.1423 15.7945 33.3372 15.7146 33.5776 15.4708C33.8187 15.227 33.8834 14.4508 33.9048 13.9129C33.9488 12.8198 34.703 13.0533 35.6962 13.2345Z" fill="#005DA9"/>
<path d="M42.8666 28.8172C42.4375 28.7153 41.9534 28.4109 41.7109 28.0369C41.5415 27.7745 41.421 27.4783 41.2832 27.1753C40.8169 26.1552 40.549 25.036 40.2467 24.6621C39.7136 24.0015 38.6729 23.0807 37.9717 22.6254C37.7637 22.4904 37.5723 22.3933 37.3994 22.3183C37.5695 21.4925 37.5303 20.6143 37.5303 20.6143C37.5303 20.4463 37.5337 20.4414 37.5929 20.3712C37.7734 20.2286 37.8925 20.0544 37.8388 19.783C37.8326 19.7444 37.6832 19.4207 37.6398 19.3505C37.8912 19.451 38.9993 19.7134 39.3203 19.6907C39.8727 19.6528 41.1847 18.7423 41.3824 18.6039C41.5263 18.5192 41.609 18.4978 41.6841 18.4772C41.7605 18.4558 41.9499 18.336 41.9933 18.2182C42.0112 18.1658 41.954 17.7857 41.8225 17.7622C41.7653 17.7567 41.6159 17.849 41.5635 17.8339C41.5318 17.8249 41.4974 17.765 41.4699 17.7664C41.3975 17.7636 41.3239 17.8793 41.2887 17.9351C41.2412 18.0088 41.2254 18.1424 41.1758 18.2044C41.0855 18.3194 39.8128 18.679 39.3906 18.878C39.3175 18.9124 39.2411 18.94 39.166 18.9166C38.832 18.8133 37.4862 18.0412 36.9545 18.1514C36.7864 18.1865 36.524 18.2816 36.4097 18.1576C36.3491 18.0915 36.3153 17.9861 36.3663 17.8814C36.4228 17.7622 36.7038 17.7464 36.7582 17.6093C36.8174 17.4578 36.7196 17.1561 36.7203 17.1389C36.7231 17.0811 36.7899 17.0528 36.7837 17.0019C36.7768 16.9475 36.7072 16.8889 36.6301 16.7794C36.5488 16.6685 36.5254 16.3861 36.4517 16.2628C36.4689 16.2236 36.5192 15.9674 36.2196 15.7924C35.92 15.6203 35.4255 15.581 35.1479 15.8248C34.9909 15.9646 34.7815 15.9109 34.6148 15.9977C34.2994 16.1637 34.5019 16.4956 33.9798 16.9674C33.7532 17.172 33.8868 17.568 33.9405 17.6569C33.7195 18.0701 34.1107 18.557 34.4626 18.4744C34.5783 18.5853 34.6513 18.6349 34.7794 18.6287C34.7815 18.6411 34.7856 18.6535 34.7904 18.6666C34.7112 18.6955 34.5411 18.7809 34.4667 18.8188C34.267 18.9235 34.1499 19.0516 33.9653 19.2306C33.3751 19.805 32.4983 20.6963 30.4073 21.7425C30.1697 21.8878 29.4878 21.8251 29.4878 21.9732C29.5312 22.0448 29.6793 22.1192 29.6793 22.1192C29.6834 22.2039 29.4279 22.2377 29.2895 22.268C29.1689 22.3362 29.4017 22.4319 29.492 22.5152C29.9562 22.5986 30.1959 22.4946 30.5898 22.1647C32.1794 21.5476 33.3613 20.9442 34.6493 20.106C34.9227 19.929 35.077 20.1212 35.2974 20.938C35.3821 21.2548 34.9606 21.5138 34.7994 21.9629C34.6176 22.465 34.6396 22.841 34.7746 23.133C34.6265 23.4581 34.1699 23.8893 34.1699 23.8893C34.1699 23.8893 33.0879 24.7853 32.541 25.3267C32.0672 25.7964 31.4941 25.6876 31.0526 25.8983C30.6036 26.1153 30.1959 26.4569 29.815 26.7717C29.5367 27.0017 29.2585 27.2063 28.8886 27.3592C28.7454 27.4177 28.6751 27.4363 28.5229 27.457C28.3321 27.4831 28.2171 27.6595 28.2336 27.8213C28.2481 27.9701 28.3817 28.3048 28.525 28.5927C28.6021 28.7511 28.7784 29.1189 29.0071 29.165C29.1614 29.1981 29.4878 29.2635 29.5608 29.1223C29.6579 28.935 29.2433 28.882 29.2137 28.6375C29.1951 28.4811 29.1786 28.2249 29.2302 28.0755C29.3198 27.8172 29.6903 27.6381 29.9121 27.5183C30.5981 27.1457 32.6264 26.6684 33.2311 26.4865C34.1051 26.1043 34.7953 25.7909 35.3628 25.419C35.8663 25.1146 36.2733 24.6317 36.5874 24.2302C37.3367 24.6028 38.4408 25.067 39.1736 25.3473C39.6048 25.5126 39.3706 25.7895 39.6109 26.4108C39.7824 26.855 40.091 27.1794 41.1138 28.3875C41.2605 28.5879 41.1035 28.7256 41.1351 28.9481C41.1716 29.1891 41.2894 29.1967 41.5119 29.1919C41.7185 29.185 41.9265 29.1919 42.1331 29.1919C42.3969 29.1919 42.7282 29.1933 42.9913 29.1905C43.0884 29.1891 43.2806 29.1582 43.2806 29.017C43.2806 28.8606 42.9982 28.8489 42.8666 28.8172Z" fill="#005DA9"/>
<path d="M50.8527 48.7542C50.7728 49.0545 50.5153 49.9953 49.2576 49.9953C48.2156 49.9953 47.5068 49.2377 47.5068 48.0393C47.5068 46.9704 48.0496 46.0192 49.3003 46.0192C49.5159 46.0192 50.0524 46.0406 50.4767 46.46C50.6709 46.6536 50.7673 46.8788 50.8424 47.1474L50.0745 47.3306C49.978 46.9111 49.6605 46.6859 49.2631 46.6859C48.3072 46.6859 48.3072 47.7383 48.3072 47.9863C48.3072 48.3458 48.3505 48.706 48.511 48.9526C48.6508 49.1682 48.9084 49.3286 49.2521 49.3286C49.768 49.3286 50.0049 48.9367 50.1013 48.518L50.8527 48.7542Z" fill="#005DA9"/>
<path d="M53.2171 48.5924C53.142 48.6199 53.0772 48.6413 52.9057 48.6785C52.8679 48.6833 52.6853 48.7218 52.653 48.7329C52.518 48.759 52.2232 48.8341 52.2232 49.0924C52.2232 49.2487 52.3465 49.474 52.6309 49.474C52.8031 49.474 52.9484 49.3982 53.0614 49.3018C53.2171 49.1682 53.2171 48.9905 53.2171 48.7384V48.5924ZM51.562 47.8733C51.6853 47.427 51.9388 47.0833 52.7659 47.0833C53.9368 47.0833 53.9423 47.6309 53.9423 48.1309C53.9423 48.3031 53.9313 49.0545 53.9368 49.2109C53.9526 49.5759 53.9905 49.6992 54.098 49.9306H53.3727C53.3562 49.8927 53.3403 49.8555 53.3183 49.7742L53.2756 49.6248C53.131 49.7694 52.8624 49.9953 52.4112 49.9953C51.8527 49.9953 51.4869 49.6558 51.4869 49.173C51.4869 48.4904 52.1158 48.3671 52.5021 48.2921C52.9161 48.217 53.0717 48.1736 53.2171 48.1144V48.0393C53.2171 47.8568 53.2171 47.6474 52.7122 47.6474C52.3513 47.6474 52.2776 47.8568 52.228 47.9959L51.562 47.8733Z" fill="#005DA9"/>
<path d="M54.8123 47.1471H55.5485V49.9303H54.8123V47.1471ZM54.8123 46.0837H55.5485V46.7662H54.8123V46.0837Z" fill="#005DA9"/>
<path d="M57.0156 49.0228C57.101 49.3934 57.3751 49.4684 57.6113 49.4684C57.6761 49.4684 58.143 49.4629 58.143 49.1626C58.143 49.0008 58.0149 48.9636 57.8427 48.9257C56.999 48.7425 56.3812 48.5979 56.3812 47.9367C56.3812 47.2982 56.9667 47.0833 57.5521 47.0833C58.2126 47.0833 58.6272 47.2658 58.7877 47.8189L58.0893 47.9477C57.9977 47.6205 57.6974 47.6095 57.5679 47.6095C57.4453 47.6095 57.0638 47.6157 57.0638 47.8409C57.0638 47.9215 57.1223 47.9808 57.2029 48.0124C57.342 48.0662 57.6437 48.1412 57.8262 48.1846C58.32 48.3031 58.8793 48.4477 58.8793 49.06C58.8793 49.4953 58.5301 49.9953 57.6113 49.9953C57.342 49.9953 56.8971 49.9464 56.5748 49.6558C56.3647 49.4684 56.3055 49.2425 56.2793 49.1358L57.0156 49.0228Z" fill="#005DA9"/>
<path d="M60.1631 49.0228C60.2492 49.3934 60.5226 49.4684 60.7595 49.4684C60.8236 49.4684 61.2919 49.4629 61.2919 49.1626C61.2919 49.0008 61.1624 48.9636 60.9902 48.9257C60.1472 48.7425 59.5294 48.5979 59.5294 47.9367C59.5294 47.2982 60.1149 47.0833 60.6996 47.0833C61.3608 47.0833 61.7747 47.2658 61.9359 47.8189L61.2382 47.9477C61.1466 47.6205 60.8449 47.6095 60.7161 47.6095C60.5922 47.6095 60.2113 47.6157 60.2113 47.8409C60.2113 47.9215 60.2705 47.9808 60.3504 48.0124C60.4916 48.0662 60.7919 48.1412 60.9744 48.1846C61.4682 48.3031 62.0275 48.4477 62.0275 49.06C62.0275 49.4953 61.6776 49.9953 60.7595 49.9953C60.4916 49.9953 60.0446 49.9464 59.7223 49.6558C59.5136 49.4684 59.4537 49.2425 59.4275 49.1358L60.1631 49.0228Z" fill="#005DA9"/>
<path d="M64.4339 48.2976C64.4181 47.6901 63.9986 47.6474 63.8857 47.6474C63.5365 47.6474 63.3271 47.9325 63.3326 48.2976H64.4339ZM65.1268 49.1682C65.0675 49.339 64.8361 49.9953 63.9125 49.9953C63.6715 49.9953 63.0261 49.963 62.7306 49.3286C62.6074 49.06 62.564 48.7859 62.564 48.5552C62.564 47.8031 62.9621 47.0833 63.843 47.0833C64.8898 47.0833 65.1805 47.9263 65.1647 48.748H63.3168C63.3271 49.0821 63.5048 49.4306 63.9235 49.4306C64.2672 49.4306 64.3533 49.173 64.3912 49.0442L65.1268 49.1682Z" fill="#005DA9"/>
<path d="M67.6036 46.084H68.3557L69.9185 48.6523H69.9295V46.084H70.65V49.9306H69.871L68.3337 47.4215H68.3234V49.9306H67.6036V46.084Z" fill="#005DA9"/>
<path d="M73.1575 48.5924C73.0831 48.6199 73.0184 48.6413 72.8462 48.6785C72.809 48.6833 72.6258 48.7218 72.5941 48.7329C72.4591 48.759 72.1644 48.8341 72.1644 49.0924C72.1644 49.2487 72.2876 49.474 72.5728 49.474C72.745 49.474 72.8896 49.3982 73.0026 49.3018C73.1575 49.1682 73.1575 48.9905 73.1575 48.7384V48.5924ZM71.5039 47.8733C71.6271 47.427 71.8792 47.0833 72.7071 47.0833C73.8779 47.0833 73.8835 47.6309 73.8835 48.1309C73.8835 48.3031 73.8724 49.0545 73.8779 49.2109C73.8938 49.5759 73.931 49.6992 74.0391 49.9306H73.3139C73.2973 49.8927 73.2815 49.8555 73.2601 49.7742L73.2168 49.6248C73.0721 49.7694 72.8035 49.9953 72.3517 49.9953C71.7938 49.9953 71.4281 49.6558 71.4281 49.173C71.4281 48.4904 72.0569 48.3671 72.4433 48.2921C72.8572 48.217 73.0129 48.1736 73.1575 48.1144V48.0393C73.1575 47.8568 73.1575 47.6474 72.6534 47.6474C72.2932 47.6474 72.2181 47.8568 72.1699 47.9959L71.5039 47.8733Z" fill="#005DA9"/>
<path d="M76.0324 47.7328H75.5324V48.8555C75.5324 49.2542 75.5324 49.3824 75.7362 49.3824C75.8334 49.3824 75.9195 49.3555 76.0111 49.3176L76.0324 49.3128L76.0971 49.8824C75.8547 49.9843 75.5916 49.9953 75.5165 49.9953C75.2906 49.9953 75.0007 49.9196 74.8932 49.7102C74.8016 49.5387 74.7913 49.3713 74.7913 48.9471V47.7328H74.4531V47.1474H74.7913V46.5943L75.5324 46.159V47.1474H76.0324V47.7328Z" fill="#005DA9"/>
<path d="M76.7039 47.1471H77.4395V49.9303H76.7039V47.1471ZM76.7039 46.0837H77.4395V46.7662H76.7039V46.0837Z" fill="#005DA9"/>
<path d="M79.6152 49.3934C79.9485 49.3934 80.2977 49.1516 80.2977 48.5338C80.2977 47.9746 79.9912 47.6846 79.6152 47.6846C79.2605 47.6846 78.9388 47.9532 78.9388 48.5386C78.9388 49.1303 79.266 49.3934 79.6152 49.3934ZM79.6152 47.0833C80.5822 47.0833 81.0547 47.8244 81.0547 48.5283C81.0547 49.2963 80.5174 49.9953 79.6207 49.9953C79.1799 49.9953 78.1805 49.7908 78.1805 48.5014C78.1805 47.8409 78.6268 47.0833 79.6152 47.0833Z" fill="#005DA9"/>
<path d="M83.5913 48.5063C83.5913 48.0496 83.5913 47.6474 83.1395 47.6474C82.9081 47.6474 82.6987 47.7707 82.6071 47.9746C82.5321 48.1357 82.5272 48.4429 82.5272 48.6681V49.9306H81.7903V47.1474H82.4783V47.5565H82.4894C82.7635 47.1798 83.1127 47.0833 83.3971 47.0833C83.5211 47.0833 83.8055 47.1047 84.0363 47.2872C84.3317 47.5131 84.3207 47.9264 84.3269 48.2005V49.9306H83.5913V48.5063Z" fill="#005DA9"/>
<path d="M86.7981 48.5924C86.7224 48.6199 86.6583 48.6413 86.4861 48.6785C86.4482 48.6833 86.2657 48.7218 86.2333 48.7329C86.0997 48.759 85.8036 48.8341 85.8036 49.0924C85.8036 49.2487 85.9275 49.474 86.212 49.474C86.3842 49.474 86.5288 49.3982 86.6418 49.3018C86.7981 49.1682 86.7981 48.9905 86.7981 48.7384V48.5924ZM85.1438 47.8733C85.267 47.427 85.5191 47.0833 86.347 47.0833C87.5179 47.0833 87.5234 47.6309 87.5234 48.1309C87.5234 48.3031 87.5123 49.0545 87.5179 49.2109C87.5337 49.5759 87.5716 49.6992 87.6783 49.9306H86.9531C86.9379 49.8927 86.9221 49.8555 86.9 49.7742L86.8573 49.6248C86.712 49.7694 86.4434 49.9953 85.9916 49.9953C85.4323 49.9953 85.068 49.6558 85.068 49.173C85.068 48.4904 85.6961 48.3671 86.0839 48.2921C86.4964 48.217 86.6528 48.1736 86.7981 48.1144V48.0393C86.7981 47.8568 86.7981 47.6474 86.2933 47.6474C85.9324 47.6474 85.858 47.8568 85.8091 47.9959L85.1438 47.8733Z" fill="#005DA9"/>
<path d="M88.3932 46.0837H89.1294V49.9303H88.3932V46.0837Z" fill="#005DA9"/>
<path d="M91.7185 48.2976C91.7026 47.6901 91.2839 47.6474 91.1702 47.6474C90.8217 47.6474 90.6117 47.9325 90.6172 48.2976H91.7185ZM92.4114 49.1682C92.3521 49.339 92.1207 49.9953 91.1978 49.9953C90.9561 49.9953 90.3107 49.963 90.0152 49.3286C89.8919 49.06 89.8492 48.7859 89.8492 48.5552C89.8492 47.8031 90.2466 47.0833 91.1275 47.0833C92.1744 47.0833 92.4644 47.9263 92.4492 48.748H90.6007C90.6117 49.0821 90.7894 49.4306 91.2081 49.4306C91.5518 49.4306 91.6379 49.173 91.6751 49.0442L92.4114 49.1682Z" fill="#005DA9"/>
</svg>
