<svg id="lyon" width="120" height="56" viewBox="0 0 120 56" fill="none" xmlns="http://www.w3.org/2000/svg">
<path d="M13.5089 29.5365C12.5811 30.5516 11.2382 31.1367 9.81552 31.1367C8.49425 31.1367 7.23121 30.6305 6.30342 29.7112C5.02066 28.4425 5 27.2123 5 24.0693C5 20.9253 5.02066 19.6951 6.30342 18.4255C7.23121 17.5071 8.49425 17.0009 9.81552 17.0009C12.2834 17.0009 14.1784 18.6002 14.6132 21.0615H13.5483C13.1332 19.1476 11.7124 17.9363 9.81552 17.9363C8.80884 17.9363 7.86227 18.3081 7.15327 19.0115C6.1466 20.0069 6.06678 21.0812 6.06678 24.0693C6.06678 27.0564 6.14566 28.1298 7.15233 29.1261C7.86133 29.8286 8.80884 30.1995 9.81458 30.1995C10.9217 30.1995 12.0064 29.7318 12.7379 28.8529C13.3502 28.111 13.5868 27.2903 13.5868 26.0986V24.8487H9.81552V23.9115H14.6526V26.1775C14.6526 27.6227 14.3371 28.6566 13.5089 29.5365Z" fill="#E30613"/>
<path d="M23.6113 18.0546H19.4653V23.6777H23.6113C25.4087 23.6777 26.7093 22.7799 26.7093 20.8661C26.7093 18.9514 25.4077 18.0546 23.6113 18.0546V18.0546ZM26.6905 31.0202L23.3361 24.6158H19.4653V31.0202H18.4014V17.1183H23.7493C26.0397 17.1183 27.777 18.4255 27.777 20.8474C27.777 22.9161 26.5121 24.2646 24.54 24.5961L27.9338 31.0202H26.6905Z" fill="#E30613"/>
<path d="M35.1374 18.5232L32.1972 26.7043H38.0785L35.1374 18.5232ZM39.6383 31.0202L38.4147 27.6415H31.861L30.6365 31.0202H29.4927L34.665 17.1183H35.6126L40.783 31.0202H39.6383Z" fill="#E30613"/>
<path d="M52.4246 31.0202L44.3139 18.9345V31.0202H43.248V17.1183H44.3139L52.4246 29.1646V17.1183H53.4923V31.0202H52.4246Z" fill="#E30613"/>
<path d="M65.3095 19.1289C64.5009 18.3091 63.4144 18.0555 62.2904 18.0555H58.8938V30.083H62.2904C63.4144 30.083 64.5009 29.8295 65.3095 29.0069C66.4335 27.8753 66.3565 25.4159 66.3565 23.873C66.3565 22.3301 66.4335 20.2614 65.3095 19.1289V19.1289ZM66.0598 29.7506C65.2306 30.5695 64.0079 31.0193 62.5458 31.0193H57.8298V17.1174H62.5458C64.0089 17.1174 65.2306 17.5672 66.0598 18.3861C67.4815 19.7928 67.4224 21.9986 67.4224 23.8739C67.4224 25.7464 67.4815 28.3448 66.0598 29.7506Z" fill="#E30613"/>
<path d="M70.6771 31.0202V17.1183H73.422V28.6003H79.7973V31.0202H70.6771Z" fill="#020203"/>
<path d="M85.8158 25.3163V31.0202H83.0916V25.3163L78.8677 17.1174H81.8473L84.472 22.7227L87.0582 17.1174H90.0369L85.8158 25.3163Z" fill="#020203"/>
<path d="M98.0105 20.1628C97.6133 19.713 97.0047 19.4209 96.2526 19.4209C95.5013 19.4209 94.8693 19.7139 94.4749 20.1628C93.9415 20.7487 93.8035 21.3948 93.8035 24.0683C93.8035 26.7418 93.9406 27.3879 94.4749 27.973C94.8693 28.4218 95.5013 28.7158 96.2526 28.7158C97.0047 28.7158 97.6133 28.4218 98.0105 27.973C98.5411 27.3879 98.6988 26.7418 98.6988 24.0683C98.6988 21.3948 98.542 20.7487 98.0105 20.1628ZM100.042 29.6154C99.0557 30.5911 97.8518 31.1367 96.2526 31.1367C94.6533 31.1367 93.4288 30.5911 92.4428 29.6154C91.022 28.2087 91.0595 26.4695 91.0595 24.0693C91.0595 21.6653 91.022 19.9299 92.4428 18.5241C93.4288 17.5465 94.6533 17 96.2526 17C97.8518 17 99.0557 17.5465 100.042 18.5232C101.463 19.9289 101.444 21.6653 101.444 24.0683C101.445 26.4695 101.463 28.2087 100.042 29.6154Z" fill="#020203"/>
<path d="M112.553 31.0202L106.986 22.4879V31.0202H104.244V17.1183H106.691L112.256 25.63V17.1183H115V31.0202H112.553Z" fill="#020203"/>
<path d="M98.2631 35.4075H98.2781C98.4509 35.1192 98.6669 34.9793 98.9975 34.9793C99.4999 34.9793 100.009 35.1756 100.009 36.5363C100.009 37.31 99.9835 38.1993 98.9721 38.1993C98.6754 38.1993 98.4566 38.0698 98.2838 37.8265H98.264V39.3103H97.757V35.0403H98.264V35.4075H98.2631ZM99.4754 36.5363C99.4754 36.0705 99.4754 35.3897 98.835 35.3897C98.2086 35.3897 98.2631 36.247 98.2631 36.7203C98.2631 37.1316 98.2904 37.789 98.8538 37.789C99.4003 37.789 99.4754 37.3655 99.4754 36.5363Z" fill="black"/>
<path d="M63.1984 37.6904H63.1853C63.0313 38.0463 62.7871 38.1984 62.3965 38.1984C61.7325 38.1984 61.54 37.7768 61.54 37.1805C61.54 36.2414 62.4716 36.1992 63.1853 36.2179C63.1984 35.8066 63.2041 35.3578 62.6575 35.3578C62.3176 35.3578 62.1363 35.586 62.1683 35.9118H61.6152C61.6415 35.2178 62.0124 34.9784 62.6782 34.9784C63.4848 34.9784 63.6952 35.3897 63.6952 35.9118V37.4021C63.6952 37.6481 63.7196 37.8998 63.7572 38.1374H63.1984V37.6904ZM62.0499 37.2171C62.0499 37.5185 62.1983 37.7881 62.5392 37.7881C62.8491 37.7881 63.2341 37.5974 63.1853 36.5964C62.7017 36.6039 62.0499 36.5607 62.0499 37.2171Z" fill="black"/>
<path d="M72.3533 38.1383V35.9907C72.3533 35.677 72.2669 35.3897 71.8575 35.3897C71.7016 35.3897 71.4903 35.4808 71.4171 35.5972C71.3241 35.7512 71.2988 35.9353 71.2988 36.0517V38.1383H70.7898V35.6836C70.7898 35.4686 70.7766 35.2545 70.7588 35.0404H71.2988V35.4254H71.3119C71.4612 35.0929 71.727 34.9784 72.0923 34.9784C72.3796 34.9784 72.7083 35.0929 72.8238 35.3765C72.9994 35.0451 73.2839 34.9784 73.5703 34.9784C73.9 34.9784 74.4268 35.0507 74.4268 35.7813V38.1374H73.9178V35.9897C73.9178 35.6761 73.8305 35.3887 73.4201 35.3887C73.2285 35.3887 73.1741 35.3944 73.037 35.5052C72.8867 35.6282 72.8623 35.9343 72.8623 36.0508V38.1374H72.3533V38.1383Z" fill="black"/>
<path d="M78.1352 36.7504C78.1352 37.6162 78.3709 37.7871 78.7681 37.7871C79.1146 37.7871 79.2958 37.512 79.3137 37.1983H79.8724C79.8659 37.8857 79.4376 38.1984 78.7812 38.1984C78.1173 38.1984 77.5886 38.0022 77.5886 36.633C77.5886 35.7249 77.6929 34.9765 78.7812 34.9765C79.6733 34.9765 79.8978 35.462 79.8978 36.4846V36.7485H78.1352V36.7504ZM79.3569 36.3701C79.3569 35.4686 79.1033 35.3578 78.7305 35.3578C78.4065 35.3578 78.1408 35.5127 78.1352 36.3701H79.3569ZM79.4808 33.7069L78.6685 34.5718H78.2535L78.8057 33.7069H79.4808Z" fill="black"/>
<path d="M83.3385 35.0394V34.4431L83.8475 34.2168V35.0394H84.5302V35.4188H83.8475V37.3166C83.8475 37.5129 83.8475 37.7655 84.3133 37.7655C84.349 37.7655 84.4297 37.7514 84.5415 37.7402V38.1271C84.3743 38.1393 84.2072 38.1768 84.0391 38.1768C83.5545 38.1768 83.3385 37.9796 83.3385 37.6228V35.4197H82.823V35.0394H83.3385Z" fill="black"/>
<path d="M88.3372 35.5061H88.3494C88.5597 35.0319 88.8208 34.9784 89.3185 34.9784V35.4996C89.2734 35.492 89.2237 35.4864 89.1814 35.4798C89.1373 35.4742 89.0941 35.4676 89.0452 35.4676C88.4799 35.4676 88.3372 35.8921 88.3372 36.3081V38.1374H87.8273V35.0394H88.3372V35.5061Z" fill="black"/>
<path d="M92.2164 36.633C92.2164 35.7268 92.3216 34.9774 93.4081 34.9774C94.4946 34.9774 94.6007 35.7268 94.6007 36.633C94.6007 38.0031 94.073 38.1984 93.4081 38.1984C92.7432 38.1984 92.2164 38.0031 92.2164 36.633ZM94.0664 36.4198C94.0664 35.5737 93.7988 35.3887 93.4081 35.3887C93.0175 35.3887 92.7517 35.5728 92.7517 36.4198C92.7517 37.4256 92.8822 37.789 93.4081 37.789C93.9368 37.789 94.0664 37.4256 94.0664 36.4198Z" fill="black"/>
<path d="M103.121 36.633C103.121 35.7268 103.225 34.9774 104.313 34.9774C105.398 34.9774 105.504 35.7268 105.504 36.633C105.504 38.0031 104.976 38.1984 104.313 38.1984C103.649 38.1984 103.121 38.0031 103.121 36.633ZM104.971 36.4198C104.971 35.5737 104.703 35.3887 104.313 35.3887C103.922 35.3887 103.655 35.5728 103.655 36.4198C103.655 37.4256 103.786 37.789 104.313 37.789C104.84 37.789 104.971 37.4256 104.971 36.4198Z" fill="black"/>
<path d="M109.31 33.7069H108.8V38.1383H109.31V33.7069Z" fill="black"/>
<path d="M113.066 36.7504C113.066 37.6162 113.303 37.788 113.699 37.788C114.047 37.788 114.227 37.512 114.246 37.1983H114.804C114.798 37.8866 114.37 38.1984 113.713 38.1984C113.049 38.1984 112.521 38.0022 112.521 36.633C112.521 35.7249 112.624 34.9774 113.713 34.9774C114.606 34.9774 114.829 35.461 114.829 36.4846V36.7485H113.066V36.7504ZM114.287 36.3701C114.287 35.4686 114.034 35.3578 113.661 35.3578C113.338 35.3578 113.072 35.5127 113.066 36.3701H114.287Z" fill="black"/>
<path d="M58.6168 33.7069H58.1078V38.1383H58.6168V33.7069Z" fill="black"/>
</svg>
