<svg id="epn" width="120" height="56" viewBox="0 0 120 56" fill="none" xmlns="http://www.w3.org/2000/svg">
<path d="M40.0664 21.1289V25.8184H46.6836V28.8398H40.0664V34.8418H49.1445V38H36.5117V17.9707H49.2949V21.1289H40.0664ZM56.0078 30.6309V38H52.4531V17.9844C54.8229 17.8841 56.2083 17.834 56.6094 17.834C59.7721 17.834 62.0827 18.3216 63.541 19.2969C65.0085 20.263 65.7422 21.776 65.7422 23.8359C65.7422 28.4297 63.0352 30.7266 57.6211 30.7266C57.2201 30.7266 56.6823 30.6947 56.0078 30.6309ZM56.0078 21.0605V27.4727C56.6094 27.5365 57.0833 27.5684 57.4297 27.5684C59.0521 27.5684 60.237 27.2995 60.9844 26.7617C61.7318 26.2148 62.1055 25.3307 62.1055 24.1094C62.1055 22.0312 60.4329 20.9922 57.0879 20.9922C56.7142 20.9922 56.3542 21.015 56.0078 21.0605ZM82.0254 38.2734L72.3047 25.5996V38.0137H68.8867V17.9707H70.5957L80.0566 30.0566V17.9707H83.4746V38.2734H82.0254Z" fill="#D50000"/>
</svg>
