<svg id="epn" width="40" height="40" viewBox="0 0 40 40" fill="none" xmlns="http://www.w3.org/2000/svg">
<path d="M5.53906 15.3535V18.7031H10.2656V20.8613H5.53906V25.1484H12.0234V27.4043H3V13.0977H12.1309V15.3535H5.53906Z" fill="#F35453"/>
<path d="M16.9258 22.1406V27.4043H14.3867V13.1074C16.0794 13.0358 17.069 13 17.3555 13C19.6146 13 21.265 13.3483 22.3066 14.0449C23.3548 14.735 23.8789 15.8158 23.8789 17.2871C23.8789 20.5684 21.9453 22.209 18.0781 22.209C17.7917 22.209 17.4076 22.1862 16.9258 22.1406ZM16.9258 15.3047V19.8848C17.3555 19.9303 17.694 19.9531 17.9414 19.9531C19.1003 19.9531 19.9466 19.7611 20.4805 19.377C21.0143 18.9863 21.2812 18.3548 21.2812 17.4824C21.2812 15.998 20.0866 15.2559 17.6973 15.2559C17.4303 15.2559 17.1732 15.2721 16.9258 15.3047Z" fill="#F35453"/>
<path d="M35.5098 27.5996L28.5664 18.5469V27.4141H26.125V13.0977H27.3457L34.1035 21.7305V13.0977H36.5449V27.5996H35.5098Z" fill="#F35453"/>
</svg>