<svg width="120" height="56" viewBox="0 0 120 56" fill="none" xmlns="http://www.w3.org/2000/svg">
<path d="M67.2273 20.667H65.6731V24.4108H67.2273C68.0184 24.4108 68.6205 24.2445 69.0371 23.9102C69.4536 23.5759 69.6602 23.0823 69.6602 22.4278C69.6602 21.7732 69.4519 21.3164 69.0371 21.0573C68.6223 20.7965 68.0184 20.667 67.2273 20.667ZM67.4723 18.2727L67.6229 18.2744C68.2757 18.2832 68.89 18.3514 69.4659 18.4774C70.0855 18.614 70.628 18.8415 71.0919 19.1635C71.5557 19.4838 71.9232 19.9109 72.1963 20.4412C72.4693 20.9733 72.6058 21.6349 72.6058 22.426C72.6058 23.4079 72.3905 24.2165 71.9617 24.8501C71.5329 25.4837 70.9571 25.958 70.2342 26.2713L73.2604 31.6096H69.8859L67.3288 26.8016H65.6731V31.6096H62.6662V18.2727H67.4723ZM60.8687 18.2727V20.8105H55.5304V23.4902H60.0705V26.007H55.5304V29.0752H61.0717V31.6113H52.5235V18.2744H60.8687V18.2727ZM50.4407 18.2727V31.6096H47.4337V18.2727H50.4407ZM46.4133 18.2727V20.8105H42.7536V31.6113H39.7274V20.8105H36.0676V18.2727H46.4133ZM78.3309 18.0276C79.108 18.0276 79.8746 18.1782 80.6307 18.4774C81.3868 18.7767 82.0519 19.2143 82.6242 19.7866L81.091 21.6892L80.9983 21.6174C80.5939 21.3111 80.1879 21.0731 79.7836 20.9015C79.3478 20.7178 78.863 20.625 78.3309 20.625C77.8128 20.625 77.3997 20.73 77.0935 20.9418C76.7872 21.1536 76.6331 21.4494 76.6331 21.8309C76.6331 22.0357 76.6839 22.209 76.7872 22.3525C76.8887 22.496 77.0322 22.6255 77.216 22.7411C77.3997 22.8566 77.615 22.9668 77.8601 23.0683C78.1051 23.1699 78.3711 23.2836 78.6582 23.4061L80.3752 24.101L80.4679 24.1395C81.2415 24.4633 81.8541 24.9009 82.3074 25.4504C82.7783 26.0228 83.0128 26.7806 83.0128 27.7205C83.0128 28.2788 82.9008 28.8074 82.675 29.3062C82.4492 29.8033 82.1237 30.2409 81.6931 30.6154C81.2643 30.99 80.7357 31.291 80.1074 31.5151C79.4808 31.7408 78.7719 31.8528 77.9808 31.8528C77.1075 31.8528 76.2393 31.6918 75.373 31.3715C74.5066 31.0512 73.733 30.5699 73.0521 29.9293L74.7691 27.864L74.8654 27.9445C75.317 28.3173 75.814 28.6236 76.3549 28.8669C76.9342 29.126 77.503 29.2555 78.0631 29.2555C78.6897 29.2555 79.157 29.14 79.4633 28.9072C79.7696 28.6761 79.9236 28.3611 79.9236 27.9655C79.9236 27.7608 79.8799 27.584 79.7906 27.4335C79.7013 27.2829 79.5718 27.1499 79.402 27.0344C79.2323 26.9189 79.0275 26.8086 78.7877 26.7071C78.5497 26.6056 78.2871 26.4918 78.0001 26.3693L76.2621 25.6325L76.1483 25.5852C75.8473 25.4557 75.555 25.2947 75.2697 25.1004C74.9494 24.8816 74.6624 24.6261 74.4103 24.3338C74.1583 24.0397 73.957 23.7002 73.8065 23.3116C73.656 22.9231 73.5807 22.4838 73.5807 21.9919C73.5807 21.4459 73.6962 20.9313 73.929 20.4482C74.16 19.9634 74.4873 19.5416 74.9109 19.1793C75.3327 18.8187 75.835 18.5352 76.4144 18.3304C76.9972 18.1309 77.6343 18.0276 78.3309 18.0276ZM76.4336 33.274L77.5993 35.7909L77.6745 35.9484C77.7988 36.2145 77.9248 36.4928 78.0491 36.7815C78.1996 37.1299 78.3694 37.5149 78.5602 37.9367H78.6424L78.6914 37.7967C78.8245 37.4291 78.954 37.0896 79.0817 36.7798C79.2253 36.4315 79.3653 36.1007 79.5018 35.7874L80.566 33.2706H83.7759L80.3192 39.8987L83.9999 46.6092H80.6465L79.318 43.8893L79.1553 43.5358C79.0485 43.3012 78.9417 43.0667 78.8367 42.8357C78.6792 42.4874 78.5059 42.1093 78.3151 41.6998H78.2329L78.1769 41.852C78.0456 42.2038 77.9143 42.5311 77.7831 42.8357C77.6325 43.184 77.4838 43.534 77.3332 43.8893L76.0853 46.6092H72.8544L76.5561 39.757L73.0801 33.2723H76.4336V33.274ZM59.6522 33.274V35.8102H54.314V38.4898H58.8541V41.0067H54.314V44.0748H59.8553V46.6109H51.307V33.274H59.6522ZM49.0107 33.274V46.6109H46.0038V33.274H49.0107ZM39.2688 33.274V44.0748H44.5458V46.6109H36.2637V33.274H39.2688ZM64.6072 33.274V40.8386C64.6159 42.0953 64.8137 42.9774 65.2005 43.4815C65.5961 43.9996 66.1684 44.2586 66.9175 44.2586C67.6666 44.2586 68.2459 43.9996 68.6555 43.4815C69.0651 42.9634 69.2698 42.0498 69.2698 40.7406V33.274H72.1735V40.5516C72.1578 42.7271 71.7114 44.3181 70.8346 45.3228C69.9419 46.3449 68.6363 46.8577 66.9175 46.8577C65.1865 46.8577 63.8633 46.3467 62.9497 45.3228C62.0361 44.3006 61.5793 42.6711 61.5793 40.4343V33.274H64.6072Z" fill="#4232C5"/>
<path d="M65.7327 50.1237H52.9559V53.4072H65.7327V50.1237Z" fill="#E8336D"/>
<path d="M77.9546 13.3755C78.0141 13.1059 78.0701 12.8697 78.1226 12.6684C78.1751 12.4653 78.2399 12.2781 78.3169 12.103C78.3939 11.928 78.4989 11.76 78.6355 11.5972C78.7702 11.4344 78.9575 11.2524 79.192 11.0494C79.1693 11.3189 79.1325 11.557 79.0853 11.7652C79.038 11.9735 78.968 12.1661 78.8735 12.3463C78.779 12.5266 78.6582 12.6999 78.5112 12.8697C78.3642 13.0394 78.1786 13.2075 77.9546 13.3755ZM78.8875 16.9547C79.0818 16.9547 79.3181 16.932 79.5981 16.8865C79.8781 16.841 80.1722 16.7727 80.4802 16.6799C80.7883 16.5889 81.0998 16.4734 81.4131 16.3369C81.7264 16.2004 82.0064 16.0429 82.2515 15.8661C82.4965 15.6893 82.696 15.4898 82.8501 15.2657C83.0041 15.0435 83.0811 14.8054 83.0811 14.5551C83.0811 14.4641 83.0688 14.3731 83.0461 14.2804C83.0233 14.1893 82.9551 14.1438 82.8413 14.1438C82.7275 14.1438 82.619 14.1858 82.5158 14.2716C82.4125 14.3574 82.3162 14.4571 82.2252 14.5709C82.1342 14.6847 82.0449 14.7967 81.9592 14.9052C81.8734 15.0137 81.8017 15.096 81.7457 15.1537C81.3343 15.4845 80.8845 15.7243 80.3927 15.8731C79.9026 16.0218 79.3881 16.0954 78.8507 16.0954C78.6687 16.0954 78.4989 16.0866 78.3449 16.0691C78.1909 16.0516 78.0544 16.0061 77.9336 15.9326C77.8146 15.8591 77.7201 15.7576 77.6518 15.6333C77.5836 15.5073 77.5486 15.3428 77.5486 15.1362V15.1012C77.5486 15.0662 77.5608 15.0102 77.5836 14.9297C77.6063 14.8492 77.6238 14.7932 77.6343 14.7582C78.0001 14.4501 78.3257 14.1561 78.611 13.876C78.8963 13.596 79.1395 13.2967 79.3391 12.9764C79.5386 12.6561 79.6874 12.3078 79.7836 11.9315C79.8799 11.5552 79.9289 11.1212 79.9289 10.6293C79.9289 10.5838 79.9254 10.5016 79.9201 10.3808C79.9149 10.26 79.9114 10.1778 79.9114 10.1323C79.8659 10.0062 79.8116 9.88898 79.7486 9.78046C79.6856 9.67195 79.5806 9.61769 79.4318 9.61769C79.0328 9.61769 78.6985 9.70695 78.4307 9.88373C78.1629 10.0605 77.9424 10.2863 77.7708 10.5611C77.5993 10.8359 77.4663 11.1317 77.3683 11.452C77.272 11.7722 77.188 12.0698 77.1197 12.3428C77.097 12.4111 77.0655 12.5406 77.0252 12.7279C76.985 12.9169 76.9395 13.1129 76.8887 13.3195C76.838 13.526 76.7854 13.7168 76.7347 13.8935C76.6839 14.0703 76.6454 14.1928 76.6227 14.2628L76.5369 15.446C76.6857 16.0516 76.9622 16.4542 77.3683 16.6537C77.7761 16.855 78.2819 16.9547 78.8875 16.9547ZM70.7226 16.9547C70.8696 16.9547 70.9974 16.9512 71.1041 16.946C71.2109 16.9407 71.3159 16.925 71.4174 16.9022C71.5189 16.8795 71.6327 16.8532 71.757 16.8235C71.8812 16.7937 72.0335 16.7517 72.2155 16.6939C72.3521 16.6362 72.5638 16.5522 72.8509 16.4419C73.1397 16.3316 73.4355 16.2196 73.7418 16.1041C74.0463 15.9886 74.3333 15.8783 74.5976 15.7751C74.8637 15.6718 75.0352 15.607 75.1157 15.5843C75.3992 15.4565 75.695 15.3007 76.0066 15.1152C76.3181 14.9297 76.6034 14.7162 76.8625 14.4729C77.1232 14.2296 77.3403 13.9583 77.5153 13.6573C77.6903 13.3562 77.7778 13.0219 77.7778 12.6509C77.7778 12.5354 77.7586 12.4163 77.7183 12.2956C77.6781 12.1748 77.5853 12.1135 77.4383 12.1135C77.2808 12.1135 77.1617 12.1713 77.0812 12.2868C77.0025 12.4023 76.9307 12.5389 76.8695 12.6946C76.8064 12.8504 76.7504 13.0097 76.6997 13.1707C76.6489 13.3317 76.5894 13.4595 76.5212 13.5522C76.2271 13.8883 75.8316 14.2086 75.3345 14.5149C74.8374 14.8212 74.3088 15.0837 73.7488 15.3042C73.1887 15.5248 72.6321 15.6998 72.0773 15.8328C71.5224 15.9658 71.0429 16.0324 70.6351 16.0324C70.6123 16.0324 70.5336 16.0289 70.397 16.0236C70.2605 16.0183 70.1765 16.0149 70.1432 16.0149C70.0522 15.9571 69.9542 15.8993 69.8457 15.8416C69.7389 15.7838 69.6724 15.6963 69.6514 15.5808V15.425C69.6514 15.355 69.6479 15.2867 69.6427 15.2167C69.6374 15.1467 69.6339 15.0785 69.6339 15.0085V14.8527C69.6339 14.4834 69.6759 14.1648 69.7617 13.8988C69.8457 13.6328 69.9647 13.3842 70.1187 13.1532C70.271 12.9222 70.4495 12.6929 70.6526 12.4688C70.8556 12.2431 71.0761 11.9858 71.3142 11.697C71.3247 11.6742 71.3509 11.6427 71.3912 11.6025C71.4314 11.5622 71.4559 11.536 71.4682 11.5237H71.5364C71.6275 11.5465 71.701 11.5867 71.757 11.6445C71.813 11.7022 71.8672 11.76 71.918 11.8178C71.9688 11.8755 72.0283 11.9245 72.0965 11.9648C72.1648 12.005 72.2435 12.026 72.3346 12.026C72.4816 12.026 72.6111 11.9963 72.7249 11.9385C72.8386 11.8808 72.8946 11.7775 72.8946 11.627C72.8946 11.4887 72.8684 11.3347 72.8176 11.1667C72.7669 10.9986 72.6934 10.8394 72.5971 10.6906C72.5008 10.5418 72.3906 10.4123 72.2663 10.309C72.142 10.2058 72.0003 10.1533 71.8427 10.1533C71.764 10.1533 71.7045 10.162 71.6642 10.1795C71.624 10.197 71.5907 10.2198 71.5627 10.2495C71.5347 10.2793 71.4997 10.3073 71.4612 10.337C71.4209 10.3668 71.3737 10.3983 71.3177 10.4316C71.1024 10.351 70.8504 10.4141 70.5633 10.6223C70.2763 10.8306 69.9927 11.1247 69.7144 11.5062C69.4379 11.8878 69.1946 12.3446 68.9846 12.8767C68.7746 13.4087 68.6433 13.9688 68.5855 14.5586C68.6083 14.9524 68.6555 15.2955 68.729 15.5913C68.8026 15.8871 68.9181 16.1339 69.0773 16.3369C69.2349 16.5399 69.4484 16.6922 69.7127 16.7972C69.9787 16.9022 70.3148 16.9547 70.7226 16.9547ZM61.7998 16.9547C61.8733 16.9547 61.9451 16.946 62.0133 16.9285C62.0816 16.911 62.1411 16.8847 62.1919 16.8497C62.2426 16.8147 62.2636 16.7622 62.2514 16.6922C62.2619 16.5977 62.2846 16.4454 62.3196 16.2354C62.3529 16.0254 62.3914 15.8013 62.4299 15.5685C62.4702 15.334 62.5122 15.1117 62.5577 14.9017C62.6032 14.6917 62.6364 14.5446 62.6592 14.4624C62.7274 14.2278 62.8377 13.9303 62.9917 13.5663C63.1458 13.2039 63.3278 12.8451 63.5378 12.4951C63.7478 12.1433 63.9876 11.8458 64.2537 11.599C64.5214 11.3522 64.791 11.2297 65.064 11.2297V11.809L64.3989 15.2167V15.4443C64.3989 15.6315 64.4077 15.8066 64.4252 15.9711C64.4427 16.1356 64.4812 16.2844 64.5442 16.4192C64.6072 16.5539 64.7 16.6624 64.826 16.7447C64.9503 16.827 65.1218 16.8672 65.3371 16.8672C65.5523 16.8672 65.8149 16.827 66.1212 16.7447C66.4275 16.6624 66.7443 16.5522 67.0681 16.4104C67.3919 16.2704 67.7209 16.1006 68.057 15.9011C68.393 15.7016 68.687 15.4915 68.9443 15.2692C69.1999 15.047 69.4099 14.8089 69.5744 14.5586C69.7389 14.3066 69.8212 14.0528 69.8212 13.7938C69.8212 13.7115 69.7949 13.645 69.7442 13.5925C69.6934 13.54 69.6269 13.5137 69.5482 13.5137H69.4799C69.2524 13.7833 68.9846 14.0616 68.6783 14.3486C68.372 14.6357 68.0412 14.8894 67.6894 15.1135C67.3376 15.3358 66.97 15.5213 66.5902 15.6665C66.2087 15.8136 65.8429 15.8853 65.4911 15.8853V14.4624L66.1387 11.459V11.3889C66.1387 11.3662 66.1422 11.3504 66.1474 11.3452L66.1509 11.3399C66.1544 11.3329 66.1562 11.3189 66.1562 11.3014C66.1562 10.9741 66.0617 10.7046 65.8744 10.4928C65.6871 10.2828 65.4281 10.176 65.099 10.176C64.9398 10.176 64.7717 10.2163 64.5967 10.2985C64.4199 10.3808 64.2694 10.4806 64.1451 10.5978C64.1119 10.6451 64.0366 10.7203 63.9229 10.8254C63.8091 10.9304 63.6866 11.0424 63.5571 11.1597C63.4258 11.2769 63.3033 11.3872 63.1913 11.494C63.0775 11.599 62.9987 11.669 62.9532 11.704V10.5086C62.9532 10.4036 62.8937 10.3178 62.7747 10.253C62.6557 10.1883 62.5507 10.1568 62.4597 10.1568C62.4264 10.1568 62.3634 10.1603 62.2724 10.1655C62.1814 10.1708 62.1184 10.197 62.0851 10.2443L61.7438 12.5809V13.0727L61.1592 16.5854V16.6379C61.1592 16.778 61.21 16.8655 61.3132 16.9022C61.4148 16.9372 61.518 16.9547 61.6195 16.9547H61.7998ZM53.5579 16.0604V15.579L53.9727 13.4927C53.985 13.4577 54.0042 13.4122 54.0322 13.3597C54.0602 13.3055 54.0952 13.2495 54.1355 13.1899C54.1757 13.1304 54.2125 13.0797 54.2475 13.0377C54.2825 12.9957 54.3052 12.9747 54.3157 12.9747C54.3735 12.9152 54.4803 12.8031 54.6343 12.6369C54.7883 12.4706 54.9563 12.2921 55.1349 12.1013C55.3134 11.9105 55.4832 11.7355 55.6442 11.5762C55.8052 11.4169 55.9207 11.3067 55.989 11.2472C56.0117 11.2349 56.0607 11.2297 56.136 11.2297H56.283C56.4563 11.2297 56.5928 11.2419 56.6978 11.2647C56.8011 11.2892 56.9271 11.3662 57.0776 11.4957C57.0776 11.5202 57.0811 11.5552 57.0864 11.6025L57.0899 11.6287C57.0934 11.6637 57.0951 11.69 57.0951 11.7092C57.0951 12.054 57.0514 12.3901 56.9656 12.7156C56.8799 13.0429 56.8309 13.3842 56.8186 13.7413C56.6803 13.9548 56.4843 14.1963 56.2323 14.4624C55.9785 14.7302 55.6984 14.9822 55.3869 15.2202C55.0754 15.4583 54.7603 15.6578 54.4383 15.8171C54.1145 15.9798 53.8222 16.0604 53.5579 16.0604ZM53.4214 16.9547C53.7312 16.9547 54.0357 16.8917 54.3333 16.764C54.6308 16.6362 54.9231 16.4857 55.2101 16.3124C55.4972 16.1391 55.772 15.9466 56.0362 15.7383C56.3005 15.53 56.5473 15.3323 56.7766 15.1467C56.7538 15.3673 56.7573 15.579 56.7854 15.7821C56.8134 15.9851 56.8694 16.1584 56.9481 16.3036C57.0286 16.4489 57.1494 16.5644 57.3087 16.6519C57.4697 16.7395 57.6762 16.7832 57.9283 16.7832C58.0893 16.7832 58.2696 16.7622 58.4708 16.7219C58.6721 16.6817 58.8751 16.6257 59.0817 16.5574C59.2882 16.4874 59.4895 16.4157 59.6838 16.3404C59.878 16.2651 60.0566 16.1811 60.2176 16.0884C60.3086 16.0534 60.4609 15.9781 60.6727 15.8626C60.8844 15.7471 61.112 15.6245 61.3517 15.4968C61.5933 15.369 61.8191 15.2535 62.0308 15.1485C62.2426 15.0435 62.3896 14.9629 62.4702 14.9052C62.5279 14.8579 62.5594 14.8089 62.5647 14.7564C62.5699 14.7039 62.5734 14.6497 62.5734 14.5919C62.5734 14.4764 62.5367 14.3836 62.4614 14.3136C62.3861 14.2436 62.2916 14.2086 62.1779 14.2086C62.1656 14.2086 62.1464 14.2121 62.1184 14.2173L62.0991 14.2208C62.0816 14.2243 62.0676 14.2261 62.0589 14.2261L58.7911 15.7576C58.6756 15.8048 58.5653 15.8293 58.4551 15.8363C58.3448 15.8433 58.2346 15.8451 58.119 15.8451C58.0963 15.8451 58.0385 15.8416 57.9475 15.8363C57.8565 15.8311 57.7987 15.8276 57.776 15.8276C57.7637 15.8048 57.7497 15.7383 57.7322 15.628C57.7147 15.5178 57.7007 15.4513 57.6885 15.4285V15.3235C57.6885 15.0102 57.72 14.7109 57.783 14.4274C57.846 14.1438 57.9143 13.8568 57.9895 13.5663C58.0648 13.2757 58.133 12.9887 58.1961 12.7051C58.2591 12.4216 58.2906 12.1275 58.2906 11.8265C58.2906 11.606 58.2713 11.3854 58.2311 11.1649C58.1908 10.9444 58.1225 10.7466 58.0245 10.5733C57.9265 10.4001 57.7952 10.2565 57.629 10.1463C57.4627 10.036 57.2527 9.98174 57.0006 9.98174H56.6908C56.003 10.0623 55.3694 10.2863 54.7901 10.6521C54.2107 11.0179 53.7347 11.4695 53.3619 12.0085C52.9891 12.5476 52.7318 13.1532 52.5883 13.827C52.4447 14.4991 52.471 15.1835 52.6653 15.8801V16.4192C52.723 16.6047 52.8193 16.7412 52.9576 16.8287C53.0958 16.911 53.2498 16.9547 53.4214 16.9547ZM49.2103 16.9547C49.3713 16.9547 49.6023 16.9022 49.9051 16.7972C50.2079 16.6922 50.5405 16.5522 50.901 16.3754C51.2616 16.2004 51.6309 16.0043 52.0089 15.7873C52.387 15.5703 52.73 15.3515 53.0398 15.1292C53.3496 14.9069 53.6016 14.6899 53.7959 14.4799C53.9902 14.2699 54.0882 14.0931 54.0882 13.9531C54.0882 13.9181 54.083 13.8655 54.0707 13.7955C54.0585 13.7255 54.0357 13.6905 54.0025 13.6905H53.4879C53.3969 13.7605 53.3111 13.8305 53.2306 13.9005C53.1476 13.9674 53.071 14.0257 53.0008 14.0764C52.9348 14.1242 52.8744 14.165 52.8193 14.1998C52.751 14.2471 52.6793 14.2961 52.604 14.3486C52.5287 14.4011 52.4692 14.4694 52.4237 14.5499L50.9133 15.4985C50.7872 15.5213 50.6665 15.5598 50.5527 15.6123C50.4389 15.6648 50.3217 15.7208 50.2009 15.7786C50.0801 15.8363 49.9629 15.8906 49.8491 15.9361C49.7353 15.9816 49.6093 16.0061 49.4711 16.0061C49.4133 16.0061 49.3538 16.0026 49.2908 15.9973C49.2278 15.9921 49.2015 15.9361 49.2138 15.8311V15.3743C49.2138 15.1397 49.24 14.8789 49.2908 14.5936C49.3415 14.3066 49.394 14.0196 49.4448 13.7325C49.4956 13.4455 49.5481 13.1619 49.5988 12.8802C49.6496 12.5984 49.6758 12.3481 49.6758 12.1258C49.6758 11.8808 49.6321 11.69 49.5463 11.5552C49.4606 11.4204 49.3153 11.2944 49.1088 11.1772C48.925 11.0826 48.7132 10.9951 48.4734 10.9146C48.2336 10.8341 48.0061 10.7571 47.7943 10.6871C47.5825 10.6171 47.4058 10.5523 47.2622 10.4946C47.1187 10.4368 47.054 10.3825 47.0645 10.337C46.9507 10.337 46.8527 10.3773 46.7722 10.4596C46.6917 10.5418 46.6234 10.6381 46.5656 10.7501C46.5079 10.8621 46.4659 10.9811 46.4361 11.1107C46.4081 11.2402 46.3924 11.3504 46.3924 11.445C46.3924 11.5395 46.3959 11.6182 46.4011 11.6812C46.4064 11.746 46.4326 11.8195 46.4781 11.9C46.3521 12.2168 46.2611 12.5056 46.2033 12.7699C46.1456 13.0324 46.0721 13.2827 45.9793 13.5155C45.8883 13.75 45.764 13.9846 45.61 14.2173C45.456 14.4519 45.218 14.6917 44.8977 14.9367C44.8854 15.1467 44.8924 15.3077 44.9152 15.4198C44.9379 15.5318 44.9694 15.6123 45.0097 15.6648C45.0499 15.7173 45.0902 15.7488 45.1304 15.7611C45.1707 15.7733 45.1969 15.7786 45.2074 15.7786C45.6538 15.4618 45.9723 15.1397 46.1613 14.8124C46.3504 14.4851 46.4939 14.1561 46.5901 13.8288C46.6864 13.5015 46.7844 13.1847 46.8824 12.8802C46.9805 12.5756 47.1537 12.2886 47.4058 12.019C47.4058 12.0313 47.488 12.075 47.6543 12.1503C47.8206 12.2256 48.0008 12.3148 48.1951 12.4128C48.3894 12.5126 48.5697 12.6036 48.736 12.6841C48.9022 12.7664 48.9845 12.8136 48.9845 12.8241C48.9845 12.9642 48.9442 13.1514 48.8637 13.386C48.7832 13.6205 48.6922 13.8603 48.5889 14.1053C48.4857 14.3504 48.3947 14.5919 48.3141 14.8247C48.2336 15.0592 48.1934 15.2395 48.1934 15.369C48.1934 15.544 48.2074 15.7226 48.2371 15.9046C48.2651 16.0866 48.3194 16.2529 48.3999 16.4052C48.4804 16.5574 48.5837 16.6869 48.7097 16.792C48.8392 16.9022 49.0055 16.9547 49.2103 16.9547ZM38.2817 16.7762C38.4007 16.7762 38.483 16.7412 38.5302 16.6729L39.5209 14.8334L40.5115 11.5657L40.6831 10.225H41.0069C41.0979 10.225 41.1924 10.2215 41.2886 10.2163C41.3849 10.211 41.4672 10.2075 41.5372 10.2075C42.015 10.2075 42.4911 10.239 42.9636 10.302C43.4362 10.365 43.9 10.3966 44.3551 10.3966C44.5038 10.3966 44.6544 10.351 44.8084 10.2583C44.9624 10.1673 45.0394 10.0342 45.0394 9.86272C45.0394 9.72445 44.9817 9.62469 44.8679 9.56168C44.7541 9.49867 44.6194 9.45317 44.4671 9.42341C44.3131 9.39541 44.1626 9.37966 44.0138 9.37966H40.9228C40.8318 9.40241 40.7828 9.38841 40.7776 9.3359C40.7723 9.28339 40.7688 9.23614 40.7688 9.18888C40.7688 8.73031 40.7828 8.2805 40.8108 7.83944L40.8266 7.5734C40.8441 7.2181 40.8546 6.8558 40.8546 6.48999C40.8546 6.20295 40.8406 5.92291 40.8126 5.64812C40.7846 5.37334 40.7706 5.09855 40.7706 4.82201V4.70124L44.9222 4.35644C45.0587 4.34419 45.2074 4.28468 45.3667 4.17617C45.526 4.06765 45.6065 3.93813 45.6065 3.78936C45.6065 3.77711 45.603 3.75786 45.5978 3.72985L45.5943 3.7106C45.5908 3.6931 45.589 3.6791 45.589 3.67035C45.554 3.63534 45.512 3.58458 45.4612 3.51632C45.4105 3.44806 45.3475 3.3728 45.274 3.29229C45.2004 3.21178 45.1199 3.14352 45.0342 3.08576C44.9484 3.028 44.8609 3 44.7699 3C44.6561 3 44.5879 3.02625 44.5651 3.07701C44.5424 3.12777 44.5336 3.19253 44.5389 3.26604C44.5441 3.3413 44.5441 3.41306 44.5389 3.48132C44.5336 3.54958 44.5021 3.58983 44.4443 3.60208C43.921 3.70535 43.3819 3.77186 42.8306 3.79986C42.2775 3.82787 41.7402 3.84362 41.2169 3.84362C41.0349 3.84362 40.8668 3.82612 40.7128 3.79286C40.5588 3.75786 40.4083 3.7211 40.2595 3.68085C40.1107 3.64059 39.9602 3.60033 39.8062 3.56008C39.6522 3.51982 39.5016 3.50057 39.3529 3.50057C39.3301 3.50057 39.2881 3.50407 39.2251 3.50932L39.1953 3.51282C39.1481 3.51632 39.1166 3.51807 39.0973 3.51807C39.0518 3.57583 39.0256 3.63009 39.0203 3.68085C39.0151 3.7316 39.0116 3.78761 39.0116 3.84362C39.0116 3.96964 39.0343 4.06765 39.0798 4.13591C39.1253 4.20417 39.1831 4.26718 39.2514 4.32494C39.3196 4.3827 39.3914 4.4457 39.4649 4.51396C39.5384 4.58222 39.6154 4.66799 39.6959 4.77125C39.7992 4.92002 39.8674 5.09155 39.9007 5.28757C39.934 5.4836 39.9585 5.67963 39.969 5.88091C39.9812 6.08219 39.9812 6.28172 39.969 6.48299C39.9567 6.68427 39.9515 6.86455 39.9515 7.02557C39.9515 7.17434 39.9567 7.35812 39.969 7.57515C39.9812 7.79218 39.983 8.01446 39.9777 8.23674C39.9725 8.46078 39.9515 8.67606 39.9182 8.88083C39.8849 9.08561 39.8324 9.25364 39.7642 9.37966C39.4334 9.40241 39.0746 9.43041 38.6878 9.46542C38.301 9.50042 37.9072 9.53368 37.5099 9.56868C37.1126 9.60369 36.7135 9.62644 36.3144 9.63694C35.9154 9.64744 35.5461 9.64919 35.2048 9.63694C35.1015 9.61419 35.042 9.63694 35.0263 9.7052C35.0105 9.77346 35 9.83122 35 9.87673C35 9.95724 35.0088 10.0255 35.0263 10.0833C35.0438 10.141 35.1033 10.1865 35.2048 10.2215C35.3185 10.2443 35.4131 10.2583 35.4866 10.2653C35.5601 10.2723 35.6353 10.2775 35.7088 10.2828C35.7824 10.288 35.8576 10.2915 35.9311 10.2915H36.1954C36.731 10.2915 37.2631 10.2793 37.7934 10.2565C38.3237 10.2338 38.8558 10.2215 39.3914 10.2215C39.4824 10.2215 39.5559 10.2303 39.6137 10.2478C39.6714 10.2653 39.6994 10.3248 39.6994 10.4281C39.6994 10.8516 39.6574 11.2682 39.5717 11.6742C39.4859 12.0803 39.3774 12.4828 39.2479 12.8784C39.1183 13.274 38.9661 13.6608 38.7945 14.0388C38.623 14.4169 38.4532 14.7897 38.2817 15.1572C38.2135 15.2832 38.1452 15.3918 38.0769 15.4845C38.0087 15.5773 37.9457 15.6648 37.8897 15.7506C37.8336 15.8363 37.7846 15.9343 37.7444 16.0429C37.7041 16.1514 37.6849 16.2914 37.6849 16.4647C37.6849 16.5329 37.6884 16.5872 37.6936 16.6274C37.6989 16.6677 37.7251 16.7167 37.7706 16.7745H38.2817V16.7762Z" fill="#E8336D"/>
</svg>
