<svg width="40" height="40" viewBox="0 0 40 40" fill="none" xmlns="http://www.w3.org/2000/svg">
<path d="M25.0195 14.6194H23.9093V17.2935H25.0195C25.5846 17.2935 26.0146 17.1748 26.3122 16.936C26.6097 16.6972 26.7572 16.3446 26.7572 15.8771C26.7572 15.4095 26.6085 15.0832 26.3122 14.8982C26.0159 14.7119 25.5846 14.6194 25.0195 14.6194ZM25.1945 12.9092L25.302 12.9104C25.7683 12.9167 26.2072 12.9654 26.6185 13.0554C27.061 13.1529 27.4486 13.3155 27.7799 13.5455C28.1112 13.7743 28.3737 14.0793 28.5687 14.4581C28.7638 14.8382 28.8613 15.3107 28.8613 15.8758C28.8613 16.5772 28.7075 17.1548 28.4012 17.6073C28.0949 18.0599 27.6836 18.3987 27.1673 18.6225L29.3289 22.4355H26.9185L25.092 19.0013H23.9093V22.4355H21.7615V12.9092H25.1945ZM20.4776 12.9092V14.7219H16.6645V16.6359H19.9075V18.4337H16.6645V20.6253H20.6226V22.4368H14.5167V12.9104H20.4776V12.9092ZM13.029 12.9092V22.4355H10.8812V12.9092H13.029ZM10.1524 12.9092V14.7219H7.53825V22.4368H5.37669V14.7219H2.76257V12.9092H10.1524ZM32.9506 12.7341C33.5057 12.7341 34.0533 12.8416 34.5934 13.0554C35.1334 13.2692 35.6085 13.5817 36.0173 13.9906L34.9221 15.3495L34.8559 15.2982C34.5671 15.0795 34.2771 14.9094 33.9883 14.7869C33.677 14.6557 33.3307 14.5894 32.9506 14.5894C32.5806 14.5894 32.2855 14.6644 32.0667 14.8157C31.848 14.9669 31.7379 15.1782 31.7379 15.4508C31.7379 15.597 31.7742 15.7208 31.848 15.8233C31.9205 15.9258 32.023 16.0183 32.1543 16.1009C32.2855 16.1834 32.4393 16.2621 32.6143 16.3346C32.7893 16.4072 32.9794 16.4884 33.1844 16.5759L34.4108 17.0722L34.4771 17.0998C35.0297 17.331 35.4672 17.6436 35.791 18.0361C36.1273 18.4449 36.2948 18.9863 36.2948 19.6576C36.2948 20.0564 36.2148 20.434 36.0536 20.7903C35.8923 21.1453 35.6598 21.4579 35.3522 21.7254C35.0459 21.9929 34.6684 22.208 34.2195 22.368C33.772 22.5293 33.2657 22.6093 32.7006 22.6093C32.0767 22.6093 31.4567 22.4943 30.8378 22.2655C30.219 22.0367 29.6664 21.6929 29.1801 21.2353L30.4065 19.7601L30.4753 19.8176C30.7978 20.0839 31.1529 20.3027 31.5392 20.4765C31.953 20.6615 32.3593 20.754 32.7593 20.754C33.2069 20.754 33.5407 20.6715 33.7595 20.5052C33.9783 20.3402 34.0883 20.1152 34.0883 19.8326C34.0883 19.6864 34.057 19.5601 33.9933 19.4526C33.9295 19.3451 33.837 19.2501 33.7157 19.1675C33.5945 19.085 33.4482 19.0063 33.2769 18.9338C33.1069 18.8613 32.9194 18.78 32.7143 18.6925L31.4729 18.1662L31.3916 18.1324C31.1766 18.0399 30.9678 17.9249 30.7641 17.7861C30.5353 17.6298 30.3302 17.4473 30.1502 17.2385C29.9702 17.0285 29.8264 16.786 29.7189 16.5084C29.6114 16.2309 29.5576 15.9171 29.5576 15.5658C29.5576 15.1757 29.6401 14.8082 29.8064 14.4631C29.9714 14.1168 30.2052 13.8155 30.5078 13.5567C30.8091 13.2992 31.1679 13.0967 31.5817 12.9504C31.998 12.8079 32.453 12.7341 32.9506 12.7341ZM31.5954 23.6244L32.428 25.4222L32.4818 25.5347C32.5706 25.7247 32.6606 25.9235 32.7493 26.1298C32.8569 26.3786 32.9781 26.6536 33.1144 26.9549H33.1732L33.2082 26.8549C33.3032 26.5924 33.3957 26.3498 33.4869 26.1285C33.5895 25.8797 33.6895 25.6435 33.787 25.4197L34.5471 23.6219H36.8399L34.3708 28.3564L36.9999 33.1495H34.6046L33.6557 31.2068L33.5395 30.9542C33.4632 30.7867 33.3869 30.6192 33.3119 30.4542C33.1994 30.2054 33.0756 29.9353 32.9394 29.6428H32.8806L32.8406 29.7516C32.7468 30.0028 32.6531 30.2366 32.5593 30.4542C32.4518 30.7029 32.3455 30.953 32.238 31.2068L31.3466 33.1495H29.0388L31.6829 28.2551L29.2001 23.6232H31.5954V23.6244ZM19.6087 23.6244V25.4359H15.7957V27.35H19.0386V29.1477H15.7957V31.3393H19.7537V33.1508H13.6479V23.6244H19.6087ZM12.0076 23.6244V33.1508H9.85983V23.6244H12.0076ZM5.04915 23.6244V31.3393H8.81843V33.1508H2.90259V23.6244H5.04915ZM23.148 23.6244V29.0277C23.1542 29.9253 23.2955 30.5554 23.5718 30.9155C23.8543 31.2855 24.2631 31.4705 24.7982 31.4705C25.3333 31.4705 25.7471 31.2855 26.0396 30.9155C26.3322 30.5454 26.4784 29.8928 26.4784 28.9577V23.6244H28.5525V28.8227C28.5412 30.3766 28.2224 31.5131 27.5961 32.2307C26.9585 32.9608 26.0259 33.3271 24.7982 33.3271C23.5618 33.3271 22.6166 32.962 21.9641 32.2307C21.3115 31.5005 20.9852 30.3366 20.9852 28.7389V23.6244H23.148Z" fill="#4232C5"/>
<path d="M23.952 35.6597H14.8257V38.005H23.952V35.6597Z" fill="#E8336D"/>
<path d="M32.6819 9.41105C32.7244 9.21852 32.7644 9.04975 32.8019 8.90598C32.8394 8.76096 32.8857 8.62719 32.9407 8.50217C32.9957 8.37715 33.0707 8.25714 33.1682 8.14087C33.2644 8.0246 33.3982 7.89459 33.5657 7.74957C33.5495 7.94209 33.5232 8.11212 33.4895 8.26089C33.4557 8.40966 33.4057 8.54718 33.3382 8.67595C33.2707 8.80472 33.1844 8.92848 33.0794 9.04975C32.9744 9.17102 32.8419 9.29103 32.6819 9.41105ZM33.3482 11.9677C33.487 11.9677 33.6558 11.9514 33.8558 11.9189C34.0558 11.8864 34.2658 11.8376 34.4859 11.7714C34.7059 11.7064 34.9284 11.6239 35.1522 11.5264C35.376 11.4288 35.576 11.3163 35.7511 11.1901C35.9261 11.0638 36.0686 10.9213 36.1786 10.7612C36.2886 10.6025 36.3436 10.4324 36.3436 10.2537C36.3436 10.1887 36.3349 10.1237 36.3186 10.0574C36.3024 9.99238 36.2536 9.95988 36.1724 9.95988C36.0911 9.95988 36.0136 9.98988 35.9398 10.0511C35.8661 10.1124 35.7973 10.1837 35.7323 10.2649C35.6673 10.3462 35.6035 10.4262 35.5423 10.5037C35.481 10.5812 35.4298 10.64 35.3898 10.6812C35.096 10.9175 34.7747 11.0888 34.4234 11.1951C34.0733 11.3013 33.7058 11.3538 33.322 11.3538C33.1919 11.3538 33.0707 11.3476 32.9607 11.3351C32.8506 11.3226 32.7531 11.2901 32.6669 11.2376C32.5819 11.1851 32.5143 11.1125 32.4656 11.0238C32.4168 10.9338 32.3918 10.8163 32.3918 10.6687V10.6437C32.3918 10.6187 32.4006 10.5787 32.4168 10.5212C32.4331 10.4637 32.4456 10.4237 32.4531 10.3987C32.7144 10.1787 32.9469 9.96863 33.1507 9.7686C33.3545 9.56857 33.5282 9.35479 33.6708 9.12601C33.8133 8.89723 33.9195 8.64844 33.9883 8.37966C34.0571 8.11087 34.0921 7.80082 34.0921 7.44952C34.0921 7.41702 34.0896 7.35826 34.0858 7.272C34.0821 7.18574 34.0796 7.12698 34.0796 7.09447C34.0471 7.00446 34.0083 6.9207 33.9633 6.84319C33.9183 6.76568 33.8433 6.72692 33.737 6.72692C33.452 6.72692 33.2132 6.79068 33.0219 6.91695C32.8306 7.04322 32.6731 7.20449 32.5506 7.40077C32.4281 7.59704 32.3331 7.80832 32.2631 8.03711C32.1943 8.26589 32.1343 8.47842 32.0855 8.67345C32.0693 8.7222 32.0468 8.81472 32.018 8.94849C31.9893 9.08351 31.9568 9.22352 31.9205 9.37105C31.8843 9.51857 31.8467 9.65484 31.8105 9.7811C31.7742 9.90737 31.7467 9.99488 31.7305 10.0449L31.6692 10.89C31.7755 11.3226 31.973 11.6101 32.2631 11.7526C32.5543 11.8964 32.9156 11.9677 33.3482 11.9677ZM27.5161 11.9677C27.6212 11.9677 27.7124 11.9652 27.7887 11.9614C27.8649 11.9577 27.9399 11.9464 28.0125 11.9302C28.085 11.9139 28.1662 11.8952 28.255 11.8739C28.3438 11.8526 28.4525 11.8226 28.5825 11.7814C28.68 11.7401 28.8313 11.6801 29.0363 11.6014C29.2426 11.5226 29.4539 11.4426 29.6727 11.3601C29.8902 11.2776 30.0953 11.1988 30.284 11.125C30.4741 11.0513 30.5966 11.005 30.6541 10.9888C30.8566 10.8975 31.0679 10.7862 31.2904 10.6537C31.513 10.5212 31.7167 10.3687 31.9018 10.1949C32.088 10.0211 32.2431 9.82736 32.3681 9.61233C32.4931 9.3973 32.5556 9.15852 32.5556 8.89348C32.5556 8.81097 32.5418 8.72596 32.5131 8.63969C32.4843 8.55343 32.4181 8.50967 32.3131 8.50967C32.2006 8.50967 32.1155 8.55093 32.058 8.63344C32.0018 8.71595 31.9505 8.81347 31.9068 8.92473C31.8618 9.036 31.8217 9.14977 31.7855 9.26478C31.7492 9.3798 31.7067 9.47106 31.658 9.53732C31.4479 9.77735 31.1654 10.0061 30.8104 10.2249C30.4553 10.4437 30.0777 10.6312 29.6777 10.7887C29.2776 10.9463 28.8801 11.0713 28.4838 11.1663C28.0875 11.2613 27.7449 11.3088 27.4536 11.3088C27.4374 11.3088 27.3811 11.3063 27.2836 11.3026C27.1861 11.2988 27.1261 11.2963 27.1023 11.2963C27.0373 11.2551 26.9673 11.2138 26.8898 11.1726C26.8135 11.1313 26.766 11.0688 26.751 10.9863V10.875C26.751 10.825 26.7485 10.7762 26.7448 10.7262C26.741 10.6762 26.7385 10.6275 26.7385 10.5775V10.4662C26.7385 10.2024 26.7685 9.97488 26.8298 9.78485C26.8898 9.59483 26.9748 9.4173 27.0848 9.25228C27.1936 9.08726 27.3211 8.92348 27.4661 8.76346C27.6111 8.60219 27.7687 8.41841 27.9387 8.21213C27.9462 8.19588 27.9649 8.17338 27.9937 8.14462C28.0225 8.11587 28.04 8.09712 28.0487 8.08836H28.0975C28.1625 8.10462 28.215 8.13337 28.255 8.17463C28.295 8.21588 28.3337 8.25714 28.37 8.29839C28.4063 8.33965 28.4488 8.37466 28.4975 8.40341C28.5463 8.43216 28.6025 8.44716 28.6675 8.44716C28.7726 8.44716 28.8651 8.42591 28.9463 8.38466C29.0276 8.3434 29.0676 8.26964 29.0676 8.16212C29.0676 8.06336 29.0488 7.95334 29.0126 7.83333C28.9763 7.71331 28.9238 7.59954 28.8551 7.49328C28.7863 7.38701 28.7076 7.2945 28.6188 7.22074C28.53 7.14698 28.4288 7.10947 28.3162 7.10947C28.26 7.10947 28.2175 7.11573 28.1887 7.12823C28.16 7.14073 28.1362 7.15698 28.1162 7.17824C28.0962 7.19949 28.0712 7.21949 28.0437 7.24074C28.015 7.262 27.9812 7.2845 27.9412 7.30825C27.7874 7.25074 27.6074 7.29575 27.4024 7.44452C27.1973 7.59329 26.9948 7.80332 26.796 8.07586C26.5985 8.3484 26.4247 8.6747 26.2747 9.05475C26.1247 9.4348 26.0309 9.83486 25.9897 10.2562C26.0059 10.5375 26.0397 10.7825 26.0922 10.9938C26.1447 11.2051 26.2272 11.3813 26.341 11.5264C26.4535 11.6714 26.606 11.7801 26.7948 11.8551C26.9848 11.9302 27.2248 11.9677 27.5161 11.9677ZM21.1427 11.9677C21.1952 11.9677 21.2465 11.9614 21.2952 11.9489C21.344 11.9364 21.3865 11.9177 21.4228 11.8927C21.459 11.8676 21.474 11.8301 21.4653 11.7801C21.4728 11.7126 21.489 11.6039 21.514 11.4538C21.5378 11.3038 21.5653 11.1438 21.5928 10.9775C21.6215 10.81 21.6515 10.6512 21.6841 10.5012C21.7166 10.3512 21.7403 10.2462 21.7566 10.1874C21.8053 10.0199 21.8841 9.80736 21.9941 9.54732C22.1041 9.28853 22.2341 9.03225 22.3842 8.78221C22.5342 8.53093 22.7054 8.3184 22.8955 8.14212C23.0868 7.96585 23.2793 7.87833 23.4743 7.87833V8.29214L22.9992 10.7262V10.8888C22.9992 11.0225 23.0055 11.1475 23.018 11.2651C23.0305 11.3826 23.058 11.4888 23.103 11.5851C23.148 11.6814 23.2143 11.7589 23.3043 11.8176C23.393 11.8764 23.5156 11.9052 23.6693 11.9052C23.8231 11.9052 24.0106 11.8764 24.2294 11.8176C24.4482 11.7589 24.6745 11.6801 24.9058 11.5789C25.137 11.4788 25.3721 11.3576 25.6121 11.2151C25.8521 11.0725 26.0622 10.9225 26.246 10.7637C26.4285 10.605 26.5785 10.4349 26.696 10.2562C26.8135 10.0761 26.8723 9.89487 26.8723 9.70984C26.8723 9.65109 26.8535 9.60358 26.8173 9.56607C26.781 9.52857 26.7335 9.50982 26.6773 9.50982H26.6285C26.466 9.70234 26.2747 9.90112 26.0559 10.1062C25.8371 10.3112 25.6009 10.4925 25.3496 10.6525C25.0983 10.8112 24.8358 10.9438 24.5645 11.0475C24.2919 11.1525 24.0306 11.2038 23.7794 11.2038V10.1874L24.2419 8.04211V7.9921C24.2419 7.97585 24.2444 7.9646 24.2482 7.96085L24.2507 7.95709C24.2532 7.95209 24.2544 7.94209 24.2544 7.92959C24.2544 7.69581 24.1869 7.50328 24.0531 7.35201C23.9194 7.20199 23.7343 7.12573 23.4993 7.12573C23.3855 7.12573 23.2655 7.15448 23.1405 7.21324C23.0142 7.272 22.9067 7.34326 22.818 7.42702C22.7942 7.46077 22.7405 7.51453 22.6592 7.58954C22.5779 7.66455 22.4904 7.74457 22.3979 7.82833C22.3041 7.91209 22.2166 7.99085 22.1366 8.06711C22.0554 8.14212 21.9991 8.19213 21.9666 8.21713V7.36326C21.9666 7.28825 21.9241 7.22699 21.8391 7.18073C21.7541 7.13448 21.6791 7.11198 21.614 7.11198C21.5903 7.11198 21.5453 7.11447 21.4803 7.11823C21.4153 7.12198 21.3703 7.14073 21.3465 7.17448L21.1027 8.84347V9.19477L20.6852 11.7039V11.7414C20.6852 11.8414 20.7214 11.9039 20.7952 11.9302C20.8677 11.9552 20.9414 11.9677 21.014 11.9677H21.1427ZM15.2556 11.3288V10.985L15.5519 9.49481C15.5607 9.46981 15.5744 9.4373 15.5944 9.3998C15.6144 9.36104 15.6394 9.32104 15.6682 9.27853C15.6969 9.23603 15.7232 9.19977 15.7482 9.16977C15.7732 9.13976 15.7895 9.12476 15.797 9.12476C15.8382 9.08225 15.9145 9.00224 16.0245 8.88348C16.1345 8.76471 16.2545 8.63719 16.382 8.50092C16.5096 8.36465 16.6308 8.23964 16.7458 8.12587C16.8609 8.0121 16.9434 7.93334 16.9921 7.89084C17.0084 7.88208 17.0434 7.87833 17.0971 7.87833H17.2022C17.3259 7.87833 17.4234 7.88709 17.4985 7.90334C17.5722 7.92084 17.6622 7.97585 17.7697 8.06836C17.7697 8.08586 17.7722 8.11087 17.776 8.14462L17.7785 8.16337C17.781 8.18838 17.7822 8.20713 17.7822 8.22088C17.7822 8.46717 17.751 8.7072 17.6897 8.93973C17.6285 9.17352 17.5935 9.4173 17.5847 9.67234C17.486 9.82486 17.3459 9.99738 17.1659 10.1874C16.9846 10.3787 16.7846 10.5587 16.5621 10.7287C16.3395 10.8988 16.1145 11.0413 15.8845 11.155C15.6532 11.2713 15.4444 11.3288 15.2556 11.3288ZM15.1581 11.9677C15.3794 11.9677 15.5969 11.9227 15.8095 11.8314C16.022 11.7401 16.2308 11.6326 16.4358 11.5088C16.6408 11.3851 16.8371 11.2476 17.0259 11.0988C17.2147 10.95 17.3909 10.8088 17.5547 10.6762C17.5385 10.8338 17.541 10.985 17.561 11.13C17.581 11.2751 17.621 11.3988 17.6772 11.5026C17.7347 11.6064 17.821 11.6889 17.9348 11.7514C18.0498 11.8139 18.1973 11.8451 18.3773 11.8451C18.4923 11.8451 18.6211 11.8301 18.7649 11.8014C18.9087 11.7726 19.0537 11.7326 19.2012 11.6839C19.3487 11.6339 19.4925 11.5826 19.6313 11.5289C19.77 11.4751 19.8975 11.4151 20.0126 11.3488C20.0776 11.3238 20.1863 11.2701 20.3376 11.1876C20.4889 11.105 20.6514 11.0175 20.8227 10.9263C20.9952 10.835 21.1565 10.7525 21.3078 10.6775C21.459 10.6025 21.564 10.545 21.6215 10.5037C21.6628 10.47 21.6853 10.4349 21.6891 10.3974C21.6928 10.3599 21.6953 10.3212 21.6953 10.2799C21.6953 10.1974 21.6691 10.1312 21.6153 10.0811C21.5615 10.0311 21.494 10.0061 21.4128 10.0061C21.404 10.0061 21.3903 10.0086 21.3703 10.0124L21.3565 10.0149C21.344 10.0174 21.334 10.0186 21.3278 10.0186L18.9937 11.1125C18.9112 11.1463 18.8324 11.1638 18.7536 11.1688C18.6749 11.1738 18.5961 11.1751 18.5136 11.1751C18.4973 11.1751 18.4561 11.1726 18.3911 11.1688C18.3261 11.1651 18.2848 11.1625 18.2686 11.1625C18.2598 11.1463 18.2498 11.0988 18.2373 11.02C18.2248 10.9413 18.2148 10.8938 18.2061 10.8775V10.8025C18.2061 10.5787 18.2286 10.3649 18.2736 10.1624C18.3186 9.95988 18.3673 9.75485 18.4211 9.54732C18.4748 9.33979 18.5236 9.13476 18.5686 8.93223C18.6136 8.7297 18.6361 8.51967 18.6361 8.30464C18.6361 8.14712 18.6224 7.9896 18.5936 7.83208C18.5649 7.67455 18.5161 7.53328 18.4461 7.40952C18.3761 7.28575 18.2823 7.18324 18.1635 7.10448C18.0448 7.02571 17.8948 6.98696 17.7147 6.98696H17.4935C17.0021 7.04447 16.5496 7.20449 16.1358 7.46578C15.722 7.72706 15.3819 8.04961 15.1156 8.43466C14.8493 8.81972 14.6656 9.25228 14.563 9.7336C14.4605 10.2137 14.4793 10.7025 14.618 11.2001V11.5851C14.6593 11.7176 14.7281 11.8151 14.8268 11.8777C14.9256 11.9364 15.0356 11.9677 15.1581 11.9677ZM12.1502 11.9677C12.2652 11.9677 12.4302 11.9302 12.6465 11.8551C12.8628 11.7801 13.1003 11.6801 13.3579 11.5539C13.6154 11.4288 13.8792 11.2888 14.1492 11.1338C14.4193 10.9788 14.6643 10.8225 14.8856 10.6637C15.1069 10.505 15.2869 10.3499 15.4257 10.1999C15.5644 10.0499 15.6344 9.92362 15.6344 9.82361C15.6344 9.79861 15.6307 9.7611 15.6219 9.71109C15.6132 9.66109 15.5969 9.63608 15.5732 9.63608H15.2056C15.1406 9.68609 15.0794 9.7361 15.0219 9.78611C14.9626 9.83386 14.9078 9.87549 14.8577 9.91175C14.8106 9.94588 14.7674 9.97501 14.7281 9.99988C14.6793 10.0336 14.628 10.0686 14.5743 10.1062C14.5205 10.1437 14.478 10.1924 14.4455 10.2499L13.3666 10.9275C13.2766 10.9438 13.1903 10.9713 13.1091 11.0088C13.0278 11.0463 12.9441 11.0863 12.8578 11.1275C12.7715 11.1688 12.6878 11.2076 12.6065 11.2401C12.5252 11.2726 12.4352 11.2901 12.3365 11.2901C12.2952 11.2901 12.2527 11.2876 12.2077 11.2838C12.1627 11.2801 12.1439 11.2401 12.1527 11.1651V10.8388C12.1527 10.6712 12.1714 10.485 12.2077 10.2812C12.244 10.0761 12.2815 9.87112 12.3177 9.66609C12.354 9.46106 12.3915 9.25853 12.4277 9.05725C12.464 8.85597 12.4827 8.6772 12.4827 8.51843C12.4827 8.3434 12.4515 8.20713 12.3902 8.11087C12.329 8.0146 12.2252 7.92459 12.0777 7.84083C11.9464 7.77332 11.7951 7.71081 11.6239 7.6533C11.4526 7.59579 11.2901 7.54079 11.1388 7.49078C10.9875 7.44077 10.8613 7.39452 10.7587 7.35326C10.6562 7.312 10.61 7.27325 10.6175 7.24074C10.5362 7.24074 10.4662 7.2695 10.4087 7.32826C10.3512 7.38701 10.3024 7.45577 10.2612 7.53579C10.2199 7.6158 10.1899 7.70081 10.1687 7.79332C10.1487 7.88584 10.1374 7.9646 10.1374 8.03211C10.1374 8.09962 10.1399 8.15587 10.1437 8.20088C10.1474 8.24714 10.1662 8.29964 10.1987 8.35715C10.1087 8.58343 10.0436 8.78971 10.0024 8.97849C9.96113 9.16602 9.90862 9.34479 9.84236 9.51107C9.77736 9.67859 9.68859 9.84611 9.57858 10.0124C9.46856 10.1799 9.29854 10.3512 9.06976 10.5262C9.061 10.6762 9.06601 10.7912 9.08226 10.8713C9.09851 10.9513 9.12101 11.0088 9.14977 11.0463C9.17852 11.0838 9.20728 11.1063 9.23603 11.115C9.26479 11.1238 9.28353 11.1275 9.29104 11.1275C9.60983 10.9013 9.83737 10.6712 9.97238 10.4374C10.1074 10.2037 10.2099 9.96863 10.2787 9.73485C10.3474 9.50106 10.4174 9.27478 10.4875 9.05725C10.5575 8.83972 10.6812 8.63469 10.8613 8.44216C10.8613 8.45092 10.92 8.48217 11.0388 8.53593C11.1576 8.58969 11.2863 8.65344 11.4251 8.72345C11.5639 8.79471 11.6926 8.85972 11.8114 8.91723C11.9302 8.97599 11.9889 9.00974 11.9889 9.01724C11.9889 9.11726 11.9602 9.25103 11.9027 9.41855C11.8452 9.58608 11.7801 9.75735 11.7064 9.93238C11.6326 10.1074 11.5676 10.2799 11.5101 10.4462C11.4526 10.6137 11.4238 10.7425 11.4238 10.835C11.4238 10.96 11.4338 11.0875 11.4551 11.2176C11.4751 11.3476 11.5139 11.4663 11.5714 11.5751C11.6289 11.6839 11.7026 11.7764 11.7926 11.8514C11.8852 11.9302 12.0039 11.9677 12.1502 11.9677ZM4.34408 11.8401C4.4291 11.8401 4.48785 11.8151 4.52161 11.7664L5.22921 10.4524L5.93681 8.11837L6.05933 7.16073H6.29061C6.35562 7.16073 6.42313 7.15823 6.49189 7.15448C6.56065 7.15073 6.61941 7.14823 6.66942 7.14823C7.01071 7.14823 7.35076 7.17073 7.68831 7.21574C8.02586 7.26075 8.35715 7.28325 8.6822 7.28325C8.78846 7.28325 8.89598 7.25075 9.006 7.18449C9.11601 7.11948 9.17102 7.02446 9.17102 6.90194C9.17102 6.80318 9.12977 6.73192 9.0485 6.68691C8.96724 6.64191 8.87098 6.6094 8.76221 6.58815C8.6522 6.56815 8.54468 6.5569 8.43842 6.5569H6.2306C6.16559 6.57315 6.13059 6.56315 6.12684 6.52564C6.12308 6.48814 6.12059 6.45438 6.12059 6.42063C6.12059 6.09308 6.13059 5.77178 6.15059 5.45674L6.16184 5.26671C6.17434 5.01293 6.18184 4.75414 6.18184 4.49285C6.18184 4.28782 6.17184 4.0878 6.15184 3.89152C6.13184 3.69524 6.12184 3.49896 6.12184 3.30143V3.21517L9.08726 2.96889C9.18477 2.96014 9.29104 2.91763 9.4048 2.84012C9.51857 2.76261 9.57608 2.67009 9.57608 2.56383C9.57608 2.55508 9.57358 2.54133 9.56983 2.52132L9.56733 2.50757C9.56483 2.49507 9.56358 2.48507 9.56358 2.47882C9.53857 2.45381 9.50857 2.41756 9.47231 2.3688C9.43606 2.32005 9.39105 2.26629 9.33854 2.20878C9.28604 2.15127 9.22853 2.10251 9.16727 2.06126C9.10601 2.02 9.0435 2 8.97849 2C8.89723 2 8.84847 2.01875 8.83222 2.05501C8.81597 2.09126 8.80972 2.13752 8.81347 2.19003C8.81722 2.24378 8.81722 2.29504 8.81347 2.3438C8.80972 2.39256 8.78722 2.42131 8.74596 2.43006C8.37216 2.50382 7.9871 2.55133 7.5933 2.57133C7.19824 2.59133 6.81443 2.60258 6.44063 2.60258C6.31061 2.60258 6.19059 2.59008 6.08058 2.56633C5.97056 2.54133 5.86305 2.51507 5.75678 2.48632C5.65052 2.45756 5.543 2.42881 5.43299 2.40006C5.32297 2.3713 5.21546 2.35755 5.10919 2.35755C5.09294 2.35755 5.06293 2.36005 5.01793 2.3638L4.99668 2.3663C4.96292 2.3688 4.94042 2.37005 4.92667 2.37005C4.89416 2.41131 4.87541 2.45006 4.87166 2.48632C4.86791 2.52257 4.86541 2.56258 4.86541 2.60258C4.86541 2.6926 4.88166 2.76261 4.91416 2.81136C4.94667 2.86012 4.98792 2.90513 5.03668 2.94638C5.08544 2.98764 5.13669 3.03265 5.1892 3.0814C5.24171 3.13016 5.29672 3.19142 5.35423 3.26518C5.42799 3.37144 5.47675 3.49396 5.5005 3.63398C5.52425 3.774 5.54175 3.91402 5.54925 4.05779C5.558 4.20156 5.558 4.34408 5.54925 4.48785C5.5405 4.63162 5.53675 4.76039 5.53675 4.87541C5.53675 4.98167 5.5405 5.11294 5.54925 5.26796C5.558 5.42299 5.55926 5.58176 5.55551 5.74053C5.55176 5.90055 5.53675 6.05432 5.513 6.2006C5.48925 6.34687 5.45174 6.46688 5.40298 6.5569C5.1667 6.57315 4.91041 6.59315 4.63412 6.61815C4.35783 6.64316 4.07655 6.66691 3.79275 6.69192C3.50896 6.71692 3.22392 6.73317 2.93888 6.74067C2.65384 6.74817 2.39005 6.74942 2.14627 6.74067C2.07251 6.72442 2.03 6.74067 2.01875 6.78943C2.0075 6.83819 2 6.87944 2 6.91195C2 6.96945 2.00625 7.01821 2.01875 7.05947C2.03125 7.10072 2.07376 7.13323 2.14627 7.15823C2.22753 7.17448 2.29504 7.18449 2.34755 7.18949C2.40006 7.19449 2.45381 7.19824 2.50632 7.20199C2.55883 7.20574 2.61258 7.20824 2.66509 7.20824H2.85387C3.23642 7.20824 3.61648 7.19949 3.99528 7.18323C4.37409 7.16698 4.75414 7.15823 5.1367 7.15823C5.20171 7.15823 5.25421 7.16448 5.29547 7.17698C5.33672 7.18949 5.35673 7.23199 5.35673 7.30575C5.35673 7.60829 5.32672 7.90584 5.26546 8.19588C5.20421 8.48592 5.12669 8.77346 5.03418 9.056C4.94167 9.33854 4.8329 9.61483 4.71039 9.88487C4.58787 10.1549 4.4666 10.4212 4.34408 10.6837C4.29533 10.7737 4.24657 10.8513 4.19781 10.9175C4.14905 10.9838 4.10405 11.0463 4.06404 11.1075C4.02404 11.1688 3.98903 11.2388 3.96028 11.3163C3.93152 11.3938 3.91777 11.4938 3.91777 11.6176C3.91777 11.6664 3.92027 11.7051 3.92402 11.7339C3.92777 11.7626 3.94653 11.7976 3.97903 11.8389H4.34408V11.8401Z" fill="#E8336D"/>
</svg>