<svg width="189" height="43" viewBox="0 0 189 43" fill="none" xmlns="http://www.w3.org/2000/svg">
<g clip-path="url(#clip0_5084_112181)">
<path d="M14.6188 24.1594C13.8364 25.1028 12.8909 25.8619 11.8386 26.3915C10.7863 26.921 9.64874 27.2102 8.49363 27.2418C7.33852 27.2733 6.18949 27.0467 5.11498 26.5753C4.04046 26.1039 3.06242 25.3974 2.23911 24.4978C0.0358825 22.0532 1.03355e-07 19.6802 7.15522e-08 13.6244C3.9749e-08 7.56856 0.043059 5.19162 2.23911 2.74699C3.03301 1.87136 3.97472 1.17801 5.01036 0.706612C6.04601 0.235214 7.15526 -0.00498298 8.27465 -0.000236215C12.516 -0.000236237 15.7706 3.08541 16.5278 7.82736L14.6977 7.82736C13.9801 4.14051 11.5436 1.80736 8.28541 1.80736C7.4372 1.79871 6.59591 1.97729 5.81047 2.33273C5.02504 2.68816 4.31114 3.21334 3.71031 3.87773C1.96998 5.81273 1.83722 7.86717 1.83722 13.6244C1.83722 19.3816 1.97357 21.452 3.70314 23.3671C4.30384 24.0316 5.01772 24.5569 5.80318 24.9124C6.58864 25.2678 7.43 25.4463 8.27824 25.4375C9.23644 25.4435 10.1839 25.2138 11.0526 24.765C11.9212 24.3161 12.6894 23.6592 13.3019 22.8415C14.3461 21.4122 14.7551 19.8315 14.7551 17.5382L14.7551 15.1294L8.27465 15.1294L8.27465 13.3218L16.5852 13.3218L16.5852 17.7014C16.5852 20.4885 16.0433 22.4792 14.6188 24.1753" fill="#FF0101"/>
<path d="M31.9782 2.03265L24.8554 2.03265L24.8554 12.8702L31.9782 12.8702C35.0642 12.8702 37.3033 11.1383 37.3033 7.45144C37.3033 3.76459 35.0642 2.03265 31.9782 2.03265ZM37.2674 27.0204L31.501 14.6778L24.8554 14.6778L24.8554 27.0204L23.0254 27.0204L23.0254 0.237L32.2151 0.236999C36.1622 0.236999 39.1333 2.75728 39.1333 7.42357C39.1333 11.4051 36.9624 14.0089 33.5714 14.65L39.4024 27.0324L37.2674 27.0204Z" fill="#FF0101"/>
<path d="M51.7832 2.93246L46.7308 18.6991L56.8355 18.6991L51.7832 2.93246ZM59.516 27.0164L57.4133 20.5067L46.1531 20.5067L44.0504 27.0164L42.084 27.0164L50.9686 0.236999L52.5977 0.236999L61.4824 27.0324L59.516 27.0164Z" fill="#FF0101"/>
<path d="M81.4838 27.0166L67.5468 3.72496L67.5468 27.0166L65.7168 27.0166L65.7168 0.221252L67.5468 0.221252L81.4838 23.4413L81.4838 0.221252L83.3175 0.221252L83.3175 27.0166L81.4838 27.0166Z" fill="#FF0101"/>
<path d="M103.623 4.09904C102.234 2.50644 100.368 2.03265 98.4342 2.03265L92.5996 2.03265L92.5996 25.2088L98.4306 25.2088C100.365 25.2088 102.231 24.7191 103.619 23.1385C105.55 20.9566 105.413 16.2147 105.413 13.2445C105.413 10.2743 105.546 6.28487 103.619 4.08709L103.623 4.09904ZM104.907 24.5599C103.472 26.1525 101.384 27.0045 98.872 27.0045L90.7695 27.0045L90.7695 0.237L98.8755 0.236999C101.387 0.236999 103.487 1.10496 104.911 2.68561C107.355 5.39302 107.251 9.64524 107.251 13.2604C107.251 16.8756 107.355 21.8604 104.911 24.5718L104.907 24.5599Z" fill="#FF0101"/>
<path d="M112.846 27.0166L112.846 0.221252L117.561 0.221252L117.561 22.3503L128.516 22.3503L128.516 27.0166L112.846 27.0166Z" fill="#333333"/>
<path d="M138.852 16.0277L138.852 27.0166L134.173 27.0166L134.173 16.0277L126.914 0.221252L132.035 0.221252L136.545 11.027L140.991 0.221252L146.108 0.221252L138.852 16.0277Z" fill="#333333"/>
<path d="M159.805 6.09478C159.424 5.62814 158.957 5.25868 158.436 5.0119C157.914 4.76512 157.35 4.64691 156.783 4.66543C156.212 4.64699 155.643 4.76508 155.116 5.01168C154.59 5.25829 154.117 5.62767 153.73 6.09478C152.815 7.22154 152.578 8.48367 152.578 13.6198C152.578 18.7559 152.815 20.014 153.73 21.1448C154.117 21.6117 154.59 21.9809 155.117 22.2275C155.643 22.4741 156.212 22.5923 156.783 22.5741C157.35 22.5924 157.914 22.4741 158.435 22.2273C158.957 21.9805 159.424 21.6112 159.805 21.1448C160.72 20.014 160.992 18.7559 160.992 13.6198C160.992 8.48367 160.723 7.22154 159.805 6.09478ZM163.311 24.3101C161.561 26.1934 159.219 27.2467 156.782 27.2467C154.344 27.2467 152.002 26.1934 150.253 24.3101C147.813 21.6026 147.877 18.2502 147.877 13.6238C147.877 8.99728 147.813 5.6608 150.253 2.93747C152.002 1.05412 154.344 0.000793424 156.782 0.000793411C159.219 0.000793399 161.561 1.05412 163.311 2.93747C165.754 5.64487 165.718 8.9933 165.718 13.6238C165.718 18.2542 165.74 21.6026 163.311 24.3101Z" fill="#333333"/>
<path d="M184.79 27.0166L175.227 10.5731L175.227 27.0166L170.516 27.0166L170.516 0.221252L174.721 0.221252L184.284 16.6289L184.284 0.221252L188.999 0.221252L188.999 27.0166L184.79 27.0166Z" fill="#333333"/>
<path d="M160.242 35.4745L160.264 35.4745C160.376 35.2188 160.553 35.0047 160.773 34.8578C160.992 34.7108 161.246 34.6374 161.502 34.6464C162.363 34.6464 163.239 35.0445 163.239 37.6524C163.239 39.1414 163.196 40.8575 161.444 40.8575C161.208 40.8618 160.974 40.7976 160.766 40.6712C160.559 40.5449 160.384 40.3607 160.26 40.1368L160.228 40.1368L160.228 42.9995L159.363 42.9995L159.363 34.7658L160.239 34.7658L160.242 35.4745ZM162.324 37.6524C162.324 36.7526 162.324 35.4387 161.226 35.4387C160.128 35.4387 160.246 37.095 160.246 38.0067C160.246 38.803 160.289 40.0651 161.258 40.0651C162.227 40.0651 162.324 39.2569 162.324 37.6643L162.324 37.6524Z" fill="#333333"/>
<path d="M99.992 39.8734L99.9705 39.8734C99.8752 40.1805 99.6905 40.4438 99.4457 40.6218C99.2008 40.7998 98.9095 40.8825 98.6177 40.8568C97.4766 40.8568 97.1465 40.0406 97.1465 38.8939C97.1465 37.0824 98.7469 37.0027 99.9705 37.0346C99.992 36.2383 100.003 35.3783 99.0627 35.3783C98.9391 35.3673 98.815 35.3884 98.7001 35.44C98.5853 35.4916 98.4828 35.5722 98.401 35.6754C98.3191 35.7786 98.26 35.9016 98.2285 36.0345C98.197 36.1675 98.1939 36.3068 98.2194 36.4414L97.2864 36.4414C97.3295 35.1036 97.9682 34.6417 99.1093 34.6417C100.494 34.6417 100.857 35.438 100.857 36.4414L100.857 39.316C100.86 39.7921 100.896 40.2672 100.964 40.7374L100.006 40.7374L99.992 39.8734ZM98.022 38.9616C98.022 39.5389 98.2768 40.0605 98.8617 40.0605C99.4466 40.0605 100.057 39.6942 99.9705 37.7632C99.1416 37.7791 98.022 37.6995 98.022 38.9656L98.022 38.9616Z" fill="#333333"/>
<path d="M115.722 40.7375L115.722 36.5968C115.722 35.9916 115.572 35.4382 114.868 35.4382C114.724 35.4407 114.581 35.4776 114.451 35.5462C114.32 35.6149 114.204 35.7138 114.111 35.8363C113.976 36.1038 113.905 36.4056 113.907 36.7123L113.907 40.7336L113.038 40.7336L113.038 36.0075C113.038 35.6094 113.017 35.1794 112.984 34.7653L113.91 34.7653L113.91 35.5099L113.932 35.5099C114.042 35.2248 114.232 34.9868 114.474 34.8311C114.715 34.6755 114.996 34.6105 115.274 34.6459C115.528 34.6248 115.783 34.6862 116.006 34.8226C116.23 34.959 116.413 35.1646 116.533 35.4143C116.652 35.1581 116.838 34.9478 117.067 34.8107C117.295 34.6736 117.556 34.6162 117.814 34.6459C118.381 34.6459 119.285 34.7892 119.285 36.1947L119.285 40.7375L118.41 40.7375L118.41 36.5968C118.41 35.9916 118.263 35.4382 117.556 35.4382C117.438 35.4175 117.317 35.4268 117.203 35.4654C117.088 35.504 116.983 35.5709 116.896 35.6612C116.684 35.9597 116.579 36.3334 116.598 36.7123L116.598 40.7336L115.722 40.7375Z" fill="#333333"/>
<path d="M125.656 38.063C125.656 39.7313 126.061 40.0538 126.732 40.0538C127.328 40.0538 127.64 39.5203 127.669 38.9191L128.627 38.9191C128.627 40.2449 127.881 40.8461 126.75 40.8461C125.62 40.8461 124.705 40.4479 124.705 37.8281C124.705 36.0763 124.884 34.6429 126.75 34.6429C128.286 34.6429 128.67 35.5786 128.67 37.5534L128.67 38.063L125.656 38.063ZM127.755 37.3304C127.755 35.5905 127.317 35.3795 126.679 35.3795C126.126 35.3795 125.667 35.6741 125.656 37.3304L127.755 37.3304ZM127.97 32.1943L126.575 33.8626L125.857 33.8626L126.808 32.1943L127.97 32.1943Z" fill="#333333"/>
<path d="M134.605 34.7658L134.605 33.6191L135.481 33.1812L135.481 34.7737L136.654 34.7737L136.654 35.5063L135.481 35.5063L135.481 39.1613C135.481 39.5595 135.481 40.0253 136.281 40.0253C136.346 40.0253 136.482 40.0014 136.676 39.9775L136.676 40.7221C136.389 40.746 136.098 40.8176 135.811 40.8176C134.979 40.8176 134.605 40.4195 134.605 39.7546L134.605 35.4984L133.723 35.4984L133.723 34.7658L134.605 34.7658Z" fill="#333333"/>
<path d="M143.185 35.674L143.217 35.674C143.576 34.7623 144.028 34.6588 144.879 34.6588L144.879 35.6661L144.646 35.6302C144.568 35.6157 144.49 35.6077 144.412 35.6063C143.443 35.6063 143.196 36.4226 143.196 37.2268L143.196 40.7544L142.32 40.7544L142.32 34.7822L143.196 34.7822L143.185 35.674Z" fill="#333333"/>
<path d="M149.852 37.84C149.852 36.0882 150.031 34.6548 151.897 34.6548C153.763 34.6548 153.942 36.1001 153.942 37.84C153.942 40.4797 153.034 40.858 151.897 40.858C150.759 40.858 149.852 40.4797 149.852 37.84ZM153.027 37.4419C153.027 35.8095 152.568 35.4511 151.897 35.4511C151.226 35.4511 150.767 35.8055 150.767 37.4419C150.767 39.3809 150.993 40.0816 151.897 40.0816C152.801 40.0816 153.031 39.3649 153.031 37.426L153.027 37.4419Z" fill="#333333"/>
<path d="M168.586 37.84C168.586 36.0882 168.765 34.6548 170.631 34.6548C172.497 34.6548 172.68 36.1001 172.68 37.84C172.68 40.4797 171.772 40.858 170.631 40.858C169.49 40.858 168.586 40.4797 168.586 37.84ZM171.762 37.4419C171.762 35.8095 171.302 35.4511 170.631 35.4511C169.96 35.4511 169.501 35.8055 169.501 37.4419C169.501 39.3809 169.723 40.0816 170.631 40.0816C171.539 40.0816 171.765 39.3649 171.765 37.426L171.762 37.4419Z" fill="#333333"/>
<path d="M179.221 40.7386L178.346 40.7386L178.346 32.1983L179.218 32.1983L179.221 40.7386Z" fill="#333333"/>
<path d="M185.674 38.0618C185.674 39.7301 186.079 40.0526 186.75 40.0526C187.346 40.0526 187.658 39.519 187.687 38.9178L188.645 38.9178C188.645 40.2437 187.898 40.8449 186.768 40.8449C185.638 40.8449 184.723 40.4467 184.723 37.8269C184.723 36.0751 184.902 34.6417 186.768 34.6417C188.304 34.6417 188.688 35.5774 188.688 37.5522L188.688 38.0618L185.674 38.0618ZM187.773 37.3292C187.773 35.5893 187.335 35.3783 186.696 35.3783C186.144 35.3783 185.684 35.6729 185.674 37.3292L187.773 37.3292Z" fill="#333333"/>
<path d="M92.1236 40.7386L91.248 40.7386L91.248 32.1983L92.1236 32.1983L92.1236 40.7386Z" fill="#333333"/>
</g>
<defs>
<clipPath id="clip0_5084_112181">
<rect width="189" height="43" fill="white"/>
</clipPath>
</defs>
</svg>