<svg width="40" height="40" viewBox="0 0 40 40" fill="none" xmlns="http://www.w3.org/2000/svg">
<path d="M3.09413 20.5586C2.75675 20.9278 2.26844 21.1405 1.7511 21.1405C1.27064 21.1405 0.811351 20.9564 0.473971 20.6221C0.0075125 20.1608 0 19.7135 0 18.5705C0 17.4273 0.0075125 16.9799 0.473971 16.5183C0.811351 16.1843 1.27064 16.0002 1.7511 16.0002C2.6485 16.0002 3.3376 16.5818 3.49571 17.4768H3.10847C2.95754 16.7809 2.44088 16.3404 1.7511 16.3404C1.38503 16.3404 1.04082 16.4756 0.783008 16.7313C0.416944 17.0933 0.387919 17.484 0.387919 18.5705C0.387919 19.6568 0.416603 20.0471 0.782667 20.4094C1.04048 20.6648 1.38503 20.7997 1.75076 20.7997C2.15336 20.7997 2.54776 20.6297 2.81378 20.31C3.03642 20.0403 3.12247 19.7418 3.12247 19.3085V18.854H1.7511V18.5132H3.51005V19.3372C3.51005 19.8627 3.39531 20.2387 3.09413 20.5586" fill="#E30613"/>
<path d="M6.76769 16.3834H5.26006V18.4282H6.76769C7.42127 18.4282 7.89422 18.1017 7.89422 17.4058C7.89422 16.7095 7.42093 16.3834 6.76769 16.3834V16.3834ZM7.88739 21.0982L6.66763 18.7693H5.26006V21.0982H4.87317V16.043H6.81788C7.65075 16.043 8.28248 16.5183 8.28248 17.399C8.28248 18.1513 7.82251 18.6416 7.10541 18.7622L8.33951 21.0982H7.88739Z" fill="#E30613"/>
<path d="M10.959 16.5538L9.88983 19.5288H12.0285L10.959 16.5538ZM12.5957 21.0982L12.1508 19.8696H9.76758L9.32229 21.0982H8.90637L10.7872 16.043H11.1318L13.012 21.0982H12.5957Z" fill="#E30613"/>
<path d="M17.2454 21.0982L14.296 16.7034V21.0982H13.9084V16.043H14.296L17.2454 20.4234V16.043H17.6336V21.0982H17.2454Z" fill="#E30613"/>
<path d="M21.9307 16.7742C21.6367 16.4761 21.2416 16.3839 20.8328 16.3839H19.5977V20.7575H20.8328C21.2416 20.7575 21.6367 20.6653 21.9307 20.3662C22.3394 19.9547 22.3114 19.0604 22.3114 18.4993C22.3114 17.9383 22.3394 17.186 21.9307 16.7742V16.7742ZM22.2035 20.6366C21.902 20.9344 21.4574 21.098 20.9257 21.098H19.2108V16.0427H20.9257C21.4577 16.0427 21.902 16.2063 22.2035 16.5041C22.7205 17.0156 22.699 17.8177 22.699 18.4997C22.699 19.1806 22.7205 20.1254 22.2035 20.6366Z" fill="#E30613"/>
<path d="M23.8826 21.0982V16.043H24.8807V20.2182H27.199V21.0982H23.8826Z" fill="#020203"/>
<path d="M29.3876 19.0242V21.0983H28.3969V19.0242L26.861 16.0427H27.9445L28.8989 18.081L29.8393 16.0427H30.9225L29.3876 19.0242Z" fill="#020203"/>
<path d="M33.822 17.1501C33.6775 16.9865 33.4562 16.8803 33.1827 16.8803C32.9095 16.8803 32.6797 16.9869 32.5363 17.1501C32.3423 17.3632 32.2921 17.5981 32.2921 18.5703C32.2921 19.5425 32.342 19.7774 32.5363 19.9902C32.6797 20.1534 32.9095 20.2603 33.1827 20.2603C33.4562 20.2603 33.6775 20.1534 33.822 19.9902C34.0149 19.7774 34.0723 19.5425 34.0723 18.5703C34.0723 17.5981 34.0152 17.3632 33.822 17.1501ZM34.5606 20.5874C34.202 20.9422 33.7643 21.1406 33.1827 21.1406C32.6012 21.1406 32.1559 20.9422 31.7973 20.5874C31.2807 20.0759 31.2943 19.4435 31.2943 18.5706C31.2943 17.6965 31.2807 17.0654 31.7973 16.5542C32.1559 16.1987 32.6012 16 33.1827 16C33.7643 16 34.202 16.1987 34.5606 16.5539C35.0776 17.0651 35.0704 17.6965 35.0704 18.5703C35.0707 19.4435 35.0776 20.0759 34.5606 20.5874Z" fill="#020203"/>
<path d="M39.1101 21.0982L37.0859 17.9955V21.0982H36.0887V16.043H36.9786L39.0022 19.1381V16.043H40V21.0982H39.1101Z" fill="#020203"/>
<path d="M33.9138 22.6936H33.9193C33.9821 22.5887 34.0606 22.5378 34.1808 22.5378C34.3635 22.5378 34.5486 22.6092 34.5486 23.104C34.5486 23.3854 34.5394 23.7088 34.1716 23.7088C34.0637 23.7088 33.9841 23.6616 33.9213 23.5732H33.9141V24.1127H33.7297V22.56H33.9141V22.6936H33.9138ZM34.3546 23.104C34.3546 22.9346 34.3546 22.6871 34.1218 22.6871C33.894 22.6871 33.9138 22.9988 33.9138 23.1709C33.9138 23.3205 33.9237 23.5595 34.1286 23.5595C34.3273 23.5595 34.3546 23.4055 34.3546 23.104Z" fill="black"/>
<path d="M21.1631 23.5238H21.1583C21.1023 23.6532 21.0135 23.7085 20.8715 23.7085C20.6301 23.7085 20.5601 23.5552 20.5601 23.3384C20.5601 22.9969 20.8988 22.9815 21.1583 22.9883C21.1631 22.8388 21.1652 22.6756 20.9664 22.6756C20.8428 22.6756 20.7769 22.7585 20.7885 22.877H20.5874C20.5969 22.6247 20.7318 22.5376 20.9739 22.5376C21.2673 22.5376 21.3438 22.6872 21.3438 22.877V23.419C21.3438 23.5084 21.3526 23.5999 21.3663 23.6863H21.1631V23.5238ZM20.7455 23.3517C20.7455 23.4613 20.7994 23.5593 20.9234 23.5593C21.0361 23.5593 21.1761 23.49 21.1583 23.126C20.9825 23.1287 20.7455 23.113 20.7455 23.3517Z" fill="black"/>
<path d="M24.4922 23.6867V22.9057C24.4922 22.7917 24.4608 22.6872 24.3119 22.6872C24.2552 22.6872 24.1784 22.7203 24.1517 22.7626C24.1179 22.8186 24.1087 22.8856 24.1087 22.9279V23.6867H23.9236V22.794C23.9236 22.7158 23.9188 22.638 23.9124 22.5601H24.1087V22.7001H24.1135C24.1678 22.5793 24.2644 22.5376 24.3973 22.5376C24.5017 22.5376 24.6213 22.5793 24.6633 22.6824C24.7271 22.5618 24.8306 22.5376 24.9347 22.5376C25.0546 22.5376 25.2462 22.5639 25.2462 22.8296V23.6863H25.0611V22.9054C25.0611 22.7913 25.0293 22.6868 24.8801 22.6868C24.8104 22.6868 24.7906 22.6889 24.7408 22.7292C24.6861 22.7739 24.6773 22.8852 24.6773 22.9276V23.6863H24.4922V23.6867Z" fill="black"/>
<path d="M26.5946 23.1819C26.5946 23.4968 26.6803 23.5589 26.8248 23.5589C26.9508 23.5589 27.0167 23.4589 27.0232 23.3448H27.2263C27.224 23.5948 27.0682 23.7085 26.8296 23.7085C26.5881 23.7085 26.3959 23.6371 26.3959 23.1392C26.3959 22.809 26.4338 22.5369 26.8296 22.5369C27.154 22.5369 27.2356 22.7134 27.2356 23.0853V23.1812H26.5946V23.1819ZM27.0389 23.0436C27.0389 22.7158 26.9467 22.6755 26.8111 22.6755C26.6933 22.6755 26.5967 22.7319 26.5946 23.0436H27.0389ZM27.084 22.0752L26.7886 22.3897H26.6376L26.8384 22.0752H27.084Z" fill="black"/>
<path d="M28.4868 22.5599V22.343L28.6719 22.2607V22.5599H28.9201V22.6978H28.6719V23.388C28.6719 23.4593 28.6719 23.5512 28.8412 23.5512C28.8542 23.5512 28.8836 23.5461 28.9242 23.542V23.6827C28.8634 23.6871 28.8027 23.7008 28.7415 23.7008C28.5653 23.7008 28.4868 23.629 28.4868 23.4993V22.6982H28.2993V22.5599H28.4868Z" fill="black"/>
<path d="M30.3044 22.7295H30.3089C30.3854 22.5571 30.4803 22.5376 30.6613 22.5376V22.7271C30.6449 22.7244 30.6268 22.7223 30.6114 22.7199C30.5954 22.7179 30.5797 22.7155 30.5619 22.7155C30.3563 22.7155 30.3044 22.8699 30.3044 23.0211V23.6863H30.119V22.5598H30.3044V22.7295Z" fill="black"/>
<path d="M31.7151 23.1394C31.7151 22.8099 31.7533 22.5374 32.1484 22.5374C32.5435 22.5374 32.5821 22.8099 32.5821 23.1394C32.5821 23.6376 32.3902 23.7086 32.1484 23.7086C31.9067 23.7086 31.7151 23.6376 31.7151 23.1394ZM32.3878 23.0619C32.3878 22.7542 32.2905 22.6869 32.1484 22.6869C32.0064 22.6869 31.9097 22.7538 31.9097 23.0619C31.9097 23.4276 31.9572 23.5597 32.1484 23.5597C32.3407 23.5597 32.3878 23.4276 32.3878 23.0619Z" fill="black"/>
<path d="M35.6803 23.1394C35.6803 22.8099 35.7182 22.5374 36.1136 22.5374C36.5084 22.5374 36.547 22.8099 36.547 23.1394C36.547 23.6376 36.3551 23.7086 36.1136 23.7086C35.8722 23.7086 35.6803 23.6376 35.6803 23.1394ZM36.353 23.0619C36.353 22.7542 36.2557 22.6869 36.1136 22.6869C35.9716 22.6869 35.8746 22.7538 35.8746 23.0619C35.8746 23.4276 35.9221 23.5597 36.1136 23.5597C36.3055 23.5597 36.353 23.4276 36.353 23.0619Z" fill="black"/>
<path d="M37.931 22.0752H37.7456V23.6866H37.931V22.0752Z" fill="black"/>
<path d="M39.2969 23.1821C39.2969 23.4969 39.383 23.5594 39.5271 23.5594C39.6534 23.5594 39.719 23.459 39.7258 23.3449H39.9286C39.9266 23.5952 39.7709 23.7086 39.5318 23.7086C39.2904 23.7086 39.0985 23.6373 39.0985 23.1394C39.0985 22.8092 39.1361 22.5374 39.5318 22.5374C39.8566 22.5374 39.9379 22.7132 39.9379 23.0854V23.1814H39.2969V23.1821ZM39.7408 23.0438C39.7408 22.7159 39.6486 22.6757 39.5131 22.6757C39.3956 22.6757 39.299 22.732 39.2966 23.0438H39.7408Z" fill="black"/>
<path d="M19.497 22.0752H19.3119V23.6866H19.497V22.0752Z" fill="black"/>
</svg>