<svg id="impots" width="120" height="56" viewBox="0 0 120 56" fill="none" xmlns="http://www.w3.org/2000/svg">
<rect x="20" y="14" width="80" height="28.8" fill="white"/>
<path d="M53.2366 39.4592C53.5559 39.1424 53.8752 38.8256 54.1655 38.48C54.746 37.8176 55.3266 37.2128 55.9942 36.6368C56.1974 36.464 56.4006 36.2912 56.6038 36.176C56.6619 36.1184 56.6619 36.0032 56.7199 35.9456C56.4587 36.0608 56.2845 36.2624 55.9942 36.3776C55.9362 36.3776 55.8781 36.32 55.9362 36.2624C56.1394 36.1184 56.3426 35.9744 56.5167 35.8304H56.4877C56.4296 35.8304 56.4296 35.7728 56.4296 35.7152C55.704 35.6 55.1815 36.0896 54.688 36.5216C54.5719 36.5792 54.4558 36.464 54.4267 36.464C53.614 36.7232 53.0044 37.4432 52.1916 37.76V37.6448C51.8723 37.76 51.553 37.9616 51.2047 38.0192C50.7112 38.1344 50.2758 38.0768 49.8404 38.0768C49.1727 38.1344 48.5051 38.2784 47.8375 38.4224C47.8084 38.4224 47.8084 38.4224 47.7794 38.4512C47.4311 38.5376 47.0828 38.6816 46.7635 38.8544L46.6473 38.9696C46.5312 39.0848 46.4151 39.2288 46.27 39.2864C45.9217 39.4592 45.6604 39.7472 45.3701 40.0064C45.3411 40.0352 45.3121 40.0352 45.283 40.0352C44.9928 40.3232 44.7025 40.6112 44.4122 40.8704C44.3832 40.8992 44.2961 40.8992 44.2381 40.8992C44.2381 40.8704 44.2671 40.8704 44.2671 40.8416C44.3251 40.7552 44.3542 40.6976 44.4122 40.6112L44.5864 40.352C44.6735 40.2368 44.7315 40.1216 44.8186 40.0352C44.8476 40.0064 44.8476 39.9776 44.8186 39.9776C44.7896 39.9488 44.7606 39.9488 44.7315 39.9488C44.9928 39.6896 45.3411 39.4592 45.6604 39.2576C45.6314 39.2576 45.5733 39.2288 45.6024 39.2C45.6314 39.1424 45.6604 39.1136 45.6894 39.056C45.6894 39.0272 45.6894 39.0272 45.7185 38.9984C45.7185 38.9696 45.6894 38.9696 45.6894 38.9408L45.4282 39.1136C45.283 39.2288 45.196 39.4592 44.9928 39.4592H44.9057C44.8767 39.4592 44.8476 39.4592 44.8476 39.4304V39.4016C44.8476 39.3728 44.8767 39.3728 44.8767 39.344C44.8767 39.3152 44.9057 39.3152 44.9057 39.2864C44.9057 39.2864 44.9057 39.2576 44.9347 39.2576C44.9347 39.2288 44.9637 39.2 44.9637 39.2C44.9637 39.1712 44.9928 39.1712 44.9928 39.1424C45.0218 39.1136 45.0508 39.056 45.0508 39.0272C45.0508 38.9984 45.0799 38.9984 45.0799 38.9696C45.1089 38.9408 45.1089 38.912 45.1379 38.8832C45.1669 38.8256 45.1379 38.7968 45.1089 38.7968C45.196 38.6528 45.3411 38.5664 45.4862 38.48H45.4572C45.6604 38.3648 45.8926 38.2496 46.0958 38.1344L46.1829 38.048C45.8636 38.1632 45.6024 38.3072 45.3121 38.48C45.3121 38.48 45.254 38.5088 45.225 38.5376C45.225 38.5376 45.1669 38.5664 45.0799 38.48V38.4512C45.1379 38.336 45.3121 38.2784 45.3992 38.192C45.4572 38.192 45.5153 38.192 45.5153 38.2496C47.286 36.896 49.6952 37.2128 51.7272 36.5216C51.9013 36.4064 52.0465 36.2912 52.2206 36.2048C52.4819 36.0896 52.7141 35.8304 53.0334 35.6576C53.4688 35.3408 53.7881 34.9376 53.9623 34.4192C53.9623 34.3616 53.9042 34.304 53.9042 34.304C53.1786 35.0528 52.3658 35.6576 51.495 36.0896C50.3339 36.6944 49.0857 36.5792 47.8665 36.752C47.9246 36.6368 48.0407 36.6368 48.1278 36.6368C48.1278 36.464 48.2439 36.4064 48.36 36.32H48.5341C48.5922 36.32 48.5922 36.2048 48.6502 36.2048C48.7664 36.2048 48.9405 36.1472 48.8825 36.1472C48.7083 35.9168 48.389 36.32 48.1278 36.1472C48.2439 36.032 48.1858 35.888 48.3019 35.8304H48.5341C48.5341 35.7152 48.6502 35.6 48.6502 35.6C49.463 35.1104 50.2468 34.736 51.0015 34.304C50.8273 34.304 50.7402 34.4768 50.5661 34.3616C50.6822 34.3616 50.5661 34.1888 50.6822 34.1888C51.2918 34.016 51.7852 33.6992 52.3948 33.4688C52.1626 33.4688 52.0175 33.6416 51.7852 33.4688C51.9013 33.4112 51.9594 33.296 52.1045 33.296V33.1232C52.1045 33.0656 52.1626 33.0656 52.2206 33.0656C52.1626 33.0656 52.1045 33.008 52.1045 33.008C52.1626 32.8928 52.3368 32.9504 52.4238 32.8352C52.3658 32.8352 52.2497 32.8352 52.2497 32.7776C52.4238 32.5472 52.6851 32.5184 52.9754 32.4608C52.9173 32.3456 52.7431 32.4608 52.7431 32.3456C52.7431 32.288 52.8012 32.288 52.8593 32.288H52.7431C52.627 32.2304 52.6851 32.1152 52.6851 32.0576C53.0044 31.6832 53.0044 31.1936 53.1786 30.7616C53.1205 30.7616 53.0624 30.7616 53.0624 30.704C52.5109 31.3088 51.6401 31.5104 50.8273 31.7408H50.45C50.1887 31.856 49.7823 31.856 49.5211 31.6832C49.2889 31.568 49.2018 31.424 48.9696 31.2512C48.5341 30.992 48.0987 30.7616 47.6053 30.5888C46.241 30.1568 44.8186 29.9264 43.3963 29.984C44.0058 29.6672 44.6735 29.6384 45.3121 29.4368C46.241 29.1776 47.1118 28.832 48.0987 28.8896C47.9246 28.832 47.7214 28.8896 47.5472 28.8896C46.7925 28.832 46.0087 29.0624 45.196 29.2064C44.6444 29.3216 44.151 29.5232 43.5994 29.6384C43.2801 29.7536 43.106 30.0704 42.7286 30.0128V29.84C43.2801 29.1776 43.9478 28.544 44.8186 28.4864C45.8055 28.3136 46.7344 28.4864 47.7214 28.6016C48.4471 28.6592 49.0857 28.832 49.8114 28.976C50.0726 28.976 50.1307 29.408 50.3629 29.4656C50.6822 29.5808 51.0305 29.4656 51.3498 29.696C51.3498 29.5808 51.2918 29.4656 51.3498 29.3792C51.582 29.1488 51.8433 29.4368 52.0755 29.3216C52.5109 29.0624 51.6981 28.5728 51.4659 28.1696C51.4659 28.112 51.524 28.0544 51.524 28.0544C51.9594 28.4288 52.2787 28.8608 52.8302 29.1488C53.0915 29.264 53.7591 29.408 53.643 29.0912C53.3818 28.4864 52.8302 27.9968 52.3658 27.4496V27.2192C52.2497 27.2192 52.2497 27.1616 52.1916 27.104V26.8736C51.9594 26.7584 52.0175 26.5568 51.9304 26.384C51.7562 26.1248 51.8723 25.7216 51.7562 25.4048C51.6401 25.088 51.582 24.8 51.524 24.4832C51.3498 23.5616 51.1466 22.7552 51.0305 21.8624C50.9144 20.8256 51.6401 20.0192 52.1336 19.0976C52.5109 18.4352 52.9463 17.8016 53.672 17.3696C53.8462 16.7072 54.2816 16.16 54.717 15.6416C55.1524 15.1232 55.8781 14.7776 56.4006 14.5472C57.1553 14.2016 57.852 14 57.852 14H20V42.8H46.9086C47.9536 42.0512 48.9986 41.7056 50.45 40.9856C51.1466 40.6976 52.7141 39.9776 53.2366 39.4592ZM44.8186 35.5424C44.7025 35.5424 44.4993 35.6 44.5574 35.4848C44.6154 35.2256 44.9928 35.2256 45.225 35.1104C45.3411 35.0528 45.4862 34.9376 45.6024 34.9952C45.7185 35.168 45.8636 35.1104 45.9797 35.2256C45.6314 35.5424 45.196 35.3984 44.8186 35.5424ZM36.4006 34.3616C36.4006 34.3616 36.3425 34.304 36.3425 34.2464C37.0682 33.3248 37.5907 32.4608 38.1132 31.4816C38.8389 31.1072 39.4195 30.56 39.971 29.9552C40.8999 28.976 41.8868 28.112 43.0479 27.5648C43.4833 27.392 44.0349 27.4496 44.4703 27.6224C44.2961 27.8528 44.0349 27.7952 43.8026 27.9392C43.7446 27.9392 43.6865 27.9392 43.6285 27.8816C43.6865 27.824 43.6865 27.7664 43.6865 27.7088C43.135 28.3136 42.3803 28.5728 41.9449 29.2928C41.6256 29.84 41.3933 30.5312 40.6967 30.704C40.4645 30.7616 40.7547 30.5312 40.6386 30.5888C38.926 31.6256 37.7359 32.8928 36.4006 34.3616ZM40.9579 30.7616C40.8999 30.8768 40.8418 30.8768 40.7838 30.992C40.7257 31.1072 40.6677 31.1648 40.5515 31.2224C40.4935 31.2224 40.4354 31.2224 40.4354 31.1648C40.4935 30.9344 40.6677 30.7328 40.8709 30.6752C40.9579 30.6464 40.9579 30.704 40.9579 30.7616ZM43.5124 38.912C43.4833 38.9696 43.4253 39.0272 43.3672 39.0848C43.4253 39.0848 43.4833 39.1424 43.4253 39.1712C43.3092 39.2864 43.164 39.4016 43.0189 39.4592H42.9318C42.8738 39.5168 42.7867 39.5744 42.7286 39.6608C42.6706 39.7184 42.3513 39.6896 42.4383 39.6032C42.5835 39.488 42.6996 39.344 42.8447 39.2288C42.9318 39.1712 43.0189 39.0848 43.077 38.9984C43.106 38.9408 43.135 38.912 43.1931 38.8832C43.2801 38.8256 43.5704 38.7968 43.5124 38.912ZM42.5254 38.48C42.2932 38.624 42.09 38.768 41.8868 38.912C41.6546 39.056 41.3933 39.1424 41.1611 39.2576C41.1321 39.2288 41.1031 39.2288 41.074 39.2288C40.8709 39.344 40.6967 39.488 40.5225 39.6608L40.4354 39.7472L40.3484 39.8336L40.2322 39.9488C40.2032 39.9776 40.2032 40.0064 40.1452 40.0352C40.1161 40.064 40.0291 40.064 40.0291 40.0064C40 40.0352 39.971 40.0352 39.942 40.064C39.9129 40.0928 39.8839 40.0928 39.8549 40.1216H39.7968C39.7388 40.1792 39.6517 40.2368 39.5936 40.2944C39.4775 40.4096 39.3614 40.496 39.2743 40.64V40.6688L39.2453 40.6976C39.2453 40.6976 39.2453 40.7264 39.2163 40.7264C39.2163 40.7552 39.1873 40.7552 39.1873 40.784C39.1873 40.784 39.1582 40.8128 39.1292 40.8128L39.1002 40.784C39.1002 40.784 39.1002 40.7552 39.0711 40.7552C39.0421 40.7264 39.0421 40.6976 39.0131 40.6688V40.64C39.0711 40.5824 39.1292 40.5248 39.1873 40.4384C39.2163 40.4096 39.2163 40.3808 39.2453 40.3808C39.2743 40.352 39.3034 40.2944 39.3324 40.2656C39.3324 40.2368 39.3614 40.2368 39.3614 40.208C39.4195 40.1216 39.4775 40.064 39.5356 39.9776L39.5646 39.9488C39.5936 39.92 39.6227 39.8624 39.6517 39.8336C39.6807 39.8048 39.6807 39.776 39.7097 39.7184V39.6896C39.7388 39.632 39.7388 39.6032 39.7678 39.5744V39.5456C39.7678 39.5168 39.7678 39.5168 39.7968 39.488C39.7968 39.4592 39.7968 39.4304 39.8259 39.4016V39.3728C39.8839 39.2576 39.971 39.1712 40.0581 39.0848H40.0291C39.942 39.1424 39.8839 39.2 39.8259 39.2576C39.7678 39.3152 39.6517 39.2288 39.7388 39.1712C39.7968 39.1424 39.8259 39.0848 39.8549 39.056C39.942 38.9696 40.0291 38.8544 40.1452 38.768C40.2032 38.7104 40.2613 38.6816 40.3193 38.6528L40.3484 38.624C40.3774 38.5664 40.4354 38.5376 40.4645 38.48C40.987 37.9904 41.8868 37.9904 42.5545 37.6736C42.8157 37.5584 43.164 37.7312 43.4253 37.6736C43.5994 37.6736 43.7446 37.6736 43.9188 37.7888C43.4253 37.8752 42.9899 38.192 42.5254 38.48ZM43.6575 34.6784C43.5994 34.6208 43.8317 34.6784 43.8897 34.5632H43.4543C43.3963 34.5632 43.3963 34.5056 43.3963 34.448C43.135 34.5056 42.7867 34.6208 42.5254 34.6784C42.1481 34.7936 41.7997 35.0528 41.3643 35.168C40.7547 35.3984 40.2613 35.888 39.6227 36.0896C39.5646 36.0896 39.5646 36.032 39.5646 35.9744C39.6227 35.8016 39.8259 35.744 39.942 35.6C39.942 35.5424 39.942 35.4848 39.8839 35.4848C40.3193 34.88 40.9289 34.5632 41.4804 34.0736V33.9008C41.6546 33.6704 41.9158 33.584 42.032 33.296C42.09 33.1232 42.3222 32.9216 42.5835 32.8064C42.5254 32.7488 42.4093 32.7488 42.4093 32.6336C42.1771 32.6336 41.9739 32.7488 41.7417 32.576C41.8578 32.4896 41.9739 32.432 42.09 32.3744C42.032 32.3744 42.0029 32.3456 41.9739 32.288C41.9158 32.1728 42.09 32.0576 42.2351 32.0288C42.4674 31.9712 42.7286 31.9712 42.9028 31.7984C42.5254 31.7408 42.09 31.9136 41.6836 31.6832C41.9449 30.9632 42.4093 30.3872 43.0479 30.0416C43.106 30.0416 43.2221 30.0416 43.2221 30.0992C43.2221 30.3584 43.0479 30.5888 42.7867 30.6464C43.2221 30.7616 43.6575 30.7616 44.0929 30.9632C44.0349 31.0784 43.9188 31.0208 43.8607 31.0208C44.1219 31.1936 44.4703 31.0784 44.7315 31.28C44.5574 31.4528 44.4122 31.28 44.2381 31.28C45.9507 31.7696 47.7504 32.144 49.1727 33.2384C47.9536 33.8432 46.7054 34.1024 45.3992 34.3904C45.225 34.3904 45.1379 34.3904 44.9637 34.3328C44.9637 34.3904 44.9637 34.5056 44.9057 34.5056C44.6735 34.5056 44.5283 34.5056 44.3542 34.6208C44.151 34.7936 43.8317 34.8512 43.6575 34.6784Z" fill="#000091"/>
<path d="M99.971 14H68.7965C68.7965 14 68.8546 14 69.0868 14.144C69.348 14.288 69.6673 14.4608 69.8705 14.5472C70.2769 14.7488 70.6542 15.008 70.9154 15.4112C71.0316 15.584 71.1767 15.9008 71.0896 16.1312C70.9735 16.3904 70.9154 16.8512 70.6542 16.9376C70.3349 17.1104 69.8995 17.1104 69.4931 17.0528C69.2609 17.0528 69.0577 16.9952 68.8255 16.9376C69.6383 17.2544 70.422 17.6576 70.9735 18.4064C71.0316 18.5216 71.2347 18.5792 71.4669 18.5792C71.525 18.5792 71.525 18.6944 71.525 18.752C71.4089 18.8672 71.2928 18.9248 71.3508 19.0688H71.525C71.7862 18.9536 71.7572 18.4064 72.1346 18.5792C72.3958 18.752 72.5119 19.1264 72.3668 19.3856C72.1346 19.616 71.9314 19.76 71.6992 19.9328C71.6411 20.048 71.6411 20.192 71.6992 20.3072C71.8733 20.5376 71.9314 20.7392 71.9604 20.9696C72.1346 21.344 72.1926 21.776 72.3377 22.1792C72.57 22.9856 72.7731 23.8208 72.7151 24.6272C72.7151 25.0592 72.4829 25.4336 72.657 25.8656C72.7731 26.2976 73.0344 26.6144 73.2666 27.0176C73.4988 27.3344 73.702 27.5648 73.8761 27.8816C74.1954 28.4288 74.805 28.976 74.5438 29.6096C74.3696 29.984 73.7891 29.9264 73.3827 30.1568C73.0634 30.416 73.3246 30.8768 73.4988 31.136C73.76 31.6256 73.1795 31.9424 72.7731 32.0864C72.8892 32.2592 73.0924 32.2016 73.1505 32.3168C73.2085 32.576 73.4698 32.7488 73.3246 33.0368C73.0924 33.3536 72.4538 33.5264 72.7731 34.016C73.0054 34.3904 72.8602 34.8224 72.7151 35.2256C72.5409 35.6576 72.1636 35.9456 71.7282 36.032C71.4089 36.1472 71.0025 36.1472 70.6832 36.0896C70.5671 36.032 70.451 35.9744 70.3639 35.9744C69.4351 35.8592 68.5062 35.6 67.5774 35.6C67.3162 35.6576 67.0259 35.7152 66.8227 35.8016C66.5905 35.9744 66.3583 36.176 66.1551 36.3776C66.1261 36.4352 66.068 36.464 66.039 36.5216C66.01 36.5504 65.9809 36.5792 65.9809 36.608L65.9229 36.6656C65.7487 36.8672 65.6326 37.0688 65.4875 37.2992C65.4875 37.328 65.4585 37.328 65.4585 37.328C65.4585 37.3568 65.4294 37.3856 65.4004 37.4144C65.2263 37.7312 65.0811 38.0768 64.994 38.4224C64.6167 39.6608 64.7909 40.7264 65.0521 40.9856C65.1101 41.0432 66.8517 41.5904 68.0708 42.1376C68.6514 42.3968 69.0287 42.5696 69.377 42.8H100V14H99.971Z" fill="#E1000F"/>
<path d="M70.653 24.5409C70.8853 24.5985 71.2046 24.5985 71.2046 24.7137C71.0885 25.1457 70.4499 25.2609 70.1015 25.6928H69.9274C69.7532 25.808 69.8113 26.0672 69.6661 26.0672C69.492 26.0096 69.3468 26.0672 69.1727 26.1248C69.4049 26.3552 69.6661 26.4992 69.9854 26.4416C70.0435 26.4416 70.1596 26.5568 70.1596 26.672C70.1596 26.672 70.2176 26.672 70.2757 26.6144C70.3337 26.6144 70.3918 26.6144 70.3918 26.672V26.9024C70.2176 27.1327 69.9564 27.0175 69.7242 27.0751C70.1596 27.1903 70.595 27.1903 71.0014 27.0751C71.3207 26.9599 71.0014 26.4128 71.2336 26.1536C71.1175 26.1536 71.2336 25.9808 71.1175 25.9808C71.2336 25.8656 71.3497 25.7216 71.4368 25.664C71.5529 25.664 71.698 25.6064 71.7561 25.4912C71.7561 25.3761 71.5239 25.3185 71.5819 25.2321C71.9012 25.0017 72.1915 24.6849 72.0754 24.3681C72.0173 24.1953 71.5819 24.1953 71.3207 24.0801C71.0594 23.9649 70.7111 24.0801 70.3918 24.1377C70.1306 24.1377 69.8403 24.3105 69.579 24.3681C69.2017 24.4833 68.8534 24.6849 68.5341 24.9153C68.9114 24.7425 69.2888 24.6849 69.7242 24.5985C70.0435 24.5409 70.3047 24.4833 70.653 24.5409Z" fill="#808080"/>
</svg>
