<svg width="40" height="40" viewBox="0 0 40 40" fill="none" xmlns="http://www.w3.org/2000/svg">
<rect y="13" width="40" height="14.4" fill="white"/>
<path d="M16.6183 25.7296C16.778 25.5712 16.9376 25.4128 17.0827 25.24C17.373 24.9088 17.6633 24.6064 17.9971 24.3184C18.0987 24.232 18.2003 24.1456 18.3019 24.088C18.3309 24.0592 18.3309 24.0016 18.36 23.9728C18.2293 24.0304 18.1423 24.1312 17.9971 24.1888C17.9681 24.1888 17.9391 24.16 17.9681 24.1312C18.0697 24.0592 18.1713 23.9872 18.2584 23.9152H18.2439C18.2148 23.9152 18.2148 23.8864 18.2148 23.8576C17.852 23.8 17.5907 24.0448 17.344 24.2608C17.2859 24.2896 17.2279 24.232 17.2134 24.232C16.807 24.3616 16.5022 24.7216 16.0958 24.88V24.8224C15.9362 24.88 15.7765 24.9808 15.6023 25.0096C15.3556 25.0672 15.1379 25.0384 14.9202 25.0384C14.5864 25.0672 14.2526 25.1392 13.9187 25.2112C13.9042 25.2112 13.9042 25.2112 13.8897 25.2256C13.7155 25.2688 13.5414 25.3408 13.3817 25.4272L13.3237 25.4848C13.2656 25.5424 13.2076 25.6144 13.135 25.6432C12.9608 25.7296 12.8302 25.8736 12.6851 26.0032C12.6705 26.0176 12.656 26.0176 12.6415 26.0176C12.4964 26.1616 12.3512 26.3056 12.2061 26.4352C12.1916 26.4496 12.1481 26.4496 12.119 26.4496C12.119 26.4352 12.1335 26.4352 12.1335 26.4208C12.1626 26.3776 12.1771 26.3488 12.2061 26.3056L12.2932 26.176C12.3367 26.1184 12.3658 26.0608 12.4093 26.0176C12.4238 26.0032 12.4238 25.9888 12.4093 25.9888C12.3948 25.9744 12.3803 25.9744 12.3658 25.9744C12.4964 25.8448 12.6705 25.7296 12.8302 25.6288C12.8157 25.6288 12.7867 25.6144 12.8012 25.6C12.8157 25.5712 12.8302 25.5568 12.8447 25.528C12.8447 25.5136 12.8447 25.5136 12.8592 25.4992C12.8592 25.4848 12.8447 25.4848 12.8447 25.4704L12.7141 25.5568C12.6415 25.6144 12.598 25.7296 12.4964 25.7296H12.4528C12.4383 25.7296 12.4238 25.7296 12.4238 25.7152V25.7008C12.4238 25.6864 12.4383 25.6864 12.4383 25.672C12.4383 25.6576 12.4528 25.6576 12.4528 25.6432C12.4528 25.6432 12.4528 25.6288 12.4674 25.6288C12.4674 25.6144 12.4819 25.6 12.4819 25.6C12.4819 25.5856 12.4964 25.5856 12.4964 25.5712C12.5109 25.5568 12.5254 25.528 12.5254 25.5136C12.5254 25.4992 12.5399 25.4992 12.5399 25.4848C12.5544 25.4704 12.5544 25.456 12.569 25.4416C12.5835 25.4128 12.569 25.3984 12.5544 25.3984C12.598 25.3264 12.6705 25.2832 12.7431 25.24H12.7286C12.8302 25.1824 12.9463 25.1248 13.0479 25.0672L13.0914 25.024C12.9318 25.0816 12.8012 25.1536 12.656 25.24C12.656 25.24 12.627 25.2544 12.6125 25.2688C12.6125 25.2688 12.5835 25.2832 12.5399 25.24V25.2256C12.569 25.168 12.656 25.1392 12.6996 25.096C12.7286 25.096 12.7576 25.096 12.7576 25.1248C13.643 24.448 14.8476 24.6064 15.8636 24.2608C15.9507 24.2032 16.0232 24.1456 16.1103 24.1024C16.2409 24.0448 16.3571 23.9152 16.5167 23.8288C16.7344 23.6704 16.8941 23.4688 16.9811 23.2096C16.9811 23.1808 16.9521 23.152 16.9521 23.152C16.5893 23.5264 16.1829 23.8288 15.7475 24.0448C15.1669 24.3472 14.5428 24.2896 13.9333 24.376C13.9623 24.3184 14.0203 24.3184 14.0639 24.3184C14.0639 24.232 14.1219 24.2032 14.18 24.16H14.2671C14.2961 24.16 14.2961 24.1024 14.3251 24.1024C14.3832 24.1024 14.4703 24.0736 14.4412 24.0736C14.3542 23.9584 14.1945 24.16 14.0639 24.0736C14.1219 24.016 14.0929 23.944 14.151 23.9152H14.2671C14.2671 23.8576 14.3251 23.8 14.3251 23.8C14.7315 23.5552 15.1234 23.368 15.5007 23.152C15.4137 23.152 15.3701 23.2384 15.283 23.1808C15.3411 23.1808 15.283 23.0944 15.3411 23.0944C15.6459 23.008 15.8926 22.8496 16.1974 22.7344C16.0813 22.7344 16.0087 22.8208 15.8926 22.7344C15.9507 22.7056 15.9797 22.648 16.0523 22.648V22.5616C16.0523 22.5328 16.0813 22.5328 16.1103 22.5328C16.0813 22.5328 16.0523 22.504 16.0523 22.504C16.0813 22.4464 16.1684 22.4752 16.2119 22.4176C16.1829 22.4176 16.1248 22.4176 16.1248 22.3888C16.2119 22.2736 16.3425 22.2592 16.4877 22.2304C16.4587 22.1728 16.3716 22.2304 16.3716 22.1728C16.3716 22.144 16.4006 22.144 16.4296 22.144H16.3716C16.3135 22.1152 16.3425 22.0576 16.3425 22.0288C16.5022 21.8416 16.5022 21.5968 16.5893 21.3808C16.5602 21.3808 16.5312 21.3808 16.5312 21.352C16.2555 21.6544 15.82 21.7552 15.4137 21.8704H15.225C15.0944 21.928 14.8912 21.928 14.7605 21.8416C14.6444 21.784 14.6009 21.712 14.4848 21.6256C14.2671 21.496 14.0494 21.3808 13.8026 21.2944C13.1205 21.0784 12.4093 20.9632 11.6981 20.992C12.0029 20.8336 12.3367 20.8192 12.656 20.7184C13.1205 20.5888 13.5559 20.416 14.0494 20.4448C13.9623 20.416 13.8607 20.4448 13.7736 20.4448C13.3962 20.416 13.0044 20.5312 12.598 20.6032C12.3222 20.6608 12.0755 20.7616 11.7997 20.8192C11.6401 20.8768 11.553 21.0352 11.3643 21.0064V20.92C11.6401 20.5888 11.9739 20.272 12.4093 20.2432C12.9028 20.1568 13.3672 20.2432 13.8607 20.3008C14.2235 20.3296 14.5428 20.416 14.9057 20.488C15.0363 20.488 15.0653 20.704 15.1814 20.7328C15.3411 20.7904 15.5153 20.7328 15.6749 20.848C15.6749 20.7904 15.6459 20.7328 15.6749 20.6896C15.791 20.5744 15.9216 20.7184 16.0378 20.6608C16.2555 20.5312 15.8491 20.2864 15.733 20.0848C15.733 20.056 15.762 20.0272 15.762 20.0272C15.9797 20.2144 16.1393 20.4304 16.4151 20.5744C16.5457 20.632 16.8796 20.704 16.8215 20.5456C16.6909 20.2432 16.4151 19.9984 16.1829 19.7248V19.6096C16.1248 19.6096 16.1248 19.5808 16.0958 19.552V19.4368C15.9797 19.3792 16.0087 19.2784 15.9652 19.192C15.8781 19.0624 15.9362 18.8608 15.8781 18.7024C15.82 18.544 15.791 18.4 15.762 18.2416C15.6749 17.7808 15.5733 17.3776 15.5153 16.9312C15.4572 16.4128 15.82 16.0096 16.0668 15.5488C16.2555 15.2176 16.4732 14.9008 16.836 14.6848C16.9231 14.3536 17.1408 14.08 17.3585 13.8208C17.5762 13.5616 17.9391 13.3888 18.2003 13.2736C18.5777 13.1008 18.926 13 18.926 13H0V27.4H13.4543C13.9768 27.0256 14.4993 26.8528 15.225 26.4928C15.5733 26.3488 16.3571 25.9888 16.6183 25.7296ZM12.4093 23.7712C12.3512 23.7712 12.2496 23.8 12.2787 23.7424C12.3077 23.6128 12.4964 23.6128 12.6125 23.5552C12.6705 23.5264 12.7431 23.4688 12.8012 23.4976C12.8592 23.584 12.9318 23.5552 12.9899 23.6128C12.8157 23.7712 12.598 23.6992 12.4093 23.7712ZM8.2003 23.1808C8.2003 23.1808 8.17127 23.152 8.17127 23.1232C8.53412 22.6624 8.79536 22.2304 9.05661 21.7408C9.41946 21.5536 9.70973 21.28 9.9855 20.9776C10.4499 20.488 10.9434 20.056 11.524 19.7824C11.7417 19.696 12.0174 19.7248 12.2351 19.8112C12.1481 19.9264 12.0174 19.8976 11.9013 19.9696C11.8723 19.9696 11.8433 19.9696 11.8142 19.9408C11.8433 19.912 11.8433 19.8832 11.8433 19.8544C11.5675 20.1568 11.1901 20.2864 10.9724 20.6464C10.8128 20.92 10.6967 21.2656 10.3483 21.352C10.2322 21.3808 10.3774 21.2656 10.3193 21.2944C9.463 21.8128 8.86793 22.4464 8.2003 23.1808ZM10.479 21.3808C10.4499 21.4384 10.4209 21.4384 10.3919 21.496C10.3629 21.5536 10.3338 21.5824 10.2758 21.6112C10.2467 21.6112 10.2177 21.6112 10.2177 21.5824C10.2467 21.4672 10.3338 21.3664 10.4354 21.3376C10.479 21.3232 10.479 21.352 10.479 21.3808ZM11.7562 25.456C11.7417 25.4848 11.7126 25.5136 11.6836 25.5424C11.7126 25.5424 11.7417 25.5712 11.7126 25.5856C11.6546 25.6432 11.582 25.7008 11.5094 25.7296H11.4659C11.4369 25.7584 11.3933 25.7872 11.3643 25.8304C11.3353 25.8592 11.1756 25.8448 11.2192 25.8016C11.2917 25.744 11.3498 25.672 11.4224 25.6144C11.4659 25.5856 11.5094 25.5424 11.5385 25.4992C11.553 25.4704 11.5675 25.456 11.5965 25.4416C11.6401 25.4128 11.7852 25.3984 11.7562 25.456ZM11.2627 25.24C11.1466 25.312 11.045 25.384 10.9434 25.456C10.8273 25.528 10.6967 25.5712 10.5806 25.6288C10.566 25.6144 10.5515 25.6144 10.537 25.6144C10.4354 25.672 10.3483 25.744 10.2613 25.8304L10.2177 25.8736L10.1742 25.9168L10.1161 25.9744C10.1016 25.9888 10.1016 26.0032 10.0726 26.0176C10.0581 26.032 10.0145 26.032 10.0145 26.0032C10 26.0176 9.9855 26.0176 9.97098 26.032C9.95647 26.0464 9.94195 26.0464 9.92744 26.0608H9.89841C9.86939 26.0896 9.82584 26.1184 9.79682 26.1472C9.73876 26.2048 9.68071 26.248 9.63717 26.32V26.3344L9.62265 26.3488C9.62265 26.3488 9.62265 26.3632 9.60814 26.3632C9.60814 26.3776 9.59362 26.3776 9.59362 26.392C9.59362 26.392 9.57911 26.4064 9.5646 26.4064L9.55008 26.392C9.55008 26.392 9.55008 26.3776 9.53557 26.3776C9.52105 26.3632 9.52105 26.3488 9.50654 26.3344V26.32C9.53557 26.2912 9.5646 26.2624 9.59362 26.2192C9.60814 26.2048 9.60814 26.1904 9.62265 26.1904C9.63717 26.176 9.65168 26.1472 9.66619 26.1328C9.66619 26.1184 9.68071 26.1184 9.68071 26.104C9.70973 26.0608 9.73876 26.032 9.76779 25.9888L9.7823 25.9744C9.79682 25.96 9.81133 25.9312 9.82584 25.9168C9.84036 25.9024 9.84036 25.888 9.85487 25.8592V25.8448C9.86939 25.816 9.86939 25.8016 9.8839 25.7872V25.7728C9.8839 25.7584 9.8839 25.7584 9.89841 25.744C9.89841 25.7296 9.89841 25.7152 9.91293 25.7008V25.6864C9.94195 25.6288 9.9855 25.5856 10.029 25.5424H10.0145C9.97098 25.5712 9.94195 25.6 9.91293 25.6288C9.8839 25.6576 9.82584 25.6144 9.86939 25.5856C9.89841 25.5712 9.91293 25.5424 9.92744 25.528C9.97098 25.4848 10.0145 25.4272 10.0726 25.384C10.1016 25.3552 10.1306 25.3408 10.1597 25.3264L10.1742 25.312C10.1887 25.2832 10.2177 25.2688 10.2322 25.24C10.4935 24.9952 10.9434 24.9952 11.2772 24.8368C11.4078 24.7792 11.582 24.8656 11.7126 24.8368C11.7997 24.8368 11.8723 24.8368 11.9594 24.8944C11.7126 24.9376 11.4949 25.096 11.2627 25.24ZM11.8287 23.3392C11.7997 23.3104 11.9158 23.3392 11.9449 23.2816H11.7272C11.6981 23.2816 11.6981 23.2528 11.6981 23.224C11.5675 23.2528 11.3933 23.3104 11.2627 23.3392C11.074 23.3968 10.8999 23.5264 10.6822 23.584C10.3774 23.6992 10.1306 23.944 9.81133 24.0448C9.7823 24.0448 9.7823 24.016 9.7823 23.9872C9.81133 23.9008 9.91293 23.872 9.97098 23.8C9.97098 23.7712 9.97098 23.7424 9.94195 23.7424C10.1597 23.44 10.4645 23.2816 10.7402 23.0368V22.9504C10.8273 22.8352 10.9579 22.792 11.016 22.648C11.045 22.5616 11.1611 22.4608 11.2917 22.4032C11.2627 22.3744 11.2047 22.3744 11.2047 22.3168C11.0885 22.3168 10.9869 22.3744 10.8708 22.288C10.9289 22.2448 10.9869 22.216 11.045 22.1872C11.016 22.1872 11.0015 22.1728 10.9869 22.144C10.9579 22.0864 11.045 22.0288 11.1176 22.0144C11.2337 21.9856 11.3643 21.9856 11.4514 21.8992C11.2627 21.8704 11.045 21.9568 10.8418 21.8416C10.9724 21.4816 11.2047 21.1936 11.524 21.0208C11.553 21.0208 11.611 21.0208 11.611 21.0496C11.611 21.1792 11.524 21.2944 11.3933 21.3232C11.611 21.3808 11.8287 21.3808 12.0465 21.4816C12.0174 21.5392 11.9594 21.5104 11.9303 21.5104C12.061 21.5968 12.2351 21.5392 12.3658 21.64C12.2787 21.7264 12.2061 21.64 12.119 21.64C12.9753 21.8848 13.8752 22.072 14.5864 22.6192C13.9768 22.9216 13.3527 23.0512 12.6996 23.1952C12.6125 23.1952 12.569 23.1952 12.4819 23.1664C12.4819 23.1952 12.4819 23.2528 12.4528 23.2528C12.3367 23.2528 12.2642 23.2528 12.1771 23.3104C12.0755 23.3968 11.9158 23.4256 11.8287 23.3392Z" fill="#000091"/>
<path d="M39.9854 13H24.3982C24.3982 13 24.4272 13 24.5433 13.072C24.6739 13.144 24.8336 13.2304 24.9352 13.2736C25.1384 13.3744 25.327 13.504 25.4577 13.7056C25.5157 13.792 25.5883 13.9504 25.5447 14.0656C25.4867 14.1952 25.4577 14.4256 25.327 14.4688C25.1674 14.5552 24.9497 14.5552 24.7465 14.5264C24.6304 14.5264 24.5288 14.4976 24.4127 14.4688C24.8191 14.6272 25.2109 14.8288 25.4867 15.2032C25.5157 15.2608 25.6173 15.2896 25.7334 15.2896C25.7624 15.2896 25.7624 15.3472 25.7624 15.376C25.7044 15.4336 25.6463 15.4624 25.6754 15.5344H25.7624C25.8931 15.4768 25.8785 15.2032 26.0672 15.2896C26.1978 15.376 26.2559 15.5632 26.1833 15.6928C26.0672 15.808 25.9656 15.88 25.8495 15.9664C25.8205 16.024 25.8205 16.096 25.8495 16.1536C25.9366 16.2688 25.9656 16.3696 25.9801 16.4848C26.0672 16.672 26.0962 16.888 26.1688 17.0896C26.2849 17.4928 26.3865 17.9104 26.3575 18.3136C26.3575 18.5296 26.2414 18.7168 26.3285 18.9328C26.3865 19.1488 26.5171 19.3072 26.6332 19.5088C26.7493 19.6672 26.8509 19.7824 26.938 19.9408C27.0977 20.2144 27.4024 20.488 27.2718 20.8048C27.1847 20.992 26.8945 20.9632 26.6913 21.0784C26.5316 21.208 26.6623 21.4384 26.7493 21.568C26.88 21.8128 26.5897 21.9712 26.3865 22.0432C26.4446 22.1296 26.5462 22.1008 26.5752 22.1584C26.6042 22.288 26.7348 22.3744 26.6623 22.5184C26.5462 22.6768 26.2269 22.7632 26.3865 23.008C26.5026 23.1952 26.43 23.4112 26.3575 23.6128C26.2704 23.8288 26.0817 23.9728 25.864 24.016C25.7044 24.0736 25.5012 24.0736 25.3416 24.0448C25.2835 24.016 25.2254 23.9872 25.1819 23.9872C24.7175 23.9296 24.2531 23.8 23.7886 23.8C23.658 23.8288 23.5129 23.8576 23.4113 23.9008C23.2952 23.9872 23.1791 24.088 23.0775 24.1888C23.063 24.2176 23.0339 24.232 23.0194 24.2608C23.0049 24.2752 22.9904 24.2896 22.9904 24.304L22.9614 24.3328C22.8743 24.4336 22.8163 24.5344 22.7437 24.6496C22.7437 24.664 22.7292 24.664 22.7292 24.664C22.7292 24.6784 22.7147 24.6928 22.7001 24.7072C22.6131 24.8656 22.5405 25.0384 22.497 25.2112C22.3083 25.8304 22.3954 26.3632 22.526 26.4928C22.555 26.5216 23.4258 26.7952 24.0354 27.0688C24.3256 27.1984 24.5143 27.2848 24.6885 27.4H39.9999V13H39.9854Z" fill="#E1000F"/>
<path d="M25.3266 18.2704C25.4427 18.2992 25.6023 18.2992 25.6023 18.3568C25.5443 18.5728 25.225 18.6304 25.0508 18.8464H24.9637C24.8767 18.904 24.9057 19.0336 24.8331 19.0336C24.746 19.0048 24.6735 19.0336 24.5864 19.0624C24.7025 19.1775 24.8331 19.2495 24.9928 19.2207C25.0218 19.2207 25.0799 19.2783 25.0799 19.3359C25.0799 19.3359 25.1089 19.3359 25.1379 19.3071C25.1669 19.3071 25.196 19.3071 25.196 19.3359V19.4511C25.1089 19.5663 24.9783 19.5087 24.8621 19.5375C25.0799 19.5951 25.2976 19.5951 25.5007 19.5375C25.6604 19.4799 25.5007 19.2063 25.6169 19.0768C25.5588 19.0768 25.6169 18.9904 25.5588 18.9904C25.6169 18.9328 25.6749 18.8608 25.7185 18.832C25.7765 18.832 25.8491 18.8032 25.8781 18.7456C25.8781 18.688 25.762 18.6592 25.791 18.616C25.9507 18.5008 26.0958 18.3424 26.0378 18.184C26.0087 18.0976 25.791 18.0976 25.6604 18.04C25.5298 17.9824 25.3556 18.04 25.196 18.0688C25.0653 18.0688 24.9202 18.1552 24.7896 18.184C24.6009 18.2416 24.4267 18.3424 24.2671 18.4576C24.4558 18.3712 24.6444 18.3424 24.8621 18.2992C25.0218 18.2704 25.1524 18.2416 25.3266 18.2704Z" fill="#808080"/>
</svg>