<svg id="france-services" width="40" height="40" viewBox="0 0 40 40" fill="none" xmlns="http://www.w3.org/2000/svg">
<path d="M13.1836 15.1433C13.1588 15.1195 13.1361 15.1371 13.1123 15.1433L13.0431 15.1753C12.9433 15.2139 12.8484 15.2638 12.76 15.3241C12.7301 15.3427 12.6898 15.353 12.6691 15.3241C12.6484 15.2951 12.6939 15.2724 12.7125 15.2486C12.7734 15.1701 12.8768 15.196 12.9501 15.1453C13.2006 14.9704 13.4806 14.842 13.7766 14.7662C14.2715 14.6277 14.7829 14.5906 15.2849 14.4955C15.6124 14.4335 15.9389 14.3757 16.2148 14.167C16.3356 14.0771 16.4586 13.9851 16.5877 13.9035C16.7872 13.7838 16.9452 13.6056 17.0402 13.3932C17.065 13.3364 17.127 13.262 17.0691 13.2165C17.0299 13.1876 16.9865 13.2785 16.9431 13.3126C16.9214 13.3318 16.9007 13.3522 16.8811 13.3735C16.4565 13.7672 15.9916 14.0967 15.4275 14.2589C14.9895 14.3839 14.5318 14.3622 14.0741 14.4222C14.2219 14.3013 14.3427 14.1628 14.5535 14.138C14.4585 14.0585 14.3882 14.1174 14.3169 14.1287C14.2694 14.137 14.1981 14.1856 14.1857 14.1071C14.1785 14.0606 14.1857 13.9645 14.289 13.9686C14.3128 13.9686 14.3438 13.9769 14.3541 13.948C14.3923 13.8302 14.5039 13.8013 14.5948 13.7496C14.8665 13.5946 15.1424 13.4469 15.4162 13.294C15.444 13.2775 15.4874 13.2744 15.4947 13.231C15.4616 13.2175 15.412 13.2599 15.3986 13.2082C15.3852 13.1566 15.4265 13.1421 15.4709 13.1287C15.7131 13.0404 15.9495 12.9369 16.1786 12.8188C16.1104 12.795 16.0443 12.8394 15.9988 12.7847C16.0278 12.7206 16.1187 12.7299 16.1321 12.6814C16.1548 12.6039 16.1476 12.5181 16.2581 12.5078C16.2726 12.5078 16.2716 12.4882 16.2581 12.4809C16.1838 12.422 16.2664 12.4086 16.2891 12.389C16.3656 12.3239 16.472 12.326 16.566 12.2795C16.4431 12.235 16.3997 12.1565 16.4627 12.0728C16.5856 11.9014 16.6063 11.6978 16.6642 11.5057C16.6724 11.4809 16.6889 11.4499 16.6528 11.4292C16.6166 11.4086 16.5991 11.4292 16.5794 11.453C16.3836 11.6253 16.1501 11.7492 15.8976 11.8146C15.7123 11.8693 15.524 11.9127 15.3335 11.9447C15.2294 11.9705 15.1205 11.9688 15.0173 11.9398C14.914 11.9108 14.8201 11.8556 14.7446 11.7794C14.6756 11.7146 14.5989 11.6584 14.5163 11.6121C13.9233 11.2722 13.2693 11.1513 12.603 11.0718C12.3529 11.0495 12.1018 11.0412 11.8509 11.047C11.9573 10.9912 12.0705 10.9496 12.1877 10.923C12.4759 10.8527 12.7672 10.798 13.0493 10.706C13.2905 10.6209 13.5397 10.5607 13.7931 10.5263L14.1454 10.4994C14.0292 10.4794 13.9104 10.4794 13.7942 10.4994C13.6954 10.4923 13.5962 10.4972 13.4987 10.5139C12.8664 10.6368 12.2218 10.7205 11.6494 11.0501C11.605 11.0759 11.5461 11.0976 11.512 11.0573C11.4779 11.017 11.5296 10.9695 11.5585 10.9313C11.7159 10.7124 11.9267 10.5373 12.1708 10.4229C12.4149 10.3084 12.6843 10.2583 12.9532 10.2773C13.6244 10.3006 14.2917 10.3885 14.9461 10.5397C15.0012 10.546 15.054 10.5652 15.1002 10.596C15.1464 10.6267 15.1845 10.668 15.2116 10.7164C15.23 10.7489 15.2565 10.7761 15.2886 10.7953C15.3206 10.8145 15.3571 10.825 15.3945 10.8259C15.5305 10.8275 15.6652 10.8534 15.7922 10.9023C15.8108 10.705 15.8253 10.6957 16.0112 10.7246H16.035C16.1032 10.737 16.1734 10.7422 16.2127 10.674C16.227 10.6437 16.231 10.6095 16.2241 10.5767C16.2172 10.5439 16.1998 10.5142 16.1745 10.4922C16.0939 10.3982 16.0071 10.3093 15.9244 10.2174C15.8976 10.1874 15.8552 10.1575 15.8914 10.0924C16.0102 10.206 16.1207 10.3155 16.2354 10.4209C16.3746 10.5643 16.5553 10.6604 16.752 10.6957C16.8212 10.705 16.9038 10.736 16.9514 10.675C16.9989 10.6141 16.9338 10.5438 16.9007 10.487C16.76 10.273 16.5999 10.0724 16.4224 9.88781C16.3816 9.85319 16.3515 9.80769 16.3356 9.75661C16.3076 9.6637 16.2676 9.5748 16.2168 9.49213C16.1385 9.34885 16.086 9.19287 16.0618 9.03136C16.0632 8.95683 16.0566 8.88237 16.0422 8.80924C15.9038 8.33814 15.8459 7.84947 15.7323 7.37114C15.6507 7.01575 15.6217 6.66036 15.8056 6.32253C15.9441 6.06942 16.0877 5.8194 16.2313 5.56939C16.4162 5.24912 16.6249 4.94952 16.9421 4.7429C16.9747 4.71852 16.9983 4.684 17.0092 4.64475C17.2396 4.07241 17.5991 3.62093 18.1777 3.36472C18.4504 3.24385 18.7263 3.1302 19.0042 3.00416H18.875C12.7383 3.00416 6.6023 3.00416 0.466973 3.00416C0.335767 3.00416 0.314072 3.04239 0.314072 3.16223C0.314072 7.90354 0.314072 12.6445 0.314072 17.3851C0.314072 17.5143 0.348165 17.5391 0.470072 17.5391C4.78505 17.5349 9.10003 17.5349 13.415 17.5391C13.5212 17.5436 13.626 17.5135 13.7136 17.4533C13.8521 17.3563 13.9983 17.2706 14.1506 17.1971C14.6351 16.9605 15.1217 16.726 15.6114 16.5018C16.2406 16.2136 16.8129 15.8582 17.2561 15.3075C17.5935 14.8839 17.9825 14.5042 18.4143 14.1773C18.4349 14.1664 18.4513 14.1488 18.4606 14.1274C18.47 14.106 18.4719 14.0821 18.4659 14.0595C18.3347 14.0988 18.2593 14.2403 18.1074 14.2383C18.1477 14.1897 18.2014 14.1577 18.2417 14.1143C18.282 14.0709 18.3998 14.0585 18.3678 13.9758C18.3285 13.8725 18.2242 13.9366 18.1477 13.9325C18.1354 13.9346 18.1233 13.9377 18.1116 13.9418C17.8791 13.9913 17.7097 14.1484 17.5361 14.2899C17.502 14.3178 17.469 14.3684 17.4204 14.3426C17.3305 14.2951 17.2613 14.3426 17.189 14.3777C17.0488 14.4482 16.9154 14.5312 16.7902 14.6257C16.6464 14.7366 16.4933 14.8347 16.3325 14.9191C16.2292 14.9707 16.1001 14.9439 15.9895 15.009C15.8046 15.1132 15.5926 15.1596 15.381 15.1422C14.9048 15.1133 14.4512 15.2393 13.9884 15.3282C13.602 15.4026 13.3468 15.6815 13.0503 15.8943C12.8037 16.0737 12.5737 16.2749 12.3633 16.4956C12.3344 16.5245 12.3075 16.5669 12.2435 16.539C12.3197 16.4437 12.3842 16.3397 12.4356 16.2291C12.5059 16.043 12.6444 15.8908 12.823 15.8034C12.8621 15.7818 12.8947 15.7501 12.9172 15.7115C12.9398 15.673 12.9515 15.6291 12.9511 15.5844C12.7693 15.5916 12.7507 15.8602 12.5296 15.8251C12.5873 15.7511 12.6323 15.668 12.6629 15.5792C12.6877 15.4119 12.8137 15.3582 12.9305 15.2869L13.0668 15.2032L13.1268 15.165L13.1774 15.1402L13.1857 15.1205L13.1712 15.1267L13.1836 15.1433ZM26.5511 12.1679C26.6154 12.183 26.6748 12.2146 26.7233 12.2595C26.7718 12.3044 26.8079 12.3611 26.8279 12.4241C26.8515 12.463 26.8603 12.5091 26.8529 12.554C26.8456 12.5988 26.8224 12.6396 26.7877 12.669C26.7246 12.7227 26.6595 12.7723 26.5986 12.8281C26.5583 12.8581 26.5307 12.9021 26.5213 12.9515C26.5119 13.0008 26.5215 13.0519 26.548 13.0946C26.6121 13.2469 26.6252 13.4159 26.5856 13.5764C26.546 13.7368 26.4556 13.8802 26.3279 13.9851C26.2175 14.0661 26.0911 14.1227 25.9572 14.1511C25.8233 14.1796 25.6848 14.1794 25.551 14.1504C25.4477 14.1308 25.3558 14.0947 25.2524 14.0812C24.8692 14.0296 24.4921 13.9304 24.1036 13.9077C23.8966 13.8815 23.6873 13.9347 23.5178 14.0564C22.804 14.6391 22.493 15.3995 22.5674 16.3148C22.5829 16.5132 22.6552 16.6764 22.8835 16.7115C22.9189 16.7207 22.9534 16.7328 22.9868 16.7477C23.5891 16.9595 24.1925 17.1682 24.7524 17.4822C24.8152 17.5187 24.8865 17.5379 24.959 17.538C29.9221 17.538 34.8852 17.538 39.8483 17.538C39.9588 17.538 39.9929 17.5143 39.9929 17.3975C39.9929 12.6452 39.9929 7.89596 39.9929 3.14983C39.9929 3.02586 39.9557 3.00416 39.8411 3.00416C34.8132 3.00416 29.7854 3.00416 24.7576 3.00416C24.7101 2.99449 24.6607 3.0018 24.6181 3.02483L24.7276 3.08578C24.9632 3.22009 25.2173 3.32133 25.4291 3.49903C25.7039 3.72734 25.7556 3.91847 25.6585 4.2439C25.6356 4.33239 25.5841 4.4108 25.5119 4.46688C25.4398 4.52296 25.3511 4.55354 25.2597 4.55384C25.1485 4.56313 25.0367 4.56105 24.926 4.54764C24.8599 4.54041 24.7937 4.53524 24.7194 4.52904C24.7194 4.54454 24.7194 4.55074 24.7194 4.55177C24.7336 4.56037 24.7485 4.56796 24.7638 4.5745C25.112 4.70942 25.4165 4.93743 25.644 5.23363C25.664 5.25715 25.6887 5.27633 25.7164 5.29001C25.7441 5.30369 25.7743 5.31157 25.8052 5.31318C25.9415 5.34004 25.9415 5.339 25.8609 5.45265C25.8382 5.48364 25.8093 5.52187 25.8424 5.55079C25.8602 5.56546 25.8831 5.57249 25.9062 5.57036C25.9292 5.56824 25.9504 5.55712 25.9653 5.53943C26.0078 5.48907 26.0426 5.43266 26.0686 5.37206C26.0752 5.35548 26.0859 5.34079 26.0995 5.3293C26.1132 5.3178 26.1295 5.30987 26.147 5.30619C26.1645 5.30251 26.1826 5.3032 26.1997 5.3082C26.2169 5.31321 26.2325 5.32237 26.2453 5.33487C26.2804 5.35854 26.3097 5.38983 26.331 5.42642C26.3524 5.46301 26.3651 5.50395 26.3684 5.54617C26.3717 5.58839 26.3654 5.63081 26.35 5.67026C26.3345 5.7097 26.3104 5.74515 26.2794 5.77395C26.2132 5.83593 26.1409 5.89172 26.0727 5.94751C26.0501 5.96002 26.0305 5.97725 26.0151 5.99805C25.9998 6.01884 25.9891 6.0427 25.9838 6.068C25.9785 6.0933 25.9787 6.11944 25.9844 6.14465C25.9902 6.16985 26.0012 6.19352 26.0169 6.21405C26.0507 6.27065 26.0794 6.33012 26.1027 6.39175C26.2008 6.70168 26.3021 7.01988 26.3889 7.33705C26.5015 7.7503 26.5852 8.17594 26.4922 8.60675C26.4478 8.83277 26.4938 9.06718 26.6203 9.25968C26.7236 9.43427 26.8362 9.60061 26.9499 9.76797C27.1335 10.0062 27.2957 10.2604 27.4344 10.5273C27.5522 10.7908 27.4581 10.9746 27.1823 11.0563C27.1513 11.0656 27.1193 11.0738 27.0873 11.0811C26.7195 11.1554 26.7453 11.3414 26.8734 11.578L26.8992 11.6203C26.9901 11.7794 26.9726 11.8869 26.8269 11.9964C26.7443 12.0594 26.6564 12.1018 26.5511 12.1679ZM30.7868 26.21C31.3685 26.21 31.9512 26.21 32.5328 26.21C32.6237 26.21 32.6547 26.178 32.6692 26.0974C32.7377 25.7358 32.7454 25.3654 32.6919 25.0013C32.5721 24.2409 32.1929 23.6582 31.5028 23.2956C30.9707 23.0187 30.3984 22.9784 29.8157 23.0662C29.0223 23.1861 28.3879 23.5663 27.9654 24.2564C27.5573 24.927 27.4161 25.7264 27.5697 26.4962C27.7247 27.3847 28.1896 28.0675 29.0016 28.487C29.637 28.8145 30.3178 28.8796 31.0131 28.7825C31.6926 28.6992 32.3159 28.3632 32.7591 27.8413C32.8159 27.7752 32.8334 27.7328 32.7487 27.6677C32.5132 27.488 32.2849 27.2958 32.0545 27.1088C31.885 26.9714 31.885 26.9724 31.7342 27.1264C31.3623 27.5035 30.8995 27.6192 30.3912 27.5995C29.6184 27.5685 29.0708 27.083 28.9448 26.3226C28.9283 26.2265 28.9448 26.2048 29.0409 26.2059C29.6267 26.2131 30.2093 26.2131 30.791 26.2131L30.7868 26.21ZM33.0783 35.2084C33.6517 35.2084 34.2261 35.2084 34.7995 35.2084C34.909 35.2084 34.9379 35.1712 34.9544 35.0741C35.0195 34.7162 35.0247 34.35 34.9699 33.9904C34.8429 33.2218 34.4534 32.6339 33.7467 32.2816C33.2643 32.0558 32.7254 31.9792 32.1991 32.0616C31.3261 32.17 30.6422 32.5781 30.2021 33.3519C29.8646 33.9547 29.735 34.6517 29.8333 35.3355C29.9366 36.162 30.3002 36.8573 31.0079 37.3263C31.8158 37.8604 32.7064 37.94 33.631 37.721C34.1949 37.5911 34.699 37.2761 35.0629 36.8263C35.0929 36.7912 35.1404 36.7602 35.0743 36.7075C34.785 36.4761 34.4968 36.2422 34.2096 36.006C34.1703 35.974 34.1507 35.9802 34.1217 36.0174C33.8118 36.4089 33.3986 36.5804 32.9171 36.6052C32.0142 36.6507 31.3675 36.1765 31.2311 35.3221C31.2166 35.225 31.2311 35.2064 31.3282 35.2064C31.9098 35.2115 32.4956 35.2084 33.0824 35.2084H33.0783ZM8.3796 35.2084C8.94885 35.2084 9.51603 35.2084 10.0884 35.2084C10.2103 35.2084 10.2588 35.1785 10.2764 35.0545C10.3313 34.72 10.3372 34.3793 10.294 34.0431C10.1772 33.2548 9.79187 32.6473 9.06662 32.2868C8.58143 32.0567 8.03803 31.9785 7.50765 32.0626C6.59541 32.1793 5.89806 32.6205 5.46828 33.4459C5.16322 34.0424 5.05473 34.7201 5.15835 35.382C5.26683 36.192 5.62945 36.8707 6.3237 37.3232C7.21941 37.9069 8.19261 37.9638 9.19473 37.6466C9.66127 37.4956 10.0735 37.2116 10.3807 36.8294C10.4117 36.7912 10.4593 36.7591 10.3869 36.7023C10.0987 36.475 9.81563 36.2415 9.53049 36.0081C9.4964 35.9802 9.47471 35.9719 9.44268 36.0143C9.13791 36.4068 8.7195 36.5794 8.2391 36.6052C7.39195 36.6496 6.70596 36.2353 6.55202 35.3396C6.53446 35.2425 6.54169 35.2043 6.65533 35.2064C7.22768 35.2126 7.80519 35.2084 8.38374 35.2084H8.3796ZM0.315105 24.8835C0.315105 26.084 0.315105 27.2855 0.315105 28.487C0.315105 28.5903 0.344032 28.6172 0.445278 28.6161C0.858524 28.6099 1.28004 28.6089 1.69638 28.6161C1.80589 28.6161 1.83275 28.5903 1.83275 28.4808C1.83275 27.5272 1.83275 26.5737 1.83275 25.6201C1.83275 25.5219 1.85858 25.4961 1.95569 25.4972C2.67887 25.4972 3.40205 25.4972 4.12523 25.4972C4.21408 25.4972 4.24404 25.4796 4.24301 25.3835C4.23681 25.0033 4.23681 24.6242 4.24301 24.2471C4.24301 24.151 4.22028 24.1241 4.12213 24.1252C3.40412 24.1252 2.68507 24.1252 1.96706 24.1252C1.86375 24.1252 1.83378 24.1045 1.83482 23.9981C1.84102 23.5528 1.84205 23.1065 1.83482 22.6612C1.83482 22.5497 1.86478 22.5249 1.97222 22.5259C2.83074 22.5259 3.68926 22.5259 4.54778 22.5259C4.64489 22.5259 4.67382 22.5011 4.67175 22.403C4.67175 22.0269 4.66555 21.6519 4.67175 21.2758C4.67175 21.1725 4.64799 21.1467 4.54365 21.1467C3.18131 21.1508 1.81898 21.1508 0.456642 21.1467C0.347132 21.1467 0.322337 21.1736 0.322337 21.282C0.320271 22.4939 0.319238 23.6861 0.319238 24.8835H0.315105ZM12.823 28.1223C12.823 28.2731 12.823 28.3971 12.823 28.52C12.823 28.5996 12.8478 28.6161 12.9263 28.6151C13.3096 28.6151 13.6939 28.6099 14.0783 28.6151C14.1702 28.6151 14.195 28.5934 14.194 28.4994C14.194 27.3433 14.2095 26.1862 14.1857 25.0312C14.1692 24.1965 13.7725 23.5766 12.9935 23.2357C12.5531 23.0532 12.0733 22.9867 11.5998 23.0425C11.2363 23.0676 10.882 23.1676 10.559 23.3361C10.2359 23.5047 9.95121 23.7381 9.72265 24.0219C9.67203 24.0838 9.68133 24.1117 9.74022 24.1562C10.0274 24.3724 10.3122 24.5908 10.5946 24.8112C10.6576 24.8608 10.6824 24.8504 10.7258 24.7884C10.8364 24.6234 10.9839 24.4862 11.1565 24.3878C11.3292 24.2894 11.5223 24.2324 11.7207 24.2213C12.3871 24.1644 12.8458 24.5673 12.8303 25.1955C12.8303 25.2595 12.8179 25.2874 12.7466 25.2988C12.3468 25.3608 11.949 25.4321 11.5502 25.4961C11.1654 25.5422 10.7906 25.6507 10.4407 25.8174C9.52223 26.2947 9.24949 27.4156 9.87659 28.2122C10.3064 28.7577 10.9097 28.8744 11.5595 28.799C12.0519 28.7402 12.5043 28.4987 12.8272 28.1223H12.823ZM16.9555 23.6375C16.9555 23.5094 16.9555 23.4154 16.9555 23.3214C16.9555 23.2543 16.9328 23.2388 16.8697 23.2388C16.4648 23.2388 16.0608 23.2388 15.6558 23.2388C15.5825 23.2388 15.5691 23.2625 15.5691 23.3297C15.5691 25.0605 15.5691 26.791 15.5691 28.5211C15.5691 28.6017 15.5959 28.6151 15.6724 28.6151C16.0557 28.6151 16.44 28.6089 16.8243 28.6151C16.9276 28.6151 16.9617 28.5913 16.9607 28.4798C16.9607 27.3898 16.9607 26.2999 16.9607 25.2089C16.9529 25.1558 16.9608 25.1016 16.9834 25.0529C17.2158 24.6717 17.5206 24.3897 17.9814 24.3132C18.5258 24.2244 18.9959 24.4868 19.1633 24.9816C19.2156 25.143 19.2411 25.312 19.2387 25.4817C19.2387 26.4848 19.2387 27.488 19.2387 28.4921C19.2387 28.5882 19.2635 28.6161 19.3616 28.6151C19.7377 28.6089 20.1127 28.6089 20.4887 28.6151C20.5869 28.6151 20.6107 28.5893 20.6107 28.4921C20.6107 27.6874 20.6107 26.8815 20.6107 26.0767C20.6236 25.7136 20.6153 25.35 20.5859 24.9878C20.5249 24.4713 20.371 24.0012 20.0011 23.6272C19.4122 23.0301 18.6901 22.9299 17.908 23.1107C17.5515 23.2002 17.2248 23.3819 16.9607 23.6375H16.9555ZM23.897 34.9471C23.8939 35.0749 23.9015 35.2027 23.9197 35.3293C24.0396 36.2126 24.4456 36.9193 25.2101 37.3955C25.83 37.7788 26.5077 37.8863 27.2195 37.8088C27.5759 37.7763 27.9223 37.6735 28.2388 37.5065C28.5553 37.3395 28.8356 37.1115 29.0636 36.8356C29.1204 36.7674 29.1122 36.7385 29.044 36.6879C28.7334 36.4557 28.4255 36.2199 28.1204 35.9802C28.0512 35.9254 28.0222 35.9378 27.9695 36.0029C27.7328 36.3058 27.3864 36.5034 27.0051 36.5529C26.6239 36.6024 26.2384 36.4998 25.9322 36.2674C25.3547 35.8324 25.2039 35.2239 25.3403 34.5452C25.4632 33.9325 25.8393 33.5121 26.4529 33.3623C27.0666 33.2125 27.5893 33.3757 27.9819 33.8788C28.0222 33.9315 28.045 33.9439 28.1038 33.8974C28.4138 33.6515 28.7361 33.4067 29.0574 33.1691C29.1277 33.1174 29.1091 33.0854 29.0667 33.0358C28.9449 32.8854 28.8063 32.7495 28.6535 32.6308C27.7443 31.9624 26.7463 31.8735 25.708 32.2331C24.5923 32.6184 23.9022 33.6743 23.9022 34.9471H23.897ZM24.4952 23.027C24.3836 23.0363 24.21 23.0425 24.0396 23.0683C23.2864 23.183 22.6531 23.5146 22.1944 24.1334C21.6489 24.87 21.5053 25.7007 21.6872 26.5871C21.7598 26.9888 21.9238 27.3684 22.1665 27.6965C22.4093 28.0247 22.7242 28.2927 23.087 28.4798C23.6214 28.7577 24.2255 28.873 24.8247 28.8114C25.2008 28.7913 25.5686 28.6939 25.9053 28.5252C26.242 28.3565 26.5403 28.1202 26.7815 27.831C26.8362 27.7648 26.8372 27.7328 26.766 27.6801C26.456 27.4487 26.1461 27.2132 25.8424 26.9735C25.7711 26.9177 25.739 26.9301 25.6894 26.9941C25.4503 27.2989 25.1001 27.4965 24.7156 27.5438C24.3311 27.591 23.9435 27.484 23.6377 27.2462C23.0767 26.8082 22.93 26.2059 23.0664 25.5385C23.1893 24.9279 23.5612 24.5054 24.178 24.3556C24.7948 24.2058 25.3144 24.368 25.706 24.8721C25.7607 24.9413 25.7897 24.9217 25.8424 24.8814C26.1523 24.6448 26.456 24.4072 26.767 24.1768C26.8465 24.1179 26.8383 24.0838 26.7804 24.0157C26.1988 23.3307 25.4415 23.0435 24.5003 23.027H24.4952ZM17.844 36.0515C17.8202 35.9926 17.8037 35.9554 17.7903 35.9171C17.3584 34.7339 16.9276 33.5503 16.4978 32.3663C16.4898 32.3271 16.4669 32.2926 16.434 32.2698C16.4011 32.2471 16.3606 32.238 16.3212 32.2444C15.9213 32.2506 15.5205 32.2506 15.1207 32.2444C15.0101 32.2444 15.0019 32.2703 15.037 32.3674C15.6651 34.0844 16.2891 35.8025 16.909 37.5216C16.9379 37.6011 16.9772 37.6146 17.0516 37.6135C17.5681 37.6135 18.0919 37.6135 18.6116 37.6135C18.647 37.6196 18.6834 37.6117 18.7131 37.5915C18.7428 37.5712 18.7634 37.5402 18.7707 37.505C18.9628 36.9616 19.1622 36.4203 19.3585 35.8789C19.7835 34.7081 20.2088 33.5355 20.6344 32.3612C20.654 32.3074 20.7047 32.2434 20.5817 32.2444C20.152 32.2444 19.7232 32.2444 19.2934 32.2444C19.2713 32.2414 19.2489 32.247 19.2308 32.2601C19.2127 32.2732 19.2004 32.2927 19.1963 32.3147C19.1478 32.4552 19.093 32.5936 19.0455 32.7331C18.6477 33.8334 18.2521 34.9316 17.844 36.0515ZM38.0434 32.0347C37.7743 32.0291 37.5065 32.0729 37.2531 32.1638C36.6126 32.4004 36.1962 32.8364 36.1291 33.5348C36.063 34.2166 36.3357 34.7466 36.9204 35.1093C37.1697 35.2544 37.4306 35.3784 37.7005 35.4801C37.9337 35.5622 38.1578 35.6685 38.3689 35.7973C38.7418 36.0484 38.5879 36.4874 38.2924 36.6124C38.0722 36.7016 37.8271 36.7082 37.6023 36.631C37.2844 36.5215 37.0061 36.3202 36.8027 36.0525C36.7417 35.9781 36.7128 35.9812 36.6477 36.0473C36.4039 36.2932 36.1556 36.5343 35.9028 36.7705C35.8377 36.8325 35.846 36.8738 35.9028 36.9265C36.6332 37.6993 37.5279 37.9762 38.5579 37.753C39.5342 37.5412 40.0859 36.6538 39.8834 35.6764C39.7925 35.2384 39.528 34.9233 39.1602 34.6846C38.84 34.4976 38.5031 34.3406 38.154 34.2156C37.9632 34.1487 37.7836 34.0536 37.6209 33.9336C37.5628 33.8928 37.5169 33.8369 37.4884 33.7719C37.4598 33.7069 37.4496 33.6353 37.4589 33.5649C37.4681 33.4945 37.4965 33.428 37.5409 33.3726C37.5853 33.3172 37.6441 33.275 37.7108 33.2507C37.8659 33.18 38.0389 33.1584 38.2067 33.1887C38.5662 33.2496 38.8214 33.4728 39.0456 33.7404C39.089 33.792 39.1117 33.8044 39.1664 33.7507C39.4144 33.509 39.6644 33.2693 39.9196 33.0337C39.9919 32.9676 39.9898 32.9304 39.9258 32.856C39.6868 32.5953 39.3958 32.3875 39.0716 32.2461C38.7474 32.1046 38.3972 32.0326 38.0434 32.0347ZM2.19434 32.0347C1.87964 32.032 1.56762 32.0928 1.27694 32.2134C0.0217008 32.7476 0.0371973 34.2559 0.785173 34.8995C1.08961 35.1399 1.43124 35.3291 1.79659 35.4595C2.04214 35.544 2.27854 35.653 2.50221 35.7849C2.65821 35.8882 2.76566 36.0256 2.73673 36.2281C2.72432 36.3253 2.68317 36.4165 2.61856 36.4901C2.55395 36.5638 2.46883 36.6164 2.3741 36.6414C2.20389 36.6943 2.02249 36.7 1.84928 36.6579C1.47219 36.5721 1.19429 36.3376 0.954604 36.0515C0.889517 35.975 0.858524 35.9864 0.796537 36.0515C0.548589 36.2994 0.296509 36.5443 0.043396 36.786C-0.00619355 36.8335 -0.010326 36.8614 0.043396 36.9141C0.778974 37.7034 1.68398 37.9978 2.7295 37.754C3.90415 37.4792 4.25334 36.4192 4.01469 35.5762C3.87832 35.0927 3.53223 34.7931 3.10658 34.5669C2.81524 34.4119 2.50324 34.3024 2.20054 34.1733C2.03721 34.1147 1.88596 34.0268 1.75423 33.9139C1.70415 33.8731 1.66534 33.8202 1.64147 33.7601C1.6176 33.7001 1.60948 33.6349 1.61786 33.5709C1.62624 33.5068 1.65086 33.4459 1.68937 33.3941C1.72789 33.3422 1.77902 33.301 1.83792 33.2744C2.00008 33.1886 2.18676 33.1609 2.36687 33.1959C2.71193 33.2527 2.96505 33.4604 3.17993 33.7197C3.24605 33.7982 3.28325 33.8055 3.3566 33.73C3.58939 33.4966 3.8277 33.2686 4.07151 33.0461C4.14796 32.9769 4.15416 32.9366 4.08391 32.8612C3.56839 32.3085 2.93302 32.0533 2.19434 32.0337V32.0347ZM7.04998 23.7584C7.04998 23.5993 7.04998 23.4722 7.04998 23.3452C7.04998 23.2708 7.03965 23.2419 6.95184 23.2419C6.55925 23.247 6.1677 23.2419 5.77512 23.2419C5.69557 23.2419 5.67181 23.2615 5.67181 23.3452C5.67181 25.067 5.67181 26.7889 5.67181 28.5107C5.67181 28.5975 5.69764 28.6213 5.78338 28.6203C6.16357 28.6203 6.54272 28.6141 6.91981 28.6203C7.02312 28.6203 7.04792 28.5924 7.04792 28.4911C7.04792 27.5045 7.05618 26.5179 7.03759 25.5312C7.0323 25.4149 7.05519 25.299 7.10429 25.1935C7.15339 25.0879 7.22727 24.9957 7.31963 24.9248C7.43774 24.8215 7.57214 24.7384 7.71738 24.6789C8.0746 24.5429 8.46532 24.5216 8.83521 24.618C8.91269 24.6355 8.92612 24.618 8.92509 24.5467C8.92509 24.1334 8.92509 23.7202 8.92509 23.3069C8.92509 23.2264 8.89513 23.2036 8.82178 23.185C8.45766 23.1003 8.07607 23.1332 7.73184 23.2791C7.47705 23.393 7.24687 23.5555 7.05412 23.7574L7.04998 23.7584ZM12.7528 32.761C12.7528 32.6081 12.7455 32.4841 12.7528 32.3612C12.761 32.263 12.7228 32.2465 12.634 32.2475C12.2548 32.2475 11.8746 32.2527 11.4975 32.2475C11.4066 32.2475 11.3808 32.2672 11.3808 32.3622C11.3808 34.0765 11.3808 35.7904 11.3808 37.504C11.3808 37.6073 11.4118 37.6166 11.4986 37.6156C11.8664 37.6104 12.2342 37.6084 12.6009 37.6156C12.7197 37.6156 12.759 37.596 12.7579 37.4658C12.7507 36.4905 12.7652 35.5163 12.7466 34.541C12.7403 34.4206 12.7638 34.3006 12.8152 34.1915C12.8666 34.0824 12.9442 33.9878 13.041 33.916C13.1042 33.8633 13.1712 33.8153 13.2414 33.7724C13.6413 33.5348 14.0679 33.5255 14.5111 33.6123C14.601 33.6309 14.633 33.6257 14.631 33.5214C14.6248 33.1205 14.6248 32.72 14.631 32.3198C14.631 32.2269 14.5938 32.201 14.5153 32.1835C14.1421 32.1003 13.752 32.1406 13.4036 32.2981C13.1624 32.4125 12.9434 32.5689 12.7569 32.7599L12.7528 32.761ZM21.3958 34.9357C21.3958 35.7939 21.3958 36.6524 21.3958 37.5112C21.3958 37.5867 21.4082 37.6146 21.4991 37.6146C21.8948 37.6094 22.2915 37.6094 22.6872 37.6146C22.774 37.6146 22.7905 37.5846 22.7905 37.5112C22.7905 35.7956 22.7905 34.0789 22.7905 32.3612C22.7905 32.2579 22.7575 32.2475 22.6707 32.2486C22.2905 32.2486 21.9113 32.2537 21.5343 32.2486C21.4309 32.2486 21.4041 32.2713 21.4041 32.3767C21.402 33.2259 21.4 34.0803 21.4 34.9347L21.3958 34.9357ZM21.1975 30.5109C21.1972 30.7441 21.2893 30.968 21.4537 31.1336C21.6181 31.2991 21.8413 31.3928 22.0746 31.3942C22.1949 31.4028 22.3158 31.3867 22.4296 31.3467C22.5435 31.3067 22.6479 31.2437 22.7363 31.1617C22.8248 31.0796 22.8955 30.9803 22.944 30.8698C22.9924 30.7593 23.0177 30.64 23.0181 30.5193C23.0185 30.3987 22.9941 30.2792 22.9464 30.1684C22.8988 30.0575 22.8288 29.9577 22.7409 29.875C22.653 29.7924 22.549 29.7287 22.4355 29.6879C22.3219 29.6471 22.2012 29.63 22.0808 29.6379C21.8491 29.6387 21.627 29.7306 21.4625 29.8937C21.298 30.0569 21.2043 30.2782 21.2016 30.5098L21.1975 30.5109ZM24.521 8.41252C24.5768 8.43732 24.6171 8.41252 24.6584 8.39599C24.988 8.30921 25.3186 8.25342 25.6574 8.34227C25.768 8.3712 25.7793 8.39806 25.706 8.48794C25.6467 8.55703 25.5739 8.61328 25.4921 8.65324C25.3562 8.73343 25.2272 8.82502 25.1068 8.92701C25.0283 8.98797 24.9952 9.09231 24.865 9.06855C24.833 9.06235 24.7834 9.06855 24.7741 9.11194C24.7648 9.15533 24.8144 9.1574 24.834 9.18116C24.9477 9.3134 25.1533 9.22042 25.271 9.36092C25.2907 9.38468 25.3434 9.38572 25.3423 9.44151C25.3443 9.46684 25.3362 9.49193 25.3197 9.51129C25.3033 9.53066 25.2798 9.54271 25.2545 9.54482C25.1905 9.55618 25.1254 9.56135 25.0479 9.57168C25.181 9.61539 25.3222 9.6288 25.4611 9.61094C25.7153 9.59751 25.7401 9.56651 25.7339 9.31443C25.7287 9.28609 25.7287 9.25703 25.7339 9.22868C25.7669 9.12537 25.6987 9.00966 25.8041 8.91875C25.8531 8.88214 25.9079 8.85418 25.9663 8.8361C26.0221 8.81544 26.0696 8.77308 26.0097 8.71833C25.9498 8.66357 25.9767 8.62844 26.0273 8.58712C26.1192 8.52234 26.186 8.42783 26.2163 8.31954C26.2318 8.24929 26.2277 8.17594 26.1564 8.15011C26.0002 8.07611 25.8302 8.03531 25.6574 8.03027C25.3352 8.05404 25.0201 8.13668 24.7276 8.27409C24.6522 8.30699 24.5836 8.35358 24.5251 8.41149L24.521 8.41252Z" fill="#FEFEFE"/>
<path d="M13.0687 15.2042L12.9323 15.2878C12.8156 15.3591 12.6895 15.4128 12.6647 15.5802C12.6341 15.6689 12.5891 15.752 12.5315 15.8261C12.7526 15.8612 12.7712 15.5926 12.953 15.5854C12.9533 15.63 12.9416 15.674 12.9191 15.7125C12.8965 15.7511 12.864 15.7828 12.8249 15.8044C12.6463 15.8918 12.5077 16.044 12.4375 16.23C12.386 16.3406 12.3215 16.4447 12.2453 16.54C12.3094 16.5679 12.3362 16.5255 12.3651 16.4966C12.5756 16.2759 12.8055 16.0746 13.0522 15.8953C13.3487 15.6825 13.6038 15.4035 13.9902 15.3292C14.452 15.2403 14.9066 15.1143 15.3829 15.1432C15.5945 15.1606 15.8064 15.1142 15.9914 15.0099C16.1019 14.9448 16.2269 14.9717 16.3344 14.92C16.4951 14.8357 16.6483 14.7375 16.792 14.6266C16.9172 14.5321 17.0507 14.4491 17.1908 14.3787C17.2631 14.3456 17.3324 14.296 17.4222 14.3436C17.4708 14.3694 17.5039 14.3188 17.5379 14.2909C17.7115 14.1442 17.8809 13.9923 18.1134 13.9427C18.1252 13.9387 18.1373 13.9355 18.1496 13.9334C18.226 13.9334 18.3304 13.8766 18.3696 13.9768C18.4016 14.0595 18.287 14.0688 18.2436 14.1152C18.2002 14.1617 18.1496 14.1907 18.1093 14.2392C18.2591 14.2392 18.3365 14.0998 18.4678 14.0605C18.4737 14.0831 18.4719 14.107 18.4625 14.1284C18.4531 14.1498 18.4368 14.1674 18.4161 14.1783C17.9844 14.5052 17.5953 14.8849 17.258 15.3085C16.8148 15.8591 16.2424 16.2145 15.6133 16.5028C15.1236 16.727 14.637 16.9615 14.1524 17.1981C14.0001 17.2716 13.854 17.3572 13.7154 17.4543C13.6278 17.5145 13.523 17.5446 13.4169 17.54C9.10256 17.54 4.78759 17.54 0.471919 17.54C0.350011 17.54 0.315918 17.5152 0.315918 17.3861C0.315918 12.6448 0.315918 7.90381 0.315918 3.16319C0.315918 3.04335 0.337614 3.00513 0.468819 3.00513C6.60415 3.00513 12.7402 3.00513 18.8769 3.00513H19.006C18.7281 3.13117 18.4523 3.24481 18.1795 3.36568C17.601 3.6219 17.2414 4.07337 17.0111 4.64571C17.0002 4.68496 16.9765 4.71949 16.9439 4.74386C16.6267 4.95048 16.4181 5.25215 16.2331 5.57035C16.0895 5.82037 15.9459 6.07038 15.8075 6.32349C15.6236 6.66132 15.6525 7.01671 15.7341 7.37211C15.8436 7.85044 15.9015 8.3391 16.0441 8.8102C16.0585 8.88334 16.065 8.95779 16.0637 9.03232C16.0879 9.19383 16.1403 9.34981 16.2187 9.49309C16.2695 9.57577 16.3094 9.66466 16.3375 9.75757C16.3534 9.80865 16.3835 9.85415 16.4242 9.88877C16.6018 10.0734 16.7619 10.274 16.9026 10.488C16.9356 10.5448 17.0059 10.6078 16.9532 10.676C16.9005 10.7442 16.823 10.706 16.7538 10.6967C16.5571 10.6613 16.3765 10.5652 16.2373 10.4219C16.1226 10.3185 16.012 10.207 15.8932 10.0933C15.8571 10.1584 15.8994 10.1884 15.9263 10.2183C16.0089 10.3103 16.0957 10.3991 16.1763 10.4931C16.2016 10.5152 16.219 10.5448 16.2259 10.5776C16.2328 10.6105 16.2288 10.6446 16.2145 10.675C16.1753 10.7432 16.105 10.738 16.0368 10.7256H16.0131C15.8271 10.6946 15.8126 10.706 15.794 10.9033C15.6671 10.8543 15.5324 10.8284 15.3963 10.8268C15.3585 10.8262 15.3215 10.8157 15.2891 10.7963C15.2566 10.7769 15.2298 10.7493 15.2114 10.7163C15.1843 10.6679 15.1461 10.6266 15.1 10.5959C15.0538 10.5652 15.001 10.5459 14.9459 10.5396C14.2904 10.3893 13.622 10.3024 12.9499 10.2803C12.6809 10.2613 12.4116 10.3114 12.1675 10.4259C11.9234 10.5404 11.7126 10.7154 11.5552 10.9343C11.5263 10.9725 11.4705 11.0138 11.5087 11.0603C11.5469 11.1068 11.6017 11.0789 11.6461 11.0531C12.2184 10.7215 12.8631 10.6398 13.4954 10.5169C13.5929 10.5002 13.6921 10.4953 13.7908 10.5024C13.7919 10.51 13.7919 10.5176 13.7908 10.5252C13.5374 10.5596 13.2882 10.6198 13.047 10.7049C12.765 10.7969 12.4736 10.8516 12.1854 10.9219C12.0685 10.9492 11.9556 10.9916 11.8496 11.0479C12.1006 11.0421 12.3517 11.0504 12.6017 11.0727C13.2681 11.1523 13.922 11.2731 14.5151 11.613C14.5977 11.6594 14.6743 11.7156 14.7434 11.7804C14.8189 11.8565 14.9128 11.9118 15.016 11.9407C15.1192 11.9697 15.2282 11.9714 15.3322 11.9457C15.5227 11.9137 15.7111 11.8702 15.8963 11.8155C16.1488 11.7501 16.3824 11.6263 16.5782 11.4539C16.5978 11.4343 16.6174 11.4095 16.6515 11.4302C16.6856 11.4508 16.6712 11.4818 16.6629 11.5066C16.605 11.6988 16.5844 11.9023 16.4614 12.0738C16.4026 12.1565 16.4459 12.235 16.5648 12.2804C16.4707 12.3269 16.3643 12.3249 16.2879 12.3899C16.2652 12.4096 16.1846 12.423 16.2569 12.4819C16.2672 12.4891 16.2683 12.5077 16.2569 12.5088C16.1463 12.5191 16.1536 12.6048 16.1308 12.6823C16.1174 12.7298 16.0275 12.7205 15.9976 12.7856C16.043 12.8404 16.1092 12.796 16.1773 12.8197C15.9482 12.9379 15.7119 13.0414 15.4697 13.1297C15.4252 13.1431 15.3839 13.1575 15.3973 13.2092C15.4108 13.2609 15.4604 13.2185 15.4934 13.2319C15.4862 13.2753 15.4428 13.2784 15.4149 13.295C15.1411 13.4479 14.8653 13.5956 14.5936 13.7506C14.5027 13.8022 14.3869 13.8311 14.3529 13.9489C14.3425 13.9778 14.3115 13.9706 14.2878 13.9696C14.1845 13.9696 14.1845 14.0615 14.1845 14.108C14.1969 14.1865 14.2681 14.138 14.3157 14.1297C14.3869 14.1183 14.4572 14.0595 14.5522 14.139C14.3456 14.1638 14.2206 14.3022 14.0729 14.4231C14.5306 14.3673 14.9882 14.3849 15.4263 14.2599C15.9903 14.0998 16.4594 13.7681 16.8799 13.3745C16.8995 13.3532 16.9202 13.3328 16.9418 13.3136C16.9852 13.2795 17.0286 13.1885 17.0679 13.2175C17.1257 13.2629 17.0679 13.3373 17.039 13.3941C16.9439 13.6066 16.786 13.7847 16.5865 13.9045C16.4573 13.9861 16.3344 14.0781 16.2135 14.1679C15.9325 14.3746 15.606 14.4345 15.2837 14.4965C14.7816 14.5915 14.2702 14.6287 13.7753 14.7671C13.4793 14.8429 13.1994 14.9714 12.9489 15.1463C12.8755 15.2 12.7722 15.1742 12.7112 15.2496C12.6926 15.2734 12.6441 15.2868 12.6678 15.325C12.6916 15.3633 12.7288 15.3457 12.7588 15.325C12.8471 15.2648 12.9421 15.2148 13.0418 15.1763L13.0687 15.2042ZM11.9881 13.4293C12.0313 13.4479 12.0779 13.4576 12.1249 13.4576C12.172 13.4576 12.2186 13.4479 12.2618 13.4293C12.453 13.3631 12.6399 13.2743 12.8517 13.2939C12.8723 13.2927 12.8925 13.2882 12.9117 13.2805C13.1441 13.2288 13.3786 13.1772 13.61 13.1235C13.9958 13.0321 14.3701 12.8976 14.7258 12.7226C14.0336 12.1978 13.2185 12.0139 12.4168 11.7804C12.4385 11.7577 12.4829 11.7721 12.4829 11.738C12.4829 11.704 12.4457 11.6978 12.422 11.6916C12.3496 11.673 12.2763 11.6616 12.205 11.6451C12.1812 11.6451 12.1348 11.6451 12.141 11.6234C12.1792 11.5035 12.0686 11.5304 12.0273 11.5201C11.8723 11.4756 11.7122 11.4467 11.5397 11.4095C11.6234 11.3661 11.6915 11.3269 11.7184 11.2463C11.7329 11.205 11.7628 11.1585 11.7184 11.1223C11.674 11.0862 11.642 11.1223 11.6058 11.1409C11.4015 11.2616 11.2345 11.4364 11.1233 11.6461C11.0717 11.736 10.9622 11.8527 11.0128 11.9281C11.0634 12.0036 11.2194 11.9901 11.3372 11.9891C11.4137 11.9759 11.4922 11.9787 11.5676 11.9974C11.5258 12.037 11.4727 12.0626 11.4157 12.0707C11.338 12.0796 11.2619 12.0991 11.1895 12.1286C11.1223 12.1678 11.0799 12.2122 11.1709 12.2753C11.1192 12.3094 11.0552 12.3156 11.0283 12.3786C11.0528 12.3977 11.0816 12.4106 11.1121 12.4164C11.1426 12.4221 11.1741 12.4205 11.2039 12.4116C11.2419 12.3968 11.2839 12.3966 11.3221 12.4109C11.3602 12.4252 11.3917 12.453 11.4105 12.4891C11.1626 12.5924 11.1078 12.8838 10.894 13.0191C10.8892 13.0231 10.8854 13.0282 10.8828 13.0339C10.8803 13.0397 10.8792 13.0459 10.8795 13.0522C10.8899 13.1224 10.8413 13.1555 10.7958 13.1896C10.6378 13.3156 10.4859 13.4551 10.3206 13.5667C10.1553 13.6782 10.1305 13.9231 9.94868 14.0316C9.9421 14.0347 9.93622 14.0392 9.93143 14.0447C9.92663 14.0502 9.923 14.0567 9.92078 14.0636C9.91856 14.0706 9.91778 14.0779 9.91849 14.0852C9.9192 14.0925 9.92139 14.0996 9.92492 14.1059C9.94868 14.14 9.97761 14.1142 10.0024 14.1059C10.0597 14.0831 10.1156 14.0569 10.1698 14.0274C10.4427 13.8555 10.7267 13.7019 11.02 13.5677C11.3517 13.4272 11.6688 13.2774 12.0397 13.3538C12.0459 13.357 12.0514 13.3612 12.0562 13.3662C12.0531 13.4076 11.9963 13.3838 11.9881 13.4293ZM12.3631 9.85158C12.2316 9.79419 12.0887 9.76779 11.9454 9.77442C11.8021 9.78104 11.6622 9.82052 11.5366 9.88981C11.0238 10.1839 10.5613 10.5581 10.1667 10.9983C9.91274 11.2869 9.61917 11.5381 9.29472 11.7442C9.23058 11.7807 9.17905 11.8359 9.14699 11.9023C8.92924 12.3286 8.67482 12.7351 8.38661 13.1173C8.36492 13.1462 8.3205 13.1689 8.33599 13.2206C8.38352 13.2268 8.39695 13.1865 8.41864 13.1617C8.69552 12.8517 8.97446 12.5511 9.27509 12.268C9.61293 11.9464 9.98027 11.6572 10.3723 11.4044C10.4146 11.3765 10.4477 11.3651 10.4849 11.4044C10.5221 11.4436 10.4601 11.457 10.4518 11.4849C10.4435 11.5128 10.427 11.519 10.4198 11.5376C10.4126 11.5562 10.365 11.6089 10.3971 11.6347C10.4291 11.6606 10.4787 11.6234 10.5086 11.5903C10.5221 11.5748 10.5283 11.5521 10.5438 11.5387C10.6006 11.487 10.5902 11.3837 10.6409 11.3506C10.8341 11.2225 10.9343 11.0304 11.0345 10.8341C11.1126 10.6713 11.2226 10.5259 11.3579 10.4064C11.5572 10.24 11.7804 10.1047 11.9715 9.9177C11.9912 9.95799 11.987 10.0282 12.0407 9.99828C12.141 9.9456 12.266 9.94766 12.3631 9.85158ZM12.1027 14.8963C11.9199 14.8095 11.7535 14.8663 11.5986 14.8291C11.5287 14.815 11.4562 14.824 11.3919 14.855C11.2748 14.9073 11.1516 14.9448 11.0252 14.9665C10.6637 15.0249 10.3364 15.2143 10.1057 15.4986C10.0778 15.5306 9.91253 15.5647 10.0706 15.6525C10.0706 15.6525 10.0592 15.6825 10.0572 15.698C10.0422 15.8049 10.0002 15.9062 9.93525 15.9924C9.8557 16.1019 9.77202 16.2094 9.68627 16.3158C9.65631 16.354 9.63978 16.3912 9.68627 16.4191C9.73276 16.447 9.73586 16.3953 9.75653 16.3747C9.8836 16.2507 9.97245 16.0647 10.1966 16.0906C10.2111 16.0906 10.2297 16.0678 10.2442 16.0534C10.3967 15.8791 10.5887 15.7437 10.8041 15.6587C11.27 15.4893 11.6316 15.1267 12.1027 14.8963ZM13.0987 13.6875C12.9612 13.5842 12.829 13.5512 12.6854 13.6534C12.6418 13.6757 12.5952 13.6913 12.547 13.6999C12.5074 13.711 12.4716 13.7328 12.4437 13.763C12.4261 13.7847 12.3992 13.8105 12.4178 13.8384C12.4364 13.8663 12.4623 13.8539 12.485 13.8508C12.6461 13.826 12.8073 13.8022 12.9674 13.7723C13.0206 13.7623 13.0677 13.7319 13.0987 13.6875ZM11.8847 15.5399C11.8847 15.5244 11.8661 15.5172 11.8445 15.5141C11.82 15.5111 11.7952 15.5142 11.7723 15.5233C11.7494 15.5323 11.7291 15.5469 11.7132 15.5657C11.6234 15.6546 11.5304 15.7403 11.4405 15.8302C11.4178 15.8529 11.361 15.8726 11.3961 15.9129C11.4035 15.9203 11.4122 15.9261 11.4219 15.9302C11.4316 15.9342 11.4419 15.9362 11.4524 15.9362C11.4628 15.9362 11.4732 15.9342 11.4829 15.9302C11.4925 15.9261 11.5013 15.9203 11.5087 15.9129C11.5743 15.8512 11.652 15.8041 11.737 15.7744C11.8362 15.73 11.8465 15.6329 11.8847 15.5399Z" fill="#273375"/>
<path d="M26.5509 12.1678C26.6542 12.1017 26.7441 12.0552 26.8216 11.9963C26.9672 11.8868 26.9848 11.7794 26.8939 11.6203L26.868 11.5779C26.7399 11.3413 26.7141 11.1554 27.0819 11.081C27.1139 11.0738 27.146 11.0655 27.1769 11.0562C27.4528 10.9746 27.5468 10.7907 27.429 10.5273C27.2903 10.2603 27.1282 10.0062 26.9445 9.76791C26.8309 9.60055 26.7172 9.43422 26.6149 9.25962C26.493 9.06566 26.4515 8.8318 26.4992 8.60772C26.5912 8.17692 26.5075 7.75334 26.3959 7.33803C26.3091 7.02086 26.2079 6.70679 26.1097 6.39273C26.0864 6.33109 26.0577 6.27163 26.024 6.21503C26.0083 6.1945 25.9972 6.17083 25.9915 6.14562C25.9857 6.12042 25.9855 6.09427 25.9908 6.06898C25.9961 6.04368 26.0068 6.01982 26.0221 5.99902C26.0375 5.97823 26.0572 5.96099 26.0798 5.94849C26.1511 5.8927 26.2234 5.83691 26.2864 5.77492C26.3174 5.74612 26.3416 5.71067 26.357 5.67123C26.3724 5.63179 26.3787 5.58937 26.3755 5.54715C26.3722 5.50492 26.3594 5.46399 26.3381 5.4274C26.3168 5.39081 26.2874 5.35951 26.2523 5.33585C26.2396 5.32335 26.2239 5.31418 26.2068 5.30918C26.1896 5.30418 26.1715 5.30348 26.154 5.30716C26.1365 5.31084 26.1202 5.31878 26.1066 5.33027C26.0929 5.34177 26.0823 5.35646 26.0756 5.37304C26.0497 5.43364 26.0149 5.49004 25.9723 5.54041C25.9575 5.5581 25.9362 5.56921 25.9132 5.57134C25.8902 5.57347 25.8673 5.56644 25.8494 5.55177C25.8163 5.52284 25.8494 5.48462 25.868 5.45362C25.9486 5.33998 25.9486 5.34101 25.8122 5.31415C25.7813 5.31255 25.7511 5.30466 25.7234 5.29099C25.6957 5.27731 25.6711 5.25812 25.651 5.2346C25.4236 4.93841 25.1191 4.7104 24.7708 4.57548C24.7555 4.56894 24.7407 4.56134 24.7264 4.55275C24.7264 4.55275 24.7264 4.54552 24.7264 4.53002C24.7956 4.53622 24.8617 4.54138 24.933 4.54861C25.0438 4.56203 25.1556 4.5641 25.2667 4.55481C25.3581 4.55452 25.4468 4.52394 25.519 4.46786C25.5911 4.41178 25.6427 4.33336 25.6655 4.24488C25.7626 3.91945 25.711 3.72832 25.4361 3.5C25.2244 3.32334 24.9702 3.22209 24.7347 3.08676L24.6252 3.0258C24.6678 3.00278 24.7171 2.99546 24.7646 3.00514C29.7925 3.00514 34.8203 3.00514 39.8481 3.00514C39.9628 3.00514 40 3.02684 40 3.15081C40 7.90314 40 12.6524 40 17.3985C40 17.5152 39.9659 17.539 39.8553 17.539C34.8888 17.5363 29.9261 17.5349 24.9671 17.5349C24.8945 17.5347 24.8233 17.5155 24.7605 17.4791C24.2005 17.1692 23.5972 16.9563 22.9949 16.7445C22.9615 16.7296 22.927 16.7175 22.8916 16.7084C22.6633 16.6733 22.5909 16.51 22.5755 16.3117C22.5011 15.3953 22.812 14.636 23.5259 14.0533C23.6954 13.9315 23.9047 13.8784 24.1117 13.9045C24.5001 13.9272 24.8772 14.0264 25.2605 14.0781C25.3638 14.0915 25.4599 14.1277 25.5591 14.1473C25.6929 14.1762 25.8314 14.1765 25.9653 14.148C26.0992 14.1195 26.2255 14.0629 26.336 13.982C26.462 13.876 26.5506 13.7324 26.5888 13.5722C26.6269 13.412 26.6125 13.2439 26.5478 13.0925C26.5213 13.0498 26.5118 12.9987 26.5211 12.9493C26.5305 12.9 26.5581 12.8559 26.5984 12.8259C26.6594 12.7722 26.7244 12.7226 26.7875 12.6668C26.8222 12.6375 26.8454 12.5967 26.8527 12.5518C26.8601 12.507 26.8513 12.4609 26.8278 12.422C26.8074 12.3594 26.7712 12.3031 26.7227 12.2585C26.6742 12.214 26.615 12.1828 26.5509 12.1678Z" fill="#E20613"/>
<path d="M30.7906 26.2131C30.2089 26.2131 29.6263 26.2131 29.0446 26.2131C28.9413 26.2131 28.932 26.2338 28.9485 26.3299C29.0725 27.0882 29.6201 27.5758 30.3949 27.6068C30.9053 27.6264 31.3681 27.5107 31.7379 27.1336C31.8888 26.9797 31.8888 26.9787 32.0582 27.1161C32.2886 27.3031 32.5169 27.4952 32.7525 27.675C32.8372 27.7401 32.8196 27.7783 32.7628 27.8486C32.3197 28.3705 31.6964 28.7064 31.0168 28.7897C30.3215 28.8868 29.6407 28.8218 29.0054 28.4943C28.1923 28.0748 27.7284 27.3919 27.5735 26.5034C27.4199 25.7336 27.5611 24.9342 27.9691 24.2637C28.3917 23.5735 29.026 23.1933 29.8195 23.0735C30.4021 22.9857 30.9745 23.026 31.5065 23.3029C32.1966 23.6624 32.5758 24.2482 32.6956 25.0085C32.7491 25.3726 32.7414 25.7431 32.6729 26.1047C32.6585 26.1852 32.6275 26.2183 32.5365 26.2173C31.9549 26.2069 31.3722 26.2131 30.7906 26.2131ZM30.1955 25.1056C30.5623 25.1056 30.9301 25.1056 31.2968 25.1056C31.3681 25.1056 31.3877 25.0901 31.3733 25.0147C31.335 24.789 31.216 24.5849 31.0385 24.4403C30.7596 24.213 30.4311 24.1634 30.0839 24.1831C29.8475 24.1941 29.6202 24.2777 29.4331 24.4227C29.246 24.5677 29.1081 24.7668 29.0384 24.993C29.0126 25.0746 29.0178 25.1087 29.118 25.1067C29.4775 25.0994 29.836 25.1025 30.1955 25.1025V25.1056Z" fill="#273375"/>
<path d="M33.0822 35.2084C32.4954 35.2084 31.9096 35.2084 31.3259 35.2084C31.2308 35.2084 31.2143 35.227 31.2288 35.3241C31.362 36.1785 32.0119 36.6527 32.9148 36.6073C33.3973 36.5825 33.8136 36.411 34.1194 36.0194C34.1484 35.9822 34.168 35.976 34.2073 36.0081C34.4945 36.2436 34.7827 36.4774 35.072 36.7095C35.1381 36.7622 35.0906 36.7932 35.0606 36.8283C34.6967 37.2782 34.1926 37.5932 33.6287 37.723C32.7041 37.942 31.8135 37.8625 31.0056 37.3284C30.2948 36.8542 29.926 36.1661 29.8279 35.3355C29.7296 34.6517 29.8592 33.9547 30.1967 33.3519C30.6368 32.5781 31.3207 32.17 32.1937 32.0615C32.7227 31.979 33.2644 32.0571 33.7485 32.2857C34.4562 32.638 34.8447 33.2259 34.9718 33.9945C35.0265 34.3541 35.0213 34.7203 34.9563 35.0782C34.9397 35.1754 34.9108 35.2136 34.8013 35.2126C34.23 35.2012 33.6556 35.2084 33.0822 35.2084ZM31.2949 34.1144C32.0656 34.1144 32.828 34.1144 33.5905 34.1144C33.6711 34.1144 33.6638 34.0772 33.6535 34.0224C33.6313 33.8834 33.5784 33.7512 33.4985 33.6353C33.4186 33.5195 33.3137 33.423 33.1917 33.3529C32.9525 33.2197 32.6796 33.1594 32.4065 33.1794C32.142 33.1837 31.8871 33.2791 31.6846 33.4493C31.4821 33.6196 31.3445 33.8545 31.2949 34.1144Z" fill="#E20714"/>
<path d="M8.38342 35.2084C7.80487 35.2084 7.22736 35.2084 6.64882 35.2084C6.53414 35.2084 6.52691 35.2445 6.54551 35.3416C6.69841 36.2343 7.3844 36.6475 8.23052 36.6052C8.71298 36.5793 9.12933 36.4068 9.4341 36.0142C9.46612 35.9719 9.48782 35.9801 9.52191 36.008C9.80705 36.2415 10.0901 36.475 10.3784 36.7023C10.4507 36.7591 10.4032 36.7911 10.3722 36.8293C10.0649 37.2115 9.65268 37.4955 9.18615 37.6465C8.18403 37.9637 7.21083 37.9069 6.31512 37.3232C5.62087 36.8707 5.25825 36.1867 5.14977 35.3819C5.04615 34.7201 5.15464 34.0423 5.4597 33.4459C5.88948 32.6194 6.58683 32.1793 7.49907 32.0625C8.03247 31.9765 8.57941 32.0547 9.06734 32.2867C9.79052 32.6504 10.1779 33.2579 10.2947 34.043C10.3379 34.3792 10.332 34.7199 10.2771 35.0544C10.2596 35.1784 10.211 35.2104 10.0891 35.2084C9.52294 35.2011 8.9537 35.2084 8.38342 35.2084ZM7.79764 34.1143C8.16027 34.1143 8.52082 34.1143 8.88551 34.1143C8.96609 34.1143 8.98263 34.0957 8.96816 34.0162C8.93127 33.7859 8.80922 33.578 8.6262 33.4335C8.36886 33.2426 8.05084 33.1519 7.73152 33.1783C7.48411 33.1809 7.244 33.2624 7.04624 33.4111C6.84848 33.5598 6.70344 33.7678 6.63229 34.0048C6.60646 34.0864 6.60853 34.1174 6.70977 34.1153C7.0724 34.1112 7.43502 34.1143 7.79764 34.1143Z" fill="#E20714"/>
<path d="M0.319243 24.8835C0.319243 23.6861 0.319243 22.4887 0.319243 21.2913C0.319243 21.1829 0.344039 21.156 0.453549 21.156C1.81588 21.1601 3.17822 21.1601 4.54056 21.156C4.64387 21.156 4.6697 21.1829 4.66866 21.2851C4.66143 21.6612 4.66246 22.0362 4.66866 22.4123C4.66866 22.5104 4.6418 22.5362 4.54469 22.5352C3.68617 22.5352 2.82765 22.5352 1.96913 22.5352C1.86582 22.5352 1.82966 22.559 1.83173 22.6706C1.83896 23.1158 1.83792 23.5621 1.83173 24.0074C1.83173 24.1107 1.86478 24.1355 1.96396 24.1345C2.68714 24.1345 3.40103 24.1345 4.11904 24.1345C4.22236 24.1345 4.24198 24.1603 4.23992 24.2564C4.23475 24.6366 4.23475 25.0157 4.23992 25.3928C4.23992 25.4889 4.21099 25.5065 4.12214 25.5065C3.39896 25.5065 2.67578 25.5065 1.9526 25.5065C1.85549 25.5065 1.82863 25.5312 1.82966 25.6294C1.82966 26.583 1.82966 27.5365 1.82966 28.4901C1.82966 28.5996 1.8028 28.6275 1.69329 28.6254C1.28004 28.6182 0.859563 28.6192 0.442185 28.6254C0.338873 28.6254 0.312012 28.6006 0.312012 28.4963C0.320277 27.2855 0.319243 26.084 0.319243 24.8835Z" fill="#273375"/>
<path d="M12.827 28.1223C12.5031 28.498 12.0499 28.7384 11.5573 28.7959C10.9064 28.8713 10.3041 28.7546 9.87432 28.2091C9.24722 27.4126 9.51996 26.2917 10.4384 25.8144C10.7883 25.6477 11.1631 25.5391 11.548 25.4931C11.9467 25.429 12.3445 25.3577 12.7443 25.2957C12.8156 25.2844 12.827 25.2565 12.828 25.1924C12.8435 24.5643 12.3848 24.1593 11.7184 24.2182C11.52 24.2293 11.3269 24.2863 11.1543 24.3847C10.9816 24.4832 10.8342 24.6203 10.7235 24.7854C10.6801 24.8474 10.6554 24.8577 10.5923 24.8081C10.3099 24.587 10.0252 24.3687 9.73794 24.1531C9.67906 24.1087 9.66976 24.0808 9.72038 24.0188C9.94894 23.7351 10.2337 23.5016 10.5567 23.3331C10.8797 23.1645 11.2341 23.0645 11.5976 23.0394C12.071 22.9837 12.5508 23.0502 12.9912 23.2326C13.7733 23.5735 14.1669 24.1934 14.1834 25.0282C14.2072 26.1832 14.1834 27.3403 14.1917 28.4963C14.1917 28.5903 14.1679 28.6131 14.076 28.612C13.6917 28.6058 13.3074 28.612 12.9241 28.612C12.8497 28.612 12.8208 28.5965 12.8208 28.517C12.8321 28.3971 12.827 28.2732 12.827 28.1223ZM12.827 26.6346C12.827 26.5613 12.8218 26.4859 12.827 26.4125C12.8363 26.3237 12.8073 26.3009 12.7185 26.3164C12.4271 26.3712 12.1348 26.4198 11.8424 26.4673C11.6087 26.4899 11.3806 26.5521 11.1678 26.6512C11.0688 26.6995 10.9873 26.7775 10.9349 26.8744C10.8825 26.9713 10.8617 27.0822 10.8754 27.1915C10.8852 27.3057 10.9335 27.4133 11.0123 27.4966C11.0911 27.5799 11.1958 27.634 11.3093 27.6502C11.5243 27.6934 11.7466 27.6842 11.9574 27.6235C12.1681 27.5627 12.3611 27.4521 12.5201 27.301C12.7205 27.1254 12.9013 26.9363 12.827 26.6346Z" fill="#273375"/>
<path d="M16.9604 23.6376C17.2231 23.3815 17.5483 23.1987 17.9037 23.1076C18.6857 22.931 19.4079 23.0312 19.9968 23.6242C20.3666 23.9982 20.5206 24.4734 20.5815 24.9848C20.611 25.347 20.6192 25.7106 20.6063 26.0737C20.6063 26.8785 20.6063 27.6843 20.6063 28.4891C20.6063 28.5862 20.5825 28.6131 20.4844 28.6121C20.1083 28.6059 19.7333 28.6059 19.3573 28.6121C19.254 28.6121 19.2343 28.5852 19.2343 28.4891C19.2343 27.4849 19.2343 26.4818 19.2343 25.4786C19.2367 25.309 19.2113 25.14 19.1589 24.9786C18.9915 24.4837 18.5215 24.2213 17.977 24.3102C17.5163 24.3866 17.2115 24.6687 16.979 25.0499C16.9564 25.0986 16.9485 25.1528 16.9563 25.2059C16.9563 26.2969 16.9563 27.3868 16.9563 28.4767C16.9563 28.5883 16.9274 28.6141 16.8199 28.6121C16.4356 28.6048 16.0513 28.6121 15.668 28.6121C15.5947 28.6121 15.5647 28.5986 15.5647 28.5181C15.5647 26.7879 15.5647 25.0575 15.5647 23.3267C15.5647 23.2595 15.5781 23.2347 15.6515 23.2357C16.0565 23.2357 16.4604 23.2357 16.8654 23.2357C16.9284 23.2357 16.9542 23.2512 16.9511 23.3184C16.9563 23.4155 16.9604 23.5095 16.9604 23.6376Z" fill="#273375"/>
<path d="M23.9019 34.9471C23.9019 33.6743 24.592 32.6205 25.7109 32.2331C26.7491 31.8736 27.7471 31.9624 28.6563 32.6308C28.8091 32.7495 28.9477 32.8854 29.0695 33.0358C29.1119 33.0854 29.1305 33.1174 29.0602 33.1691C28.7389 33.4067 28.4218 33.6515 28.1067 33.8974C28.0478 33.9439 28.025 33.9315 27.9848 33.8788C27.5891 33.3726 27.0663 33.2063 26.4557 33.3623C25.8452 33.5183 25.466 33.9326 25.3431 34.5452C25.2067 35.2239 25.3575 35.8325 25.935 36.2674C26.2413 36.4999 26.6267 36.6024 27.0079 36.5529C27.3892 36.5035 27.7356 36.3059 27.9724 36.0029C28.025 35.9378 28.054 35.9254 28.1232 35.9802C28.4283 36.2199 28.7362 36.4558 29.0468 36.6879C29.115 36.7385 29.1232 36.7674 29.0664 36.8356C28.8385 37.1115 28.5581 37.3395 28.2416 37.5065C27.9251 37.6736 27.5787 37.7763 27.2223 37.8088C26.5105 37.8884 25.8297 37.7809 25.2129 37.3956C24.4484 36.9203 24.0424 36.2137 23.9225 35.3293C23.905 35.2027 23.8981 35.0748 23.9019 34.9471Z" fill="#E20714"/>
<path d="M24.5 23.0269C25.4412 23.0434 26.1985 23.3306 26.7801 24.0166C26.838 24.0848 26.8462 24.1199 26.7667 24.1777C26.4567 24.4081 26.1468 24.6457 25.842 24.8823C25.7893 24.9226 25.7604 24.9423 25.7057 24.873C25.311 24.3668 24.7903 24.2025 24.1777 24.3565C23.5651 24.5104 23.189 24.9288 23.0661 25.5394C22.9297 26.2068 23.0764 26.8091 23.6374 27.2471C23.9434 27.4852 24.3313 27.5922 24.7161 27.5447C25.1009 27.4973 25.4511 27.2993 25.6902 26.994C25.7418 26.93 25.7718 26.9176 25.8431 26.9734C26.1468 27.213 26.4557 27.4486 26.7667 27.68C26.838 27.7327 26.8369 27.7647 26.7822 27.8308C26.541 28.1201 26.2427 28.3564 25.906 28.5251C25.5694 28.6938 25.2015 28.7912 24.8255 28.8113C24.2263 28.8729 23.6222 28.7576 23.0878 28.4796C22.7249 28.2926 22.41 28.0246 22.1673 27.6964C21.9245 27.3683 21.7605 26.9887 21.6879 26.587C21.5061 25.7006 21.6497 24.8699 22.1951 24.1333C22.6538 23.5135 23.2871 23.1829 24.0403 23.0682C24.2149 23.0424 24.3884 23.0362 24.5 23.0269Z" fill="#273375"/>
<path d="M17.8438 36.0514C18.2498 34.9315 18.6475 33.8333 19.0453 32.7341C19.0959 32.5946 19.1486 32.4562 19.1961 32.3157C19.2002 32.2937 19.2125 32.2742 19.2306 32.2611C19.2487 32.248 19.2711 32.2424 19.2932 32.2454C19.723 32.2454 20.1517 32.2454 20.5815 32.2454C20.7045 32.2454 20.6538 32.3084 20.6342 32.3622C20.2086 33.533 19.7833 34.7056 19.3583 35.8799C19.162 36.4213 18.9626 36.9626 18.7705 37.506C18.7632 37.5412 18.7426 37.5722 18.7129 37.5925C18.6832 37.6127 18.6468 37.6206 18.6114 37.6145C18.0948 37.6145 17.571 37.6145 17.0514 37.6145C16.977 37.6145 16.9377 37.6021 16.9088 37.5226C16.2889 35.8007 15.6649 34.0826 15.0368 32.3684C15.0017 32.2712 15.0099 32.2444 15.1205 32.2454C15.5203 32.2516 15.9211 32.2516 16.321 32.2454C16.3604 32.239 16.4009 32.2481 16.4338 32.2708C16.4667 32.2935 16.4896 32.3281 16.4976 32.3673C16.9253 33.552 17.3561 34.7356 17.79 35.9181C17.8035 35.9553 17.82 35.9925 17.8438 36.0514Z" fill="#E20714"/>
<path d="M38.0433 32.0347C38.3973 32.0334 38.7475 32.1062 39.0715 32.2486C39.3956 32.391 39.6862 32.5996 39.9246 32.8612C39.9887 32.9314 39.9908 32.9727 39.9184 33.0389C39.6633 33.2744 39.4132 33.5141 39.1653 33.7558C39.1105 33.8096 39.0878 33.7972 39.0444 33.7455C38.8202 33.4779 38.5651 33.2548 38.2055 33.1938C38.0378 33.1635 37.8648 33.1851 37.7096 33.2558C37.6429 33.2802 37.5842 33.3223 37.5398 33.3777C37.4954 33.4331 37.467 33.4996 37.4577 33.57C37.4485 33.6404 37.4587 33.712 37.4872 33.777C37.5158 33.842 37.5616 33.8979 37.6198 33.9387C37.7824 34.0587 37.9621 34.1538 38.1528 34.2207C38.502 34.3458 38.8388 34.5028 39.1591 34.6898C39.5269 34.9284 39.7914 35.2435 39.8823 35.6816C40.0889 36.6589 39.5331 37.5463 38.5568 37.7581C37.5237 37.9813 36.6321 37.7044 35.9017 36.9316C35.8459 36.8738 35.8376 36.8376 35.9017 36.7756C36.1538 36.538 36.4021 36.297 36.6466 36.0525C36.7116 35.9863 36.7406 35.9832 36.8015 36.0576C37.005 36.3253 37.2833 36.5267 37.6012 36.6362C37.8259 36.7134 38.071 36.7068 38.2913 36.6176C38.5868 36.4926 38.7407 36.0535 38.3677 35.8024C38.1566 35.6736 37.9326 35.5673 37.6993 35.4853C37.4294 35.3836 37.1685 35.2595 36.9193 35.1144C36.3304 34.7518 36.0618 34.2218 36.1279 33.5399C36.1951 32.8415 36.6114 32.4035 37.252 32.169C37.5053 32.0761 37.7735 32.0306 38.0433 32.0347Z" fill="#E20714"/>
<path d="M2.1941 32.0336C2.93277 32.0532 3.56814 32.3064 4.0754 32.8601C4.14565 32.9355 4.13945 32.9758 4.063 33.045C3.81919 33.2668 3.58088 33.4948 3.34809 33.729C3.27164 33.8044 3.23754 33.7971 3.17142 33.7186C2.95654 33.4593 2.70342 33.2517 2.35836 33.1948C2.17825 33.1598 1.99157 33.1875 1.82941 33.2734C1.77051 33.2999 1.71938 33.3411 1.68086 33.393C1.64235 33.4449 1.61773 33.5057 1.60935 33.5698C1.60096 33.6338 1.60909 33.699 1.63296 33.759C1.65683 33.8191 1.69564 33.872 1.74572 33.9129C1.87745 34.0258 2.0287 34.1136 2.19203 34.1722C2.49473 34.3013 2.8119 34.4108 3.09807 34.5658C3.52372 34.792 3.86981 35.0916 4.00618 35.5751C4.24483 36.4182 3.89564 37.4781 2.72099 37.7529C1.67857 37.9968 0.773563 37.7023 0.0348849 36.913C-0.0136716 36.8603 -0.00953912 36.8324 0.0348849 36.7849C0.287998 36.5432 0.540078 36.2983 0.788026 36.0504C0.850013 35.9884 0.881006 35.977 0.946093 36.0504C1.18578 36.3365 1.46265 36.5669 1.84077 36.6568C2.01398 36.699 2.19538 36.6932 2.36559 36.6403C2.46032 36.6153 2.54544 36.5627 2.61005 36.4891C2.67466 36.4154 2.7158 36.3242 2.72822 36.227C2.75715 36.0204 2.6497 35.8882 2.4937 35.7838C2.27003 35.6519 2.03363 35.5429 1.78808 35.4584C1.42273 35.328 1.0811 35.1389 0.776662 34.8984C0.0245537 34.2558 0.0131897 32.7475 1.26843 32.2123C1.56168 32.0906 1.87661 32.0298 2.1941 32.0336Z" fill="#E20714"/>
<path d="M7.05381 23.7573C7.24971 23.5535 7.48387 23.3903 7.74289 23.2769C8.08712 23.1311 8.46872 23.0982 8.83283 23.1829C8.90515 23.2005 8.93614 23.2243 8.93614 23.3048C8.93614 23.7181 8.93614 24.1313 8.93614 24.5446C8.93614 24.6169 8.92374 24.6334 8.84626 24.6159C8.47637 24.5195 8.08565 24.5408 7.72843 24.6768C7.58319 24.7363 7.44879 24.8194 7.33068 24.9227C7.23832 24.9936 7.16445 25.0858 7.11534 25.1914C7.06624 25.2969 7.04336 25.4128 7.04864 25.5291C7.06724 26.5158 7.05484 27.5024 7.05897 28.489C7.05897 28.5923 7.03521 28.6202 6.93086 28.6182C6.55068 28.6109 6.17153 28.613 5.79444 28.6182C5.70869 28.6182 5.68286 28.5954 5.68286 28.5086C5.68286 26.7868 5.68286 25.0649 5.68286 23.3431C5.68286 23.2604 5.70662 23.2398 5.78617 23.2398C6.17876 23.2398 6.57031 23.2398 6.96289 23.2398C7.05071 23.2398 7.0662 23.2718 7.06104 23.3431C7.05071 23.4712 7.05381 23.5982 7.05381 23.7573Z" fill="#273375"/>
<path d="M12.7567 32.7598C12.9445 32.5684 13.1649 32.412 13.4076 32.298C13.756 32.1405 14.146 32.1002 14.5192 32.1834C14.5978 32.2009 14.636 32.2268 14.6349 32.3197C14.6274 32.7199 14.6274 33.1204 14.6349 33.5213C14.6349 33.6246 14.605 33.6308 14.5151 33.6122C14.075 33.5254 13.6452 33.5347 13.2454 33.7723C13.1752 33.8152 13.1082 33.8632 13.045 33.9159C12.9481 33.9877 12.8706 34.0823 12.8192 34.1914C12.7678 34.3005 12.7442 34.4205 12.7505 34.5409C12.7691 35.5162 12.7505 36.4904 12.7619 37.4657C12.7619 37.5959 12.7237 37.6176 12.6049 37.6155C12.2381 37.6072 11.8703 37.6093 11.5025 37.6155C11.4158 37.6155 11.3848 37.6021 11.3848 37.5039C11.3848 35.7903 11.3848 34.0764 11.3848 32.3621C11.3848 32.267 11.4106 32.2454 11.5015 32.2474C11.8817 32.2526 12.2619 32.2474 12.6379 32.2474C12.7268 32.2474 12.765 32.2629 12.7567 32.3611C12.7495 32.483 12.7567 32.6069 12.7567 32.7598Z" fill="#E20613"/>
<path d="M21.3999 34.9347C21.3999 34.0803 21.3999 33.226 21.3999 32.3726C21.3999 32.2693 21.4278 32.2424 21.53 32.2445C21.9092 32.2507 22.2883 32.2497 22.6665 32.2445C22.7533 32.2445 22.7873 32.259 22.7863 32.3571C22.7863 34.0741 22.7863 35.7908 22.7863 37.5072C22.7863 37.5836 22.7729 37.6105 22.683 37.6105C22.2873 37.6053 21.8906 37.6053 21.4949 37.6105C21.4092 37.6105 21.3916 37.5816 21.3916 37.5072C21.3985 36.6511 21.4012 35.7936 21.3999 34.9347Z" fill="#E20714"/>
<path d="M21.2012 30.5098C21.2028 30.2767 21.2966 30.0537 21.4621 29.8895C21.6276 29.7254 21.8514 29.6334 22.0845 29.6337C22.2049 29.6259 22.3256 29.6429 22.4392 29.6837C22.5527 29.7245 22.6567 29.7882 22.7446 29.8708C22.8325 29.9535 22.9025 30.0534 22.9501 30.1642C22.9978 30.275 23.0222 30.3945 23.0218 30.5152C23.0214 30.6358 22.9961 30.7551 22.9477 30.8656C22.8992 30.9761 22.8285 31.0755 22.7401 31.1575C22.6516 31.2395 22.5472 31.3025 22.4333 31.3425C22.3195 31.3825 22.1986 31.3987 22.0783 31.39C21.8455 31.3886 21.6228 31.2954 21.4585 31.1305C21.2942 30.9656 21.2017 30.7425 21.2012 30.5098Z" fill="#E20714"/>
<path d="M24.5249 8.41151C24.5849 8.35465 24.655 8.30946 24.7315 8.27824C25.024 8.14083 25.3391 8.05819 25.6613 8.03442C25.8346 8.03821 26.0053 8.07796 26.1624 8.15117C26.2337 8.17699 26.2378 8.25448 26.2223 8.3206C26.192 8.42889 26.1252 8.52339 26.0333 8.58817C25.9826 8.6295 25.9485 8.65739 26.0157 8.71938C26.0828 8.78137 26.0281 8.81649 25.9723 8.83715C25.9139 8.85524 25.859 8.88319 25.8101 8.9198C25.7068 9.00762 25.7729 9.12643 25.7398 9.22974C25.7346 9.25808 25.7346 9.28714 25.7398 9.31549C25.746 9.56757 25.7212 9.59856 25.4671 9.61199C25.3281 9.62986 25.187 9.61644 25.0539 9.57273C25.1313 9.5624 25.1964 9.55723 25.2605 9.54587C25.2858 9.54376 25.3093 9.53171 25.3257 9.51235C25.3422 9.49298 25.3503 9.46789 25.3483 9.44256C25.3483 9.38677 25.2966 9.38574 25.277 9.36198C25.1592 9.22147 24.9536 9.31445 24.84 9.18221C24.8204 9.15845 24.7698 9.15019 24.7801 9.113C24.7904 9.0758 24.839 9.06341 24.871 9.0696C25.0012 9.09337 25.0342 8.98902 25.1127 8.92807C25.2324 8.82474 25.3606 8.73177 25.496 8.65016C25.5778 8.6102 25.6506 8.55395 25.7099 8.48486C25.7832 8.39498 25.7719 8.36812 25.6613 8.33919C25.3225 8.25034 24.9919 8.30613 24.6623 8.39291C24.621 8.40635 24.5807 8.43631 24.5249 8.41151Z" fill="#9E9E9D"/>
<path d="M13.793 10.5253C13.794 10.5178 13.794 10.5101 13.793 10.5026C13.9092 10.4825 14.028 10.4825 14.1442 10.5026L13.793 10.5253Z" fill="#9E9E9D"/>
<path d="M13.1289 15.1661L13.0687 15.2045L13.0427 15.1796L13.1123 15.1475L13.1289 15.1661Z" fill="#273375"/>
<path d="M13.1121 15.1474C13.1359 15.137 13.1588 15.1194 13.1837 15.1474L13.1318 15.1723L13.1121 15.1474Z" fill="#273375"/>
<path d="M13.1837 15.1439L13.1731 15.128L13.188 15.1216C13.185 15.1281 13.1826 15.1349 13.1805 15.1418L13.1837 15.1439Z" fill="#273375"/>
<path d="M11.988 13.4292C11.9963 13.3838 12.0531 13.4075 12.0593 13.3662C12.0545 13.3612 12.0489 13.357 12.0428 13.3538C11.6719 13.2774 11.3547 13.4272 11.0231 13.5677C10.7261 13.6994 10.4382 13.8509 10.1615 14.0212C10.1073 14.0507 10.0514 14.0769 9.99409 14.0997C9.96929 14.1101 9.94036 14.1359 9.9166 14.0997C9.91307 14.0933 9.91088 14.0863 9.91017 14.079C9.90946 14.0717 9.91023 14.0644 9.91246 14.0574C9.91468 14.0504 9.91831 14.044 9.9231 14.0385C9.9279 14.033 9.93378 14.0285 9.94036 14.0253C10.1222 13.922 10.1367 13.6792 10.3123 13.5604C10.4879 13.4416 10.6295 13.3094 10.7875 13.1833C10.833 13.1472 10.8815 13.1162 10.8712 13.0459C10.8709 13.0397 10.872 13.0334 10.8745 13.0277C10.877 13.022 10.8808 13.0169 10.8857 13.0129C11.1026 12.8775 11.1574 12.5862 11.4022 12.4829C11.3834 12.4468 11.3519 12.4189 11.3137 12.4046C11.2756 12.3903 11.2335 12.3906 11.1956 12.4054C11.1658 12.4143 11.1343 12.4159 11.1038 12.4102C11.0732 12.4044 11.0445 12.3914 11.02 12.3724C11.0468 12.3104 11.1109 12.3042 11.1625 12.269C11.0716 12.206 11.114 12.1657 11.1811 12.1223C11.2536 12.0928 11.3297 12.0734 11.4074 12.0645C11.4644 12.0564 11.5175 12.0307 11.5593 11.9911C11.4839 11.9725 11.4054 11.9697 11.3289 11.9829C11.2142 11.9829 11.0623 12.017 11.0045 11.9219C10.9466 11.8269 11.0634 11.7298 11.115 11.6399C11.228 11.4315 11.3964 11.2585 11.6016 11.1398C11.6378 11.1192 11.6781 11.0903 11.7142 11.1212C11.7504 11.1522 11.7266 11.2039 11.7142 11.2452C11.6874 11.3258 11.6192 11.3651 11.5355 11.4085C11.708 11.4456 11.8682 11.4746 12.0231 11.519C12.0645 11.5304 12.175 11.5035 12.1368 11.6223C12.1306 11.6399 12.1771 11.6388 12.2008 11.644C12.2721 11.6605 12.3455 11.6719 12.4178 11.6905C12.4415 11.6967 12.4798 11.6998 12.4787 11.737C12.4777 11.7742 12.4343 11.7566 12.4126 11.7793C13.2143 12.0128 14.0294 12.1926 14.7216 12.7215C14.3659 12.8966 13.9916 13.031 13.6059 13.1224C13.3744 13.1802 13.1399 13.2257 12.9075 13.2794C12.8884 13.2871 12.8681 13.2916 12.8476 13.2929C12.6409 13.2732 12.4488 13.3621 12.2576 13.4282C12.2151 13.4465 12.1693 13.456 12.1229 13.4561C12.0766 13.4563 12.0307 13.4472 11.988 13.4292Z" fill="#FEFEFE"/>
<path d="M12.3633 9.8516C12.2662 9.94768 12.1412 9.94562 12.041 10.0014C11.9873 10.0314 11.9914 9.96111 11.9718 9.92082C11.7807 10.1078 11.5585 10.2432 11.3581 10.4095C11.2209 10.5288 11.1091 10.6746 11.0296 10.8382C10.9263 11.0325 10.8292 11.2246 10.636 11.3548C10.5854 11.3878 10.5957 11.4912 10.5389 11.5428C10.5234 11.5562 10.5172 11.579 10.5037 11.5945C10.4738 11.6275 10.4386 11.674 10.3922 11.6389C10.3457 11.6038 10.4035 11.5738 10.4149 11.5418C10.4263 11.5098 10.4417 11.5087 10.4469 11.4891C10.4521 11.4695 10.5234 11.4571 10.48 11.4085C10.4366 11.36 10.4097 11.3775 10.3674 11.4085C9.97563 11.6594 9.6083 11.9465 9.2702 12.266C8.96956 12.5491 8.69062 12.8538 8.41374 13.1596C8.39205 13.1844 8.37862 13.2247 8.33109 13.2185C8.3156 13.1658 8.36002 13.1431 8.38172 13.1152C8.66993 12.733 8.92434 12.3265 9.14209 11.9003C9.17416 11.8338 9.22568 11.7787 9.28983 11.7422C9.61427 11.536 9.90784 11.2849 10.1618 10.9963C10.5581 10.5564 11.0223 10.1828 11.5369 9.88983C11.6625 9.82055 11.8023 9.78107 11.9456 9.77444C12.0889 9.76781 12.2319 9.79421 12.3633 9.8516Z" fill="#FEFEFE"/>
<path d="M12.1027 14.8963C11.6316 15.1267 11.27 15.4893 10.8031 15.6608C10.5876 15.7458 10.3956 15.8812 10.2431 16.0555C10.2287 16.0699 10.2101 16.0937 10.1956 16.0927C9.97141 16.0689 9.88566 16.2528 9.75549 16.3768C9.73482 16.3974 9.72346 16.447 9.68524 16.4212C9.64701 16.3954 9.65837 16.354 9.68524 16.3179C9.77098 16.2146 9.85467 16.104 9.93422 15.9945C9.9992 15.9083 10.0412 15.807 10.0561 15.7001C10.0561 15.6846 10.0716 15.6567 10.0696 15.6546C9.91149 15.5668 10.0768 15.5327 10.1047 15.5007C10.3354 15.2164 10.6627 15.027 11.0241 14.9686C11.1506 14.9469 11.2738 14.9094 11.3909 14.8571C11.4551 14.8261 11.5277 14.8171 11.5975 14.8312C11.7535 14.8664 11.9199 14.8095 12.1027 14.8963Z" fill="#FEFEFE"/>
<path d="M13.0984 13.6875C13.0827 13.7098 13.0627 13.7287 13.0397 13.7433C13.0166 13.7578 12.9909 13.7677 12.9641 13.7722C12.8039 13.8022 12.6428 13.8259 12.4816 13.8507C12.4589 13.8507 12.4237 13.8507 12.4144 13.8383C12.4051 13.8259 12.4227 13.7846 12.4403 13.7629C12.4682 13.7328 12.504 13.711 12.5436 13.6999C12.5918 13.6913 12.6384 13.6756 12.682 13.6534C12.8287 13.5511 12.961 13.5873 13.0984 13.6875Z" fill="#FEFEFE"/>
<path d="M11.8849 15.54C11.8477 15.633 11.8363 15.7301 11.7371 15.7724C11.6522 15.8021 11.5744 15.8493 11.5088 15.9109C11.5014 15.9183 11.4926 15.9242 11.483 15.9282C11.4733 15.9322 11.463 15.9342 11.4525 15.9342C11.442 15.9342 11.4317 15.9322 11.422 15.9282C11.4124 15.9242 11.4036 15.9183 11.3962 15.9109C11.3611 15.8706 11.4179 15.851 11.4406 15.8282C11.5305 15.7383 11.6235 15.6526 11.7134 15.5637C11.7292 15.5449 11.7495 15.5303 11.7724 15.5213C11.7953 15.5122 11.8201 15.5091 11.8446 15.5121C11.8663 15.5173 11.8838 15.5245 11.8849 15.54Z" fill="#FEFEFE"/>
<path d="M30.1956 25.1026C29.8361 25.1026 29.4776 25.1026 29.1181 25.1026C29.0148 25.1026 29.0148 25.0705 29.0385 24.9889C29.1083 24.7627 29.2461 24.5635 29.4332 24.4186C29.6203 24.2736 29.8476 24.1899 30.0841 24.179C30.4312 24.1593 30.7597 24.2089 31.0387 24.4362C31.2162 24.5808 31.3351 24.7849 31.3734 25.0106C31.3879 25.086 31.3682 25.1026 31.2969 25.1015C30.9302 25.1015 30.5624 25.1026 30.1956 25.1026Z" fill="#FEFEFE"/>
<path d="M31.2949 34.1145C31.3456 33.8555 31.4836 33.6219 31.686 33.4526C31.8884 33.2833 32.1428 33.1887 32.4066 33.1847C32.6796 33.1647 32.9525 33.225 33.1917 33.3582C33.3138 33.4283 33.4186 33.5248 33.4985 33.6406C33.5784 33.7565 33.6314 33.8887 33.6535 34.0277C33.6639 34.0824 33.6711 34.1207 33.5905 34.1196C32.8281 34.1134 32.0656 34.1145 31.2949 34.1145Z" fill="#FEFEFE"/>
<path d="M7.79762 34.1144C7.435 34.1144 7.07444 34.1144 6.70975 34.1144C6.60644 34.1144 6.60644 34.0855 6.63227 34.0038C6.70342 33.7669 6.84846 33.5588 7.04622 33.4102C7.24398 33.2615 7.4841 33.1799 7.7315 33.1773C8.05082 33.1509 8.36884 33.2416 8.62618 33.4325C8.8092 33.577 8.93125 33.785 8.96814 34.0152C8.98261 34.0948 8.96814 34.1185 8.88549 34.1133C8.52287 34.1123 8.16025 34.1144 7.79762 34.1144Z" fill="#FEFEFE"/>
<path d="M12.8269 26.6347C12.9013 26.9384 12.7236 27.1254 12.517 27.3011C12.358 27.4522 12.165 27.5628 11.9542 27.6235C11.7435 27.6843 11.5212 27.6935 11.3062 27.6503C11.1927 27.6341 11.088 27.58 11.0092 27.4967C10.9304 27.4134 10.8821 27.3058 10.8723 27.1916C10.8585 27.0823 10.8794 26.9714 10.9318 26.8745C10.9842 26.7776 11.0656 26.6995 11.1647 26.6512C11.3775 26.5522 11.6056 26.49 11.8393 26.4673C12.1317 26.4167 12.424 26.3713 12.7154 26.3165C12.8042 26.301 12.8331 26.3237 12.8238 26.4126C12.8218 26.4859 12.8269 26.5614 12.8269 26.6347Z" fill="#FEFEFE"/>
</svg>