<svg id="france-services" width="120" height="56" viewBox="0 0 120 56" fill="none" xmlns="http://www.w3.org/2000/svg">
<path d="M49.8218 20.2578C49.7845 20.222 49.7503 20.2484 49.7146 20.2578L49.6105 20.3059C49.4606 20.3639 49.3178 20.439 49.1849 20.5296C49.1399 20.5576 49.0793 20.5731 49.0482 20.5296C49.0172 20.4861 49.0855 20.4519 49.1135 20.4162C49.2051 20.2981 49.3604 20.337 49.4707 20.2609C49.8474 19.9978 50.2683 19.8047 50.7134 19.6908C51.4574 19.4827 52.2263 19.4267 52.9812 19.2838C53.4736 19.1906 53.9645 19.1036 54.3792 18.7899C54.5609 18.6547 54.7458 18.5165 54.94 18.3938C55.24 18.2137 55.4774 17.9458 55.6203 17.6264C55.6576 17.541 55.7508 17.4292 55.6638 17.3608C55.6048 17.3173 55.5395 17.454 55.4743 17.5053C55.4417 17.5342 55.4106 17.5648 55.3811 17.5969C54.7427 18.1887 54.0437 18.6842 53.1956 18.9281C52.537 19.1161 51.8489 19.0835 51.1607 19.1735C51.3829 18.9918 51.5646 18.7837 51.8815 18.7464C51.7386 18.6268 51.6329 18.7153 51.5258 18.7324C51.4543 18.7448 51.3471 18.8178 51.3285 18.6998C51.3176 18.6299 51.3285 18.4854 51.4838 18.4916C51.5196 18.4916 51.5662 18.5041 51.5817 18.4606C51.6392 18.2835 51.8069 18.24 51.9436 18.1623C52.3521 17.9293 52.7669 17.7072 53.1785 17.4773C53.2204 17.4525 53.2857 17.4478 53.2965 17.3826C53.2468 17.3624 53.1723 17.4261 53.1521 17.3484C53.1319 17.2707 53.194 17.249 53.2608 17.2288C53.625 17.0961 53.9804 16.9404 54.3248 16.7628C54.2223 16.7271 54.1229 16.7939 54.0546 16.7115C54.0981 16.6152 54.2348 16.6292 54.2549 16.5562C54.2891 16.4397 54.2782 16.3108 54.4445 16.2952C54.4662 16.2952 54.4646 16.2657 54.4445 16.2549C54.3326 16.1663 54.4569 16.1461 54.491 16.1166C54.606 16.0188 54.766 16.0219 54.9073 15.952C54.7225 15.8852 54.6573 15.7671 54.752 15.6413C54.9369 15.3834 54.9679 15.0774 55.0549 14.7885C55.0673 14.7512 55.0922 14.7046 55.0378 14.6736C54.9834 14.6425 54.957 14.6736 54.9275 14.7093C54.6332 14.9684 54.282 15.1546 53.9023 15.253C53.6238 15.3352 53.3406 15.4006 53.0542 15.4487C52.8978 15.4874 52.7339 15.4848 52.5787 15.4412C52.4236 15.3977 52.2823 15.3146 52.1688 15.2002C52.065 15.1027 51.9498 15.0182 51.8256 14.9485C50.9339 14.4375 49.9507 14.2557 48.9488 14.1361C48.5729 14.1026 48.1953 14.0901 47.818 14.0988C47.978 14.015 48.1482 13.9524 48.3244 13.9125C48.7577 13.8068 49.1958 13.7245 49.6198 13.5863C49.9825 13.4583 50.3572 13.3678 50.7382 13.316L51.2679 13.2756C51.0932 13.2454 50.9145 13.2454 50.7398 13.2756C50.5914 13.2649 50.4422 13.2722 50.2955 13.2973C49.3449 13.4822 48.3756 13.608 47.5151 14.1035C47.4483 14.1423 47.3598 14.175 47.3085 14.1144C47.2572 14.0538 47.3349 13.9824 47.3784 13.9249C47.6151 13.5957 47.932 13.3326 48.299 13.1605C48.666 12.9884 49.071 12.9131 49.4754 12.9416C50.4845 12.9767 51.4879 13.1088 52.4717 13.3362C52.5546 13.3456 52.634 13.3746 52.7034 13.4207C52.7729 13.4669 52.8303 13.529 52.8709 13.6018C52.8986 13.6507 52.9385 13.6915 52.9867 13.7204C53.0349 13.7493 53.0897 13.7651 53.1459 13.7664C53.3505 13.7688 53.553 13.8078 53.7439 13.8814C53.7719 13.5847 53.7936 13.5707 54.0732 13.6142H54.1089C54.2115 13.6329 54.3171 13.6406 54.3761 13.5381C54.3976 13.4925 54.4036 13.4411 54.3933 13.3918C54.3829 13.3424 54.3567 13.2978 54.3186 13.2647C54.1975 13.1234 54.067 12.9898 53.9427 12.8515C53.9023 12.8065 53.8387 12.7614 53.893 12.6636C54.0717 12.8344 54.2379 12.9991 54.4103 13.1575C54.6196 13.3731 54.8912 13.5176 55.1869 13.5707C55.291 13.5847 55.4153 13.6313 55.4867 13.5397C55.5582 13.448 55.4603 13.3424 55.4106 13.257C55.1991 12.9352 54.9583 12.6336 54.6914 12.356C54.6301 12.304 54.5849 12.2356 54.561 12.1588C54.5188 12.0191 54.4587 11.8854 54.3823 11.7611C54.2645 11.5457 54.1856 11.3112 54.1493 11.0683C54.1513 10.9563 54.1414 10.8443 54.1198 10.7344C53.9117 10.026 53.8247 9.29133 53.6538 8.57214C53.5311 8.0378 53.4876 7.50346 53.7641 6.99552C53.9722 6.61496 54.1882 6.23906 54.4041 5.86315C54.6821 5.38162 54.9959 4.93116 55.4727 4.6205C55.5218 4.58385 55.5573 4.53194 55.5737 4.47293C55.9201 3.61239 56.4607 2.93359 57.3305 2.54837C57.7406 2.36663 58.1553 2.19577 58.5732 2.00626H58.379C49.1523 2.00626 39.9266 2.00626 30.702 2.00626C30.5047 2.00626 30.4721 2.06373 30.4721 2.24392C30.4721 9.37262 30.4721 16.5008 30.4721 23.6285C30.4721 23.8226 30.5233 23.8599 30.7066 23.8599C37.1943 23.8537 43.682 23.8537 50.1697 23.8599C50.3294 23.8668 50.4869 23.8215 50.6186 23.731C50.8269 23.5851 51.0466 23.4563 51.2757 23.3458C52.0042 22.99 52.7358 22.6374 53.4721 22.3004C54.418 21.867 55.2786 21.3327 55.945 20.5047C56.4521 19.8678 57.0371 19.2969 57.6862 18.8054C57.7173 18.789 57.7419 18.7626 57.756 18.7304C57.7701 18.6983 57.7729 18.6623 57.7639 18.6283C57.5666 18.6874 57.4532 18.9002 57.2249 18.8971C57.2855 18.824 57.3662 18.7759 57.4268 18.7107C57.4874 18.6454 57.6645 18.6268 57.6163 18.5025C57.5573 18.3472 57.4004 18.4435 57.2855 18.4373C57.267 18.4405 57.2488 18.4451 57.2311 18.4512C56.8816 18.5258 56.6269 18.7619 56.3659 18.9747C56.3146 19.0167 56.2649 19.0928 56.1919 19.0539C56.0568 18.9825 55.9527 19.0539 55.844 19.1068C55.6333 19.2127 55.4326 19.3374 55.2444 19.4795C55.0283 19.6463 54.798 19.7939 54.5563 19.9207C54.401 19.9984 54.2068 19.958 54.0406 20.0558C53.7625 20.2126 53.4438 20.2824 53.1257 20.2562C52.4096 20.2127 51.7277 20.4022 51.0318 20.5358C50.4509 20.6476 50.0672 21.067 49.6214 21.387C49.2505 21.6566 48.9048 21.9592 48.5884 22.2911C48.5449 22.3345 48.5046 22.3982 48.4083 22.3563C48.5228 22.2131 48.6198 22.0566 48.6972 21.8903C48.8028 21.6106 49.0111 21.3817 49.2797 21.2503C49.3385 21.2179 49.3874 21.1701 49.4213 21.1122C49.4552 21.0542 49.4728 20.9882 49.4723 20.921C49.1989 20.9319 49.1709 21.3358 48.8385 21.2829C48.9252 21.1716 48.9929 21.0467 49.0389 20.9133C49.0762 20.6616 49.2657 20.5809 49.4412 20.4737L49.6462 20.3479L49.7363 20.2904L49.8125 20.2531L49.8249 20.2236L49.8031 20.2329L49.8218 20.2578ZM69.9202 15.7842C70.0169 15.8069 70.1062 15.8544 70.1791 15.9219C70.2521 15.9894 70.3063 16.0747 70.3365 16.1694C70.3718 16.228 70.3851 16.2972 70.374 16.3647C70.3629 16.4321 70.3281 16.4934 70.2759 16.5376C70.1811 16.6183 70.0833 16.6929 69.9916 16.7768C69.931 16.8219 69.8895 16.8881 69.8754 16.9623C69.8613 17.0365 69.8756 17.1133 69.9155 17.1775C70.0119 17.4066 70.0317 17.6606 69.9721 17.9019C69.9125 18.1431 69.7766 18.3587 69.5847 18.5165C69.4186 18.6382 69.2286 18.7232 69.0273 18.7661C68.8259 18.8089 68.6178 18.8086 68.4166 18.765C68.2612 18.7355 68.123 18.6811 67.9676 18.6609C67.3914 18.5833 66.8244 18.4342 66.2404 18.4C65.9291 18.3607 65.6144 18.4406 65.3596 18.6237C64.2863 19.4997 63.8187 20.643 63.9306 22.0192C63.9539 22.3175 64.0626 22.5629 64.4059 22.6157C64.4591 22.6295 64.511 22.6477 64.5612 22.6701C65.4668 22.9885 66.3739 23.3023 67.2158 23.7745C67.3102 23.8292 67.4174 23.8582 67.5265 23.8584C74.9886 23.8584 82.4508 23.8584 89.9129 23.8584C90.0791 23.8584 90.1304 23.8226 90.1304 23.6471C90.1304 16.5018 90.1304 9.36123 90.1304 2.22528C90.1304 2.03888 90.0745 2.00626 89.9021 2.00626C82.3426 2.00626 74.7831 2.00626 67.2236 2.00626C67.1522 1.99171 67.078 2.00271 67.0139 2.03733L67.1786 2.12897C67.5327 2.3309 67.9148 2.48313 68.2333 2.7503C68.6464 3.09358 68.7241 3.38095 68.5781 3.87024C68.5438 4.00328 68.4663 4.12118 68.3578 4.2055C68.2493 4.28981 68.1159 4.33579 67.9785 4.33624C67.8114 4.35021 67.6433 4.34708 67.4768 4.32692C67.3774 4.31605 67.278 4.30828 67.1661 4.29896C67.1661 4.32226 67.1661 4.33158 67.1661 4.33313C67.1876 4.34606 67.2099 4.35748 67.2329 4.36731C67.7565 4.57017 68.2143 4.91298 68.5564 5.35832C68.5865 5.39369 68.6235 5.42253 68.6652 5.4431C68.7069 5.46366 68.7523 5.47551 68.7987 5.47793C69.0037 5.51832 69.0037 5.51676 68.8825 5.68763C68.8484 5.73423 68.8049 5.7917 68.8546 5.83519C68.8815 5.85724 68.9159 5.86782 68.9505 5.86462C68.9851 5.86142 69.0171 5.84471 69.0394 5.81811C69.1034 5.74239 69.1557 5.65758 69.1948 5.56647C69.2047 5.54153 69.2207 5.51944 69.2413 5.50217C69.2618 5.48489 69.2863 5.47295 69.3126 5.46742C69.3389 5.46189 69.3661 5.46293 69.3919 5.47045C69.4177 5.47798 69.4412 5.49175 69.4604 5.51055C69.5132 5.54613 69.5573 5.59318 69.5893 5.64819C69.6214 5.70321 69.6406 5.76476 69.6455 5.82824C69.6505 5.89173 69.641 5.9555 69.6178 6.01481C69.5946 6.07411 69.5583 6.12741 69.5116 6.17071C69.4122 6.26391 69.3035 6.34779 69.201 6.43167C69.167 6.45047 69.1374 6.47639 69.1143 6.50765C69.0912 6.53891 69.0752 6.57479 69.0672 6.61283C69.0593 6.65086 69.0596 6.69017 69.0682 6.72807C69.0768 6.76596 69.0935 6.80156 69.1171 6.83242C69.1678 6.91752 69.211 7.00693 69.246 7.09959C69.3936 7.56559 69.5458 8.04401 69.6763 8.52088C69.8456 9.14221 69.9714 9.78218 69.8316 10.4299C69.7649 10.7697 69.8341 11.1222 70.0242 11.4116C70.1796 11.6741 70.3489 11.9242 70.5197 12.1758C70.7959 12.5341 71.0397 12.9162 71.2483 13.3175C71.4253 13.7136 71.284 13.9901 70.8692 14.1128C70.8226 14.1268 70.7745 14.1392 70.7263 14.1501C70.1734 14.2619 70.2122 14.5415 70.4048 14.8973L70.4436 14.9609C70.5803 15.2002 70.5539 15.3617 70.3349 15.5263C70.2106 15.6211 70.0786 15.6848 69.9202 15.7842ZM76.2888 36.8969C77.1633 36.8969 78.0394 36.8969 78.9139 36.8969C79.0506 36.8969 79.0972 36.8488 79.1189 36.7276C79.222 36.184 79.2335 35.627 79.1531 35.0795C78.9729 33.9363 78.4028 33.0602 77.3652 32.515C76.5653 32.0987 75.7047 32.0381 74.8287 32.1702C73.6357 32.3503 72.682 32.922 72.0467 33.9596C71.4331 34.9678 71.2208 36.1698 71.4517 37.3272C71.6847 38.663 72.3837 39.6898 73.6046 40.3204C74.5599 40.8128 75.5836 40.9107 76.6289 40.7647C77.6507 40.6395 78.5878 40.1343 79.2541 39.3496C79.3395 39.2502 79.3659 39.1865 79.2385 39.0886C78.8844 38.8184 78.5411 38.5294 78.1947 38.2483C77.94 38.0417 77.94 38.0433 77.7132 38.2747C77.154 38.8417 76.4581 39.0156 75.6939 38.9861C74.532 38.9395 73.7087 38.2095 73.5192 37.0662C73.4944 36.9218 73.5192 36.8891 73.6637 36.8907C74.5444 36.9016 75.4205 36.9016 76.295 36.9016L76.2888 36.8969ZM79.734 50.4263C80.5961 50.4263 81.4598 50.4263 82.3219 50.4263C82.4865 50.4263 82.53 50.3704 82.5549 50.2244C82.6526 49.6863 82.6605 49.1357 82.5782 48.595C82.3871 47.4393 81.8015 46.5554 80.739 46.0258C80.0137 45.6862 79.2034 45.571 78.4122 45.6949C77.0996 45.858 76.0713 46.4716 75.4096 47.635C74.9022 48.5412 74.7073 49.5893 74.8551 50.6174C75.0104 51.86 75.5572 52.9054 76.6212 53.6106C77.8359 54.4137 79.1748 54.5333 80.5651 54.204C81.4128 54.0088 82.1708 53.5352 82.718 52.8588C82.763 52.806 82.8345 52.7594 82.735 52.6802C82.3001 52.3322 81.8667 51.9807 81.4349 51.6255C81.3759 51.5773 81.3464 51.5866 81.3029 51.6426C80.8369 52.2313 80.2156 52.4891 79.4917 52.5264C78.1341 52.5948 77.1617 51.8818 76.9567 50.5972C76.935 50.4512 76.9567 50.4232 77.1027 50.4232C77.9772 50.431 78.858 50.4263 79.7402 50.4263H79.734ZM42.5988 50.4263C43.4547 50.4263 44.3075 50.4263 45.168 50.4263C45.3513 50.4263 45.4243 50.3813 45.4507 50.1949C45.5333 49.6919 45.5422 49.1797 45.4771 48.6742C45.3016 47.489 44.7222 46.5756 43.6318 46.0335C42.9023 45.6875 42.0853 45.57 41.2878 45.6965C39.9163 45.872 38.8678 46.5353 38.2216 47.7764C37.7629 48.6732 37.5998 49.6921 37.7556 50.6873C37.9187 51.9051 38.4639 52.9256 39.5077 53.606C40.8545 54.4836 42.3177 54.569 43.8244 54.0922C44.5259 53.8651 45.1457 53.4381 45.6076 52.8635C45.6542 52.806 45.7257 52.7579 45.6169 52.6724C45.1836 52.3307 44.758 51.9796 44.3292 51.6286C44.278 51.5866 44.2454 51.5742 44.1972 51.6379C43.739 52.2282 43.1099 52.4876 42.3876 52.5264C41.1139 52.5932 40.0825 51.9703 39.851 50.6236C39.8246 50.4776 39.8355 50.4201 40.0064 50.4232C40.8669 50.4325 41.7352 50.4263 42.6051 50.4263H42.5988ZM30.4736 34.9025C30.4736 36.7074 30.4736 38.5139 30.4736 40.3204C30.4736 40.4758 30.5171 40.5161 30.6693 40.5146C31.2907 40.5053 31.9244 40.5037 32.5504 40.5146C32.7151 40.5146 32.7555 40.4758 32.7555 40.3111C32.7555 38.8774 32.7555 37.4437 32.7555 36.01C32.7555 35.8624 32.7943 35.8236 32.9403 35.8251C34.0276 35.8251 35.1149 35.8251 36.2023 35.8251C36.3359 35.8251 36.3809 35.7987 36.3793 35.6543C36.37 35.0826 36.37 34.5126 36.3793 33.9456C36.3793 33.8011 36.3452 33.7608 36.1976 33.7623C35.1181 33.7623 34.0369 33.7623 32.9574 33.7623C32.8021 33.7623 32.757 33.7312 32.7586 33.5713C32.7679 32.9018 32.7694 32.2307 32.7586 31.5613C32.7586 31.3935 32.8036 31.3562 32.9652 31.3578C34.256 31.3578 35.5468 31.3578 36.8376 31.3578C36.9836 31.3578 37.0271 31.3205 37.024 31.1729C37.024 30.6075 37.0147 30.0437 37.024 29.4783C37.024 29.3229 36.9883 29.2841 36.8314 29.2841C34.7831 29.2903 32.7347 29.2903 30.6864 29.2841C30.5218 29.2841 30.4845 29.3245 30.4845 29.4876C30.4814 31.3096 30.4798 33.1022 30.4798 34.9025H30.4736ZM49.2797 39.7721C49.2797 39.9989 49.2797 40.1853 49.2797 40.3701C49.2797 40.4897 49.3169 40.5146 49.435 40.513C50.0113 40.513 50.5891 40.5053 51.1669 40.513C51.3052 40.513 51.3425 40.4804 51.3409 40.3391C51.3409 38.6009 51.3642 36.8612 51.3285 35.1246C51.3036 33.8695 50.7072 32.9375 49.536 32.4249C48.8738 32.1506 48.1524 32.0506 47.4405 32.1344C46.894 32.1722 46.3612 32.3226 45.8756 32.576C45.3899 32.8293 44.9618 33.1804 44.6182 33.607C44.542 33.7002 44.556 33.7421 44.6446 33.8089C45.0764 34.1341 45.5046 34.4623 45.9292 34.7937C46.0239 34.8683 46.0612 34.8527 46.1264 34.7595C46.2928 34.5114 46.5145 34.3052 46.774 34.1572C47.0336 34.0092 47.324 33.9235 47.6223 33.9068C48.6242 33.8213 49.3138 34.4271 49.2905 35.3716C49.2905 35.4679 49.2719 35.5098 49.1647 35.5269C48.5636 35.6201 47.9656 35.7273 47.366 35.8236C46.7873 35.8928 46.2238 36.056 45.6977 36.3066C44.3168 37.0243 43.9067 38.7096 44.8496 39.9072C45.4958 40.7274 46.4029 40.9029 47.38 40.7895C48.1203 40.7011 48.8004 40.338 49.2859 39.7721H49.2797ZM55.4929 33.0291C55.4929 32.8365 55.4929 32.6952 55.4929 32.5538C55.4929 32.4529 55.4588 32.4296 55.364 32.4296C54.7551 32.4296 54.1478 32.4296 53.5389 32.4296C53.4286 32.4296 53.4084 32.4653 53.4084 32.5663C53.4084 35.1686 53.4084 37.7704 53.4084 40.3717C53.4084 40.4928 53.4488 40.513 53.5637 40.513C54.14 40.513 54.7178 40.5037 55.2957 40.513C55.451 40.513 55.5023 40.4773 55.5007 40.3096C55.5007 38.6708 55.5007 37.0321 55.5007 35.3917C55.489 35.3119 55.5009 35.2304 55.5349 35.1572C55.8844 34.584 56.3426 34.16 57.0354 34.045C57.854 33.9114 58.5607 34.306 58.8124 35.05C58.8911 35.2927 58.9294 35.5467 58.9258 35.8018C58.9258 37.3101 58.9258 38.8184 58.9258 40.3282C58.9258 40.4727 58.9631 40.5146 59.1106 40.513C59.676 40.5037 60.2399 40.5037 60.8053 40.513C60.9529 40.513 60.9886 40.4742 60.9886 40.3282C60.9886 39.1182 60.9886 37.9066 60.9886 36.6965C61.008 36.1505 60.9956 35.6039 60.9513 35.0593C60.8597 34.2827 60.6282 33.5759 60.0721 33.0136C59.1867 32.1158 58.101 31.9651 56.9251 32.237C56.3891 32.3716 55.8978 32.6448 55.5007 33.0291H55.4929ZM65.9297 50.0333C65.9251 50.2255 65.9365 50.4178 65.9639 50.6081C66.144 51.9361 66.7545 52.9986 67.904 53.7147C68.836 54.291 69.8549 54.4525 70.9252 54.336C71.461 54.2871 71.9819 54.1327 72.4578 53.8815C72.9336 53.6304 73.3551 53.2876 73.6978 52.8728C73.7833 52.7703 73.7708 52.7268 73.6683 52.6507C73.2013 52.3017 72.7384 51.947 72.2797 51.5867C72.1756 51.5043 72.1321 51.523 72.0529 51.6208C71.697 52.0763 71.1761 52.3734 70.6028 52.4478C70.0296 52.5222 69.4501 52.368 68.9897 52.0185C68.1214 51.3645 67.8946 50.4496 68.0997 49.4291C68.2845 48.508 68.8499 47.8758 69.7726 47.6505C70.6953 47.4253 71.4813 47.6707 72.0715 48.4272C72.1321 48.5064 72.1663 48.5251 72.2548 48.4552C72.7208 48.0855 73.2054 47.7173 73.6885 47.3601C73.7941 47.2824 73.7662 47.2342 73.7025 47.1597C73.5194 46.9336 73.3109 46.7293 73.0812 46.5508C71.7142 45.5458 70.2137 45.4122 68.6527 45.9528C66.9751 46.5321 65.9375 48.1196 65.9375 50.0333H65.9297ZM66.8291 32.1111C66.6613 32.1251 66.4003 32.1344 66.144 32.1733C65.0117 32.3457 64.0595 32.8443 63.3698 33.7747C62.5497 34.8823 62.3338 36.1311 62.6071 37.4639C62.7163 38.0678 62.9629 38.6386 63.3279 39.132C63.6929 39.6254 64.1664 40.0283 64.7119 40.3096C65.5154 40.7274 66.4237 40.9008 67.3246 40.8082C67.89 40.778 68.4431 40.6315 68.9493 40.3779C69.4555 40.1242 69.9039 39.7689 70.2666 39.3341C70.3489 39.2347 70.3504 39.1865 70.2433 39.1073C69.7773 38.7593 69.3113 38.4052 68.8546 38.0448C68.7474 37.9609 68.6993 37.9796 68.6247 38.0759C68.2651 38.5341 67.7386 38.8313 67.1605 38.9023C66.5824 38.9733 65.9996 38.8125 65.5398 38.4549C64.6964 37.7963 64.4758 36.8907 64.6808 35.8873C64.8657 34.9692 65.4249 34.3339 66.3522 34.1087C67.2795 33.8835 68.0608 34.1273 68.6496 34.8854C68.7319 34.9894 68.7754 34.9599 68.8546 34.8993C69.3206 34.5436 69.7773 34.1864 70.2448 33.84C70.3644 33.7514 70.352 33.7002 70.265 33.5977C69.3905 32.5678 68.2519 32.136 66.8368 32.1111H66.8291ZM56.8288 51.6938C56.7931 51.6053 56.7682 51.5494 56.748 51.4919C56.0987 49.7128 55.451 47.9332 54.8048 46.1531C54.7928 46.0942 54.7584 46.0422 54.7089 46.0081C54.6594 45.9739 54.5986 45.9602 54.5392 45.9698C53.9381 45.9792 53.3354 45.9792 52.7342 45.9698C52.568 45.9698 52.5556 46.0087 52.6084 46.1547C53.5528 48.7363 54.491 51.3195 55.423 53.9042C55.4665 54.0238 55.5256 54.044 55.6374 54.0424C56.4141 54.0424 57.2016 54.0424 57.9829 54.0424C58.0362 54.0516 58.0909 54.0397 58.1355 54.0093C58.1802 53.9789 58.2112 53.9323 58.2221 53.8793C58.511 53.0623 58.8108 52.2484 59.106 51.4344C59.7449 49.674 60.3843 47.911 61.0243 46.1454C61.0538 46.0646 61.1299 45.9683 60.9451 45.9698C60.2989 45.9698 59.6543 45.9698 59.0081 45.9698C58.9748 45.9653 58.9411 45.9737 58.9139 45.9934C58.8867 46.0131 58.8682 46.0425 58.8621 46.0755C58.7891 46.2867 58.7068 46.4949 58.6353 46.7046C58.0373 48.3588 57.4424 50.01 56.8288 51.6938ZM87.1993 45.6545C86.7947 45.6461 86.3919 45.7119 86.011 45.8487C85.0479 46.2044 84.422 46.8599 84.321 47.9099C84.2216 48.9351 84.6317 49.732 85.5108 50.2772C85.8856 50.4954 86.2778 50.6819 86.6836 50.8348C87.0344 50.9582 87.3712 51.118 87.6886 51.3117C88.2493 51.6892 88.0179 52.3493 87.5736 52.5373C87.2424 52.6714 86.874 52.6813 86.536 52.5652C86.058 52.4006 85.6396 52.0979 85.3338 51.6954C85.2421 51.5835 85.1986 51.5882 85.1008 51.6876C84.7342 52.0573 84.3609 52.4197 83.9808 52.7749C83.8829 52.8681 83.8954 52.9303 83.9808 53.0095C85.079 54.1714 86.4242 54.5877 87.9728 54.2521C89.4407 53.9337 90.2702 52.5994 89.9657 51.13C89.8291 50.4714 89.4314 49.9976 88.8784 49.6388C88.3969 49.3576 87.8905 49.1215 87.3655 48.9336C87.0787 48.8329 86.8085 48.69 86.564 48.5095C86.4766 48.4482 86.4077 48.3641 86.3647 48.2664C86.3218 48.1687 86.3064 48.061 86.3204 47.9552C86.3343 47.8494 86.377 47.7494 86.4437 47.6661C86.5105 47.5828 86.5988 47.5194 86.6991 47.4828C86.9324 47.3765 87.1925 47.344 87.4447 47.3896C87.9853 47.4812 88.3689 47.8167 88.706 48.2191C88.7712 48.2967 88.8054 48.3154 88.8877 48.2346C89.2605 47.8711 89.6364 47.5107 90.0201 47.1566C90.1288 47.0572 90.1257 47.0012 90.0294 46.8894C89.6701 46.4974 89.2326 46.185 88.7451 45.9723C88.2577 45.7596 87.7311 45.6514 87.1993 45.6545ZM33.2991 45.6545C32.826 45.6505 32.3568 45.7419 31.9198 45.9232C30.0325 46.7263 30.0558 48.9942 31.1804 49.9619C31.6381 50.3233 32.1518 50.6077 32.7011 50.8038C33.0703 50.9308 33.4257 51.0947 33.762 51.2931C33.9966 51.4484 34.1581 51.655 34.1146 51.9594C34.0959 52.1055 34.0341 52.2427 33.9369 52.3534C33.8398 52.4641 33.7118 52.5433 33.5694 52.5808C33.3135 52.6604 33.0407 52.669 32.7803 52.6056C32.2133 52.4767 31.7955 52.1241 31.4351 51.6938C31.3373 51.5789 31.2907 51.596 31.1975 51.6938C30.8247 52.0666 30.4457 52.4348 30.0651 52.7982C29.9905 52.8697 29.9843 52.9116 30.0651 52.9908C31.1711 54.1776 32.5318 54.6203 34.1037 54.2537C35.8699 53.8405 36.3949 52.2468 36.0361 50.9793C35.831 50.2523 35.3107 49.8019 34.6707 49.4617C34.2327 49.2287 33.7636 49.0641 33.3084 48.8699C33.0629 48.7819 32.8355 48.6498 32.6374 48.48C32.5621 48.4186 32.5037 48.339 32.4679 48.2487C32.432 48.1585 32.4198 48.0605 32.4324 47.9642C32.445 47.8679 32.482 47.7764 32.5399 47.6984C32.5978 47.6204 32.6747 47.5584 32.7632 47.5185C33.007 47.3894 33.2877 47.3478 33.5585 47.4005C34.0773 47.4859 34.4579 47.7981 34.781 48.188C34.8804 48.306 34.9363 48.3169 35.0466 48.2035C35.3966 47.8525 35.7549 47.5097 36.1215 47.1752C36.2364 47.0712 36.2458 47.0106 36.1401 46.8972C35.365 46.0662 34.4097 45.6825 33.2991 45.653V45.6545ZM40.5997 33.2109C40.5997 32.9717 40.5997 32.7806 40.5997 32.5896C40.5997 32.4777 40.5842 32.4342 40.4522 32.4342C39.8619 32.442 39.2732 32.4342 38.6829 32.4342C38.5633 32.4342 38.5276 32.4637 38.5276 32.5896C38.5276 35.1784 38.5276 37.7673 38.5276 40.3562C38.5276 40.4866 38.5664 40.5224 38.6953 40.5208C39.267 40.5208 39.837 40.5115 40.404 40.5208C40.5593 40.5208 40.5966 40.4789 40.5966 40.3266C40.5966 38.8432 40.609 37.3598 40.5811 35.8764C40.5731 35.7015 40.6075 35.5273 40.6814 35.3685C40.7552 35.2098 40.8663 35.0712 41.0051 34.9646C41.1827 34.8092 41.3848 34.6843 41.6032 34.5949C42.1403 34.3904 42.7277 34.3584 43.2839 34.5032C43.4004 34.5297 43.4205 34.5032 43.419 34.3961C43.419 33.7747 43.419 33.1534 43.419 32.5321C43.419 32.4109 43.3739 32.3768 43.2637 32.3488C42.7162 32.2214 42.1425 32.2709 41.6249 32.4901C41.2418 32.6615 40.8957 32.9058 40.6059 33.2093L40.5997 33.2109ZM49.174 46.7465C49.174 46.5166 49.1632 46.3302 49.174 46.1454C49.1865 45.9978 49.129 45.973 48.9954 45.9745C48.4253 45.9745 47.8537 45.9823 47.2868 45.9745C47.1501 45.9745 47.1112 46.004 47.1112 46.1469C47.1112 48.7244 47.1112 51.3014 47.1112 53.8778C47.1112 54.0331 47.1578 54.0471 47.2883 54.0456C47.8413 54.0378 48.3943 54.0347 48.9457 54.0456C49.1243 54.0456 49.1834 54.016 49.1818 53.8203C49.1709 52.354 49.1927 50.8892 49.1647 49.4229C49.1552 49.2419 49.1907 49.0613 49.2679 48.8973C49.3452 48.7334 49.4618 48.5911 49.6074 48.4831C49.7025 48.4039 49.8032 48.3317 49.9088 48.2672C50.5099 47.9099 51.1514 47.896 51.8178 48.0264C51.9529 48.0544 52.0011 48.0466 51.998 47.8897C51.9887 47.2871 51.9887 46.6849 51.998 46.0832C51.998 45.9434 51.9421 45.9046 51.824 45.8782C51.2629 45.7532 50.6764 45.8137 50.1526 46.0506C49.7899 46.2226 49.4607 46.4577 49.1803 46.745L49.174 46.7465ZM62.1691 50.0162C62.1691 51.3065 62.1691 52.5973 62.1691 53.8887C62.1691 54.0021 62.1877 54.044 62.3244 54.044C62.9194 54.0362 63.5158 54.0362 64.1108 54.044C64.2412 54.044 64.2661 53.999 64.2661 53.8887C64.2661 51.3091 64.2661 48.728 64.2661 46.1454C64.2661 45.99 64.2164 45.9745 64.0859 45.9761C63.5143 45.9761 62.9442 45.9838 62.3772 45.9761C62.2219 45.9761 62.1815 46.0102 62.1815 46.1687C62.1784 47.4455 62.1753 48.7301 62.1753 50.0147L62.1691 50.0162ZM61.8709 43.3634C61.8705 43.7141 62.009 44.0508 62.2561 44.2996C62.5032 44.5485 62.8389 44.6894 63.1896 44.6915C63.3706 44.7045 63.5523 44.6802 63.7234 44.6201C63.8946 44.56 64.0516 44.4653 64.1846 44.3419C64.3177 44.2186 64.4239 44.0692 64.4968 43.903C64.5696 43.7369 64.6076 43.5576 64.6082 43.3761C64.6089 43.1947 64.5722 43.0151 64.5005 42.8485C64.4288 42.6818 64.3236 42.5317 64.1914 42.4074C64.0593 42.2831 63.903 42.1873 63.7323 42.126C63.5615 42.0646 63.38 42.0391 63.199 42.0508C62.8506 42.052 62.5167 42.1902 62.2694 42.4355C62.0221 42.6808 61.8812 43.0135 61.8771 43.3618L61.8709 43.3634ZM66.8679 10.1379C66.9518 10.1752 67.0124 10.1379 67.0745 10.113C67.57 9.98255 68.0671 9.89867 68.5765 10.0323C68.7427 10.0758 68.7598 10.1161 68.6496 10.2513C68.5604 10.3552 68.451 10.4397 68.328 10.4998C68.1236 10.6204 67.9298 10.7581 67.7486 10.9114C67.6306 11.0031 67.5809 11.16 67.3852 11.1242C67.337 11.1149 67.2624 11.1242 67.2485 11.1895C67.2345 11.2547 67.309 11.2578 67.3386 11.2936C67.5094 11.4924 67.8185 11.3526 67.9956 11.5638C68.0251 11.5996 68.1043 11.6011 68.1028 11.685C68.1058 11.7231 68.0936 11.7608 68.0688 11.7899C68.0441 11.819 68.0088 11.8372 67.9708 11.8403C67.8744 11.8574 67.7766 11.8652 67.6601 11.8807C67.8602 11.9464 68.0725 11.9666 68.2814 11.9397C68.6635 11.9195 68.7008 11.8729 68.6915 11.4939C68.6837 11.4513 68.6837 11.4076 68.6915 11.365C68.7412 11.2097 68.6387 11.0357 68.7971 10.899C68.8707 10.844 68.9532 10.8019 69.041 10.7747C69.1249 10.7437 69.1963 10.68 69.1062 10.5977C69.0161 10.5153 69.0565 10.4625 69.1326 10.4004C69.2709 10.303 69.3713 10.1609 69.4169 9.99809C69.4402 9.89246 69.434 9.78218 69.3268 9.74334C69.0919 9.63209 68.8364 9.57073 68.5765 9.56316C68.0921 9.5989 67.6182 9.72315 67.1786 9.92974C67.0652 9.97922 66.962 10.0493 66.8741 10.1363L66.8679 10.1379Z" fill="#FEFEFE"/>
<path d="M49.6493 20.3494L49.4442 20.4752C49.2687 20.5824 49.0792 20.6632 49.0419 20.9148C48.9959 21.0482 48.9282 21.1731 48.8415 21.2845C49.174 21.3373 49.2019 20.9335 49.4753 20.9226C49.4758 20.9897 49.4582 21.0558 49.4243 21.1137C49.3904 21.1717 49.3415 21.2194 49.2827 21.2519C49.0141 21.3833 48.8058 21.6122 48.7002 21.8918C48.6228 22.0582 48.5258 22.2146 48.4113 22.3578C48.5076 22.3998 48.548 22.3361 48.5915 22.2926C48.9078 21.9608 49.2536 21.6582 49.6244 21.3886C50.0702 21.0686 50.4539 20.6492 51.0348 20.5374C51.7292 20.4038 52.4126 20.2143 53.1287 20.2578C53.4468 20.2839 53.7655 20.2141 54.0436 20.0574C54.2098 19.9595 54.3978 19.9999 54.5593 19.9222C54.801 19.7954 55.0313 19.6478 55.2474 19.4811C55.4356 19.339 55.6363 19.2142 55.847 19.1083C55.9557 19.0586 56.0598 18.984 56.195 19.0555C56.268 19.0943 56.3177 19.0182 56.3689 18.9763C56.6299 18.7557 56.8846 18.5274 57.2341 18.4528C57.2518 18.4467 57.27 18.442 57.2885 18.4388C57.4034 18.4388 57.5603 18.3534 57.6193 18.5041C57.6675 18.6283 57.4951 18.6423 57.4298 18.7122C57.3646 18.7821 57.2885 18.8256 57.2279 18.8986C57.4531 18.8986 57.5696 18.6889 57.7669 18.6299C57.7759 18.6638 57.7731 18.6998 57.759 18.732C57.7449 18.7641 57.7203 18.7906 57.6892 18.807C57.0401 19.2985 56.4552 19.8694 55.948 20.5063C55.2816 21.3342 54.4211 21.8685 53.4751 22.3019C52.7388 22.639 52.0072 22.9916 51.2787 23.3473C51.0497 23.4578 50.8299 23.5866 50.6216 23.7325C50.49 23.8231 50.3324 23.8683 50.1727 23.8615C43.6861 23.8615 37.1984 23.8615 30.7096 23.8615C30.5264 23.8615 30.4751 23.8242 30.4751 23.63C30.4751 16.5013 30.4751 9.37313 30.4751 2.24547C30.4751 2.06529 30.5077 2.00781 30.705 2.00781C39.9296 2.00781 49.1553 2.00781 58.382 2.00781H58.5762C58.1583 2.19732 57.7436 2.36818 57.3335 2.54992C56.4637 2.93514 55.9231 3.61394 55.5767 4.47448C55.5603 4.5335 55.5248 4.5854 55.4758 4.62205C54.9989 4.93271 54.6851 5.38628 54.4071 5.8647C54.1912 6.24061 53.9753 6.61651 53.7671 6.99707C53.4906 7.50501 53.5341 8.03935 53.6568 8.57369C53.8215 9.29288 53.9085 10.0276 54.1228 10.7359C54.1445 10.8459 54.1544 10.9578 54.1523 11.0699C54.1887 11.3127 54.2675 11.5472 54.3853 11.7627C54.4618 11.887 54.5218 12.0206 54.564 12.1603C54.5879 12.2371 54.6331 12.3055 54.6944 12.3576C54.9613 12.6351 55.2021 12.9367 55.4136 13.2585C55.4633 13.3439 55.569 13.4387 55.4897 13.5412C55.4105 13.6437 55.294 13.5863 55.19 13.5723C54.8942 13.5191 54.6226 13.3746 54.4133 13.1591C54.2409 13.0038 54.0747 12.836 53.896 12.6651C53.8417 12.763 53.9054 12.808 53.9457 12.8531C54.07 12.9913 54.2005 13.1249 54.3217 13.2663C54.3597 13.2994 54.3859 13.344 54.3963 13.3933C54.4067 13.4427 54.4006 13.494 54.3791 13.5397C54.3201 13.6422 54.2145 13.6344 54.112 13.6158H54.0762C53.7966 13.5692 53.7749 13.5863 53.7469 13.8829C53.556 13.8093 53.3535 13.7704 53.1489 13.768C53.0921 13.7671 53.0365 13.7512 52.9877 13.722C52.9389 13.6929 52.8986 13.6514 52.8709 13.6018C52.8302 13.529 52.7728 13.4669 52.7033 13.4207C52.6339 13.3746 52.5545 13.3456 52.4716 13.3362C51.4862 13.1101 50.4812 12.9795 49.4706 12.9463C49.0663 12.9177 48.6613 12.9931 48.2943 13.1652C47.9272 13.3373 47.6103 13.6004 47.3737 13.9295C47.3302 13.987 47.2463 14.0491 47.3038 14.119C47.3612 14.1889 47.4436 14.147 47.5103 14.1082C48.3709 13.6096 49.3402 13.4868 50.2908 13.302C50.4375 13.2769 50.5866 13.2696 50.735 13.2802C50.7366 13.2916 50.7366 13.3031 50.735 13.3144C50.354 13.3662 49.9793 13.4568 49.6166 13.5847C49.1926 13.7229 48.7546 13.8053 48.3212 13.9109C48.1454 13.9519 47.9757 14.0156 47.8164 14.1004C48.1937 14.0917 48.5712 14.1041 48.9472 14.1377C49.9491 14.2573 50.9323 14.439 51.8239 14.9501C51.9481 15.0197 52.0634 15.1042 52.1672 15.2017C52.2807 15.3162 52.4219 15.3992 52.5771 15.4428C52.7323 15.4863 52.8961 15.4889 53.0526 15.4502C53.339 15.4021 53.6222 15.3368 53.9007 15.2545C54.2803 15.1562 54.6315 14.9699 54.9259 14.7109C54.9554 14.6813 54.9849 14.6441 55.0362 14.6751C55.0874 14.7062 55.0657 14.7528 55.0533 14.7901C54.9663 15.079 54.9352 15.385 54.7504 15.6428C54.6618 15.7671 54.7271 15.8852 54.9057 15.9535C54.7643 16.0234 54.6044 16.0203 54.4894 16.1182C54.4552 16.1477 54.3341 16.1679 54.4428 16.2564C54.4583 16.2673 54.4599 16.2952 54.4428 16.2968C54.2766 16.3123 54.2875 16.4413 54.2533 16.5578C54.2331 16.6292 54.098 16.6152 54.0529 16.7131C54.1213 16.7954 54.2207 16.7286 54.3232 16.7643C53.9787 16.942 53.6233 17.0976 53.2592 17.2303C53.1924 17.2505 53.1303 17.2723 53.1504 17.3499C53.1706 17.4276 53.2452 17.3639 53.2949 17.3841C53.284 17.4494 53.2188 17.454 53.1769 17.4789C52.7652 17.7088 52.3505 17.9309 51.942 18.1639C51.8053 18.2415 51.6313 18.285 51.58 18.4621C51.5645 18.5056 51.5179 18.4947 51.4822 18.4932C51.3269 18.4932 51.3269 18.6314 51.3269 18.7013C51.3455 18.8194 51.4527 18.7464 51.5241 18.734C51.6313 18.7169 51.7369 18.6283 51.8798 18.7479C51.5692 18.7852 51.3812 18.9934 51.1591 19.1751C51.8472 19.0912 52.5353 19.1176 53.1939 18.9297C54.0421 18.6889 54.7473 18.1903 55.3795 17.5985C55.409 17.5664 55.4401 17.5358 55.4727 17.5068C55.5379 17.4556 55.6031 17.3189 55.6622 17.3624C55.7492 17.4307 55.6622 17.5426 55.6187 17.628C55.4758 17.9474 55.2383 18.2152 54.9383 18.3953C54.7442 18.518 54.5593 18.6563 54.3776 18.7914C53.9551 19.1021 53.4642 19.1922 52.9796 19.2854C52.2247 19.4283 51.4558 19.4842 50.7117 19.6924C50.2667 19.8063 49.8457 19.9994 49.4691 20.2624C49.3588 20.3432 49.2035 20.3044 49.1118 20.4177C49.0839 20.4535 49.0109 20.4737 49.0466 20.5311C49.0823 20.5886 49.1382 20.5622 49.1833 20.5311C49.3161 20.4405 49.4589 20.3655 49.6089 20.3075L49.6493 20.3494ZM48.0245 17.6808C48.0895 17.7089 48.1595 17.7234 48.2303 17.7234C48.3011 17.7234 48.3711 17.7089 48.4361 17.6808C48.7235 17.5814 49.0046 17.4478 49.3231 17.4773C49.354 17.4755 49.3844 17.4687 49.4132 17.4571C49.7627 17.3795 50.1153 17.3018 50.4632 17.221C51.0432 17.0836 51.6059 16.8815 52.1408 16.6183C51.1001 15.8292 49.8745 15.5528 48.6691 15.2017C48.7017 15.1675 48.7685 15.1893 48.7685 15.138C48.7685 15.0868 48.7126 15.0774 48.6769 15.0681C48.5682 15.0402 48.4579 15.0231 48.3507 14.9982C48.315 14.9982 48.2451 14.9982 48.2544 14.9656C48.3119 14.7854 48.1457 14.8258 48.0835 14.8103C47.8505 14.7435 47.6098 14.7 47.3504 14.6441C47.4762 14.5788 47.5787 14.5198 47.6191 14.3986C47.6408 14.3365 47.6859 14.2666 47.6191 14.2122C47.5523 14.1579 47.5041 14.2122 47.4498 14.2402C47.1425 14.4216 46.8915 14.6845 46.7244 14.9998C46.6467 15.1349 46.482 15.3104 46.5582 15.4238C46.6343 15.5372 46.8688 15.517 47.0459 15.5155C47.161 15.4957 47.2789 15.4999 47.3923 15.5279C47.3294 15.5874 47.2497 15.626 47.164 15.6382C47.0471 15.6515 46.9327 15.6808 46.8238 15.7252C46.7228 15.7842 46.6591 15.851 46.7958 15.9457C46.7182 15.997 46.6218 16.0063 46.5815 16.1011C46.6183 16.1298 46.6615 16.1493 46.7075 16.1579C46.7534 16.1666 46.8007 16.1641 46.8455 16.1508C46.9026 16.1285 46.9658 16.1281 47.0231 16.1496C47.0805 16.1711 47.1279 16.213 47.1562 16.2673C46.7834 16.4226 46.7011 16.8606 46.3795 17.0641C46.3723 17.0702 46.3666 17.0778 46.3628 17.0864C46.359 17.095 46.3573 17.1044 46.3578 17.1138C46.3733 17.2195 46.3003 17.2692 46.232 17.3204C45.9943 17.5099 45.766 17.7196 45.5174 17.8874C45.2689 18.0551 45.2316 18.4233 44.9582 18.5864C44.9483 18.5911 44.9395 18.5979 44.9323 18.6062C44.9251 18.6145 44.9196 18.6241 44.9163 18.6346C44.9129 18.6451 44.9118 18.6561 44.9128 18.6671C44.9139 18.678 44.9172 18.6886 44.9225 18.6982C44.9582 18.7495 45.0017 18.7107 45.039 18.6982C45.1252 18.6639 45.2092 18.6245 45.2907 18.5802C45.701 18.3217 46.1281 18.0908 46.569 17.8889C47.0676 17.6777 47.5445 17.4525 48.1022 17.5674C48.1114 17.5722 48.1198 17.5785 48.127 17.586C48.1224 17.6482 48.0369 17.6125 48.0245 17.6808ZM48.5884 12.3017C48.3907 12.2154 48.1758 12.1757 47.9603 12.1856C47.7449 12.1956 47.5346 12.255 47.3457 12.3591C46.5746 12.8013 45.8793 13.364 45.286 14.0258C44.9042 14.4598 44.4628 14.8374 43.975 15.1473C43.8786 15.2022 43.8011 15.2851 43.7529 15.385C43.4255 16.0259 43.043 16.6371 42.6096 17.2117C42.577 17.2552 42.5102 17.2894 42.5335 17.367C42.605 17.3763 42.6252 17.3158 42.6578 17.2785C43.0741 16.8125 43.4935 16.3605 43.9455 15.9349C44.4534 15.4512 45.0057 15.0165 45.5951 14.6363C45.6588 14.5944 45.7085 14.5773 45.7644 14.6363C45.8203 14.6953 45.7271 14.7155 45.7147 14.7575C45.7023 14.7994 45.6774 14.8087 45.6666 14.8367C45.6557 14.8646 45.5842 14.9439 45.6324 14.9827C45.6805 15.0215 45.7551 14.9656 45.8001 14.9159C45.8203 14.8926 45.8297 14.8584 45.853 14.8382C45.9384 14.7606 45.9229 14.6052 45.999 14.5555C46.2894 14.3629 46.4401 14.074 46.5908 13.7789C46.7082 13.5342 46.8736 13.3155 47.077 13.1358C47.3768 12.8857 47.7123 12.6822 47.9996 12.4011C48.0292 12.4616 48.0229 12.5673 48.1037 12.5222C48.2544 12.443 48.4423 12.4461 48.5884 12.3017ZM48.1969 19.8865C47.922 19.756 47.6719 19.8415 47.4389 19.7855C47.3339 19.7642 47.2248 19.7779 47.1282 19.8244C46.9522 19.9031 46.7669 19.9595 46.5768 19.9921C46.0333 20.0798 45.5412 20.3646 45.1943 20.7921C45.1524 20.8403 44.9039 20.8915 45.1415 21.0235C45.1415 21.0235 45.1244 21.0686 45.1213 21.0919C45.0988 21.2526 45.0358 21.405 44.9381 21.5346C44.8184 21.6992 44.6926 21.8608 44.5637 22.0208C44.5187 22.0782 44.4938 22.1342 44.5637 22.1761C44.6336 22.218 44.6383 22.1404 44.6693 22.1093C44.8604 21.9229 44.994 21.6433 45.331 21.6822C45.3528 21.6822 45.3807 21.648 45.4025 21.6262C45.6318 21.3641 45.9205 21.1607 46.2444 21.0329C46.9449 20.7781 47.4886 20.2329 48.1969 19.8865ZM49.6943 18.0691C49.4877 17.9138 49.2889 17.8641 49.073 18.0179C49.0074 18.0513 48.9373 18.0748 48.8648 18.0878C48.8053 18.1044 48.7516 18.1372 48.7095 18.1825C48.6831 18.2151 48.6427 18.254 48.6707 18.2959C48.6986 18.3379 48.7375 18.3192 48.7716 18.3146C49.014 18.2773 49.2563 18.2415 49.497 18.1965C49.5769 18.1815 49.6478 18.1358 49.6943 18.0691ZM47.8692 20.8542C47.8692 20.8309 47.8412 20.8201 47.8086 20.8154C47.7718 20.8109 47.7345 20.8156 47.7001 20.8292C47.6656 20.8427 47.6351 20.8647 47.6113 20.8931C47.4762 21.0266 47.3364 21.1556 47.2012 21.2907C47.1671 21.3249 47.0816 21.3544 47.1344 21.415C47.1456 21.4261 47.1587 21.4349 47.1733 21.441C47.1878 21.447 47.2034 21.4501 47.2191 21.4501C47.2348 21.4501 47.2504 21.447 47.2649 21.441C47.2794 21.4349 47.2926 21.4261 47.3038 21.415C47.4023 21.3223 47.5193 21.2514 47.647 21.2068C47.7962 21.14 47.8117 20.994 47.8692 20.8542Z" fill="#273375"/>
<path d="M69.9201 15.7842C70.0754 15.6848 70.2106 15.6149 70.3271 15.5264C70.5461 15.3617 70.5725 15.2002 70.4358 14.9609L70.397 14.8973C70.2044 14.5415 70.1655 14.2619 70.7185 14.1501C70.7667 14.1392 70.8148 14.1268 70.8614 14.1128C71.2761 13.9901 71.4175 13.7136 71.2404 13.3175C71.0319 12.9162 70.7881 12.5341 70.5119 12.1758C70.341 11.9242 70.1702 11.6741 70.0164 11.4116C69.8331 11.12 69.7707 10.7684 69.8424 10.4315C69.9807 9.78373 69.8549 9.14687 69.6871 8.52244C69.5566 8.04557 69.4044 7.57336 69.2568 7.10115C69.2218 7.00848 69.1786 6.91908 69.1279 6.83398C69.1043 6.80311 69.0876 6.76752 69.079 6.72962C69.0704 6.69173 69.0701 6.65242 69.078 6.61438C69.086 6.57634 69.1021 6.54047 69.1251 6.50921C69.1482 6.47794 69.1778 6.45203 69.2118 6.43322C69.319 6.34934 69.4277 6.26546 69.5224 6.17227C69.5691 6.12896 69.6054 6.07567 69.6286 6.01636C69.6518 5.95706 69.6613 5.89328 69.6564 5.8298C69.6514 5.76631 69.6322 5.70476 69.6001 5.64975C69.5681 5.59474 69.524 5.54768 69.4712 5.5121C69.452 5.4933 69.4285 5.47953 69.4027 5.47201C69.3769 5.46448 69.3497 5.46344 69.3234 5.46897C69.2971 5.47451 69.2726 5.48644 69.2521 5.50372C69.2315 5.521 69.2155 5.54309 69.2056 5.56802C69.1665 5.65914 69.1142 5.74394 69.0502 5.81966C69.0279 5.84626 68.9959 5.86297 68.9613 5.86617C68.9267 5.86937 68.8923 5.8588 68.8654 5.83675C68.8157 5.79326 68.8654 5.73578 68.8934 5.68918C69.0145 5.51832 69.0145 5.51987 68.8095 5.47948C68.7631 5.47707 68.7177 5.46522 68.676 5.44465C68.6343 5.42409 68.5973 5.39524 68.5672 5.35988C68.2251 4.91454 67.7673 4.57172 67.2437 4.36886C67.2207 4.35903 67.1984 4.34761 67.1769 4.33469C67.1769 4.33469 67.1769 4.32382 67.1769 4.30052C67.281 4.30984 67.3804 4.3176 67.4876 4.32848C67.6541 4.34864 67.8222 4.35176 67.9893 4.3378C68.1267 4.33735 68.2601 4.29137 68.3686 4.20705C68.4771 4.12274 68.5546 4.00484 68.5889 3.8718C68.7349 3.3825 68.6572 3.09514 68.2441 2.75186C67.9256 2.48624 67.5435 2.33401 67.1894 2.13053L67.0247 2.03888C67.0888 2.00426 67.163 1.99327 67.2344 2.00782C74.7939 2.00782 82.3534 2.00782 89.9129 2.00782C90.0853 2.00782 90.1412 2.04044 90.1412 2.22684C90.1412 9.3721 90.1412 16.5127 90.1412 23.6487C90.1412 23.8242 90.0899 23.8599 89.9237 23.8599C82.4564 23.8558 74.9948 23.8537 67.5389 23.8537C67.4297 23.8535 67.3226 23.8246 67.2282 23.7698C66.3863 23.3038 65.4792 22.9838 64.5736 22.6654C64.5234 22.643 64.4714 22.6248 64.4182 22.611C64.075 22.5582 63.9662 22.3128 63.9429 22.0146C63.8311 20.6368 64.2986 19.4951 65.372 18.619C65.6268 18.4359 65.9414 18.356 66.2527 18.3953C66.8368 18.4295 67.4037 18.5786 67.98 18.6563C68.1353 18.6765 68.2798 18.7308 68.4289 18.7604C68.6301 18.8039 68.8383 18.8043 69.0396 18.7614C69.241 18.7186 69.431 18.6335 69.597 18.5118C69.7865 18.3525 69.9197 18.1365 69.9771 17.8957C70.0344 17.6549 70.0128 17.402 69.9154 17.1744C69.8756 17.1102 69.8613 17.0334 69.8754 16.9592C69.8895 16.885 69.9309 16.8188 69.9916 16.7737C70.0832 16.6929 70.1811 16.6183 70.2758 16.5345C70.3281 16.4903 70.3629 16.429 70.374 16.3616C70.3851 16.2941 70.3717 16.2249 70.3364 16.1663C70.3058 16.0722 70.2514 15.9875 70.1784 15.9206C70.1055 15.8536 70.0165 15.8066 69.9201 15.7842Z" fill="#E20613"/>
<path d="M76.2947 36.9016C75.4202 36.9016 74.5441 36.9016 73.6696 36.9016C73.5143 36.9016 73.5003 36.9326 73.5252 37.0771C73.7116 38.2172 74.5348 38.9504 75.6998 38.997C76.4671 39.0265 77.163 38.8525 77.7191 38.2856C77.9459 38.0541 77.9459 38.0526 78.2007 38.2592C78.547 38.5403 78.8903 38.8292 79.2445 39.0995C79.3719 39.1974 79.3454 39.2549 79.26 39.3605C78.5938 40.1451 77.6566 40.6503 76.6349 40.7756C75.5895 40.9216 74.5659 40.8237 73.6106 40.3313C72.3881 39.7007 71.6907 38.6739 71.4577 37.3381C71.2268 36.1806 71.4391 34.9787 72.0526 33.9705C72.6879 32.9328 73.6417 32.3612 74.8346 32.181C75.7107 32.049 76.5712 32.1096 77.3712 32.5259C78.4088 33.0664 78.9789 33.9472 79.159 35.0904C79.2395 35.6378 79.2279 36.1948 79.1249 36.7385C79.1031 36.8596 79.0565 36.9093 78.9198 36.9078C78.0453 36.8923 77.1692 36.9016 76.2947 36.9016ZM75.4 35.2364C75.9514 35.2364 76.5044 35.2364 77.0559 35.2364C77.163 35.2364 77.1925 35.2131 77.1708 35.0997C77.1133 34.7603 76.9344 34.4534 76.6675 34.2361C76.2481 33.8943 75.7542 33.8198 75.2323 33.8493C74.8768 33.8658 74.535 33.9916 74.2537 34.2096C73.9723 34.4275 73.7651 34.727 73.6603 35.0671C73.6215 35.1898 73.6292 35.2411 73.7799 35.238C74.3205 35.2271 74.8595 35.2318 75.4 35.2318V35.2364Z" fill="#273375"/>
<path d="M79.7401 50.4263C78.8578 50.4263 77.9771 50.4263 77.0995 50.4263C76.9566 50.4263 76.9317 50.4543 76.9534 50.6003C77.1538 51.8849 78.1309 52.5979 79.4885 52.5295C80.2139 52.4922 80.8399 52.2344 81.2996 51.6457C81.3431 51.5898 81.3726 51.5804 81.4317 51.6286C81.8635 51.9828 82.2969 52.3343 82.7318 52.6833C82.8312 52.7625 82.7598 52.8091 82.7147 52.8619C82.1676 53.5383 81.4096 54.0119 80.5618 54.2071C79.1716 54.5364 77.8326 54.4168 76.6179 53.6137C75.5493 52.9008 74.9947 51.8663 74.8471 50.6174C74.6994 49.5893 74.8943 48.5413 75.4017 47.635C76.0634 46.4716 77.0917 45.858 78.4043 45.6949C79.1997 45.5707 80.0141 45.6882 80.742 46.032C81.806 46.5617 82.3901 47.4455 82.5811 48.6012C82.6635 49.1419 82.6556 49.6925 82.5578 50.2306C82.533 50.3766 82.4895 50.4341 82.3248 50.4325C81.4658 50.4154 80.6022 50.4263 79.7401 50.4263ZM77.0529 48.7814C78.2116 48.7814 79.358 48.7814 80.5043 48.7814C80.6255 48.7814 80.6146 48.7254 80.5991 48.6431C80.5658 48.4342 80.4861 48.2353 80.366 48.0612C80.2458 47.887 80.0882 47.7419 79.9048 47.6366C79.5451 47.4363 79.1348 47.3455 78.7242 47.3756C78.3265 47.3821 77.9432 47.5255 77.6388 47.7815C77.3344 48.0375 77.1274 48.3906 77.0529 48.7814Z" fill="#E20714"/>
<path d="M42.6046 50.4263C41.7348 50.4263 40.8665 50.4263 39.9966 50.4263C39.8242 50.4263 39.8133 50.4807 39.8413 50.6267C40.0712 51.9688 41.1026 52.5901 42.3747 52.5264C43.1001 52.4876 43.7261 52.2282 44.1843 51.6379C44.2325 51.5742 44.2651 51.5866 44.3164 51.6286C44.7451 51.9796 45.1707 52.3307 45.6041 52.6724C45.7128 52.7578 45.6414 52.806 45.5948 52.8635C45.1328 53.4381 44.513 53.8651 43.8115 54.0921C42.3048 54.569 40.8416 54.4836 39.4949 53.606C38.451 52.9256 37.9058 51.8973 37.7427 50.6873C37.5869 49.6921 37.7501 48.6732 38.2087 47.7764C38.8549 46.5337 39.9034 45.872 41.275 45.6965C42.077 45.5671 42.8993 45.6847 43.6329 46.0335C44.7202 46.5803 45.3027 47.4936 45.4783 48.6742C45.5433 49.1797 45.5344 49.6919 45.4519 50.1949C45.4254 50.3813 45.3524 50.4294 45.1692 50.4263C44.3179 50.4154 43.4621 50.4263 42.6046 50.4263ZM41.7239 48.7813C42.2691 48.7813 42.8112 48.7813 43.3595 48.7813C43.4807 48.7813 43.5055 48.7534 43.4838 48.6338C43.4283 48.2876 43.2448 47.9749 42.9697 47.7577C42.5827 47.4707 42.1046 47.3343 41.6245 47.374C41.2525 47.3779 40.8915 47.5005 40.5941 47.7241C40.2968 47.9476 40.0787 48.2604 39.9717 48.6167C39.9329 48.7394 39.936 48.786 40.0882 48.7829C40.6335 48.7767 41.1787 48.7813 41.7239 48.7813Z" fill="#E20714"/>
<path d="M30.4796 34.9024C30.4796 33.1022 30.4796 31.3019 30.4796 29.5016C30.4796 29.3385 30.5169 29.2981 30.6816 29.2981C32.7299 29.3043 34.7782 29.3043 36.8265 29.2981C36.9818 29.2981 37.0207 29.3385 37.0191 29.4922C37.0082 30.0576 37.0098 30.6215 37.0191 31.1869C37.0191 31.3345 36.9787 31.3733 36.8327 31.3718C35.5419 31.3718 34.2511 31.3718 32.9603 31.3718C32.8049 31.3718 32.7506 31.4075 32.7537 31.5752C32.7646 32.2447 32.763 32.9158 32.7537 33.5852C32.7537 33.7406 32.8034 33.7778 32.9525 33.7763C34.0398 33.7763 35.1132 33.7763 36.1927 33.7763C36.3481 33.7763 36.3776 33.8151 36.3745 33.9596C36.3667 34.5312 36.3667 35.1013 36.3745 35.6682C36.3745 35.8127 36.331 35.8391 36.1974 35.8391C35.1101 35.8391 34.0227 35.8391 32.9354 35.8391C32.7894 35.8391 32.749 35.8764 32.7506 36.0239C32.7506 37.4577 32.7506 38.8914 32.7506 40.3251C32.7506 40.4897 32.7102 40.5317 32.5455 40.5286C31.9242 40.5177 31.292 40.5192 30.6645 40.5286C30.5091 40.5286 30.4688 40.4913 30.4688 40.3344C30.4812 38.5139 30.4796 36.7074 30.4796 34.9024Z" fill="#273375"/>
<path d="M49.2856 39.7721C48.7987 40.337 48.1174 40.6984 47.3766 40.7849C46.398 40.8983 45.4924 40.7227 44.8462 39.9026C43.9034 38.705 44.3135 37.0196 45.6944 36.302C46.2205 36.0513 46.784 35.8882 47.3626 35.8189C47.9622 35.7226 48.5602 35.6154 49.1614 35.5222C49.2685 35.5051 49.2856 35.4632 49.2872 35.3669C49.3105 34.4225 48.6208 33.8136 47.6189 33.9021C47.3206 33.9188 47.0302 34.0045 46.7707 34.1525C46.5111 34.3005 46.2894 34.5067 46.1231 34.7549C46.0578 34.8481 46.0206 34.8636 45.9258 34.7891C45.5012 34.4566 45.073 34.1284 44.6412 33.8043C44.5527 33.7375 44.5387 33.6955 44.6148 33.6023C44.9584 33.1757 45.3865 32.8247 45.8722 32.5713C46.3579 32.3179 46.8907 32.1676 47.4372 32.1298C48.149 32.046 48.8704 32.146 49.5326 32.4202C50.7085 32.9328 51.3003 33.8648 51.3251 35.1199C51.3609 36.8565 51.3251 38.5962 51.3376 40.3344C51.3376 40.4758 51.3018 40.5099 51.1636 40.5084C50.5858 40.4991 50.0079 40.5084 49.4316 40.5084C49.3198 40.5084 49.2763 40.4851 49.2763 40.3655C49.2934 40.1853 49.2856 39.9989 49.2856 39.7721ZM49.2856 37.5353C49.2856 37.425 49.2779 37.3116 49.2856 37.2014C49.2996 37.0678 49.2561 37.0336 49.1225 37.0569C48.6845 37.1392 48.2449 37.2122 47.8053 37.2837C47.454 37.3177 47.111 37.4112 46.791 37.5602C46.6421 37.6328 46.5197 37.7502 46.4409 37.8958C46.362 38.0415 46.3308 38.2082 46.3514 38.3726C46.3662 38.5443 46.4387 38.706 46.5572 38.8313C46.6757 38.9565 46.8331 39.0379 47.0038 39.0622C47.3271 39.1272 47.6613 39.1134 47.9782 39.022C48.295 38.9307 48.5852 38.7644 48.8243 38.5372C49.1256 38.2732 49.3975 37.9889 49.2856 37.5353Z" fill="#273375"/>
<path d="M55.5004 33.0291C55.8952 32.644 56.3843 32.3692 56.9186 32.2323C58.0944 31.9667 59.1802 32.1173 60.0656 33.0089C60.6217 33.5713 60.8531 34.2858 60.9448 35.0547C60.989 35.5992 61.0015 36.1459 60.9821 36.6919C60.9821 37.9019 60.9821 39.1135 60.9821 40.3235C60.9821 40.4695 60.9463 40.5099 60.7988 40.5084C60.2333 40.4991 59.6695 40.4991 59.1041 40.5084C58.9488 40.5084 58.9192 40.468 58.9192 40.3235C58.9192 38.8137 58.9192 37.3054 58.9192 35.7972C58.9229 35.542 58.8846 35.2881 58.8059 35.0454C58.5542 34.3013 57.8475 33.9068 57.0289 34.0404C56.3361 34.1553 55.8778 34.5794 55.5283 35.1525C55.4944 35.2257 55.4825 35.3072 55.4942 35.3871C55.4942 37.0274 55.4942 38.6661 55.4942 40.3049C55.4942 40.4726 55.4507 40.5115 55.2891 40.5084C54.7113 40.4975 54.1335 40.5084 53.5572 40.5084C53.4469 40.5084 53.4019 40.4882 53.4019 40.367C53.4019 37.7657 53.4019 35.1639 53.4019 32.5616C53.4019 32.4606 53.422 32.4233 53.5323 32.4249C54.1412 32.4249 54.7486 32.4249 55.3575 32.4249C55.4522 32.4249 55.4911 32.4482 55.4864 32.5492C55.4942 32.6952 55.5004 32.8365 55.5004 33.0291Z" fill="#273375"/>
<path d="M65.937 50.0333C65.937 48.1196 66.9747 46.5353 68.6569 45.9528C70.218 45.4122 71.7185 45.5458 73.0854 46.5508C73.3152 46.7293 73.5237 46.9336 73.7067 47.1597C73.7704 47.2343 73.7984 47.2824 73.6928 47.3601C73.2097 47.7173 72.7328 48.0855 72.2591 48.4552C72.1705 48.5251 72.1363 48.5064 72.0758 48.4272C71.4808 47.6661 70.6949 47.416 69.7769 47.6505C68.8588 47.8851 68.2888 48.508 68.1039 49.4291C67.8989 50.4496 68.1257 51.3645 68.994 52.0185C69.4544 52.368 70.0339 52.5222 70.6071 52.4478C71.1803 52.3734 71.7012 52.0763 72.0571 51.6208C72.1363 51.523 72.1798 51.5043 72.2839 51.5866C72.7427 51.947 73.2055 52.3017 73.6726 52.6507C73.7751 52.7268 73.7875 52.7703 73.7021 52.8728C73.3593 53.2876 72.9379 53.6304 72.462 53.8815C71.9861 54.1327 71.4653 54.2871 70.9294 54.336C69.8592 54.4556 68.8355 54.2941 67.9082 53.7147C66.7588 53.0002 66.1483 51.9377 65.9681 50.6081C65.9418 50.4177 65.9314 50.2254 65.937 50.0333Z" fill="#E20714"/>
<path d="M66.8366 32.1111C68.2517 32.136 69.3903 32.5678 70.2648 33.5992C70.3518 33.7017 70.3642 33.7545 70.2446 33.8415C69.7786 34.1879 69.3126 34.5452 68.8544 34.9009C68.7752 34.9615 68.7317 34.991 68.6494 34.8869C68.056 34.1258 67.2731 33.8788 66.352 34.1103C65.4309 34.3417 64.8655 34.9708 64.6806 35.8888C64.4756 36.8923 64.6962 37.7978 65.5396 38.4564C65.9997 38.8143 66.5829 38.9752 67.1615 38.9039C67.74 38.8326 68.2667 38.5348 68.6261 38.0759C68.7037 37.9796 68.7488 37.9609 68.856 38.0448C69.3126 38.4052 69.7771 38.7593 70.2446 39.1073C70.3518 39.1865 70.3502 39.2347 70.2679 39.3341C69.9053 39.7689 69.4568 40.1243 68.9506 40.3779C68.4444 40.6315 67.8913 40.778 67.3259 40.8082C66.425 40.9008 65.5167 40.7274 64.7133 40.3096C64.1678 40.0283 63.6942 39.6254 63.3293 39.132C62.9643 38.6386 62.7177 38.0678 62.6085 37.4639C62.3351 36.1311 62.551 34.8823 63.3712 33.7747C64.0609 32.8427 65.013 32.3457 66.1454 32.1733C66.4079 32.1344 66.6689 32.1251 66.8366 32.1111Z" fill="#273375"/>
<path d="M56.8285 51.6938C57.4389 50.01 58.037 48.3588 58.635 46.7061C58.7111 46.4964 58.7903 46.2883 58.8618 46.077C58.8679 46.044 58.8864 46.0146 58.9136 45.995C58.9408 45.9753 58.9745 45.9668 59.0078 45.9714C59.654 45.9714 60.2986 45.9714 60.9448 45.9714C61.1296 45.9714 61.0535 46.0661 61.024 46.1469C60.384 47.9073 59.7446 49.6704 59.1056 51.436C58.8105 52.2499 58.5107 53.0638 58.2218 53.8809C58.2109 53.9338 58.1798 53.9804 58.1352 54.0108C58.0906 54.0413 58.0358 54.0532 57.9826 54.044C57.2059 54.044 56.4184 54.044 55.6371 54.044C55.5252 54.044 55.4662 54.0254 55.4227 53.9057C54.4907 51.3169 53.5525 48.7337 52.6081 46.1562C52.5553 46.0102 52.5677 45.9698 52.7339 45.9714C53.3351 45.9807 53.9378 45.9807 54.5389 45.9714C54.5983 45.9618 54.6591 45.9754 54.7086 46.0096C54.7581 46.0438 54.7924 46.0958 54.8045 46.1547C55.4476 47.9358 56.0953 49.7154 56.7477 51.4934C56.7679 51.5494 56.7928 51.6053 56.8285 51.6938Z" fill="#E20714"/>
<path d="M87.1993 45.6545C87.7314 45.6526 88.2581 45.7621 88.7453 45.9762C89.2324 46.1902 89.6694 46.5039 90.0279 46.8972C90.1242 47.0028 90.1273 47.0649 90.0186 47.1644C89.6349 47.5185 89.259 47.8789 88.8862 48.2424C88.8039 48.3231 88.7697 48.3045 88.7045 48.2268C88.3674 47.8245 87.9837 47.489 87.4432 47.3974C87.191 47.3517 86.9308 47.3843 86.6976 47.4906C86.5973 47.5272 86.509 47.5906 86.4422 47.6738C86.3754 47.7571 86.3328 47.8571 86.3188 47.963C86.3049 48.0688 86.3202 48.1764 86.3632 48.2742C86.4061 48.3719 86.4751 48.456 86.5624 48.5173C86.807 48.6978 87.0772 48.8407 87.364 48.9414C87.8889 49.1293 88.3954 49.3654 88.8769 49.6466C89.4299 50.0054 89.8275 50.4791 89.9642 51.1377C90.2749 52.6072 89.4392 53.9415 87.9713 54.2599C86.418 54.5954 85.0775 54.1791 83.9793 53.0173C83.8954 52.9303 83.883 52.8759 83.9793 52.7827C84.3583 52.4254 84.7316 52.063 85.0992 51.6954C85.1971 51.596 85.2406 51.5913 85.3322 51.7032C85.6381 52.1057 86.0565 52.4084 86.5345 52.573C86.8724 52.6891 87.2409 52.6792 87.5721 52.545C88.0163 52.3571 88.2478 51.6969 87.687 51.3195C87.3697 51.1258 87.0328 50.9659 86.682 50.8426C86.2763 50.6897 85.884 50.5032 85.5093 50.285C84.6239 49.7398 84.22 48.9429 84.3194 47.9177C84.4204 46.8677 85.0464 46.2091 86.0095 45.8565C86.3904 45.7169 86.7937 45.6484 87.1993 45.6545Z" fill="#E20714"/>
<path d="M33.2989 45.653C34.4095 45.6825 35.3648 46.063 36.1275 46.8956C36.2331 47.009 36.2238 47.0696 36.1088 47.1737C35.7423 47.5071 35.384 47.8499 35.0339 48.202C34.919 48.3154 34.8677 48.3045 34.7683 48.1864C34.4452 47.7965 34.0647 47.4843 33.5459 47.3989C33.2751 47.3462 32.9944 47.3879 32.7506 47.517C32.662 47.5569 32.5851 47.6188 32.5272 47.6968C32.4693 47.7748 32.4323 47.8663 32.4197 47.9626C32.4071 48.059 32.4193 48.1569 32.4552 48.2472C32.4911 48.3375 32.5495 48.4171 32.6247 48.4785C32.8228 48.6482 33.0502 48.7804 33.2958 48.8683C33.7509 49.0625 34.2278 49.2272 34.658 49.4602C35.298 49.8003 35.8184 50.2508 36.0234 50.9777C36.3822 52.2453 35.8572 53.839 34.0911 54.2521C32.5238 54.6187 31.1631 54.176 30.0525 52.9893C29.9794 52.9101 29.9857 52.8681 30.0525 52.7967C30.433 52.4332 30.812 52.0651 31.1848 51.6923C31.278 51.5991 31.3246 51.582 31.4225 51.6923C31.7828 52.1225 32.1991 52.4689 32.7677 52.6041C33.0281 52.6674 33.3008 52.6589 33.5567 52.5792C33.6992 52.5417 33.8271 52.4626 33.9243 52.3519C34.0214 52.2412 34.0833 52.104 34.102 51.9579C34.1454 51.6472 33.9839 51.4484 33.7493 51.2915C33.4131 51.0932 33.0576 50.9292 32.6884 50.8022C32.1391 50.6062 31.6255 50.3218 31.1677 49.9603C30.0369 48.9942 30.0198 46.7263 31.9071 45.9217C32.348 45.7387 32.8215 45.6473 33.2989 45.653Z" fill="#E20714"/>
<path d="M40.6057 33.2093C40.9002 32.9028 41.2523 32.6574 41.6418 32.487C42.1593 32.2678 42.733 32.2183 43.2805 32.3457C43.3892 32.3721 43.4358 32.4078 43.4358 32.529C43.4358 33.1503 43.4358 33.7716 43.4358 34.393C43.4358 34.5017 43.4172 34.5265 43.3007 34.5001C42.7446 34.3553 42.1571 34.3873 41.62 34.5918C41.4016 34.6812 41.1996 34.8061 41.022 34.9615C40.8831 35.0681 40.772 35.2067 40.6982 35.3654C40.6244 35.5242 40.59 35.6984 40.5979 35.8733C40.6259 37.3567 40.6072 38.8401 40.6135 40.3235C40.6135 40.4789 40.5777 40.5208 40.4208 40.5177C39.8492 40.5068 39.2792 40.5099 38.7122 40.5177C38.5833 40.5177 38.5444 40.4835 38.5444 40.353C38.5444 37.7642 38.5444 35.1753 38.5444 32.5865C38.5444 32.4622 38.5802 32.4311 38.6998 32.4311C39.29 32.4311 39.8787 32.4311 40.469 32.4311C40.601 32.4311 40.6243 32.4793 40.6166 32.5865C40.601 32.7791 40.6057 32.9701 40.6057 33.2093Z" fill="#273375"/>
<path d="M49.18 46.7449C49.4623 46.4571 49.7937 46.222 50.1586 46.0506C50.6823 45.8137 51.2689 45.7532 51.83 45.8782C51.948 45.9046 52.0055 45.9434 52.0039 46.0832C51.9925 46.6849 51.9925 47.2871 52.0039 47.8897C52.0039 48.0451 51.9589 48.0544 51.8237 48.0264C51.162 47.896 50.5158 47.9099 49.9147 48.2672C49.8091 48.3317 49.7084 48.4039 49.6134 48.4831C49.4678 48.5911 49.3511 48.7334 49.2739 48.8973C49.1966 49.0613 49.1612 49.2419 49.1707 49.4229C49.1986 50.8892 49.1707 52.354 49.1878 53.8203C49.1878 54.016 49.1303 54.0487 48.9517 54.0455C48.4002 54.0331 47.8472 54.0362 47.2943 54.0455C47.1638 54.0455 47.1172 54.0254 47.1172 53.8778C47.1172 51.3014 47.1172 48.7244 47.1172 46.1469C47.1172 46.004 47.156 45.9714 47.2927 45.9745C47.8643 45.9823 48.436 45.9745 49.0014 45.9745C49.1349 45.9745 49.1924 45.9978 49.18 46.1454C49.1691 46.3287 49.18 46.5151 49.18 46.7449Z" fill="#E20613"/>
<path d="M62.175 50.0147C62.175 48.7301 62.175 47.4455 62.175 46.1625C62.175 46.0071 62.217 45.9668 62.3707 45.9699C62.9408 45.9792 63.5109 45.9776 64.0794 45.9699C64.2099 45.9699 64.2611 45.9916 64.2596 46.1392C64.2596 48.7208 64.2596 51.3019 64.2596 53.8825C64.2596 53.9974 64.2394 54.0378 64.1042 54.0378C63.5093 54.03 62.9129 54.03 62.3179 54.0378C62.189 54.0378 62.1626 53.9943 62.1626 53.8825C62.173 52.5953 62.1771 51.306 62.175 50.0147Z" fill="#E20714"/>
<path d="M61.8767 43.3618C61.8792 43.0114 62.0202 42.6761 62.2691 42.4293C62.5179 42.1825 62.8543 42.0442 63.2048 42.0446C63.3858 42.0328 63.5674 42.0584 63.7381 42.1198C63.9088 42.1811 64.0651 42.2769 64.1973 42.4012C64.3295 42.5255 64.4346 42.6756 64.5063 42.8422C64.578 43.0089 64.6147 43.1885 64.6141 43.3699C64.6134 43.5513 64.5755 43.7307 64.5026 43.8968C64.4297 44.063 64.3235 44.2124 64.1905 44.3357C64.0574 44.4591 63.9005 44.5537 63.7293 44.6139C63.5581 44.674 63.3764 44.6983 63.1955 44.6853C62.8455 44.6832 62.5106 44.543 62.2636 44.2951C62.0166 44.0472 61.8775 43.7118 61.8767 43.3618Z" fill="#E20714"/>
<path d="M66.874 10.1363C66.9643 10.0508 67.0696 9.98289 67.1847 9.93595C67.6244 9.72935 68.0982 9.60511 68.5827 9.56937C68.8432 9.57505 69.0998 9.63482 69.336 9.74489C69.4432 9.78372 69.4494 9.90022 69.4261 9.99964C69.3805 10.1625 69.2801 10.3045 69.1419 10.4019C69.0658 10.4641 69.0145 10.506 69.1155 10.5992C69.2164 10.6924 69.1341 10.7452 69.0502 10.7763C68.9624 10.8035 68.8799 10.8455 68.8064 10.9006C68.651 11.0326 68.7504 11.2112 68.7007 11.3666C68.6929 11.4092 68.6929 11.4529 68.7007 11.4955C68.71 11.8745 68.6728 11.9211 68.2906 11.9413C68.0817 11.9681 67.8694 11.948 67.6693 11.8823C67.7858 11.8667 67.8837 11.859 67.98 11.8419C68.0181 11.8387 68.0533 11.8206 68.0781 11.7915C68.1028 11.7624 68.115 11.7246 68.112 11.6865C68.112 11.6027 68.0344 11.6011 68.0048 11.5654C67.8278 11.3541 67.5186 11.4939 67.3478 11.2951C67.3183 11.2594 67.2422 11.247 67.2577 11.191C67.2732 11.1351 67.3462 11.1165 67.3944 11.1258C67.5901 11.1615 67.6398 11.0046 67.7579 10.913C67.9378 10.7576 68.1306 10.6178 68.3341 10.4951C68.4571 10.4351 68.5665 10.3505 68.6557 10.2466C68.766 10.1115 68.7489 10.0711 68.5827 10.0276C68.0732 9.89401 67.5761 9.97789 67.0806 10.1084C67.0185 10.1286 66.9579 10.1736 66.874 10.1363Z" fill="#9E9E9D"/>
<path d="M50.738 13.3144C50.7396 13.3031 50.7396 13.2916 50.738 13.2803C50.9128 13.2501 51.0914 13.2501 51.2662 13.2803L50.738 13.3144Z" fill="#9E9E9D"/>
<path d="M49.7399 20.2921L49.6494 20.3498L49.6104 20.3123L49.7149 20.264L49.7399 20.2921Z" fill="#273375"/>
<path d="M49.7144 20.2641C49.7502 20.2485 49.7846 20.2219 49.822 20.2641L49.744 20.3015L49.7144 20.2641Z" fill="#273375"/>
<path d="M49.8222 20.2587L49.8062 20.2347L49.8286 20.2251C49.8241 20.235 49.8204 20.2452 49.8174 20.2555L49.8222 20.2587Z" fill="#273375"/>
<path d="M48.0244 17.6808C48.0368 17.6125 48.1222 17.6482 48.1315 17.5861C48.1243 17.5785 48.1159 17.5722 48.1067 17.5674C47.549 17.4525 47.0722 17.6777 46.5736 17.889C46.127 18.0871 45.6942 18.3149 45.2781 18.5709C45.1966 18.6152 45.1126 18.6546 45.0265 18.6889C44.9892 18.7044 44.9457 18.7433 44.91 18.6889C44.9047 18.6793 44.9014 18.6687 44.9003 18.6577C44.8992 18.6468 44.9004 18.6358 44.9037 18.6253C44.9071 18.6148 44.9125 18.6051 44.9197 18.5969C44.927 18.5886 44.9358 18.5818 44.9457 18.5771C45.2191 18.4217 45.2408 18.0567 45.5049 17.8781C45.7689 17.6994 45.9818 17.5006 46.2194 17.3111C46.2878 17.2568 46.3608 17.2102 46.3452 17.1045C46.3447 17.0951 46.3465 17.0857 46.3502 17.0771C46.354 17.0685 46.3597 17.0608 46.367 17.0548C46.6932 16.8513 46.7755 16.4133 47.1436 16.258C47.1153 16.2037 47.0679 16.1618 47.0106 16.1403C46.9533 16.1188 46.89 16.1192 46.833 16.1415C46.7882 16.1548 46.7408 16.1572 46.6949 16.1486C46.649 16.14 46.6058 16.1205 46.5689 16.0918C46.6093 15.9986 46.7056 15.9892 46.7833 15.9364C46.6466 15.8417 46.7103 15.7811 46.8112 15.7159C46.9201 15.6715 47.0346 15.6422 47.1514 15.6289C47.2371 15.6167 47.3169 15.5781 47.3797 15.5186C47.2664 15.4906 47.1484 15.4864 47.0333 15.5062C46.8609 15.5062 46.6326 15.5574 46.5456 15.4145C46.4586 15.2716 46.6341 15.1256 46.7118 14.9905C46.8818 14.6772 47.1349 14.4171 47.4434 14.2387C47.4978 14.2076 47.5584 14.1641 47.6127 14.2107C47.6671 14.2573 47.6314 14.335 47.6127 14.3971C47.5724 14.5182 47.4698 14.5773 47.344 14.6425C47.6034 14.6984 47.8442 14.7419 48.0772 14.8087C48.1393 14.8258 48.3055 14.7854 48.248 14.9641C48.2387 14.9905 48.3086 14.9889 48.3443 14.9967C48.4515 15.0215 48.5618 15.0386 48.6705 15.0666C48.7063 15.0759 48.7637 15.0806 48.7622 15.1365C48.7606 15.1924 48.6954 15.166 48.6628 15.2002C49.8682 15.5512 51.0937 15.8215 52.1344 16.6168C51.5996 16.8799 51.0369 17.0821 50.4569 17.2195C50.1089 17.3065 49.7563 17.3748 49.4068 17.4556C49.3781 17.4671 49.3477 17.4739 49.3167 17.4758C49.0061 17.4463 48.7171 17.5798 48.4298 17.6793C48.3658 17.7067 48.2969 17.721 48.2272 17.7213C48.1576 17.7215 48.0886 17.7078 48.0244 17.6808Z" fill="#FEFEFE"/>
<path d="M48.5884 12.3017C48.4424 12.4461 48.2545 12.443 48.1038 12.5269C48.023 12.5719 48.0292 12.4663 47.9997 12.4057C47.7124 12.6869 47.3784 12.8904 47.0771 13.1405C46.8707 13.3199 46.7027 13.5391 46.5831 13.7851C46.4278 14.0771 46.2818 14.366 45.9913 14.5617C45.9152 14.6114 45.9307 14.7668 45.8453 14.8444C45.822 14.8646 45.8127 14.8988 45.7925 14.9221C45.7474 14.9718 45.6946 15.0417 45.6247 14.9889C45.5548 14.9361 45.6418 14.891 45.6589 14.8429C45.676 14.7947 45.6993 14.7932 45.707 14.7637C45.7148 14.7342 45.822 14.7155 45.7567 14.6425C45.6915 14.5695 45.6511 14.5959 45.5874 14.6425C44.9984 15.0197 44.4461 15.4514 43.9378 15.9318C43.4858 16.3574 43.0664 16.8156 42.6501 17.2754C42.6175 17.3127 42.5973 17.3732 42.5258 17.3639C42.5025 17.2847 42.5693 17.2505 42.6019 17.2086C43.0353 16.634 43.4178 16.0228 43.7452 15.3819C43.7934 15.282 43.8709 15.1991 43.9673 15.1442C44.4551 14.8342 44.8965 14.4567 45.2783 14.0227C45.8742 13.3613 46.5722 12.7997 47.3458 12.3591C47.5347 12.255 47.7449 12.1956 47.9604 12.1856C48.1759 12.1757 48.3907 12.2154 48.5884 12.3017Z" fill="#FEFEFE"/>
<path d="M48.1969 19.8865C47.4886 20.2329 46.9449 20.7781 46.2428 21.036C45.9189 21.1638 45.6302 21.3673 45.4009 21.6293C45.3792 21.6511 45.3512 21.6868 45.3295 21.6853C44.9924 21.6495 44.8635 21.926 44.6677 22.1124C44.6367 22.1435 44.6196 22.2181 44.5621 22.1792C44.5046 22.1404 44.5217 22.0783 44.5621 22.0239C44.691 21.8686 44.8169 21.7024 44.9365 21.5377C45.0342 21.4081 45.0973 21.2557 45.1198 21.095C45.1198 21.0717 45.1431 21.0298 45.14 21.0267C44.9023 20.8946 45.1508 20.8434 45.1928 20.7952C45.5396 20.3677 46.0318 20.083 46.5752 19.9953C46.7653 19.9626 46.9506 19.9062 47.1266 19.8275C47.2232 19.781 47.3323 19.7673 47.4373 19.7887C47.6719 19.8415 47.9219 19.756 48.1969 19.8865Z" fill="#FEFEFE"/>
<path d="M49.694 18.0691C49.6704 18.1026 49.6404 18.1311 49.6058 18.153C49.5711 18.1748 49.5325 18.1896 49.4921 18.1965C49.2513 18.2415 49.009 18.2773 48.7667 18.3146C48.7325 18.3146 48.6797 18.3146 48.6657 18.2959C48.6518 18.2773 48.6782 18.2151 48.7046 18.1825C48.7466 18.1372 48.8004 18.1044 48.8599 18.0878C48.9323 18.0748 49.0025 18.0513 49.068 18.0179C49.2886 17.8641 49.4874 17.9185 49.694 18.0691Z" fill="#FEFEFE"/>
<path d="M47.869 20.8542C47.813 20.994 47.796 21.14 47.6468 21.2037C47.5191 21.2483 47.4021 21.3192 47.3036 21.4119C47.2924 21.423 47.2792 21.4318 47.2647 21.4379C47.2502 21.4439 47.2346 21.447 47.2189 21.447C47.2032 21.447 47.1876 21.4439 47.1731 21.4379C47.1585 21.4318 47.1454 21.423 47.1342 21.4119C47.0814 21.3513 47.1669 21.3218 47.201 21.2876C47.3362 21.1525 47.476 21.0235 47.6111 20.89C47.6349 20.8616 47.6654 20.8396 47.6999 20.8261C47.7343 20.8125 47.7716 20.8078 47.8084 20.8123C47.841 20.8201 47.8674 20.8309 47.869 20.8542Z" fill="#FEFEFE"/>
<path d="M75.4 35.2318C74.8594 35.2318 74.3204 35.2318 73.7799 35.2318C73.6245 35.2318 73.6245 35.1836 73.6603 35.0609C73.7651 34.7208 73.9723 34.4213 74.2537 34.2034C74.535 33.9854 74.8767 33.8596 75.2322 33.8431C75.7541 33.8136 76.2481 33.8881 76.6675 34.2299C76.9344 34.4472 77.1133 34.7541 77.1708 35.0935C77.1925 35.2069 77.163 35.2318 77.0558 35.2302C76.5044 35.2302 75.9514 35.2318 75.4 35.2318Z" fill="#FEFEFE"/>
<path d="M77.0527 48.7814C77.1289 48.3921 77.3365 48.0407 77.6407 47.7862C77.945 47.5317 78.3275 47.3895 78.7241 47.3834C79.1346 47.3533 79.545 47.444 79.9046 47.6443C80.0881 47.7497 80.2457 47.8948 80.3659 48.0689C80.486 48.2431 80.5656 48.4419 80.599 48.6509C80.6145 48.7332 80.6254 48.7907 80.5042 48.7891C79.3579 48.7798 78.2115 48.7814 77.0527 48.7814Z" fill="#FEFEFE"/>
<path d="M41.7239 48.7814C41.1787 48.7814 40.6366 48.7814 40.0883 48.7814C39.9329 48.7814 39.9329 48.7379 39.9718 48.6152C40.0787 48.2589 40.2968 47.9461 40.5942 47.7225C40.8915 47.499 41.2525 47.3763 41.6245 47.3725C42.1046 47.3328 42.5828 47.4692 42.9697 47.7562C43.2448 47.9734 43.4284 48.2861 43.4838 48.6322C43.5056 48.7518 43.4838 48.7876 43.3596 48.7798C42.8143 48.7782 42.2691 48.7814 41.7239 48.7814Z" fill="#FEFEFE"/>
<path d="M49.2857 37.5353C49.3975 37.992 49.1303 38.2732 48.8197 38.5372C48.5806 38.7644 48.2904 38.9307 47.9735 39.0221C47.6567 39.1134 47.3225 39.1272 46.9992 39.0622C46.8285 39.0379 46.6711 38.9565 46.5526 38.8313C46.4341 38.706 46.3616 38.5443 46.3468 38.3726C46.3261 38.2082 46.3574 38.0415 46.4362 37.8959C46.5151 37.7502 46.6375 37.6328 46.7864 37.5602C47.1064 37.4112 47.4494 37.3177 47.8007 37.2837C48.2403 37.2076 48.6799 37.1392 49.1179 37.0569C49.2515 37.0336 49.295 37.0678 49.281 37.2014C49.2779 37.3117 49.2857 37.425 49.2857 37.5353Z" fill="#FEFEFE"/>
</svg>
