<svg width="120" height="56" viewBox="0 0 120 56" fill="none" xmlns="http://www.w3.org/2000/svg">
<path d="M58.8222 28.6543C58.8186 28.6508 58.8153 28.6534 58.8119 28.6543L58.8019 28.6589C58.7875 28.6645 58.7738 28.6717 58.7611 28.6804C58.7567 28.6831 58.7509 28.6846 58.7479 28.6804C58.7449 28.6762 58.7515 28.6729 58.7542 28.6695C58.763 28.6582 58.7779 28.6619 58.7885 28.6546C58.8247 28.6293 58.8651 28.6108 58.9078 28.5998C58.9793 28.5799 59.0531 28.5745 59.1256 28.5608C59.1729 28.5518 59.22 28.5435 59.2598 28.5133C59.2773 28.5004 59.295 28.4871 59.3137 28.4753C59.3425 28.458 59.3653 28.4323 59.379 28.4016C59.3826 28.3934 59.3915 28.3827 59.3832 28.3761C59.3775 28.3719 59.3712 28.3851 59.365 28.39C59.3618 28.3928 59.3589 28.3957 59.356 28.3988C59.2947 28.4556 59.2276 28.5032 59.1462 28.5266C59.0829 28.5447 59.0169 28.5415 58.9508 28.5502C58.9721 28.5327 58.9896 28.5127 59.02 28.5092C59.0063 28.4977 58.9961 28.5062 58.9858 28.5078C58.979 28.509 58.9687 28.516 58.9669 28.5047C58.9658 28.498 58.9669 28.4841 58.9818 28.4847C58.9852 28.4847 58.9897 28.4859 58.9912 28.4817C58.9967 28.4647 59.0128 28.4605 59.0259 28.4531C59.0652 28.4307 59.105 28.4094 59.1445 28.3873C59.1486 28.3849 59.1548 28.3845 59.1559 28.3782C59.1511 28.3763 59.1439 28.3824 59.142 28.3749C59.14 28.3675 59.146 28.3654 59.1524 28.3634C59.1874 28.3507 59.2215 28.3357 59.2546 28.3187C59.2448 28.3153 59.2352 28.3217 59.2286 28.3138C59.2328 28.3045 59.2459 28.3059 59.2479 28.2988C59.2512 28.2877 59.2501 28.2753 59.2661 28.2738C59.2682 28.2738 59.268 28.271 59.2661 28.2699C59.2553 28.2614 59.2673 28.2595 59.2706 28.2566C59.2816 28.2472 59.297 28.2475 59.3105 28.2408C59.2928 28.2344 59.2865 28.2231 59.2956 28.211C59.3134 28.1862 59.3163 28.1569 59.3247 28.1291C59.3259 28.1255 59.3283 28.1211 59.3231 28.1181C59.3178 28.1151 59.3153 28.1181 59.3125 28.1215C59.2842 28.1464 59.2505 28.1643 59.214 28.1737C59.1873 28.1816 59.1601 28.1879 59.1326 28.1925C59.1176 28.1962 59.1018 28.196 59.0869 28.1918C59.072 28.1876 59.0585 28.1796 59.0476 28.1686C59.0376 28.1593 59.0265 28.1512 59.0146 28.1445C58.929 28.0954 58.8346 28.078 58.7384 28.0665C58.7023 28.0633 58.666 28.0621 58.6298 28.0629C58.6452 28.0548 58.6615 28.0488 58.6784 28.045C58.72 28.0349 58.7621 28.0269 58.8028 28.0137C58.8376 28.0014 58.8736 27.9927 58.9102 27.9877L58.9611 27.9838C58.9443 27.9809 58.9271 27.9809 58.9104 27.9838C58.8961 27.9828 58.8818 27.9835 58.8677 27.9859C58.7764 28.0037 58.6833 28.0158 58.6007 28.0633C58.5943 28.0671 58.5858 28.0702 58.5809 28.0644C58.576 28.0586 58.5834 28.0517 58.5876 28.0462C58.6103 28.0146 58.6407 27.9893 58.676 27.9728C58.7112 27.9563 58.7501 27.949 58.7889 27.9518C58.8858 27.9551 58.9822 27.9678 59.0767 27.9897C59.0846 27.9906 59.0922 27.9933 59.0989 27.9978C59.1056 28.0022 59.1111 28.0082 59.115 28.0152C59.1176 28.0199 59.1215 28.0238 59.1261 28.0266C59.1307 28.0293 59.136 28.0308 59.1414 28.031C59.161 28.0312 59.1805 28.0349 59.1988 28.042C59.2015 28.0135 59.2036 28.0122 59.2304 28.0164H59.2339C59.2437 28.0181 59.2539 28.0189 59.2595 28.009C59.2616 28.0047 59.2622 27.9997 59.2612 27.995C59.2602 27.9903 59.2577 27.986 59.254 27.9828C59.2424 27.9692 59.2298 27.9564 59.2179 27.9431C59.214 27.9388 59.2079 27.9345 59.2131 27.9251C59.2303 27.9415 59.2462 27.9573 59.2628 27.9725C59.2829 27.9932 59.309 28.0071 59.3374 28.0122C59.3474 28.0135 59.3593 28.018 59.3662 28.0092C59.373 28.0004 59.3636 27.9903 59.3589 27.9821C59.3385 27.9512 59.3154 27.9222 59.2898 27.8955C59.2839 27.8905 59.2796 27.884 59.2773 27.8766C59.2732 27.8632 59.2675 27.8504 59.2601 27.8384C59.2488 27.8177 59.2412 27.7952 59.2377 27.7719C59.2379 27.7611 59.237 27.7504 59.2349 27.7398C59.2149 27.6718 59.2066 27.6013 59.1902 27.5322C59.1784 27.4809 59.1742 27.4296 59.2008 27.3808C59.2207 27.3443 59.2415 27.3082 59.2622 27.2721C59.2889 27.2259 59.319 27.1826 59.3648 27.1528C59.3695 27.1493 59.3729 27.1443 59.3745 27.1386C59.4078 27.056 59.4597 26.9908 59.5432 26.9538C59.5826 26.9364 59.6224 26.9199 59.6625 26.9017H59.6439C58.7579 26.9017 57.8721 26.9017 56.9863 26.9017C56.9674 26.9017 56.9642 26.9073 56.9642 26.9246C56.9642 27.6091 56.9642 28.2935 56.9642 28.9779C56.9642 28.9966 56.9692 29.0002 56.9868 29.0002C57.6097 28.9996 58.2327 28.9996 58.8556 29.0002C58.8709 29.0008 58.8861 28.9965 58.8987 28.9878C58.9187 28.9738 58.9398 28.9614 58.9618 28.9508C59.0318 28.9166 59.102 28.8828 59.1727 28.8504C59.2635 28.8088 59.3462 28.7575 59.4102 28.678C59.4589 28.6168 59.515 28.562 59.5774 28.5148C59.5803 28.5132 59.5827 28.5107 59.5841 28.5076C59.5854 28.5045 59.5857 28.5011 59.5848 28.4978C59.5659 28.5035 59.555 28.5239 59.5331 28.5236C59.5389 28.5166 59.5466 28.512 59.5525 28.5057C59.5583 28.4995 59.5753 28.4977 59.5707 28.4857C59.565 28.4708 59.5499 28.4801 59.5389 28.4795C59.5371 28.4798 59.5354 28.4802 59.5337 28.4808C59.5001 28.488 59.4756 28.5106 59.4506 28.5311C59.4457 28.5351 59.4409 28.5424 59.4339 28.5387C59.4209 28.5318 59.4109 28.5387 59.4005 28.5438C59.3802 28.5539 59.361 28.5659 59.3429 28.5796C59.3221 28.5956 59.3 28.6097 59.2768 28.6219C59.2619 28.6294 59.2433 28.6255 59.2273 28.6349C59.2006 28.6499 59.17 28.6566 59.1395 28.6541C59.0707 28.65 59.0052 28.6681 58.9384 28.681C58.8826 28.6917 58.8458 28.732 58.803 28.7627C58.7674 28.7886 58.7342 28.8177 58.7038 28.8495C58.6996 28.8537 58.6957 28.8598 58.6865 28.8558C58.6975 28.842 58.7068 28.827 58.7142 28.811C58.7244 28.7842 58.7444 28.7622 58.7702 28.7496C58.7758 28.7465 58.7805 28.7419 58.7838 28.7363C58.787 28.7308 58.7887 28.7244 58.7886 28.718C58.7624 28.719 58.7597 28.7578 58.7278 28.7527C58.7361 28.742 58.7426 28.73 58.747 28.7172C58.7506 28.6931 58.7688 28.6853 58.7857 28.675L58.8054 28.6629L58.814 28.6574L58.8213 28.6538L58.8225 28.651L58.8204 28.6519L58.8222 28.6543ZM60.7521 28.2247C60.7614 28.2269 60.7699 28.2315 60.7769 28.2379C60.784 28.2444 60.7892 28.2526 60.7921 28.2617C60.7954 28.2673 60.7967 28.274 60.7957 28.2805C60.7946 28.2869 60.7913 28.2928 60.7862 28.2971C60.7771 28.3048 60.7677 28.312 60.7589 28.32C60.7531 28.3244 60.7491 28.3307 60.7478 28.3378C60.7464 28.345 60.7478 28.3523 60.7516 28.3585C60.7609 28.3805 60.7628 28.4049 60.7571 28.4281C60.7513 28.4512 60.7383 28.4719 60.7199 28.4871C60.7039 28.4988 60.6857 28.5069 60.6663 28.511C60.647 28.5152 60.627 28.5151 60.6077 28.5109C60.5928 28.5081 60.5795 28.5029 60.5646 28.5009C60.5093 28.4935 60.4548 28.4792 60.3987 28.4759C60.3688 28.4721 60.3386 28.4798 60.3142 28.4974C60.2111 28.5815 60.1662 28.6913 60.177 28.8234C60.1792 28.8521 60.1896 28.8756 60.2226 28.8807C60.2277 28.882 60.2327 28.8838 60.2375 28.8859C60.3245 28.9165 60.4116 28.9466 60.4924 28.992C60.5015 28.9972 60.5118 29 60.5222 29C61.2388 29 61.9553 29 62.6718 29C62.6878 29 62.6927 28.9966 62.6927 28.9797C62.6927 28.2936 62.6927 27.608 62.6927 26.9228C62.6927 26.9049 62.6873 26.9017 62.6708 26.9017C61.9449 26.9017 61.219 26.9017 60.4932 26.9017C60.4863 26.9003 60.4792 26.9014 60.473 26.9047L60.4888 26.9135C60.5228 26.9329 60.5595 26.9475 60.5901 26.9732C60.6298 27.0062 60.6372 27.0337 60.6232 27.0807C60.6199 27.0935 60.6125 27.1048 60.6021 27.1129C60.5916 27.121 60.5788 27.1254 60.5656 27.1255C60.5496 27.1268 60.5334 27.1265 60.5175 27.1246C60.5079 27.1235 60.4984 27.1228 60.4876 27.1219C60.4876 27.1241 60.4876 27.125 60.4876 27.1252C60.4897 27.1264 60.4918 27.1275 60.494 27.1285C60.5443 27.1479 60.5883 27.1809 60.6211 27.2236C60.624 27.227 60.6276 27.2298 60.6316 27.2318C60.6356 27.2337 60.6399 27.2349 60.6444 27.2351C60.6641 27.239 60.6641 27.2388 60.6524 27.2552C60.6492 27.2597 60.645 27.2652 60.6498 27.2694C60.6523 27.2715 60.6556 27.2725 60.659 27.2722C60.6623 27.2719 60.6654 27.2703 60.6675 27.2678C60.6737 27.2605 60.6787 27.2524 60.6824 27.2436C60.6834 27.2412 60.6849 27.2391 60.6869 27.2374C60.6889 27.2358 60.6912 27.2346 60.6937 27.2341C60.6963 27.2336 60.6989 27.2337 60.7014 27.2344C60.7038 27.2351 60.7061 27.2364 60.7079 27.2382C60.713 27.2416 60.7172 27.2462 60.7203 27.2514C60.7234 27.2567 60.7252 27.2626 60.7257 27.2687C60.7262 27.2748 60.7253 27.281 60.723 27.2867C60.7208 27.2923 60.7173 27.2975 60.7129 27.3016C60.7033 27.3106 60.6929 27.3186 60.683 27.3267C60.6798 27.3285 60.6769 27.331 60.6747 27.334C60.6725 27.337 60.6709 27.3404 60.6702 27.3441C60.6694 27.3477 60.6694 27.3515 60.6703 27.3551C60.6711 27.3588 60.6727 27.3622 60.675 27.3652C60.6798 27.3733 60.684 27.3819 60.6873 27.3908C60.7015 27.4356 60.7161 27.4815 60.7287 27.5273C60.7449 27.5869 60.757 27.6484 60.7436 27.7106C60.7372 27.7432 60.7438 27.7771 60.7621 27.8049C60.777 27.8301 60.7932 27.8541 60.8097 27.8782C60.8362 27.9126 60.8596 27.9493 60.8796 27.9879C60.8966 28.0259 60.883 28.0525 60.8432 28.0642C60.8387 28.0656 60.8341 28.0668 60.8295 28.0678C60.7764 28.0786 60.7801 28.1054 60.7986 28.1396L60.8023 28.1457C60.8155 28.1686 60.8129 28.1842 60.7919 28.2C60.78 28.2091 60.7673 28.2152 60.7521 28.2247ZM61.3636 30.252C61.4476 30.252 61.5317 30.252 61.6157 30.252C61.6288 30.252 61.6333 30.2474 61.6354 30.2357C61.6452 30.1835 61.6464 30.13 61.6386 30.0775C61.6213 29.9677 61.5666 29.8836 61.467 29.8312C61.3901 29.7913 61.3075 29.7854 61.2234 29.7981C61.1088 29.8154 61.0173 29.8703 60.9563 29.9699C60.8974 30.0668 60.877 30.1822 60.8991 30.2933C60.9215 30.4216 60.9886 30.5202 61.1059 30.5807C61.1976 30.628 61.2959 30.6374 61.3963 30.6234C61.4944 30.6113 61.5844 30.5628 61.6483 30.4875C61.6565 30.478 61.6591 30.4718 61.6468 30.4624C61.6128 30.4365 61.5799 30.4087 61.5466 30.3817C61.5221 30.3619 61.5221 30.3621 61.5004 30.3843C61.4467 30.4387 61.3799 30.4554 61.3065 30.4526C61.1949 30.4481 61.1159 30.378 61.0977 30.2682C61.0953 30.2544 61.0977 30.2512 61.1115 30.2514C61.1961 30.2524 61.2802 30.2524 61.3642 30.2524L61.3636 30.252ZM61.6944 31.5511C61.7772 31.5511 61.8601 31.5511 61.9429 31.5511C61.9587 31.5511 61.9629 31.5457 61.9653 31.5317C61.9747 31.48 61.9754 31.4272 61.9675 31.3752C61.9492 31.2643 61.8929 31.1794 61.7909 31.1286C61.7213 31.0959 61.6435 31.0849 61.5675 31.0968C61.4415 31.1124 61.3427 31.1714 61.2792 31.2831C61.2305 31.3701 61.2117 31.4707 61.2259 31.5694C61.2408 31.6888 61.2933 31.7891 61.3955 31.8569C61.5122 31.934 61.6407 31.9455 61.7742 31.9138C61.8556 31.8951 61.9284 31.8496 61.9809 31.7847C61.9853 31.7796 61.9921 31.7751 61.9826 31.7675C61.9408 31.7341 61.8992 31.7003 61.8577 31.6662C61.8521 31.6616 61.8492 31.6625 61.8451 31.6679C61.8003 31.7244 61.7407 31.7492 61.6711 31.7527C61.5408 31.7593 61.4474 31.6909 61.4277 31.5675C61.4256 31.5535 61.4277 31.5508 61.4418 31.5508C61.5257 31.5515 61.6103 31.5511 61.695 31.5511H61.6944ZM58.1287 31.5511C58.2108 31.5511 58.2927 31.5511 58.3754 31.5511C58.393 31.5511 58.4 31.5468 58.4025 31.5289C58.4104 31.4806 58.4113 31.4314 58.405 31.3829C58.3882 31.2691 58.3325 31.1813 58.2278 31.1293C58.1578 31.0961 58.0793 31.0848 58.0028 31.0969C57.8711 31.1138 57.7704 31.1775 57.7083 31.2966C57.6643 31.3828 57.6486 31.4806 57.6636 31.5762C57.6793 31.6931 57.7316 31.7911 57.8318 31.8564C57.9612 31.9407 58.1017 31.9489 58.2463 31.9031C58.3137 31.8813 58.3732 31.8403 58.4176 31.7851C58.422 31.7796 58.4289 31.775 58.4185 31.7668C58.3768 31.734 58.336 31.7002 58.2948 31.6665C58.2899 31.6625 58.2868 31.6613 58.2821 31.6674C58.2381 31.7241 58.1777 31.749 58.1084 31.7527C57.9861 31.7592 57.887 31.6994 57.8648 31.57C57.8623 31.556 57.8633 31.5505 57.8797 31.5508C57.9624 31.5517 58.0457 31.5511 58.1293 31.5511H58.1287ZM56.9644 30.0605C56.9644 30.2338 56.9644 30.4073 56.9644 30.5807C56.9644 30.5956 56.9686 30.5995 56.9832 30.5994C57.0428 30.5985 57.1037 30.5983 57.1638 30.5994C57.1796 30.5994 57.1835 30.5956 57.1835 30.5798C57.1835 30.4422 57.1835 30.3045 57.1835 30.1668C57.1835 30.1527 57.1872 30.1489 57.2012 30.1491C57.3056 30.1491 57.41 30.1491 57.5144 30.1491C57.5273 30.1491 57.5316 30.1465 57.5315 30.1327C57.5306 30.0778 57.5306 30.023 57.5315 29.9686C57.5315 29.9547 57.5282 29.9509 57.514 29.951C57.4103 29.951 57.3065 29.951 57.2029 29.951C57.188 29.951 57.1836 29.948 57.1838 29.9327C57.1847 29.8684 57.1848 29.8039 57.1838 29.7397C57.1838 29.7235 57.1881 29.72 57.2036 29.7201C57.3276 29.7201 57.4515 29.7201 57.5755 29.7201C57.5895 29.7201 57.5936 29.7165 57.5933 29.7024C57.5933 29.6481 57.5925 29.5939 57.5933 29.5396C57.5933 29.5247 57.5899 29.521 57.5749 29.521C57.3782 29.5216 57.1815 29.5216 56.9848 29.521C56.969 29.521 56.9654 29.5249 56.9654 29.5405C56.9651 29.7155 56.965 29.8876 56.965 30.0605H56.9644ZM58.7702 30.5281C58.7702 30.5498 58.7702 30.5677 58.7702 30.5855C58.7702 30.597 58.7737 30.5994 58.7851 30.5992C58.8404 30.5992 58.8959 30.5985 58.9514 30.5992C58.9646 30.5992 58.9682 30.5961 58.9681 30.5825C58.9681 30.4156 58.9703 30.2486 58.9669 30.0818C58.9645 29.9613 58.9072 29.8718 58.7948 29.8226C58.7312 29.7962 58.6619 29.7866 58.5936 29.7947C58.5411 29.7983 58.4899 29.8128 58.4433 29.8371C58.3967 29.8614 58.3555 29.8951 58.3226 29.9361C58.3152 29.945 58.3166 29.9491 58.3251 29.9555C58.3666 29.9867 58.4077 30.0182 58.4484 30.05C58.4575 30.0572 58.4611 30.0557 58.4674 30.0468C58.4834 30.0229 58.5046 30.0031 58.5296 29.9889C58.5545 29.9747 58.5824 29.9665 58.611 29.9649C58.7072 29.9567 58.7734 30.0148 58.7712 30.1055C58.7712 30.1148 58.7694 30.1188 58.7591 30.1204C58.7014 30.1294 58.644 30.1397 58.5864 30.1489C58.5308 30.1556 58.4767 30.1712 58.4262 30.1953C58.2936 30.2642 58.2542 30.426 58.3448 30.541C58.4068 30.6198 58.4939 30.6366 58.5877 30.6258C58.6588 30.6173 58.7241 30.5824 58.7708 30.5281H58.7702ZM59.3668 29.8806C59.3668 29.8621 59.3668 29.8485 59.3668 29.835C59.3668 29.8253 59.3635 29.823 59.3544 29.823C59.2959 29.823 59.2376 29.823 59.1791 29.823C59.1685 29.823 59.1666 29.8265 59.1666 29.8362C59.1666 30.086 59.1666 30.3359 59.1666 30.5856C59.1666 30.5973 59.1705 30.5992 59.1815 30.5992C59.2368 30.5992 59.2923 30.5983 59.3478 30.5992C59.3627 30.5992 59.3677 30.5958 59.3675 30.5797C59.3675 30.4223 59.3675 30.265 59.3675 30.1075C59.3664 30.0998 59.3675 30.092 59.3708 30.0849C59.4043 30.0299 59.4483 29.9892 59.5149 29.9781C59.5935 29.9653 59.6613 30.0032 59.6855 30.0746C59.6931 30.098 59.6967 30.1223 59.6964 30.1468C59.6964 30.2917 59.6964 30.4365 59.6964 30.5815C59.6964 30.5953 59.7 30.5994 59.7141 30.5992C59.7684 30.5983 59.8226 30.5983 59.8769 30.5992C59.891 30.5992 59.8945 30.5955 59.8945 30.5815C59.8945 30.4653 59.8945 30.3489 59.8945 30.2327C59.8963 30.1803 59.8951 30.1278 59.8909 30.0755C59.8821 30.001 59.8599 29.9331 59.8065 29.8791C59.7214 29.7929 59.6172 29.7784 59.5043 29.8045C59.4528 29.8175 59.4056 29.8437 59.3675 29.8806H59.3668ZM60.3689 31.5134C60.3685 31.5318 60.3696 31.5503 60.3722 31.5685C60.3895 31.6961 60.4481 31.7981 60.5585 31.8668C60.648 31.9222 60.7458 31.9377 60.8486 31.9265C60.9 31.9218 60.95 31.907 60.9957 31.8829C61.0414 31.8588 61.0819 31.8258 61.1148 31.786C61.123 31.7762 61.1218 31.772 61.112 31.7647C61.0671 31.7312 61.0227 31.6971 60.9786 31.6625C60.9686 31.6546 60.9645 31.6564 60.9569 31.6658C60.9227 31.7095 60.8727 31.7381 60.8176 31.7452C60.7626 31.7523 60.7069 31.7375 60.6627 31.704C60.5794 31.6412 60.5576 31.5533 60.5773 31.4553C60.595 31.3669 60.6493 31.3062 60.7379 31.2846C60.8265 31.2629 60.902 31.2865 60.9587 31.3591C60.9645 31.3667 60.9678 31.3685 60.9763 31.3618C61.021 31.3263 61.0675 31.291 61.1139 31.2567C61.1241 31.2492 61.1214 31.2446 61.1153 31.2374C61.0977 31.2157 61.0777 31.1961 61.0556 31.179C60.9243 31.0825 60.7803 31.0696 60.6304 31.1215C60.4693 31.1772 60.3697 31.3296 60.3697 31.5134H60.3689ZM60.4553 29.7925C60.4392 29.7938 60.4141 29.7947 60.3895 29.7984C60.2808 29.815 60.1893 29.8629 60.1231 29.9522C60.0444 30.0585 60.0236 30.1785 60.0499 30.3064C60.0604 30.3644 60.084 30.4192 60.1191 30.4666C60.1541 30.514 60.1996 30.5527 60.252 30.5797C60.3291 30.6198 60.4163 30.6364 60.5028 30.6276C60.5571 30.6247 60.6102 30.6106 60.6589 30.5862C60.7075 30.5619 60.7505 30.5278 60.7853 30.486C60.7932 30.4765 60.7934 30.4718 60.7831 30.4642C60.7384 30.4308 60.6936 30.3968 60.6498 30.3622C60.6395 30.3542 60.6348 30.3559 60.6277 30.3652C60.5932 30.4092 60.5426 30.4377 60.4871 30.4445C60.4316 30.4514 60.3756 30.4359 60.3315 30.4016C60.2505 30.3383 60.2293 30.2514 60.249 30.155C60.2667 30.0669 60.3204 30.0059 60.4095 29.9843C60.4985 29.9626 60.5735 29.9861 60.6301 30.0588C60.638 30.0688 60.6422 30.066 60.6498 30.0602C60.6945 30.026 60.7384 29.9917 60.7833 29.9585C60.7947 29.95 60.7935 29.945 60.7852 29.9352C60.7012 29.8363 60.5919 29.7948 60.456 29.7925H60.4553ZM59.495 31.6728C59.4916 31.6643 59.4892 31.6589 59.4873 31.6534C59.4249 31.4826 59.3627 31.3117 59.3007 31.1408C59.2995 31.1351 59.2962 31.1301 59.2915 31.1268C59.2867 31.1236 59.2809 31.1223 59.2752 31.1232C59.2175 31.1241 59.1596 31.1241 59.1019 31.1232C59.0859 31.1232 59.0847 31.1269 59.0898 31.1409C59.1805 31.3888 59.2706 31.6369 59.36 31.885C59.3642 31.8965 59.3699 31.8985 59.3806 31.8983C59.4552 31.8983 59.5308 31.8983 59.6058 31.8983C59.611 31.8992 59.6162 31.8981 59.6205 31.8951C59.6248 31.8922 59.6278 31.8877 59.6288 31.8827C59.6566 31.8042 59.6853 31.7261 59.7137 31.6479C59.775 31.4789 59.8364 31.3096 59.8979 31.14C59.9007 31.1323 59.908 31.123 59.8903 31.1232C59.8282 31.1232 59.7663 31.1232 59.7043 31.1232C59.7011 31.1227 59.6979 31.1236 59.6952 31.1254C59.6926 31.1273 59.6909 31.1302 59.6903 31.1333C59.6833 31.1536 59.6754 31.1736 59.6685 31.1937C59.6111 31.3526 59.5539 31.5111 59.495 31.6728ZM62.4112 31.0929C62.3724 31.0921 62.3337 31.0984 62.2971 31.1115C62.2047 31.1457 62.1446 31.2086 62.1349 31.3095C62.1253 31.4079 62.1647 31.4844 62.2491 31.5368C62.2851 31.5577 62.3228 31.5756 62.3617 31.5903C62.3954 31.6022 62.4277 31.6175 62.4582 31.6361C62.5121 31.6724 62.4898 31.7357 62.4472 31.7538C62.4154 31.7667 62.38 31.7676 62.3476 31.7565C62.3017 31.7407 62.2615 31.7116 62.2321 31.673C62.2233 31.6622 62.2191 31.6627 62.2097 31.6722C62.1745 31.7077 62.1387 31.7425 62.1022 31.7766C62.0928 31.7856 62.094 31.7915 62.1022 31.7991C62.2076 31.9107 62.3368 31.9507 62.4855 31.9185C62.6265 31.8879 62.7061 31.7598 62.6769 31.6187C62.6638 31.5554 62.6256 31.5099 62.5725 31.4755C62.5262 31.4485 62.4776 31.4258 62.4272 31.4078C62.3997 31.3981 62.3737 31.3844 62.3502 31.367C62.3418 31.3612 62.3352 31.3531 62.3311 31.3437C62.327 31.3343 62.3255 31.324 62.3268 31.3138C62.3282 31.3037 62.3323 31.2941 62.3387 31.2861C62.3451 31.2781 62.3536 31.272 62.3632 31.2685C62.3856 31.2582 62.4106 31.2551 62.4348 31.2595C62.4867 31.2683 62.5236 31.3005 62.5559 31.3392C62.5622 31.3466 62.5655 31.3484 62.5734 31.3406C62.6092 31.3057 62.6453 31.2711 62.6821 31.2371C62.6925 31.2276 62.6922 31.2222 62.683 31.2115C62.6485 31.1738 62.6065 31.1438 62.5597 31.1234C62.5129 31.103 62.4623 31.0926 62.4112 31.0929ZM57.2357 31.0929C57.1903 31.0925 57.1452 31.1013 57.1032 31.1187C56.922 31.1958 56.9243 31.4136 57.0322 31.5065C57.0762 31.5412 57.1255 31.5685 57.1783 31.5873C57.2137 31.5995 57.2478 31.6153 57.2801 31.6343C57.3027 31.6492 57.3182 31.6691 57.314 31.6983C57.3122 31.7123 57.3063 31.7255 57.2969 31.7361C57.2876 31.7468 57.2753 31.7544 57.2616 31.758C57.2371 31.7656 57.2109 31.7664 57.1859 31.7604C57.1314 31.748 57.0913 31.7141 57.0567 31.6728C57.0473 31.6618 57.0428 31.6634 57.0339 31.6728C56.9981 31.7086 56.9617 31.7439 56.9252 31.7789C56.918 31.7857 56.9174 31.7897 56.9252 31.7973C57.0313 31.9113 57.162 31.9538 57.3129 31.9186C57.4825 31.8789 57.5329 31.7259 57.4985 31.6042C57.4788 31.5344 57.4288 31.4911 57.3674 31.4585C57.3253 31.4361 57.2803 31.4203 57.2366 31.4016C57.213 31.3932 57.1912 31.3805 57.1721 31.3642C57.1649 31.3583 57.1593 31.3507 57.1559 31.342C57.1524 31.3333 57.1512 31.3239 57.1525 31.3147C57.1537 31.3054 57.1572 31.2966 57.1628 31.2892C57.1683 31.2817 57.1757 31.2757 57.1842 31.2719C57.2076 31.2595 57.2346 31.2555 57.2606 31.2605C57.3104 31.2688 57.347 31.2987 57.378 31.3362C57.3875 31.3475 57.3929 31.3485 57.4035 31.3377C57.4371 31.304 57.4715 31.271 57.5067 31.2389C57.5177 31.2289 57.5186 31.2231 57.5085 31.2122C57.4341 31.1324 57.3423 31.0956 57.2357 31.0928V31.0929ZM57.9367 29.8981C57.9367 29.8751 57.9367 29.8567 57.9367 29.8384C57.9367 29.8277 57.9352 29.8235 57.9225 29.8235C57.8658 29.8242 57.8093 29.8235 57.7526 29.8235C57.7412 29.8235 57.7377 29.8263 57.7377 29.8384C57.7377 30.087 57.7377 30.3356 57.7377 30.5841C57.7377 30.5967 57.7415 30.6001 57.7538 30.6C57.8087 30.6 57.8635 30.5991 57.9179 30.6C57.9328 30.6 57.9364 30.5959 57.9364 30.5813C57.9364 30.4389 57.9376 30.2964 57.9349 30.154C57.9341 30.1372 57.9374 30.1205 57.9445 30.1052C57.9516 30.09 57.9623 30.0767 57.9756 30.0664C57.9927 30.0515 58.0121 30.0395 58.033 30.0309C58.0846 30.0113 58.141 30.0082 58.1944 30.0221C58.2056 30.0247 58.2076 30.0221 58.2074 30.0119C58.2074 29.9522 58.2074 29.8925 58.2074 29.8329C58.2074 29.8212 58.2031 29.818 58.1925 29.8153C58.1399 29.803 58.0848 29.8078 58.0351 29.8288C57.9984 29.8453 57.9651 29.8688 57.9373 29.8979L57.9367 29.8981ZM58.76 31.1978C58.76 31.1757 58.759 31.1578 58.76 31.14C58.7612 31.1259 58.7557 31.1235 58.7429 31.1236C58.6881 31.1236 58.6332 31.1244 58.5788 31.1236C58.5657 31.1236 58.5619 31.1265 58.5619 31.1402C58.5619 31.3877 58.5619 31.6351 58.5619 31.8825C58.5619 31.8974 58.5664 31.8988 58.5789 31.8986C58.632 31.8979 58.6851 31.8976 58.7381 31.8986C58.7552 31.8986 58.7609 31.8958 58.7608 31.877C58.7597 31.7362 58.7618 31.5955 58.7591 31.4547C58.7582 31.4374 58.7616 31.42 58.769 31.4043C58.7764 31.3885 58.7876 31.3749 58.8016 31.3645C58.8108 31.3569 58.8204 31.35 58.8306 31.3438C58.8883 31.3095 58.9499 31.3081 59.0139 31.3207C59.0268 31.3233 59.0315 31.3226 59.0312 31.3075C59.0303 31.2497 59.0303 31.1918 59.0312 31.1341C59.0312 31.1206 59.0258 31.1169 59.0145 31.1144C58.9606 31.1024 58.9043 31.1082 58.854 31.1309C58.8191 31.1474 58.7875 31.17 58.7606 31.1976L58.76 31.1978ZM60.0078 31.5117C60.0078 31.6356 60.0078 31.7596 60.0078 31.8836C60.0078 31.8944 60.0096 31.8985 60.0227 31.8985C60.0799 31.8977 60.1371 31.8977 60.1943 31.8985C60.2068 31.8985 60.2092 31.8941 60.2092 31.8836C60.2092 31.6359 60.2092 31.388 60.2092 31.14C60.2092 31.1251 60.2044 31.1236 60.1919 31.1238C60.137 31.1238 60.0822 31.1245 60.0278 31.1238C60.0129 31.1238 60.009 31.1271 60.009 31.1423C60.0087 31.2649 60.0084 31.3882 60.0084 31.5116L60.0078 31.5117ZM59.9792 30.8729C59.9791 30.9066 59.9924 30.9389 60.0162 30.9628C60.0399 30.9867 60.0721 31.0002 60.1058 31.0004C60.1232 31.0017 60.1406 30.9993 60.1571 30.9936C60.1735 30.9878 60.1886 30.9787 60.2013 30.9669C60.2141 30.955 60.2243 30.9407 60.2313 30.9247C60.2383 30.9088 60.242 30.8915 60.242 30.8741C60.2421 30.8567 60.2386 30.8395 60.2317 30.8235C60.2248 30.8075 60.2147 30.793 60.202 30.7811C60.1893 30.7692 60.1743 30.76 60.1579 30.7541C60.1415 30.7482 60.1241 30.7457 60.1067 30.7469C60.0733 30.747 60.0412 30.7603 60.0174 30.7838C59.9937 30.8074 59.9802 30.8393 59.9798 30.8728L59.9792 30.8729ZM60.459 27.6826C60.4671 27.6861 60.4729 27.6826 60.4788 27.6802C60.5264 27.6676 60.5741 27.6596 60.6231 27.6724C60.639 27.6766 60.6407 27.6805 60.6301 27.6934C60.6215 27.7034 60.611 27.7115 60.5992 27.7173C60.5796 27.7289 60.561 27.7421 60.5436 27.7568C60.5322 27.7656 60.5275 27.7807 60.5087 27.7773C60.504 27.7764 60.4969 27.7773 60.4955 27.7835C60.4942 27.7898 60.5014 27.7901 60.5042 27.7935C60.5206 27.8126 60.5503 27.7992 60.5673 27.8195C60.5701 27.8229 60.5777 27.8231 60.5776 27.8311C60.5779 27.8348 60.5767 27.8384 60.5743 27.8412C60.5719 27.844 60.5685 27.8457 60.5649 27.846C60.5556 27.8477 60.5462 27.8484 60.5351 27.8499C60.5543 27.8562 60.5747 27.8582 60.5947 27.8556C60.6314 27.8536 60.635 27.8492 60.6341 27.8128C60.6333 27.8087 60.6333 27.8045 60.6341 27.8004C60.6389 27.7855 60.629 27.7688 60.6442 27.7556C60.6513 27.7504 60.6592 27.7463 60.6677 27.7437C60.6757 27.7407 60.6826 27.7346 60.6739 27.7267C60.6653 27.7188 60.6692 27.7137 60.6765 27.7078C60.6897 27.6984 60.6994 27.6848 60.7038 27.6691C60.706 27.659 60.7054 27.6484 60.6951 27.6447C60.6725 27.634 60.648 27.6281 60.6231 27.6274C60.5765 27.6308 60.531 27.6427 60.4888 27.6626C60.4779 27.6673 60.468 27.674 60.4596 27.6824L60.459 27.6826Z" fill="#FEFEFE"/>
<path d="M58.8052 28.6631L58.7855 28.6752C58.7687 28.6855 58.7505 28.6932 58.7469 28.7174C58.7425 28.7302 58.736 28.7422 58.7277 28.7529C58.7596 28.7579 58.7623 28.7192 58.7885 28.7181C58.7886 28.7246 58.7869 28.7309 58.7836 28.7365C58.7804 28.742 58.7757 28.7466 58.77 28.7497C58.7443 28.7624 58.7242 28.7843 58.7141 28.8112C58.7067 28.8272 58.6974 28.8422 58.6864 28.8559C58.6956 28.86 58.6995 28.8539 58.7037 28.8497C58.734 28.8178 58.7672 28.7888 58.8029 28.7629C58.8457 28.7321 58.8825 28.6919 58.9383 28.6811C59.005 28.6683 59.0706 28.6501 59.1393 28.6543C59.1699 28.6568 59.2005 28.6501 59.2272 28.635C59.2431 28.6257 59.2612 28.6295 59.2767 28.6221C59.2999 28.6099 59.322 28.5957 59.3428 28.5797C59.3608 28.5661 59.3801 28.5541 59.4004 28.5439C59.4108 28.5391 59.4208 28.532 59.4338 28.5388C59.4408 28.5426 59.4455 28.5353 59.4505 28.5312C59.4755 28.5101 59.5 28.4881 59.5335 28.481C59.5352 28.4804 59.537 28.4799 59.5388 28.4796C59.5498 28.4796 59.5649 28.4714 59.5705 28.4859C59.5752 28.4978 59.5586 28.4992 59.5523 28.5059C59.5461 28.5126 59.5388 28.5168 59.5329 28.5238C59.5546 28.5238 59.5658 28.5036 59.5847 28.498C59.5856 28.5012 59.5853 28.5047 59.5839 28.5078C59.5826 28.5109 59.5802 28.5134 59.5772 28.515C59.5149 28.5622 59.4587 28.617 59.41 28.6782C59.3461 28.7577 59.2634 28.809 59.1726 28.8506C59.1019 28.8829 59.0316 28.9168 58.9617 28.951C58.9397 28.9616 58.9186 28.9739 58.8986 28.9879C58.886 28.9966 58.8708 29.001 58.8555 29.0003C58.2326 29.0003 57.6097 29.0003 56.9866 29.0003C56.969 29.0003 56.9641 28.9967 56.9641 28.9781C56.9641 28.2936 56.9641 27.6091 56.9641 26.9247C56.9641 26.9074 56.9672 26.9019 56.9862 26.9019C57.8719 26.9019 58.7578 26.9019 59.6438 26.9019H59.6624C59.6223 26.9201 59.5825 26.9365 59.5431 26.954C59.4596 26.991 59.4077 27.0561 59.3744 27.1388C59.3728 27.1444 59.3694 27.1494 59.3647 27.1529C59.3189 27.1828 59.2888 27.2263 59.2621 27.2723C59.2414 27.3083 59.2206 27.3444 59.2006 27.381C59.1741 27.4298 59.1783 27.4811 59.19 27.5324C59.2059 27.6014 59.2142 27.672 59.2348 27.74C59.2369 27.7505 59.2378 27.7613 59.2376 27.7721C59.2411 27.7954 59.2487 27.8179 59.26 27.8386C59.2673 27.8505 59.2731 27.8633 59.2772 27.8768C59.2794 27.8841 59.2838 27.8907 59.2897 27.8957C59.3153 27.9224 59.3384 27.9513 59.3587 27.9822C59.3635 27.9904 59.3737 27.9995 59.366 28.0094C59.3584 28.0192 59.3473 28.0137 59.3373 28.0123C59.3089 28.0072 59.2828 27.9934 59.2627 27.9727C59.2461 27.9578 59.2302 27.9416 59.213 27.9252C59.2078 27.9346 59.2139 27.939 59.2178 27.9433C59.2297 27.9566 59.2423 27.9694 59.2539 27.983C59.2575 27.9861 59.2601 27.9904 59.2611 27.9952C59.262 27.9999 59.2615 28.0048 59.2594 28.0092C59.2537 28.0191 59.2436 28.0183 59.2337 28.0165H59.2303C59.2035 28.012 59.2014 28.0137 59.1987 28.0422C59.1804 28.0351 59.1609 28.0314 59.1413 28.0311C59.1358 28.031 59.1305 28.0295 59.1258 28.0267C59.1211 28.0239 59.1172 28.0199 59.1146 28.0152C59.1107 28.0082 59.1052 28.0022 59.0985 27.9978C59.0918 27.9934 59.0842 27.9906 59.0762 27.9897C58.9816 27.968 58.8851 27.9554 58.7881 27.9522C58.7493 27.9495 58.7104 27.9567 58.6751 27.9733C58.6399 27.9898 58.6095 28.015 58.5867 28.0466C58.5826 28.0522 58.5745 28.0581 58.58 28.0648C58.5855 28.0716 58.5934 28.0675 58.5999 28.0638C58.6825 28.0159 58.7756 28.0041 58.8668 27.9864C58.8809 27.984 58.8952 27.9833 58.9095 27.9843C58.9096 27.9854 58.9096 27.9865 58.9095 27.9876C58.8729 27.9926 58.8369 28.0012 58.8021 28.0135C58.7614 28.0268 58.7193 28.0347 58.6777 28.0449C58.6608 28.0488 58.6445 28.0549 58.6292 28.0631C58.6655 28.0622 58.7017 28.0634 58.7378 28.0666C58.834 28.0781 58.9284 28.0956 59.014 28.1446C59.026 28.1513 59.037 28.1594 59.047 28.1688C59.0579 28.1798 59.0715 28.1878 59.0864 28.1919C59.1013 28.1961 59.117 28.1964 59.132 28.1927C59.1595 28.188 59.1867 28.1818 59.2135 28.1739C59.2499 28.1644 59.2836 28.1465 59.3119 28.1217C59.3147 28.1188 59.3176 28.1153 59.3225 28.1182C59.3274 28.1212 59.3253 28.1257 59.3241 28.1293C59.3158 28.157 59.3128 28.1864 59.2951 28.2112C59.2865 28.2231 59.2928 28.2344 59.31 28.241C59.2964 28.2477 59.281 28.2474 59.27 28.2568C59.2667 28.2596 59.2551 28.2616 59.2655 28.2701C59.267 28.2711 59.2672 28.2738 59.2655 28.274C59.2496 28.2754 59.2506 28.2878 59.2473 28.299C59.2454 28.3059 59.2324 28.3045 59.2281 28.3139C59.2346 28.3218 59.2442 28.3154 59.254 28.3188C59.221 28.3359 59.1868 28.3508 59.1519 28.3636C59.1455 28.3655 59.1395 28.3676 59.1414 28.3751C59.1434 28.3825 59.1505 28.3764 59.1553 28.3784C59.1543 28.3846 59.148 28.3851 59.144 28.3875C59.1044 28.4095 59.0646 28.4309 59.0254 28.4532C59.0123 28.4607 58.9956 28.4649 58.9906 28.4819C58.9891 28.486 58.9847 28.485 58.9812 28.4849C58.9663 28.4849 58.9663 28.4981 58.9663 28.5048C58.9681 28.5162 58.9784 28.5092 58.9853 28.508C58.9956 28.5063 59.0057 28.4978 59.0194 28.5093C58.9896 28.5129 58.9715 28.5329 58.9502 28.5503C59.0163 28.5423 59.0824 28.5448 59.1456 28.5268C59.227 28.5036 59.2948 28.4558 59.3555 28.3989C59.3583 28.3959 59.3613 28.3929 59.3644 28.3901C59.3707 28.3852 59.3769 28.3721 59.3826 28.3763C59.391 28.3828 59.3826 28.3936 59.3784 28.4018C59.3647 28.4324 59.3419 28.4582 59.3131 28.4755C59.2945 28.4872 59.2767 28.5005 59.2593 28.5135C59.2187 28.5433 59.1716 28.552 59.125 28.5609C59.0525 28.5746 58.9787 28.58 58.9073 28.6C58.8645 28.6109 58.8241 28.6295 58.7879 28.6547C58.7773 28.6625 58.7624 28.6588 58.7536 28.6697C58.7509 28.6731 58.7439 28.675 58.7474 28.6805C58.7508 28.6861 58.7562 28.6835 58.7605 28.6805C58.7732 28.6718 58.787 28.6646 58.8014 28.6591L58.8052 28.6631ZM58.6492 28.4068C58.6555 28.4095 58.6622 28.4109 58.669 28.4109C58.6758 28.4109 58.6825 28.4095 58.6887 28.4068C58.7163 28.3973 58.7433 28.3845 58.7739 28.3873C58.7769 28.3871 58.7798 28.3865 58.7826 28.3854C58.8161 28.3779 58.85 28.3705 58.8834 28.3627C58.9391 28.3495 58.9931 28.3301 59.0445 28.3048C58.9445 28.2291 58.8269 28.2025 58.7111 28.1688C58.7143 28.1655 58.7207 28.1676 58.7207 28.1627C58.7207 28.1578 58.7153 28.1569 58.7119 28.156C58.7014 28.1533 58.6908 28.1516 58.6805 28.1493C58.6771 28.1493 58.6704 28.1493 58.6713 28.1461C58.6768 28.1288 58.6609 28.1327 58.6549 28.1312C58.6325 28.1248 58.6094 28.1206 58.5845 28.1153C58.5966 28.109 58.6064 28.1033 58.6103 28.0917C58.6124 28.0857 58.6167 28.079 58.6103 28.0738C58.6039 28.0686 58.5993 28.0738 58.594 28.0765C58.5645 28.0939 58.5404 28.1191 58.5244 28.1494C58.5169 28.1624 58.5011 28.1792 58.5084 28.1901C58.5157 28.201 58.5383 28.1991 58.5553 28.1989C58.5663 28.197 58.5776 28.1974 58.5885 28.2001C58.5825 28.2058 58.5748 28.2095 58.5666 28.2107C58.5554 28.212 58.5444 28.2148 58.5339 28.2191C58.5242 28.2247 58.5181 28.2311 58.5312 28.2402C58.5238 28.2452 58.5145 28.2461 58.5107 28.2552C58.5142 28.2579 58.5184 28.2598 58.5228 28.2606C58.5272 28.2614 58.5317 28.2612 58.536 28.2599C58.5415 28.2578 58.5476 28.2578 58.5531 28.2598C58.5586 28.2619 58.5631 28.2659 58.5658 28.2711C58.5301 28.286 58.5221 28.3281 58.4913 28.3476C58.4906 28.3482 58.49 28.3489 58.4897 28.3498C58.4893 28.3506 58.4891 28.3515 58.4892 28.3524C58.4907 28.3625 58.4837 28.3673 58.4771 28.3722C58.4543 28.3904 58.4324 28.4106 58.4085 28.4267C58.3846 28.4428 58.381 28.4781 58.3548 28.4938C58.3538 28.4943 58.353 28.4949 58.3523 28.4957C58.3516 28.4965 58.3511 28.4974 58.3508 28.4984C58.3504 28.4994 58.3503 28.5005 58.3504 28.5015C58.3505 28.5026 58.3509 28.5036 58.3514 28.5045C58.3548 28.5095 58.359 28.5057 58.3626 28.5045C58.3708 28.5012 58.3789 28.4975 58.3867 28.4932C58.4261 28.4684 58.4671 28.4462 58.5095 28.4268C58.5573 28.4065 58.6031 28.3849 58.6567 28.396C58.6576 28.3964 58.6584 28.397 58.6591 28.3977C58.6586 28.4037 58.6504 28.4003 58.6492 28.4068ZM58.7034 27.8903C58.6844 27.882 58.6638 27.8782 58.6431 27.8792C58.6224 27.8802 58.6022 27.8859 58.584 27.8959C58.51 27.9383 58.4432 27.9923 58.3863 28.0559C58.3496 28.0976 58.3072 28.1338 58.2604 28.1636C58.2511 28.1688 58.2437 28.1768 58.2391 28.1864C58.2076 28.2479 58.1709 28.3066 58.1293 28.3618C58.1262 28.366 58.1197 28.3693 58.122 28.3767C58.1288 28.3776 58.1308 28.3718 58.1339 28.3682C58.1739 28.3235 58.2141 28.2801 58.2576 28.2392C58.3063 28.1928 58.3594 28.151 58.416 28.1145C58.4221 28.1105 58.4268 28.1088 58.4322 28.1145C58.4376 28.1202 58.4286 28.1221 58.4274 28.1261C58.4262 28.1302 58.4239 28.1311 58.4228 28.1338C58.4218 28.1364 58.4149 28.144 58.4195 28.1478C58.4242 28.1515 58.4313 28.1461 58.4356 28.1414C58.4376 28.1391 58.4385 28.1358 58.4407 28.1339C58.4489 28.1264 58.4474 28.1115 58.4547 28.1068C58.4826 28.0883 58.4971 28.0605 58.5116 28.0322C58.5228 28.0087 58.5387 27.9877 58.5582 27.9704C58.587 27.9464 58.6192 27.9269 58.6468 27.8999C58.6497 27.9057 58.6491 27.9158 58.6568 27.9115C58.6713 27.9039 58.6893 27.9042 58.7034 27.8903ZM58.6658 28.6186C58.6394 28.6061 58.6154 28.6143 58.593 28.6089C58.5829 28.6069 58.5724 28.6082 58.5632 28.6127C58.5463 28.6202 58.5285 28.6256 58.5102 28.6288C58.458 28.6372 58.4108 28.6646 58.3775 28.7056C58.3734 28.7102 58.3496 28.7151 58.3724 28.7278C58.3724 28.7278 58.3708 28.7321 58.3705 28.7344C58.3683 28.7498 58.3622 28.7644 58.3529 28.7769C58.3414 28.7927 58.3293 28.8082 58.3169 28.8236C58.3126 28.8291 58.3102 28.8345 58.3169 28.8385C58.3236 28.8425 58.3241 28.8351 58.3271 28.8321C58.3454 28.8142 58.3582 28.7873 58.3906 28.7911C58.3927 28.7911 58.3954 28.7878 58.3975 28.7857C58.4195 28.7605 58.4472 28.741 58.4783 28.7287C58.5456 28.7043 58.5978 28.6519 58.6658 28.6186ZM58.8096 28.4441C58.7897 28.4292 58.7706 28.4244 58.7499 28.4392C58.7436 28.4424 58.7369 28.4447 58.7299 28.4459C58.7242 28.4475 58.719 28.4507 58.715 28.455C58.7125 28.4582 58.7086 28.4619 58.7113 28.4659C58.714 28.4699 58.7177 28.4681 58.721 28.4677C58.7442 28.4641 58.7675 28.4607 58.7906 28.4564C58.7983 28.4549 58.8051 28.4505 58.8096 28.4441ZM58.6343 28.7116C58.6343 28.7093 58.6316 28.7083 58.6285 28.7078C58.625 28.7074 58.6214 28.7079 58.6181 28.7092C58.6148 28.7105 58.6118 28.7126 58.6095 28.7153C58.5966 28.7281 58.5832 28.7405 58.5702 28.7535C58.5669 28.7568 58.5587 28.7596 58.5638 28.7654C58.5648 28.7665 58.5661 28.7673 58.5675 28.7679C58.5689 28.7685 58.5704 28.7688 58.5719 28.7688C58.5734 28.7688 58.5749 28.7685 58.5763 28.7679C58.5777 28.7673 58.579 28.7665 58.58 28.7654C58.5895 28.7565 58.6007 28.7497 58.613 28.7454C58.6273 28.739 58.6288 28.725 58.6343 28.7116Z" fill="#273375"/>
<path d="M60.7511 28.2247C60.7661 28.2152 60.779 28.2085 60.7902 28.2C60.8113 28.1842 60.8138 28.1687 60.8007 28.1457L60.7969 28.1396C60.7784 28.1054 60.7747 28.0786 60.8278 28.0678C60.8324 28.0668 60.8371 28.0656 60.8415 28.0642C60.8814 28.0525 60.8949 28.0259 60.8779 27.9879C60.8579 27.9493 60.8345 27.9127 60.808 27.8783C60.7916 27.8541 60.7752 27.8301 60.7604 27.8049C60.7428 27.7769 60.7368 27.7431 60.7437 27.7108C60.757 27.6486 60.7449 27.5874 60.7288 27.5274C60.7162 27.4817 60.7016 27.4363 60.6875 27.391C60.6841 27.3821 60.68 27.3735 60.6751 27.3653C60.6728 27.3624 60.6712 27.3589 60.6704 27.3553C60.6696 27.3517 60.6695 27.3479 60.6703 27.3442C60.6711 27.3406 60.6726 27.3371 60.6748 27.3341C60.677 27.3311 60.6799 27.3286 60.6831 27.3268C60.6934 27.3188 60.7039 27.3107 60.713 27.3018C60.7174 27.2976 60.7209 27.2925 60.7232 27.2868C60.7254 27.2811 60.7263 27.275 60.7258 27.2689C60.7253 27.2628 60.7235 27.2569 60.7204 27.2516C60.7173 27.2463 60.7131 27.2418 60.708 27.2384C60.7062 27.2366 60.7039 27.2353 60.7015 27.2345C60.699 27.2338 60.6964 27.2337 60.6939 27.2343C60.6913 27.2348 60.689 27.2359 60.687 27.2376C60.685 27.2392 60.6835 27.2414 60.6825 27.2438C60.6788 27.2525 60.6738 27.2607 60.6676 27.2679C60.6655 27.2705 60.6624 27.2721 60.6591 27.2724C60.6558 27.2727 60.6525 27.2717 60.6499 27.2696C60.6451 27.2654 60.6499 27.2599 60.6526 27.2554C60.6642 27.239 60.6642 27.2391 60.6445 27.2353C60.64 27.235 60.6357 27.2339 60.6317 27.2319C60.6277 27.2299 60.6241 27.2272 60.6212 27.2238C60.5884 27.181 60.5444 27.1481 60.4942 27.1286C60.4919 27.1277 60.4898 27.1266 60.4877 27.1253C60.4877 27.1253 60.4877 27.1243 60.4877 27.1221C60.4977 27.1229 60.5073 27.1237 60.5176 27.1247C60.5336 27.1267 60.5497 27.127 60.5658 27.1256C60.5789 27.1256 60.5918 27.1212 60.6022 27.1131C60.6126 27.105 60.62 27.0937 60.6233 27.0809C60.6373 27.0339 60.6299 27.0063 60.5902 26.9734C60.5596 26.9478 60.5229 26.9332 60.4889 26.9137L60.4731 26.9049C60.4793 26.9016 60.4864 26.9005 60.4933 26.9019C61.2191 26.9019 61.945 26.9019 62.6709 26.9019C62.6874 26.9019 62.6928 26.905 62.6928 26.9229C62.6928 27.609 62.6928 28.2947 62.6928 28.9799C62.6928 28.9967 62.6879 29.0002 62.6719 29.0002C61.9549 28.9998 61.2384 28.9996 60.5225 28.9996C60.512 28.9996 60.5017 28.9968 60.4927 28.9915C60.4118 28.9468 60.3247 28.916 60.2378 28.8855C60.2329 28.8833 60.228 28.8816 60.2229 28.8803C60.1899 28.8752 60.1794 28.8516 60.1772 28.823C60.1665 28.6907 60.2114 28.5811 60.3144 28.4969C60.3389 28.4794 60.3691 28.4717 60.399 28.4755C60.4551 28.4787 60.5095 28.4931 60.5649 28.5005C60.5798 28.5025 60.5936 28.5077 60.608 28.5105C60.6273 28.5147 60.6473 28.5147 60.6666 28.5106C60.6859 28.5065 60.7042 28.4983 60.7201 28.4866C60.7383 28.4713 60.7511 28.4506 60.7566 28.4275C60.7621 28.4044 60.76 28.3801 60.7507 28.3582C60.7469 28.3521 60.7455 28.3447 60.7469 28.3376C60.7482 28.3304 60.7522 28.3241 60.758 28.3197C60.7668 28.312 60.7762 28.3048 60.7853 28.2968C60.7903 28.2925 60.7937 28.2866 60.7947 28.2802C60.7958 28.2737 60.7945 28.267 60.7911 28.2614C60.7882 28.2524 60.783 28.2443 60.776 28.2378C60.769 28.2314 60.7604 28.2269 60.7511 28.2247Z" fill="#E20613"/>
<path d="M61.3633 30.2524C61.2794 30.2524 61.1952 30.2524 61.1113 30.2524C61.0964 30.2524 61.095 30.2554 61.0974 30.2693C61.1153 30.3788 61.1943 30.4492 61.3062 30.4537C61.3799 30.4565 61.4467 30.4398 61.5001 30.3853C61.5219 30.3631 61.5219 30.363 61.5463 30.3828C61.5796 30.4098 61.6126 30.4375 61.6466 30.4635C61.6588 30.4729 61.6563 30.4784 61.6481 30.4886C61.5841 30.5639 61.4941 30.6124 61.396 30.6244C61.2956 30.6385 61.1973 30.6291 61.1056 30.5818C60.9882 30.5212 60.9212 30.4226 60.8989 30.2944C60.8767 30.1832 60.8971 30.0678 60.956 29.971C61.017 29.8714 61.1086 29.8165 61.2231 29.7992C61.3073 29.7865 61.3899 29.7923 61.4667 29.8323C61.5663 29.8842 61.6211 29.9688 61.6384 30.0785C61.6461 30.1311 61.645 30.1846 61.6351 30.2368C61.633 30.2484 61.6285 30.2532 61.6154 30.253C61.5314 30.2516 61.4473 30.2524 61.3633 30.2524ZM61.2774 30.0926C61.3304 30.0926 61.3835 30.0926 61.4364 30.0926C61.4467 30.0926 61.4495 30.0903 61.4475 30.0794C61.4419 30.0468 61.4248 30.0174 61.3991 29.9965C61.3589 29.9637 61.3114 29.9565 61.2613 29.9594C61.2272 29.961 61.1944 29.973 61.1673 29.994C61.1403 30.0149 61.1204 30.0436 61.1104 30.0763C61.1066 30.0881 61.1074 30.093 61.1219 30.0927C61.1738 30.0917 61.2255 30.0921 61.2774 30.0921V30.0926Z" fill="#273375"/>
<path d="M61.6942 31.5511C61.6095 31.5511 61.5249 31.5511 61.4406 31.5511C61.4269 31.5511 61.4245 31.5538 61.4266 31.5678C61.4458 31.6912 61.5396 31.7596 61.67 31.7531C61.7397 31.7495 61.7998 31.7247 61.8439 31.6682C61.8481 31.6628 61.8509 31.6619 61.8566 31.6665C61.8981 31.7005 61.9397 31.7343 61.9814 31.7678C61.991 31.7754 61.9841 31.7799 61.9798 31.785C61.9273 31.8499 61.8545 31.8954 61.7731 31.9141C61.6396 31.9458 61.511 31.9343 61.3944 31.8572C61.2918 31.7887 61.2385 31.6894 61.2243 31.5694C61.2102 31.4707 61.2289 31.3701 61.2776 31.2831C61.3411 31.1714 61.4399 31.1124 61.5659 31.0968C61.6423 31.0849 61.7205 31.0961 61.7904 31.1292C61.8925 31.18 61.9486 31.2649 61.967 31.3758C61.9749 31.4278 61.9741 31.4806 61.9647 31.5323C61.9623 31.5463 61.9582 31.5518 61.9424 31.5517C61.8599 31.5501 61.7769 31.5511 61.6942 31.5511ZM61.4361 31.3931C61.5474 31.3931 61.6575 31.3931 61.7676 31.3931C61.7792 31.3931 61.7781 31.3878 61.7767 31.3799C61.7735 31.3598 61.7658 31.3407 61.7543 31.324C61.7427 31.3073 61.7276 31.2933 61.71 31.2832C61.6754 31.264 61.636 31.2553 61.5966 31.2582C61.5584 31.2588 61.5216 31.2726 61.4924 31.2971C61.4632 31.3217 61.4433 31.3556 61.4361 31.3931Z" fill="#E20714"/>
<path d="M58.1284 31.5511C58.0448 31.5511 57.9615 31.5511 57.8779 31.5511C57.8614 31.5511 57.8603 31.5563 57.863 31.5703C57.8851 31.6992 57.9841 31.7589 58.1063 31.7528C58.1759 31.749 58.2361 31.7241 58.2801 31.6674C58.2847 31.6613 58.2878 31.6625 58.2927 31.6665C58.3339 31.7003 58.3748 31.734 58.4164 31.7668C58.4268 31.775 58.42 31.7796 58.4155 31.7851C58.3711 31.8403 58.3116 31.8813 58.2443 31.9031C58.0996 31.9489 57.9591 31.9407 57.8298 31.8564C57.7295 31.7911 57.6772 31.6924 57.6615 31.5762C57.6466 31.4806 57.6622 31.3828 57.7063 31.2967C57.7683 31.1773 57.869 31.1138 58.0007 31.0969C58.0777 31.0845 58.1567 31.0958 58.2271 31.1293C58.3315 31.1818 58.3874 31.2695 58.4043 31.3829C58.4105 31.4314 58.4097 31.4806 58.4018 31.5289C58.3992 31.5468 58.3922 31.5514 58.3746 31.5511C58.2929 31.5501 58.2107 31.5511 58.1284 31.5511ZM58.0438 31.3932C58.0961 31.3932 58.1482 31.3932 58.2009 31.3932C58.2125 31.3932 58.2149 31.3905 58.2128 31.379C58.2075 31.3457 58.1898 31.3157 58.1634 31.2949C58.1263 31.2673 58.0803 31.2542 58.0342 31.258C57.9985 31.2584 57.9639 31.2702 57.9353 31.2916C57.9068 31.3131 57.8858 31.3431 57.8756 31.3773C57.8718 31.3891 57.8721 31.3936 57.8867 31.3933C57.9391 31.3927 57.9914 31.3932 58.0438 31.3932Z" fill="#E20714"/>
<path d="M56.9641 30.0605C56.9641 29.8876 56.9641 29.7148 56.9641 29.5419C56.9641 29.5262 56.9676 29.5223 56.9834 29.5223C57.1801 29.5229 57.3768 29.5229 57.5735 29.5223C57.5884 29.5223 57.5921 29.5262 57.592 29.541C57.5909 29.5953 57.5911 29.6494 57.592 29.7037C57.592 29.7179 57.5881 29.7216 57.5741 29.7215C57.4501 29.7215 57.3262 29.7215 57.2023 29.7215C57.1873 29.7215 57.1821 29.7249 57.1824 29.741C57.1835 29.8053 57.1833 29.8697 57.1824 29.934C57.1824 29.9489 57.1872 29.9525 57.2015 29.9524C57.3059 29.9524 57.409 29.9524 57.5126 29.9524C57.5276 29.9524 57.5304 29.9561 57.5301 29.9699C57.5293 30.0248 57.5293 30.0796 57.5301 30.134C57.5301 30.1479 57.5259 30.1504 57.5131 30.1504C57.4087 30.1504 57.3043 30.1504 57.1999 30.1504C57.1858 30.1504 57.182 30.154 57.1821 30.1682C57.1821 30.3058 57.1821 30.4435 57.1821 30.5812C57.1821 30.597 57.1782 30.601 57.1624 30.6007C57.1028 30.5997 57.0421 30.5998 56.9818 30.6007C56.9669 30.6007 56.963 30.5971 56.963 30.5821C56.9642 30.4073 56.9641 30.2338 56.9641 30.0605Z" fill="#273375"/>
<path d="M58.7698 30.5281C58.7231 30.5823 58.6577 30.617 58.5865 30.6253C58.4926 30.6362 58.4056 30.6194 58.3436 30.5406C58.253 30.4256 58.2924 30.2638 58.425 30.1949C58.4755 30.1708 58.5296 30.1551 58.5852 30.1485C58.6428 30.1392 58.7002 30.1289 58.7579 30.12C58.7682 30.1184 58.7698 30.1143 58.77 30.1051C58.7722 30.0144 58.706 29.9559 58.6098 29.9644C58.5811 29.966 58.5533 29.9743 58.5283 29.9885C58.5034 30.0027 58.4821 30.0225 58.4662 30.0463C58.4599 30.0553 58.4563 30.0568 58.4472 30.0496C58.4064 30.0177 58.3653 29.9862 58.3239 29.955C58.3154 29.9486 58.314 29.9446 58.3213 29.9356C58.3543 29.8947 58.3954 29.861 58.4421 29.8366C58.4887 29.8123 58.5399 29.7979 58.5923 29.7943C58.6607 29.7862 58.73 29.7958 58.7935 29.8221C58.9065 29.8714 58.9633 29.9609 58.9657 30.0814C58.9691 30.2481 58.9657 30.4152 58.9669 30.5821C58.9669 30.5956 58.9634 30.5989 58.9502 30.5988C58.8947 30.5979 58.8392 30.5988 58.7839 30.5988C58.7731 30.5988 58.7689 30.5965 58.7689 30.5851C58.7706 30.5678 58.7698 30.5499 58.7698 30.5281ZM58.7698 30.3133C58.7698 30.3027 58.7691 30.2918 58.7698 30.2812C58.7712 30.2684 58.767 30.2651 58.7542 30.2674C58.7121 30.2753 58.6699 30.2823 58.6277 30.2891C58.594 30.2924 58.561 30.3014 58.5303 30.3157C58.516 30.3227 58.5042 30.3339 58.4967 30.3479C58.4891 30.3619 58.4861 30.3779 58.4881 30.3937C58.4895 30.4102 58.4965 30.4257 58.5078 30.4377C58.5192 30.4498 58.5343 30.4576 58.5507 30.4599C58.5818 30.4662 58.6139 30.4648 58.6443 30.4561C58.6747 30.4473 58.7026 30.4313 58.7255 30.4095C58.7545 30.3841 58.7806 30.3569 58.7698 30.3133Z" fill="#273375"/>
<path d="M59.3667 29.8806C59.4046 29.8436 59.4515 29.8172 59.5028 29.8041C59.6157 29.7786 59.72 29.7931 59.805 29.8787C59.8584 29.9327 59.8806 30.0013 59.8894 30.0751C59.8937 30.1274 59.8949 30.1799 59.893 30.2323C59.893 30.3485 59.893 30.4648 59.893 30.581C59.893 30.595 59.8896 30.5989 59.8754 30.5988C59.8211 30.5979 59.767 30.5979 59.7127 30.5988C59.6978 30.5988 59.6949 30.5949 59.6949 30.581C59.6949 30.436 59.6949 30.2912 59.6949 30.1464C59.6953 30.1219 59.6916 30.0975 59.6841 30.0742C59.6599 30.0028 59.592 29.9649 59.5134 29.9777C59.4469 29.9887 59.4029 30.0295 59.3693 30.0845C59.3661 30.0915 59.3649 30.0994 59.3661 30.107C59.3661 30.2645 59.3661 30.4219 59.3661 30.5792C59.3661 30.5953 59.3619 30.5991 59.3464 30.5988C59.2909 30.5977 59.2354 30.5988 59.1801 30.5988C59.1695 30.5988 59.1652 30.5968 59.1652 30.5852C59.1652 30.3354 59.1652 30.0856 59.1652 29.8357C59.1652 29.826 59.1671 29.8224 59.1777 29.8226C59.2362 29.8226 59.2945 29.8226 59.3529 29.8226C59.362 29.8226 59.3658 29.8248 59.3653 29.8345C59.3661 29.8485 59.3667 29.8621 59.3667 29.8806Z" fill="#273375"/>
<path d="M60.3687 31.5134C60.3687 31.3296 60.4683 31.1775 60.6298 31.1216C60.7797 31.0696 60.9238 31.0825 61.0551 31.179C61.0771 31.1961 61.0971 31.2157 61.1147 31.2374C61.1208 31.2446 61.1235 31.2492 61.1134 31.2567C61.067 31.291 61.0212 31.3263 60.9757 31.3618C60.9672 31.3685 60.9639 31.3668 60.9581 31.3591C60.901 31.2861 60.8255 31.2621 60.7374 31.2846C60.6492 31.3071 60.5945 31.3669 60.5767 31.4554C60.5571 31.5533 60.5788 31.6412 60.6622 31.704C60.7064 31.7375 60.7621 31.7524 60.8171 31.7452C60.8721 31.7381 60.9222 31.7095 60.9563 31.6658C60.9639 31.6564 60.9681 31.6546 60.9781 31.6625C61.0222 31.6971 61.0666 31.7312 61.1114 31.7647C61.1213 31.772 61.1225 31.7762 61.1143 31.786C61.0814 31.8258 61.0409 31.8588 60.9952 31.8829C60.9495 31.907 60.8995 31.9218 60.848 31.9265C60.7453 31.938 60.647 31.9225 60.5579 31.8669C60.4476 31.7983 60.389 31.6962 60.3717 31.5686C60.3691 31.5503 60.3681 31.5318 60.3687 31.5134Z" fill="#E20714"/>
<path d="M60.4551 29.7925C60.591 29.7948 60.7003 29.8363 60.7843 29.9353C60.7926 29.9452 60.7938 29.9503 60.7823 29.9586C60.7376 29.9919 60.6928 30.0262 60.6488 30.0603C60.6412 30.0662 60.6371 30.069 60.6292 30.059C60.5722 29.9859 60.497 29.9622 60.4086 29.9844C60.3201 30.0066 60.2658 30.067 60.2481 30.1552C60.2284 30.2515 60.2496 30.3385 60.3305 30.4017C60.3747 30.4361 60.4307 30.4516 60.4863 30.4447C60.5418 30.4379 60.5924 30.4093 60.6269 30.3652C60.6344 30.356 60.6387 30.3542 60.649 30.3622C60.6928 30.3968 60.7374 30.4308 60.7823 30.4642C60.7926 30.4718 60.7925 30.4765 60.7846 30.486C60.7497 30.5278 60.7067 30.5619 60.6581 30.5862C60.6095 30.6106 60.5564 30.6247 60.5021 30.6276C60.4156 30.6364 60.3284 30.6198 60.2512 30.5797C60.1988 30.5527 60.1534 30.514 60.1183 30.4666C60.0833 30.4192 60.0596 30.3644 60.0491 30.3064C60.0229 30.1785 60.0436 30.0585 60.1223 29.9522C60.1886 29.8627 60.28 29.815 60.3887 29.7984C60.4139 29.7947 60.439 29.7938 60.4551 29.7925Z" fill="#273375"/>
<path d="M59.4942 31.6728C59.5528 31.5111 59.6103 31.3526 59.6677 31.1939C59.675 31.1737 59.6826 31.1538 59.6895 31.1335C59.69 31.1303 59.6918 31.1275 59.6944 31.1256C59.697 31.1237 59.7003 31.1229 59.7035 31.1233C59.7655 31.1233 59.8274 31.1233 59.8895 31.1233C59.9072 31.1233 59.8999 31.1324 59.8971 31.1402C59.8356 31.3092 59.7742 31.4785 59.7129 31.6481C59.6845 31.7262 59.6557 31.8044 59.628 31.8828C59.627 31.8879 59.624 31.8924 59.6197 31.8953C59.6154 31.8982 59.6101 31.8994 59.605 31.8985C59.5305 31.8985 59.4548 31.8985 59.3798 31.8985C59.3691 31.8985 59.3634 31.8967 59.3592 31.8852C59.2697 31.6366 59.1797 31.3886 59.089 31.1411C59.0839 31.1271 59.0851 31.1232 59.1011 31.1233C59.1588 31.1242 59.2166 31.1242 59.2744 31.1233C59.2801 31.1224 59.2859 31.1237 59.2907 31.127C59.2954 31.1303 59.2987 31.1353 59.2999 31.1409C59.3616 31.312 59.4238 31.4828 59.4865 31.6536C59.4884 31.6589 59.4908 31.6643 59.4942 31.6728Z" fill="#E20714"/>
<path d="M62.4103 31.0929C62.4614 31.0927 62.512 31.1032 62.5587 31.1238C62.6055 31.1443 62.6475 31.1745 62.6819 31.2122C62.6911 31.2224 62.6914 31.2283 62.681 31.2379C62.6442 31.2719 62.6081 31.3065 62.5723 31.3414C62.5644 31.3492 62.5611 31.3474 62.5548 31.3399C62.5225 31.3013 62.4856 31.2691 62.4337 31.2603C62.4095 31.2559 62.3845 31.259 62.3621 31.2692C62.3525 31.2727 62.344 31.2788 62.3376 31.2868C62.3312 31.2948 62.3271 31.3044 62.3257 31.3146C62.3244 31.3247 62.3259 31.3351 62.33 31.3444C62.3341 31.3538 62.3407 31.3619 62.3491 31.3678C62.3726 31.3851 62.3986 31.3989 62.4261 31.4085C62.4765 31.4266 62.5251 31.4492 62.5714 31.4762C62.6245 31.5107 62.6627 31.5562 62.6758 31.6194C62.7056 31.7605 62.6254 31.8886 62.4844 31.9192C62.3353 31.9514 62.2066 31.9115 62.1011 31.7999C62.093 31.7915 62.0919 31.7863 62.1011 31.7774C62.1375 31.7431 62.1733 31.7083 62.2086 31.673C62.218 31.6634 62.2222 31.663 62.231 31.6737C62.2604 31.7124 62.3006 31.7414 62.3465 31.7572C62.3789 31.7684 62.4143 31.7674 62.4461 31.7545C62.4887 31.7365 62.511 31.6731 62.4571 31.6369C62.4266 31.6183 62.3943 31.6029 62.3606 31.5911C62.3217 31.5764 62.284 31.5585 62.248 31.5375C62.163 31.4852 62.1242 31.4087 62.1338 31.3102C62.1435 31.2094 62.2036 31.1462 62.296 31.1123C62.3326 31.0989 62.3713 31.0923 62.4103 31.0929Z" fill="#E20714"/>
<path d="M57.2349 31.0928C57.3415 31.0956 57.4332 31.1321 57.5065 31.2121C57.5166 31.223 57.5157 31.2288 57.5047 31.2388C57.4695 31.2708 57.4351 31.3037 57.4015 31.3375C57.3904 31.3484 57.3855 31.3474 57.376 31.336C57.3449 31.2986 57.3084 31.2686 57.2586 31.2604C57.2326 31.2553 57.2056 31.2593 57.1822 31.2717C57.1737 31.2756 57.1663 31.2815 57.1608 31.289C57.1552 31.2965 57.1516 31.3053 57.1504 31.3145C57.1492 31.3238 57.1504 31.3332 57.1538 31.3419C57.1573 31.3505 57.1629 31.3582 57.1701 31.3641C57.1891 31.3804 57.211 31.3931 57.2346 31.4015C57.2783 31.4201 57.324 31.436 57.3654 31.4583C57.4268 31.491 57.4768 31.5342 57.4965 31.6041C57.5309 31.7258 57.4805 31.8788 57.3109 31.9185C57.1604 31.9537 57.0298 31.9112 56.9231 31.7972C56.9161 31.7896 56.9167 31.7856 56.9231 31.7787C56.9597 31.7438 56.9961 31.7085 57.0319 31.6727C57.0408 31.6637 57.0453 31.6621 57.0547 31.6727C57.0893 31.714 57.1293 31.7472 57.1838 31.7602C57.2088 31.7663 57.235 31.7655 57.2596 31.7578C57.2733 31.7542 57.2856 31.7466 57.2949 31.736C57.3042 31.7254 57.3102 31.7122 57.312 31.6982C57.3161 31.6683 57.3006 31.6492 57.2781 31.6342C57.2458 31.6151 57.2117 31.5994 57.1762 31.5872C57.1235 31.5684 57.0742 31.5411 57.0302 31.5064C56.9216 31.4136 56.92 31.1958 57.1012 31.1186C57.1436 31.101 57.189 31.0922 57.2349 31.0928Z" fill="#E20714"/>
<path d="M57.9364 29.8979C57.9647 29.8685 57.9985 29.8449 58.0359 29.8286C58.0856 29.8075 58.1407 29.8028 58.1933 29.815C58.2037 29.8175 58.2082 29.821 58.2082 29.8326C58.2082 29.8922 58.2082 29.9519 58.2082 30.0116C58.2082 30.022 58.2064 30.0244 58.1952 30.0219C58.1418 30.0079 58.0854 30.011 58.0338 30.0307C58.0129 30.0392 57.9935 30.0512 57.9764 30.0662C57.9631 30.0764 57.9524 30.0897 57.9453 30.1049C57.9382 30.1202 57.9349 30.1369 57.9357 30.1537C57.9384 30.2961 57.9366 30.4386 57.9372 30.581C57.9372 30.5959 57.9338 30.6 57.9187 30.5997C57.8638 30.5986 57.8091 30.5989 57.7546 30.5997C57.7423 30.5997 57.7385 30.5964 57.7385 30.5839C57.7385 30.3353 57.7385 30.0867 57.7385 29.8381C57.7385 29.8262 57.742 29.8232 57.7534 29.8232C57.8101 29.8232 57.8666 29.8232 57.9233 29.8232C57.936 29.8232 57.9382 29.8278 57.9375 29.8381C57.936 29.8566 57.9364 29.8749 57.9364 29.8979Z" fill="#273375"/>
<path d="M58.7596 31.1976C58.7867 31.17 58.8185 31.1474 58.8536 31.1309C58.9039 31.1082 58.9602 31.1024 59.014 31.1144C59.0254 31.1169 59.0309 31.1207 59.0308 31.1341C59.0297 31.1919 59.0297 31.2497 59.0308 31.3075C59.0308 31.3225 59.0264 31.3234 59.0135 31.3207C58.9499 31.3081 58.8879 31.3095 58.8301 31.3438C58.82 31.35 58.8103 31.3569 58.8012 31.3645C58.7872 31.3749 58.776 31.3885 58.7686 31.4043C58.7612 31.42 58.7578 31.4374 58.7587 31.4548C58.7614 31.5956 58.7587 31.7362 58.7603 31.877C58.7603 31.8958 58.7548 31.8989 58.7377 31.8986C58.6847 31.8974 58.6316 31.8977 58.5785 31.8986C58.566 31.8986 58.5615 31.8967 58.5615 31.8825C58.5615 31.6351 58.5615 31.3877 58.5615 31.1402C58.5615 31.1265 58.5653 31.1233 58.5784 31.1236C58.6333 31.1244 58.6882 31.1236 58.7424 31.1236C58.7553 31.1236 58.7608 31.1259 58.7596 31.14C58.7586 31.1576 58.7596 31.1755 58.7596 31.1976Z" fill="#E20613"/>
<path d="M60.0075 31.5116C60.0075 31.3882 60.0075 31.2649 60.0075 31.1417C60.0075 31.1268 60.0116 31.1229 60.0263 31.1232C60.0811 31.1241 60.1358 31.1239 60.1904 31.1232C60.2029 31.1232 60.2079 31.1253 60.2077 31.1394C60.2077 31.3873 60.2077 31.6352 60.2077 31.883C60.2077 31.894 60.2058 31.8979 60.1928 31.8979C60.1357 31.8971 60.0784 31.8971 60.0213 31.8979C60.0089 31.8979 60.0063 31.8937 60.0063 31.883C60.0073 31.7594 60.0077 31.6356 60.0075 31.5116Z" fill="#E20714"/>
<path d="M59.9788 30.8728C59.979 30.8391 59.9925 30.8069 60.0164 30.7832C60.0403 30.7595 60.0726 30.7462 60.1063 30.7463C60.1237 30.7452 60.1411 30.7476 60.1575 30.7535C60.1739 30.7594 60.1889 30.7686 60.2016 30.7805C60.2143 30.7925 60.2244 30.8069 60.2313 30.8229C60.2381 30.8389 60.2417 30.8561 60.2416 30.8735C60.2415 30.891 60.2379 30.9082 60.2309 30.9241C60.2239 30.9401 60.2137 30.9544 60.2009 30.9663C60.1882 30.9781 60.1731 30.9872 60.1566 30.993C60.1402 30.9988 60.1228 31.0011 60.1054 30.9998C60.0718 30.9996 60.0396 30.9862 60.0159 30.9624C59.9922 30.9386 59.9788 30.9064 59.9788 30.8728Z" fill="#E20714"/>
<path d="M60.4586 27.6824C60.4673 27.6742 60.4774 27.6677 60.4884 27.6632C60.5307 27.6433 60.5762 27.6314 60.6227 27.628C60.6477 27.6285 60.6723 27.6343 60.695 27.6448C60.7053 27.6486 60.7059 27.6597 60.7037 27.6693C60.6993 27.6849 60.6897 27.6986 60.6764 27.7079C60.6691 27.7139 60.6641 27.7179 60.6738 27.7269C60.6835 27.7358 60.6756 27.7409 60.6676 27.7439C60.6591 27.7465 60.6512 27.7505 60.6442 27.7558C60.6292 27.7685 60.6388 27.7856 60.634 27.8005C60.6333 27.8046 60.6333 27.8088 60.634 27.8129C60.6349 27.8493 60.6313 27.8538 60.5946 27.8557C60.5746 27.8583 60.5542 27.8564 60.535 27.8501C60.5462 27.8486 60.5556 27.8478 60.5648 27.8462C60.5685 27.8459 60.5719 27.8441 60.5742 27.8413C60.5766 27.8385 60.5778 27.8349 60.5775 27.8313C60.5775 27.8232 60.57 27.8231 60.5672 27.8196C60.5502 27.7993 60.5205 27.8128 60.5041 27.7937C60.5013 27.7902 60.494 27.7891 60.4955 27.7837C60.497 27.7783 60.504 27.7765 60.5086 27.7774C60.5274 27.7808 60.5321 27.7658 60.5435 27.757C60.5608 27.7421 60.5793 27.7286 60.5988 27.7169C60.6106 27.7111 60.6211 27.703 60.6297 27.693C60.6403 27.68 60.6386 27.6761 60.6227 27.672C60.5738 27.6591 60.526 27.6672 60.4785 27.6797C60.4725 27.6817 60.4667 27.686 60.4586 27.6824Z" fill="#9E9E9D"/>
<path d="M58.9093 27.9876C58.9095 27.9865 58.9095 27.9854 58.9093 27.9843C58.9262 27.9814 58.9435 27.9814 58.9605 27.9843L58.9093 27.9876Z" fill="#9E9E9D"/>
<path d="M58.8152 28.658L58.8053 28.6643L58.801 28.6602L58.8125 28.6549L58.8152 28.658Z" fill="#273375"/>
<path d="M58.811 28.655C58.8147 28.6534 58.8182 28.6507 58.822 28.655L58.8141 28.6588L58.811 28.655Z" fill="#273375"/>
<path d="M58.8219 28.6556L58.8198 28.6524L58.8228 28.6512C58.8222 28.6525 58.8217 28.6538 58.8213 28.6552L58.8219 28.6556Z" fill="#273375"/>
<path d="M58.6488 28.4068C58.65 28.4003 58.6582 28.4037 58.6591 28.3977C58.6584 28.397 58.6576 28.3964 58.6567 28.3959C58.6031 28.3849 58.5573 28.4065 58.5095 28.4268C58.4666 28.4458 58.425 28.4677 58.3851 28.4923C58.3772 28.4966 58.3692 28.5003 58.3609 28.5036C58.3573 28.5051 58.3532 28.5089 58.3497 28.5036C58.3492 28.5027 58.3489 28.5017 58.3488 28.5006C58.3487 28.4996 58.3488 28.4985 58.3491 28.4975C58.3494 28.4965 58.35 28.4956 58.3507 28.4948C58.3514 28.494 58.3522 28.4934 58.3532 28.4929C58.3794 28.478 58.3815 28.4429 58.4068 28.4258C58.4322 28.4086 58.4526 28.3895 58.4755 28.3713C58.482 28.3661 58.489 28.3616 58.4875 28.3515C58.4875 28.3506 58.4877 28.3497 58.488 28.3489C58.4884 28.348 58.4889 28.3473 58.4896 28.3467C58.5209 28.3272 58.5289 28.2851 58.5642 28.2702C58.5615 28.265 58.5569 28.261 58.5514 28.2589C58.5459 28.2568 58.5398 28.2569 58.5344 28.259C58.5301 28.2603 58.5255 28.2605 58.5211 28.2597C58.5167 28.2589 58.5126 28.257 58.509 28.2543C58.5129 28.2453 58.5221 28.2444 58.5296 28.2393C58.5165 28.2302 58.5226 28.2244 58.5323 28.2182C58.5427 28.2139 58.5537 28.2111 58.5649 28.2098C58.5732 28.2086 58.5808 28.2049 58.5869 28.1992C58.576 28.1965 58.5647 28.1961 58.5536 28.198C58.5371 28.198 58.5151 28.2029 58.5068 28.1892C58.4984 28.1755 58.5153 28.1615 58.5227 28.1485C58.5391 28.1184 58.5634 28.0934 58.593 28.0763C58.5982 28.0733 58.604 28.0692 58.6092 28.0736C58.6145 28.0781 58.611 28.0856 58.6092 28.0915C58.6054 28.1032 58.5955 28.1088 58.5834 28.1151C58.6083 28.1205 58.6315 28.1246 58.6538 28.1311C58.6598 28.1327 58.6758 28.1288 58.6702 28.146C58.6694 28.1485 58.6761 28.1484 58.6795 28.1491C58.6898 28.1515 58.7004 28.1531 58.7108 28.1558C58.7142 28.1567 58.7198 28.1572 58.7196 28.1625C58.7195 28.1679 58.7132 28.1654 58.7101 28.1686C58.8258 28.2023 58.9435 28.2283 59.0434 28.3047C58.9921 28.3299 58.938 28.3493 58.8823 28.3625C58.8489 28.3709 58.8151 28.3775 58.7815 28.3852C58.7788 28.3863 58.7758 28.387 58.7729 28.3871C58.743 28.3843 58.7153 28.3971 58.6877 28.4067C58.6816 28.4093 58.6749 28.4107 58.6682 28.4107C58.6616 28.4107 58.6549 28.4094 58.6488 28.4068Z" fill="#FEFEFE"/>
<path d="M58.703 27.8903C58.6889 27.9042 58.6709 27.9039 58.6564 27.912C58.6487 27.9163 58.6493 27.9061 58.6464 27.9003C58.6188 27.9273 58.5868 27.9469 58.5578 27.9709C58.538 27.9881 58.5219 28.0092 58.5104 28.0328C58.4955 28.0608 58.4815 28.0886 58.4536 28.1073C58.4463 28.1121 58.4478 28.127 58.4396 28.1345C58.4373 28.1364 58.4364 28.1397 58.4345 28.1419C58.4302 28.1467 58.4251 28.1534 58.4184 28.1484C58.4117 28.1433 58.42 28.139 58.4217 28.1343C58.4233 28.1297 58.4255 28.1296 58.4263 28.1267C58.427 28.1239 58.4373 28.1221 58.4311 28.1151C58.4248 28.1081 58.4209 28.1106 58.4148 28.1151C58.3582 28.1513 58.3052 28.1928 58.2564 28.2389C58.213 28.2798 58.1727 28.3238 58.1328 28.3679C58.1296 28.3715 58.1277 28.3773 58.1208 28.3764C58.1186 28.3688 58.125 28.3655 58.1281 28.3615C58.1697 28.3063 58.2065 28.2476 58.2379 28.1861C58.2425 28.1765 58.25 28.1685 58.2592 28.1633C58.3061 28.1335 58.3485 28.0973 58.3851 28.0556C58.4423 27.9921 58.5094 27.9381 58.5836 27.8958C58.6018 27.8858 58.622 27.8801 58.6427 27.8792C58.6633 27.8782 58.684 27.882 58.703 27.8903Z" fill="#FEFEFE"/>
<path d="M58.6653 28.6186C58.5973 28.6519 58.5451 28.7043 58.4777 28.729C58.4466 28.7413 58.4189 28.7608 58.3968 28.786C58.3947 28.7881 58.3921 28.7915 58.39 28.7914C58.3576 28.7879 58.3452 28.8145 58.3264 28.8324C58.3235 28.8354 58.3218 28.8425 58.3163 28.8388C58.3108 28.8351 58.3124 28.8291 58.3163 28.8239C58.3287 28.809 58.3408 28.793 58.3522 28.7772C58.3616 28.7647 58.3677 28.7501 58.3698 28.7347C58.3698 28.7324 58.3721 28.7284 58.3718 28.7281C58.349 28.7154 58.3728 28.7105 58.3768 28.7059C58.4102 28.6648 58.4574 28.6375 58.5096 28.6291C58.5278 28.6259 58.5456 28.6205 58.5625 28.613C58.5718 28.6085 58.5823 28.6072 58.5924 28.6092C58.6149 28.6143 58.6389 28.6061 58.6653 28.6186Z" fill="#FEFEFE"/>
<path d="M58.8091 28.4441C58.8068 28.4473 58.8039 28.4501 58.8006 28.4522C58.7973 28.4543 58.7936 28.4557 58.7897 28.4564C58.7666 28.4607 58.7433 28.4641 58.72 28.4677C58.7167 28.4677 58.7117 28.4677 58.7103 28.4659C58.709 28.4641 58.7115 28.4581 58.7141 28.455C58.7181 28.4507 58.7233 28.4475 58.729 28.4459C58.7359 28.4447 58.7427 28.4424 58.749 28.4392C58.7701 28.4244 58.7892 28.4297 58.8091 28.4441Z" fill="#FEFEFE"/>
<path d="M58.6345 28.7116C58.629 28.7251 58.6274 28.7393 58.6129 28.7455C58.6006 28.7498 58.5892 28.7567 58.5797 28.7656C58.5786 28.7667 58.5773 28.7676 58.5759 28.7681C58.5745 28.7687 58.573 28.769 58.5715 28.769C58.57 28.769 58.5684 28.7687 58.567 28.7681C58.5656 28.7676 58.5644 28.7667 58.5633 28.7656C58.5582 28.7598 58.5664 28.7569 58.5697 28.7536C58.5828 28.7405 58.5964 28.728 58.6095 28.7151C58.6118 28.7123 58.6147 28.7102 58.6181 28.7089C58.6214 28.7076 58.625 28.7071 58.6286 28.7075C58.6317 28.7083 58.6343 28.7093 58.6345 28.7116Z" fill="#FEFEFE"/>
<path d="M61.2773 30.0921C61.2254 30.0921 61.1737 30.0921 61.1217 30.0921C61.1068 30.0921 61.1068 30.0875 61.1103 30.0757C61.1203 30.043 61.1402 30.0143 61.1672 29.9934C61.1943 29.9724 61.2271 29.9603 61.2612 29.9588C61.3113 29.9559 61.3587 29.9631 61.399 29.9959C61.4246 30.0168 61.4418 30.0462 61.4473 30.0788C61.4494 30.0897 61.4466 30.0921 61.4363 30.092C61.3834 30.092 61.3303 30.0921 61.2773 30.0921Z" fill="#FEFEFE"/>
<path d="M61.4362 31.3932C61.4435 31.3558 61.4634 31.322 61.4926 31.2976C61.5218 31.2732 61.5586 31.2595 61.5966 31.2589C61.6361 31.256 61.6755 31.2647 61.71 31.284C61.7276 31.2941 61.7428 31.308 61.7543 31.3247C61.7658 31.3415 61.7735 31.3606 61.7767 31.3806C61.7782 31.3885 61.7792 31.394 61.7676 31.3939C61.6575 31.393 61.5474 31.3932 61.4362 31.3932Z" fill="#FEFEFE"/>
<path d="M58.0437 31.3932C57.9914 31.3932 57.9393 31.3932 57.8867 31.3932C57.8718 31.3932 57.8718 31.389 57.8755 31.3772C57.8858 31.343 57.9067 31.313 57.9352 31.2915C57.9638 31.27 57.9985 31.2582 58.0342 31.2579C58.0803 31.2541 58.1262 31.2672 58.1633 31.2947C58.1898 31.3156 58.2074 31.3456 58.2127 31.3788C58.2148 31.3903 58.2127 31.3938 58.2008 31.393C58.1484 31.3929 58.0961 31.3932 58.0437 31.3932Z" fill="#FEFEFE"/>
<path d="M58.7698 30.3133C58.7806 30.3571 58.7549 30.3841 58.7251 30.4095C58.7021 30.4313 58.6743 30.4473 58.6439 30.4561C58.6134 30.4648 58.5813 30.4662 58.5503 30.4599C58.5339 30.4576 58.5188 30.4498 58.5074 30.4377C58.496 30.4257 58.4891 30.4102 58.4877 30.3937C58.4857 30.3779 58.4887 30.3619 58.4962 30.3479C58.5038 30.3339 58.5156 30.3227 58.5299 30.3157C58.5606 30.3014 58.5935 30.2924 58.6273 30.2891C58.6695 30.2818 58.7117 30.2753 58.7537 30.2674C58.7666 30.2651 58.7707 30.2684 58.7694 30.2812C58.7691 30.2918 58.7698 30.3027 58.7698 30.3133Z" fill="#FEFEFE"/>
<path d="M98.6191 18C99.1376 18.2055 99.6983 18.1632 100.233 18.2813C101.74 18.6155 103.172 19.1273 104.492 19.9406C104.726 20.0846 104.79 20.1902 104.636 20.4553C103.707 22.0556 102.791 23.6636 101.888 25.2794C101.726 25.5674 101.627 25.6116 101.331 25.4099C99.9576 24.4776 98.4577 24.0205 96.7956 24.4123C94.7571 24.8924 93.4704 26.6899 93.6269 28.7784C93.769 30.6585 95.4619 32.3033 97.4284 32.4896C98.1922 32.5745 98.9653 32.504 99.7013 32.2826C100.437 32.0612 101.121 31.6933 101.711 31.201C101.944 31.0089 102.022 31.0483 102.156 31.2874C103.06 32.9015 103.967 34.5137 104.896 36.1144C105.06 36.4024 105.038 36.533 104.772 36.7203C103.304 37.7573 101.649 38.3402 99.8981 38.5937C96.9857 39.0152 94.1867 38.6618 91.6623 37.016C89.0611 35.3212 87.6525 32.8775 87.2857 29.825C86.9496 27.026 87.4777 24.4171 89.1773 22.1155C90.9959 19.6516 93.5059 18.4196 96.5085 18.096C96.5709 18.0893 96.6343 18.0807 96.7006 18.072C97.244 18.0432 97.7923 18.1047 98.3329 18H98.6191ZM97.9095 35.2051C94.1147 35.1561 91.5164 33.0062 90.9959 29.3756C90.5571 26.3029 92.008 23.1256 95.3083 22.0002C97.0756 21.3791 99.0103 21.4345 100.739 22.1558C101.219 22.3478 101.211 21.9782 101.326 21.7775C101.505 21.4644 101.155 21.5048 101.027 21.452C100.155 21.0922 99.2244 20.8925 98.2811 20.8624C92.9202 20.6703 89.1677 25.1084 90.3853 30.2974C91.6422 35.6516 97.6262 37.0343 101.441 35.1772C101.641 35.0812 101.779 34.9919 101.594 34.7605C101.453 34.5857 101.438 34.2727 101.047 34.4897C100.08 35.0265 99.0128 35.2127 97.9095 35.2051Z" fill="#A30248"/>
<path d="M15 30.8524C15.2429 30.0919 15.2698 29.295 15.3735 28.5133C15.5358 27.2891 15.5128 27.2756 16.7457 27.2651C17.026 27.2651 17.1653 27.1931 17.173 26.9069C17.173 26.7792 17.1989 26.6525 17.2133 26.5228C17.317 25.5626 17.316 25.5377 16.3203 25.5626C15.9036 25.5751 15.8047 25.4512 15.8652 25.0575C16.0361 23.9539 16.1903 22.8478 16.328 21.7391C16.3587 21.4923 16.4442 21.3943 16.6833 21.427C16.6992 21.4289 16.7153 21.4289 16.7313 21.427C17.1201 21.3857 17.6252 21.6046 17.8691 21.3204C18.0813 21.0736 18.0227 20.5935 18.0794 20.2162C18.1466 19.7581 18.2205 19.3011 18.2714 18.8411C18.2983 18.602 18.3972 18.5156 18.6392 18.5175C19.8231 18.5271 21.0071 18.532 22.192 18.5175C22.5175 18.5175 22.5137 18.6693 22.48 18.9016C22.3735 19.6112 22.2688 20.3227 22.1766 21.0352C22.1584 21.1735 21.9846 21.4491 22.312 21.4116C22.5905 21.379 23.0379 21.6882 23.1311 21.1447C23.2591 20.4053 23.3628 19.6624 23.4422 18.916C23.4748 18.6116 23.5766 18.5108 23.8848 18.5156C25.0198 18.531 26.1554 18.531 27.2917 18.5156C27.6028 18.5156 27.718 18.5809 27.6585 18.916C27.5308 19.6381 27.4415 20.3669 27.3234 21.0909C27.2849 21.3262 27.307 21.4539 27.5961 21.4327C27.9148 21.4097 28.2365 21.4327 28.5563 21.4251C28.7656 21.4183 28.8328 21.4827 28.8011 21.7026C28.634 22.8548 28.4727 24.0071 28.3268 25.1651C28.2855 25.4858 28.1443 25.5645 27.8303 25.5597C26.7357 25.5463 26.7357 25.5597 26.5533 26.6361C26.4486 27.2497 26.4486 27.2497 27.1006 27.2497C27.9821 27.2497 27.9878 27.2497 27.8784 28.1139C27.7535 29.0952 27.6076 30.0737 27.4943 31.056C27.4635 31.3104 27.3877 31.4151 27.1102 31.4141C26.7146 31.4141 26.1951 31.2346 25.9579 31.4871C25.7208 31.7397 25.7909 32.2342 25.7294 32.625C25.6583 33.082 25.5873 33.5391 25.5278 33.9981C25.5009 34.2084 25.4145 34.2909 25.1888 34.2861C24.0058 34.2756 22.8219 34.2717 21.636 34.2861C21.322 34.2861 21.3028 34.1536 21.3393 33.9097C21.4469 33.1838 21.5314 32.4541 21.6533 31.7301C21.6956 31.4804 21.66 31.4007 21.3912 31.3959C20.7421 31.3825 20.7382 31.3681 20.6374 32.0239C20.5414 32.6394 20.4454 33.2549 20.3753 33.8723C20.3417 34.144 20.2792 34.2957 19.9441 34.289C18.7919 34.265 17.6396 34.2669 16.4874 34.289C16.159 34.2948 16.1138 34.1728 16.1561 33.8963C16.2694 33.1713 16.3481 32.4396 16.4797 31.7195C16.5335 31.4314 16.4394 31.3921 16.2003 31.4017C15.8008 31.417 15.4014 31.4151 15.0019 31.4199L15 30.8524ZM27.0372 23.2572C26.5456 23.2572 26.0655 23.2293 25.5911 23.2658C25.1869 23.2975 25.1523 23.1371 25.207 22.7982C25.3386 22.0118 25.4452 21.2196 25.5393 20.4274C25.5566 20.2891 25.738 20.0376 25.3703 20.0078C25.064 19.9819 25.0044 20.123 24.9708 20.3919C24.8652 21.2311 24.7135 22.0646 24.6136 22.9038C24.5791 23.1976 24.4696 23.2687 24.1931 23.2658C22.9621 23.2536 21.7304 23.2536 20.4982 23.2658C20.2207 23.2658 20.1323 23.1919 20.1746 22.9124C20.3026 22.0758 20.4188 21.2381 20.5231 20.3996C20.5404 20.2632 20.7046 20.0347 20.3714 20.0155C20.1458 20.002 19.9873 20.0155 19.9576 20.3141C19.8615 21.1543 19.7098 21.9878 19.6033 22.827C19.562 23.1506 19.4544 23.3071 19.0943 23.2696C18.7103 23.2331 18.3262 23.2783 17.9421 23.2562C17.654 23.2389 17.6031 23.381 17.5801 23.624C17.5503 23.9264 17.7481 23.8698 17.9133 23.8707C18.2974 23.8707 18.6814 23.8918 19.0655 23.8659C19.3814 23.8438 19.4496 23.9619 19.4045 24.25C19.199 25.7038 19.0031 27.1588 18.8168 28.6151C18.7823 28.883 18.6642 28.9531 18.4116 28.9406C18.0131 28.9214 17.6099 28.9637 17.2133 28.9253C16.8436 28.8907 16.8014 29.0933 16.7802 29.3689C16.7524 29.7386 17.0318 29.5782 17.1778 29.5869C17.5616 29.6066 17.9462 29.6066 18.33 29.5869C18.5864 29.5753 18.6526 29.6454 18.6094 29.9085C18.4808 30.6959 18.3655 31.4862 18.283 32.2793C18.2666 32.4339 18.0151 32.7354 18.4462 32.7901C18.8178 32.8381 18.8082 32.5875 18.8389 32.3465C18.9349 31.5553 19.0531 30.765 19.1481 29.9729C19.1827 29.6915 19.2845 29.5773 19.5975 29.583C20.7968 29.6041 21.998 29.607 23.1964 29.583C23.5804 29.5753 23.687 29.679 23.6208 30.0631C23.4844 30.8486 23.3817 31.6408 23.2789 32.4329C23.2626 32.5587 23.1339 32.7719 23.4239 32.7901C23.639 32.8036 23.808 32.8151 23.8464 32.5021C23.9424 31.6619 24.098 30.8294 24.1825 29.9882C24.218 29.6416 24.3534 29.5744 24.6626 29.5926C25.0611 29.6176 25.4634 29.5811 25.8619 29.6041C26.2018 29.6243 26.1961 29.4035 26.2297 29.1769C26.2758 28.8619 26.0492 28.9445 25.8955 28.9406C25.5436 28.9238 25.191 28.9257 24.8393 28.9464C24.4552 28.979 24.3179 28.909 24.3889 28.4663C24.6175 27.049 24.8018 25.6241 24.9862 24.1991C25.0217 23.9274 25.1389 23.8563 25.3914 23.8688C25.7419 23.8861 26.0972 23.8458 26.4476 23.8794C26.8826 23.9168 27.1217 23.7968 27.0372 23.2572Z" fill="#A30248"/>
<path d="M74.3142 30.9869C74.3142 33.2568 74.3065 35.5258 74.3228 37.7957C74.3228 38.151 74.2403 38.2499 73.8763 38.247C71.9886 38.2265 70.1001 38.2265 68.2111 38.247C67.827 38.247 67.7752 38.1289 67.7761 37.789C67.7867 33.2664 67.7761 28.7428 67.7934 24.2202C67.7934 23.7958 67.6897 23.6758 67.2653 23.6912C66.355 23.7248 65.4409 23.6912 64.5306 23.7075C64.2541 23.7075 64.1398 23.6604 64.1465 23.3455C64.1638 21.8597 64.1638 20.3736 64.1465 18.8872C64.1465 18.5742 64.255 18.5243 64.5306 18.5252C68.865 18.5329 73.2 18.5329 77.5357 18.5252C77.866 18.5252 77.9726 18.6117 77.9688 18.9516C77.9505 20.3919 77.9467 21.8322 77.9688 23.2668C77.9755 23.6412 77.8507 23.72 77.505 23.7113C76.5937 23.6893 75.6806 23.7248 74.7703 23.6941C74.3747 23.6806 74.3017 23.8189 74.3036 24.1799C74.3219 26.4479 74.3142 28.7179 74.3142 30.9869ZM70.6808 28.7256C70.6808 30.9638 70.6884 33.2011 70.6731 35.4394C70.6731 35.7725 70.7557 35.8628 71.0927 35.8666C71.4845 35.8715 71.4374 35.6496 71.4374 35.4067C71.4374 30.9782 71.4374 26.5507 71.4278 22.1241C71.4278 21.7227 71.4931 21.572 71.9406 21.5873C73.0429 21.6248 74.149 21.596 75.2514 21.6018C75.4962 21.6018 75.6691 21.6018 75.6739 21.2618C75.6787 20.9219 75.5298 20.8778 75.2456 20.8778C72.4463 20.8854 69.6466 20.8854 66.8466 20.8778C66.6008 20.8778 66.4337 20.873 66.427 21.2157C66.4203 21.5585 66.5749 21.5998 66.8553 21.5998C67.9912 21.5893 69.1271 21.6085 70.2631 21.5873C70.5963 21.5816 70.6913 21.6709 70.6884 22.0089C70.6731 24.2539 70.6808 26.4921 70.6808 28.7256Z" fill="#A30248"/>
<path d="M48.2973 28.3693C48.2973 25.2544 48.305 22.1404 48.2877 19.0255C48.2877 18.6328 48.3761 18.5147 48.7832 18.5214C51.1165 18.5627 53.4517 18.4628 55.7841 18.5761C57.4597 18.6577 59.0738 19.0303 60.5237 19.9204C62.3663 21.0506 63.3467 22.73 63.581 24.8578C63.7615 26.5027 63.6473 28.1091 62.8868 29.6157C61.8901 31.5889 60.1761 32.6077 58.1164 33.1416C57.1273 33.4059 56.1069 33.5351 55.0831 33.5257C54.677 33.5189 54.5819 33.6659 54.5886 34.0509C54.6117 35.3126 54.5829 36.5743 54.6069 37.8361C54.6136 38.199 54.4753 38.2422 54.1642 38.2403C52.3398 38.2269 50.5154 38.223 48.6968 38.2403C48.3386 38.2403 48.2896 38.1184 48.2906 37.8044C48.3021 34.6635 48.2973 31.5169 48.2973 28.3693ZM51.274 28.3693V35.4154C51.274 35.6496 51.2077 35.883 51.6129 35.8724C51.9682 35.8638 52.0287 35.7389 52.0239 35.424C52.0085 34.1757 52.0335 32.9323 52.0085 31.6859C52.0009 31.2836 52.0777 31.1213 52.5261 31.1463C53.2943 31.1895 54.0624 31.1674 54.8306 31.1568C56.3112 31.1357 57.7266 30.8544 58.9528 29.971C60.6111 28.7765 61.2487 26.2751 60.4546 24.1137C59.7642 22.2393 58.2461 21.4251 56.414 21.0708C54.8776 20.7731 53.3221 20.9315 51.7742 20.8787C51.3902 20.8662 51.2625 20.9575 51.2653 21.3675C51.2826 23.7037 51.2721 26.037 51.2721 28.3684L51.274 28.3693Z" fill="#A30248"/>
<path d="M28.222 38.2374C28.7348 36.8758 29.2264 35.5661 29.7229 34.2573C31.6542 29.1759 33.5816 24.0932 35.5052 19.0092C35.6493 18.6251 35.8327 18.5147 36.2264 18.5224C37.5054 18.5473 38.7853 18.5377 40.0672 18.5224C40.3399 18.5224 40.4916 18.5829 40.5982 18.8652C43.0045 25.2326 45.4172 31.5966 47.8363 37.957C47.8641 38.03 47.8824 38.1059 47.9064 38.1856C47.7489 38.2739 47.5895 38.2307 47.4388 38.2307C45.647 38.2307 43.8552 38.2307 42.0616 38.2393C41.8014 38.2393 41.6285 38.1961 41.5863 37.9157C41.5821 37.9003 41.5766 37.8852 41.5699 37.8706C41.3981 37.426 41.3453 36.823 41.0217 36.5782C40.652 36.2997 40.0355 36.4985 39.5266 36.4946C38.167 36.4841 36.8073 36.5004 35.4476 36.4841C35.1759 36.4841 35.052 36.5647 34.9675 36.8173C34.811 37.2858 34.7457 37.9446 34.4125 38.151C34.0284 38.3891 33.3918 38.2307 32.8656 38.2326C31.3379 38.2403 29.8074 38.2374 28.222 38.2374ZM44.2845 35.8081C44.2716 35.7432 44.2552 35.6791 44.2355 35.616C42.4015 30.8047 40.5697 25.9928 38.7402 21.1802C38.5482 20.6809 38.1842 20.9613 37.8981 20.8922C37.5668 20.8115 37.4708 21.0362 37.3729 21.2945C35.5958 25.9726 33.815 30.6498 32.0302 35.3261C31.8267 35.858 31.8805 35.9166 32.4364 35.8609C32.6217 35.8426 32.6765 35.7466 32.7245 35.6064C32.8393 35.3436 32.9397 35.0747 33.025 34.8008C33.1105 34.4638 33.2881 34.3745 33.6309 34.3764C36.4155 34.3918 39.2001 34.385 41.979 34.385C42.9651 34.385 43.0055 34.3726 43.2935 35.2857C43.4654 35.8206 43.7362 35.9684 44.2845 35.8081Z" fill="#A30248"/>
<path d="M78.9232 28.4077C78.9232 25.2918 78.9338 22.175 78.9108 19.0591C78.9108 18.5982 79.0548 18.5176 79.4715 18.5224C81.3747 18.5425 83.2788 18.5387 85.1819 18.5224C85.5151 18.5224 85.614 18.6097 85.614 18.9487C85.6044 25.2458 85.6044 31.5425 85.614 37.8389C85.614 38.1443 85.5449 38.2451 85.2213 38.2432C83.2538 38.2278 81.2844 38.2249 79.3189 38.2432C78.954 38.2432 78.9165 38.1087 78.9175 37.8015C78.9271 34.6731 78.9232 31.5409 78.9232 28.4077ZM81.8999 28.353C81.8999 30.7023 81.8999 33.052 81.8999 35.4019C81.8999 35.666 81.8557 35.882 82.2686 35.8763C82.6614 35.8715 82.6527 35.689 82.6527 35.4067C82.6482 30.7241 82.6482 26.0408 82.6527 21.3569C82.6527 21.0909 82.6892 20.8768 82.2754 20.8768C81.8615 20.8768 81.9028 21.0919 81.9028 21.3569C81.8996 23.6877 81.897 26.0197 81.8951 28.353H81.8999Z" fill="#A30248"/>
<path d="M97.9095 35.2051C99.0127 35.2127 100.08 35.0265 101.049 34.4897C101.44 34.2727 101.455 34.5857 101.596 34.7605C101.781 34.9919 101.643 35.0802 101.443 35.1772C97.6281 37.0343 91.6441 35.6516 90.3872 30.2974C89.1696 25.1123 92.9221 20.6713 98.283 20.8624C99.2263 20.8925 100.157 21.0922 101.029 21.452C101.157 21.5048 101.509 21.4644 101.328 21.7775C101.213 21.9781 101.221 22.3536 100.741 22.1558C99.0118 21.4358 97.077 21.3817 95.3102 22.0041C92.0099 23.1294 90.559 26.3049 90.9979 29.3795C91.5164 33.0062 94.1147 35.159 97.9095 35.2051Z" fill="#FBF4F7"/>
<path d="M27.0372 23.2572C27.1217 23.7968 26.8826 23.9168 26.4467 23.8746C26.0981 23.841 25.7429 23.8813 25.3905 23.864C25.1379 23.8515 25.0208 23.9226 24.9852 24.1943C24.8009 25.6193 24.6165 27.0442 24.388 28.4615C24.3169 28.9013 24.4571 28.9714 24.8383 28.9416C25.1901 28.9209 25.5426 28.919 25.8946 28.9358C26.0482 28.9358 26.2786 28.8571 26.2287 29.1721C26.1951 29.3987 26.2009 29.6195 25.861 29.5993C25.4625 29.5763 25.0601 29.6128 24.6617 29.5878C24.3544 29.5696 24.219 29.6368 24.1815 29.9834C24.097 30.8246 23.9367 31.6571 23.8455 32.4973C23.8109 32.8141 23.6381 32.8026 23.423 32.7853C23.1349 32.7671 23.2617 32.5539 23.278 32.4281C23.3807 31.636 23.4835 30.8438 23.6198 30.0583C23.6861 29.6742 23.5843 29.5782 23.1954 29.5782C21.9961 29.6032 20.7949 29.6003 19.5965 29.5782C19.2835 29.5725 19.1817 29.6867 19.1472 29.9681C19.0511 30.7602 18.9388 31.5505 18.838 32.3417C18.8072 32.5827 18.8168 32.8333 18.4452 32.7853C18.0141 32.7306 18.2657 32.4291 18.282 32.2745C18.3646 31.4814 18.4798 30.6911 18.6085 29.9037C18.6517 29.6406 18.5854 29.5705 18.3291 29.5821C17.9452 29.6018 17.5606 29.6018 17.1768 29.5821C17.0309 29.5734 16.7514 29.7338 16.7793 29.3641C16.8004 29.0885 16.8427 28.884 17.2123 28.9205C17.6089 28.9589 18.0122 28.9205 18.4107 28.9358C18.6632 28.9483 18.7813 28.8782 18.8159 28.6103C19.0022 27.154 19.1981 25.699 19.4035 24.2452C19.4448 23.9571 19.3805 23.8381 19.0646 23.8611C18.6805 23.8871 18.2964 23.8688 17.9123 23.8659C17.7472 23.8659 17.5494 23.9216 17.5791 23.6192C17.6022 23.3762 17.6521 23.2351 17.9411 23.2514C18.3252 23.2735 18.7093 23.2283 19.0934 23.2648C19.4535 23.2994 19.561 23.1458 19.6023 22.8222C19.7089 21.983 19.8587 21.1495 19.9566 20.3093C19.9912 20.0078 20.1487 19.9972 20.3705 20.0107C20.7037 20.0308 20.5395 20.2594 20.5222 20.3948C20.4166 21.2333 20.3004 22.071 20.1736 22.9076C20.1314 23.1871 20.2197 23.2639 20.4972 23.261C21.7288 23.2488 22.9605 23.2488 24.1921 23.261C24.4687 23.261 24.5762 23.1928 24.6127 22.899C24.7087 22.0598 24.8643 21.2263 24.9699 20.3871C25.0035 20.1211 25.0659 19.98 25.3693 20.003C25.7371 20.0328 25.5556 20.2843 25.5383 20.4226C25.4423 21.2148 25.3376 22.007 25.2061 22.7934C25.1494 23.1323 25.184 23.2927 25.5902 23.261C26.0655 23.2293 26.5456 23.2572 27.0372 23.2572ZM21.5256 28.933C22.1651 28.933 22.8046 28.9214 23.446 28.9387C23.688 28.9445 23.785 28.8667 23.8167 28.6295C24.0126 27.1572 24.2158 25.6878 24.4264 24.2212C24.4658 23.9495 24.4034 23.8592 24.1163 23.8621C22.868 23.8755 21.6197 23.8717 20.3714 23.8621C20.1458 23.8621 20.0277 23.9091 19.9941 24.1646C19.7982 25.6689 19.5914 27.17 19.3738 28.6679C19.3392 28.9013 19.4122 28.9378 19.6119 28.9349C20.2466 28.9282 20.8861 28.932 21.5256 28.933Z" fill="#FBF4F7"/>
<path d="M70.6807 28.7256C70.6807 26.4883 70.673 24.25 70.6884 22.0127C70.6884 21.6747 70.5924 21.5854 70.263 21.5912C69.1271 21.6123 67.9911 21.5912 66.8552 21.6037C66.5748 21.6037 66.4202 21.5768 66.427 21.2196C66.4337 20.8624 66.6008 20.8816 66.8466 20.8816C69.6466 20.8861 72.4462 20.8861 75.2455 20.8816C75.5336 20.8816 75.6776 20.9123 75.6738 21.2657C75.67 21.619 75.4962 21.6065 75.2513 21.6056C74.148 21.5998 73.0428 21.6286 71.9405 21.5912C71.493 21.5758 71.4258 21.7266 71.4277 22.1279C71.4412 26.5545 71.4354 30.9821 71.4373 35.4105C71.4373 35.6535 71.4844 35.8753 71.0926 35.8705C70.7556 35.8705 70.6711 35.7745 70.673 35.4432C70.6884 33.2049 70.6807 30.9676 70.6807 28.7256Z" fill="#FBF4F7"/>
<path d="M51.272 28.3684C51.272 26.036 51.2826 23.7037 51.2615 21.3713C51.2615 20.9613 51.3834 20.8701 51.7704 20.8826C53.3182 20.9334 54.8757 20.775 56.4101 21.0746C58.247 21.428 59.7603 22.2413 60.4507 24.1165C61.2448 26.2751 60.6072 28.7765 58.9489 29.9738C57.7227 30.8572 56.3074 31.1386 54.8267 31.1597C54.0586 31.1703 53.2904 31.1923 52.5222 31.1491C52.0738 31.1242 51.997 31.2864 52.0047 31.6888C52.0296 32.937 52.0047 34.1853 52.02 35.4269C52.0248 35.7418 51.9643 35.8667 51.6091 35.8753C51.2039 35.8859 51.2701 35.6525 51.2701 35.4182L51.272 28.3684ZM52.021 26.0139C52.021 27.3717 52.0268 28.7284 52.0162 30.0862C52.0162 30.3579 52.0556 30.4827 52.3744 30.4751C53.3173 30.452 54.2621 30.5058 55.2031 30.4549C56.4783 30.3867 57.7247 30.138 58.7012 29.2297C60.0647 27.9622 60.1694 26.3346 59.7882 24.6667C59.4233 23.0728 58.2518 22.2288 56.7232 21.8408C55.2608 21.4692 53.7667 21.643 52.2851 21.6018C51.973 21.5931 52.022 21.8053 52.022 21.9858C52.0168 23.3301 52.0165 24.6728 52.021 26.0139Z" fill="#FBF4F7"/>
<path d="M44.2846 35.8081C43.7363 35.9684 43.4655 35.8206 43.2975 35.2876C43.0094 34.3745 42.9691 34.387 41.9829 34.387C39.1983 34.387 36.4137 34.3937 33.6349 34.3783C33.2921 34.3783 33.1144 34.4657 33.029 34.8027C32.9436 35.0766 32.8433 35.3455 32.7284 35.6084C32.6766 35.7485 32.6218 35.8446 32.4404 35.8628C31.8844 35.9185 31.8306 35.8628 32.0342 35.328C33.8163 30.6511 35.5972 25.9739 37.3768 21.2964C37.4728 21.0381 37.5688 20.8163 37.902 20.8941C38.1901 20.9642 38.5559 20.6838 38.7441 21.1821C40.566 25.9979 42.3977 30.8099 44.2394 35.618C44.2578 35.6805 44.2729 35.744 44.2846 35.8081ZM38.0979 21.6075C38.0345 21.7352 37.9933 21.7996 37.9654 21.8764C36.5104 25.6903 35.0537 29.5027 33.5955 33.3135C33.4361 33.7263 33.6157 33.7158 33.9191 33.7158C36.6864 33.71 39.4547 33.7052 42.222 33.7158C42.6224 33.7158 42.7117 33.6524 42.5552 33.2491C41.5662 30.7084 40.6021 28.16 39.6295 25.6116L38.0979 21.6075Z" fill="#FBF4F7"/>
<path d="M81.8951 28.353C81.8951 26.0197 81.8951 23.6861 81.8951 21.3521C81.8951 21.089 81.8557 20.872 82.2677 20.872C82.6796 20.872 82.645 21.089 82.645 21.3521C82.645 26.036 82.645 30.7193 82.645 35.4019C82.645 35.6842 82.6546 35.8667 82.2609 35.8715C81.848 35.8715 81.8913 35.6612 81.8922 35.3971C81.8967 33.051 81.8977 30.703 81.8951 28.353Z" fill="#FBF4F7"/>
<path d="M21.5256 28.932C20.8861 28.932 20.2466 28.932 19.6052 28.932C19.4054 28.932 19.3325 28.8984 19.367 28.6651C19.5891 27.1691 19.7985 25.6695 19.995 24.1665C20.0286 23.9111 20.1467 23.8631 20.3724 23.864C21.6206 23.8717 22.8689 23.8755 24.1172 23.864C24.4052 23.864 24.4667 23.9514 24.4273 24.2231C24.2122 25.6884 24.008 27.1572 23.8147 28.6295C23.783 28.8667 23.686 28.9445 23.4441 28.9387C22.8046 28.9176 22.1651 28.933 21.5256 28.932ZM21.7743 27.2507C22.1584 27.3467 22.336 27.1979 22.3379 26.7984C22.3505 26.6074 22.3778 26.4177 22.4195 26.2309C22.5415 25.4839 22.6509 25.5751 21.8271 25.5588C21.6024 25.553 21.5198 25.6222 21.4996 25.8468C21.4665 26.1641 21.4155 26.4792 21.347 26.7907C21.2682 27.1499 21.3499 27.3486 21.7743 27.2507Z" fill="#A30248"/>
<path d="M52.021 26.0139C52.021 24.6696 52.021 23.3282 52.021 21.9897C52.021 21.8053 51.9721 21.5931 52.2841 21.6056C53.7657 21.6469 55.2608 21.4731 56.7222 21.8447C58.2586 22.2288 59.4223 23.0766 59.7872 24.6706C60.1713 26.3385 60.0638 27.966 58.7003 29.2335C57.7237 30.1419 56.4774 30.3906 55.2022 30.4587C54.2612 30.5096 53.3164 30.4587 52.3734 30.4789C52.0546 30.4866 52.0124 30.3618 52.0153 30.09C52.021 28.7256 52.021 27.3717 52.021 26.0139ZM54.6002 26.0139C54.6002 26.6361 54.6002 27.2587 54.6002 27.8815C54.6002 28.039 54.5752 28.1878 54.8181 28.2234C55.5777 28.3367 56.5542 27.9353 56.8845 27.2852C57.307 26.4547 57.3176 25.5914 56.8711 24.7647C56.4486 23.9812 55.6804 23.8928 54.893 23.8515C54.6414 23.839 54.5944 23.9303 54.5973 24.1473C54.6002 24.7714 54.5954 25.3936 54.5954 26.0158L54.6002 26.0139Z" fill="#A30248"/>
<path d="M38.0979 21.6075L39.6295 25.6154C40.6022 28.1629 41.5662 30.7122 42.5552 33.253C42.7118 33.6562 42.6225 33.7215 42.2221 33.7196C39.4547 33.7052 36.6864 33.71 33.9191 33.7196C33.6157 33.7196 33.439 33.7302 33.5955 33.3173C35.0608 29.5065 36.5158 25.6929 37.9606 21.8764C37.9885 21.8034 38.0298 21.7352 38.0979 21.6075ZM38.0855 28.7054C37.6553 29.826 37.2674 30.8505 36.866 31.8741C36.7873 32.0757 36.841 32.1218 37.0369 32.1209C37.8051 32.1151 38.5656 32.1209 39.3904 32.1209C38.9506 30.9782 38.532 29.8855 38.0807 28.7054H38.0855Z" fill="#A30248"/>
</svg>
