<svg width="40" height="40" viewBox="0 0 40 40" fill="none" xmlns="http://www.w3.org/2000/svg">
<path d="M19.4767 19.7352C19.4751 19.7337 19.4737 19.7348 19.4722 19.7352L19.4677 19.7373C19.4613 19.7398 19.4552 19.743 19.4495 19.7468C19.4476 19.748 19.445 19.7487 19.4437 19.7468C19.4424 19.745 19.4453 19.7435 19.4465 19.742C19.4504 19.7369 19.457 19.7386 19.4617 19.7354C19.4778 19.7241 19.4958 19.7159 19.5148 19.711C19.5465 19.7021 19.5793 19.6998 19.6116 19.6937C19.6326 19.6897 19.6535 19.686 19.6712 19.6726C19.679 19.6668 19.6869 19.6609 19.6952 19.6557C19.708 19.648 19.7181 19.6366 19.7242 19.6229C19.7258 19.6193 19.7298 19.6145 19.726 19.6116C19.7235 19.6097 19.7207 19.6156 19.718 19.6178C19.7166 19.619 19.7152 19.6203 19.714 19.6217C19.6867 19.6469 19.6569 19.6681 19.6207 19.6785C19.5926 19.6865 19.5632 19.6851 19.5339 19.689C19.5433 19.6812 19.5511 19.6723 19.5646 19.6707C19.5585 19.6656 19.554 19.6694 19.5494 19.6701C19.5464 19.6707 19.5418 19.6738 19.541 19.6687C19.5406 19.6658 19.541 19.6596 19.5477 19.6599C19.5492 19.6599 19.5512 19.6604 19.5518 19.6585C19.5543 19.651 19.5614 19.6491 19.5673 19.6458C19.5847 19.6359 19.6024 19.6264 19.62 19.6166C19.6218 19.6155 19.6246 19.6153 19.625 19.6125C19.6229 19.6117 19.6197 19.6144 19.6189 19.6111C19.618 19.6077 19.6206 19.6068 19.6235 19.606C19.639 19.6003 19.6542 19.5937 19.6689 19.5861C19.6645 19.5845 19.6603 19.5874 19.6574 19.5839C19.6592 19.5798 19.6651 19.5804 19.6659 19.5773C19.6674 19.5723 19.6669 19.5668 19.674 19.5661C19.6749 19.5661 19.6749 19.5649 19.674 19.5644C19.6692 19.5606 19.6745 19.5598 19.676 19.5585C19.6809 19.5543 19.6877 19.5545 19.6938 19.5515C19.6859 19.5486 19.6831 19.5436 19.6871 19.5382C19.695 19.5272 19.6963 19.5141 19.7001 19.5018C19.7006 19.5002 19.7016 19.4982 19.6993 19.4969C19.697 19.4956 19.6959 19.4969 19.6946 19.4984C19.6821 19.5095 19.6671 19.5174 19.6509 19.5216C19.639 19.5251 19.6269 19.5279 19.6147 19.53C19.608 19.5316 19.601 19.5315 19.5944 19.5297C19.5878 19.5278 19.5817 19.5243 19.5769 19.5194C19.5725 19.5152 19.5675 19.5116 19.5622 19.5086C19.5242 19.4868 19.4822 19.4791 19.4395 19.474C19.4234 19.4725 19.4073 19.472 19.3912 19.4724C19.398 19.4688 19.4053 19.4661 19.4128 19.4644C19.4313 19.4599 19.45 19.4564 19.4681 19.4505C19.4836 19.4451 19.4996 19.4412 19.5158 19.439L19.5384 19.4373C19.531 19.436 19.5234 19.436 19.5159 19.4373C19.5096 19.4368 19.5032 19.4371 19.4969 19.4382C19.4564 19.4461 19.415 19.4514 19.3783 19.4726C19.3754 19.4742 19.3717 19.4756 19.3695 19.473C19.3673 19.4705 19.3706 19.4674 19.3725 19.465C19.3826 19.4509 19.3961 19.4397 19.4117 19.4323C19.4274 19.425 19.4447 19.4218 19.4619 19.423C19.505 19.4245 19.5478 19.4301 19.5898 19.4398C19.5934 19.4402 19.5967 19.4415 19.5997 19.4434C19.6027 19.4454 19.6051 19.4481 19.6069 19.4512C19.608 19.4533 19.6097 19.455 19.6118 19.4562C19.6138 19.4575 19.6162 19.4581 19.6186 19.4582C19.6273 19.4583 19.636 19.46 19.6441 19.4631C19.6453 19.4504 19.6462 19.4498 19.6582 19.4517H19.6597C19.6641 19.4525 19.6686 19.4528 19.6711 19.4485C19.672 19.4465 19.6723 19.4443 19.6718 19.4422C19.6714 19.4401 19.6703 19.4382 19.6686 19.4368C19.6635 19.4308 19.6579 19.4251 19.6526 19.4192C19.6509 19.4172 19.6482 19.4153 19.6505 19.4111C19.6581 19.4184 19.6652 19.4255 19.6725 19.4322C19.6815 19.4414 19.6931 19.4476 19.7057 19.4498C19.7101 19.4504 19.7154 19.4524 19.7185 19.4485C19.7215 19.4446 19.7174 19.4401 19.7152 19.4365C19.7062 19.4227 19.6959 19.4099 19.6845 19.398C19.6819 19.3958 19.68 19.3929 19.679 19.3896C19.6772 19.3836 19.6746 19.3779 19.6714 19.3726C19.6663 19.3634 19.663 19.3534 19.6614 19.3431C19.6615 19.3383 19.6611 19.3335 19.6602 19.3288C19.6513 19.2986 19.6476 19.2672 19.6403 19.2365C19.635 19.2137 19.6332 19.1909 19.645 19.1692C19.6539 19.153 19.6631 19.137 19.6723 19.1209C19.6841 19.1004 19.6975 19.0811 19.7179 19.0679C19.72 19.0663 19.7215 19.0641 19.7222 19.0616C19.737 19.0249 19.76 18.9959 19.7972 18.9795C19.8147 18.9717 19.8324 18.9644 19.8502 18.9563H19.8419C19.4482 18.9563 19.0544 18.9563 18.6608 18.9563C18.6524 18.9563 18.651 18.9588 18.651 18.9665C18.651 19.2707 18.651 19.5749 18.651 19.8791C18.651 19.8874 18.6531 19.8889 18.661 19.8889C18.9378 19.8887 19.2147 19.8887 19.4916 19.8889C19.4984 19.8892 19.5051 19.8873 19.5107 19.8834C19.5196 19.8772 19.529 19.8717 19.5388 19.867C19.5699 19.8518 19.6011 19.8368 19.6325 19.8224C19.6729 19.8039 19.7096 19.7811 19.738 19.7458C19.7597 19.7186 19.7847 19.6942 19.8124 19.6732C19.8137 19.6725 19.8147 19.6714 19.8153 19.67C19.8159 19.6687 19.816 19.6671 19.8157 19.6657C19.8072 19.6682 19.8024 19.6773 19.7927 19.6772C19.7952 19.674 19.7987 19.672 19.8013 19.6692C19.8039 19.6664 19.8114 19.6656 19.8094 19.6603C19.8068 19.6537 19.8002 19.6578 19.7952 19.6575C19.7945 19.6577 19.7937 19.6579 19.7929 19.6581C19.778 19.6613 19.7671 19.6714 19.756 19.6805C19.7538 19.6823 19.7517 19.6855 19.7486 19.6838C19.7428 19.6808 19.7384 19.6838 19.7337 19.6861C19.7247 19.6906 19.7162 19.6959 19.7081 19.702C19.6989 19.7091 19.6891 19.7154 19.6788 19.7208C19.6721 19.7242 19.6639 19.7224 19.6568 19.7266C19.6449 19.7333 19.6313 19.7363 19.6177 19.7352C19.5872 19.7333 19.5581 19.7414 19.5284 19.7471C19.5036 19.7519 19.4872 19.7698 19.4682 19.7834C19.4524 19.7949 19.4376 19.8078 19.4241 19.822C19.4222 19.8239 19.4205 19.8266 19.4164 19.8248C19.4213 19.8187 19.4254 19.812 19.4287 19.8049C19.4332 19.793 19.4421 19.7832 19.4536 19.7776C19.4561 19.7762 19.4582 19.7742 19.4596 19.7717C19.4611 19.7692 19.4618 19.7664 19.4618 19.7635C19.4501 19.764 19.449 19.7812 19.4348 19.779C19.4385 19.7742 19.4414 19.7689 19.4433 19.7632C19.4449 19.7525 19.453 19.749 19.4605 19.7444L19.4692 19.7391L19.4731 19.7366L19.4763 19.735L19.4769 19.7338L19.4759 19.7342L19.4767 19.7352ZM20.3344 19.5443C20.3386 19.5453 20.3424 19.5473 20.3455 19.5502C20.3486 19.5531 20.3509 19.5567 20.3522 19.5607C20.3537 19.5632 20.3543 19.5662 20.3538 19.5691C20.3533 19.572 20.3519 19.5746 20.3496 19.5765C20.3456 19.5799 20.3414 19.5831 20.3375 19.5867C20.3349 19.5886 20.3331 19.5914 20.3325 19.5946C20.3319 19.5978 20.3325 19.601 20.3342 19.6038C20.3384 19.6135 20.3392 19.6244 20.3367 19.6347C20.3341 19.645 20.3283 19.6542 20.3201 19.6609C20.313 19.6661 20.3049 19.6697 20.2963 19.6716C20.2878 19.6734 20.2789 19.6734 20.2703 19.6715C20.2637 19.6703 20.2578 19.6679 20.2511 19.6671C20.2265 19.6638 20.2023 19.6574 20.1774 19.6559C20.1641 19.6543 20.1507 19.6577 20.1398 19.6655C20.094 19.7029 20.0741 19.7517 20.0788 19.8104C20.0798 19.8231 20.0845 19.8336 20.0991 19.8359C20.1014 19.8364 20.1036 19.8372 20.1057 19.8382C20.1444 19.8518 20.1831 19.8652 20.219 19.8853C20.2231 19.8876 20.2276 19.8889 20.2323 19.8889C20.5508 19.8889 20.8692 19.8889 21.1877 19.8889C21.1948 19.8889 21.1969 19.8874 21.1969 19.8799C21.1969 19.5749 21.1969 19.2702 21.1969 18.9657C21.1969 18.9577 21.1946 18.9563 21.1872 18.9563C20.8646 18.9563 20.542 18.9563 20.2194 18.9563C20.2163 18.9557 20.2132 18.9562 20.2104 18.9576L20.2174 18.9616C20.2326 18.9702 20.2489 18.9767 20.2625 18.9881C20.2801 19.0027 20.2834 19.015 20.2772 19.0359C20.2757 19.0415 20.2724 19.0466 20.2678 19.0502C20.2631 19.0538 20.2575 19.0557 20.2516 19.0558C20.2445 19.0564 20.2373 19.0562 20.2302 19.0554C20.2259 19.0549 20.2217 19.0546 20.2169 19.0542C20.2169 19.0552 20.2169 19.0556 20.2169 19.0556C20.2178 19.0562 20.2188 19.0567 20.2198 19.0571C20.2421 19.0657 20.2617 19.0804 20.2762 19.0994C20.2775 19.1009 20.2791 19.1021 20.2809 19.103C20.2827 19.1039 20.2846 19.1044 20.2866 19.1045C20.2953 19.1062 20.2953 19.1061 20.2902 19.1134C20.2887 19.1154 20.2869 19.1179 20.289 19.1197C20.2901 19.1207 20.2916 19.1211 20.2931 19.121C20.2945 19.1208 20.2959 19.1201 20.2969 19.119C20.2996 19.1158 20.3018 19.1121 20.3035 19.1083C20.3039 19.1072 20.3046 19.1063 20.3055 19.1055C20.3064 19.1048 20.3074 19.1043 20.3085 19.104C20.3096 19.1038 20.3108 19.1038 20.3119 19.1042C20.313 19.1045 20.314 19.1051 20.3148 19.1059C20.3171 19.1074 20.319 19.1094 20.3203 19.1117C20.3217 19.1141 20.3225 19.1167 20.3227 19.1194C20.3229 19.1221 20.3225 19.1249 20.3215 19.1274C20.3206 19.1299 20.319 19.1322 20.317 19.134C20.3128 19.138 20.3081 19.1416 20.3038 19.1452C20.3023 19.146 20.301 19.1471 20.3001 19.1484C20.2991 19.1498 20.2984 19.1513 20.298 19.1529C20.2977 19.1545 20.2977 19.1562 20.2981 19.1578C20.2985 19.1594 20.2992 19.161 20.3002 19.1623C20.3023 19.1659 20.3042 19.1697 20.3057 19.1737C20.312 19.1936 20.3185 19.214 20.324 19.2343C20.3313 19.2609 20.3366 19.2882 20.3307 19.3158C20.3278 19.3303 20.3308 19.3454 20.3389 19.3577C20.3455 19.3689 20.3527 19.3796 20.36 19.3903C20.3718 19.4056 20.3822 19.4219 20.3911 19.439C20.3987 19.4559 20.3927 19.4677 20.375 19.473C20.373 19.4736 20.3709 19.4741 20.3689 19.4746C20.3453 19.4793 20.3469 19.4913 20.3551 19.5065L20.3568 19.5092C20.3626 19.5194 20.3615 19.5263 20.3521 19.5333C20.3468 19.5373 20.3412 19.5401 20.3344 19.5443ZM20.6062 20.4453C20.6436 20.4453 20.6809 20.4453 20.7183 20.4453C20.7241 20.4453 20.7261 20.4433 20.727 20.4381C20.7314 20.4149 20.7319 20.3911 20.7285 20.3678C20.7208 20.319 20.6965 20.2816 20.6522 20.2583C20.618 20.2405 20.5813 20.238 20.5439 20.2436C20.493 20.2513 20.4523 20.2757 20.4252 20.32C20.399 20.363 20.39 20.4143 20.3998 20.4637C20.4098 20.5207 20.4396 20.5645 20.4917 20.5914C20.5325 20.6124 20.5761 20.6166 20.6208 20.6104C20.6644 20.605 20.7044 20.5835 20.7328 20.55C20.7364 20.5457 20.7376 20.543 20.7321 20.5389C20.717 20.5273 20.7024 20.515 20.6876 20.503C20.6767 20.4942 20.6767 20.4942 20.667 20.5041C20.6432 20.5283 20.6135 20.5357 20.5808 20.5345C20.5313 20.5325 20.4961 20.5013 20.488 20.4525C20.487 20.4464 20.488 20.445 20.4942 20.4451C20.5318 20.4455 20.5692 20.4455 20.6065 20.4455L20.6062 20.4453ZM20.7533 21.0227C20.7901 21.0227 20.8269 21.0227 20.8637 21.0227C20.8707 21.0227 20.8726 21.0203 20.8736 21.0141C20.8778 20.9911 20.8782 20.9676 20.8746 20.9445C20.8665 20.8952 20.8415 20.8575 20.7962 20.8349C20.7652 20.8204 20.7306 20.8155 20.6969 20.8208C20.6408 20.8277 20.597 20.8539 20.5687 20.9036C20.5471 20.9423 20.5387 20.987 20.5451 21.0309C20.5517 21.0839 20.575 21.1285 20.6204 21.1586C20.6723 21.1929 20.7294 21.198 20.7887 21.1839C20.8249 21.1756 20.8573 21.1554 20.8806 21.1265C20.8825 21.1243 20.8856 21.1223 20.8813 21.1189C20.8628 21.104 20.8443 21.089 20.8259 21.0739C20.8233 21.0718 20.8221 21.0722 20.8202 21.0746C20.8003 21.0997 20.7738 21.1107 20.7429 21.1123C20.685 21.1152 20.6435 21.0848 20.6347 21.03C20.6338 21.0238 20.6347 21.0226 20.641 21.0226C20.6783 21.0229 20.7159 21.0227 20.7535 21.0227H20.7533ZM19.1685 21.0227C19.205 21.0227 19.2414 21.0227 19.2781 21.0227C19.2859 21.0227 19.2891 21.0208 19.2902 21.0128C19.2937 20.9914 19.2941 20.9695 19.2913 20.9479C19.2838 20.8973 19.2591 20.8584 19.2126 20.8352C19.1814 20.8205 19.1466 20.8155 19.1125 20.8208C19.054 20.8283 19.0093 20.8566 18.9817 20.9096C18.9621 20.9479 18.9551 20.9914 18.9618 21.0338C18.9688 21.0858 18.992 21.1294 19.0366 21.1584C19.094 21.1958 19.1565 21.1995 19.2208 21.1791C19.2507 21.1695 19.2772 21.1512 19.2969 21.1267C19.2989 21.1243 19.3019 21.1222 19.2973 21.1186C19.2788 21.104 19.2606 21.089 19.2423 21.074C19.2401 21.0722 19.2387 21.0717 19.2367 21.0744C19.2171 21.0996 19.1903 21.1107 19.1595 21.1123C19.1051 21.1152 19.0611 21.0886 19.0512 21.0311C19.0501 21.0249 19.0506 21.0224 19.0578 21.0226C19.0946 21.023 19.1316 21.0227 19.1687 21.0227H19.1685ZM18.651 20.3602C18.651 20.4372 18.651 20.5143 18.651 20.5914C18.651 20.598 18.6529 20.5998 18.6594 20.5997C18.6859 20.5993 18.7129 20.5992 18.7397 20.5997C18.7467 20.5997 18.7484 20.598 18.7484 20.591C18.7484 20.5298 18.7484 20.4687 18.7484 20.4075C18.7484 20.4012 18.7501 20.3995 18.7563 20.3996C18.8027 20.3996 18.8491 20.3996 18.8955 20.3996C18.9012 20.3996 18.9031 20.3985 18.9031 20.3923C18.9027 20.3679 18.9027 20.3436 18.9031 20.3194C18.9031 20.3132 18.9016 20.3115 18.8953 20.3115C18.8492 20.3115 18.8031 20.3115 18.757 20.3115C18.7504 20.3115 18.7485 20.3102 18.7485 20.3034C18.7489 20.2748 18.749 20.2462 18.7485 20.2176C18.7485 20.2105 18.7505 20.2089 18.7574 20.2089C18.8124 20.2089 18.8675 20.2089 18.9226 20.2089C18.9288 20.2089 18.9307 20.2073 18.9306 20.201C18.9306 20.1769 18.9302 20.1528 18.9306 20.1287C18.9306 20.1221 18.929 20.1204 18.9223 20.1204C18.8349 20.1207 18.7475 20.1207 18.6601 20.1204C18.6531 20.1204 18.6515 20.1222 18.6515 20.1291C18.6514 20.2069 18.6513 20.2834 18.6513 20.3602H18.651ZM19.4536 20.568C19.4536 20.5777 19.4536 20.5857 19.4536 20.5935C19.4536 20.5986 19.4552 20.5997 19.4602 20.5996C19.4848 20.5996 19.5095 20.5993 19.5341 20.5996C19.54 20.5996 19.5416 20.5982 19.5416 20.5922C19.5416 20.518 19.5426 20.4438 19.541 20.3697C19.54 20.3161 19.5145 20.2763 19.4645 20.2545C19.4363 20.2428 19.4055 20.2385 19.3751 20.2421C19.3518 20.2437 19.329 20.2501 19.3083 20.2609C19.2876 20.2717 19.2693 20.2867 19.2547 20.3049C19.2514 20.3089 19.252 20.3107 19.2558 20.3135C19.2742 20.3274 19.2925 20.3414 19.3106 20.3556C19.3146 20.3587 19.3162 20.3581 19.319 20.3541C19.3261 20.3435 19.3356 20.3347 19.3467 20.3284C19.3577 20.3221 19.3701 20.3184 19.3829 20.3177C19.4256 20.3141 19.4551 20.3399 19.4541 20.3802C19.4541 20.3843 19.4533 20.3861 19.4487 20.3868C19.423 20.3908 19.3975 20.3954 19.3719 20.3995C19.3472 20.4025 19.3232 20.4094 19.3007 20.4201C19.2418 20.4508 19.2243 20.5227 19.2645 20.5738C19.2921 20.6088 19.3308 20.6163 19.3725 20.6114C19.4041 20.6077 19.4331 20.5922 19.4539 20.568H19.4536ZM19.7188 20.2803C19.7188 20.272 19.7188 20.266 19.7188 20.26C19.7188 20.2557 19.7173 20.2547 19.7132 20.2547C19.6873 20.2547 19.6613 20.2547 19.6354 20.2547C19.6307 20.2547 19.6298 20.2562 19.6298 20.2605C19.6298 20.3716 19.6298 20.4826 19.6298 20.5936C19.6298 20.5988 19.6315 20.5996 19.6364 20.5996C19.661 20.5996 19.6857 20.5992 19.7103 20.5996C19.717 20.5996 19.7191 20.5981 19.7191 20.591C19.7191 20.521 19.7191 20.4511 19.7191 20.3811C19.7186 20.3777 19.7191 20.3742 19.7205 20.3711C19.7355 20.3466 19.755 20.3285 19.7846 20.3236C19.8195 20.3179 19.8497 20.3347 19.8604 20.3665C19.8638 20.3769 19.8654 20.3877 19.8653 20.3986C19.8653 20.4629 19.8653 20.5273 19.8653 20.5918C19.8653 20.5979 19.8668 20.5997 19.8731 20.5996C19.8973 20.5992 19.9213 20.5992 19.9455 20.5996C19.9518 20.5996 19.9533 20.598 19.9533 20.5918C19.9533 20.5401 19.9533 20.4884 19.9533 20.4368C19.9541 20.4135 19.9536 20.3901 19.9517 20.3669C19.9478 20.3338 19.9379 20.3036 19.9142 20.2796C19.8764 20.2413 19.8301 20.2348 19.7799 20.2464C19.757 20.2522 19.736 20.2639 19.7191 20.2803H19.7188ZM20.1642 21.0059C20.164 21.0141 20.1644 21.0223 20.1656 21.0305C20.1733 21.0871 20.1994 21.1325 20.2484 21.163C20.2882 21.1876 20.3317 21.1945 20.3773 21.1895C20.4002 21.1875 20.4224 21.1809 20.4427 21.1702C20.4631 21.1594 20.481 21.1448 20.4957 21.1271C20.4993 21.1227 20.4988 21.1209 20.4944 21.1176C20.4745 21.1027 20.4547 21.0876 20.4351 21.0722C20.4307 21.0687 20.4288 21.0695 20.4255 21.0737C20.4103 21.0931 20.388 21.1058 20.3636 21.109C20.3391 21.1121 20.3144 21.1056 20.2947 21.0906C20.2577 21.0627 20.248 21.0237 20.2568 20.9801C20.2646 20.9408 20.2888 20.9139 20.3282 20.9042C20.3675 20.8946 20.4011 20.9051 20.4263 20.9374C20.4288 20.9408 20.4303 20.9416 20.4341 20.9386C20.454 20.9228 20.4747 20.9071 20.4953 20.8918C20.4998 20.8885 20.4986 20.8865 20.4959 20.8833C20.4881 20.8736 20.4792 20.8649 20.4693 20.8573C20.411 20.8144 20.347 20.8087 20.2804 20.8318C20.2088 20.8565 20.1645 20.9243 20.1645 21.0059H20.1642ZM20.2025 20.2411C20.1954 20.2417 20.1842 20.2421 20.1733 20.2437C20.125 20.2511 20.0843 20.2724 20.0549 20.3121C20.0199 20.3593 20.0107 20.4126 20.0224 20.4695C20.027 20.4953 20.0375 20.5196 20.0531 20.5407C20.0687 20.5618 20.0889 20.579 20.1122 20.591C20.1465 20.6088 20.1852 20.6162 20.2237 20.6122C20.2478 20.6109 20.2714 20.6047 20.293 20.5939C20.3146 20.583 20.3338 20.5679 20.3492 20.5493C20.3527 20.5451 20.3528 20.543 20.3482 20.5396C20.3284 20.5248 20.3085 20.5097 20.289 20.4943C20.2844 20.4907 20.2823 20.4915 20.2792 20.4956C20.2638 20.5152 20.2414 20.5279 20.2167 20.5309C20.192 20.5339 20.1671 20.5271 20.1475 20.5118C20.1115 20.4837 20.1021 20.4451 20.1109 20.4022C20.1187 20.3631 20.1426 20.3359 20.1822 20.3263C20.2218 20.3167 20.2551 20.3271 20.2802 20.3595C20.2837 20.3639 20.2856 20.3627 20.289 20.3601C20.3089 20.3449 20.3284 20.3296 20.3483 20.3149C20.3534 20.3111 20.3529 20.3089 20.3492 20.3045C20.3118 20.2606 20.2633 20.2421 20.2029 20.2411H20.2025ZM19.7758 21.0768C19.7742 21.073 19.7732 21.0706 19.7723 21.0682C19.7446 20.9922 19.717 20.9163 19.6894 20.8403C19.6889 20.8378 19.6874 20.8356 19.6853 20.8341C19.6832 20.8327 19.6806 20.8321 19.678 20.8325C19.6524 20.8329 19.6267 20.8329 19.601 20.8325C19.5939 20.8325 19.5934 20.8342 19.5957 20.8404C19.636 20.9506 19.676 21.0608 19.7158 21.1711C19.7176 21.1762 19.7201 21.1771 19.7249 21.177C19.7581 21.177 19.7917 21.177 19.825 21.177C19.8273 21.1774 19.8296 21.1769 19.8315 21.1756C19.8334 21.1743 19.8348 21.1723 19.8352 21.1701C19.8476 21.1352 19.8603 21.1005 19.8729 21.0657C19.9002 20.9906 19.9275 20.9154 19.9548 20.84C19.9561 20.8366 19.9593 20.8324 19.9514 20.8325C19.9239 20.8325 19.8963 20.8325 19.8688 20.8325C19.8673 20.8323 19.8659 20.8327 19.8647 20.8335C19.8636 20.8344 19.8628 20.8356 19.8625 20.837C19.8594 20.846 19.8559 20.8549 19.8529 20.8639C19.8273 20.9345 19.8019 21.0049 19.7758 21.0768ZM21.0719 20.8191C21.0546 20.8187 21.0374 20.8215 21.0211 20.8273C20.98 20.8425 20.9533 20.8705 20.949 20.9153C20.9448 20.9591 20.9623 20.9931 20.9998 21.0163C21.0158 21.0256 21.0325 21.0336 21.0498 21.0401C21.0648 21.0454 21.0792 21.0522 21.0927 21.0605C21.1167 21.0766 21.1068 21.1048 21.0878 21.1128C21.0737 21.1185 21.058 21.1189 21.0435 21.114C21.0232 21.107 21.0053 21.094 20.9922 21.0769C20.9883 21.0721 20.9865 21.0723 20.9823 21.0765C20.9667 21.0923 20.9507 21.1078 20.9345 21.1229C20.9303 21.1269 20.9309 21.1296 20.9345 21.1329C20.9814 21.1825 21.0388 21.2003 21.1049 21.186C21.1675 21.1724 21.2029 21.1154 21.1899 21.0527C21.1841 21.0246 21.1671 21.0044 21.1435 20.9891C21.123 20.9771 21.1014 20.967 21.0789 20.959C21.0667 20.9547 21.0552 20.9486 21.0447 20.9409C21.041 20.9383 21.0381 20.9347 21.0362 20.9305C21.0344 20.9264 21.0338 20.9218 21.0343 20.9172C21.0349 20.9127 21.0368 20.9085 21.0396 20.9049C21.0425 20.9013 21.0462 20.8986 21.0505 20.8971C21.0605 20.8925 21.0716 20.8912 21.0823 20.8931C21.1054 20.897 21.1218 20.9113 21.1362 20.9285C21.1389 20.9318 21.1404 20.9326 21.1439 20.9292C21.1598 20.9137 21.1759 20.8983 21.1922 20.8832C21.1969 20.8789 21.1967 20.8765 21.1926 20.8718C21.1773 20.855 21.1586 20.8417 21.1378 20.8326C21.117 20.8235 21.0945 20.8189 21.0719 20.8191ZM18.7716 20.8191C18.7514 20.8189 18.7314 20.8228 18.7127 20.8305C18.6322 20.8648 18.6332 20.9616 18.6812 21.0029C18.7007 21.0183 18.7226 21.0304 18.7461 21.0388C18.7618 21.0442 18.777 21.0512 18.7914 21.0597C18.8014 21.0663 18.8083 21.0751 18.8064 21.0881C18.8056 21.0944 18.803 21.1002 18.7988 21.1049C18.7947 21.1097 18.7892 21.113 18.7831 21.1146C18.7722 21.118 18.7606 21.1184 18.7495 21.1157C18.7253 21.1102 18.7074 21.0952 18.6921 21.0768C18.6879 21.0719 18.6859 21.0726 18.6819 21.0768C18.666 21.0927 18.6498 21.1084 18.6336 21.1239C18.6304 21.127 18.6301 21.1288 18.6336 21.1321C18.6808 21.1828 18.7389 21.2017 18.8059 21.186C18.8813 21.1684 18.9037 21.1004 18.8884 21.0463C18.8797 21.0153 18.8575 20.9961 18.8301 20.9815C18.8114 20.9716 18.7914 20.9646 18.772 20.9563C18.7615 20.9525 18.7518 20.9469 18.7434 20.9396C18.7402 20.937 18.7377 20.9336 18.7361 20.9298C18.7346 20.9259 18.7341 20.9217 18.7346 20.9176C18.7352 20.9135 18.7367 20.9096 18.7392 20.9063C18.7417 20.903 18.745 20.9003 18.7487 20.8986C18.7591 20.8931 18.7711 20.8913 18.7827 20.8936C18.8048 20.8972 18.8211 20.9105 18.8348 20.9272C18.8391 20.9322 18.8415 20.9327 18.8462 20.9278C18.8611 20.9129 18.8764 20.8982 18.8921 20.884C18.897 20.8795 18.8974 20.8769 18.8928 20.8721C18.8598 20.8366 18.819 20.8203 18.7716 20.819V20.8191ZM19.0832 20.288C19.0832 20.2778 19.0832 20.2696 19.0832 20.2615C19.0832 20.2567 19.0825 20.2549 19.0769 20.2549C19.0517 20.2552 19.0266 20.2549 19.0014 20.2549C18.9963 20.2549 18.9947 20.2561 18.9947 20.2615C18.9947 20.372 18.9947 20.4825 18.9947 20.5929C18.9947 20.5985 18.9964 20.6 19.0019 20.6C19.0263 20.6 19.0506 20.5996 19.0748 20.6C19.0814 20.6 19.083 20.5982 19.083 20.5917C19.083 20.5284 19.0836 20.4651 19.0824 20.4018C19.082 20.3943 19.0835 20.3869 19.0867 20.3801C19.0898 20.3733 19.0945 20.3674 19.1005 20.3629C19.108 20.3562 19.1167 20.3509 19.126 20.3471C19.1489 20.3383 19.174 20.337 19.1977 20.3432C19.2027 20.3443 19.2035 20.3432 19.2035 20.3386C19.2035 20.3121 19.2035 20.2856 19.2035 20.259C19.2035 20.2539 19.2016 20.2524 19.1969 20.2512C19.1735 20.2458 19.149 20.2479 19.1269 20.2573C19.1106 20.2646 19.0958 20.275 19.0834 20.2879L19.0832 20.288ZM19.4491 20.8657C19.4491 20.8558 19.4486 20.8479 19.4491 20.84C19.4496 20.8337 19.4472 20.8326 19.4415 20.8327C19.4171 20.8327 19.3927 20.833 19.3685 20.8327C19.3627 20.8327 19.3611 20.834 19.3611 20.8401C19.3611 20.9501 19.3611 21.06 19.3611 21.17C19.3611 21.1766 19.363 21.1772 19.3686 21.1772C19.3922 21.1768 19.4158 21.1767 19.4393 21.1772C19.447 21.1772 19.4495 21.1759 19.4494 21.1675C19.449 21.105 19.4499 21.0425 19.4487 20.9799C19.4483 20.9722 19.4498 20.9644 19.4531 20.9574C19.4564 20.9505 19.4614 20.9444 19.4676 20.9398C19.4716 20.9364 19.4759 20.9333 19.4804 20.9306C19.5061 20.9153 19.5335 20.9147 19.5619 20.9203C19.5677 20.9215 19.5697 20.9211 19.5696 20.9144C19.5692 20.8887 19.5692 20.863 19.5696 20.8374C19.5696 20.8314 19.5672 20.8297 19.5622 20.8286C19.5382 20.8233 19.5132 20.8259 19.4908 20.836C19.4754 20.8433 19.4613 20.8533 19.4494 20.8656L19.4491 20.8657ZM20.0037 21.0052C20.0037 21.0603 20.0037 21.1153 20.0037 21.1705C20.0037 21.1753 20.0045 21.1771 20.0103 21.1771C20.0357 21.1768 20.0611 21.1768 20.0865 21.1771C20.0921 21.1771 20.0932 21.1752 20.0932 21.1705C20.0932 21.0604 20.0932 20.9502 20.0932 20.84C20.0932 20.8334 20.091 20.8327 20.0855 20.8328C20.0611 20.8328 20.0367 20.8331 20.0125 20.8328C20.0059 20.8328 20.0042 20.8342 20.0042 20.841C20.0041 20.8955 20.0039 20.9503 20.0039 21.0051L20.0037 21.0052ZM19.9909 20.7213C19.9909 20.7362 19.9968 20.7506 20.0074 20.7612C20.0179 20.7719 20.0322 20.7779 20.0472 20.778C20.0549 20.7785 20.0627 20.7775 20.07 20.7749C20.0773 20.7723 20.084 20.7683 20.0897 20.763C20.0954 20.7578 20.0999 20.7514 20.103 20.7443C20.1061 20.7372 20.1077 20.7296 20.1078 20.7218C20.1078 20.7141 20.1062 20.7064 20.1032 20.6993C20.1001 20.6922 20.0956 20.6858 20.09 20.6805C20.0843 20.6752 20.0777 20.6711 20.0704 20.6685C20.0631 20.6659 20.0553 20.6648 20.0476 20.6653C20.0327 20.6653 20.0185 20.6712 20.0079 20.6817C19.9974 20.6921 19.9914 20.7063 19.9912 20.7212L19.9909 20.7213ZM20.2042 19.3033C20.2078 19.3049 20.2104 19.3033 20.213 19.3023C20.2342 19.2967 20.2554 19.2931 20.2771 19.2988C20.2842 19.3007 20.2849 19.3024 20.2802 19.3082C20.2764 19.3126 20.2718 19.3162 20.2665 19.3188C20.2578 19.3239 20.2495 19.3298 20.2418 19.3364C20.2367 19.3403 20.2346 19.347 20.2263 19.3454C20.2242 19.345 20.221 19.3454 20.2204 19.3482C20.2198 19.351 20.223 19.3511 20.2243 19.3527C20.2316 19.3612 20.2448 19.3552 20.2523 19.3642C20.2536 19.3657 20.257 19.3658 20.2569 19.3694C20.257 19.371 20.2565 19.3726 20.2554 19.3738C20.2544 19.3751 20.2529 19.3759 20.2513 19.376C20.2471 19.3767 20.243 19.3771 20.238 19.3777C20.2465 19.3805 20.2556 19.3814 20.2645 19.3802C20.2808 19.3794 20.2824 19.3774 20.282 19.3612C20.2817 19.3594 20.2817 19.3575 20.282 19.3557C20.2841 19.3491 20.2798 19.3417 20.2865 19.3358C20.2897 19.3335 20.2932 19.3317 20.2969 19.3305C20.3005 19.3292 20.3036 19.3265 20.2997 19.323C20.2959 19.3195 20.2976 19.3172 20.3008 19.3146C20.3067 19.3104 20.311 19.3043 20.313 19.2974C20.314 19.2929 20.3137 19.2882 20.3091 19.2865C20.2991 19.2818 20.2882 19.2791 20.2771 19.2788C20.2564 19.2803 20.2362 19.2856 20.2174 19.2945C20.2126 19.2966 20.2082 19.2996 20.2045 19.3033L20.2042 19.3033Z" fill="#FEFEFE"/>
<path d="M19.4692 19.739L19.4604 19.7444C19.4529 19.749 19.4448 19.7524 19.4432 19.7632C19.4413 19.7689 19.4384 19.7742 19.4347 19.779C19.4489 19.7812 19.4501 19.764 19.4617 19.7635C19.4618 19.7664 19.461 19.7692 19.4596 19.7717C19.4581 19.7741 19.456 19.7762 19.4535 19.7776C19.4421 19.7832 19.4332 19.7929 19.4287 19.8049C19.4254 19.812 19.4212 19.8186 19.4163 19.8248C19.4204 19.8265 19.4222 19.8238 19.424 19.822C19.4375 19.8078 19.4523 19.7949 19.4681 19.7834C19.4871 19.7697 19.5035 19.7518 19.5283 19.7471C19.5579 19.7414 19.5871 19.7333 19.6176 19.7351C19.6312 19.7363 19.6448 19.7333 19.6567 19.7266C19.6638 19.7224 19.6718 19.7241 19.6787 19.7208C19.689 19.7154 19.6988 19.7091 19.7081 19.702C19.7161 19.6959 19.7247 19.6906 19.7337 19.6861C19.7383 19.684 19.7427 19.6808 19.7485 19.6838C19.7516 19.6855 19.7537 19.6822 19.7559 19.6804C19.7671 19.671 19.7779 19.6613 19.7928 19.6581C19.7936 19.6578 19.7944 19.6576 19.7952 19.6575C19.8001 19.6575 19.8068 19.6539 19.8093 19.6603C19.8113 19.6656 19.804 19.6662 19.8012 19.6692C19.7984 19.6722 19.7952 19.674 19.7926 19.6771C19.8022 19.6771 19.8072 19.6682 19.8156 19.6657C19.816 19.6671 19.8159 19.6686 19.8152 19.67C19.8146 19.6714 19.8136 19.6725 19.8123 19.6732C19.7846 19.6942 19.7596 19.7186 19.738 19.7457C19.7095 19.7811 19.6728 19.8039 19.6324 19.8224C19.601 19.8368 19.5698 19.8518 19.5387 19.867C19.5289 19.8717 19.5195 19.8772 19.5107 19.8834C19.505 19.8873 19.4983 19.8892 19.4915 19.8889C19.2147 19.8889 18.9378 19.8889 18.6609 19.8889C18.6531 19.8889 18.6509 19.8873 18.6509 19.879C18.6509 19.5748 18.6509 19.2706 18.6509 18.9664C18.6509 18.9588 18.6523 18.9563 18.6607 18.9563C19.0544 18.9563 19.4481 18.9563 19.8418 18.9563H19.8501C19.8323 18.9644 19.8146 18.9717 19.7971 18.9794C19.76 18.9959 19.7369 19.0248 19.7221 19.0616C19.7214 19.0641 19.7199 19.0663 19.7178 19.0679C19.6975 19.0811 19.6841 19.1005 19.6722 19.1209C19.663 19.1369 19.6538 19.153 19.6449 19.1692C19.6331 19.1909 19.6349 19.2137 19.6402 19.2365C19.6472 19.2672 19.6509 19.2986 19.6601 19.3288C19.661 19.3335 19.6614 19.3383 19.6613 19.343C19.6629 19.3534 19.6662 19.3634 19.6713 19.3726C19.6745 19.3779 19.6771 19.3836 19.6789 19.3896C19.6799 19.3928 19.6818 19.3958 19.6845 19.398C19.6959 19.4098 19.7061 19.4227 19.7152 19.4364C19.7173 19.4401 19.7218 19.4441 19.7184 19.4485C19.715 19.4529 19.7101 19.4504 19.7056 19.4498C19.693 19.4476 19.6814 19.4414 19.6725 19.4322C19.6651 19.4256 19.658 19.4184 19.6504 19.4111C19.6481 19.4153 19.6508 19.4172 19.6525 19.4191C19.6578 19.425 19.6634 19.4307 19.6686 19.4368C19.6702 19.4382 19.6713 19.4401 19.6717 19.4422C19.6722 19.4443 19.6719 19.4465 19.671 19.4484C19.6685 19.4528 19.664 19.4525 19.6596 19.4517H19.6581C19.6462 19.4497 19.6452 19.4504 19.644 19.4631C19.6359 19.4599 19.6272 19.4583 19.6185 19.4582C19.6161 19.4581 19.6137 19.4575 19.6116 19.4562C19.6095 19.455 19.6078 19.4532 19.6066 19.4511C19.6049 19.448 19.6025 19.4453 19.5995 19.4434C19.5965 19.4414 19.5931 19.4401 19.5896 19.4397C19.5475 19.4301 19.5047 19.4245 19.4615 19.4231C19.4443 19.4219 19.427 19.4251 19.4113 19.4325C19.3957 19.4398 19.3821 19.451 19.372 19.4651C19.3702 19.4675 19.3666 19.4702 19.3691 19.4732C19.3715 19.4761 19.375 19.4744 19.3779 19.4727C19.4146 19.4514 19.456 19.4462 19.4965 19.4383C19.5028 19.4372 19.5092 19.4369 19.5155 19.4374C19.5156 19.4378 19.5156 19.4383 19.5155 19.4388C19.4992 19.441 19.4832 19.4449 19.4678 19.4504C19.4497 19.4563 19.431 19.4598 19.4125 19.4643C19.405 19.466 19.3977 19.4687 19.3909 19.4724C19.407 19.472 19.4232 19.4725 19.4392 19.474C19.482 19.4791 19.5239 19.4868 19.562 19.5086C19.5673 19.5116 19.5722 19.5152 19.5766 19.5194C19.5815 19.5242 19.5875 19.5278 19.5941 19.5297C19.6007 19.5315 19.6077 19.5316 19.6144 19.53C19.6266 19.5279 19.6387 19.5251 19.6506 19.5216C19.6668 19.5174 19.6818 19.5095 19.6943 19.4984C19.6956 19.4972 19.6969 19.4956 19.699 19.4969C19.7012 19.4982 19.7003 19.5002 19.6998 19.5018C19.6961 19.5141 19.6947 19.5272 19.6869 19.5382C19.6831 19.5435 19.6859 19.5485 19.6935 19.5514C19.6874 19.5544 19.6806 19.5543 19.6757 19.5585C19.6743 19.5597 19.6691 19.5606 19.6737 19.5644C19.6744 19.5648 19.6745 19.566 19.6737 19.5661C19.6666 19.5668 19.6671 19.5723 19.6656 19.5772C19.6648 19.5803 19.659 19.5797 19.6571 19.5839C19.66 19.5874 19.6642 19.5845 19.6686 19.586C19.6539 19.5936 19.6388 19.6003 19.6232 19.6059C19.6204 19.6068 19.6177 19.6077 19.6186 19.611C19.6194 19.6144 19.6226 19.6116 19.6247 19.6125C19.6243 19.6153 19.6215 19.6155 19.6197 19.6165C19.6021 19.6264 19.5844 19.6358 19.567 19.6458C19.5612 19.6491 19.5537 19.6509 19.5516 19.6585C19.5509 19.6604 19.5489 19.6599 19.5474 19.6598C19.5408 19.6598 19.5408 19.6657 19.5408 19.6687C19.5415 19.6738 19.5461 19.6706 19.5492 19.6701C19.5537 19.6694 19.5583 19.6656 19.5643 19.6707C19.5511 19.6723 19.5431 19.6812 19.5336 19.6889C19.563 19.6854 19.5923 19.6865 19.6204 19.6785C19.6566 19.6682 19.6867 19.6469 19.7137 19.6216C19.715 19.6203 19.7163 19.619 19.7177 19.6177C19.7205 19.6155 19.7232 19.6097 19.7258 19.6116C19.7295 19.6145 19.7258 19.6193 19.7239 19.6229C19.7178 19.6365 19.7077 19.648 19.6949 19.6557C19.6866 19.6609 19.6787 19.6668 19.6709 19.6726C19.6529 19.6858 19.632 19.6897 19.6113 19.6936C19.5791 19.6997 19.5463 19.7021 19.5145 19.711C19.4955 19.7159 19.4775 19.7241 19.4615 19.7353C19.4568 19.7388 19.4501 19.7371 19.4462 19.742C19.445 19.7435 19.4419 19.7443 19.4434 19.7468C19.445 19.7493 19.4473 19.7481 19.4493 19.7468C19.4549 19.7429 19.461 19.7397 19.4674 19.7373L19.4692 19.739ZM19.3998 19.6252C19.4026 19.6264 19.4056 19.627 19.4086 19.627C19.4116 19.627 19.4146 19.6264 19.4174 19.6252C19.4296 19.6209 19.4416 19.6152 19.4552 19.6165C19.4566 19.6164 19.4579 19.6161 19.4591 19.6156C19.474 19.6123 19.489 19.609 19.5039 19.6055C19.5286 19.5997 19.5527 19.591 19.5755 19.5798C19.5311 19.5461 19.4788 19.5343 19.4273 19.5194C19.4287 19.5179 19.4316 19.5188 19.4316 19.5166C19.4316 19.5145 19.4292 19.5141 19.4277 19.5137C19.423 19.5125 19.4183 19.5117 19.4137 19.5107C19.4122 19.5107 19.4092 19.5107 19.4096 19.5093C19.4121 19.5016 19.405 19.5033 19.4023 19.5027C19.3924 19.4998 19.3821 19.498 19.371 19.4956C19.3764 19.4928 19.3808 19.4903 19.3825 19.4851C19.3834 19.4824 19.3854 19.4795 19.3825 19.4771C19.3797 19.4748 19.3776 19.4771 19.3753 19.4783C19.3622 19.4861 19.3515 19.4973 19.3443 19.5107C19.341 19.5165 19.334 19.524 19.3372 19.5288C19.3405 19.5337 19.3505 19.5328 19.3581 19.5328C19.363 19.5319 19.368 19.5321 19.3728 19.5333C19.3702 19.5358 19.3668 19.5375 19.3631 19.538C19.3581 19.5386 19.3532 19.5398 19.3486 19.5417C19.3443 19.5442 19.3416 19.5471 19.3474 19.5511C19.3441 19.5533 19.34 19.5537 19.3382 19.5577C19.3398 19.559 19.3417 19.5598 19.3436 19.5602C19.3456 19.5605 19.3476 19.5604 19.3495 19.5599C19.3519 19.5589 19.3546 19.5589 19.3571 19.5598C19.3595 19.5607 19.3616 19.5625 19.3628 19.5648C19.3469 19.5715 19.3433 19.5902 19.3296 19.5988C19.3293 19.5991 19.3291 19.5994 19.3289 19.5998C19.3287 19.6002 19.3287 19.6006 19.3287 19.601C19.3294 19.6055 19.3262 19.6076 19.3233 19.6098C19.3132 19.6179 19.3034 19.6268 19.2928 19.634C19.2822 19.6411 19.2806 19.6568 19.269 19.6638C19.2685 19.664 19.2682 19.6643 19.2679 19.6647C19.2675 19.665 19.2673 19.6654 19.2672 19.6659C19.267 19.6663 19.267 19.6668 19.267 19.6673C19.2671 19.6677 19.2672 19.6682 19.2674 19.6686C19.269 19.6708 19.2708 19.6691 19.2724 19.6686C19.2761 19.6671 19.2797 19.6654 19.2831 19.6635C19.3007 19.6525 19.3189 19.6427 19.3377 19.634C19.359 19.625 19.3793 19.6154 19.4031 19.6203C19.4035 19.6205 19.4039 19.6208 19.4042 19.6211C19.404 19.6238 19.4003 19.6222 19.3998 19.6252ZM19.4239 19.3956C19.4154 19.3919 19.4063 19.3902 19.3971 19.3906C19.3879 19.3911 19.3789 19.3936 19.3708 19.3981C19.3379 19.4169 19.3083 19.4409 19.283 19.4692C19.2667 19.4877 19.2478 19.5038 19.227 19.517C19.2229 19.5194 19.2196 19.5229 19.2175 19.5272C19.2036 19.5545 19.1872 19.5806 19.1687 19.6051C19.1673 19.607 19.1645 19.6085 19.1655 19.6118C19.1685 19.6122 19.1694 19.6096 19.1708 19.608C19.1886 19.5881 19.2065 19.5688 19.2257 19.5507C19.2474 19.53 19.271 19.5115 19.2961 19.4952C19.2989 19.4934 19.301 19.4927 19.3034 19.4952C19.3058 19.4978 19.3018 19.4986 19.3012 19.5004C19.3007 19.5022 19.2997 19.5026 19.2992 19.5038C19.2987 19.505 19.2957 19.5084 19.2977 19.51C19.2998 19.5117 19.303 19.5093 19.3049 19.5072C19.3058 19.5062 19.3062 19.5047 19.3071 19.5039C19.3108 19.5005 19.3101 19.4939 19.3134 19.4918C19.3258 19.4836 19.3322 19.4712 19.3386 19.4586C19.3436 19.4482 19.3507 19.4389 19.3594 19.4312C19.3722 19.4205 19.3865 19.4118 19.3988 19.3998C19.4 19.4024 19.3998 19.4069 19.4032 19.405C19.4096 19.4016 19.4177 19.4018 19.4239 19.3956ZM19.4072 19.7193C19.3954 19.7137 19.3848 19.7174 19.3748 19.715C19.3703 19.7141 19.3657 19.7147 19.3616 19.7166C19.3541 19.72 19.3461 19.7224 19.338 19.7238C19.3148 19.7275 19.2938 19.7397 19.279 19.7579C19.2772 19.76 19.2666 19.7622 19.2768 19.7678C19.2768 19.7678 19.2761 19.7697 19.2759 19.7707C19.275 19.7776 19.2723 19.7841 19.2681 19.7896C19.263 19.7967 19.2576 19.8035 19.2521 19.8104C19.2502 19.8128 19.2491 19.8152 19.2521 19.817C19.2551 19.8188 19.2553 19.8155 19.2566 19.8142C19.2648 19.8062 19.2705 19.7943 19.2849 19.7959C19.2858 19.7959 19.287 19.7945 19.2879 19.7935C19.2977 19.7824 19.31 19.7737 19.3239 19.7682C19.3537 19.7573 19.3769 19.7341 19.4072 19.7193ZM19.4711 19.6417C19.4623 19.6351 19.4538 19.633 19.4446 19.6395C19.4418 19.641 19.4388 19.642 19.4357 19.6425C19.4331 19.6432 19.4308 19.6446 19.4291 19.6466C19.4279 19.648 19.4262 19.6496 19.4274 19.6514C19.4286 19.6532 19.4302 19.6524 19.4317 19.6522C19.442 19.6506 19.4524 19.6491 19.4627 19.6472C19.4661 19.6465 19.4691 19.6446 19.4711 19.6417ZM19.3932 19.7606C19.3932 19.7596 19.392 19.7591 19.3906 19.7589C19.389 19.7587 19.3874 19.7589 19.386 19.7595C19.3845 19.7601 19.3832 19.761 19.3822 19.7622C19.3764 19.7679 19.3705 19.7735 19.3647 19.7792C19.3632 19.7807 19.3596 19.7819 19.3618 19.7845C19.3623 19.785 19.3629 19.7854 19.3635 19.7856C19.3641 19.7859 19.3648 19.786 19.3654 19.786C19.3661 19.786 19.3668 19.7859 19.3674 19.7856C19.368 19.7854 19.3686 19.785 19.3691 19.7845C19.3733 19.7806 19.3783 19.7775 19.3837 19.7756C19.3901 19.7728 19.3907 19.7666 19.3932 19.7606Z" fill="#273375"/>
<path d="M20.3341 19.5442C20.3408 19.54 20.3465 19.537 20.3515 19.5332C20.3609 19.5262 20.362 19.5193 20.3561 19.5091L20.3545 19.5064C20.3463 19.4912 20.3446 19.4793 20.3682 19.4745C20.3703 19.474 20.3723 19.4735 20.3743 19.4729C20.392 19.4677 20.398 19.4559 20.3905 19.439C20.3816 19.4218 20.3712 19.4055 20.3594 19.3903C20.3521 19.3795 20.3448 19.3688 20.3383 19.3576C20.3304 19.3452 20.3278 19.3302 20.3308 19.3158C20.3367 19.2882 20.3314 19.261 20.3242 19.2343C20.3186 19.214 20.3121 19.1938 20.3058 19.1737C20.3043 19.1697 20.3025 19.1659 20.3003 19.1623C20.2993 19.161 20.2986 19.1594 20.2982 19.1578C20.2979 19.1562 20.2979 19.1545 20.2982 19.1529C20.2985 19.1513 20.2992 19.1498 20.3002 19.1484C20.3012 19.1471 20.3025 19.146 20.3039 19.1452C20.3085 19.1416 20.3131 19.138 20.3172 19.134C20.3192 19.1322 20.3207 19.1299 20.3217 19.1274C20.3227 19.1249 20.3231 19.1221 20.3229 19.1194C20.3227 19.1167 20.3219 19.1141 20.3205 19.1117C20.3191 19.1094 20.3172 19.1074 20.315 19.1059C20.3142 19.1051 20.3132 19.1045 20.3121 19.1042C20.311 19.1038 20.3098 19.1038 20.3087 19.104C20.3076 19.1043 20.3065 19.1048 20.3056 19.1055C20.3048 19.1063 20.3041 19.1072 20.3036 19.1083C20.302 19.1121 20.2997 19.1158 20.297 19.119C20.2961 19.1201 20.2947 19.1208 20.2932 19.121C20.2917 19.1211 20.2903 19.1207 20.2891 19.1197C20.287 19.1179 20.2891 19.1154 20.2903 19.1134C20.2955 19.1061 20.2955 19.1062 20.2867 19.1045C20.2848 19.1044 20.2828 19.1039 20.281 19.103C20.2793 19.1021 20.2777 19.1009 20.2764 19.0994C20.2618 19.0804 20.2423 19.0657 20.2199 19.0571C20.2189 19.0567 20.218 19.0562 20.2171 19.0556C20.2171 19.0556 20.2171 19.0552 20.2171 19.0542C20.2215 19.0546 20.2258 19.0549 20.2303 19.0554C20.2374 19.0562 20.2446 19.0564 20.2517 19.0558C20.2576 19.0557 20.2633 19.0538 20.2679 19.0502C20.2726 19.0466 20.2759 19.0415 20.2773 19.0359C20.2836 19.015 20.2802 19.0027 20.2626 18.9881C20.249 18.9767 20.2327 18.9702 20.2176 18.9616L20.2106 18.9576C20.2133 18.9562 20.2165 18.9557 20.2195 18.9563C20.5421 18.9563 20.8647 18.9563 21.1874 18.9563C21.1947 18.9563 21.1971 18.9577 21.1971 18.9657C21.1971 19.2706 21.1971 19.5753 21.1971 19.8799C21.1971 19.8874 21.1949 19.8889 21.1878 19.8889C20.8691 19.8887 20.5507 19.8886 20.2325 19.8886C20.2279 19.8886 20.2233 19.8874 20.2193 19.885C20.1833 19.8652 20.1446 19.8515 20.106 19.8379C20.1038 19.837 20.1016 19.8362 20.0993 19.8356C20.0847 19.8333 20.0801 19.8229 20.0791 19.8101C20.0743 19.7513 20.0942 19.7026 20.14 19.6652C20.1509 19.6574 20.1643 19.654 20.1776 19.6557C20.2026 19.6571 20.2268 19.6635 20.2513 19.6668C20.258 19.6677 20.2641 19.67 20.2705 19.6713C20.2791 19.6731 20.288 19.6731 20.2966 19.6713C20.3052 19.6695 20.3133 19.6658 20.3204 19.6606C20.3284 19.6539 20.3341 19.6446 20.3366 19.6344C20.339 19.6241 20.3381 19.6133 20.3339 19.6036C20.3322 19.6008 20.3316 19.5976 20.3322 19.5944C20.3328 19.5912 20.3346 19.5884 20.3372 19.5865C20.3411 19.583 20.3453 19.5798 20.3493 19.5763C20.3516 19.5744 20.353 19.5718 20.3535 19.5689C20.354 19.566 20.3534 19.563 20.3519 19.5606C20.3506 19.5565 20.3483 19.5529 20.3452 19.5501C20.3421 19.5472 20.3383 19.5452 20.3341 19.5442Z" fill="#E20613"/>
<path d="M20.6061 20.4456C20.5687 20.4456 20.5314 20.4456 20.494 20.4456C20.4874 20.4456 20.4868 20.4469 20.4879 20.4531C20.4958 20.5017 20.531 20.533 20.5807 20.535C20.6134 20.5363 20.6431 20.5288 20.6668 20.5046C20.6765 20.4948 20.6765 20.4947 20.6874 20.5035C20.7022 20.5155 20.7168 20.5278 20.7319 20.5394C20.7374 20.5435 20.7363 20.546 20.7326 20.5505C20.7042 20.584 20.6642 20.6056 20.6206 20.6109C20.576 20.6171 20.5323 20.613 20.4915 20.5919C20.4393 20.565 20.4096 20.5212 20.3996 20.4642C20.3898 20.4148 20.3988 20.3635 20.425 20.3205C20.4521 20.2762 20.4928 20.2518 20.5437 20.2441C20.5811 20.2385 20.6179 20.2411 20.652 20.2588C20.6963 20.2819 20.7206 20.3195 20.7283 20.3683C20.7317 20.3916 20.7312 20.4154 20.7268 20.4386C20.7259 20.4438 20.7239 20.4459 20.7181 20.4458C20.6808 20.4452 20.6434 20.4456 20.6061 20.4456ZM20.5679 20.3745C20.5914 20.3745 20.615 20.3745 20.6385 20.3745C20.6431 20.3745 20.6444 20.3735 20.6434 20.3687C20.641 20.3542 20.6334 20.3411 20.622 20.3318C20.6041 20.3172 20.583 20.3141 20.5607 20.3153C20.5455 20.316 20.531 20.3214 20.519 20.3307C20.507 20.34 20.4981 20.3528 20.4936 20.3673C20.492 20.3725 20.4923 20.3747 20.4987 20.3746C20.5218 20.3741 20.5448 20.3743 20.5679 20.3743V20.3745Z" fill="#273375"/>
<path d="M20.7531 21.0228C20.7154 21.0228 20.6779 21.0228 20.6404 21.0228C20.6343 21.0228 20.6332 21.024 20.6342 21.0302C20.6427 21.0851 20.6844 21.1155 20.7424 21.1126C20.7733 21.111 20.8 21.1 20.8197 21.0749C20.8215 21.0725 20.8228 21.0721 20.8253 21.0741C20.8437 21.0892 20.8622 21.1042 20.8808 21.1191C20.885 21.1225 20.882 21.1245 20.88 21.1268C20.8567 21.1556 20.8243 21.1758 20.7882 21.1842C20.7288 21.1982 20.6717 21.1931 20.6199 21.1588C20.5743 21.1284 20.5506 21.0843 20.5443 21.031C20.538 20.9871 20.5463 20.9424 20.568 20.9037C20.5962 20.854 20.6401 20.8279 20.6961 20.8209C20.73 20.8156 20.7648 20.8206 20.7959 20.8353C20.8413 20.8579 20.8662 20.8956 20.8743 20.9449C20.8779 20.968 20.8775 20.9915 20.8733 21.0145C20.8723 21.0207 20.8704 21.0232 20.8634 21.0231C20.8267 21.0224 20.7899 21.0228 20.7531 21.0228ZM20.6384 20.9526C20.6879 20.9526 20.7368 20.9526 20.7857 20.9526C20.7909 20.9526 20.7904 20.9502 20.7898 20.9467C20.7883 20.9378 20.7849 20.9293 20.7798 20.9219C20.7747 20.9145 20.768 20.9083 20.7601 20.9038C20.7448 20.8952 20.7273 20.8913 20.7097 20.8926C20.6928 20.8929 20.6764 20.899 20.6634 20.9099C20.6504 20.9209 20.6416 20.9359 20.6384 20.9526Z" fill="#E20714"/>
<path d="M19.1684 21.0226C19.1313 21.0226 19.0943 21.0226 19.0571 21.0226C19.0498 21.0226 19.0493 21.025 19.0505 21.0312C19.0603 21.0885 19.1043 21.115 19.1586 21.1123C19.1896 21.1106 19.2163 21.0995 19.2359 21.0743C19.2379 21.0716 19.2393 21.0722 19.2415 21.0739C19.2598 21.0889 19.2779 21.1039 19.2964 21.1185C19.3011 21.1221 19.298 21.1242 19.296 21.1266C19.2763 21.1512 19.2499 21.1694 19.2199 21.1791C19.1556 21.1994 19.0932 21.1958 19.0357 21.1583C18.9912 21.1293 18.9679 21.0854 18.9609 21.0338C18.9543 20.9913 18.9613 20.9478 18.9808 20.9095C19.0084 20.8565 19.0532 20.8283 19.1117 20.8208C19.1459 20.8153 19.181 20.8203 19.2123 20.8352C19.2587 20.8585 19.2836 20.8975 19.2911 20.9479C19.2938 20.9694 19.2935 20.9913 19.2899 21.0128C19.2888 21.0207 19.2857 21.0228 19.2779 21.0226C19.2416 21.0222 19.205 21.0226 19.1684 21.0226ZM19.1308 20.9524C19.1541 20.9524 19.1773 20.9524 19.2007 20.9524C19.2058 20.9524 19.2069 20.9512 19.206 20.9461C19.2036 20.9314 19.1958 20.918 19.184 20.9087C19.1675 20.8965 19.1471 20.8907 19.1266 20.8924C19.1107 20.8925 19.0953 20.8978 19.0826 20.9073C19.0699 20.9169 19.0606 20.9302 19.0561 20.9454C19.0544 20.9506 19.0545 20.9526 19.061 20.9525C19.0843 20.9522 19.1076 20.9524 19.1308 20.9524Z" fill="#E20714"/>
<path d="M18.6509 20.3603C18.6509 20.2834 18.6509 20.2066 18.6509 20.1298C18.6509 20.1228 18.6524 20.1211 18.6595 20.1211C18.7469 20.1214 18.8343 20.1214 18.9217 20.1211C18.9283 20.1211 18.93 20.1228 18.9299 20.1294C18.9295 20.1535 18.9295 20.1776 18.9299 20.2017C18.9299 20.208 18.9282 20.2097 18.922 20.2096C18.8669 20.2096 18.8118 20.2096 18.7567 20.2096C18.7501 20.2096 18.7478 20.2111 18.7479 20.2183C18.7484 20.2468 18.7483 20.2755 18.7479 20.3041C18.7479 20.3107 18.75 20.3123 18.7564 20.3122C18.8028 20.3122 18.8486 20.3122 18.8947 20.3122C18.9013 20.3122 18.9026 20.3139 18.9024 20.32C18.9021 20.3444 18.9021 20.3688 18.9024 20.3929C18.9024 20.3991 18.9006 20.4002 18.8949 20.4002C18.8485 20.4002 18.8021 20.4002 18.7557 20.4002C18.7494 20.4002 18.7477 20.4018 18.7478 20.4081C18.7478 20.4693 18.7478 20.5305 18.7478 20.5917C18.7478 20.5987 18.746 20.6005 18.739 20.6004C18.7125 20.5999 18.6855 20.6 18.6587 20.6004C18.6521 20.6004 18.6504 20.5988 18.6504 20.5921C18.6509 20.5144 18.6509 20.4373 18.6509 20.3603Z" fill="#273375"/>
<path d="M19.4534 20.5681C19.4326 20.5922 19.4036 20.6076 19.372 20.6113C19.3302 20.6162 19.2915 20.6087 19.264 20.5737C19.2237 20.5226 19.2412 20.4506 19.3002 20.42C19.3226 20.4093 19.3467 20.4023 19.3714 20.3994C19.3969 20.3953 19.4225 20.3907 19.4481 20.3867C19.4527 20.386 19.4534 20.3842 19.4535 20.3801C19.4545 20.3398 19.425 20.3138 19.3823 20.3176C19.3696 20.3183 19.3572 20.322 19.3461 20.3283C19.335 20.3346 19.3256 20.3434 19.3185 20.354C19.3157 20.358 19.3141 20.3586 19.31 20.3554C19.2919 20.3413 19.2736 20.3272 19.2552 20.3134C19.2514 20.3106 19.2508 20.3088 19.2541 20.3048C19.2688 20.2866 19.287 20.2716 19.3077 20.2608C19.3285 20.25 19.3512 20.2436 19.3745 20.242C19.4049 20.2384 19.4357 20.2426 19.464 20.2543C19.5141 20.2762 19.5394 20.316 19.5405 20.3696C19.542 20.4437 19.5405 20.5179 19.541 20.5921C19.541 20.5981 19.5395 20.5996 19.5336 20.5995C19.5089 20.5991 19.4842 20.5995 19.4597 20.5995C19.4549 20.5995 19.453 20.5985 19.453 20.5934C19.4538 20.5857 19.4534 20.5778 19.4534 20.5681ZM19.4534 20.4726C19.4534 20.4679 19.4531 20.4631 19.4534 20.4584C19.454 20.4527 19.4522 20.4512 19.4465 20.4522C19.4278 20.4557 19.409 20.4588 19.3902 20.4619C19.3753 20.4634 19.3606 20.4673 19.347 20.4737C19.3406 20.4768 19.3354 20.4818 19.332 20.488C19.3287 20.4942 19.3273 20.5014 19.3282 20.5084C19.3288 20.5157 19.3319 20.5226 19.337 20.5279C19.342 20.5333 19.3488 20.5368 19.356 20.5378C19.3698 20.5406 19.3841 20.54 19.3976 20.5361C19.4111 20.5322 19.4235 20.5251 19.4337 20.5154C19.4466 20.5041 19.4582 20.492 19.4534 20.4726Z" fill="#273375"/>
<path d="M19.7187 20.2803C19.7356 20.2638 19.7564 20.2521 19.7792 20.2463C19.8294 20.2349 19.8757 20.2413 19.9135 20.2794C19.9373 20.3034 19.9471 20.3339 19.9511 20.3667C19.9529 20.3899 19.9535 20.4133 19.9526 20.4366C19.9526 20.4882 19.9526 20.5399 19.9526 20.5916C19.9526 20.5978 19.9511 20.5995 19.9448 20.5994C19.9207 20.599 19.8966 20.599 19.8725 20.5994C19.8659 20.5994 19.8646 20.5977 19.8646 20.5916C19.8646 20.5271 19.8646 20.4628 19.8646 20.3984C19.8648 20.3875 19.8631 20.3767 19.8598 20.3663C19.849 20.3346 19.8189 20.3177 19.7839 20.3234C19.7544 20.3283 19.7348 20.3464 19.7199 20.3709C19.7185 20.374 19.7179 20.3775 19.7184 20.3809C19.7184 20.4509 19.7184 20.5208 19.7184 20.5908C19.7184 20.5979 19.7166 20.5996 19.7097 20.5994C19.685 20.599 19.6604 20.5994 19.6358 20.5994C19.6311 20.5994 19.6292 20.5986 19.6292 20.5934C19.6292 20.4824 19.6292 20.3714 19.6292 20.2603C19.6292 20.256 19.63 20.2544 19.6347 20.2545C19.6607 20.2545 19.6866 20.2545 19.7126 20.2545C19.7167 20.2545 19.7183 20.2555 19.7181 20.2598C19.7184 20.266 19.7187 20.272 19.7187 20.2803Z" fill="#273375"/>
<path d="M20.1641 21.0059C20.1641 20.9242 20.2084 20.8566 20.2802 20.8317C20.3468 20.8087 20.4109 20.8144 20.4692 20.8573C20.479 20.8649 20.4879 20.8736 20.4957 20.8832C20.4984 20.8864 20.4996 20.8885 20.4951 20.8918C20.4745 20.907 20.4541 20.9227 20.4339 20.9385C20.4301 20.9415 20.4287 20.9407 20.4261 20.9373C20.4007 20.9049 20.3672 20.8942 20.328 20.9042C20.2888 20.9142 20.2645 20.9408 20.2566 20.9801C20.2479 21.0236 20.2575 21.0627 20.2946 21.0906C20.3142 21.1055 20.339 21.1121 20.3634 21.1089C20.3879 21.1057 20.4101 21.0931 20.4253 21.0736C20.4287 21.0694 20.4305 21.0687 20.435 21.0722C20.4546 21.0875 20.4743 21.1027 20.4942 21.1176C20.4986 21.1208 20.4992 21.1227 20.4955 21.1271C20.4809 21.1448 20.4629 21.1594 20.4426 21.1701C20.4223 21.1808 20.4 21.1874 20.3772 21.1895C20.3315 21.1946 20.2878 21.1877 20.2482 21.163C20.1992 21.1325 20.1731 21.0871 20.1655 21.0304C20.1643 21.0223 20.1639 21.0141 20.1641 21.0059Z" fill="#E20714"/>
<path d="M20.2023 20.241C20.2627 20.242 20.3113 20.2605 20.3486 20.3045C20.3523 20.3088 20.3529 20.3111 20.3478 20.3148C20.3279 20.3296 20.308 20.3448 20.2884 20.36C20.285 20.3626 20.2832 20.3639 20.2797 20.3594C20.2544 20.3269 20.2209 20.3164 20.1816 20.3263C20.1423 20.3362 20.1182 20.363 20.1103 20.4022C20.1016 20.445 20.111 20.4837 20.147 20.5118C20.1666 20.527 20.1915 20.5339 20.2162 20.5309C20.2409 20.5278 20.2633 20.5151 20.2787 20.4955C20.282 20.4914 20.2839 20.4906 20.2885 20.4942C20.308 20.5096 20.3278 20.5247 20.3478 20.5395C20.3523 20.5429 20.3523 20.545 20.3487 20.5492C20.3333 20.5678 20.3141 20.5829 20.2925 20.5938C20.2709 20.6046 20.2473 20.6108 20.2232 20.6121C20.1848 20.6161 20.146 20.6087 20.1117 20.5908C20.0884 20.5788 20.0682 20.5616 20.0526 20.5406C20.0371 20.5195 20.0265 20.4952 20.0219 20.4694C20.0102 20.4125 20.0194 20.3592 20.0544 20.312C20.0839 20.2722 20.1245 20.251 20.1728 20.2436C20.184 20.242 20.1952 20.2416 20.2023 20.241Z" fill="#273375"/>
<path d="M19.7753 21.0769C19.8013 21.005 19.8269 20.9345 19.8524 20.864C19.8556 20.8551 19.859 20.8462 19.8621 20.8372C19.8623 20.8357 19.8631 20.8345 19.8643 20.8337C19.8654 20.8328 19.8669 20.8325 19.8683 20.8326C19.8959 20.8326 19.9234 20.8326 19.951 20.8326C19.9588 20.8326 19.9556 20.8367 19.9543 20.8401C19.927 20.9153 19.8997 20.9905 19.8725 21.0659C19.8599 21.1006 19.8471 21.1353 19.8348 21.1702C19.8343 21.1725 19.833 21.1744 19.8311 21.1757C19.8292 21.177 19.8268 21.1775 19.8245 21.1772C19.7914 21.1772 19.7578 21.1772 19.7244 21.1772C19.7197 21.1772 19.7172 21.1764 19.7153 21.1713C19.6755 21.0608 19.6355 20.9505 19.5952 20.8405C19.5929 20.8343 19.5935 20.8326 19.6005 20.8326C19.6262 20.833 19.6519 20.833 19.6776 20.8326C19.6801 20.8322 19.6827 20.8328 19.6848 20.8343C19.6869 20.8357 19.6884 20.838 19.6889 20.8405C19.7164 20.9165 19.744 20.9924 19.7718 21.0683C19.7727 21.0707 19.7738 21.0731 19.7753 21.0769Z" fill="#E20714"/>
<path d="M21.0715 20.8191C21.0942 20.819 21.1166 20.8237 21.1374 20.8328C21.1582 20.842 21.1769 20.8554 21.1922 20.8721C21.1963 20.8766 21.1964 20.8793 21.1918 20.8835C21.1754 20.8987 21.1594 20.914 21.1434 20.9295C21.1399 20.933 21.1385 20.9322 21.1357 20.9289C21.1213 20.9117 21.1049 20.8974 21.0819 20.8935C21.0711 20.8915 21.06 20.8929 21.05 20.8975C21.0458 20.899 21.042 20.9017 21.0391 20.9053C21.0363 20.9088 21.0345 20.9131 21.0339 20.9176C21.0333 20.9221 21.0339 20.9267 21.0358 20.9309C21.0376 20.9351 21.0405 20.9387 21.0443 20.9413C21.0547 20.949 21.0662 20.9551 21.0785 20.9594C21.1009 20.9674 21.1225 20.9775 21.143 20.9895C21.1666 21.0048 21.1836 21.025 21.1895 21.0531C21.2027 21.1158 21.167 21.1728 21.1044 21.1864C21.0381 21.2007 20.9809 21.1829 20.934 21.1333C20.9305 21.1296 20.9299 21.1273 20.934 21.1233C20.9502 21.1081 20.9661 21.0926 20.9818 21.0769C20.986 21.0727 20.9879 21.0725 20.9918 21.0772C21.0048 21.0944 21.0227 21.1073 21.0431 21.1144C21.0575 21.1193 21.0732 21.1189 21.0874 21.1132C21.1063 21.1051 21.1162 21.077 21.0923 21.0609C21.0787 21.0526 21.0644 21.0458 21.0494 21.0405C21.0321 21.034 21.0153 21.026 20.9993 21.0167C20.9615 20.9934 20.9443 20.9594 20.9486 20.9157C20.9529 20.8709 20.9796 20.8428 21.0207 20.8277C21.0369 20.8218 21.0541 20.8188 21.0715 20.8191Z" fill="#E20714"/>
<path d="M18.7712 20.8191C18.8186 20.8204 18.8593 20.8366 18.8919 20.8721C18.8964 20.877 18.896 20.8796 18.8911 20.884C18.8754 20.8982 18.8601 20.9129 18.8452 20.9279C18.8403 20.9327 18.8381 20.9323 18.8339 20.9272C18.8201 20.9106 18.8038 20.8973 18.7817 20.8936C18.7701 20.8914 18.7582 20.8931 18.7478 20.8987C18.744 20.9004 18.7407 20.903 18.7382 20.9063C18.7358 20.9097 18.7342 20.9136 18.7336 20.9177C18.7331 20.9218 18.7336 20.926 18.7351 20.9298C18.7367 20.9337 18.7392 20.9371 18.7424 20.9397C18.7508 20.9469 18.7605 20.9526 18.771 20.9563C18.7904 20.9646 18.8108 20.9716 18.8292 20.9816C18.8565 20.9961 18.8787 21.0153 18.8874 21.0463C18.9027 21.1004 18.8803 21.1684 18.805 21.1861C18.7381 21.2017 18.68 21.1828 18.6326 21.1322C18.6295 21.1288 18.6298 21.127 18.6326 21.124C18.6489 21.1085 18.665 21.0927 18.6809 21.0768C18.6849 21.0729 18.6869 21.0721 18.6911 21.0768C18.7065 21.0952 18.7242 21.11 18.7485 21.1157C18.7596 21.1185 18.7712 21.1181 18.7822 21.1147C18.7882 21.1131 18.7937 21.1097 18.7978 21.105C18.802 21.1003 18.8046 21.0944 18.8054 21.0882C18.8073 21.0749 18.8004 21.0664 18.7904 21.0597C18.776 21.0513 18.7609 21.0443 18.7451 21.0389C18.7217 21.0305 18.6997 21.0183 18.6802 21.0029C18.6319 20.9617 18.6312 20.8649 18.7118 20.8306C18.7306 20.8228 18.7508 20.8189 18.7712 20.8191Z" fill="#E20714"/>
<path d="M19.0831 20.2879C19.0957 20.2748 19.1107 20.2643 19.1273 20.257C19.1494 20.2477 19.1739 20.2456 19.1972 20.251C19.2019 20.2521 19.2039 20.2536 19.2039 20.2588C19.2039 20.2853 19.2039 20.3119 19.2039 20.3384C19.2039 20.343 19.2031 20.3441 19.1981 20.3429C19.1744 20.3368 19.1493 20.3381 19.1264 20.3469C19.1171 20.3507 19.1084 20.356 19.1008 20.3626C19.0949 20.3672 19.0902 20.3731 19.087 20.3799C19.0839 20.3866 19.0824 20.3941 19.0828 20.4015C19.0839 20.4648 19.0831 20.5282 19.0834 20.5915C19.0834 20.5981 19.0819 20.5999 19.0752 20.5997C19.0508 20.5993 19.0265 20.5994 19.0023 20.5997C18.9968 20.5997 18.9951 20.5983 18.9951 20.5927C18.9951 20.4822 18.9951 20.3718 18.9951 20.2613C18.9951 20.256 18.9966 20.2546 19.0017 20.2546C19.0269 20.2546 19.0521 20.2546 19.0772 20.2546C19.0829 20.2546 19.0839 20.2567 19.0835 20.2613C19.0829 20.2695 19.0831 20.2776 19.0831 20.2879Z" fill="#273375"/>
<path d="M19.4489 20.8656C19.4609 20.8533 19.4751 20.8433 19.4906 20.836C19.513 20.8259 19.538 20.8233 19.562 20.8286C19.567 20.8298 19.5695 20.8314 19.5694 20.8374C19.5689 20.8631 19.5689 20.8888 19.5694 20.9145C19.5694 20.9211 19.5675 20.9215 19.5617 20.9203C19.5335 20.9147 19.5059 20.9153 19.4802 20.9306C19.4757 20.9333 19.4714 20.9364 19.4674 20.9398C19.4612 20.9444 19.4562 20.9505 19.4529 20.9575C19.4496 20.9645 19.4481 20.9722 19.4485 20.9799C19.4497 21.0425 19.4485 21.105 19.4492 21.1676C19.4492 21.1759 19.4468 21.1773 19.4391 21.1772C19.4156 21.1767 19.392 21.1768 19.3684 21.1772C19.3628 21.1772 19.3608 21.1763 19.3608 21.17C19.3608 21.0601 19.3608 20.9501 19.3608 20.8401C19.3608 20.834 19.3625 20.8326 19.3683 20.8327C19.3927 20.8331 19.4171 20.8327 19.4412 20.8327C19.447 20.8327 19.4494 20.8337 19.4489 20.84C19.4484 20.8479 19.4489 20.8558 19.4489 20.8656Z" fill="#E20613"/>
<path d="M20.0035 21.0051C20.0035 20.9503 20.0035 20.8955 20.0035 20.8407C20.0035 20.8341 20.0052 20.8324 20.0118 20.8325C20.0361 20.8329 20.0605 20.8329 20.0847 20.8325C20.0903 20.8325 20.0925 20.8335 20.0924 20.8398C20.0924 20.9499 20.0924 21.0601 20.0924 21.1702C20.0924 21.1751 20.0916 21.1768 20.0858 21.1768C20.0604 21.1765 20.0349 21.1765 20.0096 21.1768C20.0041 21.1768 20.0029 21.175 20.0029 21.1702C20.0034 21.1153 20.0035 21.0603 20.0035 21.0051Z" fill="#E20714"/>
<path d="M19.9907 20.7211C19.9908 20.7062 19.9968 20.6919 20.0075 20.6813C20.0181 20.6708 20.0324 20.6649 20.0474 20.6649C20.0551 20.6644 20.0629 20.6655 20.0702 20.6681C20.0774 20.6707 20.0841 20.6748 20.0898 20.6801C20.0954 20.6854 20.0999 20.6918 20.1029 20.699C20.106 20.7061 20.1076 20.7137 20.1075 20.7215C20.1075 20.7292 20.1059 20.7369 20.1028 20.744C20.0997 20.751 20.0951 20.7574 20.0895 20.7627C20.0838 20.768 20.0771 20.772 20.0698 20.7746C20.0625 20.7771 20.0547 20.7782 20.047 20.7776C20.0321 20.7775 20.0178 20.7715 20.0072 20.761C19.9967 20.7504 19.9908 20.7361 19.9907 20.7211Z" fill="#E20714"/>
<path d="M20.2039 19.3032C20.2077 19.2996 20.2122 19.2967 20.2171 19.2947C20.2359 19.2859 20.2561 19.2806 20.2768 19.2791C20.2879 19.2793 20.2988 19.2818 20.3089 19.2865C20.3135 19.2882 20.3138 19.2932 20.3128 19.2974C20.3108 19.3044 20.3065 19.3104 20.3006 19.3146C20.2974 19.3172 20.2952 19.319 20.2995 19.323C20.3038 19.327 20.3003 19.3292 20.2967 19.3306C20.293 19.3317 20.2895 19.3335 20.2863 19.3359C20.2797 19.3415 20.2839 19.3491 20.2818 19.3558C20.2815 19.3576 20.2815 19.3594 20.2818 19.3613C20.2822 19.3774 20.2806 19.3794 20.2643 19.3803C20.2554 19.3814 20.2463 19.3806 20.2378 19.3778C20.2428 19.3771 20.2469 19.3768 20.2511 19.376C20.2527 19.3759 20.2542 19.3751 20.2552 19.3739C20.2563 19.3726 20.2568 19.371 20.2567 19.3694C20.2567 19.3658 20.2534 19.3658 20.2521 19.3642C20.2446 19.3552 20.2314 19.3612 20.2241 19.3527C20.2228 19.3512 20.2196 19.3506 20.2202 19.3483C20.2209 19.3459 20.224 19.3451 20.2261 19.3455C20.2344 19.347 20.2365 19.3403 20.2416 19.3364C20.2493 19.3298 20.2575 19.3238 20.2662 19.3186C20.2714 19.316 20.2761 19.3124 20.2799 19.308C20.2846 19.3022 20.2839 19.3005 20.2768 19.2986C20.255 19.2929 20.2338 19.2965 20.2127 19.3021C20.21 19.3029 20.2074 19.3048 20.2039 19.3032Z" fill="#9E9E9D"/>
<path d="M19.5154 19.439C19.5154 19.4385 19.5154 19.438 19.5154 19.4375C19.5229 19.4362 19.5306 19.4362 19.5381 19.4375L19.5154 19.439Z" fill="#9E9E9D"/>
<path d="M19.4736 19.737L19.4692 19.7398L19.4673 19.7379L19.4724 19.7356L19.4736 19.737Z" fill="#273375"/>
<path d="M19.4717 19.7356C19.4733 19.7349 19.4749 19.7337 19.4766 19.7356L19.473 19.7373L19.4717 19.7356Z" fill="#273375"/>
<path d="M19.4765 19.7359L19.4756 19.7344L19.4769 19.7339C19.4766 19.7345 19.4764 19.7351 19.4762 19.7357L19.4765 19.7359Z" fill="#273375"/>
<path d="M19.3997 19.6253C19.4002 19.6224 19.4039 19.6239 19.4043 19.6212C19.404 19.6209 19.4036 19.6206 19.4032 19.6204C19.3794 19.6155 19.3591 19.6251 19.3378 19.6342C19.3187 19.6426 19.3003 19.6523 19.2825 19.6633C19.279 19.6652 19.2754 19.6668 19.2718 19.6683C19.2702 19.669 19.2683 19.6706 19.2668 19.6683C19.2666 19.6679 19.2664 19.6674 19.2664 19.667C19.2663 19.6665 19.2664 19.666 19.2665 19.6656C19.2667 19.6651 19.2669 19.6647 19.2672 19.6644C19.2675 19.664 19.2679 19.6637 19.2683 19.6635C19.28 19.6569 19.2809 19.6413 19.2922 19.6337C19.3034 19.6261 19.3125 19.6176 19.3227 19.6095C19.3256 19.6072 19.3287 19.6052 19.328 19.6007C19.328 19.6003 19.3281 19.5999 19.3283 19.5995C19.3284 19.5991 19.3287 19.5988 19.329 19.5986C19.3429 19.5899 19.3464 19.5712 19.3621 19.5646C19.3609 19.5622 19.3589 19.5605 19.3564 19.5595C19.354 19.5586 19.3513 19.5586 19.3489 19.5596C19.3469 19.5602 19.3449 19.5603 19.343 19.5599C19.341 19.5595 19.3392 19.5587 19.3376 19.5575C19.3393 19.5535 19.3434 19.5531 19.3467 19.5508C19.3409 19.5468 19.3436 19.5442 19.3479 19.5414C19.3526 19.5395 19.3575 19.5383 19.3624 19.5377C19.3661 19.5372 19.3695 19.5355 19.3722 19.533C19.3673 19.5318 19.3623 19.5316 19.3574 19.5325C19.35 19.5325 19.3403 19.5347 19.3366 19.5286C19.3329 19.5225 19.3404 19.5162 19.3437 19.5105C19.3509 19.4971 19.3617 19.486 19.3749 19.4784C19.3772 19.4771 19.3798 19.4752 19.3821 19.4772C19.3844 19.4792 19.3829 19.4825 19.3821 19.4851C19.3804 19.4903 19.376 19.4928 19.3707 19.4956C19.3817 19.498 19.392 19.4999 19.402 19.5027C19.4046 19.5034 19.4117 19.5017 19.4092 19.5093C19.4088 19.5105 19.4118 19.5104 19.4134 19.5107C19.4179 19.5118 19.4226 19.5125 19.4273 19.5137C19.4288 19.5141 19.4312 19.5143 19.4312 19.5167C19.4311 19.5191 19.4283 19.518 19.4269 19.5194C19.4784 19.5344 19.5307 19.5459 19.5751 19.5799C19.5523 19.5911 19.5283 19.5997 19.5035 19.6056C19.4887 19.6093 19.4736 19.6122 19.4587 19.6157C19.4575 19.6162 19.4562 19.6165 19.4548 19.6165C19.4416 19.6153 19.4293 19.621 19.417 19.6252C19.4143 19.6264 19.4113 19.627 19.4084 19.627C19.4054 19.627 19.4024 19.6264 19.3997 19.6253Z" fill="#FEFEFE"/>
<path d="M19.4237 19.3956C19.4175 19.4018 19.4095 19.4017 19.403 19.4053C19.3996 19.4072 19.3999 19.4027 19.3986 19.4001C19.3863 19.4121 19.3721 19.4208 19.3592 19.4314C19.3504 19.4391 19.3433 19.4485 19.3382 19.4589C19.3315 19.4714 19.3253 19.4837 19.3129 19.4921C19.3096 19.4942 19.3103 19.5008 19.3067 19.5042C19.3057 19.505 19.3053 19.5065 19.3044 19.5075C19.3025 19.5096 19.3002 19.5126 19.2973 19.5103C19.2943 19.5081 19.298 19.5061 19.2987 19.5041C19.2994 19.502 19.3004 19.502 19.3008 19.5007C19.3011 19.4995 19.3057 19.4987 19.3029 19.4955C19.3001 19.4924 19.2984 19.4936 19.2957 19.4955C19.2705 19.5116 19.247 19.5301 19.2253 19.5506C19.206 19.5687 19.1881 19.5883 19.1703 19.6079C19.1689 19.6095 19.1681 19.6121 19.165 19.6117C19.164 19.6083 19.1669 19.6068 19.1682 19.6051C19.1867 19.5805 19.2031 19.5544 19.217 19.5271C19.2191 19.5228 19.2224 19.5193 19.2265 19.517C19.2473 19.5037 19.2662 19.4876 19.2825 19.4691C19.3079 19.4409 19.3377 19.4169 19.3707 19.3981C19.3788 19.3936 19.3877 19.3911 19.3969 19.3907C19.4061 19.3903 19.4153 19.392 19.4237 19.3956Z" fill="#FEFEFE"/>
<path d="M19.4069 19.7194C19.3767 19.7342 19.3535 19.7575 19.3235 19.7685C19.3097 19.7739 19.2974 19.7826 19.2876 19.7938C19.2867 19.7947 19.2855 19.7963 19.2846 19.7962C19.2702 19.7947 19.2647 19.8065 19.2563 19.8144C19.255 19.8158 19.2543 19.8189 19.2518 19.8173C19.2494 19.8156 19.2501 19.813 19.2518 19.8107C19.2573 19.804 19.2627 19.7969 19.2678 19.7899C19.272 19.7844 19.2747 19.7779 19.2756 19.771C19.2756 19.77 19.2766 19.7682 19.2765 19.7681C19.2663 19.7625 19.2769 19.7603 19.2787 19.7582C19.2935 19.74 19.3145 19.7278 19.3377 19.7241C19.3458 19.7227 19.3538 19.7203 19.3613 19.7169C19.3654 19.7149 19.37 19.7144 19.3745 19.7153C19.3845 19.7175 19.3952 19.7139 19.4069 19.7194Z" fill="#FEFEFE"/>
<path d="M19.4708 19.6419C19.4698 19.6433 19.4685 19.6445 19.467 19.6454C19.4656 19.6464 19.4639 19.647 19.4622 19.6473C19.4519 19.6492 19.4416 19.6507 19.4312 19.6523C19.4298 19.6523 19.4275 19.6523 19.4269 19.6515C19.4263 19.6507 19.4275 19.6481 19.4286 19.6467C19.4304 19.6448 19.4327 19.6434 19.4352 19.6426C19.4383 19.6421 19.4413 19.6411 19.4441 19.6397C19.4535 19.6331 19.462 19.6354 19.4708 19.6419Z" fill="#FEFEFE"/>
<path d="M19.3932 19.7607C19.3908 19.7667 19.3901 19.773 19.3836 19.7757C19.3781 19.7776 19.3731 19.7807 19.3689 19.7847C19.3684 19.7852 19.3678 19.7855 19.3672 19.7858C19.3666 19.7861 19.3659 19.7862 19.3652 19.7862C19.3645 19.7862 19.3639 19.7861 19.3632 19.7858C19.3626 19.7855 19.362 19.7852 19.3616 19.7847C19.3593 19.7821 19.363 19.7808 19.3644 19.7793C19.3703 19.7735 19.3763 19.768 19.3821 19.7622C19.3831 19.761 19.3844 19.76 19.3859 19.7595C19.3874 19.7589 19.389 19.7587 19.3906 19.7589C19.392 19.7592 19.3931 19.7597 19.3932 19.7607Z" fill="#FEFEFE"/>
<path d="M20.568 20.3742C20.5449 20.3742 20.5219 20.3742 20.4989 20.3742C20.4922 20.3742 20.4922 20.3722 20.4937 20.3669C20.4982 20.3524 20.5071 20.3396 20.5191 20.3303C20.5311 20.321 20.5457 20.3157 20.5608 20.3149C20.5831 20.3137 20.6042 20.3169 20.6221 20.3315C20.6335 20.3407 20.6411 20.3538 20.6436 20.3683C20.6445 20.3731 20.6432 20.3742 20.6387 20.3741C20.6151 20.3741 20.5915 20.3742 20.568 20.3742Z" fill="#FEFEFE"/>
<path d="M20.6384 20.9525C20.6417 20.9359 20.6505 20.9209 20.6635 20.91C20.6765 20.8992 20.6928 20.8931 20.7098 20.8928C20.7273 20.8915 20.7448 20.8954 20.7601 20.904C20.768 20.9085 20.7747 20.9146 20.7798 20.9221C20.7849 20.9295 20.7883 20.938 20.7898 20.9469C20.7904 20.9504 20.7909 20.9529 20.7857 20.9528C20.7368 20.9524 20.6879 20.9525 20.6384 20.9525Z" fill="#FEFEFE"/>
<path d="M19.1306 20.9525C19.1074 20.9525 19.0842 20.9525 19.0608 20.9525C19.0542 20.9525 19.0542 20.9506 19.0559 20.9454C19.0604 20.9302 19.0697 20.9169 19.0824 20.9073C19.0951 20.8978 19.1105 20.8925 19.1264 20.8924C19.1469 20.8907 19.1673 20.8965 19.1838 20.9088C19.1955 20.918 19.2034 20.9314 19.2057 20.9461C19.2067 20.9512 19.2057 20.9528 19.2004 20.9524C19.1772 20.9524 19.1539 20.9525 19.1306 20.9525Z" fill="#FEFEFE"/>
<path d="M19.4533 20.4726C19.4581 20.4921 19.4467 20.5041 19.4334 20.5154C19.4232 20.5251 19.4108 20.5322 19.3973 20.5361C19.3838 20.54 19.3695 20.5405 19.3557 20.5378C19.3485 20.5367 19.3417 20.5333 19.3367 20.5279C19.3316 20.5226 19.3285 20.5157 19.3279 20.5083C19.327 20.5013 19.3284 20.4942 19.3317 20.488C19.3351 20.4818 19.3403 20.4768 19.3467 20.4737C19.3603 20.4673 19.375 20.4633 19.3899 20.4619C19.4087 20.4586 19.4275 20.4557 19.4462 20.4522C19.4519 20.4512 19.4537 20.4527 19.4531 20.4584C19.453 20.4631 19.4533 20.4679 19.4533 20.4726Z" fill="#FEFEFE"/>
<path d="M37.1639 15C37.3943 15.0913 37.6436 15.0725 37.8813 15.125C38.5509 15.2736 39.1876 15.501 39.774 15.8625C39.8781 15.9265 39.9067 15.9734 39.838 16.0912C39.4252 16.8025 39.018 17.5172 38.6166 18.2353C38.5449 18.3633 38.5009 18.3829 38.3691 18.2933C37.7588 17.8789 37.0922 17.6758 36.3535 17.8499C35.4475 18.0633 34.8756 18.8622 34.9452 19.7904C35.0083 20.626 35.7607 21.357 36.6347 21.4398C36.9742 21.4775 37.3178 21.4462 37.6449 21.3478C37.972 21.2494 38.2758 21.0859 38.5381 20.8671C38.6418 20.7818 38.6763 20.7993 38.7361 20.9055C39.1377 21.6229 39.5409 22.3394 39.9536 23.0508C40.0266 23.1789 40.0168 23.2369 39.8986 23.3201C39.2461 23.781 38.5103 24.0401 37.7323 24.1527C36.438 24.3401 35.194 24.183 34.072 23.4516C32.9159 22.6983 32.2899 21.6122 32.1268 20.2556C31.9775 19.0116 32.2122 17.852 32.9676 16.8291C33.7758 15.734 34.8914 15.1865 36.2259 15.0427C36.2536 15.0397 36.2818 15.0358 36.3112 15.032C36.5528 15.0192 36.7965 15.0465 37.0367 15H37.1639ZM36.8485 22.6467C35.162 22.6249 34.0071 21.6694 33.7758 20.0558C33.5808 18.6902 34.2256 17.278 35.6924 16.7779C36.4779 16.5018 37.3378 16.5265 38.1062 16.847C38.3196 16.9324 38.3157 16.7681 38.3669 16.6789C38.4467 16.5398 38.291 16.5577 38.2342 16.5342C37.8464 16.3743 37.4329 16.2856 37.0137 16.2722C34.6311 16.1868 32.9633 18.1593 33.5044 20.4655C34.0631 22.8451 36.7226 23.4597 38.4181 22.6343C38.5069 22.5916 38.5684 22.552 38.486 22.4491C38.4233 22.3714 38.4169 22.2323 38.2432 22.3288C37.813 22.5673 37.3389 22.6501 36.8485 22.6467Z" fill="#A30248"/>
<path d="M0 20.7121C0.10797 20.3741 0.11992 20.0199 0.16601 19.6725C0.238132 19.1284 0.22789 19.1224 0.775851 19.1177C0.900465 19.1177 0.962345 19.0857 0.965759 18.9585C0.965759 18.9018 0.977282 18.8454 0.983683 18.7878C1.02977 18.3611 1.02935 18.35 0.586796 18.3611C0.401582 18.3666 0.357625 18.3116 0.384511 18.1366C0.460475 17.6461 0.529041 17.1545 0.59021 16.6617C0.603866 16.552 0.641848 16.5085 0.748111 16.523C0.755198 16.5239 0.762362 16.5239 0.769449 16.523C0.942287 16.5047 1.16676 16.602 1.27516 16.4756C1.36947 16.366 1.34344 16.1526 1.36862 15.9849C1.39849 15.7813 1.43136 15.5782 1.45397 15.3737C1.46592 15.2675 1.50988 15.2291 1.61742 15.2299C2.14362 15.2342 2.66981 15.2363 3.19644 15.2299C3.34111 15.2299 3.3394 15.2974 3.32447 15.4006C3.27709 15.716 3.23058 16.0322 3.18961 16.3489C3.1815 16.4103 3.10426 16.5328 3.24978 16.5162C3.37354 16.5017 3.57241 16.6391 3.61381 16.3975C3.67071 16.0689 3.7168 15.7388 3.75208 15.407C3.76659 15.2718 3.81183 15.2269 3.94882 15.2291C4.45325 15.2359 4.95796 15.2359 5.46296 15.2291C5.60123 15.2291 5.65244 15.2581 5.62599 15.407C5.56923 15.728 5.52954 16.0519 5.47705 16.3736C5.45998 16.4782 5.46979 16.535 5.59825 16.5256C5.73993 16.5153 5.8829 16.5256 6.02501 16.5222C6.11804 16.5192 6.14791 16.5478 6.13383 16.6455C6.05957 17.1576 5.98788 17.6697 5.92301 18.1844C5.90466 18.3269 5.84193 18.3619 5.70238 18.3598C5.21587 18.3538 5.21587 18.3598 5.13478 18.8382C5.08827 19.1109 5.08827 19.1109 5.37804 19.1109C5.7698 19.1109 5.77236 19.1109 5.72371 19.495C5.66823 19.9311 5.60337 20.366 5.55301 20.8026C5.53935 20.9157 5.50564 20.9622 5.38231 20.9618C5.20648 20.9618 4.9756 20.8819 4.87019 20.9942C4.76478 21.1064 4.79594 21.3262 4.76862 21.4999C4.73704 21.703 4.70546 21.9062 4.679 22.1102C4.66705 22.2036 4.62865 22.2403 4.52836 22.2382C4.00259 22.2335 3.47639 22.2318 2.94934 22.2382C2.80979 22.2382 2.80126 22.1793 2.81747 22.0709C2.86527 21.7483 2.90283 21.4239 2.95702 21.1022C2.9758 20.9912 2.96001 20.9558 2.84052 20.9536C2.55203 20.9477 2.55032 20.9413 2.50551 21.2327C2.46284 21.5063 2.42016 21.7799 2.38901 22.0543C2.37407 22.175 2.34633 22.2425 2.19739 22.2395C1.68528 22.2288 1.17316 22.2297 0.661052 22.2395C0.5151 22.242 0.495042 22.1878 0.51382 22.0649C0.564178 21.7427 0.599172 21.4175 0.657638 21.0975C0.681537 20.9694 0.639714 20.9519 0.533451 20.9562C0.355918 20.963 0.178386 20.9622 0.000853459 20.9643L0 20.7121ZM5.34987 17.3364C5.13137 17.3364 4.91799 17.324 4.70717 17.3403C4.5275 17.3543 4.51214 17.2831 4.53647 17.1324C4.59493 16.7829 4.6423 16.4308 4.68412 16.0788C4.69181 16.0173 4.77246 15.9055 4.60901 15.8923C4.47288 15.8807 4.44642 15.9435 4.43148 16.063C4.38454 16.436 4.31711 16.8064 4.27273 17.1794C4.25736 17.31 4.20871 17.3415 4.08581 17.3403C3.5387 17.3349 2.99131 17.3349 2.44363 17.3403C2.3203 17.3403 2.28104 17.3074 2.29981 17.1832C2.35671 16.8114 2.40835 16.4391 2.45473 16.0664C2.46241 16.0058 2.53538 15.9042 2.3873 15.8957C2.28701 15.8897 2.21659 15.8957 2.20337 16.0284C2.16069 16.4018 2.09326 16.7722 2.04589 17.1452C2.02754 17.289 1.97974 17.3586 1.81971 17.342C1.649 17.3258 1.4783 17.3458 1.30759 17.336C1.17957 17.3283 1.15695 17.3915 1.14671 17.4994C1.13348 17.6339 1.22139 17.6087 1.29479 17.6091C1.4655 17.6091 1.6362 17.6185 1.8069 17.607C1.94731 17.5972 1.97761 17.6497 1.95755 17.7777C1.86622 18.4238 1.77917 19.0705 1.69637 19.7177C1.68101 19.8368 1.62852 19.868 1.51628 19.8624C1.33917 19.8539 1.15994 19.8727 0.983683 19.8556C0.81938 19.8402 0.800603 19.9303 0.791214 20.0528C0.778838 20.2171 0.903025 20.1458 0.967893 20.1496C1.13848 20.1584 1.30941 20.1584 1.48001 20.1496C1.59395 20.1445 1.6234 20.1757 1.60419 20.2926C1.54701 20.6425 1.4958 20.9938 1.45909 21.3463C1.45184 21.415 1.34003 21.549 1.53164 21.5733C1.6968 21.5946 1.69253 21.4833 1.70619 21.3761C1.74887 21.0245 1.80136 20.6733 1.84361 20.3212C1.85897 20.1961 1.90421 20.1454 2.04333 20.1479C2.57635 20.1573 3.11023 20.1586 3.64283 20.1479C3.81353 20.1445 3.8609 20.1906 3.83146 20.3613C3.77086 20.7104 3.72519 21.0625 3.67953 21.4145C3.67228 21.4705 3.61509 21.5652 3.74397 21.5733C3.83957 21.5793 3.91468 21.5844 3.93175 21.4453C3.97442 21.0719 4.04356 20.7019 4.08111 20.328C4.0969 20.174 4.15708 20.1441 4.29449 20.1522C4.4716 20.1633 4.65041 20.1471 4.82752 20.1573C4.97859 20.1663 4.97603 20.0681 4.99097 19.9674C5.01145 19.8274 4.91073 19.8641 4.84245 19.8624C4.68604 19.8549 4.52934 19.8558 4.37302 19.865C4.20231 19.8795 4.14128 19.8483 4.17287 19.6516C4.27443 19.0217 4.35637 18.3884 4.43831 17.7551C4.4541 17.6343 4.50617 17.6027 4.6184 17.6083C4.77417 17.6159 4.93207 17.598 5.08784 17.613C5.28116 17.6296 5.38743 17.5763 5.34987 17.3364Z" fill="#A30248"/>
<path d="M26.3619 20.7719C26.3619 21.7808 26.3585 22.7892 26.3657 23.7981C26.3657 23.956 26.329 23.9999 26.1673 23.9986C25.3282 23.9895 24.489 23.9895 23.6494 23.9986C23.4787 23.9986 23.4556 23.9462 23.4561 23.7951C23.4607 21.785 23.4561 19.7746 23.4637 17.7645C23.4637 17.5759 23.4176 17.5225 23.229 17.5294C22.8244 17.5443 22.4182 17.5294 22.0136 17.5366C21.8907 17.5366 21.8399 17.5157 21.8429 17.3757C21.8506 16.7154 21.8506 16.0549 21.8429 15.3943C21.8429 15.2552 21.8911 15.233 22.0136 15.2334C23.94 15.2368 25.8667 15.2368 27.7936 15.2334C27.9405 15.2334 27.9878 15.2718 27.9861 15.4229C27.978 16.063 27.9763 16.7032 27.9861 17.3407C27.9891 17.5072 27.9336 17.5422 27.78 17.5383C27.375 17.5285 26.9691 17.5443 26.5646 17.5307C26.3887 17.5247 26.3563 17.5861 26.3572 17.7466C26.3653 18.7546 26.3619 19.7635 26.3619 20.7719ZM24.747 19.7669C24.747 20.7617 24.7504 21.756 24.7436 22.7508C24.7436 22.8989 24.7803 22.939 24.9301 22.9407C25.1042 22.9428 25.0833 22.8443 25.0833 22.7363C25.0833 20.7681 25.0833 18.8003 25.079 16.8329C25.079 16.6545 25.108 16.5875 25.3069 16.5943C25.7968 16.611 26.2885 16.5982 26.7784 16.6007C26.8872 16.6007 26.964 16.6007 26.9662 16.4497C26.9683 16.2986 26.9021 16.279 26.7758 16.279C25.5317 16.2824 24.2874 16.2824 23.0429 16.279C22.9337 16.279 22.8594 16.2768 22.8565 16.4292C22.8535 16.5815 22.9222 16.5999 23.0468 16.5999C23.5516 16.5952 24.0565 16.6037 24.5614 16.5943C24.7094 16.5918 24.7517 16.6315 24.7504 16.7817C24.7436 17.7795 24.747 18.7742 24.747 19.7669Z" fill="#A30248"/>
<path d="M14.7987 19.6085C14.7987 18.2241 14.8021 16.8401 14.7944 15.4557C14.7944 15.2812 14.8337 15.2287 15.0146 15.2317C16.0517 15.25 17.0896 15.2056 18.1262 15.256C18.8709 15.2923 19.5882 15.4578 20.2326 15.8535C21.0516 16.3558 21.4873 17.1022 21.5915 18.0479C21.6717 18.7789 21.6209 19.4929 21.2829 20.1625C20.8399 21.0395 20.0782 21.4922 19.1628 21.7295C18.7231 21.847 18.2696 21.9044 17.8146 21.9002C17.6341 21.8972 17.5918 21.9625 17.5948 22.1337C17.6051 22.6944 17.5923 23.2552 17.6029 23.816C17.6059 23.9773 17.5445 23.9965 17.4062 23.9956C16.5954 23.9897 15.7845 23.9879 14.9762 23.9956C14.8171 23.9956 14.7953 23.9414 14.7957 23.8019C14.8008 22.4059 14.7987 21.0074 14.7987 19.6085ZM16.1217 19.6085V22.7401C16.1217 22.8442 16.0922 22.9479 16.2723 22.9432C16.4302 22.9394 16.4571 22.8839 16.455 22.7439C16.4481 22.1891 16.4592 21.6365 16.4481 21.0826C16.4447 20.9037 16.4789 20.8316 16.6782 20.8427C17.0196 20.8619 17.361 20.8521 17.7024 20.8474C18.3604 20.838 18.9895 20.713 19.5345 20.3204C20.2715 19.7895 20.5548 18.6778 20.2019 17.7171C19.8951 16.8841 19.2204 16.5222 18.4061 16.3647C17.7233 16.2324 17.0319 16.3028 16.344 16.2794C16.1733 16.2738 16.1165 16.3144 16.1178 16.4966C16.1255 17.5349 16.1208 18.5719 16.1208 19.6081L16.1217 19.6085Z" fill="#A30248"/>
<path d="M5.87646 23.9943C6.10436 23.3892 6.32286 22.8071 6.54349 22.2254C7.40185 19.967 8.2585 17.708 9.11344 15.4485C9.17746 15.2778 9.25897 15.2287 9.43394 15.2321C10.0024 15.2432 10.5713 15.2389 11.141 15.2321C11.2622 15.2321 11.3296 15.259 11.377 15.3845C12.4464 18.2144 13.5188 21.0429 14.5939 23.8697C14.6063 23.9022 14.6144 23.9359 14.6251 23.9713C14.5551 24.0106 14.4842 23.9914 14.4172 23.9914C13.6209 23.9914 12.8246 23.9914 12.0274 23.9952C11.9117 23.9952 11.8349 23.976 11.8161 23.8514C11.8143 23.8445 11.8118 23.8378 11.8089 23.8313C11.7325 23.6337 11.709 23.3657 11.5652 23.2569C11.4009 23.1331 11.1269 23.2215 10.9007 23.2198C10.2964 23.2151 9.69213 23.2223 9.08784 23.2151C8.96707 23.2151 8.91201 23.2509 8.87446 23.3632C8.8049 23.5714 8.77588 23.8642 8.62779 23.9559C8.45709 24.0618 8.17414 23.9914 7.94028 23.9922C7.2613 23.9956 6.58105 23.9943 5.87646 23.9943ZM13.0153 22.9146C13.0096 22.8858 13.0023 22.8573 12.9936 22.8293C12.1784 20.6909 11.3643 18.5523 10.5512 16.4134C10.4658 16.1915 10.3041 16.3161 10.1769 16.2853C10.0297 16.2495 9.98702 16.3494 9.94349 16.4642C9.1537 18.5433 8.3622 20.6221 7.569 22.7004C7.47852 22.9368 7.50242 22.9629 7.74952 22.9381C7.83188 22.93 7.85621 22.8873 7.87755 22.825C7.92859 22.7082 7.97318 22.5887 8.01112 22.467C8.0491 22.3172 8.12805 22.2775 8.28041 22.2783C9.51801 22.2852 10.7556 22.2822 11.9907 22.2822C12.4289 22.2822 12.4469 22.2766 12.5749 22.6825C12.6513 22.9202 12.7716 22.9859 13.0153 22.9146Z" fill="#A30248"/>
<path d="M28.4103 19.6258C28.4103 18.2409 28.415 16.8557 28.4048 15.4708C28.4048 15.266 28.4688 15.2301 28.654 15.2323C29.4999 15.2412 30.3461 15.2395 31.192 15.2323C31.34 15.2323 31.384 15.2711 31.384 15.4217C31.3797 18.2204 31.3797 21.019 31.384 23.8174C31.384 23.9531 31.3533 23.9979 31.2095 23.9971C30.335 23.9902 29.4597 23.989 28.5862 23.9971C28.424 23.9971 28.4073 23.9373 28.4078 23.8008C28.412 22.4104 28.4103 21.0183 28.4103 19.6258ZM29.7333 19.6014C29.7333 20.6456 29.7333 21.6899 29.7333 22.7343C29.7333 22.8516 29.7137 22.9477 29.8972 22.9451C30.0717 22.943 30.0679 22.8619 30.0679 22.7364C30.0659 20.6553 30.0659 18.5738 30.0679 16.4921C30.0679 16.3738 30.0841 16.2787 29.9002 16.2787C29.7162 16.2787 29.7346 16.3743 29.7346 16.4921C29.7332 17.528 29.732 18.5644 29.7312 19.6014H29.7333Z" fill="#A30248"/>
<path d="M36.8487 22.6467C37.339 22.6501 37.8132 22.5673 38.2442 22.3288C38.4179 22.2323 38.4243 22.3714 38.487 22.4491C38.5694 22.552 38.5079 22.5912 38.4192 22.6343C36.7236 23.4597 34.0641 22.8451 33.5054 20.4655C32.9643 18.161 34.6321 16.1872 37.0147 16.2722C37.434 16.2856 37.8474 16.3743 38.2352 16.5342C38.292 16.5577 38.4486 16.5398 38.3679 16.6789C38.3167 16.7681 38.3206 16.9349 38.1072 16.847C37.3386 16.527 36.4787 16.503 35.6934 16.7796C34.2267 17.2798 33.5818 18.6911 33.7769 20.0575C34.0073 21.6694 35.1621 22.6262 36.8487 22.6467Z" fill="#FBF4F7"/>
<path d="M5.34998 17.3365C5.38754 17.5764 5.28128 17.6297 5.08753 17.6109C4.93261 17.596 4.77471 17.6139 4.61809 17.6062C4.50585 17.6007 4.45379 17.6323 4.438 17.7531C4.35606 18.3864 4.27412 19.0197 4.17255 19.6496C4.14097 19.845 4.20328 19.8762 4.3727 19.863C4.52902 19.8538 4.68573 19.8529 4.84214 19.8604C4.91042 19.8604 5.01284 19.8254 4.99065 19.9654C4.97572 20.0661 4.97828 20.1643 4.8272 20.1553C4.6501 20.1451 4.47128 20.1613 4.29418 20.1502C4.15761 20.1421 4.09744 20.1719 4.0808 20.326C4.04324 20.6998 3.97197 21.0698 3.93143 21.4433C3.91607 21.5841 3.83925 21.579 3.74366 21.5713C3.61563 21.5632 3.67196 21.4684 3.67922 21.4125C3.72488 21.0605 3.77054 20.7084 3.83114 20.3593C3.86059 20.1886 3.81535 20.1459 3.64251 20.1459C3.10949 20.157 2.57561 20.1557 2.04302 20.1459C1.90389 20.1433 1.85865 20.1941 1.84329 20.3192C1.80062 20.6712 1.75068 21.0225 1.70587 21.3741C1.69222 21.4812 1.69649 21.5926 1.53133 21.5713C1.33971 21.547 1.45153 21.413 1.45878 21.3442C1.49548 20.9917 1.54669 20.6405 1.60388 20.2906C1.62308 20.1736 1.59364 20.1425 1.47969 20.1476C1.3091 20.1564 1.13817 20.1564 0.967578 20.1476C0.902711 20.1438 0.778523 20.215 0.790899 20.0507C0.800288 19.9283 0.819066 19.8374 0.983369 19.8536C1.15962 19.8706 1.33886 19.8536 1.51597 19.8604C1.6282 19.8659 1.6807 19.8348 1.69606 19.7157C1.77885 19.0685 1.86591 18.4218 1.95724 17.7757C1.97559 17.6476 1.94699 17.5947 1.80659 17.605C1.63589 17.6165 1.46518 17.6084 1.29448 17.6071C1.22107 17.6071 1.13316 17.6319 1.14639 17.4974C1.15663 17.3895 1.17883 17.3267 1.30728 17.334C1.47798 17.3438 1.64869 17.3237 1.81939 17.34C1.97943 17.3553 2.02723 17.287 2.04558 17.1432C2.09295 16.7702 2.15952 16.3998 2.20305 16.0264C2.21841 15.8924 2.2884 15.8877 2.38698 15.8937C2.53507 15.9026 2.46209 16.0042 2.45441 16.0644C2.40747 16.4371 2.35583 16.8093 2.2995 17.1812C2.28072 17.3054 2.31998 17.3395 2.44332 17.3382C2.99071 17.3328 3.5381 17.3328 4.08549 17.3382C4.2084 17.3382 4.2562 17.3079 4.27241 17.1774C4.31509 16.8044 4.38422 16.4339 4.43117 16.0609C4.44611 15.9427 4.47384 15.88 4.6087 15.8902C4.77215 15.9035 4.69149 16.0153 4.68381 16.0767C4.64113 16.4288 4.59462 16.7809 4.53615 17.1304C4.51097 17.2811 4.52634 17.3523 4.70686 17.3382C4.9181 17.3242 5.13148 17.3365 5.34998 17.3365ZM2.90038 19.8591C3.1846 19.8591 3.46882 19.854 3.7539 19.8617C3.86144 19.8642 3.90455 19.8297 3.91863 19.7243C4.00569 19.0699 4.09602 18.4168 4.18962 17.765C4.20712 17.6442 4.17938 17.6041 4.05178 17.6054C3.49699 17.6114 2.9422 17.6097 2.38741 17.6054C2.28712 17.6054 2.23463 17.6263 2.21969 17.7398C2.13264 18.4084 2.04074 19.0756 1.94401 19.7413C1.92864 19.845 1.96108 19.8613 2.04984 19.86C2.33193 19.857 2.61616 19.8587 2.90038 19.8591Z" fill="#FBF4F7"/>
<path d="M24.7471 19.7668C24.7471 18.7725 24.7437 17.7777 24.7505 16.7833C24.7505 16.6331 24.7078 16.5934 24.5614 16.596C24.0566 16.6054 23.5517 16.596 23.0469 16.6015C22.9223 16.6015 22.8536 16.5896 22.8565 16.4308C22.8595 16.2721 22.9338 16.2806 23.043 16.2806C24.2875 16.2826 25.5318 16.2826 26.7759 16.2806C26.9039 16.2806 26.968 16.2943 26.9662 16.4513C26.9645 16.6084 26.8873 16.6028 26.7785 16.6024C26.2881 16.5998 25.7969 16.6126 25.307 16.596C25.1081 16.5891 25.0783 16.6561 25.0791 16.8345C25.0851 18.8019 25.0825 20.7697 25.0834 22.7379C25.0834 22.8459 25.1043 22.9445 24.9302 22.9423C24.7804 22.9423 24.7428 22.8997 24.7437 22.7524C24.7505 21.7576 24.7471 20.7633 24.7471 19.7668Z" fill="#FBF4F7"/>
<path d="M16.1209 19.6083C16.1209 18.5717 16.1256 17.5351 16.1162 16.4985C16.1162 16.3162 16.1704 16.2757 16.3424 16.2812C17.0303 16.3039 17.7225 16.2334 18.4045 16.3666C19.2209 16.5236 19.8935 16.8851 20.2003 17.7186C20.5532 18.6779 20.2699 19.7896 19.5329 20.3218C18.9879 20.7144 18.3588 20.8395 17.7008 20.8489C17.3594 20.8536 17.018 20.8634 16.6765 20.8442C16.4773 20.8331 16.4431 20.9052 16.4465 21.084C16.4576 21.6388 16.4465 22.1936 16.4534 22.7454C16.4555 22.8854 16.4286 22.9408 16.2707 22.9447C16.0906 22.9494 16.1201 22.8457 16.1201 22.7415L16.1209 19.6083ZM16.4538 18.5619C16.4538 19.1653 16.4563 19.7683 16.4516 20.3717C16.4516 20.4925 16.4691 20.548 16.6108 20.5446C17.0299 20.5343 17.4498 20.5582 17.8681 20.5356C18.4348 20.5053 18.9887 20.3948 19.4228 19.9911C20.0288 19.4278 20.0753 18.7044 19.9058 17.9631C19.7437 17.2547 19.223 16.8796 18.5436 16.7072C17.8937 16.542 17.2296 16.6192 16.5711 16.6009C16.4324 16.597 16.4542 16.6914 16.4542 16.7716C16.4519 17.3691 16.4518 17.9658 16.4538 18.5619Z" fill="#FBF4F7"/>
<path d="M13.0154 22.9146C12.7717 22.9859 12.6514 22.9202 12.5767 22.6833C12.4487 22.2775 12.4308 22.283 11.9925 22.283C10.7549 22.283 9.51726 22.286 8.28221 22.2792C8.12986 22.2792 8.05091 22.318 8.01293 22.4678C7.97499 22.5895 7.93039 22.709 7.87935 22.8259C7.85631 22.8882 7.83198 22.9308 7.75132 22.9389C7.50423 22.9637 7.48033 22.9389 7.5708 22.7012C8.36287 20.6226 9.15437 18.5439 9.9453 16.465C9.98797 16.3502 10.0306 16.2516 10.1787 16.2862C10.3068 16.3173 10.4694 16.1927 10.553 16.4142C11.3627 18.5546 12.1768 20.6932 12.9954 22.8301C13.0035 22.8579 13.0102 22.8861 13.0154 22.9146ZM10.2658 16.6033C10.2376 16.66 10.2193 16.6886 10.2069 16.7228C9.56022 18.4178 8.91282 20.1122 8.26471 21.8059C8.19387 21.9894 8.27368 21.9847 8.40853 21.9847C9.63846 21.9822 10.8688 21.98 12.0987 21.9847C12.2767 21.9847 12.3164 21.9565 12.2468 21.7773C11.8073 20.6481 11.3788 19.5155 10.9465 18.3829L10.2658 16.6033Z" fill="#FBF4F7"/>
<path d="M29.731 19.6013C29.731 18.5642 29.731 17.5271 29.731 16.4897C29.731 16.3728 29.7135 16.2764 29.8966 16.2764C30.0797 16.2764 30.0643 16.3728 30.0643 16.4897C30.0643 18.5715 30.0643 20.6529 30.0643 22.7341C30.0643 22.8596 30.0686 22.9407 29.8936 22.9428C29.7101 22.9428 29.7293 22.8493 29.7298 22.732C29.7318 21.6893 29.7322 20.6457 29.731 19.6013Z" fill="#FBF4F7"/>
<path d="M2.90028 19.8587C2.61606 19.8587 2.33184 19.8587 2.04676 19.8587C1.958 19.8587 1.92556 19.8437 1.94092 19.74C2.03965 19.0751 2.13268 18.4087 2.22003 17.7406C2.23496 17.6271 2.28745 17.6058 2.38774 17.6062C2.94253 17.6096 3.49732 17.6113 4.05211 17.6062C4.18014 17.6062 4.20745 17.645 4.18995 17.7658C4.09436 18.4171 4.0036 19.0699 3.91768 19.7242C3.9036 19.8296 3.86049 19.8642 3.75295 19.8616C3.46873 19.8522 3.18451 19.8591 2.90028 19.8587ZM3.01081 19.1114C3.18152 19.1541 3.26047 19.0879 3.26132 18.9104C3.26691 18.8255 3.27904 18.7412 3.2976 18.6582C3.3518 18.3262 3.40045 18.3667 3.03429 18.3594C2.93442 18.3569 2.89772 18.3876 2.88876 18.4875C2.87402 18.6285 2.85137 18.7685 2.82091 18.907C2.78591 19.0666 2.82219 19.1549 3.01081 19.1114Z" fill="#A30248"/>
<path d="M16.4538 18.5616C16.4538 17.9642 16.4538 17.368 16.4538 16.7731C16.4538 16.6911 16.432 16.5968 16.5707 16.6024C17.2292 16.6207 17.8937 16.5435 18.5432 16.7086C19.226 16.8793 19.7433 17.2562 19.9054 17.9646C20.0761 18.7059 20.0283 19.4292 19.4223 19.9925C18.9883 20.3963 18.4344 20.5068 17.8676 20.5371C17.4494 20.5597 17.0295 20.5371 16.6104 20.5461C16.4687 20.5495 16.4499 20.494 16.4512 20.3732C16.4538 19.7668 16.4538 19.1651 16.4538 18.5616ZM17.6001 18.5616C17.6001 18.8382 17.6001 19.1148 17.6001 19.3917C17.6001 19.4617 17.589 19.5278 17.6969 19.5436C18.0345 19.594 18.4685 19.4156 18.6153 19.1267C18.8031 18.7575 18.8078 18.3738 18.6094 18.0064C18.4216 17.6582 18.0802 17.6189 17.7302 17.6006C17.6184 17.595 17.5975 17.6355 17.5988 17.732C17.6001 18.0094 17.5979 18.2859 17.5979 18.5625L17.6001 18.5616Z" fill="#A30248"/>
<path d="M10.2657 16.6033L10.9464 18.3846C11.3787 19.5168 11.8072 20.6498 12.2467 21.779C12.3163 21.9583 12.2766 21.9873 12.0986 21.9864C10.8687 21.98 9.63836 21.9822 8.40844 21.9864C8.27358 21.9864 8.19506 21.9911 8.26462 21.8076C8.91585 20.1139 9.56254 18.419 10.2047 16.7228C10.217 16.6903 10.2354 16.66 10.2657 16.6033ZM10.2601 19.7579C10.069 20.2559 9.89655 20.7113 9.71816 21.1662C9.68317 21.2558 9.70707 21.2763 9.79413 21.2759C10.1355 21.2733 10.4735 21.2759 10.8401 21.2759C10.6447 20.768 10.4586 20.2824 10.258 19.7579H10.2601Z" fill="#A30248"/>
</svg>
