<svg width="40" height="40" viewBox="0 0 40 40" fill="none" xmlns="http://www.w3.org/2000/svg">
<path fill-rule="evenodd" clip-rule="evenodd" d="M30.9258 22.9878L31.442 22.3614C31.9013 21.8318 32.2277 21.3204 32.4212 20.8166L36.3507 25.6142C37.0639 26.5281 37.0299 26.6974 35.8413 26.6974H35.4337C34.2451 26.6974 33.8036 26.4604 33.0904 25.6142L30.9258 22.9878ZM30.9258 16.4613L33.0904 13.8349C33.8036 12.9887 34.2451 12.7517 35.4337 12.7517H35.8413C37.0299 12.7517 37.0639 12.921 36.3507 13.8349L32.4212 18.6325C32.2277 18.1287 31.9013 17.6173 31.442 17.0876L30.9258 16.4613Z" fill="url(#paint0_linear_5970_70958)"/>
<path fill-rule="evenodd" clip-rule="evenodd" d="M24.9248 26.6974C23.7362 26.6974 23.7022 26.5281 24.4154 25.6142L28.4908 20.6384C28.7964 20.2661 28.9662 19.9614 28.9662 19.7245C28.9662 19.4537 28.7964 19.1491 28.4908 18.8106L24.4154 13.8349C23.7022 12.921 23.7362 12.7517 24.9248 12.7517H25.3324C26.521 12.7517 26.9625 12.9887 27.6757 13.8349L30.8002 17.6259C32.1247 19.1491 32.1247 20.3 30.8002 21.8232L27.6757 25.6142C26.9625 26.4604 26.521 26.6974 25.3324 26.6974H24.9248Z" fill="url(#paint1_linear_5970_70958)"/>
<path fill-rule="evenodd" clip-rule="evenodd" d="M2.83337 31.0367C2.83337 32.0473 3.08687 32.2999 4.10084 32.2999H4.4388C5.45278 32.2999 5.70627 32.0473 5.70627 31.0367V25.1697C6.46675 26.3768 7.84689 26.9944 9.84663 26.9944C13.7617 26.9944 15.7051 24.9451 15.7051 20.8747V18.4324C15.7051 14.362 13.6208 12.4531 9.25513 12.4531C5.19928 12.4531 2.83337 14.4181 2.83337 18.4324V31.0367ZM12.804 20.9308C12.804 23.2888 12.0154 24.2714 9.28334 24.2714C6.49491 24.2714 5.70627 23.2608 5.70627 20.9308V18.5166C5.70627 16.1586 6.55126 15.148 9.28334 15.148C12.0717 15.148 12.804 16.1586 12.804 18.5166V20.9308Z" fill="url(#paint2_linear_5970_70958)"/>
<path fill-rule="evenodd" clip-rule="evenodd" d="M18.4143 25.4003C18.4143 26.4109 18.6678 26.6635 19.6818 26.6635H20.0479C21.0619 26.6635 21.3154 26.4109 21.3154 25.4003V14.0031C21.3154 12.9925 21.0619 12.7399 20.0479 12.7399H19.6818C18.6678 12.7399 18.4143 12.9925 18.4143 14.0031V25.4003ZM18.6115 9.7081C19.3156 10.3818 20.4422 10.3818 21.1183 9.7081C21.8224 9.00628 21.8224 7.88343 21.1183 7.20972C20.4422 6.50789 19.3156 6.50789 18.6115 7.20972C17.9073 7.88343 17.9073 9.00628 18.6115 9.7081Z" fill="url(#paint3_linear_5970_70958)"/>
<defs>
<linearGradient id="paint0_linear_5970_70958" x1="33.8748" y1="12.7517" x2="33.8748" y2="26.6974" gradientUnits="userSpaceOnUse">
<stop stop-color="#12A3FF"/>
<stop offset="1" stop-color="#3D68FF"/>
</linearGradient>
<linearGradient id="paint1_linear_5970_70958" x1="26.4041" y1="12.7517" x2="26.4041" y2="26.6974" gradientUnits="userSpaceOnUse">
<stop stop-color="#FFBE00"/>
<stop offset="1" stop-color="#FF9F00"/>
</linearGradient>
<linearGradient id="paint2_linear_5970_70958" x1="9.26923" y1="12.4531" x2="9.26923" y2="26.9511" gradientUnits="userSpaceOnUse">
<stop stop-color="#12A3FF"/>
<stop offset="1" stop-color="#3D68FF"/>
</linearGradient>
<linearGradient id="paint3_linear_5970_70958" x1="19.8649" y1="12.3501" x2="19.8649" y2="26.6635" gradientUnits="userSpaceOnUse">
<stop stop-color="#12A3FF"/>
<stop offset="1" stop-color="#3D68FF"/>
</linearGradient>
</defs>
</svg>