<svg id="pole" width="40" height="40" viewBox="0 0 40 40" fill="none" xmlns="http://www.w3.org/2000/svg">
<path d="M22.669 8.03231C21.8328 8.35939 21.1365 8.82589 20.5696 9.43392C20.0017 10.0435 19.5679 10.7742 19.2703 11.6328C18.9712 12.4924 18.8208 13.4265 18.8208 14.4392C18.8224 16.594 19.428 18.2671 20.6304 19.5042C21.8318 20.737 23.5088 21.3602 25.7151 21.3618C26.6555 21.3623 27.4844 21.2407 28.2016 21.0043C29.5135 20.542 30.9899 19.2332 31.2414 17.9988C31.4054 17.1916 30.9113 17.0165 30.6447 16.9798C30.5933 16.9746 30.5409 16.9709 30.4854 16.9709C30.1815 16.9709 29.9405 17.0689 29.787 17.2089C29.6026 17.3782 29.0661 17.8819 28.79 18.1235C28.5091 18.3688 28.2032 18.5984 27.8715 18.8128C27.532 19.0319 27.1784 19.1944 26.8132 19.2982C26.447 19.4025 26.0462 19.4528 25.6129 19.4528C24.9575 19.4533 24.3482 19.2893 23.8017 18.9632C23.25 18.6362 22.8089 18.1466 22.4846 17.5124C22.1818 16.9253 22.0193 16.2554 21.9884 15.5137C21.98 15.2658 22.1687 15.118 22.3877 15.118H29.0142C29.908 15.1185 30.5855 14.988 31.0444 14.7505C31.4525 14.5393 31.6846 14.0717 31.6883 13.2231C31.6883 12.3111 31.4557 11.4168 30.9836 10.5294C30.5152 9.65145 29.8148 8.93649 28.8665 8.37669C27.926 7.82212 26.7954 7.54169 25.4594 7.54117C24.4325 7.54117 23.5041 7.70628 22.669 8.03231ZM27.6981 10.5184C28.2765 11.1338 28.6019 12.0301 28.7046 13.1812C28.7187 13.3735 28.516 13.5418 28.309 13.5418H22.3997C22.1849 13.5402 21.9706 13.3673 22.0041 13.1555C22.1404 12.0312 22.4814 11.1479 23.0525 10.5326C23.6461 9.88995 24.4283 9.56287 25.3447 9.56497C26.2992 9.56287 27.1024 9.88261 27.6981 10.5184Z" fill="url(#paint0_radial_1422_17165)"/>
<path d="M9.55225 14.4529C9.55225 20.2265 14.2293 24.9058 20.0003 24.9058C25.7707 24.9058 30.4483 20.2265 30.4483 14.4529C30.4483 8.67919 25.7707 3.99945 20.0003 3.99945C14.2293 3.99945 9.55225 8.67919 9.55225 14.4529Z" fill="url(#paint1_linear_1422_17165)"/>
<path d="M10.3298 13.4696C10.1752 14.9928 10.3822 16.4715 10.8815 17.8186C12.7309 13.5236 17.3828 13.4224 20.945 14.6778C25.227 15.5605 30.1162 15.3587 29.4183 12.166C28.6193 8.47379 25.3407 5.22083 20.9827 4.77791C20.65 4.74384 20.3199 4.72707 19.9925 4.72707C15.0708 4.72707 10.8375 8.46751 10.3298 13.4696Z" fill="url(#paint2_linear_1422_17165)"/>
<path d="M20.5691 9.43471C20.0017 10.0435 19.5679 10.7742 19.2695 11.6333C18.9712 12.4924 18.8208 13.4265 18.8208 14.4392C18.8224 16.594 19.428 18.2671 20.6304 19.5042C21.8318 20.737 23.5088 21.3602 25.7151 21.3618C26.622 21.3623 27.4225 21.2486 28.1214 21.029C29.0587 19.8716 29.754 18.5104 30.1301 17.0223C29.9908 17.0642 29.8745 17.1292 29.7385 17.2537C29.6026 17.3782 29.0661 17.8819 28.7876 18.1254C28.5091 18.3688 28.2032 18.5984 27.8676 18.8152C27.532 19.0319 27.1784 19.1944 26.8127 19.2984C26.447 19.4025 26.0462 19.4528 25.5018 19.4531C24.9575 19.4533 24.3482 19.2893 23.7991 18.9627C23.25 18.6362 22.8089 18.1466 22.4953 17.5359C22.1818 16.9253 22.0193 16.2554 21.9884 15.5137C21.98 15.2658 22.1687 15.118 22.2782 15.118H29.0142C29.5727 15.1185 30.0463 15.0671 30.4356 14.9717C30.444 14.7993 30.4482 14.6268 30.4482 14.4528C30.4482 12.0527 29.6398 9.84277 28.2807 8.07843C27.466 7.722 26.5287 7.54169 25.4806 7.54143C24.4325 7.54117 23.5041 7.70628 22.669 8.03231C21.8328 8.35939 21.1365 8.82589 20.5691 9.43471ZM28.7046 13.1812C28.7187 13.3735 28.5159 13.5418 28.309 13.5418H22.3997C22.1849 13.5402 21.9706 13.3673 22.0041 13.1555C22.1404 12.0312 22.4814 11.1479 23.0638 10.5189C23.6461 9.88995 24.4283 9.56287 25.3638 9.56287C26.2992 9.56287 27.1024 9.88261 27.6981 10.5184C28.2765 11.1338 28.6019 12.0301 28.7046 13.1812Z" fill="white"/>
<path d="M2.8978 32.0667C2.8978 31.6169 2.83127 31.292 2.69767 31.0917C2.52949 30.8417 2.24081 30.7169 1.83058 30.7169C1.42035 30.7169 1.13376 30.8417 0.970824 31.0917C0.837225 31.292 0.770687 31.6169 0.770687 32.0667V33.4085H1.83058C2.24081 33.4085 2.52949 33.2864 2.69767 33.0416C2.83127 32.8361 2.8978 32.5112 2.8978 32.0667ZM3.66849 32.0667C3.66849 33.5317 3.05603 34.264 1.83058 34.264H0.770687V36H0V32.0677C0 30.5969 0.609843 29.861 1.83058 29.861C3.05603 29.861 3.66849 30.5964 3.66849 32.0667Z" fill="#18397A"/>
<path d="M7.09432 32.0666C7.09432 31.6169 7.02831 31.2919 6.89576 31.0917C6.73387 30.8416 6.44886 30.7169 6.04177 30.7169C5.63468 30.7169 5.34757 30.8416 5.18044 31.0917C5.04842 31.2919 4.98188 31.6169 4.98188 32.0666C4.98188 32.5111 5.04842 32.8361 5.18044 33.0416C5.34757 33.2863 5.63468 33.4085 6.04177 33.4085C6.44886 33.4085 6.73387 33.2863 6.89576 33.0416C7.02831 32.8419 7.09432 32.5169 7.09432 32.0666ZM7.58367 29.0217L7.23526 29.494L6.00509 28.7963L4.77441 29.494L4.426 29.0217L6.00509 28.1249L7.58367 29.0217ZM7.87235 32.0666C7.87235 33.5317 7.26198 34.2639 6.04177 34.2639C4.81632 34.2639 4.20386 33.5317 4.20386 32.0666C4.20386 30.5963 4.81632 29.8609 6.04177 29.8609C7.26198 29.8609 7.87235 30.5963 7.87235 32.0666Z" fill="#18397A"/>
<path d="M10.4652 34.2642C9.15065 34.2642 8.49365 33.7321 8.49365 32.6691V28.1246H9.26434V32.6765C9.26434 32.9034 9.3335 33.0733 9.47182 33.1839C9.65467 33.3332 9.98579 33.4082 10.4652 33.4082V34.2642Z" fill="#18397A"/>
<path d="M13.4328 31.1398C13.2955 30.8138 12.987 30.5905 12.5752 30.5905C12.1634 30.5905 11.8459 30.8138 11.7086 31.1398C11.6227 31.3369 11.6059 31.4658 11.597 31.7321H13.5528C13.5444 31.4658 13.5187 31.3369 13.4328 31.1398ZM11.597 32.3412C11.597 33.0876 11.992 33.5599 12.7035 33.5599C13.1929 33.5599 13.4501 33.4225 13.7587 33.1133L14.3161 33.6369C13.8703 34.0835 13.4501 34.3152 12.6867 34.3152C11.597 34.3152 10.731 33.7402 10.731 32.0838C10.731 30.6764 11.4597 29.8608 12.5752 29.8608C13.7414 29.8608 14.4194 30.7189 14.4194 31.9549V32.3412H11.597Z" fill="#18397A"/>
<path d="M2.8978 32.0667C2.8978 31.6169 2.83127 31.292 2.69767 31.0917C2.52949 30.8417 2.24081 30.7169 1.83058 30.7169C1.42035 30.7169 1.13376 30.8417 0.970824 31.0917C0.837225 31.292 0.770687 31.6169 0.770687 32.0667V33.4085H1.83058C2.24081 33.4085 2.52949 33.2864 2.69767 33.0416C2.83127 32.8361 2.8978 32.5112 2.8978 32.0667ZM3.66849 32.0667C3.66849 33.5317 3.05603 34.264 1.83058 34.264H0.770687V36H0V32.0677C0 30.5969 0.609843 29.861 1.83058 29.861C3.05603 29.861 3.66849 30.5964 3.66849 32.0667Z" fill="#18397A"/>
<path d="M7.09432 32.0666C7.09432 31.6169 7.02831 31.2919 6.89576 31.0917C6.73387 30.8416 6.44886 30.7169 6.04177 30.7169C5.63468 30.7169 5.34757 30.8416 5.18044 31.0917C5.04842 31.2919 4.98188 31.6169 4.98188 32.0666C4.98188 32.5111 5.04842 32.8361 5.18044 33.0416C5.34757 33.2863 5.63468 33.4085 6.04177 33.4085C6.44886 33.4085 6.73387 33.2863 6.89576 33.0416C7.02831 32.8419 7.09432 32.5169 7.09432 32.0666ZM7.58367 29.0217L7.23526 29.494L6.00509 28.7963L4.77441 29.494L4.426 29.0217L6.00509 28.1249L7.58367 29.0217ZM7.87235 32.0666C7.87235 33.5317 7.26198 34.2639 6.04177 34.2639C4.81632 34.2639 4.20386 33.5317 4.20386 32.0666C4.20386 30.5963 4.81632 29.8609 6.04177 29.8609C7.26198 29.8609 7.87235 30.5963 7.87235 32.0666Z" fill="#18397A"/>
<path d="M10.4652 34.2642C9.15065 34.2642 8.49365 33.7321 8.49365 32.6691V28.1246H9.26434V32.6765C9.26434 32.9034 9.3335 33.0733 9.47182 33.1839C9.65467 33.3332 9.98579 33.4082 10.4652 33.4082V34.2642Z" fill="#18397A"/>
<path d="M13.4328 31.1398C13.2955 30.8138 12.987 30.5905 12.5752 30.5905C12.1634 30.5905 11.8459 30.8138 11.7086 31.1398C11.6227 31.3369 11.6059 31.4658 11.597 31.7321H13.5528C13.5444 31.4658 13.5187 31.3369 13.4328 31.1398ZM11.597 32.3412C11.597 33.0876 11.992 33.5599 12.7035 33.5599C13.1929 33.5599 13.4501 33.4225 13.7587 33.1133L14.3161 33.6369C13.8703 34.0835 13.4501 34.3152 12.6867 34.3152C11.597 34.3152 10.731 33.7402 10.731 32.0838C10.731 30.6764 11.4597 29.8608 12.5752 29.8608C13.7414 29.8608 14.4194 30.7189 14.4194 31.9549V32.3412H11.597Z" fill="#18397A"/>
<path d="M27.9413 34.2642H27.1706V32.0627C27.1706 31.614 27.1035 31.2901 26.9705 31.0909C26.8023 30.8414 26.5136 30.7166 26.1034 30.7166C25.6932 30.7166 25.4066 30.8414 25.2436 31.0909C25.11 31.2901 25.0435 31.614 25.0435 32.0627V34.2642H24.2728V32.0627C24.2728 31.614 24.2063 31.2901 24.0727 31.0909C23.9045 30.8414 23.6158 30.7166 23.2051 30.7166C22.7953 30.7166 22.5088 30.8414 22.3453 31.0909C22.2122 31.2901 22.1457 31.614 22.1457 32.0627V34.2642H21.375V32.0669C21.375 30.5961 21.9848 29.8612 23.2051 29.8612C23.8579 29.8612 24.3414 30.0829 24.6579 30.5258C24.9696 30.0829 25.4511 29.8612 26.1034 29.8612C27.3283 29.8612 27.9413 30.5961 27.9413 32.0669V34.2642Z" fill="#E31927"/>
<path d="M31.4618 32.0667C31.4618 31.6169 31.3952 31.292 31.2616 31.0917C31.094 30.8417 30.8048 30.7169 30.3945 30.7169C29.9843 30.7169 29.6977 30.8417 29.5348 31.0917C29.4012 31.292 29.3346 31.6169 29.3346 32.0667V33.4085H30.3945C30.8048 33.4085 31.094 33.2864 31.2616 33.0416C31.3952 32.8361 31.4618 32.5112 31.4618 32.0667ZM32.233 32.0667C32.233 33.5317 31.62 34.264 30.3945 34.264H29.3346V36H28.564V32.0677C28.564 30.5969 29.1743 29.861 30.3945 29.861C31.62 29.861 32.233 30.5964 32.233 32.0667Z" fill="#E31927"/>
<path d="M34.7676 34.2642C33.4531 34.2642 32.7961 33.7321 32.7961 32.6691V28.1246H33.5668V32.6765C33.5668 32.9034 33.636 33.0733 33.7748 33.1839C33.9571 33.3332 34.2883 33.4082 34.7676 33.4082V34.2642Z" fill="#E31927"/>
<path d="M37.8878 32.0666C37.8878 31.6169 37.8213 31.2919 37.6877 31.0917C37.5248 30.8416 37.2382 30.7169 36.8279 30.7169C36.4177 30.7169 36.1311 30.8416 35.9682 31.0917C35.8346 31.2919 35.768 31.6169 35.768 32.0666C35.768 32.5169 35.8346 32.8419 35.9682 33.0416C36.1311 33.2864 36.4177 33.4085 36.8279 33.4085C37.2382 33.4085 37.5248 33.2864 37.6877 33.0416C37.8213 32.8419 37.8878 32.5169 37.8878 32.0666ZM38.6585 32.0666C38.6585 33.5317 38.0482 34.2639 36.8279 34.2639C35.6025 34.2639 34.9895 33.5317 34.9895 32.0666C34.9895 30.5963 35.6025 29.8609 36.8279 29.8609C38.0482 29.8609 38.6585 30.5963 38.6585 32.0666Z" fill="#E31927"/>
<path d="M39.2292 29.8612H39.9999V34.2642H39.2292V29.8612ZM39.9999 28.9806H39.2292V28.1246H39.9999V28.9806Z" fill="#E31927"/>
<path d="M19.7712 31.1398C19.6339 30.8138 19.3253 30.5905 18.9135 30.5905C18.5017 30.5905 18.1842 30.8138 18.047 31.1398C17.961 31.3369 17.9443 31.4658 17.9354 31.7321H19.8912C19.8828 31.4658 19.8571 31.3369 19.7712 31.1398ZM17.9354 32.3412C17.9354 33.0876 18.3299 33.5599 19.0419 33.5599C19.5312 33.5599 19.7885 33.4225 20.0971 33.1133L20.655 33.6369C20.2087 34.0835 19.7885 34.3152 19.0251 34.3152C17.9354 34.3152 17.0693 33.7402 17.0693 32.0838C17.0693 30.6764 17.7981 29.8608 18.9135 29.8608C20.0798 29.8608 20.7577 30.7189 20.7577 31.9549V32.3412H17.9354Z" fill="#E31927"/>
<path d="M27.9413 34.2642H27.1706V32.0627C27.1706 31.614 27.1035 31.2901 26.9705 31.0909C26.8023 30.8414 26.5136 30.7166 26.1034 30.7166C25.6932 30.7166 25.4066 30.8414 25.2436 31.0909C25.11 31.2901 25.0435 31.614 25.0435 32.0627V34.2642H24.2728V32.0627C24.2728 31.614 24.2063 31.2901 24.0727 31.0909C23.9045 30.8414 23.6158 30.7166 23.2051 30.7166C22.7953 30.7166 22.5088 30.8414 22.3453 31.0909C22.2122 31.2901 22.1457 31.614 22.1457 32.0627V34.2642H21.375V32.0669C21.375 30.5961 21.9848 29.8612 23.2051 29.8612C23.8579 29.8612 24.3414 30.0829 24.6579 30.5258C24.9696 30.0829 25.4511 29.8612 26.1034 29.8612C27.3283 29.8612 27.9413 30.5961 27.9413 32.0669V34.2642Z" fill="#E31927"/>
<path d="M31.4618 32.0667C31.4618 31.6169 31.3952 31.292 31.2616 31.0917C31.094 30.8417 30.8048 30.7169 30.3945 30.7169C29.9843 30.7169 29.6977 30.8417 29.5348 31.0917C29.4012 31.292 29.3346 31.6169 29.3346 32.0667V33.4085H30.3945C30.8048 33.4085 31.094 33.2864 31.2616 33.0416C31.3952 32.8361 31.4618 32.5112 31.4618 32.0667ZM32.233 32.0667C32.233 33.5317 31.62 34.264 30.3945 34.264H29.3346V36H28.564V32.0677C28.564 30.5969 29.1743 29.861 30.3945 29.861C31.62 29.861 32.233 30.5964 32.233 32.0667Z" fill="#E31927"/>
<path d="M34.7676 34.2642C33.4531 34.2642 32.7961 33.7321 32.7961 32.6691V28.1246H33.5668V32.6765C33.5668 32.9034 33.636 33.0733 33.7748 33.1839C33.9571 33.3332 34.2883 33.4082 34.7676 33.4082V34.2642Z" fill="#E31927"/>
<path d="M37.8878 32.0666C37.8878 31.6169 37.8213 31.2919 37.6877 31.0917C37.5248 30.8416 37.2382 30.7169 36.8279 30.7169C36.4177 30.7169 36.1311 30.8416 35.9682 31.0917C35.8346 31.2919 35.768 31.6169 35.768 32.0666C35.768 32.5169 35.8346 32.8419 35.9682 33.0416C36.1311 33.2864 36.4177 33.4085 36.8279 33.4085C37.2382 33.4085 37.5248 33.2864 37.6877 33.0416C37.8213 32.8419 37.8878 32.5169 37.8878 32.0666ZM38.6585 32.0666C38.6585 33.5317 38.0482 34.2639 36.8279 34.2639C35.6025 34.2639 34.9895 33.5317 34.9895 32.0666C34.9895 30.5963 35.6025 29.8609 36.8279 29.8609C38.0482 29.8609 38.6585 30.5963 38.6585 32.0666Z" fill="#E31927"/>
<path d="M39.2292 29.8612H39.9999V34.2642H39.2292V29.8612ZM39.9999 28.9806H39.2292V28.1246H39.9999V28.9806Z" fill="#E31927"/>
<path d="M19.7712 31.1398C19.6339 30.8138 19.3253 30.5905 18.9135 30.5905C18.5017 30.5905 18.1842 30.8138 18.047 31.1398C17.961 31.3369 17.9443 31.4658 17.9354 31.7321H19.8912C19.8828 31.4658 19.8571 31.3369 19.7712 31.1398ZM17.9354 32.3412C17.9354 33.0876 18.3299 33.5599 19.0419 33.5599C19.5312 33.5599 19.7885 33.4225 20.0971 33.1133L20.655 33.6369C20.2087 34.0835 19.7885 34.3152 19.0251 34.3152C17.9354 34.3152 17.0693 33.7402 17.0693 32.0838C17.0693 30.6764 17.7981 29.8608 18.9135 29.8608C20.0798 29.8608 20.7577 30.7189 20.7577 31.9549V32.3412H17.9354Z" fill="#E31927"/>
<defs>
<radialGradient id="paint0_radial_1422_17165" cx="0" cy="0" r="1" gradientUnits="userSpaceOnUse" gradientTransform="translate(22.9653 7.99211) scale(24.4575 24.4689)">
<stop stop-color="#E65D1B"/>
<stop offset="0.0472274" stop-color="#E65D1B"/>
<stop offset="0.350006" stop-color="#ED1C24"/>
<stop offset="1" stop-color="#A61217"/>
</radialGradient>
<linearGradient id="paint1_linear_1422_17165" x1="20.0002" y1="3.99995" x2="20.0002" y2="24.9057" gradientUnits="userSpaceOnUse">
<stop stop-color="#65CDEB"/>
<stop offset="0.0548619" stop-color="#65CDEB"/>
<stop offset="0.406586" stop-color="#164789"/>
<stop offset="1" stop-color="#06172F"/>
</linearGradient>
<linearGradient id="paint2_linear_1422_17165" x1="20.7614" y1="4.75505" x2="19.3458" y2="18.6791" gradientUnits="userSpaceOnUse">
<stop stop-color="#99DEF9"/>
<stop offset="1" stop-color="#103568"/>
</linearGradient>
</defs>
</svg>