<svg id="pole" width="120" height="56" viewBox="0 0 120 56" fill="none" xmlns="http://www.w3.org/2000/svg">
<path d="M64.0034 10.0493C62.7492 10.5399 61.7047 11.2397 60.8544 12.1517C60.0025 13.0661 59.3519 14.1621 58.9055 15.45C58.4567 16.7394 58.2312 18.1405 58.2312 19.6595C58.2336 22.8917 59.142 25.4013 60.9456 27.2569C62.7476 29.1061 65.2632 30.0409 68.5724 30.0433C69.9831 30.0441 71.2263 29.8617 72.3022 29.5071C74.27 28.8136 76.4846 26.8504 76.8618 24.9988C77.1078 23.788 76.3667 23.5254 75.9667 23.4704C75.8897 23.4625 75.8111 23.457 75.7278 23.457C75.272 23.457 74.9105 23.604 74.6802 23.8139C74.4036 24.0679 73.5989 24.8235 73.1847 25.1859C72.7635 25.5539 72.3045 25.8982 71.8071 26.2198C71.2978 26.5485 70.7674 26.7922 70.2196 26.9479C69.6703 27.1043 69.0691 27.1798 68.4192 27.1798C67.4361 27.1806 66.5221 26.9345 65.7025 26.4455C64.8749 25.9549 64.2132 25.2205 63.7268 24.2692C63.2725 23.3886 63.0289 22.3838 62.9826 21.2713C62.97 20.8994 63.2529 20.6777 63.5814 20.6777H73.5211C74.8618 20.6784 75.8779 20.4827 76.5663 20.1265C77.1785 19.8096 77.5266 19.1083 77.5321 17.8354C77.5321 16.4674 77.1832 15.1261 76.4751 13.795C75.7726 12.478 74.7219 11.4056 73.2994 10.5659C71.8888 9.73405 70.1929 9.31342 68.1889 9.31263C66.6486 9.31263 65.2561 9.5603 64.0034 10.0493ZM71.547 13.7784C72.4146 14.7015 72.9026 16.0459 73.0566 17.7725C73.0778 18.0611 72.7737 18.3134 72.4633 18.3134H63.5995C63.2773 18.3111 62.9558 18.0516 63.0061 17.734C63.2105 16.0475 63.7221 14.7227 64.5787 13.7997C65.469 12.8357 66.6423 12.3451 68.0168 12.3483C69.4487 12.3451 70.6534 12.8247 71.547 13.7784Z" fill="url(#paint0_radial)"/>
<path d="M44.3284 19.6799C44.3284 28.3403 51.3438 35.359 60.0001 35.359C68.6557 35.359 75.6719 28.3403 75.6719 19.6799C75.6719 11.0195 68.6557 4.00005 60.0001 4.00005C51.3438 4.00005 44.3284 11.0195 44.3284 19.6799Z" fill="url(#paint1_linear)"/>
<path d="M45.4946 18.205C45.2627 20.4898 45.5732 22.7078 46.3221 24.7284C49.0962 18.286 56.0739 18.1342 61.417 20.0173C67.8399 21.3413 75.1737 21.0386 74.1269 16.2496C72.9284 10.7114 68.0105 5.83204 61.4736 5.16767C60.9746 5.11657 60.4795 5.09141 59.9883 5.09141C52.6059 5.09141 46.2561 10.702 45.4946 18.205Z" fill="url(#paint2_linear)"/>
<path d="M60.8536 12.1529C60.0026 13.0661 59.3519 14.1621 58.9043 15.4508C58.4568 16.7394 58.2312 18.1405 58.2312 19.6595C58.2336 22.8917 59.142 25.4013 60.9456 27.2569C62.7476 29.1061 65.2631 30.0409 68.5724 30.0433C69.9328 30.0441 71.1336 29.8734 72.1819 29.544C73.5879 27.808 74.6307 25.7662 75.1949 23.534C74.9859 23.5969 74.8114 23.6944 74.6075 23.8812C74.4036 24.0679 73.5989 24.8235 73.1812 25.1887C72.7635 25.5539 72.3045 25.8982 71.8012 26.2234C71.2978 26.5485 70.7674 26.7922 70.2188 26.9483C69.6703 27.1043 69.0691 27.1798 68.2526 27.1802C67.4361 27.1806 66.5221 26.9345 65.6985 26.4447C64.8749 25.9549 64.2132 25.2205 63.7429 24.3045C63.2725 23.3886 63.0289 22.3838 62.9826 21.2713C62.97 20.8994 63.2529 20.6776 63.4171 20.6776H73.5211C74.3588 20.6784 75.0692 20.6014 75.6531 20.4583C75.6657 20.1996 75.672 19.9409 75.672 19.6799C75.672 16.0798 74.4594 12.765 72.4208 10.1185C71.1988 9.58388 69.7929 9.31342 68.2208 9.31303C66.6486 9.31263 65.2561 9.5603 64.0034 10.0493C62.7492 10.5399 61.7047 11.2397 60.8536 12.1529ZM73.0566 17.7725C73.0778 18.0611 72.7737 18.3134 72.4633 18.3134H63.5995C63.2773 18.3111 62.9558 18.0516 63.0061 17.734C63.2105 16.0475 63.7221 14.7227 64.5956 13.7792C65.4691 12.8357 66.6424 12.3451 68.0455 12.3451C69.4487 12.3451 70.6534 12.8247 71.547 13.7784C72.4145 14.7015 72.9026 16.0459 73.0566 17.7725Z" fill="url(#paint3_radial)"/>
<path d="M34.3466 46.1001C34.3466 45.4255 34.2468 44.938 34.0464 44.6377C33.7942 44.2627 33.3612 44.0755 32.7458 44.0755C32.1305 44.0755 31.7006 44.2627 31.4562 44.6377C31.2558 44.938 31.156 45.4255 31.156 46.1001V48.1129H32.7458C33.3612 48.1129 33.7942 47.9297 34.0464 47.5625C34.2468 47.2543 34.3466 46.7668 34.3466 46.1001ZM35.5026 46.1001C35.5026 48.2976 34.584 49.396 32.7458 49.396H31.156V52H30V46.1017C30 43.8955 30.9148 42.7916 32.7458 42.7916C34.584 42.7916 35.5026 43.8947 35.5026 46.1001Z" fill="#18397A"/>
<path d="M40.6412 46.1001C40.6412 45.4255 40.5422 44.938 40.3433 44.6377C40.1005 44.2626 39.673 44.0755 39.0624 44.0755C38.4517 44.0755 38.0211 44.2626 37.7704 44.6377C37.5724 44.938 37.4726 45.4255 37.4726 46.1001C37.4726 46.7668 37.5724 47.2543 37.7704 47.5625C38.0211 47.9296 38.4517 48.1128 39.0624 48.1128C39.673 48.1128 40.1005 47.9296 40.3433 47.5625C40.5422 47.2629 40.6412 46.7754 40.6412 46.1001ZM41.3752 41.5328L40.8526 42.2412L39.0074 41.1947L37.1614 42.2412L36.6387 41.5328L39.0074 40.1876L41.3752 41.5328ZM41.8082 46.1001C41.8082 48.2976 40.8927 49.396 39.0624 49.396C37.2242 49.396 36.3055 48.2976 36.3055 46.1001C36.3055 43.8947 37.2242 42.7916 39.0624 42.7916C40.8927 42.7916 41.8082 43.8947 41.8082 46.1001Z" fill="#18397A"/>
<path d="M45.6975 49.3962C43.7257 49.3962 42.7402 48.5982 42.7402 47.0037V40.187H43.8963V47.0147C43.8963 47.3551 44 47.6099 44.2075 47.7758C44.4817 47.9998 44.9784 48.1123 45.6975 48.1123V49.3962Z" fill="#18397A"/>
<path d="M50.1489 44.7099C49.943 44.2208 49.4801 43.8859 48.8624 43.8859C48.2448 43.8859 47.7685 44.2208 47.5626 44.7099C47.4337 45.0055 47.4086 45.1989 47.3952 45.5983H50.3289C50.3163 45.1989 50.2778 45.0055 50.1489 44.7099ZM47.3952 46.5119C47.3952 47.6315 47.9878 48.3399 49.055 48.3399C49.789 48.3399 50.1748 48.1339 50.6377 47.67L51.4739 48.4555C50.8051 49.1254 50.1748 49.4729 49.0298 49.4729C47.3952 49.4729 46.0962 48.6104 46.0962 46.1259C46.0962 44.0148 47.1893 42.7914 48.8624 42.7914C50.6118 42.7914 51.6287 44.0785 51.6287 45.9325V46.5119H47.3952Z" fill="#18397A"/>
<path d="M34.3466 46.1001C34.3466 45.4255 34.2468 44.938 34.0464 44.6377C33.7942 44.2627 33.3612 44.0755 32.7458 44.0755C32.1305 44.0755 31.7006 44.2627 31.4562 44.6377C31.2558 44.938 31.156 45.4255 31.156 46.1001V48.1129H32.7458C33.3612 48.1129 33.7942 47.9297 34.0464 47.5625C34.2468 47.2543 34.3466 46.7668 34.3466 46.1001ZM35.5026 46.1001C35.5026 48.2976 34.584 49.396 32.7458 49.396H31.156V52H30V46.1017C30 43.8955 30.9148 42.7916 32.7458 42.7916C34.584 42.7916 35.5026 43.8947 35.5026 46.1001Z" fill="#18397A"/>
<path d="M40.6412 46.1001C40.6412 45.4255 40.5422 44.938 40.3433 44.6377C40.1005 44.2626 39.673 44.0755 39.0624 44.0755C38.4517 44.0755 38.0211 44.2626 37.7704 44.6377C37.5724 44.938 37.4726 45.4255 37.4726 46.1001C37.4726 46.7668 37.5724 47.2543 37.7704 47.5625C38.0211 47.9296 38.4517 48.1128 39.0624 48.1128C39.673 48.1128 40.1005 47.9296 40.3433 47.5625C40.5422 47.2629 40.6412 46.7754 40.6412 46.1001ZM41.3752 41.5328L40.8526 42.2412L39.0074 41.1947L37.1614 42.2412L36.6387 41.5328L39.0074 40.1876L41.3752 41.5328ZM41.8082 46.1001C41.8082 48.2976 40.8927 49.396 39.0624 49.396C37.2242 49.396 36.3055 48.2976 36.3055 46.1001C36.3055 43.8947 37.2242 42.7916 39.0624 42.7916C40.8927 42.7916 41.8082 43.8947 41.8082 46.1001Z" fill="#18397A"/>
<path d="M45.6975 49.3962C43.7257 49.3962 42.7402 48.5982 42.7402 47.0037V40.187H43.8963V47.0147C43.8963 47.3551 44 47.6099 44.2075 47.7758C44.4817 47.9998 44.9784 48.1123 45.6975 48.1123V49.3962Z" fill="#18397A"/>
<path d="M50.1489 44.7099C49.943 44.2208 49.4801 43.8859 48.8624 43.8859C48.2448 43.8859 47.7685 44.2208 47.5626 44.7099C47.4337 45.0055 47.4086 45.1989 47.3952 45.5983H50.3289C50.3163 45.1989 50.2778 45.0055 50.1489 44.7099ZM47.3952 46.5119C47.3952 47.6315 47.9878 48.3399 49.055 48.3399C49.789 48.3399 50.1748 48.1339 50.6377 47.67L51.4739 48.4555C50.8051 49.1254 50.1748 49.4729 49.0298 49.4729C47.3952 49.4729 46.0962 48.6104 46.0962 46.1259C46.0962 44.0148 47.1893 42.7914 48.8624 42.7914C50.6118 42.7914 51.6287 44.0785 51.6287 45.9325V46.5119H47.3952Z" fill="#18397A"/>
<path d="M71.9115 49.3962H70.7555V46.094C70.7555 45.421 70.6549 44.9351 70.4553 44.6363C70.2031 44.2621 69.7701 44.0749 69.1547 44.0749C68.5394 44.0749 68.1095 44.2621 67.8651 44.6363C67.6647 44.9351 67.5649 45.421 67.5649 46.094V49.3962H66.4089V46.094C66.4089 45.421 66.3091 44.9351 66.1087 44.6363C65.8564 44.2621 65.4234 44.0749 64.8073 44.0749C64.1927 44.0749 63.7629 44.2621 63.5177 44.6363C63.3181 44.9351 63.2183 45.421 63.2183 46.094V49.3962H62.0623V46.1003C62.0623 43.8941 62.977 42.7918 64.8073 42.7918C65.7865 42.7918 66.5118 43.1244 66.9865 43.7888C67.4541 43.1244 68.1763 42.7918 69.1547 42.7918C70.9921 42.7918 71.9115 43.8941 71.9115 46.1003V49.3962Z" fill="#E31927"/>
<path d="M77.1922 46.1001C77.1922 45.4255 77.0924 44.938 76.892 44.6377C76.6405 44.2627 76.2067 44.0755 75.5914 44.0755C74.9761 44.0755 74.5462 44.2627 74.3018 44.6377C74.1014 44.938 74.0016 45.4255 74.0016 46.1001V48.1129H75.5914C76.2067 48.1129 76.6405 47.9297 76.892 47.5625C77.0924 47.2543 77.1922 46.7668 77.1922 46.1001ZM78.349 46.1001C78.349 48.2976 77.4295 49.396 75.5914 49.396H74.0016V52H72.8456V46.1017C72.8456 43.8955 73.7611 42.7916 75.5914 42.7916C77.4295 42.7916 78.349 43.8947 78.349 46.1001Z" fill="#E31927"/>
<path d="M82.1506 49.3962C80.1788 49.3962 79.1934 48.5982 79.1934 47.0037V40.187H80.3494V47.0147C80.3494 47.3551 80.4531 47.6099 80.6613 47.7758C80.9348 47.9998 81.4315 48.1123 82.1506 48.1123V49.3962Z" fill="#E31927"/>
<path d="M86.8309 46.1001C86.8309 45.4255 86.7311 44.938 86.5307 44.6377C86.2863 44.2626 85.8565 44.0755 85.2411 44.0755C84.6258 44.0755 84.1959 44.2626 83.9515 44.6377C83.7511 44.938 83.6513 45.4255 83.6513 46.1001C83.6513 46.7754 83.7511 47.2629 83.9515 47.5625C84.1959 47.9296 84.6258 48.1128 85.2411 48.1128C85.8565 48.1128 86.2863 47.9296 86.5307 47.5625C86.7311 47.2629 86.8309 46.7754 86.8309 46.1001ZM87.987 46.1001C87.987 48.2976 87.0714 49.396 85.2411 49.396C83.403 49.396 82.4835 48.2976 82.4835 46.1001C82.4835 43.8947 83.403 42.7916 85.2411 42.7916C87.0714 42.7916 87.987 43.8947 87.987 46.1001Z" fill="#E31927"/>
<path d="M88.843 42.792H89.999V49.3964H88.843V42.792ZM89.999 41.4711H88.843V40.1872H89.999V41.4711Z" fill="#E31927"/>
<path d="M59.6565 44.7099C59.4506 44.2208 58.9877 43.8859 58.37 43.8859C57.7523 43.8859 57.2761 44.2208 57.0702 44.7099C56.9413 45.0055 56.9162 45.1989 56.9028 45.5983H59.8364C59.8239 45.1989 59.7853 45.0055 59.6565 44.7099ZM56.9028 46.5119C56.9028 47.6315 57.4945 48.3399 58.5625 48.3399C59.2965 48.3399 59.6824 48.1339 60.1453 47.67L60.9822 48.4555C60.3127 49.1254 59.6824 49.4729 58.5374 49.4729C56.9028 49.4729 55.6038 48.6104 55.6038 46.1259C55.6038 44.0148 56.6969 42.7914 58.37 42.7914C60.1193 42.7914 61.1362 44.0785 61.1362 45.9325V46.5119H56.9028Z" fill="#E31927"/>
<path d="M71.9115 49.3962H70.7555V46.094C70.7555 45.421 70.6549 44.9351 70.4553 44.6363C70.2031 44.2621 69.7701 44.0749 69.1547 44.0749C68.5394 44.0749 68.1095 44.2621 67.8651 44.6363C67.6647 44.9351 67.5649 45.421 67.5649 46.094V49.3962H66.4089V46.094C66.4089 45.421 66.3091 44.9351 66.1087 44.6363C65.8564 44.2621 65.4234 44.0749 64.8073 44.0749C64.1927 44.0749 63.7629 44.2621 63.5177 44.6363C63.3181 44.9351 63.2183 45.421 63.2183 46.094V49.3962H62.0623V46.1003C62.0623 43.8941 62.977 42.7918 64.8073 42.7918C65.7865 42.7918 66.5118 43.1244 66.9865 43.7888C67.4541 43.1244 68.1763 42.7918 69.1547 42.7918C70.9921 42.7918 71.9115 43.8941 71.9115 46.1003V49.3962Z" fill="#E31927"/>
<path d="M77.1922 46.1001C77.1922 45.4255 77.0924 44.938 76.892 44.6377C76.6405 44.2627 76.2067 44.0755 75.5914 44.0755C74.9761 44.0755 74.5462 44.2627 74.3018 44.6377C74.1014 44.938 74.0016 45.4255 74.0016 46.1001V48.1129H75.5914C76.2067 48.1129 76.6405 47.9297 76.892 47.5625C77.0924 47.2543 77.1922 46.7668 77.1922 46.1001ZM78.349 46.1001C78.349 48.2976 77.4295 49.396 75.5914 49.396H74.0016V52H72.8456V46.1017C72.8456 43.8955 73.7611 42.7916 75.5914 42.7916C77.4295 42.7916 78.349 43.8947 78.349 46.1001Z" fill="#E31927"/>
<path d="M82.1506 49.3962C80.1788 49.3962 79.1934 48.5982 79.1934 47.0037V40.187H80.3494V47.0147C80.3494 47.3551 80.4531 47.6099 80.6613 47.7758C80.9348 47.9998 81.4315 48.1123 82.1506 48.1123V49.3962Z" fill="#E31927"/>
<path d="M86.8309 46.1001C86.8309 45.4255 86.7311 44.938 86.5307 44.6377C86.2863 44.2626 85.8565 44.0755 85.2411 44.0755C84.6258 44.0755 84.1959 44.2626 83.9515 44.6377C83.7511 44.938 83.6513 45.4255 83.6513 46.1001C83.6513 46.7754 83.7511 47.2629 83.9515 47.5625C84.1959 47.9296 84.6258 48.1128 85.2411 48.1128C85.8565 48.1128 86.2863 47.9296 86.5307 47.5625C86.7311 47.2629 86.8309 46.7754 86.8309 46.1001ZM87.987 46.1001C87.987 48.2976 87.0714 49.396 85.2411 49.396C83.403 49.396 82.4835 48.2976 82.4835 46.1001C82.4835 43.8947 83.403 42.7916 85.2411 42.7916C87.0714 42.7916 87.987 43.8947 87.987 46.1001Z" fill="#E31927"/>
<path d="M88.843 42.792H89.999V49.3964H88.843V42.792ZM89.999 41.4711H88.843V40.1872H89.999V41.4711Z" fill="#E31927"/>
<path d="M59.6565 44.7099C59.4506 44.2208 58.9877 43.8859 58.37 43.8859C57.7523 43.8859 57.2761 44.2208 57.0702 44.7099C56.9413 45.0055 56.9162 45.1989 56.9028 45.5983H59.8364C59.8239 45.1989 59.7853 45.0055 59.6565 44.7099ZM56.9028 46.5119C56.9028 47.6315 57.4945 48.3399 58.5625 48.3399C59.2965 48.3399 59.6824 48.1339 60.1453 47.67L60.9822 48.4555C60.3127 49.1254 59.6824 49.4729 58.5374 49.4729C56.9028 49.4729 55.6038 48.6104 55.6038 46.1259C55.6038 44.0148 56.6969 42.7914 58.37 42.7914C60.1193 42.7914 61.1362 44.0785 61.1362 45.9325V46.5119H56.9028Z" fill="#E31927"/>
<defs>
<radialGradient id="paint0_radial" cx="0" cy="0" r="1" gradientUnits="userSpaceOnUse" gradientTransform="translate(64.4478 9.98904) scale(36.6857 36.7028)">
<stop stop-color="#E65D1B"/>
<stop offset="0.0472274" stop-color="#E65D1B"/>
<stop offset="0.350006" stop-color="#ED1C24"/>
<stop offset="1" stop-color="#A61217"/>
</radialGradient>
<linearGradient id="paint1_linear" x1="60" y1="4.00081" x2="60" y2="35.359" gradientUnits="userSpaceOnUse">
<stop stop-color="#65CDEB"/>
<stop offset="0.0548619" stop-color="#65CDEB"/>
<stop offset="0.406586" stop-color="#164789"/>
<stop offset="1" stop-color="#06172F"/>
</linearGradient>
<linearGradient id="paint2_linear" x1="61.1417" y1="5.13338" x2="59.0184" y2="26.0191" gradientUnits="userSpaceOnUse">
<stop stop-color="#99DEF9"/>
<stop offset="1" stop-color="#103568"/>
</linearGradient>
<radialGradient id="paint3_radial" cx="0" cy="0" r="1" gradientUnits="userSpaceOnUse" gradientTransform="translate(65.0318 11.5822) scale(21.038 21.0478)">
<stop stop-color="white"/>
<stop offset="0.252747" stop-color="white"/>
<stop offset="0.457171" stop-color="white"/>
<stop offset="1" stop-color="#CEDDE3"/>
</radialGradient>
</defs>
</svg>
