<svg width="127" height="70" viewBox="0 0 127 70" fill="none" xmlns="http://www.w3.org/2000/svg">
<path d="M24.1764 46.3997V30.7881M24.1764 30.7881V17.6632C24.1764 17.1109 24.6234 16.6632 25.1757 16.6632C27.6739 16.6632 31.7707 16.6632 33.8408 16.6632C36.8145 16.6632 40.5315 18.15 40.5315 24.0973C40.5315 30.0446 34.5842 30.7881 27.8935 30.7881C22.5409 30.7881 23.1852 30.7881 24.1764 30.7881Z" stroke="black" stroke-width="2" stroke-linecap="round" stroke-linejoin="round"/>
<path d="M42.0178 46.3998C42.2656 46.8954 42.0225 46.3998 40.531 42.6828C38.4226 37.4283 36.0726 30.7881 26.4082 30.7881H22" stroke="black" stroke-width="2" stroke-linecap="round" stroke-linejoin="round"/>
<path d="M49.4521 46.4028C50.4434 42.1902 52.8718 32.5754 54.656 27.8175C56.4402 23.0597 58.8687 18.401 59.8599 16.6663C60.8511 17.9053 63.4283 21.8702 65.8072 27.8175C68.1862 33.7648 70.7633 42.6858 71.7545 46.4028" stroke="#D50000" stroke-width="2" stroke-linecap="round" stroke-linejoin="round"/>
<path d="M49.5063 31.5336L66.8166 31.5336" stroke="#D50000" stroke-width="2" stroke-linecap="round"/>
<path d="M91.0928 33.7628C91.6875 34.9522 92.3318 34.2584 92.5796 33.7628C95.5533 28.8067 101.649 18.5972 102.244 17.4077C102.987 15.9209 104.474 15.1775 104.474 17.4077C104.474 19.1919 104.474 37.7276 104.474 46.4008" stroke="black" stroke-width="2" stroke-linecap="round" stroke-linejoin="round"/>
<path d="M92.5771 33.7628C91.9824 34.9522 91.3381 34.2584 91.0903 33.7628C88.1167 28.8067 82.0207 18.5972 81.426 17.4077C80.6825 15.9209 79.1957 15.1775 79.1957 17.4077C79.1957 19.1919 79.1957 37.7276 79.1957 46.4008" stroke="black" stroke-width="2" stroke-linecap="round" stroke-linejoin="round"/>
<path d="M41.7603 45.7377L43.9372 50.7621C44.571 52.225 46.0131 53.1718 47.6075 53.1718L75.243 53.1718C77.4521 53.1718 79.243 51.3809 79.243 49.1718V45.7377" stroke="black" stroke-width="2"/>
</svg>
