<svg width="121" height="29" viewBox="0 0 121 29" fill="none" xmlns="http://www.w3.org/2000/svg">
<path d="M54 27.5C54 26.6716 54.6716 26 55.5 26H67.5C68.3284 26 69 26.6716 69 27.5V27.5C69 28.3284 68.3284 29 67.5 29H55.5C54.6716 29 54 28.3284 54 27.5V27.5Z" fill="#ED3939"/>
<path fill-rule="evenodd" clip-rule="evenodd" d="M71 8H74V8.80269C74.8825 8.29218 75.9071 8 77 8C80.3137 8 83 10.6863 83 14V27.5C83 28.3284 82.3284 29 81.5 29C80.6716 29 80 28.3284 80 27.5V14C80 12.3431 78.6569 11 77 11C75.3431 11 74 12.3431 74 14V22V27.5C74 28.3284 73.3284 29 72.5 29C71.6716 29 71 28.3284 71 27.5V22V14V8Z" fill="#4F4F4F"/>
<path fill-rule="evenodd" clip-rule="evenodd" d="M103 8H100V14V22V27.5C100 28.3284 100.672 29 101.5 29C102.328 29 103 28.3284 103 27.5V22V14C103 12.3431 104.343 11 106 11C107.657 11 109 12.3431 109 14V27.5C109 28.3284 109.672 29 110.5 29C111.328 29 112 28.3284 112 27.5V14C112 12.3431 113.343 11 115 11C116.657 11 118 12.3431 118 14V27.5C118 28.3284 118.672 29 119.5 29C120.328 29 121 28.3284 121 27.5V14C121 10.6863 118.314 8 115 8C113.208 8 111.599 8.78563 110.5 10.0313C109.401 8.78563 107.792 8 106 8C104.907 8 103.883 8.29218 103 8.80269V8Z" fill="#4F4F4F"/>
<path fill-rule="evenodd" clip-rule="evenodd" d="M85.5 23C85.5 26.3137 88.1863 29 91.5 29C94.8137 29 97.5 26.3137 97.5 23V9.5C97.5 8.67157 96.8284 8 96 8C95.1716 8 94.5 8.67157 94.5 9.5V23C94.5 24.6569 93.1569 26 91.5 26C89.8431 26 88.5 24.6569 88.5 23V9.5C88.5 8.67157 87.8284 8 87 8C86.1716 8 85.5 8.67157 85.5 9.5V23Z" fill="#4F4F4F"/>
<path fill-rule="evenodd" clip-rule="evenodd" d="M34 11C32.3115 11 30.5 12.747 30.5 15.5C30.5 16.3284 31.1716 17 32 17H34.75C37.2353 17 39.25 19.0147 39.25 21.5H39.2268C39.2268 25.3744 36.5611 29 32.7268 29C30.6938 29 28.9456 27.9361 27.7976 26.3968C27.3023 25.7327 27.4391 24.7929 28.1032 24.2976C28.7672 23.8023 29.7071 23.9391 30.2024 24.6032C30.8854 25.5189 31.7982 26 32.7268 26C34.4154 26 36.2268 24.253 36.2268 21.5C36.2268 21.4365 36.2308 21.374 36.2384 21.3126C36.1462 20.5726 35.515 20 34.75 20H32C29.5147 20 27.5 17.9853 27.5 15.5C27.5 11.6256 30.1657 8 34 8C36.0331 8 37.7812 9.06393 38.9292 10.6032C39.4245 11.2673 39.2877 12.2071 38.6237 12.7024C37.9596 13.1977 37.0198 13.0609 36.5245 12.3968C35.8415 11.4811 34.9286 11 34 11Z" fill="#4F4F4F"/>
<path fill-rule="evenodd" clip-rule="evenodd" d="M3 3H6C7.65685 3 9 4.34315 9 6V13C9 14.6569 7.65685 16 6 16H4.5H3V3ZM0 17.5V0H6C9.31371 0 12 2.68629 12 6V13C12 15.0173 11.0044 16.8022 9.47774 17.8899C11.025 19.2638 12 21.268 12 23.5V27.5C12 28.3284 11.3284 29 10.5 29C9.67157 29 9 28.3284 9 27.5V23.5C9 21.0147 6.98528 19 4.5 19H3V27.5C3 28.3284 2.32843 29 1.5 29C0.671573 29 0 28.3284 0 27.5V19V17.5Z" fill="#4F4F4F"/>
<path fill-rule="evenodd" clip-rule="evenodd" d="M50 23V14C50 12.3431 48.6569 11 47 11C45.3431 11 44 12.3431 44 14V23C44 24.6569 45.3431 26 47 26C48.6569 26 50 24.6569 50 23ZM47 8C43.6863 8 41 10.6863 41 14V23C41 26.3137 43.6863 29 47 29C50.3137 29 53 26.3137 53 23V14C53 10.6863 50.3137 8 47 8Z" fill="#4F4F4F"/>
<path fill-rule="evenodd" clip-rule="evenodd" d="M23 14V14.5C23 16.1569 21.6569 17.5 20 17.5H18C17.4477 17.5 17 17.0523 17 16.5V14.5V14C17 12.3431 18.3431 11 20 11C21.6569 11 23 12.3431 23 14ZM17 20.374C17.3196 20.4562 17.6547 20.5 18 20.5H20C23.3137 20.5 26 17.8137 26 14.5V14C26 10.6863 23.3137 8 20 8C16.6863 8 14 10.6863 14 14V14.5V16.5V23.5C14 26.5376 16.4624 29 19.5 29H24C24.8284 29 25.5 28.3284 25.5 27.5C25.5 26.6716 24.8284 26 24 26H19.5C18.1193 26 17 24.8807 17 23.5V20.374Z" fill="#4F4F4F"/>
</svg>
