<svg width="118" height="22" viewBox="0 0 118 22" fill="none" xmlns="http://www.w3.org/2000/svg">
<g clip-path="url(#clip0)">
<rect x="32.2148" y="20.4286" width="11.7857" height="1.57143" rx="0.785714" fill="black"/>
<rect x="66" y="20.4286" width="11.7857" height="1.57143" rx="0.785714" fill="black"/>
<path fill-rule="evenodd" clip-rule="evenodd" d="M24.3583 17.2857V11.7857C24.3583 10.4839 25.4136 9.42855 26.7154 9.42855C28.0172 9.42855 29.0725 10.4839 29.0725 11.7857V17.2857C29.0725 18.5875 28.0172 19.6428 26.7154 19.6428C25.4136 19.6428 24.3583 18.5875 24.3583 17.2857ZM26.7154 7.07141C29.319 7.07141 31.4297 9.18207 31.4297 11.7857V17.2857C31.4297 19.8893 29.319 22 26.7154 22C24.1118 22 22.0011 19.8893 22.0011 17.2857V11.7857C22.0011 9.18207 24.1118 7.07141 26.7154 7.07141Z" fill="#D50000"/>
<rect width="2.35714" height="16.5" transform="matrix(-1 0 0 1 24.3555 0)" fill="#D50000"/>
<rect width="2.35714" height="16.5" transform="matrix(-1 0 0 1 2.35547 0)" fill="#D50000"/>
<path fill-rule="evenodd" clip-rule="evenodd" d="M7.07143 22H9.42857V11.7857C9.42857 9.18207 7.31791 7.07141 4.71429 7.07141C2.11066 7.07141 0 9.18207 0 11.7857V22H2.35714V11.7857C2.35714 10.4839 3.41247 9.42855 4.71429 9.42855C6.0161 9.42855 7.07143 10.4839 7.07143 11.7857V22Z" fill="#D50000"/>
<path fill-rule="evenodd" clip-rule="evenodd" d="M18.0714 7.85714H20.4286V17.2857C20.4286 19.8893 18.3179 22 15.7143 22C13.1107 22 11 19.8893 11 17.2857V7.85714H13.3571V17.2857C13.3571 18.5875 14.4125 19.6429 15.7143 19.6429C17.0161 19.6429 18.0714 18.5875 18.0714 17.2857V7.85714Z" fill="#D50000"/>
<rect width="2.35715" height="11" transform="matrix(-1 0 0 1 80.9258 7.07141)" fill="#D50000"/>
<path fill-rule="evenodd" clip-rule="evenodd" d="M85.6417 22H87.9989V11.7857C87.9989 9.18207 85.8882 7.07141 83.2846 7.07141C80.681 7.07141 78.5703 9.18207 78.5703 11.7857V22H80.9275V11.7857C80.9275 10.4839 81.9828 9.42855 83.2846 9.42855C84.5864 9.42855 85.6417 10.4839 85.6417 11.7857V22Z" fill="#D50000"/>
<rect width="2.35714" height="11" transform="matrix(-1 0 0 1 102.926 7.07141)" fill="#D50000"/>
<path fill-rule="evenodd" clip-rule="evenodd" d="M107.642 22H109.999V11.7857C109.999 9.18207 107.888 7.07141 105.285 7.07141C102.681 7.07141 100.57 9.18207 100.57 11.7857V22H102.927V11.7857C102.927 10.4839 103.983 9.42855 105.285 9.42855C106.586 9.42855 107.642 10.4839 107.642 11.7857V22Z" fill="#D50000"/>
<path fill-rule="evenodd" clip-rule="evenodd" d="M114.712 22H117.069V11.7857C117.069 9.18207 114.959 7.07141 112.355 7.07141C109.751 7.07141 107.641 9.18207 107.641 11.7857V22H109.998V11.7857C109.998 10.4839 111.053 9.42855 112.355 9.42855C113.657 9.42855 114.712 10.4839 114.712 11.7857V22Z" fill="#D50000"/>
<path fill-rule="evenodd" clip-rule="evenodd" d="M96.6417 7.85714H98.9989V17.2857C98.9989 19.8893 96.8882 22 94.2846 22C91.681 22 89.5703 19.8893 89.5703 17.2857V7.85714H91.9275V17.2857C91.9275 18.5875 92.9828 19.6429 94.2846 19.6429C95.5864 19.6429 96.6417 18.5875 96.6417 17.2857V7.85714Z" fill="#D50000"/>
<path fill-rule="evenodd" clip-rule="evenodd" d="M51.8566 17.2857V11.7857C51.8566 10.4839 50.8013 9.42855 49.4994 9.42855C48.1976 9.42855 47.1423 10.4839 47.1423 11.7857V17.2857C47.1423 18.5875 48.1976 19.6428 49.4994 19.6428C50.8013 19.6428 51.8566 18.5875 51.8566 17.2857ZM49.4994 7.07141C46.8958 7.07141 44.7852 9.18207 44.7852 11.7857V17.2857C44.7852 19.8893 46.8958 22 49.4994 22C52.1031 22 54.2137 19.8893 54.2137 17.2857V11.7857C54.2137 9.18207 52.1031 7.07141 49.4994 7.07141Z" fill="#D50000"/>
<rect x="51.8594" width="2.35714" height="16.5" fill="#D50000"/>
<path fill-rule="evenodd" clip-rule="evenodd" d="M62.8566 7.85714H65.2137V17.2857C65.2137 19.8893 63.1031 22 60.4994 22C57.8958 22 55.7852 19.8893 55.7852 17.2857V7.85714H58.1423V17.2857C58.1423 18.5875 59.1976 19.6429 60.4994 19.6429C61.8013 19.6429 62.8566 18.5875 62.8566 17.2857V7.85714Z" fill="#D50000"/>
</g>
<defs>
<clipPath id="clip0">
<rect width="117.071" height="22" fill="white"/>
</clipPath>
</defs>
</svg>
