<svg width="227" height="87" viewBox="0 0 227 87" fill="none" xmlns="http://www.w3.org/2000/svg">
<path d="M147.104 27.9828L145.972 28H140.001V21.0006C140.001 17.1381 143.14 14 147.001 14C150.863 14 154.001 17.1382 154.001 21.0006C154.001 24.8184 150.932 27.9248 147.104 27.9828Z" fill="#DA3635"/>
<path d="M165.001 17.5C165.001 15.567 166.568 14 168.501 14C170.434 14 172.001 15.567 172.001 17.5V78.5C172.001 80.433 170.434 82 168.501 82C166.568 82 165.001 80.433 165.001 78.5V17.5Z" fill="#DA3635"/>
<path fill-rule="evenodd" clip-rule="evenodd" d="M187.045 31C187.045 21.6112 194.657 14 204.045 14C213.434 14 221.045 21.6112 221.045 31V78.5C221.045 80.433 219.478 82 217.545 82C215.612 82 214.045 80.433 214.045 78.5V31C214.045 25.4772 209.568 21 204.045 21C198.523 21 194.045 25.4772 194.045 31V78.5C194.045 80.433 192.478 82 190.545 82C188.612 82 187.045 80.433 187.045 78.5V31Z" fill="#DA3635"/>
<path d="M17.0013 32.5015C17.0013 27.807 20.8069 24.0015 25.5013 24.0015C28.5567 24.0015 31.2406 25.6102 32.7452 28.0507C34.1943 30.4013 37.2747 31.1321 39.6253 29.683C41.9759 28.2338 42.7067 25.1535 41.2575 22.8029C38.0083 17.5325 32.1693 14.0015 25.5013 14.0015C20.2371 14.0015 15.4863 16.2002 12.1175 19.7295C9.95632 17.6392 7.71519 16.6792 6.75697 16.3198C4.17137 15.3502 1.28931 16.6603 0.319709 19.2459C-0.649891 21.8315 0.660136 24.7135 3.24574 25.6831C3.54215 25.7943 4.50289 26.2019 5.35507 27.1102C6.1034 27.9077 7.00136 29.3223 7.00136 32.0015H7.00797C7.00356 32.1676 7.00134 32.3343 7.00134 32.5015V77.0626C7.00134 79.8241 9.23992 82.0626 12.0013 82.0626C14.7628 82.0626 17.0013 79.8241 17.0013 77.0626V32.5015Z" fill="black"/>
<path fill-rule="evenodd" clip-rule="evenodd" d="M76.7571 7.31971C79.3427 8.28931 80.6527 11.1714 79.6831 13.757C79.3698 14.5925 78.5997 16.4035 77.0218 18.2863C81.2821 21.7706 84.0015 27.0684 84.0015 33.0013C84.0015 43.4948 75.4949 52.0013 65.0015 52.0013H56.0015V63.5C56.0015 68.1944 59.807 72 64.5015 72C67.5568 72 70.2407 70.3913 71.7453 67.9507C73.1945 65.6001 76.2748 64.8694 78.6254 66.3185C80.976 67.7677 81.7068 70.848 80.2576 73.1986C77.0085 78.469 71.1695 82 64.5015 82C54.2842 82 46.0015 73.7173 46.0015 63.5V32.0013C46.0015 31.645 46.0387 31.2973 46.1096 30.962C47.0922 21.7538 54.6531 14.512 64.0015 14.0272V14.0014C66.6807 14.0014 68.0952 13.1034 68.8927 12.3551C69.801 11.5029 70.2087 10.5421 70.3198 10.2457C71.2894 7.66014 74.1715 6.35011 76.7571 7.31971ZM56.0015 33.0013V42.0013H65.0015C69.972 42.0013 74.0015 37.9719 74.0015 33.0013C74.0015 28.0308 69.972 24.0013 65.0015 24.0013C60.0309 24.0013 56.0015 28.0308 56.0015 33.0013Z" fill="black"/>
<path d="M121.732 47.2061L110.168 36.4381C107.79 34.2639 106.885 32.0896 106.885 29.8021C106.885 26.1413 109.375 23.0528 113.339 23.0528C116.779 23.0528 118.774 25.1694 120.004 28.5441C120.656 30.332 122.283 31.5617 124.166 31.5617H124.208C127.224 31.5617 129.317 28.5725 128.37 25.6701C126.162 18.9056 121.051 14 112.885 14C102.694 14 96 19.8351 96 30.2602C96 38.039 99.51 42.5159 104.039 46.4062L115.248 56.1306C118.985 59.3334 120.57 62.1933 120.57 65.9692C120.57 70.2035 118.192 72.9482 113.889 72.9482C110.308 72.9482 107.916 71.2178 106.373 67.7138C105.51 65.7691 103.582 64.6584 101.474 64.6584C97.6233 64.6584 94.979 68.543 96.6495 72.047C99.593 78.2108 105.226 82 112.869 82C123.626 82 131 76.3945 131 65.0541C131.031 56.6009 126.388 51.5527 121.732 47.2061Z" fill="black"/>
</svg>
