<svg width="120" height="56" viewBox="0 0 120 56" fill="none" xmlns="http://www.w3.org/2000/svg">
<g clip-path="url(#clip0)">
<path d="M49.6413 20.4335C51.2473 20.4335 52.7864 20.4335 54.3255 20.4335C54.6199 20.4335 54.727 20.554 54.7136 20.8354C54.7002 20.9961 54.7136 21.1435 54.7136 21.3042C54.7136 30.8291 54.7136 40.3673 54.7136 49.8921C54.7136 51.8748 53.9775 52.8393 52.0235 52.9063C48.5037 53.0135 44.9839 53.134 41.4641 52.8259C39.3897 52.6517 38.6536 51.7408 38.6536 49.6778C38.6536 42.0418 38.6536 34.4059 38.6536 26.7834C38.6536 26.569 38.5198 26.2743 38.8544 26.1537C39.2693 26.0198 39.6708 25.7786 40.1258 25.792C40.273 25.792 40.2596 26.0064 40.2998 26.1269C41.7318 30.9898 43.1772 35.8661 44.6092 40.729C44.7832 41.305 44.9304 41.8945 45.1311 42.4571C45.2382 42.7518 45.2115 42.9126 44.8769 42.9796C44.743 43.0064 44.6092 43.0332 44.4888 43.1001C43.94 43.3681 43.6322 43.2341 43.5653 42.6045C43.4984 41.9748 43.2441 41.7873 42.5749 42.0552C41.5578 42.4571 40.4871 42.7652 39.4165 43.0867C39.0551 43.1939 38.9748 43.3547 39.0953 43.703C39.4299 44.7479 39.7243 45.7928 40.0723 46.8243C40.7013 48.7266 42.227 49.7313 44.2077 49.4232C46.6301 49.0347 48.9855 48.3113 51.2205 47.3334C53.6028 46.2885 54.4727 43.8637 53.6429 41.1041C51.9031 35.2499 50.1633 29.409 48.4101 23.5548C48.2628 23.0592 48.3164 22.8448 48.8383 22.6975C49.2934 22.5635 49.9759 22.5635 50.1231 22.1482C50.257 21.8133 49.8956 21.2774 49.7618 20.8354C49.735 20.7416 49.7082 20.6344 49.6413 20.4335Z" fill="#134B9E"/>
<path d="M46.1354 17.3524C43.4587 17.0576 41.3977 15.7984 40.0192 13.4674C38.5203 10.9355 38.7344 7.51941 40.501 5.13486C42.3613 2.64313 45.4796 1.49105 48.4373 2.21445C51.4218 2.92446 53.7237 5.3492 54.2189 8.2964C54.9014 12.4091 52.4791 15.9859 48.5042 17.1916C45.9614 17.9552 43.4721 18.9197 40.956 19.7905C39.3367 20.3531 37.7173 20.9158 36.0979 21.4516C35.7098 21.5856 35.5626 21.6928 35.7366 22.1349C36.1916 23.3271 36.5663 24.5328 36.9812 25.7385C37.0481 25.9394 37.2355 26.1672 36.8875 26.2877C36.5396 26.3949 36.5529 26.0868 36.486 25.8992C36.0176 24.5596 35.576 23.2066 35.0808 21.8669C34.9336 21.4383 35.0005 21.2641 35.4421 21.1167C38.8816 19.9646 42.3078 18.7724 45.7339 17.5935C45.8677 17.5399 46.0417 17.5399 46.1354 17.3524Z" fill="#124A9E"/>
<path d="M69.4219 28.1631C69.4219 27.922 69.4219 27.6675 69.4219 27.4263C69.4219 26.9173 69.4219 26.9441 69.9305 26.9708C70.1179 26.9842 70.3186 26.7833 70.5194 26.7163C70.9476 26.569 71.2822 27.0646 71.5633 26.9976C71.9112 26.9039 72.2057 26.6493 72.6072 26.7297C73.0087 26.8101 73.2362 27.0512 73.2496 27.4531C73.2629 28.0292 73.2496 28.6052 73.2629 29.1946C73.2629 29.3822 73.2763 29.5563 73.0087 29.5563C72.7008 29.5563 72.7945 29.3286 72.7945 29.1812C72.7811 28.7124 72.7811 28.2435 72.7945 27.7746C72.8079 27.4129 72.6875 27.145 72.286 27.145C71.9112 27.145 71.6302 27.3325 71.6168 27.7344C71.59 28.2033 71.6168 28.6722 71.6034 29.1411C71.6034 29.3152 71.7105 29.5697 71.3491 29.5429C71.0681 29.5295 71.1216 29.3286 71.1216 29.1545C71.1216 28.7124 71.1216 28.2703 71.1082 27.8148C71.0948 27.4665 71.0547 27.1048 70.5729 27.1316C70.158 27.1584 69.9171 27.4129 69.8904 27.8148C69.8636 28.2569 69.8904 28.699 69.877 29.1545C69.877 29.3152 69.9573 29.5295 69.6495 29.5295C69.355 29.5295 69.4219 29.3152 69.4219 29.1545C69.4219 28.8195 69.4219 28.498 69.4219 28.1631Z" fill="#131313"/>
<path d="M64.9786 21.6525C65.6611 21.2908 66.2232 21.2506 66.7318 21.7195C67.1333 22.0946 67.2537 22.9519 66.9994 23.5414C66.7853 24.0504 66.3838 24.2782 65.8485 24.2782C65.4737 24.2782 65.1258 23.9299 64.6975 24.2112C64.5235 24.3318 64.5101 24.0504 64.5101 23.9031C64.5101 22.8314 64.5101 21.7731 64.5101 20.7014C64.5101 20.5406 64.4968 20.3932 64.7377 20.3932C64.9518 20.3932 64.9919 20.5272 64.9919 20.7014C64.9786 20.9827 64.9786 21.264 64.9786 21.6525ZM65.8083 21.8132C65.2998 21.7999 64.9919 22.175 64.9786 22.7912C64.9786 23.394 65.2864 23.8093 65.7548 23.8495C66.2634 23.8763 66.6247 23.4476 66.6247 22.818C66.6381 22.2285 66.3035 21.8266 65.8083 21.8132Z" fill="#131313"/>
<path d="M69.9838 23.3806C69.8099 24.0504 69.3414 24.3049 68.699 24.2647C68.07 24.2245 67.6819 23.8628 67.5615 23.2332C67.3607 22.2687 67.789 21.5319 68.6187 21.3845C69.3816 21.2505 70.1578 21.9873 70.0775 22.7375C70.0508 23.0189 69.85 22.9519 69.6894 22.9653C69.2478 22.9787 68.8061 22.9787 68.3511 22.9653C68.0031 22.9653 67.9897 23.1126 68.1102 23.3806C68.3377 23.8762 68.9935 24.0236 69.3816 23.6083C69.5422 23.4208 69.6626 23.2466 69.9838 23.3806ZM68.0299 22.5366C68.3511 22.5366 68.6321 22.5634 68.9132 22.5232C69.1139 22.5098 69.4351 22.684 69.4753 22.3892C69.502 22.0811 69.2344 21.8802 68.9132 21.84C68.418 21.773 68.1236 21.9873 68.0299 22.5366Z" fill="#131313"/>
<path d="M63.8143 22.8983C63.908 23.193 63.6136 23.6351 64.0686 23.9164C64.1088 23.9432 64.0954 24.1039 64.0552 24.1575C63.9482 24.2915 63.7073 24.3317 63.6404 24.2379C63.3459 23.836 63.0649 24.1307 62.7704 24.2111C62.5028 24.2915 62.2485 24.2781 61.9808 24.1977C61.673 24.0906 61.5124 23.8762 61.4856 23.5547C61.4589 23.2198 61.5525 22.9117 61.8871 22.7911C62.2217 22.6705 62.5697 22.6036 62.9177 22.5366C63.1318 22.4964 63.3192 22.4428 63.3058 22.1749C63.2924 21.9337 63.1184 21.8266 62.9043 21.8132C62.5965 21.7998 62.2619 21.7596 62.1147 22.1347C62.021 22.3758 61.8068 22.3356 61.673 22.2419C61.499 22.1347 61.6596 21.9337 61.7265 21.84C62.0745 21.3309 62.5965 21.3041 63.1586 21.3979C63.6805 21.4917 63.8545 21.8132 63.8277 22.3088C63.801 22.483 63.8143 22.6705 63.8143 22.8983ZM63.3192 23.1126C63.2924 23.0188 63.3459 22.8045 63.0783 22.8983C62.6901 23.0322 62.0879 22.8447 62.0076 23.4609C61.9674 23.7824 62.2886 23.8896 62.5831 23.8628C62.9846 23.7958 63.3192 23.6351 63.3192 23.1126Z" fill="#131313"/>
<path d="M74.9759 26.6896C75.8859 26.7029 76.0733 26.9441 76.1402 27.7479C76.1804 28.2569 75.8725 28.8464 76.4079 29.2885C76.4346 29.3152 76.4079 29.476 76.3543 29.5162C76.2205 29.6234 76.0198 29.6502 75.9261 29.543C75.6718 29.2617 75.471 29.3822 75.2034 29.5028C74.9357 29.6234 74.6413 29.6234 74.3602 29.543C74.0123 29.4492 73.8383 29.2081 73.8249 28.8732C73.7981 28.5383 73.9186 28.2569 74.2398 28.1096C74.5476 27.9756 74.8688 27.922 75.2034 27.8818C75.4175 27.855 75.6718 27.8148 75.6316 27.4933C75.5915 27.212 75.3907 27.145 75.1498 27.1316C74.842 27.1048 74.5744 27.1718 74.4271 27.4799C74.3201 27.7211 74.1193 27.6809 73.9855 27.5871C73.8249 27.4799 73.9721 27.2924 74.0256 27.1852C74.2532 26.7699 74.668 26.6896 74.9759 26.6896ZM74.8956 29.1679C75.2837 29.1009 75.6183 28.9803 75.6316 28.4847C75.6316 28.2703 75.6049 28.123 75.3372 28.2167C74.9759 28.3507 74.4004 28.1766 74.3201 28.766C74.2665 29.1143 74.6011 29.1411 74.8956 29.1679Z" fill="#131313"/>
<path d="M71.5633 33.6422C71.4964 33.6422 71.4295 33.6288 71.3626 33.6422C71.1083 33.7092 70.7336 33.4547 70.5997 33.803C70.5328 33.9771 70.7068 34.2183 70.9209 34.3388C71.2288 34.513 71.55 34.5398 71.8578 34.3254C71.8712 34.312 71.8979 34.2986 71.9113 34.2852C72.0585 34.1111 72.2325 33.7628 72.46 33.9905C72.6875 34.2183 72.3663 34.4996 72.1924 34.6335C71.7239 34.9952 71.202 34.9952 70.6934 34.7139C70.1715 34.4326 69.944 33.6958 70.1313 32.9992C70.2919 32.3963 70.68 32.048 71.3091 32.0079C71.9247 31.9811 72.3128 32.2892 72.5269 32.8518C72.7545 33.4815 72.6474 33.6154 71.9648 33.6154C71.8176 33.6422 71.6972 33.6422 71.5633 33.6422ZM71.2957 33.2135C71.5366 33.093 71.9782 33.3877 72.0318 33.026C72.0719 32.6911 71.7373 32.4633 71.3492 32.4633C70.9745 32.4633 70.6265 32.6509 70.6533 33.0126C70.68 33.3877 71.0815 33.0796 71.2957 33.2135Z" fill="#131313"/>
<path d="M62.5698 34.8881C61.7936 34.8881 61.3118 34.3522 61.285 33.4949C61.2582 32.7045 61.74 32.1016 62.436 32.0212C63.1587 31.9409 63.7074 32.3963 63.8278 33.1465C63.8814 33.4547 63.8412 33.6556 63.4397 33.6288C62.9981 33.602 62.5564 33.6288 62.1148 33.6154C61.7936 33.602 61.7936 33.7762 61.8739 33.9905C62.0746 34.513 62.7839 34.6336 63.1988 34.2049C63.3594 34.0441 63.5066 33.7762 63.7074 34.0039C63.868 34.1781 63.6271 34.4058 63.4799 34.5666C63.2523 34.8211 63.0248 34.9015 62.5698 34.8881ZM62.5564 33.2269C62.7572 33.0394 63.1988 33.3877 63.2523 33.026C63.3059 32.6777 62.9311 32.4767 62.5698 32.4633C62.1817 32.4499 61.8471 32.6643 61.8739 33.0126C61.9006 33.3743 62.3155 33.0796 62.5564 33.2269Z" fill="#131313"/>
<path d="M79.7001 33.6422C79.5931 33.6422 79.4726 33.6288 79.3656 33.6422C79.1648 33.6958 78.8168 33.4815 78.7767 33.8298C78.7499 34.1245 78.9908 34.3656 79.2986 34.446C79.6734 34.5398 80.008 34.4728 80.2221 34.1111C80.3158 33.9503 80.4898 33.8968 80.6236 33.9905C80.811 34.1111 80.6504 34.2719 80.5701 34.3924C80.2756 34.8881 79.7938 34.9417 79.2852 34.8881C78.6428 34.8211 78.2146 34.2049 78.228 33.4145C78.2413 32.6777 78.6964 32.115 79.3254 32.0347C80.0481 31.9409 80.5299 32.316 80.7307 33.0528C80.8377 33.4681 80.7842 33.6958 80.289 33.6288C80.1016 33.6154 79.9009 33.6422 79.7001 33.6422ZM79.486 33.2135C79.7135 33.093 80.1552 33.4011 80.1953 33.026C80.2355 32.6911 79.8741 32.4633 79.4994 32.4633C79.1113 32.4633 78.7767 32.6777 78.8034 33.026C78.8436 33.3609 79.2585 33.093 79.486 33.2135Z" fill="#131313"/>
<path d="M74.0657 34.9015C73.6241 34.9148 73.2226 34.8211 72.9817 34.4058C72.9014 34.2718 72.8345 34.0843 72.9951 33.9905C73.1155 33.9101 73.3029 33.9235 73.3832 34.1111C73.4635 34.2718 73.5839 34.4326 73.7713 34.4594C74.1193 34.513 74.5609 34.6335 74.6814 34.1914C74.7884 33.7762 74.3468 33.7628 74.0657 33.6824C74.0256 33.669 73.9721 33.669 73.9319 33.6556C73.517 33.535 73.0219 33.4814 72.9416 32.9188C72.9014 32.5705 73.0754 32.3026 73.3832 32.182C73.8784 31.981 74.3869 31.9676 74.8286 32.3026C74.9892 32.4231 75.1899 32.6643 75.0026 32.8652C74.8554 33.0126 74.6412 32.9188 74.5208 32.7044C74.4271 32.5303 74.2531 32.4767 74.0657 32.4901C73.8248 32.5035 73.5304 32.4499 73.4769 32.7714C73.4233 33.0661 73.7044 33.1063 73.9185 33.1733C74.1327 33.2269 74.3468 33.2805 74.5609 33.3341C74.949 33.4412 75.2569 33.6422 75.2301 34.1111C75.2033 34.5933 74.8955 34.8077 74.4672 34.9015C74.3334 34.9015 74.1996 34.8881 74.0657 34.9015Z" fill="#131313"/>
<path d="M76.5151 34.9016C76.2876 34.9149 75.8861 34.8212 75.6452 34.3925C75.5783 34.2585 75.498 34.071 75.6452 33.9772C75.7657 33.9102 75.953 33.8834 76.0333 34.0844C76.1002 34.2585 76.2341 34.3925 76.4081 34.4327C76.756 34.4863 77.1977 34.6202 77.3181 34.1648C77.4386 33.7361 76.9835 33.7361 76.7025 33.6557C76.6222 33.6289 76.5285 33.6155 76.4482 33.5887C76.0333 33.4681 75.6051 33.361 75.5917 32.8117C75.5783 32.383 75.846 32.1285 76.2207 32.0749C76.7159 31.9811 77.2512 31.9008 77.6126 32.4232C77.6929 32.5438 77.8401 32.7179 77.6795 32.8385C77.5456 32.9457 77.3315 32.9323 77.2244 32.7447C77.0638 32.4634 76.8096 32.45 76.5285 32.4634C76.3411 32.4768 76.1672 32.517 76.127 32.7313C76.0869 32.9591 76.2608 33.0395 76.4348 33.1064C76.5954 33.16 76.7828 33.2002 76.9434 33.2404C77.4386 33.361 77.9471 33.4815 77.8535 34.1514C77.7865 34.8078 77.278 34.8882 76.5151 34.9016Z" fill="#131313"/>
<path d="M82.1894 28.1364C82.1894 29.0339 81.6541 29.5966 80.811 29.5832C80.008 29.5698 79.4994 29.0205 79.4994 28.1498C79.4994 27.279 80.0481 26.6896 80.8779 26.6896C81.6675 26.7029 82.1894 27.2924 82.1894 28.1364ZM80.8645 27.1182C80.3827 27.1048 80.0347 27.5067 80.0213 28.0962C80.008 28.699 80.3158 29.1143 80.7976 29.1411C81.3061 29.1813 81.6943 28.7392 81.6943 28.123C81.6943 27.5603 81.3463 27.1316 80.8645 27.1182Z" fill="#131313"/>
<path d="M60.0536 28.123C60.0536 27.922 60.0536 27.7211 60.0536 27.5202C60.0536 26.9575 60.0536 26.9709 60.5755 26.9709C60.696 26.9709 60.803 26.8369 60.9235 26.7834C61.6863 26.4618 62.2886 26.8101 62.3421 27.6273C62.3823 28.1632 62.3555 28.699 62.3555 29.2349C62.3555 29.3957 62.3689 29.543 62.128 29.543C61.9272 29.5296 61.8737 29.4358 61.8737 29.2483C61.8871 28.7794 61.8737 28.3105 61.8737 27.8417C61.8737 27.48 61.78 27.1451 61.3384 27.1451C60.9369 27.1317 60.6291 27.3326 60.5755 27.7479C60.5086 28.2034 60.5354 28.6722 60.5086 29.1411C60.4952 29.3153 60.5889 29.5832 60.2543 29.543C59.9599 29.5162 60.067 29.2885 60.067 29.1411C60.0536 28.7928 60.0536 28.4579 60.0536 28.123Z" fill="#131313"/>
<path d="M65.7815 29.5832C64.9785 29.5832 64.4432 29.0339 64.4298 28.1765C64.4164 27.2924 64.9518 26.6896 65.7681 26.6896C66.5578 26.6896 67.0931 27.2522 67.1065 28.1096C67.1466 29.0071 66.6247 29.5832 65.7815 29.5832ZM65.7681 29.1545C66.2499 29.1679 66.6113 28.7526 66.6247 28.1765C66.6381 27.5871 66.3169 27.1584 65.8351 27.1182C65.3399 27.0914 64.925 27.5469 64.9384 28.1364C64.9384 28.7258 65.2863 29.1411 65.7681 29.1545Z" fill="#131313"/>
<path d="M82.6982 28.1095C82.6982 27.9085 82.6447 27.6942 82.7116 27.52C82.8053 27.2655 82.3368 26.3814 83.2737 26.9574C83.3004 26.9708 83.3807 26.9038 83.4477 26.877C84.5451 26.4751 85.0001 26.7698 85.0135 27.9219C85.0135 28.364 85.0135 28.8061 85.0135 29.2616C85.0135 29.4491 84.96 29.5563 84.7458 29.5429C84.5585 29.5295 84.5451 29.4089 84.5451 29.2616C84.5451 28.7659 84.5585 28.2836 84.5451 27.788C84.5317 27.4531 84.4246 27.1449 84.0365 27.1316C83.6484 27.1182 83.3138 27.2789 83.2603 27.6942C83.1934 28.1765 83.2068 28.6721 83.1934 29.1544C83.1934 29.3286 83.2335 29.5161 82.9525 29.5295C82.658 29.5429 82.7116 29.342 82.7116 29.1678C82.6982 28.8195 82.6982 28.4712 82.6982 28.1095Z" fill="#131313"/>
<path d="M60.6825 32.7178C60.6825 33.1599 60.7093 33.6154 60.6691 34.0575C60.6156 34.6737 60.1605 34.9818 59.478 34.9416C58.849 34.9148 58.4743 34.5263 58.4609 33.9369C58.4609 33.7895 58.4073 33.6154 58.6482 33.5886C58.849 33.5752 58.9828 33.6154 58.9962 33.8699C59.0096 34.2986 59.2371 34.5263 59.6921 34.4728C60.1472 34.4058 60.1739 34.0575 60.1873 33.7226C60.2007 32.959 60.1873 32.2088 60.2007 31.4452C60.2007 31.271 60.1204 31.0031 60.455 31.0165C60.7896 31.0165 60.6959 31.271 60.7093 31.4586C60.7093 31.8739 60.6959 32.2891 60.6825 32.7178C60.6959 32.7178 60.6959 32.7178 60.6825 32.7178Z" fill="#131313"/>
<path d="M66.5845 33.4815C66.5845 33.7762 66.5845 34.0576 66.5845 34.3523C66.5845 34.8212 66.5845 34.8212 66.1027 34.6604C65.9421 34.6068 65.8886 34.7542 65.7815 34.8078C64.925 35.1829 64.3228 34.8078 64.296 33.87C64.2826 33.3877 64.296 32.8921 64.296 32.4098C64.296 32.2356 64.3361 32.1151 64.5503 32.1017C64.7912 32.0883 64.7778 32.249 64.7778 32.4098C64.7778 32.8519 64.7778 33.294 64.7778 33.7494C64.7778 34.1245 64.7912 34.4862 65.2997 34.4996C65.7815 34.513 66.0626 34.2585 66.0894 33.7896C66.1161 33.3475 66.0894 32.9055 66.1027 32.45C66.1027 32.316 66.0358 32.1151 66.2901 32.1017C66.5444 32.0883 66.5845 32.2356 66.5845 32.4366C66.5845 32.7715 66.5845 33.1198 66.5845 33.4815Z" fill="#131313"/>
<path d="M67.2404 33.4547C67.2404 33.16 67.2404 32.8787 67.2404 32.584C67.2538 32.0883 67.2538 32.0749 67.7088 32.2758C67.8962 32.3562 67.923 32.2089 68.03 32.1553C68.8866 31.7534 69.5156 32.1017 69.5691 33.026C69.5959 33.5351 69.5691 34.0442 69.5691 34.5532C69.5691 34.7274 69.5424 34.8613 69.3282 34.8613C69.1141 34.8613 69.0739 34.7408 69.0739 34.5666C69.0739 34.0977 69.0739 33.6289 69.0739 33.16C69.0739 32.8117 69.0204 32.4768 68.5654 32.45C68.1237 32.4232 67.8159 32.6509 67.7624 33.0796C67.6955 33.5217 67.749 33.9638 67.7088 34.4059C67.6955 34.5666 67.8561 34.8479 67.5081 34.8613C67.1334 34.8747 67.2538 34.58 67.2404 34.3791C67.227 34.0843 67.2404 33.7628 67.2404 33.4547Z" fill="#131313"/>
<path d="M58.7419 22.2285C58.7419 21.7462 58.7419 21.2506 58.7419 20.7683C58.7419 20.554 58.7419 20.3798 59.0498 20.3932C59.3308 20.4066 59.2907 20.5808 59.2907 20.7549C59.2907 21.5721 59.3174 22.4027 59.2773 23.2198C59.2505 23.6753 59.4111 23.7825 59.8394 23.7557C60.2409 23.7155 60.6424 23.7423 61.0439 23.7423C61.1777 23.7423 61.3115 23.7423 61.3115 23.9433C61.3115 24.1442 61.2446 24.2246 61.0439 24.2246C60.3747 24.2246 59.7055 24.2112 59.0498 24.2246C58.7419 24.2246 58.7553 24.0236 58.7553 23.8227C58.7419 23.2868 58.7419 22.7644 58.7419 22.2285Z" fill="#131313"/>
<path d="M63.1852 28.2703C63.0781 27.8952 63.4796 27.2924 62.7703 27.0512C62.7435 27.0378 62.7569 26.8771 62.7569 26.8771C63.3324 26.7833 63.0915 26.2073 63.3324 25.9126C63.5064 25.6982 63.7473 25.6714 63.9881 25.658C64.1086 25.658 64.2157 25.6848 64.2424 25.8188C64.2692 25.9661 64.2424 26.0867 64.0551 26.0867C63.8276 26.0867 63.6937 26.1805 63.6803 26.435C63.6536 26.7431 63.8543 26.7297 64.0551 26.7565C64.1487 26.7699 64.2023 26.8369 64.2023 26.9441C64.2023 27.078 64.122 27.1584 64.0015 27.1584C63.6 27.145 63.6803 27.4263 63.6803 27.6675C63.6803 28.1765 63.6803 28.6856 63.6803 29.2081C63.6803 29.3688 63.6937 29.5162 63.4662 29.543C63.2119 29.5564 63.1852 29.409 63.1852 29.2081C63.1852 28.8999 63.1852 28.6186 63.1852 28.2703Z" fill="#131313"/>
<path d="M77.7999 29.5028C77.1977 29.5564 76.9701 29.3421 76.9701 28.9C76.9701 28.5651 76.9701 28.2302 76.9701 27.8953C76.9701 27.7613 76.93 27.6139 76.9835 27.4934C77.1575 27.0513 76.3277 27.2388 76.5686 26.8637C76.6891 26.6628 77.0638 26.6494 76.9835 26.2609C76.9434 26.0867 76.9701 25.8858 77.2378 25.8992C77.5055 25.9126 77.4653 26.1135 77.4653 26.2877C77.4653 26.502 77.4118 26.7566 77.7731 26.7432C77.8936 26.7432 77.9873 26.7967 78.0006 26.9307C78.014 27.1049 77.8534 27.0915 77.7464 27.1585C77.1441 27.4934 77.5992 28.056 77.4921 28.5115C77.4519 28.6856 77.3181 29.0339 77.7196 29.0741C77.8802 29.0875 78.0274 29.1009 78.0006 29.3287C77.9739 29.5966 77.7865 29.5162 77.7999 29.5028Z" fill="#131313"/>
<path d="M67.8826 26.7565C68.1904 27.3325 68.4982 26.7297 68.8328 26.7163C68.9399 26.7163 69.0737 26.6761 69.0737 26.8502C69.0737 26.9708 69.1273 27.1717 68.9667 27.1985C67.8826 27.3861 68.1369 28.2301 68.0967 28.9267C68.0834 29.0874 68.0967 29.2348 68.0834 29.3955C68.07 29.5429 67.9361 29.5429 67.8291 29.5429C67.722 29.5429 67.6016 29.5295 67.6016 29.3687C67.6016 28.565 67.6016 27.7746 67.6016 26.9708C67.6149 26.8234 67.7086 26.7699 67.8826 26.7565Z" fill="#131313"/>
<path d="M59.2906 27.6407C59.2906 28.1498 59.2906 28.6723 59.2906 29.1813C59.2906 29.3555 59.3308 29.543 59.0497 29.543C58.7955 29.5296 58.7687 29.3957 58.7821 29.1947C58.7821 28.1498 58.7955 27.1049 58.7821 26.0466C58.7821 25.8188 58.8356 25.7251 59.0765 25.7251C59.3174 25.7251 59.304 25.8724 59.304 26.0332C59.2906 26.569 59.2906 27.1049 59.2906 27.6407Z" fill="#131313"/>
<path d="M71.001 22.3089C71.001 22.8179 71.001 23.327 71.001 23.8361C71.001 24.0102 71.0278 24.2112 70.7735 24.2246C70.4925 24.2514 70.5326 24.037 70.5326 23.8763C70.5326 22.8313 70.5326 21.7998 70.5326 20.7549C70.5326 20.5807 70.4791 20.3932 70.7735 20.4066C71.0546 20.42 71.001 20.6209 71.001 20.7817C71.001 21.2774 71.001 21.7864 71.001 22.3089Z" fill="#131313"/>
<path d="M78.9776 28.1899C78.9776 28.5248 78.9776 28.8463 78.9776 29.1812C78.9776 29.3688 79.0043 29.5429 78.7233 29.5295C78.5225 29.5161 78.469 29.4089 78.469 29.2348C78.469 28.5114 78.469 27.7746 78.469 27.0512C78.469 26.8636 78.5359 26.7565 78.7367 26.7565C78.9642 26.7565 78.9776 26.9038 78.9776 27.0646C78.9776 27.4397 78.9776 27.8148 78.9776 28.1899Z" fill="#131313"/>
<path d="M78.9776 25.993C78.9909 26.1537 78.9909 26.3011 78.75 26.3011C78.5627 26.3011 78.469 26.2341 78.469 26.0332C78.469 25.859 78.4958 25.7384 78.7099 25.7251C78.9106 25.7251 79.0177 25.7786 78.9776 25.993Z" fill="#131313"/>
</g>
<defs>
<clipPath id="clip0">
<rect width="50" height="51" fill="white" transform="translate(35 2)"/>
</clipPath>
</defs>
</svg>
