<svg xmlns="http://www.w3.org/2000/svg" width="100" viewBox="0 0 1748.2 968.4">
  <path d="M605.6 759.2c-17.8 3.6-22.7-12-31.4-21.5-14.7-16.1-14.5-16.3-.1-31.2 28.4-29.4 57.4-58.2 84.9-88.4 97.5-107 107.2-282.1 22-401.3-73.3-102.6-174.1-152-299.7-143.4-82.4 5.7-154 40.5-211.4 100.8-61.6 64.7-93.4 142.4-92.6 231.8.8 85 30.4 159.7 88.3 222.3 23.4 25.4 48.3 49.4 73 73.6 7.5 7.4 7.8 12.6-.2 19.9-9.3 8.5-29.5 34.4-36.6 27.3-7-7-3.6-3.7-5.4-5.6l.1.1c-1.8-2-3.6-3.9-5.5-5.9-1.8-1.7-3.5-3.4-5.3-5-1.9-1.8-3.9-3.6-5.8-5.5-18.7-19.6-37.3-39.3-56.1-58.8-120.4-124.6-135-323-49.3-464.5 59.6-98.4 146.1-160.2 259.7-181.1C440.7 3.2 540.6 21.3 630 84.1c88 61.8 143.3 146.1 160.8 252.5 22 133.8-16.4 249.4-111.2 346.4-24.8 25.3-49.4 50.8-74 76.2z" fill="#1dad8d"/>
  <path d="M702.1 405.5c-1.4 81.7-31.7 150.4-88.4 207.9-23 23.3-47 45.8-69.2 69.8-10.3 11.1-16.2 9.1-25.6-.6-32.3-33.4-29.9-24.6.1-55.7 23.9-24.8 50.1-47.7 72.1-74.1 86.6-104 65.6-257.3-38.2-336.5-43.7-33.4-92.9-50.8-146.5-49.9-76.8 1.3-139.8 34.1-187.6 95C186.1 303 171.6 352 171 403.3c-.6 53.6 15.5 104.2 51.6 145.6 24.5 28.1 51.2 54.2 76.9 81.1 14.6 15.3 14.7 15.2.7 29.5-.6.7-1.3 1.3-1.9 1.9-25 25.4-22.3 24.9-45.8.4-28.3-29.4-59.7-56.9-83.1-90-59.5-84.2-70.8-176.6-34.6-274 45.1-121.6 168.7-198.5 298.7-187.2 131.7 11.5 237.8 109.7 260.5 230 4 21.6 5.5 43.4 8.1 64.9z" fill="#5d71b1"/>
  <path d="M409.5 508.5c-48.8 4.8-101.8-44.7-99.2-102.2 2.8-61.1 48.9-98.3 100.4-98.7 57.2-.5 102.4 51.2 101.3 100.8-1.2 55.2-46.5 102.7-102.5 100.1z" fill="#f9e92b"/>
  <path d="M591.7 326.6c-31.2-74.2-98.9-123.8-190-121.5-80 2-149.3 47.8-178.4 125.9-29.3 78.8-13.6 150 42.5 212.2 15.2 16.9 32.1 32.2 48.3 48.2 29 28.7 28.6 28.3 56.1-1 8.6-9.2 10-15.2.2-24.4-21.2-19.9-41.9-40.4-61.8-61.7-42.3-45.3-55.4-97.4-30.8-155.5 21.6-51 61-80.8 116.5-86.1 57.7-5.5 103.6 17.5 134.4 66.1 36.5 57.6 28 125.8-20.3 175C451.1 562.3 393 620 335 677.8c-30.3 30.1-108 108.1-108 108.1 18.2 35.4 47.8 24 68.9 9 0 0 7.9-5.5 10.7-8.2l2.1-2.1c7.4-6.6 12-12 12-12 75.1-75 149.9-150.3 225.3-224.9 59-58.6 77.8-144.7 45.7-221.1z" fill="#2d3a70"/>
  <path d="M936.7 343.8h66.9v19.3H960v27.2h37v19.3h-37v48.9h-23.3V343.8zm63.9 92.5c0-12.5 9.7-21.8 27.4-24.8l25.3-4.3v-2.1c0-8.7-6.6-14.3-16.1-14.3-8 0-14.3 3.8-18.7 9.8l-15.2-11.6c7.4-10.2 19.5-16.4 34.6-16.4 23.9 0 36.2 14.3 36.2 32.5v53.5h-20.8v-8c-5.2 6.4-15.1 10.5-24.8 10.5-16.6 0-27.9-9.5-27.9-24.8zm32.2 8.2c9.5 0 16.4-4.4 20.5-11v-11.6l-19.7 3.3c-8.7 1.5-12.3 5.1-12.3 10.2 0 5.5 4.4 9.1 11.5 9.1zm99.2 17.4c-11.3 0-19.3-3.6-25.7-10v6.7h-20.8v-123h20.8v47.1c6.4-6.4 14.4-10 25.7-10 26.2 0 42 20.5 42 44.6-.1 24.1-15.8 44.6-42 44.6zm-25.8-57.7v26.2c5.6 7.7 13.4 11.8 22.8 11.8 14.1 0 23.3-10.5 23.3-24.9 0-14.4-9.2-24.9-23.3-24.9-9.7 0-17.7 4.2-22.8 11.8zm74.3-28.2h20.8v8.2c5.4-5.6 12.5-9.8 21.8-9.8 2.8 0 5.2.5 7.2 1.1V396c-2.6-.7-5.4-1.1-9.2-1.1-10.2 0-16.7 5.6-19.8 10.8v53h-20.8V376zm51-28.1c0-7.4 6.2-13.6 13.6-13.6s13.4 6.2 13.4 13.6c0 7.4-6.1 13.6-13.4 13.6s-13.6-6.2-13.6-13.6zm3.1 28.1h20.8v82.6h-20.8V376zm69.4-3.3c11.2 0 19.2 3.6 25.6 10V376h21v123h-21v-47.1c-6.4 6.4-14.4 10-25.6 10-26.2 0-42-20.5-42-44.6s15.7-44.6 42-44.6zm2.8 69.5c9.7 0 17.7-4.3 22.8-11.8v-26.2c-5.6-7.7-13.4-11.8-22.8-11.8-14.1 0-23.1 10.5-23.1 24.9-.1 14.4 9 24.9 23.1 24.9zm110.6-66.2h21v45.9c0 24.8-14.4 40-38.7 40s-38.5-15.2-38.5-40V376h21v46.9c0 12 6.2 19.3 17.7 19.3 11.3 0 17.5-7.4 17.5-19.3V376zm71.7 85.9c-29.4 0-45.9-20.5-45.9-44.6 0-24.4 15.4-44.6 42.5-44.6 23 0 38 15.6 38 37.2 0 4.6-.7 8.9-1.3 11.6h-57.9c2 15.4 11.5 21.6 24.4 21.6 9 0 16.9-3.9 21.3-9.8l14.9 11.8c-7.6 10.4-20.4 16.8-36 16.8zm-23.9-55.4h38c-.3-8.4-6.4-16.7-18-16.7-10.7 0-17.7 5.9-20 16.7zm134.2-33.8c11.2 0 19.2 3.4 25.6 9.8v-46.9h21v123h-21V452c-6.4 6.4-14.4 9.8-25.6 9.8-26.1 0-42-20.5-42-44.6.1-24 16-44.5 42-44.5zm3 69.5c9.3 0 17.1-3.9 22.6-11.5v-26.9c-5.6-7.5-13.3-11.5-22.6-11.5-14.1 0-23.1 10.5-23.1 24.9 0 14.5 9 25 23.1 25zm96.1 19.7c-29.4 0-45.9-20.5-45.9-44.6 0-24.4 15.4-44.6 42.5-44.6 23 0 38 15.6 38 37.2 0 4.6-.7 8.9-1.3 11.6h-57.9c2 15.4 11.5 21.6 24.4 21.6 9 0 16.9-3.9 21.3-9.8l14.9 11.8c-7.6 10.4-20.4 16.8-36 16.8zm-24-55.4h38c-.3-8.4-6.4-16.7-18-16.7-10.6 0-17.7 5.9-20 16.7zM924.9 540.6h94.1v21.2h-35.4v93.6h-23.3v-93.6h-35.4v-21.2zm127.5 118.1c-29.4 0-45.9-20.5-45.9-44.6 0-24.4 15.4-44.6 42.5-44.6 23 0 38 15.6 38 37.2 0 4.6-.7 8.9-1.3 11.6h-57.9c2 15.4 11.5 21.6 24.4 21.6 9 0 16.9-3.9 21.3-9.8l14.9 11.8c-7.6 10.4-20.4 16.8-36 16.8zm-23.9-55.5h38c-.3-8.4-6.4-16.7-18-16.7-10.7 0-17.7 5.9-20 16.7zm66.4-30.5h20.8v8.2c5.4-5.6 12.5-9.8 21.8-9.8 2.8 0 5.2.5 7.2 1.1v20.5c-2.6-.7-5.4-1.1-9.2-1.1-10.2 0-16.7 5.6-19.8 10.8v53h-20.8v-82.7zm54.1 0h20.8v8.2c5.4-5.6 12.5-9.8 21.8-9.8 2.8 0 5.2.5 7.2 1.1v20.5c-2.6-.7-5.4-1.1-9.2-1.1-10.2 0-16.7 5.6-19.8 10.8v53H1149v-82.7zm51-28c0-7.4 6.2-13.6 13.6-13.6s13.4 6.2 13.4 13.6c0 7.4-6.1 13.6-13.4 13.6s-13.6-6.2-13.6-13.6zm3.1 28h20.8v82.6h-20.8v-82.6zm38.6 18.7h-15.4v-18.7h15.4V552h21v20.7h25.3v18.7h-25.3v33.8c0 9.2 4.9 12.8 13.1 12.8 5.7 0 9.5-.7 12.3-1.8v18.2c-4.1 1.8-9 2.6-15.9 2.6-20.7 0-30.5-11.6-30.5-31.8v-33.8zm135.4 22.7c0 24.8-18.4 44.6-45.3 44.6s-45.3-19.8-45.3-44.6 18.4-44.6 45.3-44.6 45.3 19.8 45.3 44.6zm-21.6 0c0-14.4-10-24.9-23.3-24.9-13.8 0-23.9 10.5-23.9 24.9 0 14.4 10.2 24.9 23.9 24.9 13.3 0 23.3-10.7 23.3-24.9zm25-69.4c0-7.4 6.2-13.6 13.6-13.6s13.4 6.2 13.4 13.6c0 7.4-6.1 13.6-13.4 13.6s-13.6-6.2-13.6-13.6zm3.2 28h20.8v82.6h-20.8v-82.6zm33.2 0h20.8v8.2c5.4-5.6 12.5-9.8 21.8-9.8 2.8 0 5.2.5 7.2 1.1v20.5c-2.6-.7-5.4-1.1-9.2-1.1-10.2 0-16.7 5.6-19.8 10.8v53h-20.8v-82.7zm90.7 86c-29.4 0-45.9-20.5-45.9-44.6 0-24.4 15.4-44.6 42.5-44.6 23 0 38 15.6 38 37.2 0 4.6-.7 8.9-1.3 11.6H1483c2 15.4 11.5 21.6 24.4 21.6 9 0 16.9-3.9 21.3-9.8l14.9 11.8c-7.6 10.4-20.4 16.8-36 16.8zm-23.9-55.5h38c-.3-8.4-6.4-16.7-18-16.7-10.7 0-17.7 5.9-20 16.7z"/>
  <path d="M570.8 774.6c4.7 4.7 4.7 12.3 0 17l-24.1 24.1c-4.7 4.7-12.3 4.7-17 0l-92.6-92.6c-4.7-4.7-4.7-12.3 0-17l24.1-24.1c4.7-4.7 12.3-4.7 17 0l92.6 92.6z" fill="#28356c"/>
  <path d="M509.5 838.1c4.7 4.7 4.7 12.3 0 17l-24.1 24.1c-4.7 4.7-12.3 4.7-17 0l-92.6-92.6c-4.7-4.7-4.7-12.3 0-17l24.1-24.1c4.7-4.7 12.3-4.7 17 0l92.6 92.6z" fill="#5d71b1"/>
  <path d="M440.9 906.4c4.6 4.6 4.6 12.2 0 16.9l-24 24c-4.6 4.6-12.2 4.6-16.9 0l-92.2-92.2c-4.6-4.6-4.6-12.2 0-16.9l24-24c4.6-4.6 12.2-4.6 16.9 0l92.2 92.2z" fill="#1dad8d"/>
</svg>
