<?xml version="1.0" encoding="UTF-8" standalone="no"?>
<!-- Created with Inkscape (http://www.inkscape.org/) -->

<svg
   width="207.43437mm"
   height="76.820854mm"
   viewBox="0 0 207.43437 76.820854"
   version="1.1"
   id="svg5"
   inkscape:version="1.1.2 (0a00cf5339, 2022-02-04)"
   sodipodi:docname="bnr.svg"
   xmlns:inkscape="http://www.inkscape.org/namespaces/inkscape"
   xmlns:sodipodi="http://sodipodi.sourceforge.net/DTD/sodipodi-0.dtd"
   xmlns="http://www.w3.org/2000/svg"
   xmlns:svg="http://www.w3.org/2000/svg">
  <sodipodi:namedview
     id="namedview7"
     pagecolor="#ffffff"
     bordercolor="#000000"
     borderopacity="0.25"
     inkscape:pageshadow="2"
     inkscape:pageopacity="0.0"
     inkscape:pagecheckerboard="0"
     inkscape:document-units="mm"
     showgrid="false"
     fit-margin-top="0"
     fit-margin-left="0"
     fit-margin-right="0"
     fit-margin-bottom="0"
     inkscape:zoom="0.40043841"
     inkscape:cx="605.58626"
     inkscape:cy="6.2431573"
     inkscape:window-width="1996"
     inkscape:window-height="1082"
     inkscape:window-x="26"
     inkscape:window-y="23"
     inkscape:window-maximized="0"
     inkscape:current-layer="layer1" />
  <defs
     id="defs2" />
  <g
     inkscape:label="Layer 1"
     inkscape:groupmode="layer"
     id="layer1"
     transform="translate(-4.8938818,-165.99708)">
    <path
       id="path1039-3"
       style="fill:#3fa435;fill-opacity:1;stroke-width:0.264583"
       d="m 4.893895,165.99708 v 2.51301 h 6.746875 l 0.01497,35.05782 c 0.008,19.28151 -0.03427,35.20612 -0.09457,35.38802 -0.0798,0.24093 -1.000053,0.33073 -3.3884231,0.33073 H 4.8938818 v 2.38072 l 20.1744792,-0.0935 c 2.941883,-0.0148 5.675249,-0.0354 8.182448,-0.0599 6.75032,-0.0214 18.533965,-0.40074 24.915275,-2.74505 8.978919,-2.14202 14.316112,-11.58928 12.980601,-20.45095 -0.565758,-8.73257 -8.624638,-14.5221 -16.665649,-15.90135 -7.34728,-0.93983 1.157362,-1.81329 3.593063,-3.40135 8.101309,-3.37878 11.063023,-13.24422 8.556067,-21.1713 -2.294229,-7.25442 -9.982504,-10.12817 -16.81086,-11.14197 -3.794625,-0.56338 -12.734658,-0.55404 -16.568497,-0.64543 -2.774283,-0.0198 -5.723641,-0.0344 -8.843907,-0.0377 z m 66.939583,0 v 2.38125 h 5.953124 l -0.09922,70.70989 h -5.853906 v 2.57969 h 15.081249 v -2.38125 h -5.820833 l 0.205158,-66.14583 c 12.088598,22.71421 24.12431,45.86809 36.30734,68.52655 h 15.61041 v -73.28905 h 12.7 v 70.9078 h -7.14425 v 2.38178 h 35.71875 v -2.38125 h -7.14325 v -36.02828 c 1.45286,0.0627 3.09962,-0.0135 4.43643,0.22066 2.49529,0.4368 6.38911,1.76387 6.96132,3.39616 2.54117,7.24842 1.17401,15.22349 1.73067,22.81566 0.54766,7.46937 6.54092,13.09455 13.99138,13.12685 9.31616,0.0404 16.22589,-5.41613 17.8604,-13.41932 l -1.37356,-0.61495 c 0,0 -1.96775,4.83638 -2.77656,5.62703 -5.83652,5.70569 -5.75564,-9.11183 -5.76863,-13.49478 -0.0212,-7.11481 -2.40726,-14.962 -9.92756,-17.2656 -3.86366,-1.18351 -2.01028,-0.73234 -3.86334,-1.1834 1.92939,-0.54446 6.96592,-1.85962 8.68111,-2.66031 7.26802,-3.3927 8.18144,-12.08669 7.60783,-19.22777 -0.62987,-7.84111 -7.80233,-12.7172 -14.95105,-13.62345 -7.28189,-0.92313 -18.17201,-0.94411 -18.17201,-0.94411 l -47.56351,-0.0135 v 2.38125 h 5.55625 l -0.38859,50.12303 -27.30687,-52.17356 z m -26.220465,19.17525 c -0.01953,11.30446 -4.114853,14.9388 -12.673801,15.8546 v -32.64865 c 10.634266,-0.12917 12.69333,5.48957 12.673801,16.79405 z M 169.59857,168.35714 c 0.75798,-0.004 1.50503,0 2.18591,0.0367 7.29065,0.38899 10.31507,8.26074 10.45157,15.33033 0.1324,6.85829 -0.0659,15.06929 -7.48432,16.97054 -0.50347,0.12903 -2.44999,0.29101 -2.96725,0.3302 -1.44169,0.10927 -2.94055,0.1611 -4.43643,0.23876 v -32.88533 c 0.72367,-0.003 1.49255,-0.0167 2.25052,-0.0212 z M 32.939212,203.41702 c 8.757743,0.92149 15.615211,5.66227 15.634949,17.67369 0.01974,12.01142 -6.217021,18.19587 -15.634949,18.19587 z"
       sodipodi:nodetypes="ccccssccccccccssccccccccccccccccccccccccccssccsssccssccccccczcczcsssccsccczcc" />
  </g>
</svg>
