<svg width="100" xmlns="http://www.w3.org/2000/svg" viewBox="0 0 300 131.55"><path d="m97.66 92.35 5.19 4a13.65 13.65 0 0 1-11.17 5.35c-9.12 0-14.58-6.55-14.58-14.26s5.46-14.27 14.58-14.27a13.65 13.65 0 0 1 11.17 5.35l-5.19 4a7.12 7.12 0 0 0-6.08-3c-4.36 0-7.56 3.36-7.56 8s3.2 8 7.66 8a7.08 7.08 0 0 0 6-3m28.82-5.1c0-4.62-3.2-8-7.44-8-4.41 0-7.66 3.35-7.66 8s3.25 8 7.66 8c4.24 0 7.44-3.41 7.44-8m6.93 0c0 7.91-5.88 14.26-14.48 14.26s-14.47-6.35-14.47-14.26 5.87-14.27 14.52-14.27 14.48 6.35 14.48 14.27m3.83-13.22H144v2.1a10.72 10.72 0 0 1 7.82-3.15c5.71 0 10.27 3.93 10.27 11.75v15.73h-6.71V85.16c0-3.51-2-5.72-5.24-5.72S145 81.7 144 83.38v17.25h-6.66Zm30.11 0h6.66v2.1a10.7 10.7 0 0 1 7.81-3.15c5.72 0 10.28 3.93 10.28 11.75v15.73h-6.71V85.16c0-3.51-2-5.72-5.25-5.72a7 7 0 0 0-6.13 3.94v17.25h-6.66Zm35.24 9.8h12.17a5.5 5.5 0 0 0-5.77-5.34c-3.41 0-5.66 1.88-6.4 5.34m7.66 17.73c-9.39 0-14.69-6.55-14.69-14.26s4.93-14.27 13.59-14.27c7.34 0 12.17 4.93 12.17 11.85a17.52 17.52 0 0 1-.42 3.78h-18.52c.63 4.93 3.67 6.92 7.82 6.92a8.52 8.52 0 0 0 6.82-3.14l4.77 3.77a14 14 0 0 1-11.54 5.35M245 92.35l5.19 4a13.65 13.65 0 0 1-11.17 5.35c-9.12 0-14.58-6.55-14.58-14.26s5.46-14.27 14.58-14.27a13.65 13.65 0 0 1 11.17 5.35l-5.19 4a7.12 7.12 0 0 0-6.08-3c-4.36 0-7.56 3.36-7.56 8s3.2 8 7.66 8a7.08 7.08 0 0 0 6-3m11.71-12.34h-4.93v-6h4.93v-6.59h6.72v6.61h8.07v6h-8.07V91c0 2.94 1.57 4.09 4.19 4.09a10.47 10.47 0 0 0 3.93-.57v5.82a12.46 12.46 0 0 1-5.08.84c-6.61 0-9.76-3.73-9.76-10.18ZM284.63 70l5.46-8.7h7.24L291 70Zm-3.83 14H293a5.5 5.5 0 0 0-5.77-5.34c-3.41 0-5.66 1.88-6.4 5.34m7.66 17.73c-9.39 0-14.68-6.55-14.68-14.26s4.93-14.27 13.58-14.27c7.34 0 12.17 4.93 12.17 11.85a17.52 17.52 0 0 1-.42 3.78h-18.55c.63 4.93 3.68 6.92 7.82 6.92a8.52 8.52 0 0 0 6.82-3.14l4.77 3.72a14 14 0 0 1-11.54 5.35M97.84 49.29l5.2 4a13.67 13.67 0 0 1-11.17 5.35c-9.13 0-14.58-6.55-14.58-14.26s5.45-14.27 14.58-14.27A13.67 13.67 0 0 1 103 35.44l-5.2 4a7.1 7.1 0 0 0-6.08-3c-4.35 0-7.55 3.36-7.55 8s3.2 8 7.66 8a7.05 7.05 0 0 0 6-3m18.11 3.62a7.38 7.38 0 0 0 6.55-3.51v-3.72l-6.29 1c-2.78.48-3.93 1.63-3.93 3.26s1.41 2.93 3.67 2.93m-10.28-2.62c0-4 3.09-7 8.76-7.92l8.07-1.36v-.68c0-2.78-2.09-4.57-5.14-4.57a7.18 7.18 0 0 0-6 3.15l-4.87-3.72a13.21 13.21 0 0 1 11.06-5.25c7.66 0 11.59 4.56 11.59 10.39v17.13h-6.66V55a10.53 10.53 0 0 1-7.92 3.36c-5.29 0-8.91-3-8.91-7.92m28.92-19.3h6.66v2a10 10 0 0 1 7.29-3 9.07 9.07 0 0 1 8 4.3 10.63 10.63 0 0 1 8.87-4.3c5.45 0 9.75 3.78 9.75 11.23v16.2h-6.71v-16c0-3.2-1.73-5.19-4.72-5.19s-4.46 2-5.51 3.77a8.55 8.55 0 0 1 0 1.16v16.26h-6.71v-16c0-3.2-1.73-5.19-4.72-5.19s-4.62 2.25-5.61 3.93v17.26h-6.66Zm52.66 9.07v8.29a8.54 8.54 0 0 0 7.29 3.83c4.51 0 7.44-3.36 7.44-8s-2.93-8-7.44-8a8.47 8.47 0 0 0-7.29 3.82m-6.67-9.07h6.67v2.15a10.9 10.9 0 0 1 8.23-3.2c8.39 0 13.43 6.56 13.43 14.27s-5 14.26-13.43 14.26a10.9 10.9 0 0 1-8.23-3.2v13.33h-6.67Zm50.51.06h6.71v14.69c0 7.91-4.61 12.79-12.37 12.79s-12.33-4.88-12.33-12.79V31.14h6.71v15c0 3.83 2 6.19 5.67 6.19s5.61-2.36 5.61-6.19Zm14.69 18.62c1.62 2 3.56 3.51 6.08 3.51 2.15 0 3.25-1.26 3.25-2.83 0-4.61-12.64-2.88-12.64-12.17 0-4.66 3.94-8.18 9.44-8.18a12.14 12.14 0 0 1 9.6 4.51l-4.41 3.88c-1.36-1.68-3.09-3-5.14-3s-3.09 1.15-3.09 2.52c0 4.51 12.64 2.93 12.64 12.06-.11 5.56-4.56 8.6-9.55 8.6a13.14 13.14 0 0 1-10.59-4.87Z"/><path d="M65.78 40.94v-1.47a26.31 26.31 0 0 0 0 52.62v-2.65a23.66 23.66 0 0 1-2.2-47.22v10.6a13.15 13.15 0 0 0 2.2 26.11v-1.32a11.84 11.84 0 1 1 0-23.67v-.45Z" fill="#000091"/><path d="M65.78 18.44v-5.28a52.62 52.62 0 0 0 0 105.24v-5.29a47.33 47.33 0 0 1-3.32-94.54v7.89a39.46 39.46 0 0 0 3.32 78.78V89.42h-.58a24.5 24.5 0 0 1-2.73-.24v11.94a35.5 35.5 0 0 1 3.32-70.84V18.44Z" fill="#e1000f"/><path d="M65.78 6.61V0a65.78 65.78 0 1 0 0 131.55v-18.44c-1.49 0-3-.08-4.41-.21v11.86A59.16 59.16 0 0 1 65.78 6.61Z" fill="#000091"/></svg>
