<?xml version="1.0" encoding="utf-8"?>
<svg version="1.1" xmlns="http://www.w3.org/2000/svg" xmlns:xlink="http://www.w3.org/1999/xlink" x="0px" y="0px"
	 viewBox="0 0 276.9 250.8" style="enable-background:new 0 0 276.9 250.8;" xml:space="preserve" width="70">
<style type="text/css">
	.st0{fill:#E1000F;}
	.st1{fill:#FFFFFF;}
	.st2{fill:#000091;}
</style>
<g id="Calque_1">
	<polygon class="st0" points="59.6,24 24,44.5 24,85.5 57.7,143.4 61.4,143.4 95,85.5 95,44.5 	"/>
	<polygon class="st1" points="69.7,59.1 83.1,59.1 83.1,51.3 59.6,37.7 35.9,51.3 35.9,78.5 59.6,92.2 83.1,78.5 83.1,70.8 
		69.7,70.8 	"/>
	<polygon class="st2" points="69.7,70.8 69.7,59.1 59.6,53.2 49.3,59.1 49.3,70.8 59.6,76.6 	"/>
	<g>
		<path d="M44.2,179.6l4.3,3.3c-2.5,3.4-6.5,5.5-11.3,5.5c-8.4,0-14.3-6.6-14.3-14.2c0-7.6,5.8-14.2,14.3-14.2
			c4.9,0,8.8,2.2,11.3,5.5l-4.3,3.4c-1.5-2.2-4-3.7-7.1-3.7c-5.1,0-8.6,4-8.6,9s3.6,9,8.6,9C40.3,183.3,42.6,181.8,44.2,179.6z"/>
		<path d="M78.9,174.3c0,7.6-5.8,14.2-14.2,14.2c-8.4,0-14.3-6.6-14.3-14.2c0-7.6,5.8-14.2,14.3-14.2
			C73.1,160.1,78.9,166.5,78.9,174.3z M73.3,174.3c0-5.2-3.6-9-8.6-9c-5.1,0-8.6,4-8.6,9s3.6,9,8.6,9
			C69.6,183.3,73.3,179.3,73.3,174.3z"/>
		<path d="M83.2,160.9h7l12,19.4v-19.4h5.5v26.8h-7l-12-19.4v19.4h-5.5V160.9z"/>
		<path d="M115.8,180.3c1.6,2.1,3.8,3.3,6,3.3s3.5-1.2,3.5-3.1c0-5-12.2-3.6-12.2-12.7c0-4.3,3.6-7.7,8.6-7.7c4.1,0,7.1,1.8,9.4,4.6
			l-4,3.6c-1.6-2-3.4-3.4-5.4-3.4c-1.9,0-3.2,1.2-3.2,2.9c0,4.9,12.2,3.5,12.2,12.7c-0.1,5.1-4,8-8.9,8c-4.6,0-7.5-1.7-9.9-4.5
			L115.8,180.3z"/>
		<path d="M136,160.9h15.7v4.6h-10.2v6.4h8.6v4.6h-8.6v6.9h10.2v4.6H136V160.9z"/>
		<path d="M158.8,160.9h5.5v26.8h-5.5V160.9z"/>
		<path d="M171.1,160.9h5.5v21.8h10.2v5h-15.7V160.9z"/>
		<path d="M191.8,160.9h5.5v21.8h10.2v5h-15.7V160.9z"/>
		<path d="M212.6,160.9h15.7v4.6H218v6.4h8.6v4.6H218v6.9h10.2v4.6h-15.7V160.9z"/>
		<path d="M233.5,160.9h8.2c5.9,0,9.5,3,9.5,8c0,3.3-1.6,5.7-4.4,7l8.4,11.9h-6.4l-7.1-10.8H239v10.8h-5.5L233.5,160.9L233.5,160.9z
			 M238.9,165.3v7h3.1c2.3,0,3.7-1.4,3.7-3.6c0-2-1.4-3.4-3.7-3.4H238.9z"/>
		<path d="M24,199.8h7L43,219.2v-19.4h5.5v26.9h-7l-12.1-19.4v19.4H24V199.8z"/>
		<path d="M71.3,199.8h5.5v16.3c0,7.1-4.2,11.4-11,11.4c-6.8,0-10.9-4.2-10.9-11.4v-16.3h5.5v16.8c0,3.6,2,5.8,5.5,5.8
			c3.4,0,5.4-2.1,5.4-5.8V199.8z"/>
		<path d="M83.3,199.8H90l6.6,11.3l6.6-11.3h6.8v26.9h-5.5v-19.3l-6,10.1h-3.9l-6-10.1v19.3h-5.5L83.3,199.8L83.3,199.8z"/>
		<path d="M117,199.8h15.7v4.6h-10.3v6.4h8.7v4.6h-8.7v6.9h10.3v4.6H117V199.8z M122.4,197.4l4.4-5.2h5.6l-5,5.2H122.4z"/>
		<path d="M139.5,199.8h8.3c5.9,0,9.6,3,9.6,8.1c0,3.3-1.6,5.7-4.4,7l8.5,12H155l-7.2-10.9h-2.8v10.9h-5.6V199.8z M144.9,204.3v7
			h3.1c2.3,0,3.7-1.4,3.7-3.6c0-2-1.4-3.4-3.7-3.4H144.9z"/>
		<path d="M165.6,199.8h5.5v26.9h-5.5V199.8z"/>
		<path d="M206.6,228.6c0.6,0,1.4-0.1,1.9-0.3v4.6c-0.9,0.3-1.7,0.5-2.9,0.5c-3,0-5.8-1.2-8.5-3.6l-3.2-2.9
			c-1.2,0.3-2.4,0.5-3.7,0.5c-8.5,0-14.3-6.6-14.3-14.2s5.8-14.2,14.3-14.2c8.5,0,14.2,6.6,14.2,14.2c0,4.5-2,8.6-5.3,11.3l1.6,1.5
			C203,227.9,204.9,228.6,206.6,228.6z M199.1,213.2c0-5.2-3.6-9.1-8.7-9.1c-5.1,0-8.7,4-8.7,9.1s3.6,9.1,8.7,9.1
			C195.5,222.3,199.1,218.3,199.1,213.2z"/>
		<path d="M225.8,199.8h5.5v16.3c0,7.1-4.2,11.4-11,11.4s-10.9-4.2-10.9-11.4v-16.3h5.5v16.8c0,3.6,2,5.8,5.5,5.8
			c3.4,0,5.4-2.1,5.4-5.8V199.8z"/>
		<path d="M237.1,199.8h15.7v4.6h-10.3v6.4h8.7v4.6h-8.7v6.9h10.3v4.6h-15.7V199.8z"/>
	</g>
</g>
<g id="Calque_2">
</g>
</svg>
