<?xml version="1.0" encoding="UTF-8" standalone="no"?>
<svg
   width="566.92786"
   height="286.56451"
   viewBox="0 0 566.92786 286.56451"
   fill-rule="evenodd"
   clip-rule="evenodd"
   stroke-linejoin="round"
   stroke-miterlimit="1.41421"
   version="1.1"
   id="svg226"
   sodipodi:docname="emaus-connect.svg"
   inkscape:version="1.1.2 (0a00cf5339, 2022-02-04)"
   xmlns:inkscape="http://www.inkscape.org/namespaces/inkscape"
   xmlns:sodipodi="http://sodipodi.sourceforge.net/DTD/sodipodi-0.dtd"
   xmlns="http://www.w3.org/2000/svg"
   xmlns:svg="http://www.w3.org/2000/svg">
  <defs
     id="defs230" />
  <sodipodi:namedview
     id="namedview228"
     pagecolor="#ffffff"
     bordercolor="#000000"
     borderopacity="0.25"
     inkscape:pageshadow="2"
     inkscape:pageopacity="0.0"
     inkscape:pagecheckerboard="0"
     showgrid="false"
     fit-margin-top="0"
     fit-margin-left="0"
     fit-margin-right="0"
     fit-margin-bottom="0"
     inkscape:zoom="1.7384615"
     inkscape:cx="294.22566"
     inkscape:cy="143.23009"
     inkscape:window-width="2560"
     inkscape:window-height="1363"
     inkscape:window-x="0"
     inkscape:window-y="0"
     inkscape:window-maximized="1"
     inkscape:current-layer="g224" />
  <g
     fill-rule="nonzero"
     id="g224"
     transform="translate(-95.229167,-86.598745)">
    <path
       d="m 272.468,194.248 c 0.317,-1.18 1.53,-1.88 2.715,-1.566 1.18,0.316 1.882,1.532 1.566,2.715 -0.32,1.184 -1.533,1.885 -2.717,1.566 -1.182,-0.32 -1.883,-1.53 -1.565,-2.715"
       fill="#e53750"
       id="path2" />
    <path
       d="m 335.298,167.09 c 2.65,-2.04 6.446,-1.543 8.486,1.112 2.033,2.65 1.534,6.45 -1.12,8.486 -2.646,2.037 -6.453,1.54 -8.486,-1.117 -2.033,-2.652 -1.54,-6.448 1.12,-8.48"
       fill="#26bcec"
       id="path4" />
    <path
       d="m 280.366,184.37 c 0.628,-1.52 2.374,-2.248 3.896,-1.613 1.523,0.63 2.247,2.37 1.615,3.895 -0.63,1.52 -2.375,2.245 -3.898,1.613 -1.525,-0.63 -2.246,-2.37 -1.614,-3.895"
       fill="#fecc38"
       id="path6" />
    <path
       d="m 304.146,170.412 c 1.52,-1.977 4.354,-2.354 6.336,-0.833 1.983,1.515 2.352,4.353 0.83,6.332 -1.515,1.98 -4.353,2.357 -6.33,0.835 -1.98,-1.52 -2.357,-4.357 -0.836,-6.335"
       fill="#00acb0"
       id="path8" />
    <path
       d="m 291.116,176.275 c 1.038,-1.792 3.33,-2.41 5.12,-1.374 1.8,1.036 2.41,3.328 1.376,5.125 -1.033,1.794 -3.332,2.41 -5.122,1.373 -1.797,-1.034 -2.41,-3.328 -1.374,-5.123 m 27.921,-9.046 c 2.068,-2.066 5.41,-2.066 7.478,0 2.063,2.06 2.063,5.407 0,7.47 -2.06,2.065 -5.413,2.07 -7.473,0 -2.065,-2.063 -2.07,-5.41 -0.005,-7.47 m -56.087,26.347 c 0,-1.222 0.992,-2.213 2.218,-2.215 1.22,0 2.214,0.993 2.215,2.218 0,1.226 -0.993,2.216 -2.218,2.215 -1.224,0 -2.216,-0.99 -2.215,-2.218"
       fill="#233d8d"
       id="path10" />
    <path
       d="m 333.913,149.748 c 2.66,-2.668 6.984,-2.67 9.65,-0.004 2.657,2.662 2.657,6.976 -0.01,9.646 -2.645,2.66 -6.976,2.66 -9.634,-0.002 -2.67,-2.666 -2.674,-6.98 -0.007,-9.64"
       fill="#00acb0"
       id="path12" />
    <path
       d="m 316.61,151.084 c 2.032,-2.654 5.828,-3.16 8.484,-1.122 2.65,2.032 3.15,5.83 1.115,8.486 -2.028,2.653 -5.835,3.158 -8.487,1.118 -2.65,-2.036 -3.154,-5.832 -1.113,-8.482"
       fill="#fecc38"
       id="path14" />
    <path
       d="m 268.023,181.992 c 0.213,-1.63 1.71,-2.785 3.345,-2.566 1.635,0.213 2.785,1.71 2.57,3.344 -0.215,1.63 -1.714,2.785 -3.35,2.567 -1.634,-0.215 -2.78,-1.71 -2.565,-3.345"
       fill="#00acb0"
       id="path16" />
    <path
       d="m 287.38,162.356 c 0.958,-2.303 3.596,-3.4 5.905,-2.445 2.307,0.953 3.398,3.6 2.442,5.904 -0.953,2.306 -3.596,3.404 -5.9,2.445 -2.305,-0.956 -3.405,-3.6 -2.447,-5.904"
       fill="#e53750"
       id="path18" />
    <path
       d="m 276.31,171.392 c 0.54,-2 2.595,-3.19 4.592,-2.653 2.005,0.533 3.188,2.59 2.655,4.593 -0.533,2 -2.595,3.19 -4.593,2.65 -2.003,-0.532 -3.19,-2.59 -2.653,-4.59 m 24.629,-15.964 c 1.462,-2.53 4.692,-3.396 7.223,-1.936 2.527,1.457 3.392,4.69 1.934,7.217 -1.457,2.526 -4.694,3.397 -7.22,1.933 -2.527,-1.46 -3.4,-4.69 -1.937,-7.215 m -47.356,39.967 c -0.315,-1.18 0.385,-2.395 1.568,-2.714 1.18,-0.317 2.396,0.386 2.714,1.57 0.317,1.182 -0.385,2.396 -1.57,2.712 -1.18,0.316 -2.396,-0.383 -2.712,-1.568"
       fill="#26bcec"
       id="path20" />
    <path
       d="m 310.784,134.69 c 1.878,-3.264 6.055,-4.385 9.32,-2.5 3.256,1.883 4.372,6.05 2.488,9.32 -1.867,3.254 -6.05,4.375 -9.307,2.49 -3.268,-1.883 -4.39,-6.05 -2.5,-9.31"
       fill="#e53750"
       id="path22" />
    <path
       d="m 294.417,140.46 c 1.275,-3.09 4.812,-4.56 7.905,-3.28 3.085,1.278 4.553,4.818 3.273,7.91 -1.272,3.086 -4.818,4.56 -7.907,3.275 -3.087,-1.28 -4.557,-4.816 -3.27,-7.905"
       fill="#00acb0"
       id="path24" />
    <path
       d="m 255.485,182.89 c -0.218,-1.63 0.93,-3.132 2.566,-3.344 1.637,-0.217 3.133,0.93 3.35,2.566 0.213,1.63 -0.936,3.133 -2.57,3.346 -1.637,0.216 -3.13,-0.932 -3.346,-2.567"
       fill="#e53750"
       id="path26" />
    <path
       d="m 269.1,158.914 c 0.33,-2.473 2.593,-4.215 5.07,-3.89 2.475,0.322 4.214,2.596 3.887,5.07 -0.323,2.473 -2.592,4.217 -5.065,3.887 -2.474,-0.324 -4.22,-2.593 -3.892,-5.066"
       fill="#233d8d"
       id="path28" />
    <path
       d="m 260.747,170.506 c 0.003,-2.07 1.68,-3.753 3.748,-3.75 2.075,-0.003 3.75,1.676 3.753,3.75 0.003,2.07 -1.68,3.754 -3.75,3.75 -2.073,0.002 -3.75,-1.677 -3.75,-3.75 m 19.657,-21.794 c 0.756,-2.824 3.652,-4.495 6.475,-3.74 2.817,0.754 4.49,3.652 3.735,6.47 -0.753,2.82 -3.653,4.498 -6.47,3.738 -2.822,-0.756 -4.5,-3.65 -3.74,-6.468 m -35.399,50.861 c -0.61,-1.06 -0.248,-2.413 0.813,-3.027 1.057,-0.61 2.413,-0.247 3.026,0.813 0.612,1.06 0.25,2.415 -0.813,3.026 -1.06,0.61 -2.415,0.25 -3.027,-0.813"
       fill="#fecc38"
       id="path30" />
    <path
       d="m 284.547,126.134 c 0.97,-3.64 4.714,-5.803 8.355,-4.828 3.632,0.976 5.79,4.713 4.815,8.357 -0.96,3.627 -4.71,5.794 -8.344,4.816 -3.645,-0.975 -5.806,-4.71 -4.826,-8.346"
       fill="#233d8d"
       id="path32" />
    <path
       d="m 270.23,135.942 c 0.432,-3.314 3.467,-5.65 6.787,-5.214 3.31,0.436 5.645,3.475 5.208,6.793 -0.43,3.312 -3.474,5.652 -6.79,5.21 -3.313,-0.437 -5.648,-3.47 -5.205,-6.788"
       fill="#e53750"
       id="path34" />
    <path
       d="m 243.606,187.004 c -0.63,-1.52 0.09,-3.267 1.614,-3.895 1.523,-0.633 3.266,0.088 3.896,1.61 0.63,1.52 -0.09,3.268 -1.615,3.898 -1.522,0.632 -3.263,-0.09 -3.894,-1.614"
       fill="#233d8d"
       id="path36" />
    <path
       d="m 250.55,160.32 c -0.32,-2.473 1.416,-4.742 3.892,-5.07 2.474,-0.33 4.742,1.417 5.067,3.892 0.326,2.472 -1.414,4.745 -3.888,5.066 -2.474,0.326 -4.748,-1.413 -5.07,-3.888"
       fill="#26bcec"
       id="path38" />
    <path
       d="m 245.484,173.68 c -0.533,-2 0.65,-4.06 2.65,-4.593 2.003,-0.54 4.055,0.65 4.596,2.652 0.538,1.997 -0.652,4.06 -2.652,4.59 -2.002,0.54 -4.058,-0.648 -4.594,-2.65 M 258.83,147.54 c 0,-2.923 2.366,-5.287 5.288,-5.287 2.917,-0.002 5.282,2.364 5.283,5.283 0.003,2.916 -2.364,5.29 -5.283,5.283 -2.92,0 -5.29,-2.36 -5.286,-5.28 m -21.03,58.291 c -0.863,-0.865 -0.863,-2.267 0.002,-3.134 0.863,-0.865 2.268,-0.865 3.134,0 0.866,0.868 0.865,2.27 -0.002,3.135 -0.866,0.866 -2.268,0.868 -3.134,0"
       fill="#00acb0"
       id="path40" />
    <path
       d="m 256.988,124.66 c -0.006,-3.767 3.05,-6.827 6.82,-6.827 3.762,0.003 6.813,3.054 6.816,6.826 0.01,3.752 -3.052,6.815 -6.815,6.81 -3.773,0.003 -6.827,-3.045 -6.822,-6.81"
       fill="#26bcec"
       id="path42" />
    <path
       d="m 245.698,137.84 c -0.44,-3.314 1.887,-6.355 5.206,-6.794 3.31,-0.436 6.352,1.896 6.79,5.213 0.44,3.308 -1.894,6.357 -5.21,6.79 -3.315,0.434 -6.355,-1.893 -6.786,-5.21"
       fill="#233d8d"
       id="path44" />
    <path
       d="m 208.628,106.487 c -0.44,-3.313 1.887,-6.354 5.206,-6.792 3.31,-0.437 6.352,1.895 6.79,5.212 0.44,3.31 -1.894,6.358 -5.21,6.79 -3.315,0.435 -6.355,-1.892 -6.786,-5.21"
       fill="#00acb0"
       id="path46" />
    <path
       d="m 233.197,194.05 c -1.002,-1.303 -0.76,-3.178 0.55,-4.18 1.308,-1.004 3.18,-0.76 4.182,0.55 1,1.304 0.757,3.18 -0.553,4.182 -1.308,1.004 -3.176,0.758 -4.18,-0.55"
       fill="#26bcec"
       id="path48" />
    <path
       d="m 233,166.48 c -0.952,-2.307 0.14,-4.948 2.446,-5.905 2.305,-0.96 4.947,0.14 5.9,2.447 0.958,2.304 -0.135,4.95 -2.442,5.9 -2.305,0.955 -4.952,-0.137 -5.904,-2.443"
       fill="#fecc38"
       id="path50" />
    <path
       d="m 162.402,122.803 c -0.95,-2.306 0.14,-4.947 2.446,-5.904 2.305,-0.96 4.947,0.14 5.9,2.446 0.958,2.304 -0.135,4.95 -2.44,5.9 -2.307,0.955 -4.954,-0.137 -5.906,-2.443 m 11.303,247.574 c -0.95,-2.306 0.14,-4.947 2.446,-5.904 2.306,-0.958 4.948,0.14 5.902,2.447 0.957,2.303 -0.136,4.948 -2.442,5.898 -2.306,0.956 -4.953,-0.135 -5.905,-2.442"
       fill="#233d8d"
       id="path52" />
    <path
       d="m 231.562,180.695 c -1.032,-1.794 -0.422,-4.09 1.37,-5.122 1.796,-1.04 4.086,-0.423 5.127,1.372 1.036,1.79 0.42,4.09 -1.375,5.122 -1.793,1.04 -4.087,0.423 -5.123,-1.372 M 193.815,92.226 c -1.032,-1.794 -0.422,-4.09 1.37,-5.122 1.796,-1.04 4.086,-0.422 5.127,1.372 1.037,1.79 0.42,4.09 -1.374,5.122 -1.793,1.04 -4.087,0.423 -5.123,-1.372 m 43.875,59.766 c -0.757,-2.824 0.915,-5.72 3.738,-6.476 2.816,-0.756 5.714,0.916 6.47,3.736 0.756,2.816 -0.916,5.72 -3.736,6.47 -2.82,0.757 -5.722,-0.91 -6.473,-3.73 m -5.226,61.746 c -1.058,-0.612 -1.42,-1.966 -0.81,-3.028 0.61,-1.058 1.968,-1.42 3.028,-0.81 1.062,0.613 1.425,1.968 0.81,3.028 -0.612,1.06 -1.964,1.424 -3.027,0.81"
       fill="#e53750"
       id="path54" />
    <path
       d="m 229.987,130.367 c -0.98,-3.636 1.18,-7.383 4.822,-8.358 3.633,-0.972 7.37,1.185 8.348,4.828 0.98,3.622 -1.184,7.373 -4.82,8.343 -3.643,0.98 -7.382,-1.174 -8.35,-4.813"
       fill="#fecc38"
       id="path56" />
    <path
       d="m 222.493,146.02 c -1.283,-3.086 0.178,-6.626 3.27,-7.91 3.085,-1.277 6.626,0.188 7.907,3.28 1.283,3.082 -0.182,6.63 -3.275,7.907 -3.09,1.277 -6.628,-0.183 -7.902,-3.277"
       fill="#26bcec"
       id="path58" />
    <path
       d="m 224.967,203.552 c -1.307,-1 -1.557,-2.874 -0.55,-4.18 1.002,-1.31 2.872,-1.556 4.18,-0.552 1.305,1 1.555,2.875 0.55,4.182 -1.005,1.31 -2.872,1.555 -4.18,0.55"
       fill="#fecc38"
       id="path60" />
    <path
       d="m 217.64,176.97 c -1.517,-1.98 -1.147,-4.813 0.834,-6.335 1.978,-1.522 4.815,-1.144 6.333,0.836 1.52,1.98 1.15,4.817 -0.832,6.332 -1.98,1.52 -4.82,1.15 -6.336,-0.83"
       fill="#00acb0"
       id="path62" />
    <path
       d="m 219.93,191.074 c -1.462,-1.466 -1.466,-3.84 0,-5.302 1.463,-1.47 3.835,-1.466 5.304,-0.002 1.466,1.462 1.466,3.842 0,5.303 -1.464,1.468 -3.84,1.467 -5.304,0"
       fill="#233d8d"
       id="path64" />
    <path
       d="m 139.44,162.31 c -1.462,-1.466 -1.466,-3.84 0,-5.302 1.463,-1.47 3.835,-1.466 5.304,-0.002 1.466,1.462 1.467,3.843 0,5.303 -1.464,1.468 -3.84,1.467 -5.304,0"
       fill="#e53750"
       id="path66" />
    <path
       d="m 218.42,161.763 c -1.46,-2.532 -0.596,-5.76 1.936,-7.223 2.524,-1.46 5.756,-0.593 7.216,1.934 1.46,2.524 0.596,5.763 -1.934,7.218 -2.53,1.46 -5.762,0.6 -7.218,-1.93 m 10.933,60.996 c -1.18,-0.317 -1.88,-1.53 -1.565,-2.715 0.315,-1.18 1.532,-1.882 2.715,-1.566 1.183,0.318 1.884,1.532 1.565,2.716 -0.318,1.182 -1.53,1.883 -2.715,1.565"
       fill="#233d8d"
       id="path68" />
    <path
       d="m 205.384,142.87 c -1.89,-3.26 -0.772,-7.438 2.493,-9.323 3.258,-1.878 7.426,-0.76 9.315,2.505 1.885,3.244 0.766,7.428 -2.496,9.306 -3.266,1.888 -7.434,0.775 -9.313,-2.49"
       fill="#00acb0"
       id="path70" />
    <path
       d="m 202.195,159.928 c -2.038,-2.65 -1.543,-6.446 1.112,-8.486 2.65,-2.033 6.45,-1.534 8.487,1.12 2.036,2.646 1.54,6.453 -1.118,8.486 -2.65,2.033 -6.448,1.54 -8.48,-1.12"
       fill="#fecc38"
       id="path72" />
    <path
       d="m 219.475,214.86 c -1.52,-0.628 -2.247,-2.374 -1.613,-3.896 0.63,-1.523 2.373,-2.247 3.895,-1.615 1.52,0.628 2.246,2.374 1.614,3.897 -0.63,1.524 -2.37,2.244 -3.895,1.613"
       fill="#00acb0"
       id="path74" />
    <path
       d="m 205.518,191.08 c -1.977,-1.52 -2.354,-4.354 -0.833,-6.336 1.516,-1.983 4.354,-2.352 6.333,-0.83 1.98,1.515 2.357,4.352 0.835,6.33 -1.52,1.98 -4.357,2.357 -6.335,0.836"
       fill="#e53750"
       id="path76" />
    <path
       d="m 211.382,204.11 c -1.792,-1.038 -2.41,-3.33 -1.374,-5.12 1.035,-1.8 3.327,-2.41 5.124,-1.376 1.794,1.033 2.41,3.332 1.37,5.122 -1.033,1.797 -3.326,2.41 -5.12,1.374 m -9.046,-27.92 c -2.067,-2.07 -2.067,-5.412 0,-7.48 2.06,-2.062 5.407,-2.062 7.47,0 2.064,2.062 2.07,5.414 0,7.474 -2.063,2.065 -5.41,2.07 -7.47,0.005 m 26.348,56.087 c -1.222,0 -2.213,-0.992 -2.215,-2.218 -0.002,-1.22 0.992,-2.214 2.216,-2.215 1.226,0 2.217,0.993 2.215,2.218 0,1.225 -0.99,2.217 -2.216,2.216"
       fill="#26bcec"
       id="path78" />
    <path
       d="m 179.117,152.358 c -2.667,-2.66 -2.67,-6.984 -0.004,-9.65 2.662,-2.657 6.976,-2.657 9.646,0.01 2.66,2.645 2.66,6.976 -0.003,9.634 -2.666,2.67 -6.98,2.673 -9.64,0.006"
       fill="#e53750"
       id="path80" />
    <path
       d="m 186.19,178.616 c -2.654,-2.03 -3.16,-5.827 -1.122,-8.484 2.033,-2.65 5.832,-3.15 8.487,-1.115 2.652,2.028 3.157,5.834 1.117,8.486 -2.036,2.65 -5.83,3.155 -8.482,1.113"
       fill="#00acb0"
       id="path82" />
    <path
       d="m 217.098,227.204 c -1.63,-0.214 -2.785,-1.712 -2.566,-3.346 0.213,-1.635 1.71,-2.785 3.344,-2.57 1.63,0.215 2.784,1.714 2.567,3.35 -0.215,1.634 -1.71,2.78 -3.345,2.565"
       fill="#e53750"
       id="path84" />
    <path
       d="m 222.11,251.62 c -1.52,0.63 -3.268,-0.09 -3.896,-1.614 -0.632,-1.523 0.09,-3.267 1.612,-3.897 1.52,-0.63 3.267,0.09 3.897,1.614 0.632,1.524 -0.09,3.265 -1.614,3.896"
       fill="#26bcec"
       id="path86" />
    <path
       d="m 197.462,207.847 c -2.303,-0.958 -3.4,-3.596 -2.445,-5.905 0.952,-2.307 3.598,-3.398 5.903,-2.442 2.305,0.952 3.403,3.596 2.444,5.9 -0.954,2.305 -3.598,3.405 -5.902,2.447"
       fill="#233d8d"
       id="path88" />
    <path
       d="m 206.498,218.915 c -2,-0.54 -3.19,-2.593 -2.652,-4.59 0.533,-2.005 2.59,-3.188 4.593,-2.656 2,0.533 3.19,2.594 2.65,4.593 -0.533,2.003 -2.59,3.19 -4.592,2.652"
       fill="#fecc38"
       id="path90" />
    <path
       d="m 166.428,186.18 c -2.53,-1.463 -3.396,-4.693 -1.935,-7.224 1.456,-2.527 4.688,-3.392 7.216,-1.934 2.526,1.457 3.397,4.694 1.933,7.22 -1.46,2.527 -4.69,3.4 -7.215,1.937"
       fill="#233d8d"
       id="path92" />
    <path
       d="m 230.5,241.642 c -1.18,0.315 -2.395,-0.385 -2.713,-1.568 -0.317,-1.18 0.385,-2.396 1.568,-2.713 1.184,-0.317 2.398,0.386 2.714,1.57 0.314,1.182 -0.385,2.397 -1.57,2.712 M 110.52,184.442 c -3.264,-1.878 -4.385,-6.055 -2.5,-9.32 1.883,-3.256 6.05,-4.372 9.32,-2.488 3.254,1.867 4.375,6.05 2.49,9.307 -1.884,3.27 -6.05,4.39 -9.31,2.502"
       fill="#fecc38"
       id="path94" />
    <path
       d="m 175.566,200.81 c -3.09,-1.275 -4.56,-4.812 -3.28,-7.906 1.278,-3.085 4.818,-4.553 7.91,-3.273 3.086,1.274 4.56,4.82 3.275,7.908 -1.28,3.087 -4.815,4.558 -7.904,3.27"
       fill="#e53750"
       id="path96" />
    <path
       d="m 217.997,239.742 c -1.63,0.217 -3.133,-0.932 -3.345,-2.566 -0.217,-1.635 0.93,-3.133 2.566,-3.347 1.63,-0.217 3.133,0.933 3.346,2.567 0.216,1.636 -0.93,3.13 -2.567,3.345"
       fill="#233d8d"
       id="path98" />
    <path
       d="m 194.02,226.126 c -2.473,-0.33 -4.215,-2.594 -3.89,-5.07 0.322,-2.476 2.596,-4.214 5.07,-3.887 2.473,0.322 4.218,2.59 3.888,5.064 -0.325,2.474 -2.594,4.22 -5.068,3.892"
       fill="#26bcec"
       id="path100" />
    <path
       d="m 205.612,234.48 c -2.07,-0.004 -3.753,-1.68 -3.75,-3.75 -0.003,-2.073 1.676,-3.748 3.75,-3.75 2.07,-0.004 3.754,1.68 3.75,3.75 0.003,2.07 -1.676,3.75 -3.75,3.75 m -21.794,-19.658 c -2.823,-0.757 -4.495,-3.653 -3.74,-6.476 0.755,-2.817 3.652,-4.49 6.47,-3.735 2.82,0.754 4.5,3.654 3.738,6.472 -0.755,2.82 -3.65,4.5 -6.468,3.74 m 50.862,35.397 c -1.06,0.61 -2.414,0.247 -3.028,-0.813 -0.612,-1.057 -0.248,-2.415 0.813,-3.027 1.06,-0.612 2.415,-0.25 3.026,0.813 0.612,1.06 0.25,2.415 -0.81,3.027"
       fill="#00acb0"
       id="path102" />
    <path
       d="m 161.24,210.68 c -3.64,-0.97 -5.803,-4.714 -4.828,-8.355 0.976,-3.632 4.713,-5.79 8.357,-4.816 3.627,0.96 5.793,4.71 4.815,8.344 -0.974,3.645 -4.71,5.806 -8.345,4.826"
       fill="#26bcec"
       id="path104" />
    <path
       d="m 171.05,224.996 c -3.316,-0.432 -5.65,-3.467 -5.216,-6.787 0.436,-3.31 3.475,-5.646 6.792,-5.21 3.31,0.43 5.652,3.475 5.21,6.79 -0.437,3.314 -3.472,5.65 -6.788,5.206"
       fill="#233d8d"
       id="path106" />
    <path
       d="m 99.354,251.62 c -1.52,0.63 -3.268,-0.09 -3.896,-1.614 -0.632,-1.523 0.09,-3.267 1.613,-3.897 1.52,-0.63 3.268,0.09 3.898,1.614 0.63,1.524 -0.09,3.265 -1.614,3.896"
       fill="#00acb0"
       id="path108" />
    <path
       d="m 121.886,232.146 c -1.52,0.63 -3.268,-0.09 -3.896,-1.613 -0.632,-1.523 0.09,-3.267 1.613,-3.897 1.52,-0.63 3.267,0.09 3.897,1.615 0.63,1.525 -0.09,3.265 -1.614,3.896 m 83.72,119.821 c -1.52,0.63 -3.268,-0.09 -3.896,-1.613 -0.632,-1.524 0.09,-3.267 1.613,-3.898 1.52,-0.63 3.267,0.09 3.897,1.615 0.63,1.525 -0.09,3.265 -1.614,3.896"
       fill="#e53750"
       id="path110" />
    <path
       d="m 195.426,244.674 c -2.474,0.322 -4.743,-1.414 -5.07,-3.89 -0.33,-2.475 1.417,-4.743 3.89,-5.067 2.474,-0.328 4.746,1.412 5.068,3.886 0.326,2.474 -1.414,4.75 -3.888,5.07"
       fill="#fecc38"
       id="path112" />
    <path
       d="m 208.785,249.743 c -2,0.533 -4.06,-0.65 -4.593,-2.65 -0.54,-2.003 0.65,-4.055 2.652,-4.596 1.998,-0.538 4.06,0.65 4.592,2.652 0.54,2 -0.65,4.057 -2.65,4.593 m -26.14,-13.347 c -2.923,0 -5.288,-2.364 -5.288,-5.287 -0.002,-2.917 2.365,-5.282 5.283,-5.283 2.918,-0.002 5.29,2.365 5.285,5.284 0,2.92 -2.36,5.29 -5.28,5.285 m 58.29,21.029 c -0.865,0.863 -2.267,0.864 -3.134,0 -0.865,-0.864 -0.864,-2.27 0.002,-3.136 0.866,-0.866 2.268,-0.865 3.134,0.002 0.864,0.866 0.866,2.267 -0.002,3.133"
       fill="#e53750"
       id="path114" />
    <path
       d="m 159.765,238.238 c -3.767,0.007 -6.826,-3.05 -6.826,-6.82 0.002,-3.762 3.053,-6.812 6.825,-6.815 3.752,-0.01 6.815,3.052 6.812,6.814 0.002,3.773 -3.046,6.827 -6.812,6.82"
       fill="#fecc38"
       id="path116" />
    <path
       d="m 172.944,249.528 c -3.313,0.44 -6.354,-1.887 -6.792,-5.206 -0.437,-3.31 1.895,-6.352 5.212,-6.79 3.31,-0.44 6.358,1.894 6.79,5.21 0.435,3.315 -1.892,6.356 -5.21,6.786"
       fill="#26bcec"
       id="path118" />
    <path
       d="m 229.157,262.03 c -1.303,1.002 -3.18,0.76 -4.18,-0.55 -1.005,-1.308 -0.76,-3.18 0.55,-4.182 1.303,-1.002 3.178,-0.758 4.18,0.55 1.005,1.31 0.76,3.178 -0.55,4.182"
       fill="#fecc38"
       id="path120" />
    <path
       d="m 147.658,286.026 c -1.303,1.002 -3.18,0.76 -4.18,-0.55 -1.005,-1.308 -0.76,-3.18 0.55,-4.182 1.303,-1.002 3.178,-0.758 4.18,0.55 1.005,1.31 0.76,3.178 -0.55,4.182"
       fill="#233d8d"
       id="path122" />
    <path
       d="m 201.585,262.227 c -2.306,0.95 -4.947,-0.14 -5.904,-2.446 -0.957,-2.304 0.142,-4.947 2.448,-5.9 2.304,-0.957 4.95,0.135 5.9,2.442 0.955,2.305 -0.136,4.953 -2.443,5.905"
       fill="#00acb0"
       id="path124" />
    <path
       d="m 140.248,217.15 c -2.306,0.95 -4.947,-0.14 -5.904,-2.447 -0.96,-2.305 0.14,-4.947 2.447,-5.9 2.305,-0.958 4.95,0.135 5.9,2.44 0.956,2.307 -0.136,4.954 -2.442,5.906 m 75.551,46.515 c -1.794,1.032 -4.09,0.423 -5.122,-1.37 -1.04,-1.796 -0.422,-4.086 1.372,-5.125 1.79,-1.04 4.09,-0.424 5.122,1.372 1.04,1.793 0.423,4.087 -1.372,5.123 m -28.703,-6.128 c -2.824,0.757 -5.72,-0.915 -6.476,-3.738 -0.755,-2.817 0.918,-5.714 3.737,-6.47 2.816,-0.757 5.72,0.915 6.47,3.736 0.758,2.82 -0.91,5.722 -3.73,6.472 m 61.745,5.226 c -0.612,1.058 -1.965,1.42 -3.028,0.81 -1.058,-0.61 -1.42,-1.967 -0.81,-3.028 0.613,-1.06 1.968,-1.424 3.028,-0.81 1.06,0.614 1.424,1.967 0.81,3.028"
       fill="#233d8d"
       id="path126" />
    <path
       d="m 138.746,265.24 c -3.637,0.98 -7.383,-1.182 -8.36,-4.822 -0.97,-3.634 1.188,-7.37 4.83,-8.35 3.623,-0.98 7.374,1.185 8.344,4.82 0.98,3.643 -1.175,7.382 -4.814,8.35"
       fill="#26bcec"
       id="path128" />
    <path
       d="m 181.126,272.734 c -3.086,1.283 -6.626,-0.18 -7.91,-3.27 -1.277,-3.085 0.188,-6.627 3.28,-7.908 3.082,-1.283 6.63,0.183 7.907,3.275 1.277,3.09 -0.183,6.63 -3.277,7.904"
       fill="#fecc38"
       id="path130" />
    <path
       d="m 238.658,270.26 c -1,1.306 -2.875,1.556 -4.18,0.55 -1.31,-1.003 -1.557,-2.873 -0.552,-4.18 1,-1.307 2.875,-1.557 4.182,-0.55 1.31,1.003 1.555,2.87 0.55,4.18"
       fill="#00acb0"
       id="path132" />
    <path
       d="m 212.076,277.586 c -1.98,1.516 -4.814,1.146 -6.336,-0.835 -1.522,-1.977 -1.143,-4.813 0.837,-6.332 1.977,-1.52 4.815,-1.15 6.33,0.833 1.52,1.98 1.15,4.82 -0.83,6.336"
       fill="#e53750"
       id="path134" />
    <path
       d="m 166.535,334.535 c -1.98,1.516 -4.814,1.146 -6.336,-0.835 -1.523,-1.977 -1.145,-4.814 0.835,-6.333 1.978,-1.52 4.816,-1.15 6.33,0.832 1.52,1.98 1.15,4.818 -0.83,6.335 m 59.646,-59.238 c -1.466,1.462 -3.84,1.466 -5.303,0 -1.468,-1.464 -1.465,-3.835 0,-5.305 1.46,-1.464 3.84,-1.465 5.302,0.002 1.467,1.463 1.466,3.838 0,5.304 m -29.309,1.509 c -2.533,1.46 -5.763,0.596 -7.224,-1.936 -1.46,-2.524 -0.593,-5.755 1.933,-7.215 2.524,-1.46 5.763,-0.597 7.218,1.933 1.46,2.53 0.6,5.763 -1.93,7.218 m 60.997,-10.934 c -0.317,1.18 -1.53,1.88 -2.715,1.565 -1.182,-0.314 -1.884,-1.53 -1.567,-2.714 0.317,-1.183 1.532,-1.884 2.715,-1.566 1.182,0.32 1.884,1.53 1.566,2.715"
       fill="#26bcec"
       id="path136" />
    <path
       d="m 177.975,289.843 c -3.26,1.888 -7.437,0.77 -9.322,-2.494 -1.878,-3.26 -0.76,-7.428 2.505,-9.317 3.244,-1.884 7.428,-0.764 9.305,2.497 1.89,3.265 0.776,7.435 -2.488,9.313"
       fill="#e53750"
       id="path138" />
    <path
       d="m 195.034,293.03 c -2.648,2.04 -6.446,1.544 -8.485,-1.11 -2.035,-2.65 -1.536,-6.45 1.118,-8.488 2.646,-2.037 6.453,-1.54 8.486,1.118 2.033,2.653 1.54,6.45 -1.12,8.48"
       fill="#00acb0"
       id="path140" />
    <path
       d="m 249.966,275.75 c -0.627,1.52 -2.374,2.247 -3.896,1.613 -1.523,-0.63 -2.247,-2.372 -1.615,-3.895 0.63,-1.52 2.375,-2.246 3.898,-1.614 1.524,0.63 2.245,2.373 1.613,3.896"
       fill="#e53750"
       id="path142" />
    <path
       d="m 226.186,289.707 c -1.52,1.977 -4.354,2.354 -6.336,0.834 -1.982,-1.516 -2.35,-4.354 -0.83,-6.333 1.516,-1.98 4.353,-2.357 6.33,-0.835 1.98,1.52 2.357,4.357 0.836,6.335"
       fill="#233d8d"
       id="path144" />
    <path
       d="m 239.216,283.845 c -1.038,1.79 -3.33,2.41 -5.122,1.374 -1.797,-1.036 -2.408,-3.328 -1.374,-5.126 1.032,-1.794 3.33,-2.41 5.122,-1.372 1.797,1.034 2.41,3.328 1.374,5.123 m -27.921,9.046 c -2.067,2.066 -5.41,2.066 -7.478,0 -2.063,-2.06 -2.063,-5.407 0,-7.47 2.06,-2.064 5.413,-2.068 7.473,0 2.065,2.063 2.072,5.41 0.005,7.47 m 56.085,-26.348 c 0,1.222 -0.99,2.213 -2.216,2.215 -1.222,0 -2.215,-0.992 -2.216,-2.217 0,-1.226 0.993,-2.217 2.218,-2.216 1.224,0.002 2.216,0.99 2.215,2.218"
       fill="#fecc38"
       id="path146" />
    <path
       d="m 171.4,310.372 c -2.66,2.668 -6.985,2.67 -9.65,0.004 -2.658,-2.662 -2.66,-6.977 0.007,-9.646 2.646,-2.66 6.977,-2.662 9.635,0.002 2.67,2.665 2.674,6.98 0.007,9.64"
       fill="#e53750"
       id="path148" />
    <path
       d="m 195.81,314.972 c -2.032,2.654 -5.828,3.16 -8.485,1.122 -2.65,-2.032 -3.152,-5.832 -1.115,-8.486 2.028,-2.653 5.834,-3.157 8.486,-1.118 2.65,2.037 3.155,5.832 1.113,8.482 m 66.501,-36.844 c -0.213,1.63 -1.71,2.784 -3.345,2.566 -1.635,-0.213 -2.785,-1.71 -2.57,-3.344 0.215,-1.63 1.714,-2.785 3.35,-2.568 1.634,0.215 2.78,1.71 2.565,3.346"
       fill="#233d8d"
       id="path150" />
    <path
       d="m 242.952,297.764 c -0.958,2.303 -3.596,3.4 -5.904,2.445 -2.308,-0.953 -3.398,-3.6 -2.442,-5.904 0.952,-2.306 3.595,-3.403 5.898,-2.444 2.306,0.954 3.406,3.597 2.448,5.902"
       fill="#26bcec"
       id="path152" />
    <path
       d="m 254.02,288.728 c -0.538,2 -2.592,3.19 -4.59,2.653 -2.005,-0.533 -3.188,-2.59 -2.655,-4.593 0.534,-2 2.595,-3.19 4.593,-2.65 2.003,0.532 3.19,2.59 2.653,4.59 m -112.058,50.777 c -0.538,2 -2.593,3.19 -4.59,2.652 -2.006,-0.534 -3.19,-2.59 -2.656,-4.593 0.535,-2 2.595,-3.192 4.594,-2.652 2.003,0.534 3.19,2.59 2.654,4.593 m 87.427,-34.813 c -1.462,2.53 -4.69,3.396 -7.223,1.936 -2.527,-1.457 -3.393,-4.69 -1.934,-7.217 1.456,-2.526 4.693,-3.397 7.218,-1.933 2.528,1.46 3.4,4.69 1.938,7.215 m 47.357,-39.967 c 0.315,1.18 -0.385,2.395 -1.568,2.713 -1.18,0.316 -2.396,-0.387 -2.714,-1.57 -0.317,-1.182 0.385,-2.397 1.57,-2.712 1.182,-0.316 2.396,0.383 2.712,1.568"
       fill="#00acb0"
       id="path154" />
    <path
       d="m 219.548,325.43 c -1.878,3.264 -6.056,4.385 -9.32,2.5 -3.256,-1.883 -4.373,-6.05 -2.49,-9.32 1.87,-3.254 6.052,-4.375 9.31,-2.49 3.267,1.883 4.388,6.05 2.5,9.31"
       fill="#26bcec"
       id="path156" />
    <path
       d="m 235.915,319.66 c -1.275,3.09 -4.812,4.56 -7.905,3.28 -3.085,-1.277 -4.553,-4.817 -3.273,-7.91 1.272,-3.086 4.818,-4.558 7.907,-3.274 3.087,1.28 4.558,4.816 3.27,7.905"
       fill="#233d8d"
       id="path158" />
    <path
       d="m 274.848,277.23 c 0.216,1.63 -0.932,3.132 -2.567,3.344 -1.634,0.217 -3.13,-0.93 -3.346,-2.566 -0.215,-1.63 0.934,-3.133 2.57,-3.345 1.634,-0.216 3.13,0.93 3.344,2.566"
       fill="#26bcec"
       id="path160" />
    <path
       d="m 261.233,301.207 c -0.33,2.473 -2.594,4.214 -5.07,3.89 -2.476,-0.323 -4.214,-2.597 -3.888,-5.07 0.324,-2.474 2.593,-4.217 5.065,-3.888 2.475,0.324 4.22,2.593 3.893,5.066"
       fill="#fecc38"
       id="path162" />
    <path
       d="m 269.585,289.614 c -0.003,2.07 -1.68,3.753 -3.748,3.75 -2.074,0.004 -3.75,-1.676 -3.753,-3.75 -0.002,-2.07 1.68,-3.754 3.75,-3.75 2.073,-0.002 3.752,1.678 3.75,3.75 m -19.657,21.794 c -0.757,2.824 -3.653,4.495 -6.476,3.74 -2.816,-0.754 -4.49,-3.652 -3.734,-6.47 0.753,-2.82 3.653,-4.498 6.47,-3.738 2.822,0.756 4.5,3.65 3.74,6.468 m 35.399,-50.861 c 0.61,1.06 0.248,2.412 -0.813,3.026 -1.057,0.612 -2.414,0.248 -3.027,-0.812 -0.612,-1.06 -0.25,-2.415 0.813,-3.026 1.06,-0.61 2.414,-0.25 3.026,0.813"
       fill="#e53750"
       id="path164" />
    <path
       d="m 245.785,333.986 c -0.97,3.64 -4.714,5.804 -8.355,4.828 -3.632,-0.975 -5.79,-4.713 -4.815,-8.357 0.96,-3.627 4.71,-5.793 8.344,-4.816 3.644,0.975 5.805,4.71 4.825,8.346"
       fill="#fecc38"
       id="path166" />
    <path
       d="m 260.102,324.178 c -0.432,3.313 -3.467,5.65 -6.787,5.214 -3.31,-0.436 -5.645,-3.476 -5.21,-6.793 0.432,-3.312 3.476,-5.652 6.79,-5.21 3.315,0.437 5.65,3.47 5.207,6.788"
       fill="#26bcec"
       id="path168" />
    <path
       d="m 286.726,273.117 c 0.63,1.52 -0.09,3.267 -1.614,3.895 -1.523,0.632 -3.266,-0.09 -3.897,-1.613 -0.63,-1.52 0.092,-3.267 1.615,-3.897 1.524,-0.632 3.265,0.09 3.896,1.614"
       fill="#fecc38"
       id="path170" />
    <path
       d="m 279.78,299.8 c 0.322,2.474 -1.414,4.742 -3.89,5.07 -2.475,0.33 -4.743,-1.418 -5.067,-3.89 -0.328,-2.474 1.412,-4.746 3.886,-5.068 2.473,-0.326 4.747,1.413 5.07,3.888"
       fill="#00acb0"
       id="path172" />
    <path
       d="m 284.848,286.44 c 0.533,2.002 -0.65,4.06 -2.65,4.594 -2.003,0.54 -4.055,-0.65 -4.596,-2.652 -0.538,-1.998 0.652,-4.06 2.653,-4.59 2,-0.54 4.057,0.647 4.593,2.65 M 271.5,312.58 c 0,2.923 -2.364,5.287 -5.287,5.287 -2.916,0.002 -5.282,-2.363 -5.282,-5.282 0,-2.916 2.366,-5.29 5.284,-5.284 2.92,0 5.29,2.362 5.287,5.28 M 292.53,254.29 c 0.862,0.865 0.863,2.267 -0.002,3.134 -0.864,0.864 -2.27,0.864 -3.135,0 -0.866,-0.868 -0.865,-2.27 0.002,-3.136 0.867,-0.864 2.268,-0.866 3.134,0.002"
       fill="#233d8d"
       id="path174" />
    <path
       d="m 273.344,335.46 c 0.006,3.767 -3.05,6.826 -6.82,6.826 -3.762,-0.003 -6.813,-3.054 -6.815,-6.826 -0.012,-3.752 3.05,-6.815 6.813,-6.81 3.773,-0.003 6.827,3.044 6.82,6.81"
       fill="#00acb0"
       id="path176" />
    <path
       d="m 284.634,322.282 c 0.44,3.313 -1.887,6.354 -5.206,6.793 -3.31,0.436 -6.352,-1.896 -6.79,-5.213 -0.44,-3.31 1.894,-6.358 5.21,-6.79 3.315,-0.435 6.356,1.892 6.786,5.21"
       fill="#fecc38"
       id="path178" />
    <path
       d="m 297.135,266.07 c 1.002,1.303 0.76,3.18 -0.55,4.18 -1.308,1.005 -3.18,0.76 -4.182,-0.55 -1.002,-1.304 -0.758,-3.18 0.552,-4.182 1.308,-1.004 3.176,-0.758 4.18,0.55"
       fill="#00acb0"
       id="path180" />
    <path
       d="m 297.333,293.64 c 0.95,2.307 -0.14,4.948 -2.446,5.905 -2.305,0.96 -4.947,-0.14 -5.9,-2.447 -0.958,-2.304 0.135,-4.948 2.44,-5.9 2.307,-0.954 4.954,0.137 5.906,2.443"
       fill="#e53750"
       id="path182" />
    <path
       d="m 298.77,279.425 c 1.033,1.795 0.422,4.09 -1.37,5.122 -1.796,1.04 -4.086,0.423 -5.126,-1.37 -1.037,-1.792 -0.422,-4.092 1.373,-5.123 1.793,-1.04 4.087,-0.424 5.123,1.37 m -6.127,28.704 c 0.756,2.824 -0.916,5.72 -3.74,6.477 -2.815,0.755 -5.713,-0.917 -6.47,-3.737 -0.755,-2.816 0.917,-5.72 3.738,-6.47 2.82,-0.757 5.722,0.91 6.473,3.73"
       fill="#26bcec"
       id="path184" />
    <path
       d="m 300.345,329.753 c 0.98,3.636 -1.18,7.383 -4.82,8.358 -3.635,0.972 -7.372,-1.185 -8.35,-4.83 -0.982,-3.62 1.183,-7.372 4.818,-8.34 3.644,-0.98 7.383,1.173 8.352,4.813"
       fill="#e53750"
       id="path186" />
    <path
       d="m 307.84,314.1 c 1.282,3.086 -0.18,6.627 -3.272,7.91 -3.084,1.278 -6.626,-0.188 -7.907,-3.28 -1.28,-3.08 0.184,-6.63 3.276,-7.906 3.09,-1.278 6.628,0.182 7.903,3.276"
       fill="#00acb0"
       id="path188" />
    <path
       d="m 305.366,256.568 c 1.306,1 1.556,2.874 0.55,4.18 -1.003,1.31 -2.873,1.556 -4.18,0.552 -1.307,-1 -1.556,-2.875 -0.55,-4.182 1.003,-1.31 2.87,-1.555 4.18,-0.55"
       fill="#e53750"
       id="path190" />
    <path
       d="m 312.693,283.15 c 1.516,1.98 1.146,4.814 -0.835,6.336 -1.978,1.522 -4.815,1.143 -6.333,-0.837 -1.52,-1.98 -1.15,-4.816 0.833,-6.33 1.98,-1.52 4.818,-1.15 6.335,0.83"
       fill="#233d8d"
       id="path192" />
    <path
       d="m 310.402,269.046 c 1.462,1.466 1.466,3.84 0,5.302 -1.463,1.47 -3.835,1.466 -5.304,0.002 -1.466,-1.462 -1.467,-3.842 0,-5.303 1.464,-1.468 3.84,-1.467 5.304,0 m 1.51,29.31 c 1.46,2.532 0.596,5.762 -1.936,7.223 -2.524,1.46 -5.756,0.593 -7.216,-1.934 -1.46,-2.524 -0.596,-5.763 1.934,-7.218 2.53,-1.46 5.762,-0.6 7.218,1.93"
       fill="#fecc38"
       id="path194" />
    <path
       d="m 324.95,317.25 c 1.887,3.26 0.77,7.438 -2.495,9.322 -3.26,1.878 -7.426,0.762 -9.315,-2.504 -1.885,-3.245 -0.765,-7.428 2.496,-9.306 3.266,-1.89 7.435,-0.776 9.313,2.49"
       fill="#233d8d"
       id="path196" />
    <path
       d="m 328.136,300.192 c 2.04,2.65 1.543,6.446 -1.112,8.486 -2.65,2.033 -6.45,1.535 -8.486,-1.12 -2.037,-2.645 -1.54,-6.453 1.117,-8.485 2.653,-2.033 6.45,-1.54 8.48,1.12"
       fill="#e53750"
       id="path198" />
    <path
       d="m 324.814,269.04 c 1.977,1.52 2.354,4.353 0.833,6.336 -1.516,1.983 -4.354,2.35 -6.333,0.832 -1.98,-1.517 -2.357,-4.356 -0.835,-6.332 1.518,-1.98 4.356,-2.358 6.334,-0.837"
       fill="#26bcec"
       id="path200" />
    <path
       d="m 327.996,283.93 c 2.067,2.068 2.067,5.412 0,7.48 -2.06,2.062 -5.407,2.062 -7.47,0 -2.064,-2.062 -2.068,-5.415 0,-7.474 2.063,-2.066 5.41,-2.07 7.47,-0.005"
       fill="#00acb0"
       id="path202" />
    <path
       d="m 345.478,298.807 c 2.668,2.66 2.67,6.984 0.004,9.65 -2.662,2.658 -6.976,2.658 -9.646,-0.008 -2.66,-2.648 -2.66,-6.98 0.002,-9.636 2.666,-2.67 6.98,-2.674 9.64,-0.007"
       fill="#26bcec"
       id="path204" />
    <path
       d="m 344.142,281.504 c 2.654,2.03 3.16,5.827 1.122,8.484 -2.032,2.65 -5.832,3.152 -8.486,1.116 -2.653,-2.03 -3.158,-5.835 -1.118,-8.487 2.036,-2.65 5.832,-3.155 8.482,-1.113"
       fill="#233d8d"
       id="path206" />
    <path
       d="m 289.396,202.697 c 0.865,-0.863 2.267,-0.864 3.134,0 0.865,0.865 0.864,2.27 0,3.136 -0.868,0.866 -2.27,0.865 -3.135,-0.002 -0.865,-0.866 -0.867,-2.267 0,-3.133"
       fill="#fecc38"
       id="path208" />
    <path
       d="m 301.175,198.09 c 1.303,-1 3.18,-0.758 4.18,0.552 1.005,1.307 0.76,3.178 -0.55,4.18 -1.303,1.003 -3.178,0.76 -4.18,-0.55 -1.005,-1.31 -0.76,-3.177 0.55,-4.18"
       fill="#233d8d"
       id="path210" />
    <path
       d="m 281.488,197.358 c 0.612,-1.058 1.966,-1.42 3.028,-0.81 1.058,0.61 1.42,1.967 0.81,3.028 -0.613,1.06 -1.968,1.424 -3.028,0.81 -1.06,-0.614 -1.424,-1.967 -0.81,-3.028"
       fill="#00acb0"
       id="path212" />
    <path
       d="m 291.674,189.86 c 1,-1.306 2.874,-1.556 4.18,-0.55 1.31,1.003 1.556,2.873 0.552,4.18 -1,1.306 -2.875,1.556 -4.182,0.55 -1.31,-1.003 -1.555,-2.87 -0.55,-4.18"
       fill="#26bcec"
       id="path214" />
    <path
       d="m 318.256,182.534 c 1.98,-1.516 4.814,-1.146 6.336,0.835 1.522,1.977 1.144,4.814 -0.836,6.332 -1.978,1.52 -4.816,1.15 -6.33,-0.833 -1.52,-1.98 -1.15,-4.82 0.83,-6.336"
       fill="#fecc38"
       id="path216" />
    <path
       d="m 304.152,184.824 c 1.466,-1.462 3.84,-1.466 5.302,0 1.47,1.463 1.466,3.835 0.002,5.304 -1.462,1.466 -3.842,1.467 -5.303,0 -1.468,-1.464 -1.467,-3.84 0,-5.304"
       fill="#e53750"
       id="path218" />
    <path
       d="M 405.83,198.506 H 386.007 V 217 h 20.857 c 1.15,0 1.725,0.5 1.725,1.506 v 4.602 c 0,1.117 -0.576,1.673 -1.726,1.673 h -28.012 c -1.092,0 -1.637,-0.555 -1.637,-1.672 v -55.564 c 0,-1.06 0.545,-1.59 1.637,-1.59 h 27.754 c 1.15,0 1.724,0.53 1.724,1.59 v 4.603 c 0,1.116 -0.575,1.673 -1.724,1.673 h -20.6 v 17.155 h 19.824 c 1.034,0 1.552,0.558 1.552,1.673 v 4.184 c 0,1.117 -0.518,1.674 -1.552,1.674 m 34.363,10.375 c -0.706,0 -1.266,-0.34 -1.676,-1.02 l -13.39,-25.925 v 41.17 c 0,1.117 -0.517,1.674 -1.55,1.674 h -5.517 c -1.094,0 -1.64,-0.556 -1.64,-1.672 v -55.564 c 0,-1.06 0.546,-1.59 1.64,-1.59 h 5.343 c 0.976,0 1.638,0.33 1.982,0.99 l 14.742,28.542 14.822,-28.528 c 0.344,-0.67 0.975,-1.004 1.895,-1.004 h 5.344 c 1.09,0 1.637,0.53 1.637,1.59 v 55.564 c 0,1.116 -0.547,1.673 -1.638,1.673 h -5.518 c -1.034,0 -1.55,-0.555 -1.55,-1.67 v -41.063 l -13.255,25.88 c -0.294,0.637 -0.853,0.955 -1.675,0.955 m 58.122,-0.002 c -0.707,0 -1.266,-0.34 -1.677,-1.02 l -13.388,-25.925 v 41.17 c 0,1.117 -0.518,1.674 -1.552,1.674 h -5.517 c -1.092,0 -1.637,-0.556 -1.637,-1.672 v -55.564 c 0,-1.06 0.544,-1.59 1.636,-1.59 h 5.345 c 0.976,0 1.638,0.33 1.983,0.99 l 14.74,28.542 14.823,-28.528 c 0.345,-0.67 0.976,-1.004 1.896,-1.004 h 5.344 c 1.09,0 1.638,0.53 1.638,1.59 v 55.564 c 0,1.116 -0.547,1.673 -1.638,1.673 h -5.517 c -1.035,0 -1.55,-0.555 -1.55,-1.67 v -41.063 l -13.256,25.88 c -0.294,0.637 -0.852,0.955 -1.675,0.955 m 45.864,-6.111 h 15.17 l -7.5,-28.033 h -0.17 z m 3.535,-36.82 h 7.5 c 1.09,0 1.81,0.56 2.153,1.674 l 16.72,55.396 c 0.174,0.502 0.13,0.92 -0.128,1.256 -0.26,0.334 -0.646,0.5 -1.163,0.5 h -5.948 c -0.92,0 -1.552,-0.5 -1.897,-1.506 l -3.706,-12.886 h -19.232 l -3.67,12.894 c -0.235,1 -0.887,1.5 -1.954,1.5 h -6.132 c -1.236,0 -1.71,-0.61 -1.422,-1.832 l 16.723,-55.396 c 0.344,-1.067 1.062,-1.6 2.154,-1.6 m 51.052,59.665 c -6.667,0 -11.594,-1.645 -14.782,-4.937 -3.19,-3.29 -4.784,-8.284 -4.784,-14.978 v -38.158 c 0,-1.06 0.545,-1.59 1.638,-1.59 h 5.518 c 1.147,0 1.722,0.53 1.722,1.59 v 37.405 c 0,4.35 0.833,7.572 2.5,9.664 1.666,2.092 4.395,3.138 8.188,3.138 3.793,0 6.52,-1.046 8.188,-3.138 1.667,-2.092 2.5,-5.314 2.5,-9.665 v -37.406 c 0,-1.06 0.544,-1.59 1.638,-1.59 h 5.6 c 1.092,0 1.64,0.53 1.64,1.59 v 38.158 c 0,13.278 -6.523,19.916 -19.566,19.916 m 61.039,-15.731 c 0,5.188 -1.725,9.08 -5.172,11.673 -3.448,2.594 -8.274,3.89 -14.48,3.89 -5.746,0 -10.256,-0.642 -13.532,-1.924 -1.09,-0.502 -1.55,-1.172 -1.38,-2.01 l 1.21,-4.266 c 0.285,-1.172 0.974,-1.534 2.067,-1.088 3.1,1.117 6.722,1.674 10.858,1.674 7.642,0 11.464,-2.707 11.464,-8.123 0,-2.455 -0.848,-4.494 -2.542,-6.112 -1.694,-1.618 -4.406,-3.43 -8.138,-5.443 l -5.418,-3.154 c -1.45,-0.845 -2.908,-1.978 -4.373,-3.4 -1.464,-1.424 -2.556,-3.07 -3.274,-4.938 -0.72,-1.87 -1.077,-3.975 -1.077,-6.318 0,-10.153 6.118,-15.23 18.357,-15.23 4.77,0 8.734,0.586 11.895,1.757 1.148,0.448 1.607,1.117 1.38,2.01 l -1.207,4.183 c -0.288,1.06 -1.007,1.395 -2.156,1.004 -2.587,-0.836 -5.66,-1.254 -9.223,-1.254 -3.564,0 -6.134,0.602 -7.714,1.807 -1.58,1.204 -2.37,3.15 -2.37,5.836 0,1.232 0.227,2.367 0.684,3.403 0.455,1.035 1.253,2.03 2.395,2.98 1.14,0.953 2.153,1.69 3.036,2.212 0.883,0.523 2.21,1.306 3.98,2.352 1.963,1.16 3.497,2.068 4.603,2.72 1.105,0.655 2.407,1.565 3.905,2.734 1.497,1.17 2.62,2.31 3.37,3.423 0.748,1.115 1.41,2.506 1.986,4.175 0.578,1.672 0.866,3.48 0.866,5.428 M 398.555,285.96 c 2.65,0 5.304,-0.56 7.955,-1.675 0.974,-0.335 1.623,0.056 1.948,1.17 l 1.38,4.102 c 0.215,0.725 -0.217,1.367 -1.3,1.924 -2.813,1.564 -6.574,2.344 -11.28,2.344 -7.416,0 -12.948,-2.397 -16.6,-7.196 -3.654,-4.797 -5.48,-12.47 -5.48,-23.012 0,-10.487 1.798,-18.144 5.398,-22.97 3.598,-4.825 9.05,-7.24 16.356,-7.24 4.22,0 7.9,0.754 11.04,2.26 1.135,0.503 1.568,1.145 1.298,1.925 l -1.3,4.1 c -0.324,1.062 -0.973,1.424 -1.947,1.09 -2.382,-1.005 -4.98,-1.507 -7.792,-1.507 -5.086,0 -8.766,1.703 -11.038,5.105 -2.274,3.403 -3.41,9.15 -3.41,17.238 0,8.09 1.164,13.836 3.49,17.24 2.327,3.402 6.09,5.103 11.283,5.103 m 25.341,-5.106 c 1.975,3.514 5.072,5.27 9.293,5.27 4.222,0 7.318,-1.756 9.295,-5.27 1.974,-3.515 2.963,-9.232 2.963,-17.155 0,-7.977 -0.99,-13.737 -2.963,-17.28 -1.977,-3.542 -5.073,-5.313 -9.295,-5.313 -4.22,0 -7.318,1.77 -9.293,5.313 -1.977,3.543 -2.963,9.303 -2.963,17.28 0,7.923 0.986,13.64 2.963,17.155 m -6.25,-40.167 c 3.49,-4.854 8.67,-7.28 15.543,-7.28 6.873,0 12.055,2.426 15.545,7.28 3.49,4.854 5.235,12.524 5.235,23.012 0,10.49 -1.745,18.132 -5.235,22.928 -3.49,4.8 -8.7,7.197 -15.625,7.197 -6.818,0 -11.974,-2.412 -15.464,-7.24 -3.49,-4.823 -5.235,-12.453 -5.235,-22.885 0,-10.488 1.747,-18.158 5.236,-23.012 m 81.403,-4.938 v 55.647 c 0,1.118 -0.542,1.674 -1.628,1.674 h -5.127 c -0.976,0 -1.654,-0.414 -2.034,-1.242 l -20.673,-41.85 v 41.42 c 0,1.117 -0.488,1.673 -1.462,1.673 h -5.113 c -1.03,0 -1.543,-0.555 -1.543,-1.673 v -55.563 c 0,-1.06 0.51,-1.59 1.53,-1.59 h 5.08 c 1.022,0 1.72,0.402 2.096,1.203 l 20.678,42.043 v -41.65 c 0,-1.064 0.512,-1.596 1.54,-1.596 h 5.033 c 1.083,0 1.625,0.502 1.625,1.507 m 46.858,-0.003 v 55.647 c 0,1.118 -0.544,1.674 -1.63,1.674 h -5.127 c -0.976,0 -1.654,-0.414 -2.034,-1.242 l -20.676,-41.85 v 41.42 c 0,1.117 -0.486,1.673 -1.46,1.673 h -5.114 c -1.028,0 -1.542,-0.555 -1.542,-1.673 v -55.563 c 0,-1.06 0.51,-1.59 1.532,-1.59 h 5.078 c 1.02,0 1.72,0.402 2.096,1.203 l 20.678,42.043 v -41.65 c 0,-1.064 0.513,-1.596 1.54,-1.596 h 5.034 c 1.082,0 1.624,0.502 1.624,1.507 m 36.226,31.043 h -18.67 v 18.493 h 19.644 c 1.08,0 1.62,0.5 1.62,1.505 v 4.603 c 0,1.117 -0.54,1.673 -1.62,1.673 h -26.38 c -1.032,0 -1.544,-0.555 -1.544,-1.672 v -55.564 c 0,-1.06 0.512,-1.59 1.543,-1.59 h 26.134 c 1.082,0 1.625,0.53 1.625,1.59 v 4.603 c 0,1.116 -0.544,1.673 -1.626,1.673 h -19.4 v 17.155 h 18.67 c 0.975,0 1.462,0.557 1.462,1.673 v 4.184 c 0,1.117 -0.487,1.674 -1.462,1.674 M 613.1,285.96 c 2.65,0 5.302,-0.56 7.954,-1.675 0.974,-0.335 1.623,0.056 1.947,1.17 l 1.38,4.102 c 0.217,0.725 -0.216,1.367 -1.297,1.924 -2.814,1.564 -6.575,2.344 -11.283,2.344 -7.414,0 -12.946,-2.397 -16.6,-7.196 -3.652,-4.797 -5.478,-12.47 -5.478,-23.012 0,-10.487 1.8,-18.144 5.398,-22.97 3.598,-4.825 9.05,-7.24 16.356,-7.24 4.22,0 7.9,0.754 11.04,2.26 1.136,0.503 1.567,1.145 1.297,1.925 l -1.298,4.1 c -0.325,1.062 -0.975,1.424 -1.948,1.09 -2.382,-1.005 -4.98,-1.507 -7.793,-1.507 -5.087,0 -8.766,1.703 -11.038,5.105 -2.274,3.403 -3.41,9.15 -3.41,17.238 0,8.09 1.164,13.836 3.49,17.24 2.327,3.402 6.088,5.103 11.283,5.103 m 15.535,-45.357 v -4.77 c 0,-1.058 0.513,-1.59 1.542,-1.59 h 30.357 c 1.08,0 1.623,0.532 1.623,1.59 v 4.77 c 0,1.06 -0.542,1.59 -1.623,1.59 h -10.958 v 49.204 c 0,1.117 -0.542,1.674 -1.623,1.674 h -5.195 c -1.028,0 -1.542,-0.557 -1.542,-1.674 v -49.204 h -11.04 c -1.028,0 -1.54,-0.53 -1.54,-1.59"
       fill="#272350"
       id="path220" />
    <path
       d="m 587.37,153.99 c 0,-2.314 1.876,-4.19 4.19,-4.19 2.313,0 4.19,1.876 4.19,4.19 0,2.314 -1.877,4.19 -4.19,4.19 -2.314,0 -4.19,-1.876 -4.19,-4.19 m 14.393,0 c 0,-2.314 1.876,-4.19 4.19,-4.19 2.314,0 4.19,1.876 4.19,4.19 0,2.314 -1.876,4.19 -4.19,4.19 -2.314,0 -4.19,-1.876 -4.19,-4.19"
       fill="#e53750"
       id="path222" />
  </g>
</svg>
