<svg xmlns="http://www.w3.org/2000/svg" height="50" width="50" viewBox="0 0 516.693 628.693"><path d="M4.303 234.439H60.34v17.717H23.806v20.603h31.041v17.718h-31.04v40.106H4.302V234.44m69.225 26.92h17.718v6.73c4.532-4.67 10.301-8.104 18.13-8.104 2.198 0 4.395.412 6.044.961v18.27c-2.061-.552-4.396-.964-7.692-.964-8.516 0-14.01 4.671-16.482 8.928v43.403H73.528v-69.225m75.542 57.276c7.691 0 13.186-3.982 16.757-9.477v-8.378l-15.52 2.609c-7.005 1.237-9.752 3.984-9.752 8.104 0 4.394 3.296 7.142 8.515 7.142zm-25.547-6.318c0-10.713 7.966-18.68 22.525-21.29l19.779-3.296v-1.923c0-7.28-5.219-11.95-12.91-11.95-6.32 0-11.813 3.022-14.972 8.38l-12.911-9.89c6.318-8.378 16.206-13.735 28.569-13.735 19.778 0 29.804 12.086 29.804 27.195v44.776h-17.58v-6.456c-4.395 5.495-12.224 9.203-19.916 9.203-13.323 0-22.388-7.965-22.388-21.014m77.879-50.958h17.718v5.22c4.808-4.532 11.125-7.966 20.054-7.966 15.245 0 27.057 10.3 27.057 30.767v41.204H248.65v-40.518c0-9.202-5.081-15.108-13.735-15.108-8.79 0-13.323 6.043-15.795 10.3v45.326h-17.718v-69.225m131.446 47.387 14.01 10.713c-6.456 8.516-16.757 13.872-29.53 13.872-23.625 0-37.91-17.168-37.91-37.36 0-20.19 14.285-37.358 37.91-37.358 12.773 0 23.074 5.357 29.53 13.873l-14.01 10.713c-3.296-4.808-8.379-8.241-15.384-8.241-11.536 0-20.053 8.927-20.053 21.014 0 12.225 8.517 21.015 20.053 21.015 6.73 0 12.088-3.434 15.384-8.241m41.89-23.35h30.768c-.412-6.317-5.495-12.086-15.11-12.086-4.944 0-8.788 1.51-11.673 4.531-1.786 1.924-3.16 4.122-3.984 7.555zm19.23 47.935c-24.585 0-38.32-17.168-38.32-37.36 0-20.327 12.773-37.358 36.26-37.358 18.542 0 30.904 13.049 30.904 31.041 0 3.846-.412 7.692-1.099 9.89H373.78c1.098 11.4 8.927 18.128 20.602 18.128 7.692 0 13.871-3.157 17.443-8.24l12.361 10.027c-6.591 8.653-17.169 13.872-30.216 13.872" fill="#283a7f"/><path d="M85.392 401.684h30.766c-.412-6.317-5.494-12.086-15.108-12.086-4.945 0-8.79 1.51-11.676 4.532-1.784 1.922-3.158 4.12-3.982 7.554zm19.229 47.936c-24.586 0-38.322-17.169-38.322-37.359 0-20.327 12.774-37.36 36.262-37.36 18.542 0 30.904 13.049 30.904 31.04 0 3.847-.413 7.692-1.1 9.89H84.43c1.099 11.4 8.928 18.13 20.603 18.13 7.692 0 13.872-3.158 17.444-8.242l12.361 10.028c-6.593 8.653-17.169 13.873-30.217 13.873m42.553-71.971h17.718v6.73c4.532-4.67 10.301-8.105 18.13-8.105 2.197 0 4.395.412 6.043.961v18.27c-2.06-.551-4.395-.962-7.692-.962-8.515 0-14.01 4.67-16.481 8.928v43.403h-17.718v-69.225m65.406 0 17.993 49.308 17.855-49.308h18.68l-25.135 69.225h-22.937l-25.137-69.225h18.681m64.005 0h17.718v69.225h-17.718zm-2.61-22.526c0-6.044 5.22-11.263 11.4-11.263s11.402 5.219 11.402 11.263c0 6.318-5.22 11.4-11.401 11.4-6.182 0-11.4-5.082-11.4-11.4m88.314 69.911 14.01 10.713c-6.456 8.516-16.756 13.873-29.53 13.873-23.625 0-37.908-17.169-37.908-37.359 0-20.191 14.283-37.36 37.908-37.36 12.774 0 23.074 5.357 29.53 13.871l-14.01 10.716c-3.295-4.81-8.378-8.242-15.383-8.242-11.537 0-20.053 8.927-20.053 21.015 0 12.224 8.516 21.013 20.053 21.013 6.73 0 12.088-3.433 15.383-8.24m41.892-23.35h30.766c-.41-6.317-5.493-12.086-15.108-12.086-4.945 0-8.789 1.51-11.674 4.532-1.785 1.922-3.16 4.12-3.984 7.554zm19.229 47.936c-24.585 0-38.32-17.169-38.32-37.359 0-20.327 12.774-37.36 36.26-37.36 18.542 0 30.904 13.049 30.904 31.04 0 3.847-.412 7.692-1.098 9.89h-47.935c1.097 11.4 8.928 18.13 20.602 18.13 7.69 0 13.872-3.158 17.444-8.242l12.36 10.028c-6.593 8.653-17.168 13.873-30.217 13.873m51.096-23.9c4.258 5.358 9.478 9.203 15.52 9.203 5.358 0 8.518-2.748 8.518-6.868 0-10.574-31.867-7.14-31.867-31.864 0-12.363 10.302-21.29 24.723-21.29 10.713 0 20.053 5.082 25.273 11.813L505.137 397.7c-3.572-4.67-8.241-8.103-13.187-8.103-5.63 0-8.103 2.746-8.103 5.769 0 10.438 31.865 7.141 31.865 31.728-.273 14.559-11.949 22.525-24.998 22.525-12.36 0-21.014-4.945-27.744-12.636l11.537-11.265m-462.97 0c4.258 5.359 9.478 9.204 15.52 9.204 5.358 0 8.517-2.748 8.517-6.868 0-10.574-31.865-7.14-31.865-31.864 0-12.363 10.302-21.29 24.723-21.29 10.712 0 20.053 5.082 25.272 11.813L42.167 397.7c-3.572-4.67-8.241-8.103-13.185-8.103-5.633 0-8.104 2.746-8.104 5.769 0 10.438 31.864 7.141 31.864 31.728-.274 14.559-11.95 22.525-24.997 22.525-12.362 0-21.015-4.945-27.746-12.636l11.538-11.265" fill="#ed1c24"/><path d="M154.676 134.38c-.353-.355 1.064 0 1.417-.71h-2.833c-.356 0-.356-.354-.356-.709-1.772.355-3.897 1.064-5.67 1.419-2.48.708-4.607 2.48-7.441 3.19-3.9 1.417-7.088 4.606-11.34 6.023-.356 0-.356-.353-.356-.708.356-1.064 1.773-1.417 2.48-2.481 0-.355 0-.71-.353-.71 2.836-3.897 6.733-6.023 10.278-9.213v-1.064c1.062-1.417 2.834-2.126 3.544-3.898.353-1.063 1.77-2.48 3.544-3.188-.356-.356-1.064-.356-1.064-1.064-1.418 0-2.835.708-4.254-.355.662-.66 1.42-1.025 2.223-1.258a1.287 1.287 0 0 1-.804-.514c-.355-.708.684-1.5 1.772-1.772 1.417-.354 3.19-.354 4.252-1.417-2.481-.355-5.316.71-7.797-.71 1.773-4.606 4.608-8.504 8.86-10.63.354 0 1.064 0 1.064.354 0 1.772-1.063 3.189-2.835 3.544 2.835.709 5.67.709 8.505 2.126-.355.71-1.064.354-1.419.354 1.774 1.064 3.9.356 5.671 1.773-1.063 1.063-2.125 0-3.19 0 10.988 3.19 22.683 5.67 31.896 12.757-7.796 3.898-15.948 5.67-24.453 7.442-1.062 0-1.772 0-2.836-.353 0 .353 0 1.063-.353 1.063-1.417 0-2.481 0-3.543.709-1.418.708-3.545 1.063-4.609 0zm-7.256 24.651c-.029.022-.06.042-.089.062-1.327.934-2.648 1.888-4.047 2.7-1.514.878-3.102 1.548-4.674 2.294a.385.385 0 0 0-.045-.086.468.468 0 0 0-.6-.143c-1.34.727-2.483 1.684-3.567 2.716a36.9 36.9 0 0 0-.492.477l-.03.028-.027.028a59.37 59.37 0 0 0-.503.502 1.456 1.456 0 0 0-.06.058c-.01.01-.012.022-.022.032-.251.25-.495.504-.77.83-.178.209-.239.338-.474.495-.22.146-.83.143-.773-.265.003-.024.001-.047.004-.07-.209.111-.418.22-.629.322-.195.093-.373.2-.554.304a.579.579 0 0 0-.244-.036.442.442 0 0 0-.255.087 22.983 22.983 0 0 0-1.28 1.078 18.282 18.282 0 0 0-2.057 2.187c-.012.01-.02.021-.032.033l-.069.098c-.036.045-.071.09-.106.137-.036.048-.076.096-.113.145-.01.016-.023.03-.034.044-.084.116-.16.236-.241.354l-.014.021a.524.524 0 0 1-.29.139c-.047-.071-.098-.139-.142-.211-.035-.056-.066-.115-.1-.17a8.884 8.884 0 0 1-.302-.57l-.01-.02-.085-.177a26.627 26.627 0 0 0 1.185-1.362c.124-.15.247-.3.368-.454a75.742 75.742 0 0 0 .594-.758c.071-.094.145-.188.217-.28a43.234 43.234 0 0 0 1.134-1.535 16.788 16.788 0 0 0 .639-.984 12.4 12.4 0 0 0 .388-.708c.008-.018.019-.035.028-.052l.037-.074c.021-.044.037-.09.058-.132a9.14 9.14 0 0 0 .336-.826c.012-.031.021-.062.032-.092.027-.078.054-.154.079-.232.04-.128.077-.26.11-.391l.002-.003c.007-.028.012-.057.02-.085.043-.172.09-.34.123-.52a.349.349 0 0 0-.043-.239c.38-.665.86-1.305 1.405-1.913-.053.033-.11.06-.163.093-.506.326-.843.783-1.316 1.136-.385.288-1.097-.189-.639-.532.31-.232.548-.485.806-.73.013-.019.02-.038.039-.058.583-.574 1.14-1.312 1.805-1.798.409-.298.761-.546 1.091-.832.053-.046.104-.094.156-.142.245-.325.513-.618.793-.893.012-.012.023-.025.036-.035 3.392-3.274 9.102-3.129 13.576-5.215 1.772-.71 3.897.354 5.67 0 1.063 0 2.125 0 3.188.709-3.182 1.736-6.125 3.693-9.028 5.514zm6.35 2.93c-.16.388-.52.724-.872 1.033.442.09.753.285.467.548-.823.755-1.607 1.512-2.687 1.875-.075.025-.29.058-.544.074-.434.42-.871.838-1.323 1.239-.42.373-2.368.103-1.773-.425.9-.798 1.733-1.663 2.62-2.472.5-.459 1.03-.898 1.473-1.412.247-.286.45-.566.763-.786.289-.204 2.163-.37 1.875.326zm-16.459-53.098c-.354.71-.745.784-1.062 1.418-.355.708-.71 1.064-1.418 1.418-.354 0-.709 0-.709-.354.355-1.419 1.417-2.836 2.835-3.191.354 0 .354.355.354.71zm-29.414 23.39s-.354-.354-.354-.709c4.607-6.025 8.15-11.694 11.34-18.074 4.608-2.481 8.432-6.092 12.05-9.923 6.024-6.38 12.403-12.049 19.846-15.592 2.834-1.063 6.378-.71 9.214.354-1.064 1.417-2.836 1.063-4.253 2.127-.355 0-.71 0-1.064-.356.355-.354.355-.708.355-1.063-3.544 3.899-8.505 5.67-11.34 10.277-2.127 3.544-3.544 8.152-8.152 9.215-1.417.354.355-1.063-.354-.708-10.986 6.732-18.783 14.883-27.288 24.452zm54.223 7.796c-.71 0-2.127.355-1.773-.354.354-1.771 2.834-1.771 4.253-2.48.71-.355 1.77-1.063 2.48-.71.71 1.064 1.772.71 2.482 1.419-2.128 2.125-4.962 1.063-7.442 2.125zm54.497 25.388c2.012-2.014 4.045-4.174 6.065-6.344h-.044c3.767-4.26 7.455-8.323 11.82-12.064 1.33-1.188 2.62-2.235 3.855-3.081.354-.355.354-1.063.709-1.418-1.772.71-2.836 2.127-4.608 2.835-.355 0-.708-.353-.355-.708 1.263-.947 2.526-1.893 3.787-2.841-.077.005-.16.005-.241.005-.355 0-.355-.353-.355-.708-4.608-.71-8.152 2.48-11.341 5.316-.71.353-1.417-.355-1.772-.355-5.316 1.772-9.214 6.379-14.53 8.506v-.71c-2.126.71-4.19 1.995-6.379 2.481-3.19.71-6.025.355-8.86.355-4.295.43-8.59 1.376-12.886 2.293-.123.032-.25.06-.37.094a29.935 29.935 0 0 0-6.604 2.66 7.12 7.12 0 0 0-.242.14c-.176.221-.349.434-.513.613-.761.837-1.419 1.605-2.43 2.12-2.18 1.11-3.955 3.04-5.876 4.605-.14.113-.348.168-.57.181-1.9 1.823-3.776 3.672-5.706 5.463-.138.127-.686.197-1.083.13.01-.011.023-.02.03-.033.067-.113.137-.224.205-.337.298-.5.602-.999.908-1.495a66.2 66.2 0 0 1 1.052-1.646 41.04 41.04 0 0 1 1.506-2.158c.139-.182.102-.345-.012-.465a.67.67 0 0 0-.489-.184c1.768-1.716 3.87-3.178 5.948-4.44l-.002-.06c-.236.082-.58-.108-.4-.357.224-.313.4-.648.611-.967.04-.104.076-.209.113-.316-.088-.093-.178-.185-.268-.278-.57.373-1.18.725-1.665 1.164-.848.764-1.512 2.326-2.798 2.312a2.175 2.175 0 0 1-.538-.078 1.035 1.035 0 0 1-.372-.125l.046-.083.053-.097.052-.092c.055-.101.11-.203.168-.304l.168-.307c.048-.081.09-.164.136-.245.085-.15.167-.301.252-.45.061-.107.125-.213.187-.32.15-.262.304-.522.456-.782.073-.125.146-.252.22-.376.126-.215.248-.43.376-.645.176-.294-.008-.536-.266-.634a8.122 8.122 0 0 1 2.427-2.114h-.107c1.356-.683 2.713-1.512 4.07-2.275.194-.17.389-.341.586-.507-2.023.68-3.84 1.598-5.637 2.782 0 0-.467.19-.599.322 0 0-.408.154-.884-.322a.415.415 0 0 1-.085-.26c.356-.71 1.419-1.064 2.127-1.772.354 0 .708 0 .708.354 11.34-8.86 26.935-6.734 40.048-11.34 1.062-.71 2.125-1.418 3.188-2.127 1.772-.708 3.189-2.48 5.316-3.544 2.836-2.127 4.96-4.607 6.025-8.15 0-.355-.355-.71-.355-.71A54.578 54.578 0 0 1 205 143.24c-7.442 3.898-15.593 3.19-23.39 4.252.355-.71 1.064-.71 1.772-.71 0-1.062.71-1.417 1.419-2.125h1.062c.355 0 .355-.71.708-.71.71 0 1.772-.354 1.419-.354-1.064-1.417-3.19 1.064-4.963 0 .71-.708.355-1.772 1.064-2.125h1.418c0-.71.709-1.419.709-1.419 5.316-3.189 10.277-5.669 15.238-8.505-1.062 0-1.772 1.064-2.836.355.71 0 0-1.063.71-1.063 3.898-1.064 7.089-3.19 10.986-4.606-1.417 0-2.481 1.06-3.897 0 .708-.356 1.062-1.064 2.125-1.064v-1.063c0-.355.355-.355.71-.355-.355 0-.71-.354-.71-.354.355-.71 1.417-.355 2.127-1.063-.355 0-1.064 0-1.064-.356 1.064-1.417 2.836-1.772 4.608-2.125-.355-.71-1.419 0-1.419-.71 0-.353.355-.353.71-.353h-.71c-.708-.355-.353-1.064-.353-1.419 2.125-2.48 2.125-5.669 3.188-8.505-.354 0-.708 0-.708-.354-3.544 3.898-9.215 5.316-14.53 6.733h-1.773c-1.772.71-4.252.71-6.023-.355-1.418-.708-2.127-1.77-3.544-2.834-2.835-1.772-5.67-3.19-8.86-4.252-8.86-2.836-18.073-4.254-27.289-3.899 3.899-2.126 8.199-2.308 12.405-3.544 6.024-1.772 11.695-3.898 18.073-3.544-1.063-.354-2.48 0-3.544 0-4.961-.354-9.922 1.063-15.238 2.127-3.544.708-6.733 2.125-10.277 2.835-2.127.709-3.19 2.835-5.67 2.48v-1.063c3.543-4.252 7.795-8.505 13.467-8.86 6.377-1.063 12.402 0 18.782.71 4.607.354 8.859 1.417 13.466 2.48 1.772 0 2.127 2.835 3.544 3.19 2.126.708 4.254 0 6.379 1.417 0-.71-.355-1.417 0-2.126 1.417-1.418 3.19.354 4.608-.355 2.834-1.772-2.48-4.961-3.899-7.441 0-.355.354-.71.354-.71 2.835 2.48 4.962 5.316 8.506 7.088 1.77.708 6.024 1.772 5.315-.354-1.771-3.899-5.315-7.088-8.15-10.632v-1.417c-.709 0-.709-.355-1.064-.71v-1.417c-1.417-.71-1.062-2.127-1.772-3.19-1.062-1.771-.354-4.253-1.062-6.38-.708-2.124-1.063-3.898-1.419-6.023-1.062-6.025-2.48-11.341-3.19-17.012-.707-6.731 3.9-12.049 7.089-18.072 2.481-4.254 5.316-8.507 9.924-11.341 1.062-4.254 3.898-7.796 6.733-11.34 2.829-3.46 7.533-5.567 10.938-7.09 4.95-2.21 9.417-3.593 9.42-3.594H4.302v187.54h171.344c6.747-4.858 13.485-7.166 22.904-11.806 4.445-2.192 14.62-6.864 18.067-10.311" fill="#283a7f"/><path d="M516.674.014H317.4c.003 0 .381.063 1.916.887 1.637.878 3.757 2.012 5.09 2.708 2.6 1.36 5.128 3.064 6.758 5.671.708 1.063 1.772 3.19 1.062 4.607-.709 1.77-1.062 4.607-2.834 5.316-2.127 1.063-4.963 1.063-7.443.708-1.417 0-2.834-.355-4.253-.708 5.315 2.127 10.277 4.608 13.821 9.568.355.709 1.772 1.064 3.19 1.064.354 0 .354.708.354 1.062-.71.71-1.417 1.064-1.063 2.127h1.063c1.773-.71 1.417-4.253 3.899-3.19 1.771 1.063 2.48 3.545 1.418 5.317-1.418 1.417-2.836 2.48-4.254 3.542-.354.71-.354 1.773 0 2.481 1.064 1.418 1.418 2.836 1.772 4.254 1.064 2.48 1.418 5.315 2.482 7.795 1.416 5.316 2.835 10.633 2.479 15.948 0 2.836-1.416 5.316-.354 8.152.71 2.834 2.482 4.961 3.899 7.442 1.417 2.127 2.835 3.544 3.899 5.67 2.125 3.543 6.023 7.087 4.251 11.34-1.062 2.48-4.96 2.127-7.44 3.544-2.127 1.772-.355 4.607.707 6.38 1.772 3.188-2.126 5.315-4.606 6.379.708 1.062 2.125.71 2.48 1.417.354 1.772 2.126 2.836 1.064 4.608-1.419 2.127-5.67 3.188-3.544 6.378 1.416 2.48.498 5.236-.356 7.796-1.063 3.19-3.897 4.608-6.379 5.316-2.126.71-4.606.71-6.733.355-.708-.355-1.417-.708-2.127-.708-6.023-.71-12.049-2.481-18.072-2.481-1.772.354-3.544.709-4.962 1.417a31.454 31.454 0 0 0-4.292 3.794l-.04.046a28.929 28.929 0 0 0-1.23 1.401c-.101.123-.203.244-.301.367a33.418 33.418 0 0 0-2.947 4.354 34.203 34.203 0 0 0-2.957 6.998c-2.41 8.117-1.356 15.079.336 16.77.469.47 11.695 3.936 19.517 7.415 3.669 1.632 6.234 2.89 8.363 4.232h195.64V.014" fill="#ed1c24"/><path d="M329.4 68.43c1.417.354 3.544.354 3.544 1.062-.71 2.836-4.963 3.544-7.09 6.381h-1.063c-1.063.708-.708 2.48-1.771 2.48-1.065-.353-2.128 0-3.19.355 1.418 1.417 3.19 2.481 5.315 2.125.358 0 1.064.711 1.064 1.42 0 0 .354 0 .708-.356.356 0 .71 0 .71.356v1.418c-1.064 1.417-2.836.706-4.252 1.062 2.834.71 5.671.71 8.149 0 2.128-.708 0-4.253 1.42-6.025-.71 0 0-1.063-.71-1.063.71-.709 1.418-1.772 2.127-2.126.71 0 1.77-.355 2.125-1.065 0-.707-1.416-1.062-1.062-1.771 2.126-1.416 3.898-3.544 3.19-5.67-.356-1.063-3.19-1.063-4.962-1.771-1.772-.71-3.899 0-6.024.353-1.773 0-3.545 1.064-5.317 1.417-2.48.71-4.607 2.127-6.735 3.544 2.484-1.064 4.964-1.417 7.799-2.126 2.128 0 3.931-.523 6.025 0" fill="#918f90"/><path d="m2.461 544.977.054.168c-.718.135-.81.135-.524.918l.292.805h.794c.357 0 .362-.145.308-.535h.206l.475 1.302h-.205c-.179-.307-.319-.534-.708-.534H2.37l.416 1.14c.13.361.205.437.691.437h.346c.502 0 .562-.135.562-.643h.2l.167.886H1.77l-.054-.167c.578-.119.632-.173.362-.919l-.648-1.772c-.27-.74-.384-.8-1.049-.918l-.048-.168ZM6.6 547.15c.102.351.048.66-.222.66-.318 0-.4-.244-.724-.94v.399c0 .287-.092.54-.35.54-.303 0-.579-.47-.79-.934h.14c.147.21.282.335.39.335.13 0 .2-.2 0-.643l-.584-1.297c-.108-.243.006-.4.243-.4.146 0 .211.038.27.195l.573 1.518c.162.2.308.373.492.567zm2.626.784-.227.016-.254-.249H8.69c-1.232 0-2.297-1.383-2.297-2.388 0-.28.173-.443.443-.443.32 0 .633.454.984.94l-.017-.172c-.043-.497.108-.768.368-.768.302 0 .578.47.789.935h-.14c-.147-.21-.282-.335-.39-.335-.113 0-.194.206 0 .643zm-2.275-2.221c0 .665.74 1.567 1.156 1.567a.92.92 0 0 0 .254-.032l-.432-1.151c-.249-.303-.632-.67-.81-.67-.103 0-.168.086-.168.286m2.728 1.68h.497l-.789-2.155c-.07-.184.028-.368.216-.368.449 0 1.173.443 1.427 1.048h-.14c-.2-.21-.584-.491-.914-.55l.724 2.025h.74l.092.308h-.718l.275.778h-.286l-.513-.778-.61-.086Zm3.528-1.48h-.184c-.232-.275-.48-.492-.729-.492-.254 0-.383.152-.383.492 0 .14.016.28.043.41l1.496.492c.292.692-.06.994-.47.994-.708 0-1.512-1.183-1.512-2.22 0-.465.22-.719.567-.719.405 0 .826.395 1.172 1.043m-.513 1.496c.2 0 .373-.15.28-.534l-.928-.216c.162.432.432.75.648.75m3.317-.259c.103.351.049.66-.221.66-.32 0-.4-.244-.724-.94v.399c0 .287-.092.54-.352.54-.302 0-.578-.47-.788-.934h.14c.146.21.281.335.39.335.129 0 .2-.2 0-.643l-.584-1.297c-.108-.243.005-.4.243-.4.146 0 .21.038.27.195l.573 1.518c.162.2.308.373.491.567zm.01-1.88c-.107-.243.006-.4.244-.4.146 0 .21.038.27.195l.573 1.518c.265.324.81.67 1.026.67.157 0 .136-.13.033-.324l-.88-1.691a.249.249 0 0 1 .215-.368c.432 0 .946.39 1.151.935h-.14c-.14-.2-.379-.421-.6-.46l.756 1.53c.098.194.146.378.146.524 0 .248-.14.41-.4.41-.373 0-.75-.421-1.199-.94v.4c0 .287-.092.54-.351.54-.162 0-.319-.14-.465-.34v-.054c.281.016.405-.405.205-.848zm4.76 3.307a.356.356 0 0 1 .357.356.36.36 0 0 1-.356.357.356.356 0 0 1-.357-.357c0-.2.157-.356.357-.356m-.152-1.081c.06.2-.075.313-.178.313-.432 0-.945-.389-1.15-.934h.14c.14.2.378.421.6.459l-.827-2.15c-.076-.2.075-.314.178-.314.41 0 .892.395 1.097.935h-.14c-.141-.2-.379-.421-.6-.46zm.67-.103h.497l-.789-2.155c-.07-.184.027-.368.217-.368.448 0 1.172.443 1.426 1.048h-.14c-.2-.21-.584-.491-.914-.55l.724 2.025h.74l.092.308h-.718l.275.778h-.286l-.513-.778-.61-.086zm3.23.692 1.055.983v.114h-.568l-.648-1.097zm.298-2.172h-.184c-.232-.275-.48-.492-.729-.492-.254 0-.384.152-.384.492 0 .14.017.28.044.41l1.496.492c.292.692-.06.994-.47.994-.708 0-1.513-1.183-1.513-2.22 0-.465.222-.719.568-.719.405 0 .826.395 1.172 1.043m-.513 1.496c.2 0 .373-.15.28-.534l-.929-.216c.163.432.433.75.649.75M3.53 555.94l1.054.724v.113h-.638l-.583-.837Zm-.432-2.264c.357 0 .362-.146.308-.535h.205l.476 1.302h-.206c-.178-.308-.318-.535-.707-.535H2.39l.395 1.086c.13.362.205.432.691.432h.346c.502 0 .562-.135.562-.637h.2l.167.886H1.77l-.054-.168c.578-.119.632-.173.362-.918l-.648-1.772c-.27-.74-.384-.8-1.049-.919l-.048-.167H3.65l.594.94h-.227c-.378-.357-.853-.697-1.518-.697-.88 0-.8.038-.508.843l.314.859zm3.776-2.313c0 .346-.308.47-.81.622-.432.13-.627.167-.627.308 0 .113.092.248.276.346.708.037 1.167.675 1.167 1.21a.73.73 0 0 1-.06.297h.6l.092.308h-.95a.733.733 0 0 1-.384.108c-.752 0-1.238-.66-1.238-1.194 0-.405.26-.66.573-.719-.351-.156-.546-.34-.546-.556a.34.34 0 0 1 .146-.292c-.81-.238-1.13-.508-1.13-.891 0-.373.493-.53 1.076-.53.989 0 1.815.535 1.815.983m-1.172 1.48c-.178 0-.249.152-.249.325 0 .48.26 1.188.665 1.188.178 0 .249-.15.249-.324 0-.48-.26-1.188-.665-1.188m-1.118-1.745c0 .286.275.464.67.621.13-.065.324-.135.583-.222.41-.135.567-.189.567-.313 0-.265-.448-.464-1.059-.464-.513 0-.761.108-.761.378m5.5 3.587-.227.016-.254-.248H9.55c-1.232 0-2.296-1.383-2.296-2.388 0-.281.172-.443.443-.443.318 0 .632.454.983.94l-.016-.173c-.044-.497.108-.767.367-.767.302 0 .578.47.789.934h-.14c-.147-.21-.282-.335-.39-.335-.113 0-.194.206 0 .644zm-2.275-2.22c0 .664.74 1.566 1.156 1.566a.92.92 0 0 0 .254-.032l-.432-1.15c-.249-.303-.632-.67-.81-.67-.103 0-.168.086-.168.286m2.863-.368 1.508 3.95-.049.059-.945-.108v-.114l.183-.14c.168-.13.114-.254-.037-.654l-1.178-3.1a.248.248 0 0 1 .216-.368c.432 0 .891.389 1.097.934h-.14c-.141-.2-.433-.42-.655-.459m2.875 3.231a.356.356 0 0 1 .356.357.36.36 0 0 1-.356.356.356.356 0 0 1-.357-.356c0-.2.157-.357.357-.357m-.152-1.08c.06.2-.075.313-.178.313-.432 0-.946-.39-1.15-.935h.14c.14.2.378.422.6.46l-.827-2.15c-.076-.2.075-.314.178-.314.41 0 .891.394 1.097.934h-.14c-.141-.2-.379-.42-.6-.459zm.67-.103h.497l-.789-2.156c-.07-.183.028-.367.216-.367.449 0 1.173.443 1.427 1.048h-.14c-.2-.21-.584-.492-.914-.551l.724 2.026h.74l.092.308H15.2l.275.778h-.286l-.513-.778-.61-.087zm3.23.691 1.054.984v.113h-.567l-.648-1.097zm.298-2.171h-.184c-.232-.276-.48-.492-.729-.492-.254 0-.384.151-.384.492 0 .14.017.28.044.41l1.496.492c.292.691-.06.994-.47.994-.708 0-1.512-1.183-1.512-2.22 0-.465.22-.72.567-.72.405 0 .826.395 1.172 1.044m-.513 1.496c.2 0 .373-.151.28-.535l-.929-.216c.163.432.433.751.649.751m-13.355 8.266H1.759l-.054-.168c.578-.118.632-.172.362-.918l-.637-1.772c-.27-.74-.384-.8-1.049-.919l-.048-.167h2.993l.648 1.156h-.227c-.367-.405-.8-.913-1.464-.913-.502 0-.562.087-.292.843l.638 1.772c.265.74.383.8 1.048.918zm2.177-.346a.356.356 0 0 1 .356.357.36.36 0 0 1-.356.356.356.356 0 0 1-.357-.356.353.353 0 0 1 .357-.357m-.151-1.08c.059.2-.076.313-.179.313-.432 0-.945-.39-1.15-.935h.14c.14.2.378.422.6.46l-.827-2.15c-.076-.2.076-.314.178-.314.41 0 .892.394 1.097.935h-.14c-.14-.2-.379-.422-.6-.46Zm2.939-.287c0 .438-.162.6-.465.6-.378 0-.735-.4-1.091-.886l.902 2.372-.049.06-.945-.109v-.113l.183-.14c.168-.13.114-.266-.037-.655l-.973-2.506c-.07-.184-.157-.4-.157-.46 0-.259.352-.502.67-.502.735 0 1.962 1.324 1.962 2.34m-1.702-1.902c-.146 0-.357.134-.357.253 0 .038.065.206.146.416l.243.643c.26.308.654.638.875.638.135 0 .238-.086.238-.286 0-.59-.551-1.664-1.145-1.664m3.668.605h-.184c-.232-.276-.48-.492-.729-.492-.254 0-.384.151-.384.492 0 .14.017.28.044.41l1.496.492c.292.691-.06.994-.47.994-.708 0-1.513-1.183-1.513-2.22 0-.465.222-.72.568-.72.405 0 .826.395 1.172 1.044m-.513 1.496c.2 0 .373-.151.28-.535l-.929-.216c.163.432.433.751.649.751m3.317-.26c.103.352.049.66-.221.66-.32 0-.4-.243-.724-.94v.4c0 .286-.092.54-.352.54-.302 0-.578-.47-.788-.935h.14c.146.211.281.335.389.335.13 0 .2-.2 0-.643l-.583-1.296c-.108-.243.005-.4.243-.4.146 0 .21.038.27.194l.573 1.519c.162.2.308.372.491.567zm.39.244h.393l-.788-2.156c-.07-.183.027-.367.216-.367.448 0 1.172.443 1.426 1.048h-.14c-.2-.21-.584-.491-.914-.551l.724 2.026h.74l.092.308h-.718l.275.778h-.286l-.513-.778-.508-.086zm3.095.692 1.053.983v.113h-.567l-.648-1.096zm.297-2.172h-.184c-.232-.276-.48-.492-.73-.492-.253 0-.383.151-.383.492 0 .14.017.28.043.41l1.497.492c.292.691-.06.994-.47.994-.708 0-1.513-1.183-1.513-2.22 0-.465.222-.72.567-.72.406 0 .827.395 1.173 1.044m-.513 1.496c.2 0 .372-.151.28-.535l-.929-.216c.162.432.432.751.649.751" fill="#0d0906"/><path d="m18.461 627.882.405-1.256c-5.39-1.013-6.078-1.013-3.93-6.887l2.188-6.038h5.957c2.674 0 2.714 1.093 2.31 4.011h1.539l3.566-9.765h-1.54c-1.337 2.309-2.39 4.011-5.309 4.011h-5.875l3.12-8.55c.973-2.714 1.54-3.283 5.187-3.283h2.593c3.769 0 4.214 1.014 4.214 4.823h1.5l1.256-6.645H13.274l-.405 1.255c4.336.891 4.741 1.297 2.715 6.889l-4.862 13.292c-2.026 5.55-2.877 5.997-7.862 6.887l-.364 1.256ZM49.5 611.593c.769-2.633.364-4.942-1.662-4.942-2.39 0-2.998 1.823-5.43 7.05v-2.998c0-2.15-.689-4.052-2.634-4.052-2.269 0-4.335 3.524-5.916 7.009h1.054c1.094-1.58 2.107-2.512 2.917-2.512.973 0 1.5 1.5 0 4.822l-4.376 9.726c-.81 1.823.04 2.999 1.824 2.999 1.093 0 1.58-.285 2.026-1.46l4.295-11.387c1.215-1.499 2.31-2.796 3.688-4.254zm19.693-5.875-1.702-.12-1.905 1.862h-.405c-9.239 0-17.222 10.373-17.222 17.912 0 2.106 1.297 3.323 3.323 3.323 2.39 0 4.741-3.406 7.375-7.052l-.122 1.295c-.324 3.728.81 5.757 2.756 5.757 2.269 0 4.335-3.527 5.916-7.011h-1.053c-1.095 1.58-2.108 2.512-2.918 2.512-.851 0-1.46-1.542 0-4.821zm-17.06 16.655c0-4.985 5.552-11.751 8.672-11.751.689 0 1.337.08 1.904.242l-3.241 8.63c-1.864 2.271-4.742 5.026-6.08 5.026-.769 0-1.255-.648-1.255-2.146m20.463-12.605h3.728l-5.916 16.168c-.527 1.378.203 2.758 1.62 2.758 3.364 0 8.794-3.323 10.698-7.863h-1.053c-1.5 1.581-4.377 3.688-6.848 4.133l5.43-15.196h5.55l.69-2.309h-5.39l2.067-5.835h-2.147l-3.85 5.835-4.58.648Zm26.46 11.104h-1.378c-1.742 2.065-3.606 3.687-5.47 3.687-1.905 0-2.877-1.134-2.877-3.687 0-1.053.121-2.106.324-3.08l11.224-3.688c2.19-5.186-.445-7.454-3.525-7.454-5.308 0-11.345 8.873-11.345 16.653 0 3.485 1.66 5.39 4.254 5.39 3.039 0 6.2-2.958 8.793-7.82m-3.849-11.225c1.5 0 2.795 1.134 2.107 4.011l-6.97 1.62c1.216-3.24 3.242-5.63 4.863-5.63m24.88 1.943c.77-2.633.364-4.942-1.662-4.942-2.39 0-2.999 1.823-5.43 7.05v-2.998c0-2.15-.688-4.052-2.634-4.052-2.268 0-4.336 3.524-5.915 7.009h1.053c1.094-1.58 2.107-2.512 2.918-2.512.972 0 1.499 1.5 0 4.822l-4.377 9.726c-.81 1.823.041 2.999 1.823 2.999 1.095 0 1.581-.285 2.026-1.46l4.296-11.387c1.215-1.499 2.31-2.796 3.688-4.255zm.08 14.103c-.81 1.822.04 2.999 1.824 2.999 1.093 0 1.58-.285 2.026-1.46l4.295-11.387c1.986-2.43 6.078-5.025 7.7-5.025 1.174 0 1.013.973.242 2.432l-6.605 12.682c-.648 1.258.203 2.758 1.62 2.758 3.242 0 7.093-2.919 8.632-7.011h-1.054c-1.053 1.498-2.836 3.16-4.497 3.443l5.673-11.467c.73-1.459 1.093-2.837 1.093-3.93 0-1.865-1.053-3.08-2.998-3.08-2.796 0-5.632 3.16-8.995 7.051v-2.998c0-2.15-.69-4.052-2.634-4.052-1.216 0-2.391 1.053-3.485 2.552v.404c2.107-.12 3.039 3.041 1.54 6.363zm35.7-24.801a2.671 2.671 0 0 0 2.673-2.675c0-1.457-1.216-2.674-2.673-2.674a2.672 2.672 0 0 0-2.675 2.674c0 1.5 1.175 2.675 2.675 2.675M154.732 609c.445-1.5-.568-2.35-1.337-2.35-3.243 0-7.092 2.917-8.632 7.01h1.053c1.055-1.5 2.838-3.161 4.499-3.445l-6.2 16.129c-.568 1.498.567 2.35 1.337 2.35 3.08 0 6.686-2.958 8.225-7.01h-1.053c-1.053 1.498-2.836 3.16-4.498 3.443zm5.024.77h3.727l-5.916 16.167c-.527 1.378.202 2.758 1.621 2.758 3.364 0 8.793-3.323 10.698-7.863h-1.054c-1.499 1.581-4.376 3.688-6.848 4.133l5.43-15.196h5.551l.69-2.309h-5.39l2.067-5.835h-2.148l-3.85 5.835-4.578.648zm24.23-5.187 7.903-7.375v-.85h-4.255l-4.863 8.225zm2.23 16.29h-1.378c-1.743 2.065-3.607 3.687-5.47 3.687-1.906 0-2.878-1.134-2.878-3.687 0-1.053.122-2.106.324-3.08l11.224-3.688c2.19-5.186-.445-7.454-3.525-7.454-5.308 0-11.345 8.873-11.345 16.653 0 3.485 1.661 5.39 4.254 5.39 3.039 0 6.2-2.958 8.793-7.82m-3.849-11.225c1.499 0 2.796 1.134 2.107 4.011l-6.97 1.62c1.217-3.24 3.242-5.63 4.863-5.63M26.484 545.663l7.902-5.429v-.85h-4.782l-4.376 6.28Zm-3.241 16.98c2.674 0 2.714 1.093 2.309 4.012h1.54l3.566-9.766h-1.54c-1.337 2.31-2.39 4.011-5.308 4.011h-5.876l2.958-8.144c.973-2.715 1.54-3.242 5.187-3.242h2.593c3.769 0 4.214 1.013 4.214 4.78h1.5l1.256-6.644H13.274l-.405 1.256c4.336.892 4.741 1.297 2.715 6.889l-4.862 13.29c-2.026 5.552-2.877 5.997-7.862 6.89l-.364 1.256h24.88l4.457-7.051h-1.702c-2.836 2.675-6.402 5.227-11.386 5.227-6.606 0-5.997-.284-3.81-6.321l2.35-6.443zm28.324 17.343c0-2.594-2.31-3.526-6.078-4.66-3.242-.973-4.7-1.257-4.7-2.31 0-.85.688-1.863 2.066-2.593 5.308-.283 8.752-5.065 8.752-9.077 0-.85-.162-1.579-.445-2.228h4.497l.69-2.31h-7.132a5.497 5.497 0 0 0-2.877-.812c-5.633 0-9.28 4.945-9.28 8.956 0 3.039 1.945 4.944 4.295 5.39-2.634 1.175-4.092 2.552-4.092 4.174 0 .93.324 1.58 1.094 2.188-6.078 1.782-8.47 3.809-8.47 6.685 0 2.796 3.688 3.972 8.065 3.972 7.415 0 13.615-4.012 13.615-7.375m-8.794-11.103c-1.337 0-1.864-1.135-1.864-2.432 0-3.605 1.946-8.913 4.985-8.913 1.337 0 1.864 1.133 1.864 2.43 0 3.607-1.945 8.915-4.985 8.915m-8.387 13.089c0-2.15 2.067-3.486 5.024-4.66.973.485 2.432 1.012 4.376 1.662 3.08 1.012 4.255 1.417 4.255 2.348 0 1.987-3.363 3.486-7.942 3.486-3.85 0-5.713-.81-5.713-2.836m41.25-26.907-1.702-.122-1.904 1.865h-.406c-9.239 0-17.221 10.374-17.221 17.91 0 2.107 1.297 3.323 3.323 3.323 2.39 0 4.74-3.404 7.375-7.052l-.122 1.298c-.325 3.728.81 5.754 2.755 5.754 2.269 0 4.336-3.525 5.916-7.01h-1.053c-1.095 1.58-2.108 2.513-2.918 2.513-.851 0-1.458-1.541 0-4.824zm-17.06 16.654c0-4.984 5.552-11.75 8.672-11.75.689 0 1.337.08 1.904.242l-3.241 8.632c-1.864 2.268-4.741 5.025-6.078 5.025-.77 0-1.257-.65-1.257-2.15m21.476 2.757 11.306-29.621-.365-.445-7.091.81v.851l1.378 1.053c1.256.974.85 1.904-.284 4.903l-8.834 23.26c-.648 1.257.203 2.755 1.621 2.755 3.242 0 6.686-2.918 8.226-7.01h-1.054c-1.053 1.5-3.241 3.16-4.903 3.444m21.558-24.232a2.672 2.672 0 0 0 2.674-2.674c0-1.459-1.216-2.675-2.674-2.675a2.672 2.672 0 0 0-2.674 2.675c0 1.5 1.175 2.674 2.674 2.674m-1.135 8.104c.445-1.499-.568-2.35-1.337-2.35-3.243 0-7.092 2.918-8.631 7.01h1.054c1.053-1.499 2.836-3.16 4.497-3.444l-6.2 16.128c-.567 1.5.568 2.35 1.337 2.35 3.08 0 6.686-2.959 8.227-7.01h-1.054c-1.054 1.5-2.837 3.16-4.498 3.444zm5.024.77h3.728l-5.916 16.168c-.527 1.378.203 2.756 1.62 2.756 3.364 0 8.794-3.324 10.698-7.861h-1.053c-1.5 1.58-4.377 3.688-6.848 4.133l5.43-15.195h5.551l.689-2.31h-5.39l2.067-5.835h-2.148l-3.85 5.835-4.578.648zm24.231-5.186 7.901-7.375v-.852h-4.254l-4.862 8.227zm2.23 16.289h-1.379c-1.742 2.067-3.606 3.688-5.47 3.688-1.905 0-2.878-1.136-2.878-3.688 0-1.053.122-2.108.325-3.079l11.224-3.688c2.188-5.186-.445-7.457-3.525-7.457-5.308 0-11.345 8.876-11.345 16.656 0 3.484 1.66 5.39 4.254 5.39 3.039 0 6.2-2.96 8.793-7.822m-3.85-11.225c1.5 0 2.796 1.136 2.107 4.012l-6.97 1.621c1.216-3.242 3.243-5.633 4.863-5.633M27.943 497h-14.75l-.405 1.257c4.336.89 4.741 1.296 2.715 6.888l-4.781 13.292c-2.026 5.552-2.877 5.997-7.862 6.888l-.364 1.255h22.448l4.863-8.671h-1.702c-2.756 3.038-5.997 6.85-10.981 6.85-3.769 0-4.214-.65-2.188-6.322l4.781-13.292c1.985-5.55 2.877-5.997 7.862-6.888zm16.33 2.595a2.673 2.673 0 0 0 2.674-2.675c0-1.46-1.216-2.675-2.674-2.675a2.671 2.671 0 0 0-2.675 2.675 2.647 2.647 0 0 0 2.675 2.675m-1.135 8.104c.445-1.5-.568-2.351-1.337-2.351-3.243 0-7.092 2.918-8.632 7.01h1.055c1.053-1.5 2.835-3.161 4.497-3.444l-6.2 16.128c-.567 1.498.568 2.35 1.337 2.35 3.08 0 6.686-2.958 8.226-7.011h-1.053c-1.054 1.5-2.837 3.161-4.499 3.444Zm22.043 2.146c0-3.283-1.215-4.497-3.485-4.497-2.837 0-5.511 2.998-8.185 6.645l6.767-17.788-.365-.446-7.09.81v.85l1.377 1.054c1.256.972.85 1.986-.284 4.904l-7.294 18.8c-.526 1.378-1.175 3-1.175 3.445 0 1.945 2.634 3.77 5.025 3.77 5.51 0 14.71-9.929 14.71-17.547m-12.765 14.264c-1.094 0-2.675-1.012-2.675-1.904 0-.284.486-1.54 1.094-3.12l1.824-4.823c1.945-2.309 4.903-4.781 6.564-4.781 1.013 0 1.783.648 1.783 2.148 0 4.417-4.133 12.48-8.59 12.48m27.513-4.539h-1.378c-1.742 2.068-3.607 3.688-5.47 3.688-1.905 0-2.877-1.135-2.877-3.688 0-1.054.122-2.107.324-3.078l11.225-3.688c2.188-5.187-.447-7.456-3.526-7.456-5.308 0-11.346 8.873-11.346 16.654 0 3.485 1.662 5.39 4.255 5.39 3.04 0 6.2-2.958 8.793-7.822m-3.85-11.224c1.5 0 2.797 1.135 2.108 4.012l-6.97 1.622c1.216-3.243 3.242-5.634 4.862-5.634m24.88 1.946c.77-2.634.365-4.944-1.66-4.944-2.391 0-3 1.823-5.43 7.05V509.4c0-2.147-.69-4.052-2.634-4.052-2.27 0-4.336 3.525-5.917 7.01h1.054c1.094-1.58 2.107-2.513 2.917-2.513.973 0 1.5 1.5 0 4.823l-4.375 9.724c-.811 1.823.04 3 1.823 3 1.094 0 1.58-.285 2.026-1.46l4.295-11.386c1.216-1.499 2.31-2.796 3.688-4.254zm2.918-1.824h2.957l-5.915 16.169c-.527 1.377.202 2.754 1.62 2.754 3.364 0 8.794-3.323 10.698-7.86h-1.054c-1.499 1.58-4.376 3.685-6.848 4.132l5.43-15.195h5.552l.688-2.31h-5.389l2.067-5.834h-2.148l-3.85 5.835-3.808.647zm23.218-5.187 7.902-7.374v-.852h-4.255l-4.863 8.226zm2.228 16.29h-1.377c-1.743 2.067-3.607 3.687-5.47 3.687-1.905 0-2.877-1.135-2.877-3.688 0-1.054.122-2.107.324-3.078l11.224-3.688c2.189-5.187-.446-7.456-3.525-7.456-5.309 0-11.346 8.873-11.346 16.654 0 3.485 1.661 5.39 4.254 5.39 3.04 0 6.2-2.958 8.793-7.822m-3.849-11.224c1.5 0 2.796 1.135 2.107 4.012l-6.97 1.622c1.216-3.243 3.242-5.634 4.863-5.634" fill="#0d0906"/></svg>
