<svg xmlns="http://www.w3.org/2000/svg" width="100" viewBox="0 0 1902 831"><path d="M419.9 10.8c-225-2.5-410.3 181-408.7 402.8-3.3 208.7 164.9 404.4 403 405 225.5.5 404.8-179 404.7-403.6-.1-236.7-193-401.9-399-404.2zm-72.1 276.1c6.3-.3 12.7-.1 19.1-.1h107.6c4.6 0 9.4-.2 13.8.8 9 2.1 14.5 9.8 14.5 19.1.1 9.8-4.6 16.2-14.4 18.8-4.4 1.1-9.1 1.5-13.7 1.5-38.8.1-77.5.1-116.3 0-4 0-8.1-.1-12.1-.5-12.2-1.3-20.3-9.3-20.3-19.7-.1-10.8 8.8-19.1 21.8-19.9zm155.1 129.7c-.1 11.4-7.2 18.7-19.9 19.4-10.4.5-20.9.1-31.3.1-9.9 0-19.7.3-29.6-.1-13.2-.5-20.3-7-20.8-18.3-.6-12.9 5.7-20.7 19.7-21.1 20.8-.7 41.7-.5 62.6.3 13.2.5 19.5 7.9 19.3 19.7zM195.5 544.9h-2.9c-66-3-117.6-56-122.5-115.8-5.7-69.4 36.7-115.4 80.3-132.7 14.7-5.8 29.9-9.1 45.6-9.3 12.4-.1 20.5 7.2 21.4 18 1.1 11.9-4.1 19.1-17.7 21.3-15.4 2.5-30.6 3.8-44.8 11.8-32.7 18.4-51.4 54.3-45.3 92.1 6.4 39.4 38.8 68.3 69.9 73 5.7.8 11.2 2.4 17 2.8 14.6.9 21.1 7.6 20.8 20-.2 12.1-7.5 18.4-21.8 18.8zm93.2-21.6c-.5 15.7-11.2 24.4-24.8 21.1-9.6-2.3-14.6-9.5-14.8-22.6-.2-23.2 0-46.4-.1-69.6-.1-17.7 1.9-16.1-15.4-16.2-11 0-22.1.3-33.1-.1-14.2-.5-21.6-7.3-21.7-19.4-.2-12.4 6.5-19.3 21-19.7 22-.6 44.1-.8 66.1-.4 15.9.3 22.2 6.6 22.7 22.4.5 17.4.1 34.8.1 52.2.2 17.5.6 34.9 0 52.3zm193.2 21.5c-22.6.4-45.2.1-67.8.1-21.5 0-42.9.2-64.4-.1-16.3-.2-23.6-6.8-23.9-23-.5-34.2-.5-68.4 0-102.6.2-13.9 7.9-21.6 19.5-21.9 12.7-.4 20.7 7.3 21.1 22.1.6 24.3.1 48.7.2 73 .1 13.1.3 13.2 13.4 13.3 33.6.1 67.3-.1 100.9.2 12.8.1 20.9 7.1 21.9 17.5 1.3 13.1-6.1 21.1-20.9 21.4zm98.1-20.1c-.1 13-7.3 20.1-18.6 20.3-12.7.2-19.8-6.7-20-20.7-.3-18-.1-36-.1-53.9 0-17.4-.2-34.8.1-52.2.2-13.9 7.4-21.4 19.5-21.3 12.2.1 19.1 7.4 19.2 21.7.2 35.3.2 70.7-.1 106.1zm142.8 20.2c-7.8.9-13.1-4-17.9-10.3-39.3-52.2-78.7-104.4-118-156.6-12.5-16.6-25.1-33.3-37.6-49.9-2.4-3.2-5-6.4-7-9.9-6-10.6-3.9-21.4 5-27.4 9.1-6.1 20-4.4 27.7 5.2 10.4 13.1 20.3 26.7 30.3 40.1l126.3 167.7c3.1 4.2 6.5 8.3 8.9 12.8 7 13.2-1.9 27.8-17.7 28.3zm-17.3-183.2c0-17.3.1-34.6-.1-52-.1-6 1.1-11.5 5.3-15.9 5.1-5.5 11.6-7.7 18.9-6 7.1 1.7 12.8 5.7 14.3 13.4.9 5.1 1.3 10.3 1.3 15.5.1 30 .1 60 0 90.1 0 4 .1 8.1-.6 12.1-1.9 11.2-9.8 17.6-20.3 17.2-10.3-.4-18.3-7.7-18.7-18.9-.5-18.5-.1-37-.1-55.5z" fill="#011547"/><path d="M1255.1 545c-5.2-1.6-9 .8-12 4.8-2.1 2.8-3.7 5.9-5.5 8.8-9.7 15.7-19.4 31.5-29.9 48.5-9.9-15.8-19.3-30.9-28.8-46-2.5-3.9-5-7.7-7.8-11.5-3-4.1-7.2-6.1-12.1-4.7-5.7 1.6-8.2 6-8.2 11.8v83.4c0 1.2 0 2.3.1 3.5.1 5.4 2.3 9 8.1 9.2 6.2.2 7.7-4.5 8.4-9.1.6-4.6.4-9.2.4-13.9v-51.2c6 4.6 9.3 9.9 12.6 15.1 5.2 8.3 10.1 16.9 15.9 24.8 7.1 9.7 13.6 9.7 20.7.2 5.2-6.9 9.2-14.7 14-21.9 4.2-6.3 6.8-13.9 14.6-20.2 0 14.8-.1 27.5 0 40.2 0 9.3-.1 18.5.6 27.8.3 3.9 2.2 8.1 7.4 8.1 5.5-.1 8.5-3 8.8-8.6.1-3.5.1-6.9.1-10.4v-78.2c-.2-5.1-2.2-8.9-7.4-10.5zm399.5 94.3c16.2-17.3 20.1-37.5 12.8-59.5-9-27.1-34.7-41.1-63.4-35.8-25.4 4.7-45.3 28-44.6 54.5.8 31 20 52.5 47.1 55.9 13.3 1.7 24.2 6.5 35.4 12.5 4.6 2.5 9.2 4.7 13.9 7.1 4.4 2.3 9.2 3.7 12-1.8 2.8-5.4-2.2-8.7-5.5-11.1-5.8-4.3-13.4-5.8-18.9-10.9 2.4-5.3 7.7-7.2 11.2-10.9zm-40.1-.2c-20.7-.4-37.9-18.3-38-39.5-.1-21.6 18.2-40.9 38.9-41 20.8-.1 38.7 18.9 38.6 41-.2 22.1-17.9 39.8-39.5 39.5zm-622-79.9c0-2.9-.2-5.8-.9-8.6-.9-3.6-3.2-6.2-7.4-5.9-3.9.3-6.6 2.7-7.1 6.4-.6 4-.4 8.1-.4 12.1v62.5c-18.4-24.5-34.6-46.2-50.8-67.7-2.8-3.7-5.4-7.7-8.8-10.7-5.8-5.1-12.4-3.5-15.3 3.6-1.3 3.1-1.6 6.7-1.6 10.1-.1 26.1-.1 52.2 0 78.2 0 2.3.1 4.7.6 6.9 1.1 4.5 4.1 6.8 8.8 6.5 4.1-.3 6.3-2.9 6.9-6.6.6-4 .6-8.1.6-12.1.1-18.5 0-37 0-60 4.1 5.1 5.5 6.8 6.8 8.5 15.7 20.8 31.3 41.7 47 62.4 3.9 5.2 8.7 10.2 16 7.4 7-2.6 5.7-9.4 5.7-14.9.1-25.9 0-52-.1-78.1zm224.4-146.5c-.4-31.2-25.4-55.8-56.6-55.7-30.8.1-54.9 25.3-54.7 57.2.1 31.4 25 56 56.3 55.6 31-.3 55.4-25.7 55-57.1zm-94.3 1.6c-.2-22.6 16.8-40.8 38.3-40.8 21.8 0 38.7 17.6 38.8 40.3 0 22.3-17.7 40.5-39.1 40.2-20.5-.3-37.8-18.3-38-39.7zm321.9-231.8c-14.2-4.3-28.8-3-43.2-2.9-11 .1-12.7 2.1-13 13.6-.3 13.3-.1 26.7-.1 40 0 13.9.3 27.8-.1 41.8-.2 8.8 3 12.9 12.1 12.6 11-.4 22.1.3 33.1-.4 25.7-1.7 46-20.4 48.6-44 3.3-30.2-10.5-52.5-37.4-60.7zm-7.3 88.4c-2.2.7-4.5 1.3-6.7 1.6-24 3.6-25.3 2.5-25.3-21.3v-55.3c10.2-1.6 18.8-1.4 27.3 0 19.6 3.3 31.5 15.9 33 34.7 1.6 19.6-8.7 34.3-28.3 40.3zm-178.2 10c.6 5.1 4.2 6.8 8.6 6.6 4-.1 6.2-3.1 6.4-6.9.4-8.7.6-17.4.7-26.1.1-13.5 0-27 0-41.1 7.6 1.8 9.2 6.7 11.8 10.2 13 17 25.7 34.3 38.7 51.4 2.8 3.7 5.5 7.7 9.1 10.5 5.9 4.7 14.9 2.4 15-4 .6-31.9.4-63.8.3-95.7 0-3.8-3.2-6.2-7.1-6.1-3.9.1-6.6 2.5-7.1 6.3-.5 4-.5 8.1-.5 12.1v58.7c-5.6-.8-6.9-5.1-9.3-8.2-14.3-19-28.4-38.1-42.7-57.1-2.8-3.7-5.6-7.5-9.2-10.3-5.2-4.1-11.8-1.9-14 4.2-.9 2.6-.9 5.7-.9 8.6-.1 27.3 0 54.5 0 81.8 0 1.6 0 3.4.2 5.1zm350.1 133.4c-.2-30.4-20.3-51.8-51.4-54.3-9.8-.8-19.6-.6-29.5-.4-11.7.2-13 1.3-13.4 12.9-.5 13.9-.1 27.7-.1 41.6v41.6c0 8.2 3.3 13 12.6 12.5 10.4-.6 20.9.4 31.2-.6 30.7-3 50.8-24.5 50.6-53.3zm-36.4 32.8c-11.2 6-23.3 5.7-35.4 5.2-5.3-.2-6.2-3.9-6.2-8.4.1-10.9 0-21.9 0-32.8 0-5.8-.1-11.5 0-17.3.5-20.4-4.9-19.8 21.1-19.1 21.3.5 35.8 12.7 39.7 31.7 3.4 16.1-4.5 32.9-19.2 40.7zM960.6 290c24.7-2.6 30.6-9.2 30.6-34 .1-25.2 2.6-24.5-24.5-24.1-5.2 0-10.4-.2-15.6.1-3.7.2-6.6 2.1-6.9 6.3-.3 4.7 1.7 8 6.6 8.4 5.2.4 10.4.3 15.6.5 3.4.1 6.7.1 8.1 4.5 4.2 13.6-.8 21.1-14.9 21.8-2.3.1-4.6 0-7 0-17 .3-28.7-8.1-35.4-23.2-6.9-15.6-4.8-30.6 6.3-43.7 10.9-12.8 24.9-16 40.8-11.3 5.5 1.7 10.9 3.8 16.3 5.9 4 1.6 6.9 0 8.8-3.1 2.1-3.3 1.2-6.7-1.8-9.3-1.7-1.5-3.5-3.1-5.4-4.3-21.6-13.7-58.4-7.2-73.9 13.6-15 20-16.3 41.7-4.9 63.6 10.5 20.4 32.8 30.9 57.2 28.3zm511 306.8c12.9-16.6 6.1-40.8-14.3-48.7-16.2-6.3-33.2-3.3-49.9-3.3-5.9 0-7.5 5.4-7.5 10-.1 29.6.1 59.1.3 88.7 0 5.1 1.5 9.4 7.7 9.2 5.9-.2 7.7-4.1 7.7-9.4-.1-8.1.5-16.3-.1-24.3-.6-7.7 3.2-8.1 9.3-8.5 8.4-.5 14.1 1.9 18.2 9.7 4.8 9.2 10.7 17.9 16.2 26.7 3 4.8 7.2 8.5 12.9 5.4 6.3-3.5 3.4-9.2.9-13.6-5.8-10-12.3-19.6-18.5-29.5 6.3-3.9 12.7-6.7 17.1-12.4zm-36.9-.7c-22.4-.1-18.8 2.8-19.2-19.3.3-20.3-3-17.8 18.9-17.8 17.4 0 26.3 6.6 26.4 18.4.1 12-8.9 18.8-26.1 18.7zM1034 287.5c5-.1 6.7-4 6.8-8.5.2-8.7.3-17.4.6-26 .1-2.7-.5-5.8 2.8-7.4 6-3.1 18.4.6 22.4 7 6.5 10.2 12.5 20.8 19.2 30.9 2.7 4.1 6.9 6.5 11.9 3.6 5.6-3.2 4-7.7 1.5-11.9-5.9-9.9-12-19.6-19-30.9 2.5-1.5 4-2.4 5.4-3.3 15.4-10.3 20-20.1 16.7-36.4-3.2-15.3-14.9-22.2-28.5-24.1-13-1.9-26.6-.8-39.9-.6-5.3.1-8.4 3.4-8.4 9v90.3c-.1 5.7 3.2 8.5 8.5 8.3zm6.9-72.1c0-7.1-.1-11.1 0-15.2.1-3.8 1.6-6.9 6-6.8 8.6.2 17.3-1 25.8 1.8 8.2 2.7 12.5 8.2 13.3 16.4.8 7.9-4.9 15.4-13.4 18.1-3.8 1.2-8 1.5-12 1.4-23.8 0-19.3 2-19.7-15.7zm92.7 71.8c3.7.9 7.2-.1 9.1-3.4 2.5-4.5 4.9-9.2 6.4-14.1 2.1-6.5 5.9-9 12.8-8.8 11.6.4 23.2.2 34.8.1 5.2-.1 8.6 1.7 10.4 7 1.8 5.4 4.3 10.7 7.1 15.8 2.2 4 6.1 4.9 10.5 3.4 3.1-1.1 4.5-3.3 4.3-6.7-.5-2.1-.6-4.5-1.5-6.6-12.1-28.7-24.1-57.5-36.7-86-3.6-8.1-10.6-10.5-16.8-7.5-3.9 1.9-6 5.4-7.6 9.1-11.8 27.5-23.6 55.1-35.3 82.7-.9 2.1-1.4 4.5-1.5 6.7-.3 3.4-.6 7.2 4 8.3zm44.1-87.5c8.8 16.5 13.8 30.2 19 44.7-12.1 2.2-23.3 1-35.7 1 2.8-15.6 11-28 16.7-45.7zM901.6 449c.1 18.3.7 18.9 18.3 19 11.6.1 23.2 0 34.8 0 3.5 0 7 .2 10.4-.4 3.6-.6 6.6-2.9 6.8-6.8.2-3.9-2.2-6.6-5.9-7.4-3.9-.8-8-1.1-12.1-1.2-8.7-.2-17.4-.4-26.1 0-7.6.4-10.6-2.9-9.8-10.2.2-2.3 0-4.6 0-7 .2-13.4.2-13.4 13.1-13.8 9.3-.3 18.5-.3 27.8-1 3.6-.3 6.5-3 6.3-7.1-.2-3.9-3-6.6-6.6-6.9-6.9-.6-13.9-.2-20.9-.4-22.1-.5-19.2 4.2-20-20.7-.3-8.7 3-11 11.2-10.7 11.6.5 23.2.1 34.8-.1 4.7-.1 7.9-2.6 8-7.3.1-4.9-3.3-7.3-7.9-7.3-8.7-.2-17.4-.1-26.1-.1v-.1c-8.1 0-16.3.4-24.4-.1-8.4-.5-11.5 3.8-11.9 11.3-.1 2.3-.1 4.6-.1 7 .2 23.7.2 47.5.3 71.3zm613.3-216.4v43.5c0 7.6 2.6 11.8 11.2 11.5 16.2-.5 32.5-.1 48.8-.1 4.9 0 10-.8 10.2-6.7.1-5.5-4.1-7.8-9.5-7.8h-24.4c-21.4 0-21.1 0-20.7-21.4.1-7.1 1.5-10.6 9.5-10.1 9.2.6 18.6.1 27.9.1 5.1 0 9.9-1.9 10.3-7.2.6-6.9-5.2-8.3-10.6-8.6-5.8-.4-11.6-.1-17.4-.1-20.5 0-19.9 0-19.8-20.8.1-9.1 3.8-10.5 11.4-10.2 9.8.5 19.7.1 29.6.1 5.9 0 13.3-.1 13.5-7.5.2-7.2-6.5-8.1-12.9-8-14.5.2-29-.1-43.5.1-11.4.2-13.3 1.9-13.7 13-.4 13.3-.1 26.7-.1 40 0 .2.1.2.2.2zM1416.3 460c-.3-10.2-10-7.6-16.4-7.9-11.9-.5-23.8-.1-35.8-.1v-29.3c5.1-2.5 9.7-1.4 14.2-1.5 6.4-.2 12.8 0 19.1-.1 6 0 12.7-.5 12.5-8.3-.2-6.7-6.2-7.3-11.8-7.1-4.6.1-9.3 0-13.9 0-21.9 0-21.4 0-21.1-21 .1-8.9 3.3-10.8 11.3-10.4 10.4.6 20.9.2 31.3.1 5.5-.1 11-.8 10.7-8.1-.2-6.3-5-6.9-9.9-6.9-16.2 0-32.5.1-48.7-.1-7.2-.1-11.1 3.4-11.2 10.3-.2 29-.3 58 0 87 .1 7.4 4 11.6 12.1 11.4 13.9-.3 27.9.2 41.8-.2 6.3-.1 16.1 3.2 15.8-7.8zm470 178.6c-8.7-.2-17.4-.1-26-.1-21.1 0-20.5 0-20.4-21.7.1-9 3.5-10.7 11.3-10.2 9.2.5 18.5.2 27.8-.1 4.6-.1 7.7-3 7.9-7.6.2-5-3.7-7.1-7.9-7.4-6.3-.4-12.7-.1-19.1-.2-21.7-.6-19 4.9-19.8-20.7-.3-9.1 3.8-10.5 11.4-10.2 10.4.4 20.8.4 31.2-.1 5-.2 11.3-.5 10.9-8-.3-7-5.7-7.7-11.3-7.7-15 0-30.1-.2-45.1.1-11.1.2-13 2.2-13.3 13.3-.3 13.9-.1 27.8-.1 41.7v41.7c0 5.4.4 11.3 7.4 11.5 18.5.4 37 .3 55.5.2 3.9 0 6.5-2.3 6.7-6.4.2-5.1-2.2-8-7.1-8.1zm-522.2.2c-4-.4-8.1-.3-12.1-.3h-35.4c0-8.5.4-15.3-.1-22.1-.6-7.6 2.6-10.3 10-9.8 6.9.4 13.9.3 20.8 0 6.5-.3 16.2 2.2 15.9-7.9-.3-10.2-10.4-6.2-16.5-7.2-3.4-.6-6.9-.1-10.4-.1-21 0-20.7 0-19.8-21.1.3-7.6 2.9-10.2 10.3-9.9 11 .4 22 .5 33-.1 4.9-.3 11.3-.9 10.5-8.5-.6-5.8-5-7.2-10.1-7.2h-48.6c-8.2 0-10.9 4.2-10.9 12.1.2 28.3.3 56.7 0 85.1-.1 8.3 3.4 11.5 11.2 11.4 16.2-.1 32.4 0 48.6 0 1.2 0 2.3-.1 3.5-.3 3.8-.8 6.3-2.8 6.4-6.9-.2-4.2-2.4-6.8-6.3-7.2zm422.7-79.8c-.2-6.1 1-14.3-8.5-13.9-7.9.3-7.4 7.4-7.4 13.2v10.4c0 13.9.3 27.8-.1 41.6-.5 17.9-10.3 28.4-25.7 28.7-16.7.3-26.4-9.9-26.8-29-.4-16.2-.1-32.4-.1-48.6 0-4 .7-8.2-1.5-11.9-1.5-2.6-3.6-4.9-6.7-4.8-3.6.2-6.7 2.2-7.6 6-.6 2.8-.6 5.7-.6 8.6 0 17.9-.3 35.9 0 53.8.5 25.2 16.6 41.6 40.9 42.3 25.4.8 42.6-15.1 44-40.9.5-9.2.1-18.5.1-27.8.1-9.2.3-18.5 0-27.7zm-681.7-14.2c-5.8.7-7 5.4-7.1 10.3-.1 10.4 0 20.8-.1 31.3 0 9.8.8 19.8-.5 29.5-2 15.5-12.5 23.8-27.3 23.2-14.1-.6-22.6-8.7-24.4-24.1-.8-6.9-.9-13.8-1-20.8-.2-13.3 0-26.6-.3-39.9-.1-4.8-1.8-9.6-7.9-9.3-5.7.3-7.7 4.4-7.7 9.6-.1 10.4 0 20.8 0 31.3h.1c0 10.4-.6 20.9.1 31.3 1.4 21.1 15.5 35.8 35.9 38.3 21.3 2.6 42.3-8.7 46.6-27.5 5.6-24.4 2.9-49.5 2.3-74.4 0-4.9-2.6-9.5-8.7-8.8zm620.2-116.2c1-16.8.3-33.6.3-50.4 0-4 0-8.2-.7-12.1-.8-4.6-4.1-6.7-8.9-6.4-4.2.3-6.2 3.3-6.7 6.8-.6 4.6-.5 9.2-.6 13.9-.2 16.8.4 33.7-.6 50.4-.8 13.5-10.8 22.3-23.9 23.1-12.3.8-22.2-6.1-26.5-18.2-2-5.6-1.8-11.4-1.8-17.2 0-16.2-.1-32.5 0-48.7 0-6.1-2.2-10.5-8.9-10.1-6.1.4-6.6 5.5-6.6 10.3v29.6c.2 12.1-1.5 24.3.7 36.4 3.5 19.1 15.8 31 34.8 33.2 28 3.4 47.8-12.5 49.4-40.6zm-646.1 33.5c4.2-2.7 9.9-5.4 7-12-2.9-6.7-8.5-4.4-13.4-2.8-4.4 1.4-8.4 3.8-12.8 5.1-20 5.7-41.1-5.2-47.7-24.4-7.3-21.1 2.5-44.3 22.2-52.1 12-4.7 23.8-3.3 35.4 1.9 5.7 2.6 12.6 7.5 16.2-1.1 3.3-7.7-4.7-10.3-9.9-13.5-1-.6-2-1.1-3.1-1.6-20.9-9.3-46.6-4.5-63 10.6-16.6 15.2-21.1 40.1-13.3 62.4 8 22.7 27 34.7 53.9 34.8 9.3.5 19.5-1.5 28.5-7.3zm229 5.9c5.7 0 10.8-.7 10.8-7.9 0-6.2-4.9-7.4-9.6-7.7-8.1-.5-16.2-.4-24.3-.4-19.7-.1-19.7 0-19.8-19v-60.8c0-5.5-1.1-11.3-7.6-11.8-7.6-.5-9.3 5.4-9.3 11.7-.1 13.9 0 27.8 0 41.7 0 13.3-.2 26.6.1 40 .3 11.5 2.2 13.7 12.8 14 15.6.5 31.2.1 46.9.2zm219.6 130.7v-26.1c0-6.4 0-12.8-.2-19.1-.1-4.4-2-8.1-6.8-8.8-6-.9-8.1 3.6-9.1 8.3-.7 3.4-.6 6.9-.6 10.4-.1 12.2 0 24.3 0 36.5 0 12.8-.3 25.5.1 38.3.2 6-1.2 14.1 8.3 14.4 10 .3 8.1-7.9 8.2-13.9.2-13.3.1-26.6.1-40z" style="fill:#061a4a"/><path d="M196.7 506c-5.9-.4-11.4-1.9-17-2.8-31.1-4.6-63.6-33.6-69.9-73-6.1-37.8 12.5-73.7 45.3-92.1 14.2-8 29.4-9.3 44.8-11.8 13.6-2.2 18.7-9.4 17.7-21.3-1-10.9-9.1-18.1-21.4-18-15.7.1-30.9 3.4-45.6 9.3-43.6 17.3-86 63.4-80.3 132.7 4.9 59.8 56.5 112.9 122.5 115.8h2.9c14.3-.4 21.7-6.7 22-18.8.1-12.4-6.4-19.1-21-20zm535.1-2.2L605.5 336.1c-10.1-13.4-19.9-27-30.3-40.1-7.7-9.7-18.6-11.3-27.7-5.2-8.9 6-11 16.8-5 27.4 2 3.5 4.6 6.7 7 9.9 12.5 16.7 25 33.3 37.6 49.9 39.3 52.2 78.7 104.4 118 156.6 4.8 6.4 10.1 11.2 17.9 10.3 15.8-.5 24.7-15.1 17.8-28.3-2.6-4.6-5.9-8.7-9-12.8zM481 505.9c-33.6-.3-67.3-.1-100.9-.2-13.2 0-13.4-.2-13.4-13.3-.2-24.3.4-48.7-.2-73-.4-14.8-8.5-22.5-21.1-22.1-11.6.3-19.3 8.1-19.5 21.9-.5 34.2-.5 68.4 0 102.6.2 16.2 7.6 22.8 23.9 23 21.4.3 42.9.1 64.4.1 22.6 0 45.2.3 67.8-.1 14.8-.3 22.2-8.3 21-21.4-1.1-10.3-9.3-17.3-22-17.5z" style="fill:#00f2a6"/></svg>
