<?xml version="1.0" encoding="UTF-8" standalone="no"?>
<svg
   viewBox="0 0 283.466 61.046001"
   aria-label="Croix-Rouge française accueil"
   role="img"
   class="icon navigation-desktop__logo"
   version="1.1"
   id="svg6"
   sodipodi:docname="croix-rouge.svg"
   width="283.466"
   height="61.046001"
   inkscape:version="1.1.2 (0a00cf5339, 2022-02-04)"
   xmlns:inkscape="http://www.inkscape.org/namespaces/inkscape"
   xmlns:sodipodi="http://sodipodi.sourceforge.net/DTD/sodipodi-0.dtd"
   xmlns="http://www.w3.org/2000/svg"
   xmlns:svg="http://www.w3.org/2000/svg">
  <defs
     id="defs10" />
  <sodipodi:namedview
     id="namedview8"
     pagecolor="#ffffff"
     bordercolor="#000000"
     borderopacity="0.25"
     inkscape:pageshadow="2"
     inkscape:pageopacity="0.0"
     inkscape:pagecheckerboard="0"
     showgrid="false"
     fit-margin-top="0"
     fit-margin-left="0"
     fit-margin-right="0"
     fit-margin-bottom="0"
     inkscape:zoom="1.0533446"
     inkscape:cx="251.10491"
     inkscape:cy="-79.745982"
     inkscape:window-width="2560"
     inkscape:window-height="1363"
     inkscape:window-x="0"
     inkscape:window-y="0"
     inkscape:window-maximized="1"
     inkscape:current-layer="svg6" />
  <path
     fill="#e30613"
     d="M 38.37,19.185 V 0 H 19.184 V 19.185 H 0 V 38.371 H 19.184 V 57.556 H 38.37 V 38.371 H 57.556 V 19.185 Z"
     id="path2" />
  <path
     fill="#000000"
     d="m 147.76,23.052 h 3.817 c 0.131,0 0.25,-0.053 0.318,-0.144 l 5.824,-7.484 5.794,7.483 a 0.393,0.393 0 0 0 0.318,0.145 h 3.817 c 0.238,0 0.438,-0.115 0.523,-0.301 0.082,-0.18 0.04,-0.392 -0.112,-0.568 l -7.708,-9.568 0.043,-0.055 7.514,-9.332 c 0.157,-0.182 0.198,-0.388 0.115,-0.57 -0.085,-0.187 -0.287,-0.302 -0.525,-0.302 h -3.816 A 0.392,0.392 0 0 0 163.365,2.5 l -5.646,7.275 -5.674,-7.274 a 0.394,0.394 0 0 0 -0.32,-0.145 h -3.816 c -0.237,0 -0.438,0.115 -0.523,0.302 -0.083,0.182 -0.043,0.388 0.112,0.567 l 7.56,9.39 -0.043,0.054 -7.666,9.514 c -0.154,0.179 -0.195,0.386 -0.112,0.568 0.085,0.186 0.285,0.301 0.523,0.301 z M 94.63,18.373 a 0.432,0.432 0 0 0 -0.41,-0.014 c -2.144,0.975 -4.263,1.47 -6.298,1.47 -4.431,0 -7.183,-2.742 -7.183,-7.155 0,-4.442 2.685,-7.094 7.183,-7.094 1.676,0 4.13,0.25 6.303,1.442 0.138,0.075 0.288,0.08 0.402,0.012 0.1,-0.06 0.156,-0.164 0.156,-0.293 V 3.61 c 0,-0.263 -0.257,-0.393 -0.335,-0.427 -2.072,-0.962 -4.73,-1.305 -6.526,-1.305 -3.364,0 -6.188,1.015 -8.168,2.935 -1.973,1.912 -3.015,4.63 -3.015,7.861 0,6.595 4.39,10.856 11.183,10.856 1.612,0 4.072,-0.221 6.646,-1.276 a 0.46,0.46 0 0 0 0.274,-0.426 l -0.06,-3.159 A 0.337,0.337 0 0 0 94.63,18.373 Z m 138.912,5.157 c 6.3,0 9.364,-3.356 9.364,-10.26 V 2.864 a 0.51,0.51 0 0 0 -0.509,-0.508 h -2.98 a 0.51,0.51 0 0 0 -0.51,0.508 V 13.27 c 0,4.614 -1.754,6.856 -5.364,6.856 -3.63,0 -5.394,-2.242 -5.394,-6.856 V 2.864 a 0.51,0.51 0 0 0 -0.51,-0.508 h -2.982 a 0.51,0.51 0 0 0 -0.51,0.508 V 13.27 c 0,6.904 3.074,10.26 9.396,10.26 z m -120.37,28.117 c -0.832,-0.034 -1.22,-0.866 -1.711,-1.918 -0.42,-0.9 -0.896,-1.92 -1.771,-2.726 l -0.085,-0.078 0.098,-0.06 c 1.884,-1.168 2.88,-3.07 2.88,-5.502 0,-4.168 -2.985,-6.86 -7.605,-6.86 h -9.094 c -0.164,0 -0.36,0.062 -0.36,0.36 v 19.976 c 0,0.219 0.141,0.36 0.36,0.36 h 3.28 c 0.297,0 0.36,-0.195 0.36,-0.36 v -6.617 h 4.709 c 2.173,0 2.893,1.576 3.655,3.245 0.88,1.923 1.788,3.911 4.992,3.911 0.472,0 0.807,-0.057 0.807,-0.807 v -2.385 c 0,-0.412 -0.096,-0.513 -0.515,-0.54 z m -8.045,-7.126 h -5.603 v -6.317 h 5.603 c 2.197,0 3.456,1.152 3.456,3.159 0,2.007 -1.26,3.158 -3.456,3.158 z M 92.753,34.503 H 77.546 a 0.51,0.51 0 0 0 -0.509,0.508 v 19.68 c 0,0.28 0.229,0.508 0.51,0.508 h 2.98 a 0.51,0.51 0 0 0 0.51,-0.508 v -8.437 h 9.628 a 0.51,0.51 0 0 0 0.51,-0.508 V 43.36 a 0.51,0.51 0 0 0 -0.51,-0.509 h -9.628 v -4.647 h 11.716 a 0.51,0.51 0 0 0 0.509,-0.51 v -2.683 a 0.51,0.51 0 0 0 -0.51,-0.508 z m 48.51,-11.45 h 2.982 a 0.51,0.51 0 0 0 0.51,-0.51 V 2.864 a 0.51,0.51 0 0 0 -0.51,-0.508 h -2.982 a 0.51,0.51 0 0 0 -0.509,0.508 v 19.68 c 0,0.28 0.229,0.508 0.51,0.508 z m -13.705,0.083 c 6.412,0 10.556,-4.262 10.556,-10.856 0,-6.558 -4.144,-10.796 -10.556,-10.796 -6.432,0 -10.588,4.238 -10.588,10.796 0,6.594 4.156,10.856 10.588,10.856 z m 0,-17.95 c 3.983,0 6.557,2.784 6.557,7.094 0,4.346 -2.574,7.154 -6.557,7.154 -4.003,0 -6.588,-2.808 -6.588,-7.154 0,-4.31 2.585,-7.095 6.588,-7.095 z m 41.35,9.704 h 5.963 a 0.315,0.315 0 0 0 0.314,-0.314 v -2.625 a 0.315,0.315 0 0 0 -0.314,-0.314 h -5.964 a 0.314,0.314 0 0 0 -0.313,0.314 v 2.625 c 0,0.173 0.14,0.314 0.313,0.314 z m 42.085,8.64 c 6.413,0 10.557,-4.261 10.557,-10.856 0,-6.558 -4.144,-10.796 -10.557,-10.796 -6.432,0 -10.588,4.238 -10.588,10.796 0,6.595 4.156,10.856 10.588,10.856 z m 0,-17.95 c 3.984,0 6.557,2.784 6.557,7.094 0,4.346 -2.573,7.154 -6.557,7.154 -4.002,0 -6.588,-2.808 -6.588,-7.154 0,-4.31 2.586,-7.094 6.588,-7.094 z m 71.963,0.477 a 0.51,0.51 0 0 0 0.51,-0.51 V 2.864 a 0.51,0.51 0 0 0 -0.51,-0.508 H 267.75 a 0.51,0.51 0 0 0 -0.51,0.508 v 19.68 c 0,0.28 0.23,0.508 0.51,0.508 h 15.206 a 0.51,0.51 0 0 0 0.51,-0.508 V 19.86 a 0.51,0.51 0 0 0 -0.51,-0.509 H 271.24 v -5.244 h 9.629 a 0.51,0.51 0 0 0 0.51,-0.508 v -2.386 a 0.51,0.51 0 0 0 -0.51,-0.509 H 271.24 V 6.057 Z m -70.691,28.447 h -2.982 a 0.51,0.51 0 0 0 -0.509,0.508 v 19.68 c 0,0.28 0.229,0.508 0.51,0.508 h 2.981 a 0.51,0.51 0 0 0 0.51,-0.508 v -19.68 a 0.51,0.51 0 0 0 -0.51,-0.508 z m 12.929,8.318 -0.52,-0.083 c -2.545,-0.403 -4.743,-0.751 -4.743,-2.419 0,-1.599 1.816,-2.592 4.739,-2.592 2.804,0 5.274,0.623 7.142,1.802 0.25,0.158 0.423,0.211 0.511,0.16 0.107,-0.059 0.16,-0.278 0.16,-0.652 v -2.714 c 0,-0.486 -0.112,-0.629 -0.429,-0.787 -1.946,-0.989 -4.5,-1.512 -7.384,-1.512 -5.554,0 -8.74,2.24 -8.74,6.145 0,4.8 3.964,5.78 7.679,6.324 l 0.673,0.088 c 3.096,0.401 5.543,0.718 5.543,2.741 0,1.71 -1.99,2.653 -5.603,2.653 -2.657,0 -5.44,-0.749 -7.263,-1.953 -0.247,-0.155 -0.42,-0.21 -0.51,-0.159 -0.107,0.059 -0.16,0.278 -0.16,0.652 v 2.803 c 0,0.485 0.112,0.628 0.428,0.786 2,0.984 4.806,1.572 7.505,1.572 6.103,0 9.603,-2.261 9.603,-6.204 0,-5.041 -4.264,-6.051 -8.631,-6.652 z m -27.025,-8.016 a 0.484,0.484 0 0 0 -0.456,-0.302 h -5.814 c -0.165,0 -0.378,0.094 -0.454,0.3 l -7.693,19.561 c -0.076,0.201 -0.053,0.411 0.062,0.577 a 0.61,0.61 0 0 0 0.512,0.258 h 3.16 a 0.49,0.49 0 0 0 0.455,-0.301 l 1.781,-4.559 h 10.168 l 0.022,0.056 1.759,4.502 c 0.078,0.21 0.285,0.302 0.455,0.302 h 3.16 c 0.225,0 0.425,-0.1 0.538,-0.267 a 0.586,0.586 0 0 0 0.037,-0.566 l -7.692,-19.56 z m -6.963,11.833 0.045,-0.12 3.57,-9.273 0.081,0.21 3.565,9.183 z m 72.595,-35.01 h -8.676 a 0.51,0.51 0 0 0 -0.51,0.51 v 2.236 c 0,0.28 0.23,0.51 0.51,0.51 h 5.186 v 4.554 l -0.05,0.024 c -0.947,0.447 -2.189,0.664 -3.794,0.664 -4.364,0 -7.184,-2.925 -7.184,-7.452 0,-4.442 2.685,-7.094 7.184,-7.094 1.675,0 4.13,0.25 6.303,1.442 0.137,0.075 0.288,0.08 0.401,0.012 0.101,-0.06 0.156,-0.164 0.156,-0.293 V 3.611 c 0,-0.165 -0.103,-0.293 -0.344,-0.431 -2.313,-1.2 -4.577,-1.3 -6.516,-1.3 -3.364,0 -6.189,1.014 -8.169,2.934 -1.972,1.912 -3.015,4.63 -3.015,7.861 0,6.595 4.39,10.856 11.184,10.856 1.426,0 4.307,-0.2 7.57,-1.544 a 0.467,0.467 0 0 0 0.274,-0.426 v -9.422 a 0.51,0.51 0 0 0 -0.51,-0.51 z m -11.402,22.875 h -15.206 a 0.51,0.51 0 0 0 -0.51,0.508 v 19.68 c 0,0.28 0.229,0.508 0.51,0.508 h 15.206 a 0.51,0.51 0 0 0 0.51,-0.508 v -2.684 a 0.51,0.51 0 0 0 -0.51,-0.509 h -11.715 v -5.245 h 9.628 a 0.51,0.51 0 0 0 0.51,-0.508 V 43.36 a 0.51,0.51 0 0 0 -0.51,-0.509 h -9.628 v -4.647 h 11.715 a 0.51,0.51 0 0 0 0.51,-0.51 v -2.683 a 0.51,0.51 0 0 0 -0.51,-0.508 z m -71.144,16.104 a 0.43,0.43 0 0 0 -0.411,-0.014 c -2.147,0.976 -4.267,1.47 -6.302,1.47 -4.433,0 -7.188,-2.743 -7.188,-7.158 0,-4.445 2.687,-7.099 7.188,-7.099 1.678,0 4.133,0.25 6.308,1.443 0.138,0.076 0.288,0.08 0.401,0.012 0.1,-0.06 0.156,-0.164 0.156,-0.293 v -3.135 c 0,-0.263 -0.256,-0.393 -0.335,-0.427 -2.073,-0.963 -4.731,-1.305 -6.53,-1.305 -3.365,0 -6.192,1.015 -8.173,2.936 -1.973,1.913 -3.017,4.633 -3.017,7.866 0,6.598 4.393,10.862 11.19,10.862 1.612,0 4.074,-0.221 6.65,-1.276 a 0.467,0.467 0 0 0 0.274,-0.426 L 181.407,50.9 a 0.336,0.336 0 0 0 -0.152,-0.294 z m 2.797,-27.915 v -6.617 h 4.708 c 2.174,0 2.893,1.576 3.656,3.244 0.879,1.924 1.788,3.912 4.991,3.912 0.473,0 0.808,-0.058 0.808,-0.807 V 20.04 c 0,-0.412 -0.097,-0.513 -0.515,-0.54 -0.833,-0.033 -1.22,-0.865 -1.712,-1.917 -0.42,-0.9 -0.895,-1.92 -1.77,-2.726 l -0.086,-0.078 0.098,-0.06 c 1.885,-1.168 2.881,-3.07 2.881,-5.502 0,-4.168 -2.986,-6.86 -7.605,-6.86 h -9.094 c -0.165,0 -0.36,0.062 -0.36,0.36 v 19.976 c 0,0.219 0.14,0.36 0.36,0.36 h 3.28 c 0.297,0 0.36,-0.195 0.36,-0.36 z m 0,-16.635 h 5.603 c 2.196,0 3.456,1.152 3.456,3.159 0,2.007 -1.26,3.158 -3.456,3.158 h -5.603 z m -53.63,28.748 a 0.484,0.484 0 0 0 -0.457,-0.302 h -5.814 a 0.49,0.49 0 0 0 -0.455,0.301 l -7.692,19.56 c -0.076,0.2 -0.053,0.41 0.062,0.577 0.113,0.164 0.3,0.258 0.512,0.258 h 3.16 c 0.17,0 0.378,-0.093 0.456,-0.301 l 1.78,-4.559 h 10.168 l 0.021,0.056 1.76,4.502 c 0.078,0.21 0.285,0.302 0.456,0.302 h 3.16 c 0.224,0 0.425,-0.1 0.538,-0.267 a 0.585,0.585 0 0 0 0.037,-0.566 l -7.693,-19.56 z m -6.964,11.833 0.045,-0.12 3.57,-9.273 0.081,0.21 3.566,9.183 z m 36.206,-12.135 h -2.981 a 0.51,0.51 0 0 0 -0.51,0.508 v 14.115 l -0.155,-0.195 -11.36,-14.222 a 0.56,0.56 0 0 0 -0.469,-0.206 h -3.25 a 0.51,0.51 0 0 0 -0.508,0.508 v 19.68 c 0,0.28 0.228,0.508 0.509,0.508 h 2.982 a 0.51,0.51 0 0 0 0.509,-0.508 V 40.668 l 11.545,14.325 a 0.655,0.655 0 0 0 0.469,0.206 h 3.22 a 0.51,0.51 0 0 0 0.51,-0.508 v -19.68 a 0.51,0.51 0 0 0 -0.51,-0.508 z m -44.48,-15.003 c -0.833,-0.034 -1.221,-0.866 -1.712,-1.918 -0.42,-0.9 -0.895,-1.92 -1.771,-2.726 l -0.085,-0.078 0.098,-0.06 c 1.884,-1.168 2.88,-3.07 2.88,-5.502 0,-4.168 -2.985,-6.86 -7.605,-6.86 h -9.093 c -0.165,0 -0.361,0.062 -0.361,0.36 v 19.976 c 0,0.219 0.141,0.36 0.36,0.36 h 3.28 c 0.297,0 0.36,-0.195 0.36,-0.36 v -6.617 h 4.709 c 2.173,0 2.893,1.576 3.655,3.244 0.88,1.924 1.788,3.912 4.992,3.912 0.472,0 0.807,-0.058 0.807,-0.807 V 20.04 c 0,-0.412 -0.096,-0.513 -0.515,-0.54 z m -8.046,-7.126 h -5.603 V 6.058 h 5.603 c 2.197,0 3.456,1.152 3.456,3.159 0,2.007 -1.26,3.158 -3.456,3.158 z m 68.851,44.587 h -3.772 c -0.235,0 -0.34,0.044 -0.388,0.081 -0.084,0.065 -0.19,0.171 -0.318,0.318 l -2.655,3.34 a 0.37,0.37 0 0 0 -0.095,0.232 c 0,0.042 0,0.113 0.17,0.113 h 3.058 c 0.213,0 0.306,-0.037 0.347,-0.068 0.074,-0.055 0.167,-0.14 0.277,-0.25 l 3.516,-3.487 c 0.06,-0.059 0.089,-0.115 0.089,-0.166 0,-0.034 0,-0.113 -0.228,-0.113 z"
     id="path4" />
</svg>
