<?xml version="1.0" encoding="UTF-8" standalone="no"?>
<!-- Created with Inkscape (http://www.inkscape.org/) -->

<svg
   width="226.96362mm"
   height="131.98976mm"
   viewBox="0 0 226.96362 131.98976"
   version="1.1"
   id="svg177118"
   inkscape:version="1.1.2 (0a00cf5339, 2022-02-04)"
   sodipodi:docname="Relais numériques (Emmaüs Connect).svg"
   xmlns:inkscape="http://www.inkscape.org/namespaces/inkscape"
   xmlns:sodipodi="http://sodipodi.sourceforge.net/DTD/sodipodi-0.dtd"
   xmlns="http://www.w3.org/2000/svg"
   xmlns:svg="http://www.w3.org/2000/svg">
  <sodipodi:namedview
     id="namedview177120"
     pagecolor="#ffffff"
     bordercolor="#000000"
     borderopacity="0.25"
     inkscape:pageshadow="2"
     inkscape:pageopacity="0.0"
     inkscape:pagecheckerboard="0"
     inkscape:document-units="mm"
     showgrid="false"
     fit-margin-top="0"
     fit-margin-left="0"
     fit-margin-right="0"
     fit-margin-bottom="0"
     inkscape:zoom="0.80087682"
     inkscape:cx="277.19618"
     inkscape:cy="261.58829"
     inkscape:window-width="1551"
     inkscape:window-height="1082"
     inkscape:window-x="26"
     inkscape:window-y="23"
     inkscape:window-maximized="0"
     inkscape:current-layer="layer1" />
  <defs
     id="defs177115" />
  <g
     inkscape:label="Layer 1"
     inkscape:groupmode="layer"
     id="layer1"
     transform="translate(37.837148,-20.858158)">
    <path
       style="fill:#009cde;fill-opacity:1;stroke-width:1;stroke-opacity:0.474506;paint-order:markers fill stroke"
       d="m 131.11716,64.300348 4.8564,-1.40773 c 0,0 -0.14015,-9.40368 -10.01474,-7.88993 -7.946,1.21811 -8.87142,7.66961 -8.19449,11.30523 0,0 0.0189,3.95862 8.29934,5.95806 4.77359,1.15265 6.30973,1.89981 6.2844,4.56368 -0.0168,1.76605 -1.02361,4.50153 -6.18922,4.35542 -4.66242,-0.13187 -5.01568,-6.14421 -5.01568,-6.14421 l -4.59594,1.16951 c 0,0 -0.89723,10.24884 11.19264,9.23818 8.06019,-0.6738 10.84702,-7.47279 9.17509,-12.51302 -1.13853,-3.43224 -6.13521,-4.50408 -8.01865,-5.10452 -4.80707,-1.53248 -6.59435,-1.57367 -6.19167,-5.44572 0.19864,-1.91016 2.04888,-3.20888 4.11074,-3.284 4.6382,-0.16898 4.30178,5.19905 4.30178,5.19905 z"
       id="path179398-2"
       sodipodi:nodetypes="ccscsssccsssssc" />
    <path
       d="m 46.101924,72.330088 15.954513,-1.32949 0.11892,4.76925 -16.139578,1.34664 z"
       style="fill:#009cde;fill-opacity:1;stroke-width:0.0700042"
       id="path178209" />
    <path
       d="m 46.1019,85.010438 15.954507,-1.32949 0.11892,4.76925 -16.139572,1.34664 z"
       style="fill:#009cde;fill-opacity:1;stroke-width:0.0700042"
       id="path178209-6" />
    <path
       d="m 46.009312,97.398298 15.954515,-1.32949 0.11892,4.769252 -16.13958,1.34664 z"
       style="fill:#009cde;fill-opacity:1;stroke-width:0.0700042"
       id="path178209-2" />
    <path
       d="m 46.101921,109.89247 15.954516,-1.32949 0.11892,4.76925 -16.139581,1.34664 z"
       style="fill:#009cde;fill-opacity:1;stroke-width:0.0700042"
       id="path178209-61" />
    <path
       d="m 46.101869,122.55099 15.954518,-1.32949 0.11892,4.76925 -16.139583,1.34664 z"
       style="fill:#009cde;fill-opacity:1;stroke-width:0.0700042"
       id="path178209-8" />
    <path
       d="m 46.035775,59.744938 15.954512,-1.32949 0.11892,4.76925 -16.139577,1.34664 z"
       style="fill:#009cde;fill-opacity:1;stroke-width:0.0700042"
       id="path178209-7" />
    <path
       d="m 46.10192,47.509168 15.954517,-1.32949 0.11892,4.76925 -16.139582,1.34664 z"
       style="fill:#009cde;fill-opacity:1;stroke-width:0.0700042"
       id="path178209-9" />
    <path
       d="m 46.035775,34.807388 15.954522,-1.32949 0.11892,4.76925 -16.139587,1.34664 z"
       style="fill:#009cde;fill-opacity:1;stroke-width:0.0700042"
       id="path178209-20" />
    <path
       d="m 46.035775,22.187648 15.954512,-1.32949 0.11892,4.76925 -16.139577,1.34664 z"
       style="fill:#009cde;fill-opacity:1;stroke-width:0.0700042"
       id="path178209-23" />
    <path
       style="fill:#009cde;fill-opacity:1;stroke-width:1;stroke-opacity:0.474506;paint-order:markers fill stroke"
       d="m 32.674317,28.830248 -4.894794,0.43904 -5e-6,29.06199 14.684374,-1.19062 -0.167245,-4.44968 -9.484791,0.90349 z"
       id="path178474" />
    <path
       style="fill:#009cde;fill-opacity:1;stroke-width:1;stroke-opacity:0.474506;paint-order:markers fill stroke"
       d="m 71.435785,59.021148 -4.8948,0.43904 v 29.06199 l 14.68437,-1.19062 -0.16724,-4.44968 -9.4848,0.90349 z"
       id="path178474-7" />
    <path
       style="fill:#009cde;fill-opacity:1;stroke-width:1;stroke-opacity:0.474506;paint-order:markers fill stroke"
       d="m 166.42119,86.666678 -16.00729,1.43895 -0.1368,29.288542 16.40868,-1.48791 v -4.44334 l -11.64167,1.14606 v -8.71966 l 9.68132,-1.05203 -0.0589,-4.014858 -9.63141,0.93488 0.009,-7.745834 11.37708,-0.95131 z"
       id="path178616" />
    <path
       id="path178618"
       style="fill:#009cde;fill-opacity:1;stroke-width:1;stroke-opacity:0.474506;paint-order:markers fill stroke"
       d="m 97.605385,58.297758 -6.14536,0.48472 -8.89609,30.01936 4.88239,-0.21756 2.07222,-6.8771 10.125483,-0.92604 1.812812,6.34845 5.08083,-0.62012 z m -2.95434,4.66379 3.96979,13.76454 -8.06928,0.65526 z" />
    <path
       style="fill:#009cde;fill-opacity:1;stroke-width:1;stroke-opacity:0.474506;paint-order:markers fill stroke"
       d="m 108.74203,63.961288 4.49792,-0.33799 v 20.83015 l -4.49792,0.33651 z"
       id="path178939" />
    <circle
       style="fill:#009cde;fill-opacity:1;stroke-width:1;stroke-opacity:0.474506;paint-order:markers fill stroke"
       id="path178963"
       cx="110.7857"
       cy="57.362259"
       r="3.0757368" />
    <path
       style="fill:#009cde;fill-opacity:1;stroke-width:1;stroke-opacity:0.474506;paint-order:markers fill stroke"
       d="m 90.750355,100.39505 4.49792,-0.33799 v 20.83015 l -4.49792,0.33651 z"
       id="path178939-5" />
    <circle
       style="fill:#009cde;fill-opacity:1;stroke-width:1;stroke-opacity:0.474506;paint-order:markers fill stroke"
       id="path178963-9"
       cx="92.794044"
       cy="93.796005"
       r="3.0757368" />
    <path
       style="fill:#009cde;fill-opacity:1;stroke-width:1;stroke-opacity:0.474506;paint-order:markers fill stroke"
       d="m -37.837148,132.14971 7e-6,-29.0563 7.004829,-0.44442 c 0,0 9.002463,21.57099 9.002463,21.57099 l 0.13794,-22.45966 4.889138,-0.43426 v 29.10414 l -6.755894,0.42392 -9.119105,-21.32598 -0.13798,22.28425 z"
       id="path179144" />
    <path
       style="fill:#009cde;fill-opacity:1;stroke-width:1;stroke-opacity:0.474506;paint-order:markers fill stroke"
       d="m 11.904528,128.33537 -5e-6,-29.178718 6.998362,-0.56828 7.449581,22.521668 7.390413,-23.739772 7.001227,-0.73053 v 29.127902 l -4.756684,0.49593 -0.1381,-21.71403 -7.105623,22.27215 -4.777012,0.42153 -7.006336,-20.62542 -0.06842,21.24137 z"
       id="path179146" />
    <path
       style="fill:#009cde;fill-opacity:1;stroke-width:1;stroke-opacity:0.474506;paint-order:markers fill stroke"
       d="m 79.722555,33.923898 4.8564,-1.40773 c 0,0 -0.14015,-9.40368 -10.01474,-7.88993 -7.946,1.21811 -8.871418,7.66961 -8.19449,11.30523 0,0 0.0189,3.95862 8.29934,5.95806 4.77359,1.15265 6.30973,1.89981 6.2844,4.56368 -0.0168,1.76605 -1.02361,4.50153 -6.18922,4.35542 -4.66242,-0.13187 -5.01568,-6.14421 -5.01568,-6.14421 l -4.595938,1.16951 c 0,0 -0.89723,10.24884 11.192638,9.23818 8.06019,-0.6738 10.84702,-7.47279 9.17509,-12.51302 -1.13853,-3.43224 -6.13521,-4.50408 -8.01865,-5.10452 -4.80707,-1.53248 -6.59435,-1.57367 -6.19167,-5.44572 0.19864,-1.91016 2.04888,-3.20888 4.11074,-3.284 4.6382,-0.16898 4.30178,5.19905 4.30178,5.19905 z"
       id="path179398"
       sodipodi:nodetypes="ccscsssccsssssc" />
    <path
       style="fill:#009cde;fill-opacity:1;stroke-width:1;stroke-opacity:0.474506;paint-order:markers fill stroke"
       d="m 182.86371,92.916768 4.8564,-1.40773 c 0,0 -0.14015,-9.40368 -10.01474,-7.88993 -7.946,1.21811 -8.87142,7.66961 -8.19449,11.30523 0,0 0.0189,3.958624 8.29934,5.958062 4.77359,1.15265 6.30973,1.89981 6.2844,4.56368 -0.0168,1.76605 -1.02361,4.50153 -6.18922,4.35542 -4.66242,-0.13187 -5.01568,-6.14421 -5.01568,-6.14421 l -4.59594,1.16951 c 0,0 -0.89723,10.24884 11.19264,9.23818 8.06019,-0.6738 10.84702,-7.47279 9.17509,-12.51302 -1.13853,-3.432238 -6.13521,-4.504082 -8.01865,-5.104522 -4.80707,-1.53248 -6.59435,-1.57367 -6.19167,-5.44572 0.19864,-1.91016 2.04888,-3.20888 4.11074,-3.284 4.6382,-0.16898 4.30178,5.19905 4.30178,5.19905 z"
       id="path179398-28"
       sodipodi:nodetypes="ccscsssccsssssc" />
    <path
       id="path180511"
       style="fill:#009cde;fill-opacity:1;stroke-width:1;stroke-opacity:0.474506;paint-order:markers fill stroke"
       d="m 33.221206,63.829198 c -0.250727,8.4e-4 -0.506299,0.0101 -0.76636,0.0279 l -11.177612,0.76584 -0.112138,29.16205 5.027083,-0.33797 v -12.01735 l 5.219319,-0.42271 c 2.972898,-0.24078 3.603122,0.64416 3.816821,2.46961 0.178422,1.5241 0.298691,9.20461 0.298691,9.20461 l 5.217252,-0.53279 c 0,0 -0.08065,-1.52127 -0.11989,-7.64191 -0.03375,-5.26403 -3.549137,-5.46581 -3.549137,-5.46581 0,0 4.70099,-2.35601 4.513419,-8.0021 -0.126524,-3.80849 -3.269311,-7.22644 -8.367448,-7.20938 z m -0.935342,4.34754 c 0.123759,3.3e-4 0.237331,0.002 0.337963,0.005 1.610664,0.0503 3.852661,0.49466 3.848862,4.27002 -0.0045,4.46512 -5.490123,4.52229 -10.28051,4.97127 3e-6,-8.95944 0,-8.95914 0,-8.95914 0,0 4.237292,-0.29225 6.093685,-0.28732 z" />
    <path
       id="path180511-9"
       style="fill:#009cde;fill-opacity:1;stroke-width:1;stroke-opacity:0.474506;paint-order:markers fill stroke"
       d="m 78.464795,95.031468 c -0.25073,7.9e-4 -0.5063,0.0101 -0.76636,0.0279 l -11.17762,0.76585 -0.11213,29.162042 5.02708,-0.33797 v -12.01735 l 5.21932,-0.42271 c 2.9729,-0.24077 3.60312,0.64416 3.81682,2.46962 0.17842,1.5241 0.29869,9.2046 0.29869,9.2046 l 5.21725,-0.53278 c 0,0 -0.0806,-1.52127 -0.11989,-7.64191 -0.0337,-5.26403 -3.54913,-5.46582 -3.54913,-5.46582 0,0 4.70099,-2.356 4.51341,-8.0021 -0.12652,-3.808488 -3.26931,-7.226442 -8.36744,-7.209372 z m -0.93535,4.347534 c 0.12376,2.7e-4 0.23734,0.002 0.33797,0.005 1.61066,0.0503 3.85266,0.49467 3.84886,4.270028 -0.005,4.46512 -5.49012,4.52229 -10.28051,4.97127 0,-8.959448 0,-8.959138 0,-8.959138 0,0 4.23729,-0.29226 6.09368,-0.28732 z" />
    <path
       style="fill:#009cde;fill-opacity:1;stroke-width:1;stroke-opacity:0.474506;paint-order:markers fill stroke"
       d="m -12.992226,104.41014 c 0,0 0.09007,15.98821 0.15821,22.84514 0.03105,3.12474 4.3074141,6.17065 9.8048551,6.09733 5.73495,-0.0765 9.088623,-3.37657 10.501151,-7.64794 0.525875,-1.5902 0.499827,-23.21326 0.499827,-23.21326 l -5.305864,0.5591 -0.154138,22.08811 c 0,0 -0.811049,3.83127 -5.463982,3.81039 -4.652933,-0.0209 -4.854768,-3.28123 -4.854768,-3.28123 l -0.159419,-21.83004 z"
       id="path181796"
       sodipodi:nodetypes="cssscccsccc" />
    <path
       style="fill:#009cde;fill-opacity:1;stroke-width:1;stroke-opacity:0.474506;paint-order:markers fill stroke"
       d="m 125.41195,88.986988 c 0,0 0.0901,15.988212 0.15821,22.845142 0.031,3.12474 4.30741,6.17065 9.80485,6.09733 5.73495,-0.0765 9.08862,-3.37657 10.50115,-7.64794 0.52588,-1.5902 0.49983,-23.213262 0.49983,-23.213262 l -5.30586,0.5591 -0.15414,22.088112 c 0,0 -0.81105,3.83127 -5.46398,3.81039 -4.65294,-0.0209 -4.85477,-3.28123 -4.85477,-3.28123 l -0.15942,-21.830042 z"
       id="path181796-7"
       sodipodi:nodetypes="cssscccsccc" />
    <path
       id="path182341"
       style="fill:#009cde;fill-opacity:1;stroke-width:1;stroke-opacity:0.474506;paint-order:markers fill stroke"
       d="m 111.9854,92.686348 c -0.32396,0.004 -0.65816,0.0206 -1.00253,0.0501 -10.94012,0.93693 -12.334455,10.471772 -12.065412,14.700392 0.69426,10.91192 9.163262,11.38949 9.163262,11.38949 -0.47669,4.70301 1.82745,6.61094 5.68131,6.69984 4.10055,0.0946 5.81412,-2.92592 5.81412,-2.92592 0,0 2.2e-4,3e-5 -1.93115,-3.08972 -2.49288,3.39084 -5.40146,1.54208 -4.04833,-1.27228 9.79657,-3.77091 8.81755,-14.05185 8.81755,-14.05185 0,0 -0.38609,-11.631152 -10.42882,-11.500082 z m -1.02268,4.02043 c 4.01482,-0.0246 5.9957,3.354402 6.1004,6.758762 0.10808,3.51419 0.10157,9.57228 -5.29683,11.06186 -6.43704,1.77617 -8.21532,-4.06838 -7.25641,-11.86956 0.26358,-2.14431 2.68007,-5.735822 6.05803,-5.937622 0.13375,-0.008 0.2653,-0.0126 0.39481,-0.0134 z" />
    <g
       aria-label="avec Emmaus Connect"
       transform="rotate(-5.4153127)"
       id="text185038"
       style="font-size:15.5222px;font-family:Ramabhadra;-inkscape-font-specification:Ramabhadra;text-align:center;letter-spacing:0.420687px;text-anchor:middle;fill:#231952;fill-opacity:1;stroke-opacity:0.474506;paint-order:markers fill stroke">
      <path
         d="m -15.300126,150.67715 h -1.872063 l -1.614369,-8.0491 h 2.137334 l 0.56844,3.50916 q 0.234955,1.42489 0.28043,1.8948 0.06063,-0.12884 0.522965,-0.97771 0.469911,-0.85645 0.576019,-1.03077 l 2.000909,-3.39548 h 2.349552 z"
         style="font-style:italic;font-weight:bold;font-family:Arial;-inkscape-font-specification:'Arial Bold Italic';fill:#231952;fill-opacity:1"
         id="path263565" />
      <path
         d="m 134.17558,148.4212 -5.78225,-0.0472 c -0.005,0.0859 -0.008,0.15158 -0.008,0.19706 0,0.53559 0.15159,0.96761 0.45476,1.29604 0.30822,0.32843 1.00735,0.53981 1.44694,0.53981 0.72255,0 2.44187,-0.38882 2.8461,-1.13663 l 1.08517,1.08168 c -0.91801,0.94462 -2.70928,1.59698 -3.94643,1.60868 -1.0813,0 -2.40985,-0.34539 -3.08692,-1.02752 -0.67708,-0.68718 -1.01562,-1.59416 -1.01562,-2.72093 0,-1.10151 0.3057,-2.08176 0.91709,-2.94073 0.83371,-1.16214 2.47301,-1.73888 4.01916,-1.73888 0.98529,0 1.76848,0.30569 2.34955,0.91708 0.58107,0.60633 0.87161,1.45773 0.87161,2.55419 0,0.52549 -0.0505,0.99793 -0.15158,1.41731 z m -1.83417,-1.32636 c 0.005,-0.096 0.008,-0.16927 0.008,-0.2198 0,-0.59623 -0.1339,-1.0434 -0.4017,-1.34152 -0.26779,-0.29811 -0.62654,-0.44717 -1.07624,-0.44717 -0.4497,0 -1.17915,0.12211 -1.5379,0.46065 -0.35369,0.33853 -0.5937,0.83876 -0.72002,1.50068 z"
         style="font-style:italic;font-weight:bold;font-size:15.5222px;font-family:Arial;-inkscape-font-specification:'Arial Bold Italic';text-align:center;letter-spacing:0.420687px;text-anchor:middle;fill:#231952;fill-opacity:1;stroke-opacity:0.474506;paint-order:markers fill stroke"
         id="path263567-8"
         sodipodi:nodetypes="ccscsccccscscscccsssccc" />
      <path
         d="m -2.6128496,147.43111 -5.78225,-0.0472 c -0.005,0.0859 -0.008,0.15158 -0.008,0.19706 0,0.53559 0.15159,0.96761 0.45476,1.29604 0.30822,0.32843 1.00735,0.53981 1.44694,0.53981 0.72255,0 2.44187,-0.38882 2.8461,-1.13663 l 1.08517,1.08168 c -0.91801,0.94462 -2.70928,1.59698 -3.94643,1.60868 -1.0813,0 -2.40985,-0.34539 -3.08692,-1.02752 -0.6770804,-0.68718 -1.0156204,-1.59416 -1.0156204,-2.72093 0,-1.10151 0.3057,-2.08176 0.9170904,-2.94073 0.83371,-1.16214 2.47301,-1.73888 4.01916,-1.73888 0.98529,0 1.76848,0.30569 2.34955,0.91708 0.58107,0.60633 0.87161,1.45773 0.87161,2.55419 0,0.52549 -0.0505,0.99793 -0.15158,1.41731 z m -1.83417,-1.32636 c 0.005,-0.096 0.008,-0.16927 0.008,-0.2198 0,-0.59623 -0.1339,-1.0434 -0.4017,-1.34152 -0.26779,-0.29811 -0.62654,-0.44717 -1.07624,-0.44717 -0.4497,0 -1.17915,0.12211 -1.5379,0.46065 -0.35369,0.33853 -0.5937,0.83876 -0.72002,1.50068 z"
         style="font-style:italic;font-weight:bold;font-size:15.5222px;font-family:Arial;-inkscape-font-specification:'Arial Bold Italic';text-align:center;letter-spacing:0.420687px;text-anchor:middle;fill:#231952;fill-opacity:1;stroke-opacity:0.474506;paint-order:markers fill stroke"
         id="path263567-8-0"
         sodipodi:nodetypes="ccscsccccscscscccsssccc" />
      <path
         d="m 5.2981649,147.75721 1.7149878,0.28331 c -0.7669321,2.07093 -1.9273016,2.89635 -4.5778712,2.82611 -1.0253584,-0.0272 -1.83921896,-0.30569 -2.44050209,-0.91708 -0.60128312,-0.61139 -0.90192468,-1.45268 -0.90192468,-2.52387 0,-0.87413 0.18190078,-1.70027 0.54570233,-2.4784 0.36380155,-0.77813 0.91203027,-1.38952 1.64468614,-1.83417 0.7326559,-0.44969 1.3268489,-0.53328 2.2009832,-0.53328 0.9499263,0 1.892294,0.26049 2.4582075,0.75566 0.5659135,0.49517 0.9051005,1.18981 0.9758397,1.99826 l -1.6553038,0.39841 c -0.244584,-0.81888 -0.354105,-1.65478 -1.7059668,-1.6868 -1.1832458,0.007 -2.2082549,0.71485 -2.5521078,1.73395 -0.19200628,0.62149 -0.26042457,1.13106 -0.26042457,1.67676 0.01535,2.57555 4.19786257,2.8175 4.55369427,0.30114 z"
         style="font-style:italic;font-weight:bold;font-family:Arial;-inkscape-font-specification:'Arial Bold Italic';fill:#231952;fill-opacity:1"
         id="path263569"
         sodipodi:nodetypes="ccsssscsscccccc" />
      <path
         d="m 12.583914,150.67715 1.356829,-10.67998 7.557116,0.0934 -0.170379,1.99214 -5.244241,-0.16119 -0.22787,2.41428 4.74737,-0.0295 -0.386539,1.8569 -4.493528,0.0567 -0.277672,2.62755 5.438414,0.0663 -0.304575,1.83875 z"
         style="font-style:italic;font-weight:bold;font-family:Arial;-inkscape-font-specification:'Arial Bold Italic';fill:#231952;fill-opacity:1"
         id="path263571"
         sodipodi:nodetypes="ccccccccccccc" />
      <path
         d="m 23.110937,143.17525 1.856101,0.0738 -0.0256,1.08899 c 0.87316,-0.77104 2.121794,-1.55303 3.091763,-1.54443 0.668944,0.006 1.185825,0.13695 1.550643,0.39304 0.364818,0.25609 0.599574,0.60711 0.704269,1.05305 0.302643,-0.40188 0.739718,-0.73682 1.311224,-1.00483 0.571507,-0.26801 0.879647,-0.39216 1.498421,-0.38667 0.707966,0.006 1.261527,0.18313 1.660683,0.53055 0.399156,0.34742 0.510829,0.88042 0.607043,1.3708 0.04875,1.03952 -0.187331,6.36984 -0.187331,6.36984 l -1.19992,-0.0106 -1.199919,-0.0106 c 0.175675,-2.7965 0.392066,-4.33627 0.247674,-5.53315 -0.0022,-0.22253 -0.07914,-0.39768 -0.230888,-0.52545 -0.146225,-0.13278 -0.367061,-0.20048 -0.662511,-0.20311 -0.596477,-0.005 -0.920621,-0.17382 -1.383293,0.39353 -0.336041,0.40664 -0.43047,1.22059 -0.659987,2.2603 l -0.162349,3.58258 -1.19992,-0.0106 -1.199919,-0.0106 c -0.01916,-1.97933 0.608976,-3.60673 0.368686,-5.57706 -0.0021,-0.21241 -0.08462,-0.38761 -0.247612,-0.5256 -0.157422,-0.13794 -0.375497,-0.20814 -0.654223,-0.21062 -0.262004,-0.002 -0.531678,0.066 -0.809019,0.20522 -0.277342,0.13914 -0.520718,0.33168 -0.730126,0.57762 -0.203834,0.24599 -0.20668,0.47736 -0.353385,0.86545 -0.06511,0.18148 -0.169786,0.5927 -0.314017,1.23367 l -0.320802,3.41131 -0.982418,-0.0158 -1.199919,-0.0106 z"
         style="font-style:italic;font-weight:bold;font-family:Arial;-inkscape-font-specification:'Arial Bold Italic';fill:#231952;fill-opacity:1;stroke-width:1.0508"
         id="path263573"
         sodipodi:nodetypes="cccsscsssccccccscccccccssccccccc" />
      <path
         d="m 37.753489,143.17597 1.856101,0.0738 -0.0256,1.08899 c 0.87316,-0.77104 2.121794,-1.55303 3.091763,-1.54443 0.668944,0.006 1.185825,0.13695 1.550643,0.39304 0.364818,0.25609 0.599574,0.60711 0.704269,1.05305 0.302643,-0.40188 0.739718,-0.73682 1.311224,-1.00483 0.571507,-0.26801 0.879647,-0.39216 1.498421,-0.38667 0.707966,0.006 1.261527,0.18313 1.660683,0.53055 0.399156,0.34742 0.510829,0.88042 0.607043,1.3708 0.04875,1.03952 -0.187331,6.36984 -0.187331,6.36984 l -1.19992,-0.0106 -1.199919,-0.0106 c 0.175675,-2.7965 0.392066,-4.33627 0.247674,-5.53315 -0.0022,-0.22253 -0.07914,-0.39768 -0.230888,-0.52545 -0.146225,-0.13278 -0.367061,-0.20048 -0.662511,-0.20311 -0.596477,-0.005 -0.920621,-0.17382 -1.383293,0.39353 -0.336041,0.40664 -0.43047,1.22059 -0.659987,2.2603 l -0.162349,3.58258 -1.19992,-0.0106 -1.199919,-0.0106 c -0.01916,-1.97933 0.608976,-3.60673 0.368686,-5.57706 -0.0021,-0.21241 -0.08462,-0.38761 -0.247612,-0.5256 -0.157422,-0.13794 -0.375497,-0.20814 -0.654223,-0.21062 -0.262004,-0.002 -0.531678,0.066 -0.809019,0.20522 -0.277342,0.13914 -0.520718,0.33168 -0.730126,0.57762 -0.203834,0.24599 -0.20668,0.47736 -0.353385,0.86545 -0.06511,0.18148 -0.169786,0.5927 -0.314017,1.23367 l -0.320802,3.41131 -0.982418,-0.0158 -1.199919,-0.0106 z"
         style="font-style:italic;font-weight:bold;font-size:15.5222px;font-family:Arial;-inkscape-font-specification:'Arial Bold Italic';text-align:center;letter-spacing:0.420687px;text-anchor:middle;fill:#231952;fill-opacity:1;stroke-width:1.0508;stroke-opacity:0.474506;paint-order:markers fill stroke"
         id="path263573-3"
         sodipodi:nodetypes="cccsscsssccccccscccccccssccccccc" />
      <path
         d="m 107.64562,143.64354 1.8561,0.0738 -0.0256,1.08899 c 0.87316,-0.77104 2.1218,-1.55303 3.09177,-1.54443 0.66894,0.006 1.18582,0.13695 1.55064,0.39304 0.36482,0.25609 0.57907,0.64975 0.70427,1.05305 0.1315,0.42357 -0.0852,3.21738 -0.0852,3.21738 l -0.27595,3.61581 -1.19992,-0.0106 -1.19992,-0.0106 c 0.32255,-2.08466 0.47414,-3.68173 0.36868,-5.57706 -0.002,-0.21241 -0.0846,-0.38761 -0.24761,-0.5256 -0.15742,-0.13794 -0.3755,-0.20814 -0.65422,-0.21062 -0.26201,-0.002 -0.53168,0.066 -0.80902,0.20522 -0.27734,0.13914 -0.52072,0.33168 -0.73013,0.57762 -0.20383,0.24599 -0.20668,0.47736 -0.35338,0.86545 -0.0651,0.18148 -0.16979,0.5927 -0.31402,1.23367 l -0.3208,3.41131 -0.98242,-0.0158 -1.19992,-0.0106 z"
         style="font-style:italic;font-weight:bold;font-size:15.5222px;font-family:Arial;-inkscape-font-specification:'Arial Bold Italic';text-align:center;letter-spacing:0.420687px;text-anchor:middle;fill:#231952;fill-opacity:1;stroke-width:1.0508;stroke-opacity:0.474506;paint-order:markers fill stroke"
         id="path263573-3-4"
         sodipodi:nodetypes="cccsssccccccssccccccc" />
      <path
         d="m 117.28504,143.74239 1.8561,0.0738 -0.0256,1.08899 c 0.87316,-0.77104 2.1218,-1.55303 3.09177,-1.54443 0.66894,0.006 1.18582,0.13695 1.55064,0.39304 0.36482,0.25609 0.57907,0.64975 0.70427,1.05305 0.1315,0.42357 -0.0852,3.21738 -0.0852,3.21738 l -0.27595,3.61581 -1.19992,-0.0106 -1.19992,-0.0106 c 0.32255,-2.08466 0.47414,-3.68173 0.36868,-5.57706 -0.002,-0.21241 -0.0846,-0.38761 -0.24761,-0.5256 -0.15742,-0.13794 -0.3755,-0.20814 -0.65422,-0.21062 -0.26201,-0.002 -0.53168,0.066 -0.80902,0.20522 -0.27734,0.13914 -0.52072,0.33168 -0.73013,0.57762 -0.20383,0.24599 -0.20668,0.47736 -0.35338,0.86545 -0.0651,0.18148 -0.16979,0.5927 -0.31402,1.23367 l -0.3208,3.41131 -0.98242,-0.0158 -1.19992,-0.0106 z"
         style="font-style:italic;font-weight:bold;font-size:15.5222px;font-family:Arial;-inkscape-font-specification:'Arial Bold Italic';text-align:center;letter-spacing:0.420687px;text-anchor:middle;fill:#231952;fill-opacity:1;stroke-width:1.0508;stroke-opacity:0.474506;paint-order:markers fill stroke"
         id="path263573-3-4-7"
         sodipodi:nodetypes="cccsssccccccssccccccc" />
      <path
         d="m 54.025897,145.91312 -2.166767,-0.21824 c 0.242534,-0.71749 0.937322,-1.74938 1.538605,-2.15361 0.606336,-0.40422 1.407205,-0.60633 2.402607,-0.60633 1.035823,0 1.801322,0.20969 2.296497,0.62907 0.495174,0.41433 1.388602,1.32548 1.388602,1.92677 0,0.24253 -0.0977,1.58274 -0.0977,1.58274 l -0.365575,4.24716 -1.759977,-0.16203 c -0.0859,-0.29306 -0.297713,-0.88191 -0.317924,-1.19518 -0.318327,0.35369 -1.596493,1.10015 -2.010822,1.29216 -0.41433,0.18695 -0.831186,0.28043 -1.250568,0.28043 -0.666969,0 -1.217725,-0.21727 -1.652266,-0.65181 -0.434541,-0.43959 -0.651811,-1.00298 -0.651811,-1.69016 0,-0.76803 0.332747,-1.14983 0.80771,-1.60963 0.480016,-0.45981 1.212306,-0.74818 2.440136,-0.84418 1.035824,-0.0859 2.099333,-0.38097 2.447976,-0.50221 0.09095,-0.30317 0.136425,-0.54571 0.136425,-0.72761 0,-0.23243 -0.09348,-0.42696 -0.28043,-0.58359 -0.186953,-0.15664 -0.883566,-0.40186 -1.252421,-0.40186 -0.389065,0 -0.697286,0.0808 -0.924662,0.24254 -0.222323,0.15663 -0.525348,0.50936 -0.727631,1.14557 z m 3.03315,1.73845 c -0.131373,0.0354 -0.305694,0.0682 -0.522964,0.0985 -1.091405,0.13137 -2.17114,0.21054 -2.504625,0.46318 -0.237481,0.1819 -0.356222,0.42696 -0.356222,0.73518 0,0.25264 0.09095,0.46738 0.272851,0.64423 0.181901,0.1718 0.421909,0.2577 0.720024,0.2577 0.328432,0 0.636653,-0.0783 0.924662,-0.23496 1.010295,-0.26563 1.275998,-1.13492 1.405641,-1.67585 z"
         style="font-style:italic;font-weight:bold;font-family:Arial;-inkscape-font-specification:'Arial Bold Italic';fill:#231952;fill-opacity:1"
         id="path263577"
         sodipodi:nodetypes="cccscscccccscscccsssccccccscsccc" />
      <path
         d="m -25.667174,145.43139 -2.166767,-0.21824 c 0.242534,-0.71749 0.937322,-1.74938 1.538605,-2.15361 0.606336,-0.40422 1.407205,-0.60633 2.402607,-0.60633 1.035823,0 1.801322,0.20969 2.296497,0.62907 0.495174,0.41433 1.388602,1.32548 1.388602,1.92677 0,0.24253 -0.0977,1.58274 -0.0977,1.58274 l -0.365575,4.24716 -1.759977,-0.16203 c -0.0859,-0.29306 -0.297713,-0.88191 -0.317924,-1.19518 -0.318327,0.35369 -1.596493,1.10015 -2.010822,1.29216 -0.41433,0.18695 -0.831186,0.28043 -1.250568,0.28043 -0.666969,0 -1.217725,-0.21727 -1.652266,-0.65181 -0.434541,-0.43959 -0.651811,-1.00298 -0.651811,-1.69016 0,-0.76803 0.332747,-1.14983 0.80771,-1.60963 0.480016,-0.45981 1.212306,-0.74818 2.440136,-0.84418 1.035824,-0.0859 2.099333,-0.38097 2.447976,-0.50221 0.09095,-0.30317 0.136425,-0.54571 0.136425,-0.72761 0,-0.23243 -0.09348,-0.42696 -0.28043,-0.58359 -0.186953,-0.15664 -0.883566,-0.40186 -1.252421,-0.40186 -0.389065,0 -0.697286,0.0808 -0.924662,0.24254 -0.222323,0.15663 -0.525348,0.50936 -0.727631,1.14557 z m 3.03315,1.73845 c -0.131373,0.0354 -0.305694,0.0682 -0.522964,0.0985 -1.091405,0.13137 -2.17114,0.21054 -2.504625,0.46318 -0.237481,0.1819 -0.356222,0.42696 -0.356222,0.73518 0,0.25264 0.09095,0.46738 0.272851,0.64423 0.181901,0.1718 0.421909,0.2577 0.720024,0.2577 0.328432,0 0.636653,-0.0783 0.924662,-0.23496 1.010295,-0.26563 1.275998,-1.13492 1.405641,-1.67585 z"
         style="font-style:italic;font-weight:bold;font-size:15.5222px;font-family:Arial;-inkscape-font-specification:'Arial Bold Italic';text-align:center;letter-spacing:0.420687px;text-anchor:middle;fill:#231952;fill-opacity:1;stroke-opacity:0.474506;paint-order:markers fill stroke"
         id="path263577-3"
         sodipodi:nodetypes="cccscscccccscscccsssccccccscsccc" />
      <path
         d="m 61.707658,143.38896 h 2.17523 c 0,0 0,0 -0.326183,4.28306 -0.209765,1.37475 0.181284,1.77374 1.053117,1.88705 1.40529,0.18263 1.899248,-0.28929 2.20596,-2.58571 l 0.451184,-3.53831 h 2.175231 l -0.601005,7.74173 h -2.031225 l 0.117278,-1.22567 c -0.889293,0.85392 -2.52642,1.44093 -3.572349,1.44093 -0.661917,0 -1.182355,-0.18948 -1.561315,-0.56844 -0.37896,-0.37896 -0.56844,-0.88676 -0.56844,-1.52341 0.0074,-1.23726 0.167598,-3.80577 0.482517,-5.91123 z"
         style="font-style:italic;font-weight:bold;font-family:Arial;-inkscape-font-specification:'Arial Bold Italic';fill:#231952;fill-opacity:1"
         id="path263579"
         sodipodi:nodetypes="cccsccccccsscc" />
      <path
         d="m 70.379842,149.01889 2.107017,-0.33348 c 0.186954,0.44464 0.419383,0.76044 0.697287,0.9474 0.277904,0.1819 0.868265,0.42505 1.34828,0.42505 0.495175,0 0.89182,-0.11116 1.189935,-0.33349 0.207165,-0.15158 0.310747,-0.336 0.310747,-0.55328 0,-0.14652 -0.05305,-0.2779 -0.159163,-0.39412 -0.111162,-0.11116 -0.411804,-0.24758 -0.901925,-0.40927 -1.313728,-0.43454 -2.910633,-0.75105 -3.223906,-1.00369 -0.490121,-0.39412 -0.735182,-0.90951 -0.735182,-1.54616 0,-0.63665 0.237481,-1.18488 0.712444,-1.64469 0.661917,-0.6417 1.644686,-0.96255 2.948309,-0.96255 1.035824,0 1.819008,0.18948 2.349551,0.56844 0.530544,0.37896 0.866555,0.89182 1.008034,1.53857 l -2.008488,0.34865 c -0.106109,-0.29307 -0.277904,-0.51286 -0.515385,-0.65939 -0.323379,-0.19706 -0.712445,-0.29559 -1.167197,-0.29559 -0.454752,0 -0.783184,0.0758 -0.985296,0.22737 -0.197059,0.15159 -0.295589,0.32591 -0.295589,0.52297 0,0.20211 0.101056,0.36885 0.303168,0.50022 0.12632,0.0808 1.316474,0.19525 2.003655,0.39736 1.061088,0.30822 1.771006,0.61139 2.129755,0.9095 0.50528,0.41939 0.75792,0.92467 0.75792,1.51584 0,0.76298 -0.320853,1.42489 -0.962558,1.98575 -0.641705,0.56086 -1.546156,0.84129 -2.713353,0.84129 -1.162144,0 -2.272944,-0.36442 -2.909596,-0.78885 -0.6316,-0.42949 -1.061088,-1.03077 -1.288464,-1.80385 z"
         style="font-style:italic;font-weight:bold;font-family:Arial;-inkscape-font-specification:'Arial Bold Italic';fill:#231952;fill-opacity:1"
         id="path263581"
         sodipodi:nodetypes="cccscscccscsscccscscccssscc" />
      <path
         d="m 93.382638,146.93944 2.304077,0.34864 c -0.449699,1.24804 -1.124248,2.20302 -2.023647,2.86494 -0.899398,0.65686 -2.703866,1.58704 -4.621235,1.42075 -1.354119,-0.11744 -2.422816,-0.40928 -3.190842,-1.22783 -0.762972,-0.81855 -1.67864,-1.85179 -1.67864,-3.40805 0,-1.2632 0.255166,-2.41776 0.765499,-3.46369 0.515385,-1.05098 1.22783,-1.85438 2.137334,-2.41019 0.909504,-0.5558 1.899853,-0.83371 2.971046,-0.83371 1.202566,0 2.590107,0.61411 3.332868,1.26087 0.742762,0.6417 1.179829,1.51836 1.311202,2.62998 l -2.190389,0.21222 c -0.121267,-0.64676 -0.356222,-1.11415 -0.704865,-1.40216 -0.343591,-0.29306 -1.218272,-0.73032 -1.794291,-0.73032 -0.6316,0 -1.222778,0.19201 -1.773533,0.57602 -0.545702,0.38402 -0.982769,0.9853 -1.311201,1.80385 -0.328432,0.8135 -0.492648,1.627 -0.492648,2.4405 0.194049,1.31912 1.595737,2.56342 2.770044,2.63498 1.666467,0.0827 2.592537,-0.62746 3.082658,-1.01148 0.495174,-0.38401 0.864029,-0.95245 1.106563,-1.70532 z"
         style="font-style:italic;font-weight:bold;font-family:Arial;-inkscape-font-specification:'Arial Bold Italic';fill:#231952;fill-opacity:1"
         id="path263583"
         sodipodi:nodetypes="cccscscssccccscccccc" />
      <path
         d="m 97.156968,148.16454 q 0,-2.23587 1.258147,-3.56223 1.265726,-1.33393 3.319685,-1.33393 1.78112,0 2.78157,0.98529 1.00045,0.97772 1.00045,2.63756 0,1.95544 -1.25056,3.38033 -1.25057,1.42488 -3.35001,1.42488 -1.136879,0 -2.016066,-0.45475 -0.879187,-0.45475 -1.311202,-1.28846 -0.432014,-0.83371 -0.432014,-1.78869 z m 6.199782,-1.55374 q 0,-0.77308 -0.45475,-1.23541 -0.44717,-0.46991 -1.15962,-0.46991 -0.70486,0 -1.25056,0.4396 -0.545707,0.43201 -0.848875,1.26572 -0.303168,0.82613 -0.303168,1.52342 0,0.86403 0.469911,1.37184 0.469912,0.5078 1.182352,0.5078 0.89435,0 1.50068,-0.7655 0.86403,-1.08382 0.86403,-2.63756 z"
         style="font-style:italic;font-weight:bold;font-family:Arial;-inkscape-font-specification:'Arial Bold Italic';fill:#231952;fill-opacity:1"
         id="path263585" />
      <path
         d="m 141.78311,148.52933 2.27606,0.19555 c -0.34864,0.93982 -0.83567,1.58038 -1.43263,2.17127 -0.84727,0.83865 -2.35948,0.93628 -3.25888,0.93628 -1.02572,0 -1.83922,-0.30569 -2.4405,-0.91708 -0.60129,-0.61139 -1.10483,-1.06185 -1.10483,-2.13304 0,-0.87413 0.1819,-1.70027 0.5457,-2.4784 0.36381,-0.77813 0.91204,-1.38952 1.64469,-1.83417 0.73265,-0.44969 1.53605,-0.67454 2.41019,-0.67454 0.94992,0 1.70784,0.24759 2.27376,0.74276 0.56591,0.49517 0.88424,1.14698 0.95497,1.95543 l -1.95766,0.41283 c -0.0505,-0.4497 -0.30094,-0.97369 -0.52831,-1.18591 -0.22233,-0.21221 -0.51539,-0.31832 -0.87919,-0.31832 -0.41938,0 -0.81097,0.15664 -1.17478,0.46991 -0.3638,0.31327 -0.64423,0.78318 -0.84129,1.40973 -0.19201,0.62149 -0.33546,0.83642 -0.33546,1.38212 0,0.47497 0.11622,0.8413 0.34865,1.09899 0.23243,0.25769 0.53124,0.311 0.8716,0.38653 1.06124,0.2355 1.8216,-0.34958 2.14498,-0.60222 0.32338,-0.25264 0.30103,-0.51244 0.48293,-1.01772 z"
         style="font-style:italic;font-weight:bold;font-family:Arial;-inkscape-font-specification:'Arial Bold Italic';fill:#231952;fill-opacity:1"
         id="path263593"
         sodipodi:nodetypes="ccssssscsscccsscssssc" />
      <path
         d="m 145.02734,145.69206 0.33348,-1.61436 1.35578,0.0475 0.20784,-2.32186 2.2563,-0.51483 -0.4149,2.80514 3.66042,0.016 -0.33348,1.61436 -3.18098,-0.16497 c -0.2414,1.59 -0.26736,2.82339 -0.46896,4.22414 0,0.16674 0.0531,0.29811 0.15916,0.39412 0.10612,0.0909 0.30042,0.10074 0.57602,0.13642 1.06126,0.1374 1.73976,-0.57818 2.21378,-0.99097 l 0.79305,1.30382 c -0.37391,0.0758 -1.66253,1.38952 -2.55633,1.39667 -0.94608,0.008 -2.434,-0.33482 -2.78265,-0.62788 -0.34864,-0.29812 -0.52296,-0.70992 -0.52296,-1.23541 0,-0.24759 -0.0575,-0.93698 0.12946,-1.83132 l 0.35846,-2.51209 z"
         style="font-style:italic;font-weight:bold;font-family:Arial;-inkscape-font-specification:'Arial Bold Italic';fill:#231952;fill-opacity:1"
         id="path263595"
         sodipodi:nodetypes="cccccccccccsccscsccc" />
    </g>
    <circle
       style="fill:#ff454c;fill-opacity:1;stroke-width:1;stroke-opacity:0.474506;paint-order:markers fill stroke"
       id="path263060"
       cx="76.739861"
       cy="134.21794"
       r="1.2323565" />
    <circle
       style="fill:#ff454c;fill-opacity:1;stroke-width:1;stroke-opacity:0.474506;paint-order:markers fill stroke"
       id="path263060-8"
       cx="80.73909"
       cy="133.8381"
       r="1.2323565" />
  </g>
</svg>
