<svg xmlns="http://www.w3.org/2000/svg" height="60" viewBox="0 0 372 506">
  <path d="M185.8 504.8c-8.1-10.1-15.9-19.9-23.6-29.7-31.4-39.7-62-80-89.9-122.3-21.1-32.1-41-65-55.9-100.6-6.5-15.6-12.3-31.5-14.1-48.3-1.1-10.7-.9-21.7-.2-32.5 1.1-16 4.2-31.7 9.5-46.9C28.4 75.7 61.5 42 107.5 20.2c18.8-9 38.7-14.7 59.3-17.6 23.4-3.4 46.3 0 68.7 6.7 33.6 10.1 63.1 27.1 87.4 52.8 22.5 23.9 36.5 52.2 43.2 84.1 3.6 17 5.2 34.3 4.1 51.6-.9 15.4-5.4 30.1-10.9 44.4-12.6 33.1-30.1 63.7-48.9 93.6-27.4 43.4-57.9 84.4-89.5 124.8-11 14-22.1 27.9-33.2 41.9-.5.7-1 1.3-1.9 2.3z" fill="#ce2b62"/>
  <path d="M233.6 400c0 1.6-1.4 3-3 3h-86.8c-1.6 0-3-1.4-3-3v-86.8c0-1.6 1.4-3 3-3h86.8c1.6 0 3 1.4 3 3V400z" fill="#fff"/>
  <path d="M144.1 313.5h86.1v86.1h-86.1z" fill="#0f6baf"/>
  <path d="m169.9 352-2.3-1.5c-.7-.4-1.1-1.1-1.3-2-.1-.6-.1-1.2.1-1.7h-14.9v5.3l18.4-.1c0 .1 0 .1 0 0m5.1-4.8.6-.3h-1.1c.2.1.4.2.5.3m9 4c-.5-.2-.8-.5-1-1 0-.1-.1-.2-.1-.2-.2.3-.5.5-.9.7l-2.9 1.6h4.5c.2-.5.3-.8.4-1.1m8.7-.7c-.3-.2-.5-.4-.7-.7l-.3.6c-.4.6-1 .9-1.6.9.1.3.2.6.2.9h4.7v-.1l-2.3-1.6m16.4-3.7c.2 1.4-.5 3-1.9 3.7 0 0-1.9 1-2.9 1.6h18.5v-5.3h-13.7" fill="#afc2e1"/>
  <path d="M190.3 320.7c1.7 0 3.2-1.3 3.5-3 .2-1.6-.9-3-2.6-3-1.7 0-3.2 1.3-3.5 3-.2 1.7.9 3 2.6 3m10.4-1.2c-.6-1.4-2.3-1.8-3.8-1l-6.9 3.6-5.8-3.6c-1.3-.8-3.1-.3-4.1 1-1 1.4-.8 3.1.5 3.9l4 2.5-1 7.1c0 .2 0 .4.1.5.2.5.9.7 1.4.4l3.5-1.8 2.9 1.8c.5.3 1.2.1 1.6-.4.1-.2.2-.4.2-.5l1-7.1 4.7-2.5c1.6-.8 2.3-2.5 1.7-3.9m-13.3 21c1.7 0 3.2-1.3 3.5-3 .2-1.6-.9-3-2.6-3-1.7 0-3.2 1.3-3.5 3-.2 1.6.9 3 2.6 3m10.4-1.2c-.6-1.4-2.3-1.8-3.8-1l-6.9 3.6-5.8-3.6c-1.3-.8-3.1-.3-4.1 1-1 1.4-.8 3.1.5 3.9l4 2.5-1 7.1c0 .2 0 .4.1.5.2.5.9.7 1.4.4l3.5-1.8 2.9 1.8c.5.3 1.2.1 1.6-.4.1-.2.2-.4.2-.5l1-7.1 4.7-2.5c1.6-.8 2.3-2.6 1.7-3.9m-26.3-8.7c1.7 0 3.2-1.3 3.5-3 .2-1.6-.9-3-2.6-3-1.7 0-3.2 1.3-3.5 3-.2 1.6.9 3 2.6 3m10.4-1.2c-.6-1.4-2.3-1.8-3.8-1l-6.9 3.6-5.8-3.6c-1.3-.8-3.1-.3-4.1 1-1 1.4-.8 3.1.5 3.9l4 2.5-1 7.1c0 .2 0 .4.1.5.2.5.9.7 1.4.4l3.5-1.8 2.9 1.8c.5.3 1.2.1 1.6-.4.1-.2.2-.4.2-.5l1-7.1 4.7-2.5c1.6-.8 2.3-2.5 1.7-3.9m-13.3 20.9c1.7 0 3.2-1.3 3.5-3 .2-1.6-.9-3-2.6-3-1.7 0-3.2 1.3-3.5 3-.2 1.7.9 3 2.6 3m10.4-1.1c-.6-1.4-2.3-1.8-3.8-1l-6.9 3.6-5.8-3.6c-1.3-.8-3.1-.3-4.1 1-1 1.4-.8 3.1.5 3.9l4 2.5-1 7.1c0 .2 0 .4.1.5.2.5.9.7 1.4.4l3.5-1.8 2.9 1.8c.5.3 1.2.1 1.6-.4.1-.2.2-.4.2-.5l1-7.1 4.7-2.5c1.6-.8 2.3-2.6 1.7-3.9m27.2-18.6c-1.7 0-2.8-1.3-2.6-3 .2-1.6 1.8-3 3.5-3s2.8 1.3 2.6 3c-.3 1.6-1.8 3-3.5 3m-10.1-1.2c1-1.4 2.8-1.8 4.1-1l5.8 3.6 6.9-3.6c1.5-.8 3.2-.3 3.8 1 .6 1.4-.1 3.1-1.6 3.9l-4.7 2.5-1 7.1c0 .2-.1.4-.2.5-.4.5-1.1.7-1.6.4l-2.9-1.8-3.5 1.8c-.6.3-1.2.1-1.4-.4-.1-.2-.1-.4-.1-.5l1-7.1-4-2.5c-1.4-.8-1.6-2.5-.6-3.9m7.2 20.9c-1.7 0-2.8-1.3-2.6-3 .2-1.6 1.8-3 3.5-3s2.8 1.3 2.6 3c-.3 1.7-1.8 3-3.5 3m-10.1-1.1c1-1.4 2.8-1.8 4.1-1l5.8 3.6 6.9-3.6c1.5-.8 3.2-.3 3.8 1 .6 1.4-.1 3.1-1.6 3.9l-4.7 2.5-1 7.1c0 .2-.1.4-.2.5-.4.5-1.1.7-1.6.4l-2.9-1.8-3.5 1.8c-.6.3-1.2.1-1.4-.4-.1-.2-.1-.4-.1-.5l1-7.1-4-2.5c-1.4-.8-1.6-2.6-.6-3.9m-8.7 11c1.7 0 3.2-1.3 3.5-3 .2-1.6-.9-3-2.6-3s-3.2 1.3-3.5 3c-.2 1.7.9 3 2.6 3m10.4-1.2c-.6-1.4-2.3-1.8-3.8-1l-6.9 3.6-5.8-3.6c-1.3-.8-3.1-.3-4.1 1-1 1.4-.8 3.1.5 3.9l4 2.5-1 7.1c0 .2 0 .4.1.5.2.5.9.7 1.4.4l3.5-1.8 2.9 1.8c.5.3 1.2.1 1.6-.4.1-.2.2-.4.2-.5l1-7.1 4.7-2.5c1.6-.8 2.3-2.5 1.7-3.9m-44 20.9-.5-2.8-1.6 2.8h2.1m-2.5.7c-.5.9-.9 1.6-1.3 2.5H146l4.9-8.3h.8l1.7 8.3c-.3 0-.7-.1-1-.1s-.7 0-1 .1c-.1-.9-.2-1.7-.4-2.5h-2.6zm8.3 1.6c1 0 1.9-.1 2.7-.2-.1.2-.1.3-.2.5v.5h-4.4l1.5-8.1c.3 0 .6.1.9.1.3 0 .6 0 .9-.1l-1.4 7.3m6 0c1 0 1.9-.1 2.7-.2-.1.2-.1.3-.2.5v.5h-4.4l1.5-8.1c.3 0 .6.1.9.1.3 0 .6 0 .9-.1l-1.4 7.3m6.2-2.9c-.3 1.5.1 3.2 1.8 3.2 1.8 0 2.9-1.8 3.3-3.8.3-1.5-.1-3.3-1.8-3.3-1.6 0-2.8 1.3-3.3 3.9m1.6 3.9c-2.6 0-4-1.6-3.5-4.3.4-2.4 2.5-4.3 5.4-4.3 3.3 0 3.8 2.4 3.5 4.2-.5 2.5-2.6 4.4-5.4 4.4zm12.7-1.5-.5 1c-.8.4-1.6.5-2.4.5-2.5 0-4.1-1.6-3.6-4 .6-3.1 2.9-4.5 5.5-4.5.8 0 1.7.2 2.3.6-.2.4-.3.8-.5 1.2h-.2c-.3-.6-1-1.1-1.7-1.1-1.9 0-3.1 1.9-3.4 3.7-.4 2 .3 3.5 2.1 3.5.7 0 1.6-.4 2.2-.9h.2m5.6-1.8-.5-2.8-1.6 2.8h2.1m-2.6.7c-.5.9-.9 1.6-1.3 2.5h-1.1l4.9-8.3h.8l1.7 8.3c-.3 0-.6-.1-1-.1-.3 0-.7 0-1 .1-.1-.9-.2-1.7-.4-2.5h-2.6zm9.7 2.5c-.3 0-.6-.1-.9-.1-.3 0-.6 0-.9.1l1.4-7.3c-.8 0-1.6.1-2.2.2.1-.2.1-.3.2-.5v-.5h6c-.1.2-.1.3-.2.5v.5c-.7-.1-1.3-.2-2-.2l-1.4 7.3m5.1-8.2c.3 0 .6.1.9.1.3 0 .6 0 .9-.1l-1.5 8.2c-.3 0-.6-.1-.9-.1-.3 0-.6 0-.9.1l1.5-8.2m4.4 4.4c-.3 1.5.1 3.2 1.8 3.2 1.8 0 2.9-1.8 3.3-3.8.3-1.5-.1-3.3-1.8-3.3-1.6 0-2.8 1.3-3.3 3.9m1.6 3.9c-2.6 0-4-1.6-3.5-4.3.4-2.4 2.5-4.3 5.4-4.3 3.3 0 3.8 2.4 3.5 4.2-.4 2.5-2.6 4.4-5.4 4.4zm7.7-8.3h1.1c1.3 1.9 2.7 3.7 4 5.6l1.1-5.6h1l-1.5 8.2h-1c-1.1-1.5-2-3-3.1-4.4l-1-1.4-1.1 5.8h-1l1.5-8.2m12.5 1.5c-.1-.6-.5-1-1.1-1-.9 0-1.4.5-1.5 1.2-.3 1.6 3.3 1.3 2.8 4-.3 1.5-1.8 2.6-3.6 2.6-.6 0-1.3-.2-1.8-.5.2-.5.5-1 .6-1.5h.2c0 .8.6 1.3 1.4 1.3.7 0 1.4-.4 1.6-1.2.4-1.9-3.2-1.2-2.7-4.1.3-1.4 1.4-2.5 3.2-2.5.8 0 1.5.3 1.7.6l-.6 1.2-.2-.1M152 395.3c-.3 0-.7-.1-1-.1s-.7 0-1 .1l1.8-8.4h5.1c-.1.2-.1.4-.2.5v.5c-.8-.1-1.7-.2-3.1-.2l-.6 2.6h1.4c.5 0 1.1 0 1.7-.1-.1.2-.1.4-.2.5v.5c-.6 0-1.1-.1-1.6-.1h-1.4l-.9 4.2m9.6-3.3-.6-2.9-1.9 2.9h2.5m-3 .7c-.5.9-1 1.7-1.5 2.5h-1.3l5.7-8.5h1l1.9 8.6c-.4 0-.8-.1-1.1-.1-.4 0-.8 0-1.2.1-.1-.9-.2-1.7-.4-2.6h-3.1zm17.6-5.9c.2 0 .4.1.6.1.2 0 .4 0 .6-.1-.3 3.3-.5 6-.6 8.4-.4 0-.7-.1-1.1-.1-.4 0-.7 0-1.1.1.3-2 .4-3.8.6-5.7l-4.2 5.7h-.5c-.5-1.7-1.2-3.6-1.8-5.5-.8 2.2-1.3 3.9-1.8 5.6-.2 0-.4-.1-.6-.1-.2 0-.4 0-.6.1 1-2.5 2-5.3 3.2-8.4.2 0 .3.1.5.1s.4 0 .6-.1c.6 1.9 1.2 3.9 1.9 5.8 1.2-1.8 2.8-3.7 4.3-5.9m4.2 0c.3 0 .7.1 1 .1s.7 0 1-.1l-1.8 8.4c-.3 0-.7-.1-1-.1s-.7 0-1 .1l1.8-8.4m4.9 7.5c1.2 0 2.2-.1 3.1-.2-.1.2-.1.4-.2.5v.5h-5.1l1.8-8.4c.3 0 .7.1 1 .1s.7 0 1-.1l-1.6 7.6m6.6-7.5c.3 0 .7.1 1 .1s.7 0 1-.1l-1.8 8.4c-.3 0-.7-.1-1-.1s-.7 0-1 .1l1.8-8.4m7.5 5.2-.6-2.9-1.8 2.9h2.4m-2.9.7c-.5.9-1 1.7-1.5 2.5h-1.3l5.7-8.5h1l1.9 8.6c-.4 0-.8-.1-1.1-.1-.4 0-.8 0-1.2.1-.1-.9-.2-1.7-.4-2.6h-3.1zm9.4 1.6c1.2 0 2.2-.1 3.1-.2-.1.2-.1.4-.2.5v.5h-5.1l1.8-8.4c.3 0 .7.1 1 .1s.7 0 1-.1l-1.6 7.6m11.7-7.5c-.1.2-.1.4-.2.5v.5c-.8-.1-1.7-.2-3.1-.2l-.6 2.6h1.4c.6 0 1.2 0 1.7-.1-.1.2-.1.4-.2.5v.5c-.5-.1-1-.1-1.6-.1h-1.4l-.7 3.1c1.4 0 2.3-.1 3.1-.2-.1.2-.1.4-.2.5v.5h-5.1l1.8-8.4 5.1.3m5.7 1.6c-.1-.7-.6-1.1-1.3-1.1-1.1 0-1.6.5-1.7 1.2-.4 1.7 3.8 1.4 3.2 4.2-.3 1.6-2.1 2.7-4.1 2.7-.7 0-1.5-.2-2.1-.5.3-.5.5-1 .7-1.6h.3c0 .8.6 1.4 1.6 1.4.8 0 1.7-.4 1.8-1.3.4-2-3.7-1.3-3.1-4.2.3-1.4 1.6-2.6 3.7-2.6 1 0 1.8.3 2 .6-.2.4-.5.8-.7 1.2h-.3" fill="#fff"/>
  <path d="M370.5 169h.6v7.6c-.2-2.5-.4-5-.6-7.6zm-161.3 64.4c-.8.9-1.5 1.8-2.2 2.6-4.9 6-12.6 8.1-19.8 5.4-5.7-2.2-8.6-6.6-9.7-12.4-1.5-7.4.2-14.3 3.8-20.7 3.1-5.5 7.3-10 12.9-13 3.2-1.7 6.6-2.5 10.2-2.4 4.9.1 9 2 11.7 6.9.8-1.9 1.4-3.5 2.1-5.2h9.5c-1.2 4.1-2.4 7.8-3.5 11.6-1.9 6.6-3.8 13.2-5.6 19.9-.4 1.6-.6 3.3-.7 5 0 4.8 3.1 7.3 7.8 6 3.4-.9 6.1-2.8 8.4-5.4 4.4-4.9 7-10.6 8-16.9 2.2-12.6-.6-23.8-10.6-32.5-5.6-4.8-12.3-7.2-19.6-8.1-26.1-3.5-45.9 16-49.1 37.8-1.5 10.1-.2 19.7 4.9 28.5 5.6 9.7 14.3 15.3 25.2 17.3 13.9 2.6 26.8-.5 38.9-7.5 1-.6 1.9-1.2 2.9-1.7.2-.1.5-.2 1.1-.5.7 1.1 1.4 2.2 2.2 3.4-7.9 6-16.5 9.6-25.9 11.1-9.8 1.6-19.6 1.6-29.3-1.2-16.5-4.9-28.3-18.8-29.9-36.1-.7-8.3-.3-16.6 2.8-24.5 5.5-14.1 15.6-23.6 29.8-28.5 12.9-4.5 25.9-5 38.8.1 16.8 6.6 25.9 22.6 23.4 40.5-1.1 7.9-3.7 15-8.8 21.1-3.7 4.3-8.1 7.3-13.8 8.3-7.8 1.4-12.7-1.2-15.9-8.9zm3.8-25.6c0-8-5.3-11.5-11-8.7-1.4.7-2.6 1.7-3.7 2.7-5.3 5-8.1 11.4-9.7 18.4-.7 3-1 6.2-.8 9.2.2 3.3 1.8 6.2 5.3 7.5 3.4 1.2 6.5.4 8.9-2.1 1.6-1.6 3-3.4 4-5.4 1.3-2.5 2.4-5.1 3.2-7.8 1.6-5.1 2.9-10.2 3.8-13.8zm-70.7 32.6c.8.9 1.1 1.1 1.1 1.3-.4 4.3-.8 8.6-1.3 13-6.2 3.4-12.7 5.7-19.5 6.9-10.5 2-21 2.1-31.3-1.3-15.7-5.2-25.6-15.8-29.1-32.1-2.6-12.5-1.3-24.7 4.8-36.1 4.8-9.1 12.3-15.3 21.8-19 10.7-4.2 21.9-4.9 33.2-3.6 7.5.8 14.6 2.8 21.9 6.2-1.3 4.4-2.7 8.7-4.2 13.4-1.1-.8-1.8-1.1-2.1-1.6-3.8-6.7-10.1-9.5-17.4-10.6-6-.9-12.1-.8-18 .9-11.2 3.2-17.8 11-20.8 21.9-2.8 10.1-3 20.3-.3 30.5 2.3 8.7 6.8 16.1 14.7 20.9 10.6 6.4 21.5 5.4 32.3.6 4.2-1.8 7.6-4.8 10.7-8.1 1.2-1 2.3-2 3.5-3.2zM266 204.6h-9.5V198c3.1.1 6.1.3 9.3.4.8-4.4 1.2-8.6 2.2-12.6 2-7.8 5.9-14.6 12.4-19.6 4.9-3.8 10.3-4.7 16-3.8v14.5c-1.5-.4-2.4-.6-3.2-.9-3.3-1.3-6.8-1.8-10.3-1.2-3.9.7-5.8 2.7-5.8 6.6 0 2.9.5 5.9 1.1 8.8.5 2.6 1.4 5.1 2.2 7.9H294v6.5h-13.3c-.2 19 .6 37.6 1.1 56.4-2.9-.2-5.5-.6-8.2-.6-2.7 0-5.3.4-8.4.6.9-18.7 1.5-37.3.8-56.4zM199.8 36.5c3.2-2 6.5-2.8 9.9-.6 1.4.9 2.5 2.2 4 3.5 1.8-1.7 4.3-2.8 7.2-2.5 4.3.4 6.7 2.9 6.7 7.2 0 2.2-.5 4.5-.8 6.7-.2 1.8-.6 3.6-.8 5.4-.2 1.8-.4 3.6-.6 5.7-2-.2-3.7-.3-5.9-.5.6-3.5 1.2-6.8 1.6-10.1.3-2.1.6-4.2.6-6.3.1-3.3-.9-4.4-3.6-4.7-2.5-.3-4.3.8-4.9 3.5-.8 3.6-1.3 7.2-1.8 10.8-.3 1.6-.3 3.3-.5 5.4-2.2-.3-4-.6-5.9-.8.7-4.4 1.4-8.5 2-12.7.2-1.5.3-3.1.3-4.6 0-1.7-1-2.9-2.6-3.5-1.8-.7-3.5-.5-4.6 1-1 1.4-1.8 3.2-2.1 4.9-.8 4.4-1.4 8.9-2.1 13.6-1.8-.3-3.5-.5-5.5-.8 1.1-7.8 2.2-15.4 3.3-23.5 1.6.1 3.3.2 5.1.4.2.7.3 1.4.4 2-.1.3-.1.7-.2 1 .3-.2.5-.4.8-.5zm82.8 78-3.7-3.7c3.4-3.2 7-6.6 10.5-9.9-2.4-1.4-4.8-2.4-6.6-4.1-2.8-2.6-3.5-6-2.2-9.7 1.8-5.3 5.3-9 10.7-10.4 6.4-1.6 10.9 1.8 12.4 9.5.6-.3 1.1-.5 1.4-.6 1.2 1.3 2.3 2.5 3 3.2-8.2 8.4-16.8 17-25.5 25.7zm18.3-27.9c0-4.1-3.1-6.4-6.6-5.1-4.4 1.6-7.5 4.8-9.5 9.1-.9 2-.8 3.9.7 5.5 1.6 1.7 3.5 2.3 5.7 1.4 4.5-1.7 7.5-4.9 9.3-9.2.3-.7.4-1.4.4-1.7zM51.5 139.3c4.7 2 9.2 3.9 13.8 5.9-.9 1.9-1.7 3.8-2.5 5.8-10.5-4.6-20.9-9.2-31.4-13.8 1.7-4 3.2-8.1 5.1-11.9 1.7-3.6 4.6-5.7 8.8-5.1 4 .5 7.4 2.6 8.4 6.6.6 2.4.1 5.2-.3 7.8-.2 1.3-1.1 2.7-1.9 4.7zm-15.3-6.8c4.3 1.9 8.4 3.6 12.5 5.4 2.2-2.7 2.8-5.3 1.1-8-1.8-2.8-4.5-4.2-7.9-4-3.7.2-4.6 3.2-5.7 6.6zm143.9-74.2c-.4-.8-.8-1.5-.9-1.7-2.3 1.2-4.3 2.7-6.6 3.3-4.4 1-7.8-1.4-8.7-5.7-.8-3.7-1-7.5-1.4-11.3-.2-2.1-.3-4.1-.5-6.4 1.9-.2 3.6-.4 5.6-.7.5 4.7.9 9.3 1.4 13.9.1.8.1 1.7.3 2.5.6 2.5 2.1 3.8 4.4 3.8 2.4 0 4.5-1.4 4.7-3.9.2-3 0-6.2-.2-9.2-.2-2.6-.7-5.2-1-7.7.3-.2.4-.4.5-.4 1.7-.2 3.3-.4 5.2-.6.8 7.9 1.5 15.6 2.3 23.8-1.8.1-3.4.2-5.1.3zm-48-13.3c1.8-.6 3.4-1.1 5-1.6.4 1 .6 1.7.9 2.5.2-.1.5-.1.6-.3.8-1.1 1.5-2.4 2.5-3.4 4.6-4.2 11-2.5 13.2 3.5 1.8 5 3.2 10.2 4.8 15.5-1.7.6-3.5 1.2-5.4 1.8-1.4-4.6-2.8-9-4.1-13.4-.3-.9-.6-1.9-1-2.8-1.1-2-2.7-2.8-4.9-2.4-2 .4-3.7 1.9-3.7 4s.4 4.2.9 6.2c1.1 3.8 2.4 7.4 3.6 11.3-1.9.6-3.6 1.1-5.4 1.7-2.2-7.4-4.6-14.8-7-22.6zM99.8 93.9c-1.4 1.3-2.7 2.4-4.2 3.7-5.3-6-10.4-11.9-15.7-18 1.3-1.1 2.6-2.3 4-3.5.7.7 1.3 1.2 1.9 1.8.2-.2.4-.4.4-.6.5-1.6.6-3.4 1.5-4.7 3.1-5 8.3-5.7 12.4-1.5 3.1 3.1 5.8 6.5 8.6 9.8.7.8 1.5 1.7 2.5 2.8-1.4 1.3-2.7 2.6-4.2 4-3-3.5-5.9-6.9-8.8-10.2-.8-.9-1.7-1.9-2.7-2.6-1.3-1-2.6-1.6-4.3-.7-1.8 1-3.1 2.3-2.7 4.3.4 1.8 1.1 3.8 2.3 5.3 2.8 3.4 5.9 6.6 9 10.1zm215.5 2.8c1.2 1.9 2.1 3.3 3.1 4.8-3.8 2.5-7.6 4.9-11.3 7.4-1 .7-2.1 1.5-3 2.4-1.4 1.4-1.8 3.1-.8 5 1 1.8 3 3.1 4.8 2.6 1.6-.4 3.2-1.1 4.6-2 3.2-2 6.2-4.3 9.4-6.5.4-.3 1-.5 1.6-.8 1.1 1.6 2.1 3 3.2 4.5-6.7 4.5-13.3 8.8-19.9 13.2-.9-1.4-1.8-2.8-2.8-4.1.6-.7 1.1-1.4 1.7-2.1-1.2-.4-2.2-.7-3.2-1.2-5.8-2.7-6.9-9.2-2-13.4 2.4-2 5.1-3.5 7.7-5.2 2.2-1.4 4.4-2.9 6.9-4.6zM81.5 113.5c0 6.4-5.5 12.6-11.6 12.9-6.3.3-13.6-5.6-14.1-11.6-.4-5.3 2.1-9.2 6.2-12.2 3.9-2.8 8-2.2 11.9 0 4.3 2.4 7.5 5.6 7.6 10.9zm-17.1-8c-2.3-.1-3.9 1-4.9 2.9-.9 1.9-.8 3.8.5 5.6 2.8 3.8 6.7 5.9 11 7.5.6.2 1.4.2 2.1.2 4-.2 6.6-4 4.6-7.4-2.9-5-7.7-7.6-13.3-8.8zm188.7-44.7c-4.8-1.9-9.5-3.8-14.2-5.6-1.8 2.8-2.1 5.6-.6 8.2 2.6 4.4 7 4 11.4 3.3-.6 1.8-1.4 2.9-3.2 3.2-6 1-13.1-3.5-14.4-9.2-1.4-6.3 3-14.4 8.7-16.1 4.8-1.4 9.2.1 12.3 3.6 3.2 3.9 2.2 8.2 0 12.6zm-4.3-4.5c2.8-4.6.9-8.5-1.6-9.2-3.2-.9-6 1.3-7.2 5.9 3 1.1 6 2.2 8.8 3.3zm80.1 89.9c-2.2-4.8-4.3-9.3-6.5-14.1-3.3.9-5.6 2.7-6.2 6-.8 4.6 2.2 7.2 5.8 9.6-1.7 1.5-3.1 1.3-4.6.1-7.5-5.7-6.9-16 1.2-20.8 6.9-4.1 14.1-2.4 17.4 3.9 2.9 5.7 1.7 10.3-3.8 13.7-.9.5-2 .9-3.3 1.6zm.1-5.9c1.8-1.2 3.2-2 4.3-3 2.4-2.3 1.8-5.8-1.4-7.2-2.6-1.2-4.8-.3-7.1 1.1 1.4 2.9 2.7 5.7 4.2 9.1zM104.3 49.2c1.7 2.8 3.2 5.1 4.8 7.6 1.5-.9 2.6-1.6 3.8-2.3 1.5 1.8 1.5 1.8-2.2 4.8 2.4 4.7 5.1 9.2 8.4 13.4 1.8 2.3 2.6 2.1 7-1-.1 1.3.1 2.3-.3 2.9-3.5 5.3-9 5.3-12.5-.1-1.3-2-2.4-4.1-3.7-6.2-1.2-1.9-2.3-3.8-3.7-5.9-1 .4-2 .8-3.3 1.2-.3-.4-.7-.9-1.2-1.6.9-.7 1.7-1.4 2.7-2.2-.9-1.6-1.7-3-2.6-4.7.9-1.7 1.7-3.5 2.8-5.9zm153.4 28c-1.7-1-3.1-1.9-4.9-2.9 4.1-6.8 8.1-13.6 12.2-20.6 1.5.9 2.9 1.7 4.6 2.7-.4 1.1-.8 2-1.3 3.1.4.1.8.3 1.1.2 2.4-1 4.8-1.2 7.4.4-1 1.7-1.9 3.2-2.7 4.7-.4 0-.7.1-.8 0-4.4-3.3-6.2-3.1-9.2 1.5-2.3 3.5-4.2 7.1-6.4 10.9zm24.2-12.8c1.6 1.3 3 2.4 4.5 3.6-4.8 6.3-9.5 12.6-14.3 19-1.5-1.1-3-2.1-4.6-3.2 4.7-6.5 9.5-12.8 14.4-19.4zM70.2 91c1.3-1.5 2.4-2.9 3.7-4.4 6 5.1 11.9 10.2 18.1 15.5-1.1 1.3-2.2 2.7-3.6 4.4-6.2-5.3-12.2-10.4-18.2-15.5zm177-51.5c3.1-1.5 6.1-3.1 9.2-4.6 1.4-.7 2.5-.2 3.1 1.2.6 1.4-.1 2.5-1.6 2.8-3.4.7-6.7 1.3-10.1 1.9-.3-.4-.5-.8-.6-1.3zm45.3 20c0 1.9-1.6 3.4-3.5 3.4-1.8 0-3.4-1.7-3.2-3.6.1-1.8 1.9-3.3 3.8-3.2 1.7.1 2.9 1.5 2.9 3.4zM65.4 80c1.8 0 3.6 1.7 3.7 3.4 0 1.6-2 3.6-3.5 3.5-1.6-.1-3.4-2.1-3.4-3.7-.1-1.8 1.4-3.2 3.2-3.2zm66.4 355.6c1.7 2.2 3.4 4.5 5 6.7m5.3 6.7c-4.5-.4-5-1-5.2-6.6 1.7 2.2 3.5 4.4 5.2 6.6z" style="fill:#f8f1f7"/>
</svg>
