<svg xmlns="http://www.w3.org/2000/svg" viewBox="0 0 1060 1060"><style>.st0{fill:none;stroke:#fff;stroke-width: 5}</style>
<polygon class="st0" points="885,373.9 901.8,335.6 924.4,301.3 937.7,288.8 947.6,277.4 947.6,268 930.4,235.5 925.6,248.7 
	920.4,232.5 906,223.9 900.2,223.9 866.4,191 832.8,179.3 816.9,179.3 795.4,166.5 784.5,164.5 783,167.4 783.7,177.6 772.1,191.7 
	762.7,197.2 757.5,207.5 752.5,210 753.5,217.7 749.6,221.4 754,241.7 751.6,245.6 752.8,256.1 754.8,258.3 756.1,270.1 
	761.5,272.2 759,277.9 767.9,294.4 775.4,294.4 784.7,309.8 779.1,330.1 773.8,328.1 768.6,337.8 770.4,360.1 752.6,387.5 
	749.6,387.5 746.2,394.4 748.4,401.1 755.5,402.2 759.7,406.8 769.6,405.4 774.8,408.6 779.8,402.9 785.7,402.1 800.4,389.7 
	799.8,394.4 816.9,398.9 830.6,391.8 837.3,396.9 835,402.4 846.9,400.6 850.8,404.6 860.5,403.6 862.5,399.4 876.1,391.3 "/>
		<polygon class="st0" points="383,793.4 380.2,790.2 378.2,787 377.8,786.2 378.2,780.5 379.8,777.3 387.9,764.4 388.3,764 
			391.5,762.4 391.9,762 396.7,762.8 397.1,763.2 399.6,769.2 399.6,770 400,772.5 399.6,780.5 399.6,781.3 398.7,784.6 
			395.9,791.8 393.9,795.8 393.5,796.2 392.7,796.6 391.1,797 		"/>
		<polygon class="st0" points="382.2,817.6 381.8,816.4 385.1,811.5 388.3,809.1 389.1,808.7 389.5,810.3 387.1,814.8 386.7,815.2 
			383.4,818.4 		"/>
		<polygon class="st0" points="370.1,857.5 368.5,856.3 370.9,851.8 371.4,851 371.8,851 373.8,851.4 374.6,852.6 374.6,853.4 
			374.6,854.2 373.4,855.9 372.2,857.1 371.4,857.9 370.5,857.9 		"/>
		<polygon class="st0" points="354.8,871.6 354.4,871.2 354,870.8 355.2,868.8 355.6,868.3 356,868.3 359.7,868.8 360.5,869.2 
			360.9,869.6 360.9,870 359.3,871.2 355.2,872 		"/>

		<polygon class="st0" points="348.4,892.1 348,891.3 348.4,888.1 348.4,887.3 348.8,886.5 356.9,879.6 357.7,879.6 358.1,880 
			358.5,882 358.9,882.9 358.9,884.5 358.1,889.7 357.7,890.1 348.8,892.5 		"/>
		<polygon class="st0" points="335.5,911.5 335.5,910.7 335.9,909 336.3,908.6 336.7,908.2 337.5,908.2 337.9,909 337.5,909.8 
			337.5,910.7 336.7,911.9 335.9,911.9 		"/>
		<polygon class="st0" points="333.1,921.5 333.1,922.3 333.9,926.8 334.3,935.2 332.3,941.7 329.9,945.7 329.5,946.5 328.2,947.7 
			327,948.5 322.6,950.1 317.8,952.1 313.7,953 312.9,953 309.3,952.5 308.5,952.1 308.1,951.7 307.7,951.3 316.6,928.8 319,925.6 
			321.8,922.3 323.4,921.1 325.8,919.9 326.6,919.9 327.4,919.9 331.5,920.3 332.3,920.7 332.7,921.1 		"/>
	
	<polygon class="st0" points="252.5,309.6 250.1,308 249.7,307.6 247.3,305.1 246.5,303.9 246.1,303.1 246.5,301.5 250.5,290.2 
		250.9,290.2 254.5,290.6 258.5,298.7 258.5,299.1 259.8,306.7 259.4,307.1 258.1,308.8 257.3,309.2 256.1,309.6 255.3,309.6 	"/>

	<polygon class="st0" points="312.9,188.7 304.1,183.9 301.7,183.5 300.8,183.9 300.4,184.3 300,184.7 299.2,184.3 298.4,183.1 
		296,169.8 296,168.2 296.4,167.4 299.6,164.9 300,164.5 300.8,164.5 308.1,168.2 308.5,168.6 314.1,174.6 314.5,175 315,175.8 
		315.8,178.2 316.2,180.6 315.8,189.1 315.8,189.9 315,189.9 	"/>
	<polygon class="st0" points="302.5,264.8 296,262 295.2,261.6 294.8,261.2 294.4,260.4 294.4,260 294,251.6 294.4,249.9 
		294.8,249.1 302.1,241.9 302.9,241.5 307.3,241.9 308.5,242.7 314.1,245.5 323.8,251.6 324.2,252 324.6,252.8 324.6,258 
		324.6,258.8 322.6,260.8 321.8,261.2 315,265.7 	"/>

	<polygon class="st0" points="119.6,102.9 120,102.5 121.6,100.5 133.3,92 134.1,91.6 134.5,91.2 138.1,90 144.1,89.2 145.3,89.6 
		145.3,90.4 142.9,94.8 142.1,96 138.5,97.7 136.9,98.1 130.8,100.5 122,104.1 120.4,104.5 119.6,104.5 117.9,104.5 	"/>

	<polygon class="st0" points="187.6,231.4 186.4,229 185.6,227.8 183.6,226.2 181.6,225 180.8,225 179.2,225.4 177.2,225.4 
		174.3,225 171.9,224.2 169.5,222.9 163.9,219.7 163.5,219.3 160.2,214.1 159.8,213.3 161.1,211.3 161.9,210.5 163.5,209.3 
		166.3,208 167.1,208 177.6,213.7 178.4,214.1 182.4,218.1 193.3,231 193.3,232.6 193.3,233.4 192.9,233.8 188.9,235.8 	"/>
	<polygon class="st0" points="197.3,252 194.9,251.2 194.1,250.3 193.3,249.1 192.9,247.9 192.9,247.1 192.9,245.1 192.9,243.5 
		193.7,241.9 194.9,238.3 196.5,237.5 198.5,237.1 199.7,237.1 203.4,238.3 203.8,238.7 204.2,239.5 204.2,239.9 205.4,244.3 
		205.4,245.9 205.4,247.9 204.6,249.5 203.8,250.7 203.4,251.2 203,251.6 198.5,252 	"/>

	<polygon class="st0" points="365.3,512.2 364.9,511.8 364.9,511 364.5,507 364.5,505.4 364.9,502.5 364.9,501.7 362.5,491.7 
		362.5,490.9 362.1,490.1 358.5,482 354.4,476.8 352.8,474.7 351.2,472.7 350.8,471.9 348.8,465.1 350,458.6 351.2,454.6 352,453.4 
		354.4,452.6 356.9,452.6 357.7,453 372.6,459.4 374.6,460.6 379.8,468.7 381.4,476 381.8,494.5 381.8,495.3 381.4,499.3 
		381.4,500.5 381,501.3 379.8,504.2 379.4,505.4 377.8,507 366.5,512.2 	"/>

	<polygon class="st0" points="422.5,716.5 420.9,714.9 418.5,712.4 417.3,711.6 416.5,711.6 414.5,711.6 412.8,711.2 411.2,710 
		409.6,708.8 407.2,706.4 406.4,705.2 406.4,704.4 406,703.6 405.6,694.7 405.6,693.9 406,691.5 411.6,681.4 414.9,675.8 
		424.1,662.9 425.3,662.1 426.1,662.1 427.4,662.9 428.2,663.3 428.2,663.7 431.8,675.4 433.4,680.6 433.4,683 432.2,697.5 
		432.2,698.3 431.8,701.6 430.2,707.6 424.9,716.1 423.3,717.3 422.5,717.3 	"/>

	<polygon class="st0" points="122,119 121.6,118.6 121.2,118.2 121.2,117.4 121.6,117 134.9,110.5 135.7,110.5 138.5,111 
		138.9,111.4 140.5,115.4 140.5,116.2 139.7,117.8 136.9,117.4 126,118.2 122,119 	"/>
	<polygon class="st0" points="163.1,144 162.7,143.2 159,139.2 158.6,138.8 158.6,137.9 159,136.7 159.8,136.7 167.1,138.3 
		169.9,139.2 170.3,140 169.9,140.8 167.1,142.4 163.9,144 	"/>
	<polygon class="st0" points="348,353.9 344.8,347.8 343.6,344.6 343.2,342.2 343.2,341.4 343.2,339.8 344,338.6 346.8,335.3 
		351.6,331.7 352.4,331.3 353.2,331.3 353.6,331.3 356.4,333.3 360.5,336.6 360.9,337 361.3,337.8 362.5,342.6 362.5,343.8 
		361.7,347 361.3,347.8 361.7,348.6 362.1,349.9 364.9,353.5 366.1,354.7 367.3,355.5 368.9,355.9 369.7,356.3 370.5,356.3 
		376.2,357.1 378.2,357.5 379.4,358.3 380.6,359.1 388.3,365.2 385.5,367.2 354,374.4 352.4,374.4 351.2,374.4 348,373.2 
		346.4,372.8 344.8,371.6 343.2,370 341.1,370.4 338.7,370.8 338.3,370.8 338.3,371.2 336.7,374 336.3,374.8 336.7,375.6 
		337.1,379.3 337.5,380.1 338.3,382.5 339.9,391.8 340.3,394.6 339.5,397.4 339.1,397.8 337.5,399.4 333.1,403.4 327.4,406.7 
		322.2,409.1 321.4,409.5 321,409.1 315,399.8 312.1,395.4 311.7,394.2 307.3,368.8 306.9,365.6 307.3,359.9 308.5,356.3 
		311.7,353.9 313.7,352.7 314.1,352.3 315.8,352.3 316.6,352.3 326.2,357.5 332.7,363.1 332.7,363.6 333.1,364 336.3,364.4 
		339.5,362.7 339.9,362.7 341.9,361.9 	"/>
	<polygon class="st0" points="404.4,361.1 404.4,360.7 404.8,359.9 405.2,359.5 408.4,357.1 410,355.9 412.8,354.3 413.7,353.9 
		414.5,353.9 416.1,353.9 418.1,354.3 417.7,355.1 416.5,355.9 411.2,359.1 405.2,361.5 	"/>
	<polygon class="st0" points="378.6,420 377.4,419.6 374.6,418.7 373.8,418.3 373,417.1 370.9,411.9 370.9,411.1 373.8,405.9 
		378.6,400.6 379.8,399.8 380.6,400.2 383.8,403 388.7,408.7 389.5,409.5 390.7,412.7 390.7,413.5 390.7,414.3 389.9,415.5 
		385.9,418.3 384.6,418.7 382.6,419.6 381,420 	"/>

	<polygon class="st0" points="432.2,613.3 420.1,612.5 414.9,612.5 411.6,613.3 392.7,581.9 384.6,565.8 384.6,565 385.5,562.6 
		387.1,560.6 389.1,558.9 392.3,556.5 393.9,556.1 394.7,556.1 396.7,556.5 402.8,558.5 403.6,558.9 410.8,563 411.6,563 
		424.5,575.5 424.5,577.1 429.4,587.5 437,595.6 439.8,598.8 441.5,611.7 441.9,612.5 441,614.5 440.2,616.6 439.8,617.4 
		438.6,620.2 436.6,621.8 435.8,621.8 	"/>

</svg>
