<svg width="100" height="124" viewBox="0 0 100 124" fill="none" xmlns="http://www.w3.org/2000/svg">
<rect y="24" width="100" height="100" rx="50" fill="white"/>
<path d="M10.0695 65.7583H19.9083C25.275 65.7583 28.2778 68.25 28.2778 72.6583C28.2778 77.1306 25.275 79.5583 19.9083 79.5583H10.0695V65.7583ZM19.2056 76.1722C21.8889 76.1722 23.4222 74.8945 23.4222 72.6583C23.4222 70.4222 21.8889 69.1445 19.2056 69.1445H14.9889V76.1722H19.2056ZM77.2806 65.7583H83.1583L89.9306 79.6222H84.6917L83.6056 77.1945H76.7056L75.6195 79.6222H70.3806L77.2806 65.7583ZM82.6472 74.3195L80.1556 68.825L77.6639 74.3195H82.6472ZM62.7778 77.6417L61.8833 76.1722C61.3083 75.3417 60.4778 74.9583 59.5195 74.9583H56.5806V79.5583H51.5333V65.6945H63.225C66.9306 65.6945 69.1028 67.2917 69.1028 70.1028C69.1028 72.1472 67.6333 73.6167 65.0778 74.1278C65.525 74.3195 65.9722 74.6389 66.2917 75.15L67.25 76.6195C67.5056 76.9389 67.825 77.1945 68.4 77.1945C68.7195 77.1945 69.1667 77.0028 69.4222 76.7472L70.2528 78.7917C69.4861 79.4306 67.9528 79.9417 66.675 79.9417C64.6306 80.0056 63.5445 78.7917 62.7778 77.6417ZM61.6917 72.1472C63.1611 72.1472 63.9917 71.5083 63.9917 70.4222C63.9917 69.3361 63.1611 68.6972 61.6917 68.6972H56.5806V72.1472H61.6917Z" fill="#5B12EB"/>
<path d="M39.7778 62.5C34.1556 62.5 29.6194 67.0361 29.6194 72.6583C29.6194 81.0278 39.7778 85.5 39.7778 85.5C39.7778 85.5 49.9361 81.0278 49.9361 72.6583C49.9361 67.0361 45.4 62.5 39.7778 62.5ZM42.2694 75.15C40.9278 76.4917 38.6917 76.4917 37.35 75.15C36.0083 73.8083 36.0083 71.5722 37.35 70.2306C38.6917 68.8889 40.9278 68.8889 42.2694 70.2306C43.6111 71.5722 43.6111 73.7444 42.2694 75.15Z" fill="#9C6FF4"/>
</svg>
