<svg version="1.1" id="Puces" xmlns="http://www.w3.org/2000/svg" xmlns:xlink="http://www.w3.org/1999/xlink" x="0px" y="0px"
	 viewBox="0 0 1420 870" style="enable-background:new 0 0 1420 870;" xml:space="preserve">
<style type="text/css">
	.multipuces0{fill:url(#SVGID_1mp_);}
	.multipuces1{fill:url(#SVGID_00000123404263984844597480000005203535210551476131_);}
	.multipuces2{fill:url(#SVGID_00000053523745897598862250000003398357044673448368_);}
	.multipuces3{fill:url(#SVGID_00000146494290591093185800000000736978634038067860_);}
	.multipuces4{fill:url(#SVGID_00000028296047596637077920000014929415691032892306_);}
	.multipuces5{fill:url(#SVGID_00000091001264714415591830000007453761147262151342_);}
	.multipuces6{fill:url(#SVGID_00000140725563210183519240000018131102059551262887_);}
	.multipuces7{fill:url(#SVGID_00000137847088366957570500000010712640169091118733_);}
	.multipuces8{fill:url(#SVGID_00000173162770372034387200000013181379838670349455_);}
	.multipuces9{fill:url(#SVGID_00000152969924691426709920000012499794676726274743_);}
	.multipuces10{fill:#FF732C;}
	.multipuces11{fill:#73E0CF;}
</style>
<g>
	
		<radialGradient id="SVGID_1mp_" cx="2166.0525" cy="3871.1377" r="323.5443" gradientTransform="matrix(0.6696 0 0 7.464997e-02 -751.8575 549.774)" gradientUnits="userSpaceOnUse">
		<stop  offset="0" style="stop-color:#000091;stop-opacity:0.4"/>
		<stop  offset="1" style="stop-color:#000091;stop-opacity:0"/>
	</radialGradient>
	<ellipse class="multipuces0" cx="698.6" cy="838.8" rx="223.6" ry="27.4"/>
	
		<radialGradient id="SVGID_00000120557681585922790640000004269431345096268441_" cx="1538.6823" cy="3871.1377" r="198.1191" gradientTransform="matrix(0.6696 0 0 7.464997e-02 -751.8575 549.774)" gradientUnits="userSpaceOnUse">
		<stop  offset="0" style="stop-color:#000091;stop-opacity:0.4"/>
		<stop  offset="1" style="stop-color:#000091;stop-opacity:0"/>
	</radialGradient>
	
		<ellipse style="fill:url(#SVGID_00000120557681585922790640000004269431345096268441_);" cx="278.5" cy="838.8" rx="136.9" ry="16.8"/>
	
		<radialGradient id="SVGID_00000042701367614763940610000016681760733042585007_" cx="1908.4231" cy="3871.1377" r="132.8956" gradientTransform="matrix(0.6696 0 0 7.464997e-02 -751.8575 549.774)" gradientUnits="userSpaceOnUse">
		<stop  offset="0" style="stop-color:#000091;stop-opacity:0.4"/>
		<stop  offset="1" style="stop-color:#000091;stop-opacity:0"/>
	</radialGradient>
	
		<ellipse style="fill:url(#SVGID_00000042701367614763940610000016681760733042585007_);" cx="526.1" cy="838.8" rx="91.9" ry="11.3"/>
	
		<radialGradient id="SVGID_00000100352504505152954270000013640961951393186707_" cx="2614.561" cy="3871.1377" r="198.1191" gradientTransform="matrix(0.6696 0 0 7.464997e-02 -751.8575 549.774)" gradientUnits="userSpaceOnUse">
		<stop  offset="0" style="stop-color:#000091;stop-opacity:0.4"/>
		<stop  offset="1" style="stop-color:#000091;stop-opacity:0"/>
	</radialGradient>
	
		<ellipse style="fill:url(#SVGID_00000100352504505152954270000013640961951393186707_);" cx="999" cy="838.8" rx="136.9" ry="16.8"/>
	
		<radialGradient id="SVGID_00000131334499940008127220000016758530891334639543_" cx="2355.113" cy="3871.1377" r="99.6416" gradientTransform="matrix(0.6696 0 0 7.464997e-02 -751.8575 549.774)" gradientUnits="userSpaceOnUse">
		<stop  offset="0" style="stop-color:#000091;stop-opacity:0.4"/>
		<stop  offset="1" style="stop-color:#000091;stop-opacity:0"/>
	</radialGradient>
	
		<ellipse style="fill:url(#SVGID_00000131334499940008127220000016758530891334639543_);" cx="825.2" cy="838.8" rx="68.9" ry="8.5"/>
	
		<radialGradient id="SVGID_00000028314726124105302520000003712782389085248642_" cx="2944.209" cy="3871.1377" r="198.1191" gradientTransform="matrix(0.6696 0 0 7.464997e-02 -751.8575 549.774)" gradientUnits="userSpaceOnUse">
		<stop  offset="0" style="stop-color:#000091;stop-opacity:0.4"/>
		<stop  offset="1" style="stop-color:#000091;stop-opacity:0"/>
	</radialGradient>
	
		<ellipse style="fill:url(#SVGID_00000028314726124105302520000003712782389085248642_);" cx="1219.7" cy="838.8" rx="136.9" ry="16.8"/>
	
		<linearGradient id="SVGID_00000119819312445882318640000014174466678212990370_" gradientUnits="userSpaceOnUse" x1="786.9324" y1="582.6987" x2="1211.0085" y2="582.6987">
		<stop  offset="0" style="stop-color:#1DD884"/>
		<stop  offset="0.1037" style="stop-color:#1FC77C"/>
		<stop  offset="0.3675" style="stop-color:#23A36B"/>
		<stop  offset="0.6131" style="stop-color:#26885E"/>
		<stop  offset="0.8314" style="stop-color:#287857"/>
		<stop  offset="1" style="stop-color:#297254"/>
	</linearGradient>
	<path style="fill:url(#SVGID_00000119819312445882318640000014174466678212990370_);" d="M999,332.9c-137.6,0-212,117.2-212,208.7
		s43.6,131.4,81.6,169.3C906.5,749,999,832.4,999,832.4s92.5-83.5,130.4-121.4c37.9-37.9,81.6-77.8,81.6-169.3
		S1136.5,332.9,999,332.9z M999,618.6c-38.7,0-70.2-31.4-70.2-70.2c0-38.7,31.4-70.2,70.2-70.2c38.7,0,70.2,31.4,70.2,70.2
		C1069.1,587.1,1037.7,618.6,999,618.6z"/>
	
		<linearGradient id="SVGID_00000005262593021407678360000018022435378704996284_" gradientUnits="userSpaceOnUse" x1="1.0158" y1="510.0976" x2="556.0114" y2="510.0976">
		<stop  offset="0" style="stop-color:#FFFFFF"/>
		<stop  offset="4.209101e-02" style="stop-color:#F2F7FF"/>
		<stop  offset="0.2136" style="stop-color:#C1D7FF"/>
		<stop  offset="0.384" style="stop-color:#99BDFF"/>
		<stop  offset="0.5502" style="stop-color:#7AA9FF"/>
		<stop  offset="0.7108" style="stop-color:#639BFF"/>
		<stop  offset="0.8636" style="stop-color:#5692FF"/>
		<stop  offset="1" style="stop-color:#518FFF"/>
	</linearGradient>
	<path style="fill:url(#SVGID_00000005262593021407678360000018022435378704996284_);" d="M278.5,183.2C98.5,183.2,1,336.6,1,456.4
		s57.1,172,106.8,221.6c49.7,49.7,170.7,158.9,170.7,158.9S399.6,727.7,449.2,678C498.9,628.4,556,576.2,556,456.4
		S458.5,183.2,278.5,183.2z M278.5,557c-50.7,0-91.8-41.1-91.8-91.8s41.1-91.8,91.8-91.8c50.7,0,91.8,41.1,91.8,91.8
		S329.2,557,278.5,557z"/>
	
		<radialGradient id="SVGID_00000077289157569357275090000009942955844300030336_" cx="478.9437" cy="258.5455" r="523.6822" gradientUnits="userSpaceOnUse">
		<stop  offset="0.1101" style="stop-color:#0063CB"/>
		<stop  offset="0.2617" style="stop-color:#005AC5"/>
		<stop  offset="0.5146" style="stop-color:#0040B6"/>
		<stop  offset="0.8354" style="stop-color:#00179E"/>
		<stop  offset="0.9908" style="stop-color:#000091"/>
	</radialGradient>
	<path style="fill:url(#SVGID_00000077289157569357275090000009942955844300030336_);" d="M703.4,3.8
		c-229.5,0-353.7,195.4-353.7,348.1s72.8,219.2,136.1,282.5c63.3,63.3,217.6,202.5,217.6,202.5S857.7,697.7,921,634.4
		c63.3-63.3,136.1-129.8,136.1-282.5S932.8,3.8,703.4,3.8z M703.4,480.2c-64.6,0-117-52.4-117-117s52.4-117,117-117
		c64.6,0,117,52.4,117,117S768,480.2,703.4,480.2z"/>
	
		<linearGradient id="SVGID_00000159456850326742326540000013370378025156424887_" gradientUnits="userSpaceOnUse" x1="1033.9565" y1="610.1962" x2="1418.9843" y2="610.1962">
		<stop  offset="0" style="stop-color:#FAE27E"/>
		<stop  offset="0.2053" style="stop-color:#FADE7B"/>
		<stop  offset="0.3924" style="stop-color:#FBD373"/>
		<stop  offset="0.5725" style="stop-color:#FBC165"/>
		<stop  offset="0.7482" style="stop-color:#FDA752"/>
		<stop  offset="0.9191" style="stop-color:#FE863A"/>
		<stop  offset="1" style="stop-color:#FF732C"/>
	</linearGradient>
	<path style="fill:url(#SVGID_00000159456850326742326540000013370378025156424887_);" d="M1226.5,383.4
		c-124.9,0-192.5,106.4-192.5,189.5c0,83.1,39.6,119.3,74.1,153.8c34.5,34.5,118.4,110.3,118.4,110.3s84-75.8,118.4-110.3
		c34.5-34.5,74.1-70.6,74.1-153.8C1419,489.8,1351.4,383.4,1226.5,383.4z M1226.5,642.8c-35.2,0-63.7-28.5-63.7-63.7
		c0-35.2,28.5-63.7,63.7-63.7c35.2,0,63.7,28.5,63.7,63.7C1290.2,614.2,1261.7,642.8,1226.5,642.8z"/>
	<path class="multipuces10" d="M526.1,522.4c-87.1,0-134.3,74.2-134.3,132.2s27.6,83.2,51.7,107.2c24,24,82.6,76.9,82.6,76.9
		s58.6-52.9,82.6-76.9c24-24,51.7-49.3,51.7-107.2S613.2,522.4,526.1,522.4z M526.1,703.3c-24.5,0-44.4-19.9-44.4-44.4
		c0-24.5,19.9-44.4,44.4-44.4c24.5,0,44.4,19.9,44.4,44.4C570.5,683.4,550.6,703.3,526.1,703.3z"/>
	<path class="multipuces11" d="M825.2,610.2c-62.9,0-97,53.6-97,95.5c0,41.9,20,60.1,37.3,77.5c17.4,17.4,59.7,55.6,59.7,55.6
		s42.3-38.2,59.7-55.6c17.4-17.4,37.3-35.6,37.3-77.5C922.3,663.8,888.2,610.2,825.2,610.2z M825.2,740.9
		c-17.7,0-32.1-14.4-32.1-32.1c0-17.7,14.4-32.1,32.1-32.1c17.7,0,32.1,14.4,32.1,32.1C857.3,726.5,843,740.9,825.2,740.9z"/>
</g>
</svg>
