<svg version="1.1" id="Calque_1" xmlns="http://www.w3.org/2000/svg" xmlns:xlink="http://www.w3.org/1999/xlink" x="0px" y="0px"
	 viewBox="0 0 590 500" style="enable-background:new 0 0 590 500;" xml:space="preserve">
<style type="text/css">
	.svg-perso-sur-carte0{fill:#C9C7E4;}
	.svg-perso-sur-carte1{fill:#FFEB86;}
	.svg-perso-sur-carte2{fill:#6269AE;}
	.svg-perso-sur-carte3{fill:#CAAA2B;}
	.svg-perso-sur-carte4{fill:#01015B;}
	.svg-perso-sur-carte5{fill:#9F714F;}
	.svg-perso-sur-carte6{fill-rule:evenodd;clip-rule:evenodd;fill:#01015B;}
	.svg-perso-sur-carte7{fill-rule:evenodd;clip-rule:evenodd;fill:#5E2A2B;}
	.svg-perso-sur-carte8{fill-rule:evenodd;clip-rule:evenodd;fill:#444871;}
	.svg-perso-sur-carte9{fill:#FDD247;}
	.svg-perso-sur-carte10{fill:#0067E2;}
	.svg-perso-sur-carte11{fill-rule:evenodd;clip-rule:evenodd;fill:#E1000F;}
	.svg-perso-sur-carte12{fill:#000090;}
	.svg-perso-sur-carte13{fill:#8E4344;}
	.svg-perso-sur-carte14{fill-rule:evenodd;clip-rule:evenodd;}
	.svg-perso-sur-carte15{fill:#C0806F;}
	.svg-perso-sur-carte16{fill:#ABB8DF;}
	.svg-perso-sur-carte17{fill:#D38742;}
	.svg-perso-sur-carte18{fill-rule:evenodd;clip-rule:evenodd;fill:#EEEEEE;}
	.svg-perso-sur-carte19{fill:#EEEEEE;}
	.svg-perso-sur-carte20{fill:#FFC29E;}
	.svg-perso-sur-carte21{fill-rule:evenodd;clip-rule:evenodd;fill:#5E3A44;}
	.svg-perso-sur-carte22{fill:#BF7330;}
	.svg-perso-sur-carte23{fill-rule:evenodd;clip-rule:evenodd;fill:#37635F;}
	.svg-perso-sur-carte24{fill-rule:evenodd;clip-rule:evenodd;fill:#FFC29E;}
	.svg-perso-sur-carte25{fill-rule:evenodd;clip-rule:evenodd;fill:#8E4344;}
	.svg-perso-sur-carte26{fill:#D1D2DE;}
	.svg-perso-sur-carte27{fill:#A3A6BC;}
</style>
<g>
	<g>
		<polygon class="svg-perso-sur-carte0" points="469.3,254.6 485.1,258.6 477.7,307.2 546,302 553.3,229.5 487.5,234.5 		"/>
		<polygon class="svg-perso-sur-carte0" points="233.2,256.1 225.2,254.3 124.1,262 116.8,334.4 214.1,327.1 		"/>
		<polygon class="svg-perso-sur-carte1" points="233.2,256.1 214.1,327.1 477.7,307.2 485.1,258.6 469.3,254.6 487.5,234.5 225.2,254.3 		"/>
	</g>
	<g>
		<polygon class="svg-perso-sur-carte2" points="224.4,254.3 194.4,238.2 141.6,219.9 87.6,223.9 124.1,262 225.2,254.3 		"/>
		<polygon class="svg-perso-sur-carte2" points="497.7,217.8 487.5,234.5 553.3,229.5 516.8,191.5 485.5,193.9 		"/>
		<polygon class="svg-perso-sur-carte3" points="194.4,238.2 224.4,254.3 225.2,254.3 487.5,234.5 497.7,217.8 485.5,193.9 141.6,219.9 		"/>
	</g>
	<g>
		<polygon class="svg-perso-sur-carte2" points="484.8,319.6 508.6,340.3 534,341.8 524.3,350.4 575.6,346.6 546,302 477.7,307.2 		"/>
		<polygon class="svg-perso-sur-carte2" points="216.9,335 223.6,331.6 214.8,328.9 214.1,327.1 116.8,334.4 146.4,379 219.1,373.5 		"/>
		<polygon class="svg-perso-sur-carte3" points="214.8,328.9 223.6,331.6 216.9,335 219.1,373.5 524.3,350.4 534,341.8 508.6,340.3 484.8,319.6 
			477.7,307.2 214.1,327.1 		"/>
	</g>
	<g>
		<polygon class="svg-perso-sur-carte0" points="137.1,215.8 108.7,215.7 95.1,173.7 126,173.2 135,168.4 147.8,169 157.6,179 198,183.4 187.2,144.5 
			75.9,152.9 87.6,223.9 141.5,219.9 		"/>
		<polygon class="svg-perso-sur-carte0" points="247.1,149.9 247.2,139.9 203.6,143.2 205.4,146.4 		"/>
		<polygon class="svg-perso-sur-carte0" points="441.3,150.9 446.2,162.4 498,173.3 486.2,183.1 485.5,193.9 516.8,191.5 505.1,120.5 383.7,129.6 		
			"/>
		<polygon class="svg-perso-sur-carte1" points="157.6,179 147.8,169 135,168.4 126,173.2 95.1,173.7 108.7,215.7 137.1,215.8 141.5,219.9 
			485.5,193.9 486.2,183.1 498,173.3 446.2,162.4 441.3,150.9 383.7,129.6 247.2,139.9 247.1,149.9 205.4,146.4 203.6,143.2 
			187.2,144.5 198,183.4 		"/>
	</g>
	<g>
		<polygon class="svg-perso-sur-carte2" points="10.1,103.7 77,152.8 188.3,144.4 177.8,137.2 197,139.4 204.7,143.2 248.3,139.9 247.1,138.5 
			279.7,128.5 265.9,107.8 286.2,104 361.7,126.6 384.8,129.5 506.2,120.4 439.3,71.3 		"/>
		<polygon class="svg-perso-sur-carte3" points="197,139.4 177.8,137.2 188.3,144.4 204.7,143.2 		"/>
		<polygon class="svg-perso-sur-carte3" points="361.7,126.6 286.2,104 265.9,107.8 279.7,128.5 247.1,138.5 248.3,139.9 384.8,129.5 		"/>
	</g>
	<g>
		<g>
			<path class="svg-perso-sur-carte4" d="M310.4,160.5l6.4-1.7c0.4-0.1,0.7-0.5,0.7-0.9l0.3-14.7c0-0.4-0.3-0.7-0.7-0.6l-6.4,1.7
				c-0.4,0.1-0.7,0.5-0.7,0.9l-0.3,14.7C309.7,160.4,310,160.6,310.4,160.5z"/>
			<path class="svg-perso-sur-carte4" d="M309.7,160l0.3-14.7c0-0.4,0.3-0.8,0.7-0.9l0.7-0.2c-0.4,0.1-0.7,0.5-0.7,0.9l-0.3,14.7
				c0,0.4,0.3,0.7,0.7,0.6l-0.7,0.2C310,160.6,309.7,160.4,309.7,160z"/>
		</g>
		<g>
			<path class="svg-perso-sur-carte5" d="M305.8,158.6c0.9,1.2,1.8,2.4,2.7,3.6c4.9,6.7,9.8,13.4,14.6,20.1c0.5,0.6,0.9,1.3,0.9,2.1
				c0,1.2-1.4,2.1-2.6,2.1c-1.2,0-2.4-0.7-3.4-1.4c-7.8-5.2-14.6-11.9-19.8-19.6L305.8,158.6z"/>
			<path class="svg-perso-sur-carte5" d="M321.5,156c-0.4-0.8-1-1.7-1.9-1.5c-0.8,0.1-1.2,1.1-1.4,1.9c-1.7,6.8-0.7,27.3,1.7,29.3
				c2.3,1.9,4.3,1.5,5.2-1.3C326.9,178.7,323.1,159.1,321.5,156z"/>
			<path class="svg-perso-sur-carte5" d="M321.6,155.1c-0.3-1.8-1.2-3.5-2.7-4.4c-1.2-0.7-2.8-0.8-4.2-0.6c-0.6,0.1-1.4,0.4-1.4,1
				c0,0.6,0.5,0.9,0.9,1.4c0.8,1,0.6,2.4,0.7,3.7c0.2,1.4,1,2.7,2.2,3.5c0.9,0.6,3.3,1.6,4.2,0.6
				C322.1,159.3,321.8,156.3,321.6,155.1z"/>
		</g>
		<g>
			<polygon class="svg-perso-sur-carte5" points="321.3,289.8 320.2,300.9 314.5,301.1 314.7,290.5 			"/>
			<path class="svg-perso-sur-carte6" d="M311.2,303.6c0.2-1.5,0.3-3.1,0.9-4.5c0.6-1.4,1-2.8,2.3-3.6c0.2,0.8,1.1,1.9,1.9,2.1c0.6,0.1,3.9-1,4.4-0.7
				c0.4,0.2,0,6.6,1.6,8.2c1.6,1.6,3.6,2.6,5.5,3.9c0.6,0.4,1.3,0.9,1.7,1.6c0.4,0.7,0.6,1.6,0.2,2.2c0,0.1-0.1,0.1-0.1,0.2
				l-13.3-2.3c-0.2-0.5-0.4-1.1-0.6-1.6c-0.6-1.9-1.3-3.8-1.9-5.7c-0.9,2.1-1.5,4.3-1.8,6.6l-1.5-0.3
				C310.8,307.7,311,305.7,311.2,303.6z"/>
			<path class="svg-perso-sur-carte5" d="M343.2,283l7.3,0.1c0,3.6-0.1,7.3-0.3,10.9c-0.1,1.2-0.2,2.6-1.2,3.1c-1.2,0.6-3.3-0.4-3.5-2
				C344.9,291.4,344.1,287.2,343.2,283z"/>
			<path class="svg-perso-sur-carte6" d="M344.3,302.5c-0.3-1.4-0.5-2.7-0.3-4.1c0.2-1.3,0.5-2.7,1.4-3.7c0.3,0.6,1.1,1.4,1.8,1.4
				c0.6,0,3.2-1.5,3.7-1.4c0.4,0.1,1.6,5.4,3.4,6.3c1.8,0.9,3.8,1.3,5.8,2c0.7,0.2,1.4,0.5,1.9,0.9s0.9,1.2,0.7,1.9
				c0,0.1,0,0.1-0.1,0.2l-12.1,1.4c-0.3-0.4-0.6-0.8-0.9-1.2c-1-1.5-2.1-3-3.1-4.5c-0.2,2-0.2,4.1,0.2,6.1l-1.4,0.2
				C345,306.2,344.7,304.4,344.3,302.5z"/>
		</g>
		<g>
			<path class="svg-perso-sur-carte7" d="M319.2,246.1c1.7,1.3,3.9,2.6,6.2,2.3c1.6-0.2,5-3.8,5.6-5c0.5-1.1-16.9-39.9-19.6-41.6
				c-3.7-2.3-21.9,9.6-19.1,14.9c3.6,6.9,9.2,13.5,15.2,19.3C311,239.7,315,243,319.2,246.1z"/>
			<path class="svg-perso-sur-carte7" d="M343.3,231.3c-3.1-4.8-10.4-8-13.4,0.4c-4.5,12.8,10.6,36.5,13.1,51.9l7.9-0.1
				C351.1,282.1,345,234,343.3,231.3z"/>
			<path class="svg-perso-sur-carte7" d="M333.5,237.8c2.5-0.1,5.4-0.4,6.6-2.4c0.8-1.3-0.9-7-1.9-8.4s-46.2-21.6-50-21.1c-5,0.6-9,4.1-10.7,8.2
				c-2.5,6-2.3,13.7,5.5,16.6c10,3.6,21,5.5,31.5,6.5C320.9,237.8,327.2,238,333.5,237.8z"/>
			<path class="svg-perso-sur-carte7" d="M330.9,242.5c-1.5-4.6-8.4-8.6-12.7-0.4c-7,13.2-4.1,33.6-3.8,49.2l7.5,0.4
				C322.5,290.3,331.8,245.1,330.9,242.5z"/>
		</g>
		<g>
			<path class="svg-perso-sur-carte5" d="M266.5,172.2c0.4-1.1,0.8-2.2,1.3-3.3l10,4.7c-0.2,0.5-0.5,1-0.7,1.4c-2.5,5-5,10.1-7.4,15.1
				c-0.9,1.9-1.6,4.3-3.7,5.1c-1.6,0.6-3.5,0.2-4.6-1.1c-1-1.1-1.2-2.7-1.1-4.1c0.1-1.5,0.7-2.9,1.2-4.2
				C263.1,181.3,264.8,176.7,266.5,172.2z"/>
			<path class="svg-perso-sur-carte5" d="M258.4,221.4c-0.3,1.2-1.1,4.2-2.4,3.9c-1-0.2-1.3-2.9-1.2-3.9c0.4-6.9,4.5-29.2,5.3-30.6
				c1.3-2.3,7.9-2.5,8.5,1.2C269.1,195.8,261.3,210.1,258.4,221.4z"/>
			<path class="svg-perso-sur-carte5" d="M255.5,226.1c-1.6,1.3-3.2,2.5-4.7,3.8c-0.4,0-0.6-0.6-0.4-1c0.2-0.4,0.6-0.6,0.9-1c0.3-0.3,0.4-0.9,0.1-1.2
				c-0.4-0.3-0.8,0-1.2,0.3c-1.6,1.3-3.2,2.5-4.8,3.8c-1.4-0.8-1.9-2.7-1.4-4.2c0.4-1.5,1.6-2.8,2.9-3.8c1.7-1.4,3.7-2.5,5.9-3.2
				c1.2-0.4,2.6-0.7,3.8-0.1C259.3,220.9,257.1,224.8,255.5,226.1z"/>
		</g>
		<g>
			<path class="svg-perso-sur-carte4" d="M283.4,195.2c1.3-11.2-10.6-20.8-9.3-32.1c0.9-7.7,8.6-13.6,16.3-13.4c7.7,0.2,14.7,5.9,17.4,13.2
				c1.3,3.4,1.6,7.2,1.1,10.8c-0.4,2.5-0.6,5.1-1.6,7.5c-5.3,12.4,6,21.3,10.5,26.3c-10.4,9.8-35.9,8.3-41.5,1.7
				C281.5,204.1,283,198.4,283.4,195.2z"/>
			<path class="svg-perso-sur-carte4" d="M271.2,162.4c2-3.1,4.8-5.8,8.3-7c0.9-0.3,1.9-0.5,2.6,0.1c0.7,0.5,0.7,1.5,0.7,2.4
				c-0.2,5.6-2.5,10.8-5,15.8l-10-4.7C268.8,166.7,269.8,164.5,271.2,162.4z"/>
		</g>
		<g>
			<path class="svg-perso-sur-carte5" d="M297.3,141.8c-0.5,2.8-0.4,5.8,0.4,8.6c0.2,0.9,0.5,1.9,0,2.6c-0.5,0.7-1.5,0.8-2.3,0.8
				c-1.4,0-2.9,0-4.2-0.4s-2.6-1.4-3.1-2.7c-0.4-1.1-0.1-2.3,0.2-3.5c0.5-2.2,1-4.4,1.5-6.6c0.1-0.6,0.3-1.3,0.8-1.8
				c0.8-0.8,2.1-0.8,3.1-0.3c1,0.5,1.7,1.5,2.3,2.3L297.3,141.8z"/>
			<path class="svg-perso-sur-carte8" d="M285.7,150.4c4-1.9,2.1,4.1,2.4-2.9c0.2-4.1,9.6-4.4,10.8-8.2c0.7-2.1,0-4.4,0.2-6.7
				c0.2-2.2,1.4-3.7,2.8-5.2c1-1.2,1.8-3,2-4.5c0.2-1.2,0.1-2.5-0.4-3.6c-0.9-2.4-3.2-4.2-5.7-4.5c-2.5-0.3-5.2,0.8-6.7,2.8
				c-0.8,1-1.3,2.3-2.3,3.1c-1.4,1-3.3,0.8-4.9,1.2c-2.5,0.6-4.6,2.7-5.2,5.2c-1.2,5.1,3.4,10.2,2.4,15.4c-0.5,2.3-2.1,4.3-3.7,6
				C277.3,148.5,277.2,154.4,285.7,150.4z"/>
			<path class="svg-perso-sur-carte5" d="M301.5,140.9c0.7-1.4,0.9-3,1.1-4.6c0.3-2.2,0.5-4.4,0.2-6.6c-0.3-2.2-1.4-4.3-3.1-5.6
				c-2.2-1.5-5.1-1.5-7.6-0.7c-2.2,0.7-4.3,2.1-5.2,4.2c-0.5,1.2-0.6,2.4-0.6,3.7c-0.1,1.6-0.2,3.3,0.3,4.8c0.5,1.7,1.7,3.2,3.1,4.3
				s3.1,1.9,4.7,2.6c1,0.4,1.9,0.8,3,0.9C299.3,144.1,300.6,142.6,301.5,140.9z"/>
		</g>
	</g>
	<path class="svg-perso-sur-carte9" d="M93.7,316.6c-3.1-1.7-9.5-1.3-9.8,3.2c-0.2,2.6,1.3,5.5,2.3,7.9c1.1,2.7,2.4,5.2,3.9,7.7
		c0.1,0.1,0.1,0.2,0.2,0.3l13-5.4C100.4,326.6,97.7,318.7,93.7,316.6z"/>
	<path class="svg-perso-sur-carte10" d="M167.9,446.5c0.7,1,1.6,2.1,2.8,2.1c2.1,0,2.2-3,1.7-5c-0.6-2.2-1.1-4.3-1.7-6.5l-6.5,1.9
		C164.8,441.7,166.6,444.6,167.9,446.5z"/>
	<path class="svg-perso-sur-carte6" d="M164.9,441.9c0.4,0.7,2.3,1,3,1.1c0.6,0,3.4-1.2,4-1c0.4,0.1,2.1,6,4.1,7.2c2,1.2,4.2,1.9,6.4,2.8
		c0.7,0.3,1.5,0.7,2.1,1.3c0.6,0.6,1,1.4,0.9,2.1c0,0.1,0,0.1-0.1,0.2h-13.2c-0.4-0.4-0.7-0.9-1.1-1.4c-1.2-1.7-2.4-3.4-3.6-5.2
		c-0.4,1.9-0.7,4.1-1.1,6.6H165C164.5,453.6,163.2,444,164.9,441.9z"/>
	<g>
		<g>
			<path class="svg-perso-sur-carte4" d="M69.5,327.3L69.5,327.3c0.2,0,0.4,0,0.5,0c1.8,0,3.3,1.4,3.5,3.2l6,62.6c0.1,1.3,1.2,2.3,2.5,2.3h37.7
				c1.9,0,3.5,1.6,3.5,3.5c0,1.9-1.6,3.5-3.5,3.5H82c-2.9,0-5.5-1.3-7.2-3.3c-2.1,0.2-10.1,0.8-10.1,0.8l-8.2-2.6L49,327.3H69.5z"/>
			<path class="svg-perso-sur-carte4" d="M60.9,395.3c-1.3,0-2.4-1-2.5-2.3l-6-62.6c-0.2-1.8-1.7-3.2-3.5-3.2h0c-2.1,0-3.7,1.8-3.5,3.8l6,62.6
				c0.5,4.9,4.6,8.6,9.5,8.6h37.7c1.9,0,3.5-1.6,3.5-3.5l0,0c0-1.9-1.6-3.5-3.5-3.5H60.9z"/>
			<rect x="82.2" y="402.3" class="svg-perso-sur-carte4" width="5.7" height="53.1"/>
			<path class="svg-perso-sur-carte4" d="M87.7,407.8h-5.2c-1.8,0-3.4-0.9-4.4-2.4l-2-3.1h18l-2,3.1C91.1,406.9,89.5,407.8,87.7,407.8z"/>
		</g>
		<path class="svg-perso-sur-carte11" d="M151.4,384.2c-5.2-5.8-38.1-13-53.5-17.7c-11.5-3.5-23.4-5.5-25.1,10.1c-0.8,6.7,2.7,13.6,8.4,17.1
			c6.3,3.8,14.1,3.5,21.5,3c14-0.9,22.6-1.5,36.5-2.4c1.3,18.3,16.9,24.8,23.8,45.1l10.5-2.1C167.2,427.7,154,387.5,151.4,384.2z"/>
		<path class="svg-perso-sur-carte10" d="M110.3,444.8c-0.2,1.2-0.4,2.6,0.5,3.4c1.5,1.4,3.7-0.6,4.7-2.4c1.1-1.9,2.2-3.9,3.3-5.8l-7.2-2
			C111.2,440.4,110.8,442.6,110.3,444.8z"/>
		<path class="svg-perso-sur-carte11" d="M70.2,393.6c6.3,3.8,14.1,3.5,21.5,3c14.5-1,29-1.9,43.4-2.9c2.3-0.2,4.9-0.4,6.3-2.3c1.7-2.1,0.9-5.4-1-7.3
			c-1.9-1.9-4.6-2.8-7.2-3.6c-15.4-4.7-30.9-9.4-46.3-14.2c-11.5-3.5-23.4-5.5-25.1,10.1C61,383.2,64.4,390.1,70.2,393.6z"/>
		<path class="svg-perso-sur-carte11" d="M141.6,385.3c-5.7-8.6-19.6,15.5-21.6,21.5c-3.3,10.3-6.1,20.7-8.3,31.3l9.2,4c2.1-11.3,9.6-22.3,15.4-32.5
			c1.9-3.3,3.8-6.8,4.5-10.6C141.4,395.3,142.6,386.9,141.6,385.3z"/>
		<path class="svg-perso-sur-carte9" d="M70.5,328.2c0.8,5.9,3.1,11.6,3,17.5c-0.1,6-2.7,11.8-7,15.9c-2.7,2.5-6.3,5.4-5.4,8.9
			c0.9,3.2,4.8,4.1,8.1,4.5c7.2,0.8,15.3,1.3,20.6-3.6c3.2-3,4.6-7.5,5.6-11.7c1.8-7.6,2.9-15.4,3.2-23.2c0.2-6.6-0.2-13.7-4-19.2
			c-3.8-5.4-8.1-9-14.3-7.1C73.1,317.3,69.7,322.4,70.5,328.2z"/>
		<path class="svg-perso-sur-carte6" d="M107.3,452.5c0-1.5,0.1-3,0.6-4.4c0.5-1.4,1.2-2.7,2.3-3.6c0.2,0.7,0.8,1.8,1.6,1.9c0.6,0.1,3.7-0.9,4.3-0.6
			c0.4,0.2,0.5,5.3,1.8,7.1c0,0,3.5,1.4,5.2,2c0.7,0.3,1.4,0.6,2,1.1c0.6,0.5,0.9,1.3,0.7,2.1c0,0.1-0.1,0.1-0.1,0.2l-11.5,1.1
			l-1.6-0.2c-0.3-0.5-0.5-1-0.7-1.5c-0.7-1.8-1.5-3.6-2.2-5.4c-0.7,2.1-1.2,4.3-1.3,6.5l-1.5-0.1
			C107.2,456.5,107.3,454.5,107.3,452.5z"/>
	</g>
	<path class="svg-perso-sur-carte9" d="M92.4,324.2c-1.4-3-3.3-6-6.2-7.6c-3.1-1.7-9.5-1.3-9.8,3.2c-0.2,2.6,1.3,5.5,2.3,7.9c1.1,2.7,2.4,5.2,3.9,7.7
		c0.1,0.1,0.1,0.2,0.2,0.3l13-5.4C95.1,328.5,93.2,325.9,92.4,324.2z"/>
	<g>
		<g>
			<polygon class="svg-perso-sur-carte4" points="166.9,356.4 158.3,356.4 154.1,339.1 162.6,339.1 			"/>
			<polygon class="svg-perso-sur-carte4" points="165.9,356.4 157.4,356.4 153.1,339.1 161.7,339.1 			"/>
			<path class="svg-perso-sur-carte4" d="M167.1,354.1h-15.4c-0.6,0-1.1,0.5-1.1,1.1l0,0c0,0.6,0.5,1.1,1.1,1.1h15.4c0.6,0,1.1-0.5,1.1-1.1l0,0
				C168.2,354.6,167.7,354.1,167.1,354.1z"/>
			<path class="svg-perso-sur-carte4" d="M142.4,345c-1.6,0-2.7-2.3-2.5-5.1l3.7-46.7c0.2-2.8,1.7-5.1,3.3-5.1h33.8c1.6,0,2.7,2.3,2.5,5.1l-3.7,46.7
				c-0.2,2.8-1.7,5.1-3.3,5.1H142.4z"/>
			<path class="svg-perso-sur-carte4" d="M140.8,345c-1.6,0-2.7-2.3-2.5-5.1l3.7-46.7c0.2-2.8,1.7-5.1,3.3-5.1h33.8c1.6,0,2.7,2.3,2.5,5.1l-3.7,46.7
				c-0.2,2.8-1.7,5.1-3.3,5.1H140.8z"/>
			<path class="svg-perso-sur-carte12" d="M141.1,341.2c-0.9,0-1.6-1.3-1.4-3l3.5-43.5c0.1-1.6,1-3,1.9-3h33.8c0.9,0,1.6,1.3,1.4,3l-3.5,43.5
				c-0.1,1.6-1,3-1.9,3H141.1z"/>
		</g>
		<g>
			<path class="svg-perso-sur-carte13" d="M134.8,350.5c-2.8-1.3-18.6-3.5-21.4-4.7c-3.9-1.7-6.8-6.2-8.7-10c-1-2.1-1.9-4.2-2.7-6.4l-11.8,6.3
				c1.6,2.7,3.4,5.4,5.3,7.9c3,3.8,6.5,7.4,10.8,9.7c4.5,2.4,23,2.7,28,1.9C138.5,354.3,137.6,351.8,134.8,350.5z"/>
			<path class="svg-perso-sur-carte13" d="M146.2,349.5c1,1,1.8,2.3,1.8,3.7c0,1.4-1.1,4.3-2.2,3.3c-0.9-0.8-1.1-2.1-2.3-2.1c-1.2,0-2.2,0.7-3.3,1.1
				c-3.2,1.3-13-0.5-8.9-5.6C134.6,346.1,142.7,346.2,146.2,349.5z"/>
			<path class="svg-perso-sur-carte13" d="M127.3,349.8c-2.8-1.3-18.6-2.8-21.4-4c-3.9-1.7-6.8-6.2-8.7-10c-1-2.1-1.9-4.2-2.7-6.4l-11.8,6.3
				c1.6,2.7,3.4,5.4,5.3,7.9c3,3.8,6.5,7.4,10.8,9.7c4.5,2.4,23,2,28,1.2C130.9,353.6,130.1,351.1,127.3,349.8z"/>
			<path class="svg-perso-sur-carte13" d="M138.6,344.3c1.3,0.6,2.5,1.6,3,2.9c0.5,1.3,0.4,4.4-0.9,3.9c-1.1-0.4-1.7-1.6-2.8-1.2
				c-1.1,0.4-1.9,1.4-2.8,2.2c-2.6,2.3-12.4,4-10.2-2.2C126.5,345.1,134.2,342.4,138.6,344.3z"/>
		</g>
		<path class="svg-perso-sur-carte13" d="M81.4,296.7c0.6-1,6.6,2.1,7,2.8c0.4,0.7,0.7,9.2,2,14.5c0.3,1.1-11-2.3-10.2-3.7
			C81.5,308.1,82.9,299.6,81.4,296.7z"/>
		<path class="svg-perso-sur-carte13" d="M98.9,289.1c-2.1-8.7-13.9-6.8-16.7-6c-2.8,0.9-2.9,4.8-3.2,7.8c-0.2,1.8,0.5,3.6,1.6,5
			c1,1.4,5.5,3.5,5.8,3.5c1.7,2.9,4.4,6.2,7.2,6.1c1.2,0,2.4-0.8,3.1-1.8c0.7-1,1.1-2.2,1.5-3.4C99.3,296.7,99.8,292.9,98.9,289.1z"
			/>
		<path class="svg-perso-sur-carte14" d="M78.4,294.2c-1-1.2-1.8-2.7-2-4.3c-0.2-1.9,0.4-3.8,1.5-5.4c1.9-2.8,6.8-6.5,10.8-6.6
			c4.3-0.1,11.6,4.1,10.9,9.4c-0.2,1.6-1.1,1.6-2.6,2.1c-2,0.7-4.6,1.1-6.3,2.4c-2,1.5-1.1,5.3-5.1,6.5c-1.3,0.4-2.6,2.7-3.5,4.5
			C80.9,301.5,79.3,295.4,78.4,294.2z"/>
		<path class="svg-perso-sur-carte14" d="M72.4,305c-0.4,1.6,0.2,3.3,0.1,5c-0.2,3.9-3.8,6.7-5,10.3c-0.5,1.4-0.5,3,0.1,4.4c0.7,1.3,2.2,2.3,3.6,2
			c1.6-0.3,2.7-1.9,3.3-3.4c0.6-1.5,1-3.2,2.1-4.4c1.8-1.8,4.8-2,6.5-3.9c1.6-1.8,2.8-6.9,2.8-10.7c0-7.2-2.3-13.8-5.8-12.8
			c-2.1,0.6-2.7,4.4-3.2,6C76,300.4,73,302.2,72.4,305z"/>
		<path class="svg-perso-sur-carte13" d="M83.7,294.8c-0.2,0.2-0.3,0.5-0.4,0.8c-0.2,0.9,0,1.8,0.4,2.6c0.5,0.8,1.3,1.3,2.2,1.5
			c0.4,0.1,0.7,0.1,1-0.1c1.1-0.6,0.5-2.9,0-3.7C86.5,295,84.6,294,83.7,294.8z"/>
	</g>
	<path class="svg-perso-sur-carte4" d="M153.3,353.2l-16.8,1.3c-0.6,0-1.1,0.6-1.1,1.2l0,0c0,0.7,0.5,1.2,1.2,1.2h16.8c0.7,0,1.2-0.5,1.2-1.2v-1.3
		C154.6,353.7,154,353.1,153.3,353.2z"/>
	<g>
		<g>
			<path class="svg-perso-sur-carte15" d="M39.3,69.8c-1.4-0.9-3.3-1.4-4.8-0.7c-1.4,0.6-2.4,2.2-2.5,3.8c-0.1,1.6,0.6,3.1,1.6,4.4
				c1,1.2,4.5,3.4,7.8,2c2-0.9,2.1-2.3,1.6-4.2C42.5,73,41.1,70.9,39.3,69.8z"/>
			<path class="svg-perso-sur-carte15" d="M38.7,73.9l5.4-0.3c0.2,1.4,0.1,3,0,4.2c-0.1,1.5-5.4,2.7-5.7,1.6C38.1,78.4,38.4,75.6,38.7,73.9z"/>
		</g>
		<g>
			<path class="svg-perso-sur-carte16" d="M41.9,76.3l-6.5,1c-0.4,0.1-0.8-0.2-1-0.6l-6-13.2c-0.2-0.4,0-0.7,0.4-0.8l6.5-1c0.4-0.1,0.8,0.2,1,0.6
				l6,13.2C42.5,75.9,42.3,76.2,41.9,76.3z"/>
			<path class="svg-perso-sur-carte4" d="M42.6,76.2l-6.5,1c-0.4,0.1-0.8-0.2-1-0.6l-6-13.2c-0.2-0.4,0-0.7,0.4-0.8l6.5-1c0.4-0.1,0.8,0.2,1,0.6
				l6,13.2C43.1,75.8,42.9,76.1,42.6,76.2z"/>
		</g>
		<path class="svg-perso-sur-carte6" d="M41.9,75.5l-5.8,0.9c-0.3,0.1-0.7-0.2-0.9-0.5L29.8,64c-0.1-0.3,0-0.6,0.4-0.7l5.8-0.9
			c0.3-0.1,0.7,0.2,0.9,0.5l5.4,11.9C42.4,75.2,42.3,75.5,41.9,75.5z"/>
		<g>
			<path class="svg-perso-sur-carte15" d="M69.8,72.3c0.7,8.6,0.3,17.6-3.5,25.4c-0.8,1.7-2.1,3.5-3.9,3.6c-1.1,0-2.1-0.6-2.8-1.4
				c-0.7-0.8-1.1-1.9-1.5-2.9c-2.8-8.1-1.5-17-0.2-25.4c0.5-3.5,1.1-9.6,4.2-11.9c3.3-2.4,5.9,3.1,6.6,5.4
				C69.3,67.5,69.6,69.9,69.8,72.3z"/>
			<path class="svg-perso-sur-carte15" d="M43.2,77.1c-1.1-0.6-2.5-1.2-3.7-0.6c-1,0.5-1.3,1.8-1.1,2.8c0.2,1.1,16.3,20.3,22.1,21.7
				c2.9,0.7,4.8-1.2,5.6-3.7C67.1,93.7,47.4,79.2,43.2,77.1z"/>
			<path class="svg-perso-sur-carte15" d="M42.7,73.9c-1.5-1.4-3.7-3.7-4.6-4.6c-0.3-0.2-0.6-0.4-0.8-0.6c-0.2-0.3-0.3-0.7-0.1-0.9
				c0.3-0.3,0.8-0.2,1.2,0c1.9,0.8,4,1.7,5.1,3.5c0.4,0.6,0.6,1.4,0.7,2.2C44.1,73.6,42.6,74.2,42.7,73.9z"/>
			<path class="svg-perso-sur-carte15" d="M36.8,76.2c0.2,0.3,0.4,0.6,0.5,1c0.1,0.4,0.1,0.8-0.2,1c-0.4,0.3-0.9,0.2-1.4,0.1
				c-2.2-0.7-4.1-2.4-5.2-4.5c-0.5-1-0.8-2.3-0.1-3.1c0.7-0.8,1.9-0.8,2.8-0.3C35.6,71.8,35.5,74.1,36.8,76.2z"/>
		</g>
		<g>
			<path class="svg-perso-sur-carte6" d="M26.5,111.7c3-5.3,10.7-9.2,14.4-0.3c5.6,13.6-9.3,39.9-11,56.6l-8.5,0.3C21.1,166.7,24.9,114.6,26.5,111.7z
				"/>
			<path class="svg-perso-sur-carte6" d="M4.8,182.2c-0.2-1.2,1-2.3,2.1-2.6c1.2-0.3,2.4-0.2,3.7-0.2c3.5-0.2,6.8-2.4,8.3-5.6
				c0.2-0.4,0.4-0.9,0.8-1.2c0.5-0.3,1.3-0.1,1.8,0.3c0.5,0.4,0.9,0.9,1.4,1.4c0.8,0.8,2,1.2,3.2,1.1c1-0.1,2-0.8,2.9-0.4
				c0.8,0.4,1.1,1.5,1.3,2.3c0.4,1.4,0.8,2.7,1.2,4.1c0.1,0.3,0.2,0.6,0.2,0.9l-6.7,0.3c-0.3-0.4-0.6-1.7-0.8-2.2
				c0,0.5-0.2,1.8-0.5,2.3l-18.3,0.7C5.1,183.1,4.9,182.7,4.8,182.2z"/>
			<path class="svg-perso-sur-carte17" d="M28.3,177c-2.5,0.5-5.1,0.4-7.4-0.3c0.4-3,0.9-5.9,1.3-8.9c0.1-0.4,0.1-0.8,0.3-1.1
				c0.3-0.5,0.9-0.7,1.5-0.8c2.1-0.4,5.2-0.7,5,1.9C28.8,170.8,28.6,173.9,28.3,177z"/>
		</g>
		<g>
			<path class="svg-perso-sur-carte17" d="M59.5,188.7c-2.4,0.7-5,0.9-7.5,0.5c-0.3-2.9-0.5-5.9-0.8-8.8c0-0.4-0.1-0.8,0.1-1.1
				c0.2-0.5,0.8-0.8,1.3-0.9c2-0.7,5-1.2,5.5,1.3C58.6,182.7,59.1,185.7,59.5,188.7z"/>
			<path class="svg-perso-sur-carte6" d="M35,126.3c1.2-5.4,8.5-10.7,14.3-1.9c9.4,14.2,8.4,37.5,9.7,55.3l-8.4,1.3C49.7,179.5,34.3,129.3,35,126.3z"
				/>
			<path class="svg-perso-sur-carte6" d="M49.5,194.6c-0.2-1.2,0.1-2.3,0.6-2.6c0.5-0.4,1-2.5,1.6-5.6c0.3-1.4,3-2.2,4.7-0.1c0.6,0.7,1,1.1,1.5,1
				c0.4-0.1,0.8-0.9,1.2-0.5c0.4,0.4,0.7,1.5,0.9,2.3c0.4,1.3,0.7,2.7,1.1,4.1c0.1,0.3,0.2,0.6,0.2,0.9l-11.4,1.7
				C49.7,195.4,49.6,195,49.5,194.6z"/>
		</g>
		<path class="svg-perso-sur-carte6" d="M31.3,119c-2.1-1.2-4.3-2.9-4.4-5.3c-0.1-1.7,3.9-6.3,5.3-7.3c1.4-0.9,48.1,0,51,2.1c3.9,2.8,5.6,8,5.2,12.8
			c-0.7,7-4.3,14.4-12.1,13.6c-9.9-1-19.9-4.2-29.1-8C41.8,124.7,36.4,122.1,31.3,119z"/>
		<path class="svg-perso-sur-carte6" d="M40.6,133.9c-2.3-0.5-5-1.4-5.8-3.7c-0.6-1.6,1.8-7.2,2.8-8.6c1-1.3,45.7-15,49.2-13.9
			c4.6,1.5,7.9,5.9,8.9,10.6c1.5,6.9,0.3,15-7.3,16.6c-9.7,2.1-20.3,2.2-30.1,1.5C52.3,136.1,46.4,135.2,40.6,133.9z"/>
		<g>
			<path class="svg-perso-sur-carte16" d="M68.4,60.1c-0.4-1.4-1-3-2.4-3.4c-1.5-0.4-2.8,0.7-3.8,1.8C56.6,65.4,55.4,74,55.5,83l15.8-1.4
				C71.3,74.5,70.3,67.2,68.4,60.1z"/>
			<path class="svg-perso-sur-carte16" d="M58.6,64.5c-1.5,3.1-0.2,7,0.8,10.1c2,6.8,5.4,13.1,7.8,19.8c2.4,6.7-0.6,3.6-2.5,10.5
				c-0.3,1.1-0.7,2.2-0.6,3.3c0.1,1.1,0.7,2.2,1.9,2.6c0.7,0.2,1.4,0.1,2.2,0c9.7-1.5,18,7.1,27.8,5.6c0.6-0.1,1.3-0.2,1.8-0.6
				c1.1-0.9,0.4-2.4-0.2-3.6c-4-7.7,3-16.7,4.3-25.2c1.3-8.5,2.9-19,0.3-27.3C98,55.9,89.5,47.2,75.6,49.3
				C65.8,50.7,59.9,61.7,58.6,64.5z"/>
		</g>
		<g>
			<path class="svg-perso-sur-carte15" d="M109.4,75.7c-3.1-7.2-8.3-13.4-14.8-17.7c-1.2-0.8-2.7-1.5-3.9-0.8c-0.7,0.4-1,1.2-1.1,1.9s0,1.5,0.2,2.3
				c1.7,8.8,4.6,17.3,7.5,25.7c0.9,2.6,1.8,5.2,3.3,7.5c1.5,2.3,3.7,4.2,6.4,4.8c1.4,0.3,3.6,0.3,4.7-0.9c0.9-0.9,0.7-2.9,0.8-4
				c0.3-4.1,0-8.2-1-12.2C111,80,110.3,77.8,109.4,75.7z"/>
			<path class="svg-perso-sur-carte15" d="M85.5,75.3c-1.4,0.1-2.4,1.5-2.5,2.9c-0.1,1.4,19,20.4,23.3,22.8c1.3,0.7,2.9,1.5,4.2,0.9
				c1.2-0.5,1.8-2,2-3.3c0.5-2.2,0.6-4.9-0.2-7c-0.5-1.5-2-1.7-3.2-2.5C104.5,86.5,86.4,75.3,85.5,75.3z"/>
			<path class="svg-perso-sur-carte15" d="M78.9,60.8c-0.5-0.3-1.1-0.6-1.5-0.3c-0.3,0.2-0.3,0.6-0.3,1c0.1,0.3,0.3,0.7,0.4,1
				c0.8,1.6,0.7,3.6,0.9,5.4c0.4,4.1,2,8.1,4.6,11.3c2.2,2.7,4.7-2.5,4.2-4.6c-0.7-3.4-2-6.9-4.1-9.7C82,63.3,80.5,61.9,78.9,60.8z"
				/>
		</g>
		<g>
			<path class="svg-perso-sur-carte18" d="M60.6,28.1c0.8,1.2,2.2,1,2.4-0.3c0.6-4.2,0.5-4.9,4.2-8.4c2-1.9,17.9-0.9,3.6-7.5
				C66.1,9.7,53.8,18.1,60.6,28.1z"/>
			<path class="svg-perso-sur-carte15" d="M70.3,38.7c0.5-6.6,5.1-8.8,8.2-7.7c3.6,11.7,6.2,16.7,11.9,22.6c-5.3,4.6-15.3,5.4-17.9,2.7
				C72.2,55.3,70.1,42.1,70.3,38.7z"/>
			<path class="svg-perso-sur-carte15" d="M76.3,18.1c-4.3-4.3-14-0.5-15.7,5.8c-1.3,5,1.9,14,4.3,17.7c0.4,0.6,0.8,1,1.1,1.3
				c4.3,3.7,11.2-2.1,11.8-5.4C78.6,32.7,79.9,21.7,76.3,18.1z"/>
			<path class="svg-perso-sur-carte18" d="M72.7,24.4c2.8,4.9,2,11.8,2.6,11.8c10.4-0.8,2.7-4.9,5.6-6.1c0.9-0.4,2.5-0.4,1.7-2.2
				c-1.4-3.3-0.7-8.2-2.3-9.8c-3.8-3.9-9.8-1.1-10.4-0.8C68.3,18.5,71.6,22.5,72.7,24.4z"/>
			<path class="svg-perso-sur-carte15" d="M82.8,29.8c0.4,1.6,0.1,3.3-0.7,4.7c-2.4,4-6-0.4-5.8-3.5C76.6,27.3,81.7,25.5,82.8,29.8z"/>
			<path class="svg-perso-sur-carte19" d="M69.3,41.8c2.7,0.1,1.5,4.1,0.3,4.3c-1.3,0.1-3.8,0.8-4.9-3.2s1.4-4,1.4-4S66.4,41.7,69.3,41.8z"/>
		</g>
		<path class="svg-perso-sur-carte16" d="M88.9,57.1c-0.1-1.4-0.1-3.1,1.1-3.9c1.2-0.8,3.9,0,5.2,0.8c7.7,4.8,12.8,12.2,15.8,20.8l-17.2,3.5
			C91.3,71.5,89.6,64.4,88.9,57.1z"/>
	</g>
	<g>
		<g>
			<path class="svg-perso-sur-carte20" d="M499,151.1c-0.1,0.5-0.2,1.1,0,1.5c0.2,0.6,0.9,0.9,1.5,1.1c1.3,0.6,2.7,1.2,4,1.7c0.4,0.2,0.9,0.3,1.3,0.1
				c0.3-0.2,0.4-0.7,0.5-1.1c0.1-1.3,0.3-2.6,0.4-3.8c0.1-1.1,0.2-2.3-0.2-3.4c-0.6-1.5-3.5-3.6-5.2-2.6
				C499.5,145.7,499.3,149.6,499,151.1z"/>
			<path class="svg-perso-sur-carte21" d="M516.6,166.7c0.6-1,0.1-2.3-0.7-3.1c-0.9-0.8-2-1.1-3-1.7c-2.9-1.6-4.8-4.8-4.7-8.1c0-0.5,0-0.9-0.2-1.3
				c-0.3-0.5-1-0.6-1.6-0.5c-0.6,0.1-1.1,0.4-1.7,0.6c-1,0.3-2.2,0.2-3.1-0.4c-0.8-0.4-1.4-1.5-2.3-1.5c-0.9,0-1.5,0.8-2.1,1.4
				c-0.9,1-1.8,2-2.7,3c-0.2,0.2-0.4,0.5-0.6,0.7l5.5,3c0.5-0.2,1.2-1.2,1.6-1.5c-0.2,0.5-0.6,1.6-0.5,2.1l15.2,8.2
				C516,167.3,516.4,167.1,516.6,166.7z"/>
			<path class="svg-perso-sur-carte21" d="M516.6,123.5c1.3-0.5,2.4-1.4,3.7-2c2.5-1.1,5.3-0.8,7.9-1.6c2.8-0.9,5.1-3.1,6-5.9c0.2-0.6,0.3-1.3,0-1.8
				c-0.3-0.5-1-0.6-1.6-0.6c-4.5-0.2-5.6,1.7-10.1,2.1c-1.2,0.1-6.2-0.4-8.7,0.7c-2.7,1.2-2.4,2.3-2.4,3.4c0,1.1,0.3,4.6,1.3,5.3
				C513.7,124,515.4,124,516.6,123.5z"/>
			<path class="svg-perso-sur-carte20" d="M511.3,113.8c-0.1-0.5-0.3-1.1-0.1-1.5c0.2-0.6,0.9-0.9,1.4-1.2c1.3-0.6,2.6-1.2,3.9-1.8
				c0.4-0.2,0.9-0.4,1.3-0.1c0.3,0.2,0.4,0.7,0.5,1.1c0.2,1.3,0.3,2.6,0.5,3.8c0.1,1.1,0.3,2.3-0.1,3.4c-0.6,1.5-3.5,3.7-5.2,2.7
				C512,119.2,511.7,115.3,511.3,113.8z"/>
		</g>
		<g>
			<path class="svg-perso-sur-carte22" d="M511.2,75.2c-0.7-2.1-1.4-4.3-2.7-6l-12.2,13.5c2.7,0.7,5.8,4.9,7.3,9.4c5.4,16.6,7.3,22.8,8.6,24.3
				c1,1.2,6.8,0.1,7.3-1.5C520.6,110.7,514.4,85.5,511.2,75.2z"/>
			<path class="svg-perso-sur-carte22" d="M448.2,98.3c2.3,2.8,17.1,7.3,20.6,8c5.2,1,10.4,2,15.6,3c2.5,0.5,9,0.1,10.6,2.1
				c2.1,2.7,2.7,31.6,4.1,35.7c0.5,1.3,6.7,3.7,8,1.9c1.3-1.8,3.5-24.1,4.3-33c0.3-3.4,0.7-6.8,0.3-10.2c-0.4-3.4-1.5-6.8-3.7-9.4
				c-3.1-3.6-40.9-12.2-42.9-11.8C462.3,85.2,445.8,95.4,448.2,98.3z"/>
			<path class="svg-perso-sur-carte22" d="M439.8,76.3c-1.7,1.8-2.5,4.3-2.8,6.8c-0.7,6.6,3.2,13.5,9.2,16.3c6,2.8,19.5-0.4,25.8-8.3
				c4.1-5.2-1.5-7.5-4.4-13.5c-1.5-3-4.1-5.6-7.4-6.1c-4.2-0.6-7.6,2.3-11.6,2.7C445.2,74.5,442.8,73.1,439.8,76.3z"/>
			<path class="svg-perso-sur-carte22" d="M506.5,67.3c-7.9-5.2-50.2,2.3-58.4,13.6c-2.7,3.7-1.5,8.7,0.2,12.6c2.7,6.2,9,5.5,14.4,3.6
				c8.6-3,17.1-6.5,25.2-10.7c4.3-2.2,12.7-6.8,15-3.2l5.6-14.1C507.9,68.5,507.2,67.8,506.5,67.3z"/>
		</g>
		<path class="svg-perso-sur-carte20" d="M440.6,78c-3.2-2.5-7.5-3.1-11.4-3.9c-4-0.9-8.2-2.4-10.3-5.8c-1.5-2.4-1.7-5.4-1.3-8.2l-13.8-1.4
			c-0.9,4.1-1.2,8.5,0.2,12.4c2.2,6.1,8.1,10.3,14.3,12c6.2,1.8,12.8,1.5,19.3,1.2c1.9-0.1,4.4-0.5,4.9-2.4
			C443,80.4,441.8,78.9,440.6,78z"/>
		<g>
			<path class="svg-perso-sur-carte23" d="M418.1,57.4c0.9-3.6,2.5-7.1,3-10.8c0.3-2.2,0.1-4.6-0.9-6.6c-0.8-1.5-2.9-4-4.9-3.7
				c-2,0.3-3.6,3.8-4.5,5.4c-2.8,4.6-5,9.6-6.4,14.8c-0.2,0.7-0.3,1.3-0.5,2l13.8,1.4C417.7,59.1,417.9,58.2,418.1,57.4z"/>
			<path class="svg-perso-sur-carte23" d="M414.9,36.5c-1.6,1.6-2.4,3.9-2.9,6.2c-2.2,10.2,1.1,21,6.8,29.7c5.7,8.7,13.6,15.8,21.6,22.5
				c1.6,1.3,3.3,2.7,5.3,2.6c2.9-0.1,4.7-3.1,6-5.8c1.8-3.7,3.5-7.3,5.3-11c0.9-1.9,1.9-4,1.6-6.1c-0.4-3.3-3.5-5.5-6.1-7.5
				c-7.4-5.4-13.7-12.3-18.6-20c-1.7-2.7-3.2-5.4-5.3-7.8C425.4,35.5,419.1,32.2,414.9,36.5z"/>
		</g>
		<g>
			<path class="svg-perso-sur-carte20" d="M416.6,34.3c-0.3,0.6-0.6,1.2-0.7,1.9c-0.1,0.7,0.1,1.4,0.7,1.8c0.4,0.2,0.9,0.2,1.4,0.2
				c2.6,0,5.2-0.1,7.8-0.1c-0.2-3.1,0.7-6.2,2.5-8.6c0.5-0.6,1-1.3,1-2.1c-0.1-0.8-0.8-1.5-1.5-1.9c-1.6-1-3.3-1.9-5.1-2.5
				c-2-0.7-3-1.5-3.4,0.7C418.6,27.3,418.4,30.7,416.6,34.3z"/>
			<path class="svg-perso-sur-carte24" d="M432.5,13.9c0,0,1.6,2.9,2.7,3.2c1.1,0.4-0.6,3.6-0.6,3.6L432.5,13.9"/>
			<path class="svg-perso-sur-carte20" d="M416.1,14.8c-1.7,2.1-2.3,5.3-0.7,7.4c0.9,1.3,2.4,2,3.8,2.6c2.5,1.2,5.1,2.3,7.6,3.5
				c1.5,0.7,5.7,0.7,7.1-0.2c3.1-1.8,0.4-14.3-4.6-18.5C425.6,6.5,418.7,11.5,416.1,14.8z"/>
		</g>
		<g>
			<path class="svg-perso-sur-carte21" d="M414.7,21.5c0.5,1.4-1.2,3.3-0.2,4.4c1,1.1,2.4,3.5,3.8,3c1.8-0.6,2.6-2.7,3.1-4.6c0.6-2.2,2.2-0.7,2.9-3
				c0.3-1-0.5-5.7,0-6.5c1.2-2.1,3.1-6.8,4.8-5.2c1.6,1.4,3.7,1.2,1-1.2c-2.2-1.9-7.2-2.7-8.8-0.3c-1.2,1.8-2.8-0.3-4.2,1.3
				c-1.1,1.4-1.1,4.1-2.6,4.9C410,16.7,413.3,17.9,414.7,21.5z"/>
			<path class="svg-perso-sur-carte20" d="M417.9,21.5c-0.1-1.6,1.4-3.1,3-3.1c1.6,0,3,5.5,2.4,6C420.4,24.6,418.3,23.4,417.9,21.5z"/>
		</g>
		<g>
			<path class="svg-perso-sur-carte4" d="M452.8,30.8l20.4-2c1.2-0.1,2.4-0.7,2.7-1.3l10.4-21.9c0.3-0.6-0.5-1-1.7-0.9l-20.4,2
				c-1.2,0.1-2.4,0.7-2.7,1.3L451.1,30C450.8,30.6,451.6,31,452.8,30.8z"/>
			<path class="svg-perso-sur-carte0" d="M452,30.7l20.4-2c1.2-0.1,2.4-0.7,2.7-1.3l10.4-21.9c0.3-0.6-0.5-1-1.7-0.9l-20.4,2
				c-1.2,0.1-2.4,0.7-2.7,1.3l-10.4,21.9C450.1,30.5,450.8,30.9,452,30.7z"/>
			<path class="svg-perso-sur-carte4" d="M453.6,29.4l18.3-1.8c1.1-0.1,2.2-0.6,2.4-1.2l9.4-19.7c0.3-0.5-0.4-0.9-1.5-0.8l-18.3,1.8
				c-1.1,0.1-2.2,0.6-2.4,1.2l-9.4,19.7C451.8,29.2,452.5,29.6,453.6,29.4z"/>
		</g>
		<g>
			<path class="svg-perso-sur-carte20" d="M469.2,29.4c-2.6,5.1-7,12.7-11.7,16c-4.7,3.3-11,4.8-16.3,2.5c-2.5-1.1-4.5-2.8-6.4-4.7l-6.4,13.4
				c2.3,1.4,4.8,2.6,7.3,3.5c7,2.5,15.1,2.8,21.6-0.8c4.2-2.3,7.5-6.1,9.9-10.3c2.4-4.2,5.3-12.6,6.9-17.1
				C474.5,30.6,469.8,28.3,469.2,29.4z"/>
			<path class="svg-perso-sur-carte20" d="M471.1,22.3c0.4-0.8,2.3-2.9,3.5-5c1.6-0.3,0.2,4-0.4,4.5c1.9-0.1,5.6-1.6,6.8-4.8c0.3,0.3,1.1,1.9,1,2.3
				c-0.1,1.6-1.4,2.9-1.5,4.5c-0.1,1.2,0.4,1.9-0.2,3c-0.8,1.7-2.6,2.8-4.3,3.7c-0.9,0.5-1.8,0.9-2.8,1.1
				C467.8,32.4,469.8,24.8,471.1,22.3z"/>
		</g>
		<path class="svg-perso-sur-carte23" d="M432.4,41c-2.7-2.6-5.7-5.1-9.4-5.7c-8.4-1.3-10.6,7.8-6,13.3c1.8,2.1,4.5,3.6,6.8,5.2c1.5,1,3,2,4.5,2.9
			l8.6-12.4C436.2,43.5,433.2,41.7,432.4,41z"/>
	</g>
	<path class="svg-perso-sur-carte4" d="M63,460L63,460c0-3.5,2.8-6.3,6.3-6.3h32.3c3.5,0,6.3,2.8,6.3,6.3v0H63z"/>
	<g>
		<polygon class="svg-perso-sur-carte0" points="486.1,387.2 416.4,369 399.9,371.4 381.8,390.2 380.6,421.1 331.5,420 218.9,374.3 219.1,373.5 
			146.4,379 156,477.9 585.2,445.5 575.6,346.6 524.3,350.4 		"/>
		<polygon class="svg-perso-sur-carte1" points="218.9,374.3 331.5,420 380.6,421.1 381.8,390.2 399.9,371.4 416.4,369 486.1,387.2 524.3,350.4 
			219.1,373.5 		"/>
	</g>
	<g>
		<g>
			<path class="svg-perso-sur-carte17" d="M303.4,434.9c-0.2,2.1-0.4,4.4,0.7,6.3c1,1.9,3.7,3.2,5.7,2.2c1.1-0.6,1.8-1.7,2.3-2.8
				c3.3-6.1,6.5-12.1,9.8-18.2c2.7-5,5.5-10.3,5.1-15.9c-0.2-2.6-1-5.2-2.7-7.2c-1.4-1.8-4.6-4.7-6.7-2.6c-2.2,2.1-3.6,5.8-5,8.4
				c-3.1,6-5.6,12.4-7.2,18.9C304.5,427.6,303.8,431.3,303.4,434.9z"/>
			<path class="svg-perso-sur-carte6" d="M327,407.7c-0.2-2.9-1.1-5.8-3-8.1c-1.6-2-2.5-7.1-4.9-4.7c-2.4,2.3-6.6,8.3-8.1,11.2
				c-2,3.8-3.7,7.8-5.2,11.8l15.7,7.2C324.4,419.6,327.4,413.8,327,407.7z"/>
			<path class="svg-perso-sur-carte17" d="M303.9,434.5c1.6-1.8,4.3-2.5,6.8-2.2s4.8,1.3,7.1,2.3c4.2,1.9,8.3,3.7,12.4,5.6c4.3,1.9,8.6,3.9,12.8,5.8
				c0.7,0.3,1.4,0.7,1.6,1.3c0.2,0.7-0.3,1.5-1,1.9c-0.7,0.4-1.5,0.4-2.3,0.5c-6.4,0.3-12.9-0.3-19.1-1.7c-3.2-0.7-6.3-1.6-9.3-2.8
				c-2.6-1-6.3-2.1-8.4-3.9C302.6,439.7,302.1,436.6,303.9,434.5z"/>
		</g>
		<g>
			<path class="svg-perso-sur-carte25" d="M331,448.2c4.5-0.7,26-0.7,30.5,0c5.6,0.8,4.8,7.8,4.1,12c-0.8,4.6-1.7,9.5-5.1,12.7
				c-3.3,3.1-25.2,3.1-28.5,0c-3.4-3.2-4.3-8.1-5.1-12.7C326.2,456,325.4,449,331,448.2z"/>
			<path class="svg-perso-sur-carte25" d="M408.4,462.1c2.4,2.6,3.9,6.9,1.9,9.6c-1.7,2.3-48.8,3.1-56,3.1c-5.1-6.5-4.9-16.3,8.2-23
				c2.8-1.4,5.6-3.3,8.7-2.7C397.6,454.9,402.5,455.6,408.4,462.1z"/>
			<path class="svg-perso-sur-carte25" d="M305,421.2c-3.5-0.3-7.4,1.1-9.1,4.1c-1.4,2.5-1.1,5.7,0.1,8.3c1.2,2.6,3.1,4.8,5,6.9
				c27.7,30.9,28.1,32.3,32.8,33.6c7.9,2.1,17.4,0,10.4-18.1C343.1,453,313.7,421.9,305,421.2z"/>
			<path class="svg-perso-sur-carte17" d="M329.6,484.4c-1.8-1.1-5.5-5.8-9.8-12.1l8.1-2.8C330.6,478.8,331.6,485.5,329.6,484.4z"/>
			<path class="svg-perso-sur-carte25" d="M298,421.7c4.9-2.4,9.8-1.8,13.7,4.6c5.3,8.6,12.4,29.5,16.3,43.2l-10.9,4.6c-5.8-13.3-18.1-28.3-22.6-36.1
				C291.9,433.6,294.1,423.5,298,421.7z"/>
			<g>
				<path class="svg-perso-sur-carte17" d="M354.1,475.7l4,7.5c-6,0.4-10.8,0.5-12.8-0.4C343.2,481.9,347.3,479,354.1,475.7z"/>
				<path class="svg-perso-sur-carte25" d="M400,461.9c7.5,0,11.2,3.8,11.2,6.5c0,4.6-4.2,10.3-11.3,10.3c-9,0-28.8,4.2-42.6,5.2l-3.2-8.3
					C364.3,470.8,389.1,461.9,400,461.9z"/>
				<path class="svg-perso-sur-carte6" d="M342.3,481.7c0.3-0.2,2.3-3.2,3.7-3.7c0.8-0.3,1.8-0.8,2.7-0.4c0.9,0.5,1,1.8,1.6,2.6
					c0.4,0.6,1,1.1,1.7,1.4l1.3-1.8c4.6,2.1,1,7.5,5.6,9.7c1.1,0.5,2.3,0.9,3.3,1.7c1,0.8,1.6,2.2,0.9,3.3c-0.2,0.4-0.6,0.7-1.1,0.8
					l-14.9-7.3c0,0-0.1-3,0.3-3.4c-0.5,0.2-1.7,0.8-2.2,0.8L342.3,481.7z"/>
			</g>
			<path class="svg-perso-sur-carte6" d="M319.5,484.8c0-1.2,0.5-2.3,1-2.5s1.4-2.4,2.5-5.4c0.5-1.4,3.3-1.8,4.7,0.6c0.5,0.8,0.9,1.3,1.4,1.3
				c0.4,0,0.9-0.8,1.3-0.3c0.4,0.4,0.5,1.6,0.6,2.4c0.2,1.4,0.3,2.8,0.5,4.2c0,0.3,0.1,0.6,0.1,1h-11.7
				C319.7,485.7,319.6,485.3,319.5,484.8z"/>
		</g>
		<g>
			<path class="svg-perso-sur-carte17" d="M390.4,434.9c0.2,2.1,0.4,4.4-0.7,6.3c-1,1.9-3.7,3.2-5.7,2.2c-1.1-0.6-1.8-1.7-2.3-2.8
				c-3.3-6.1-6.5-12.1-9.8-18.2c-2.7-5-5.5-10.3-5.1-15.9c0.2-2.6,1-5.2,2.7-7.2c1.4-1.8,4.6-4.7,6.7-2.6c2.2,2.1,3.6,5.8,5,8.4
				c3.1,6,5.6,12.4,7.2,18.9C389.3,427.6,389.9,431.3,390.4,434.9z"/>
			<path class="svg-perso-sur-carte6" d="M366.8,407.7c0.2-2.9,1.1-5.8,3-8.1c1.6-2,2.5-7.1,4.9-4.7c2.4,2.3,6.6,8.3,8.1,11.2c2,3.8,3.7,7.8,5.2,11.8
				l-15.7,7.2C369.3,419.6,366.4,413.8,366.8,407.7z"/>
			<path class="svg-perso-sur-carte17" d="M389.4,435.6c-1.6-1.8-4.3-2.5-6.8-2.2s-4.8,1.3-7.1,2.3c-4.2,1.9-8.3,3.7-12.4,5.6
				c-4.3,1.9-8.6,3.9-12.8,5.8c-0.7,0.3-1.4,0.7-1.6,1.3c-0.2,0.7,0.3,1.5,1,1.9c0.7,0.4,1.5,0.4,2.3,0.5c6.4,0.3,12.9-0.3,19.1-1.7
				c3.2-0.7,6.3-1.6,9.3-2.8c2.6-1,6.3-2.1,8.4-3.9C390.7,440.7,391.2,437.6,389.4,435.6z"/>
		</g>
		<path class="svg-perso-sur-carte6" d="M318.4,395.6c1.5-1.8,3.8-2.7,6.1-3.5c6.6-2.3,21.8-8.3,22.4-8.3c0.6,0,15.8,6,22.4,8.3
			c2.3,0.8,4.6,1.7,6.1,3.5c2,2.3,2.3,5.7,1.6,8.6c-0.7,3-4.6,4.1-6,6.9c-1.7,3.4-0.8,16.4-1.9,20c-2,6.6-3.2,5.4-3.2,12.3
			c0,2.1,1.2,5.6,0.5,7.6c-0.9,2.5-5.4,3-7.7,3.3c-3.9,0.5-7.9,0.6-11.8,0.5c-3.9,0.2-7.9,0-11.8-0.5c-2.3-0.3-6.8-0.8-7.7-3.3
			c-0.7-2,0.5-5.5,0.5-7.6c0-6.8-1.3-6.4-3.3-12.9c-1.1-3.6-0.5-16.2-2.3-19.7c-1.4-2.7-4.8-3.6-5.5-6.6
			C316.1,401.3,316.4,397.9,318.4,395.6z"/>
		<path class="svg-perso-sur-carte17" d="M339.9,382.7c0.7-1.9,1.8-5,3.1-6.3c0.8-0.8,5.1-0.8,5.9,0c1.4,1.3,2.5,4.5,3.2,6.4c0.8,2.1,2,5.1,1.2,7.2
			c-0.6,1.5-3,3.1-4.2,3.4c-1,0.2-5.1,0.2-6.1,0c-1.2-0.3-3.4-2.2-4-3.7C338.1,387.6,339.1,384.8,339.9,382.7z"/>
		<path class="svg-perso-sur-carte17" d="M338,367.2c0.2-9.8,15.3-10.8,17.1,0c0.5,2.9,1.2,5.8,0.6,8.6c-0.6,2.7-1.8,5.2-3.5,7.2
			c-1.2,1.4-2.7,3.4-4.3,4.1h-2.7c-1.7-0.7-3.2-2.7-4.3-4.1c-1.7-2-2.9-4.5-3.5-7.2C336.9,373,338,370.1,338,367.2z"/>
		<path class="svg-perso-sur-carte6" d="M338,376.3c-0.2-0.8-0.5-1.3-0.7-2.1c-0.2-0.8-0.1-2,0.6-2.6c0.6,2.5,0.4,4.8,1.3,7.2
			c0.2,0.5,1.1,3.4,2.8,3.4c0.8,0,1.8-2.8,4.6-2.8c2.8,0,3.8,2.8,4.6,2.8c2.4,0,2.4-2.7,2.6-3.2c0.9-2.4,0.5-5,1.1-7.5
			c0.7,0.6,0.7,1.5,0.6,2.3c-0.2,0.8-0.6,1.6-0.7,2.4c0,0.1,0,0.1,0,0.2c-0.1,0.5-0.1,1.1,0.2,1.6c0.1,0.2,1.1,0.1,1.1,0.4
			c0,0.2-0.1,0.5-0.2,0.7c-0.2,1.1-0.6,2.2-1,3.2c-0.5,1-1,2-1.7,3c-0.3,0.5-0.7,0.9-1,1.4c-0.2,0.2-1.7,1.5-2,1.5l-2.8,0.7h-1.3
			l-2.8-0.7c-0.2,0-1.6-0.9-1.7-1.1c-0.4-0.4-0.7-0.9-1-1.4c-0.6-1-1.6-3-2-4c-0.5-1-0.8-2.1-1-3.2c0-0.2-0.2-0.5-0.2-0.7
			c0-0.2,0.3,0.2,0.4,0c0.2-0.5,0.6-0.8,0.5-1.3C338,376.4,338,376.4,338,376.3z"/>
		<path class="svg-perso-sur-carte17" d="M357.5,375.9c0.3-0.6,0.6-1.2,0.5-1.9c-0.1-0.7-0.7-1.3-1.4-1.2c-0.4,0-0.8,0.3-1,0.7s-0.3,0.8-0.4,1.2
			c-0.2,0.7-0.3,1.4-0.5,2.1c-0.1,0.6-0.2,1.3,0.3,1.7C355.9,379.1,357.1,376.5,357.5,375.9z"/>
		<path class="svg-perso-sur-carte17" d="M335.3,375.7c-0.3-0.6-0.6-1.2-0.5-1.9c0.1-0.7,0.7-1.3,1.4-1.2c0.4,0,0.8,0.3,1,0.7
			c0.2,0.4,0.3,0.8,0.4,1.2c0.2,0.7,0.3,1.4,0.5,2.1c0.1,0.6,0.2,1.3-0.3,1.7C336.9,378.9,335.7,376.3,335.3,375.7z"/>
		<path class="svg-perso-sur-carte26" d="M326.8,456.9h39.7c1.9,0,3.4-1.4,3.6-3.3l2.1-24.5c0.2-2.1-1.5-3.9-3.6-3.9h-43.8c-2.1,0-3.7,1.8-3.6,3.9
			l2.1,24.5C323.4,455.5,324.9,456.9,326.8,456.9z"/>
		<path class="svg-perso-sur-carte27" d="M372,430.1c-0.4-1.6-1.8-2.7-3.5-2.7h-43.8c-1.7,0-3.1,1.2-3.5,2.7l-0.1-1c-0.2-2.1,1.5-3.9,3.6-3.9h43.8
			c2.1,0,3.7,1.8,3.6,3.9L372,430.1z"/>
	</g>
</g>
</svg>
