<svg version="1.1" id="Calque_1" xmlns="http://www.w3.org/2000/svg" xmlns:xlink="http://www.w3.org/1999/xlink" x="0px" y="0px"
	 viewBox="0 0 1600 900" style="enable-background:new 0 0 1600 900;" xml:space="preserve">
<style type="text/css">
	.svg-labase0{fill:#D0D0D0;}
	.svg-labase1{fill:#7B7B7B;}
	.svg-labase2{fill:#FFFFFF;}
	.svg-labase3{fill-rule:evenodd;clip-rule:evenodd;fill:#80C7C3;}
	.svg-labase4{fill-rule:evenodd;clip-rule:evenodd;fill:#223A7E;}
	.svg-labase5{fill:#49BFEC;}
	.svg-labase6{fill:#7672FF;}
	.svg-labase7{fill:#C8DCF2;}
	.svg-labase8{fill:#D48743;}
	.svg-labase9{fill:#FCEB3A;}
	.svg-labase10{fill-rule:evenodd;clip-rule:evenodd;fill:#49BFEC;}
	.svg-labase11{fill:#80C7C3;}
	.svg-labase12{fill:#DE0917;}
	.svg-labase13{fill:#3065AC;}
	.svg-labase14{fill:#E72F82;}
	.svg-labase15{fill-rule:evenodd;clip-rule:evenodd;fill:#E1000F;}
	.svg-labase16{fill-rule:evenodd;clip-rule:evenodd;fill:#BF7330;}
	.svg-labase17{fill:#FFC29E;}
	.svg-labase18{fill:#37635F;}
	.svg-labase19{fill-rule:evenodd;clip-rule:evenodd;fill:#18898D;}
	.svg-labase20{fill-rule:evenodd;clip-rule:evenodd;fill:#182014;}
	.svg-labase21{fill-rule:evenodd;clip-rule:evenodd;fill:#5E3A44;}
	.svg-labase22{fill:#ABCDF5;}
	.svg-labase23{fill:#8E4344;}
	.svg-labase24{fill:#FDD247;}
	.svg-labase25{fill-rule:evenodd;clip-rule:evenodd;}
	.svg-labase26{fill:#0067E2;}
	.svg-labase27{fill-rule:evenodd;clip-rule:evenodd;fill:#01015B;}
	.svg-labase28{fill:#213A8F;}
	.svg-labase29{fill:none;stroke:#FFFFFF;stroke-width:6;stroke-linecap:round;stroke-miterlimit:10;}
	.svg-labase30{fill:none;stroke:#FFFFFF;stroke-width:4;stroke-miterlimit:10;}
	.svg-labase31{fill-rule:evenodd;clip-rule:evenodd;fill:#FDD247;}
</style>
<g>
	<ellipse class="svg-labase0" cx="398" cy="395" rx="105.7" ry="51.6"/>
	<g>
		<circle class="svg-labase1" cx="398" cy="395" r="33.2"/>
	</g>
	<polygon class="svg-labase2" points="392,403 392,387.1 404,395 	"/>
	<path class="svg-labase2" d="M398,415.7c-11.4,0-20.7-9.3-20.7-20.7c0-11.4,9.3-20.7,20.7-20.7c11.4,0,20.7,9.3,20.7,20.7
		C418.7,406.5,409.4,415.7,398,415.7z M398,377c-10,0-18.1,8.1-18.1,18.1c0,10,8.1,18.1,18.1,18.1c10,0,18.1-8.1,18.1-18.1
		C416.1,385.1,408,377,398,377z"/>
</g>
<g>
	<ellipse class="svg-labase0" cx="980.9" cy="70.7" rx="105.7" ry="51.6"/>
	<g>
		<path class="svg-labase1" d="M973.4,59.3v19.5H993c-0.9,9-8.5,16.1-17.7,16.1c-9.9,0-17.8-8-17.8-17.8C957.4,67.8,964.4,60.2,973.4,59.3z"
			/>
		<path class="svg-labase2" d="M979.7,72.5v-16c8.5,0.7,15.2,7.5,16,16H979.7z"/>
	</g>
</g>
<g>
	<ellipse class="svg-labase0" cx="690.2" cy="86.6" rx="105.7" ry="51.6"/>
	<g>
		<path class="svg-labase1" d="M707.4,56.1h-27.2l-12.7,12.7v42.9c0,3,2.4,5.4,5.4,5.4h34.5c3,0,5.4-2.4,5.4-5.4V61.5
			C712.9,58.5,710.4,56.1,707.4,56.1z"/>
		<path class="svg-labase1" d="M674.8,68.8c3,0,5.4-2.4,5.4-5.4v-7.3l-12.7,12.7H674.8z"/>
	</g>
	<g>
		<g>
			<path class="svg-labase2" d="M704.3,107.5h-26.8c-1.1,0-2-0.9-2-2s0.9-2,2-2h26.8c1.1,0,2,0.9,2,2S705.4,107.5,704.3,107.5z"/>
			<path class="svg-labase2" d="M704.3,94.4h-26.9c-1.1,0-2-0.9-2-2s0.9-2,2-2h26.9c1.1,0,2,0.9,2,2S705.4,94.4,704.3,94.4z"/>
			<path class="svg-labase2" d="M704.3,81.3h-26.8c-1.1,0-2-0.9-2-2s0.9-2,2-2h26.8c1.1,0,2,0.9,2,2S705.4,81.3,704.3,81.3z"/>
		</g>
	</g>
</g>
<g>
	<ellipse class="svg-labase0" cx="431.9" cy="671.8" rx="105.7" ry="51.6"/>
	<g>
		<path class="svg-labase1" d="M449.2,641.3H422L409.2,654v42.9c0,3,2.4,5.4,5.4,5.4h34.5c3,0,5.4-2.4,5.4-5.4v-50.2
			C454.6,643.7,452.2,641.3,449.2,641.3z"/>
		<path class="svg-labase1" d="M416.5,654c3,0,5.4-2.4,5.4-5.4v-7.3L409.2,654H416.5z"/>
	</g>
	<g>
		<g>
			<path class="svg-labase2" d="M446.1,692.7h-26.8c-1.1,0-2-0.9-2-2s0.9-2,2-2h26.8c1.1,0,2,0.9,2,2S447.2,692.7,446.1,692.7z"/>
			<path class="svg-labase2" d="M446.1,679.6h-26.9c-1.1,0-2-0.9-2-2s0.9-2,2-2h26.9c1.1,0,2,0.9,2,2S447.2,679.6,446.1,679.6z"/>
			<path class="svg-labase2" d="M446.1,666.5h-26.8c-1.1,0-2-0.9-2-2s0.9-2,2-2h26.8c1.1,0,2,0.9,2,2S447.2,666.5,446.1,666.5z"/>
		</g>
	</g>
</g>
<g>
	<ellipse class="svg-labase0" cx="230" cy="191.8" rx="105.7" ry="51.6"/>
	<path class="svg-labase1" d="M203.9,216.5c0,0,3.9-11.4,3.7-11.7l-0.1-0.1c-2.3-4-3.5-8.5-3.5-13.1c0-14.5,11.8-26.3,26.3-26.3
		c14.5,0,26.3,11.8,26.3,26.3s-11.8,26.3-26.3,26.3c-5.4,0-10.4-1.6-14.5-4.4c0,0,0,0,0,0L203.9,216.5z"/>
	<circle class="svg-labase2" cx="242.5" cy="191.8" r="3.3"/>
	<circle class="svg-labase2" cx="230" cy="191.8" r="3.3"/>
	<circle class="svg-labase2" cx="217.7" cy="191.8" r="3.3"/>
</g>
<g>
	<ellipse class="svg-labase0" cx="1373.9" cy="464.8" rx="105.7" ry="51.6"/>
	<path class="svg-labase1" d="M1347.7,489.4c0,0,3.9-11.4,3.7-11.7l-0.1-0.1c-2.3-4-3.5-8.5-3.5-13.1c0-14.5,11.8-26.3,26.3-26.3
		c14.5,0,26.3,11.8,26.3,26.3c0,14.5-11.8,26.3-26.3,26.3c-5.4,0-10.4-1.6-14.5-4.4c0,0,0,0,0,0L1347.7,489.4z"/>
	<circle class="svg-labase2" cx="1386.4" cy="464.8" r="3.3"/>
	<circle class="svg-labase2" cx="1373.9" cy="464.8" r="3.3"/>
	<circle class="svg-labase2" cx="1361.5" cy="464.8" r="3.3"/>
</g>
<g>
	<ellipse class="svg-labase0" cx="1134.6" cy="752.9" rx="90.5" ry="44.2"/>
	<path class="svg-labase1" d="M1163.4,774.7h-57.6c-2.2,0-4-1.8-4-4V735c0-2.2,1.8-4,4-4h57.6c2.2,0,4,1.8,4,4v35.7
		C1167.4,772.9,1165.6,774.7,1163.4,774.7z"/>
	<g>
		<g>
			<path class="svg-labase2" d="M1124.1,763.8c-0.5,0-1-0.3-1.2-0.8l-5.4-16l-5.3,16c-0.2,0.6-0.9,1-1.5,0.8c-0.6-0.2-1-0.9-0.8-1.5
				l6.5-19.4c0.2-0.5,0.6-0.8,1.2-0.8c0,0,0,0,0,0c0.5,0,1,0.3,1.2,0.8l6.6,19.4c0.2,0.6-0.1,1.3-0.8,1.5
				C1124.3,763.8,1124.2,763.8,1124.1,763.8z"/>
			<path class="svg-labase2" d="M1122.2,758.2h-9.3c-0.7,0-1.2-0.5-1.2-1.2c0-0.7,0.5-1.2,1.2-1.2h9.3c0.7,0,1.2,0.5,1.2,1.2
				C1123.4,757.7,1122.9,758.2,1122.2,758.2z"/>
		</g>
		<g>
			<path class="svg-labase2" d="M1159.5,764.6h-27.6c-1.1,0-2-0.9-2-2s0.9-2,2-2h27.6c1.1,0,2,0.9,2,2S1160.6,764.6,1159.5,764.6z"/>
			<path class="svg-labase2" d="M1159.5,754.8h-27.6c-1.1,0-2-0.9-2-2s0.9-2,2-2h27.6c1.1,0,2,0.9,2,2S1160.6,754.8,1159.5,754.8z"/>
			<path class="svg-labase2" d="M1159.5,745h-27.6c-1.1,0-2-0.9-2-2s0.9-2,2-2h27.6c1.1,0,2,0.9,2,2S1160.6,745,1159.5,745z"/>
		</g>
	</g>
</g>
<g>
	<path class="svg-labase3" d="M268.2,639l1.2-34.2c0,0,22.1-1.6,32.7-0.9c0,0,2.3,26.9-1.6,38L268.2,639z"/>
	<path class="svg-labase4" d="M366.8,744.5c0,0-12.2,7.5-18.8,8.3l-9.6-14.1c-1.4-2.1-0.8-4.9,1.4-6.2c4.8-2.9,12.9-7.2,18.1-7L366.8,744.5z
		"/>
	<path class="svg-labase5" d="M1281.3,196.6l11.9-25.2c1-2.2,0.2-4.8-1.8-6c-5.6-3.4-16.6-9.8-24.4-13.5c-1.5-0.7-3.3-0.2-4.1,1.2
		c-3.6,5.9-12.5,21.4-15.1,31.7c-0.4,1.5,0.4,3.1,1.9,3.7l25.6,10.5C1277.6,199.9,1280.3,198.9,1281.3,196.6"/>
	<path class="svg-labase6" d="M717.9,435.9l-1.8-16c-0.4-3.7,1.9-7.2,5.5-8.3l12.4-3.8c2.3-0.7,4.7,0.8,4.9,3.2l2.5,19.7
		c0.2,1.9-1,3.7-2.8,4.2l-15.8,4.3C720.4,439.8,718.1,438.3,717.9,435.9"/>
	<g>
		<path class="svg-labase7" d="M1420.6,129.7l10.8,9.7c0,0-10.6,9.9-13.2,10.6c-2.6,0.8-10.8-9.7-10.8-9.7L1420.6,129.7z"/>
		<path class="svg-labase8" d="M1415.9,83.6c0,0,3.6,11.5,7.3,15.7l13.9-3.6c2-0.5,3.2-2.7,2.6-4.7c-1.5-4.5-4.2-11.7-7.6-14.5L1415.9,83.6z
			"/>
	</g>
	<path class="svg-labase7" d="M206.3,704.4c-4.4-3.2-14.7-10.5-24.6-16.1c-1.3-0.7-2.8-0.3-3.6,0.9l-16.3,25.6c-0.8,1.3-0.4,3.1,1,3.8
		l24.1,13.3c1.2,0.7,2.7,0.3,3.5-0.8l16.5-23C207.8,706.9,207.5,705.2,206.3,704.4"/>
	<path class="svg-labase9" d="M512.7,437.9c-3.2-4.7-9-12.5-15.5-18c-1.8-1.5-4.5-1.5-6.3,0.1l-11.6,10.2c-1.9,1.7-2.2,4.5-0.7,6.6
		l11.9,16.2c1.5,2.1,4.4,2.6,6.5,1.2l14.4-9.4C513.7,443.3,514.3,440.2,512.7,437.9"/>
	<path class="svg-labase7" d="M539.5,609.1c-6.7-4.8-20.4-14.5-33.6-21.9c-1.9-1.1-4.2-0.5-5.4,1.4l-22.2,34.9c-1.6,2.5-0.7,5.9,1.9,7.4
		l30.7,16.9c2.9,1.6,6.6,0.8,8.6-1.9l21.2-29.5C542.3,614,541.8,610.8,539.5,609.1"/>
	<path class="svg-labase10" d="M773.6,437.3l21.4-2.5c0,0-4.3-21-6.8-24.2c-2.5-3.2-21.4,2.5-21.4,2.5L773.6,437.3z"/>
	<polygon class="svg-labase11" points="323.4,662.1 335.3,678.6 318.5,691 306.6,674.4 	"/>
	<g>
		<path class="svg-labase12" d="M1178.5,243c-0.5,0.5-0.8,1.3-0.5,2c1.1,3.3,3.5,8.9,4.8,12c0.5,1.1,1.8,1.5,2.9,0.9l9.4-6
			c0.1-0.1,0.2-0.2,0.3-0.2c0.6-0.6,0.8-1.4,0.5-2.2l-4.4-10.6c-0.4-1.1-1.7-1.5-2.7-1l-9.8,4.8
			C1178.8,242.7,1178.6,242.9,1178.5,243"/>
	</g>
	<path class="svg-labase13" d="M768.8,372.7c0,0,0.6-11.4-2.5-18.9l-13.8,1.8l0.7,14.3c0.1,1.5,1.3,2.7,2.8,2.7L768.8,372.7z"/>
	<polygon class="svg-labase8" points="142.9,687.8 110.5,678.1 123,656.5 147.9,666 	"/>
	<polygon class="svg-labase6" points="65.7,770.5 85.6,766 82.7,746 59.5,749.1 	"/>
	<g>
		<path class="svg-labase7" d="M375.6,477l8.7,17.8c0,0-18.4,7.2-22.1,6.8c-3.7-0.4-8.7-17.8-8.7-17.8L375.6,477z"/>
		<path class="svg-labase8" d="M439.8,497c0,0-1.3,16.4,1.4,23.6l19.5,2.4c2.8,0.4,5.4-1.8,5.6-4.6c0.4-6.4,0.5-17-2.3-22.1L439.8,497z"/>
	</g>
	<path class="svg-labase6" d="M1504.8,181c-4.5-4.1-12.9-11.1-20.9-14.2l-12.7,17.7l17,14.5c1.8,1.5,4.4,1.4,6-0.3l10.8-11.3
		C1506.8,185.6,1506.7,182.7,1504.8,181"/>
	<path class="svg-labase14" d="M1306.6,202.3l-7.5,16.2c-0.6,1.4-2,2.3-2.9,1.9c-3.7-1.5-12.4-5.1-13.5-7.2c-1.1-2.1,5.4-13.6,8.3-18.5
		c0.7-1.3,2-1.9,2.8-1.5l12.5,6.5C1307,200.1,1307.1,201.2,1306.6,202.3"/>
	<path class="svg-labase9" d="M1394.1,175.9l0.6,17.3l-18.1,2.6c-1.5,0.2-2.8-0.9-2.9-2.4l-0.9-15.2c-0.1-2.2,1.7-4,3.9-3.8L1394.1,175.9z"
		/>
	<path class="svg-labase14" d="M490.8,475.9l17.6-3.8c3.4-0.7,6.8,1.5,7.5,4.9l4.3,21.3c0.6,3.2-1.2,6.3,1.6,5.4l-15,4.5
		c-9.2,2.8-12.7,0.9-13.7-2.4c-1.5-5.1-3.9-12.9-6.8-21.9C485,480.4,487.2,476.7,490.8,475.9"/>
	<path class="svg-labase2" d="M423.9,443.3l-7.1,14.9c-1,2-3.5,2.6-5.3,1.4l-12.3-8.7c-1.5-1.1-1.9-3.1-1-4.7l6.5-11.4
		c0.9-1.5,2.8-2.2,4.4-1.5l12.9,5.1C423.9,439.2,424.8,441.4,423.9,443.3"/>
	<path class="svg-labase9" d="M198,772.7l-10.5,22c-1.4,2.9-5.1,3.9-7.8,2L161.6,784c-2.2-1.6-2.9-4.6-1.5-6.9l9.6-16.8
		c1.3-2.3,4.1-3.2,6.5-2.3l19,7.6C198,766.7,199.3,770,198,772.7"/>
	<path class="svg-labase5" d="M281,731.9l11.4-12.7c2.5-2.8,6.6-3.4,9.8-1.4l11.9,7.2c1.6,1,1.9,3.2,0.7,4.6l-14.2,16.2
		c-1,1.1-2.7,1.4-3.9,0.5l-15.1-9.9C280,735.4,279.8,733.2,281,731.9"/>
	<path class="svg-labase4" d="M205,680.7c0,0-18.1,1.3-25.9-1.7l-2.4-21.4c-0.4-3.1,2-5.9,5.1-6.1c7-0.4,18.7-0.4,24.3,2.8L205,680.7z"/>
	<path class="svg-labase7" d="M1166.1,296.3c-0.6-3.4-1.9-10.3-3.7-16.3c-0.3-0.9-1.1-1.4-2-1.2l-16.8,4c-1.2,0.3-1.9,1.5-1.6,2.7l4.2,14
		c0.4,1.3,1.7,2.2,3.1,1.9l14.9-2.7C1165.6,298.6,1166.3,297.5,1166.1,296.3"/>
	<path class="svg-labase7" d="M809.5,296.2c2.2-1.7,6.6-5.2,10.2-8.8c0.5-0.5,0.5-1.3,0.1-1.9l-9.2-10.4c-0.7-0.8-1.8-0.8-2.6-0.1l-8.3,8.3
		c-0.8,0.8-0.9,2.1-0.2,2.9l7.6,9.6C807.6,296.6,808.7,296.8,809.5,296.2"/>
	<path class="svg-labase14" d="M1349.5,149.3l1.4,12c0.1,1,1.1,1.7,2.1,1.5c4.1-0.9,13.7-3.1,15.5-4.5c1.8-1.4-0.3-10-1.3-13.7
		c-0.3-0.9-1.2-1.5-2.1-1.2l-14.3,4C1350,147.6,1349.4,148.4,1349.5,149.3"/>
	<path class="svg-labase5" d="M1544.9,82.9l-25.6,11c-2.2,1-3.4,3.4-2.6,5.7c2,6.3,5.9,18.4,9.2,26.3c0.6,1.5,2.3,2.3,3.9,1.8
		c6.6-2.1,23.6-7.7,32.3-13.7c1.3-0.9,1.8-2.6,1.1-4L1551,85.1C1549.9,82.9,1547.2,81.9,1544.9,82.9"/>
	<g>
		<path class="svg-labase7" d="M1208.9,190.2l-1.6-14.4c0,0,14.5-0.4,17,0.8c2.5,1.2,1.6,14.4,1.6,14.4L1208.9,190.2z"/>
		<path class="svg-labase8" d="M1181.8,227.8c0,0,5-11,5-16.6l-12.8-6.5c-1.9-1-4.2-0.1-5,1.8c-1.9,4.3-4.6,11.6-3.9,15.9L1181.8,227.8z"/>
	</g>
	<g>
		<path class="svg-labase12" d="M1276.6,288.7c0.9,0,1.8-0.6,2.2-1.5c1.7-4,4.1-11.2,5.4-15.1c0.5-1.4-0.5-3-2-3.2l-13.7-2.2
			c-0.2,0-0.3,0-0.5,0c-1,0-1.9,0.7-2.2,1.7l-4.6,13.5c-0.5,1.3,0.3,2.8,1.7,3.2l13,3.6C1276.1,288.7,1276.3,288.7,1276.6,288.7"/>
	</g>
	<path class="svg-labase6" d="M1302,148.6c0.6,6.1,2.2,16.8,6.2,24.5l21.2-4.8l-3.1-22.2c-0.3-2.3-2.4-4-4.7-3.8l-15.5,1.3
		C1303.6,143.9,1301.8,146.1,1302,148.6"/>
	<path class="svg-labase14" d="M1208.9,223.2l16.4-7.2c1.4-0.6,3-0.4,3.4,0.5c1.8,3.6,5.8,12.1,5.3,14.3c-0.5,2.3-13,6.6-18.5,8.4
		c-1.4,0.4-2.8,0.1-3.1-0.7l-5-13.1C1207.1,224.6,1207.8,223.7,1208.9,223.2"/>
	<path class="svg-labase9" d="M1125.9,184.8l11-13.4l15.2,10.1c1.3,0.8,1.5,2.5,0.6,3.7l-9.4,12c-1.4,1.7-4,1.9-5.5,0.3L1125.9,184.8z"/>
	<path class="svg-labase7" d="M1234.5,187.6c-1.8,2.9-5.4,8.9-8.1,14.6c-0.4,0.8-0.1,1.8,0.7,2.2l15.2,8.2c1.1,0.6,2.5,0.1,3-1l6.1-13.3
		c0.6-1.3,0.1-2.8-1.1-3.5l-12.9-7.9C1236.5,186.2,1235.1,186.6,1234.5,187.6"/>
	<path class="svg-labase14" d="M1141.6,234.3l6.9-9.9c0.6-0.8,0.3-2-0.6-2.5c-3.7-2.1-12.3-6.8-14.6-6.9c-2.3-0.1-6.4,7.7-8.1,11.1
		c-0.4,0.9-0.1,1.9,0.8,2.3l13.4,6.5C1140.2,235.2,1141.1,235,1141.6,234.3"/>
</g>
<path class="svg-labase4" d="M497.6,296.5c0,0,29.3-3.5,42.3,0.8l5.7,34.7c0.8,5.1-2.8,9.8-7.9,10.3c-11.4,1.2-30.4,2.2-39.8-2.6
	L497.6,296.5z"/>
<path class="svg-labase7" d="M1405.5,270.4c5.4,9.8,18.4,32.4,32,51.3c1.7,2.4,5.1,3,7.6,1.4l52.6-33.7c2.7-1.7,3.4-5.4,1.5-8l-33.5-45.7
	c-1.7-2.3-4.8-3-7.2-1.6l-50.8,28.6C1404.9,264.4,1404,267.8,1405.5,270.4"/>
<path class="svg-labase10" d="M1069.4,248l-42.1-13.9c0,0-10.2,42.9-8.3,51.1c2,8.2,42.1,13.9,42.1,13.9L1069.4,248z"/>
<polygon class="svg-labase8" points="1331.6,58.8 1383.7,105 1341.5,134.6 1303.2,95.1 "/>
<path class="svg-labase6" d="M209.6,803.2c5.7,11.1,16.9,30.6,30.3,42.3l37.1-25.2l-22.5-40.1c-2.3-4.2-7.6-5.8-11.9-3.7l-28.8,14.1
	C209.1,792.9,207.3,798.6,209.6,803.2"/>
<path class="svg-labase9" d="M723.1,501.9l38.7-32c5.2-4.3,12.9-2.9,16.3,3l22.7,39.6c2.8,4.8,1.4,11-3.1,14.2l-32.5,23
	c-4.4,3.1-10.4,2.5-14.1-1.4l-29-30.6C717.8,513.1,718.3,505.9,723.1,501.9"/>
<path class="svg-labase4" d="M1076.1,335.2c0,0,34.8,13.3,46.8,25.7l-14,42.2c-2.1,6.2-8.9,9.3-14.9,6.9c-13.5-5.4-35.2-15.4-43-26.3
	L1076.1,335.2z"/>
<g>
	<path class="svg-labase15" d="M642.7,519.4c-13-0.4-108.8,8-55.7-76.1c7.4-11.7,26.1-13,39.9-14.7c18.6-2.3,54.9-2.2,63.8,14.7
		C718.6,496,657.1,519.8,642.7,519.4z"/>
	<g>
		<path class="svg-labase16" d="M872.2,653.8c-3.5,7.4-8.3,15.8-15.2,17.8c-4.8,1.4-18.3-7.7-21.1-11.3s5.7-179.9,11.7-190.7
			c8.1-14.4,72.3,5.5,70.1,30.5c-2.8,31.9-11.9,65.9-22.7,97.6C888.5,616.6,880.9,635.4,872.2,653.8z"/>
		<path class="svg-labase17" d="M951.8,817.4c-7,1-14.3,0.5-21-1.7c0.5-8.3,0.9-16.5,1.4-24.8c0.1-1,0.1-2.1,0.7-3c0.8-1.3,2.5-1.8,4-2.1
			c5.7-1,14.5-1.3,14.7,5.9C951.7,800.3,951.7,808.9,951.8,817.4z"/>
		<path class="svg-labase17" d="M835.4,817.4c-7.2,1-14.3,0.5-20.8-1.7c1.5-8.3,3.1-16.5,4.6-24.8c0.2-1,0.4-2.1,1.1-3
			c1-1.3,2.7-1.8,4.2-2.1c5.9-1,14.6-1.3,13.9,5.9C837.5,800.3,836.4,808.9,835.4,817.4z"/>
		<path class="svg-labase16" d="M837.8,633.5c9.2-14.6,31.2-24.7,40.5,0.7c14.2,38.8-30.7,111.2-37.4,158h-24
			C816.2,787.7,832.7,641.6,837.8,633.5z"/>
		<path class="svg-labase16" d="M954.1,512.5c-5.9,4.6-13.6,5.3-20.8,5.3c-59.7,0-94.3-19.4-86-46.9c8.5-28.2,62-23.6,89.9-14.6
			c6,2,14.8,3.9,18.9,9.5C961.9,474.1,968.3,501.3,954.1,512.5z"/>
		<path class="svg-labase17" d="M872.4,319.3c-1.9,27.5-7.3,55.6-22.8,78.4c-3.3,4.9-8.2,10-14.1,9.4c-3.4-0.4-6.4-2.7-8.3-5.7
			c-1.9-2.9-2.7-6.4-3.4-9.8c-5-26.8,3.2-54.2,11.3-80.2c3.4-10.7,7.8-29.7,18.7-35.5c11.4-6,17.1,12.6,18.1,20.2
			C873.1,303.7,872.9,311.6,872.4,319.3z"/>
		<path class="svg-labase18" d="M873.7,280.3c-0.5-4.5-1.7-9.9-6-11.9c-4.4-2.1-9.2,1-12.7,4.1c-21,18.8-28.9,45.4-32.7,73.9l50.3,3.1
			C875.9,326.7,876.3,303.4,873.7,280.3z"/>
		<path class="svg-labase16" d="M949,653.8c-2,7.4-5.1,15.8-11.6,17.8c-4.5,1.4-19.9-7.7-23.3-11.3c-3.4-3.7-31.2-151.6-27.3-162.3
			c5.2-14.4,18.3-23.7,31.8-25.9c19.6-3.1,42.1,3,45,27.9c3.6,31.9,1.4,65.9-3,97.6C957.8,616.6,954,635.4,949,653.8z"/>
		<path class="svg-labase17" d="M786.2,321.8c-3.3-2.4-7.4-4.9-11.3-3.5c-3.3,1.2-5,4.9-4.9,8.4s41.8,71.5,59.4,78.6
			c8.9,3.6,15.8-1.4,19.4-9.1C853.8,385.3,798.3,330.5,786.2,321.8z"/>
		<path class="svg-labase16" d="M909.1,633.5c5.7-14.6,28.1-26.2,40.7,0.7c20.2,43.3,7.9,108,4.2,158h-24C928.2,787.7,906,641.6,909.1,633.5
			z"/>
		<path class="svg-labase18" d="M840.7,289.3c-6.1,9-3.9,21.8-2.4,32.2c3.2,22.3,10.9,43.9,15.4,66c4.5,22.1,5.6,45.5-3.8,66.4
			c-1.5,3.3-3.2,6.5-3.5,10c-0.3,3.5,1.2,7.4,4.8,9c2.1,0.9,4.5,0.9,6.8,0.9c31.4-0.2,62.8-0.4,94.1-0.6c2.1,0,4.3-0.1,6-1.1
			c3.8-2.3,2.5-7.5,1.1-11.4c-9.1-26.1-1.3-54.3,6.9-80.6c8.1-26.2,18.2-58.5,13.6-85.8c-11.1-13.5-33.7-44.9-78.6-44.9
			C869.7,249.4,846.2,281.2,840.7,289.3z"/>
		<path class="svg-labase17" d="M995.4,348.3c-6.3-24-19.7-46.1-38.2-62.8c-3.3-3-7.8-6-11.9-4.2c-2.2,1-3.7,3.2-4.4,5.5
			c-0.7,2.3-0.6,4.8-0.5,7.3c1.1,28.4,6.3,56.5,11.4,84.5c1.6,8.6,3.2,17.3,6.9,25.2c3.7,7.9,9.8,15.1,18,18.2
			c4.3,1.6,11.3,2.6,15.2-0.5c3.2-2.5,3.7-8.8,4.5-12.4c2.8-12.7,3.7-25.9,2.7-38.9C998.5,362.8,997.3,355.5,995.4,348.3z"/>
		<path class="svg-labase19" d="M1002.6,357.3c0,0.2,0.1,0.4,0.1,0.5C1002.6,357.7,1002.6,357.5,1002.6,357.3z"/>
		<path class="svg-labase18" d="M939.6,280.3c0.2-4.5,1.1-9.9,5.2-11.9c4.3-2.1,12.3,1.9,16,5c22.2,18.8,34.5,44.5,40.1,73l-55.9,3.1
			C940.3,326.7,938.4,303.4,939.6,280.3z"/>
		<path class="svg-labase17" d="M920.2,336c-4.4-0.4-8.4,3.5-9.4,7.9c-1,4.3,50.3,73.2,62.7,82.7c3.8,2.9,8.3,5.9,12.9,4.7
			c4.1-1.1,6.5-5.3,8-9.3c2.5-6.7,4.1-15.1,2.7-22.2c-1-4.9-5.4-6.4-9-9.2C974.9,380.2,923,336.3,920.2,336z"/>
		<path class="svg-labase17" d="M906.3,287.3c-1.3-1.2-3.2-2.4-4.7-1.5c-1,0.6-1.4,1.8-1.3,3c0.1,1.1,0.5,2.2,0.9,3.3
			c1.8,5.6,0.7,11.6,0.3,17.5c-0.8,13.1,2.5,26.4,9.3,37.6c5.8,9.6,15.8-5.8,15.4-12.5c-0.7-11-3.1-22.8-8.4-32.5
			C914.8,296.6,910.9,291.6,906.3,287.3z"/>
		<g>
			<path class="svg-labase20" d="M861.7,205c1.5,2.5,3.4,1.8,3.3-1.1c-0.3-9.2-0.6-10.7,3.5-19c2.3-4.6,3-4.9,0.9-6.5
				C862.6,173.3,849.4,184.2,861.7,205z"/>
			<path class="svg-labase17" d="M888.6,217.9c3.1-13.6,13.3-16.7,19.3-13.5c3.8,25.4,7.7,36.7,17.7,50.5c-12.4,7.9-33.5,6.5-38.1,0
				C887.3,253,887,225,888.6,217.9z"/>
			<path class="svg-labase17" d="M900.9,181.7c-9.4-11.6-28.4-9.5-35.3,4.8c-6.3,13.1,0.6,40.9,6.1,46.7c9.5,10.1,29.8-1.5,32.6-9
				C908.3,213.1,908.8,191.5,900.9,181.7z"/>
			<path class="svg-labase20" d="M895.5,185.6c-0.6,2.1,4.5,30.7,5.3,30.4c2.8-1.2,6.4-9.2,11.7-8.9c1.7,0.1,4,1.2,4.1-2.2
				c0.4-21.4,1.3-20.3-2.6-22.3C905.5,178.2,896.6,181.7,895.5,185.6z"/>
			<path class="svg-labase20" d="M915.1,184.5c-11.9-17.7-37.1-32.3-46.6-30.7c-14.1,2.4-13.1,25-9.1,27.7c1.8,1.2,4.2,0.4,6.3-0.1
				c10.1-2.4,15.6,4.5,21.2,7.9C896.9,195.3,925.3,199.6,915.1,184.5z"/>
			<path class="svg-labase17" d="M917.2,203.5c0.3,3.4-0.7,6.9-2.9,9.6c-6.2,7.6-12.4-2.7-11-9.1C905,196.3,916.3,194.2,917.2,203.5z"/>
		</g>
		<path class="svg-labase21" d="M768.7,829.6c-0.3-3.4,3-6.3,6.3-7.1s6.9-0.2,10.3-0.2c9.8-0.1,19.4-6,23.9-14.8c0.6-1.2,1.2-2.5,2.4-3.2
			c1.6-0.9,3.6-0.2,5,0.9c1.4,1.1,2.4,2.7,3.7,4c2.3,2.3,5.5,3.6,8.8,3.5c2.7,0,5.7-2.1,8.3-0.7c2.3,1.2,2.9,4.4,3.5,6.6
			c1,3.9,1.9,7.8,2.9,11.7c0.2,0.9,0.4,1.8,0.5,2.7h-18.8c-0.9-1.2-1.6-4.8-2-6.3c-0.1,1.5-0.7,5.1-1.6,6.3h-51.6
			C769.5,832,768.9,830.9,768.7,829.6z"/>
		<path class="svg-labase21" d="M921.4,829.6c-0.1-3.4,1.3-6.3,2.8-7.1c1.5-0.8,3.8-6.6,6.8-15c1.4-3.9,9.2-4.9,13.1,1.7
			c1.3,2.2,2.4,3.6,3.9,3.5c1.2,0,2.5-2.1,3.7-0.7c1,1.2,1.3,4.4,1.5,6.6c0.4,3.9,0.8,7.8,1.3,11.7c0.1,0.9,0.2,1.8,0.2,2.7h-32.5
			C921.7,832,921.4,830.9,921.4,829.6z"/>
		<path class="svg-labase17" d="M777.4,296.9c-4.1-3.6-9.7-5.9-14.9-4.4c-4.9,1.4-8.5,5.8-9.5,10.8c-1,4.9,0.3,10.2,2.9,14.5
			c2.6,4.3,12.7,12.8,23.5,9.9c6.6-1.8,7.7-6.3,7.2-12.4C785.9,308.5,782.5,301.4,777.4,296.9z"/>
		<path class="svg-labase17" d="M773.5,309.6l17.2,1.6c-0.1,4.6-1.2,9.5-1.9,13.3c-0.9,4.7-18.2,6-18.8,2.3
			C769.5,323.4,771.9,314.8,773.5,309.6z"/>
		<path class="svg-labase17" d="M786.1,311.6c-4.2-5.1-9.9-13.4-12.5-16.5c-0.7-0.8-1.6-1.5-2.1-2.4c-0.6-0.9-0.7-2.2,0.1-3
			c1-0.9,2.6-0.2,3.8,0.5c5.7,3.5,11.8,7.3,14.3,13.5c0.9,2.2,1.1,4.7,1.1,7.4C790.7,311.1,785.9,312.3,786.1,311.6z"/>
		<path class="svg-labase17" d="M766.3,316c0.5,1.1,1,2.2,1.2,3.3c0.2,1.2-0.2,2.5-1.2,3.2c-1.3,0.9-3,0.3-4.4-0.4
			c-6.7-3.4-11.9-9.4-14.4-16.5c-1.2-3.4-1.5-7.6,1.2-9.9c2.4-2.1,6.4-1.6,8.9,0.4C764.7,301.4,763.3,308.7,766.3,316z"/>
	</g>
	<ellipse class="svg-labase22" cx="314" cy="331.5" rx="161.1" ry="78.6"/>
	<ellipse class="svg-labase22" cx="415.1" cy="130" rx="137.9" ry="67.3"/>
	<path class="svg-labase15" d="M641.5,625.9c-3.1-17.4-6.1-34.8-9.2-52.1c-3.3-18.7-6.6-37.6-4.9-57c1.7-19.4,3.9-44.7,17.9-56.9
		c18-15.5,46.6-21.3,52.3,4.8c20.2,91.9-28.7,239.2-38.7,272.4c-2.8,9.2-5.7,18.3-8.7,27.5h-25.4
		C628.8,713.1,628.6,653.6,641.5,625.9z"/>
	<path class="svg-labase23" d="M624.9,764.6h25.4c-3.5,10.7-7.3,21.3-11.2,31.9c-1.4,3.7-3.3,7.9-7.1,9c-4.8,1.4-11.3-2.8-10.6-7.8
		C622.9,787.4,624,776.2,624.9,764.6z"/>
	<path class="svg-labase15" d="M623.8,648c-3.1,8.4-8.1,17.9-16.1,18.1c-4.8,0.2-9.3-3.4-12.1-8c-2.8-4.5-4.1-10-5.4-15.3
		c-5.7-23-11.4-46.1-17.1-69.1c-4.6-18.7-9.3-37.6-9-57c0.3-19.4,6.2-39.6,19.4-51.7c16.9-15.5,47.6-13.6,53.6,12.8
		c8,35,7.6,74,2.3,109.4C636.2,608.1,631,628.5,623.8,648z"/>
	<path class="svg-labase15" d="M586.5,619.4c15.8-22.6,45.6-8.4,39,19.1c-8,33.2-20.8,66-33.7,97.5c-3.4,8.3-7,16.6-10.6,24.8l-24.7-8
		C564.9,701.3,570.4,642.5,586.5,619.4z"/>
	<path class="svg-labase23" d="M556.4,752.9l24.7,8c-4.6,10.5-9.5,20.9-14.5,31.2c-1.7,3.5-4,7.4-7.8,7.9c-4.9,0.6-10.9-4.7-9.7-9.5
		C551.9,778.8,554.3,766.1,556.4,752.9z"/>
	<path class="svg-labase16" d="M541.7,805.6c0.4-4.5,0.9-9,2.7-13.2c1.8-4,3-8.3,6.7-10.5c0.5,2.3,3.3,5.7,5.5,6.2c1.8,0.4,11.4-2.9,13-2
		c1.1,0.6,0.2,19.3,5,23.9c4.8,4.6,10.8,7.7,16.2,11.4c1.9,1.3,3.8,2.7,5,4.7c1.2,2,1.7,4.5,0.6,6.6c-0.1,0.2-0.2,0.3-0.4,0.5
		l-39.2-6.5c-0.7-1.5-1.2-3.1-1.8-4.6c-1.9-5.6-3.8-11.2-5.7-16.8c-2.6,6.1-4.3,12.7-5,19.3l-4.4-0.7
		C540.5,817.7,541.1,811.6,541.7,805.6z"/>
	<path class="svg-labase24" d="M657.9,333.3c-3.9-13.7-6.9-29.3-2.4-43.3c1.4-4.4,1.7-5.1,5.6-2.9c3.1,1.7,5.9,4.8,8.3,7.3
		c4.9,5.1,9.1,10.9,12.7,17.1c3.8,6.4,6.9,13.2,9.8,20l-29.7,15.3C660.6,342.3,659.2,337.8,657.9,333.3z"/>
	<path class="svg-labase23" d="M727,302.2c-0.6-2.7-1.8-5.9-4.5-6.2c-2.6-0.3-4.5,2.3-5.7,4.6c-10.6,19.4-24.1,82.2-18.4,90.3
		c5.3,7.6,11.8,8,16.7,0.2C725.1,375.4,729.2,313,727,302.2z"/>
	<path class="svg-labase23" d="M728.6,295.7c0.6-5.8-0.7-12.2-4.9-16.3c-3.3-3.3-8.1-4.9-12.8-5.3c-2-0.2-4.6,0.2-5.2,2.1
		c-0.6,1.7,0.9,3.4,1.6,5.1c1.7,3.8-0.3,8.1-0.8,12.2c-0.5,4.6,0.9,9.3,3.9,12.9c2.4,2.8,9,7.8,12.8,5.3
		C726.7,309.4,728.2,299.6,728.6,295.7z"/>
	<path class="svg-labase24" d="M607,402.5c3.4-32.5-31.4-59.7-28.2-92.2c2.2-22.2,24.1-39.7,46.4-39.4c22.3,0.3,42.7,16.5,50.7,37.3
		c3.8,9.9,5,20.7,3.7,31.2c-0.9,7.3-3.1,14.4-4.4,21.7c-2.6,14.9-1,30.1,2.5,44.7c3.1,12.7,9.7,24.9,13,37.5H587
		C590,438,606,411.9,607,402.5z"/>
	<path class="svg-labase16" d="M616.1,813.9c-0.3-4.5-0.6-9.1,0.5-13.4c1.1-4.3,2.6-8.6,5.9-11.5c0.9,2.1,3.1,5.1,5.4,5.2
		c1.8,0.1,10.9-3.8,12.6-3.1c1.2,0.5,3.2,18.1,8.7,21.8c5.5,3.7,11.9,5.8,17.9,8.6c2.1,1,4.2,2.1,5.7,3.8c1.5,1.7,2.4,4.2,1.6,6.4
		c-0.1,0.2-0.2,0.4-0.3,0.5h-39.7c-0.9-1.4-1.7-2.8-2.5-4.3c-2.8-5.2-5.6-10.4-8.3-15.6c-1.6,6.5-2.2,13.2-1.8,19.9h-4.4
		C617,826,616.6,820,616.1,813.9z"/>
	<path class="svg-labase24" d="M561.2,322.7c3.3-10.7,9.2-20.9,18.3-27.4c2.2-1.6,5.1-3,7.7-1.9c2.4,1,3.4,3.8,4,6.3
		c4.1,16.5,1.8,33.7-1.1,50.5l-33.1-5.2C557.9,337.4,559,329.9,561.2,322.7z"/>
	<path class="svg-labase23" d="M556.1,355.8c0.3-3.6,0.6-7.2,1-10.8l33.1,5.2c-0.3,1.6-0.6,3.2-0.8,4.8c-3,16.8-7.8,27.4-10.8,44.2
		c-1.1,6.3,0.9,20.1-4.8,24.2c-4.1,2.9-10,3.6-14.4,0.8c-3.7-2.5-7.7-13-8.6-17.4c-0.8-4.4-0.5-8.9-0.1-13.4
		C551.9,378.8,554.9,370.4,556.1,355.8z"/>
	<path class="svg-labase23" d="M573.8,506.4c0.1,3.9,0.2,13.1-3.7,13.4c-3,0.2-6.2-7.3-6.8-10.2c-4.7-20.5-13.4-95.4-12.3-100.2
		c1.9-7.9,21-13.9,25.8-3.6C581.7,416.3,572.8,470.9,573.8,506.4z"/>
	<path class="svg-labase23" d="M579.1,516.9c1.3,6,2.6,12,4,18c-0.5,1.2-2.5,0.9-3.3-0.1c-0.8-1.1-0.9-2.5-1.4-3.7c-0.5-1.2-1.9-2.4-3.1-1.7
		c-1.2,0.6-1.1,2.3-0.8,3.6c1.3,6.1,2.6,12.1,3.9,18.2c-4,2.8-9.8,1.5-13.5-1.7c-3.6-3.3-5.4-8.1-6.5-12.9
		c-1.5-6.6-1.8-13.5-0.9-20.2c0.5-3.9,1.6-8,4.6-10.5C570,499.4,577.7,510.6,579.1,516.9z"/>
	<path class="svg-labase25" d="M630.2,277.1c2.1-11.5,27.5-11.4,30-22.9c1.4-6.3-1.1-12.8-0.9-19.2c0.2-6.3,3.1-10.9,6.8-15.7
		c2.7-3.6,4.4-8.9,4.7-13.4c0.2-3.5-0.4-7.1-1.9-10.3c-3.2-6.6-10.2-11.3-17.5-11.7c-7.4-0.4-15.5-0.5-19.4,5.7
		c-2,3.2-15.4,10.3-20.1,11.9c-7.1,2.3-11.8,15-12.9,22.4c-2.3,15,12.3,28.6,10.4,43.7"/>
	<path class="svg-labase25" d="M641.2,247.7c1.4-6.3-1.1-12.8-0.9-19.2c0.2-6.3,3.1-10.9,6.8-15.7c2.7-3.6,4.4-8.9,4.7-13.4
		c0.2-3.5-0.4-7.1-1.9-10.3c-3.2-6.6-10.2-11.3-17.5-11.7c-7.4-0.4-12.1,6.3-19.4,5.7c-11.9-0.9-15.4,10.3-20.1,11.9
		c-7.1,2.3-11.8,15-12.9,22.4c-2.3,15,12.3,28.6,10.4,43.7c-0.8,6.9,0.7,7.9-0.2,13.7c-1,6.8-9.6,13,20.6-3.3"/>
	<path class="svg-labase26" d="M637.1,245.6c-1.3,8.2-0.8,16.7,1.5,24.7c0.7,2.5,1.6,5.3,0.1,7.5c-1.4,2-4.2,2.3-6.7,2.4
		c-4.1,0.1-8.3,0.3-12.3-0.9c-4-1.2-7.7-3.9-9-7.8c-1.1-3.2-0.4-6.8,0.3-10.1c1.4-6.4,2.7-12.8,4.1-19.2c0.4-1.9,0.8-3.8,2.1-5.3
		c2.1-2.4,6.1-2.4,8.9-0.9c2.8,1.5,4.9,4.1,6.8,6.7L637.1,245.6z"/>
	<path class="svg-labase26" d="M649.2,242.8c2.1-4.1,2.6-8.8,3-13.4c0.6-6.3,1.2-12.7,0.2-19s-4.1-12.4-9.3-16c-6.3-4.3-14.8-4.2-22.1-1.7
		c-6.3,2.1-12.4,6.2-14.8,12.4c-1.3,3.4-1.5,7-1.7,10.7c-0.2,4.7-0.4,9.5,1,14c1.6,5,5.1,9.1,9.3,12.3c4.1,3.1,8.9,5.3,13.7,7.3
		c2.8,1.1,5.6,2.2,8.6,2.4C643,252.1,646.7,247.8,649.2,242.8z"/>
	<path class="svg-labase27" d="M623.5,203.9c-2.7,6-1.6,13.6-5.8,18.7c-3.4,4.1-10,5.2-14.5,2.3c-3.4-2.2-5.5-6.2-5.7-10.3
		c-0.2-4.1,1.2-8.1,3.5-11.5c2.3-3.4,5.3-6.2,8.6-8.6c5-3.8,10.7-6.8,16.8-8.2c3.9-0.8,8-0.9,11.9,0c2.9,0.7,8.6,2.3,9.4,5.7
		c0.8,3.4-2.2,4.1-4.7,3.4c-3.7-1-7-1.3-10.7,0.2C628.3,197.1,625.1,200.1,623.5,203.9z"/>
	<path class="svg-labase26" d="M608.8,221.2c-1.2-0.4-2.4-0.7-3.6-0.7c-1.2,0-2.5,0.5-3.3,1.5c-1.1,1.3-1.1,3.2-0.7,4.8
		c1.1,4.1,4.6,7,8.9,6.1c3.3-0.6,4.5-3.6,3.9-6.7C613.6,223.5,611.2,222.1,608.8,221.2z"/>
	<path class="svg-labase23" d="M691.9,331.5c1.9,4.5,3.7,9.1,5.5,13.7c9.8,25.2,3.6,12.4,13.4,37.6c0.9,2.4,1.9,5,1.2,7.4
		c-1.1,3.9-6.1,5.5-10,4.4c-3.9-1.2-7.1-4-9.5-7.3c-18.3-24.7-13-18.8-24.2-46.7L691.9,331.5z"/>
	<path class="svg-labase23" d="M637.1,245.6c-1.3,8.2-0.8,16.7,1.5,24.7c0.7,2.5,1.6,5.3,0.1,7.5c-1.4,2-4.2,2.3-6.7,2.4
		c-4.1,0.1-8.3,0.3-12.3-0.9c-4-1.2-7.7-3.9-9-7.8c-1.1-3.2-0.4-6.8,0.3-10.1c1.4-6.4,2.7-12.8,4.1-19.2c0.4-1.9,0.8-3.8,2.1-5.3
		c2.1-2.4,6.1-2.4,8.9-0.9c2.8,1.5,4.9,4.1,6.8,6.7L637.1,245.6z"/>
	<path class="svg-labase23" d="M649.2,242.8c2.1-4.1,2.6-8.8,3-13.4c0.6-6.3,1.2-12.7,0.2-19s-4.1-12.4-9.3-16c-6.3-4.3-14.8-4.2-22.1-1.7
		c-6.3,2.1-12.4,6.2-14.8,12.4c-1.3,3.4-1.5,7-1.7,10.7c-0.2,4.7-0.4,9.5,1,14c1.6,5,5.1,9.1,9.3,12.3c4.1,3.1,8.9,5.3,13.7,7.3
		c2.8,1.1,5.6,2.2,8.6,2.4C643,252.1,646.7,247.8,649.2,242.8z"/>
	<path class="svg-labase25" d="M623.5,203.9c-2.7,6-1.6,13.6-5.8,18.7c-3.4,4.1-10,5.2-14.5,2.3c-3.4-2.2-5.5-6.2-5.7-10.3
		c-0.2-4.1,1.2-8.1,3.5-11.5c2.3-3.4,5.3-6.2,8.6-8.6c5-3.8,10.7-6.8,16.8-8.2c3.9-0.8,8-0.9,11.9,0c2.9,0.7,8.6,2.3,9.4,5.7
		c0.8,3.4-2.2,4.1-4.7,3.4c-3.7-1-7-1.3-10.7,0.2C628.3,197.1,625.1,200.1,623.5,203.9z"/>
	<path class="svg-labase23" d="M608.8,221.2c-1.2-0.4-2.4-0.7-3.6-0.7c-1.2,0-2.5,0.5-3.3,1.5c-1.1,1.3-1.1,3.2-0.7,4.8
		c1.1,4.1,4.6,7,8.9,6.1c3.3-0.6,4.5-3.6,3.9-6.7C613.6,223.5,611.2,222.1,608.8,221.2z"/>
	<g>
		<path class="svg-labase28" d="M461,163.3h-91.9c-2.2,0-4-1.8-4-4v-58.6c0-2.2,1.8-4,4-4H461c2.2,0,4,1.8,4,4v58.6
			C465,161.5,463.2,163.3,461,163.3z"/>
		<g>
			<g>
				<path class="svg-labase2" d="M399,146.6c-0.8,0-1.5-0.5-1.8-1.3L389,121l-8.1,24.4c-0.3,1-1.4,1.5-2.3,1.2c-1-0.3-1.5-1.4-1.2-2.3
					l9.9-29.6c0.3-0.8,1-1.3,1.8-1.3c0,0,0,0,0,0c0.8,0,1.5,0.5,1.8,1.3l10,29.6c0.3,1-0.2,2-1.2,2.3
					C399.4,146.6,399.2,146.6,399,146.6z"/>
				<path class="svg-labase2" d="M396.2,138.2H382c-1,0-1.9-0.8-1.9-1.9s0.8-1.9,1.9-1.9h14.2c1,0,1.9,0.8,1.9,1.9S397.2,138.2,396.2,138.2z
					"/>
			</g>
			<g>
				<line class="svg-labase29" x1="452.9" y1="144.9" x2="410.9" y2="144.9"/>
				<line class="svg-labase29" x1="452.9" y1="130" x2="410.9" y2="130"/>
				<line class="svg-labase29" x1="452.9" y1="115.1" x2="410.9" y2="115.1"/>
			</g>
		</g>
	</g>
	<path class="svg-labase22" d="M1113,321.6c16.7-14.3-8.9,34-8.9,34s-38.1-18.5-40.6-53.6C1063.5,302,1099.4,333.2,1113,321.6z"/>
	<path class="svg-labase22" d="M997.2,164.5c-1.6-21.9,22.1,27.4,22.1,27.4s-37.5,19.7-67.2,0.9C952.1,192.8,998.5,182.4,997.2,164.5z"/>
	<path class="svg-labase22" d="M1098.9,512c21.1-6.2-22.1,27.4-22.1,27.4s-27.2-32.5-15.1-65.5C1061.7,473.9,1081.7,517.1,1098.9,512z"/>
	<path class="svg-labase22" d="M527.4,137.7c-18.5,11.9,13.4-32.5,13.4-32.5s35.2,23.5,33,58.6C573.8,163.8,542.4,128,527.4,137.7z"/>
	<path class="svg-labase22" d="M456.2,296.2c-17.5-13.3,10.9,33.5,10.9,33.5s36.9-20.7,37.4-55.8C504.5,273.8,470.5,307,456.2,296.2z"/>
	<path class="svg-labase22" d="M452,539.9c-19.8-9.4,17.6,30.5,17.6,30.5s31.9-27.9,25.1-62.4C494.6,508,468.2,547.5,452,539.9z"/>
	<g>
		<path class="svg-labase28" d="M314.9,373c-22.9,0-41.5-18.6-41.5-41.5c0-22.9,18.6-41.5,41.5-41.5c22.9,0,41.5,18.6,41.5,41.5
			C356.4,354.4,337.8,373,314.9,373z"/>
		<g>
			<rect x="309.7" y="330.2" class="svg-labase2" width="10.4" height="25.9"/>
			<circle class="svg-labase2" cx="314.9" cy="314.6" r="7.8"/>
		</g>
	</g>
	<ellipse class="svg-labase22" cx="1262" cy="352.1" rx="161.1" ry="78.6"/>
	<ellipse class="svg-labase22" cx="1158.5" cy="155.4" rx="161.1" ry="78.6"/>
	<ellipse class="svg-labase22" cx="1229.6" cy="560.7" rx="161.1" ry="78.6"/>
	<ellipse class="svg-labase22" cx="320.1" cy="585.3" rx="161.1" ry="78.6"/>
	<g>
		<path class="svg-labase28" d="M370.6,585.9c0,27.5-22.5,50-50,50h-1.1c-27.5,0-50-22.5-50-50v-1.1c0-27.5,22.5-50,50-50h1.1
			c27.5,0,50,22.5,50,50V585.9z"/>
	</g>
	<polygon class="svg-labase2" points="311,597.5 311,573.2 329.2,585.3 	"/>
	<circle class="svg-labase30" cx="320.1" cy="585.3" r="29.5"/>
	<g>
		<path class="svg-labase28" d="M1118.6,193c0,0,5.9-17.3,5.6-17.8l-0.1-0.1c-3.5-6.1-5.4-13-5.4-20c0-22.1,17.9-40,40-40
			c22.1,0,40,17.9,40,40s-17.9,40-40,40c-8.2,0-15.8-2.5-22.2-6.7c0,0,0,0,0,0L1118.6,193z"/>
		<circle class="svg-labase2" cx="1177.5" cy="155.4" r="5"/>
		<circle class="svg-labase2" cx="1158.5" cy="155.4" r="5"/>
		<circle class="svg-labase2" cx="1139.7" cy="155.4" r="5"/>
	</g>
	<g>
		<g>
			<path class="svg-labase28" d="M1288.3,305.6h-41.5l-19.4,19.4v65.3c0,4.6,3.7,8.3,8.3,8.3h52.6c4.6,0,8.3-3.7,8.3-8.3v-76.4
				C1296.6,309.4,1292.9,305.6,1288.3,305.6z"/>
			<path class="svg-labase2" d="M1238.6,325.1c4.6,0,8.3-3.7,8.3-8.3v-11.1l-19.4,19.4H1238.6z"/>
		</g>
		<g>
			<g>
				<line class="svg-labase29" x1="1283.6" y1="380.9" x2="1242.7" y2="380.9"/>
				<line class="svg-labase29" x1="1283.6" y1="361" x2="1242.7" y2="361"/>
				<line class="svg-labase29" x1="1283.6" y1="341.1" x2="1242.7" y2="341.1"/>
			</g>
		</g>
	</g>
	<g>
		<path class="svg-labase28" d="M1224.6,529v37.6h37.6c-1.7,17.3-16.4,30.9-34.2,30.9c-19,0-34.3-15.4-34.3-34.3
			C1193.7,545.4,1207.2,530.7,1224.6,529z"/>
		<path class="svg-labase2" d="M1236.6,554.5v-30.7c16.3,1.4,29.3,14.4,30.7,30.7H1236.6z"/>
	</g>
	<path class="svg-labase20" d="M881,163.4c0,0,54.1-22.4,33.5,34.8"/>
	<path class="svg-labase20" d="M898.4,205.7c0,0,3.8,15.9-2.2,26.1c-2.7,4.6,10-9.2,10-9.2s1.6-5.1-1.5-10.6"/>
	<path class="svg-labase25" d="M612,273.9"/>
	<path class="svg-labase31" d="M610.7,271.4c0,0-32.9,5.5-47.2,44.9c-14.3,39.4,68-7.7,68-7.7L610.7,271.4z"/>
</g>
</svg>
