<svg version="1.1" xmlns="http://www.w3.org/2000/svg" xmlns:xlink="http://www.w3.org/1999/xlink" x="0px" y="0px"
	 viewBox="0 0 1440 740" style="enable-background:new 0 0 1440 740;" xml:space="preserve">
<style type="text/css">
	.svg-visible0{fill:url(#SVGID_1svgVis_);}
	.svg-visible1{opacity:0.2;fill:#231D14;}
	.svg-visible2{opacity:5.000000e-02;}
	.svg-visible3{fill:#C3992A;}
	.svg-visible4{fill:#FFCA00;}
	.svg-visible5{fill:#695240;}
	.svg-visible6{fill:none;}
	.svg-visible7{fill:#231D14;}
	.svg-visible8{fill:#826956;}
	.svg-visible9{fill:#FCD49B;}
	.svg-visible10{fill:#907661;}
	.svg-visible11{opacity:0.25;fill:#01015B;}
	.svg-visible12{fill:#FCEA10;}
	.svg-visible13{opacity:0.4;}
	.svg-visible14{opacity:0.2;}
</style>
<radialGradient id="SVGID_1svgVis_" cx="88.215" cy="132.3421" r="714.0012" gradientUnits="userSpaceOnUse">
	<stop  offset="0" style="stop-color:#FFCA00"/>
	<stop  offset="1" style="stop-color:#C3992A"/>
</radialGradient>
<rect class="svg-visible0" width="1440" height="740"/>
<path class="svg-visible1" d="M137.4,740c0,0,240.6-180.8,507-180.8s706,180.7,706,180.7L137.4,740z"/>
<polyline class="svg-visible2" points="615.3,610.7 547,739.5 771.5,701.1 759.9,696 625.7,715 896.5,607.4 886.7,601.8 582.6,713.4 
	634.9,613.4 615.3,610.7 "/>
<path class="svg-visible1" d="M1077.6,62.2c46,24.7,77.3,73.3,77.3,129.2c0,80.9-65.6,146.5-146.5,146.5c-19.4,0-37.9-3.8-54.9-10.6
	c28.3,28.8,67.7,46.7,111.3,46.7c86.2,0,156.1-69.9,156.1-156.1C1220.9,135.9,1157.8,68.7,1077.6,62.2z"/>
<g>
	<polygon class="svg-visible3" points="416.7,128.2 454.7,115.1 465.4,79.5 465.4,128.2 	"/>
	<polygon class="svg-visible3" points="465.4,79.5 478.4,117.5 514,128.2 465.4,128.2 	"/>
	<polygon class="svg-visible3" points="514,128.2 476,141.2 465.4,176.8 465.4,128.2 	"/>
	<polygon class="svg-visible3" points="465.4,176.8 452.3,138.9 416.7,128.2 465.4,128.2 	"/>
</g>
<g>
	<polygon class="svg-visible3" points="314.9,128.2 333.9,121.6 339.3,103.8 339.3,128.2 	"/>
	<polygon class="svg-visible3" points="339.3,103.8 345.8,122.8 363.6,128.2 339.3,128.2 	"/>
	<polygon class="svg-visible3" points="363.6,128.2 344.6,134.7 339.3,152.5 339.3,128.2 	"/>
	<polygon class="svg-visible3" points="339.3,152.5 332.7,133.5 314.9,128.2 339.3,128.2 	"/>
</g>
<g>
	<polygon class="svg-visible3" points="331.9,300.4 343.2,283.8 336.9,266.3 351.4,285.8 	"/>
	<polygon class="svg-visible3" points="336.9,266.3 353.5,277.6 370.9,271.3 351.4,285.8 	"/>
	<polygon class="svg-visible3" points="370.9,271.3 359.6,287.9 366,305.3 351.4,285.8 	"/>
	<polygon class="svg-visible3" points="366,305.3 349.4,294 331.9,300.4 351.4,285.8 	"/>
</g>
<g>
	<polygon class="svg-visible4" points="1148,334.5 1185.9,321.5 1196.6,285.9 1196.6,334.5 	"/>
	<polygon class="svg-visible4" points="1196.6,285.9 1209.7,323.9 1245.3,334.5 1196.6,334.5 	"/>
	<polygon class="svg-visible4" points="1245.3,334.5 1207.3,347.6 1196.6,383.2 1196.6,334.5 	"/>
	<polygon class="svg-visible4" points="1196.6,383.2 1183.6,345.2 1148,334.5 1196.6,334.5 	"/>
</g>
<g>
	<polygon class="svg-visible4" points="998.9,506.9 1016.3,487.5 1011.1,464 1026.5,491.6 	"/>
	<polygon class="svg-visible4" points="1011.1,464 1030.5,481.4 1054,476.2 1026.5,491.6 	"/>
	<polygon class="svg-visible4" points="1054,476.2 1036.6,495.6 1041.8,519.1 1026.5,491.6 	"/>
	<polygon class="svg-visible4" points="1041.8,519.1 1022.4,501.7 998.9,506.9 1026.5,491.6 	"/>
</g>
<g>
	<polygon class="svg-visible5" points="798.3,68.9 818.2,71.3 830.8,57.6 820.2,79.5 	"/>
	<polygon class="svg-visible5" points="830.8,57.6 828.4,77.5 842.1,90.1 820.2,79.5 	"/>
	<polygon class="svg-visible5" points="842.1,90.1 822.2,87.7 809.6,101.4 820.2,79.5 	"/>
	<polygon class="svg-visible5" points="809.6,101.4 812,81.5 798.3,68.9 820.2,79.5 	"/>
</g>
<g>
	<polygon class="svg-visible5" points="929.4,43.5 949.1,39.8 957,23 953.5,47 	"/>
	<polygon class="svg-visible5" points="957,23 960.7,42.7 977.5,50.6 953.5,47 	"/>
	<polygon class="svg-visible5" points="977.5,50.6 957.8,54.3 949.9,71.1 953.5,47 	"/>
	<polygon class="svg-visible5" points="949.9,71.1 946.2,51.4 929.4,43.5 953.5,47 	"/>
</g>
<g>
	<polygon class="svg-visible3" points="187.1,375.1 206,368.6 211.4,350.8 211.4,375.1 	"/>
	<polygon class="svg-visible3" points="211.4,350.8 217.9,369.7 235.7,375.1 211.4,375.1 	"/>
	<polygon class="svg-visible3" points="235.7,375.1 216.7,381.6 211.4,399.4 211.4,375.1 	"/>
	<polygon class="svg-visible3" points="211.4,399.4 204.9,380.4 187.1,375.1 211.4,375.1 	"/>
</g>
<path class="svg-visible6" d="M630.5,600.7c0.9,0.5,1.7,0.7,2.4,0.9L630.5,600.7z"/>
<path class="svg-visible6" d="M884.4,594.5h-4.2C881.1,595.3,882.6,595.1,884.4,594.5z"/>
<path class="svg-visible7" d="M881.3,203.8l-3.5,1.4c1.4,2.4,2.9,4.9,4.5,7.5h1.2l65.5-29.3c0,0-0.8-37.4-25.1-59.7l-64.7,27.5
	c0,0,0.2,3.4,1.4,9.3l1.6-1C877.8,171.2,881.3,203.8,881.3,203.8z"/>
<path class="svg-visible8" d="M862.1,159.5l-1.6,1l-8.7,5.5c0,0,0.5,0.6,1.2,1.6c4,5.3,16.2,22.9,15.1,39c-0.1,0.9-0.2,1.9-0.3,2.8l10-4.1
	l3.5-1.4C881.3,203.8,877.8,171.2,862.1,159.5z"/>
<path class="svg-visible7" d="M853.1,167.6l-164.8,75l2.9-0.3l-32.6,15.7l1-2.4l-27.6,12.6l-2.5,1.2l16.4,36.2l3-1.3l63.7-28.3l-2.9-4.6
	l59.9-28.1l3.5,5.7l95.1-42.3C869.2,190.5,857,172.8,853.1,167.6z"/>
<path class="svg-visible9" d="M645.9,305.5l-16.4-36.2l2.5-1.2c-0.4-0.6-0.7-1-0.7-1l-5.3,2.5c0,0-0.4,3,0.1,7.8c0.4,3.5,1.3,7.9,3.3,12.8
	c1.3,3.2,2.9,5.9,4.5,8.3c4.4,6.2,9,9.3,9,9.3c3.2-1,4.9-2.5,5.8-3.6L645.9,305.5z"/>
<path class="svg-visible7" d="M613.7,224.7l-0.5,0l-1.1,0.5l-11.4,6.6c-1.8-1.6-2.7,0-2.7,0c-1,9.7,6.7,15,8.4,15.2c1.7,0.2,1.1-1.2,1.1-1.2
	l11.6-5.3h2.5l-8.8-15L613.7,224.7z"/>
<path class="svg-visible10" d="M690.5,207.3c-2.1-2.7-6.3-9.2-8.9-19.6l-29.1,15.5c0.7,4.4,6.8,15.1,8.6,18.2L690.5,207.3z"/>
<path class="svg-visible8" d="M658.7,257.9l32.6-15.7l-2.9,0.3l-11.4,1.2l-25.7-16.6l10.5-4.7c0,0-0.2-0.3-0.5-0.9c-1.8-3.1-8-13.8-8.6-18.2
	c0-0.3-0.1-0.6-0.1-0.8l-19,9.9c0,0,0,0.4,0.1,1c0.4,3.4,1.9,14.1,7.4,17.8c0.3,0.2,0.5,0.4,0.8,0.5l1.5-0.8l19.1,18.3l-2.7,6.3
	L658.7,257.9z"/>
<path class="svg-visible7" d="M705.7,176.8l-24.5,9.4c0.1,0.5,0.3,1,0.4,1.5c2.6,10.4,6.8,16.8,8.9,19.6c0.8,1,1.3,1.5,1.3,1.5L715,196
	L705.7,176.8z"/>
<path class="svg-visible10" d="M633.6,213.3l-17.7,9.4l-2.2,1.9l-0.9,0.8l8.8,15l0.8-0.4l18.5-8.9C635.5,227.5,633.9,216.7,633.6,213.3z"/>
<polygon class="svg-visible8" points="770.9,251.5 773.9,250.3 773.1,248.9 769.6,243.2 709.6,271.3 712.6,275.8 713.6,277.4 716.1,276.4 
	719.5,279.8 728.3,275.6 750.8,265.1 756.7,262.4 762.4,272.6 777.9,267.2 "/>
<path class="svg-visible11" d="M762.8,303.5c-5.3,6.7-16.9,2.6-21.9,0.5v31.7h21.9V303.5z"/>
<path class="svg-visible5" d="M753.7,278.2c0,0-4.5-7.9-2.9-13.1l-22.5,10.5c2,6.9,7.8,26.3,12.4,28.2c0.1,0,0.2,0.1,0.3,0.1
	c5,2.1,16.6,6.1,21.9-0.5c0.8-1,1.5-2.3,2-3.9C768.4,287.5,763.4,281.3,753.7,278.2z"/>
<path class="svg-visible7" d="M631.3,315.7c0,3.6-1.6,6.8-4.2,9.2c4.6-2.2,7.8-6.5,7.8-11.5c0-4.8-3-9.1-7.4-11.3c-1.3,0.7-2.6,1.4-4.1,2.1
	C628.1,306.3,631.3,310.6,631.3,315.7z"/>
<path class="svg-visible8" d="M634.1,298.5c-1.6-2.3-3.2-5.1-4.5-8.3c-2-4.9-2.9-9.3-3.3-12.8l-65.9,32.7l-2.1,1.1c0,0,3.7,16.6,10.5,17.5
	c0.2,0,0.4,0,0.7,0c4.2-0.4,18.1-6.7,32.3-13.7c0.3-4.7,3.3-8.8,7.8-10.9c0,0,0,0,0,0c2.1-1,4.5-1.6,7-1.6c2.5,0,4.8,0.5,6.9,1.5
	c1.4-0.7,2.8-1.4,4.1-2.1l0,0C630.1,300.6,632.3,299.4,634.1,298.5z M625.9,301.3c0.5,0.2,1,0.4,1.5,0.7
	C626.9,301.7,626.4,301.5,625.9,301.3z"/>
<path class="svg-visible10" d="M623.4,304.1c-2.1-1-4.4-1.5-6.9-1.5c-2.5,0-4.9,0.6-7,1.6c-4.4,2.1-7.5,6.2-7.8,10.9c0,0.2,0,0.4,0,0.6
	c0,7.2,6.6,13.1,14.8,13.1c4.2,0,7.9-1.5,10.6-3.9c2.6-2.4,4.2-5.6,4.2-9.2C631.3,310.6,628.1,306.3,623.4,304.1z"/>
<path class="svg-visible5" d="M798,375.1L798,375.1l-10.3-23.6c1-14.4-4.4-15.8-4.4-15.8h-20.6h-21.9h-16.9c-7.7,3.9-7.8,9.7-6.2,14.2
	l-11.6,30.5l1.8,0.9l13.2,6.4h2.1h2.8l12.8-31.1h1.9v32.4h3.7h18.5h2.8v-32.4h0.8l-0.8-1.8v0l0.8,1.8l13.7,29.5h1.5h6l11.5-7.9
	L798,375.1z"/>
<path class="svg-visible7" d="M896.5,586c0,0-0.4,0.4-1,0.9c-2.1,1.9-7.2,6-11.1,7.5c-1.7,0.7-3.3,0.8-4.2,0h-0.2l-0.2-0.5
	c-0.2-0.3-0.4-0.6-0.5-1c0,0-1.2,2,0,4.9c1.2,2.9,7.4,11.3,7.4,11.3s4.6,0.9,9.9-1.8c5.3-2.8,6.6-7.9,6.6-7.9L896.5,586z"/>
<path class="svg-visible12" d="M880.1,594.5c-0.2-0.1-0.3-0.3-0.4-0.5l0.2,0.5H880.1z"/>
<path class="svg-visible7" d="M769,675.9c-4.4-0.7-12.6-0.1-17.3,0.4c-2.1,0.2-3.4,0.4-3.4,0.4l0.5,24.4c8.3,4,22.7,0,22.7,0v-24.4
	C771,676.4,770.1,676.1,769,675.9z"/>
<path class="svg-visible7" d="M639.8,599.4L639.8,599.4c0,0-2.8,3-6.9,2.2c-0.8-0.2-1.6-0.4-2.4-0.9c-5.4-3-4.8-9.1-4.8-9.1v0
	c0,0-6.7-5.3-10.4,3.9c-3.7,9.2-3,11.6,0,15.2c3,3.6,10.8,10,16.7,6.9C632,617.5,641.9,604.4,639.8,599.4z"/>
<path class="svg-visible7" d="M568.7,328.7c-6.9-0.9-10.5-17.5-10.5-17.5l2.1-1.1c-1.6-0.4-4.1-0.5-7.5,1.3c-1.4,0.7-2.1,2.2-2.4,3.9
	c-0.9,5.3,2.4,13.4,2.4,13.4s2.1,4.5,6,5.6c1.5,0.4,3.2,0.3,5.1-0.7c2.7-1.4,4.4-3.2,5.6-4.9C569.1,328.8,568.9,328.8,568.7,328.7z"
	/>
<path class="svg-visible7" d="M526.8,285.8c-0.7,0.9-1.9,2.1-4.2,3.4c-4,2.3-11,3.7-13.8,4.2l13.6,28.5l18.2-7.6L526.8,285.8z"/>
<path class="svg-visible8" d="M558.8,334.3c-3.8-1.1-6-5.6-6-5.6s-3.3-8.1-2.4-13.4l-1.9-4.3l-7.8,3.3l-18.2,7.6l-14,5.8h3l44.3,16.7l2.4,2.8
	l5.1-2.8L558.8,334.3z"/>
<path class="svg-visible8" d="M525.9,284.1c-0.2,0-0.4,0.1-0.6,0.1c-1.9,0.4-4.9,1.2-9.2,3.3c-7.7,3.8-8.5,6.1-8.5,6.1s0.4-0.1,1.2-0.2
	c2.8-0.5,9.8-1.9,13.8-4.2c2.3-1.3,3.5-2.5,4.2-3.4c0.8-1.2,0.9-1.9,0.9-1.9S527.1,283.9,525.9,284.1z"/>
<path class="svg-visible8" d="M880.1,594.5h4.2c3.9-1.5,9-5.6,11.1-7.5L798,375.1l1.4,3.2l-11.5,7.9h-6L879.7,594
	C879.8,594.2,880,594.3,880.1,594.5z"/>
<path class="svg-visible8" d="M708.1,381.3l-82.4,210.3c0,0-0.5,6.2,4.8,9.1l0,0l2.4,0.9c4.1,0.8,6.9-2.2,6.9-2.2l83.6-211.7h-2.1
	L708.1,381.3z"/>
<path class="svg-visible8" d="M751.7,676.4c4.6-0.5,12.9-1.1,17.3-0.4l-5.9-286.8h-18.5L751.7,676.4z"/>
<path class="svg-visible13" d="M887.8,204.6c0,0,3.2-6.1,0-16.9l53.6-20.1c0,0,3.3,8.7,0,14.7C938.2,188.3,887.8,204.6,887.8,204.6z"/>
<polygon class="svg-visible13" points="862.5,204.6 774.4,243.2 766,240.5 706.3,271.3 706.3,276.1 652.5,300.4 644.1,288.8 862.5,192.9 "/>
<polygon class="svg-visible14" points="709.6,383.5 713.2,385.6 628.5,596.1 628.5,591.6 "/>
<polygon class="svg-visible14" points="747.1,390.9 751.9,390.9 756.8,674.1 752,674.1 "/>
<path class="svg-visible14" d="M784.9,388h3.2l2.4-1.8L886.7,591c0,0-5,2.5-5.9,0.8C879.9,590.1,784.9,388,784.9,388z"/>
</svg>
