<svg version="1.1" id="Calque_1" xmlns="http://www.w3.org/2000/svg" xmlns:xlink="http://www.w3.org/1999/xlink" x="0px" y="0px"
	 viewBox="0 0 400 400" style="enable-background:new 0 0 400 400;" xml:space="preserve">
<style type="text/css">
	.svg-carte0{fill:#90A4F8;}
	.svg-carte1{fill:#E5E5E5;}
	.svg-carte2{fill:#2F4077;}
	.svg-carte3{fill:#D0D0D0;}
</style>
<g>
	
		<rect x="23.5" y="180.2" transform="matrix(0.1194 -0.9928 0.9928 0.1194 -95.297 296.4334)" class="svg-carte0" width="191.9" height="43.5"/>
	
		<rect x="184.6" y="176.3" transform="matrix(0.1194 -0.9928 0.9928 0.1194 50.3891 452.9332)" class="svg-carte0" width="191.9" height="43.5"/>
	<g>
		<path class="svg-carte0" d="M190.6,277.7c0,0-9.6-11.1-19.2-22.4l-4.5,37.3l43.2,5.2l4.5-37.3C202.6,269.3,190.6,277.7,190.6,277.7z"/>
		
			<ellipse transform="matrix(0.1194 -0.9928 0.9928 0.1194 -16.216 370.3622)" class="svg-carte0" cx="200.7" cy="194.3" rx="20.8" ry="20.8"/>
		<path class="svg-carte0" d="M208.3,131.1c7.9,1,15,3.1,21.1,6.3l3.6-30l-43.2-5.2l-3.6,30C193,130.6,200.4,130.1,208.3,131.1z"/>
		<path class="svg-carte1" d="M186.3,132.1l-14.8,123.3c9.6,11.3,19.2,22.4,19.2,22.4s12-8.5,24-17.2l14.8-123.3
			c-6.2-3.1-13.2-5.3-21.1-6.3S193,130.6,186.3,132.1z M221.3,196.8c-1.4,11.4-11.7,19.5-23.1,18.1c-11.4-1.4-19.5-11.7-18.1-23.1
			c1.4-11.4,11.7-19.5,23.1-18.1C214.5,175.1,222.7,185.4,221.3,196.8z"/>
	</g>
	<g>
		<path class="svg-carte2" d="M233,107.4l-3.6,30c21.8,5.1,30.9,29.2,28.3,50.8C254.5,215.1,242,229,231,242c-4.1,4.8-10.2,11.8-16.4,18.7
			l-4.5,37.3l37.4-7.2l22.9-190.6L233,107.4z"/>
		<path class="svg-carte3" d="M231,242c11-13,23.5-26.9,26.7-53.7c2.6-21.6-6.5-45.7-28.3-50.8l-14.8,123.3
			C220.8,253.8,226.9,246.8,231,242z"/>
	</g>
	<g>
		<path class="svg-carte2" d="M158.9,242.2c-8.3-9.3-18-18.8-14.8-45.7c2.6-21.6,18-50.5,42.1-64.5l3.6-30l-37.4,7.2l-22.9,190.6l37.4-7.2
			l4.5-37.3C166.7,250.5,162,245.6,158.9,242.2z"/>
		<path class="svg-carte3" d="M144.1,196.5c-3.2,26.9,6.5,36.4,14.8,45.7c3.1,3.4,7.8,8.3,12.6,13.1L186.3,132
			C162.2,146,146.7,174.9,144.1,196.5z"/>
	</g>
</g>
</svg>
