<svg version="1.1" id="Calque_1" xmlns="http://www.w3.org/2000/svg" xmlns:xlink="http://www.w3.org/1999/xlink" x="0px" y="0px"
	 viewBox="0 0 350 450" style="enable-background:new 0 0 350 450;" xml:space="preserve">
<style type="text/css">
	.svgVisiV0{opacity:0.2;fill:#231D14;}
	.svgVisiV1{fill:#C3992A;}
	.svgVisiV2{fill:#FFCA00;}
	.svgVisiV3{opacity:0.1;fill:url(#SVGID_1VisiV_);}
	.svgVisiV4{fill:#695240;}
	.svgVisiV5{fill:none;}
	.svgVisiV6{fill:#231D14;}
	.svgVisiV7{fill:#826956;}
	.svgVisiV8{fill:#FCD49B;}
	.svgVisiV9{fill:#907661;}
	.svgVisiV10{opacity:0.25;fill:#01015B;}
	.svgVisiV11{fill:#FCEA10;}
	.svgVisiV12{opacity:0.4;}
	.svgVisiV13{opacity:0.2;}
</style>
<path class="svgVisiV0" d="M102.3,20.9c16.8,9,28.3,26.8,28.3,47.3c0,29.6-24,53.6-53.6,53.6c-7.1,0-13.9-1.4-20.1-3.9
	c10.4,10.5,24.8,17.1,40.8,17.1c31.6,0,57.2-25.6,57.2-57.2C154.8,47.9,131.7,23.3,102.3,20.9z"/>
<polygon class="svgVisiV1" points="79.1,277.7 72.6,258.8 67.2,276.6 48.3,283.1 66.1,288.4 72.6,307.4 77.9,289.6 96.9,283.1 "/>
<polygon class="svgVisiV2" points="310.8,232 305.1,215.6 300.6,231 284.2,236.6 299.5,241.2 305.1,257.5 309.7,242.2 326.1,236.6 "/>
<linearGradient id="SVGID_1VisiV_" gradientUnits="userSpaceOnUse" x1="246.5633" y1="335.5501" x2="81.9918" y2="402.0117">
	<stop  offset="0" style="stop-color:#000000"/>
	<stop  offset="1" style="stop-color:#000000;stop-opacity:0"/>
</linearGradient>
<polyline class="svgVisiV3" points="99.6,349.8 59.4,425.5 191.4,403 184.6,399.9 105.7,411.1 264.9,347.8 259.2,344.5 80.4,410.2 
	111.1,351.4 99.6,349.8 "/>
<polygon class="svgVisiV2" points="314.6,21.5 298.5,25.1 285.2,13.2 288.8,29.3 276.9,42.5 293,39 306.2,50.9 302.7,34.8 "/>
<polygon class="svgVisiV4" points="203.7,44.8 201.5,32.7 196.7,43 184.6,45.2 194.9,50.1 197.1,62.1 201.9,51.8 214,49.6 "/>
<path class="svgVisiV5" d="M108.5,343.9c0.5,0.3,1,0.4,1.4,0.5L108.5,343.9z"/>
<path class="svgVisiV5" d="M257.8,340.2h-2.5C255.8,340.7,256.7,340.6,257.8,340.2z"/>
<path class="svgVisiV6" d="M256,110.6l-2,0.8c0.8,1.4,1.7,2.9,2.6,4.4h0.7l38.5-17.2c0,0-0.5-22-14.8-35.1l-38,16.2c0,0,0.1,2,0.8,5.5
	l0.9-0.6C253.9,91.4,256,110.6,256,110.6z"/>
<path class="svgVisiV7" d="M244.7,84.5l-0.9,0.6l-5.1,3.2c0,0,0.3,0.3,0.7,0.9c2.3,3.1,9.5,13.5,8.9,22.9c0,0.6-0.1,1.1-0.2,1.6l5.9-2.4
	l2-0.8C256,110.6,253.9,91.4,244.7,84.5z"/>
<path class="svgVisiV6" d="M239.4,89.3l-96.9,44.1l1.7-0.2l-19.1,9.2l0.6-1.4l-16.2,7.4l-1.5,0.7l9.7,21.3l1.7-0.8l37.4-16.7l-1.7-2.7
	l35.2-16.5l2.1,3.4l55.9-24.9C248.9,102.7,241.7,92.4,239.4,89.3z"/>
<path class="svgVisiV8" d="M117.6,170.3l-9.7-21.3l1.5-0.7c-0.3-0.4-0.4-0.6-0.4-0.6l-3.1,1.5c0,0-0.3,1.8,0.1,4.6c0.2,2,0.8,4.6,1.9,7.5
	c0.8,1.9,1.7,3.5,2.7,4.9c2.6,3.6,5.3,5.4,5.3,5.4c1.9-0.6,2.9-1.5,3.4-2.1L117.6,170.3z"/>
<path class="svgVisiV6" d="M98.6,122.9l-0.3,0l-0.6,0.3L91,127c-1-0.9-1.6,0-1.6,0c-0.6,5.7,3.9,8.8,4.9,9c1,0.1,0.6-0.7,0.6-0.7l6.8-3.1
	h1.5l-5.2-8.8L98.6,122.9z"/>
<path class="svgVisiV9" d="M143.8,112.6c-1.2-1.6-3.7-5.4-5.2-11.5l-17.1,9.1c0.4,2.6,4,8.9,5.1,10.7L143.8,112.6z"/>
<path class="svgVisiV7" d="M125.1,142.4l19.1-9.2l-1.7,0.2l-6.7,0.7l-15.1-9.8l6.2-2.8c0,0-0.1-0.2-0.3-0.5c-1.1-1.8-4.7-8.1-5.1-10.7
	c0-0.2,0-0.3,0-0.5l-11.2,5.8c0,0,0,0.2,0.1,0.6c0.2,2,1.1,8.3,4.3,10.5c0.2,0.1,0.3,0.2,0.5,0.3l0.9-0.5l11.2,10.8l-1.6,3.7
	L125.1,142.4z"/>
<path class="svgVisiV6" d="M152.7,94.7l-14.4,5.5c0.1,0.3,0.1,0.6,0.2,0.9c1.5,6.1,4,9.9,5.2,11.5c0.5,0.6,0.8,0.9,0.8,0.9l13.6-7.6
	L152.7,94.7z"/>
<path class="svgVisiV9" d="M110.3,116.2l-10.4,5.6l-1.3,1.1l-0.5,0.4l5.2,8.8l0.5-0.2l10.9-5.2C111.4,124.5,110.5,118.2,110.3,116.2z"/>
<polygon class="svgVisiV7" points="191.1,138.6 192.8,137.9 192.3,137.1 190.3,133.7 155,150.2 156.8,152.9 157.4,153.8 158.9,153.2 
	160.8,155.2 166,152.8 179.2,146.6 182.7,145 186.1,151 195.1,147.8 "/>
<path class="svgVisiV10" d="M186.3,169.2c-3.1,3.9-10,1.5-12.9,0.3v18.7h12.9V169.2z"/>
<path class="svgVisiV4" d="M181,154.3c0,0-2.6-4.7-1.7-7.7l-13.2,6.2c1.2,4,4.6,15.5,7.3,16.6c0,0,0.1,0,0.2,0.1c2.9,1.2,9.7,3.6,12.9-0.3
	c0.5-0.6,0.9-1.4,1.2-2.3C189.6,159.8,186.7,156.2,181,154.3z"/>
<path class="svgVisiV6" d="M109,176.3c0,2.1-1,4-2.5,5.4c2.7-1.3,4.6-3.8,4.6-6.8c0-2.8-1.8-5.3-4.4-6.7c-0.8,0.4-1.6,0.8-2.4,1.2
	C107.1,170.8,109,173.4,109,176.3z"/>
<path class="svgVisiV7" d="M110.6,166.2c-1-1.4-1.9-3-2.7-4.9c-1.2-2.9-1.7-5.5-1.9-7.5l-38.7,19.2l-1.3,0.6c0,0,2.2,9.8,6.2,10.3
	c0.1,0,0.2,0,0.4,0c2.5-0.2,10.6-4,19-8.1c0.1-2.8,1.9-5.2,4.6-6.4c0,0,0,0,0,0c1.2-0.6,2.6-0.9,4.1-0.9c1.5,0,2.8,0.3,4.1,0.9
	c0.8-0.4,1.6-0.9,2.4-1.2l0,0C108.2,167.5,109.6,166.8,110.6,166.2z M105.8,167.9c0.3,0.1,0.6,0.2,0.9,0.4
	C106.4,168.1,106.1,168,105.8,167.9z"/>
<path class="svgVisiV9" d="M104.3,169.5c-1.2-0.6-2.6-0.9-4.1-0.9c-1.5,0-2.9,0.3-4.1,0.9c-2.6,1.2-4.4,3.6-4.6,6.4c0,0.1,0,0.2,0,0.4
	c0,4.3,3.9,7.7,8.7,7.7c2.4,0,4.6-0.9,6.2-2.3c1.5-1.4,2.5-3.3,2.5-5.4C109,173.4,107.1,170.8,104.3,169.5z"/>
<path class="svgVisiV4" d="M207,211.3L207,211.3l-6-13.9c0.6-8.4-2.6-9.3-2.6-9.3h-12.1h-12.9h-9.9c-4.5,2.3-4.6,5.7-3.6,8.4l-6.8,17.9
	l1.1,0.5l7.8,3.8h1.3h1.6l7.5-18.3h1.1v19.1h2.2h10.9h1.7v-19.1h0.5l-0.5-1v0l0.5,1l8,17.3h0.9h3.5l6.8-4.7L207,211.3z"/>
<path class="svgVisiV6" d="M264.9,335.3c0,0-0.2,0.2-0.6,0.5c-1.3,1.1-4.2,3.5-6.5,4.4c-1,0.4-1.9,0.5-2.5,0h-0.1L255,340
	c-0.1-0.2-0.2-0.4-0.3-0.6c0,0-0.7,1.2,0,2.9c0.7,1.7,4.4,6.7,4.4,6.7s2.7,0.5,5.8-1.1c3.1-1.6,3.9-4.7,3.9-4.7L264.9,335.3z"/>
<path class="svgVisiV11" d="M255.3,340.2c-0.1-0.1-0.2-0.2-0.3-0.3l0.1,0.3H255.3z"/>
<path class="svgVisiV6" d="M190,388.1c-2.6-0.4-7.4,0-10.2,0.2c-1.2,0.1-2,0.2-2,0.2l0.3,14.3c4.9,2.3,13.3,0,13.3,0v-14.3
	C191.1,388.4,190.6,388.3,190,388.1z"/>
<path class="svgVisiV6" d="M114,343.2L114,343.2c0,0-1.6,1.8-4,1.3c-0.5-0.1-0.9-0.3-1.4-0.5c-3.2-1.7-2.8-5.4-2.8-5.4v0
	c0,0-4-3.1-6.1,2.3c-2.2,5.4-1.8,6.8,0,8.9c1.8,2.1,6.4,5.9,9.8,4C109.4,353.8,115.2,346.1,114,343.2z"/>
<path class="svgVisiV6" d="M72.2,184c-4-0.5-6.2-10.3-6.2-10.3l1.3-0.6c-0.9-0.2-2.4-0.3-4.4,0.8c-0.8,0.4-1.3,1.3-1.4,2.3
	c-0.5,3.1,1.4,7.9,1.4,7.9s1.3,2.6,3.5,3.3c0.9,0.2,1.9,0.2,3-0.4c1.6-0.8,2.6-1.9,3.3-2.9C72.4,184,72.3,184,72.2,184z"/>
<path class="svgVisiV6" d="M47.5,158.8c-0.4,0.6-1.1,1.3-2.5,2c-2.3,1.3-6.5,2.2-8.1,2.4l8,16.7l10.7-4.5L47.5,158.8z"/>
<path class="svgVisiV7" d="M66.3,187.3c-2.3-0.6-3.5-3.3-3.5-3.3s-1.9-4.8-1.4-7.9l-1.1-2.5l-4.6,1.9L45,180l-8.2,3.4h1.7l26,9.8l1.4,1.6
	l3-1.6L66.3,187.3z"/>
<path class="svgVisiV7" d="M47,157.8c-0.1,0-0.2,0-0.3,0.1c-1.1,0.2-2.9,0.7-5.4,1.9c-4.5,2.2-5,3.6-5,3.6s0.3,0,0.7-0.1
	c1.6-0.3,5.7-1.1,8.1-2.4c1.3-0.8,2.1-1.5,2.5-2c0.5-0.7,0.5-1.1,0.5-1.1S47.7,157.6,47,157.8z"/>
<path class="svgVisiV7" d="M255.3,340.2h2.5c2.3-0.9,5.3-3.3,6.5-4.4L207,211.3l0.8,1.9l-6.8,4.7h-3.5L255,340
	C255.1,340.1,255.2,340.2,255.3,340.2z"/>
<path class="svgVisiV7" d="M154.1,214.9l-48.4,123.6c0,0-0.3,3.6,2.8,5.4l0,0l1.4,0.5c2.4,0.5,4-1.3,4-1.3l49.1-124.4h-1.3L154.1,214.9z"
	/>
<path class="svgVisiV7" d="M179.8,388.4c2.7-0.3,7.6-0.7,10.2-0.2l-3.5-168.6h-10.9L179.8,388.4z"/>
<path class="svgVisiV12" d="M259.8,111c0,0,1.9-3.6,0-9.9l31.5-11.8c0,0,1.9,5.1,0,8.6S259.8,111,259.8,111z"/>
<polygon class="svgVisiV12" points="244.9,111 193.1,133.7 188.1,132.1 153,150.2 153,153.1 121.5,167.3 116.5,160.5 244.9,104.1 "/>
<polygon class="svgVisiV13" points="155,216.2 157.1,217.4 107.4,341.2 107.4,338.5 "/>
<polygon class="svgVisiV13" points="177.1,220.5 179.9,220.5 182.8,387.1 179.9,387.1 "/>
<path class="svgVisiV13" d="M199.3,218.8h1.9l1.4-1.1l56.6,120.5c0,0-2.9,1.5-3.5,0.5C255.1,337.7,199.3,218.8,199.3,218.8z"/>
</svg>
