<svg version="1.1" id="Calque_1" xmlns="http://www.w3.org/2000/svg" xmlns:xlink="http://www.w3.org/1999/xlink" x="0px" y="0px"
	 viewBox="0 0 350 450" style="enable-background:new 0 0 350 450;" xml:space="preserve">
<style type="text/css">
	.svgCentraV0{opacity:8.000000e-02;}
	.svgCentraV1{opacity:8.000000e-02;fill:#FFFFFF;}
	.svgCentraV2{fill:#297254;}
	.svgCentraV3{fill:#1DD884;}
	.svgCentraV4{fill:#21402C;}
	.svgCentraV5{fill:#142018;}
	.svgCentraV6{fill:#45A07A;}
</style>
<path class="svgCentraV0" d="M342.2,89.2v-2.7H259V72.4h62.5v-2.7h-35.3V52.1h-2.7v17.7h-49.8V56.1H231v13.6h-28.1v-7.1h-2.7v7.1h-42.8v2.7
	h42.8v14.1h-22.1v2.7H231v13.3h-73.6v2.7h41.5v12.1h2.7v-12.1h95v7.9h2.7v-7.9h6.6v-2.7h-6.6V89.2H342.2z M202.9,72.4h53.4v14.1
	h-53.4V72.4z M296.5,102.5h-62.9V89.2h62.9V102.5z"/>
<path class="svgCentraV1" d="M110.2,278.3v-15h20.5v-2.7h-20.5h-2.7H57.4v-8.8h-2.7v8.8H28.8v2.7h25.9v15h-6.5v2.7h59.3v8.3h2.7v-8.3h40
	v-2.7H110.2z M107.5,278.3H57.4v-15h50.1V278.3z"/>
<polygon class="svgCentraV2" points="25.3,162.5 49.2,162.5 49.2,25.6 28.1,25.6 "/>
<rect x="30.2" y="143.1" class="svgCentraV3" width="15.5" height="13"/>
<polygon class="svgCentraV3" points="49.2,36.3 57.6,36.3 60.3,162.5 49.2,162.5 "/>
<polygon class="svgCentraV4" points="62.2,162.5 76.3,162.5 79.4,25.6 62.2,25.6 "/>
<polygon class="svgCentraV5" points="65.3,29.5 65.3,77.7 75.3,77.7 76.9,29.5 "/>
<polygon class="svgCentraV2" points="93.6,166.8 117.5,162.9 100.5,59.4 78.3,63.1 "/>
<polygon class="svgCentraV3" points="119,162.5 119,33.6 126.7,33.6 126.7,44.9 126.7,164.9 "/>
<polygon class="svgCentraV2" points="136.3,43.6 136.3,162.5 126.7,162.5 126.7,44.9 "/>
<rect x="143.2" y="144.9" class="svgCentraV4" width="121.4" height="17.5"/>
<rect x="149.4" y="127.4" class="svgCentraV3" width="113.3" height="17.5"/>
<rect x="155.9" y="113.1" class="svgCentraV3" width="106.8" height="7.1"/>
<rect x="143.2" y="120.3" class="svgCentraV6" width="113.3" height="7.1"/>
<rect x="152.9" y="130.1" class="svgCentraV2" width="13.9" height="11.8"/>
<rect x="11.1" y="162.5" class="svgCentraV5" width="244.1" height="12.8"/>
<polyline class="svgCentraV4" points="313.9,389.2 297.9,305.7 302.7,302.6 321.5,392.7 313.9,389.2 "/>
<polygon class="svgCentraV6" points="331.2,390.6 315.2,318.7 306.5,320.7 321.5,392.7 "/>
<polyline class="svgCentraV2" points="180,389.6 180,286.4 196.6,286.4 196.6,389.6 180,389.6 "/>
<polygon class="svgCentraV3" points="196.6,390.5 196.6,265.6 207.1,265.6 207.1,276.6 207.1,392.9 "/>
<polygon class="svgCentraV4" points="220.2,275.2 220.2,390.5 207.1,390.5 207.1,276.6 "/>
<rect x="32.2" y="342.8" transform="matrix(-1 -1.224647e-16 1.224647e-16 -1 185.7508 700.8592)" class="svgCentraV4" width="121.4" height="15.2"/>
<rect x="42.2" y="358" transform="matrix(-1 -1.224647e-16 1.224647e-16 -1 197.7212 731.2271)" class="svgCentraV3" width="113.3" height="15.2"/>
<rect x="42.2" y="380.3" transform="matrix(-1 -1.224647e-16 1.224647e-16 -1 191.2059 767.8229)" class="svgCentraV3" width="106.8" height="7.1"/>
<rect x="57.2" y="373.2" transform="matrix(-1 -1.224647e-16 1.224647e-16 -1 227.7231 753.5485)" class="svgCentraV6" width="113.3" height="7.1"/>
<rect x="65.7" y="337.1" transform="matrix(-1 -1.224647e-16 1.224647e-16 -1 244.8043 679.6778)" class="svgCentraV2" width="113.3" height="5.5"/>
<rect x="268.6" y="302.6" class="svgCentraV3" width="15.6" height="86.6"/>
<rect x="284.2" y="314.2" class="svgCentraV2" width="15.6" height="74.9"/>
<rect x="226.9" y="308.3" class="svgCentraV4" width="19.1" height="82.2"/>
<rect x="246" y="278.3" class="svgCentraV6" width="15" height="112.2"/>
<polygon class="svgCentraV3" points="261,393.1 268.7,392.9 267.2,303 261,303 "/>
<rect x="44.9" y="360.3" class="svgCentraV2" width="8.4" height="10.9"/>
<rect x="79.2" y="346" class="svgCentraV2" width="28" height="9.3"/>
<polygon class="svgCentraV2" points="229.4,323.7 229.4,371.5 243.3,371.5 243.3,322.6 "/>
<rect x="284" y="305.8" class="svgCentraV6" width="12" height="13"/>
<g>
	<rect x="48.3" y="173.8" class="svgCentraV5" width="15.2" height="45.3"/>
	<rect x="196.3" y="173.8" class="svgCentraV5" width="15.2" height="45.3"/>
</g>
<rect x="89.5" y="388.1" class="svgCentraV5" width="244.1" height="12.8"/>
<g>
	<rect x="126.6" y="399.5" class="svgCentraV5" width="15.2" height="45.3"/>
	<rect x="274.6" y="399.5" class="svgCentraV5" width="15.2" height="45.3"/>
</g>
</svg>
