<svg version="1.1" id="Calque_1" xmlns="http://www.w3.org/2000/svg" xmlns:xlink="http://www.w3.org/1999/xlink" x="0px" y="0px"
	 viewBox="0 0 1440 740" style="enable-background:new 0 0 1440 740;" xml:space="preserve">
<style type="text/css">
	.svg-oriente0{fill:url(#SVGID_1svgOri_);}
	.svg-oriente1{fill:#0063CB;}
	.svg-oriente2{fill:#01015B;}
	.svg-oriente3{fill-rule:evenodd;clip-rule:evenodd;fill:#0063CB;}
	.svg-oriente4{fill-rule:evenodd;clip-rule:evenodd;fill:#052E93;}
	.svg-oriente5{fill:url(#SVGID_00000088841569055492400850000010734502583337023621_);}
	.svg-oriente6{fill:#000090;}
	.svg-oriente7{opacity:0.2;fill:url(#SVGID_00000163790057524925428500000007525564754374512773_);}
	.svg-oriente8{fill:url(#SVGID_00000118384150335733402910000000291547452524249217_);}
	.svg-oriente9{fill:#4598E5;}
	.svg-oriente10{fill:#EEEEEE;}
	.svg-oriente11{fill:#E1000F;}
	.svg-oriente12{fill:#FFCA00;}
	.svg-oriente13{opacity:0.25;}
	.svg-oriente14{fill-rule:evenodd;clip-rule:evenodd;fill:#01015B;}
</style>
<radialGradient id="SVGID_1svgOri_" cx="228.9768" cy="197.5495" r="1347.0306" gradientUnits="userSpaceOnUse">
	<stop  offset="0" style="stop-color:#0063CB"/>
	<stop  offset="0.1707" style="stop-color:#005AC5"/>
	<stop  offset="0.4551" style="stop-color:#0040B6"/>
	<stop  offset="0.816" style="stop-color:#00179E"/>
	<stop  offset="0.9908" style="stop-color:#000091"/>
</radialGradient>
<rect class="svg-oriente0" width="1440" height="740"/>
<circle class="svg-oriente1" cx="533.5" cy="240.3" r="143"/>
<polyline class="svg-oriente2" points="739.9,562.3 741.2,739.5 754.9,739.5 758.6,559.3 "/>
<g>
	<path class="svg-oriente3" d="M1213.9,203c-9.5-4.6-18.2-9.9-23.9-19.4c-5.4-9.2-9.9-19.7-18.9-25.4c-9-5.7-24.4-2.1-25.2,8.6
		c-1.3-14.2-6.2-28.6-16.3-38.6c-10.1-10-26.1-14.8-39.3-9.4c-8.5,3.5-15.3,10.8-24.3,12.5c-12.4,2.4-24.2-6.7-31.7-16.8
		c-7.6-10.1-13.1-22-23-29.9c-11.7-9.3-28.2-11.2-42.6-7.1c-14.4,4.1-26.7,13.8-36.3,25.3c-13.3,16.1-21.3,40.4-9.5,57.6
		c-15.3-8.2-30.5-16.4-45.8-24.6c-10.9-5.9-22.2-11.8-34.5-13.4c-12.3-1.6-26.1,2.2-33.2,12.4c-9.4,13.5,3,33.1-10.9,41.5
		c-14.6,8.8-33.6,14.5-47.4,34c100.6-16.7,118.4,0,180.6-10.3c70.7,24.1,107.5,24.1,172,15.4c49.9-6.7,100.8,2.3,150.8,8.7
		C1240.8,217.2,1227.7,209.7,1213.9,203z"/>
</g>
<g>
	<path class="svg-oriente4" d="M588,541.5c-13-7.2-27.4-11.2-42.2-10.2c-24.7,1.7-48.7,20.8-50.8,45.4c-14-35.6-27.9-71.1-41.9-106.7
		c-7.9-20.2-16.3-41.1-31.7-56.4c-15.4-15.3-39.9-23.6-59.4-13.9c-25.7,12.8-29.3,49.9-16.8,75.7c-13.2-8.8-26.8-17.7-42.4-21.2
		c-15.5-3.4-33.5-0.1-43.5,12.2c-7.1,8.8-9.1,20.6-9.2,31.9c-0.1,18.3,4.1,36.5,12.4,52.8c-26-29.2-83.5-70.2-119.4-35.7
		c-39.9,38.4,3,109.7,54.8,111.9c41.2,1.7,82.7,0.4,124,0.6c50.7,0.3,99-3.9,149.9-1.5c33.1,1.6,68.8,0.9,101.8-1.8
		c25.7-2.1,55.2-0.8,79.5-4.7c-11.5-21.4-24-43.2-41.3-60.5C604.9,552.6,596.8,546.4,588,541.5z"/>
</g>
<path class="svg-oriente2" d="M773.2,382.6c0.2,9,1.5,26.8,9.5,32.3c10.9,7.4,27,10.5,27,10.5l-48.5,3.2l-4.6-9.1l8.4-9.1l-10.5-15.8
	c0,0,0-0.1,0-0.3C758.8,384.1,768,382.6,773.2,382.6z"/>
<radialGradient id="SVGID_00000152971639186294344810000003098015477700766112_" cx="790.348" cy="389.5811" r="49.1139" gradientTransform="matrix(-0.8769 0.4806 0.2928 0.5342 1289.6372 -198.3731)" gradientUnits="userSpaceOnUse">
	<stop  offset="0.1101" style="stop-color:#0063CB"/>
	<stop  offset="0.2617" style="stop-color:#005AC5"/>
	<stop  offset="0.5146" style="stop-color:#0040B6"/>
	<stop  offset="0.8354" style="stop-color:#00179E"/>
	<stop  offset="0.9908" style="stop-color:#000091"/>
</radialGradient>
<path style="fill:url(#SVGID_00000152971639186294344810000003098015477700766112_);" d="M711.8,338l35.1,35.8
	c0,0-23.6,5.3-24.9,30.2c-1.4,24.9,20,19.3,20,19.3l9.1,6l-53.7,3.5c0,0,19.7-18.6,9.8-50.9c0,0,15.4-18.6-3.5-34.4l-3.6,2.2
	l-16.1-8.1L711.8,338z"/>
<path class="svg-oriente6" d="M591,314.8c0,0,17.6-20.4,20-28.1c2.5-7.7-0.7-39,21.8-54.4c22.5-15.4,49.5-18.6,61.8-8.1
	c12.3,10.5,40,38.3,42.8,54.8c0,0,15.4-11.9,22.1-16.9c6.7-4.9,20.4-8.4,20.4-12.6c0-4.2-11.2-33.4-5.3-70.6
	c0,0-36.9,28.1-30.5-27.7l11.2-2.1l5.3-13.7c0,0,13.7,7,14.4,11.2l3.5-14.7c0,0,10.9,6.7,14.4,5.6l1.8-7c0,0,14.7,9.8,10.5,19.3
	l17.9,1.4c0,0-3.2,14-12.6,17.2c-9.5,3.2-3.5,12.3,6,12.3c9.5,0,16.5-9.1,16.5-9.1s21.4,4.2,0,30.9l-6.3,3.9
	c0,0,40.4,36.2,21.1,81.5c-19.3,45.3-47.4,59.7-47.4,59.7s-11.2,29.8-27,29.8c0,0-0.1,2.1,0,5.3c-5.3,0-14.4,1.5-18.6,11.6
	c-0.2-2.2-1.8-17.8-7.7-20.5c0,0-23.6,5.3-24.9,30.2c-1.4,24.9,20,19.3,20,19.3l9.1,6l-53.7,3.5c0,0,19.7-18.6,9.8-50.9
	c0,0,15.4-18.6-3.5-34.4l-6.3,3.9c0,0-1.4,24.6-8.1,24.9l-2.1-11.2c0,0-12.3,27.7-21.4,26.7l-2.1-11.2c0,0-18.6,23.5-28.1,24.2
	c-9.5,0.7,6-14.6,6-14.6l2.1-19.1c0,0-9.8,14-16.5,14s-1.8-8.1-1.8-8.1s5.6-8.8,4.9-19c0,0-7,5.6-11.2,4.6c-4.2-1.1,0-11.6,0-11.6
	s-14.7,16.2-24.2,3.2c0,0,19-25.6,18.6-34.4C613.5,319.7,593.2,331.3,591,314.8z"/>
<radialGradient id="SVGID_00000026132362643211218330000008650902378934598573_" cx="778.965" cy="281.6203" r="141.4035" gradientTransform="matrix(-0.8769 0.4806 0.2928 0.5342 1322.6453 -243.1882)" gradientUnits="userSpaceOnUse">
	<stop  offset="0.1101" style="stop-color:#0063CB"/>
	<stop  offset="0.2617" style="stop-color:#005AC5"/>
	<stop  offset="0.5146" style="stop-color:#0040B6"/>
	<stop  offset="0.8354" style="stop-color:#00179E"/>
	<stop  offset="0.9908" style="stop-color:#000091"/>
</radialGradient>
<path style="opacity:0.2;fill:url(#SVGID_00000026132362643211218330000008650902378934598573_);" d="M845.1,257.9
	c0,0-7.4,2.1-3.7,15.1c0,0-10-3.9-12.5-19.5c0,0-4.6,12.1-0.9,18.3l-7.5-14V273c0,0-6.8-10-8.6-9.5l-2.6,7.4c0,0-6-13.2-9-13
	s-6,13.2-9.3,14.2c-3.3,1.1-3.3,1.1-3.3,1.1s-1.4-8.4,0.9-10.4c2.3-1.9-4.4,1.9-4.4,1.9v-14l-6.3,3.7l-1.3-1.1
	c2-1.2,3.4-2.5,3.4-3.8c0-2.1-2.7-10.1-4.7-22.2l64.8-4.8c2,3.1,4.1,6.6,5.9,10.5c0.9,9.2,2.9,22.3,7.1,30.5c0,1.3-0.1,2.5-0.2,3.8
	C849.9,265.5,846.5,262.6,845.1,257.9z"/>
<radialGradient id="SVGID_00000105392632024354150760000007723385373110883249_" cx="785.5787" cy="283.1045" r="92.6843" gradientTransform="matrix(-0.8769 0.4806 0.2928 0.5342 1321.3969 -245.6754)" gradientUnits="userSpaceOnUse">
	<stop  offset="0.1101" style="stop-color:#0063CB"/>
	<stop  offset="0.2617" style="stop-color:#005AC5"/>
	<stop  offset="0.5146" style="stop-color:#0040B6"/>
	<stop  offset="0.8354" style="stop-color:#00179E"/>
	<stop  offset="0.9908" style="stop-color:#000091"/>
</radialGradient>
<path style="fill:url(#SVGID_00000105392632024354150760000007723385373110883249_);" d="M810,273.2c5.5,6.3,10.8,6.3,5.8,18.4
	c-5,12.1-29.5,54-91.4,50.8c-61.9-3.2-66.1-3.9-66.1-3.9l53.1-98.2c11.8,12.4,24.3,28,26.1,38.7c0,0,15.4-11.9,22.1-16.9
	c6.7-4.9,20.4-8.4,20.4-12.6c0-0.9-0.5-2.8-1.2-5.7l24.7,8.1C803.4,251.9,804.4,266.9,810,273.2z"/>
<path class="svg-oriente9" d="M810,273.2c5.5,6.3,10.8,6.3,5.8,18.4c-5,12.1-29.5,54-91.4,50.8c-61.9-3.2-66.1-3.9-66.1-3.9l53.1-98.2
	c11.8,12.4,24.3,28,26.1,38.7c0,0,15.4-11.9,22.1-16.9c6.7-4.9,20.4-8.4,20.4-12.6c0-0.9-0.5-2.8-1.2-5.7l24.7,8.1
	C803.4,251.9,804.4,266.9,810,273.2z"/>
<path class="svg-oriente10" d="M744.1,151.2l11.2-2.1l5.3-13.7c0,0,13.7,7,14.4,11.2l3.5-14.7c0,0,10.9,6.7,14.4,5.6l1.8-7
	c0,0,14.7,9.8,10.5,19.3l17.9,1.4c0,0-3.2,14-12.6,17.2c-9.5,3.2-3.5,12.3,6,12.3c9.5,0,16.5-9.1,16.5-9.1s21.4,4.2,0,30.9l-6.3,3.9
	c0,0,6.7,6,13.3,16.2c2,3.1,4.1,6.6,5.9,10.5c0.9,9.2,2.9,22.3,7.1,30.5c1.3,2.5,2.7,4.6,4.4,5.9c0,0-2.1-0.6-4.6-2.1
	c-2.9-1.7-6.3-4.6-7.7-9.3c0,0-7.4,2.1-3.7,15.1c0,0-10-3.9-12.5-19.5c0,0-4.6,12.1-0.9,18.3l-7.5-14V273c0,0-6.8-10-8.6-9.5
	l-2.6,7.4c0,0-6-13.2-9-13s-6,13.2-9.3,14.2c-3.3,1.1-3.3,1.1-3.3,1.1s-1.4-8.4,0.9-10.4c2.3-1.9-4.4,1.9-4.4,1.9v-14l-6.3,3.7
	l-1.3-1.1c2-1.2,3.4-2.5,3.4-3.8c0-2.1-2.7-10.1-4.7-22.2c-2.1-12.5-3.6-29.4-0.5-48.4C774.7,178.9,737.8,207,744.1,151.2z"/>
<path class="svg-oriente11" d="M816.4,180.7c9.5,0,16.5-9.1,16.5-9.1s21.4,4.2,0,30.9l-6.3,3.9c-31.2,0-21.9-33-21.9-33s0.5-0.7,1.1-1.7
	l0.2,0.1C804.2,175.6,809.3,180.7,816.4,180.7z"/>
<path class="svg-oriente11" d="M744.1,151.2l11.2-2.1l5.3-13.7c0,0,13.7,7,14.4,11.2l3.5-14.7c0,0,10.9,6.7,14.4,5.6l1.8-7
	c0,0,14.7,9.8,10.5,19.3l0.1,0l-3,3.7c-1.8-1.1-4-2-6.8-2.8c-21.9-6.1-20.9,28.3-20.9,28.3S737.8,207,744.1,151.2z"/>
<path class="svg-oriente11" d="M689.3,376.2l-2.1-11.2c0,0-12.3,27.7-21.4,26.7l-2.1-11.2c0,0-18.6,23.5-28.1,24.2c-9.5,0.7,6-14.6,6-14.6
	l2.1-19.1c0,0-9.8,14-16.5,14s-1.8-8.1-1.8-8.1s5.6-8.8,4.9-19c0,0-7,5.6-11.2,4.6c-4.2-1.1,0-11.6,0-11.6s-14.7,16.2-24.2,3.2
	c0,0,19-25.6,18.6-34.4c0,0-20.4,11.6-22.5-4.9c0,0,17.6-20.4,20-28.1c2.5-7.7-0.7-39,21.8-54.4c22.5-15.4,49.5-18.6,61.8-8.1
	c12.3,10.5,40,38.3,42.8,54.8c0,0-52.7,33.2-47.4,53.5c5.3,20.4,10.4,15.1,10.4,15.1l-0.3,2l-2.7,1.7
	C697.4,351.3,696,375.9,689.3,376.2z"/>
<path class="svg-oriente12" d="M823.1,151.2c0,0-3.2,14-12.6,17.2c-2.4,0.8-3.8,2-4.4,3.3l-0.2-0.1c2.2-3.7,5.9-12.5-3.5-18.1l3-3.7
	L823.1,151.2z"/>
<g class="svg-oriente13">
	<path class="svg-oriente14" d="M860.5,470.4c0.3-0.3,0.7-0.5,1-0.8c23-17.9,36.4-42.5,59.5-60.4c9.1-7.1,21.8-11.9,34.3-13.8
		c12.5-1.9,24.9-0.1,32.5,8c8.9,9.6,6.8,23,2.7,34.4c14.1-15.3,28.2-30.7,42.3-46c13.7-14.9,27.7-30.1,46.8-40.7
		c19-10.6,44.2-15.8,65.7-8.9c19.9,6.4,33.4,22.8,36,39.8c2.5,17.1-4.9,34.5-17.6,48.4c14.3-7.9,29.5-15.4,46.5-18.2
		c17-2.8,36.3-0.1,48.4,9.9c37.2,30.8-2.8,87.9-51.2,89.6c-38.4,1.4-77.3,0.3-115.8,0.5c-47.4,0.2-92.4-3.1-140-1.2
		c-30.9,1.3-64.2,0.7-95.1-1.4c-10.7-0.8-20.8-1.8-31.6-2.2c-8.8-0.3-43.5-3.2-50.3-1.5C802.1,499,839.7,486.3,860.5,470.4z"/>
</g>
<g>
	<path class="svg-oriente2" d="M692.8,478.9c0-16.2,5.5-31.2,14.8-43.1c-20.4,12.3-34.1,34.7-34.1,60.2c0,38.8,31.5,70.3,70.3,70.3
		c22.6,0,42.6-10.6,55.5-27.2c-10.6,6.4-22.9,10-36.2,10C724.3,549.2,692.8,517.7,692.8,478.9z"/>
	<path class="svg-oriente1" d="M743.8,425.8c-13.2,0-25.6,3.7-36.2,10c-9.3,11.9-14.8,26.8-14.8,43.1c0,38.8,31.5,70.3,70.3,70.3
		c13.2,0,25.6-3.7,36.2-10c9.3-11.9,14.8-26.8,14.8-43.1C814,457.3,782.6,425.8,743.8,425.8z"/>
	<polygon class="svg-oriente1" points="756.7,586.5 844.2,606 844.2,637.6 840.1,640.3 857.8,644.5 857.8,600.7 873.6,644.5 873.6,647.1 
		888.6,652.4 888.6,644.5 888.6,575.4 893.4,570.7 874.7,567 877.6,574.7 877.6,605.2 860.9,564.3 845.8,561.7 848.1,565.3 
		846.8,593.9 768.9,573.4 769.1,561.7 758.6,559.3 	"/>
	<polygon class="svg-oriente2" points="739.9,587.8 739.9,562.3 729.7,563.7 729.7,575 642.8,584.8 642.8,558.9 645.8,552 589,556.2 
		589,578.3 601.3,578.3 602.5,569.9 628,568 628.4,586.2 603.7,587.8 603.7,601.8 627.8,600.5 627.8,619.6 603.3,621.8 602.1,613.3 
		589,614.3 590,638.6 645.4,630.9 641.8,622.8 641.8,597.9 	"/>
</g>
<g>
	<g>
		<polyline class="svg-oriente6" points="985.9,431 1037.2,395.6 1128.4,431 		"/>
		<polyline class="svg-oriente2" points="985.9,431 1037.2,466.5 1128.4,431 		"/>
	</g>
	<polygon class="svg-oriente2" points="353.9,383.1 460.7,383.1 497.9,426.3 391.2,426.3 	"/>
	<polygon class="svg-oriente6" points="353.9,478.9 460.7,478.9 497.9,435.8 391.2,435.8 	"/>
	<polygon class="svg-oriente9" points="377.1,435.8 1020.8,435.8 1037.2,431 1020.8,426.3 377.1,426.3 	"/>
</g>
</svg>
