<svg version="1.1" id="Calque_1" xmlns="http://www.w3.org/2000/svg" xmlns:xlink="http://www.w3.org/1999/xlink" x="0px" y="0px"
	 viewBox="0 0 350 450" style="enable-background:new 0 0 350 450;" xml:space="preserve">
<style type="text/css">
	.svgOrientV0{fill:#0063CB;}
	.svgOrientV1{fill-rule:evenodd;clip-rule:evenodd;fill:#052E93;}
	.svgOrientV2{opacity:0.25;}
	.svgOrientV3{fill-rule:evenodd;clip-rule:evenodd;fill:#01015B;}
	.svgOrientV4{fill:url(#SVGID_1orientV_);}
	.svgOrientV5{fill:#01015B;}
	.svgOrientV6{fill:url(#SVGID_00000066492918038520792870000003128520029042970789_);}
	.svgOrientV7{fill:#000090;}
	.svgOrientV8{opacity:0.2;fill:url(#SVGID_00000011716951353994940180000010166745805427592884_);}
	.svgOrientV9{fill:url(#SVGID_00000144311297701005352390000017094121225650982071_);}
	.svgOrientV10{fill:#4598E5;}
	.svgOrientV11{fill:#EEEEEE;}
	.svgOrientV12{fill:#E1000F;}
	.svgOrientV13{fill:#FFCA00;}
	.svgOrientV14{fill-rule:evenodd;clip-rule:evenodd;fill:#0063CB;}
</style>
<circle class="svgOrientV0" cx="129.3" cy="80" r="69.3"/>
<g>
	<path class="svgOrientV1" d="M152.4,275c-2.4-1.3-5.2-2.1-7.9-1.9c-4.6,0.3-9.2,3.9-9.5,8.5c-2.6-6.7-5.2-13.4-7.9-20
		c-1.5-3.8-3.1-7.7-5.9-10.6s-7.5-4.4-11.2-2.6c-4.8,2.4-5.5,9.4-3.2,14.2c-2.5-1.6-5-3.3-8-4c-2.9-0.6-6.3,0-8.2,2.3
		c-1.3,1.6-1.7,3.9-1.7,6c0,3.4,0.8,6.9,2.3,9.9c-4.9-5.5-15.7-13.2-22.4-6.7c-7.5,7.2,0.6,20.6,10.3,21c7.7,0.3,15.5,0.1,23.3,0.1
		c9.5,0.1,18.6-0.7,28.1-0.3c6.2,0.3,12.9,0.2,19.1-0.3c4.8-0.4,10.4-0.2,14.9-0.9c-2.2-4-4.5-8.1-7.8-11.4
		C155.6,277.1,154.1,275.9,152.4,275z"/>
</g>
<g class="svgOrientV2">
	<path class="svgOrientV3" d="M177.9,196c0.1-0.1,0.3-0.2,0.4-0.3c8.8-6.9,14-16.3,22.8-23.2c3.5-2.7,8.4-4.5,13.2-5.3
		c4.8-0.7,9.6-0.1,12.5,3.1c3.4,3.7,2.6,8.8,1,13.2c5.4-5.9,10.8-11.8,16.2-17.7c5.3-5.7,10.6-11.6,17.9-15.6c7.3-4,17-6.1,25.2-3.4
		c7.6,2.5,12.8,8.7,13.8,15.3c1,6.5-1.9,13.2-6.7,18.5c5.5-3,11.3-5.9,17.8-7s13.9-0.1,18.6,3.8c14.3,11.8-1.1,33.7-19.6,34.4
		c-14.7,0.5-29.6,0.1-44.4,0.2c-18.2,0.1-35.5-1.2-53.7-0.4c-11.9,0.5-24.6,0.3-36.5-0.6c-4.1-0.3-8-0.7-12.1-0.8
		c-3.4-0.1-16.7-1.2-19.3-0.6C155.5,206.9,169.9,202,177.9,196z"/>
</g>
<g>
	<linearGradient id="SVGID_1orientV_" gradientUnits="userSpaceOnUse" x1="175.0885" y1="437.9293" x2="175.0885" y2="343.6119">
		<stop  offset="0" style="stop-color:#01015B;stop-opacity:0"/>
		<stop  offset="1" style="stop-color:#01015B"/>
	</linearGradient>
	<polyline class="svgOrientV4" points="168.5,322 169.4,446.6 179,446.6 181.7,319.9 	"/>
	<path class="svgOrientV5" d="M191.9,195.7c0.1,6.3,1.1,18.9,6.7,22.7c7.7,5.2,19,7.4,19,7.4l-34.1,2.2l-3.2-6.4l5.9-6.4l-7.4-11.1
		c0,0,0-0.1,0-0.2C181.8,196.8,188.2,195.7,191.9,195.7z"/>
	
		<radialGradient id="SVGID_00000114783717017395651030000012560391532529328524_" cx="263.0513" cy="200.6019" r="34.5249" gradientTransform="matrix(-0.8769 0.4806 0.2928 0.5342 319.8494 -32.9834)" gradientUnits="userSpaceOnUse">
		<stop  offset="0.1101" style="stop-color:#0063CB"/>
		<stop  offset="0.2617" style="stop-color:#005AC5"/>
		<stop  offset="0.5146" style="stop-color:#0040B6"/>
		<stop  offset="0.8354" style="stop-color:#00179E"/>
		<stop  offset="0.9908" style="stop-color:#000091"/>
	</radialGradient>
	<path style="fill:url(#SVGID_00000114783717017395651030000012560391532529328524_);" d="M148.8,164.3l24.7,25.2
		c0,0-16.6,3.7-17.5,21.2c-1,17.5,14.1,13.6,14.1,13.6l6.4,4.2l-37.8,2.5c0,0,13.8-13.1,6.9-35.8c0,0,10.8-13.1-2.5-24.2l-2.5,1.5
		l-11.3-5.7L148.8,164.3z"/>
	<path class="svgOrientV7" d="M63.9,148c0,0,12.3-14.3,14.1-19.7c1.7-5.4-0.5-27.4,15.3-38.3C109,79.2,128,77,136.7,84.4
		c8.6,7.4,28.1,26.9,30.1,38.5c0,0,10.9-8.4,15.5-11.8c4.7-3.5,14.3-5.9,14.3-8.9c0-3-7.9-23.4-3.7-49.6c0,0-25.9,19.7-21.5-19.5
		l7.9-1.5l3.7-9.6c0,0,9.6,4.9,10.1,7.9l2.5-10.4c0,0,7.7,4.7,10.1,3.9l1.2-4.9c0,0,10.4,6.9,7.4,13.6l12.6,1c0,0-2.2,9.9-8.9,12.1
		c-6.7,2.2-2.5,8.6,4.2,8.6c6.7,0,11.6-6.4,11.6-6.4s15.1,3,0,21.7l-4.4,2.7c0,0,28.4,25.4,14.8,57.3c-13.6,31.8-33.3,42-33.3,42
		s-7.9,21-19,21c0,0-0.1,1.5,0,3.7c-3.7,0-10.1,1.1-13.1,8.2c-0.1-1.5-1.3-12.5-5.4-14.4c0,0-16.6,3.7-17.5,21.2
		c-1,17.5,14.1,13.6,14.1,13.6l6.4,4.2l-37.8,2.5c0,0,13.8-13.1,6.9-35.8c0,0,10.8-13.1-2.5-24.2l-4.4,2.7c0,0-1,17.3-5.7,17.5
		l-1.5-7.9c0,0-8.6,19.5-15.1,18.8l-1.5-7.9c0,0-13.1,16.5-19.7,17c-6.7,0.5,4.2-10.2,4.2-10.2l1.5-13.5c0,0-6.9,9.9-11.6,9.9
		c-4.7,0-1.2-5.7-1.2-5.7s3.9-6.2,3.5-13.3c0,0-4.9,3.9-7.9,3.2c-3-0.7,0-8.1,0-8.1s-10.4,11.4-17,2.2c0,0,13.3-18,13.1-24.2
		C79.6,151.5,65.3,159.6,63.9,148z"/>
	
		<radialGradient id="SVGID_00000007412254810880227240000002148990790036210064_" cx="255.0495" cy="124.7103" r="99.4003" gradientTransform="matrix(-0.8769 0.4806 0.2928 0.5342 343.0525 -64.4863)" gradientUnits="userSpaceOnUse">
		<stop  offset="0.1101" style="stop-color:#0063CB"/>
		<stop  offset="0.2617" style="stop-color:#005AC5"/>
		<stop  offset="0.5146" style="stop-color:#0040B6"/>
		<stop  offset="0.8354" style="stop-color:#00179E"/>
		<stop  offset="0.9908" style="stop-color:#000091"/>
	</radialGradient>
	<path style="opacity:0.2;fill:url(#SVGID_00000007412254810880227240000002148990790036210064_);" d="M242.4,108.1
		c0,0-5.2,1.5-2.6,10.6c0,0-7-2.7-8.8-13.7c0,0-3.2,8.5-0.6,12.8l-5.3-9.9v10.7c0,0-4.8-7-6-6.7l-1.9,5.2c0,0-4.2-9.3-6.3-9.1
		c-2.1,0.1-4.2,9.3-6.5,10c-2.3,0.7-2.3,0.7-2.3,0.7s-1-5.9,0.6-7.3c1.6-1.4-3.1,1.4-3.1,1.4V103l-4.4,2.6l-0.9-0.8
		c1.4-0.9,2.4-1.8,2.4-2.7c0-1.5-1.9-7.1-3.3-15.6l45.5-3.4c1.4,2.2,2.8,4.6,4.1,7.3c0.7,6.5,2.1,15.7,5,21.4c0,0.9,0,1.8-0.1,2.7
		C245.8,113.4,243.4,111.4,242.4,108.1z"/>
	
		<radialGradient id="SVGID_00000066505035311959009190000009561357292591519898_" cx="259.6987" cy="125.7536" r="65.1529" gradientTransform="matrix(-0.8769 0.4806 0.2928 0.5342 342.175 -66.2347)" gradientUnits="userSpaceOnUse">
		<stop  offset="0.1101" style="stop-color:#0063CB"/>
		<stop  offset="0.2617" style="stop-color:#005AC5"/>
		<stop  offset="0.5146" style="stop-color:#0040B6"/>
		<stop  offset="0.8354" style="stop-color:#00179E"/>
		<stop  offset="0.9908" style="stop-color:#000091"/>
	</radialGradient>
	<path style="fill:url(#SVGID_00000066505035311959009190000009561357292591519898_);" d="M217.7,118.8c3.9,4.4,7.6,4.4,4.1,13
		c-3.5,8.5-20.7,37.9-64.2,35.7c-43.5-2.2-46.5-2.8-46.5-2.8l37.3-69c8.3,8.7,17.1,19.7,18.3,27.2c0,0,10.9-8.4,15.5-11.8
		c4.7-3.5,14.3-5.9,14.3-8.9c0-0.6-0.3-2-0.8-4l17.3,5.7C213.1,103.8,213.8,114.3,217.7,118.8z"/>
	<path class="svgOrientV10" d="M217.7,118.8c3.9,4.4,7.6,4.4,4.1,13c-3.5,8.5-20.7,37.9-64.2,35.7c-43.5-2.2-46.5-2.8-46.5-2.8l37.3-69
		c8.3,8.7,17.1,19.7,18.3,27.2c0,0,10.9-8.4,15.5-11.8c4.7-3.5,14.3-5.9,14.3-8.9c0-0.6-0.3-2-0.8-4l17.3,5.7
		C213.1,103.8,213.8,114.3,217.7,118.8z"/>
	<path class="svgOrientV11" d="M171.5,33l7.9-1.5l3.7-9.6c0,0,9.6,4.9,10.1,7.9l2.5-10.4c0,0,7.7,4.7,10.1,3.9l1.2-4.9
		c0,0,10.4,6.9,7.4,13.6l12.6,1c0,0-2.2,9.9-8.9,12.1c-6.7,2.2-2.5,8.6,4.2,8.6c6.7,0,11.6-6.4,11.6-6.4s15.1,3,0,21.7l-4.4,2.7
		c0,0,4.7,4.2,9.4,11.4c1.4,2.2,2.8,4.6,4.1,7.3c0.7,6.5,2.1,15.7,5,21.4c0.9,1.8,1.9,3.2,3.1,4.1c0,0-1.5-0.4-3.2-1.5
		c-2-1.2-4.4-3.3-5.4-6.6c0,0-5.2,1.5-2.6,10.6c0,0-7-2.7-8.8-13.7c0,0-3.2,8.5-0.6,12.8l-5.3-9.9v10.7c0,0-4.8-7-6-6.7l-1.9,5.2
		c0,0-4.2-9.3-6.3-9.1c-2.1,0.1-4.2,9.3-6.5,10c-2.3,0.7-2.3,0.7-2.3,0.7s-1-5.9,0.6-7.3c1.6-1.4-3.1,1.4-3.1,1.4V103l-4.4,2.6
		l-0.9-0.8c1.4-0.9,2.4-1.8,2.4-2.7c0-1.5-1.9-7.1-3.3-15.6c-1.5-8.8-2.5-20.7-0.4-34C192.9,52.5,167,72.3,171.5,33z"/>
	<path class="svgOrientV12" d="M222.3,53.8c6.7,0,11.6-6.4,11.6-6.4s15.1,3,0,21.7l-4.4,2.7c-22,0-15.4-23.2-15.4-23.2s0.4-0.5,0.8-1.2
		l0.2,0.1C213.7,50.2,217.3,53.8,222.3,53.8z"/>
	<path class="svgOrientV12" d="M171.5,33l7.9-1.5l3.7-9.6c0,0,9.6,4.9,10.1,7.9l2.5-10.4c0,0,7.7,4.7,10.1,3.9l1.2-4.9
		c0,0,10.4,6.9,7.4,13.6l0.1,0l-2.1,2.6c-1.2-0.7-2.8-1.4-4.8-2c-15.4-4.3-14.7,19.9-14.7,19.9S167,72.3,171.5,33z"/>
	<path class="svgOrientV12" d="M133,191.2l-1.5-7.9c0,0-8.6,19.5-15.1,18.8l-1.5-7.9c0,0-13.1,16.5-19.7,17c-6.7,0.5,4.2-10.2,4.2-10.2
		l1.5-13.5c0,0-6.9,9.9-11.6,9.9c-4.7,0-1.2-5.7-1.2-5.7s3.9-6.2,3.5-13.3c0,0-4.9,3.9-7.9,3.2c-3-0.7,0-8.1,0-8.1
		s-10.4,11.4-17,2.2c0,0,13.3-18,13.1-24.2c0,0-14.3,8.1-15.8-3.5c0,0,12.3-14.3,14.1-19.7c1.7-5.4-0.5-27.4,15.3-38.3
		C109,79.2,128,77,136.7,84.4c8.6,7.4,28.1,26.9,30.1,38.5c0,0-37,23.3-33.3,37.6c3.7,14.3,7.3,10.6,7.3,10.6l-0.2,1.4l-1.9,1.2
		C138.6,173.7,137.6,191,133,191.2z"/>
	<path class="svgOrientV13" d="M227,33c0,0-2.2,9.9-8.9,12.1c-1.7,0.6-2.7,1.4-3.1,2.3l-0.2-0.1c1.5-2.6,4.1-8.8-2.5-12.7l2.1-2.6L227,33z"
		/>
	<g>
		<path class="svgOrientV5" d="M135.4,263.4c0-11.4,3.9-21.9,10.4-30.3c-14.4,8.6-24,24.4-24,42.3c0,27.3,22.1,49.4,49.4,49.4
			c15.9,0,30-7.5,39-19.1c-7.4,4.5-16.1,7-25.4,7C157.5,312.8,135.4,290.7,135.4,263.4z"/>
		<path class="svgOrientV0" d="M171.2,226.1c-9.3,0-18,2.6-25.4,7c-6.5,8.4-10.4,18.9-10.4,30.3c0,27.3,22.1,49.4,49.4,49.4
			c9.3,0,18-2.6,25.4-7c6.5-8.4,10.4-18.9,10.4-30.3C220.6,248.2,198.5,226.1,171.2,226.1z"/>
		<polygon class="svgOrientV0" points="180.3,339 241.8,352.7 241.8,375 238.9,376.8 251.4,379.8 251.4,349 262.4,379.8 262.4,381.7 
			273,385.4 273,379.8 273,331.2 276.4,327.9 263.3,325.3 265.3,330.8 265.3,352.2 253.6,323.4 242.9,321.6 244.5,324.1 
			243.6,344.3 188.9,329.8 189,321.6 181.7,319.9 		"/>
		<polygon class="svgOrientV5" points="168.5,339.9 168.5,322 161.3,323 161.3,331 100.2,337.9 100.2,319.6 102.3,314.8 62.4,317.7 
			62.4,333.3 71.1,333.3 71.9,327.4 89.8,326 90.1,338.8 72.7,339.9 72.7,349.8 89.7,348.8 89.7,362.3 72.4,363.9 71.6,357.9 
			62.4,358.6 63.1,375.7 102.1,370.3 99.6,364.6 99.6,347 		"/>
	</g>
	<g>
		<g>
			<polyline class="svgOrientV7" points="294.8,229.7 314.6,216 349.9,229.7 			"/>
			<polyline class="svgOrientV5" points="294.8,229.7 314.6,243.4 349.9,229.7 			"/>
		</g>
		<polygon class="svgOrientV5" points="0,211.8 39.8,211.8 53.7,228 13.9,228 		"/>
		<polygon class="svgOrientV7" points="0,247.6 39.8,247.6 53.7,231.5 13.9,231.5 		"/>
		<polygon class="svgOrientV10" points="13.1,232.2 315.6,232.2 323.3,229.7 315.6,227.3 13.1,227.3 		"/>
	</g>
</g>
<g>
	<path class="svgOrientV14" d="M223.1,425.3c-4.2-2-8.1-4.4-10.6-8.6c-2.4-4.1-4.4-8.8-8.4-11.3c-4-2.5-10.9-0.9-11.2,3.8
		c-0.6-6.3-2.8-12.7-7.3-17.2s-11.6-6.6-17.5-4.2c-3.8,1.6-6.8,4.8-10.8,5.6c-5.5,1.1-10.7-3-14.1-7.5c-3.4-4.5-5.8-9.8-10.2-13.3
		c-5.2-4.1-12.6-5-18.9-3.2c-6.4,1.8-11.9,6.1-16.1,11.2c-5.9,7.2-9.5,17.9-4.2,25.6c-6.8-3.6-13.6-7.3-20.4-10.9
		c-4.9-2.6-9.9-5.3-15.3-6c-5.5-0.7-11.6,1-14.7,5.5c-4.2,6,1.3,14.7-4.8,18.5c-6.5,3.9-14.9,6.4-21.1,15.1
		c44.7-7.4,52.6,0,80.3-4.6c31.4,10.7,47.8,10.7,76.5,6.8c22.2-3,44.8,1,67,3.9C235,431.6,229.2,428.3,223.1,425.3z"/>
</g>
</svg>
