<svg version="1.1" id="Calque_1" xmlns="http://www.w3.org/2000/svg" xmlns:xlink="http://www.w3.org/1999/xlink" x="0px" y="0px"
	 viewBox="0 0 1600 900" style="enable-background:new 0 0 1600 900;" xml:space="preserve">
<style type="text/css">
	.svg-dora0{fill-rule:evenodd;clip-rule:evenodd;fill:#80C7C3;}
	.svg-dora1{fill:#7672FF;}
	.svg-dora2{fill:#FCEB3A;}
	.svg-dora3{fill:#C8DCF2;}
	.svg-dora4{fill:#80C7C3;}
	.svg-dora5{fill:#3065AC;}
	.svg-dora6{fill:#D48743;}
	.svg-dora7{fill:#E72F82;}
	.svg-dora8{fill:#FFFFFF;}
	.svg-dora9{fill:#49BFEC;}
	.svg-dora10{fill:#5E2A2B;}
	.svg-dora11{fill:#01015B;}
	.svg-dora12{fill:#4598E5;}
	.svg-dora13{fill:#F7F6F0;}
	.svg-dora14{fill:#ABCDF5;}
	.svg-dora15{fill-rule:evenodd;clip-rule:evenodd;fill:#F7F6F0;}
	.svg-dora16{fill:#D38742;}
	.svg-dora17{fill:#37635F;}
	.svg-dora18{fill-rule:evenodd;clip-rule:evenodd;fill:#FFEB86;}
	.svg-dora19{fill-rule:evenodd;clip-rule:evenodd;fill:#806447;}
	.svg-dora20{fill-rule:evenodd;clip-rule:evenodd;fill:#01015B;}
</style>
<path class="svg-dora0" d="M1455,223.3l5.7,70.1c0,0-44.9,8.7-66.7,9.8c0,0-11.1-54.5-5.9-78L1455,223.3z"/>
<path class="svg-dora1" d="M913.5,246.9l7.5,32.4c1.7,7.5-2.1,15.2-9.2,18.3l-24.4,10.7c-4.5,2-9.7-0.6-10.9-5.4l-9.8-39.7
	c-0.9-3.8,1.1-7.8,4.7-9.2l31.3-12.6C907.4,239.5,912.5,242.2,913.5,246.9"/>
<path class="svg-dora2" d="M1100.3,357.4c7.7,8.9,21.3,23.3,36,33c4.1,2.7,9.6,2,13-1.7l21.3-23.6c3.5-3.9,3.5-9.8-0.1-13.6l-28.2-30.2
	c-3.6-3.9-9.6-4.2-13.6-0.9l-27.2,22.7C1097.1,346.7,1096.6,353.2,1100.3,357.4"/>
<path class="svg-dora3" d="M771.4,467.4c14.8,8.3,45.2,24.7,74,36.7c4.1,1.7,8.8-0.1,10.7-4.1l36.9-76.7c2.7-5.6,0.1-12.3-5.6-14.6
	l-66.8-27.2c-6.4-2.6-13.7,0-17,6l-36.2,65.5C764.4,458,766.3,464.5,771.4,467.4"/>
<polygon class="svg-dora4" points="989.4,305 961.1,274 992.6,244.8 1020.9,275.7 "/>
<path class="svg-dora5" d="M1087.8,229.9c0,0,1.6,23.4,9.6,38l27.7-7l-4.8-29c-0.5-3-3.3-5.1-6.3-4.8L1087.8,229.9z"/>
<polygon class="svg-dora1" points="974.6,385.1 935,399 945.7,439.2 992.4,427.4 "/>
<g>
	<path class="svg-dora3" d="M1299.7,405.5l-22.2-34.2c0,0,35.8-19.1,43.5-19.3c7.7-0.2,22.2,34.2,22.2,34.2L1299.7,405.5z"/>
	<path class="svg-dora6" d="M1252.6,270.8c0,0-1.3-33.9-8.5-47.8l-40.4-0.2c-5.9,0-10.6,4.9-10.3,10.8c0.7,13.2,3,34.8,10.1,44.7
		L1252.6,270.8z"/>
</g>
<path class="svg-dora7" d="M1178.7,170.3l-35,12.1c-6.8,2.3-14.2-1.3-16.4-8.2l-13.8-42.6c-2-6.3,1-13.1-4.6-10.7l29.7-12.8
	c18.2-7.9,25.8-4.9,28.6,1.6c4.4,10,11.2,25.5,19.1,43.2C1189.3,159.7,1185.8,167.8,1178.7,170.3"/>
<path class="svg-dora8" d="M1241.6,365.2l11-32.3c1.5-4.3,6.5-6.3,10.4-4.1l27.2,14.8c3.3,1.8,4.7,5.8,3.3,9.3l-10.6,24.8
	c-1.4,3.4-5.1,5.2-8.6,4.2l-27.6-7.4C1242.6,373.6,1240.3,369.2,1241.6,365.2"/>
<path class="svg-dora9" d="M1055.2,129.2l-20.3,28.7c-4.5,6.3-12.8,8.5-19.8,5.3l-26-11.9c-3.5-1.6-4.7-6-2.5-9.2l25.1-36.6
	c1.8-2.6,5.1-3.4,7.9-2.1l33.3,16.5C1056.3,121.7,1057.4,126.1,1055.2,129.2"/>
<path class="svg-dora3" d="M1362.6,112.1c-4.1,4-12.2,12.3-18.8,20.5c-0.9,1.2-0.8,2.8,0.3,3.8l21.3,19.1c1.6,1.4,4,1.2,5.2-0.5l15-19.1
	c1.4-1.8,1.3-4.4-0.3-6.1l-17.8-17.8C1366.3,110.7,1364,110.7,1362.6,112.1"/>
<g>
	<path class="svg-dora10" d="M308.5,304.9l0,0.2c0.8-0.1,1.5-0.2,2.3-0.2c7.9,0,14.5,6,15.3,13.9l26,273.3c0.5,5.6,5.2,9.9,10.8,9.9h164.5
		c8.5,0,15.3,6.9,15.3,15.3c0,8.5-6.9,15.3-15.3,15.3H363c-12.6,0-23.9-5.6-31.5-14.6c-9,0.7-44.1,3.7-44.1,3.7l-35.9-11.4
		l-32.6-305.5H308.5z"/>
	<path class="svg-dora10" d="M270.9,602c-5.6,0-10.3-4.2-10.8-9.9l-26-273.3c-0.7-7.9-7.4-13.9-15.3-13.9h0c-9,0-16.1,7.8-15.3,16.8
		l26,273.3c2,21.4,19.9,37.7,41.4,37.7h164.5c8.5,0,15.3-6.9,15.3-15.3v0c0-8.5-6.9-15.3-15.3-15.3H270.9z"/>
	<rect x="364" y="632.7" class="svg-dora10" width="25" height="231.9"/>
	<path class="svg-dora10" d="M387.9,656.5h-22.8c-7.8,0-15-4-19.2-10.5l-8.6-13.4h78.4l-8.6,13.4C402.9,652.6,395.6,656.5,387.9,656.5z"/>
</g>
<path class="svg-dora11" d="M653.1,404.4l-100.8,8.1c-3.7,0.3-6.6,3.4-6.6,7.1l0,0c0,3.9,3.2,7.1,7.1,7.1h100.8c3.9,0,7.1-3.2,7.1-7.1
	v-8.1C660.8,407.3,657.3,404.1,653.1,404.4z"/>
<g>
	<polygon class="svg-dora11" points="735.1,426.7 661.4,426.7 624.6,343.2 698.3,343.2 	"/>
	<polygon class="svg-dora11" points="726.8,426.7 653.2,426.7 616.3,343.2 690,343.2 	"/>
	<path class="svg-dora11" d="M744.9,415.8H595.8c-0.8,0-1.5,0.7-1.5,1.5v7.8c0,0.8,0.7,1.5,1.5,1.5h149.2c0.8,0,1.5-0.7,1.5-1.5v-7.8
		C746.5,416.5,745.8,415.8,744.9,415.8z"/>
	<path class="svg-dora11" d="M524,371.6c-13.6,0-23.1-11.1-21.2-24.7l32-226.1c1.9-13.6,14.6-24.7,28.2-24.7h290.8
		c13.6,0,23.1,11.1,21.2,24.7l-32,226.1c-1.9,13.6-14.6,24.7-28.2,24.7H524z"/>
	<path class="svg-dora12" d="M510.5,371.6c-13.6,0-23.1-11.1-21.2-24.7l32-226.1c1.9-13.6,14.6-24.7,28.2-24.7h290.8
		c13.6,0,23.1,11.1,21.2,24.7l-32,226.1c-1.9,13.6-14.6,24.7-28.2,24.7H510.5z"/>
	<path class="svg-dora13" d="M513.1,353.4c-7.9,0-13.4-6.4-12.3-14.3l29.8-210.6c1.1-7.9,8.4-14.3,16.3-14.3h290.8
		c7.9,0,13.4,6.4,12.3,14.3l-29.8,210.6c-1.1,7.9-8.4,14.3-16.3,14.3H513.1z"/>
	<g>
		<path class="svg-dora14" d="M831.2,164.3H539.6c-2.9,0-5-2.4-4.5-5.3l1.9-13.4c0.4-2.9,3.1-5.3,6.1-5.3h291.6c2.9,0,5,2.4,4.5,5.3
			l-1.9,13.4C836.9,161.9,834.1,164.3,831.2,164.3z"/>
		<path class="svg-dora14" d="M558.1,306.3h-38.5c-3.1,0-5.3-2.5-4.8-5.6L532.1,180c0.4-3.1,3.3-5.6,6.4-5.6H577c3.1,0,5.3,2.5,4.8,5.6
			l-17.4,120.7C564.1,303.8,561.2,306.3,558.1,306.3z"/>
		<path class="svg-dora14" d="M815.2,267.9H712.7c-3.1,0-5.3-2.5-4.8-5.6l11.8-82.4c0.4-3.1,3.3-5.6,6.4-5.6h102.5c3.1,0,5.3,2.5,4.8,5.6
			l-11.8,82.4C821.2,265.4,818.3,267.9,815.2,267.9z"/>
		<path class="svg-dora14" d="M818.8,282c0.5-3.3-1.5-6-4.4-6H711.1c-2.9,0-5.6,2.7-6.1,6l-6.5,45.3h113.7L818.8,282z"/>
		<path class="svg-dora14" d="M697.8,239.7c0.5-3.3-1.5-6-4.4-6h-39.3c-2.9,0-5.6,2.7-6.1,6l-12.6,87.6h49.8L697.8,239.7z"/>
		<path class="svg-dora14" d="M561.6,320.8c0.5-3.3-1.5-6-4.4-6h-39.3c-2.9,0-5.6,2.7-6.1,6l-0.9,6.6h49.8L561.6,320.8z"/>
		<path class="svg-dora14" d="M626,260.3h-38.5c-3.1,0-5.3-2.5-4.8-5.6l10.7-74.7c0.4-3.1,3.3-5.6,6.4-5.6h38.5c3.1,0,5.3,2.5,4.8,5.6
			l-10.7,74.7C632,257.8,629.2,260.3,626,260.3z"/>
		<path class="svg-dora14" d="M657.4,174.3l-6.6,45.6c-0.5,3.3,1.5,6,4.4,6h39.3c2.9,0,5.6-2.7,6.1-6l6.6-45.6H657.4z"/>
		<path class="svg-dora14" d="M631.5,274c0.5-3.3-1.5-6-4.4-6h-39.3c-2.9,0-5.6,2.7-6.1,6l-7.7,53.3h49.8L631.5,274z"/>
		<polygon class="svg-dora13" points="557.7,208.6 534.6,208.6 538.4,182 561.5,182 		"/>
		<path class="svg-dora13" d="M533.5,216.3l-0.7,4.6h37.3l0.7-4.6H533.5z M531.6,229.5h37.3l0.7-4.6h-37.3L531.6,229.5z M530.4,238.1h37.3
			l0.7-4.6H531L530.4,238.1z M529.1,246.6h37.3l0.7-4.6h-37.3L529.1,246.6z M527.9,255.2h18.2l0.7-4.6h-18.2L527.9,255.2z"/>
		<polygon class="svg-dora15" points="619.1,208.6 596,208.6 599.8,182 622.9,182 		"/>
		<path class="svg-dora14" d="M594.9,216.3l-0.7,4.6h37.3l0.7-4.6H594.9z M593,229.5h37.3l0.7-4.6h-37.3L593,229.5z M591.7,238.1h37.3
			l0.7-4.6h-37.3L591.7,238.1z M590.5,246.6h37.3l0.7-4.6h-37.3L590.5,246.6z M589.3,255.2h18.2l0.7-4.6h-18.2L589.3,255.2z"/>
		<polygon class="svg-dora13" points="673.7,268 650.6,268 654.4,241.3 677.5,241.3 		"/>
		<path class="svg-dora13" d="M649.5,275.7l-0.7,4.6h37.3l0.7-4.6H649.5z M647.6,288.8h37.3l0.7-4.6h-37.3L647.6,288.8z M646.3,297.4h37.3
			l0.7-4.6H647L646.3,297.4z M645.1,306h37.3l0.7-4.6h-37.3L645.1,306z M643.9,314.5h18.2l0.7-4.6h-18.2L643.9,314.5z"/>
		<path class="svg-dora13" d="M663.4,178.5l-0.7,4.6h37.3l0.7-4.6H663.4z M661.6,191.6h37.3l0.7-4.6h-37.3L661.6,191.6z M660.3,200.2h17.3
			l0.7-4.6H661L660.3,200.2z"/>
		<polygon class="svg-dora13" points="820.9,208.6 722.6,208.6 726.4,182 824.7,182 		"/>
		<path class="svg-dora13" d="M721.4,216.3l-0.7,4.6h98.3l0.7-4.6H721.4z M719.5,229.5h58.3l0.7-4.6h-58.3L719.5,229.5z"/>
		<polygon class="svg-dora15" points="605.6,302.6 582.4,302.6 586.3,276 609.4,276 		"/>
		<path class="svg-dora13" d="M581.3,310.3l-0.7,4.6H618l0.7-4.6H581.3z M579.4,323.5h24l0.7-4.6h-24L579.4,323.5z"/>
		<polygon class="svg-dora15" points="546,289.9 522.9,289.9 526.7,263.3 549.9,263.3 		"/>
		<path class="svg-dora13" d="M521.8,297.6l-0.7,4.6h37.3l0.7-4.6H521.8z"/>
	</g>
</g>
<path class="svg-dora11" d="M653.1,404.4l-100.8,8.1c-3.7,0.3-6.6,3.4-6.6,7.1l0,0c0,3.9,3.2,7.1,7.1,7.1h100.8c3.9,0,7.1-3.2,7.1-7.1
	v-8.1C660.8,407.3,657.3,404.1,653.1,404.4z"/>
<g>
	<path class="svg-dora16" d="M593.8,406.4c-12.1-5.7-81.2-15.3-93.4-20.7c-16.8-7.3-29.6-27.1-37.9-43.5c-4.6-9.1-8.2-18.6-11.9-28
		L399,341.4c7,12,14.8,23.5,23.3,34.4c13.1,16.8,28.4,32.4,47.1,42.4C489,428.7,570,430,592,426.5
		C609.6,422.8,605.9,412,593.8,406.4z"/>
	<path class="svg-dora17" d="M414.2,258c-13.6-7.4-41.6-5.8-43,13.8c-0.8,11.6,5.8,24.2,10.2,34.6c4.9,11.6,10.5,22.9,16.8,33.8
		c0.2,0.4,0.5,0.8,0.7,1.2l56.9-23.7C443.4,301.9,431.7,267.5,414.2,258z"/>
	<path class="svg-dora16" d="M643.5,402c4.5,4.3,7.9,10.1,8.1,16.3c0.1,6.2-4.9,18.7-9.6,14.5c-3.8-3.4-4.8-9.2-9.9-9.1
		c-5.1,0.2-9.8,3-14.5,4.9c-14.1,5.6-56.9-2-38.7-24.4C592.7,387.2,628.3,387.5,643.5,402z"/>
	<path class="svg-dora16" d="M738.1,825.5c2.9,4.4,6.8,9.3,12.1,9.2c9.1-0.2,9.7-13.2,7.5-21.9c-2.5-9.4-4.9-18.8-7.4-28.2l-28.5,8.3
		C724.9,804.7,732.6,817.2,738.1,825.5z"/>
	<path class="svg-dora18" d="M666.2,553.3C643.3,528,500,496.5,432.6,475.9c-50.3-15.4-102.1-24.1-109.8,43.9
		c-3.3,29.3,11.6,59.4,36.7,74.9c27.4,16.8,61.8,15.2,93.8,13.1c61.1-4,98.5-6.5,159.6-10.6c5.8,79.9,73.8,108.5,104.2,197.1
		l45.7-9.3C735.1,743.3,677.6,567.9,666.2,553.3z"/>
	<path class="svg-dora16" d="M424.9,784.2c-2.3,4.7-4.6,10.5-1.9,15c4.7,7.7,16.3,1.8,22.7-4.5c6.9-6.8,13.8-13.6,20.8-20.5l-28-16.7
		C433.8,766.5,429.3,775.3,424.9,784.2z"/>
	<path class="svg-dora18" d="M311.4,594.7c27.4,16.8,61.8,15.2,93.8,13.1c63.2-4.2,126.5-8.4,189.7-12.6c10.1-0.7,21.4-2,27.7-9.9
		c7.4-9.2,3.8-23.7-4.6-32c-8.4-8.3-20.2-12.1-31.5-15.5c-67.4-20.6-134.8-41.3-202.2-61.9c-50.3-15.4-102.1-24.1-109.8,43.9
		C271.4,549.1,286.3,579.2,311.4,594.7z"/>
	<path class="svg-dora18" d="M626.4,570.7c-13.9-43.1-100.8,42-116,64.9c-26,39.3-50,80.1-71.9,122l33.9,27.8
		c22.3-44.8,66.6-82.7,102.9-118.5c11.9-11.8,24.1-23.9,31.4-39.1C614,612.5,628.9,578.4,626.4,570.7z"/>
	<path class="svg-dora17" d="M312.8,309c3.4,25.7,13.3,50.7,12.9,76.7c-0.4,26-11.8,51.7-30.7,69.5c-11.7,11-27.7,23.4-23.5,38.9
		c3.8,13.9,21.2,18,35.5,19.7c31.2,3.5,66.9,5.7,89.9-15.7c14.1-13.1,20.2-32.6,24.6-51.3c7.9-33.2,12.6-67.1,13.9-101.2
		c1.1-29-0.8-60-17.5-83.7c-16.6-23.7-35.3-39.4-62.5-31C324.4,261,309.3,283.4,312.8,309z"/>
	<path class="svg-dora19" d="M725.2,805.7c1.8,3.1,9.9,4.6,13.3,4.7c2.7,0.1,14.9-5.5,17.5-4.5c1.9,0.7,9,26.1,17.8,31.5
		c8.8,5.4,18.5,8.4,27.9,12.4c3.3,1.4,6.6,3,9.2,5.5c2.6,2.5,4.5,6.1,3.9,9.2c-0.1,0.3-0.2,0.5-0.3,0.8H757c-1.7-2-3.2-4.1-4.6-6.2
		c-5.3-7.5-10.5-15-15.8-22.6c-1.7,8.2-3.1,17.9-4.7,28.8h-6.4C723.4,856.5,717.8,814.8,725.2,805.7z"/>
	<path class="svg-dora19" d="M403.1,812.8c2-6.2,4-12.5,7.7-17.8c3.7-5.2,8.1-10.2,14.1-12.3c0,3.4,1.5,8.4,4.5,9.8
		c2.4,1.1,16.7,0.7,18.6,2.5c1.3,1.2-4.4,22.8-0.7,32.1c0,0,13,9.8,19.7,14.5c2.7,1.9,5.4,4,7.2,6.9c1.7,2.9,2.3,6.6,0.7,9.5
		c-0.2,0.3-0.4,0.5-0.5,0.7l-49.4-9.1l-6.7-2.6c-0.5-2.3-0.8-4.7-1.1-7.1c-1-8.5-2-16.9-3-25.4c-5.6,7.9-9.9,16.6-13,25.8l-6-2.4
		C397.8,829.5,400.5,821.1,403.1,812.8z"/>
	<path class="svg-dora16" d="M560.9,403.3c-12.1-5.7-81.2-12.3-93.4-17.6c-16.8-7.3-29.6-27.1-37.9-43.5c-4.6-9.1-8.2-18.6-11.9-28
		l-51.7,27.3c7,12,14.8,23.5,23.3,34.4c13.1,16.8,28.4,32.4,47.1,42.4c19.6,10.5,100.6,8.7,122.5,5.2
		C576.7,419.8,573,409,560.9,403.3z"/>
	<path class="svg-dora17" d="M408.4,291.3c-6.1-13.2-14.3-26.3-27.1-33.3c-13.6-7.4-41.6-5.8-43,13.8c-0.8,11.6,5.8,24.2,10.2,34.6
		c4.9,11.6,10.5,22.9,16.8,33.8c0.2,0.4,0.5,0.8,0.7,1.2l56.9-23.7C420.1,310,411.9,298.8,408.4,291.3z"/>
	<path class="svg-dora16" d="M610.4,379.3c5.7,2.5,10.9,6.8,13.1,12.6s1.7,19.3-4.1,16.9c-4.8-1.9-7.6-7-12.4-5.2c-4.8,1.9-8.2,6.1-12,9.5
		c-11.4,10.1-54.2,17.4-44.7-9.8C557.6,382.6,591.1,370.9,610.4,379.3z"/>
	<g>
		<path class="svg-dora16" d="M360.6,171.5c2.4-4.5,28.8,9.1,30.4,12.3c1.6,3.3,3.2,40.1,8.9,63.2c1.2,5-48-10.2-44.5-16.3
			C361,220.9,366.7,183.7,360.6,171.5z"/>
		<path class="svg-dora16" d="M436.7,138.2c-9.1-37.8-60.9-29.9-73.2-26.1c-12.3,3.8-12.6,21.2-13.8,34c-0.7,7.9,2.1,15.8,6.8,22
			c4.5,6,24.2,15.1,25.3,15.3c7.3,12.6,19.2,27,31.3,26.8c5.4-0.1,10.4-3.6,13.6-8c3.2-4.4,4.9-9.7,6.6-14.8
			C438.6,171.4,440.6,154.6,436.7,138.2z"/>
		<path class="svg-dora20" d="M347.1,160.2c-4.5-5.4-8-11.9-8.9-18.9c-1-8.3,1.7-16.8,6.4-23.7c8.3-12.4,29.9-28.4,47.3-28.7
			c18.6-0.4,50.5,18.1,47.5,41.1c-0.9,6.9-4.7,6.9-11.3,9.1c-8.7,2.9-20.3,4.9-27.5,10.5c-8.6,6.7-4.8,23-22.4,28.3
			c-5.7,1.7-11.5,11.8-15.3,19.6C358.3,192.4,351.4,165.5,347.1,160.2z"/>
		<path class="svg-dora20" d="M321,207.6c-1.7,7.1,0.8,14.5,0.4,21.7c-0.9,16.9-16.7,29.1-22,45.2c-2,6.2-2.4,13.2,0.5,19
			c2.9,5.8,9.5,10.1,15.9,8.9c7.1-1.3,11.6-8.2,14.3-14.9c2.7-6.7,4.4-14,9.4-19.2c7.6-8,20.9-8.8,28.3-17.1
			c7.1-8,12.4-30.2,12.4-46.6c0-31.6-10.1-60.4-25.3-55.9c-9,2.7-11.7,19.2-14.1,26.4C336.7,187.6,323.9,195.1,321,207.6z"/>
		<path class="svg-dora16" d="M370.5,163.1c-0.9,0.9-1.4,2.1-1.7,3.3c-0.9,3.8-0.2,8.1,1.9,11.4c2.1,3.3,5.6,5.8,9.5,6.6
			c1.5,0.3,3.2,0.4,4.6-0.4c4.6-2.8,2.3-12.6,0.1-16.4C382.6,163.6,374.4,159.4,370.5,163.1z"/>
	</g>
</g>
<g>
	<g>
		
			<rect x="440.3" y="652.2" transform="matrix(9.179775e-02 -0.9958 0.9958 9.179775e-02 -66.0581 1243.4077)" class="svg-dora10" width="416.7" height="11.5"/>
	</g>
	<g>
		
			<rect x="1167.2" y="449.6" transform="matrix(0.9958 -9.206944e-02 9.206944e-02 0.9958 -55.592 110.7899)" class="svg-dora10" width="11.5" height="416.7"/>
	</g>
	<path class="svg-dora10" d="M1264.9,450.5H556.7c-1.9,0-3.4-1.5-3.4-3.4v-17c0-1.9,1.5-3.4,3.4-3.4h708.3c1.9,0,3.4,1.5,3.4,3.4v17
		C1268.3,449,1266.8,450.5,1264.9,450.5z"/>
</g>
<path class="svg-dora10" d="M289.6,865.2v-17.5c0-3.8,3.1-6.9,6.9-6.9h160c3.8,0,6.9,3.1,6.9,6.9v17.5H289.6z"/>
</svg>
