<svg version="1.1" id="Calque_1" xmlns="http://www.w3.org/2000/svg" xmlns:xlink="http://www.w3.org/1999/xlink" x="0px" y="0px"
	 viewBox="0 0 400 400" style="enable-background:new 0 0 400 400;" xml:space="preserve">
<style type="text/css">
	.svg-boussole-0{fill:none;}
	.svg-boussole-1{fill:#90A4F8;}
	.svg-boussole-2{fill:#2F4077;}
	.svg-boussole-3{fill:#E5E5E5;}
</style>
<g>
	<path class="svg-boussole-0" d="M158.7,176.6l3.1,1.8l1.3-0.3l-8-9.7c-2.7,3.9-5,8.1-6.7,12.6l13.3-2.7L158.7,176.6z"/>
	<path class="svg-boussole-0" d="M181,148.5c-4.5,1.7-8.8,3.9-12.6,6.7l9.7,8L181,148.5z"/>
	<path class="svg-boussole-0" d="M237.3,177.6L237.3,177.6l-0.4,0.5l14.6,2.9c-1.7-4.5-3.9-8.8-6.7-12.6L237.3,177.6L237.3,177.6z"/>
	<path class="svg-boussole-0" d="M231.6,155.2c-3.9-2.7-8.1-5-12.6-6.7l2.9,14.6L231.6,155.2z"/>
	<path class="svg-boussole-0" d="M219,251.5c4.5-1.7,8.8-3.9,12.6-6.7l-9.7-8L219,251.5z"/>
	<path class="svg-boussole-0" d="M168.4,244.8c3.9,2.7,8.1,5,12.6,6.7l-2.9-14.6L168.4,244.8z"/>
	<path class="svg-boussole-0" d="M148.5,219c1.7,4.5,3.9,8.8,6.7,12.6l8-9.7L148.5,219z"/>
	<path class="svg-boussole-0" d="M236.9,221.9l8,9.7c1-1.5,2-3,2.9-4.5l-9.6-5.5L236.9,221.9z"/>
	<path class="svg-boussole-0" d="M247.7,227.1c1.5-2.6,2.8-5.3,3.8-8.1l-13.4,2.7L247.7,227.1z"/>
	<path class="svg-boussole-1" d="M181,148.5l9.8-48.8c-22.5,2-42.9,11.5-58.7,25.9l36.2,29.7C172.3,152.4,176.5,150.2,181,148.5z"/>
	<path class="svg-boussole-1" d="M231.6,155.2l36.2-29.7c-15.8-14.4-36.1-23.8-58.7-25.9l9.8,48.8C223.5,150.2,227.7,152.4,231.6,155.2z"/>
	<path class="svg-boussole-1" d="M231.6,244.8c-3.9,2.7-8.1,5-12.6,6.7l-9.8,48.8c22.5-2,42.9-11.5,58.7-25.9L231.6,244.8z"/>
	<path class="svg-boussole-1" d="M247.7,227.1L247.7,227.1L247.7,227.1c-0.9,1.6-1.8,3.1-2.9,4.5l29.6,36.2c14.4-15.8,23.8-36.1,25.9-58.7
		l-48.8,9.8C250.4,221.8,249.2,224.5,247.7,227.1z"/>
	<path class="svg-boussole-1" d="M251.5,181l48.8,9.8c-2-22.5-11.5-42.9-25.9-58.7l-29.7,36.2C247.6,172.3,249.8,176.5,251.5,181z"/>
	<path class="svg-boussole-1" d="M148.5,219l-48.8-9.8c2,22.5,11.5,42.9,25.9,58.7l29.6-36.2C152.4,227.7,150.2,223.5,148.5,219z"/>
	<path class="svg-boussole-1" d="M168.4,244.8l-36.2,29.7c15.8,14.4,36.1,23.8,58.7,25.9l-9.8-48.8C176.5,249.8,172.3,247.6,168.4,244.8z"/>
	<path class="svg-boussole-1" d="M155.2,168.4l-29.6-36.2c-14.4,15.8-23.8,36.1-25.9,58.7l48.8-9.8C150.2,176.5,152.4,172.3,155.2,168.4z"/>
	<path class="svg-boussole-2" d="M200,300.7c-3.1,0-6.2-0.1-9.2-0.4l9.2,46V300.7L200,300.7z"/>
	<path class="svg-boussole-2" d="M200,229.3l-16.7,3.3l-5.2,4.2l2.9,14.6c5.9,2.2,12.3,3.4,19,3.4l0,0V229.3L200,229.3z"/>
	<path class="svg-boussole-2" d="M200,300.7v-45.9l0,0c-6.7,0-13.1-1.2-19-3.4l9.8,48.8C193.8,300.6,196.9,300.7,200,300.7L200,300.7z"/>
	<path class="svg-boussole-2" d="M216.7,167.4l5.2-4.2l-2.9-14.6c-5.9-2.2-12.3-3.4-19-3.4v25.6L216.7,167.4z"/>
	<path class="svg-boussole-2" d="M209.2,99.7l-9.2-46v45.6C203.1,99.3,206.2,99.4,209.2,99.7z"/>
	<path class="svg-boussole-2" d="M200,145.1c6.7,0,13.1,1.2,19,3.4l-9.8-48.8c-3-0.3-6.1-0.4-9.2-0.4V145.1z"/>
	<polygon class="svg-boussole-2" points="170.7,200 170.7,200 170.7,200 	"/>
	<polygon class="svg-boussole-2" points="200,229.3 200,229.3 200,229.3 	"/>
	<path class="svg-boussole-2" d="M99.7,190.8l-46,9.2h45.6C99.3,196.9,99.4,193.8,99.7,190.8z"/>
	<polygon class="svg-boussole-2" points="161.8,178.4 164.7,180 163.1,178.1 	"/>
	<path class="svg-boussole-2" d="M167.4,183.3l-2.7-3.3l-2.9-1.6l-13.3,2.7c-2.2,5.9-3.4,12.3-3.4,19h25.6L167.4,183.3z"/>
	<path class="svg-boussole-2" d="M145.1,200c0-6.7,1.2-13.1,3.4-19l-48.8,9.8c-0.3,3-0.4,6.1-0.4,9.2H145.1z"/>
	<polygon class="svg-boussole-2" points="172.8,189.8 167.4,183.3 170.7,200 170.7,200 	"/>
	<polygon class="svg-boussole-2" points="200,170.7 200,170.7 200,170.7 	"/>
	<polygon class="svg-boussole-2" points="175.9,193.7 172.8,189.8 170.7,200 176.9,200 172.9,196.7 	"/>
	<polygon class="svg-boussole-2" points="210.2,172.8 216.7,167.4 200,170.7 200,170.7 	"/>
	<polygon class="svg-boussole-2" points="206.3,175.9 210.2,172.8 200,170.7 200,176.9 203.3,172.9 	"/>
	<polygon class="svg-boussole-2" points="229.3,200 229.3,200 229.3,200 	"/>
	<polygon class="svg-boussole-2" points="183.3,232.6 200,229.3 189.8,227.2 	"/>
	<polygon class="svg-boussole-2" points="200,223.1 196.7,227.1 193.7,224.1 189.8,227.2 200,229.3 200,229.3 	"/>
	<polygon class="svg-boussole-2" points="237.3,177.6 236.5,178 236.9,178.1 	"/>
	<polygon class="svg-boussole-2" points="222.4,175.2 224.4,175.6 221.9,163.1 216.7,167.4 222.4,166.2 	"/>
	<polygon class="svg-boussole-2" points="222.4,175.2 222.4,166.2 216.7,167.4 210.2,172.8 	"/>
	<polygon class="svg-boussole-2" points="233.8,177.6 233.3,180 236.5,178 224.4,175.6 224.8,177.6 	"/>
	<polygon class="svg-boussole-2" points="232.6,183.3 236.9,178.1 236.5,178 233.3,180 	"/>
	<polygon class="svg-boussole-2" points="226.1,184.3 227.2,189.8 232.6,183.3 233.3,180 	"/>
	<polygon class="svg-boussole-2" points="233.3,180 233.8,177.6 224.8,177.6 226.1,184.3 	"/>
	<polygon class="svg-boussole-2" points="222.4,177.6 224.8,177.6 224.4,175.6 222.4,175.2 	"/>
	<polygon class="svg-boussole-2" points="226.1,184.3 224.8,177.6 222.4,177.6 222.4,186.5 	"/>
	<polygon class="svg-boussole-2" points="222.4,192 224.1,193.7 227.2,189.8 226.1,184.3 222.4,186.5 	"/>
	<polygon class="svg-boussole-2" points="208,177.6 222.4,177.6 222.4,175.2 210.2,172.8 206.3,175.9 	"/>
	<polygon class="svg-boussole-2" points="215.2,184.8 218.9,188.6 222.4,186.5 222.4,177.6 208,177.6 	"/>
	<polygon class="svg-boussole-2" points="222.4,186.5 218.9,188.6 222.4,192 	"/>
	<polygon class="svg-boussole-2" points="200,223.1 200,223.1 200,223.1 	"/>
	<polygon class="svg-boussole-2" points="199.4,222.4 195.7,222.4 193.7,224.1 196.7,227.1 200,223.1 200,223.1 	"/>
	<polygon class="svg-boussole-2" points="195.7,222.4 199.4,222.4 197.9,220.6 	"/>
	<polygon class="svg-boussole-2" points="177.6,224.8 175.6,224.4 178.1,236.9 183.3,232.6 177.6,233.8 	"/>
	<polygon class="svg-boussole-2" points="166.2,222.4 166.8,219.7 163.1,221.9 175.6,224.4 175.2,222.4 	"/>
	<polygon class="svg-boussole-2" points="167.4,216.7 163.1,221.9 163.1,221.9 166.8,219.7 	"/>
	<polygon class="svg-boussole-2" points="177.6,222.4 175.2,222.4 175.6,224.4 177.6,224.8 	"/>
	<polygon class="svg-boussole-2" points="166.8,219.7 166.2,222.4 175.2,222.4 173.8,215.5 	"/>
	<polygon class="svg-boussole-2" points="173.8,215.5 172.8,210.2 167.4,216.7 166.8,219.7 	"/>
	<polygon class="svg-boussole-2" points="177.6,208 175.9,206.3 172.8,210.2 173.8,215.5 177.6,213.3 	"/>
	<polygon class="svg-boussole-2" points="173.8,215.5 175.2,222.4 177.6,222.4 177.6,213.3 	"/>
	<polygon class="svg-boussole-2" points="200,176.9 200,176.9 200,176.9 	"/>
	<polygon class="svg-boussole-2" points="200.6,177.6 204.3,177.6 206.3,175.9 203.3,172.9 200,176.9 200,176.9 	"/>
	<polygon class="svg-boussole-2" points="204.3,177.6 200.6,177.6 202.1,179.4 	"/>
	<polygon class="svg-boussole-2" points="177.6,224.8 177.6,233.8 183.3,232.6 189.8,227.2 	"/>
	<polygon class="svg-boussole-2" points="177.6,222.4 177.6,224.8 189.8,227.2 193.7,224.1 192,222.4 	"/>
	<polygon class="svg-boussole-2" points="177.6,213.3 180.9,211.3 177.6,208 	"/>
	<polygon class="svg-boussole-2" points="184.8,215.2 180.9,211.3 177.6,213.3 177.6,222.4 192,222.4 	"/>
	<polygon class="svg-boussole-2" points="177.6,204.3 175.9,206.3 177.6,208 	"/>
	<polygon class="svg-boussole-2" points="224.1,193.7 222.4,192 222.4,195.7 	"/>
	<polygon class="svg-boussole-2" points="206.3,175.9 204.3,177.6 208,177.6 	"/>
	<polygon class="svg-boussole-2" points="220.6,197.9 222.4,195.7 222.4,192 218.9,188.6 213.3,191.9 	"/>
	<polygon class="svg-boussole-2" points="210.4,189.6 213.3,191.9 218.9,188.6 215.2,184.8 208,177.6 204.3,177.6 202.1,179.4 	"/>
	<polygon class="svg-boussole-2" points="192,222.4 193.7,224.1 195.7,222.4 	"/>
	<polygon class="svg-boussole-2" points="179.4,202.1 177.6,204.3 177.6,208 180.9,211.3 186.5,207.9 	"/>
	<polygon class="svg-boussole-2" points="189.6,210.4 186.5,207.9 180.9,211.3 184.8,215.2 192,222.4 195.7,222.4 197.9,220.6 	"/>
	<polygon class="svg-boussole-2" points="222.4,233.8 216.7,232.6 221.9,236.9 224.4,224.4 222.4,224.8 	"/>
	<polygon class="svg-boussole-2" points="222.4,224.8 210.2,227.2 216.7,232.6 222.4,233.8 	"/>
	<polygon class="svg-boussole-2" points="176.9,200 176.9,200 176.9,200 	"/>
	<polygon class="svg-boussole-2" points="177.6,199.4 177.6,195.7 175.9,193.7 172.9,196.7 176.9,200 176.9,200 	"/>
	<polygon class="svg-boussole-3" points="190.8,99.7 181,148.5 178.1,163.1 183.3,167.4 189.8,172.8 193.7,175.9 193.7,175.9 195.7,177.6 
		199.4,177.6 200,176.9 199.7,176.5 200,176.9 200,170.7 200,145.1 200,99.3 200,53.6 	"/>
	<polygon class="svg-boussole-2" points="199.4,177.6 195.7,177.6 197.9,179.4 	"/>
	<polygon class="svg-boussole-2" points="177.6,195.7 177.6,199.4 179.4,197.9 	"/>
	<polygon class="svg-boussole-2" points="235.4,220.2 232.6,216.7 233,218.8 	"/>
	<polygon class="svg-boussole-2" points="233,218.8 233.8,222.4 224.8,222.4 224.4,224.4 236.9,221.9 235.4,220.2 	"/>
	<polygon class="svg-boussole-2" points="222.4,222.4 222.4,224.8 224.4,224.4 224.8,222.4 	"/>
	<polygon class="svg-boussole-2" points="224.8,222.4 233.8,222.4 233,218.8 226.3,215 	"/>
	<polygon class="svg-boussole-2" points="226.3,215 233,218.8 232.6,216.7 227.2,210.2 	"/>
	<polygon class="svg-boussole-2" points="222.4,212.8 226.3,215 227.2,210.2 224.1,206.3 222.4,208 	"/>
	<polygon class="svg-boussole-2" points="222.4,212.8 222.4,222.4 224.8,222.4 226.3,215 	"/>
	<polygon class="svg-boussole-2" points="206.3,224.1 210.2,227.2 222.4,224.8 222.4,222.4 208,222.4 	"/>
	<polygon class="svg-boussole-2" points="219.3,211 215.2,215.2 208,222.4 222.4,222.4 222.4,212.8 	"/>
	<polygon class="svg-boussole-2" points="219.3,211 222.4,212.8 222.4,208 	"/>
	<polygon class="svg-boussole-2" points="176.9,200 177.6,200 177.6,199.4 	"/>
	<polygon class="svg-boussole-2" points="181.1,200 179.4,197.9 177.6,199.4 177.6,200 181.1,200 	"/>
	<polygon class="svg-boussole-3" points="177.6,200 176.9,200 170.7,200 145.1,200 99.3,200 53.6,200 99.7,209.2 148.5,219 163.1,221.9 
		167.4,216.7 172.8,210.2 175.9,206.3 177.6,204.3 179.4,202.1 181.1,200 	"/>
	<polygon class="svg-boussole-2" points="200,177.6 200,176.9 200,176.9 199.4,177.6 	"/>
	<polygon class="svg-boussole-2" points="200,181.1 200,177.6 199.4,177.6 197.9,179.4 	"/>
	<polygon class="svg-boussole-2" points="200,176.9 200,177.6 200.6,177.6 	"/>
	<polygon class="svg-boussole-2" points="200,181.1 202.1,179.4 200.6,177.6 200,177.6 200,181.1 	"/>
	<polygon class="svg-boussole-2" points="181.1,200 181.1,200 181.1,200 	"/>
	<polygon class="svg-boussole-2" points="202.1,179.4 200,181.1 210.4,189.6 	"/>
	<polygon class="svg-boussole-2" points="181.1,200 181.1,200 179.4,202.1 186.5,207.9 187.2,207.5 	"/>
	<polygon class="svg-boussole-2" points="186.5,207.9 189.6,210.4 187.2,207.5 	"/>
	<g>
		<polygon class="svg-boussole-3" points="236.5,178 237.3,177.6 244.8,168.4 274.5,132.1 304.2,95.8 267.9,125.5 231.6,155.2 221.9,163.1 
			224.4,175.6 		"/>
		<polygon class="svg-boussole-3" points="163.1,221.9 155.2,231.6 125.5,267.9 95.8,304.2 132.1,274.5 168.4,244.8 178.1,236.9 175.6,224.4 		
			"/>
		<polygon class="svg-boussole-3" points="244.8,231.6 236.9,221.9 224.4,224.4 221.9,236.9 231.6,244.8 267.9,274.5 304.2,304.2 274.5,267.9 
					"/>
		<polygon class="svg-boussole-3" points="132.1,125.5 95.8,95.8 125.5,132.1 155.2,168.4 163.1,178.1 175.6,175.6 178.1,163.1 168.4,155.2 		
			"/>
	</g>
	<polygon class="svg-boussole-2" points="177.6,166.2 183.3,167.4 178.1,163.1 175.6,175.6 177.6,175.2 	"/>
	<polygon class="svg-boussole-2" points="166.2,177.6 175.2,177.6 175.6,175.6 163.1,178.1 164.7,180 167,181.3 	"/>
	<polygon class="svg-boussole-2" points="164.7,180 167.4,183.3 167,181.3 	"/>
	<polygon class="svg-boussole-2" points="173.7,185.1 167,181.3 167.4,183.3 172.8,189.8 	"/>
	<polygon class="svg-boussole-2" points="166.2,177.6 167,181.3 173.7,185.1 175.2,177.6 	"/>
	<polygon class="svg-boussole-2" points="177.6,177.6 177.6,175.2 175.6,175.6 175.2,177.6 	"/>
	<polygon class="svg-boussole-2" points="177.6,177.6 175.2,177.6 173.7,185.1 177.6,187.3 	"/>
	<polygon class="svg-boussole-2" points="177.6,192 177.6,187.3 173.7,185.1 172.8,189.8 175.9,193.7 	"/>
	<polygon class="svg-boussole-2" points="177.6,175.2 189.8,172.8 183.3,167.4 177.6,166.2 	"/>
	<polygon class="svg-boussole-2" points="223.1,200 223.1,200 223.1,200 	"/>
	<polygon class="svg-boussole-2" points="193.7,175.9 189.8,172.8 177.6,175.2 177.6,177.6 192,177.6 	"/>
	<polygon class="svg-boussole-2" points="177.6,187.3 177.6,192 180.6,189 	"/>
	<polygon class="svg-boussole-2" points="180.6,189 184.8,184.8 192,177.6 177.6,177.6 177.6,187.3 	"/>
	<polygon class="svg-boussole-2" points="199.4,222.4 200,223.1 200,222.4 	"/>
	<polygon class="svg-boussole-2" points="200,218.9 200,218.9 197.9,220.6 199.4,222.4 200,222.4 	"/>
	<path class="svg-boussole-3" d="M216.7,232.6l-6.6-5.4l-3.9-3.2l-2-1.7l-2.2-1.8l-2.1-1.7v3.5v0.7v6.1v25.6v45.9v45.6l9.2-46l9.8-48.8
		l2.9-14.6L216.7,232.6z"/>
	<polygon class="svg-boussole-3" points="300.3,190.8 251.5,181 236.9,178.1 232.6,183.3 227.2,189.8 224.1,193.7 222.4,195.7 220.6,197.9 
		218.9,200 222.4,200 223.1,200 229.3,200 254.9,200 300.7,200 346.4,200 	"/>
	<polygon class="svg-boussole-2" points="300.7,200 254.9,200 229.3,200 223.1,200 222.4,200 218.9,200 218.9,200 220.6,202.1 222.4,204.3 
		224.1,206.3 227.2,210.2 232.6,216.7 235.4,220.2 236.9,221.9 238.1,221.7 251.5,219 300.3,209.2 346.4,200 	"/>
	<polygon class="svg-boussole-2" points="213.3,191.9 210.4,189.6 212.6,192.3 	"/>
	<polygon class="svg-boussole-2" points="218.9,200 218.9,200 220.6,197.9 213.3,191.9 212.6,192.3 	"/>
	<polygon class="svg-boussole-2" points="197.9,220.6 200,218.9 189.6,210.4 	"/>
	<polygon class="svg-boussole-2" points="218.9,200 218.9,200 218.9,200 	"/>
	<polygon class="svg-boussole-2" points="175.9,193.7 177.6,195.7 177.6,192 	"/>
	<polygon class="svg-boussole-2" points="195.7,177.6 193.7,175.9 192,177.6 	"/>
	<polygon class="svg-boussole-2" points="189.6,189.6 197.9,179.4 195.7,177.6 192,177.6 184.8,184.8 180.6,189 186.3,192.3 	"/>
	<polygon class="svg-boussole-2" points="186.3,192.3 180.6,189 177.6,192 177.6,195.7 179.4,197.9 	"/>
	<polygon class="svg-boussole-2" points="222.4,208 224.1,206.3 222.4,204.3 	"/>
	<polygon class="svg-boussole-2" points="206.3,224.1 208,222.4 204.3,222.4 	"/>
	<polygon class="svg-boussole-2" points="210.4,210.4 202.1,220.6 204.3,222.4 208,222.4 215.2,215.2 219.3,211 213.6,207.8 	"/>
	<polygon class="svg-boussole-2" points="222.4,204.3 220.6,202.1 213.6,207.8 219.3,211 222.4,208 	"/>
	<polygon class="svg-boussole-2" points="189.6,189.6 186.3,192.3 187,192.7 	"/>
	<polygon class="svg-boussole-2" points="186.3,192.3 179.4,197.9 181.1,200 187,192.7 	"/>
	<polygon class="svg-boussole-2" points="200,218.9 200,218.9 200,218.9 	"/>
	<polygon class="svg-boussole-2" points="200,218.9 202.1,220.6 210.4,210.4 200,218.9 	"/>
	<polygon class="svg-boussole-2" points="200,181.1 197.9,179.4 189.6,189.6 200,181.1 	"/>
	<polygon class="svg-boussole-2" points="200,181.1 200,181.1 200,181.1 	"/>
	<polygon class="svg-boussole-2" points="210.4,210.4 213.6,207.8 212.9,207.4 	"/>
	<polygon class="svg-boussole-2" points="212.9,207.4 213.6,207.8 220.6,202.1 218.9,200 	"/>
	<polygon class="svg-boussole-2" points="199.8,200 199.8,200 187,192.7 181.1,200 181.1,200 	"/>
	<polygon class="svg-boussole-2" points="199.8,200 200,199.9 200,181.1 189.6,189.6 187,192.7 	"/>
	<polygon class="svg-boussole-2" points="200,199.9 199.8,200 199.9,200 200,200 	"/>
	<polygon class="svg-boussole-2" points="199.8,200 199.9,200 199.8,200 	"/>
	<polygon class="svg-boussole-2" points="200,199.9 212.6,192.3 210.4,189.6 200,181.1 200,181.1 	"/>
	<polygon class="svg-boussole-2" points="218.9,200 212.6,192.3 200,199.9 200,200 	"/>
	<polygon class="svg-boussole-2" points="200,200 199.9,200 199.8,200 187.2,207.5 189.6,210.4 200,218.9 200,218.9 	"/>
	<polygon class="svg-boussole-2" points="199.9,200 200,200 200,200 	"/>
	<polygon class="svg-boussole-2" points="187.2,207.5 199.8,200 181.1,200 	"/>
	<polygon class="svg-boussole-2" points="200,200 200,200 212.9,207.4 218.9,200 218.9,200 	"/>
	<polygon class="svg-boussole-2" points="200,200 200,218.9 210.4,210.4 212.9,207.4 	"/>
	
		<rect x="189.6" y="189.6" transform="matrix(0.7071 -0.7071 0.7071 0.7071 -82.2129 198.4784)" class="svg-boussole-1" width="17.8" height="17.8"/>
</g>
</svg>
