<svg version="1.1" id="Calque_1" xmlns="http://www.w3.org/2000/svg" xmlns:xlink="http://www.w3.org/1999/xlink" x="0px" y="0px"
	 viewBox="0 0 1600 900" style="enable-background:new 0 0 1600 900;" xml:space="preserve">
<style type="text/css">
	.svg-ifn0{fill:#FFD75B;}
	.svg-ifn1{fill:#D48743;}
	.svg-ifn2{fill:#60E0EB;}
	.svg-ifn3{fill:#BE806F;}
	.svg-ifn4{fill:#CFAA51;}
	.svg-ifn5{fill:#564832;}
	.svg-ifn6{fill:#231E16;}
	.svg-ifn7{clip-path:url(#SVGID_00000046305514976920731690000015129983469225673107_);fill:#FFFFFF;}
	.svg-ifn8{clip-path:url(#SVGID_00000046305514976920731690000015129983469225673107_);}
	.svg-ifn9{fill:none;}
	.svg-ifn10{fill-rule:evenodd;clip-rule:evenodd;fill:#7A6338;}
	.svg-ifn11{fill:#FEC902;}
	.svg-ifn12{fill-rule:evenodd;clip-rule:evenodd;fill:#CFAA51;}
	.svg-ifn13{fill-rule:evenodd;clip-rule:evenodd;fill:#463A28;}
	.svg-ifn14{fill:#C8DCF2;}
	.svg-ifn15{fill:#43548D;}
	.svg-ifn16{fill:#21244E;}
	.svg-ifn17{fill:#A9B7DE;}
	.svg-ifn18{fill-rule:evenodd;clip-rule:evenodd;fill:#8E4344;}
	.svg-ifn19{fill-rule:evenodd;clip-rule:evenodd;fill:#21244D;}
	.svg-ifn20{fill:#21244D;}
	.svg-ifn21{fill-rule:evenodd;clip-rule:evenodd;fill:#BE806F;}
	.svg-ifn22{fill-rule:evenodd;clip-rule:evenodd;fill:#564832;}
	.svg-ifn23{fill-rule:evenodd;clip-rule:evenodd;fill:#80C7C3;}
	.svg-ifn24{fill-rule:evenodd;clip-rule:evenodd;fill:#223A7E;}
	.svg-ifn25{fill:#49BFEC;}
	.svg-ifn26{fill:#7672FF;}
	.svg-ifn27{fill:#FCEB3A;}
	.svg-ifn28{fill-rule:evenodd;clip-rule:evenodd;fill:#49BFEC;}
	.svg-ifn29{fill:#80C7C3;}
	.svg-ifn30{fill:#DE0917;}
	.svg-ifn31{fill:#3065AC;}
	.svg-ifn32{fill:#E72F82;}
	.svg-ifn33{fill:#FFFFFF;}
</style>
<g>
	<g>
		<path class="svg-ifn0" d="M61.2,773.6l-3.5-2c0.8-1.4,80-138.4,201.6-273.5c71.5-79.4,143.5-142.6,213.9-187.8
			c87.7-56.3,173.2-84.8,254.3-84.8c0.5,0,1,0,1.5,0c177.8,0.8,275.3,103.8,369.5,203.5c91.1,96.4,177.2,187.4,329,183.2l0.1,4
			c-37,1-71-3.4-104-13.6c-29.5-9.1-57.6-22.6-85.8-41.2c-52.4-34.7-96.1-80.8-142.2-129.6C1002,332.7,905.1,230.2,729,229.5
			c-0.5,0-1,0-1.5,0c-182.5,0-353.6,147.4-465.2,271.3C140.9,635.5,61.9,772.2,61.2,773.6z"/>
		<g>
			<polygon class="svg-ifn0" points="1417.2,629.4 1422.7,614.3 1415.6,599.8 1451.5,612.7 			"/>
		</g>
	</g>
	<g>
		<path class="svg-ifn1" d="M61.4,773.1l-3.9-1c0.1-0.5,15.1-54.3,62.2-114.1c27.7-35.1,60.9-65.4,98.8-90.1
			c47.3-30.8,102-52.9,162.5-65.7l8.6-1.8c133.9-28.1,300.6-63.2,450.7-110c177-55.3,288.3-113.6,340.3-178.4
			c81.5-101.5,162.1-139.3,202.9-152.8l1.3,3.8c-40.4,13.4-120.2,50.8-201.1,151.5c-27.9,34.8-74.1,68.5-137.2,100.1
			c-54.4,27.3-123.4,54.1-205,79.6c-150.2,46.9-317,82-451.1,110.1l-8.6,1.8C245.9,534.7,166,605.7,123,660.3
			C76.3,719.5,61.5,772.6,61.4,773.1z"/>
		<g>
			<polygon class="svg-ifn1" points="1379.4,74.7 1418.6,52.7 1373.7,52.2 			"/>
		</g>
	</g>
	<g>
		<path class="svg-ifn2" d="M70.4,758.1l-3.2-2.4c0.9-1.1,87.8-112.6,236.1-205.2c87.1-54.4,178.1-91.8,270.3-111.1
			c115.4-24.2,233.1-20,349.9,12.4c399.7,110.9,576.2,41.6,633.6,6.6l2.1,3.4c-34.4,21-111.3,54.2-252.5,54.2
			c-96,0-221.8-15.4-384.2-60.4c-263.1-73-480.7,13.1-616.9,98.2C157.9,646,71.3,757,70.4,758.1z"/>
		<g>
			<polygon class="svg-ifn2" points="1580.9,443.4 1558.1,479.8 1556.3,461.1 1539.1,453.4 			"/>
		</g>
	</g>
	<path class="svg-ifn3" d="M362.2,506.3c0-0.5,10-20.7,10-20.7l7.6,4.5L366,510.1L362.2,506.3z"/>
	<polygon class="svg-ifn4" points="605,244.8 533.4,231.3 518.5,211.7 495.5,208.8 478,216.4 421.9,213 434,291.4 485.4,295.5 
		552.3,375.2 577.3,434 593.5,438.7 570.5,570.5 582.7,579.9 567.2,588.1 525.9,697.5 724.6,796.2 813.8,805 820.2,748.9 
		855.7,717.1 886.1,715.1 1010.4,757.7 1111.8,673.9 1069.2,664.4 1051.6,601.6 1058.4,477.9 1028.7,468.5 1103,383.3 1126,284 
		1150.3,267.8 1059.8,240.7 1054.3,219.1 923.9,156.9 843.5,63.7 801.6,71.4 782.7,142.8 707.7,167.8 703.6,190.7 629.3,178.6 
		621.9,158.3 594.2,146.1 	"/>
	<g>
		<path class="svg-ifn5" d="M524.2,368.5c-0.6-2.3-1.3-4.5-1.8-6.8c-2.4-9.7-4.2-19.4-5.4-29.1l-24.1,5l-2.9-14L176,389l9.2,64.7
			l318.1-66.2l-2.9-14L524.2,368.5z"/>
		<path class="svg-ifn6" d="M956.5,458.1c1.7-2.2,3.5-4.4,5.1-6.6c5.4-7.1,10.5-14.6,15.1-22.4c34.1-56.9,44.1-123.8,27.9-188.2
			c-2.8-11-6.3-21.6-10.4-31.9C948.9,95.4,825.1,29.7,703.2,60.2C579.9,91.1,501.3,209.6,517,332.7c1.2,9.7,3,19.4,5.4,29.1
			c0.6,2.3,1.2,4.6,1.8,6.8c2.7,9.6,5.9,18.9,9.6,27.9c7.5,18.2,17.1,35.2,28.3,50.7c1.6,2.2,3.3,4.4,5,6.6
			c6.6,8.5,13.7,16.5,21.3,24c6.6,6.5,13.5,12.6,20.8,18.3c5.5,4.3,11.2,8.5,17,12.3c14.9,9.9,30.8,18.1,47.5,24.6
			c43.1,16.8,91.3,21.7,139.5,11.8c2.7-0.5,5.3-1.1,8-1.8c0.9-0.2,1.7-0.4,2.6-0.6C876.8,529.2,922.8,499.7,956.5,458.1z
			 M561.9,351.8c-1.2-4.7-2.1-9.4-3-14.1c-0.7-4.2-1.4-8.3-1.8-12.5C545.2,223.2,610.7,125.4,713,99.7c14.4-3.6,28.9-5.6,43.2-6.1
			c4.1-0.1,8.2-0.2,12.3-0.1c52.7,1.3,102.5,22.8,139.5,58.6c0.6,0.6,1.2,1.1,1.8,1.6c23.7,23.5,42.1,52.9,52.4,86.7
			c1,3.4,2,6.8,2.9,10.3c3.8,15,5.8,30.2,6.2,45.3c0.2,6.2,0.1,12.4-0.3,18.5c-2.1,32.7-11.9,64.6-29.2,93.5
			c-19,31.7-45.4,57.1-76.9,74.6c-2.6,1.4-5.2,2.8-7.8,4.1c-13.6,6.8-28,12.2-43.1,16c-37,9.3-74.2,7.9-108.4-2.1
			c-33.8-9.9-64.7-28.2-89.6-53.2C590.5,422,571.3,389.4,561.9,351.8z"/>
	</g>
	<g>
		<defs>
			<path id="SVGID_1ifn_" d="M654.4,478.7c-4.1-2.5-8.1-5.2-12-7.9c-3.5-2.4-6.8-5-10.1-7.6c-80.2-64.2-102.4-179.8-47.7-270
				c7.7-12.7,16.6-24.3,26.5-34.7c2.8-3,5.7-5.9,8.7-8.7c38.4-36.2,88.9-55.8,140.4-56.4c0.8,0,1.6-0.1,2.4-0.1
				c33.4,0,67.1,8.1,98.2,24.8c3.1,1.7,6.2,3.4,9.3,5.3c13.2,8,25.3,17.4,36.3,27.9c4.5,4.3,8.7,8.8,12.8,13.4
				c21.5,24.7,37,54.3,45,87c8.8,35.9,7.8,72.6-2.2,107.1c-0.8,2.8-1.7,5.6-2.6,8.4c-4.9,14.4-11.3,28.4-19.4,41.7
				c-19.8,32.6-47.2,57.8-78.6,74.7c-31,16.8-65.9,25.4-101.1,25.1C724,508.5,687.5,498.8,654.4,478.7z"/>
		</defs>
		<use xlink:href="#SVGID_1ifn_"  style="overflow:visible;fill:#FCC639;"/>
		<clipPath id="SVGID_00000054950113775294138570000001839412160436171943_">
			<use xlink:href="#SVGID_1ifn_"  style="overflow:visible;"/>
		</clipPath>
		<polygon style="clip-path:url(#SVGID_00000054950113775294138570000001839412160436171943_);fill:#FFFFFF;" points="551.9,362 
			879.7,361.9 963.9,382.3 988.3,275.7 943.8,151.3 770.1,63.7 644.3,85.6 536.4,202 		"/>
		<g style="clip-path:url(#SVGID_00000054950113775294138570000001839412160436171943_);">
			<polygon class="svg-ifn9" points="784.9,297.5 785.4,297.2 785.4,297 			"/>
			<polygon class="svg-ifn9" points="715.6,222.6 724.1,209.1 715.3,222.6 			"/>
			<polygon class="svg-ifn9" points="669.3,252.6 636.9,248.6 669.2,252.7 			"/>
			<g>
				<g>
					<polygon class="svg-ifn10" points="806.6,252.1 806.6,251.6 806.6,247.5 806.5,239.8 806.5,227.1 806.5,226.8 806.5,226.1 
						806.5,226.1 764.9,225.8 740.2,183.4 732.7,195.3 724.1,209.1 715.6,222.6 715.3,222.6 683.4,224.1 683.4,230.1 683.4,230.1 
						728.1,227.5 737.1,215.5 744.1,215.2 759.4,237.5 759.5,273.1 785,273.3 784.9,265.9 801.6,257.3 803.7,256.2 806.6,254.7 
											"/>
				</g>
				<g>
					<polygon class="svg-ifn10" points="624.2,340.5 642.4,311.3 634.2,304.9 589.1,304.9 565.8,324.6 564.6,383 575.8,383.2 575.7,348 
						575.7,348 575.7,348 575.7,347.7 576,347.7 595.6,334.2 624.4,334.2 					"/>
				</g>
				<g>
					<polygon class="svg-ifn10" points="669.3,252.6 679.6,236.2 679.5,236.1 612.4,225.8 636.9,248.6 					"/>
				</g>
				<g>
					<polygon class="svg-ifn10" points="664.7,343.8 656.6,343.3 624.2,341.1 623.8,341.1 624.1,341.9 623,384.1 636.3,384.4 
						635.7,384.3 635.7,352.3 656.2,354 684,356.3 680.4,344.8 					"/>
				</g>
			</g>
			<g>
				<path class="svg-ifn11" d="M906.8,273.2l2.6-41l-38.2,4.6l-0.6,12.5l8.2,1.4l-0.1,16.4l-0.1,15.6l0,1.1l0,0.9l1-0.1l5.7-0.4l0.6,0
					l1.6-0.1l2.5-0.2l16.1-1l0.6,0l0.1-2.9l-0.5,0L906.8,273.2z M884.1,248.1l6.5-0.6l-0.3,18.8l-6.5-0.1L884.1,248.1z"/>
				<path class="svg-ifn11" d="M878.6,297.8l0,4l-0.1,19.2l-0.1,10.7l13.3-1.6l13.9-1.7l0.9-33.9l-17.8,2.1L878.6,297.8z M889.8,299.4
					l-0.1,10l-0.1,8.8l-6.5-0.1l0.1-4.1l0.1-9.3l0.1-4.7l5.9-0.5L889.8,299.4z"/>
				<path class="svg-ifn11" d="M878.3,347.7l0,1.3l-0.2,37.6l26.5,1.1l1.2-43.1l-19,2.2L878.3,347.7z M889.1,350.9l-0.3,18.8l-6.5-0.1
					l0.3-18.1l1.3-0.1l1.5-0.1L889.1,350.9z"/>
				<polygon class="svg-ifn11" points="783.3,196.7 764.9,225.8 806.5,226.1 820.1,212 834.8,196.7 809.5,196.7 				"/>
				<polygon class="svg-ifn11" points="707.7,197.4 683.4,224.1 715.3,222.6 724.1,209.1 732.7,195.3 				"/>
				<polygon class="svg-ifn11" points="747.2,273 752.5,273 752.3,238.3 737.1,215.5 728.1,227.5 729,227.5 746.7,252.1 				"/>
				<polygon class="svg-ifn11" points="612.4,225.8 589.7,247.8 589.1,304.9 634.2,304.9 636.9,248.6 				"/>
				<path class="svg-ifn11" d="M575.7,347.7l0,0.3v0l0.1,35.3l0,7.2l14.2,0.9l-6.2-0.4l0-7.6l0-16.7c0-3,1.9-5.4,4.3-5.4h0.9
					c2.5,0,4.5,2.6,4.5,5.7l-0.3,16.5l-0.2,8l8.5,0.6l0.2-8.4l1-35l0-0.3l-26.8-0.7L575.7,347.7z"/>
				<polygon class="svg-ifn11" points="656.2,354 635.7,352.3 635.7,384.3 636.3,384.4 646,385.8 646,385.8 646,384.5 646,361.6 
					655.9,362.3 669.9,363.2 669.9,389.3 696.8,393.2 696.8,337.3 684,356.3 				"/>
				<polygon class="svg-ifn11" points="698.8,256.2 683.3,257.9 674.5,258.8 664.8,259.8 664.8,293.3 673.2,293.3 707.3,293.3 
					707.3,277.1 707.3,255.3 699.3,256.2 				"/>
				<path class="svg-ifn11" d="M831.7,268.6v-5v-10v-11.9l-1.9,1l-10.4,5.3l-0.1,0l-11.6,6l-1,0.5l-0.2,0.1l-2.9,1.5l-2.1,1.1l-16.7,8.6
					l0.1,7.4l0.2,10l0.2,13.8l0,0.2l-0.6,0.3L758.2,282l-1.8-1.1l-3.8-2.2l-5.3-3.1l-4.1-2.4l-0.7-0.4v6.9v4.4v0v9v8.9v1.6v86.4
					l17.7-0.1l-9.2,0.1l0-0.5l-0.3-31.1l5-0.4l4.4-0.3l0.2,32.2l56.8-0.3l14.6,0.3v-0.4l0.1,0V284.3v-11.4l-0.1,0.1V268.6z
					 M822.4,267l0.1,10.8l0,1.4l0.1,5.3l0.1,6.6l-4,0.7l-3,0.6l-0.3-7.7l-0.1-3.2l-0.1-1.8l-0.3-7.9L815,270L822.4,267z"/>
			</g>
			<g>
				<g>
					<polygon class="svg-ifn12" points="740.2,183.4 764.9,225.8 783.3,196.7 809.5,196.7 802.9,187.2 					"/>
				</g>
				<g>
					<polygon class="svg-ifn12" points="737.1,215.5 752.3,238.3 759.4,237.5 744.1,215.2 					"/>
				</g>
				<g>
					<path class="svg-ifn12" d="M830.2,231.1l-0.4,11.6l1.9-1v11.9l0.1,0v-11l5.4,0.9l0.2-12.1C835.6,228.9,832.3,228.7,830.2,231.1z"/>
				</g>
				<g>
					<path class="svg-ifn12" d="M647.8,270.3c-5.8,0-5.8,5.9-5.8,5.9l-1.7,28.7l6.3-0.4l6.7-10.8l0.5-16.8
						C653.8,276.9,653.7,270.3,647.8,270.3z"/>
				</g>
				<g>
					<polygon class="svg-ifn12" points="723.5,266.3 723.5,278.4 723.5,282.6 723.5,293.3 734.6,293.3 734.6,283.6 734.6,283.5 
						734.6,279.2 734.6,266.3 728.2,266.3 					"/>
				</g>
				<g>
					<polygon class="svg-ifn12" points="728.1,227.5 683.4,230.1 683.4,230.1 679.6,236.2 669.3,252.6 669.2,252.7 664.8,259.8 
						674.5,258.8 683.3,257.9 698.8,256.2 699.3,256.2 707.3,255.3 721.7,236.8 729,227.5 					"/>
				</g>
				<g>
					<polygon class="svg-ifn12" points="862.1,342.6 861.8,334.1 852.6,334.1 852.6,339.2 852.6,364.2 862.8,363.4 					"/>
				</g>
				<g>
					<polygon class="svg-ifn12" points="862.2,294.4 862.3,270 855.9,270 853.1,270 853.1,283.7 853.1,293.6 853.1,298.6 862.2,298.6 
											"/>
				</g>
				<g>
					<polygon class="svg-ifn12" points="822.6,279.2 822.5,277.8 822.4,267 815,270 815,271.8 815.3,279.8 815.3,281.6 815.4,284.8 
						815.7,292.5 818.7,291.9 822.7,291.2 822.6,284.6 					"/>
				</g>
			</g>
			<g>
				<g>
					<polygon class="svg-ifn13" points="890.3,266.4 890.6,247.6 884.1,248.1 883.8,266.3 					"/>
				</g>
				<g>
					<polygon class="svg-ifn13" points="950.2,299.1 906.5,294.6 905.6,328.5 948.9,332.5 					"/>
				</g>
				<g>
					<polygon class="svg-ifn13" points="950.8,280.9 950.8,238.4 909.4,232.2 909.4,232.2 906.8,273.2 906.4,280.2 906.8,280.1 
						906.8,283 906.9,283.1 913.1,283.9 913.7,284 916.3,284.4 950.6,289.2 956.7,290.1 954.7,294.3 957.4,294.5 960,282 					"/>
				</g>
				<g>
					<polygon class="svg-ifn13" points="883.3,304.7 883.1,314 883.1,318.1 889.6,318.3 889.7,309.4 889.8,299.4 889.2,299.5 883.3,300 
											"/>
				</g>
				<g>
					<polygon class="svg-ifn13" points="912.6,344.9 905.8,344.6 905.8,344.6 905.8,344.6 904.6,387.7 949.3,387.3 949.1,347.5 					"/>
				</g>
				<g>
					<polygon class="svg-ifn13" points="883.9,351.3 882.6,351.4 882.3,369.6 888.8,369.7 889.1,350.9 885.4,351.2 					"/>
				</g>
				<g>
					<polygon class="svg-ifn13" points="575.7,348 575.7,348 575.7,348 					"/>
				</g>
				<g>
					<path class="svg-ifn13" d="M589.1,361.3h-0.9c-2.4,0-4.3,2.4-4.3,5.4l0,16.7l0,7.6l6.2,0.4l3.1,0.2l0,0l0.2-8l0.3-16.5
						C593.6,363.9,591.6,361.3,589.1,361.3z"/>
				</g>
				<g>
					<polygon class="svg-ifn13" points="871.3,234.7 907.1,229.8 907,228.5 906.4,220 867.8,225.6 868.8,235 					"/>
				</g>
				<g>
					<g>
						<path class="svg-ifn13" d="M890.1,284.1l-2.5,0.2l-1.6,0.1l-0.6,0l-5.7,0.4l-1,0.1l0-0.9l0-1.1l0.1-15.6l0.1-16.4l-8.2-1.4
							l-13.5-2.4l0.9-17.7l-23.2-32.6L820.1,212l-13.6,14.1v0l0,0.7l0,0.3l0.1,12.7l0,7.7l0,4l0,0.5l0,2.6l0.2-0.1l1-0.5l11.6-6
							l0.1,0l10.4-5.3l0.4-11.6c2-2.4,5.3-2.2,7.2,0.3l-0.2,12.1l-5.4-0.9v11l-0.1,0v10v5v4.4l0.1-0.1v11.4v105.4l46.2-3.1l0.2-37.6
							l0-1.3l0,0l0-4.6l0-0.1l9.7-0.7l17.7-1.3l0.1,0l-0.1-4.8l-0.1-4.6l-0.1-3.2v0l-13.9,1.7l-13.3,1.6l0.1-10.7l0.1-19.2l0-4h0v-3
							v-0.3l0,0l9.3-0.9l18.6-1.9l0.2-7.1l0-0.3l0-1.4l-0.6,0L890.1,284.1z M878.3,340.1l0,1.3l0-5.6L878.3,340.1z M862.2,298.6h-9
							v-5v-9.9V270h2.8h6.4l-0.1,24.4L862.2,298.6z M852.6,364.2v-25v-5.1h9.2l0.3,8.6l0.7,20.8L852.6,364.2z"/>
					</g>
				</g>
				<g>
					<polygon class="svg-ifn13" points="710,317.8 705.5,324.4 696.8,337.3 696.8,393.2 727.7,391.2 740.4,390.5 740.4,390.4 
						742.5,390.2 742.5,303.8 719.4,303.8 					"/>
				</g>
				<g>
					<g>
						<path class="svg-ifn13" d="M729,227.5l-7.3,9.3l-14.5,18.5v21.7v16.2h-34h-8.4v-33.5l4.4-7l-32.4-4.2l-2.7,56.4l8.2,6.4l-18.2,29.2
							l0.2-6.3h-28.7L576,347.7l26.8,0.7l0,0.3l-1,35l-0.2,8.4l21.2-2.8l0.1-5.2l1.1-42.3l-0.3-0.7l0.3,0l32.4,2.1l8.2,0.5l15.6,1
							l4.8-7l9.5-13.7l2.1-3.1l5.7-8.3l7.3-10.5l6.2-8.9h7.5v-10.7v-4.2v-12h4.7h6.4v12.9v4.2v0.1v9.7h8v-9v0v-4.4v-6.9l0.7,0l4.1,0
							l-0.5-20.9L729,227.5z M642,276.2c0,0,0-5.9,5.8-5.9c5.8,0,6,6.6,6,6.6l-0.5,16.8l-6.7,10.8l-6.3,0.4L642,276.2z"/>
					</g>
				</g>
				<g>
					<polygon class="svg-ifn13" points="646,361.6 646,384.5 646,385.8 646,385.8 669.9,389.3 669.9,389.3 669.9,363.2 655.9,362.3 					
						"/>
				</g>
				<g>
					<polygon class="svg-ifn13" points="755.7,358.2 750.7,358.6 751.1,389.7 751.1,390.2 760.2,390.1 760.3,390.1 760.2,357.9 					"/>
				</g>
			</g>
			<g>
				<polygon class="svg-ifn6" points="948.9,332.5 905.6,328.5 905.6,328.5 905.6,331.6 905.7,336.2 905.8,341 905.7,341 888.1,342.3 
					878.3,343 878.3,345.4 878.3,345.4 878.3,347.7 878.3,347.7 886.7,346.7 905.8,344.6 905.8,344.6 905.8,344.6 912.6,344.9 
					949.1,347.5 949.8,347.5 955.9,346.7 957,346.7 957.1,346.5 957.2,346.5 957.1,346.5 959.3,333.5 				"/>
				<polygon class="svg-ifn6" points="916.3,284.4 913.7,284 913.1,283.9 906.9,283.1 906.8,283 906.7,284.4 906.7,284.7 906.5,291.8 
					887.9,293.6 878.6,294.5 878.6,294.5 878.6,294.9 878.6,297.8 878.6,297.8 888.6,296.7 906.5,294.6 950.2,299.1 952.3,299.3 
					954.7,294.3 956.7,290.1 950.6,289.2 				"/>
				<polygon class="svg-ifn6" points="909.4,232.2 950.8,238.4 957.5,237.1 959.4,228.3 906.4,220 907,228.5 907.1,229.8 871.3,234.7 
					868.8,235 871.2,236.8 871.2,236.8 909.4,232.2 				"/>
				<polygon class="svg-ifn6" points="723.5,293.3 715.9,293.3 709.8,302.2 702.5,312.7 696.8,321 694.7,324.1 685.2,337.8 680.4,344.8 
					684,356.3 696.8,337.3 705.5,324.4 710,317.8 719.4,303.8 742.5,303.8 742.5,302.2 742.5,293.3 734.6,293.3 				"/>
				<polygon class="svg-ifn6" points="785,273.3 759.5,273.1 759.4,237.5 752.3,238.3 752.5,273 747.2,273 743.2,272.9 742.5,272.9 
					743.2,273.3 747.3,275.7 752.6,278.8 756.4,281 758.2,282 784.9,297.5 785.4,297 785.2,283.3 				"/>
			</g>
		</g>
	</g>
	<path class="svg-ifn14" d="M1020.6,613.3c-1.5,6.8-5,22.7-6.5,37.2c-0.2,1.8,1.1,3.5,2.9,3.8l38.5,6.2c2,0.3,3.8-1.1,4-3.1l3.4-35.2
		c0.2-1.8-1-3.4-2.7-3.7l-35.5-7.8C1022.9,610.3,1021.1,611.4,1020.6,613.3"/>
	<g>
		<path d="M1039.4,473.5c12.7-0.5,26.8,24.3,6.8,38.7c13.8-3,19.1,23.6,2.6,27.1c-15.6,3.4-9.9-19.5-13.1-31.8
			c-1.9-7.1-3.2,29.4-9.1,33.1c-11.9,7.4-27.6-25.1-20.1-37.2C977.5,473.4,1038.4,441.4,1039.4,473.5z"/>
		<path class="svg-ifn15" d="M1051.7,657.7c-1-12.4,12.5-28.1,5.8-37.3c-8.6-11.7-33.9-1.7-39.7,14.1c-20.3,55.6-15.3,134.3-12.9,156.3
			c0.7,6.1,1.4,12.1,2.2,18.2l14.3,2.8c2.8-32.8,11.9-67.7,7.3-86.5C1028.6,725.3,1053,675,1051.7,657.7z"/>
		<path class="svg-ifn3" d="M1021.3,811.8L1007,809c1,7.1,2,14.2,3.2,21.3c0.4,2.5,1.1,5.4,3.1,6.5c2.6,1.4,6.6-0.6,6.7-3.7
			C1020.2,826.4,1020.7,819.2,1021.3,811.8"/>
		<path class="svg-ifn15" d="M1062.2,741.8c2.4,5.1,5.9,10.8,10.4,10.5c2.8-0.2,5-2.8,6.3-5.8c1.2-3.1,1.6-6.6,2-10.1
			c1.6-15,10-81.1-6-111c-6.8-12.7-28.3-19.4-32.2-2.8C1036.8,647.9,1056.7,729.9,1062.2,741.8"/>
		<path class="svg-ifn15" d="M1079.1,722.7c-9-14.4-26-5.3-22.2,12.2c4.5,21.2,11.5,37.6,18.9,57.7c1.9,5.3,4,10.6,6,15.8l14.1-5.1
			C1091,770.5,1088.3,737.5,1079.1,722.7"/>
		<path class="svg-ifn3" d="M1095.9,803.4l-14.1,5.1c2.7,6.7,5.4,13.3,8.3,19.9c1,2.2,2.3,4.7,4.5,5c2.8,0.4,6.2-3,5.5-6.1
			C1098.4,819.9,1097.1,811.8,1095.9,803.4"/>
		<path class="svg-ifn16" d="M1103.2,842.6c0.2-2.9,0.3-5.8-0.3-8.6c-0.6-2.7-0.9-5.5-2.8-7.3c-0.5,1.4-2.3,3.2-3.7,3.3
			c-1,0.1-6.2-3-7.1-2.6c-0.7,0.3-1.9,12.2-5,14.6c-3.1,2.4-6.8,3.7-10.2,5.5c-1.2,0.6-2.4,1.3-3.3,2.4c-0.9,1.1-1.4,2.7-0.9,4.1
			c0,0.1,0.1,0.2,0.2,0.3l22.7-0.1c0.5-0.9,1-1.8,1.4-2.7c1.6-3.3,3.1-6.7,4.7-10c0.9,4.1,1.3,8.4,1.1,12.7l2.5,0
			C1102.7,850.3,1102.9,846.5,1103.2,842.6"/>
		<path class="svg-ifn17" d="M1006,555.5c8.9-1.2,18.7-3.4,26-9.2c2.3-1.8,2.6-2.1,0.6-3.7c-1.6-1.2-4-2-6-2.7c-4-1.4-8.3-2.2-12.6-2.7
			c-4.5-0.5-9.1-0.5-13.7-0.4l-3.1,19.6C1000.1,556.2,1003,555.9,1006,555.5"/>
		<path class="svg-ifn3" d="M1007.5,536.9c-2.3-0.6-24.2,0-36.9-3.1c-1.2-0.3-2.5-0.6-3.7,0c-1.8,1-2.3,3.8-1.5,5.8
			c0.8,2,2.4,3.3,4.1,4.5c12.2,8.8,17.4,7.7,31.9,10.6L1007.5,536.9z"/>
		<path class="svg-ifn3" d="M963.9,541c4.3,3.5,8.1,2.8,10.4-2.1c2.5-5.2-23.3-34.5-32.5-44.1c-1.1-1.1-2.6-2.4-4.2-1.9
			c-1.7,0.5-7.3-4.3-1.7,5.1S958.3,536.4,963.9,541z"/>
		<path class="svg-ifn3" d="M929.5,496.8c-3.1-1.4-5.7-3.8-6.3-7c-0.5-2.5,0.4-5.2,1.9-7.6c0.6-1,1.7-2.1,2.9-1.9c1,0.2,1.4,1.4,1.9,2.2
			c1.3,1.9,4.1,2.2,6.3,3.2c2.4,1.1,4.3,3.1,5,5.5c0.6,1.9,0.7,6.5-1.9,7.6C936.8,499.9,931.5,497.7,929.5,496.8"/>
		<path class="svg-ifn17" d="M1063.1,604.4c-6.6-19.3,8.8-42.1,2.4-61.4c-4.4-13.2-19-20.1-31.3-16c-12.3,4.1-21.3,17.6-22.7,31.7
			c-0.7,6.7,0.2,13.6,2.4,19.7c1.6,4.3,7,21.2,7.1,30.7c0.1,8.3,0.5,8-3.2,25.3c13.2-19.2,53.2-5.6,59.5-6.3
			C1076.6,623.5,1065.7,609.1,1063.1,604.4"/>
		<path class="svg-ifn16" d="M1021.4,843.8c0.6-2.8,1.2-5.6,1-8.5c-0.2-2.8-0.6-5.7-2.2-7.9c-0.7,1.3-2.2,2.8-3.5,2.7
			c-1-0.2-5.8-3.6-6.8-3.4c-0.7,0.1-3.6,11-7,12.7c-3.4,1.8-7.2,2.3-10.9,3.4c-1.3,0.4-2.6,0.8-3.6,1.8c-1,0.9-1.8,2.4-1.6,3.8
			c0,0.1,0.1,0.2,0.1,0.4l22.3,4.3c0.7-0.7,1.2-1.6,1.8-2.4c2.1-3,4.1-5.9,6.2-8.9c0.3,4.3-0.1,8.5-0.9,12.7l2.5,0.5
			C1019.7,851.3,1020.6,847.5,1021.4,843.8"/>
		<path class="svg-ifn3" d="M953.3,475.2c-1.1-2.1-1.7-3.3-3.7-2.1c-1.6,1-3,2.5-2.5,4.3c3.7,12.2,25.4,49.1,27.4,51.1
			c3.3,3.4,13.7,0.1,13.1-7c-0.7-7.2-22.2-24.1-32.2-42.8"/>
		<path class="svg-ifn3" d="M953.4,467.9c-1.2-3.6-2.4-7.3-3.6-10.9c-0.6-0.5-1.5,0.4-1.5,1.2c-0.1,0.9,0.3,1.6,0.5,2.5s-0.2,1.9-1,2
			c-0.8,0.1-1.2-0.8-1.5-1.6c-1.2-3.7-2.5-7.3-3.7-11c-2.8,0-5.2,2.7-5.9,5.7c-0.7,3-0.1,6.2,0.8,9.1c1.3,4,3.3,7.8,5.8,11
			c1.4,1.9,3.2,3.6,5.5,3.9C954.3,480.4,954.6,471.7,953.4,467.9"/>
		<path class="svg-ifn3" d="M1023.9,513.5c1.9,4.8,3.8,10,3,17.2c4.8,8.2,15.6-4.9,15.6-4.9s-0.3-1.6-1.2-3.5c-1.7-3.7-4.1-11.1-5.8-14.7
			c-0.5-1.1-1-2.2-1.9-2.8c-1.5-1.1-3.7-0.4-5.1,1c-1.4,1.4-2.1,3.4-2.8,5.3L1023.9,513.5z"/>
		<path class="svg-ifn3" d="M1016.8,513.9c-1.7-2.2-2.7-5-3.6-7.7c-1.3-3.8-2.5-7.6-2.8-11.6c-0.3-4,0.5-8.3,2.9-11.4
			c2.9-3.8,7.6-5.2,12-4.9c3.8,0.2,7.7,1.6,10,5c1.2,1.8-0.4,4.5,0.2,6.7c0.8,2.8,1.6,5.7,1.5,8.7c-0.2,3.3,0.8,6-1.1,8.6
			c-1.8,2.6-4.2,4.8-6.5,6.9c-1.4,1.2-2.8,2.4-4.4,3C1021.6,518.5,1018.9,516.5,1016.8,513.9"/>
		<path d="M1022.4,486.2c2.5,3,3.3,7.8,6.5,9.9c2.6,1.7,6.3,0.9,8.3-1.8c1.5-2.1,1.8-4.9,1.2-7.4c-0.6-2.5-2.1-4.6-3.9-6.2
			c-1.8-1.5-4-2.6-6.2-3.3c-3.4-1.2-7-1.8-10.6-1.2c-2.3,0.3-4.5,1.2-6.4,2.5c-1.5,1-4.3,3.2-4.1,5.5c0.2,2.2,2,2,3.2,1
			c1.8-1.4,3.6-2.3,5.9-2.2C1018.6,483.2,1020.9,484.3,1022.4,486.2"/>
		<path class="svg-ifn3" d="M1031.1,490.4c0.6-0.5,1.2-1,1.8-1.2c0.7-0.2,1.4-0.2,2,0.2c0.8,0.5,1.2,1.7,1.2,2.7c0.2,2.7-1.3,5.2-3.7,5.6
			c-1.9,0.3-3.1-1.2-3.3-3.2C1028.9,492.8,1030,491.4,1031.1,490.4"/>
		<path d="M1004.1,486c0.8,7,1.7,8.1,1.7,8.1s7.6-0.2,19.1-11.6c-3.6-2.4-4.4-7-10.4-5S1004.1,486,1004.1,486z"/>
		<path class="svg-ifn17" d="M1029.1,549.6c6.8,0.7,23.1,1.1,32-13.8c0.8-1.3-10.2,8.1-10.4,6.4c-0.2-1.6-1.6-2.8-2.9-3.7
			c-8.8-6.2-19.3-9-29.6-11.4l-2.9,19.5C1019.9,548,1024.5,549.1,1029.1,549.6"/>
		<path class="svg-ifn3" d="M1009.5,544.7c2.1,0.7,4.3,1.4,6.4,2.1l2.5-18.7c-1-0.2-2-0.5-2.9-0.7c-10.3-2.5-16.5-3.5-26.7-6
			c-3.9-0.9-6-1.9-9.3,0.1c-2.4,1.4-3.8,4.4-2.9,7.4c0.8,2.6,3,4.8,5.4,6.3c2.4,1.5,2.8,1.5,5.5,2.4
			C996.2,540.3,1000.8,541.8,1009.5,544.7"/>
	</g>
	<path class="svg-ifn6" d="M935.7,479.8c0,0-0.1,2.2-14.2,13.6c-14.1,11.4,0.5-13,0.5-13L935.7,479.8z"/>
	<g>
		<g>
			<path class="svg-ifn3" d="M380.4,404.4l-4.6,7.9c1.8,1.3,4.1,2.2,5.8,3c2.1,0.9,7.9-6.2,6.6-7.5C387.1,406.6,382.9,405.2,380.4,404.4z
				"/>
		</g>
		<g>
			<path class="svg-ifn3" d="M388,502.9c0.8-1.3,1.5-2.6,2.2-4c5.7-10.6,10-22.1,9.5-34.2c-0.1-2.9-0.8-6.4-3.6-7.9
				c-1.6-0.9-3.6-0.8-5.3-0.1c-1.6,0.6-3,1.8-4.2,3c-9.7,9.4-13.7,22.8-17.3,35.6c-1.5,5.3-4.8,14.2-1.6,19.8
				c3.4,5.7,11.1-0.1,13.7-2.8C384,509.4,386,506.2,388,502.9z"/>
			<path class="svg-ifn3" d="M381.4,413.4c0.1-2.1,0.3-4.7,2-5.9c1.5-1.1,3.5-0.7,4.8,0.3s15.6,38.9,13,48.6c-1.3,4.9-5.3,6.5-9.5,5.8
				C386,461.2,381.1,421.2,381.4,413.4z"/>
			<path class="svg-ifn3" d="M376.4,518.9c0,0,10-9.3,15.6-23.5c5.6-14.1-13.7-7.8-13.7-7.8l-14.6,26.6L376.4,518.9z"/>
		</g>
		<g>
			<path class="svg-ifn18" d="M371.2,710.5c-6-9.7-21.2-16.7-28.4-0.6c-11,24.6,18.4,72.5,21.8,102.9l16.8,0.6
				C382,810.5,374.6,715.9,371.2,710.5z"/>
			<path class="svg-ifn3" d="M367.7,829.2c5,0.9,10,0.7,14.7-0.6c-0.8-5.4-1.7-10.8-2.5-16.1c-0.1-0.7-0.2-1.4-0.7-2
				c-0.7-0.9-1.8-1.2-2.9-1.4c-4.1-0.8-10.2-1.2-9.9,3.4C366.7,818,367.3,823.6,367.7,829.2z"/>
			<path class="svg-ifn19" d="M414.1,838.7c0.3-2.2-1.9-4.1-4.2-4.7c-2.3-0.6-4.8-0.3-7.2-0.4c-6.9-0.3-13.4-4.4-16.4-10.1
				c-0.4-0.8-0.8-1.7-1.6-2.1c-1.1-0.6-2.5-0.2-3.5,0.5c-1,0.7-1.7,1.7-2.7,2.5c-1.7,1.4-4,2.1-6.2,2c-1.9-0.1-4-1.5-5.8-0.7
				c-1.6,0.7-2.2,2.7-2.6,4.2c-0.8,2.5-1.6,5-2.3,7.5c-0.2,0.6-0.3,1.1-0.4,1.7l13.2,0.5c0.6-0.8,1.2-3.1,1.5-4c0,1,0.3,3.3,1,4.1
				l36.1,1.3C413.5,840.3,414,839.6,414.1,838.7z"/>
		</g>
		<g>
			<path class="svg-ifn3" d="M303.6,829.5c5.1,0.5,10.3-0.1,15.2-1.7c-0.4-5.5-0.8-11-1.3-16.5c-0.1-0.7-0.1-1.4-0.5-2
				c-0.6-0.8-1.8-1.1-2.9-1.3c-4.2-0.5-10.5-0.5-10.5,4.3C303.5,818,303.6,823.8,303.6,829.5z"/>
			<path class="svg-ifn18" d="M332.6,705.6c-4.2-9.6-20.5-16.7-29.4,1.6c-14.2,29.4-4.7,72.3-1.5,105.5l17.4-0.7
				C320.3,809,335,710.9,332.6,705.6z"/>
			<path class="svg-ifn19" d="M325.6,836.8c0.1-2.3-1-4.2-2.1-4.7s-2.8-4.3-5.1-9.8c-1-2.5-6.7-3-9.4,1.5c-0.9,1.5-1.7,2.4-2.7,2.4
				c-0.9,0-1.8-1.3-2.6-0.4c-0.7,0.8-0.9,3-1,4.5c-0.3,2.6-0.5,5.2-0.8,7.9c-0.1,0.6-0.1,1.2-0.1,1.8l23.5-0.9
				C325.4,838.4,325.6,837.6,325.6,836.8z"/>
		</g>
		<path class="svg-ifn18" d="M345.2,723.6c2.7,4.2,6.3,8.8,11.1,8.6c3.3-0.1,11.8-9.3,13.4-12.4s-7.6-102.5-12.2-108.3
			c-6.2-7.9-16.6-10.8-26-9.2c-13.6,2.4-27.4,11.3-24.6,27.7c3.6,20.9,11.4,41.8,20.2,60.8C332.4,702.2,338.5,713.1,345.2,723.6z"/>
		<path class="svg-ifn18" d="M309.9,714.7c1.6,4.5,3.8,9.6,8,10.8c2.9,0.8,12.3-5.2,14.3-7.5c2-2.3,13.9-94.3,11-100.8
			c-3.8-8.8-12.5-14.3-21.1-15.3c-12.5-1.5-26.5,2.7-27.3,18.2c-1.1,19.8,1.6,40.7,5.6,60.2C302.9,691.9,306,703.4,309.9,714.7z"/>
		<g>
			<path class="svg-ifn20" d="M363.7,534.2c2.5,4.8,0.3,10.8-1.3,15.8c-3.4,10.5-9.1,20.4-13.2,30.8c-4.1,10.4,1,5.6,4.3,16.4
				c0.5,1.7,1.2,3.4,1.1,5.1c-0.1,1.7-1.2,3.5-3.2,4c-1.2,0.3-2.4,0.1-3.7,0c-16.5-2.4-30.5,11.1-47,8.7c-1.1-0.2-2.3-0.3-3.1-1
				c-1.8-1.4-0.7-3.8,0.3-5.6c6.8-12-5-25.9-7.3-39.3c-2.2-13.2-5-29.6-0.5-42.5c6.9-5.7,21.2-19.3,44.8-16.1
				C351.5,512.8,361.4,529.9,363.7,534.2z"/>
		</g>
		<g>
			<path class="svg-ifn3" d="M319.8,497.4c-3,11.9-9.8,23.2-19.3,31.8c-1.7,1.6-4.1,3.2-6.3,2.4c-1.2-0.4-2-1.5-2.4-2.6
				c-0.4-1.1-0.4-2.3-0.4-3.5c0.2-13.9,2.5-27.8,4.8-41.7c0.7-4.3,1.4-8.6,3.3-12.5c1.8-4,5-7.7,9.3-9.4c2.2-0.9,5.9-1.6,8.1-0.2
				c1.7,1.1,2.1,4.2,2.6,5.9c1.7,6.1,2.4,12.6,2,19C321.3,490.2,320.7,493.9,319.8,497.4z"/>
			<path class="svg-ifn3" d="M325.5,413.7c1.9-1.4,4.6-0.9,6.2,0.7c1.5,1.6-4.4,45-7.7,52.5c-1,2.3-2.3,4.8-4.7,5.6
				c-2.1,0.7-4.3-0.4-5.9-1.7c-2.8-2.1-5.6-5.2-6.7-8.6c-0.8-2.3,0.8-4.2,1.8-6.4C311.9,447.6,324.3,414.6,325.5,413.7z"/>
			<path class="svg-ifn3" d="M310.2,391.3c-0.1-0.9,0-2.1,0.8-2.5c0.5-0.3,1.1-0.1,1.6,0.3c0.4,0.4,0.7,0.9,1,1.3
				c1.7,2.4,4.4,3.6,6.9,5.1c5.5,3.4,9.8,8.6,12.2,14.8c2.1,5.3-7,5.3-9.6,3.2c-4.2-3.4-8.2-7.8-10.5-12.9
				C311.3,397.7,310.5,394.6,310.2,391.3z"/>
		</g>
		<g>
			<path class="svg-ifn19" d="M360.3,477.6c-1.4,1.9-3.7,1.5-4.1-0.5c-1.1-6.5-0.9-7.6-7.1-13.1c-3.4-3-30.3-1.4-6.1-11.7
				C350.9,448.9,371.7,462.1,360.3,477.6z"/>
			<path class="svg-ifn3" d="M343.8,494c-0.8-10.3-8.7-13.7-13.8-12c-6.1,18.2-10.5,26.1-20.1,35.2c8.9,7.2,26,8.4,30.4,4.1
				C340.7,519.9,344.2,499.4,343.8,494z"/>
			<path class="svg-ifn3" d="M333.8,462c7.4-6.7,23.7-0.7,26.5,9c2.2,7.7-3.1,21.7-7.3,27.5c-0.6,0.9-1.3,1.6-1.8,2
				c-7.3,5.7-19-3.3-19.9-8.4C329.8,484.7,327.6,467.7,333.8,462z"/>
			<path class="svg-ifn19" d="M339.9,471.9c-4.7,7.6-3.5,18.4-4.3,18.3c-17.6-1.2-4.5-7.6-9.5-9.5c-1.6-0.6-4.2-0.6-3-3.4
				c2.3-5.2,1.1-12.8,3.8-15.3c6.4-6,16.6-1.8,17.6-1.2C347.3,462.7,341.7,468.9,339.9,471.9z"/>
			<path class="svg-ifn3" d="M322.7,480.3c-0.7,2.5-0.2,5.2,1.2,7.3c4,6.2,10.2-0.6,9.8-5.5C333.3,476.4,324.5,473.6,322.7,480.3z"/>
			<path class="svg-ifn20" d="M345.5,498.9c-4.5,0.1-2.6,6.4-0.4,6.6c2.1,0.2,6.4,1.3,8.4-4.9s-2.4-6.3-2.4-6.3S350.5,498.7,345.5,498.9z
				"/>
		</g>
		<path class="svg-ifn20" d="M285.8,538.2c-0.2,2.2,0,4.9,2,6.1c2.1,1.3,6.6-0.2,8.7-1.5c12.9-7.9,21-19.7,25.7-33.2l-29.3-4.6
			C289,515.6,286.6,526.9,285.8,538.2z"/>
		<path class="svg-ifn21" d="M399.7,468.5c0,0,3.1-5.2,1.9-14.8c-1.2-9.6-14.7,12.2-14.7,12.2L399.7,468.5z"/>
		<path class="svg-ifn20" d="M355.3,541.1c-1.9,1.2-4.4,2.3-6.6,1.2c-2.3-1.2-2.8-4-2.8-6.4c0-14.3,7.4-25.6,17-35.9l18.4,19.4
			C373.9,527.8,365.1,535.1,355.3,541.1z"/>
	</g>
	<polygon class="svg-ifn22" points="401.6,408.7 369.3,415.4 371.7,401.2 391.5,398.3 	"/>
	<g>
		<path class="svg-ifn23" d="M1326.4,388.7l14.9,52.7c0,0-33,13.4-49.5,17.5c0,0-16.7-39.9-16.2-58.7L1326.4,388.7z"/>
		<path class="svg-ifn24" d="M1124.2,276.3c0,0,14.9-17.5,24.6-21.9l21.6,16.8c3.2,2.5,3.6,7.1,1,10.1c-5.9,6.7-16.2,17.3-24.1,19.6
			L1124.2,276.3z"/>
		<path class="svg-ifn25" d="M447.9,685.2l-31.8,31.3c-2.8,2.7-3,7.1-0.6,10.1c6.6,8.2,19.6,24,29.2,33.9c1.8,1.9,4.8,2.1,6.8,0.4
			c8.6-7,30.7-25.3,40.2-39.3c1.4-2.1,1.1-4.9-0.8-6.6L458.3,685C455.3,682.3,450.7,682.4,447.9,685.2"/>
		<path class="svg-ifn26" d="M1046.5,119.5l10.6,23.6c2.5,5.5,0.7,11.9-4.2,15.4l-17,11.9c-3.1,2.2-7.5,1-9.1-2.4l-13.5-28.9
			c-1.3-2.8-0.4-6.1,2.2-7.8l22-14.4C1040.7,114.8,1045,116,1046.5,119.5"/>
		<g>
			<path class="svg-ifn14" d="M536.5,551.6L525.7,531c0,0,21.4-9,25.8-8.7c4.4,0.3,10.8,20.6,10.8,20.6L536.5,551.6z"/>
			<path class="svg-ifn1" d="M518,623.4c0,0,1-19.3-2.3-27.7l-23-2.2c-3.4-0.3-6.3,2.2-6.4,5.6c-0.3,7.5-0.1,20,3.4,26L518,623.4z"/>
		</g>
		<path class="svg-ifn14" d="M1388.7,258.6c8.3,2.7,27.6,8.8,45.4,12.4c2.3,0.5,4.5-0.9,5.1-3.2l12.2-47.1c0.6-2.4-0.9-4.9-3.4-5.4
			l-43.3-8.4c-2.2-0.4-4.3,0.8-5,2.9l-13.9,43.2C1385.1,255.4,1386.4,257.8,1388.7,258.6"/>
		<path class="svg-ifn27" d="M1330.5,356.6c7.2,5.6,19.8,14.6,32.5,19.8c3.6,1.5,7.7,0.1,9.6-3.2l12.7-21.2c2.1-3.5,1.2-8-2.1-10.4
			l-26.1-18.8c-3.3-2.4-8-1.8-10.5,1.4l-17.4,21.4C1326.5,348.9,1327,353.9,1330.5,356.6"/>
		<path class="svg-ifn14" d="M1391.9,151.9c12.6,4.1,38.3,12,62,16.8c3.4,0.7,6.7-1.4,7.6-4.7l16.6-64.1c1.2-4.7-1.8-9.4-6.5-10.3
			l-55.1-10.7c-5.3-1-10.5,2.1-12.1,7.2l-17.8,55.5C1385.2,145.8,1387.5,150.5,1391.9,151.9"/>
		<path class="svg-ifn28" d="M1361.5,253.4l-31.4,14.3c0,0,16.9,29.9,22.3,33.6c5.4,3.6,31.4-14.3,31.4-14.3L1361.5,253.4z"/>
		<polygon class="svg-ifn29" points="1230.8,380.6 1204.6,361.3 1224.2,334.2 1250.5,353.5 		"/>
		<g>
			<path class="svg-ifn30" d="M477.9,642.7c0.5-0.2,0.9-0.7,0.9-1.3c0.1-2.7-0.2-7.4-0.3-9.9c-0.1-0.9-0.9-1.6-1.8-1.4l-8.4,1.8
				c-0.1,0-0.2,0.1-0.3,0.1c-0.6,0.2-0.9,0.8-0.9,1.5l0.4,8.8c0,0.9,0.8,1.5,1.7,1.5l8.3-0.8C477.6,642.8,477.8,642.8,477.9,642.7"
				/>
		</g>
		<path class="svg-ifn31" d="M1130.1,202.6c0,0,4.7,17.7,13,27.6l20.1-9.5l-8-21.4c-0.8-2.2-3.3-3.4-5.5-2.7L1130.1,202.6z"/>
		<polygon class="svg-ifn1" points="1493.5,252.6 1547.6,251.5 1539.2,290.7 1496.5,288.4 		"/>
		<polygon class="svg-ifn26" points="1231.6,444 1203.5,460.6 1217.7,489.7 1251.6,473.6 		"/>
		<g>
			<path class="svg-ifn14" d="M1291.5,81.8L1269.5,59c0,0,24.5-20,30.3-21.3c5.9-1.3,22.1,22.8,22.1,22.8L1291.5,81.8z"/>
			<path class="svg-ifn1" d="M1227.5,145.7c0,0-6.1-25.7-13.7-35.2l-30.9,5.9c-4.5,0.9-7.4,5.3-6.2,9.8c2.5,9.9,7.5,26.1,14.4,32.6
				L1227.5,145.7z"/>
		</g>
		<path class="svg-ifn26" d="M489.2,486.4c4.5,8.7,13.2,23.8,23.6,33l28.9-19.6l-17.6-31.2c-1.8-3.3-5.9-4.5-9.2-2.9l-22.4,11
			C488.8,478.4,487.3,482.8,489.2,486.4"/>
		<path class="svg-ifn32" d="M393.9,652l20.3-20.3c1.7-1.7,4.2-2.3,5.4-1.3c4.8,4.3,15.7,14.6,16.3,18.3c0.5,3.7-15.6,17.4-22.7,23.3
			c-1.8,1.5-4.1,1.8-5,0.7l-15.2-16.6C392,655.2,392.4,653.5,393.9,652"/>
		<path class="svg-ifn27" d="M219.4,657.2l21.8-17.1l20.4,21c1.7,1.7,1.5,4.5-0.3,6l-18.8,15.5c-2.7,2.3-6.8,1.6-8.7-1.5L219.4,657.2z"/>
		<path class="svg-ifn32" d="M1201,85.7l-24.9,14.5c-4.8,2.8-11,1.1-13.8-3.8l-17-30.4c-2.5-4.5-1.2-10.2-5.1-7.5l20.7-14.3
			c12.7-8.8,18.9-7.6,22.1-3.1c4.8,7,12.4,17.8,21.1,30.1C1207.5,76.1,1206.1,82.7,1201,85.7"/>
		<path class="svg-ifn33" d="M1432.5,388.6l3.5-26.3c0.5-3.5,4-5.7,7.4-4.7l23,7.2c2.8,0.9,4.5,3.7,3.9,6.6L1466,392
			c-0.6,2.8-3.1,4.7-6,4.5l-22.2-1.5C1434.5,394.9,1432.1,391.9,1432.5,388.6"/>
		<path class="svg-ifn27" d="M1066.1,431.7l5.2-38.8c0.7-5.2,5.9-8.5,10.9-6.9l33.9,10.6c4.1,1.3,6.6,5.5,5.7,9.8l-6.4,30.3
			c-0.9,4.1-4.6,6.9-8.8,6.7l-32.8-2.1C1069.1,440.9,1065.5,436.5,1066.1,431.7"/>
		<path class="svg-ifn25" d="M1261.2,253.4l-11.2,25c-2.5,5.5-8.5,8.4-14.3,7l-21.7-5.2c-2.9-0.7-4.5-3.9-3.3-6.7l13.7-31.7
			c1-2.2,3.4-3.4,5.7-2.8l27.9,7.6C1260.9,247.5,1262.4,250.7,1261.2,253.4"/>
		<path class="svg-ifn24" d="M1280.8,139.3c0,0,26.9-10.8,40.3-10.1l14.3,31.5c2.1,4.6-0.1,10-4.8,11.8c-10.5,4-28.2,9.8-38.5,7.7
			L1280.8,139.3z"/>
		<path class="svg-ifn14" d="M411.2,584c-1,5.4-2.8,16.5-3.5,26.6c-0.1,1.4,0.9,2.7,2.4,2.9l27.4,3.3c2,0.2,3.8-1.3,3.9-3.3l1.4-23.4
			c0.1-2.2-1.4-4.2-3.6-4.6l-23.9-4.3C413.4,580.9,411.6,582.1,411.2,584"/>
		<path class="svg-ifn14" d="M1096.1,88.9c-2.5,3.7-7.5,11.2-11.3,18.5c-0.5,1-0.2,2.3,0.8,2.9l19.2,11.4c1.4,0.8,3.2,0.3,3.9-1.1
			l8.6-16.8c0.8-1.6,0.3-3.6-1.2-4.6l-16.3-10.9C1098.7,87.3,1096.9,87.7,1096.1,88.9"/>
		<path class="svg-ifn32" d="M227,740l14.2-13.1c1.2-1.1,1.2-3,0-4.1c-5-4.5-16.9-14.8-20.5-15.8c-3.5-1-12.6,9.8-16.4,14.6
			c-1,1.2-0.8,3,0.5,3.9l18.7,14.7C224.4,741,226,740.9,227,740"/>
	</g>
</g>
</svg>
