<svg version="1.1" xmlns="http://www.w3.org/2000/svg" xmlns:xlink="http://www.w3.org/1999/xlink" x="0px" y="0px"
	 viewBox="0 0 1440 740" style="enable-background:new 0 0 1440 740;" xml:space="preserve">
<style type="text/css">
	.svg-centralise0{fill:url(#SVGID_1svgCent_);}
	.svg-centralise1{opacity:8.000000e-02;fill:#FFFFFF;}
	.svg-centralise2{opacity:8.000000e-02;}
	.svg-centralise3{fill:#297254;}
	.svg-centralise4{fill:#1DD884;}
	.svg-centralise5{fill:#21402C;}
	.svg-centralise6{fill:#142018;}
	.svg-centralise7{fill:#45A07A;}
</style>
<linearGradient id="SVGID_1svgCent_" gradientUnits="userSpaceOnUse" x1="-3.637979e-12" y1="370.511" x2="1440" y2="370.511">
	<stop  offset="0" style="stop-color:#1DD884"/>
	<stop  offset="0.1037" style="stop-color:#1FC77C"/>
	<stop  offset="0.3675" style="stop-color:#23A36B"/>
	<stop  offset="0.6131" style="stop-color:#26885E"/>
	<stop  offset="0.8314" style="stop-color:#287857"/>
	<stop  offset="1" style="stop-color:#297254"/>
</linearGradient>
<rect x="0" y="0.5" class="svg-centralise0" width="1440" height="740"/>
<path class="svg-centralise1" d="M1161.9,248.3v-36.5h49.8v-6.6h-49.8h-6.6h-121.6v-21.4h-6.6v21.4h-62.9v6.6h62.9v36.5h-15.8v6.6h144V275h6.6
	v-20.1h97v-6.6H1161.9z M1155.3,248.3h-121.6v-36.5h121.6V248.3z"/>
<path class="svg-centralise2" d="M614,510.6v-6.5H412v-34.1h151.7v-6.5H478v-42.8h-6.5v42.8H350.6v-33h-6.5v33h-68.2v-17.1h-6.5v17.1H165.4v6.5
	h103.9v34.1h-53.6v6.5h128.3v32.2H165.4v6.5h100.7v29.5h6.5v-29.5h230.5v19.1h6.5v-19.1h15.9v-6.5h-15.9v-32.2H614z M275.9,469.9
	h129.6v34.1H275.9V469.9z M503.2,542.8H350.6v-32.2h152.6V542.8z"/>
<polygon class="svg-centralise3" points="276.3,296.7 317.8,296.7 317.8,58.4 281.1,58.4 "/>
<rect x="284.8" y="263" class="svg-centralise4" width="26.9" height="22.7"/>
<polygon class="svg-centralise4" points="317.8,77 332.5,77 337.2,296.7 317.8,296.7 "/>
<polygon class="svg-centralise5" points="349.9,296.7 374.4,296.7 380,58.4 349.9,58.4 "/>
<polygon class="svg-centralise6" points="355.4,65.2 355.4,149 372.8,149 375.5,65.2 "/>
<polygon class="svg-centralise3" points="389.7,300.9 431.9,300.9 431.9,118.4 392.8,118.4 "/>
<polygon class="svg-centralise4" points="439.3,296.7 439.3,72.3 452.8,72.3 452.8,92.1 452.8,300.9 "/>
<polygon class="svg-centralise3" points="469.4,89.7 469.4,296.7 452.8,296.7 452.8,92.1 "/>
<rect x="479.7" y="149" class="svg-centralise5" width="21.4" height="147.6"/>
<rect x="483.6" y="152.7" class="svg-centralise3" width="13.2" height="16.4"/>
<polygon class="svg-centralise4" points="506.3,300.9 545.3,300.9 545.3,120.5 508.4,120.5 "/>
<rect x="512.6" y="127.9" class="svg-centralise3" width="27.4" height="26.9"/>
<rect x="558.8" y="58.4" class="svg-centralise5" width="15" height="242.5"/>
<rect x="602.3" y="266.1" class="svg-centralise5" width="211.3" height="30.5"/>
<rect x="613.1" y="235.6" class="svg-centralise4" width="197.3" height="30.5"/>
<rect x="624.4" y="210.7" class="svg-centralise4" width="185.9" height="12.4"/>
<rect x="602.3" y="223.2" class="svg-centralise7" width="197.3" height="12.4"/>
<rect x="619.2" y="240.3" class="svg-centralise3" width="24.3" height="20.6"/>
<rect x="251.5" y="296.7" class="svg-centralise6" width="572.8" height="22.3"/>
<g>
	<polyline class="svg-centralise5" points="776,589.5 748,444.3 756.5,438.8 789.2,595.6 776,589.5 	"/>
	<polygon class="svg-centralise7" points="806.1,592 778.1,466.9 763,470.3 789.2,595.6 	"/>
	<polyline class="svg-centralise3" points="813.5,589.5 813.5,409.9 842.5,409.9 842.5,589.5 813.5,589.5 	"/>
	<rect x="645.2" y="589.5" class="svg-centralise6" width="572.8" height="22.3"/>
	<polygon class="svg-centralise4" points="842.5,591.1 842.5,373.6 860.9,373.6 860.9,392.8 860.9,595.2 	"/>
	<polygon class="svg-centralise5" points="883.6,390.5 883.6,591.1 860.9,591.1 860.9,392.8 	"/>
	
		<rect x="1023.7" y="511.8" transform="matrix(-1 -1.224647e-16 1.224647e-16 -1 2258.7319 1049.9794)" class="svg-centralise5" width="211.3" height="26.4"/>
	
		<rect x="1041.1" y="538.2" transform="matrix(-1 -1.224647e-16 1.224647e-16 -1 2279.5671 1102.8364)" class="svg-centralise4" width="197.3" height="26.4"/>
	
		<rect x="1041.1" y="577.1" transform="matrix(-1 -1.224647e-16 1.224647e-16 -1 2268.2268 1166.5338)" class="svg-centralise4" width="185.9" height="12.4"/>
	
		<rect x="1067.3" y="564.6" transform="matrix(-1 -1.224647e-16 1.224647e-16 -1 2331.7871 1141.6884)" class="svg-centralise7" width="197.3" height="12.4"/>
	
		<rect x="1082.1" y="501.8" transform="matrix(-1 -1.224647e-16 1.224647e-16 -1 2361.5181 1013.1118)" class="svg-centralise3" width="197.3" height="9.6"/>
	<rect x="697" y="438.8" class="svg-centralise4" width="27.1" height="150.7"/>
	<rect x="724.2" y="459" class="svg-centralise3" width="27.1" height="130.4"/>
	<rect x="920" y="448" class="svg-centralise5" width="33.2" height="143.1"/>
	<rect x="953.2" y="395.7" class="svg-centralise7" width="26.1" height="195.3"/>
	<polygon class="svg-centralise4" points="979.3,595.6 992.8,595.2 990.1,438.8 979.3,438.8 	"/>
	<rect x="1045.8" y="542.1" class="svg-centralise3" width="14.6" height="19"/>
	<rect x="1105.5" y="517.2" class="svg-centralise3" width="48.7" height="16.2"/>
	<rect x="956.4" y="399.3" class="svg-centralise5" width="18.6" height="31.6"/>
	<polygon class="svg-centralise3" points="924.3,474.9 924.3,557.9 948.5,557.9 948.5,472.9 	"/>
	<rect x="699.2" y="444.4" class="svg-centralise7" width="21" height="22.5"/>
</g>
<g>
	<rect x="316.2" y="316.4" class="svg-centralise6" width="26.5" height="78.9"/>
	<rect x="733.1" y="316.4" class="svg-centralise6" width="26.5" height="78.9"/>
</g>
<g>
	<rect x="714.7" y="602.6" class="svg-centralise6" width="26.5" height="78.9"/>
	<rect x="1131.6" y="602.6" class="svg-centralise6" width="26.5" height="78.9"/>
</g>
</svg>
