<svg version="1.1" id="Calque_1" xmlns="http://www.w3.org/2000/svg" xmlns:xlink="http://www.w3.org/1999/xlink" x="0px" y="0px"
	 viewBox="0 0 350 450" style="enable-background:new 0 0 350 450;" xml:space="preserve">
<style type="text/css">
	.svgActuV0{fill:#C9191E;}
	.svgActuV1{fill:#1E1E1E;}
	.svgActuV2{fill:#FAA4A4;}
	.svgActuV3{opacity:0.1;fill:#1E1E1E;}
	.svgActuV4{fill:#FEF4F4;}
	.svgActuV5{fill:#FBC2C2;}
	.svgActuV6{fill:#533232;}
	.svgActuV7{fill:#AD000B;}
	.svgActuV8{opacity:0.2;fill:#1E1E1E;}
	.svgActuV9{opacity:0.15;fill:#1E1E1E;}
	.svgActuV10{opacity:5.000000e-02;fill:#1E1E1E;}
	.svgActuV11{fill:#F99090;}
	.svgActuV12{fill:#2B1919;}
	.svgActuV13{opacity:8.000000e-02;fill:#1E1E1E;}
	.svgActuV14{fill:#E1000F;}
	.svgActuV15{opacity:5.000000e-02;fill:#FFFFFF;}
	.svgActuV16{opacity:0.1;fill:#FFFFFF;}
</style>
<polygon class="svgActuV0" points="326.5,93.9 189.1,26.6 58.5,93.9 56.7,86.2 189.1,18.5 190,18.7 328.4,86.2 "/>
<g>
	<path class="svgActuV1" d="M54.6,83.4h273.3c3.5,0,6.4,2.9,6.4,6.4v247.5c0,3.5-2.9,6.4-6.4,6.4H61c-3.5,0-6.4-2.9-6.4-6.4V83.4"/>
</g>
<polyline class="svgActuV2" points="70.4,96.5 318.5,96.5 318.5,330.5 70.4,330.5 70.4,96.5 "/>
<polygon class="svgActuV3" points="307.3,325.7 307.3,106.8 66.4,106.8 66.4,86.2 327.4,86.2 327.4,336.8 306.8,336.8 "/>
<polygon class="svgActuV3" points="54.7,128.3 61.4,337.2 333.7,338.8 317.6,353.8 47.4,350.3 47.4,96.9 56.1,82.4 "/>
<rect x="98.8" y="130.6" class="svgActuV4" width="109.1" height="171.8"/>
<rect x="232" y="165.6" class="svgActuV4" width="56.2" height="56.2"/>
<rect x="81.1" y="125.8" class="svgActuV5" width="50" height="50"/>
<rect x="186.8" y="166.7" class="svgActuV6" width="35.3" height="60.9"/>
<rect x="222.6" y="204.8" class="svgActuV7" width="50" height="86.3"/>
<rect x="253.2" y="220.4" class="svgActuV5" width="50" height="50"/>
<rect x="260.8" y="129.5" class="svgActuV5" width="24.3" height="24.3"/>
<rect x="184" y="229.9" class="svgActuV5" width="24.3" height="24.3"/>
<polygon class="svgActuV8" points="279,313.9 233,313.9 235.7,252.6 279,252.6 "/>
<polygon class="svgActuV9" points="187.3,336.8 138.8,334.4 149.1,283.1 192.4,283.1 "/>
<path class="svgActuV4" d="M235.5,252.6h45.7c0,0-8.6,29.3,8.9,58.5c0,0-31,0-43.8,0C235.5,311.1,235.5,252.6,235.5,252.6z"/>
<path class="svgActuV5" d="M149.7,283.1h44.4c0,0-0.6,49,8.6,48.4c0,0-39.8,0-49.7,0C143.3,331.5,149.7,283.1,149.7,283.1z"/>
<polygon class="svgActuV10" points="91.4,189.8 134.9,189.8 134.9,248.7 88.6,248.7 "/>
<path class="svgActuV11" d="M88.4,189.8h46.6c0,0,0.5,52.8-8.1,52.8s-61.5,0-48.4,0C92.4,242.5,88.4,189.8,88.4,189.8z"/>
<polyline class="svgActuV9" points="141.6,183.8 140,224.2 113.6,222.9 113.4,183.8 142.5,183.8 "/>
<path class="svgActuV0" d="M113.4,183.8h28.3c0,0,0.3,36.3-4.9,36.3c-5.2,0-37.3,0-29.4,0C115.8,220.1,113.4,183.8,113.4,183.8z"/>
<polygon class="svgActuV9" points="98.9,119.4 102.1,153.2 76.3,153.2 79.3,117 "/>
<path class="svgActuV12" d="M79.4,117H105c0,0-3,32.9,2.1,32.9c0,0-18.2,0-22.4,0C77.9,149.9,79.4,117,79.4,117z"/>
<polygon class="svgActuV3" points="266.5,113.9 267.9,168.3 229.8,168.3 239,116.7 "/>
<path class="svgActuV12" d="M225.8,163c-7.7,0,28,0,34.9,0c7,0,5.8-50,5.8-50h-34.9C231.5,112.9,233.5,163,225.8,163z"/>
<path class="svgActuV13" d="M283.1,185c0,0,1.9,29.9,6.2,30.1h-37.7l6.9-39.2L283.1,185z"/>
<path class="svgActuV5" d="M298.1,208.9c7.8,0-28.3,0-35.3,0c-7,0-5.8-35.3-5.8-35.3h35.3C292.3,173.6,290.4,208.9,298.1,208.9z"/>
<circle class="svgActuV5" cx="91.4" cy="120.6" r="1.2"/>
<circle class="svgActuV0" cx="196.1" cy="233.8" r="1.2"/>
<circle class="svgActuV4" cx="247.6" cy="209.8" r="1.7"/>
<circle class="svgActuV0" cx="155.2" cy="137" r="1.9"/>
<circle class="svgActuV12" cx="260.1" cy="170" r="1.3"/>
<g>
	<rect x="166.6" y="112.4" class="svgActuV5" width="36.2" height="36.2"/>
	<path class="svgActuV3" d="M176.6,133.8l-10,50h53.2c0,0-15.5-31.7-13.3-41.8L176.6,133.8z"/>
	<path class="svgActuV7" d="M176.6,133.8h41.8c0,0-0.6,46.1,8.1,45.5c0,0-37.4,0-46.7,0S176.6,133.8,176.6,133.8z"/>
	<path class="svgActuV1" d="M193.8,138.4H227c0,0-5.2,17.9,7.6,36.2c0,0-19.7,0-31.2,0C193.8,174.7,193.8,138.4,193.8,138.4z"/>
	<polygon class="svgActuV9" points="208.4,138.4 193.8,138.4 192.7,176.1 222.8,176.1 233.1,174.7 	"/>
	<circle class="svgActuV14" cx="184.7" cy="115.5" r="1.4"/>
</g>
<circle class="svgActuV14" cx="257.9" cy="259" r="3"/>
<circle class="svgActuV2" cx="189.1" cy="26.2" r="9.6"/>
<rect x="164.5" y="365.7" class="svgActuV15" width="76.6" height="70"/>
<rect x="173" y="374.9" class="svgActuV16" width="59.6" height="51.7"/>
<rect x="5.4" y="359.4" class="svgActuV3" width="88.8" height="86.6"/>
<rect x="15.2" y="370.5" class="svgActuV3" width="69.1" height="64.5"/>
</svg>
