<svg version="1.1" id="Calque_1" xmlns="http://www.w3.org/2000/svg" xmlns:xlink="http://www.w3.org/1999/xlink" x="0px" y="0px"
	 viewBox="0 0 1440 740" style="enable-background:new 0 0 1440 740;" xml:space="preserve">
<style type="text/css">
	.svgactua-0{fill:url(#SVGID_1svgactua_);}
	.svgactua-1{fill:#C9191E;}
	.svgactua-2{fill:#1E1E1E;}
	.svgactua-3{fill:#FAA4A4;}
	.svgactua-4{opacity:0.1;fill:#1E1E1E;}
	.svgactua-5{fill:#FEF4F4;}
	.svgactua-6{fill:#FBC2C2;}
	.svgactua-7{fill:#533232;}
	.svgactua-8{fill:#AD000B;}
	.svgactua-9{opacity:0.2;fill:#1E1E1E;}
	.svgactua-10{opacity:0.15;fill:#1E1E1E;}
	.svgactua-11{opacity:5.000000e-02;fill:#1E1E1E;}
	.svgactua-12{fill:#F99090;}
	.svgactua-13{fill:#2B1919;}
	.svgactua-14{opacity:8.000000e-02;fill:#1E1E1E;}
	.svgactua-15{fill:#E1000F;}
	.svgactua-16{opacity:5.000000e-02;fill:#FFFFFF;}
	.svgactua-17{opacity:0.1;fill:#FFFFFF;}
</style>
<radialGradient id="SVGID_1svgactua_" cx="138.2474" cy="-125.8905" r="1577.2059" gradientUnits="userSpaceOnUse">
	<stop  offset="0" style="stop-color:#E1000F"/>
	<stop  offset="0.1303" style="stop-color:#D80311"/>
	<stop  offset="0.3476" style="stop-color:#BE0C18"/>
	<stop  offset="0.625" style="stop-color:#941B22"/>
	<stop  offset="0.9488" style="stop-color:#5B2F30"/>
	<stop  offset="0.9908" style="stop-color:#533232"/>
</radialGradient>
<rect class="svgactua-0" width="1440" height="740"/>
<polygon class="svgactua-1" points="1071.5,174.9 695.5,83.2 339.6,165.7 335.8,149.1 695.6,65.7 697.6,66.2 1075.5,158.4 "/>
<g>
	<path class="svgactua-2" d="M283.5,629V155.2c0-8.4,6.9-15.3,15.3-15.3h808.3c8.4,0,15.3,6.9,15.3,15.3v458.6c0,8.4-6.9,15.3-15.3,15.3
		H283.5"/>
</g>
<polyline class="svgactua-3" points="325.9,587.5 325.9,181.4 1079.9,181.4 1079.9,587.5 325.9,587.5 "/>
<polygon class="svgactua-4" points="1060.1,587.5 1060.1,206.8 319.9,206.8 319.9,166.6 1099.4,166.6 1099.4,609.1 1059.1,609.1 "/>
<polygon class="svgactua-4" points="289.7,225.2 302.3,618 1122.5,621.2 1092.3,649.3 262.4,646.1 262.4,175.9 292.4,138.9 "/>
<rect x="588.4" y="251.1" class="svgactua-5" width="173" height="272.6"/>
<rect x="891.3" y="244.7" class="svgactua-5" width="126.5" height="126.5"/>
<rect x="837.9" y="417.7" class="svgactua-6" width="79.4" height="79.4"/>
<rect x="560.3" y="243.5" class="svgactua-6" width="79.4" height="79.4"/>
<rect x="789.6" y="247.2" class="svgactua-7" width="79.4" height="137"/>
<rect x="448.9" y="388.9" class="svgactua-8" width="79.4" height="137"/>
<rect x="497.3" y="413.6" class="svgactua-6" width="79.4" height="79.4"/>
<rect x="437.4" y="269.4" class="svgactua-6" width="38.6" height="38.6"/>
<rect x="387.6" y="428.7" class="svgactua-6" width="38.6" height="38.6"/>
<polygon class="svgactua-9" points="538.3,561.9 465.2,561.9 469.6,464.7 538.3,464.7 "/>
<polygon class="svgactua-10" points="728.9,578.2 651.9,574.3 668.2,493 736.9,493 "/>
<path class="svgactua-5" d="M469.3,464.7h72.6c0,0-13.6,46.4,14.1,92.8c0,0-49.1,0-69.4,0C469.3,557.5,469.3,464.7,469.3,464.7z"/>
<path class="svgactua-6" d="M669.2,493h70.5c0,0-1,77.8,13.6,76.8c0,0-63.2,0-78.8,0C659,569.8,669.2,493,669.2,493z"/>
<polygon class="svgactua-11" points="576.7,345 645.8,345 645.8,438.5 572.4,438.5 "/>
<path class="svgactua-12" d="M571.9,345h73.8c0,0,0.8,83.7-12.9,83.7c-13.6,0-97.6,0-76.8,0C578.3,428.7,571.9,345,571.9,345z"/>
<polyline class="svgactua-10" points="656.4,335.5 653.8,399.6 611.9,397.6 611.6,335.5 657.8,335.5 "/>
<path class="svgactua-1" d="M611.6,335.5h44.8c0,0,0.5,57.6-7.8,57.6s-59.2,0-46.6,0C615.5,393.2,611.6,335.5,611.6,335.5z"/>
<polygon class="svgactua-10" points="430.5,251.1 440.6,358.2 359.1,358.2 368.4,243.5 "/>
<path class="svgactua-13" d="M368.9,243.5H450c0,0-9.4,104.1,6.7,104.1c0,0-57.7,0-71.1,0C364.2,347.6,368.9,243.5,368.9,243.5z"/>
<path class="svgactua-4" d="M859.7,464.7l-21.8,109.6h116.6c0,0-34-69.6-29.3-91.8L859.7,464.7z"/>
<path class="svgactua-8" d="M859.7,464.7h91.6c0,0-1.3,101.1,17.7,99.8c0,0-82.1,0-102.3,0S859.7,464.7,859.7,464.7z"/>
<path class="svgactua-2" d="M897.5,474.9h72.9c0,0-11.4,39.2,16.8,79.5c0,0-43.2,0-68.4,0C897.5,554.3,897.5,474.9,897.5,474.9z"/>
<polygon class="svgactua-10" points="929.5,474.9 897.5,474.9 895.2,557.5 961.1,557.5 983.8,554.3 "/>
<polygon class="svgactua-4" points="782.4,224.6 784.7,310.9 724.3,310.9 738.8,229.1 "/>
<path class="svgactua-13" d="M717.9,302.5c-12.2,0,44.4,0,55.4,0s9.1-79.4,9.1-79.4H727C727,223.1,730.1,302.5,717.9,302.5z"/>
<path class="svgactua-14" d="M1006.2,288.3c0,0,4.4,67.3,14,67.6h-84.8l15.4-88.2L1006.2,288.3z"/>
<path class="svgactua-6" d="M1040,342.1c17.5,0-63.6,0-79.4,0s-13.1-79.4-13.1-79.4h79.4C1026.9,262.8,1022.5,342.1,1040,342.1z"/>
<circle class="svgactua-6" cx="406.7" cy="254.8" r="3.7"/>
<circle class="svgactua-1" cx="406.7" cy="434.8" r="1.8"/>
<circle class="svgactua-5" cx="488.5" cy="396.9" r="2.8"/>
<circle class="svgactua-1" cx="677.9" cy="261.3" r="3"/>
<circle class="svgactua-13" cx="954.5" cy="254.8" r="3"/>
<circle class="svgactua-15" cx="877.6" cy="424.5" r="3"/>
<circle class="svgactua-15" cx="504.7" cy="474.9" r="4.7"/>
<circle class="svgactua-3" cx="695.6" cy="82.3" r="20.6"/>
<rect x="1182.3" y="384.1" class="svgactua-16" width="196.3" height="245.4"/>
<rect x="1204.1" y="402.4" class="svgactua-16" width="152.5" height="208.7"/>
<rect x="1204.9" y="132.2" class="svgactua-16" width="134.3" height="122.7"/>
<rect x="1219.8" y="148.3" class="svgactua-17" width="104.4" height="90.6"/>
<rect x="57.5" y="160.2" class="svgactua-4" width="170.9" height="166.6"/>
<rect x="76.6" y="181.5" class="svgactua-4" width="132.9" height="124.1"/>
</svg>
