<svg id="svg" version="1.1" xmlns="http://www.w3.org/2000/svg" xmlns:xlink="http://www.w3.org/1999/xlink" width="400" height="266.1818181818182" viewBox="0, 0, 400,266.1818181818182"><g id="svgg"><path id="path0" d="M54.047 94.555 C 53.494 95.108,53.486 95.245,53.671 100.490 C 53.775 103.443,53.889 113.670,53.925 123.218 C 53.961 132.765,54.060 140.757,54.144 140.977 C 54.438 141.744,95.637 141.897,206.322 141.544 L 251.126 141.401 251.536 140.776 C 252.098 139.919,252.019 95.688,251.455 95.008 C 250.922 94.366,246.215 94.209,228.628 94.244 C 185.912 94.330,109.104 94.276,83.431 94.141 L 54.612 93.990 54.047 94.555 M99.689 100.637 C 100.233 101.182,100.267 101.469,100.285 105.667 C 100.307 110.985,100.559 112.018,101.611 111.097 C 103.479 109.462,107.355 109.053,109.842 110.228 C 113.853 112.123,114.780 114.760,114.780 124.280 L 114.780 131.050 114.113 131.716 C 113.533 132.296,113.251 132.373,111.943 132.304 C 109.399 132.168,109.377 132.096,109.435 124.300 C 109.498 115.824,108.761 113.981,105.307 113.981 C 101.257 113.981,99.939 117.041,100.226 125.771 C 100.426 131.832,100.165 132.492,97.610 132.401 C 95.499 132.327,95.606 133.193,95.606 116.142 C 95.606 98.784,95.481 99.710,97.795 99.933 C 98.668 100.017,99.307 100.254,99.689 100.637 M89.636 101.827 C 91.091 102.290,91.611 102.964,91.611 104.385 C 91.611 106.246,90.434 106.800,87.870 106.143 C 79.451 103.986,73.502 108.516,73.502 117.086 C 73.502 122.518,74.983 125.282,79.136 127.603 C 80.237 128.219,83.560 128.435,86.551 128.086 C 90.855 127.585,91.611 127.851,91.611 129.869 C 91.611 131.911,89.794 132.657,84.554 132.763 C 77.613 132.903,74.539 131.560,70.661 126.694 C 68.842 124.411,67.615 118.982,68.180 115.712 C 68.307 114.980,68.417 113.901,68.426 113.313 C 68.435 112.713,68.733 111.699,69.108 110.995 C 69.474 110.308,69.774 109.576,69.774 109.370 C 69.774 108.152,73.913 104.071,76.439 102.798 C 79.599 101.205,86.165 100.722,89.636 101.827 M207.054 104.705 C 207.757 105.259,207.780 105.352,207.614 106.972 C 207.339 109.657,207.826 110.264,210.089 110.063 C 212.057 109.888,213.049 110.568,213.049 112.090 C 213.049 113.726,212.148 114.365,210.159 114.140 C 208.183 113.917,207.034 114.927,207.495 116.483 C 207.630 116.938,207.715 119.494,207.684 122.164 C 207.618 127.931,207.616 127.928,210.194 128.190 C 212.532 128.428,213.317 129.585,212.536 131.641 C 211.880 133.365,206.832 133.339,204.589 131.599 C 202.783 130.199,202.573 129.274,202.467 122.237 C 202.360 115.108,202.265 114.667,200.685 113.989 C 198.324 112.978,198.440 110.727,200.883 110.146 C 201.821 109.923,202.397 108.659,202.397 106.823 C 202.397 104.445,205.138 103.198,207.054 104.705 M151.450 109.709 C 153.964 111.241,152.698 114.780,149.636 114.780 C 147.093 114.780,146.205 117.356,146.205 124.738 C 146.205 130.944,146.060 131.932,145.104 132.235 C 143.457 132.758,141.170 132.097,141.124 131.086 C 141.004 128.456,141.112 111.055,141.249 110.833 C 141.898 109.783,144.168 110.008,145.473 111.252 L 146.205 111.951 146.937 111.264 C 147.554 110.686,150.030 109.238,150.466 109.201 C 150.539 109.195,150.982 109.423,151.450 109.709 M130.954 110.197 C 135.146 112.020,135.629 113.201,135.887 122.237 C 135.997 126.119,136.110 129.760,136.139 130.328 C 136.234 132.241,133.857 133.237,132.336 131.921 C 131.712 131.382,130.351 131.480,129.084 132.155 C 126.775 133.385,122.388 132.970,120.588 131.351 C 114.920 126.256,118.687 118.984,127.538 117.933 C 130.418 117.591,130.759 117.424,130.759 116.358 C 130.759 114.312,126.830 113.037,123.968 114.154 C 121.942 114.945,121.273 114.922,120.381 114.030 C 119.069 112.719,119.728 111.040,121.759 110.519 C 122.388 110.358,123.322 110.058,123.835 109.854 C 125.501 109.189,129.028 109.358,130.954 110.197 M167.602 110.091 C 171.468 111.665,174.125 116.557,173.445 120.846 C 173.218 122.273,172.839 122.344,165.865 122.267 C 159.594 122.198,158.453 122.328,158.457 123.112 C 158.460 123.877,159.034 125.405,159.539 125.993 C 159.839 126.344,160.302 126.883,160.567 127.192 C 161.452 128.224,165.526 129.030,167.256 128.516 C 170.253 127.626,171.830 128.058,172.192 129.868 C 172.563 131.722,169.896 132.855,165.096 132.880 C 156.625 132.925,151.779 126.327,153.971 117.733 C 154.958 113.864,156.461 112.082,160.320 110.207 C 162.348 109.221,165.349 109.173,167.602 110.091 M190.524 109.654 C 190.633 109.764,191.175 110.033,191.727 110.253 C 195.720 111.842,196.797 114.815,196.801 124.265 C 196.805 132.382,196.814 132.357,193.998 132.357 C 191.543 132.357,191.593 132.528,191.704 124.581 C 191.794 118.124,191.784 117.980,191.171 116.747 C 189.418 113.221,185.219 113.073,183.017 116.459 L 182.290 117.577 182.253 124.464 C 182.209 132.564,182.265 132.395,179.629 132.395 C 177.092 132.395,177.242 133.062,177.155 121.389 L 177.079 111.239 177.667 110.613 C 178.412 109.820,179.268 109.825,181.004 110.633 L 182.380 111.274 184.066 110.617 C 184.994 110.255,185.992 109.854,186.285 109.725 C 186.942 109.435,190.250 109.380,190.524 109.654 M228.189 110.053 C 231.747 111.314,234.138 114.887,234.191 119.023 C 234.235 122.551,234.659 122.361,226.919 122.272 C 219.828 122.189,219.435 122.262,219.450 123.645 C 219.489 127.122,224.600 129.700,228.785 128.355 C 231.704 127.416,233.910 128.870,232.777 130.986 C 231.570 133.242,223.084 133.596,219.574 131.536 C 217.822 130.509,215.180 127.441,215.180 126.435 C 215.180 126.180,214.940 125.341,214.647 124.570 C 213.995 122.853,213.937 119.981,214.527 118.569 C 214.754 118.026,215.053 117.079,215.190 116.464 C 216.309 111.474,222.952 108.197,228.189 110.053 M162.518 113.700 C 161.590 113.929,160.929 114.366,160.365 115.122 C 160.170 115.384,159.704 115.881,159.330 116.228 C 157.854 117.597,158.577 118.242,161.590 118.244 C 163.015 118.245,164.966 118.320,165.926 118.411 C 168.737 118.677,169.344 117.600,167.577 115.486 C 166.196 113.834,164.459 113.221,162.518 113.700 M223.559 113.689 C 221.698 114.154,219.472 116.537,219.864 117.646 L 220.107 118.334 223.968 118.362 C 229.895 118.405,230.426 118.059,228.379 115.485 C 227.120 113.901,225.351 113.242,223.559 113.689 M126.936 122.113 C 123.410 122.882,122.038 126.590,124.666 128.249 C 127.126 129.802,130.613 127.752,130.942 124.560 C 131.227 121.807,130.468 121.344,126.936 122.113 M136.137 145.841 C 135.242 146.043,134.953 147.059,135.285 148.837 C 135.466 149.807,135.556 157.768,135.540 171.495 C 135.518 191.399,135.544 192.678,135.985 193.000 C 136.796 193.593,365.453 193.496,365.946 192.902 C 366.435 192.313,366.635 148.106,366.153 146.944 C 365.628 145.676,374.162 145.754,249.001 145.875 C 209.674 145.913,168.329 145.889,157.124 145.823 C 145.919 145.757,136.475 145.765,136.137 145.841 M234.124 157.293 C 235.538 158.561,234.696 160.250,232.019 161.517 C 228.627 163.123,228.196 163.914,230.563 164.187 C 235.688 164.778,239.159 172.403,235.648 175.357 C 234.859 176.021,234.771 176.032,230.372 176.032 C 225.443 176.032,224.689 176.248,225.704 177.369 C 226.139 177.849,226.532 177.896,230.148 177.896 C 235.157 177.896,236.637 178.529,236.437 180.588 C 236.279 182.206,235.376 182.469,230.074 182.437 C 224.873 182.405,224.509 182.310,222.441 180.444 C 220.601 178.784,220.240 177.586,220.240 173.152 C 220.240 168.368,221.306 166.210,224.469 164.597 L 225.546 164.047 225.389 162.366 L 225.232 160.684 226.307 159.832 C 226.899 159.364,227.843 158.790,228.405 158.558 C 228.967 158.326,229.648 157.940,229.918 157.700 C 231.161 156.594,233.132 156.403,234.124 157.293 M275.566 157.121 C 278.097 158.664,275.672 162.838,272.751 161.963 C 269.224 160.906,269.827 156.593,273.502 156.593 C 274.228 156.593,275.042 156.801,275.566 157.121 M155.583 165.049 L 156.306 165.727 157.968 164.981 C 162.698 162.859,166.864 164.315,167.484 168.309 C 167.985 171.528,167.937 180.674,167.416 181.469 C 166.096 183.483,164.075 182.089,163.929 179.064 C 163.873 177.909,163.695 176.622,163.534 176.205 C 163.374 175.788,163.255 174.114,163.270 172.486 C 163.309 168.342,161.325 167.227,158.322 169.705 C 158.029 169.947,157.490 170.380,157.124 170.667 C 156.472 171.179,156.455 171.285,156.317 175.675 C 156.146 181.068,155.896 181.837,154.177 182.246 C 152.139 182.731,151.562 181.078,151.773 175.366 C 151.866 172.876,151.872 169.880,151.787 168.708 C 151.492 164.645,153.298 162.904,155.583 165.049 M177.900 164.449 C 179.056 165.047,179.278 166.293,179.195 171.738 C 179.156 174.319,179.214 176.697,179.324 177.021 C 179.706 178.146,182.530 178.054,184.053 176.868 C 184.402 176.596,185.062 176.181,185.521 175.946 C 186.662 175.361,187.097 173.132,186.834 169.210 C 186.630 166.165,186.867 164.927,187.761 164.369 C 188.594 163.849,190.127 164.229,190.432 165.031 C 190.803 166.007,190.750 180.645,190.372 181.474 C 189.864 182.590,188.450 182.688,187.397 181.680 C 186.332 180.661,185.569 180.537,184.776 181.255 C 183.462 182.443,180.591 182.787,178.409 182.017 C 176.004 181.168,175.518 180.144,175.193 175.233 C 175.062 173.256,174.867 170.527,174.761 169.169 C 174.432 164.978,175.581 163.250,177.900 164.449 M210.886 164.343 C 211.400 164.522,212.068 165.122,212.590 165.874 L 213.449 167.111 213.617 173.768 C 213.801 181.099,213.731 181.544,212.290 182.141 C 211.642 182.409,211.366 182.393,210.697 182.047 C 209.520 181.438,209.455 181.237,209.446 178.162 C 209.425 170.821,209.336 169.363,208.904 169.197 C 208.056 168.872,207.941 169.557,207.899 175.226 L 207.856 180.869 206.986 181.646 C 206.002 182.526,205.617 182.587,204.546 182.034 C 203.565 181.526,203.398 180.435,203.467 174.983 C 203.536 169.538,203.530 169.457,203.048 169.272 C 202.164 168.933,201.844 170.667,201.877 175.617 C 201.916 181.505,201.280 182.981,199.027 182.234 C 197.647 181.775,197.589 181.379,197.666 172.943 C 197.754 163.280,197.158 164.222,203.074 164.397 C 205.583 164.471,207.806 164.425,208.013 164.294 C 208.531 163.966,209.871 163.989,210.886 164.343 M246.019 164.420 C 246.415 164.625,246.967 165.044,247.246 165.352 C 247.893 166.068,247.922 166.065,249.460 165.108 C 253.997 162.288,259.851 165.077,259.318 169.805 C 259.018 172.470,256.484 172.904,255.464 170.466 C 254.549 168.275,252.167 167.990,250.491 169.870 C 250.212 170.183,249.875 170.439,249.741 170.439 C 249.608 170.439,249.061 170.889,248.527 171.438 L 247.555 172.437 247.546 176.575 C 247.535 181.232,247.311 181.960,245.782 182.296 C 245.069 182.452,244.817 182.356,244.129 181.669 L 243.318 180.857 243.349 173.052 L 243.380 165.246 244.075 164.647 C 244.889 163.945,245.062 163.925,246.019 164.420 M275.419 164.637 C 276.332 165.235,276.431 165.951,276.431 171.905 C 276.431 177.503,276.413 177.437,278.038 177.729 C 280.580 178.186,281.606 181.000,279.608 182.034 C 278.442 182.637,269.987 182.567,268.708 181.944 C 266.603 180.918,267.926 177.896,270.480 177.896 C 271.986 177.896,272.170 177.394,272.170 173.282 C 272.170 169.100,271.980 168.575,270.459 168.575 C 268.737 168.575,267.254 166.703,267.816 165.239 C 268.282 164.024,273.815 163.586,275.419 164.637 M299.006 164.407 C 300.183 164.713,300.616 164.709,301.887 164.386 C 303.481 163.980,304.193 164.288,304.964 165.719 C 305.160 166.082,305.304 178.817,305.198 186.418 C 305.183 187.505,303.506 189.083,302.619 188.845 C 301.285 188.489,300.814 187.464,300.666 184.603 L 300.533 182.024 299.467 182.088 C 298.881 182.123,297.629 182.225,296.685 182.314 C 294.611 182.510,293.316 182.165,291.786 181.010 C 289.336 179.161,289.358 179.227,289.264 173.542 C 289.161 167.294,289.081 167.535,292.113 165.060 C 293.326 164.070,296.534 163.766,299.006 164.407 M315.011 164.514 C 315.975 165.321,316.378 167.701,316.378 172.584 L 316.378 177.013 317.304 177.512 C 318.511 178.162,320.087 177.781,321.899 176.401 C 324.069 174.748,324.097 174.659,324.099 169.482 C 324.101 164.234,324.245 163.851,326.081 164.195 C 327.783 164.515,327.865 164.930,327.865 173.236 C 327.865 181.732,327.775 182.157,325.978 182.157 C 325.174 182.157,324.815 181.999,324.390 181.460 C 323.761 180.660,323.475 180.682,321.039 181.726 C 317.827 183.102,314.154 182.296,312.858 179.931 C 312.154 178.647,311.483 166.620,312.054 165.513 C 312.820 164.026,313.967 163.639,315.011 164.514 M345.642 164.330 C 346.836 164.606,347.556 165.058,349.459 166.732 L 350.543 167.685 350.672 170.369 C 350.942 175.973,350.880 176.032,344.660 176.032 C 341.329 176.032,339.825 176.127,339.601 176.352 C 338.564 177.388,340.302 177.896,344.878 177.896 C 349.854 177.896,350.917 178.419,350.549 180.685 C 350.302 182.207,349.516 182.423,344.247 182.423 C 338.733 182.423,337.458 181.903,335.485 178.847 L 334.637 177.534 334.638 173.254 L 334.640 168.975 335.429 167.731 C 337.404 164.619,341.286 163.326,345.642 164.330 M226.166 168.873 C 225.210 169.149,224.407 170.152,224.548 170.892 C 224.705 171.717,231.828 171.885,232.140 171.071 C 232.868 169.176,229.460 167.922,226.166 168.873 M294.391 168.990 C 292.825 169.763,292.279 174.698,293.550 176.592 C 294.826 178.492,298.001 178.262,299.738 176.143 C 302.774 172.437,298.633 166.897,294.391 168.990 M340.352 168.907 C 339.236 169.309,338.672 170.479,339.295 171.097 C 339.711 171.510,345.101 171.727,346.005 171.367 C 346.612 171.125,346.601 170.126,345.983 169.362 C 345.385 168.625,341.915 168.344,340.352 168.907 " stroke="none" fill="#0d0c0c" fill-rule="evenodd"></path><path id="path1" d="M0.000 133.156 L 0.000 266.312 200.000 266.312 L 400.000 266.312 400.000 133.156 L 400.000 0.000 200.000 0.000 L 0.000 0.000 0.000 133.156 M188.520 38.206 C 189.147 38.833,189.333 63.374,188.715 63.887 C 188.410 64.140,184.172 64.215,170.258 64.214 C 160.325 64.214,151.358 64.296,150.333 64.397 L 148.469 64.581 148.336 69.029 C 148.242 72.170,148.101 73.578,147.856 73.822 C 147.232 74.446,125.961 74.465,125.192 73.843 C 124.356 73.166,124.264 57.340,125.089 56.252 L 125.566 55.624 134.383 55.648 C 141.355 55.667,143.260 55.599,143.489 55.323 C 143.681 55.093,143.807 52.158,143.860 46.702 C 143.917 40.904,144.034 38.318,144.252 38.056 C 144.754 37.452,187.911 37.597,188.520 38.206 M244.161 65.420 L 244.779 66.120 244.693 79.404 L 244.607 92.688 245.539 92.947 C 246.052 93.090,247.553 93.207,248.875 93.208 C 253.613 93.210,253.262 91.222,253.262 118.083 C 253.262 140.640,253.244 141.056,252.212 142.144 L 251.644 142.743 207.810 142.743 C 160.664 142.743,161.917 142.706,161.917 144.083 C 161.917 144.717,162.045 144.826,162.959 144.972 C 164.259 145.180,318.430 145.187,319.209 144.979 C 319.678 144.854,319.807 144.556,319.954 143.259 C 320.244 140.693,318.841 140.879,337.976 140.879 C 356.912 140.879,355.294 140.662,355.526 143.232 C 355.696 145.114,355.858 145.165,361.518 145.097 C 366.250 145.041,366.813 145.183,367.075 146.495 C 367.534 148.788,367.254 193.004,366.778 193.577 C 366.152 194.329,377.284 194.269,249.467 194.202 C 135.948 194.141,135.551 194.139,135.020 193.609 C 134.496 193.085,134.487 192.721,134.487 171.786 C 134.487 150.641,134.484 150.490,133.928 149.549 L 133.369 148.602 102.403 148.602 C 74.535 148.602,71.402 148.560,71.088 148.182 C 70.856 147.902,70.755 147.059,70.785 145.656 C 70.849 142.643,71.159 142.743,61.780 142.743 C 57.621 142.743,54.085 142.632,53.825 142.493 C 52.800 141.944,52.348 140.243,52.707 138.279 C 53.348 134.768,52.996 106.209,52.300 105.279 L 51.738 104.527 48.039 104.618 C 35.724 104.919,35.431 104.894,35.411 103.522 C 35.403 102.953,35.407 85.023,35.415 84.627 C 35.437 83.626,35.589 83.622,73.586 83.622 L 110.181 83.622 110.909 84.194 L 111.636 84.766 111.524 88.122 C 111.462 89.968,111.320 91.682,111.208 91.931 C 111.050 92.285,111.221 92.474,111.993 92.796 C 113.292 93.339,210.930 93.435,212.115 92.895 L 212.804 92.581 212.770 79.120 L 212.737 65.658 213.363 65.119 C 213.977 64.591,214.265 64.582,228.765 64.650 L 243.542 64.719 244.161 65.420 M293.263 101.144 C 293.507 101.389,293.634 102.671,293.695 105.523 C 293.847 112.614,294.008 112.460,286.601 112.306 C 280.187 112.172,280.758 112.714,280.650 106.658 C 280.562 101.703,280.623 101.324,281.585 100.923 C 282.515 100.535,292.849 100.731,293.263 101.144 M96.566 101.353 C 96.334 101.960,96.375 130.569,96.609 130.918 C 96.716 131.078,97.129 131.289,97.526 131.386 C 98.781 131.693,98.910 131.046,98.923 124.368 C 98.933 119.166,98.996 118.270,99.399 117.577 C 99.655 117.137,99.864 116.641,99.865 116.474 C 99.870 115.618,102.695 113.258,103.940 113.071 C 106.346 112.711,109.454 113.911,109.454 115.201 C 109.454 115.352,109.754 115.882,110.120 116.378 L 110.786 117.281 110.786 123.904 C 110.786 131.713,111.035 132.498,112.983 130.813 C 114.047 129.892,113.472 114.565,112.343 113.767 C 112.072 113.575,111.851 113.266,111.851 113.079 C 111.851 111.075,105.290 110.010,102.907 111.627 C 99.535 113.915,98.741 112.984,98.902 106.930 C 99.043 101.655,98.886 100.932,97.606 100.932 C 97.051 100.932,96.669 101.087,96.566 101.353 M79.694 102.452 C 79.364 102.515,79.095 102.664,79.095 102.782 C 79.095 103.018,78.049 103.460,76.903 103.710 C 76.504 103.797,75.905 104.106,75.572 104.396 C 72.984 106.652,71.626 108.006,71.475 108.484 C 71.377 108.792,71.068 109.353,70.789 109.731 C 70.509 110.109,70.109 111.404,69.898 112.609 C 69.688 113.814,69.394 115.027,69.245 115.305 C 68.482 116.730,69.720 123.670,71.020 125.254 C 71.360 125.668,71.710 126.292,71.798 126.642 C 71.885 126.992,72.168 127.345,72.425 127.426 C 72.683 127.508,73.000 127.803,73.131 128.081 C 73.452 128.765,76.073 130.490,77.083 130.681 C 77.530 130.766,78.341 131.058,78.884 131.330 C 80.583 132.180,86.950 132.050,88.922 131.126 C 90.784 130.253,90.668 130.401,90.244 129.443 C 89.833 128.515,89.126 128.384,88.344 129.093 C 86.276 130.964,76.770 128.731,75.251 126.017 C 75.115 125.773,74.801 125.391,74.555 125.170 C 74.309 124.948,73.952 124.348,73.761 123.835 C 73.570 123.322,73.224 122.681,72.992 122.410 C 72.651 122.012,72.554 121.057,72.486 117.465 L 72.403 113.015 73.324 111.217 C 73.830 110.228,74.467 109.177,74.739 108.881 C 76.302 107.179,77.712 105.962,78.296 105.812 C 78.662 105.718,79.441 105.390,80.027 105.084 C 81.653 104.234,87.056 104.261,88.447 105.126 C 89.663 105.883,89.651 105.884,90.151 104.917 C 90.630 103.992,90.015 102.836,88.861 102.490 C 88.224 102.299,80.650 102.267,79.694 102.452 M204.072 105.512 C 203.920 105.703,203.737 106.731,203.664 107.796 C 203.509 110.074,203.149 110.600,201.448 111.028 C 199.719 111.464,199.689 112.707,201.398 113.138 C 203.702 113.720,203.576 113.264,203.750 121.616 C 203.901 128.807,204.101 130.493,204.805 130.493 C 204.965 130.493,205.488 130.792,205.968 131.158 C 207.281 132.160,210.625 132.149,211.417 131.141 C 212.308 130.009,211.520 129.441,209.042 129.430 C 208.607 129.428,208.000 129.055,207.347 128.387 L 206.331 127.346 206.335 121.263 C 206.337 117.917,206.351 114.913,206.365 114.587 C 206.409 113.594,207.500 113.115,209.794 113.080 L 211.851 113.049 211.851 112.117 L 211.851 111.185 209.720 111.051 C 206.376 110.840,206.298 110.752,206.272 107.190 L 206.258 105.326 205.303 105.246 C 204.750 105.200,204.232 105.312,204.072 105.512 M122.872 111.098 C 121.788 111.297,121.446 111.489,121.194 112.042 C 120.606 113.331,121.225 113.556,123.955 113.044 C 129.271 112.048,131.812 113.537,131.585 117.516 C 131.548 118.159,128.335 119.132,124.333 119.712 C 123.802 119.789,123.047 120.149,122.655 120.512 C 122.264 120.875,121.800 121.172,121.624 121.172 C 121.176 121.172,119.993 122.728,119.620 123.808 C 118.099 128.213,120.723 131.824,125.445 131.824 C 126.756 131.824,127.830 131.724,127.830 131.601 C 127.830 130.580,131.392 130.151,133.062 130.970 C 133.838 131.350,134.566 131.568,134.680 131.454 C 135.177 130.957,134.756 115.531,134.225 114.785 C 133.949 114.399,133.641 113.751,133.539 113.346 C 133.432 112.919,133.087 112.509,132.716 112.368 C 132.364 112.234,132.010 111.951,131.929 111.739 C 131.600 110.883,126.156 110.497,122.872 111.098 M149.134 110.978 C 148.915 111.061,148.269 111.495,147.699 111.941 C 146.486 112.892,144.987 113.015,144.431 112.209 C 143.440 110.771,142.951 110.698,142.232 111.879 C 141.779 112.625,141.766 112.796,142.103 113.602 C 142.579 114.741,142.646 128.064,142.182 129.394 C 141.673 130.854,143.862 132.045,144.807 130.822 C 145.052 130.505,145.140 128.723,145.140 124.087 L 145.140 117.783 145.939 116.778 C 146.378 116.225,146.738 115.612,146.738 115.416 C 146.738 115.220,147.076 114.885,147.489 114.672 C 147.903 114.458,148.397 114.095,148.587 113.866 C 148.778 113.636,149.128 113.448,149.367 113.447 C 150.834 113.442,151.803 112.896,151.630 112.171 C 151.318 110.867,150.484 110.469,149.134 110.978 M160.852 111.036 C 160.156 111.249,158.248 112.429,157.790 112.930 C 157.643 113.090,157.245 113.504,156.905 113.849 C 156.306 114.458,155.249 116.992,154.685 119.174 C 154.266 120.794,154.585 124.387,155.243 125.468 C 155.544 125.961,155.791 126.583,155.791 126.851 C 155.793 127.639,158.665 130.457,159.770 130.754 C 160.301 130.897,160.971 131.193,161.260 131.411 C 162.757 132.542,170.899 131.508,171.183 130.150 C 171.364 129.289,169.890 128.835,168.842 129.429 C 167.687 130.083,163.375 129.928,161.773 129.174 C 158.691 127.723,156.404 123.477,157.951 122.079 C 158.469 121.611,159.019 121.569,165.056 121.542 C 171.503 121.513,171.607 121.503,172.085 120.913 C 173.832 118.755,170.439 111.757,167.290 111.026 C 166.095 110.748,161.768 110.755,160.852 111.036 M185.716 111.039 C 185.257 111.149,184.538 111.477,184.118 111.768 C 182.660 112.779,180.880 112.682,180.279 111.558 C 180.057 111.143,179.773 111.040,179.025 111.103 L 178.058 111.185 178.103 120.905 C 178.127 126.252,178.151 130.704,178.155 130.800 C 178.176 131.298,179.833 131.534,180.583 131.146 L 181.358 130.745 181.358 124.112 C 181.358 116.645,181.358 116.644,183.089 114.788 C 184.978 112.762,188.772 112.261,190.263 113.839 C 192.610 116.324,192.571 116.149,192.501 123.842 C 192.434 131.139,192.437 131.158,193.522 131.366 C 194.137 131.483,194.512 131.351,195.690 130.601 C 196.115 130.329,195.667 117.127,195.199 116.159 C 194.910 115.561,194.674 114.801,194.674 114.470 C 194.674 113.544,192.026 111.168,190.761 110.959 C 189.450 110.742,186.783 110.785,185.716 111.039 M221.459 111.084 C 220.885 111.219,220.249 111.566,220.046 111.856 C 219.843 112.146,219.546 112.383,219.386 112.383 C 218.860 112.383,217.442 114.087,216.705 115.603 C 215.047 119.013,215.028 124.470,216.665 127.063 C 217.020 127.625,217.310 128.157,217.310 128.245 C 217.310 128.782,219.715 130.535,220.942 130.891 C 221.713 131.115,222.416 131.417,222.505 131.561 C 222.896 132.193,228.917 131.867,230.551 131.126 C 232.542 130.224,232.499 130.305,231.437 129.438 L 230.521 128.690 229.752 129.258 C 229.082 129.753,228.649 129.823,226.409 129.795 C 223.921 129.763,223.455 129.654,221.679 128.681 C 220.881 128.243,219.174 126.489,219.174 126.105 C 219.174 126.001,218.935 125.612,218.642 125.239 C 217.920 124.321,217.934 122.744,218.671 122.079 C 219.189 121.610,219.731 121.570,225.764 121.551 L 232.296 121.530 232.794 120.846 C 233.219 120.264,233.255 119.971,233.038 118.870 C 232.898 118.158,232.647 116.877,232.479 116.022 C 232.273 114.970,231.968 114.288,231.534 113.911 C 231.181 113.604,230.892 113.198,230.892 113.008 C 230.892 112.819,230.533 112.478,230.093 112.250 C 229.654 112.023,229.294 111.726,229.294 111.590 C 229.294 110.872,223.862 110.521,221.459 111.084 M164.980 112.655 C 165.273 112.778,165.962 113.016,166.511 113.185 C 167.061 113.353,167.510 113.596,167.510 113.725 C 167.510 113.854,167.793 114.234,168.139 114.570 C 169.912 116.289,170.145 117.680,168.899 119.108 C 168.487 119.581,159.728 119.841,158.613 119.413 C 157.862 119.125,157.550 117.264,158.108 116.399 C 159.696 113.940,160.194 113.451,161.518 113.047 C 162.250 112.824,163.018 112.535,163.225 112.404 C 163.596 112.169,163.940 112.219,164.980 112.655 M226.635 112.913 C 229.518 113.956,231.365 117.503,229.827 119.041 C 229.334 119.534,228.939 119.574,224.501 119.574 C 219.249 119.574,219.007 119.504,218.361 117.805 C 218.088 117.088,218.034 117.177,220.496 114.305 C 221.894 112.676,224.407 112.106,226.635 112.913 M130.776 120.648 C 132.026 121.317,132.696 123.844,131.985 125.207 C 131.782 125.596,131.477 126.337,131.306 126.854 C 131.008 127.757,130.389 128.293,128.257 129.494 C 124.532 131.591,120.211 126.804,122.902 123.561 C 124.706 121.387,129.111 119.757,130.776 120.648 M272.366 157.723 C 271.768 158.177,271.309 159.451,271.664 159.670 C 271.814 159.763,272.046 160.127,272.180 160.479 C 272.833 162.195,275.640 160.573,275.232 158.716 C 274.963 157.493,273.389 156.947,272.366 157.723 M230.759 158.323 C 230.320 158.687,229.819 158.986,229.648 158.987 C 229.476 158.987,228.996 159.266,228.582 159.605 C 228.168 159.945,227.440 160.378,226.964 160.570 C 225.714 161.071,225.656 162.716,226.887 162.716 C 227.341 162.716,227.893 162.483,228.187 162.167 C 228.469 161.865,229.228 161.459,229.874 161.264 C 230.520 161.070,231.509 160.598,232.073 160.216 C 232.636 159.833,233.208 159.521,233.343 159.521 C 233.478 159.521,233.551 159.131,233.506 158.655 C 233.392 157.481,231.981 157.310,230.759 158.323 M104.165 164.823 L 104.794 165.333 104.794 174.668 C 104.794 183.274,104.756 184.040,104.318 184.478 C 103.568 185.228,77.765 185.292,77.089 184.545 C 76.541 183.939,76.416 165.870,76.954 164.866 C 77.399 164.034,103.141 163.994,104.165 164.823 M160.872 165.029 C 160.516 165.102,159.955 165.340,159.623 165.557 C 157.755 166.781,155.221 166.749,154.174 165.488 C 153.701 164.918,153.130 165.040,153.119 165.712 C 153.023 171.448,153.097 180.824,153.240 181.055 C 153.515 181.500,153.770 181.432,154.555 180.705 L 155.260 180.052 155.260 175.481 L 155.260 170.911 156.341 169.922 C 159.203 167.306,161.809 166.666,163.473 168.169 L 164.498 169.095 164.682 174.699 C 164.892 181.060,164.898 181.092,165.924 181.092 C 166.952 181.092,167.091 180.024,166.914 173.510 L 166.776 168.423 165.959 167.101 C 164.815 165.250,163.124 164.561,160.872 165.029 M176.177 165.792 C 175.863 166.543,175.836 167.241,176.035 169.445 C 176.170 170.944,176.286 173.489,176.292 175.100 C 176.306 178.378,176.507 180.027,176.894 180.027 C 177.037 180.027,177.510 180.326,177.945 180.692 C 179.189 181.739,182.400 181.663,183.869 180.552 C 185.510 179.310,188.016 179.609,188.016 181.046 C 188.016 181.589,189.049 181.383,189.374 180.775 C 189.709 180.149,189.806 166.936,189.482 165.918 C 189.259 165.215,188.321 164.684,188.158 165.168 C 188.094 165.358,188.006 167.690,187.962 170.352 C 187.879 175.437,187.565 176.565,186.236 176.565 C 186.040 176.565,185.672 176.813,185.417 177.116 C 185.162 177.420,184.594 177.842,184.154 178.055 C 183.715 178.269,183.056 178.625,182.690 178.847 C 182.248 179.114,181.583 179.213,180.714 179.141 C 178.482 178.954,178.166 178.001,178.164 171.460 C 178.162 165.752,177.264 163.190,176.177 165.792 M252.114 165.039 C 251.702 165.101,250.936 165.443,250.412 165.798 C 249.888 166.154,249.336 166.445,249.185 166.445 C 249.034 166.445,248.699 166.636,248.441 166.869 C 247.959 167.305,245.539 166.052,245.539 165.367 C 245.539 164.898,244.740 165.108,244.732 165.579 C 244.588 173.655,244.690 180.882,244.953 181.145 C 245.989 182.181,246.564 180.456,246.653 176.045 L 246.738 171.856 247.936 170.746 C 248.595 170.135,249.435 169.337,249.803 168.972 C 250.171 168.607,250.571 168.309,250.693 168.309 C 250.815 168.309,251.219 168.069,251.592 167.776 C 253.205 166.507,255.946 167.769,256.389 169.985 C 256.587 170.974,256.690 171.095,257.268 171.016 C 259.101 170.765,258.950 168.152,257.003 166.408 C 255.352 164.929,254.477 164.684,252.114 165.039 M269.515 165.109 C 268.406 165.794,269.203 167.244,270.687 167.244 C 271.098 167.244,271.795 167.628,272.436 168.207 L 273.502 169.170 273.502 173.293 L 273.502 177.417 272.597 178.322 C 271.883 179.036,271.474 179.229,270.666 179.232 C 269.225 179.238,268.880 179.520,269.098 180.514 L 269.278 181.334 273.853 181.413 C 279.147 181.504,278.995 181.525,279.215 180.648 C 279.447 179.726,278.996 179.285,277.606 179.077 C 275.289 178.730,275.100 178.203,275.100 172.102 C 275.100 166.238,274.894 165.139,273.781 165.072 C 271.953 164.962,269.722 164.981,269.515 165.109 M295.258 165.032 C 293.857 165.154,292.295 166.023,290.879 167.467 L 290.013 168.350 290.013 173.265 C 290.013 177.440,290.075 178.203,290.423 178.336 C 290.648 178.423,291.010 178.838,291.228 179.260 C 291.446 179.682,291.774 180.027,291.956 180.027 C 292.138 180.027,292.727 180.326,293.266 180.692 C 294.440 181.490,297.510 181.654,298.418 180.967 C 300.385 179.479,301.557 180.725,301.594 184.343 C 301.623 187.248,301.624 187.252,302.844 187.309 L 303.728 187.350 303.728 176.511 C 303.728 164.736,303.739 164.817,302.298 165.535 C 301.158 166.104,299.743 166.123,299.140 165.578 C 298.586 165.076,297.120 164.870,295.258 165.032 M341.376 165.034 C 340.049 165.111,339.492 165.266,339.137 165.657 C 338.878 165.944,338.528 166.178,338.360 166.178 C 336.754 166.178,335.869 168.853,335.936 173.502 C 336.004 178.188,336.216 178.851,338.104 180.263 L 339.569 181.358 344.320 181.358 L 349.070 181.358 349.404 180.551 C 349.885 179.390,349.829 179.374,344.606 179.228 C 339.143 179.075,338.482 178.817,338.482 176.844 C 338.482 174.791,338.715 174.700,343.966 174.700 C 349.966 174.700,349.933 174.717,349.933 171.638 C 349.933 170.391,349.789 169.160,349.601 168.802 C 348.969 167.600,348.032 166.445,347.689 166.445 C 347.500 166.445,346.916 166.154,346.391 165.798 C 345.335 165.081,344.025 164.881,341.376 165.034 M199.134 165.676 L 198.402 166.223 198.402 173.134 C 198.402 180.509,198.542 181.358,199.759 181.358 C 200.455 181.358,200.518 180.876,200.597 174.906 L 200.666 169.651 201.382 168.936 C 202.249 168.070,203.522 167.984,204.279 168.741 C 204.777 169.240,204.789 169.488,204.564 174.578 C 204.340 179.621,204.354 179.931,204.845 180.626 C 206.241 182.601,206.726 180.929,206.613 174.543 L 206.525 169.598 207.394 168.820 C 209.185 167.220,209.902 167.918,210.189 171.544 C 210.637 177.192,210.685 178.684,210.432 179.136 C 210.186 179.576,211.194 181.358,211.689 181.358 C 212.089 181.358,212.844 179.508,212.634 179.043 C 212.515 178.778,212.350 175.898,212.267 172.643 L 212.117 166.724 211.235 165.918 C 210.164 164.940,208.804 164.831,207.979 165.656 C 207.366 166.269,205.979 166.179,204.820 165.450 C 204.271 165.105,203.976 165.097,202.755 165.389 C 201.660 165.652,201.174 165.660,200.653 165.422 C 199.836 165.050,200.014 165.020,199.134 165.676 M226.631 165.373 C 225.034 165.581,222.903 166.533,222.903 167.039 C 222.903 167.214,222.573 167.620,222.170 167.941 L 221.438 168.525 221.438 173.277 L 221.438 178.029 222.636 179.152 C 223.296 179.769,224.090 180.521,224.401 180.822 C 224.938 181.342,225.230 181.366,229.982 181.298 L 234.996 181.225 235.166 180.559 C 235.481 179.319,235.152 179.228,230.381 179.228 L 225.940 179.228 224.954 178.218 C 224.241 177.488,223.968 176.977,223.968 176.373 C 223.968 174.794,224.283 174.700,229.597 174.700 C 232.233 174.700,234.605 174.585,234.869 174.444 C 235.997 173.840,235.709 168.752,234.483 167.615 C 234.119 167.278,233.822 166.880,233.822 166.729 C 233.822 166.578,233.519 166.379,233.149 166.286 C 232.779 166.193,232.355 165.891,232.207 165.615 C 231.914 165.068,229.715 164.972,226.631 165.373 M313.083 165.945 C 312.870 167.010,312.871 170.425,313.085 175.124 L 313.254 178.828 314.549 180.093 L 315.844 181.358 317.734 181.358 C 319.193 181.358,319.794 181.238,320.368 180.829 C 321.854 179.771,323.639 179.623,325.037 180.443 C 326.820 181.487,326.810 181.522,326.933 173.725 C 327.053 166.086,326.956 165.289,325.890 165.163 C 324.945 165.051,324.785 165.757,325.009 169.058 C 325.244 172.517,324.859 175.498,324.108 176.032 C 323.799 176.252,323.061 176.821,322.467 177.297 C 321.873 177.773,321.268 178.162,321.122 178.162 C 320.976 178.162,320.552 178.402,320.179 178.695 C 319.014 179.612,317.312 179.356,315.952 178.059 C 315.386 177.520,315.358 177.265,315.265 171.986 C 315.171 166.597,315.155 166.461,314.529 165.795 C 313.682 164.893,313.285 164.935,313.083 165.945 M231.577 167.976 C 233.253 169.040,233.818 170.943,232.747 171.913 C 232.210 172.398,225.819 172.578,224.434 172.147 C 222.444 171.526,223.604 168.713,226.365 167.462 C 227.493 166.951,230.416 167.239,231.577 167.976 M298.488 167.964 C 300.338 169.034,301.413 170.310,301.618 171.680 C 302.500 177.561,296.935 181.489,292.991 177.770 L 292.011 176.845 292.011 173.575 C 292.011 169.558,292.142 169.061,293.407 168.275 C 295.496 166.979,296.661 166.907,298.488 167.964 M345.212 167.487 C 348.364 168.685,348.678 172.191,345.648 172.360 C 339.835 172.685,338.216 172.244,338.216 170.338 C 338.216 167.952,342.183 166.335,345.212 167.487 M139.796 196.665 C 141.168 197.101,141.412 197.922,141.407 202.100 C 141.402 207.579,142.302 207.171,130.156 207.198 C 119.492 207.220,119.662 207.258,119.937 204.965 C 120.028 204.212,120.103 202.086,120.104 200.240 C 120.106 197.131,120.146 196.868,120.645 196.645 C 121.245 196.378,138.948 196.396,139.796 196.665 M298.431 200.775 C 299.311 201.621,299.334 202.062,299.333 217.676 C 299.331 232.038,299.249 233.640,298.461 234.718 C 298.157 235.134,288.195 235.389,281.035 235.163 C 280.192 235.137,280.136 234.031,280.139 217.505 C 280.143 201.757,280.167 200.912,280.631 200.533 C 281.501 199.821,297.669 200.041,298.431 200.775 M255.773 203.881 C 256.448 204.555,256.384 211.727,255.698 212.348 C 254.946 213.029,187.122 213.021,186.369 212.339 C 185.676 211.712,185.640 204.707,186.326 203.949 C 186.960 203.248,255.074 203.181,255.773 203.881 " stroke="none" fill="#fbfbfb" fill-rule="evenodd"></path><path id="path2" d="M125.140 56.091 C 124.416 56.961,124.457 73.245,125.184 73.835 C 125.710 74.262,126.620 74.299,136.048 74.274 C 147.279 74.245,147.504 74.224,148.030 73.131 C 148.522 72.111,148.187 56.987,147.657 56.262 C 147.138 55.552,125.722 55.390,125.140 56.091 M213.700 65.188 C 213.342 65.376,213.050 65.676,213.052 65.854 C 213.053 66.032,213.024 72.440,212.985 80.093 L 212.916 94.008 228.695 94.008 L 244.474 94.008 244.474 79.944 C 244.474 69.108,244.398 65.779,244.141 65.436 C 243.695 64.840,214.813 64.605,213.700 65.188 M70.968 142.414 C 70.454 142.786,70.813 148.037,71.373 148.336 C 71.677 148.499,83.584 148.621,103.317 148.665 L 134.777 148.735 134.923 148.069 C 135.210 146.766,135.355 146.334,135.618 146.005 C 135.824 145.748,138.641 145.672,148.069 145.672 C 162.727 145.672,161.844 145.783,161.961 143.926 C 162.039 142.687,161.982 142.485,161.518 142.360 C 160.694 142.140,71.274 142.193,70.968 142.414 M120.603 196.753 C 119.782 197.329,119.850 206.236,120.680 206.679 C 121.668 207.208,140.338 207.014,140.941 206.468 C 142.057 205.458,141.515 197.766,140.271 196.951 C 139.399 196.379,121.394 196.198,120.603 196.753 M186.326 203.949 C 185.606 204.745,185.681 211.513,186.418 212.250 C 186.945 212.777,187.306 212.783,221.157 212.783 L 255.363 212.783 255.777 212.191 C 256.385 211.323,256.382 204.489,255.773 203.881 C 255.074 203.181,186.960 203.248,186.326 203.949 " stroke="none" fill="#dabc0f" fill-rule="evenodd"></path><path id="path3" d="M144.252 38.056 C 144.034 38.318,143.917 40.904,143.860 46.702 C 143.813 51.561,143.672 55.103,143.519 55.287 C 143.325 55.521,143.772 55.626,145.291 55.703 C 148.083 55.844,148.069 55.818,148.069 60.936 C 148.069 64.728,148.103 65.017,148.510 64.680 C 148.872 64.379,152.418 64.302,168.656 64.247 C 183.178 64.198,188.460 64.098,188.736 63.870 C 189.335 63.372,189.129 38.814,188.520 38.206 C 187.911 37.597,144.754 37.452,144.252 38.056 M213.360 65.121 L 212.732 65.662 212.769 77.761 C 212.790 84.415,212.867 89.920,212.940 89.993 C 213.014 90.067,213.063 84.738,213.049 78.153 C 213.035 71.567,213.029 66.033,213.036 65.855 C 213.070 65.012,214.182 64.946,228.976 64.911 C 237.134 64.892,242.610 64.840,241.145 64.797 C 228.546 64.423,213.974 64.594,213.360 65.121 M244.597 78.296 C 244.597 85.107,244.631 87.893,244.674 84.487 C 244.716 81.082,244.716 75.509,244.674 72.104 C 244.631 68.698,244.597 71.485,244.597 78.296 M36.152 84.040 C 35.749 84.259,35.418 84.524,35.415 84.629 C 35.407 85.021,35.403 102.953,35.411 103.522 C 35.431 104.894,35.724 104.919,48.039 104.618 L 51.738 104.527 52.300 105.279 C 52.996 106.209,53.348 134.768,52.707 138.279 C 52.348 140.243,52.800 141.944,53.825 142.493 C 54.085 142.632,57.621 142.743,61.780 142.743 C 67.950 142.743,69.405 142.814,70.048 143.147 L 70.829 143.550 70.557 142.836 C 70.013 141.404,69.970 141.397,61.983 141.463 C 55.789 141.514,54.533 141.461,54.223 141.135 C 53.522 140.397,53.444 95.158,54.143 94.459 C 54.679 93.923,54.785 93.922,99.577 94.101 C 157.814 94.333,211.758 94.344,212.331 94.125 C 212.589 94.025,212.783 93.666,212.783 93.285 C 212.783 92.742,212.697 92.661,212.317 92.848 C 212.061 92.973,189.607 93.106,162.419 93.144 C 109.135 93.217,110.615 93.252,111.208 91.931 C 111.320 91.682,111.462 89.968,111.524 88.122 L 111.636 84.766 110.909 84.194 L 110.181 83.622 73.533 83.633 C 41.563 83.642,36.791 83.694,36.152 84.040 M244.474 93.148 C 244.474 94.182,245.174 94.412,248.111 94.340 C 252.404 94.235,251.931 91.312,251.931 117.926 C 251.931 140.334,251.926 140.517,251.384 141.099 L 250.838 141.685 207.206 141.674 C 162.249 141.662,162.453 141.658,162.059 142.684 C 161.829 143.282,162.063 143.370,163.009 143.040 C 163.623 142.826,176.146 142.743,207.752 142.743 L 251.644 142.743 252.212 142.144 C 253.244 141.056,253.262 140.640,253.262 118.083 C 253.262 91.042,253.724 93.454,248.495 93.181 C 246.796 93.092,245.196 92.929,244.940 92.819 C 244.586 92.667,244.474 92.746,244.474 93.148 M96.246 100.427 C 95.597 101.145,95.315 130.318,95.945 131.558 C 96.524 132.697,99.509 132.532,100.015 131.334 C 100.118 131.091,100.185 128.196,100.164 124.900 C 100.109 116.099,101.128 113.977,105.408 113.984 C 108.921 113.989,109.706 115.932,109.515 124.137 C 109.341 131.593,109.557 132.357,111.838 132.357 C 114.605 132.357,114.704 132.057,114.631 123.922 C 114.554 115.351,113.398 111.465,110.675 110.622 C 110.370 110.527,109.608 110.212,108.983 109.920 C 107.345 109.157,105.331 109.369,102.843 110.567 L 100.893 111.506 100.491 110.893 C 100.167 110.399,100.104 109.465,100.163 106.072 C 100.203 103.758,100.144 101.593,100.032 101.262 C 99.593 99.960,97.156 99.423,96.246 100.427 M281.585 100.923 C 280.623 101.324,280.562 101.703,280.650 106.658 C 280.758 112.714,280.187 112.172,286.601 112.306 C 294.008 112.460,293.847 112.614,293.695 105.523 C 293.634 102.671,293.507 101.389,293.263 101.144 C 292.849 100.731,282.515 100.535,281.585 100.923 M98.752 101.703 C 98.912 102.161,98.973 104.288,98.902 106.930 C 98.741 112.984,99.535 113.915,102.907 111.627 C 105.290 110.010,111.851 111.075,111.851 113.079 C 111.851 113.266,112.072 113.575,112.343 113.767 C 113.472 114.565,114.047 129.892,112.983 130.813 C 111.035 132.498,110.786 131.713,110.786 123.904 L 110.786 117.281 110.120 116.378 C 109.754 115.882,109.454 115.352,109.454 115.201 C 109.454 113.911,106.346 112.711,103.940 113.071 C 102.695 113.258,99.870 115.618,99.865 116.474 C 99.864 116.641,99.655 117.137,99.399 117.577 C 98.996 118.270,98.933 119.166,98.923 124.368 C 98.910 131.046,98.781 131.693,97.526 131.386 C 97.129 131.289,96.716 131.078,96.609 130.918 C 96.375 130.569,96.334 101.960,96.566 101.353 C 96.871 100.559,98.441 100.811,98.752 101.703 M292.567 101.551 L 293.286 102.169 293.231 106.103 C 293.178 109.945,292.968 111.234,292.327 111.642 C 291.866 111.935,281.963 111.888,281.491 111.591 C 281.017 111.292,280.654 103.087,281.070 102.060 C 281.597 100.758,291.154 100.335,292.567 101.551 M82.157 101.464 C 77.045 101.869,71.392 105.356,70.067 108.921 C 69.877 109.434,69.433 110.454,69.082 111.189 C 68.711 111.962,68.437 113.027,68.430 113.719 C 68.424 114.376,68.326 115.393,68.214 115.979 C 67.109 121.711,70.892 128.871,76.431 131.531 L 78.429 132.490 83.755 132.490 C 90.516 132.490,92.139 131.834,91.516 129.350 C 91.179 128.008,90.646 127.753,88.703 128.003 C 85.788 128.379,80.134 128.267,79.341 127.818 C 74.944 125.328,73.274 122.399,73.274 117.180 C 73.274 112.578,75.784 107.720,78.754 106.577 C 81.622 105.473,85.618 105.337,88.647 106.238 C 90.704 106.851,92.333 104.918,91.311 103.078 C 90.542 101.693,87.043 101.076,82.157 101.464 M88.861 102.490 C 90.015 102.836,90.630 103.992,90.151 104.917 C 89.651 105.884,89.663 105.883,88.447 105.126 C 87.056 104.261,81.653 104.234,80.027 105.084 C 79.441 105.390,78.662 105.718,78.296 105.812 C 77.712 105.962,76.302 107.179,74.739 108.881 C 74.467 109.177,73.830 110.228,73.324 111.217 L 72.403 113.015 72.486 117.465 C 72.554 121.057,72.651 122.012,72.992 122.410 C 73.224 122.681,73.570 123.322,73.761 123.835 C 73.952 124.348,74.309 124.948,74.555 125.170 C 74.801 125.391,75.115 125.773,75.251 126.017 C 76.770 128.731,86.276 130.964,88.344 129.093 C 89.126 128.384,89.833 128.515,90.244 129.443 C 90.668 130.401,90.784 130.253,88.922 131.126 C 86.950 132.050,80.583 132.180,78.884 131.330 C 78.341 131.058,77.530 130.766,77.083 130.681 C 76.073 130.490,73.452 128.765,73.131 128.081 C 73.000 127.803,72.683 127.508,72.425 127.426 C 72.168 127.345,71.885 126.992,71.798 126.642 C 71.710 126.292,71.360 125.668,71.020 125.254 C 69.720 123.670,68.482 116.730,69.245 115.305 C 69.394 115.027,69.688 113.814,69.898 112.609 C 70.109 111.404,70.509 110.109,70.789 109.731 C 71.068 109.353,71.377 108.792,71.475 108.484 C 71.626 108.006,72.984 106.652,75.572 104.396 C 75.905 104.106,76.504 103.797,76.903 103.710 C 78.049 103.460,79.095 103.018,79.095 102.782 C 79.095 102.331,87.489 102.079,88.861 102.490 M203.602 104.654 C 202.641 105.287,202.440 105.749,202.416 107.378 C 202.391 109.015,201.938 109.961,201.086 110.158 C 198.693 110.710,198.340 113.288,200.581 113.851 C 202.200 114.257,202.249 114.470,202.418 121.798 C 202.639 131.374,204.266 133.598,210.429 132.750 C 213.702 132.300,213.554 128.362,210.263 128.362 C 207.621 128.362,207.613 128.343,207.452 121.395 C 207.280 113.958,207.330 113.818,210.050 114.072 C 211.613 114.218,211.813 114.177,212.404 113.586 C 214.030 111.959,212.606 109.831,210.087 110.124 C 207.909 110.376,207.380 109.819,207.469 107.364 C 207.556 104.969,207.563 104.995,206.671 104.534 C 205.609 103.985,204.554 104.026,203.602 104.654 M206.272 107.190 C 206.298 110.752,206.376 110.840,209.720 111.051 L 211.851 111.185 211.851 112.117 L 211.851 113.049 209.794 113.080 C 207.500 113.115,206.409 113.594,206.365 114.587 C 206.351 114.913,206.337 117.917,206.335 121.263 L 206.331 127.346 207.347 128.387 C 208.000 129.055,208.607 129.428,209.042 129.430 C 211.520 129.441,212.308 130.009,211.417 131.141 C 210.625 132.149,207.281 132.160,205.968 131.158 C 205.488 130.792,204.965 130.493,204.805 130.493 C 204.101 130.493,203.901 128.807,203.750 121.616 C 203.576 113.264,203.702 113.720,201.398 113.138 C 199.689 112.707,199.719 111.464,201.448 111.028 C 203.149 110.600,203.509 110.074,203.664 107.796 C 203.822 105.480,204.040 105.140,205.303 105.246 L 206.258 105.326 206.272 107.190 M123.702 109.970 C 122.823 110.248,121.776 110.547,121.375 110.635 C 120.870 110.745,120.477 111.124,120.097 111.869 L 119.549 112.944 120.466 113.861 C 121.444 114.839,122.232 114.898,123.835 114.111 C 126.701 112.704,130.759 114.110,130.759 116.509 C 130.759 117.652,130.779 117.642,127.820 117.977 C 118.766 119.003,114.827 126.365,120.688 131.307 C 122.652 132.963,127.238 133.329,129.277 131.993 C 130.372 131.276,131.496 131.204,132.258 131.803 C 134.237 133.360,136.753 131.754,136.069 129.370 C 135.931 128.891,135.819 125.793,135.819 122.487 C 135.819 115.755,135.615 114.550,134.148 112.595 C 132.176 109.970,127.455 108.783,123.702 109.970 M148.560 110.218 C 147.878 110.607,147.089 111.133,146.808 111.388 C 146.154 111.979,145.789 111.973,145.355 111.361 C 144.547 110.222,142.705 109.899,141.696 110.719 C 141.128 111.181,141.123 111.278,141.115 121.039 C 141.106 132.844,140.984 132.357,143.963 132.357 C 146.065 132.357,146.225 131.793,146.086 124.867 L 145.971 119.108 146.721 117.522 C 147.427 116.029,148.571 114.782,149.237 114.779 C 152.292 114.764,153.784 111.876,151.675 110.061 C 150.785 109.296,150.119 109.329,148.560 110.218 M160.395 110.208 C 151.753 113.917,151.003 126.875,159.158 131.588 L 160.719 132.490 165.246 132.490 C 168.749 132.490,169.949 132.400,170.549 132.091 C 174.017 130.303,171.667 127.174,167.837 128.479 C 163.866 129.832,158.503 127.079,158.465 123.668 C 158.449 122.249,158.623 122.215,165.770 122.251 C 173.562 122.291,173.369 122.356,173.369 119.702 C 173.369 112.185,166.870 107.430,160.395 110.208 M185.115 110.264 C 184.032 110.681,183.027 111.141,182.880 111.288 C 182.702 111.466,182.161 111.324,181.253 110.859 C 179.785 110.108,178.288 110.019,177.658 110.646 C 177.349 110.952,177.150 124.405,177.354 131.206 C 177.376 131.953,178.217 132.357,179.747 132.357 C 182.079 132.357,182.003 132.610,182.157 124.355 C 182.275 118.061,182.345 117.172,182.756 116.717 C 183.013 116.435,183.222 116.071,183.222 115.910 C 183.222 115.182,185.620 113.981,187.076 113.981 C 188.866 113.981,189.773 114.488,190.895 116.115 L 191.764 117.377 191.731 124.212 C 191.691 132.277,191.712 132.357,193.859 132.357 C 196.720 132.357,196.805 132.126,196.800 124.447 C 196.795 117.888,196.518 115.709,195.455 113.842 C 193.228 109.929,189.417 108.610,185.115 110.264 M221.223 110.264 C 218.064 111.601,215.798 114.026,215.192 116.716 C 215.053 117.336,214.753 118.367,214.527 119.008 C 214.003 120.488,213.998 122.693,214.516 123.932 C 214.737 124.460,215.040 125.464,215.191 126.161 C 215.714 128.593,219.128 131.744,221.916 132.368 C 223.786 132.786,230.442 132.585,231.511 132.077 C 234.759 130.537,232.347 127.238,228.842 128.427 C 224.611 129.862,219.441 127.201,219.441 123.586 C 219.441 122.299,219.907 122.213,226.699 122.248 C 234.657 122.288,234.584 122.330,234.092 118.011 C 233.360 111.595,227.050 107.796,221.223 110.264 M130.458 111.069 C 131.185 111.225,131.847 111.527,131.929 111.739 C 132.010 111.951,132.364 112.234,132.716 112.368 C 133.087 112.509,133.432 112.919,133.539 113.346 C 133.641 113.751,133.949 114.399,134.225 114.785 C 134.756 115.531,135.177 130.957,134.680 131.454 C 134.566 131.568,133.838 131.350,133.062 130.970 C 131.392 130.151,127.830 130.580,127.830 131.601 C 127.830 131.724,126.756 131.824,125.445 131.824 C 120.723 131.824,118.099 128.213,119.620 123.808 C 119.993 122.728,121.176 121.172,121.624 121.172 C 121.800 121.172,122.264 120.875,122.655 120.512 C 123.047 120.149,123.802 119.789,124.333 119.712 C 128.335 119.132,131.548 118.159,131.585 117.516 C 131.812 113.537,129.271 112.048,123.955 113.044 C 121.225 113.556,120.606 113.331,121.194 112.042 C 121.699 110.932,127.150 110.360,130.458 111.069 M151.196 111.119 C 152.222 112.422,151.423 113.440,149.367 113.447 C 149.128 113.448,148.778 113.636,148.587 113.866 C 148.397 114.095,147.903 114.458,147.489 114.672 C 147.076 114.885,146.738 115.220,146.738 115.416 C 146.738 115.612,146.378 116.225,145.939 116.778 L 145.140 117.783 145.140 124.087 C 145.140 128.723,145.052 130.505,144.807 130.822 C 143.862 132.045,141.673 130.854,142.182 129.394 C 142.646 128.064,142.579 114.741,142.103 113.602 C 141.766 112.796,141.779 112.625,142.232 111.879 C 142.951 110.698,143.440 110.771,144.431 112.209 C 144.987 113.015,146.486 112.892,147.699 111.941 C 149.219 110.749,150.641 110.415,151.196 111.119 M167.290 111.026 C 170.439 111.757,173.832 118.755,172.085 120.913 C 171.607 121.503,171.503 121.513,165.056 121.542 C 159.019 121.569,158.469 121.611,157.951 122.079 C 156.404 123.477,158.691 127.723,161.773 129.174 C 163.375 129.928,167.687 130.083,168.842 129.429 C 169.890 128.835,171.364 129.289,171.183 130.150 C 170.899 131.508,162.757 132.542,161.260 131.411 C 160.971 131.193,160.301 130.897,159.770 130.754 C 158.665 130.457,155.793 127.639,155.791 126.851 C 155.791 126.583,155.544 125.961,155.243 125.468 C 154.585 124.387,154.266 120.794,154.685 119.174 C 155.249 116.992,156.306 114.458,156.905 113.849 C 157.245 113.504,157.643 113.090,157.790 112.930 C 159.483 111.080,163.800 110.215,167.290 111.026 M190.761 110.959 C 192.026 111.168,194.674 113.544,194.674 114.470 C 194.674 114.801,194.910 115.561,195.199 116.159 C 195.667 117.127,196.115 130.329,195.690 130.601 C 194.512 131.351,194.137 131.483,193.522 131.366 C 192.437 131.158,192.434 131.139,192.501 123.842 C 192.571 116.149,192.610 116.324,190.263 113.839 C 188.772 112.261,184.978 112.762,183.089 114.788 C 181.358 116.644,181.358 116.645,181.358 124.112 L 181.358 130.745 180.583 131.146 C 179.833 131.534,178.176 131.298,178.155 130.800 C 178.151 130.704,178.127 126.252,178.103 120.905 L 178.058 111.185 179.025 111.103 C 179.773 111.040,180.057 111.143,180.279 111.558 C 180.880 112.682,182.660 112.779,184.118 111.768 C 185.394 110.883,188.219 110.539,190.761 110.959 M228.296 111.066 C 228.845 111.218,229.294 111.454,229.294 111.590 C 229.294 111.726,229.654 112.023,230.093 112.250 C 230.533 112.478,230.892 112.819,230.892 113.008 C 230.892 113.198,231.181 113.604,231.534 113.911 C 231.968 114.288,232.273 114.970,232.479 116.022 C 232.647 116.877,232.898 118.158,233.038 118.870 C 233.255 119.971,233.219 120.264,232.794 120.846 L 232.296 121.530 225.764 121.551 C 219.731 121.570,219.189 121.610,218.671 122.079 C 217.934 122.744,217.920 124.321,218.642 125.239 C 218.935 125.612,219.174 126.001,219.174 126.105 C 219.174 126.489,220.881 128.243,221.679 128.681 C 223.455 129.654,223.921 129.763,226.409 129.795 C 228.649 129.823,229.082 129.753,229.752 129.258 L 230.521 128.690 231.437 129.438 C 232.499 130.305,232.542 130.224,230.551 131.126 C 228.917 131.867,222.896 132.193,222.505 131.561 C 222.416 131.417,221.713 131.115,220.942 130.891 C 219.715 130.535,217.310 128.782,217.310 128.245 C 217.310 128.157,217.020 127.625,216.665 127.063 C 215.028 124.470,215.047 119.013,216.705 115.603 C 217.442 114.087,218.860 112.383,219.386 112.383 C 219.546 112.383,219.843 112.146,220.046 111.856 C 220.716 110.900,225.908 110.403,228.296 111.066 M163.225 112.404 C 163.018 112.535,162.250 112.824,161.518 113.047 C 160.194 113.451,159.696 113.940,158.108 116.399 C 157.550 117.264,157.862 119.125,158.613 119.413 C 159.728 119.841,168.487 119.581,168.899 119.108 C 170.145 117.680,169.912 116.289,168.139 114.570 C 167.793 114.234,167.510 113.854,167.510 113.725 C 167.510 113.596,167.061 113.353,166.511 113.185 C 165.962 113.016,165.273 112.778,164.980 112.655 C 163.940 112.219,163.596 112.169,163.225 112.404 M222.674 112.939 C 221.792 113.243,220.960 113.765,220.496 114.305 C 218.034 117.177,218.088 117.088,218.361 117.805 C 219.007 119.504,219.249 119.574,224.501 119.574 C 229.980 119.574,230.360 119.440,230.359 117.510 C 230.355 114.124,226.276 111.698,222.674 112.939 M165.722 113.807 C 166.456 114.114,168.004 115.708,168.684 116.856 C 169.524 118.277,160.392 119.540,159.041 118.189 C 157.108 116.256,162.740 112.561,165.722 113.807 M226.456 113.814 C 227.569 114.278,229.593 116.601,229.498 117.304 C 229.368 118.267,228.331 118.501,224.174 118.505 C 218.726 118.510,218.234 117.745,221.643 114.567 C 222.804 113.485,224.888 113.158,226.456 113.814 M127.563 120.755 C 124.054 121.770,121.831 123.885,122.036 126.014 C 122.321 128.981,125.755 130.902,128.257 129.494 C 130.389 128.293,131.008 127.757,131.306 126.854 C 131.477 126.337,131.782 125.596,131.985 125.207 C 133.520 122.266,131.025 119.754,127.563 120.755 M130.624 122.138 C 133.204 126.075,126.413 131.353,123.718 127.506 C 122.532 125.813,124.257 122.273,126.292 122.222 C 126.625 122.214,127.317 122.048,127.830 121.854 C 129.357 121.276,130.109 121.353,130.624 122.138 M320.711 141.285 C 320.273 141.591,320.088 142.077,319.952 143.276 C 319.781 144.793,319.736 144.868,318.941 145.010 C 318.483 145.091,282.966 145.124,240.013 145.082 C 197.061 145.041,161.917 145.034,161.917 145.066 C 161.918 146.140,318.963 146.523,319.932 145.452 C 320.232 145.120,320.373 144.487,320.373 143.469 C 320.373 140.976,319.094 141.145,337.976 141.145 C 356.546 141.145,355.069 140.950,355.069 143.408 C 355.069 145.721,355.207 145.780,360.902 145.939 C 365.248 146.060,365.725 146.120,366.067 146.589 C 366.597 147.314,366.636 192.180,366.108 192.902 C 365.660 193.514,377.424 193.464,250.000 193.400 L 136.352 193.342 135.808 192.799 C 135.269 192.260,135.265 192.066,135.299 170.903 L 135.334 149.551 134.748 149.076 C 133.700 148.228,133.289 148.465,133.928 149.549 C 134.484 150.490,134.487 150.641,134.487 171.786 C 134.487 192.721,134.496 193.085,135.020 193.609 C 135.551 194.139,135.948 194.141,249.467 194.202 C 377.284 194.269,366.152 194.329,366.778 193.577 C 367.254 193.004,367.534 148.788,367.075 146.495 C 366.813 145.183,366.250 145.041,361.518 145.097 C 355.858 145.165,355.696 145.114,355.526 143.232 C 355.294 140.662,356.912 140.879,337.976 140.879 C 323.459 140.879,321.215 140.932,320.711 141.285 M271.744 156.971 C 270.051 157.709,270.137 160.604,271.879 161.505 C 274.366 162.791,276.698 161.285,276.388 158.592 C 276.204 156.982,273.715 156.114,271.744 156.971 M230.332 157.517 C 229.835 157.879,229.128 158.307,228.762 158.467 C 225.786 159.771,224.537 161.631,225.557 163.243 C 225.827 163.671,225.203 164.581,224.638 164.581 C 224.002 164.581,221.076 167.521,220.725 168.514 C 220.251 169.854,220.247 176.609,220.719 177.942 C 221.208 179.320,223.806 181.827,225.110 182.178 C 227.086 182.710,234.723 182.385,235.601 181.731 C 238.364 179.674,235.649 177.809,230.085 177.942 C 226.497 178.027,226.394 178.014,225.716 177.379 C 224.465 176.205,225.156 175.977,229.861 176.017 C 235.926 176.068,236.837 175.520,236.794 171.850 C 236.748 167.911,234.250 164.790,230.745 164.293 C 227.960 163.899,228.130 163.263,231.425 161.746 C 233.897 160.609,234.621 159.924,234.621 158.723 C 234.621 156.837,232.201 156.156,230.332 157.517 M274.563 157.654 C 276.037 158.443,275.096 161.119,273.344 161.119 C 272.617 161.119,272.372 160.984,272.180 160.479 C 272.046 160.127,271.814 159.763,271.664 159.670 C 271.309 159.451,271.768 158.177,272.366 157.723 C 272.893 157.323,273.886 157.292,274.563 157.654 M233.506 158.655 C 233.551 159.131,233.478 159.521,233.343 159.521 C 233.208 159.521,232.636 159.833,232.073 160.216 C 231.509 160.598,230.520 161.070,229.874 161.264 C 229.228 161.459,228.469 161.865,228.187 162.167 C 227.893 162.483,227.341 162.716,226.887 162.716 C 225.656 162.716,225.714 161.071,226.964 160.570 C 227.440 160.378,228.168 159.945,228.582 159.605 C 228.996 159.266,229.476 158.987,229.648 158.987 C 229.819 158.986,230.320 158.687,230.759 158.323 C 231.981 157.310,233.392 157.481,233.506 158.655 M152.706 164.713 C 151.944 165.476,151.988 165.029,152.037 171.505 C 152.059 174.361,151.974 177.388,151.848 178.232 C 151.566 180.123,152.160 181.771,153.218 182.037 C 155.618 182.639,156.414 181.054,156.251 175.997 C 156.099 171.308,156.928 169.661,159.863 168.820 C 162.745 167.993,163.639 168.916,163.375 172.441 C 163.236 174.296,163.293 175.183,163.621 176.289 C 163.856 177.080,164.048 178.457,164.048 179.350 C 164.048 182.094,165.900 183.223,167.304 181.334 C 167.883 180.555,168.016 172.346,167.506 168.842 C 167.368 167.889,167.252 167.021,167.249 166.912 C 167.246 166.802,166.817 166.240,166.294 165.662 C 164.631 163.821,161.589 163.578,158.107 165.009 L 156.326 165.740 155.702 165.154 C 154.615 164.132,153.457 163.962,152.706 164.713 M176.061 164.420 C 174.659 165.197,174.212 168.812,175.129 171.966 C 175.421 172.969,175.502 173.867,175.382 174.771 C 175.092 176.957,175.711 180.022,176.613 180.868 C 178.643 182.771,183.014 182.898,184.806 181.106 C 185.514 180.398,186.534 180.612,187.532 181.679 C 188.300 182.498,189.299 182.512,190.146 181.715 C 190.694 181.200,190.748 165.439,190.204 164.784 C 189.628 164.090,188.306 164.053,187.542 164.711 C 186.869 165.289,186.867 165.304,186.919 169.396 C 186.975 173.794,186.687 175.362,185.731 175.877 C 185.450 176.028,184.777 176.436,184.236 176.784 C 179.897 179.570,178.961 178.586,178.961 171.238 C 178.961 165.506,178.881 165.094,177.635 164.450 C 176.719 163.977,176.856 163.979,176.061 164.420 M207.787 164.514 C 207.058 164.877,206.716 164.897,205.656 164.640 C 204.437 164.344,199.545 164.239,198.610 164.489 C 197.654 164.744,197.065 177.944,197.878 180.874 C 198.309 182.425,199.750 182.796,200.896 181.651 L 201.731 180.817 201.864 175.370 C 201.979 170.660,202.060 169.861,202.461 169.461 C 203.430 168.494,203.591 169.295,203.659 175.415 C 203.726 181.485,203.753 181.616,205.056 182.156 C 207.279 183.076,208.054 181.005,207.939 174.454 C 207.873 170.679,207.932 169.635,208.233 169.271 C 209.105 168.215,209.322 169.247,209.459 175.107 C 209.610 181.549,209.581 181.396,210.753 181.955 C 211.694 182.403,212.874 182.011,213.481 181.047 C 213.798 180.542,213.612 168.630,213.269 167.510 C 212.421 164.741,209.995 163.415,207.787 164.514 M244.591 164.375 C 243.433 164.984,243.409 165.156,243.409 172.870 C 243.409 181.759,243.735 182.932,245.991 182.145 C 247.267 181.701,247.467 180.904,247.420 176.452 L 247.379 172.478 249.056 170.910 C 252.125 168.038,254.875 167.807,255.517 170.367 C 256.086 172.633,258.891 172.370,259.268 170.016 C 260.022 165.297,253.787 162.253,249.427 165.212 C 248.130 166.092,247.891 166.087,246.814 165.158 C 245.703 164.201,245.236 164.036,244.591 164.375 M268.896 164.455 C 268.191 164.854,267.643 165.780,267.643 166.572 C 267.643 167.117,269.783 168.575,270.584 168.575 C 271.969 168.575,272.170 169.174,272.170 173.282 C 272.170 177.370,271.983 177.896,270.525 177.896 C 268.799 177.896,267.240 179.841,267.931 181.132 C 268.669 182.512,277.559 183.114,279.522 181.917 C 281.479 180.724,280.411 178.217,277.765 177.794 C 276.152 177.536,276.067 177.192,276.221 171.516 C 276.370 166.016,276.304 165.501,275.360 164.816 C 274.396 164.117,269.933 163.868,268.896 164.455 M293.729 164.401 C 292.579 164.781,291.573 165.476,290.382 166.711 L 289.483 167.643 289.482 173.200 L 289.481 178.758 290.482 179.725 C 292.763 181.929,294.593 182.661,296.959 182.316 C 297.606 182.222,298.587 182.075,299.139 181.989 C 300.575 181.767,300.938 182.164,300.750 183.750 C 300.266 187.832,302.334 190.189,304.367 187.874 L 305.193 186.932 305.192 176.622 C 305.191 163.952,305.159 163.841,301.756 164.524 C 300.563 164.763,299.976 164.745,298.810 164.435 C 297.093 163.979,295.048 163.965,293.729 164.401 M312.921 164.501 C 311.626 165.408,311.531 167.373,312.338 176.657 L 312.590 179.546 313.728 180.705 C 315.770 182.786,318.794 182.983,321.971 181.243 C 323.141 180.602,323.738 180.645,324.462 181.425 C 325.294 182.322,326.465 182.396,327.189 181.597 C 327.664 181.072,327.696 180.533,327.696 173.236 C 327.696 164.366,327.685 164.314,325.667 164.314 C 324.207 164.314,324.101 164.687,324.101 169.830 C 324.101 174.848,324.062 174.978,322.187 176.243 C 317.347 179.507,316.264 178.757,316.240 172.124 C 316.214 165.328,315.169 162.926,312.921 164.501 M339.763 164.420 C 336.074 165.413,334.752 167.754,334.758 173.283 C 334.766 180.662,336.635 182.419,344.474 182.422 C 349.103 182.423,350.264 182.092,350.420 180.727 C 350.690 178.370,349.730 177.906,344.508 177.870 C 340.009 177.838,339.414 177.715,339.414 176.819 L 339.414 176.165 344.562 176.032 C 350.892 175.868,350.466 176.200,350.466 171.443 C 350.466 168.313,350.415 167.951,349.867 167.206 C 347.969 164.622,343.543 163.402,339.763 164.420 M76.957 164.861 C 76.796 165.161,76.718 165.611,76.783 165.859 C 76.877 166.214,76.909 166.194,76.933 165.766 C 77.000 164.576,76.950 164.581,90.466 164.581 C 102.974 164.581,103.344 164.595,103.862 165.113 C 104.452 165.704,104.703 183.121,104.134 184.021 C 103.723 184.671,78.114 184.880,77.389 184.239 C 76.911 183.817,76.884 183.353,76.922 175.984 C 76.943 171.689,76.872 167.780,76.763 167.297 C 76.654 166.813,76.584 170.387,76.607 175.239 C 76.645 183.045,76.701 184.116,77.092 184.548 C 77.765 185.292,103.570 185.226,104.318 184.478 C 104.756 184.040,104.794 183.274,104.794 174.668 L 104.794 165.333 104.165 164.823 C 103.146 163.998,77.399 164.034,76.957 164.861 M164.618 165.458 C 164.906 165.635,165.509 166.374,165.959 167.101 L 166.776 168.423 166.914 173.510 C 167.091 180.024,166.952 181.092,165.924 181.092 C 164.898 181.092,164.892 181.060,164.682 174.699 L 164.498 169.095 163.473 168.169 C 161.809 166.666,159.203 167.306,156.341 169.922 L 155.260 170.911 155.260 175.481 L 155.260 180.052 154.555 180.705 C 153.770 181.432,153.515 181.500,153.240 181.055 C 153.097 180.824,153.023 171.448,153.119 165.712 C 153.130 165.040,153.701 164.918,154.174 165.488 C 155.221 166.749,157.755 166.781,159.623 165.557 C 160.760 164.812,163.475 164.759,164.618 165.458 M177.696 165.938 C 178.092 166.630,178.163 167.469,178.164 171.460 C 178.166 178.001,178.482 178.954,180.714 179.141 C 181.583 179.213,182.248 179.114,182.690 178.847 C 183.056 178.625,183.715 178.269,184.154 178.055 C 184.594 177.842,185.162 177.420,185.417 177.116 C 185.672 176.813,186.040 176.565,186.236 176.565 C 187.565 176.565,187.879 175.437,187.962 170.352 C 188.006 167.690,188.094 165.358,188.158 165.168 C 188.321 164.684,189.259 165.215,189.482 165.918 C 189.806 166.936,189.709 180.149,189.374 180.775 C 189.049 181.383,188.016 181.589,188.016 181.046 C 188.016 179.609,185.510 179.310,183.869 180.552 C 182.400 181.663,179.189 181.739,177.945 180.692 C 177.510 180.326,177.037 180.027,176.894 180.027 C 176.507 180.027,176.306 178.378,176.292 175.100 C 176.286 173.489,176.170 170.944,176.035 169.445 C 175.675 165.461,176.468 163.787,177.696 165.938 M254.809 165.010 C 257.847 165.617,259.909 170.654,257.268 171.016 C 256.690 171.095,256.587 170.974,256.389 169.985 C 255.946 167.769,253.205 166.507,251.592 167.776 C 251.219 168.069,250.815 168.309,250.693 168.309 C 250.571 168.309,250.171 168.607,249.803 168.972 C 249.435 169.337,248.595 170.135,247.936 170.746 L 246.738 171.856 246.653 176.045 C 246.564 180.456,245.989 182.181,244.953 181.145 C 244.690 180.882,244.588 173.655,244.732 165.579 C 244.740 165.108,245.539 164.898,245.539 165.367 C 245.539 166.052,247.959 167.305,248.441 166.869 C 248.699 166.636,249.034 166.445,249.185 166.445 C 249.336 166.445,249.888 166.154,250.412 165.798 C 251.618 164.980,253.222 164.692,254.809 165.010 M273.781 165.072 C 274.894 165.139,275.100 166.238,275.100 172.102 C 275.100 178.203,275.289 178.730,277.606 179.077 C 278.996 179.285,279.447 179.726,279.215 180.648 C 278.995 181.525,279.147 181.504,273.853 181.413 L 269.278 181.334 269.098 180.514 C 268.880 179.520,269.225 179.238,270.666 179.232 C 271.474 179.229,271.883 179.036,272.597 178.322 L 273.502 177.417 273.502 173.293 L 273.502 169.170 272.436 168.207 C 271.795 167.628,271.098 167.244,270.687 167.244 C 269.496 167.244,268.904 166.763,269.106 165.959 C 269.363 164.933,269.875 164.836,273.781 165.072 M299.140 165.578 C 299.743 166.123,301.158 166.104,302.298 165.535 C 303.739 164.817,303.728 164.736,303.728 176.511 L 303.728 187.350 302.844 187.309 C 301.624 187.252,301.623 187.248,301.594 184.343 C 301.557 180.725,300.385 179.479,298.418 180.967 C 297.510 181.654,294.440 181.490,293.266 180.692 C 292.727 180.326,292.138 180.027,291.956 180.027 C 291.774 180.027,291.446 179.682,291.228 179.260 C 291.010 178.838,290.648 178.423,290.423 178.336 C 290.075 178.203,290.013 177.440,290.013 173.265 L 290.013 168.350 290.879 167.467 C 293.262 165.036,297.477 164.072,299.140 165.578 M346.391 165.798 C 346.916 166.154,347.500 166.445,347.689 166.445 C 348.032 166.445,348.969 167.600,349.601 168.802 C 349.789 169.160,349.933 170.391,349.933 171.638 C 349.933 174.717,349.966 174.700,343.966 174.700 C 338.715 174.700,338.482 174.791,338.482 176.844 C 338.482 178.817,339.143 179.075,344.606 179.228 C 349.829 179.374,349.885 179.390,349.404 180.551 L 349.070 181.358 344.320 181.358 L 339.569 181.358 338.104 180.263 C 336.216 178.851,336.004 178.188,335.936 173.502 C 335.869 168.853,336.754 166.178,338.360 166.178 C 338.528 166.178,338.878 165.944,339.137 165.657 C 340.054 164.645,344.828 164.737,346.391 165.798 M200.653 165.422 C 201.174 165.660,201.660 165.652,202.755 165.389 C 203.976 165.097,204.271 165.105,204.820 165.450 C 205.979 166.179,207.366 166.269,207.979 165.656 C 208.804 164.831,210.164 164.940,211.235 165.918 L 212.117 166.724 212.267 172.643 C 212.350 175.898,212.515 178.778,212.634 179.043 C 212.844 179.508,212.089 181.358,211.689 181.358 C 211.194 181.358,210.186 179.576,210.432 179.136 C 210.685 178.684,210.637 177.192,210.189 171.544 C 209.902 167.918,209.185 167.220,207.394 168.820 L 206.525 169.598 206.613 174.543 C 206.726 180.929,206.241 182.601,204.845 180.626 C 204.354 179.931,204.340 179.621,204.564 174.578 C 204.789 169.488,204.777 169.240,204.279 168.741 C 203.522 167.984,202.249 168.070,201.382 168.936 L 200.666 169.651 200.597 174.906 C 200.518 180.876,200.455 181.358,199.759 181.358 C 198.542 181.358,198.402 180.509,198.402 173.134 L 198.402 166.223 199.134 165.676 C 200.014 165.020,199.836 165.050,200.653 165.422 M232.207 165.615 C 232.355 165.891,232.779 166.193,233.149 166.286 C 233.519 166.379,233.822 166.578,233.822 166.729 C 233.822 166.880,234.119 167.278,234.483 167.615 C 235.709 168.752,235.997 173.840,234.869 174.444 C 234.605 174.585,232.233 174.700,229.597 174.700 C 224.283 174.700,223.968 174.794,223.968 176.373 C 223.968 176.977,224.241 177.488,224.954 178.218 L 225.940 179.228 230.381 179.228 C 235.152 179.228,235.481 179.319,235.166 180.559 L 234.996 181.225 229.982 181.298 C 225.230 181.366,224.938 181.342,224.401 180.822 C 224.090 180.521,223.296 179.769,222.636 179.152 L 221.438 178.029 221.438 173.277 L 221.438 168.525 222.170 167.941 C 222.573 167.620,222.903 167.214,222.903 167.039 C 222.903 165.648,231.519 164.329,232.207 165.615 M314.529 165.795 C 315.155 166.461,315.171 166.597,315.265 171.986 C 315.358 177.265,315.386 177.520,315.952 178.059 C 317.312 179.356,319.014 179.612,320.179 178.695 C 320.552 178.402,320.976 178.162,321.122 178.162 C 321.268 178.162,321.873 177.773,322.467 177.297 C 323.061 176.821,323.799 176.252,324.108 176.032 C 324.859 175.498,325.244 172.517,325.009 169.058 C 324.785 165.757,324.945 165.051,325.890 165.163 C 326.956 165.289,327.053 166.086,326.933 173.725 C 326.810 181.522,326.820 181.487,325.037 180.443 C 323.639 179.623,321.854 179.771,320.368 180.829 C 319.794 181.238,319.193 181.358,317.734 181.358 L 315.844 181.358 314.549 180.093 L 313.254 178.828 313.085 175.124 C 312.659 165.791,312.923 164.085,314.529 165.795 M226.365 167.462 C 223.604 168.713,222.444 171.526,224.434 172.147 C 225.819 172.578,232.210 172.398,232.747 171.913 C 235.201 169.692,229.783 165.913,226.365 167.462 M294.807 167.468 C 292.195 168.688,292.011 169.091,292.011 173.575 L 292.011 176.845 292.991 177.770 C 296.935 181.489,302.500 177.561,301.618 171.680 C 301.222 169.040,297.013 166.437,294.807 167.468 M339.947 167.815 C 338.526 168.545,338.216 168.997,338.216 170.338 C 338.216 172.091,338.586 172.295,341.897 172.357 C 347.087 172.455,347.803 172.234,347.803 170.531 C 347.803 167.868,343.044 166.223,339.947 167.815 M231.322 169.083 C 232.279 169.666,232.629 170.792,232.012 171.303 C 231.438 171.780,225.271 171.767,224.694 171.289 C 222.584 169.537,228.719 167.496,231.322 169.083 M298.191 168.908 C 302.733 170.842,301.193 177.896,296.228 177.896 C 293.631 177.896,292.943 176.915,292.943 173.210 C 292.943 168.984,294.798 167.463,298.191 168.908 M345.879 168.990 C 346.651 169.531,346.706 171.094,345.967 171.490 C 345.329 171.831,339.615 171.679,339.247 171.311 C 338.608 170.672,339.102 169.257,340.080 168.923 C 341.491 168.442,345.158 168.484,345.879 168.990 M280.631 200.533 C 280.167 200.912,280.143 201.757,280.139 217.505 C 280.136 234.031,280.192 235.137,281.035 235.163 C 288.195 235.389,298.157 235.134,298.461 234.718 C 299.249 233.640,299.331 232.038,299.333 217.676 C 299.334 202.062,299.311 201.621,298.431 200.775 C 297.669 200.041,281.501 199.821,280.631 200.533 M119.939 205.429 C 119.966 206.229,120.124 206.554,120.639 206.860 L 121.305 207.256 120.722 206.757 C 120.400 206.481,120.087 205.842,120.022 205.326 C 119.910 204.427,119.907 204.431,119.939 205.429 M126.581 207.123 C 129.044 207.167,132.999 207.167,135.370 207.123 C 137.741 207.079,135.726 207.043,130.892 207.043 C 126.059 207.043,124.119 207.079,126.581 207.123 " stroke="none" fill="#96adca" fill-rule="evenodd"></path><path id="path4" d="M136.818 94.474 C 150.330 94.512,172.440 94.512,185.952 94.474 C 199.464 94.436,188.409 94.405,161.385 94.405 C 134.361 94.405,123.306 94.436,136.818 94.474 M248.673 94.467 C 249.152 94.527,249.871 94.525,250.271 94.465 C 250.671 94.404,250.280 94.355,249.401 94.357 C 248.522 94.358,248.195 94.408,248.673 94.467 M282.135 101.218 C 280.939 101.566,280.811 102.192,280.959 107.001 C 281.121 112.288,280.570 111.843,286.951 111.843 C 293.518 111.843,293.147 112.182,293.231 106.103 L 293.286 102.169 292.567 101.551 C 291.791 100.884,284.129 100.640,282.135 101.218 M81.951 101.391 C 82.424 101.449,83.263 101.450,83.816 101.393 C 84.368 101.335,83.981 101.287,82.956 101.286 C 81.931 101.285,81.479 101.332,81.951 101.391 M100.195 104.394 C 100.195 104.907,100.250 105.117,100.317 104.860 C 100.384 104.604,100.384 104.184,100.317 103.928 C 100.250 103.672,100.195 103.881,100.195 104.394 M83.156 105.643 C 83.412 105.710,83.832 105.710,84.088 105.643 C 84.344 105.576,84.134 105.521,83.622 105.521 C 83.109 105.521,82.899 105.576,83.156 105.643 M100.218 107.324 C 100.218 108.276,100.267 108.665,100.326 108.189 C 100.385 107.713,100.385 106.934,100.326 106.458 C 100.267 105.982,100.218 106.372,100.218 107.324 M53.920 121.971 C 53.920 130.832,53.954 134.457,53.995 130.027 C 54.036 125.596,54.036 118.346,53.995 113.915 C 53.954 109.484,53.920 113.109,53.920 121.971 M126.298 113.632 C 126.555 113.699,126.974 113.699,127.230 113.632 C 127.487 113.565,127.277 113.511,126.764 113.511 C 126.252 113.511,126.042 113.565,126.298 113.632 M177.215 121.438 C 177.215 125.759,177.252 127.527,177.296 125.366 C 177.341 123.206,177.341 119.670,177.296 117.510 C 177.252 115.350,177.215 117.117,177.215 121.438 M73.312 115.712 C 73.314 116.445,73.366 116.713,73.427 116.308 C 73.488 115.903,73.486 115.304,73.423 114.976 C 73.360 114.649,73.310 114.980,73.312 115.712 M207.565 121.039 C 207.565 123.382,207.606 124.305,207.655 123.090 C 207.705 121.875,207.704 119.957,207.654 118.829 C 207.605 117.701,207.564 118.695,207.565 121.039 M73.312 118.642 C 73.314 119.374,73.366 119.642,73.427 119.237 C 73.488 118.833,73.486 118.233,73.423 117.906 C 73.360 117.578,73.310 117.909,73.312 118.642 M109.534 119.574 C 109.534 120.379,109.584 120.709,109.645 120.306 C 109.706 119.903,109.706 119.244,109.645 118.842 C 109.584 118.439,109.534 118.768,109.534 119.574 M160.796 118.440 C 161.717 118.492,163.155 118.492,163.992 118.439 C 164.828 118.386,164.075 118.343,162.317 118.344 C 160.559 118.345,159.875 118.388,160.796 118.440 M222.703 118.438 C 223.399 118.493,224.537 118.493,225.233 118.438 C 225.929 118.383,225.360 118.338,223.968 118.338 C 222.577 118.338,222.007 118.383,222.703 118.438 M146.026 120.772 C 146.027 121.798,146.075 122.184,146.133 121.632 C 146.191 121.079,146.190 120.240,146.131 119.768 C 146.072 119.295,146.025 119.747,146.026 120.772 M114.619 123.702 C 114.619 125.752,114.661 126.556,114.712 125.488 C 114.763 124.419,114.762 122.742,114.711 121.759 C 114.660 120.777,114.619 121.651,114.619 123.702 M128.628 121.542 C 128.628 121.599,129.040 121.694,129.542 121.753 C 130.044 121.811,130.397 121.765,130.325 121.649 C 130.196 121.440,128.628 121.342,128.628 121.542 M146.001 127.297 C 146.001 127.810,146.055 128.019,146.122 127.763 C 146.189 127.507,146.189 127.087,146.122 126.831 C 146.055 126.575,146.001 126.784,146.001 127.297 M100.195 128.362 C 100.195 128.875,100.250 129.085,100.317 128.828 C 100.384 128.572,100.384 128.152,100.317 127.896 C 100.250 127.640,100.195 127.850,100.195 128.362 M191.551 128.628 C 191.551 129.288,191.602 129.557,191.666 129.228 C 191.729 128.898,191.729 128.359,191.666 128.029 C 191.602 127.700,191.551 127.969,191.551 128.628 M140.941 128.628 C 140.941 129.141,140.995 129.351,141.062 129.095 C 141.129 128.838,141.129 128.419,141.062 128.162 C 140.995 127.906,140.941 128.116,140.941 128.628 M85.553 128.279 C 85.809 128.346,86.228 128.346,86.485 128.279 C 86.741 128.212,86.531 128.158,86.019 128.158 C 85.506 128.158,85.296 128.212,85.553 128.279 M209.257 128.284 C 209.589 128.348,210.068 128.346,210.323 128.279 C 210.577 128.212,210.306 128.160,209.720 128.163 C 209.134 128.166,208.926 128.221,209.257 128.284 M81.162 132.812 C 81.493 132.875,81.972 132.873,82.227 132.806 C 82.481 132.739,82.210 132.687,81.625 132.690 C 81.039 132.693,80.830 132.748,81.162 132.812 M85.153 132.811 C 85.483 132.875,86.022 132.875,86.352 132.811 C 86.681 132.748,86.411 132.696,85.752 132.696 C 85.093 132.696,84.824 132.748,85.153 132.811 M163.856 132.819 C 164.556 132.874,165.635 132.874,166.253 132.818 C 166.871 132.762,166.298 132.717,164.980 132.718 C 163.662 132.719,163.156 132.764,163.856 132.819 M224.301 132.819 C 224.997 132.874,226.135 132.874,226.831 132.819 C 227.527 132.764,226.957 132.719,225.566 132.719 C 224.174 132.719,223.605 132.764,224.301 132.819 M320.965 141.560 C 320.473 141.904,320.373 142.226,320.373 143.469 C 320.373 144.392,320.227 145.126,319.992 145.385 C 319.646 145.768,321.272 145.806,338.086 145.806 C 348.246 145.806,356.353 145.729,356.100 145.636 C 355.324 145.349,355.076 144.798,355.065 143.340 C 355.048 140.959,356.494 141.145,337.976 141.145 C 323.546 141.145,321.485 141.195,320.965 141.560 M55.596 141.600 C 55.927 141.664,56.406 141.661,56.661 141.594 C 56.916 141.528,56.644 141.476,56.059 141.479 C 55.473 141.482,55.264 141.536,55.596 141.600 M69.901 141.874 C 70.469 142.413,161.581 142.500,162.983 141.963 C 163.349 141.822,163.888 141.649,164.181 141.577 C 164.474 141.505,163.995 141.528,163.116 141.628 C 160.914 141.880,71.460 141.860,70.323 141.608 C 69.441 141.412,69.425 141.422,69.901 141.874 M186.884 141.611 C 198.638 141.650,217.873 141.650,229.627 141.611 C 241.381 141.573,231.764 141.541,208.256 141.541 C 184.747 141.541,175.130 141.573,186.884 141.611 M161.385 145.402 C 160.809 145.550,160.878 145.599,161.886 145.765 C 163.223 145.984,163.523 145.878,162.651 145.495 C 162.321 145.350,161.751 145.309,161.385 145.402 M317.514 146.130 C 317.918 146.191,318.518 146.189,318.845 146.126 C 319.173 146.063,318.842 146.013,318.109 146.015 C 317.377 146.017,317.109 146.069,317.514 146.130 M134.843 148.487 C 134.755 148.716,134.819 149.040,134.985 149.206 C 135.209 149.430,135.286 149.324,135.286 148.788 C 135.286 147.987,135.087 147.851,134.843 148.487 M135.413 171.372 C 135.413 181.917,135.446 186.193,135.486 180.873 C 135.526 175.552,135.526 166.924,135.486 161.698 C 135.446 156.473,135.413 160.826,135.413 171.372 M272.770 164.232 C 273.026 164.298,273.445 164.298,273.702 164.232 C 273.958 164.165,273.748 164.110,273.236 164.110 C 272.723 164.110,272.513 164.165,272.770 164.232 M77.236 164.973 C 76.633 165.699,76.797 183.721,77.410 184.261 C 78.118 184.882,103.735 184.653,104.134 184.021 C 104.703 183.121,104.452 165.704,103.862 165.113 C 103.146 164.398,77.824 164.265,77.236 164.973 M206.192 164.764 C 206.448 164.831,206.868 164.831,207.124 164.764 C 207.380 164.697,207.170 164.642,206.658 164.642 C 206.145 164.642,205.935 164.697,206.192 164.764 M179.068 170.306 C 179.068 172.503,179.110 173.367,179.160 172.225 C 179.210 171.083,179.209 169.285,179.159 168.230 C 179.108 167.175,179.068 168.109,179.068 170.306 M186.746 168.043 C 186.746 168.555,186.801 168.765,186.868 168.509 C 186.935 168.252,186.935 167.833,186.868 167.577 C 186.801 167.320,186.746 167.530,186.746 168.043 M151.877 169.108 C 151.877 169.913,151.927 170.243,151.988 169.840 C 152.049 169.437,152.049 168.778,151.988 168.375 C 151.927 167.973,151.877 168.302,151.877 169.108 M289.326 173.103 C 289.326 175.959,289.365 177.127,289.413 175.699 C 289.461 174.271,289.461 171.934,289.413 170.506 C 289.365 169.078,289.326 170.246,289.326 173.103 M350.565 171.505 C 350.565 173.043,350.609 173.672,350.662 172.903 C 350.716 172.134,350.716 170.875,350.662 170.107 C 350.609 169.338,350.565 169.967,350.565 171.505 M276.272 172.969 C 276.272 175.166,276.313 176.030,276.363 174.888 C 276.413 173.746,276.413 171.949,276.363 170.893 C 276.312 169.838,276.271 170.772,276.272 172.969 M334.560 170.439 C 334.560 171.099,334.612 171.368,334.675 171.039 C 334.739 170.709,334.739 170.170,334.675 169.840 C 334.612 169.511,334.560 169.780,334.560 170.439 M151.898 174.434 C 151.898 176.119,151.942 176.808,151.994 175.965 C 152.047 175.123,152.047 173.745,151.994 172.903 C 151.942 172.061,151.898 172.750,151.898 174.434 M226.831 171.700 C 227.453 171.756,228.472 171.756,229.095 171.700 C 229.717 171.644,229.208 171.598,227.963 171.598 C 226.718 171.598,226.208 171.644,226.831 171.700 M340.679 171.688 C 340.935 171.755,341.355 171.755,341.611 171.688 C 341.868 171.621,341.658 171.566,341.145 171.566 C 340.632 171.566,340.423 171.621,340.679 171.688 M343.745 171.693 C 344.076 171.757,344.555 171.754,344.810 171.688 C 345.065 171.621,344.794 171.569,344.208 171.572 C 343.622 171.575,343.414 171.629,343.745 171.693 M203.569 175.632 C 203.569 177.830,203.610 178.693,203.660 177.551 C 203.710 176.409,203.710 174.612,203.660 173.556 C 203.609 172.501,203.568 173.435,203.569 175.632 M207.790 172.703 C 207.793 173.289,207.848 173.497,207.911 173.166 C 207.975 172.835,207.973 172.355,207.906 172.101 C 207.839 171.846,207.787 172.117,207.790 172.703 M300.733 172.969 C 300.736 173.555,300.790 173.764,300.854 173.432 C 300.918 173.101,300.915 172.622,300.849 172.367 C 300.782 172.112,300.730 172.383,300.733 172.969 M156.120 173.103 C 156.120 173.615,156.175 173.825,156.242 173.569 C 156.309 173.312,156.309 172.893,156.242 172.636 C 156.175 172.380,156.120 172.590,156.120 173.103 M175.306 173.901 C 175.306 174.561,175.357 174.830,175.421 174.501 C 175.484 174.171,175.484 173.632,175.421 173.302 C 175.357 172.973,175.306 173.242,175.306 173.901 M316.184 175.766 C 316.184 176.425,316.236 176.694,316.300 176.365 C 316.363 176.035,316.363 175.496,316.300 175.166 C 316.236 174.837,316.184 175.107,316.184 175.766 M334.560 175.766 C 334.560 176.425,334.612 176.694,334.675 176.365 C 334.739 176.035,334.739 175.496,334.675 175.166 C 334.612 174.837,334.560 175.107,334.560 175.766 M247.495 177.230 C 247.496 178.402,247.543 178.848,247.599 178.222 C 247.655 177.596,247.654 176.637,247.597 176.091 C 247.540 175.546,247.494 176.059,247.495 177.230 M227.367 178.084 C 227.698 178.148,228.177 178.146,228.432 178.079 C 228.686 178.012,228.415 177.960,227.830 177.963 C 227.244 177.966,227.035 178.021,227.367 178.084 M243.215 178.961 C 243.215 179.621,243.267 179.890,243.330 179.561 C 243.394 179.231,243.394 178.692,243.330 178.362 C 243.267 178.033,243.215 178.302,243.215 178.961 M312.916 180.110 C 312.916 180.156,313.306 180.545,313.782 180.975 L 314.647 181.758 313.865 180.892 C 313.136 180.085,312.916 179.904,312.916 180.110 " stroke="none" fill="#e44755" fill-rule="evenodd"></path></g></svg>