<svg data-name="Groupe 701" xmlns="http://www.w3.org/2000/svg" xmlns:xlink="http://www.w3.org/1999/xlink" width="139.866" height="78.2" viewBox="0 0 139.866 78.2"><defs><linearGradient id="b" x1=".243" y1=".023" x2=".941" y2=".746" gradientUnits="objectBoundingBox"><stop offset="0" stop-color="#ffe800" stop-opacity=".2"/><stop offset=".209" stop-color="#ffe800" stop-opacity=".6"/><stop offset=".29" stop-color="#ffe800" stop-opacity=".702"/><stop offset=".439" stop-color="#ffe800" stop-opacity=".863"/><stop offset=".556" stop-color="#ffe800" stop-opacity=".965"/><stop offset=".626" stop-color="#ffe800"/><stop offset=".974" stop-color="#ffe800"/><stop offset="1" stop-color="#ffe800"/></linearGradient><linearGradient id="a" y1=".5" x2="1" y2=".5" gradientUnits="objectBoundingBox"><stop offset="0" stop-color="#d8006b" stop-opacity=".2"/><stop offset=".174" stop-color="#d8006b" stop-opacity=".38"/><stop offset=".456" stop-color="#d8006b" stop-opacity=".643"/><stop offset=".697" stop-color="#d8006b" stop-opacity=".839"/><stop offset=".886" stop-color="#d8006b" stop-opacity=".957"/><stop offset="1" stop-color="#d8006b"/></linearGradient><linearGradient id="c" x1="1.104" y1=".201" x2=".128" y2="1.088" xlink:href="#a"/><linearGradient id="d" x1=".243" y1=".023" x2=".941" y2=".746" gradientUnits="objectBoundingBox"><stop offset="0" stop-color="#d8006b" stop-opacity=".2"/><stop offset=".221" stop-color="#d8006b" stop-opacity=".6"/><stop offset=".257" stop-color="#d8006b" stop-opacity=".647"/><stop offset=".42" stop-color="#d8006b" stop-opacity=".839"/><stop offset=".549" stop-color="#d8006b" stop-opacity=".957"/><stop offset=".626" stop-color="#d8006b"/></linearGradient><linearGradient id="e" x1=".5" x2=".5" y2="1" gradientUnits="objectBoundingBox"><stop offset="0" stop-color="#d8006b"/><stop offset=".114" stop-color="#d8006b" stop-opacity=".957"/><stop offset=".303" stop-color="#d8006b" stop-opacity=".839"/><stop offset=".544" stop-color="#d8006b" stop-opacity=".643"/><stop offset=".826" stop-color="#d8006b" stop-opacity=".38"/><stop offset="1" stop-color="#d8006b" stop-opacity=".2"/></linearGradient><linearGradient id="f" y1=".5" x2="1" y2=".5" gradientUnits="objectBoundingBox"><stop offset="0" stop-color="#d8006b"/><stop offset=".405" stop-color="#d8006b" stop-opacity=".671"/><stop offset="1" stop-color="#d8006b" stop-opacity=".2"/></linearGradient><linearGradient id="g" x1=".243" y1=".023" x2=".941" y2=".746" gradientUnits="objectBoundingBox"><stop offset=".626" stop-color="#161615" stop-opacity="0"/><stop offset=".832" stop-color="#161615" stop-opacity=".153"/><stop offset="1" stop-color="#161615" stop-opacity=".6"/></linearGradient></defs><path data-name="Tracé 907" d="M477.162 320.961a34.775 34.775 0 0 0-28.848-15.073 50.167 50.167 0 0 0-34.513 13.1 40.664 40.664 0 0 1 34.513-18.785 57.176 57.176 0 0 1 30.286 23.09" transform="translate(-348.8 -300.206)" fill="#ffe800" style="mix-blend-mode:multiply;isolation:isolate"/><path data-name="Tracé 908" d="M469.8 365.48c-20.188 8.572-36.924 1.436-36.924 1.436a35.441 35.441 0 0 0 11.236 1.812 34.69 34.69 0 0 0 30.2-17.227s9.951-11.921 6.279-32.964h.006a37.935 37.935 0 0 1 3.9 16.785 38.531 38.531 0 0 1-14.697 30.155" transform="translate(-344.628 -296.198)" fill="#ffe800" style="mix-blend-mode:multiply;isolation:isolate"/><path data-name="Tracé 909" d="M470.973 320.961a32.531 32.531 0 0 1 1.345 34.524s9.949-11.924 6.281-32.967A40.242 40.242 0 0 0 444 300.245a44.843 44.843 0 0 0-1.874-.039 57.163 57.163 0 0 1 30.288 23.087" transform="translate(-342.606 -300.206)" fill="url(#b)" style="mix-blend-mode:multiply;isolation:isolate"/><path data-name="Tracé 910" d="M419.789 319.757a34.786 34.786 0 0 1 28.711-14.882 50.162 50.162 0 0 0-34.511 13.1 39.65 39.65 0 0 0-1.048 1.779Z" transform="translate(-348.987 -299.193)" fill="#ffe800" style="mix-blend-mode:multiply;isolation:isolate"/><g data-name="Groupe 694" style="mix-blend-mode:multiply;isolation:isolate"><path data-name="Tracé 911" d="M88.264 70.706A34.709 34.709 0 0 1 75.9 63.482h-7.963a41.29 41.29 0 0 0 57.24 5.8c-20.184 8.559-36.913 1.424-36.913 1.424Z" fill="#ffe800"/><path data-name="Tracé 912" d="m125.193 69.267-.016.011h.016Z" fill="#ffea0c"/></g><g data-name="Groupe 695" style="mix-blend-mode:multiply;isolation:isolate" fill="#ffe800"><path data-name="Tracé 913" d="M101.571 22.551c-2.71-.112-3.7-.169-4.261.932s-.6 1.834.778 1.724a13.553 13.553 0 0 1 3.264-.059 11.076 11.076 0 0 0 5.533-.441l1.548-1.829a13.38 13.38 0 0 1-2.1.167c-1.165.001-2.049-.386-4.762-.494Z"/><path data-name="Tracé 914" d="M101.825 40.481c-2.229-1.783-9-7.746-6.448-12.808 0 0 2.763.272 2.495 3.6l2.322-1.717a1.835 1.835 0 0 0-.3-2.328c.751.43 5.928 3.744-.2 9.353l.165.338s7.33-4.687 5-8.94c1.508 1.549 4.003 5.748-3.034 12.502Zm4.564-15.027-2.13 1.675a8.36 8.36 0 0 0-2.295-1.732l-2.133 1.75a3.409 3.409 0 0 0-.247-.251c-1.549-1.442-1.994-1.553-2.827-1.053a22.159 22.159 0 0 0-2.814 1.935c-.828.723-3.821 3.212.88 9.908 0 0-7.031-7.361-2.043-10.9 0 0 .552-.388 1.049-.717s.442-.942.335-1.494-.119-.992-.222-1.609.273-.72 1.165-.829a26.335 26.335 0 0 1 4.749 0 10.278 10.278 0 0 0 5.53-.5l1.667-2.041a7.86 7.86 0 0 1-2.882.271c-1.984-.055-3.527-.3-4.48-.332.312 0 .953-.084 1-.667.057-.77.057-1.437.057-1.437l1.882-.556 1.376-2.383a13.8 13.8 0 0 1-3.372.445 9.551 9.551 0 0 1 .282-1.88 13.781 13.781 0 0 0-2.384 1.383l-.167.445-.882.112-1.547 2.54 2.1.06.165 2a13.2 13.2 0 0 0-3.484.271c-1.327.389-1.492.611-2.43 1.827a3.826 3.826 0 0 0-1.058 2.88 15.068 15.068 0 0 0 .28 1.936c.051.385.051.607-.613.94s-2.316 1.717-2.376 3.262-.888 3.873 6.034 11.18l2.484-1.553a18.148 18.148 0 0 0 3.269 2.484l2.208-1.821s-.132-.1-.366-.273c1.038-.721 12.215-8.776 4.24-15.276Z"/></g><path data-name="Tracé 915" d="M477.162 320.961a34.775 34.775 0 0 0-28.848-15.073 50.167 50.167 0 0 0-34.513 13.1 40.664 40.664 0 0 1 34.513-18.785 57.176 57.176 0 0 1 30.286 23.09" transform="translate(-348.8 -300.206)" fill="url(#a)" style="mix-blend-mode:multiply;isolation:isolate"/><path data-name="Tracé 916" d="M469.8 365.48c-20.188 8.572-36.924 1.436-36.924 1.436a35.441 35.441 0 0 0 11.236 1.812 34.69 34.69 0 0 0 30.2-17.227s9.951-11.921 6.279-32.964h.006a37.935 37.935 0 0 1 3.9 16.785 38.531 38.531 0 0 1-14.697 30.155" transform="translate(-344.628 -296.198)" fill="url(#c)" style="mix-blend-mode:multiply;isolation:isolate"/><path data-name="Tracé 917" d="M470.973 320.961a32.531 32.531 0 0 1 1.345 34.524s9.949-11.924 6.281-32.967A40.242 40.242 0 0 0 444 300.245a44.843 44.843 0 0 0-1.874-.039 57.163 57.163 0 0 1 30.288 23.087" transform="translate(-342.606 -300.206)" fill="url(#d)" style="mix-blend-mode:multiply;isolation:isolate"/><path data-name="Tracé 918" d="M419.789 319.757a34.786 34.786 0 0 1 28.711-14.882 50.162 50.162 0 0 0-34.511 13.1 39.65 39.65 0 0 0-1.048 1.779Z" transform="translate(-348.987 -299.193)" fill="url(#e)" style="mix-blend-mode:multiply;isolation:isolate"/><g data-name="Groupe 696" style="mix-blend-mode:multiply;isolation:isolate"><path data-name="Tracé 919" d="M436.537 359.52a34.709 34.709 0 0 1-12.364-7.224h-7.963a41.29 41.29 0 0 0 57.24 5.8c-20.184 8.559-36.913 1.424-36.913 1.424Z" transform="translate(-348.273 -288.814)" fill="url(#f)"/><path data-name="Tracé 920" d="m125.193 69.267-.016.011h.016Z" fill="#ffb61c"/></g><g data-name="Groupe 697" style="mix-blend-mode:multiply;isolation:isolate" fill="#d8006b"><path data-name="Tracé 921" d="M101.571 22.551c-2.71-.112-3.7-.169-4.261.932s-.6 1.834.778 1.724a13.553 13.553 0 0 1 3.264-.059 11.076 11.076 0 0 0 5.533-.441l1.548-1.829a13.38 13.38 0 0 1-2.1.167c-1.165.001-2.049-.386-4.762-.494Z"/><path data-name="Tracé 922" d="M101.825 40.481c-2.229-1.783-9-7.746-6.448-12.808 0 0 2.763.272 2.495 3.6l2.322-1.717a1.835 1.835 0 0 0-.3-2.328c.751.43 5.928 3.744-.2 9.353l.165.338s7.33-4.687 5-8.94c1.508 1.549 4.003 5.748-3.034 12.502Zm4.564-15.027-2.13 1.675a8.36 8.36 0 0 0-2.295-1.732l-2.133 1.75a3.409 3.409 0 0 0-.247-.251c-1.549-1.442-1.994-1.553-2.827-1.053a22.159 22.159 0 0 0-2.814 1.935c-.828.723-3.821 3.212.88 9.908 0 0-7.031-7.361-2.043-10.9 0 0 .552-.388 1.049-.717s.442-.942.335-1.494-.119-.992-.222-1.609.273-.72 1.165-.829a26.335 26.335 0 0 1 4.749 0 10.278 10.278 0 0 0 5.53-.5l1.667-2.041a7.86 7.86 0 0 1-2.882.271c-1.984-.055-3.527-.3-4.48-.332.312 0 .953-.084 1-.667.057-.77.057-1.437.057-1.437l1.882-.556 1.376-2.383a13.8 13.8 0 0 1-3.372.445 9.551 9.551 0 0 1 .282-1.88 13.781 13.781 0 0 0-2.384 1.383l-.167.445-.882.112-1.547 2.54 2.1.06.165 2a13.2 13.2 0 0 0-3.484.271c-1.327.389-1.492.611-2.43 1.827a3.826 3.826 0 0 0-1.058 2.88 15.068 15.068 0 0 0 .28 1.936c.051.385.051.607-.613.94s-2.316 1.717-2.376 3.262-.888 3.873 6.034 11.18l2.484-1.553a18.148 18.148 0 0 0 3.269 2.484l2.208-1.821s-.132-.1-.366-.273c1.038-.721 12.215-8.776 4.24-15.276Z"/></g><path data-name="Tracé 923" d="M470.973 320.961a32.531 32.531 0 0 1 1.345 34.524s9.949-11.924 6.281-32.967A40.242 40.242 0 0 0 444 300.245a44.843 44.843 0 0 0-1.874-.039 57.163 57.163 0 0 1 30.288 23.087" transform="translate(-342.606 -300.206)" fill="url(#g)" style="mix-blend-mode:multiply;isolation:isolate"/><g data-name="Groupe 700"><g data-name="Groupe 698" style="mix-blend-mode:multiply;isolation:isolate" fill="#161615"><path data-name="Tracé 924" d="M7.292 37.506h.206l4.685-14.618 2.255.988-5.641 16.9-2.887-.009L.022 23.91l2.367-1.059Z"/><path data-name="Tracé 925" d="m28.301 29.688 1.75-1.8 7.8.029 1.61 1.667v11.215l-2.34-.01V30.113l-6.48-.026v10.677l-2.34-.008Z"/><path data-name="Tracé 926" d="m53.429 38.821-1.777 1.991-7.5-.03-1.69-2.1-.023-8.973 1.826-1.816 6.823.026-.013-5.139 2.317 1.32Zm-2.334-8.6-6.345-.023.022 8.225 6.343.024Z"/></g><g data-name="Groupe 699" style="mix-blend-mode:multiply;isolation:isolate" fill="#515150"><path data-name="Tracé 927" d="m0 42.588 2.344-1.091 8.728 13.471h.049l-.032-12.314 2.342-1.092.048 17.821-2.372-.01-8.7-13.7h-.05l.037 13.708H.047Z"/><path data-name="Tracé 928" d="m26.991 57.589-1.761 1.789h-7.7l-1.772-1.833-.027-10.96 2.355.01.027 10.543h6.525l-.027-10.553h2.355Z"/><path data-name="Tracé 929" d="m100.01 57.589-1.762 1.846-7.7-.032-1.77-1.859-.029-10.961h2.356l.022 10.571 6.526.026-.027-10.589h2.354Z"/><path data-name="Tracé 930" d="M36.979 48.846h-5.722l.028 10.537-2.358-.009-.028-10.94 1.763-1.845 14.98-.006 1.772 1.86.03 10.94-2.359-.01-.027-10.527h-5.723l.028 10.537-2.358-.01Z"/><path data-name="Tracé 931" d="m62.363 48.434 1.722-1.845h5.535l-2.08 2.257h-2.875l.008 10.532-2.3-.009Z"/><path data-name="Tracé 932" d="M70.862 42.648h2.3l.007 2.654h-2.3Zm.011 3.94h2.3l.034 12.794-2.3-.01Z"/><path data-name="Tracé 933" d="m86.331 62.101-2.3-.007-.009-2.715h-6.635l-1.757-1.778-.023-9.166 1.672-1.845h9.011Zm-2.335-13.254H77.91l.022 8.292h6.087Z"/></g><path data-name="Tracé 934" d="m414.4 319.335-3.361 3.191-1.252-.006 2.157-3.194Z" transform="translate(-349.678 -296.024)" fill="#161615" style="mix-blend-mode:multiply;isolation:isolate"/><path data-name="Tracé 935" d="m408.66 334.647-3.361 3.191-1.251-.006 2.157-3.195Z" transform="translate(-350.933 -292.676)" fill="#515150" style="mix-blend-mode:multiply;isolation:isolate"/><path data-name="Tracé 936" d="m372.543 324.983 1.729-1.843h7.561l1.739 1.86.015 5.694-8.72.02.011 2.971h8.669l-2.163 2.242-7.078.007-1.738-1.855Zm2.32 3.234 6.405-.007-.007-2.821h-6.405Z" transform="translate(-357.822 -295.19)" fill="#161615" style="mix-blend-mode:multiply;isolation:isolate"/><path data-name="Tracé 937" d="m406.6 324.983 1.728-1.843h7.562l1.739 1.86.015 5.694-8.717.02.009 2.971h8.668l-2.159 2.242-7.082.007-1.738-1.855Zm2.32 3.234 6.405-.007-.007-2.821h-6.4Z" transform="translate(-350.374 -295.19)" fill="#161615" style="mix-blend-mode:multiply;isolation:isolate"/><path data-name="Tracé 938" d="m417.974 324.983 1.729-1.843h7.561L429 325l.013 5.694-8.717.02.007 2.971h8.67l-2.162 2.242-7.078.007-1.733-1.86Zm2.32 3.234 6.407-.007-.007-2.821h-6.407Z" transform="translate(-347.887 -295.19)" fill="#161615" style="mix-blend-mode:multiply;isolation:isolate"/><path data-name="Tracé 939" d="m400.865 340.274 1.728-1.841h7.562l1.74 1.856.013 5.694-8.718.017.009 2.971h8.67l-2.162 2.24-7.079.01-1.738-1.857Zm2.318 3.234 6.407-.006-.007-2.822h-6.405Z" transform="translate(-351.629 -291.846)" fill="#515150" style="mix-blend-mode:multiply;isolation:isolate"/><path data-name="Tracé 940" d="m444.071 340.3 1.729-1.843h7.562l1.738 1.856.013 5.694-8.717.018.01 2.974h8.667l-2.161 2.241-7.078.007-1.739-1.856Zm2.32 3.232h6.4l-.006-2.823h-6.406Z" transform="translate(-342.18 -291.841)" fill="#515150" style="mix-blend-mode:multiply;isolation:isolate"/></g></svg>
