<svg width="241" height="251" viewBox="0 0 241 251" fill="none" xmlns="http://www.w3.org/2000/svg">
<g clip-path="url(#clip0_933_12886)">
<path d="M222.71 82.7786L227.58 71.6625L234.131 61.7074L237.986 58.0794L240.855 54.7707V52.0425L235.87 42.6098L234.478 46.4409L232.971 41.7391L228.797 39.243H227.116L217.319 29.6942L207.58 26.2984H202.972L196.74 22.5834L193.58 22.0029L193.146 22.8446L193.348 25.805L189.986 29.8974L187.262 31.4937L185.754 34.4831L184.305 35.2087L184.595 37.4435L183.465 38.5174L184.74 44.4092L184.044 45.5412L184.392 48.5887L184.972 49.2272L185.349 52.652L186.914 53.2615L186.189 54.9158L188.769 59.7047H190.943L193.638 64.1744L192.015 70.0662L190.479 69.4857L188.972 72.301L189.493 78.7733L184.334 86.7258H183.465L182.479 88.7285L183.117 90.673L185.175 90.9923L186.392 92.3274L189.262 91.9211L190.769 92.8498L192.218 91.1955L193.928 90.9633L198.189 87.3643L198.015 88.7285L202.972 90.0345L206.942 87.9738L208.884 89.454L208.218 91.0503L211.667 90.5279L212.797 91.6889L215.609 91.3986L216.189 90.1796L220.131 87.8287L222.71 82.7786Z" stroke="white"/>
<path d="M77.205 204.533L76.3934 203.604L75.8137 202.675L75.6978 202.443L75.8137 200.789L76.2775 199.86L78.6253 196.116L78.7412 196L79.6687 195.536L79.7847 195.419L81.1759 195.652L81.2919 195.768L82.0165 197.509V197.741L82.1325 198.467L82.0165 200.789V201.021L81.7557 201.979L80.9441 204.068L80.3644 205.229L80.2484 205.346L80.0165 205.462L79.5528 205.578L77.205 204.533Z" stroke="white"/>
<path d="M76.9729 211.557L76.8569 211.208L77.8134 209.786L78.741 209.09L78.9728 208.974L79.0888 209.438L78.3931 210.744L78.2772 210.86L77.3207 211.789L76.9729 211.557Z" stroke="white"/>
<path d="M73.4657 223.137L73.002 222.789L73.6976 221.483L73.8425 221.25H73.9585L74.5382 221.367L74.77 221.715V221.947V222.179L74.4222 222.673L74.0744 223.021L73.8425 223.253H73.5817L73.4657 223.137Z" stroke="white"/>
<path d="M69.0312 227.23L68.9153 227.114L68.7993 226.998L69.1471 226.417L69.2631 226.272H69.379L70.4515 226.417L70.6834 226.533L70.7993 226.649V226.765L70.3355 227.114L69.1471 227.346L69.0312 227.23Z" stroke="white"/>
<path d="M67.176 233.179L67.0601 232.947L67.176 232.018V231.786L67.2919 231.554L69.6397 229.551H69.8716L69.9876 229.667L70.1035 230.248L70.2194 230.509V230.973L69.9876 232.483L69.8716 232.599L67.2919 233.295L67.176 233.179Z" stroke="white"/>
<path d="M63.437 238.81V238.578L63.553 238.084L63.6689 237.968L63.7848 237.852H64.0167L64.1327 238.084L64.0167 238.316V238.578L63.7848 238.926H63.553L63.437 238.81Z" stroke="white"/>
<path d="M62.7411 241.712V241.945L62.973 243.251L63.089 245.689L62.5093 247.575L61.8136 248.736L61.6977 248.968L61.3209 249.317L60.973 249.549L59.6977 250.013L58.3064 250.594L57.118 250.855H56.8861L55.8427 250.71L55.6108 250.594L55.4948 250.478L55.3789 250.361L57.9586 243.831L58.6542 242.902L59.4658 241.945L59.9296 241.596L60.6252 241.248H60.8571H61.089L62.2774 241.364L62.5093 241.48L62.6252 241.596L62.7411 241.712Z" stroke="white"/>
<path d="M39.3795 64.1164L38.6838 63.6521L38.5679 63.536L37.8722 62.8104L37.6404 62.4621L37.5244 62.2299L37.6404 61.7655L38.7998 58.4858H38.9157L39.9592 58.6019L41.1186 60.9529V61.069L41.4954 63.2748L41.3794 63.3909L41.0026 63.8843L40.7708 64.0003L40.4229 64.1164H40.191H39.3795Z" stroke="white"/>
<path d="M56.8863 29.0267L54.3356 27.6335L53.6399 27.5174L53.3791 27.6335L53.2631 27.7496L53.1472 27.8657L52.9153 27.7496L52.6834 27.4013L51.9878 23.5412V23.0768L52.1037 22.8446L53.0313 22.119L53.1472 22.0029H53.3791L55.495 23.0768L55.6109 23.1929L57.2341 24.9343L57.35 25.0504L57.495 25.2826L57.7269 25.9792L57.8428 26.6757L57.7269 29.1428V29.375H57.495L56.8863 29.0267Z" stroke="white"/>
<path d="M53.8719 51.1136L51.9879 50.3009L51.756 50.1848L51.6401 50.0687L51.5241 49.8366V49.7205L51.4082 47.2825L51.5241 46.7891L51.6401 46.5569L53.756 44.4672L53.9879 44.3511L55.2632 44.4672L55.6111 44.6994L57.2342 45.512L60.0458 47.2825L60.1617 47.3986L60.2777 47.6308V49.14V49.3722L59.698 49.9527L59.4661 50.0687L57.4951 51.3748L53.8719 51.1136Z" stroke="white"/>
<path d="M0.857982 4.1242L0.973923 4.0081L1.43769 3.42763L4.82895 0.960613L5.06083 0.844518L5.17677 0.728424L6.22024 0.380139L7.95935 0.147949L8.30717 0.264044V0.496234L7.61152 1.77328L7.37964 2.12156L6.33618 2.61497L5.87241 2.73106L4.10432 3.42763L1.55363 4.47248L1.08986 4.58858H0.857982H0.365234L0.857982 4.1242Z" stroke="white"/>
<path d="M20.5676 41.42L20.2198 40.7234L19.9879 40.3751L19.4082 39.9107L18.8285 39.5624H18.5966L18.1329 39.6785H17.5532L16.7126 39.5624L16.017 39.3303L15.3213 38.953L13.6982 38.0242L13.5822 37.9081L12.6257 36.3989L12.5098 36.1667L12.8866 35.5862L13.1185 35.354L13.5822 35.0057L14.3938 34.6284H14.6257L17.6691 36.2828L17.901 36.3989L19.0604 37.5598L22.2198 41.3039V41.7683V42.0004L22.1039 42.1165L20.9444 42.697L20.5676 41.42Z" stroke="white"/>
<path d="M23.3794 47.3988L22.6837 47.1666L22.4518 46.9053L22.2199 46.5571L22.104 46.2088V45.9766V45.3961V44.9317L22.3359 44.4674L22.6837 43.4225L23.1475 43.1903L23.7272 43.0742H24.075L25.1474 43.4225L25.2634 43.5386L25.3793 43.7708V43.8869L25.7271 45.1639V45.6283V46.2088L25.4953 46.6732L25.2634 47.0214L25.1474 47.1666L25.0315 47.2827L23.7272 47.3988H23.3794Z" stroke="white"/>
<path d="M72.0745 122.918L71.9586 122.802V122.57L71.8427 121.409V120.945L71.9586 120.103V119.871L71.263 116.968V116.736L71.147 116.504L70.1036 114.153L68.9152 112.644L68.4514 112.034L67.9876 111.454L67.8717 111.222L67.292 109.248L67.6398 107.362L67.9876 106.201L68.2195 105.852L68.9152 105.62H69.6398L69.8717 105.736L74.1905 107.594L74.7702 107.942L76.2774 110.293L76.7412 112.412L76.8571 117.781V118.013L76.7412 119.174V119.522L76.6252 119.755L76.2774 120.596L76.1615 120.945L75.6977 121.409L72.4224 122.918H72.0745Z" stroke="white"/>
<path d="M88.6539 182.214L88.1901 181.749L87.4945 181.024L87.1466 180.792H86.9148H86.335L85.8423 180.675L85.3785 180.327L84.9148 179.979L84.2191 179.282L83.9873 178.934V178.702L83.8713 178.47L83.7554 175.887V175.654L83.8713 174.958L85.4945 172.026L86.451 170.401L89.1176 166.657L89.4655 166.425H89.6973L90.0741 166.657L90.306 166.773V166.889L91.3495 170.285L91.8133 171.794V172.491L91.4654 176.699V176.931L91.3495 177.889L90.8857 179.631L89.3495 182.098L88.8857 182.446H88.6539V182.214Z" stroke="white"/>
<path d="M1.55366 8.79709L1.43772 8.681L1.32178 8.5649V8.33271L1.43772 8.21662L5.29274 6.33008H5.52463L6.33621 6.4752L6.45215 6.59129L6.91591 7.75224V7.98443L6.68403 8.44881L5.87245 8.33271L2.71306 8.5649L1.55366 8.79709Z" stroke="white"/>
<path d="M13.4664 16.0528L13.3505 15.8206L12.2781 14.6597L12.1621 14.5436V14.2824L12.2781 13.9341H12.5099L14.6258 14.3985L15.4374 14.6597L15.5534 14.8919L15.4374 15.1241L14.6258 15.5884L13.6983 16.0528H13.4664Z" stroke="white"/>
<path d="M67.0599 76.9739L66.1324 75.2035L65.7845 74.2747L65.6686 73.5781V73.3459V72.8816L65.9005 72.5333L66.7121 71.5755L68.1033 70.5306L68.3352 70.4146H68.5671H68.683L69.4946 70.995L70.683 71.9528L70.799 72.0689L70.9149 72.3011L71.2627 73.6942V74.0425L71.0308 74.9713L70.9149 75.2035L71.0308 75.4357L71.1468 75.813L71.9584 76.8578L72.3062 77.2061L72.654 77.4383L73.1178 77.5544L73.3497 77.6705H73.5815L75.2337 77.9027L75.8134 78.0188L76.1612 78.2509L76.509 78.4831L78.7409 80.2536L77.9293 80.8341L68.799 82.9238H68.3352H67.9874L67.0599 82.5755L66.5961 82.4594L66.1324 82.1111L65.6686 81.6467L65.0599 81.7628L64.3643 81.8789H64.2483V81.995L63.7846 82.8077L63.6686 83.0399L63.7846 83.2721L63.9005 84.3459L64.0164 84.5781L64.2483 85.2747L64.7121 87.9739L64.828 88.7866L64.5961 89.5992L64.4802 89.7153L64.0164 90.1797L62.7411 91.3406L61.0889 92.2984L59.5817 92.995L59.3498 93.1111L59.2339 92.995L57.4948 90.2958L56.6542 89.0187L56.5383 88.6705L55.2629 81.2984L55.147 80.3697L55.2629 78.7153L55.6107 77.6705L56.5383 76.9739L57.118 76.6256L57.2339 76.5095H57.7267H57.9585L60.7411 78.0188L62.6251 79.6441V79.7892L62.7411 79.9053L63.6686 80.0214L64.5961 79.528H64.7121L65.2918 79.2958L67.0599 76.9739Z" stroke="white"/>
<path d="M83.4077 79.0633V78.9473L83.5237 78.7151L83.6396 78.599L84.5671 77.9024L85.0309 77.5541L85.8425 77.0897L86.1033 76.9736H86.3352H86.799L87.3787 77.0897L87.2627 77.3219L86.9149 77.5541L85.3787 78.4829L83.6396 79.1794L83.4077 79.0633Z" stroke="white"/>
<path d="M75.9296 96.1587L75.5818 96.0426L74.7702 95.7814L74.5383 95.6653L74.3064 95.317L73.6978 93.8078V93.5756L74.5383 92.0663L75.9296 90.5281L76.2774 90.2959L76.5093 90.412L77.4368 91.2247L78.8571 92.879L79.089 93.1112L79.4368 94.04V94.2722V94.5043L79.2049 94.8526L78.0455 95.6653L77.6687 95.7814L77.089 96.0426L76.6253 96.1587H75.9296Z" stroke="white"/>
<path d="M91.4654 152.261L87.9582 152.029H86.451L85.4944 152.261L80.0163 143.148L77.6685 138.475V138.243L77.9293 137.546L78.3931 136.966L78.9728 136.472L79.9003 135.776L80.3641 135.66H80.596L81.1757 135.776L82.9438 136.356L83.1756 136.472L85.2626 137.662H85.4944L89.2335 141.29V141.755L90.6538 144.773L92.8567 147.124L93.6683 148.053L94.161 151.797L94.277 152.029L94.0161 152.61L93.7842 153.219L93.6683 153.451L93.3204 154.264L92.7407 154.728H92.5089L91.4654 152.261Z" stroke="white"/>
</g>
<defs>
<clipPath id="clip0_933_12886">
<rect width="241" height="251" fill="white"/>
</clipPath>
</defs>
</svg>
