<svg xmlns="http://www.w3.org/2000/svg" viewBox="0 0 1060 1060">
<style type="text/css">
	.st0{fill:none;stroke:#FFFFFF;}
</style>
<path class="st0" d="M990,807.6l-22.2,7.8l-17.2-9.2l-11.9-2.3L927.2,790l-0.4-0.1l3.7-9.4l-7.3-10.2l4.1-3.3l2.5-11.2v-0.2l0.4-0.3
	l3.3-4l6.7,0.1l-7-17.5l-11.4-0.5l-9.8-6.2l-1.5-12.3l-5.2-0.2l-4.4-9.9v-0.1l36.3-15.6l3.7-6.8l-2.2-4.9l5.2-9.7l-13.7-9.6
	l-4.2-10.2l1.3-5.9l-10.5-4.3l-5.3-5l-0.9-6.1l0.2-0.1l15.5-15.2l1.9-5.9l-6.4-8.5L907.3,583l4.2-11.5l-6.9-10.2l1-5.3l-6.3-1.4
	l-15.9,1.2l-9.5,7.9l-6.4-2.7l-13.2-0.8l-6.5-3.7l-0.3-0.2l6.7-22.7l22-20.2l-1.5-18.2l16.1-11.2l22-27.1l-0.5-5.3l4.3-4l-8-6.7
	l1.9-5.5l7-8.1l7.3-1l0.5,0.2l3.5,6.7H943l11.4-7.9l0.3-5.8l4.2-3.7l-5.3-14.5l5-28.9l-3.7-19.4l11.2-26.2l2.8-29.4l19.6-25.6
	l7.3-20l-15.8-5.7l-27.8-1L936.5,231l-11.7,7.9l-13-2.3l-4.8,2.3l-4.2-7.4l-5.7-2.6l-5.2,3l-0.5,5.5l-5.2-1.3l-15-17.2L868,208
	l-5.6-3.9l-20.8-4.8l-8.3,6.5l-5.2,0.2l-9.7-4.4l-6.7-5.5h-12.8l-2.4,5.2l-10.5,1.3l-6.5-13.5l-5.9,0.5v-5.8l-11.3-2.9l-12.7-11.2
	l-11,0.4l1.6-12.2l-5.3-10.7v-7.7l5-9.7l-5-2.8l-7.9,8l-3.1,12l-16.4,7.4l-10-3.2l-5.4,1.2h-0.6l-6.9-2.2l6.2-11.9l-5.7-9.8
	l-1.3-11.1l-7.7-9.1l-11.4,2l-10.2-2.4l-8.2-13.3l-10.1-2.5l-7.6-1l-6-2.1l-5.7-15.8l0.9-5.7l-7.4-8.2l-11,0.8L589,67.3l-5.5-2.3
	l-5.3-9.9H572l-2.5-5l2-10.7l-4.8-11.3l-5.2-3.2l-30.6,7.7l-25.7,8L494.3,50v33.7l0.4,3.3l-1.4,11.1l0.9,7.2l-2.7,5.6l-0.7,5.7
	l0.5,7.5l-12.2,16.7l-0.3,0.5l-20.4,14.2L417,165.9l-26.8,14.4L379.4,204l3.2,4.2l0.8,8l-9,7.8l-18.2,5.2l-15.9-6.7l-23.4-2.6
	l-17.9-6.2l-10,4.3l-12-19.7l4.7-14.7l-2.1-5.2l-12.1-1.3l-4.7,3.3l-12.2,0.9l-21.4-8.7l-0.3,5.3l6.1,3.4l1,9.2l-3.6,3.8l4.8,19
	l15.9,17.2l-2.5,18.9l3.7,5.4l-1,11.2l-4.2,10.7l7.8,17.5l-5.5,6.5h-21.7l0.5-10.5l-6,1.3l-7.5,7.2l-8.2,2.2l-7.7,0.6l-1.8-5.8
	l-7.7-2.2l-6.7,0.5l-20.2,16.7l-1.7-6.8l-7.5-4.9l-0.2-5.8l-8.5-14.7l-5.5-1.2l-4.5-4.7l-10.5-7.5l-16.6,6.9l-2.7-4.5l-8.5,6.8
	l-0.6,11.5l-6.1,1l-9.1-5.6l-5.4,1.1l-8.5-4.8l-27.1,8.2l-2.8-5L19.5,291l-10.8,0.9l-3.5,4.5l-2.7,16.8l3.3,4.4l5.2-2.2l4.9,2.4
	l-0.9,8.8l4.5,9.9l3.4-5.2l5.2,0.5l10.1,5.8l1.7,6l-3,4.7l-4.5-2.5l-23.7,2.4l-2.9,4.6l17.9,6.7l7,11.7l-2,10.4l13.7,1.1l6.9-7.8
	v-0.7l5.5,3.7l8.7-3.2l8.8,11.2l5.4-1.2l0.6-0.1v0.1l4.9-1.8l-1.2,5.3l5.4,1.2l7.1-2.8l1.7,8.7l4.7,3l5.2-2.7l4.5,4.8l6.8,2.9
	l0.4,0.2l0.6,5.1l4,5.4l0.4,5.8l5-4.5l6-1.3l4.5,3.3l1.7,2.2l9,7l23.2-1.8l-0.5,3.1l3,4.9l-8.3,8.2l4.5,11.5l11.4,2l3.8,3.7l9.2-6.9
	l0.8,3.7l-1.2,12.5l5.6,6.4l9,9.3l-14.7,15.6l0.8,8.3l19.6,22.9l3.8,13.2l15.2,12.7l9,2l2.9,6.7l11.3,2.2l8.7,7.2l1.4-5.2l5.3,0.8
	l-8.5,18.1l5.5,1.6l7.7,15.1l-2.2,10.8l-5.5,10.9l-8.9,6l2.4,8.2l14.7,9.2l19.5,20.8l4,14.1v0.1l-7.7-3.3l-20-19.7l-1.8-5.2
	l-5.5,10.7l-11.6,94.2l-1.8,11.6l0.2,8.8l-20.6,93.9l-7.2,13.4h-0.1l-8.6,11.8l-11.8,8.7l10.8,5l5.2,2l12.4,2.5l2.6,5.4l-3.5,11
	l-4.8,4.3l2.3,5.4l7.4,1.8l6.8-2.1l11.1,5.8l18,7l11.9-0.6l4.8,8.8l14.7,12l4.4-3l4.3,2.7l11.2-5.8l0.2,0.1l21,18.7l22.9-3.1l4.7,4
	l18.5-0.4l11.7,0.7l4.4-4.2l-0.7-12.2l4.5-2.5l12.7,4.4l18.7,4.8l9,8.2l12-0.8l10.7,14.2l1.9-5.5l6.3-0.4l19.9,9.5l-3.7,9.2
	l16.6,4.9l4.3,10.7l6,0.3l8.4-7.5l6-0.4l17.7,4.2l8.7,6.7l11.7-0.8v-5.7l15.2-7.9l11.8-2.1l16.1,4.3l-10.9-13.5l-0.6-32.9l0.8-18.6
	l10.5-20l5-5l10.2-7.7h12.7l12.5-13.6l20.6-14.8l15.7-4.5l5.5,9.2l5.7,1.3h0.3l26.9,0.8l3.7,4.7l-0.8,5.2l6.8,1.7l18.2-2.2l12.1,1.7
	l24.7-2.9l7.3,16.6l18.2,4.5l5.2-1.7l0.3,0.3l11.6,6.7l16,0.3l11.2,3.1l6-5.1l14.1-3l10.5-2.3l5-4.7l7.2,0.7l4.2-10.2l-6.7-3
	l11.5-15.2l10.2-1.4l8.2-14.5l10.7-5l2-7.8l27-14.8l1-13.5l11.6-16.2l3.8-8.2L990,807.6z"/>
<path class="st0" d="M479.1,140.8l23.6,20l6.3,15.9l-5.7,8.7L506,202l-2.7,15l6.7,15.7l-7.5,4.8l3,6l10.5,2.2l11.9-3.5l17.2,4.2
	l4.2-3l20.4,11.9l12.9,2l3.8-4.2l4.7,3l15.2-5.5l5,1.3l3.2,4.7l-1.2,5.3l7.4,7.9l17.5,11.2l14.2-19l-3-7.5l7.2-8.7l-6-15.2l2.3-5
	l14.9-7.5l10.2,3.5l1.7-5.2l4.7-27.4l9.4-13.5v-12.4l-1.5-10.7h-0.7"/>
<path class="st0" d="M502.5,237.6l-7.4,17.7H488l-4.5,4.7l3.3,11l7,12.4l0.8,20.4l11.5,10.2l2.3,10.5l4.2,4l5.8-1.2l5.3,19.9l13-1.5
	l6.3-0.3l5.2-3.2l7,1l1.3,5.8l7.9,8l-1,5l12.2,4.2l21-5l7.4-10l0.3-10.9l28.9-5.8l-0.8-16l5.5-1.3l5.7-9.4l-4.8-3.2l-6.5-15.5
	l4.7-4.2l1-3.8 M924.8,426.3l0.5,0.2l-9.2-9.5l-0.8-17.1l-14.2-9.3l-17.5-11.2l-9.7,4.2l-9.2-6.9l-10.5,3l-13.2-8l-15.2,10.9
	l0.5,2.6l-4.4,6.1l-5.3-0.7l-3.9,4.5l-0.6,15.7l-5.7,1.8l-4.2-3.3l-12.4,7.3l-11.1,2.9l-5.7-2.9l-17.2-3.8l-4.4-9l5.2-4.5l-1.8-5.7
	l-3.4-4.3l-4.8-5.9l-6-7l-6.5-1.3v0.1l-7.2-1l-8.9,7.4l-11.5,1.6l-9.7,1.2l-23.6,3l-9.3-20.5L657,359l-8.3-11.3l-8.4-10.4l-6.8-2.8
	 M605.6,519.2l10.8,11.9l12.1,0.3l5.3-3.2l8,6.9l11.2-11.2l12.7,25.2l14.7,5.5l3,4.6l-0.8,10.3l-7,8.7v5.7l9.7,6l15-2.8l14.5-3.2
	l0.7-5.7l8.4-0.2l9-0.1l13.7,10l11-39.3l11,2.9l10.1-2.4l9,6h0.1l8.1,14.6l5.5,5.7l5.5-0.4l7.5-8l6.4,3l0.6,5l7.4-0.1l10.2-6.2
	l8.8-12.2l-0.3-0.2"/>
<path class="st0" d="M486.8,271l-11.2,13l0.5,5.2l-11.2,2.5l-15.4,3l-11.2,2l-4.5,4.8l0.3,6l8.9,8.2l-0.3,8.5l1,8.5l-14.2,9.7l2,14
	h0.2l3.8,7.2l-0.8,3.3v0.2l-0.5,8l0.7,10.4l-11.7,20l-6,1.8L416,414l-14.4,8.4l-5.2-0.5l-10.5,1.3l-1.5,4.5l-3.2,17.4L370.5,474v0.2
	l10.2,6l6,5.5l2.5,11.4l5.2,2.7l18.9-0.8l7.4,0.2l0.3,5.8l17.4,24.6l-1.7,10.9l8.9,8.2h5.3l5,10.2l1.7,7.7l5,2l10.9-2l8.4-0.8
	l21.6-2l3.5-4.7l24.9,5l5.2-1.5l9.2,0.3l6.5-11.2l16.4-1.8l3.2-4.5l-3.2-10l4.2-3.5l15.9-5.3l9-7h7.5l2.5-16.7l0.5-11l-4.2-3.7
	l-0.5-11l-5.8-14.2l-5.2-4l3.2-10.9l-3.7-12.2l2.8-4.5l1.2-14.2l-5.7-5.3l9.9-6.2l3-4.5l-2-5.5l8.7-9.2l-0.8-10.7l-12.5-14.2
	 M174.7,432.7l28.9-8.5l0.7-11.2l9.9-6.3l24.6-0.8l3-5.3l16.9-7.4l13.7,2.7l6.7-16.2l10.4-4.2l-3.5-32.6l2.8-4.3l0.2-22.7l-10.2-4.3
	l-13.4,8.9l-5-1.7l-8.9-17.9"/>
<path class="st0" d="M434.7,367.2V367l0.8-3.3l-3.8-7.2h-0.2l-5.8-1.3l-6-6.5l-5.3,1.8l-13.5-9.4l-3-15.7l-5.2-2.8L372,333.5
	l-5.7-0.2l-6-8.4l-3.7-11.4l-5.2-0.5l-1.3,5.2h-17l-17.4,3l-10.7-4l-16.2-1.5 M370.5,474.1l-16.7,6.9l-18.2,0.3l-10.5,1.5l-6.9,9
	l-23,1.5l4.2,10.7l8,7.7l8.8,33.6l-0.5,14l-12.3,12L299,568l-9.7-5l-16.5,6.5 M527.9,729.6l6.2-3.7l3-8.4l0.5-6.3l1-7.9l14.2-17.9
	l1.2-6.5l11.7,3.8l-3.7-26.1l3.3-4.7l-2.3-10.4l-8.4-10.4l17.5-16.2l-4.3-12.7l1-7.7L562,579c-4.5-3.2-9.2-6.2-13.9-9.2l-2-7.4"/>
<path class="st0" d="M709.5,902.8h0.3l7.2-11l10.9-3.3l-1.8-5.2l7.9-9l6.2,1.7l3.5-19.9l15.9-17l-11.9-12l-0.3-10.2l-4.8-8.5
	l-11.4-6.3H726l-5-1.7l-13.2,8.2l-14.5-9.4l-13.2-26.7l-3.8-17l-16.9-14.4l-5.3-0.5l-0.3,5.3l-12-2.3l-2.8-10.7l-4.2-3.2l-17.9,8.4
	l-21.4,11.5l-2.3-7.9l-9.9-7.5l-8.9,8l-5.7,16.9l-7.2,9.2l-11.9-3l-9.7,6l-6.2-9.4l3.3-10.7l-7.2-11.4l-1.8-10.2l-12.7-0.3l-9.9,5
	l-12.7-11.4l-15,1.3l-1.3,9.5l-2.7,10l-8.5,6l1.3,6.7l-11.4,6.3l-8.9,12l-6.3,6l5,17l-14,3.7v5.5l4.5,2.7l-8.4,10.2l-2.8,4.7
	l-6.7,8.9l-5,2.5l-16-1.8l-9.5,5.3l-18.2,3.3l-12.2,6.8l-18.7-0.5l0.8,11.9l-8,20.9l3,5l12.4,0.7l4.7,10.9l2.7,5.2l1,13.7l-3.5,8.4
	l-15.2,17.4l-5.5,7l-3,5.3l-2.3,16v0.2"/>
<path class="st0" d="M900.9,704.8l-11.4,2.2l-18.4-2.8l-2.8,7.2l3.2,7.9l8.2,5.8l-6.3,8.9l-23.7,7.2l-1.7,5.3l-10.4,2.3l-1.8,5.7
	l-0.7,6.3l-10.7,0.7l-4.7,12.7l-6.8,6.2l-6.2,9.5l2.8,5l18.7,10.7l-0.3,8.9l-1.8,0.3l-4.3,0.2l-8,9l-9.9-4.3l-0.2-5.3l-17.5-1.5
	l-5.5-6.7l-4.5-2.7l-16.4,7.4l-6.7-8l-10.9-1.3l0.2,6.8"/>
</svg>
