<svg xmlns="http://www.w3.org/2000/svg" viewBox="0 0 1060 1060"><style>.st0{fill:none;stroke:#fff}</style><path class="st0" d="m971.1 592 14.6-13-14.6-27.6 4.4-29h-35.7l-1.6-16.2 32.6-19.6-5-31-31-8.1 8.1-8.3v-22.7l24.5-18-6.5-13-52.2-40.7-91.3 5-9.7 16.2h-11.5l1.6-57.1-26.1-30.8-19.6 3.1-11.5-13-32.6 14.6-11.2-11.2-23-3.4-6.5-21.1-1.6-65.2-14.6-6.5-1.8-9.9h-9.7l-3.4-19.6-21.1 1.8-40.7 13-19.6 24.3h-19.6l-13-16.2-5-18-16.2-18h-23l-9.7-17.7V87l11.2-17.7-6.5-24.5-20.7-42.5-52.2 24.5-81.4 13-4.4.8-90.2 17.2-71.7 55.3v220.1l-.5 6.5-4.4 53.7 36 32.6v16.4l-44.1-26.1-52.9 65.2 14.1 6 18-1.6 8.1 16.2 71.7 70.2 5 29.2 16.2 29.5-5.5 6.8-10.7 12.8-6.5 16.2h13l-6.5 16.4-6.5 32.6 9.7 16.2v28H223l-6.5 11.2-11.5 21.4-4.7 14.6 14.6 13 4.7 37.6 8.3 13-11.5 3.1-14.6-8.1-2.6 19.3 1-1.3 6.3 14.6 9.9 16.2 44.1 3.4 31-3.4 21.1-16.2 26.1 16.2 13 9.9 19.6-5 17.7-8.1 34.4 18 35.7 21.1 11.5 11.5 19.6-13 16.2 9.7 9.9 8.1 14.6-1.6 9.9-13 22.7 13 27.9-11.5 16.2 5 16.2-13 9.9-5 3.1 2.3 14.9 10.7 5 36 43.8 42.3 14.6 5 8.3 19.6 27.4 5.7 3.4-4.2 8.3-17.7 24.5-11.5 13-34.2 14.6-9.9-8.3-11.5h-21.1l-3.1-11.2 14.6-6.5 6.5-9.9-14.6-9.7 4.7-14.9 37.6-3.1-6.5-14.6-22.7-14.9v-43.8l30.8-23h34.4l-3.4-16.2 19.6-8.3 27.6 18 11.5-3.1-1.6-55.6 5-19.6 6.5-22.7-21.4-11.5 5-13 31-6.5v-21.1l24.5-13 6.5-19.6-8.1-13 1.5-24.5z"/><path class="st0" d="m631.5 667.4-34.4 3.4-23.2-3.1-43 11.5-36.5 34.7-29.7-9.9-29.7-3.1-23.2-23.2-41.5-11.7-56.1 5-14.9-11.5h-30l-21.4 8.3-9.9-6.8v-18l-3.4-5H214M314.3 40.6l31 49.3 21.6 54.8 36.3 1.6 14.9 11.5-18 8.3v19.8l23 24.8 41.5 10.2L516 224l11.5-18.3h16.7l8.1 16.7-21.4 13.3 3.4 33.1 29.7 8.1 29.7 3.4 8.3 21.4 14.9 6.8-3.4 11.5-21.4 9.9-1.8 9.9 16.7 20.1 11.5 8.1-3.1 9.9-13.3 9.9 5 3.4 21.4 1.6 18.3 11.7-1.6 14.9-9.9 6.5-1.8 26.6-14.9 1.6-14.9-1.6-16.4 9.9 9.9 3.4h16.4l14.9 3.1 5 8.3-9.7 18.5 13 13 13 3.4 13-8.3h18l5 9.9 6.5-1.6 19.6-11.5 19.6 11.5 26.1-18h11.5l13 11.5 26.1-18 11.2 1.6 9.9 8.1 36 3.4 3.1 14.6 18-16.2h9.7l6.5 21.1 31 8.1 8.9-6"/><path class="st0" d="m649.2 512.2 3.9 23-21.4 23.2v21.4l-14.9 16.7 3.4 19.8 8.1 33.1 9.9 56.3-3.1 49.6-6.8 14.9 19.8 14.9-14.9 6.8-9.9 39.6-28.2 6.5-9.9 16.7 19.8 3.4 3.4 23-14.9 3.4 1.6 24.8 5-1.6 8.3-13.3 19.8 13.3 11.7 13.3-3.4 22.2m-12.9-447.5-1.6-1.6h-39l-24.5 13v-11.5l-6.3-11.5-14.9 6.5-18 9.9 9.9-14.6-1.6-13-21.4-14.9v16.4h-14.6l-34.2-11.5-14.6-11.5-14.9 9.9-4.7 13-6.5 1.6-8.1-8.1v-23L433 429l-9.7-16.4-19.6 8.3-9.9-8.3-40.7 5-21.1 8.1-21.4-8.1v-16.2l-29.2-13-8.1-19.6-11.5 4.7-31-24.3-14.6-5-11.5 14.6-19.6 5-8.1-18-25.3-6"/></svg>
