<svg xmlns="http://www.w3.org/2000/svg" viewBox="0 0 1060 1060"><style>.st0{fill:none;stroke:#fff}</style>
	<path class="st0" d="M1001.3,477.4l-3.9-20.5l-7-12.2l-5.5-17.9l-20.3,1.5l-64.2,23.1h-20.5l-35.4-28.6l-35.6-9.6h-20.5v-24.7
		l-28.6-17.7v-0.9v-26.4l19.2-2.6l-10.9-9.6l-13.8-4.1l-6.8-17.7l5.5-12.2l24.5-26l-3.9-19.2l3.5-3.7l12.9-14l14.9,1.3v-12.2
		l-19-9.6l-4.1-39.5l-15.1-5.5l-19,2.8l-35.6-17.9l-5.5-40.8l-20.3-6.8l-7-13.8l-9-19.7L644,71.4l-12.2,5.5L629,97.4l-24.5,2.8
		L600.3,81l-8.1-8.1l-24.7,2.6l-9.6,8.3l-5.5,28.6l4.1,6.8l28.6,2.8l5.5,17.7l10.9,5.5v29.9l-26-1.3L564.7,186l-31.2-5.5l-17.7,15.1
		l-12.4-5.5l-17.7,13.8l6.8,12.2L481.6,227h-34.1v16.4l10.9,5.5l-4.1,9.6l-23.1,9.4l-28.6,2.8l-8.3,26l-1.3,16.4l15.1,12.2L393,343
		l-19-9.6l-21.8-1.3l-2.8,12.2l13.8,9.6l-16.6,10.9L352,388l46.3,12.4l8.3,17.7l13.5,2.6l-4.6,42.6l-0.9,8.1l-8.1-9.6l-10.9-9.6
		l-7,20.5l-12.2,10.9l-5.2-0.4l-12.4-0.9l-20.5-15.1l-5.5-17.7l-38.2-2.8l-28.6-2.6l-2.8-16.4l9.6-20.5L255,422.3l-27.3-2.8
		l-5.5-9.6l19-25.8l-19-17.9l-19.2,1.5l-14.9,23.1l3.9,24.5l23.1,2.8l-3.9,10.9l-17.9,1.3L173,450.8l-5.5-6.8l3.9-27.3l-8.1-9.6
		l-36.9,5.5l-7.2,14.6l3.9,2.2l23.1,38.4v31l40.6,40.4v17.5l-15.7,9l-38.2,21.8l-9.8,73.4l-40.4-5.7L71.1,686l9.6,13.5l-44.3,27.1
		L24.2,755l43.2,2l57.4,4.1l10.9,10.9h-20.5l-13.5,23.1l58.5,12.2l46.5-8.1L182,775.8l16.4-13.5l26,10.9l12.2,26l78,1.3l20.3-8.3
		l4.1,12.4l-21.8,19l30.1,1.3l-5.5,13.8l-8.3,9.6h66.8l32.8,10.9l3.3,4.4l3.7,5l24.5,10.9l6.8,27.3l15.1,2.8l13.8-9.6l24.5-15.1
		l42.4,4.1l-1.3,10.9l-13.8,6.8l32.8,1.5l-8.1-8.3l-2.8-17.7l17.7-12.2l20.5,6.8l8.3,2.6l6.8,8.3l9.6-6.8l2.6-17.9l10.9-9.4H679
		l8.3-12.4l19,5.5l21.8-9.4v-35.6l-28.6,1.3l21.8-13.5l10.9-15.1l2.8-21.8l39.5-5.5l22.1-24.7l1.1-1.3l1.3-31.2l27.3,5.5l9.6-12.4
		l13.8,2.8l1.3-42.4l31.4-2.6l27.3-24.7h24.5l1.3-15.1l24.7-14.9l-13.8-31.4l20.5-17.7l-4.1-20.5l30.1-9.6L1001.3,477.4z"/>
	<path class="st0" d="M371.3,483.3l0.2,1.3l1.1,18.6
		l14.9,2.6V523l-13.5,6.1l2.4,19.9l24.7,12.2v13.5L390,587.1v11.1h31l28.4,32.1l-0.2,0.7l36-11.8l44.6,29.7l24.7-18.6l6.1-12.4
		l34.7-11.1l22.1,14.9l32.1-23.4l37.1,1.3l9.8-10l20.7-0.9l0.4-0.2l-5-12.4l6.1-7.4l-2.4-9.8h19.7l5-6.1l18.6-10l14.9,10l9.8-6.3
		l-23.4-21L735.7,502l-8.5-2.6l-1.3-18.6l-14.9-22l5-32.1l7.4-17.5l13.5-11.1l1.3-17.3l18.6-9.8l2.8-1.1"/>
	<path class="st0" d="M777,248.3l-17.7-0.9l-14.9,22.3
		l-21,12.4L716,297l-18.6,1.1v13.5l-5,7.4l-7.4,18.6l-44.3-1.1l-21-11.1l-13.8,9.8l-25.8-1.3l-6.3,8.7h6.3l3.7,23.4l-6.3,2.6
		l-23.4-14.9V345l-13.5-11.1h-7.4v12.4l-11.1,2.4l-23.6,13.5l-14.9,24.9l-3.7,12.2l8.7,2.4l1.3,19.9h-8.7l-13.5-12.4l-7.4,1.3
		l3.7,11.1l21,23.4l-13.5,5l-9.8-6.1h-24.9l-21,19.7"/>
	<path class="st0" d="M717.4,588.5l-16.2,9.8l6.1,14.9
		l16.2,1.1l15.9,7.4l2.6,26l14.9,14.9h8.5l16.2,6.1l2.4,13.8l-9.8,8.5l7.4,7.4v8.7l15.3,15.7"/>
	<path class="st0" d="M171.4,565.8l1.1,0.4l49.4,21
		l21,23.4l10,13.8l27.1,12.2l32.1-1.1l53.1,22.1l29.7,3.7l37.1-8.5l15.3-12l2-10.3"/>
	<path class="st0" d="M447.9,640.3l22.3,14.9L440.4,675
		l-12.2,24.7l14.9,12.2l-1.3,26l23.6,22.3l-6.3,5l-27.1-1.3v9.8l12.2,6.1v3.7l-11.1,10l6.3,7.4h9.8l9.8,9.8l1.3,7.4l-12.4,7.4
		l-9.8,11.1l-1.3,27.1"/>
</svg>
