<svg xmlns="http://www.w3.org/2000/svg" viewBox="0 0 1060 1060"><style>.st0{fill:none;stroke:#fff}</style>
<path class="st0" d="M574.8,241.9l-11.1,71l15.2,90.3v60.3L558.7,514l4.9,34.9L541,566.5l12.3,68.1l-9.8,14.8
		l-7.4,68.1l17.2,22.6L496,777.8v51.7"/>
<path class="st0" d="M444.3,494.3l11.5-5.7l27.5,15.2
		h47.6l28.3,13.1"/>
<path class="st0" d="M578.9,440.5l-12.7-3.3l-3.3-6.2l-5.3-2.5L546,415.9l-20.1-11.5l-16-0.8l-10.7,8.6
		l-10.7,1.6l-0.8,5.7l-2.1,5.3h5.3l2.9-2.5l-1.2-4.1l16.4-0.8l4.1,1.6v8.6l-4.1,8.6l-23.8-3.3l-3.7-3.3l-11.1,7.8l-10.7,2.9
		l-15.2-0.8"/>
<path class="st0" d="M245.7,712.6l6.2-40.6l17.6-20.1l-14.8-22.6H292l25.4-34.9L299.8,564l4.9-27.5l37.8-17.6
		l4.9-27.9l25-9.8l23-10.3l4.5,2.9v-2.9l-23-25.9l-14.4-39l23-50.1"/>
<path class="st0" d="M97.1,231.3l62.4,27.9l47.6-8.6
		l59.1,37.8l63.2,2.9l44.7,27.1l11.5,37.8l-0.4,0.8l4.9-0.8l46-24.6l68.9-4.5l37.8-17.2l24.2-17.2"/>
<path class="st0" d="M435.6,498.8l8.6-4.5l-6.6-12.3
		l6.6-19.3l-4.1-7l4.5-16h-0.8l-25-12.7l-20.5-5.7l-2.9-9l-0.4-7.8l12.3-14l13.5-0.8l6.2-8.2l14.8-6.6"/>
<path class="st0" d="M487.8,413.9l-2.1-23L475,374.5
		l-33.2,0.4"/>
<path class="st0" d="M441.8,374.9l-4.9-11.9l7-1.2
		l5.3-11.5l-5.3-8.2l-5.7-1.2l-2.1-9.4"/>
	<path class="st0" d="M1012.2,566.1l-7.8-18.1l12.7-23l-10.3-38.6l-20.5-12.7l5.3-35.7l20.5-13.1l-2.9-15.2l7.4-9l-43.1-9
		l-13.1-30.8l-23-7.8l-68.9-66.5l-7.8-56.6l-28.3-20.5l-15.6,7.8l-25.4,20.5L766,230l-43.9,18.1l-35.7-20.5l-15.6,20.5l-23,2.5
		l-15.6-12.7l-25.4-15.2L576,243.2l-1.2-1.2L558,225.2L501.8,192l-54.2-28.3l-27.9,12.7l-30.8,7.8l-20.5-15.6l-41-25.4l-33.2,25.4
		l-48.8,5.3l-69.3-5.3l-15.6-25.4l-9.8-23L130,145.5l-15.6,56.6l-17.2,29.1l-0.8,1.6l-71.8,20.5L14.3,266l13.1,20.5V307l23,4.9
		L37.3,325l1.2,11.5l1.6-1.2l25.4,25.4l7.8,30.8L93.8,412l-10.3,28.3V466l18.1,20.5l-18.1,30.8l18.1,43.9l35.7,25.4l5.3,28.3
		l30.8,4.9l7.4,56.6l23.4,28.3l41.4,7.8l12.3,2.5l4.9,33.2l5.3,7.8l5.3,68.9l82.1-7.4l33.2-30.8l28.3,23l68.9,4.9l9.8,14.8l16,23.8
		l30.8,15.6l2.5,43.5l-41,28.3l23,20.5l28.3-18.1l69.3,2.5l25.4-4.9l7.8-20.5l28.3,2.5l4.9,20.5l64-36.1l23.4-27.9l30.8-36.1
		l-20.5-23l18.1-38.6l46-23l100.1,4.9l23-17.6l2.1,2.1l5.7-43.1l10.3-51.3l18.1-23.4l2.5-30.8l35.7-15.2v-20.5L1012.2,566.1z
		 M488.6,413.9h-0.8l11.5-1.6L488.6,413.9z M400,473.8l35.7,25l8.6-4.5"/>
</svg>
