<svg xmlns="http://www.w3.org/2000/svg" viewBox="0 0 1060 1060"><style>.st0{fill:none;stroke:#fff}</style>
	<path class="st0" d="M971.1,592l14.6-13l-14.6-27.6l4.4-29h-33.1h-2.6l-1.6-16.2l32.6-19.6l-5-31l-31-8.1l8.1-8.3v-22.7l24.5-18
		l-6.5-13l-52.2-40.7l-91.3,5l-9.7,16.2h-11.5l1.6-57.1l-26.1-30.8l-19.6,3.1l-11.5-13L708,282.8l-11.2-11.2l-23-3.4l-6.5-21.1
		l-1.6-65.2l-14.6-6.5l-1.8-9.9h-9.7l-3.4-19.6l-21.1,1.8l-40.7,13L554.8,185h-19.6l-13-16.2l-5-18l-16.2-18h-23l-9.7-17.7V87
		l11.2-17.7L473,44.8L452.3,2.3l-52.2,24.5l-81.4,13l-4.4,0.8l-90.2,17.2l-71.7,55.3v220.1l-0.5,6.5l-4.4,53.7l36,32.6v16.4
		l-44.1-26.1l-52.9,65.2l14.1,6l18-1.6l8.1,16.2l71.7,70.2l5,29.2l16.2,29.5l-5.5,6.8l-10.7,12.8l-6.5,16.2h13l-6.5,16.4l-6.5,32.6
		l9.7,16.2v28H223l-6.5,11.2L205,792.6l-4.7,14.6l14.6,13l4.7,37.6l8.3,13l-11.5,3.1l-14.6-8.1l-2.6,19.3l1-1.3l6.3,14.6l9.9,16.2
		l44.1,3.4l31-3.4l21.1-16.2l26.1,16.2l13,9.9l19.6-5l17.7-8.1l34.4,18l35.7,21.1l11.5,11.5l19.6-13l16.2,9.7l9.9,8.1l14.6-1.6
		l9.9-13l22.7,13l27.9-11.5l16.2,5l16.2-13l9.9-5l3.1,2.3l14.9,10.7l5,36l43.8,42.3l14.6,5l8.3,19.6l27.4,5.7l3.4-4.2l8.3-17.7
		l24.5-11.5l13-34.2l14.6-9.9l-8.3-11.5h-21.1l-3.1-11.2l14.6-6.5l6.5-9.9l-14.6-9.7l4.7-14.9l37.6-3.1l-6.5-14.6l-22.7-14.9v-43.8
		l30.8-23h34.4l-3.4-16.2l19.6-8.3l27.6,18l11.5-3.1l-1.6-55.6l5-19.6l6.5-22.7l-21.4-11.5l5-13l31-6.5v-21.1l24.5-13l6.5-19.6
		l-8.1-13L971.1,592z"/>
<path class="st0" d="M631.5,667.4l-34.4,3.4l-23.2-3.1
		l-43,11.5l-36.5,34.7l-29.7-9.9l-29.7-3.1l-23.2-23.2L370.3,666l-56.1,5l-14.9-11.5h-30l-21.4,8.3L238,661v-18l-3.4-5H214"/>
<path class="st0" d="M314.3,40.6l31,49.3l21.6,54.8l36.3,1.6l14.9,11.5l-18,8.3v19.8l23,24.8l41.5,10.2L516,224
		l11.5-18.3h16.7l8.1,16.7l-21.4,13.3l3.4,33.1l29.7,8.1l29.7,3.4l8.3,21.4l14.9,6.8l-3.4,11.5l-21.4,9.9l-1.8,9.9l16.7,20.1
		l11.5,8.1l-3.1,9.9l-13.3,9.9l5,3.4l21.4,1.6l18.3,11.7l-1.6,14.9l-9.9,6.5l-1.8,26.6l-14.9,1.6l-14.9-1.6l-16.4,9.9l9.9,3.4h16.4
		l14.9,3.1l5,8.3l-9.7,18.5l13,13l13,3.4l13-8.3h18l5,9.9l6.5-1.6l19.6-11.5l19.6,11.5l26.1-18h11.5l13,11.5l26.1-18l11.2,1.6
		l9.9,8.1l36,3.4l3.1,14.6l18-16.2h9.7l6.5,21.1l31,8.1l8.9-6"/>
<path class="st0" d="M649.2,512.2l3.9,23l-21.4,23.2v21.4
		l-14.9,16.7l3.4,19.8l8.1,33.1l9.9,56.3l-3.1,49.6l-6.8,14.9l19.8,14.9l-14.9,6.8l-9.9,39.6l-28.2,6.5l-9.9,16.7l19.8,3.4l3.4,23
		l-14.9,3.4l1.6,24.8l5-1.6l8.3-13.3l19.8,13.3l11.7,13.3l-3.4,22.2"/>
<path class="st0" d="M623.6,495.7l-1.6-1.6h-39l-24.5,13v-11.5l-6.3-11.5l-14.9,6.5l-18,9.9l9.9-14.6l-1.6-13
		L506.2,458v16.4h-14.6l-34.2-11.5l-14.6-11.5l-14.9,9.9l-4.7,13l-6.5,1.6l-8.1-8.1v-23L433,429l-9.7-16.4l-19.6,8.3l-9.9-8.3
		l-40.7,5l-21.1,8.1l-21.4-8.1v-16.2l-29.2-13l-8.1-19.6l-11.5,4.7l-31-24.3l-14.6-5l-11.5,14.6l-19.6,5l-8.1-18l-25.3-6"/>
</svg>
