<svg xmlns="http://www.w3.org/2000/svg" viewBox="0 0 1060 1060"><style>.st0{fill:none;stroke:#fff}</style>
	<path class="st0" d="M1040.9,527.3l-12.8-4.9l-3.9-13.9l-26.6-15.8c0,0,1.6-30.2-0.9-35.6c-0.1-0.1-0.3-0.4-0.3-0.5
		c0,0-0.1-0.1-0.2-0.2c0,0-0.1,0-0.2,0c0,0,0-0.1,0-0.2c0,0-0.1,0-0.2,0c0,0-0.1,0-0.2,0c0,0-0.1,0-0.2,0c-3.9,1-18.6,2-18.6,2
		L962,441.3l0.5-16.2l0.5-17.2l33.6-13.9l3.9-9.8l-2-21.7L976.9,340l-6.9,3.9v-9v-14.7l-18.8-9l-0.9-7.9l10.9-11.8v-13.7L943.4,259
		l-0.9-12.8h-33.6l-22.5,3.9l-21.7,17.6l-5.8-8.8l-10.9,0.9l-9.9,21.7l1.1,8.8l10.7,8.8L830.2,312l-12.8,11.8h-21.7H785V305
		l11.8-6.9l17.6-1.9l1.1-9.9l-6-3.9l14.8-18.8l-2-5.8l-16.9-9l-41,45.1h-28.5v-11.8l-15.8-7.9l-18.8,20.6l-14.8,2v-13.9l-12.8-5.8
		L654,249.5l-17.8-6.9l-5.8-12.8l-9.9-2l-9.8,6.9l-7.9,2l-10.9-9l-10.9,1.1l-6.9,12.8l-18.6,72.8l-2.7,6l-3.3,7.9l-6.9-0.9
		l-3.8-19.7l-5-15.8l-10.7,0.9l-9,8.8l-5.8-7.9l-8.8,7.9l-12-7.9h-9.8l-3.9,3l-2,11.3l-3.8,20.2h-10.9l-7.9,7.9l-6-6l-31.5-4.9
		l-11.8,6.9H392l-1.9-6.9l-14.8-3l-0.9-15.8l-3-0.9l-17.8,3l16.4-2.8l0.5-1.1l20.6-15.8l0.9-38.4l-6.9-9.8h-15.8l-5.8-7.9h-16.7
		l-4.9-6v-14.8L322,175.5l-9.8-6.9l-18.8,25.7l-7.9,1.9l-3-12.8l-8.8-3.9l-3.9,7.9h-14.7l-2-8.8l-9.9,5.8l-10.7,6l-11.8-12.9
		l-16.9-7.9l-0.9-12.8l-22.7-1.9l-13.7,17.6l-7.9,0.9l-8.8,9l-9.9-10.9l-26.5,26.6v15.8l4.9,3.9l0.9,7.9l-13.7,10.7l-12.9-3.9
		l-24.6,5l-12.8,14.7l-4.7,10.1l0.8-0.2l11.8,16.7v11.8l6.8,8.8l6.9-8.8l7.9,13.9l10.9,3.9l10.9,25.5l0.5,7.4l1.4,23.2l7.9,9.8
		l3.9,18.8l-11.8,8.8l-2.8,13.9l-10.9,5.8l-18.8,10.9l1.9,8.8l22.7,22.7l2,13.9l-9,14.7v13.9l6,6.9l3,16.7l-1.9,6.8l-3,10.9
		l4.9,11.8l-6,6.9h-9.8l-9.9-10.9l-8.8-4.9l-0.9,27.6l-17.8,10.9l-12.8,17.6l3,17.8l-3.9,7.9l-5,15.8h-7.9l-7.9,9.8l6,6l3.9,9.8
		l-12.8,9l5.2,32.9l16.7,12.4l-12.6,29.3l12.6,5.5l-5.5,16.7l11,1.4l8.4-13.9h14l2.7,4.1h30.7l5.5-12.4l6.9-2.8l2.8-22.2h6.9v-23.6
		l27.9-23.8l2.8,4.3l2.7,18.1l19.5-2.8l4.3,27.9h9.6l2.8,27.9l8.7,10.7l14.2-32.6l13.9-43.3l17.6,11.8l7.9-17.6l25.2-9.1l2.4-0.8
		l17.8,45.4l25.5-7.9l1.9-11.8h9.9l3.9,13.7L354,716l22.7,29l2.4,3l6.9,36.2l16.7,18.1l-2.8,20.8l21,12.6v27.9l11.2-5.7l23.6,15.4
		l11.2,4.1l2.7-19.5l14-2.7l4.1,15.3l14-1.4l2.7-15.3l32,18l5.2-10.6l13.6-2l13.1-1.9l5.8,6.9l-2.8,19.7l3.9,4.9l14.7-14.8l12.9-0.9
		l2.8-7.9l-16.7-2l-2.8-17.6l10.7-16.7l13.9-1.1l13.7,12.9l-13.7,18.6l3.9,6.9l19.7,2l12.8-10.9l-6.9,14.8l2,11.8l20.6,1.9l27.6,2
		l3.9,12.8l14.8,10.9l12.8,0.9l8.8-7.9l5-14.8l7.9,6.9l5.8,6.9l3.9-36.6l-9.8-1.9l-6-12.8l-33.4-9l-4.1-16.7l12-7.9l-9.9-6.9l2-8.8
		l15.8,0.9l13.7,6.9l10.9-12.8l-10.9-8.8l0.9-11.8l6-18.8l20.6-2l16.7-6.8l1.7-3.9l1.3-3l-7.9-3.9V727h24.6l7.9-7.9l-4.9-8.8
		l12.8-9.9l9,3.9l12.8-10.9l22.5,3.9l7.9-8.8l18.8,0.9v-21.6l-7.9-3.9l-3.9-12.8l-20.6-2l-3-4.9l3.9-20.6l6.9-6l17.8-1.9l5.8,5.8
		l3,13.9l17.6-2l2-14.8l8.8-3.9l18.9,0.9l-0.3-0.6l29.5-11.8l10.9,6.9h10.9l0.9-11.8l12.8-6.9l4.9-5.8l25.7-9.9l3-16.7l-5-7.9
		L1040.9,527.3z"/>
	<path class="st0" d="M795.6,324.5l-9.9,7.9l-9.6,3.2l-5.4,9.8L761,340l-2.2,27.7l5.4,9.8l0.3,10.6l8.2,6.5v27.9
		l19.4,3.2l7.4,14l17.2,2l3.2-6.3h8.7l15,16.1l5.4,5.4l17.2-3.3l4.3-8.5l4.3-17.2l9.6-7.6l7.6-22.4l9.6-6.5l7.6,2l2,6.5l-5.4,6.5
		l9.6,11.8h16.1l9.8,16.1l-2.2,5.4l9.6-6.5l7.6-8.5l6.6,0.8"/>
	<path class="st0" d="M764.5,388l-2.5-2l-2,28.8l-6.5,5.4v32.1l-12.9,2.2l-2,18.3l-11.8,8.5l-0.2-0.2l1.3,5.5
		l11.8,12.8v8.7l11.7,21.4l24.7,5.4l8.5,6.5l3.3-3.3l-4.4-8.5l6.5-14l7.6-0.9l12.8,17l5.4-7.4h7.6l20.3,20.3l1.1,13.9l-9.6,5.4
		l-4.4,20.3l8.7,8.7v8.5l-2.2,8.7l6.5-6.5l10.7,6.5l5.7,7.7"/>
	<path class="st0" d="M726.5,481.2l-39.4-48.1l-4.4-13.9l-8.5-7.6l-8.5-1.1l-6.5,7.6l-6.5,19.2l-12.9,6.5
		L626,430.9h-9.6l-1.1,14l14,11.8l-21.4,27.7l-27.9,6.5l-21.4,7.6l13.9,13.9l3.3,6.5l-21.4,10.7l-2.2,31l-0.6,0.3l6,12.4l17.2,5.4
		l11.8-4.3l13.9-9.6l18.3,15h15l10.7,15l-4.4,10.7l2.2,15.1l-5.4,15l2.2,5.4l7.4-2.2l17.2,5.4l22.5,6.5l9.6-6.5l4.3-7.4h3.3
		l0.9,80.2l5.4,5.4h14l12.8,7.6l9.6,7.6l9.8,0.9l6.3,5.4l17.8,2"/>
	<path class="st0" d="M616.1,434.7l-20-5.8l-12.9,4.3
		l-2-17.2l-11.8-10.7l-7.6-1.1l-19.2-11.7l3.2-7.6v-33.2l5.4-7.4l1.9-23"/>
	<path class="st0" d="M471.7,308.9l5.4,4.3v9.6l6.5,10.7
		l-5.4,6.5h-20.3l-1.1,19.2l-6.5,6.5l4.3,16.1v9.6l8.7,8.5v11.8l12.8,11.8v13.9l-6.3,9.6l7.4,4.4v7.4l-6.5,5.4v8.7l27.9,25.7
		l33.2,5.4l3.2,9.6l-10.7,12.8l8.7,5.4l10.7-4.3l11.5,1.7"/>
	<path class="st0" d="M562.8,575.1v40.2l7.6,29.9l5.4,17.2l8.5,21.4l-5.4,13.9l-9.6,18.3l-2.2,10.7l-9.6,2
		l5.4,24.7v21.3L550,789.8l-3.2,19.2l5.4,8.5l-3.2,7.6v7.6l4.3,0.9l3.2,4.4l-1.1,20.8"/>
	<path class="st0" d="M498.4,600l-5.8,23.6l-13.9,5.8
		l-5.8,9.9l3.9,12.8l2.8,6.9H465l-1.1,18.6l-15.8,1.1l-7.9,24.6h-23.6l-25.5,18.8l-14.2,22.5"/>
	<path class="st0" d="M371.4,306.4l-17.8,3l-2.8,10.9
		l6.9,13.7l1.9,56.1l-23.6,1.1l-1,8.8l15.8,12.8l-8.8,8.8l-3,21.7l11.8,15.8l10.7,25.5l25.7,16.9L396,534l-18.8,17.6l3,11.8l27.6,9
		l21.7-17.8l10.7-0.9l31.5,13.7l-1.9,18.8l15.8-0.9l12.4,14.3l9.1-2.5l17-3.2l4.4-19.4l23.5-13.9"/>
	<path class="st0" d="M335.4,396.1l-13.9-5.5l-4.4-10.7l-15.1,0.8l-11.7-2.7l-1.7-12.4l-9-4.4l-11.5,7.1
		l-13.4-2.7l-9,0.9l-30.3-4.4l-24.9-14.3l-1.9-7.1L178,329l7.1-9.8l-2.7-5.4h-15.1l-13.4,15.1l-0.9-5.4l-10.7,0.9v8l-6.1,1.7
		l-6.3,15.1l-8,3.6l-15-11.7"/>
	<path class="st0" d="M274.5,681.4V673l-5.4-8l-10.7-6.3
		l5.4-8l-4.6-4.4l5.4-1.7l6.3-5.4l-10.7-0.9l-5.4-7.1l-1.7-18.8l-6.3-6.3l-4.4-15.9H220l-4.4-12.6l-7.1-0.8l-3.6,7.1l-14.2-0.9
		l-13.4-20.5l-5.4-0.8l-10.7-5.4l-6.3,6.1H139l-8-16.9l-30.3-8.8"/>
	<path class="st0" d="M387.9,565.9l-3.9,3.8l-12.4-3.6
		l-8.8-9l-5.4,10.7l-15.3-0.8l-7.1-6.3l-5.4,12.4l-9.8-4.4l-6.3-11.7h-8l-7.1-6.1l-10.7,4.4l-12.4,0.9l-7.1-4.6l-4.4,2.7l-1.9-4.4
		l-7.1,3.6v6.1l-10.7,0.9l-9.8,8l-17.8,2.7l-4.1,5.8"/>
</svg>
