<svg xmlns="http://www.w3.org/2000/svg" viewBox="0 0 1060 1060"><style>.st0{fill:none;stroke:#fff}</style>
<path class="st0" d="M1017.3,422.9v-21.1l-15.8-26.3l-33-18.7l-2.4,14.4l-13.4,1.4l-3.8-14.4l-13.4,2.4l-2.4,18.7l-10.5-3.8
	l-22.5-14.8l-10.5,5.3v-26.3l-15.3-9.6l-0.1,0.1l-4.5-2.7l2.9-19.6l-15.8-17.2l-6.7-34.5L826.1,226l-17.2,4.3l-3.8-12.9h-9.6
	l-1.9,11l-24.4,7.7L752.9,193l-26.3,9.6l-7.7,16.7l-16.7-11l-13.4,41.2l-13.4,31l-8.3-10.3l-2.9-26.3h-9.1l-3.8-26.3l-18.7,2.9
	l-2.4-17.2l-1.4-5.7L602.6,220v22.5h-6.7l-2.9,21.1l-6.7,2.9l-5.3,12h-29.2l-2.4-3.8H536l-8.1,13.4l-2.9-0.5l0,0.1l-7.6-0.9
	l5.3-15.8l-12-5.3l12-27.8l-15.8-12l-5.3-34.5l-14.4-3.8l-10.5,10.5l-5.3-9.1l-15.8,15.8l-10.5,1.4L427,179.9l-23.4-11.5l-20.1,9.1
	l-2.9,0.5l0.5,1l-6.2,5.7v10.5l8.6,9.1l-8.6,14.8l-7.7,4.8l-1,9.1l-15.8,1.9l1,10l5.7,1.9l-13.4,18.7l-20.6,1.9l-1,13.9l-8.6,8.6
	l-4.8,12.4l-18.7,1l7.7,27.8l8.1,17.2l-0.1,0l1.4,3.3l-20.6,3.8l-13.4-8.1l-6.7,21.5l10.5,11l-4.8,17.7l-5.7,6.7l3.8,11l-17.7,3.8
	l-13.9,3.8l3.8,12.9l-7.2,1.9l0,0l-2.1,0.8l-4.8,4.8l-14.8-12l-27.8,2.9l-7.7,13.4l-16.7,1.9l-15.8,2.9l-6.7-9.1l-14.8,14.8l-11-9.6
	l-6.7,13.9l1,12L97,477.4l-4.8-6.7l-4.8-13.9l-13.4,11L65,464l-10.5,1.9l-9.1,11l11,18.7l-7.7,7.7l2.9,15.8l-9.1,12l-6.7,17.7
	l7.7,13.4l22.8,1.4l0,0h0.4l0.3,0l0,0h0.7l15.8,26.3l-10.5,9.6l7.7,11l11,16.7l-9.1,12l-14.8,33.5l-25.4,21.5l6.7,13.4l-5.7,3.8
	l-13.9-2.9l-3.8,30.6l-7.7,5.7L16.4,764l2.4-1.4l15.8,9.6L53.3,786l1.9,11L70,809h12.4l30.6-13.4l12.9,14.8l17.7,4.8l6.7-11l8.6,3.8
	l18.2,1l0-0.1l37,2.3l1.9-45.9l12.9,1.9l18.7,10.7l0,0l5.3,2.9l28.7,5.7h12.4l15.8,20.6l40.2-1.9l15.8,25.4l13.9-5.7l41.2,5.7
	l2.8,16.7l-0.1,0l1.4,10l13.9,13.4l27.8,7.7l1,16.7l14.8,13.4l11-1.9l15.8-19.6l19.6-3.8l30.6,10.5l26.3,22.5l7.7-9.6h6.7l6.7,4.8
	l5.7-2.9l1-13.4l28.2-6.7l9.1-12l13.9-4.8h19.6l12.4,12.9l14.8,1v-14.8l-7.7-10.5l-13.4-5.7l-1.9-80l0.1,0.1l-1-26.8l1-30.6l-11,1
	l-9.6-13.9l7.7-12.4l15.8,14.8l13.9-11l9.6-9.1l0.9-9.7l2.4,0.1l0.5-5.3l33.5-10.5l3.8-8.6l26.3-1l8.6-10.5l50.7-40.2l31.6-22.5
	l12.7,0.9l-0.1,0.1l14.4,1V599l21.5-1l11.5,0.5l8.6-19.6l30.1-18.7l-6.7-9.1l8.1-21.1l27.8,3.8l6.7-50.2l36.8-21.1v-12L1017.3,422.9
	z"/>
<path class="st0" d="M688.7,772.7l-12.4-5.7l-23.4-18.2
	l-20.1,11l1.4,12h-88.5l1,15.8l9.1,13.4l-37.8,18.7l-3.8-2.4l-31.1,2.4l-3.8,8.1l-15.8,3.8l-10.5,9.1l-29.2,6.7"/>
<path class="st0" d="M716.1,676.8l-11.9-0.8l-4.3-13.4
	l-12-1l-11-16.3l-8.6,1l-10-5.7l-1.9-14.4l-5.3,2.4l2.4,10h-12l-1,16.7l-17.7,5.7l-8.6-17.7l-12,7.7l-10-7.7l-5.3-12l8.6-10l-3.8-11
	l-1,0.5h-24.4l-29.2-5.3H529v-0.5l-1.4,17.2l-17.2-5.3h-18.7l1.4-6.7l-9.1,1.4l-19.6,6.7l-6.7-12l-13.4,12l3.8,9.1l-14.8,6.7
	l-2.4,14.4l-12,5.3l10.5,12l-2.9,8.1l46.4,22.5l3.8,32.1v17.2l2.9,22.5h-23.9l-6.7,9.1l30.1,24.9l17.2-9.1l18.9,24.9"/>
<path class="st0" d="M248.2,778.2l8.1-7.2l-3.3-5.3V749
	l8.6-10l22-5.7l3.3-12.4l-5.3-3.3l-1-16.3l19.6-12l11-1l11,3.3l9.1,8.6l5.7,1l5.3-8.6l-4.3-5.7l-7.7-2.4l-1-2.4l5.7-8.6l20.1-1.9
	l2.4-4.8l-3.3-5.7l-12-8.6l2.4-5.3l5.7-4.3l5.7,1.4l9.6,12.9l1,8.6l16.3,1.4l3.3-7.7l-6.7-9.1l5.3,1.4l18.7,8.6l10-1.4l7.7-3.3"/>
<path class="st0" d="M488.4,611.2l0.5-6.2v-12l-10,1.9
	l-12.9-3.3l-11-13.4l-4.3-5.7l-22-9.1l-5.3-7.7l6.7-2.4v-9.1l-6.7-7.7l-8.6-13.4l-1-12l-2.4-1.4l-10-12l-4.3-12.4l-7.7-5.3
	l-13.4,5.3l-4.3,6.7l-5.3-5.7l-9.1-1l-1.9,8.6l-5.7,2.4l8.6,4.3l-5.7,9.1l-21.1,5.7l-9.1-11h-8.6l-6.7,4.3h-24.4l-2.4,1l2.4,9.1
	l14.4,14.4l-1,7.7l11,11h6.7l3.3,8.6l8.6,1l2.4,7.7l-8.6,3.3l-17.7,7.7l-8.6,19.6l-6.7,20.1l-4.3,5.7l-13.4-9.1l-31.6-2.4l-16.7,22
	l-9.1,5.3l-5.7,8.6l-6.7,10v5.7l-11,4.3l-8.6,14.4l-1,7.7l15.3,11l2.4,11l-5.3,8.6l10-3.3l5.3,4.3l4.3,17.7l-12,6.7l1,9.1l-5.7,5.7
	l-8.6-4.3h-9.6l1,50.2"/>
<path class="st0" d="M66.9,563.5l9.1-4.8h14.4l-1,15.8
	l11,5.7l11,1.4l5.3,13.4l2.4,2.4l-1.4,8.6l-3.3,3.3l10,6.7l1,7.7h12.9l3.3-3.3h11l3.3,7.7h12l3.3,6.7h23l16.4,8.2"/>
<path class="st0" d="M235.5,437.7l4.3,3.8h13.4l6.7-3.3l5.7,3.3
	l-11,5.3v8.6l-10,7.7v11l18.7,1l5.7,5.7v12l6.7,6.7l-5.7,9.1l2.4,5.3l7.9-4.1"/>
<path class="st0" d="M305.9,348.3l12-0.5l1,4.8l-6.7,7.7
	l5.3,10h7.7l8.6,9.1h7.7l5.7-6.7l1.4,1.9v8.6l2.4,11l17.7,1l14.4-15.3l7.7-1l2.4,4.3l4.3,9.1h6.7l2.4-16.7l14.4,1.9l8.6-10l13.4,3.3
	l20.1-9.1v1.9l6.7-6.7L461,344l-3.3-16.7l11-9.1l5.3,1.4l15.3-16.7l8.6,1l3.3-4.3h16.7l5.7-6.7l1.4-5.3"/>
<path class="st0" d="M591.7,610.4l24.4-7.2l5.3-17.2
	L607,572.6l3.8-13.4l8.1-12l13.4,9.1l34.5-12l5.3-10.5l-17.7-11l-7.7-1.9l-5.3,6.7l-10,2.4l-16.3-8.6l-16.7-22v-9.1l-9.1-17.2l1-7.7
	l-7.7-19.6l-14.4-6.7l-10-17.7l-27.8-5.3l-17.7-8.6l-16.3,1l-11,11l-3.3-7.7l-7.7,4.3l-1-1.9l-4.3,4.3l-13.4,5.3l-11,6.7l-28.7,3.3
	l-3.3,14.4h11l-11,10l-5.3,9.1h-15.8l8.6,9.1l-4.8,8.1"/>
<path class="st0" d="M462.8,363.5l1.4,19.1l13.4,1
	l-7.7,15.3l6.1,16.3"/>
<path class="st0" d="M886.5,579.3l11.5-10.5l17.7-10v-12.4
	l-10-23.9l-27.8-16.7l-5.7-10l-15.8-8.6l-9.6,5.3l-5.7-6.7l-2.4-22l-16.3-1l-12.9,15.8h-8.6l-5.3,17.7h-10l-3.3-7.7h-6.7l-5.3,4.3
	l-5.7-3.3v-7.7l-13.4-4.8v4.8l-15.8,2.4l-8.1,6.7l2.4,15.8h-14.4l-14.4-8.1h-8.1v9.1l1.4,27.8h-15.8l-6.2-1.4"/>
<path class="st0" d="M874.2,330.2l-4.7,9l-5.7,5.3l-11,1.9
	l13.4,14.4v19.6l5.7,1.4l-6.7,7.7v14.4l-11,16.7l-24.4-2.4l-14.4-13.4l-10,2.4l3.3,8.6l-4.3,5.7l-24.9,5.3l-28.7-19.1l-5.7,4.8v13.4
	l-10.5,2.4l2.9,10.5l13.4,2.9h14.4l3.8,18.2l-17.2,8.1l-0.7,9"/>
<path class="st0" d="M675.4,280.6l19.6,23.9l-1.4,18.7
	l13.4,9.1v22.5l3.8,31.6l15.8,6.7l-1.4,10.5l22.5-3.8l8.1,3.8l-5,4"/>
</svg>
