<svg xmlns="http://www.w3.org/2000/svg" viewBox="0 0 1060 1060"><style>.st0{fill:none;stroke:#fff}</style>
	<path class="st0" d="M1022.8,252.6l17.2-21.8l-20.2-14.4l-18.8-3L980.6,183h-5.8l-1.4,14.4l-1.4-10h-30.4L927,165.6l-24.6-8.8
		l-7.2-52.2l-11.6-15.8l-39.2,1.4l-39.2,36.2l-20.4-1.2l-4.2-0.2l-7.4-26.2l-18.8-7.2l-5.8-31.8l-13-11.6l-14.4,1.4l-6,14.4
		l-21.6,8.8L654.2,67L615,90.2L600.6,80l-21.8,14.6l-16-11.6l-10.2-17.4L531,56.7l-14.6,11.6l-24.6-3l-1.4,37.8l7.2,5.8v29
		L483,152.5v23.2l4.4,14.4v42l10.2,10.2v39.2l-24.6-3l-10.2,5.8L444,330.7l-7.4,26.2l-2.3,5.1l-3.2,6.5L429,368l-27.2-6.7l-13-17.4
		l-21.8-3l-1.4,16l-31.8,4.4l-14.6,14.4l-5.8,16l-89.8,4.4l-37.8,20.2l-1.4,40.6l-40.6,16L116,487.5H92.8l-8.6-10l-13,13l-6.3,1.2
		l7.4,5.1l-27.6,24.6l5.8,5.8l5.8,11.6l-14.6,20.4l16,8.6l27.6,5.8l2.8-11.6l16,20.4h26.2l18.8-20.4h24.6l-26,13l1.4,14.6l5.8,13
		l-16,16h-17.4l3,21.8l31.8-5.8l37.8,34.8l-1.9,2.3L149,727.4l-1.4,34.8l44.8,43.4l-1.4,13h13l27.6,82.9l29,14.4l29,29H323l13,29h32
		l14.4,21.8l32,16l1.4-20.4l8.1,7.7l44.3-26.9l20.4-1.4l8.6,23.2l27.6-11.6l23.2,17.4l18.8-8.8l16-4.4l7.2-8.6l20.2-13l-14.4-14.6
		l-11.6,8.8l-1.4-11.6l10.2-19l-10.2-17.4l8.6-11.6l-4.4-40.6l-14-21.6l10.2-13.2l-23.2-26l8.6-18.8l-34.8-29v-17.4l-14.4-20.4
		l2.8-1.2l27.6-11.8l45,10.2l20.2-13.2v-20.2l39.2-3l36.2-7.2l39.2-1.4l4.4,10.2l10.2,8.6l10-17.4l27.6-29H793l16.5-59.4l23.2-27.6
		l-1.6-31.8l14.6-19v-8.6l-7.2-8.8l4.6-9.5l9.7-19.5l29,20.4h16l-8.8-29l17.6,11.6l10-14.6l42-11.6l-7.2-17.4l10.2-13l21.8-8.6
		l20.2-26.2v-27.6h14.6l5.8-20.2l1.4-30.4l-14.4-13.2L1022.8,252.6z"/>
	<path class="st0" d="M192.3,671.8l27.4,17.9l6,14.4
		l25.1,10.9l19.3,2.3l8.4,22.7l29.9,7.2l20.2,3.7l10.9-12.1l-10.9-15.6l-4.6-33.7l9.5-10.7h13.2l6,13.2l-3.7,23.9l8.4,6L379,715
		l7.2-23.9l-9.5-9.7h23.9l8.4-15.6l8.4,1.2l19.3,18.1l13.9,1.9"/>
	<path class="st0" d="M843.2,472.2l-19.7-7.7l-61-37.1
		L706,410.7l-21.6-1.2v-14.4l-13.2-10.9H657l-26.5-8.4l-16.7,16.7l-38.3,1.4l-16.9-9.7l-42.9-13L506,383l-24-15.5h-21.6l-26.2-5.3
		l-3.2,6.5l-2.1-0.5l1.6,5.3v16.7l15.6,9.5l9.5,25.3l14.4,17.9l-19,16.9l1.2,21.4l7.2,6l26.2-3.5l21.6,20.2l4.9,29.9l-14.4,9.7
		l-46.7-1.2l-29.9,5.8l-16.7,8.6v14.2l15.6,19.3h15.6l1.2,20.4l6,6l-7.2,16.7l-12.1,3.5v10.9l-6,6l7.2,3.5l3.7-1.2h10.7l12.1,15.6
		l-0.5,15.1l2.8,0.5l12.1,7.2h37.1l19.7,16.7"/>
	<path class="st0" d="M784.7,125.2l-27.2,8.8l-8.4,14.4l-3.7,31.1l2.6,19l-21.6,18.1l-6,11.8l4.9,10.9l-6,14.4
		l2.3,6l-23.9,2.3l-3.5,10.7l10.7,26.5l-1.2,7.2l-9.5,8.4l-20.4,1.2l-2.6,7.2l4.9,7.2v43.2l-4.6,10.9"/>
</svg>
