<svg xmlns="http://www.w3.org/2000/svg" viewBox="0 0 1060 1060"><style>.st0{fill:none;stroke:#fff}</style>
	<path class="st0" d="M998.9,435.4l-1.1-4.8l26.3-30.3l4.6-5.3l15.8-2.5l-5.9-25.3l-3.6-13.1l-16.8,2.5l-2.3-14.3l5.9-10.9l1.1-14.3
		l-3.4-8.2L998,292.2l-19-1.1l-3.6-7.2l-1.1-2.3l-38.1-20.2l-10.7-12l-10.7-7l-9.5,4.8l-1.3,7l-9.5,5.9h-5.9l-17.9-20.2h-25
		l-10.7,8.4l-9.5,1.1L810,237.5l1.1-13.1l-6.1-4.8l-22.5,3.6l-3.6,11.8l-12,8.4l-8.2-9.5l-5.9,3.6l4.6,7l-11.8,7.2l3.6,9.5
		l-13.1,4.8v15.4h-16.8l-1.1,9.5l-16.6,3.6l1.1,14.3l10.7,1.1l-5.9,7l-3.6,23.8h-10.7l-17.9,7.2l-19-7.2l-16.6,7.2v12l-1.1-0.2
		l-5,12l-26.1,5.9L605,372l-19-23.8l-10.7,5.9L561,353l-4.8-9.5l-19,1.1l-1.1-20.2l-10.7-7.2l15.4-16.6l-27.4-37l-21.3-22.7
		l-19-10.7h-34.5l-2.5,15.4l-15.4,8.4l-39.2,1.1l-6.1,13.1l-8.4-1.1l-7-13.1l-23.8,12l-47.6-2.5l-5.9-13.1l-13.1-17.7l-2.3-21.5
		l-19-22.7l-12,8.4l-21.5-16.6l3.6-32.2L187.3,116H173l-8.4-7l-10.7,8.2l-46.5-2.3l-21.3,10.7l-8.4,17.9l9.5,10.7L73,170.8l-10.9,13
		l21.5,20.4l5.9,19l15.6,16.6v21.5l-31,26.1l10.7,12l-2.3,17.7l-16.8,12H42l3.6,13.1L61,363.6l3.6,19l3.6,13.1l-7,2.1l-16.8,5
		l1.1,12l14.3,16.6v22.7l-10.7,15.4l3.4,14.3L74,500.6l1.1,16.6l12,25.1l-2.5,28.6l13.1,13l-3.6,31L93,630.3l5.9,10.7L90,670.1
		l0.8,9l20.4,9.5l14.3,15.6l13-7.2l12-7l2.5,10.7h17.7l4.8-9.5l10.7,4.8l3.6,15.4l9.5-2.3l22.7-31l11.8,8.4l1.9,3.6l22.1,41.5v17.9
		l5.9,7.2h20.2l7,9.5h19l8.4,11.8l-1.1,46.5l-25,19l-0.6,1.3l1.7-0.2l3.6,1.1l1.1,19l17.9,3.6l2.3,8.4h9.5l14.3-8.4l38.1,5.9
		l7.2,7.2l9.5-9.5H410l7-38.1l4.8-3.6h11.8l14.5,9.5l10.7-9.5l7,9.5l10.9-10.7l13-1.1l6.1,19l4.6,23.8l8.4,1.1L516,855l22.5-88
		l8.4-15.4l13.1-1.3l13.1,10.9l9.5-2.5l11.8-8.4l12,2.5l7,15.4l6.9,2.7l14.7,5.7l23.8,33.3l15.4,7v16.8l17.9-2.5l22.7-25l19,9.5V830
		h34.5l49.5-54.5l-2.1-1.1l2.3-25l17.9-21.3l-12-4.8l1.1-7.2l0.2-1.1l73.7-69.1l-2.3-57.1l26.1-13l17.9-8.4l16.6-15.4l1.3-22.7
		l16.6-8.4l38.1-44l-5.9-14.3l13.1-5.9l15.4-19l-8.4-8.4L998.9,435.4z"/>
	<path class="st0" d="M235.5,689.9l18.7-11.6l7.6,1
		l5.9,14.5l11.2-1.7l8.6-8.6h11l8.6-11l8.6-1.7l1.7-6.1l18.7,1l1-4.4l-8.6-7.6v-7.6l12-6.9v-5.1l-11.2-6.9l-1.7-12.8l1-12l-7.6-5.1
		l6.7-9.3l6.1-3.4l4.2-10.3l-5.9-3.4l-6.9-10.3l8.6-12l14.5-8.6H366v-13.5l5.1-1.7v-5.1l-7.6-12l-17.1-3.4l-5.9-10.3l2.5-9.3l1.7-13
		l-3-6.9l-19,13l-7.8,3.4l-10.3-6.9l1-17.1h-11.2l-9.3,6.1l-2.5-7.8l5.1-8.6l-6.1-7.6l-6.9,10.3l1,7.6l-16.2-0.8l-25.7-24l-19.6-0.8
		v-13l-13.7-8.6l-2.7-11l-4.2-0.8v21.3l-7.6,1.7l-11.2-3.4l-11.8,7.6l-6.9,1.7l-6.9-5.9l-6.9,3.4l-15.4-10.3h-11l-7.8-5.1l1.7-9.5
		L101,392h-7.6l-5.9,9.3H76.2l-15-3.4"/>
	<path class="st0" d="M381.4,255.2l1.7,8.6l1,8.6l-12,8.6
		v14.5l2.5,2.7h9.5l5.9,10.1l-3.4,17.1l-13.7,10.3V346l4.4,3.4l-1,2.5l-8.6,3.4l-2.5,12.8l-13.7,29.1l-9.3,13.7v13.7l3.4,5.9
		l-5.1,6.9l-12,5.9l0.8,12l11.2,6.9l1.1,2.5"/>
	<path class="st0" d="M620.3,771l31.2-3.8l12-9.5l-4.8-7.2
		l-14.3-4.8l-1.3-16.6l12-8.4l4.8-20.2l-10.7-19L642,672l3.6-3.6v-11.8l-9.5-6.1l-2.5-9.5l27.4-3.4l2.5-9.5h-8.4l-7-8.4H635
		l-10.9-17.9l-9.5-1.1l1.1-14.3l-10.3-1.1l-13.7,9.3L578,598l-9.3-5.9l-12-0.8l-3.4,5l-11,1.7l-24.8,7.8l-36,12.8l-13.7-11
		l-16.2-3.4l-0.8-14.5l-15.4-11.2L414,562.1l-24,0.8l-23-23.8l-1-0.4"/>
	<path class="st0" d="M825,716.4l-14.5-1.3l-1-8.6l9.3-9.3
		l-2.5-9.3l-5.1-12l21.3-6.9l7.8-11l1.7-13.7l-17-16.5l-12-3.2l-26.5-8.6v-24l-1.7-17.9l-21.3,1.7l-33.3-11.2l5.1-11.8l7.6-18.1
		l2.7-11.8l-8.6-11.2l-15.4-10.3l-1.7-12.8l0.2-7.2l-10.5-0.4l-5.9,5.9h-15.4l-10.3-8.6l-9.1-2.5l0.6,3.2h-4.8l-2.5,19l-3.4,13.1
		l2.3,8.4l-7,9.5l-7.2,9.5v9.5l-20.2,9.5l-5.9,9.5l2.3,7l1.1,6.1l-8.2,4.8l-0.1,1.2"/>
	<path class="st0" d="M950.7,367.2l-1.1,1.3h-13.7l-7,9.7 l-9,5.1v12l-22.3,2.7l-12-8.6l-16.2,2.5L854,404l-11,18.9l-11,3.4l-5.1,12.8l-13.7,2.5L794.3,457l-24.8-0.8l-7.6,5.9H755l-24,19.6 l-10.9-0.4"/>
	<path class="st0" d="M975.3,283.8l-11,5.7l-9.3,6.9v15.2 l5.1,18.1v11.8l-2.9,19l-6.5,6.7l73.3,33.1"/>
	<path class="st0" d="M668.9,476.1l-0.7-4.1l-4.8-4.8 l-1.3-23.8l-10.7-1.1l-2.3-19l-13.1-6.1l4.8-5.9l7.2-2.3l15.4-17.9l-1.3-9.5l-9.5-19l-13-2.3"/>
</g>
</svg>
