<svg xmlns="http://www.w3.org/2000/svg" viewBox="0 0 1060 1060"><style>.st0{fill:none;stroke:#fff}</style>
<path class="st0" d="M898.6,705.8l-19.7,6.9l-15.3-8.2l-10.6-2l-10.2-12.4l-0.4-0.1l3.3-8.4l-6.5-9.1l3.6-2.9l2.2-10v-0.2l0.4-0.3
		l2.9-3.6l6,0.1l-6.2-15.6l-10.1-0.4l-8.7-5.5l-1.3-10.9l-4.6-0.2l-3.9-8.8v-0.1l32.3-13.9l3.3-6l-2-4.4l4.6-8.6l-12.2-8.5l-3.7-9.1
		l1.2-5.2l-9.3-3.8l-4.7-4.4l-0.8-5.4l0.2-0.1l13.8-13.5l1.7-5.2l-5.7-7.6L825.1,506l3.7-10.2l-6.1-9.1l0.9-4.7l-5.6-1.2l-14.1,1.1
		l-8.4,7l-5.7-2.4l-11.7-0.7l-5.8-3.3l-0.3-0.2l6-20.2l19.6-18l-1.3-16.2l14.3-10l19.6-24.1l-0.4-4.7l3.8-3.6l-7.1-6l1.7-4.9
		l6.2-7.2l6.5-0.9l0.4,0.2l3.1,6H857l10.1-7l0.3-5.2l3.7-3.3l-4.7-12.9l4.4-25.7l-3.3-17.3l10-23.3l2.5-26.1l17.4-22.8l6.5-17.8
		l-14-5.1l-24.7-0.9L851,193l-10.4,7l-11.6-2l-4.3,2l-3.7-6.6l-5.1-2.3l-4.6,2.7l-0.4,4.9l-4.6-1.2L793,182.3l-2.8-9.7l-5-3.5
		l-18.5-4.3l-7.4,5.8l-4.6,0.2l-8.6-3.9l-6-4.9h-11.4l-2.1,4.6l-9.3,1.2l-5.8-12l-5.2,0.4V151l-10-2.6l-11.3-10l-9.8,0.4l1.4-10.8
		l-4.7-9.5v-6.8l4.4-8.6l-4.4-2.5l-7,7.1l-2.8,10.7l-14.6,6.6l-8.9-2.8l-4.8,1.1h-0.5l-6.1-2l5.5-10.6l-5.1-8.7l-1.2-9.9l-6.8-8.1
		l-10.1,1.8l-9.1-2.1l-7.4-12l-9-2.2l-6.8-0.9l-5.3-1.9l-5.1-14l0.8-5.1l-6.6-7.3l-9.8,0.7l-9.2,6.4l-4.9-2l-4.7-8.8h-5.5l-2.2-4.4
		l1.8-9.5l-4.3-10l-4.6-2.8l-27.2,6.8l-22.9,7.1l-9.7,8.4v30l0.4,2.9L457,75l0.8,6.4l-2.4,5l-0.6,5.1l0.4,6.7l-10.8,14.9l-0.3,0.4
		L426,126.1l-36.8,9.2l-23.8,12.8l-9.6,21.1l2.8,3.7l0.7,7.1l-8,6.9l-16.2,4.6l-14.1-6l-20.8-2.3l-15.9-5.5l-8.9,3.8L264.7,164
		l4.2-13.1l-1.9-4.6l-10.8-1.2L252,148l-10.8,0.8l-19-7.7l-0.3,4.7l5.4,3l0.9,8.2l-3.2,3.4l4.3,16.9l14.1,15.3l-2.2,16.8l3.3,4.8
		l-0.9,10l-3.7,9.5l6.9,15.6l-4.9,5.8h-19.3l0.4-9.3l-5.3,1.2l-6.7,6.4l-7.3,2l-6.8,0.5l-1.6-5.2l-6.8-2l-6,0.4l-18,14.9l-1.5-6
		l-6.7-4.4l-0.2-5.2l-7.6-13.1l-4.9-1.1l-4-4.2l-9.3-6.7l-14.8,6.1l-2.4-4l-7.6,6l-0.5,10.2l-5.4,0.9l-8.1-5l-4.8,1l-7.6-4.3
		L55,241.5l-2.5-4.4l-17,9.2l-9.6,0.8l-3.1,4L20.4,266l2.9,3.9l4.6-2l4.4,2.1l-0.8,7.8l4,8.8l3-4.6l4.6,0.4l9,5.2l1.5,5.3l-2.7,4.2
		l-4-2.2L26,297.2l-2.6,4.1l15.9,6l6.2,10.4l-1.8,9.2l12.2,1L62,321v-0.6l4.9,3.3l7.7-2.8l7.8,10l4.8-1.1l0.5-0.1v0.1l4.4-1.6
		l-1.1,4.7l4.8,1.1l6.3-2.5l1.5,7.7l4.2,2.7l4.6-2.4l4,4.3l6,2.6l0.4,0.2l0.5,4.5l3.6,4.8l0.4,5.2l4.4-4l5.3-1.2l4,2.9l1.5,2l8,6.2
		l20.6-1.6l-0.4,2.8l2.7,4.4l-7.4,7.3l4,10.2l10.1,1.8l3.4,3.3l8.2-6.1l0.7,3.3l-1.1,11.1l5,5.7l8,8.3l-13.1,13.9l0.7,7.4l17.4,20.4
		l3.4,11.7l13.5,11.3l8,1.8l2.6,6l10,2l7.7,6.4l1.2-4.6l4.7,0.7l-7.6,16.1l4.9,1.4l7.3,13l-2,9.6l-4.9,9.7l-7.9,5.3l2.1,7.3
		l13.1,8.2l17.3,18.5l3.6,12.5v0.1l-6.8-2.9l-17.8-17.5l-1.6-4.6l-4.9,9.5l-10.3,83.8l-1.6,10.3l0.2,7.8L225.2,766l-6.4,11.9h-0.1
		l-7.6,10.5l-10.5,7.7l9.6,4.4l4.6,1.8l11,2.2l2.3,4.8l-3.1,9.8l-4.3,3.8l2,4.8l6.6,1.6l6-1.9l9.9,5.2l16,6.2l10.6-0.5l4.3,7.8
		l13.1,10.7l3.9-2.7l3.8,2.4l10-5.2l0.2,0.1l18.7,16.6l20.4-2.8l4.2,3.6l16.5-0.4l10.4,0.6l3.9-3.7l-0.6-10.8l4-2.2l11.3,3.9
		l16.6,4.3l8,7.3l10.7-0.7l9.5,12.6l1.7-4.9l5.6-0.4l17.7,8.4l-3.3,8.2l14.8,4.4l3.8,9.5l5.3,0.3l7.5-6.7l5.3-0.4l15.7,3.7l7.7,6
		l10.4-0.7V902l13.5-7l10.5-1.9l14.3,3.8l-9.7-12l-0.5-29.3l0.7-16.5l9.3-17.8l4.4-4.4l9.1-6.8h11.3l11.1-12.1l18.3-13.2l14-4
		l4.9,8.2l5.1,1.2h0.3l23.9,0.7l3.3,4.2l-0.7,4.6l6,1.5l16.2-2l10.8,1.5l22-2.6l6.5,14.8l16.2,4l4.6-1.5l0.3,0.3l10.3,6l14.2,0.3
		l10,2.8l5.3-4.5l12.5-2.7l9.3-2l4.4-4.2l6.4,0.6l3.7-9.1l-6-2.7l10.2-13.5l9.1-1.2l7.3-12.9l9.5-4.4l1.8-6.9l24-13.2l0.9-12
		l10.3-14.4l3.4-7.3L898.6,705.8z"/>
	<path class="st0" d="M444.3,112.8l21,17.8l5.6,14.1l-5.1,7.7l2.4,14.8l-2.4,13.3l6,14l-6.7,4.3l2.7,5.3l9.3,2l10.6-3.1l15.3,3.7
		l3.7-2.7l18.1,10.6l11.5,1.8l3.4-3.7l4.2,2.7l13.5-4.9l4.4,1.2l2.8,4.2l-1.1,4.7l6.6,7l15.6,10l12.6-16.9l-2.7-6.7l6.4-7.7
		l-5.3-13.5l2-4.4l13.2-6.7l9.1,3.1l1.5-4.6l4.2-24.4l8.4-12v-11l-1.3-9.5h-0.6"/>
	<path class="st0" d="M465.1,198.9l-6.6,15.7h-6.3l-4,4.2l2.9,9.8l6.2,11l0.7,18.1l10.2,9.1l2,9.3l3.7,3.6l5.2-1.1l4.7,17.7
		l11.6-1.3l5.6-0.3l4.6-2.8l6.2,0.9l1.2,5.2l7,7.1l-0.9,4.4l10.8,3.7l18.7-4.4l6.6-8.9l0.3-9.7l25.7-5.2l-0.7-14.2l4.9-1.2l5.1-8.4
		l-4.3-2.8l-5.8-13.8l4.2-3.7l0.9-3.4 M840.6,366.7l0.4,0.2l-8.2-8.4l-0.7-15.2l-12.6-8.3L804,325l-8.6,3.7l-8.2-6.1l-9.3,2.7
		l-11.7-7.1l-13.5,9.7l0.4,2.3l-3.9,5.4l-4.7-0.6l-3.5,4l-0.5,14l-5.1,1.6l-3.7-2.9l-11,6.5l-9.9,2.6l-5.1-2.6l-15.3-3.4l-3.9-8
		l4.6-4l-1.6-5.1l-3-3.8l-4.3-5.2l-5.3-6.2l-5.8-1.2v0.1l-6.4-0.9l-7.9,6.6l-10.2,1.4l-8.6,1.1l-21,2.7l-8.3-18.2l-6.1-7l-7.4-10
		l-7.5-9.2l-6-2.5 M556.8,449.3l9.6,10.6l10.8,0.3l4.7-2.8l7.1,6.1l10-10l11.3,22.4l13.1,4.9l2.7,4.1l-0.7,9.2l-6.2,7.7v5.1l8.6,5.3
		l13.3-2.5l12.9-2.8l0.6-5.1l7.5-0.2l8-0.1l12.2,8.9l9.8-34.9l9.8,2.6l9-2.1l8,5.3h0.1l7.2,13l4.9,5.1l4.9-0.4l6.7-7.1l5.7,2.7
		l0.5,4.4l6.6-0.1l9.1-5.5l7.8-10.8l-0.3-0.2"/>
	<path class="st0" d="M451.1,228.6l-10,11.6l0.4,4.6l-10,2.2l-13.7,2.7l-10,1.8l-4,4.3l0.3,5.3l7.9,7.3l-0.3,7.6l0.9,7.6l-12.6,8.6
		l1.8,12.4h0.2l3.4,6.4l-0.7,2.9v0.2l-0.4,7.1l0.6,9.2l-10.4,17.8l-5.3,1.6l-1.1,6l-12.8,7.5l-4.6-0.4l-9.3,1.2l-1.3,4l-2.8,15.5
		l-9.5,25.7v0.2l9.1,5.3l5.3,4.9l2.2,10.1l4.6,2.4l16.8-0.7l6.6,0.2l0.3,5.2l15.5,21.9l-1.5,9.7l7.9,7.3h4.7l4.4,9.1l1.5,6.8
		l4.4,1.8l9.7-1.8l7.5-0.7l19.2-2l3.1-4.2l22.1,4.4l4.6-1.3l8.2,0.3l5.8-10l14.6-1.6l2.8-4l-2.8-8.9l3.7-3.1l14.1-4.7l8-6.2h6.7
		l2.2-14.9l0.4-9.8l-3.7-3.3l-0.4-9.8l-5.2-12.6l-4.6-3.6l2.8-9.7l-3.3-10.8l2.5-4l1.1-12.6l-5.1-4.7l8.8-5.5l2.7-4l-1.8-4.9
		l7.7-8.2l-0.7-9.5l-11.1-12.6 M173.6,372.4l25.7-7.6l0.6-10l8.8-5.6l21.9-0.7l2.7-4.7l15-6.6l12.2,2.4l6-14.4l9.2-3.7l-3.1-29
		l2.5-3.8l0.2-20.2l-9.1-3.8l-11.9,7.9l-4.4-1.5l-7.9-15.9"/>
	<path class="st0" d="M404.8,314.1V314l0.7-2.9l-3.4-6.4H402l-5.2-1.2l-5.3-5.8l-4.7,1.6l-12-8.4l-2.7-14l-4.6-2.5l-18.4,9.7
		L344,284l-5.3-7.5l-3.3-10.1l-4.6-0.4l-1.2,4.6h-15.1l-15.5,2.7l-9.5-3.6l-14.4-1.3 M347.7,409.2l-14.9,6.1l-16.2,0.3l-9.3,1.3
		l-6.1,8l-20.5,1.3l3.7,9.5l7.1,6.8l7.8,29.9L299,485l-10.9,10.7l-3.9-2.9l-8.6-4.4l-14.7,5.8 M487.7,636.4l5.5-3.3l2.7-7.5l0.4-5.6
		l0.9-7l12.6-15.9l1.1-5.8l10.4,3.4l-3.3-23.2l2.9-4.2l-2-9.2l-7.5-9.2l15.6-14.4l-3.8-11.3l0.9-6.8l-6-13.8
		c-4-2.8-8.2-5.5-12.4-8.2l-1.8-6.6"/>
	<path class="st0" d="M649.2,790.4h0.3l6.4-9.8l9.7-2.9l-1.6-4.6l7-8l5.5,1.5l3.1-17.7l14.1-15.1l-10.6-10.7l-0.3-9.1l-4.3-7.6
		l-10.1-5.6h-4.6l-4.4-1.5l-11.7,7.3l-12.9-8.4L623,674.5l-3.4-15.1l-15-12.8l-4.7-0.4l-0.3,4.7l-10.7-2l-2.5-9.5l-3.7-2.8
		l-15.9,7.5l-19,10.2l-2-7l-8.8-6.7l-7.9,7.1l-5.1,15l-6.4,8.2l-10.6-2.7l-8.6,5.3l-5.5-8.4l2.9-9.5l-6.4-10.1l-1.6-9.1l-11.3-0.3
		l-8.8,4.4l-11.3-10.1l-13.3,1.2l-1.2,8.4l-2.4,8.9l-7.6,5.3l1.2,6l-10.1,5.6l-7.9,10.7l-5.6,5.3l4.4,15.1l-12.4,3.3v4.9l4,2.4
		l-7.5,9.1l-2.5,4.2l-6,7.9l-4.4,2.2l-14.2-1.6l-8.4,4.7l-16.2,2.9l-10.8,6l-16.6-0.4l0.7,10.6l-7.1,18.6l2.7,4.4l11,0.6l4.2,9.7
		l2.4,4.6l0.9,12.2l-3.1,7.5l-13.5,15.5l-4.9,6.2l-2.7,4.7l-2,14.2v0.2"/>
	<path class="st0" d="M819.4,614.3l-10.1,2l-16.4-2.5l-2.5,6.4l2.8,7l7.3,5.2l-5.6,7.9l-21.1,6.4l-1.5,4.7l-9.2,2l-1.6,5.1l-0.6,5.6
		l-9.5,0.6l-4.2,11.3l-6,5.5l-5.5,8.4l2.5,4.4l16.6,9.5l-0.3,7.9l-1.6,0.3l-3.8,0.2l-7.1,8l-8.8-3.8l-0.2-4.7l-15.6-1.3l-4.9-6
		l-4-2.4l-14.6,6.6l-6-7.1l-9.7-1.2l0.2,6"/>
	<polygon class="st0" points="802.8,939.9 798.7,932.5 799.4,919.3 802.8,915.8 799.7,896.4 793.2,896.4 793.2,905.5 792,923.8 
		789,929.5 784.8,924.3 775.9,923.8 772.7,927.1 772.7,930.4 768.2,932.5 761,933.2 753.5,940.6 749.2,940.2 744.1,955 738.3,959.3 
		747.3,969.1 737.3,972.8 738.6,974.9 739.8,983.2 747.1,985.5 750.9,991.8 745.9,994.9 744.7,999.5 740.8,999.5 742.1,1005.7 
		748.9,1005 750.9,1003 753.4,1002.9 754.7,1007.8 752.4,1016.1 747.1,1021.8 749.7,1024.7 752.1,1022.3 754.1,1025.5 763.4,1027.7 
		757.3,1032.9 753.8,1033.9 753.6,1041.3 768.8,1049.2 773.4,1050.2 776.3,1052.2 775,1056.8 779.8,1058.4 782.6,1060 783.2,1051.6 
		788.1,1048.1 787.7,1042.3 793,1038.9 792.3,1036.5 787.5,1037.9 794.2,1030.8 796.4,1001.3 806.5,985.1 807,964.9 805.5,960.3 
		805.4,942.6 	"/>
	<polygon class="st0" points="1019.3,143.5 1029.3,120.7 1042.8,100.2 1050.7,92.8 1056.6,86 1056.6,80.4 1046.4,61 1043.5,68.9 
		1040.4,59.2 1031.8,54.1 1028.4,54.1 1008.2,34.5 988.2,27.5 978.7,27.5 965.9,19.9 959.4,18.7 958.5,20.4 958.9,26.5 952,34.9 
		946.4,38.2 943.3,44.3 940.3,45.8 940.9,50.4 938.6,52.6 941.2,64.7 939.8,67 940.5,73.3 941.7,74.6 942.5,81.6 945.7,82.9 
		944.2,86.3 949.5,96.1 954,96.1 959.5,105.3 956.2,117.4 953,116.2 949.9,122 951,135.3 940.4,151.6 938.6,151.6 936.6,155.7 
		937.9,159.7 942.1,160.4 944.6,163.1 950.5,162.3 953.6,164.2 956.6,160.8 960.1,160.3 968.9,152.9 968.5,155.7 978.7,158.4 
		986.9,154.2 990.9,157.2 989.5,160.5 996.6,159.4 998.9,161.8 1004.7,161.2 1005.9,158.7 1014,153.9 	"/>
	<polygon class="st0" points="1004.8,697.5 997.8,681.1 988.4,686.1 970.3,676.1 960.9,658.6 960.9,646.5 948.7,632.1 956.2,619.6 
		974.7,619.6 995.9,630.5 1019.5,660.8 1013.2,664.9 1023.1,674.4 1037.3,689.6 1044.4,719.1 1034.4,732.4 1027.9,727.9 
		1032.7,714.5 1026.5,712.9 1025.1,715.8 993.5,711.5 991.8,716.7 985.8,717.2 979,701.6 988.2,695.3 992.2,698.9 	"/>
	<polygon class="st0" points="1037.2,538.3 1037.2,520.6 1042.6,511.2 1036.7,504.3 1033.2,504.3 1025.4,492.4 1025.4,488.1 
		1022.3,485.8 1022.3,478.6 1015.6,470 1002.7,466 976.8,463.8 967.3,472.4 958.7,472.3 958.7,483.5 950.5,487 950.5,496.7 
		960.5,507.7 960.1,516.9 967.3,523.9 967.4,528.4 974.2,528.9 986.8,538.9 1013.8,545.3 1034.5,540.7 	"/>
	<polygon class="st0" points="1020.4,828.7 1011.8,822.8 992.4,822.8 992.4,813.4 984.8,806.7 975.7,813.8 972.7,818.7 977.9,821.2 
		972.7,822.7 975.4,827.1 987.2,831.6 988,852.3 998,863 998.1,870.7 991.1,870.7 986.6,860.7 980.5,863 987.4,873 984.4,877.4 
		998,886.1 1000.4,877.5 1005.6,882.8 1009.7,880.1 1004.9,877.9 1004.8,868.5 1011.4,867.6 1011.5,857.5 1015.1,857.5 
		1009.1,851.4 1010.2,842 1020.4,833.5 	"/>
		<polygon class="st0" points="969.8,332.5 976.1,330.7 976.1,328.3 983.9,318.7 983.9,309.2 979.7,298.9 979.9,287.2 986.1,285.3 
			989.2,288.8 999.4,293.6 1017,286.3 1029.7,285.3 1034.9,283.9 1038.3,281.7 1027.4,271.2 1016.5,270.4 1010.7,264.5 
			1009.1,257.8 1010.6,255 1009,248.1 1000,241.8 996.7,241.8 987.1,252.1 988.7,259.6 995.1,261.4 993.7,268.4 989.8,268.5 
			985.6,279.6 981.5,280 978.2,282.1 973.5,280.2 973.2,274.9 964.4,270.5 957.5,269.4 957.5,265.4 955.9,265.2 953.5,266.5 
			949.8,266.7 945.1,274.5 945.1,283.8 947.6,286.2 951.6,298.7 951.8,319.2 954,320.3 954.3,324.7 960.9,332 961.1,335.8 		"/>
		<polygon class="st0" points="1040.4,346.1 1035.5,346.1 1028.5,342.5 1028.5,334.9 1030.5,327.2 1037.7,325.4 1048.1,334.4 
			1048.1,340.1"/>
</svg>
