<svg xmlns="http://www.w3.org/2000/svg" viewBox="0 0 1060 1060"><style>.st0{fill:none;stroke:#fff}</style>
<path class="st0" d="M1050.5,413.5l-15.7-12.5l-28.2-3.2l-24.9-12.5l-17,10.1l-9-10.1h-12.3l-21.5,6l-2.3,0.7l-7.8-11.2l-22.6-13.5
		l-7.9-12.5l-27.1,2.3l-15.9,14.6l-38.3,1.1l-11.4-7.9c-0.8-1.4-6.3-11.2-11.2-13.9c-0.2-0.1-0.5-0.3-0.7-0.4s-0.4-0.1-0.5-0.2
		c-0.1,0-0.3-0.1-0.4-0.2h-0.2c-0.1,0-0.4,0-0.5,0c-5.3,0-15.5-5.9-16.8-6.7l-15.9,6.7l-1.1,13.5l-19.1,2.3l-11.4-21.5l-6.7-2.3
		v-15.7l-15.9-6.9l-1.1-27.1l-11.4-11.2l-23.6-11.4h-11.2l-3.4,2.3h-11.4L610.5,259l-17,1.1L580,271.5l-3.4,5.6h-19.1l-6.7-6.9h-2.9
		h-15.2l-20.4-22.6h-26l-13.5,12.5l-19.1,1.1L447,268h-1.4h-5.4l-4.5-21.5l-9-9l-6.5-0.9l-8.1-1.3l-4.5-22.6l-9-6.9l-31.6-3.4
		l-5.6-14.6l-10.3-6.7l-36.1-4.5l-2.2-26l4.5-4.5V136l-18.1-11.4l3.4-12.5l4.5-11.2l-7.9-6.9l12.4-11V62.6l-4.5-3.2h-17l-11.4,16.8
		l-10.1,10.3v10.1v13.5l-13.5,9l-24.7,7.9l-13.5,5.6L201,120.1h-21.5l-3.1,20l10.1,19.1l-10.1,9l-1.1,17l5.6,9l-4.5,13.5l-17,9v14.6
		l-21.5,4.5l-3.4,9l14.8,7.9l-4.5,15.7l-3.4,13.5l0.7,28.2l0.4,10.3l-7.9,2.2l-19.1-12.5l-13.5,5.8l2.3,11.2h-24L59,343.3v30.3
		l15.7,10.3l4.5,10.1l-26,2.2L50,406.5l10.1,6.7l-4.5,6.9l-10.1,4.5l2.2,7.8h14.6l5.8,7.9L58,447.2l-9,23.6l-17,7.9L26.2,491
		l-5.6,6.9l1.3,6.7l-9,5.8L10.5,526l9,5.6l4.5,17l-5.6,10.1l3.4,7.9l16.8-1.1v5.6v3.4l-15.7,6.7l-1.1,13.5L13.9,605l-4.5,22.6
		l-2.5,19l7,5.8h13.5l29.2,30.5l-3.4,30.5l20.4,15.7l11.4-7.9l18.1,21.5l2.2,20.4l12.5,16.8l5.6,12.5l45.1,2.3l22.6-11.4l6.7,12.5
		l7.9,1.1l5.8-12.5l37.2-1.1l14.6-7.9l2.3-14.6h32.7l4.5,2.5l13.5,7.6l20.2,21.5l26,35L347.9,843l10.1,6.9l1.1,19.1l18.1-1.1l4.5,9
		l13.5,1.1l10.1-5.6l18.1,22.6l2.3,5.6l24.7-5.6l4.7-11.4l1.1,0.2v-11.4l15.7-6.9l18.1,6.9l17-6.9h10l3.4-22.6l5.6-6.7l-10.1-1.1
		l-1.1-13.5l15.7-3.4l1.1-9h15.9v-14.6l12.5-4.5l-3.4-9l3.4-2.2l7.8-4.7l-4.3-6.7l5.6-3.4l7.8,9l11.4-7.9l3.4-11.2l21.3-3.4l5.8,4.5
		l-1.1,12.5l14.6,11.2l9-1.1l10.1-7.9H675l17,19.1h5.6l9-5.6l1.3-6.7l9-4.5l10.1,6.7l10.1,11.4l35.6,18.8l0.5,0.4l4.5,9l18.1,1.1
		l20.4,15.9l3.2,7.8l-1.1,13.5l-5.6,10.3l2.2,13.5l15.9-2.3l3.4,12.5l5.6,24l13.4-2.2l-2.3,12.3l7.9,6.9l41.7-1.1l21.5-17l1.1-24.9
		l11.4-14.6l-14.8-17l-7.8-18.1l9-12.3v-28.3l5.6-13.5v-22.6l10.1-14.6L925.4,732l-1.1-32.5l-0.2-3.6l29.4-57.6l-3.4-32.7l13.5-44
		l3.4-38.5l29.2-21.3v-13.5l11.4-14.8h9l10.1-10.1l-2.2-19.1l10.1-27.1L1050.5,413.5z"/>
<path class="st0" d="M547.9,270.2c0.4,9.7,0.9,17,0.9,17
		l-5.6,8.8l14.4,30.9l5.4,4.5l6.7,17.7l-8.8,15.3l9.9,9.9l-4.3,8.8v12.3h-12.3l-1.1,14.3l23.3,14.4l-1.1,17.7H593l8.8,12.1h22
		l22.2,27.8l5.4,15.3H666l28.7,12.3l25.5,15.3v4.5l16.6,1.1l20.9,12.1h19.9l16.6,12.3l18.8,13.2l13.4,4.3l20.2-20.2l6.9-23.6l-9-9
		l-1.1-7.9l13.4-24.9l-31.4-18.1L807.1,482l-10.3-6.7l4.5-10.1l-11.2-7.9l-14.8-6.9v-14.6l14.8-4.5l5.6-26l10.1-11.2l4.5,17
		l12.5,5.6l21.5,3.4l11.2,11.2H869l11.4-7.9l14.6,10.3h7.9l9-7.9v-17l9.9-17.3"/>
<path class="st0" d="M445.5,268l-0.7,13.5l6.7,11
		l-2.3,6.7L447,307l1.1,4.3l5.6-4.3l5.4-9.9l11.2-1.1l18.8-5.6l9.9,7.8l4.3,8.8l3.4,9.9v9.9l5.4,4.5v7.6l-5.4,6.7l-1.1,14.4l4.3,6.7
		l1.1,8.8l1.1,14.3l6.7,5.6l9.9,4.3l-4.3,8.8l12.1,11.2l-11,12.1l2.2,7.8l11,5.4v5.6h-13.2l-5.6,7.8l1.1,5.6l8.8,8.8l-7.6,20.9
		l-8.8,19.9l4.3,12.3v19.9l4.5,9.9h6.5l3.4,5.6h-9.9l-8.8,4.3v6.7l11,9.9v15.5l11-3.4l16.6,1.1l1.1,17.7l6.7,2.3L552,621l-1.1,5.6
		l12.1,2.2l7.8,9.9l36.5-2.2l7.8-14.4h16.6l6.7-5.4l11,6.7l9.9-3.4l14.4,1.1l12.1-4.3l12.1-8.8l6.7,6.7l1.1-15.5l8.8-3.4L719,610
		l13.2,1.1l13.4,3.4l5.4,1.1l19-8.8l9.9-6.7l8.8-11l17.7-6.7l11.6-2.5l-6.5-6.3l12.5,1.1l2.3-2.3"/>
<path class="st0" d="M772.7,808.9l14.1-12.1l1.1-44
		l19.3-16.8l11.2-26l-3.4-17l13.5-27.1l12.5-28.2l-21.5-5.6l-4.5-30.5l4.5-20.4l-1.4-1.4"/>
<path class="st0" d="M924.3,699.3l-17.3-7.6L897,663
		l-22.2,1.1l-8.8-11l-9.9-12.1l-17,0.9"/>
<path class="st0" d="M340.6,360.3l1.4,7.8l5.8,1.1
		l-10.1,9l7.8,17l7.9,24.9l-10.1,11.2l18.1-1.1l-9,28.2l-12.5,5.6l-6.9,17l6.9,5.6L332,500l2.3,9l21.5,17l1.1,39.5l23.6,3.4
		l14.6,15.7l27.1,13.5l10.1,3.4l23.8,26l-2.5,2.5l19.9-2.5v-9.9l22.2-4.5v-7.6h5.4v6.5l17.7-5.4l6.9-9.2"/>
<path class="st0" d="M142.1,310.5l27.4,0.7l24,15l4.5,6.9
		l12.6,3.4l18.4,13.7l14.8,1.1l3.4-3.4h15l6.9,15h7.9l4.7-6.9l27.4,1.1l4.5,5.8h3.4l11.6-11.6l10.3,9.2c0,0,1.4-0.1,1.6-0.2
		l-0.7-4.7l13.5-6.7l6.7-6.9l-4.3-11.2l-1.3-7.9l12.5-10.1l4.5-22.6l-13.5-17l4.5-7.9l11.4-21.3l3.2,4.5h17l7.9,7.8l10.1-6.7l7.9-13
		"/>
<path class="st0" d="M38.6,571.1l4.9-1.1L63,590.6
		l27.4-4.5l32.1-21.8h19.3l19.5-13.7l22.9-12.6l17.2,1.3l2.3,22.9l20.6,30.9h22.9l32.1-6.9l22.9,7.9l24-17.2l3.4-28.5l26.5-4.5"/>
<path class="st0" d="M302.7,763.2l-3.8-14.4l-9.2-5.8
		l12.6-11.4l19.5-1.3l6.9-10.3l-1.3-41.2l-4.5-24l-19.5-6.9l-20.6-28.7l1.1-17.2l6-12.5"/>
<path class="st0" d="M453.7,630.2l-7.6,7.6l7.8,11.2
		l18.1,1.3l15.9,21.3h13.5l3.2,14.8l14.8,2.2l3.2,10.1l-10.1,6.9l-6.7,30.5l31.6,15.7v23.6l12.3-4.5L560,779"/>

</svg>
