<svg xmlns="http://www.w3.org/2000/svg" viewBox="0 0 1060 1060"><style>.st0{fill:none;stroke:#fff}</style>
<path class="st0" d="M883.2,284.1l-6.4-7.6l-1.6-24.4l-8.8-20.4l-8.8-3.2l-6.4-11.2l-5.6,7.2l-5.2-7.2V208l-9.2-13.2l-25.6,3.2
	l-14.8-4l-38-3.2l-4.4,12.4l-14-0.8l-3.2-1.6l-9.2,0.8l-7.2-4.8l-13.3,15.2l-2,1.4l-11.2-14.8l-7.2,7.2l-19.6-1.6l-1.4-0.2l6.6-1.2
	l1.6-11.6l-8.4-4.8l-4.8-16.4l-12.4-1.6l-7.6-7.6l-14.8-11.6l3.2-9.2v-14.8l-14-14l-3.2-10.8l-13.2-14l-4.8-18.8l-5.6-2.4l-6.4-8.8
	l-6.4,4l1.6,8.8l-20.4,4.8h-23.2l0.8-9.2V49.8l-18.8-5.6V35l-14.8-3.2l-3.2-12.4h-6.4V19l-14.8,15.6l-3.6,6.4l0,0.1l-1.6,2.7
	l-5.6-4.8l-1.6-6.4l-21.2,0.8l-19.6,4L396,39v10.8L385.1,57l-24.4-5.6l-16.4,7.2l7.6,11.2V79l18.8,15.6l-4.8,10l12.4,14l-5.6,7.2
	l7.6,11.6l2.4,22l-4.8,6.4l5.6,9.2l-5.6,10.4l0.8,6.4l6.4-4.8l7.6,8l-10.8,7.2l-4,4.8l-8.8,2.4l-10,4.8l-0.8-0.1l0,0l-11.5-8.7
	l-14.8,6.4l-6-13.2l-11.2,0.8l-24,14.4l5.6,5.2l-12.4,10l-1.6,8l-11.6,1.6l-6.4-7.2l-15.6-1.6l-1.6-8l-9.2-6.4l-13.2,4.8l8.8,12.4
	h10.8l11.2,7.2l8.8,7.2l16.4-0.8l3.2,7.2l10.8,2.4l4,10.8l7.2,3.2l-0.8,8.8l-9.2-1.6l-3.2,4.8l7.2,10l-4,17.2l-9.2-0.8l0.8,10.8
	l2.4,4h-11.2l-1.6-6.4l7.2-9.2l-2.4-5.2l-4-3.2l-1.6-18.8l-13.2-1.6l-10.8-13.2l-1.6,27.2l18,13.2l1.6,14.8l3.2,17.2l1.6,17.2
	l9.2-0.8l16.4,13.2l11.2,6.4l0.8,7.6l8.8,1.6l24.8,24.8l5.9,26.6h-0.1l1.2,4.8l5.6,22.8l1.6,22.8l-4,6.4l-4-18.8l-11.2-42.8l-40-36
	l0.8-16.4l-7.6-1.6l-12.4,18.8l-4,65.6l-10,66.5l-7.2,51.6l-0.8,13.2l5.6-18l10.8-14l15.6,14l1.6,4.8l4.8,6.4l-19.6,0.8l-3.2-4.8
	l-7.6,3.2l-1.6,11.6l-8.8,11.6v18v0l-14,74.5l-18,68.9l-5.6,26.8l-4.8,18.8l-11.3,19.5l-0.4-0.2l-3.2,5.6l-18,22l-14,5.6l-10,1.6
	v8.8l9.2,8.8l14,0.8l0.8,10l11.2,0.8l3.2-7.2l14.8,6.4l9.2,2.4l2.4,9.2l-5.2,4.8V928l-11.2,5.6l-0.8,7.2l7.2,8l12.4,4l2.4-11.6
	l7.2-7.6l-0.8,10l5.6,8h14l6.4,8.4l18.8,3.2l18,11.2H327l1.6,16.4l20.4,15.6l8,9.2l8.8-4.8l7.6-1.6l4,4l7.2-4l13.6-7.6l1.2-16
	l6.4-4.8l3.2-25.6l11.6,2.4l4.8-3.2l-5.6-11.2l21.2-18l12.4-28l7.6-10l-9.2-14l-6.4-9.2l8.8-8l-13.2-22l-21.2-1.6l-2-2l-0.3,0.2
	l-5.3-9.1l5.6-14.8l7.6-10l-2.4-13.2l6.4-6.4l-9.2-15.6l7.6-9.2l8.8-1.6l7.6,3.2l11.2-9.2l4,11.6l4,5.6l8.8-2.4l-0.8-10l2.2-5.2
	l3.1-6.2l9.2,8l12.4-12.4l5.6,7.6l13.2-2.4l14-1.6l6.4-11.2l23.2-2.4l11.6,11.6l4-4l7.6-2.4l-3.2-10.8l11.6-3.2l14.8-3.2l-3.2-9.2
	l4.8-5.6l4-14.8l-8.8-9.2l5.6-18l11.6,7.2l17.2-3.2l-8-17.2l-6.4-23.2l15.6-0.8l3-7.8l0.5,0.2l0.8-2l7.2-7.2l0.8-11.6l17.2-1.6
	l11.2-15.6l-4.8-1.6l-0.8-8.4l13.2-1.6l0.8-7.6l6.4-4l7.2-12.4l-7.2-7.6v-8.8l4.7-4.3l1.3-0.2l16.8-7.6l20,8.8l15.2,22l8.8-1.2
	l13.2-13.2l4.4,7.6l8.8-8.8l12,3.2l0.4,2.8l10-7.2l-3.2-7.6l-4.8-4.8l6.4-7.6h6.4l4-12.4l3.2-6.4l-2.4-14l10-14l14-8.8l0.8-22l7.2,4
	l8,8.8h7.6l4.8-5.6l-4-9.2l4-14l-2.4-13.2l-4.8-5.6v-11.2l7.2-11.6l-1.6-11.2l-1.6-1.6l-1,0.7l-16.1-16.1l-1.6-7.2l14.8-8.8l8.8-4.8
	l2.4-11.2l9.2-7.2L883.2,284.1z"/>
<path class="st0" d="M203.8,834.2l22.4,11.2l20.4-1.2
	l12-10.8l10,7.6l-5.6,5.6l4.4,1.6l3.6-4.8l17.6,1.2l10-7.6l18.4,0.8l7.2-3.6h11.2l2.8,3.6l9.2-2.8l8.4,6.4l11.2-3.6l14.8-4.8l2,3.6
	l22.8,0.8l11.2-6.4"/>
<path class="st0" d="M474,743.7l-2-4.8l2-15.6l8.4-8.4
	l-4.4-4.8l-9.2-0.8l-10.8-4l-15.6,1.2l-2.8-16.8l-10-12l-4.4-1.2l1.6,14v4.4l-13.6,0.8l-14-4.8l-2.8-17.6l-10-10.8l-7.2-0.8
	l-0.8-6.4l-7.6-4.8l-12.8-3.6l3.6-4.4v-4.4l-4.4-3.6l-4.8-4.4l-14.4,2l-8.4,7.2l-5.6,0.8l-9.2-6.4l-13.6,5.6l-6.4-4.4l5.6-7.2
	l0.8-9.2l-12-6.4l-24.8,12.8l-6.4,0.4"/>
<path class="st0" d="M643,609l-12.4-5.2l-5.6-6.4h-8
	l-10,9.2l-7.6-0.8l-2-4.8l5.6-3.6v-4.8l-6.4-7.2l-5.6-0.8l-3.6,4.4h-15.6l-1.2-5.6l-4.8-0.8l-8.4,7.2h-15.6l-7.2,6.4l-12-4.4
	l-1.2-14.8l-11.6-6.8l-8.4,1.2l-7.2,2l-10,2l-2.8,7.6l3.6,7.6l8.4,0.8l-1.2,7.2l-6.4,2l-7.2,8.4l-12,18.4l-5.6,10l2,10.8l3.6,7.2
	l-7.6,4.8h-7.6l-1.6,8l4.8,4.4l0.8,7.6l-5.6,5.6l-12.4,2"/>
<path class="st0" d="M700.5,515l-7.2-11.2l0.8-17.2
	l-17.2,0.8l-7.2-4.8l6.4-7.6l-8.8-7.2l6.4-8l-6.4-3.2v-10.8l15.6-14l-8.8-7.2l-4.8-11.6l-16.4-2.4l-5.6-4l11.6-5.6l-4-5.2l-17.2-2.4
	l-4-15.6l-24.8-2.4l-5.6,8l-5.2,1.6l-7.2-9.2l3.2-8.8l-4-7.6l-20.8-0.8l-7.2,12.4l-11.2,1.6l-0.8,18.8l-36.8,24.8l-0.8,27.2l-14,14
	l-7.6,7.2l-15.6-1.6l-8.8,14.8l-2.4,4.8l4,4.8h7.6l4.4,6.4l-4.4,11.2l-2,12.8l-7.2,4.4v4.4l2.8,4.4v7.6l-5.6,7.2l7.2,3.6l2,5.6
	l24-0.8l10-12l10,6.4l-7.6,5.6l0.8,15.6"/>
<path class="st0" d="M464,482.5l-2.8,7.4l-7.6-5.6
	l-11.2,5.6l-9.2-1.6l-18-18l-11.2-0.8l-3.2-24.8l-20.4-2.4l-0.8-11.6l-4,4h-23.2"/>
<path class="st0" d="M574.2,358.6l3-12.9l6.4-0.8l4-11.2l8-2.4l9.2-6.4l-1.6-19.6l7.2-2.4l14-3.2l-0.8-7.2
	l-2.4-10.8l-10.8-0.8l-6.4-7.2l4-7.2l0.4-6.4l-7.2-3.6h-13.6l-6,6.8l-14.4,6l-4.8-5.2l-7.2-9.2l-6.8,5.2l0.8,11.2l-4.4,3.2l-12-6.8
	l-12,4.4l-13.6,0.8l-10.4-12.4l-3.2,0.8L480,268l-10.4,2.8v6l-6,6.8l1.6,4.4l-7.6,4.4l-6.8,24.8l-1.6,16l-6,2.4l-8.4-0.8l-1.6-4.4
	h-9.2l-4.8,4.4h-11.2l-9.2,4.8l6.8,2.8l0.8,18l3.2,0.8l-6,6.8l6.8,4.4l9.2,8.4l5.2,8.4l6,6l-1.6,8.4l-3.2,3.2l5.2,5.2v6l-10.4,8.4
	l4.4,3.2l6,1.6v1.6l-8.4,3.2l0.8,4.4l5.2,2.8l16-2.8l6.8,7.6l5.2,6.8l16.8,11.2"/>
<path class="st0" d="M358.3,214.2l0.4,10.9l8.4,9.2v5.2
	l12.8,9.2l16,0.8l11.2,14.4l18-1.6l14.4,10l11.2,5.2l1.6,8.4l6,6"/>
<path class="st0" d="M496.8,260.4l11.7-1.7l2.8-7.6
	l-12-3.2l-6-9.2l4.4-10l5.2-6v-12.8l-5.2-3.2l-6.8,3.2v4.4l-3.6,5.2l-6.8-7.6l-0.8-5.2l2.8-6l-6-4.4v-18l-3.2-0.8v-6l5.2-8.4
	l0.8-4.4l3.6-9.2l-2.8-6l-8.4-3.2l8.4-12.8l2.8-6.8v-4.4l-6-6.8V107l3.2-6l-2.4-4.4l5.2-6l-4.4-9.2l-2.8-13.6l-0.8-8.4l-6.8,0.8
	L466.8,41"/>
<path class="st0" d="M608.4,260.4l-0.4-13.7l-5.2-6.4
	l6.4-4.8l10-11.6l17.2-0.8v-9.2l8.8-7.2l14.6-2.8"/>
<path class="st0" d="M701,212.3l0.4,11.8l-9.2,18.8l1.6,9.2l10,2.4l6.8,16.8l6.8,6.8l-2.4,32.4l14.4-4.4l6,7.6
	l-9.2,7.6v7.6l7.6,0.8l13.6-0.8l4.4-6h3.2l-1.6,10.4l11.2,4.8l10.4,6.8v4.4h-6.8l1.6,10l4,2.4l0.8-1.6l12.8-2.4l3.2-8.4h6l4.4,6
	h19.6l3.6,5.2l7.6,7.6h9.2l4.8-7.6h15.2l7.9-6.4"/>
<path class="st0" d="M671.3,416.8l4.4-8.8l9.2,3.6
	l10.4-12.8l6,0.8l5.2-8.4l15.2,1.6l6-6h7.6l6-11.2l9.2-0.8l6-10l8.4,2.4h6l4-6.8"/>
</svg>
