<svg xmlns="http://www.w3.org/2000/svg" viewBox="0 0 1060 1060"><style>.st0{fill:none;stroke:#fff}</style>
	<path class="st0" d="M1035.2,492.1v-28.4l-7-5.7l1.4-39.8l-11.4-5.7h-17.1l-14.3-11.4l-15.5,18.4l-12.7,1.6l-11.4,15.5l-11.4-2.7
		l-24.3-21.4l-8.4-27.1l-4.3-18H829l-25.7-15.7l17.1-22.7l-34.1-1.4l-13.6,15.5l-9.1,10.2l-27.1-3l-2.7,15.7l-17.1,1.4l-1.4-19.8
		l-14.3-4.3l-10,11.4v-28.4L673.9,339l-25.5-4.3l-8.6,17.1l-52.5,28.4v14.3h-11.4v-25.7l-29.9-14l2.7-25.7l-26.8-19.8v-24.1l-20-4.3
		l1.4-22.7l-15.5-1.4l1.4-15.7h-28.4l-4.3,14.1l-8.4-19.8l-13,10l-32.5,4.1l-7.3,10l-22.7-17.1l-29.8,20l11.4,15.5L334.3,305
		l-0.9-0.5L310,290.9l-39.8,1.4v28.4h-11.4l-2.7-12.7l-17.1,2.7l-3-32.7l-15.4,17l-17.1-7l-31.4,3l-5.7,14.1l-18.4,4.3l-3-15.7
		l-32.5,4.3v10l-22.7,1.4l-10-7l-11.4,5.7l-3,17.1l-38.2,1.4l-20,24.1l17.1,12.7L1.6,381.8l7,12.7L3,425.7l22.7,3l8.6-8.6l4.3,5.7
		l53.9-7l35.5-25.5L96.9,423l2.7,14.1l28.4-12.7l-5.7,20l31.4,1.4l-1.4,8.4l-34.1-1.4l-27.1-7l-32.7-15.7l-19.8,22.7l25.5,8.6
		l-1.4,38.2l7-5.7l15.7-24.1l29.8,17.1l14.3,3l5.7,22.7l-8.6,15.5l-18.4-1.4h-17L62.8,531l-48.4,2.7l-9.8,13l14.1,8.4l15.7-1.4
		l12.7,11.4l18.4-1.4l30,34.1l7,36.8l-10,20l29.8,5.7l32.7-1.6l7-12.7l-12.6-17l12.7,5.7l13-1.4l22.7,12.7l14.1-2.7V619l5.7,24.3
		l18.4,29.8l39.8,2.7l1.6-8.4l9.8,14.1l24.3,4.3H330l1.1,1.6L347,713l22.7,5.7l8.4-12.7l-4.1,15.5l19.8,8.6l25.7,25.5l8.4,15.7
		l-2.7,18.4l-3,18.6l17.1,12.7l8.6-10l-8.6-11.4v-25.5l17.1,4.1l5.7-17.1l4.3,10l18.4,15.7l8.6-14.3l-8.6-19.8l15.7,21.4l19.8-3
		l-4.1-10l18.4,4.3l14.1,17.1l-7,11.4l-18.4-5.7l-21.4-10l-11.4,14.3l17.1,5.7l12.7,19.8l76.9-7l19.8,4.3l-9.8,8.4l1.4,13l2.7,2
		l6.1-1.1l12.7-12.7l8.4,9.8h22.7l27.1-14.1l39.8-15.7l1.4-39.8l8.4-4.5l28.7-15.2l88-4.3l5.7-15.7l14.3-14.1l31.2-4.3l1.4-15.7
		l21.4,3l12.7,17.1l28.7,7l5.5-11.4l7.3-25.7l18.4-45.5l10-5.7l24.1,3v-38.4l-10-10v-41.2l-4.3-14.1v-22.7L1035.2,492.1z"/>
	<path class="st0" d="M697.3,556.3l-4.8,5.9l-28.2-2.3
		l-13-23.7h-10.5l-16.4,5.9v15.2l-22.3,14.1l-17.7-7l-7-15.2l-5.7,8.2h-16.6l-8.2-10.5h-8.2l-17.5-17.7l-20,4.8l-21.1-18.9
		l-18.9,1.4l-5.7,11.6l-22.3,11.8l-27.1-11.8l-7-7l-11.8,8.2l-14.1-1.1l-2.3-11.6l-22.3-5.9l-0.9-3.2"/>
	<path class="st0" d="M772.5,343.2l8,43l11.8,4.5l7,14.1
		l-7,25.9l-7,64.6l-22.3,4.5l-10.7-10.5l-10.5,15.2l-20,7l-15.2,32.7l-9.3,11.8l3.4,15.2l-5.9,23.4l-10.5,9.6v9.3l7,2.3h20
		l17.5,10.7l11.8,21.1L730,662l3.6,13.9h15.2L750,690l-11.8,14.1l-12.7,5.9l8.2,4.8l2.3,7l-13,10.5l15,28.2"/>
	<path class="st0" d="M331.1,687.5l6.8-28h16.6l8.2-13
		h10.5l1.1-20.9l5.9-7l-11.6-15.5l-7,8.4l-17.7-14.1l-36.4-5.9l-5.9-21.1l-10.5-27.1l-1.1-10.5l17.5-14.1h16.6l23.7-11.4l-5-18l7-7
		l-2.3-41.2L336.8,427v-17.5l16.6-4.8l-17.7-5.9l-1.1-13.9l8.2-5.9l11.8-11.8l-13-8.2l1.1-15.2l-17.5-1.1l8.2-38.2"/>
</svg>
