<svg xmlns="http://www.w3.org/2000/svg" viewBox="0 0 1060 1060"><style>.st0{fill:none;stroke:#fff}</style>
	<path class="st0" d="M616.4,442.3l-32.9,5.9l-53.5,31l-60.3,23.9l-48-26.8l-115.3-16.9l-26.8-14L237.9,456l-13.3,3.4l-1.4-33.8
		l-36.7-43.5l11.3-28.1h15.5l-14-38.1l-60.6-2.9l-32.4,22.5L70,311.7l-52.2-15.5l-5.6,14.2l29.7,23.9v31.1l-11.3,14l7,7l4.3,2.9
		l-3,26.7l9.9,22.5L81.2,475l7,32.4l7,9.9V568l16.9,33.8v39.4l-18.2,36.5l19.6,50.7l31.1,7l2.7,14.2l-15.3,7h-26.6l4.3,17.8
		l8.3,26.8l24.1,21.2l11.3,2.7l11.3-15.3l12.6-1.6l15.3-18.2l14.2,11.3h16.9l11.3,5.6v2.7l23.9,2.9l14.2-11.3l20.9,8.6l0.5,0.9
		l9.5,16l15.5,11.3l21.2-14.2l14,9.9l38.1-22.5l38.1,5.6l20.9-8.6l5.9-14l14-1.4l12.6,11.3l5.6,30.8l18.2,7l7.2,25.4l23.9,1.4
		l38.1-35.1l38.1-1.4l11.3,15.3l7,50.7l23.9,8.6l14.2,21.2h29.5l1.4,9.7l1.4-14h5.6l19.8,29.5l15.3,2.5v-33.3l-9.7-12.8l-2.9-11.3
		l21.2-12.6l21.2-4.3l14-16.9l-2.7-52L755.4,787l-1.4-24.1l-4.7-3.2l20.3-19.4h19.6l50.9-26.6l16.7,7H892l8.3-9.9v-21.2l28.1-14
		v-22.5l7.7-6.3l-0.7-6.3l7.2-7.2l-12.6-2.7v-11.3l-7.2-11.3l5.6-7l39.4-11.3l9.9-16.9l8.6-31.1l10.4-12.8l2.3-16.7l12.6,7l9.9-2.7
		l-7.2-11.3l-4.1-32.4l-12.6-11.3l0.2-0.9l3.8-11.7l9.9-18.5l5.6-9.7H1003V397l-8.3-14l5.6-28.1l5.6-14.2h-11.3l5.6-14l14-16.9
		l-14-25.4l-4.3-25.2L934,198.6l-7-14l-15.5,1.4l-12.2-5.2l-9.2,11.3l-60.3,46.4l-107,26.8l-70.5,25.2l-57.6,31.1L561,372.3l-7,39.4
		l28.1,21.2l40.8,8.3L616.4,442.3l0.2,1.1"/>
	<path class="st0" d="M298.1,713.6l28.4-8.6l20.9-24.3l29,8.1l25.4-17.6l15.3-5.6l16.2,16.2l26.8-4.7l23.2,12.8
		l29-9.2l26.6-19.8l17.6-19.8l11.7-2.3l3.4,15.1l9.2-2.3l1.1-10.6l26.8-4.5l9.2,5.6l28.6-6.3"/>
	<path class="st0" d="M997.9,461l-22.3-2.5l-37.4-19.1
		l-32.4,0.9l-17.1,15.1l-9.2,26.3l-36.3,4.1l-34.4,10.1L821,504l-5,12.2h-16.2l-9-19.4h-10.1l-16.2-12.2l22.3-7l-34.4-24.3l-34.2,2
		l-8.1-14l-19.4,2l-14-24.3l-12.2,2.9l-16.2,17.3l-31.5,4.1l6.5,52.2l14.2,4.3v5.6l-14.2,8.3l16.9,23.9l8.6,33.8l-1.6,14.2
		l-12.6,8.3l1.4,9.9l14.2,5.6l1.4,12.6l-11.3,32.4l11.3,14.2L691,670l8.3,19.6l14.2,14.2l19.6,7L739,732l-9.9,14l20.5,13.7"/>
	<path class="st0" d="M294.2,810.4l24.1-20.5l8.1-26.8l-2.3-11.7l3.4-13.7l-14-14l-36-23.4l-26.6-2.3l-26.8-33.8
		l22.1-8.1l9.2-17.3L244,628.3l10.4-9.2l10.4,8.1l18.7-11.5l11.7-18.7l4.5-18.5l-8.1-16.4l4.7-5.9l-10.6-17.3l11.7-15.1l-9.2-11.7
		l-11.7,15.1l-16.2-9.2l-26.8-26.8l-1.1-11.5l8.1-8.1l-2.5-15.5"/>
</svg>
