<svg xmlns="http://www.w3.org/2000/svg" viewBox="0 0 1060 1060"><style>.st0{fill:none;stroke:#fff}</style>
<polygon class="st0" points="302,402.3 286.6,366.2 265.9,377.2 226.1,355.2 205.4,316.7 205.4,290 178.6,258.4 195.1,230.8 
	235.8,230.8 282.5,254.8 334.4,321.5 320.5,330.5 342.3,351.4 373.6,384.9 389.2,449.8 367.2,479.1 352.9,469.2 363.4,439.7 
	349.8,436.2 346.7,442.6 277.2,433.1 273.4,444.5 260.2,445.6 245.3,411.3 265.5,397.4 274.3,405.4 "/>
	<polygon class="st0" points="767.2,368.7 779.4,365.2 779.4,360.6 794.5,342 794.5,323.6 786.4,303.6 786.7,281 798.7,277.3 
		804.8,284.1 824.5,293.4 858.6,279.2 883.2,277.3 893.3,274.6 899.8,270.3 878.7,250 857.6,248.4 846.4,237 843.3,224 846.2,218.6 
		843.1,205.3 825.7,193.1 819.3,193.1 800.7,213 803.8,227.5 816.2,231 813.5,244.6 805.9,244.8 797.8,266.3 789.8,267 783.4,271.1 
		774.3,267.4 773.8,257.2 756.7,248.6 743.4,246.5 743.4,238.8 740.3,238.4 735.6,240.9 728.4,241.3 719.3,256.4 719.3,274.4 
		724.2,279 731.9,303.3 732.3,343 736.6,345.1 737.2,353.6 749.9,367.7 750.3,375.1 	"/>
	<polygon class="st0" points="903.9,395.1 894.4,395.1 880.9,388.1 880.9,373.4 884.7,358.5 898.7,355 918.8,372.4 918.8,383.4 	"/>
<polygon class="st0" points="728.3,785.6 697.4,758.9 693.4,739 697,722.3 687,708.7 698.4,699.2 702.9,703.2 707.5,704.6 
	711.6,691.4 704.8,689.1 702.8,660.4 705.1,654.6 699.5,654.7 683.4,647.5 658.9,653.2 645.7,651.2 644.9,676.7 636.8,682 
	622.5,673.8 610.1,667.3 601.7,670.8 600.3,708.8 577.5,729.8 560.2,729.3 546.7,718.1 533.8,732.8 533.8,749.4 524.9,749.3 
	506.7,771.4 499.3,772.2 507,790.7 512.6,798.1 494.6,825.2 494.6,837.5 460.4,858.7 431.4,858.7 402.1,836.8 404.9,827.2 
	411,824.9 411.3,820.1 407.9,815.9 392.9,817.4 365.9,837.8 361,832.3 328.3,816 301.4,821.5 305.9,826.2 283.9,851.6 325.9,869.5 
	330.3,877.1 328.1,881.5 334.5,883.2 349.7,878.9 352,862.9 388.7,837 418,859.7 422,868.4 426.6,871.5 432.6,867 459.7,869.6 
	479.5,858.5 491.5,843.9 494.7,851.3 485.9,889.6 489.6,904.9 530,888.3 537.3,872.2 557.6,867 566.5,847.8 594.4,848.4 641.1,874 
	651.9,867.5 667.9,876.9 682.1,876.9 693,867.8 733.9,881.3 731.9,867.6 723.8,853.7 729.2,846.3 728.1,838.7 709.7,837.5 
	692.4,829 671.8,826.7 673.1,818.6 693.4,808.2 700.4,798.1 722.5,801.8 "/>
</svg>
