<svg xmlns="http://www.w3.org/2000/svg" viewBox="0 0 1060 1060"><style>.st0{fill:none;stroke:#fff}</style>
<path class="st0" d="M638.3,652.1l-30.7,20.3l-36.7,1.4l-3.1-25.4l4.8-6.5l-11.3-7.9l-3.1-43.2l-4.8-7.9h-19.2
		l-9.6-7.9v-30.5l-12.7-7.9l-9.6-4.8l-19.2-24l1.4-14.4h-23.7l-8.2-24H419l-17.5-24l4.8-7.9l-11-6.5l-25.7,4.8l-9.6-6.2h-35
		l-3.4-9.6l-19.7-3.7"/>
	<path class="st0" d="M679.5,441.5L662,407.9l-5.4-105.8l-12.4-19.5l-22.8-17.5l-3.7-65.4l10.7-29.9l-14.1-47.7l-8.7-38.6l-7.3-10.7
		l-15.8-8.7L556,81.9l3.7,17.5l14.1,17.8L558,129.3l7.1,14.1l-10.7,12.4v15.8l17.8,16.1v24.5L561.3,235l-12.1,5.4l-14.1-19.5
		l-24.8,2l-5.4-3.7h-21.2L464.6,237l-7.3,29.9l-45.7,8.7l-35.3,29.9l-7.1,19.5l-17.5-1.7l-9-10.7l-5.1,30.2l-12.4,5.1l-3.7,28.2
		l5.4,12.4l-19.5,14.1l-5.4,14.1h-14v19.5l17.8,12.4l29.9,17.5l2,14.1l-17.8,5.4l-28.2,5.4v12.1l10.4,10.7l2,35.3l38.6,12.4
		l14.1,3.4l12.4,19.5l-8.7,12.4l-14.1,5.1l-10.7,19.5l-10.4,12.4l5.1,31.6l26.5-1.7l7.1,5.4l24.8-12.4l7.1,7.1l-12.4,26.5l12.4,12.4
		l-21.2,15.8l-14.1,31.6l38.6,9l54.7,5.1L431,790.4c0,0-10.7-4.1-15.5-2c-0.1,0.1-0.4,0.2-0.6,0.3c0,0-0.2,0.3-0.3,0.3
		c0,0-0.2,0.2-0.3,0.3c0,0-0.3,0.2-0.3,0.3c-0.1,0.1-0.2,0.2-0.3,0.3c0,0,0,0.2,0,0.3s-0.2,0.5-0.3,0.6c0,0.1,0,0.2,0,0.3
		s-0.3,0.4-0.3,0.6c0,0.1,0,0.4,0,0.6c0,8.8-12.1,30.2-12.1,30.2l17.5,19.2l31.9,19.5l59.8,15.8l17.5,7.1l16.1,7.1l-10.7,19.5
		l28.2-1.7l5.4,12.4h28.2l7.1-33.6l-17.8-3.7l24.8-26.2l-8.7-9l1.7-15.8l31.9-17.5l1.7-19.5l-21.2-1.7l-14.1,12.1V789l28.2-1.7
		l8.7-21.2l7.1-61.8l-5.4-26.5l-0.6-25.4l-1.1-52.2l42.3-59.8L679.5,441.5L679.5,441.5z"/>
</svg>
