<svg
  version="1.1"
  id="Calque_1"
  xmlns="http://www.w3.org/2000/svg"
  xmlns:xlink="http://www.w3.org/1999/xlink"
  x="0px"
  y="0px"
  width="60.90668"
  height="60.06667"
  viewBox="0 0 372 506"
  style="enable-background: new 0 0 372 506"
  xml:space="preserve">
  <style type="text/css">
    .st0-temp-prcaf {
      fill: #ce2b62;
    }
    .st1-temp-prcaf {
      fill: #ffffff;
    }
    .st2-temp-prcaf {
      fill: none;
    }
    .st3-temp-prcaf {
      fill: #0f6baf;
    }
    .st4-temp-prcaf {
      fill-rule: evenodd;
      clip-rule: evenodd;
      fill: #9cb4da;
    }
    .st5-temp-prcaf {
      fill-rule: evenodd;
      clip-rule: evenodd;
      fill: #afc2e1;
    }
    .st6-temp-prcaf {
      fill-rule: evenodd;
      clip-rule: evenodd;
      fill: #ffffff;
    }
    .st7-temp-prcaf {
      fill: #f8f1f7;
    }
  </style>
  <g>
    <path
      class="st0-temp-prcaf"
      d="M185.8,504.8c-8.1-10.1-15.9-19.9-23.6-29.7c-31.4-39.7-62-80-89.9-122.3c-21.1-32.1-41-65-55.9-100.6
		c-6.5-15.6-12.3-31.5-14.1-48.3c-1.1-10.7-0.9-21.7-0.2-32.5c1.1-16,4.2-31.7,9.5-46.9C28.4,75.7,61.5,42,107.5,20.2
		c18.8-9,38.7-14.7,59.3-17.6c23.4-3.4,46.3,0,68.7,6.7c33.6,10.1,63.1,27.1,87.4,52.8c22.5,23.9,36.5,52.2,43.2,84.1
		c3.6,17,5.2,34.3,4.1,51.6c-0.9,15.4-5.4,30.1-10.9,44.4c-12.6,33.1-30.1,63.7-48.9,93.6c-27.4,43.4-57.9,84.4-89.5,124.8
		c-11,14-22.1,27.9-33.2,41.9C187.2,503.2,186.7,503.8,185.8,504.8z" />
    <g>
      <path
        class="st1-temp-prcaf"
        d="M233.6,400c0,1.6-1.4,3-3,3h-86.8c-1.6,0-3-1.4-3-3v-86.8c0-1.6,1.4-3,3-3h86.8c1.6,0,3,1.4,3,3V400z" />
    </g>
    <g>
      <rect x="144.1" y="313.5" class="st2-temp-prcaf" width="86.1" height="86.1" />
      <rect x="144.1" y="313.5" class="st3-temp-prcaf" width="86.1" height="86.1" />
      <path class="st4-temp-prcaf" d="M175,347.2l0.6-0.3h-1.1C174.7,347,174.9,347.1,175,347.2" />
      <path
        class="st4-temp-prcaf"
        d="M184,351.2c-0.5-0.2-0.8-0.5-1-1c0-0.1-0.1-0.2-0.1-0.2c-0.2,0.3-0.5,0.5-0.9,0.7l-2.9,1.6h4.5
			C183.8,351.8,183.9,351.5,184,351.2L184,351.2" />
      <path
        class="st4-temp-prcaf"
        d="M192.7,350.5c-0.3-0.2-0.5-0.4-0.7-0.7c-0.1,0.2-0.2,0.4-0.3,0.6c-0.4,0.6-1,0.9-1.6,0.9
			c0.1,0.3,0.2,0.6,0.2,0.9h4.7v-0.1L192.7,350.5" />
      <path class="st4-temp-prcaf" d="M209.1,346.8c0.2,1.4-0.5,3-1.9,3.7c0,0-1.9,1-2.9,1.6h18.5v-5.3L209.1,346.8" />
      <path
        class="st5-temp-prcaf"
        d="M169.9,352l-2.3-1.5c-0.7-0.4-1.1-1.1-1.3-2c-0.1-0.6-0.1-1.2,0.1-1.7h-14.9v5.3L169.9,352
			C169.9,352.1,169.9,352.1,169.9,352" />
      <path class="st4-temp-prcaf" d="M199.7,346.8c0.2,0.1,0.4,0.2,0.5,0.3l0.6-0.3H199.7" />
      <path
        class="st6-temp-prcaf"
        d="M190.3,320.7c1.7,0,3.2-1.3,3.5-3c0.2-1.6-0.9-3-2.6-3c-1.7,0-3.2,1.3-3.5,3
			C187.5,319.4,188.6,320.7,190.3,320.7" />
      <path
        class="st6-temp-prcaf"
        d="M200.7,319.5c-0.6-1.4-2.3-1.8-3.8-1l-6.9,3.6l-5.8-3.6c-1.3-0.8-3.1-0.3-4.1,1c-1,1.4-0.8,3.1,0.5,3.9l4,2.5
			l-1,7.1c0,0.2,0,0.4,0.1,0.5c0.2,0.5,0.9,0.7,1.4,0.4l3.5-1.8l2.9,1.8c0.5,0.3,1.2,0.1,1.6-0.4c0.1-0.2,0.2-0.4,0.2-0.5l1-7.1
			l4.7-2.5C200.6,322.6,201.3,320.9,200.7,319.5" />
      <path
        class="st6-temp-prcaf"
        d="M187.4,340.5c1.7,0,3.2-1.3,3.5-3c0.2-1.6-0.9-3-2.6-3c-1.7,0-3.2,1.3-3.5,3
			C184.6,339.1,185.7,340.5,187.4,340.5" />
      <path
        class="st6-temp-prcaf"
        d="M197.8,339.3c-0.6-1.4-2.3-1.8-3.8-1l-6.9,3.6l-5.8-3.6c-1.3-0.8-3.1-0.3-4.1,1c-1,1.4-0.8,3.1,0.5,3.9l4,2.5
			l-1,7.1c0,0.2,0,0.4,0.1,0.5c0.2,0.5,0.9,0.7,1.4,0.4l3.5-1.8l2.9,1.8c0.5,0.3,1.2,0.1,1.6-0.4c0.1-0.2,0.2-0.4,0.2-0.5l1-7.1
			l4.7-2.5C197.7,342.4,198.4,340.6,197.8,339.3" />
      <path
        class="st6-temp-prcaf"
        d="M171.5,330.6c1.7,0,3.2-1.3,3.5-3c0.2-1.6-0.9-3-2.6-3c-1.7,0-3.2,1.3-3.5,3
			C168.7,329.2,169.8,330.6,171.5,330.6" />
      <path
        class="st6-temp-prcaf"
        d="M181.9,329.4c-0.6-1.4-2.3-1.8-3.8-1l-6.9,3.6l-5.8-3.6c-1.3-0.8-3.1-0.3-4.1,1c-1,1.4-0.8,3.1,0.5,3.9l4,2.5
			l-1,7.1c0,0.2,0,0.4,0.1,0.5c0.2,0.5,0.9,0.7,1.4,0.4l3.5-1.8l2.9,1.8c0.5,0.3,1.2,0.1,1.6-0.4c0.1-0.2,0.2-0.4,0.2-0.5l1-7.1
			l4.7-2.5C181.8,332.5,182.5,330.8,181.9,329.4" />
      <path
        class="st6-temp-prcaf"
        d="M168.6,350.3c1.7,0,3.2-1.3,3.5-3c0.2-1.6-0.9-3-2.6-3c-1.7,0-3.2,1.3-3.5,3
			C165.8,349,166.9,350.3,168.6,350.3" />
      <path
        class="st6-temp-prcaf"
        d="M179,349.2c-0.6-1.4-2.3-1.8-3.8-1l-6.9,3.6l-5.8-3.6c-1.3-0.8-3.1-0.3-4.1,1c-1,1.4-0.8,3.1,0.5,3.9l4,2.5
			l-1,7.1c0,0.2,0,0.4,0.1,0.5c0.2,0.5,0.9,0.7,1.4,0.4l3.5-1.8l2.9,1.8c0.5,0.3,1.2,0.1,1.6-0.4c0.1-0.2,0.2-0.4,0.2-0.5l1-7.1
			l4.7-2.5C178.9,352.3,179.6,350.5,179,349.2" />
      <path
        class="st6-temp-prcaf"
        d="M206.2,330.6c-1.7,0-2.8-1.3-2.6-3c0.2-1.6,1.8-3,3.5-3s2.8,1.3,2.6,3C209.4,329.2,207.9,330.6,206.2,330.6" />
      <path
        class="st6-temp-prcaf"
        d="M196.1,329.4c1-1.4,2.8-1.8,4.1-1l5.8,3.6l6.9-3.6c1.5-0.8,3.2-0.3,3.8,1c0.6,1.4-0.1,3.1-1.6,3.9l-4.7,2.5
			l-1,7.1c0,0.2-0.1,0.4-0.2,0.5c-0.4,0.5-1.1,0.7-1.6,0.4l-2.9-1.8l-3.5,1.8c-0.6,0.3-1.2,0.1-1.4-0.4c-0.1-0.2-0.1-0.4-0.1-0.5
			l1-7.1l-4-2.5C195.3,332.5,195.1,330.8,196.1,329.4" />
      <path
        class="st6-temp-prcaf"
        d="M203.3,350.3c-1.7,0-2.8-1.3-2.6-3c0.2-1.6,1.8-3,3.5-3s2.8,1.3,2.6,3C206.5,349,205,350.3,203.3,350.3" />
      <path
        class="st6-temp-prcaf"
        d="M193.2,349.2c1-1.4,2.8-1.8,4.1-1l5.8,3.6l6.9-3.6c1.5-0.8,3.2-0.3,3.8,1c0.6,1.4-0.1,3.1-1.6,3.9l-4.7,2.5
			l-1,7.1c0,0.2-0.1,0.4-0.2,0.5c-0.4,0.5-1.1,0.7-1.6,0.4l-2.9-1.8l-3.5,1.8c-0.6,0.3-1.2,0.1-1.4-0.4c-0.1-0.2-0.1-0.4-0.1-0.5
			l1-7.1l-4-2.5C192.4,352.3,192.2,350.5,193.2,349.2" />
      <path
        class="st6-temp-prcaf"
        d="M184.5,360.2c1.7,0,3.2-1.3,3.5-3c0.2-1.6-0.9-3-2.6-3s-3.2,1.3-3.5,3C181.7,358.9,182.8,360.2,184.5,360.2" />
      <path
        class="st6-temp-prcaf"
        d="M194.9,359c-0.6-1.4-2.3-1.8-3.8-1l-6.9,3.6l-5.8-3.6c-1.3-0.8-3.1-0.3-4.1,1c-1,1.4-0.8,3.1,0.5,3.9l4,2.5
			l-1,7.1c0,0.2,0,0.4,0.1,0.5c0.2,0.5,0.9,0.7,1.4,0.4l3.5-1.8l2.9,1.8c0.5,0.3,1.2,0.1,1.6-0.4c0.1-0.2,0.2-0.4,0.2-0.5l1-7.1
			l4.7-2.5C194.8,362.1,195.5,360.4,194.9,359" />
      <path
        class="st1-temp-prcaf"
        d="M150.9,379.9l-0.5-2.8l-1.6,2.8H150.9 M148.4,380.6c-0.5,0.9-0.9,1.6-1.3,2.5c-0.2,0-0.4,0-0.5,0
			c-0.2,0-0.4,0-0.6,0l4.9-8.3c0.1,0,0.3,0,0.4,0s0.3,0,0.4,0l1.7,8.3c-0.3,0-0.7-0.1-1-0.1s-0.7,0-1,0.1c-0.1-0.9-0.2-1.7-0.4-2.5
			H148.4z" />
      <path
        class="st1-temp-prcaf"
        d="M156.7,382.2c1,0,1.9-0.1,2.7-0.2c-0.1,0.2-0.1,0.3-0.2,0.5c0,0.2,0,0.3,0,0.5h-4.4l1.5-8.1
			c0.3,0,0.6,0.1,0.9,0.1c0.3,0,0.6,0,0.9-0.1L156.7,382.2" />
      <path
        class="st1-temp-prcaf"
        d="M162.7,382.2c1,0,1.9-0.1,2.7-0.2c-0.1,0.2-0.1,0.3-0.2,0.5c0,0.2,0,0.3,0,0.5h-4.4l1.5-8.1
			c0.3,0,0.6,0.1,0.9,0.1c0.3,0,0.6,0,0.9-0.1L162.7,382.2" />
      <path
        class="st1-temp-prcaf"
        d="M168.9,379.3c-0.3,1.5,0.1,3.2,1.8,3.2c1.8,0,2.9-1.8,3.3-3.8c0.3-1.5-0.1-3.3-1.8-3.3
			C170.6,375.4,169.4,376.7,168.9,379.3 M170.5,383.2c-2.6,0-4-1.6-3.5-4.3c0.4-2.4,2.5-4.3,5.4-4.3c3.3,0,3.8,2.4,3.5,4.2
			C175.4,381.3,173.3,383.2,170.5,383.2z" />
      <path
        class="st1-temp-prcaf"
        d="M183.2,381.7l-0.5,1c-0.8,0.4-1.6,0.5-2.4,0.5c-2.5,0-4.1-1.6-3.6-4c0.6-3.1,2.9-4.5,5.5-4.5
			c0.8,0,1.7,0.2,2.3,0.6c-0.2,0.4-0.3,0.8-0.5,1.2h-0.2c-0.3-0.6-1-1.1-1.7-1.1c-1.9,0-3.1,1.9-3.4,3.7c-0.4,2,0.3,3.5,2.1,3.5
			c0.7,0,1.6-0.4,2.2-0.9L183.2,381.7" />
      <path
        class="st1-temp-prcaf"
        d="M188.8,379.9l-0.5-2.8l-1.6,2.8H188.8 M186.2,380.6c-0.5,0.9-0.9,1.6-1.3,2.5c-0.2,0-0.4,0-0.5,0
			s-0.4,0-0.6,0l4.9-8.3c0.1,0,0.3,0,0.4,0c0.1,0,0.3,0,0.4,0l1.7,8.3c-0.3,0-0.6-0.1-1-0.1c-0.3,0-0.7,0-1,0.1
			c-0.1-0.9-0.2-1.7-0.4-2.5H186.2z" />
      <path
        class="st1-temp-prcaf"
        d="M195.9,383.1c-0.3,0-0.6-0.1-0.9-0.1c-0.3,0-0.6,0-0.9,0.1l1.4-7.3c-0.8,0-1.6,0.1-2.2,0.2
			c0.1-0.2,0.1-0.3,0.2-0.5c0-0.2,0-0.3,0-0.5h6c-0.1,0.2-0.1,0.3-0.2,0.5c0,0.2,0,0.3,0,0.5c-0.7-0.1-1.3-0.2-2-0.2L195.9,383.1" />
      <path
        class="st1-temp-prcaf"
        d="M201,374.9c0.3,0,0.6,0.1,0.9,0.1c0.3,0,0.6,0,0.9-0.1l-1.5,8.2c-0.3,0-0.6-0.1-0.9-0.1c-0.3,0-0.6,0-0.9,0.1
			L201,374.9" />
      <path
        class="st1-temp-prcaf"
        d="M205.4,379.3c-0.3,1.5,0.1,3.2,1.8,3.2c1.8,0,2.9-1.8,3.3-3.8c0.3-1.5-0.1-3.3-1.8-3.3
			C207.1,375.4,205.9,376.7,205.4,379.3 M207,383.2c-2.6,0-4-1.6-3.5-4.3c0.4-2.4,2.5-4.3,5.4-4.3c3.3,0,3.8,2.4,3.5,4.2
			C212,381.3,209.8,383.2,207,383.2z" />
      <path
        class="st1-temp-prcaf"
        d="M214.7,374.9h1.1c1.3,1.9,2.7,3.7,4,5.6l1.1-5.6c0.1,0,0.3,0,0.5,0s0.3,0,0.5,0l-1.5,8.2h-1
			c-1.1-1.5-2-3-3.1-4.4l-1-1.4l-1.1,5.8c-0.1,0-0.3,0-0.5,0s-0.3,0-0.5,0L214.7,374.9" />
      <path
        class="st1-temp-prcaf"
        d="M227.2,376.4c-0.1-0.6-0.5-1-1.1-1c-0.9,0-1.4,0.5-1.5,1.2c-0.3,1.6,3.3,1.3,2.8,4c-0.3,1.5-1.8,2.6-3.6,2.6
			c-0.6,0-1.3-0.2-1.8-0.5c0.2-0.5,0.5-1,0.6-1.5h0.2c0,0.8,0.6,1.3,1.4,1.3c0.7,0,1.4-0.4,1.6-1.2c0.4-1.9-3.2-1.2-2.7-4.1
			c0.3-1.4,1.4-2.5,3.2-2.5c0.8,0,1.5,0.3,1.7,0.6c-0.2,0.4-0.4,0.8-0.6,1.2L227.2,376.4" />
      <path
        class="st1-temp-prcaf"
        d="M152,395.3c-0.3,0-0.7-0.1-1-0.1s-0.7,0-1,0.1l1.8-8.4h5.1c-0.1,0.2-0.1,0.4-0.2,0.5c0,0.2,0,0.4,0,0.5
			c-0.8-0.1-1.7-0.2-3.1-0.2l-0.6,2.6h1.4c0.5,0,1.1,0,1.7-0.1c-0.1,0.2-0.1,0.4-0.2,0.5c0,0.2,0,0.4,0,0.5c-0.6,0-1.1-0.1-1.6-0.1
			h-1.4L152,395.3" />
      <path
        class="st1-temp-prcaf"
        d="M161.6,392l-0.6-2.9l-1.9,2.9H161.6 M158.6,392.7c-0.5,0.9-1,1.7-1.5,2.5c-0.2,0-0.4,0-0.6,0s-0.4,0-0.7,0
			l5.7-8.5c0.2,0,0.3,0,0.5,0s0.3,0,0.5,0l1.9,8.6c-0.4,0-0.8-0.1-1.1-0.1c-0.4,0-0.8,0-1.2,0.1c-0.1-0.9-0.2-1.7-0.4-2.6H158.6z" />
      <path
        class="st1-temp-prcaf"
        d="M176.2,386.8c0.2,0,0.4,0.1,0.6,0.1c0.2,0,0.4,0,0.6-0.1c-0.3,3.3-0.5,6-0.6,8.4c-0.4,0-0.7-0.1-1.1-0.1
			c-0.4,0-0.7,0-1.1,0.1c0.3-2,0.4-3.8,0.6-5.7c-1.4,1.9-2.8,3.8-4.2,5.7c-0.2,0-0.3,0-0.5,0c-0.5-1.7-1.2-3.6-1.8-5.5
			c-0.8,2.2-1.3,3.9-1.8,5.6c-0.2,0-0.4-0.1-0.6-0.1c-0.2,0-0.4,0-0.6,0.1c1-2.5,2-5.3,3.2-8.4c0.2,0,0.3,0.1,0.5,0.1s0.4,0,0.6-0.1
			c0.6,1.9,1.2,3.9,1.9,5.8C173.1,390.9,174.7,389,176.2,386.8" />
      <path
        class="st1-temp-prcaf"
        d="M180.4,386.8c0.3,0,0.7,0.1,1,0.1s0.7,0,1-0.1l-1.8,8.4c-0.3,0-0.7-0.1-1-0.1s-0.7,0-1,0.1L180.4,386.8" />
      <path
        class="st1-temp-prcaf"
        d="M185.3,394.3c1.2,0,2.2-0.1,3.1-0.2c-0.1,0.2-0.1,0.4-0.2,0.5c0,0.2,0,0.4,0,0.5h-5.1l1.8-8.4
			c0.3,0,0.7,0.1,1,0.1s0.7,0,1-0.1L185.3,394.3" />
      <path
        class="st1-temp-prcaf"
        d="M191.9,386.8c0.3,0,0.7,0.1,1,0.1s0.7,0,1-0.1l-1.8,8.4c-0.3,0-0.7-0.1-1-0.1s-0.7,0-1,0.1L191.9,386.8" />
      <path
        class="st1-temp-prcaf"
        d="M199.4,392l-0.6-2.9L197,392H199.4 M196.5,392.7c-0.5,0.9-1,1.7-1.5,2.5c-0.2,0-0.4,0-0.6,0
			c-0.2,0-0.4,0-0.7,0l5.7-8.5c0.2,0,0.3,0,0.5,0s0.3,0,0.5,0l1.9,8.6c-0.4,0-0.8-0.1-1.1-0.1c-0.4,0-0.8,0-1.2,0.1
			c-0.1-0.9-0.2-1.7-0.4-2.6H196.5z" />
      <path
        class="st1-temp-prcaf"
        d="M205.9,394.3c1.2,0,2.2-0.1,3.1-0.2c-0.1,0.2-0.1,0.4-0.2,0.5c0,0.2,0,0.4,0,0.5h-5.1l1.8-8.4
			c0.3,0,0.7,0.1,1,0.1s0.7,0,1-0.1L205.9,394.3" />
      <path
        class="st1-temp-prcaf"
        d="M217.6,386.8c-0.1,0.2-0.1,0.4-0.2,0.5c0,0.2,0,0.4,0,0.5c-0.8-0.1-1.7-0.2-3.1-0.2l-0.6,2.6h1.4
			c0.6,0,1.2,0,1.7-0.1c-0.1,0.2-0.1,0.4-0.2,0.5c0,0.2,0,0.4,0,0.5c-0.5-0.1-1-0.1-1.6-0.1h-1.4l-0.7,3.1c1.4,0,2.3-0.1,3.1-0.2
			c-0.1,0.2-0.1,0.4-0.2,0.5c0,0.2,0,0.4,0,0.5h-5.1l1.8-8.4L217.6,386.8" />
      <path
        class="st1-temp-prcaf"
        d="M223.3,388.4c-0.1-0.7-0.6-1.1-1.3-1.1c-1.1,0-1.6,0.5-1.7,1.2c-0.4,1.7,3.8,1.4,3.2,4.2
			c-0.3,1.6-2.1,2.7-4.1,2.7c-0.7,0-1.5-0.2-2.1-0.5c0.3-0.5,0.5-1,0.7-1.6h0.3c0,0.8,0.6,1.4,1.6,1.4c0.8,0,1.7-0.4,1.8-1.3
			c0.4-2-3.7-1.3-3.1-4.2c0.3-1.4,1.6-2.6,3.7-2.6c1,0,1.8,0.3,2,0.6c-0.2,0.4-0.5,0.8-0.7,1.2L223.3,388.4" />
    </g>
  </g>
  <path class="st7-temp-prcaf" d="M370.5,169c0.2,0,0.4,0,0.6,0c0,2.5,0,5.1,0,7.6C370.9,174.1,370.7,171.6,370.5,169z" />
  <path
    class="st7-temp-prcaf"
    d="M209.2,233.4c-0.8,0.9-1.5,1.8-2.2,2.6c-4.9,6-12.6,8.1-19.8,5.4c-5.7-2.2-8.6-6.6-9.7-12.4
	c-1.5-7.4,0.2-14.3,3.8-20.7c3.1-5.5,7.3-10,12.9-13c3.2-1.7,6.6-2.5,10.2-2.4c4.9,0.1,9,2,11.7,6.9c0.8-1.9,1.4-3.5,2.1-5.2
	c3,0,6,0,9.5,0c-1.2,4.1-2.4,7.8-3.5,11.6c-1.9,6.6-3.8,13.2-5.6,19.9c-0.4,1.6-0.6,3.3-0.7,5c0,4.8,3.1,7.3,7.8,6
	c3.4-0.9,6.1-2.8,8.4-5.4c4.4-4.9,7-10.6,8-16.9c2.2-12.6-0.6-23.8-10.6-32.5c-5.6-4.8-12.3-7.2-19.6-8.1
	c-26.1-3.5-45.9,16-49.1,37.8c-1.5,10.1-0.2,19.7,4.9,28.5c5.6,9.7,14.3,15.3,25.2,17.3c13.9,2.6,26.8-0.5,38.9-7.5
	c1-0.6,1.9-1.2,2.9-1.7c0.2-0.1,0.5-0.2,1.1-0.5c0.7,1.1,1.4,2.2,2.2,3.4c-7.9,6-16.5,9.6-25.9,11.1c-9.8,1.6-19.6,1.6-29.3-1.2
	c-16.5-4.9-28.3-18.8-29.9-36.1c-0.7-8.3-0.3-16.6,2.8-24.5c5.5-14.1,15.6-23.6,29.8-28.5c12.9-4.5,25.9-5,38.8,0.1
	c16.8,6.6,25.9,22.6,23.4,40.5c-1.1,7.9-3.7,15-8.8,21.1c-3.7,4.3-8.1,7.3-13.8,8.3C217.3,243.7,212.4,241.1,209.2,233.4z
	 M213,207.8c0-8-5.3-11.5-11-8.7c-1.4,0.7-2.6,1.7-3.7,2.7c-5.3,5-8.1,11.4-9.7,18.4c-0.7,3-1,6.2-0.8,9.2c0.2,3.3,1.8,6.2,5.3,7.5
	c3.4,1.2,6.5,0.4,8.9-2.1c1.6-1.6,3-3.4,4-5.4c1.3-2.5,2.4-5.1,3.2-7.8C210.8,216.5,212.1,211.4,213,207.8z" />
  <path
    class="st7-temp-prcaf"
    d="M142.3,240.4c0.8,0.9,1.1,1.1,1.1,1.3c-0.4,4.3-0.8,8.6-1.3,13c-6.2,3.4-12.7,5.7-19.5,6.9
	c-10.5,2-21,2.1-31.3-1.3c-15.7-5.2-25.6-15.8-29.1-32.1c-2.6-12.5-1.3-24.7,4.8-36.1c4.8-9.1,12.3-15.3,21.8-19
	c10.7-4.2,21.9-4.9,33.2-3.6c7.5,0.8,14.6,2.8,21.9,6.2c-1.3,4.4-2.7,8.7-4.2,13.4c-1.1-0.8-1.8-1.1-2.1-1.6
	c-3.8-6.7-10.1-9.5-17.4-10.6c-6-0.9-12.1-0.8-18,0.9c-11.2,3.2-17.8,11-20.8,21.9c-2.8,10.1-3,20.3-0.3,30.5
	c2.3,8.7,6.8,16.1,14.7,20.9c10.6,6.4,21.5,5.4,32.3,0.6c4.2-1.8,7.6-4.8,10.7-8.1C140,242.6,141.1,241.6,142.3,240.4z" />
  <path
    class="st7-temp-prcaf"
    d="M266,204.6c-3.5,0-6.4,0-9.5,0c0-2.2,0-4.2,0-6.6c3.1,0.1,6.1,0.3,9.3,0.4c0.8-4.4,1.2-8.6,2.2-12.6
	c2-7.8,5.9-14.6,12.4-19.6c4.9-3.8,10.3-4.7,16-3.8c0,4.9,0,9.4,0,14.5c-1.5-0.4-2.4-0.6-3.2-0.9c-3.3-1.3-6.8-1.8-10.3-1.2
	c-3.9,0.7-5.8,2.7-5.8,6.6c0,2.9,0.5,5.9,1.1,8.8c0.5,2.6,1.4,5.1,2.2,7.9c4.6,0,9,0,13.6,0c0,2.2,0,4.1,0,6.5c-2.2,0-4.4,0-6.6,0
	c-2.1,0-4.2,0-6.7,0c-0.2,19,0.6,37.6,1.1,56.4c-2.9-0.2-5.5-0.6-8.2-0.6c-2.7,0-5.3,0.4-8.4,0.6C266.1,242.3,266.7,223.7,266,204.6
	z" />
  <path
    class="st7-temp-prcaf"
    d="M199.8,36.5c3.2-2,6.5-2.8,9.9-0.6c1.4,0.9,2.5,2.2,4,3.5c1.8-1.7,4.3-2.8,7.2-2.5c4.3,0.4,6.7,2.9,6.7,7.2
	c0,2.2-0.5,4.5-0.8,6.7c-0.2,1.8-0.6,3.6-0.8,5.4c-0.2,1.8-0.4,3.6-0.6,5.7c-2-0.2-3.7-0.3-5.9-0.5c0.6-3.5,1.2-6.8,1.6-10.1
	c0.3-2.1,0.6-4.2,0.6-6.3c0.1-3.3-0.9-4.4-3.6-4.7c-2.5-0.3-4.3,0.8-4.9,3.5c-0.8,3.6-1.3,7.2-1.8,10.8c-0.3,1.6-0.3,3.3-0.5,5.4
	c-2.2-0.3-4-0.6-5.9-0.8c0.7-4.4,1.4-8.5,2-12.7c0.2-1.5,0.3-3.1,0.3-4.6c0-1.7-1-2.9-2.6-3.5c-1.8-0.7-3.5-0.5-4.6,1
	c-1,1.4-1.8,3.2-2.1,4.9c-0.8,4.4-1.4,8.9-2.1,13.6c-1.8-0.3-3.5-0.5-5.5-0.8c1.1-7.8,2.2-15.4,3.3-23.5c1.6,0.1,3.3,0.2,5.1,0.4
	c0.2,0.7,0.3,1.4,0.4,2c-0.1,0.3-0.1,0.7-0.2,1C199.3,36.8,199.5,36.6,199.8,36.5z" />
  <path
    class="st7-temp-prcaf"
    d="M282.6,114.5c-1.1-1.1-2.4-2.4-3.7-3.7c3.4-3.2,7-6.6,10.5-9.9c-2.4-1.4-4.8-2.4-6.6-4.1
	c-2.8-2.6-3.5-6-2.2-9.7c1.8-5.3,5.3-9,10.7-10.4c6.4-1.6,10.9,1.8,12.4,9.5c0.6-0.3,1.1-0.5,1.4-0.6c1.2,1.3,2.3,2.5,3,3.2
	C299.9,97.2,291.3,105.8,282.6,114.5z M300.9,86.6c0-4.1-3.1-6.4-6.6-5.1c-4.4,1.6-7.5,4.8-9.5,9.1c-0.9,2-0.8,3.9,0.7,5.5
	c1.6,1.7,3.5,2.3,5.7,1.4c4.5-1.7,7.5-4.9,9.3-9.2C300.8,87.6,300.9,86.9,300.9,86.6z" />
  <path
    class="st7-temp-prcaf"
    d="M51.5,139.3c4.7,2,9.2,3.9,13.8,5.9c-0.9,1.9-1.7,3.8-2.5,5.8c-10.5-4.6-20.9-9.2-31.4-13.8
	c1.7-4,3.2-8.1,5.1-11.9c1.7-3.6,4.6-5.7,8.8-5.1c4,0.5,7.4,2.6,8.4,6.6c0.6,2.4,0.1,5.2-0.3,7.8C53.2,135.9,52.3,137.3,51.5,139.3z
	 M36.2,132.5c4.3,1.9,8.4,3.6,12.5,5.4c2.2-2.7,2.8-5.3,1.1-8c-1.8-2.8-4.5-4.2-7.9-4C38.2,126.1,37.3,129.1,36.2,132.5z" />
  <path
    class="st7-temp-prcaf"
    d="M180.1,58.3c-0.4-0.8-0.8-1.5-0.9-1.7c-2.3,1.2-4.3,2.7-6.6,3.3c-4.4,1-7.8-1.4-8.7-5.7
	c-0.8-3.7-1-7.5-1.4-11.3c-0.2-2.1-0.3-4.1-0.5-6.4c1.9-0.2,3.6-0.4,5.6-0.7c0.5,4.7,0.9,9.3,1.4,13.9c0.1,0.8,0.1,1.7,0.3,2.5
	c0.6,2.5,2.1,3.8,4.4,3.8c2.4,0,4.5-1.4,4.7-3.9c0.2-3,0-6.2-0.2-9.2c-0.2-2.6-0.7-5.2-1-7.7c0.3-0.2,0.4-0.4,0.5-0.4
	c1.7-0.2,3.3-0.4,5.2-0.6c0.8,7.9,1.5,15.6,2.3,23.8C183.4,58.1,181.8,58.2,180.1,58.3z" />
  <path
    class="st7-temp-prcaf"
    d="M132.1,45c1.8-0.6,3.4-1.1,5-1.6c0.4,1,0.6,1.7,0.9,2.5c0.2-0.1,0.5-0.1,0.6-0.3c0.8-1.1,1.5-2.4,2.5-3.4
	c4.6-4.2,11-2.5,13.2,3.5c1.8,5,3.2,10.2,4.8,15.5c-1.7,0.6-3.5,1.2-5.4,1.8c-1.4-4.6-2.8-9-4.1-13.4c-0.3-0.9-0.6-1.9-1-2.8
	c-1.1-2-2.7-2.8-4.9-2.4c-2,0.4-3.7,1.9-3.7,4c0,2.1,0.4,4.2,0.9,6.2c1.1,3.8,2.4,7.4,3.6,11.3c-1.9,0.6-3.6,1.1-5.4,1.7
	C136.9,60.2,134.5,52.8,132.1,45z" />
  <path
    class="st7-temp-prcaf"
    d="M99.8,93.9c-1.4,1.3-2.7,2.4-4.2,3.7c-5.3-6-10.4-11.9-15.7-18c1.3-1.1,2.6-2.3,4-3.5c0.7,0.7,1.3,1.2,1.9,1.8
	c0.2-0.2,0.4-0.4,0.4-0.6c0.5-1.6,0.6-3.4,1.5-4.7c3.1-5,8.3-5.7,12.4-1.5c3.1,3.1,5.8,6.5,8.6,9.8c0.7,0.8,1.5,1.7,2.5,2.8
	c-1.4,1.3-2.7,2.6-4.2,4c-3-3.5-5.9-6.9-8.8-10.2c-0.8-0.9-1.7-1.9-2.7-2.6c-1.3-1-2.6-1.6-4.3-0.7c-1.8,1-3.1,2.3-2.7,4.3
	c0.4,1.8,1.1,3.8,2.3,5.3C93.6,87.2,96.7,90.4,99.8,93.9z" />
  <path
    class="st7-temp-prcaf"
    d="M315.3,96.7c1.2,1.9,2.1,3.3,3.1,4.8c-3.8,2.5-7.6,4.9-11.3,7.4c-1,0.7-2.1,1.5-3,2.4c-1.4,1.4-1.8,3.1-0.8,5
	c1,1.8,3,3.1,4.8,2.6c1.6-0.4,3.2-1.1,4.6-2c3.2-2,6.2-4.3,9.4-6.5c0.4-0.3,1-0.5,1.6-0.8c1.1,1.6,2.1,3,3.2,4.5
	c-6.7,4.5-13.3,8.8-19.9,13.2c-0.9-1.4-1.8-2.8-2.8-4.1c0.6-0.7,1.1-1.4,1.7-2.1c-1.2-0.4-2.2-0.7-3.2-1.2c-5.8-2.7-6.9-9.2-2-13.4
	c2.4-2,5.1-3.5,7.7-5.2C310.6,99.9,312.8,98.4,315.3,96.7z" />
  <path
    class="st7-temp-prcaf"
    d="M81.5,113.5c0,6.4-5.5,12.6-11.6,12.9c-6.3,0.3-13.6-5.6-14.1-11.6c-0.4-5.3,2.1-9.2,6.2-12.2
	c3.9-2.8,8-2.2,11.9,0C78.2,105,81.4,108.2,81.5,113.5z M64.4,105.5c-2.3-0.1-3.9,1-4.9,2.9c-0.9,1.9-0.8,3.8,0.5,5.6
	c2.8,3.8,6.7,5.9,11,7.5c0.6,0.2,1.4,0.2,2.1,0.2c4-0.2,6.6-4,4.6-7.4C74.8,109.3,70,106.7,64.4,105.5z" />
  <path
    class="st7-temp-prcaf"
    d="M253.1,60.8c-4.8-1.9-9.5-3.8-14.2-5.6c-1.8,2.8-2.1,5.6-0.6,8.2c2.6,4.4,7,4,11.4,3.3
	c-0.6,1.8-1.4,2.9-3.2,3.2c-6,1-13.1-3.5-14.4-9.2c-1.4-6.3,3-14.4,8.7-16.1c4.8-1.4,9.2,0.1,12.3,3.6
	C256.3,52.1,255.3,56.4,253.1,60.8z M248.8,56.3c2.8-4.6,0.9-8.5-1.6-9.2c-3.2-0.9-6,1.3-7.2,5.9C243,54.1,246,55.2,248.8,56.3z" />
  <path
    class="st7-temp-prcaf"
    d="M328.9,146.2c-2.2-4.8-4.3-9.3-6.5-14.1c-3.3,0.9-5.6,2.7-6.2,6c-0.8,4.6,2.2,7.2,5.8,9.6
	c-1.7,1.5-3.1,1.3-4.6,0.1c-7.5-5.7-6.9-16,1.2-20.8c6.9-4.1,14.1-2.4,17.4,3.9c2.9,5.7,1.7,10.3-3.8,13.7
	C331.3,145.1,330.2,145.5,328.9,146.2z M329,140.3c1.8-1.2,3.2-2,4.3-3c2.4-2.3,1.8-5.8-1.4-7.2c-2.6-1.2-4.8-0.3-7.1,1.1
	C326.2,134.1,327.5,136.9,329,140.3z" />
  <path
    class="st7-temp-prcaf"
    d="M104.3,49.2c1.7,2.8,3.2,5.1,4.8,7.6c1.5-0.9,2.6-1.6,3.8-2.3c1.5,1.8,1.5,1.8-2.2,4.8
	c2.4,4.7,5.1,9.2,8.4,13.4c1.8,2.3,2.6,2.1,7-1c-0.1,1.3,0.1,2.3-0.3,2.9c-3.5,5.3-9,5.3-12.5-0.1c-1.3-2-2.4-4.1-3.7-6.2
	c-1.2-1.9-2.3-3.8-3.7-5.9c-1,0.4-2,0.8-3.3,1.2c-0.3-0.4-0.7-0.9-1.2-1.6c0.9-0.7,1.7-1.4,2.7-2.2c-0.9-1.6-1.7-3-2.6-4.7
	C102.4,53.4,103.2,51.6,104.3,49.2z" />
  <path
    class="st7-temp-prcaf"
    d="M257.7,77.2c-1.7-1-3.1-1.9-4.9-2.9c4.1-6.8,8.1-13.6,12.2-20.6c1.5,0.9,2.9,1.7,4.6,2.7
	c-0.4,1.1-0.8,2-1.3,3.1c0.4,0.1,0.8,0.3,1.1,0.2c2.4-1,4.8-1.2,7.4,0.4c-1,1.7-1.9,3.2-2.7,4.7c-0.4,0-0.7,0.1-0.8,0
	c-4.4-3.3-6.2-3.1-9.2,1.5C261.8,69.8,259.9,73.4,257.7,77.2z" />
  <path
    class="st7-temp-prcaf"
    d="M281.9,64.4c1.6,1.3,3,2.4,4.5,3.6c-4.8,6.3-9.5,12.6-14.3,19c-1.5-1.1-3-2.1-4.6-3.2
	C272.2,77.3,277,71,281.9,64.4z" />
  <path
    class="st7-temp-prcaf"
    d="M70.2,91c1.3-1.5,2.4-2.9,3.7-4.4c6,5.1,11.9,10.2,18.1,15.5c-1.1,1.3-2.2,2.7-3.6,4.4
	C82.2,101.2,76.2,96.1,70.2,91z" />
  <path
    class="st7-temp-prcaf"
    d="M247.2,39.5c3.1-1.5,6.1-3.1,9.2-4.6c1.4-0.7,2.5-0.2,3.1,1.2c0.6,1.4-0.1,2.5-1.6,2.8
	c-3.4,0.7-6.7,1.3-10.1,1.9C247.5,40.4,247.3,40,247.2,39.5z" />
  <path
    class="st7-temp-prcaf"
    d="M292.5,59.5c0,1.9-1.6,3.4-3.5,3.4c-1.8,0-3.4-1.7-3.2-3.6c0.1-1.8,1.9-3.3,3.8-3.2
	C291.3,56.2,292.5,57.6,292.5,59.5z" />
  <path
    class="st7-temp-prcaf"
    d="M65.4,80c1.8,0,3.6,1.7,3.7,3.4c0,1.6-2,3.6-3.5,3.5c-1.6-0.1-3.4-2.1-3.4-3.7C62.1,81.4,63.6,80,65.4,80z" />
  <path class="st7-temp-prcaf" d="M131.8,435.6c1.7,2.2,3.4,4.5,5,6.7" />
  <path class="st7-temp-prcaf" d="M142.1,449c-4.5-0.4-5-1-5.2-6.6C138.6,444.6,140.4,446.8,142.1,449z" />
</svg>
