<svg
  version="1.1"
  id="Calque_1"
  xmlns="http://www.w3.org/2000/svg"
  xmlns:xlink="http://www.w3.org/1999/xlink"
  x="0px"
  y="0px"
  width="70"
  heigth="70"
  viewBox="0 0 482 427"
  style="enable-background: new 0 0 482 427"
  xml:space="preserve">
  <style type="text/css">
    .st0 {
      fill: #51646e;
    }
    .st1 {
      fill: #c92358;
    }
    .st2 {
      clip-path: url(#SVGID_00000115495324364615675170000018004083910019217044_);
    }
    .st3 {
      fill: url(#path90_00000022546287496162429390000009013413236399848833_);
    }
    .st4 {
      clip-path: url(#SVGID_00000065771440577602835960000015305764555882894266_);
    }
    .st5 {
      fill: url(#path110_00000090262133467334806160000004829093099384208771_);
    }
    .st6 {
      fill: url(#path134_00000157278292842030316430000000904937070091390377_);
    }
    .st7 {
      fill: url(#path154_00000113313839611631350450000016592600077428406450_);
    }
    .st8 {
      fill: url(#path180_00000154389837835361271270000013234041761561180560_);
    }
    .st9 {
      fill: url(#path202_00000176022299123806351210000008427900756869810868_);
    }
    .st10 {
      fill: url(#path222_00000081608282197298294390000009942268663596649147_);
    }
    .st11 {
      fill: url(#path246_00000120529208389806691210000014237748843671435941_);
    }
    .st12 {
      fill: url(#path266_00000108283352121916955480000004081246806212454293_);
    }
    .st13 {
      fill: url(#path286_00000051379505240352307070000012814530426723306644_);
    }
    .st14 {
      fill: url(#path308_00000058587400483112611850000017126826078522718629_);
    }
    .st15 {
      fill: url(#path328_00000053533075989071455760000018043562259799979172_);
    }
    .st16 {
      fill: url(#path352_00000153666033937576551780000008716388522954139582_);
    }
    .st17 {
      fill: url(#path376_00000179618932465200617070000005436862850904870566_);
    }
    .st18 {
      fill: url(#path402_00000152968762331946537660000008657535593587628207_);
    }
    .st19 {
      fill: url(#path422_00000090284903411849162170000010926928518218705328_);
    }
    .st20 {
      fill: url(#path442_00000047763396022968962020000016276109994097940377_);
    }
    .st21 {
      fill: url(#path466_00000093169172026389783840000001604640236883434166_);
    }
    .st22 {
      fill: url(#path492_00000091734291155990591760000006798942987067614360_);
    }
    .st23 {
      fill: url(#path512_00000029736325251086474570000013104681095625632908_);
    }
    .st24 {
      fill: #ffffff;
    }
    .st25 {
      fill: url(#path548_00000039118346193950098580000004242523233682499509_);
    }
    .st26 {
      fill: url(#path568_00000158010410090682054320000001304622029768584067_);
    }
    .st27 {
      opacity: 0.8;
      clip-path: url(#SVGID_00000090260167868011542090000013233985052593441458_);
    }
    .st28 {
      fill: url(#path610_00000165936596682734934840000017896401287762914735_);
    }
  </style>
  <g>
    <g>
      <g id="g32_00000139283866424726196750000003381676040912216230_" transform="translate(23.7329,145.4771)">
        <path
          id="path34_00000088121637724384003710000018429817617673332609_"
          class="st0"
          d="M-22.2,278.6V175.9h34.3v13.4h-19v26.4
				h18.3v13.4H-6.9v49.5H-22.2z" />
      </g>
      <g id="g36_00000003799542979513458380000010753578528010317992_" transform="translate(58.125,179.5513)">
        <path
          id="path38_00000098930426960792681920000013682447436159536267_"
          class="st0"
          d="M-0.4,184.4h2.9c5.3,0,6.5-2.9,6.5-6.6
				v-18.6c0-3.9-2.3-5-5.8-5h-3.6V184.4z M-15.7,244.6V141.8H4.5c12.3,0,19.8,4.3,19.8,17.6V174c0,7.6-2.2,14-15.1,15.4v0.3
				c6.8,0.9,14,3.2,14.6,12.5c0.9,13.7,0,28.1,2.5,42.3H10.9C8.3,232.7,9,217.3,9,205.3c0-6.2-2.3-8.7-9.4-8.4v47.6
				C-0.4,244.6-15.7,244.6-15.7,244.6z" />
      </g>
      <g id="g40_00000017513159877412983460000014765443868612383130_" transform="translate(80.1826,145.4771)">
        <path
          id="path42_00000024696363643898358300000000253698207055517332_"
          class="st0"
          d="M11.8,278.6V175.9h34.1v13.4H27.1v26.4h18
				v13.4h-18v36.1h19v13.4H11.8z" />
      </g>
      <g id="g44_00000116931475513760339290000008805629872603725727_" transform="translate(119.1519,203.6455)">
        <path
          id="path46_00000008137016684391056900000007591151402548384168_"
          class="st0"
          d="M38.4,117.7l4.3,29.6
				c3.5,19,5.9,38.8,7.2,58.1h0.6V200c0.1-10-0.4-20.1-0.4-30v-52.2h12.6v102.7H40l-7.2-51.4c-2.4-12.7-3.3-24.2-4.6-36.4h-0.6
				c0,4.5,0.3,8.9,0.4,13.3v74.4H15.5V117.7H38.4z" />
      </g>
      <g id="g48_00000090986133294677285850000000810333363398892934_" transform="translate(154.9341,182.4048)">
        <path
          id="path50_00000170995671110566312410000007609230335827644037_"
          class="st0"
          d="M59.9,176.5v-20.9c0-5.2-1.6-6.4-4.6-6.4
				c-3.2,0-4.8,1.2-4.8,6.4v69.5c0,5.2,1.6,6.3,4.8,6.3c3,0,4.6-1.1,4.6-6.3v-22.2h15.3v23.5c0,13.4-10.5,17.3-20.1,17.3
				c-9.4,0-19.9-3.9-19.9-17.3v-72.1c0-13.4,10.5-17.3,19.9-17.3c9.5,0,20.1,3.9,20.1,17.3v22.2H59.9z" />
      </g>
      <g id="g52_00000109742845389305263610000011617209632287195048_" transform="translate(171.6812,145.4771)">
        <path
          id="path54_00000053518031238171440280000012410487295384498611_"
          class="st0"
          d="M67.8,278.6V175.9h15.3v39.4h8.5v-39.4
				h15.3v102.7H91.6v-49.9h-8.5v49.9H67.8z" />
      </g>
    </g>
    <g>
      <g id="g56_00000024003872864772463180000011827432308973022364_" transform="translate(59.9819,125.8047)">
        <path
          id="path58_00000003095331591258389930000016490654018832811398_"
          class="st0"
          d="M285,195.6V209h-13.3v89.2h-15.3V209
				h-13.4v-13.4L285,195.6z" />
      </g>
      <g id="g60_00000178927858833040198390000012275699704374035642_" transform="translate(71.1494,36.4512)">
        <path
          id="path62_00000019647373066912035310000014082140576836362938_"
          class="st0"
          d="M280,387.6V284.9h34v13.4h-18.7v26.4h18
				v13.4h-18v36h19v13.4H280z" />
      </g>
      <g id="g64_00000106106332637993091190000008737112953469734589_" transform="translate(132.8901,93.1738)">
        <path
          id="path66_00000162313533840977156530000000623812339554021014_"
          class="st0"
          d="M285,265.7v-20.9c0-5.2-1.6-6.3-4.6-6.3
				c-3.2,0-4.8,1.2-4.8,6.3v69.5c0,5.2,1.6,6.3,4.8,6.3c3,0,4.6-1.2,4.6-6.3v-22.2h15.3v23.5c0,13.4-10.5,17.3-20,17.3
				c-9.4,0-19.9-3.9-19.9-17.3v-72.1c0-13.4,10.5-17.3,19.9-17.3c9.5,0,20,3.9,20,17.3v22.2H285z" />
      </g>
      <g id="g68_00000069361346469774745110000016224337456476865976_" transform="translate(159.3628,36.4512)">
        <path
          id="path70_00000037686045609403107020000000562749460188765088_"
          class="st0"
          d="M282.6,387.6V284.9h15.3v39.4h8.5v-39.4
				h15.3v102.6h-15.3v-49.9h-8.5v49.9H282.6z" />
      </g>
    </g>
    <path
      id="path18_00000089557678577230198090000012131810437379944894_"
      class="st0"
      d="M1.6,291.8v-106h15.8V278h20.1v13.9H1.6z" />
    <g id="g28_00000095337871869026132930000002501256829240999053_" transform="translate(60.4131,245.6289)">
      <path
        id="path30_00000016759064096124263360000010367161032422170797_"
        class="st0"
        d="M2.2,2.1c-4,2.4-6.8,4.2-6.8,8.6v21.4
			c0.3,1.8,1.5,3,3.4,2.8c1.9-0.3,3.4-1.5,3.4-3.4V2.1z M16.5,46.2H3.1c-0.9-1.8-0.9-3.9-0.9-5.8H1.9c-3,4.9-5.2,6.9-11.2,6.9
			c-6.2,0-9.7-3.4-9.7-9.8V8.8C-19-8.5,1.7,0.6,1.7-21.1c0-2.5,0.6-8.5-2.8-8.5c-4.2,0-3.4,6.9-3.4,9.8v11.2H-19v-17.1
			C-19-34.5-12.1-40-1.2-40c10.9,0,17.7,5.5,17.7,14.3C16.5-25.7,16.5,46.2,16.5,46.2z" />
    </g>
    <g>
      <path
        id="path14"
        class="st1"
        d="M163.5,134.2l-27,17.3l8.4-47.8l41.2,0.8l54.9,43.2l31.5-89.5l-24.9-37.7l18.1-5L280.2,2
			l16.2,10.5l20.9-4l-2.7,20.6L312,41.5l20.6,12.1l-26.1,15l-1.3,6.6l20.6,42.8l21.6,75.2l-32.8,36.7L290,246.5h-7.3l4.6,31.3
			l24.3,12.7H245l5.4-8l-9.5-2.2l13.5-11.8l-5.8-22.2l-7.6,0.1L165.3,186l6.2-3.3l10.3,0L164,171l6.2-3.3h13.7L163.5,134.2z" />
      <g>
        <defs>
          <polygon id="SVGID_1_" points="263.8,246.5 274.2,276.5 287.8,281.8 282.7,246.5 263.8,246.5 				" />
        </defs>
        <clipPath id="SVGID_00000126323475393685718740000004728761851029935258_">
          <use xlink:href="#SVGID_1_" style="overflow: visible" />
        </clipPath>
        <g id="g74" style="clip-path: url(#SVGID_00000126323475393685718740000004728761851029935258_)">
          <g id="g80">
            <g id="g82">
              <linearGradient
                id="path90_00000087372374936328988210000016062239956239318657_"
                gradientUnits="userSpaceOnUse"
                x1="232.5853"
                y1="1314.8131"
                x2="233.7691"
                y2="1314.8131"
                gradientTransform="matrix(20.2783 0 0 20.2783 -4452.6304 -26398.0176)">
                <stop offset="0" style="stop-color: #c92358" />
                <stop offset="1" style="stop-color: #e73151" />
              </linearGradient>
              <path
                id="path90"
                style="fill: url(#path90_00000087372374936328988210000016062239956239318657_)"
                d="M263.8,246.5l10.4,29.9
							l13.6,5.4l-5.2-35.3L263.8,246.5L263.8,246.5z" />
            </g>
          </g>
        </g>
      </g>
      <g>
        <defs>
          <polygon
            id="SVGID_00000022559322061556634320000004985094086769282453_"
            points="273.3,56.2 241,147.8 241,159 247.5,149.9 
					277.1,55.2 273.3,56.2 				" />
        </defs>
        <clipPath id="SVGID_00000129907184954164193630000000672887834863036322_">
          <use xlink:href="#SVGID_00000022559322061556634320000004985094086769282453_" style="overflow: visible" />
        </clipPath>
        <g id="g94" style="clip-path: url(#SVGID_00000129907184954164193630000000672887834863036322_)">
          <g id="g100">
            <g id="g102">
              <linearGradient
                id="path110_00000032628098655141651420000014121068540928512387_"
                gradientUnits="userSpaceOnUse"
                x1="244.6271"
                y1="1260.8693"
                x2="245.8109"
                y2="1260.8693"
                gradientTransform="matrix(-30.481 0 0 -30.481 7733.5767 38539.5977)">
                <stop offset="0" style="stop-color: #c92358" />
                <stop offset="1" style="stop-color: #93231e" />
              </linearGradient>
              <path
                id="path110"
                style="fill: url(#path110_00000032628098655141651420000014121068540928512387_)"
                d="M273.3,56.2
							L241,147.8V159l6.4-9l29.7-94.7L273.3,56.2L273.3,56.2z" />
            </g>
          </g>
        </g>
      </g>
      <g id="g114">
        <g id="g120">
          <g id="g122">
            <linearGradient
              id="path134_00000117660061423012401760000009292311055029956492_"
              gradientUnits="userSpaceOnUse"
              x1="243.8678"
              y1="1264.3029"
              x2="245.0515"
              y2="1264.3029"
              gradientTransform="matrix(-35.7544 0 0 -35.7544 9009.3174 45236.3867)">
              <stop offset="0" style="stop-color: #93231e" />
              <stop offset="0.6727" style="stop-color: #c92358" />
              <stop offset="0.6727" style="stop-color: #c92358" />
              <stop offset="1" style="stop-color: #c92358" />
            </linearGradient>
            <path
              id="path134"
              style="fill: url(#path134_00000117660061423012401760000009292311055029956492_)"
              d="M265.8,15.5l-18.1,5
						L275,62l15-18.4L280.4,2L265.8,15.5L265.8,15.5z" />
          </g>
        </g>
      </g>
      <g id="g138">
        <g id="g144">
          <g id="g146">
            <linearGradient
              id="path154_00000098210617672924949090000011334653183503216310_"
              gradientUnits="userSpaceOnUse"
              x1="242.5883"
              y1="1270.2778"
              x2="243.772"
              y2="1270.2778"
              gradientTransform="matrix(-55.9009 0 0 -55.9009 13791.1025 71178.9844)">
              <stop offset="0" style="stop-color: #93231e" />
              <stop offset="1" style="stop-color: #bc2222" />
            </linearGradient>
            <path
              id="path154"
              style="fill: url(#path154_00000098210617672924949090000011334653183503216310_)"
              d="M164,171l66.2-2.9
						l-60-0.4L164,171z" />
          </g>
        </g>
      </g>
      <g id="g158">
        <g id="g164">
          <g id="g166">
            <linearGradient
              id="path180_00000115514249691498461050000017462950032782867876_"
              gradientUnits="userSpaceOnUse"
              x1="242.1756"
              y1="1271.8688"
              x2="243.3593"
              y2="1271.8688"
              gradientTransform="matrix(-65.1221 0 0 -65.1221 16012.0918 83021.375)">
              <stop offset="0" style="stop-color: #93231e" />
              <stop offset="0.3557" style="stop-color: #c92358" />
              <stop offset="0.3557" style="stop-color: #c92358" />
              <stop offset="0.9909" style="stop-color: #e6332d" />
              <stop offset="1" style="stop-color: #e6332d" />
            </linearGradient>
            <path
              id="path180"
              style="fill: url(#path180_00000115514249691498461050000017462950032782867876_)"
              d="M164,171l77.1,50.6
						l-1.1-53.9L164,171L164,171z" />
          </g>
        </g>
      </g>
      <g id="g184">
        <g id="g190">
          <g id="g192">
            <linearGradient
              id="path202_00000005251891181166053770000000503823716832122517_"
              gradientUnits="userSpaceOnUse"
              x1="245.6503"
              y1="1275.5458"
              x2="246.834"
              y2="1275.5458"
              gradientTransform="matrix(-65.8336 38.009 -38.009 -65.8336 64976.7266 74736.625)">
              <stop offset="0" style="stop-color: #e35d90" />
              <stop offset="0.559" style="stop-color: #d22527" />
              <stop offset="1" style="stop-color: #93231e" />
            </linearGradient>
            <path
              id="path202"
              style="fill: url(#path202_00000005251891181166053770000000503823716832122517_)"
              d="M280.2,45.3
						l-32.8,104.6l76.2,28L290,43.6L280.2,45.3L280.2,45.3z" />
          </g>
        </g>
      </g>
      <g id="g206">
        <g id="g212">
          <g id="g214">
            <linearGradient
              id="path222_00000089554860629289620390000006852090842033298832_"
              gradientUnits="userSpaceOnUse"
              x1="243.1121"
              y1="1267.9679"
              x2="244.2958"
              y2="1267.9679"
              gradientTransform="matrix(-46.3892 0 0 -46.3892 11518.792 58965.0273)">
              <stop offset="0" style="stop-color: #e73151" />
              <stop offset="1" style="stop-color: #93231e" />
            </linearGradient>
            <path
              id="path222"
              style="fill: url(#path222_00000089554860629289620390000006852090842033298832_)"
              d="M231.5,184.9l9.5,0.7
						v-37.8l-54.9-43.2L231.5,184.9L231.5,184.9z" />
          </g>
        </g>
      </g>
      <g id="g226">
        <g id="g232">
          <g id="g234">
            <linearGradient
              id="path246_00000044155203090509435030000010309143258609292458_"
              gradientUnits="userSpaceOnUse"
              x1="237.5888"
              y1="1290.8009"
              x2="238.7725"
              y2="1290.8009"
              gradientTransform="matrix(73.1421 -6.375000e-06 6.375000e-06 73.1421 -17232.8242 -94266.7656)">
              <stop offset="0" style="stop-color: #e6332d" />
              <stop offset="0.4838" style="stop-color: #e73151" />
              <stop offset="0.9728" style="stop-color: #e35d9d" />
              <stop offset="1" style="stop-color: #e35d9d" />
            </linearGradient>
            <path
              id="path246"
              style="fill: url(#path246_00000044155203090509435030000010309143258609292458_)"
              d="M195.3,186.5l36.2-1.6
						l-45.4-80.3l-41.2-0.8L195.3,186.5L195.3,186.5z" />
          </g>
        </g>
      </g>
      <g id="g250">
        <g id="g256">
          <g id="g258">
            <linearGradient
              id="path266_00000147906563828244411410000009924934831248530360_"
              gradientUnits="userSpaceOnUse"
              x1="247.0044"
              y1="1253.6438"
              x2="248.1881"
              y2="1253.6438"
              gradientTransform="matrix(-22.8101 0 0 -22.8101 5797.668 28723.3027)">
              <stop offset="0" style="stop-color: #93231e" />
              <stop offset="1" style="stop-color: #c92358" />
            </linearGradient>
            <path
              id="path266"
              style="fill: url(#path266_00000147906563828244411410000009924934831248530360_)"
              d="M136.5,151.5l27-17.3
						l-18.6-30.5C144.9,103.7,136.5,151.5,136.5,151.5z" />
          </g>
        </g>
      </g>
      <g id="g270">
        <g id="g276">
          <g id="g278">
            <linearGradient
              id="path286_00000164514023900874914600000015102786017150596992_"
              gradientUnits="userSpaceOnUse"
              x1="223.7972"
              y1="1292.2081"
              x2="224.981"
              y2="1292.2081"
              gradientTransform="matrix(25.5342 -25.5342 25.5342 25.5342 -38448.8945 -26980.4121)">
              <stop offset="0" style="stop-color: #93231e" />
              <stop offset="1" style="stop-color: #c92358" />
            </linearGradient>
            <path
              id="path286"
              style="fill: url(#path286_00000164514023900874914600000015102786017150596992_)"
              d="M240.9,280.4
						l41.7,10.2h28.9l-34.7-18.1l-22.5-3.8L240.9,280.4L240.9,280.4z" />
          </g>
        </g>
      </g>
      <g id="g290">
        <g id="g296">
          <g id="g298">
            <linearGradient
              id="path308_00000010996666558440845800000001809963231016164796_"
              gradientUnits="userSpaceOnUse"
              x1="244.302"
              y1="1261.8441"
              x2="245.4856"
              y2="1261.8441"
              gradientTransform="matrix(-31.3086 0 0 -31.3086 7966.0386 39529.3633)">
              <stop offset="0" style="stop-color: #d22527" />
              <stop offset="0.9996" style="stop-color: #c92358" />
              <stop offset="1" style="stop-color: #c92358" />
            </linearGradient>
            <path
              id="path308"
              style="fill: url(#path308_00000010996666558440845800000001809963231016164796_)"
              d="M290,43.6l24.6-14.4
						l2.7-20.6l-20.9,4L280.2,2L290,43.6L290,43.6z" />
          </g>
        </g>
      </g>
      <g id="g312">
        <g id="g318">
          <g id="g320">
            <linearGradient
              id="path328_00000002374295572535909920000016899279977183280559_"
              gradientUnits="userSpaceOnUse"
              x1="246.5698"
              y1="1251.4397"
              x2="247.7534"
              y2="1251.4397"
              gradientTransform="matrix(-20.7935 0 0 -20.7935 5441.623 26077.0078)">
              <stop offset="0" style="stop-color: #bc2322" />
              <stop offset="1" style="stop-color: #e73151" />
            </linearGradient>
            <path
              id="path328"
              style="fill: url(#path328_00000002374295572535909920000016899279977183280559_)"
              d="M290,43.6l14,37.7
						l10.6-52.1L290,43.6L290,43.6z" />
          </g>
        </g>
      </g>
      <g id="g332">
        <g id="g338">
          <g id="g340">
            <linearGradient
              id="path352_00000062897021822995714180000005488840118320132736_"
              gradientUnits="userSpaceOnUse"
              x1="246.8511"
              y1="1249.5747"
              x2="248.0349"
              y2="1249.5747"
              gradientTransform="matrix(-19.5605 0 0 -19.5605 5160.9912 24490.3867)">
              <stop offset="0" style="stop-color: #e35d9d" />
              <stop offset="0.6412" style="stop-color: #e73151" />
              <stop offset="0.6412" style="stop-color: #e73151" />
              <stop offset="1" style="stop-color: #bc2322" />
            </linearGradient>
            <path
              id="path352"
              style="fill: url(#path352_00000062897021822995714180000005488840118320132736_)"
              d="M309.3,54.5l23.2-0.9
						L312,41.5L309.3,54.5z" />
          </g>
        </g>
      </g>
      <g id="g356">
        <g id="g362">
          <g id="g364">
            <linearGradient
              id="path376_00000079454395011074064540000011752960007185120401_"
              gradientUnits="userSpaceOnUse"
              x1="246.0599"
              y1="1253.1376"
              x2="247.2435"
              y2="1253.1376"
              gradientTransform="matrix(-22.0508 0 0 -22.0508 5758.4722 27693.7734)">
              <stop offset="0" style="stop-color: #e73151" />
              <stop offset="0.5687" style="stop-color: #c92358" />
              <stop offset="0.9996" style="stop-color: #93231e" />
              <stop offset="1" style="stop-color: #93231e" />
            </linearGradient>
            <path
              id="path376"
              style="fill: url(#path376_00000079454395011074064540000011752960007185120401_)"
              d="M309.6,53.6l-3,15
						l26.1-15H309.6z" />
          </g>
        </g>
      </g>
      <g id="g380">
        <g id="g386">
          <g id="g388">
            <linearGradient
              id="path402_00000116943206368098894380000010593426691155495576_"
              gradientUnits="userSpaceOnUse"
              x1="242.2148"
              y1="1271.6497"
              x2="243.3985"
              y2="1271.6497"
              gradientTransform="matrix(-64.0369 0 0 -64.0369 15751.8057 81647.0781)">
              <stop offset="0" style="stop-color: #93231e" />
              <stop offset="0.3557" style="stop-color: #c92358" />
              <stop offset="0.3557" style="stop-color: #c92358" />
              <stop offset="0.9909" style="stop-color: #e6332d" />
              <stop offset="1" style="stop-color: #e6332d" />
            </linearGradient>
            <path
              id="path402"
              style="fill: url(#path402_00000116943206368098894380000010593426691155495576_)"
              d="M165.3,186l75.8,60.5
						l0-63.8L165.3,186z" />
          </g>
        </g>
      </g>
      <g id="g406">
        <g id="g412">
          <g id="g414">
            <linearGradient
              id="path422_00000089557804649415686560000012424398921963776703_"
              gradientUnits="userSpaceOnUse"
              x1="242.6298"
              y1="1268.6042"
              x2="243.8134"
              y2="1268.6042"
              gradientTransform="matrix(-48.5059 0 0 -48.5059 12116.3535 61671.457)">
              <stop offset="0" style="stop-color: #e35d91" />
              <stop offset="1" style="stop-color: #d22527" />
            </linearGradient>
            <path
              id="path422"
              style="fill: url(#path422_00000089557804649415686560000012424398921963776703_)"
              d="M325,184.9l-10.4,45
						l32.8-36.7L325.8,118L290,43.6L325,184.9L325,184.9z" />
          </g>
        </g>
      </g>
      <g id="g426">
        <g id="g432">
          <g id="g434">
            <linearGradient
              id="path442_00000162344121755194096810000014518339513943064753_"
              gradientUnits="userSpaceOnUse"
              x1="213.6277"
              y1="1275.8192"
              x2="214.8114"
              y2="1275.8192"
              gradientTransform="matrix(1.125000e-06 -24.9329 24.9329 1.125000e-06 -31579.1211 5509.0464)">
              <stop offset="0" style="stop-color: #93231e" />
              <stop offset="1" style="stop-color: #e73151" />
            </linearGradient>
            <path
              id="path442"
              style="fill: url(#path442_00000162344121755194096810000014518339513943064753_)"
              d="M220.1,164.7l10.2,18
						h11l-0.4-29.5C240.9,153.2,220.1,164.7,220.1,164.7z" />
          </g>
        </g>
      </g>
      <g id="g446">
        <g id="g452">
          <g id="g454">
            <linearGradient
              id="path466_00000045597876023360259300000007971776635111572668_"
              gradientUnits="userSpaceOnUse"
              x1="234.2011"
              y1="1276.802"
              x2="235.3849"
              y2="1276.802"
              gradientTransform="matrix(-44.4873 -77.0543 77.0543 -44.4873 -87679.6094 75097.3906)">
              <stop offset="0" style="stop-color: #e24c89" />
              <stop offset="0.5093" style="stop-color: #e73151" />
              <stop offset="0.5093" style="stop-color: #e73151" />
              <stop offset="1" style="stop-color: #c92358" />
            </linearGradient>
            <path
              id="path466"
              style="fill: url(#path466_00000045597876023360259300000007971776635111572668_)"
              d="M241,153.2v93.4H290
						l24.6-16.7l-67.1-79.9C247.5,149.9,241,153.2,241,153.2z" />
          </g>
        </g>
      </g>
      <g id="g470">
        <g id="g476">
          <g id="g478">
            <linearGradient
              id="path492_00000159468848969238640700000010224286667537849483_"
              gradientUnits="userSpaceOnUse"
              x1="237.988"
              y1="1290.1028"
              x2="239.1717"
              y2="1290.1028"
              gradientTransform="matrix(80.249 7.000000e-06 -7.000000e-06 80.249 -18850.8418 -103339.6094)">
              <stop offset="0" style="stop-color: #93231e" />
              <stop offset="0.6417" style="stop-color: #c92358" />
              <stop offset="0.6417" style="stop-color: #c92358" />
              <stop offset="0.9909" style="stop-color: #e6332d" />
              <stop offset="1" style="stop-color: #e6332d" />
            </linearGradient>
            <path
              id="path492"
              style="fill: url(#path492_00000159468848969238640700000010224286667537849483_)"
              d="M314.6,229.8l27.9-45
						l-95-34.9L314.6,229.8z" />
          </g>
        </g>
      </g>
      <g id="g496">
        <g id="g502">
          <g id="g504">
            <linearGradient
              id="path512_00000078043012654616896880000014501960420873751696_"
              gradientUnits="userSpaceOnUse"
              x1="242.2182"
              y1="1271.7095"
              x2="243.4019"
              y2="1271.7095"
              gradientTransform="matrix(-63.9514 0 0 -63.9514 15731.2246 81511.9688)">
              <stop offset="0" style="stop-color: #93231e" />
              <stop offset="1" style="stop-color: #c92358" />
            </linearGradient>
            <path
              id="path512"
              style="fill: url(#path512_00000078043012654616896880000014501960420873751696_)"
              d="M171.5,182.7l-6.2,3.3
						l75.7-3.3H171.5z" />
          </g>
        </g>
      </g>
      <g id="g522" transform="translate(160.6655,382.002)">
        <path
          id="path524"
          class="st24"
          d="M138-333.8c0,2.2,1.8,4,4,4c2.2,0,3.9-1.8,3.9-4c0-2.2-1.8-4-3.9-4
				C139.7-337.8,138-336,138-333.8" />
      </g>
      <g id="g528">
        <g id="g534">
          <g id="g536">
            <linearGradient
              id="path548_00000123418862649478991060000011058264367656060547_"
              gradientUnits="userSpaceOnUse"
              x1="216.1429"
              y1="1297.0383"
              x2="217.3266"
              y2="1297.0383"
              gradientTransform="matrix(17.2236 -17.2236 17.2236 17.2236 -25804.6738 -18340.6465)">
              <stop offset="0" style="stop-color: #c92358" />
              <stop offset="0.5984" style="stop-color: #e73151" />
              <stop offset="0.5984" style="stop-color: #e73151" />
              <stop offset="1" style="stop-color: #e73151" />
            </linearGradient>
            <path
              id="path548"
              style="fill: url(#path548_00000123418862649478991060000011058264367656060547_)"
              d="M248.6,246.4l7.4,28.1
						l7.8,5.1l18.8,11l-14-44.2H248.6L248.6,246.4z" />
          </g>
        </g>
      </g>
      <g id="g552">
        <g id="g558">
          <g id="g560">
            <linearGradient
              id="path568_00000158732828488547468130000000680799791359243181_"
              gradientUnits="userSpaceOnUse"
              x1="223.5189"
              y1="1264.165"
              x2="224.7026"
              y2="1264.165"
              gradientTransform="matrix(24.6794 -14.2487 -14.2487 -24.6794 12744.0586 34679.0469)">
              <stop offset="0" style="stop-color: #e73151" />
              <stop offset="1" style="stop-color: #d22527" />
            </linearGradient>
            <path
              id="path568"
              style="fill: url(#path568_00000158732828488547468130000000680799791359243181_)"
              d="M245,290.6h38.9
						L256,274.5C256,274.5,245,290.6,245,290.6z" />
          </g>
        </g>
      </g>
      <g id="g578">
        <g id="g580"></g>
        <g id="g598">
          <g>
            <defs>
              <rect
                id="SVGID_00000160158620661698355540000000413729842391575473_"
                x="268.7"
                y="246.5"
                width="14"
                height="9.2" />
            </defs>
            <clipPath id="SVGID_00000170263749108281235730000004057618715377538966_">
              <use xlink:href="#SVGID_00000160158620661698355540000000413729842391575473_" style="overflow: visible" />
            </clipPath>
            <g id="g600" style="opacity: 0.8; clip-path: url(#SVGID_00000170263749108281235730000004057618715377538966_)">
              <g id="g602">
                <g id="g604">
                  <g id="g606">
                    <g id="g608">
                      <linearGradient
                        id="path610_00000020378399106265751130000016668836930653604753_"
                        gradientUnits="userSpaceOnUse"
                        x1="195.817"
                        y1="1213.2535"
                        x2="197.0008"
                        y2="1213.2535"
                        gradientTransform="matrix(-5.8963 -5.8963 5.8963 -5.8963 -5721.5112 8559.8945)">
                        <stop offset="0" style="stop-color: #bc2222" />
                        <stop offset="0.8931" style="stop-color: #93231e" />
                        <stop offset="1" style="stop-color: #93231e" />
                      </linearGradient>
                      <path
                        id="path610"
                        style="fill: url(#path610_00000020378399106265751130000016668836930653604753_)"
                        d="M282.7,246.5h-14
											l2.9,9.2L282.7,246.5z" />
                    </g>
                  </g>
                </g>
              </g>
            </g>
          </g>
        </g>
      </g>
    </g>
  </g>
</svg>
