<svg width="32" height="32" viewBox="0 0 32 32" fill="none" xmlns="http://www.w3.org/2000/svg">
<path d="M17.375 10.8789C19.724 11.194 21.6862 12.2539 23.2617 14.0586C24.8372 15.8633 25.625 17.9688 25.625 20.375H6.375C6.375 17.9688 7.16276 15.8633 8.73828 14.0586C10.3138 12.2539 12.276 11.194 14.625 10.8789V10.0625H13.9375C13.737 10.0625 13.5651 10.0052 13.4219 9.89062C13.3073 9.7474 13.25 9.57552 13.25 9.375V8.6875C13.25 8.48698 13.3073 8.32943 13.4219 8.21484C13.5651 8.07161 13.737 8 13.9375 8H18.0625C18.263 8 18.4206 8.07161 18.5352 8.21484C18.6784 8.32943 18.75 8.48698 18.75 8.6875V9.375C18.75 9.57552 18.6784 9.7474 18.5352 9.89062C18.4206 10.0052 18.263 10.0625 18.0625 10.0625H17.375V10.8789ZM26.3125 21.75C26.513 21.75 26.6706 21.8216 26.7852 21.9648C26.9284 22.0794 27 22.237 27 22.4375V23.8125C27 24.013 26.9284 24.1849 26.7852 24.3281C26.6706 24.4427 26.513 24.5 26.3125 24.5H5.6875C5.48698 24.5 5.3151 24.4427 5.17188 24.3281C5.05729 24.1849 5 24.013 5 23.8125V22.4375C5 22.237 5.05729 22.0794 5.17188 21.9648C5.3151 21.8216 5.48698 21.75 5.6875 21.75H26.3125Z" fill="black"/>
</svg>
