<svg width="22" height="22" viewBox="0 0 22 22" fill="none" xmlns="http://www.w3.org/2000/svg">
<path fill-rule="evenodd" clip-rule="evenodd" d="M11 2C12.6055 2.0145 14.1397 2.68885 15.265 3.87463C16.3902 5.06042 17.0142 6.66048 16.9998 8.32269C16.9998 11.8208 12.1242 19 11 19C9.87584 19 5.00025 11.8208 5.00025 8.32269C4.98578 6.66048 5.60982 5.06042 6.73504 3.87463C7.86026 2.68885 9.39446 2.0145 11 2ZM10.9999 5.55695C12.0865 5.53677 13.0768 6.19906 13.5059 7.23274C13.9349 8.26643 13.7173 9.4661 12.9553 10.2683C12.1933 11.0704 11.0384 11.3157 10.0329 10.8888C9.02744 10.4619 8.37129 9.44779 8.37266 8.32272C8.36215 6.80858 9.53743 5.57133 10.9999 5.55695Z" fill="#333333"/>
</svg>
