<svg width="40" height="40" viewBox="0 0 40 40" fill="none" xmlns="http://www.w3.org/2000/svg">
<path d="M27.0279 11.9135C27.5486 11.3928 28.2873 11.2873 28.6778 11.6778C29.0683 12.0683 28.9628 12.807 28.4421 13.3277L13.3572 28.4127C12.8365 28.9334 12.0978 29.0389 11.7072 28.6484C11.3167 28.2578 11.4222 27.5192 11.9429 26.9985L27.0279 11.9135Z" fill="#333333"/>
<path d="M28.0279 27.0279C28.5486 27.5486 28.6541 28.2873 28.2636 28.6778C27.8731 29.0683 27.1344 28.9628 26.6137 28.4421L11.5287 13.3572C11.008 12.8365 10.9025 12.0978 11.293 11.7072C11.6836 11.3167 12.4223 11.4222 12.943 11.9429L28.0279 27.0279Z" fill="#333333"/>
</svg>
