<svg width="12" height="11" viewBox="0 0 12 11" fill="none" xmlns="http://www.w3.org/2000/svg">
<path d="M11.0992 0.367228C10.7086 -0.0232964 10.0755 -0.0232962 9.68495 0.367228L6.14941 3.90276L2.61388 0.367228C2.22336 -0.0232967 1.59019 -0.0232967 1.19967 0.367228C0.809143 0.757752 0.809143 1.39092 1.19967 1.78144L4.7352 5.31698L1.19967 8.85251C0.809143 9.24303 0.809142 9.8762 1.19967 10.2667C1.59019 10.6572 2.22336 10.6572 2.61388 10.2667L6.14941 6.73119L9.68495 10.2667C10.0755 10.6572 10.7086 10.6572 11.0992 10.2667C11.4897 9.8762 11.4897 9.24303 11.0992 8.85251L7.56363 5.31698L11.0992 1.78144C11.4897 1.39092 11.4897 0.757752 11.0992 0.367228Z" fill="white"/>
</svg>
