<svg width="32" height="32" viewBox="0 0 32 32" fill="none" xmlns="http://www.w3.org/2000/svg">
<rect x="11" y="10" width="2" height="2" fill="black"/>
<path fill-rule="evenodd" clip-rule="evenodd" d="M11 11C8.23858 11 6 13.2386 6 16V23C6 26.3137 8.68629 29 12 29C15.3137 29 18 26.3137 18 23V16C18 13.2386 15.7614 11 13 11H11ZM12 14.5C11.4477 14.5 11 14.9477 11 15.5V18.5C11 19.0523 11.4477 19.5 12 19.5C12.5523 19.5 13 19.0523 13 18.5V15.5C13 14.9477 12.5523 14.5 12 14.5Z" fill="black"/>
<path d="M12 10.5C12 9.33333 12 9.7 12 8.5C12 7 13 3 16.9999 3C20.9998 3 21.9999 7 21.9999 9.5C21.9999 12 21.9999 11 21.9999 12.5C21.9999 14 22.4999 17 24.9999 17C27.4999 17 27.9999 14.5 27.9999 12.5" stroke="black"/>
</svg>
