<svg width="22" height="22" viewBox="0 0 22 22" fill="none" xmlns="http://www.w3.org/2000/svg">
<path fill-rule="evenodd" clip-rule="evenodd" d="M3.5 4H19.5C20.3284 4 21 4.67157 21 5.5V16.0714C21 16.8998 20.3284 17.5714 19.5 17.5714H3.5C2.67157 17.5714 2 16.8998 2 16.0714V5.5C2 4.67157 2.67157 4 3.5 4ZM2.91716 6.02444C3.04832 5.78143 3.35163 5.69075 3.59464 5.8219L11.2431 9.94966C11.5474 10.1138 11.9148 10.1093 12.2149 9.93753L19.3945 5.82797C19.6341 5.69079 19.9396 5.77387 20.0768 6.01353C20.214 6.25318 20.1309 6.55867 19.8913 6.69585L12.7116 10.8054C12.1116 11.1489 11.3767 11.1581 10.7682 10.8297L3.11971 6.70192C2.8767 6.57077 2.78602 6.26745 2.91716 6.02444Z" fill="#333333"/>
</svg>
