<svg width="32" height="32" viewBox="0 0 32 32" fill="none" xmlns="http://www.w3.org/2000/svg">
<path d="M18.75 19.0625V17H27V23.1875C27 23.7318 26.7852 24.2044 26.3555 24.6055C25.9544 25.0352 25.4818 25.25 24.9375 25.25H7.0625C6.51823 25.25 6.03125 25.0352 5.60156 24.6055C5.20052 24.2044 5 23.7318 5 23.1875V17H13.25V19.0625C13.25 19.263 13.3073 19.4349 13.4219 19.5781C13.5651 19.6927 13.737 19.75 13.9375 19.75H18.0625C18.263 19.75 18.4206 19.6927 18.5352 19.5781C18.6784 19.4349 18.75 19.263 18.75 19.0625ZM24.9375 10.125C25.4818 10.125 25.9544 10.3398 26.3555 10.7695C26.7852 11.1706 27 11.6432 27 12.1875V15.625H5V12.1875C5 11.6432 5.20052 11.1706 5.60156 10.7695C6.03125 10.3398 6.51823 10.125 7.0625 10.125H10.5V8.0625C10.5 7.51823 10.7005 7.04557 11.1016 6.64453C11.5312 6.21484 12.0182 6 12.5625 6H19.4375C19.9818 6 20.4544 6.21484 20.8555 6.64453C21.2852 7.04557 21.5 7.51823 21.5 8.0625V10.125H24.9375ZM18.75 10.125V8.75H13.25V10.125H18.75Z" fill="black"/>
</svg>
