<svg width="22" height="22" viewBox="0 0 22 22" fill="none" xmlns="http://www.w3.org/2000/svg">
<rect x="6.01176" y="2.61237" width="1" height="17" rx="0.5" transform="rotate(15 6.01176 2.61237)" stroke="white"/>
<rect x="6.90824" y="6.99372" width="1" height="1" transform="rotate(15 6.90824 6.99372)" stroke="white"/>
<rect x="5.87308" y="10.8574" width="1" height="1" transform="rotate(15 5.87308 10.8574)" stroke="white"/>
<rect x="10.7715" y="8.029" width="1" height="1" transform="rotate(15 10.7715 8.029)" stroke="white"/>
<rect x="9.73637" y="11.8926" width="1" height="1" transform="rotate(15 9.73637 11.8926)" stroke="white"/>
<rect x="14.6348" y="9.06428" width="1" height="1" transform="rotate(15 14.6348 9.06428)" stroke="white"/>
<rect x="13.5996" y="12.9279" width="1" height="1" transform="rotate(15 13.5996 12.9279)" stroke="white"/>
<rect x="8.3223" y="9.44318" width="1" height="1" transform="rotate(15 8.3223 9.44318)" stroke="white"/>
<rect x="12.1856" y="10.4785" width="1" height="1" transform="rotate(15 12.1856 10.4785)" stroke="white"/>
<rect x="16.0489" y="11.5137" width="1" height="1" transform="rotate(15 16.0489 11.5137)" stroke="white"/>
<rect x="9.35746" y="5.57941" width="1" height="1" transform="rotate(15 9.35746 5.57941)" stroke="white"/>
<rect x="13.2207" y="6.61469" width="1" height="1" transform="rotate(15 13.2207 6.61469)" stroke="white"/>
<rect x="17.086" y="7.64997" width="1" height="1" transform="rotate(15 17.086 7.64997)" stroke="white"/>
<rect x="6.71879" y="3.8371" width="13" height="9" transform="rotate(15 6.71879 3.8371)" stroke="white"/>
</svg>
