<svg width="32" height="32" viewBox="0 0 32 32" fill="none" xmlns="http://www.w3.org/2000/svg">
<path d="M6.375 26.75V24H25.625V26.75H6.375ZM22.875 15.75C24.0208 15.75 24.9948 16.151 25.7969 16.9531C26.599 17.7552 27 18.7292 27 19.875V21.25C27 21.6224 26.8568 21.9518 26.5703 22.2383C26.3125 22.4961 25.9974 22.625 25.625 22.625H6.375C6.0026 22.625 5.67318 22.4961 5.38672 22.2383C5.12891 21.9518 5 21.6224 5 21.25V19.875C5 18.7292 5.40104 17.7552 6.20312 16.9531C7.00521 16.151 7.97917 15.75 9.125 15.75H12.0039C12.3477 15.75 12.6341 15.6354 12.8633 15.4062C13.1211 15.1484 13.25 14.8477 13.25 14.5039V14.4609C13.25 13.3151 12.9206 12.026 12.2617 10.5938C12.0039 10.0495 11.875 9.47656 11.875 8.875C11.875 7.61458 12.362 6.56901 13.3359 5.73828C14.3099 4.90755 15.4414 4.60677 16.7305 4.83594C17.5612 4.97917 18.2773 5.36589 18.8789 5.99609C19.5091 6.59766 19.9102 7.3138 20.082 8.14453C20.2253 9.0612 20.082 9.92057 19.6523 10.7227C19.0508 11.9258 18.75 13.043 18.75 14.0742V14.5039C18.75 14.8477 18.8646 15.1484 19.0938 15.4062C19.3516 15.6354 19.6523 15.75 19.9961 15.75H22.875Z" fill="black"/>
</svg>
