<svg width="49" height="48" viewBox="0 0 49 48" fill="none" xmlns="http://www.w3.org/2000/svg">
<path d="M24.2664 45.7307L24.9731 46.391L25.6566 45.7067C27.6947 43.6665 29.6963 41.8435 31.5902 40.1188L31.7691 39.9559C38.0892 34.201 43.3939 29.3707 43.3939 21.463C43.3939 11.2671 35.1369 3 24.9491 3C14.7614 3 6.50439 11.2671 6.50439 21.463C6.50439 25.615 7.58413 28.6957 9.68328 31.6153C11.7242 34.454 14.7328 37.1381 18.5168 40.514L18.5946 40.5834C20.3118 42.1155 22.2016 43.8015 24.2664 45.7307Z" fill="#47C562" stroke="white" stroke-width="2"/>
<path d="M24.9487 31.4971C30.4716 31.4971 34.9487 27.0199 34.9487 21.4971C34.9487 15.9742 30.4716 11.4971 24.9487 11.4971C19.4259 11.4971 14.9487 15.9742 14.9487 21.4971C14.9487 27.0199 19.4259 31.4971 24.9487 31.4971Z" fill="white"/>
<path d="M20.1143 21.9233L24.0031 25.0483L30.1143 18.1733" stroke="#47C562" stroke-width="2" stroke-linecap="round" stroke-linejoin="round"/>
</svg>
