<svg width="40" height="46" fill="none" xmlns="http://www.w3.org/2000/svg"><path d="M19.72 43.73l.706.66.683-.683c2.038-2.04 4.04-3.864 5.934-5.588l.179-.163c6.32-5.755 11.624-10.585 11.624-18.493C38.846 9.267 30.59 1 20.402 1 10.214 1 1.957 9.267 1.957 19.463c0 4.152 1.08 7.233 3.179 10.152 2.04 2.84 5.05 5.523 8.833 8.899l.078.07c1.717 1.531 3.607 3.217 5.672 5.147zm6.508-24.267a5.83 5.83 0 01-5.826 5.833 5.83 5.83 0 01-5.826-5.833 5.83 5.83 0 015.826-5.833 5.83 5.83 0 015.826 5.833z" fill="#4C4D53" stroke="#fff" stroke-width="2"/></svg>