<svg width="64" height="81" viewBox="0 0 64 81" fill="none" xmlns="http://www.w3.org/2000/svg">
<path d="M4.00001 78.0479L4.00001 79.0479H5.00001H27H28V78.0479V62.1437C28 60.4868 29.3432 59.1437 31 59.1437H33C34.6569 59.1437 36 60.4868 36 62.1437V78.0479V79.0479H37H56V79.1437H57H59H60V78.1437L60 27.8479C60 26.1928 58.9807 24.7087 57.4359 24.1145L47.2821 20.2092C46.8824 20.0555 46.5426 19.7775 46.3127 19.4163L46.2589 19.3318L46.1895 19.2597L35.2297 7.87371C33.6783 5.56778 30.2938 5.51412 28.6701 7.76967L16.8041 19.335L16.7323 19.405L16.6759 19.4878C16.4574 19.8082 16.1506 20.0581 15.7927 20.2073L6.46154 24.0952C4.97095 24.7163 4 26.1727 4 27.7875L4.00001 78.0479Z" fill="#F2F2F2" stroke="white" stroke-width="2"/>
<path fill-rule="evenodd" clip-rule="evenodd" d="M5 27.5479C5 26.3368 5.72821 25.2445 6.84615 24.7787L16.4499 20.7771C16.8131 20.6258 17.143 20.4045 17.4207 20.1258L29.8008 7.70625C31.0017 6.50144 32.9632 6.53525 34.1219 7.78072L45.5277 20.0402C45.8385 20.3743 46.2213 20.633 46.6472 20.7968L57.0769 24.8082C58.2355 25.2539 59 26.367 59 27.6083V78.1436L37 78.1437V62.1437C37 59.9345 35.2091 58.1437 33 58.1437H31C28.7909 58.1437 27 59.9345 27 62.1437V78.1437L5 78.1436V27.5479ZM11 60.1437C11 57.9345 12.7909 56.1437 15 56.1437H17C19.2091 56.1437 21 57.9345 21 60.1437V74.1437H11V60.1437ZM43 60.1437C43 57.9345 44.7909 56.1437 47 56.1437H49C51.2091 56.1437 53 57.9345 53 60.1437V74.1437H43V60.1437ZM11 33.9521C11 31.743 12.7909 29.9521 15 29.9521H17C19.2091 29.9521 21 31.743 21 33.9521V47.9521H11V33.9521ZM27 34.0479C27 31.8387 28.7909 30.0479 31 30.0479H33C35.2091 30.0479 37 31.8387 37 34.0479V48.0479H27V34.0479ZM43 34.0479C43 31.8387 44.7909 30.0479 47 30.0479H49C51.2091 30.0479 53 31.8387 53 34.0479V48.0479H43V34.0479ZM32 23C34.2091 23 36 21.2091 36 19C36 16.7909 34.2091 15 32 15C29.7909 15 28 16.7909 28 19C28 21.2091 29.7909 23 32 23Z" fill="#8B999B"/>
<line x1="48" y1="26.0479" x2="48" y2="50.0479" stroke="#8B999B"/>
<line x1="48" y1="52.1437" x2="48" y2="76.1437" stroke="#8B999B"/>
<line x1="32" y1="26.0479" x2="32" y2="50.0479" stroke="#8B999B"/>
<line x1="16" y1="29.9521" x2="16" y2="47.9521" stroke="#8B999B"/>
<line x1="21" y1="39.4521" x2="11" y2="39.4521" stroke="#8B999B"/>
<line x1="21" y1="65.5479" x2="11" y2="65.5479" stroke="#8B999B"/>
<line x1="39" y1="39.5479" x2="23" y2="39.5479" stroke="#8B999B"/>
<line x1="55" y1="39.5479" x2="39" y2="39.5479" stroke="#8B999B"/>
<line x1="55" y1="65.6436" x2="39" y2="65.6436" stroke="#8B999B"/>
<line x1="16" y1="56.0479" x2="16" y2="74.0479" stroke="#8B999B"/>
</svg>
