<svg width="22" height="22" viewBox="0 0 22 22" fill="none" xmlns="http://www.w3.org/2000/svg">
<path fill-rule="evenodd" clip-rule="evenodd" d="M11 7.66675C12.1 7.66675 13 6.76675 13 5.66675C13 4.56675 12.1 3.66675 11 3.66675C9.9 3.66675 9 4.56675 9 5.66675C9 6.76675 9.9 7.66675 11 7.66675ZM11 9.66675C9.9 9.66675 9 10.5667 9 11.6667C9 12.7667 9.9 13.6667 11 13.6667C12.1 13.6667 13 12.7667 13 11.6667C13 10.5667 12.1 9.66675 11 9.66675ZM9 17.6667C9 16.5667 9.9 15.6667 11 15.6667C12.1 15.6667 13 16.5667 13 17.6667C13 18.7667 12.1 19.6667 11 19.6667C9.9 19.6667 9 18.7667 9 17.6667Z" fill="#348899"/>
</svg>
