<svg width="22" height="22" viewBox="0 0 22 22" fill="none" xmlns="http://www.w3.org/2000/svg">
<path fill-rule="evenodd" clip-rule="evenodd" d="M1.55556 5C1.24873 5 1 5.24873 1 5.55556V14.4444C1 14.7513 1.24873 15 1.55556 15H20.4444C20.7513 15 21 14.7513 21 14.4444V5.55556C21 5.24873 20.7513 5 20.4444 5H1.55556ZM4.77222 8.76388C4.78333 8.77499 4.79722 8.78055 4.81389 8.78055H4.91667C4.93333 8.78055 4.94722 8.77499 4.95833 8.76388C4.96944 8.75277 4.97683 8.73888 4.98055 8.72221L5.03055 8.3861H5.43889L5.38889 8.72221C5.38705 8.73888 5.39167 8.75277 5.40278 8.76388C5.41389 8.77499 5.42778 8.78055 5.44444 8.78055H5.54722C5.56389 8.78055 5.57778 8.77499 5.58889 8.76388C5.6 8.75277 5.60739 8.73888 5.61111 8.72221L5.66111 8.3861H5.99444C6.01294 8.3861 6.02778 8.38055 6.03889 8.36943C6.05183 8.35832 6.05833 8.34349 6.05833 8.32499V8.23055C6.05833 8.21205 6.05183 8.19721 6.03889 8.1861C6.02778 8.17499 6.01294 8.16943 5.99444 8.16943H5.69444L5.76667 7.68055H6.06667C6.08517 7.68055 6.1 7.67499 6.11111 7.66388C6.12406 7.65277 6.13056 7.63793 6.13056 7.61943V7.52499C6.13056 7.50649 6.12406 7.49166 6.11111 7.48055C6.1 7.46943 6.08517 7.46388 6.06667 7.46388H5.79722L5.84722 7.12777C5.84905 7.1111 5.84444 7.09721 5.83333 7.0861C5.82222 7.07499 5.80833 7.06943 5.79167 7.06943H5.68889C5.67222 7.06943 5.65833 7.07499 5.64722 7.0861C5.63794 7.09721 5.6315 7.1111 5.62778 7.12777L5.57778 7.46388H5.16667L5.21667 7.12777C5.2185 7.1111 5.21389 7.09721 5.20278 7.0861C5.19167 7.07499 5.17778 7.06943 5.16111 7.06943H5.05833C5.04167 7.06943 5.02778 7.07499 5.01667 7.0861C5.00739 7.09721 5.00094 7.1111 4.99722 7.12777L4.94722 7.46388H4.60555C4.58705 7.46388 4.57222 7.46943 4.56111 7.48055C4.55 7.49166 4.54444 7.50649 4.54444 7.52499V7.61943C4.54444 7.63793 4.55 7.65277 4.56111 7.66388C4.57222 7.67499 4.58705 7.68055 4.60555 7.68055H4.91389L4.84167 8.16943H4.53333C4.51483 8.16943 4.5 8.17499 4.48889 8.1861C4.47778 8.19721 4.47222 8.21205 4.47222 8.23055V8.32499C4.47222 8.34349 4.47778 8.35832 4.48889 8.36943C4.5 8.38055 4.51483 8.3861 4.53333 8.3861H4.80833L4.75833 8.72221C4.7565 8.73888 4.76111 8.75277 4.77222 8.76388ZM6.34239 8.87221C6.3535 8.88332 6.3665 8.88888 6.38128 8.88888H6.52294C6.5415 8.88888 6.55628 8.88427 6.56739 8.87499C6.58039 8.86388 6.58872 8.85277 6.59239 8.84166L6.74517 8.44721H7.65628L7.80905 8.84166C7.81278 8.85277 7.82017 8.86388 7.83128 8.87499C7.84239 8.88427 7.85817 8.88888 7.8785 8.88888H8.02017C8.035 8.88888 8.04794 8.88332 8.05906 8.87221C8.07017 8.8611 8.07572 8.84816 8.07572 8.83332L8.07017 8.80277L7.38406 7.00555C7.36928 6.96482 7.33961 6.94443 7.29517 6.94443H7.10628C7.06183 6.94443 7.03222 6.96482 7.01739 7.00555L6.3285 8.80277C6.32667 8.80832 6.32572 8.81849 6.32572 8.83332C6.32572 8.84816 6.33128 8.8611 6.34239 8.87221ZM8.38939 8.87221C8.40239 8.88332 8.41811 8.88888 8.43661 8.88888H8.58383C8.60239 8.88888 8.61811 8.88332 8.63106 8.87221C8.64406 8.85927 8.6505 8.84349 8.6505 8.82499V8.13055H9.14217C9.35328 8.13055 9.51811 8.08054 9.63661 7.98054C9.757 7.87871 9.81717 7.73149 9.81717 7.53888C9.81717 7.34627 9.757 7.19904 9.63661 7.09721C9.51628 6.99538 9.35144 6.94443 9.14217 6.94443H8.43661C8.41811 6.94443 8.40239 6.95093 8.38939 6.96388C8.37828 6.97499 8.37272 6.99071 8.37272 7.0111V8.82499C8.37272 8.84349 8.37828 8.85927 8.38939 8.87221ZM10.5966 8.87221C10.6096 8.88332 10.6253 8.88888 10.6438 8.88888H10.7883C10.8068 8.88888 10.8226 8.88332 10.8355 8.87221C10.8485 8.85927 10.8549 8.84349 10.8549 8.82499V7.19166H11.3855C11.4041 7.19166 11.4198 7.1861 11.4327 7.17499C11.4457 7.16205 11.4522 7.14627 11.4522 7.12777V7.0111C11.4522 6.99071 11.4457 6.97499 11.4327 6.96388C11.4216 6.95093 11.4059 6.94443 11.3855 6.94443H10.0466C10.0281 6.94443 10.0124 6.95093 9.99939 6.96388C9.98828 6.97682 9.98272 6.9926 9.98272 7.0111V7.12777C9.98272 7.14627 9.98828 7.16205 9.99939 7.17499C10.0124 7.1861 10.0281 7.19166 10.0466 7.19166H10.5799V8.82499C10.5799 8.84349 10.5855 8.85927 10.5966 8.87221ZM11.7803 8.87221C11.7932 8.88332 11.8089 8.88888 11.8275 8.88888H11.9747C11.9932 8.88888 12.0081 8.88332 12.0192 8.87221C12.0321 8.85927 12.0386 8.84349 12.0386 8.82499V7.00832C12.0386 6.98982 12.0321 6.97499 12.0192 6.96388C12.0081 6.95093 11.9932 6.94443 11.9747 6.94443H11.8275C11.8089 6.94443 11.7932 6.95093 11.7803 6.96388C11.7692 6.97499 11.7636 6.98982 11.7636 7.00832V8.82499C11.7636 8.84349 11.7692 8.85927 11.7803 8.87221ZM12.6564 8.71666C12.7861 8.84999 12.975 8.91666 13.2231 8.91666C13.3879 8.91666 13.5278 8.88793 13.6426 8.83055C13.7574 8.77127 13.8444 8.69443 13.9037 8.59999C13.9629 8.50554 13.9953 8.40371 14.0009 8.29443C14.0028 8.27777 13.9972 8.26482 13.9842 8.25555C13.9731 8.24443 13.9592 8.23888 13.9426 8.23888H13.7898C13.7713 8.23888 13.7564 8.24349 13.7453 8.25277C13.7342 8.26204 13.7259 8.27871 13.7203 8.30277C13.6907 8.44166 13.6342 8.53982 13.5509 8.59721C13.4694 8.65277 13.3602 8.68055 13.2231 8.68055C12.9046 8.68055 12.7398 8.50371 12.7287 8.14999C12.7268 8.09627 12.7259 8.0176 12.7259 7.91388C12.7259 7.81016 12.7268 7.73332 12.7287 7.68332C12.7398 7.3296 12.9046 7.15277 13.2231 7.15277C13.3602 7.15277 13.4694 7.18149 13.5509 7.23888C13.6324 7.29443 13.6889 7.39166 13.7203 7.53055C13.7296 7.57316 13.7528 7.59443 13.7898 7.59443H13.9426C13.9574 7.59443 13.9703 7.58982 13.9814 7.58055C13.9944 7.56943 14.0009 7.55649 14.0009 7.54166V7.5361C13.9953 7.42871 13.9629 7.32777 13.9037 7.23332C13.8444 7.13888 13.7574 7.06293 13.6426 7.00555C13.5278 6.94627 13.3879 6.91666 13.2231 6.91666C12.9768 6.91666 12.7889 6.98427 12.6592 7.11943C12.5296 7.25277 12.4602 7.4361 12.4509 7.66943C12.4491 7.72127 12.4481 7.8046 12.4481 7.91943C12.4481 8.03238 12.4491 8.11388 12.4509 8.16388C12.4602 8.39904 12.5287 8.58332 12.6564 8.71666ZM4.25 11C4.11193 11 4 11.1119 4 11.25C4 11.3881 4.11193 11.5 4.25 11.5H12.7259C12.864 11.5 12.9759 11.3881 12.9759 11.25C12.9759 11.1119 12.864 11 12.7259 11H4.25ZM16.6144 11.9418H16.0068C16.0133 12.1185 16.0594 12.249 16.1451 12.3333C16.2321 12.4177 16.3749 12.4598 16.5735 12.4598C16.702 12.4598 16.8163 12.4398 16.9163 12.3996L17 12.9398C16.8273 12.9799 16.6566 13 16.4878 13C16.1373 13 15.8575 12.9063 15.6485 12.7189C15.4408 12.5315 15.3317 12.2724 15.3213 11.9418H15V11.6205H15.3213V11.3755H15V11.0562H15.3272C15.3518 10.7242 15.4726 10.4652 15.6894 10.2791C15.9062 10.093 16.1925 10 16.5482 10C16.6858 10 16.8364 10.0207 17 10.0622L16.9163 10.6044C16.815 10.5629 16.7066 10.5422 16.591 10.5422C16.4119 10.5422 16.2749 10.5843 16.1801 10.6687C16.0854 10.7517 16.0295 10.8809 16.0127 11.0562H16.6144V11.3755H16.0068V11.6205H16.6144V11.9418ZM9.12828 7.89721C9.2635 7.89721 9.36533 7.86666 9.43383 7.80554C9.50422 7.74443 9.53939 7.65554 9.53939 7.53888C9.53939 7.42221 9.50517 7.33332 9.43661 7.27221C9.36811 7.20927 9.26533 7.17777 9.12828 7.17777H8.64772V7.89721H9.12828ZM7.20072 7.22221L7.57572 8.20832H6.82572L7.20072 7.22221ZM5.54444 7.68055L5.47222 8.16943H5.06389L5.13611 7.68055H5.54444ZM19.75 6C19.6119 6 19.5 6.11193 19.5 6.25V6.75C19.5 6.88807 19.6119 7 19.75 7C19.8881 7 20 6.88807 20 6.75V6.25C20 6.11193 19.8881 6 19.75 6ZM19.5 8.25C19.5 8.11193 19.6119 8 19.75 8C19.8881 8 20 8.11193 20 8.25V10.75C20 10.8881 19.8881 11 19.75 11C19.6119 11 19.5 10.8881 19.5 10.75V8.25ZM19.75 12C19.6119 12 19.5 12.1119 19.5 12.25V13.75C19.5 13.8881 19.6119 14 19.75 14C19.8881 14 20 13.8881 20 13.75V12.25C20 12.1119 19.8881 12 19.75 12Z" fill="#333333"/>
</svg>
