<svg width="22" height="22" viewBox="0 0 22 22" fill="none" xmlns="http://www.w3.org/2000/svg">
<path d="M13.0474 10.437C14.2168 9.73893 15 8.46093 15 7C15 4.79086 13.2091 3 11 3C8.79086 3 7 4.79086 7 7C7 8.46093 7.7832 9.73893 8.95263 10.437C7.21207 11.2192 6 12.9681 6 15V18H16V15C16 12.9681 14.7879 11.2192 13.0474 10.437Z" fill="#333333"/>
<path fill-rule="evenodd" clip-rule="evenodd" d="M16.917 14H21V11.8C21 10.3099 20.1516 9.02743 18.9332 8.45382C19.7518 7.94188 20.3 7.00468 20.3 5.93333C20.3 4.3133 19.0464 3 17.5 3C16.542 3 15.6963 3.50407 15.1915 4.27286C15.7028 5.05718 16 5.99389 16 7C16 7.44599 15.9416 7.87827 15.832 8.28963C15.9075 8.34834 15.9858 8.40316 16.0668 8.45382C15.9493 8.50916 15.8352 8.57108 15.725 8.63916C15.5088 9.26223 15.173 9.82915 14.7453 10.3124C15.8722 11.214 16.6677 12.514 16.917 14ZM14.9929 7.24086C14.9976 7.16118 15 7.08087 15 7C15 6.48461 14.9025 5.99199 14.725 5.53957C14.7085 5.66836 14.7 5.79981 14.7 5.93333C14.7 6.40316 14.8054 6.84718 14.9929 7.24086ZM15.9 14H14V11.8C14 11.5447 14.0249 11.2955 14.0723 11.055C14.9949 11.7745 15.6585 12.8106 15.9 14Z" fill="#333333"/>
<path fill-rule="evenodd" clip-rule="evenodd" d="M6.80852 4.27286C6.30371 3.50407 5.45804 3 4.5 3C2.9536 3 1.7 4.3133 1.7 5.93333C1.7 7.00468 2.24824 7.94188 3.06684 8.45382C1.84845 9.02743 1 10.3099 1 11.8V14H5.08296C5.33228 12.514 6.12778 11.214 7.25473 10.3124C6.82705 9.82915 6.49117 9.26223 6.27499 8.63916C6.16478 8.57108 6.05069 8.50916 5.93316 8.45382C6.01417 8.40316 6.09253 8.34834 6.16797 8.28963C6.05843 7.87827 6 7.44599 6 7C6 5.99389 6.29717 5.05718 6.80852 4.27286ZM7.9277 11.055C7.0051 11.7745 6.34145 12.8106 6.10002 14H8V11.8C8 11.5447 7.9751 11.2955 7.9277 11.055ZM7.27499 5.53957C7.29148 5.66836 7.3 5.79981 7.3 5.93333C7.3 6.40316 7.19457 6.84718 7.00713 7.24086C7.0024 7.16118 7 7.08087 7 7C7 6.48461 7.09747 5.99199 7.27499 5.53957Z" fill="#333333"/>
</svg>
