<svg width="22" height="22" viewBox="0 0 22 22" fill="none" xmlns="http://www.w3.org/2000/svg">
<rect x="3" y="1" width="4" height="1" fill="#333333"/>
<rect x="3" y="20" width="4" height="1" fill="#333333"/>
<rect x="3" y="21" width="4" height="1" transform="rotate(-90 3 21)" fill="#333333"/>
<rect x="3" y="5" width="4" height="1" transform="rotate(-90 3 5)" fill="#333333"/>
<rect x="18" y="5" width="4" height="1" transform="rotate(-90 18 5)" fill="#333333"/>
<rect x="18" y="21" width="4" height="1" transform="rotate(-90 18 21)" fill="#333333"/>
<rect x="15" y="1" width="4" height="1" fill="#333333"/>
<rect x="15" y="20" width="4" height="1" fill="#333333"/>
<path fill-rule="evenodd" clip-rule="evenodd" d="M6 5C6 4.44772 6.44772 4 7 4H13V6C13 6.55228 13.4477 7 14 7H16V17C16 17.5523 15.5523 18 15 18H7C6.44772 18 6 17.5523 6 17V5ZM8.5 8C8.22386 8 8 8.22386 8 8.5C8 8.77614 8.22386 9 8.5 9H11.5C11.7761 9 12 8.77614 12 8.5C12 8.22386 11.7761 8 11.5 8H8.5ZM8 11.5C8 11.2239 8.22386 11 8.5 11H13.5C13.7761 11 14 11.2239 14 11.5C14 11.7761 13.7761 12 13.5 12H8.5C8.22386 12 8 11.7761 8 11.5ZM8.5 14C8.22386 14 8 14.2239 8 14.5C8 14.7761 8.22386 15 8.5 15H13.5C13.7761 15 14 14.7761 14 14.5C14 14.2239 13.7761 14 13.5 14H8.5Z" fill="#333333"/>
</svg>
