<svg width="32" height="32" viewBox="0 0 32 32" fill="none" xmlns="http://www.w3.org/2000/svg">
<path d="M26.1416 18.2344C26.3994 18.349 26.4854 18.5495 26.3994 18.8359C25.9124 20.3542 25.1247 21.7005 24.0361 22.875C23.8643 23.0755 23.6637 23.1185 23.4346 23.0039L21.5869 21.9297C20.8135 22.5885 19.9398 23.0898 18.9658 23.4336V25.5391C18.9658 25.8255 18.8369 25.9974 18.5791 26.0547C17.0036 26.3984 15.4424 26.3984 13.8955 26.0547C13.609 25.9974 13.4658 25.8255 13.4658 25.5391V23.4336C12.4919 23.0898 11.6182 22.5885 10.8447 21.9297L9.04004 23.0039C8.78223 23.1185 8.56738 23.0755 8.39551 22.875C7.30697 21.7005 6.51921 20.3542 6.03223 18.8359C5.94629 18.5781 6.03223 18.3776 6.29004 18.2344L8.09473 17.1602C8.00879 16.6732 7.96582 16.1719 7.96582 15.6562C7.96582 15.1406 8.00879 14.6393 8.09473 14.1523L6.29004 13.0781C6.03223 12.9635 5.94629 12.763 6.03223 12.4766C6.51921 10.9583 7.30697 9.61198 8.39551 8.4375C8.56738 8.23698 8.78223 8.20833 9.04004 8.35156L10.8447 9.38281C11.6182 8.72396 12.4919 8.22266 13.4658 7.87891V5.77344C13.4658 5.48698 13.5947 5.3151 13.8525 5.25781C15.4281 4.91406 17.0036 4.91406 18.5791 5.25781C18.8369 5.3151 18.9658 5.48698 18.9658 5.77344V7.87891C19.9398 8.22266 20.8135 8.72396 21.5869 9.38281L23.3916 8.30859C23.6494 8.19401 23.8643 8.23698 24.0361 8.4375C25.1247 9.61198 25.9124 10.9583 26.3994 12.4766C26.4854 12.763 26.3994 12.9635 26.1416 13.0781L24.3369 14.1523C24.5088 15.1549 24.5088 16.1576 24.3369 17.1602L26.1416 18.2344ZM13.7666 18.1055C14.4541 18.7643 15.2705 19.0938 16.2158 19.0938C17.1611 19.0938 17.9632 18.7643 18.6221 18.1055C19.3096 17.418 19.6533 16.6016 19.6533 15.6562C19.6533 14.7109 19.3096 13.9089 18.6221 13.25C17.9632 12.5625 17.1611 12.2188 16.2158 12.2188C15.2705 12.2188 14.4541 12.5625 13.7666 13.25C13.1077 13.9089 12.7783 14.7109 12.7783 15.6562C12.7783 16.6016 13.1077 17.418 13.7666 18.1055Z" fill="black"/>
</svg>
