<svg xmlns="http://www.w3.org/2000/svg">
<symbol id="map-marker" viewBox="0 0 48 48" xmlns="http://www.w3.org/2000/svg">
<path d="M23.74 45.7307L24.4466 46.3909L25.1301 45.7067C27.1682 43.6665 29.1698 41.8435 31.0637 40.1188L31.2426 39.9559C37.5627 34.201 42.8674 29.3707 42.8674 21.463C42.8674 11.2671 34.6104 3 24.4227 3C14.2349 3 5.97791 11.2671 5.97791 21.463C5.97791 25.615 7.05764 28.6957 9.15679 31.6153C11.1977 34.4541 14.2063 37.1381 17.9903 40.514L18.0681 40.5834C19.7853 42.1155 21.6751 43.8015 23.74 45.7307ZM30.2489 21.463C30.2489 24.6856 27.6394 27.2963 24.4227 27.2963C21.2059 27.2963 18.5965 24.6856 18.5965 21.463C18.5965 18.2403 21.2059 15.6296 24.4227 15.6296C27.6394 15.6296 30.2489 18.2403 30.2489 21.463Z" stroke="white" stroke-width="2"/>
</symbol>

<symbol  id="map-markerSelected" viewBox="0 0 48 48" fill="none" xmlns="http://www.w3.org/2000/svg">
<path d="M23.74 45.7307L24.4466 46.3909L25.1301 45.7067C27.1682 43.6665 29.1698 41.8435 31.0637 40.1188L31.2426 39.9559C37.5627 34.201 42.8674 29.3707 42.8674 21.463C42.8674 11.2671 34.6104 3 24.4227 3C14.2349 3 5.97791 11.2671 5.97791 21.463C5.97791 25.615 7.05764 28.6957 9.15679 31.6153C11.1977 34.4541 14.2063 37.1381 17.9903 40.514L18.0681 40.5834C19.7853 42.1155 21.6751 43.8015 23.74 45.7307ZM30.2489 21.463C30.2489 24.6856 27.6394 27.2963 24.4227 27.2963C21.2059 27.2963 18.5965 24.6856 18.5965 21.463C18.5965 18.2403 21.2059 15.6296 24.4227 15.6296C27.6394 15.6296 30.2489 18.2403 30.2489 21.463Z" fill="#da3635" stroke="white" stroke-width="2"/>
</symbol>

<symbol  id="map-markerHover" viewBox="0 0 48 48" fill="none" xmlns="http://www.w3.org/2000/svg">
<path d="M23.74 45.7307L24.4466 46.3909L25.1301 45.7067C27.1682 43.6665 29.1698 41.8435 31.0637 40.1188L31.2426 39.9559C37.5627 34.201 42.8674 29.3707 42.8674 21.463C42.8674 11.2671 34.6104 3 24.4227 3C14.2349 3 5.97791 11.2671 5.97791 21.463C5.97791 25.615 7.05764 28.6957 9.15679 31.6153C11.1977 34.4541 14.2063 37.1381 17.9903 40.514L18.0681 40.5834C19.7853 42.1155 21.6751 43.8015 23.74 45.7307ZM30.2489 21.463C30.2489 24.6856 27.6394 27.2963 24.4227 27.2963C21.2059 27.2963 18.5965 24.6856 18.5965 21.463C18.5965 18.2403 21.2059 15.6296 24.4227 15.6296C27.6394 15.6296 30.2489 18.2403 30.2489 21.463Z" fill="#B85959" stroke="white" stroke-width="2"/>
</symbol>

<symbol id="map-marker-added" viewBox="0 0 48 48" fill="none" xmlns="http://www.w3.org/2000/svg">
<path d="M23.74 45.7307L24.4466 46.3909L25.1301 45.7067C27.1682 43.6665 29.1698 41.8435 31.0637 40.1188L31.2426 39.9559C37.5627 34.201 42.8674 29.3707 42.8674 21.463C42.8674 11.2671 34.6104 3 24.4227 3C14.2349 3 5.97791 11.2671 5.97791 21.463C5.97791 25.615 7.05764 28.6957 9.15679 31.6153C11.1977 34.4541 14.2063 37.1381 17.9903 40.514L18.0681 40.5834C19.7853 42.1155 21.6751 43.8015 23.74 45.7307ZM30.2489 21.463C30.2489 24.6856 27.6394 27.2963 24.4227 27.2963C21.2059 27.2963 18.5965 24.6856 18.5965 21.463C18.5965 18.2403 21.2059 15.6296 24.4227 15.6296C27.6394 15.6296 30.2489 18.2403 30.2489 21.463Z" fill="#47C562" stroke="white" stroke-width="2"/>
<circle cx="24.5" cy="21.5" r="11.5" fill="white"/>
<path d="M32.3299 15.8789C31.7108 15.3285 30.7627 15.3843 30.2123 16.0035L23.0123 24.1034L18.9396 20.8308C18.2939 20.3118 17.3497 20.4147 16.8308 21.0604C16.3119 21.7062 16.4147 22.6504 17.0605 23.1693L22.2457 27.3359C22.8688 27.8367 23.7752 27.7607 24.3064 27.1632L32.4545 17.9966C33.0049 17.3774 32.9491 16.4293 32.3299 15.8789Z" fill="#47C562"/>
</symbol>

<symbol id="map-markerButtonPhone" viewBox="0 0 32 32" fill="none" xmlns="http://www.w3.org/2000/svg">
<path fill-rule="evenodd" clip-rule="evenodd" d="M19.763 25.4357C23.8485 21.694 27 18.8077 27 14.0741C27 7.95803 22.0751 3 16 3C9.92487 3 5 7.95803 5 14.0741C5 19.075 7.5581 21.3702 12.4128 25.726C13.4953 26.6973 14.692 27.771 16 29C17.2972 27.6941 18.5699 26.5284 19.763 25.4357ZM16 18.4074C18.3772 18.4074 20.3043 16.4673 20.3043 14.0741C20.3043 11.6808 18.3772 9.74074 16 9.74074C13.6228 9.74074 11.6957 11.6808 11.6957 14.0741C11.6957 16.4673 13.6228 18.4074 16 18.4074Z" stroke="white" stroke-width="1.5" stroke-linecap="round"/>
</symbol>

<symbol id="adress" viewBox="0 0 22 22" xmlns="http://www.w3.org/2000/svg">
<path fill-rule="evenodd" clip-rule="evenodd" d="M11 2C12.6055 2.0145 14.1397 2.68885 15.265 3.87463C16.3902 5.06042 17.0142 6.66048 16.9998 8.32269C16.9998 11.8208 12.1242 19 11 19C9.87584 19 5.00025 11.8208 5.00025 8.32269C4.98578 6.66048 5.60982 5.06042 6.73504 3.87463C7.86026 2.68885 9.39446 2.0145 11 2ZM10.9999 5.55695C12.0865 5.53677 13.0768 6.19906 13.5059 7.23274C13.9349 8.26643 13.7173 9.4661 12.9553 10.2683C12.1933 11.0704 11.0384 11.3157 10.0329 10.8888C9.02744 10.4619 8.37129 9.44779 8.37266 8.32272C8.36215 6.80858 9.53743 5.57133 10.9999 5.55695Z" fill="#333333"/>
</symbol>

<symbol id="tablet" viewBox="0 0 22 22" xmlns="http://www.w3.org/2000/svg">
<path fill-rule="evenodd" clip-rule="evenodd" d="M16 18C16.5523 18 17 17.5523 17 17V4C17 3.44772 16.5523 3 16 3H6C5.44772 3 5 3.44772 5 4V17C5 17.5523 5.44772 18 6 18H16ZM16 4H6V16H16V4ZM11 17.5C11.2761 17.5 11.5 17.2761 11.5 17C11.5 16.7239 11.2761 16.5 11 16.5C10.7239 16.5 10.5 16.7239 10.5 17C10.5 17.2761 10.7239 17.5 11 17.5Z" stroke="none"/>
</symbol>

<symbol id="transport" viewBox="0 0 32 32" fill="none" xmlns="http://www.w3.org/2000/svg">
<path fill-rule="evenodd" clip-rule="evenodd" d="M7 4C5.89543 4 5 4.89543 5 6V23C5 24.1046 5.89543 25 7 25L7 26.5C7 27.3284 7.67157 28 8.5 28C9.32843 28 10 27.3284 10 26.5V25H21V26.5C21 27.3284 21.6716 28 22.5 28C23.3284 28 24 27.3284 24 26.5V25C25.1046 25 26 24.1046 26 23V6C26 4.89543 25.1046 4 24 4H7ZM24 9H7V18H24V9ZM12 22H19L18.125 23H12.875L12 22ZM10 6C9.44772 6 9 6.44772 9 7C9 7.55228 9.44772 8 10 8H21C21.5523 8 22 7.55228 22 7C22 6.44772 21.5523 6 21 6H10ZM10.6668 21.8754C10.4609 21.1805 9.89524 20.6514 9.18821 20.4923L7 20V23H11L10.6668 21.8754ZM21.8118 20.4923C21.1048 20.6514 20.5391 21.1805 20.3332 21.8754L20 23H24V20L21.8118 20.4923Z" fill="black"/>
</symbol>

<symbol id="paste" viewBox="0 0 24 24" fill="none" xmlns="http://www.w3.org/2000/svg">
<path d="M14 16L5 16V4H14L14 16Z" stroke="#333333" stroke-width="2"/>
<path d="M19 21C19.5523 21 20 20.5523 20 20V7C20 6.44772 19.5523 6 19 6H16V17C16 17.5523 15.5523 18 15 18H9V20C9 20.5523 9.44772 21 10 21H19Z" fill="#32383D"/>
</symbol>

<symbol id="copy" viewBox="0 0 24 24" fill="none" xmlns="http://www.w3.org/2000/svg">
<path fill-rule="evenodd" clip-rule="evenodd" d="M4 4C4 3.44771 4.44772 3 5 3H14C14.5523 3 15 3.44772 15 4V6H9C8.44772 6 8 6.44772 8 7V18H5C4.44772 18 4 17.5523 4 17V4ZM10 7C9.44772 7 9 7.44772 9 8V20C9 20.5523 9.44771 21 10 21H19C19.5523 21 20 20.5523 20 20V8C20 7.44772 19.5523 7 19 7H10Z" fill="#32383D"/>
</symbol>

<symbol id="cancel" viewBox="0 0 24 24" xmlns="http://www.w3.org/2000/svg">
<path d="M16.9498 5.36385C17.3403 4.97332 17.9734 4.97332 18.364 5.36385C18.7545 5.75437 18.7545 6.38753 18.364 6.77806L7.05026 18.0918C6.65973 18.4823 6.02657 18.4823 5.63605 18.0918C5.24552 17.7012 5.24552 17.0681 5.63605 16.6776L16.9498 5.36385Z" stroke="none"/>
<path d="M18.364 16.6777C18.7545 17.0682 18.7545 17.7013 18.364 18.0919C17.9734 18.4824 17.3403 18.4824 16.9498 18.0919L5.63605 6.77816C5.24552 6.38764 5.24552 5.75447 5.63605 5.36395C6.02657 4.97343 6.65974 4.97343 7.05026 5.36395L18.364 16.6777Z" stroke="none"/>
</symbol>

<symbol id="nok" viewBox="0 0 32 32" fill="none" xmlns="http://www.w3.org/2000/svg">
<circle cx="16" cy="16" r="13" fill="#DA6C2E"/>
<path d="M16.25 17.5L16.25 9.00001" stroke="white" stroke-width="3" stroke-linecap="round" stroke-linejoin="round"/>
<path d="M16.25 23.6065L16.25 22.9999" stroke="white" stroke-width="3" stroke-linecap="round" stroke-linejoin="round"/>
</symbol>

<symbol id="ok" viewBox="0 0 32 32" fill="none" xmlns="http://www.w3.org/2000/svg">
<circle cx="16" cy="16" r="13" fill="#47C562"/>
<path d="M11 16.8182L14.8889 20L21 13" stroke="white" stroke-width="3" stroke-linecap="round" stroke-linejoin="round"/>
</symbol>

<symbol id="add" viewBox="0 0 24 24" xmlns="http://www.w3.org/2000/svg">
<path d="M12 5C11.4477 5 11 5.44772 11 6V11H6C5.44772 11 5 11.4477 5 12C5 12.5523 5.44772 13 6 13H11V18C11 18.5523 11.4477 19 12 19C12.5523 19 13 18.5523 13 18V13H18C18.5523 13 19 12.5523 19 12C19 11.4477 18.5523 11 18 11H13V6C13 5.44772 12.5523 5 12 5Z" stroke="none"/>
</symbol>

<symbol id="validate" fill="none" xmlns="http://www.w3.org/2000/svg" viewBox="0 0 24 24">
<path d="M6.5 12.344l4.278 3.437L17.5 8.22" stroke="#fff" stroke-width="2" stroke-linecap="round" stroke-linejoin="round"></path>
</symbol>

<symbol id="delete" viewBox="0 0 27 17" fill="none" xmlns="http://www.w3.org/2000/svg">
<path d="M18.0992 4.36723C17.7086 3.9767 17.0755 3.9767 16.6849 4.36723L13.1494 7.90276L9.61388 4.36723C9.22336 3.9767 8.59019 3.9767 8.19967 4.36723C7.80914 4.75775 7.80914 5.39092 8.19967 5.78144L11.7352 9.31698L8.19967 12.8525C7.80914 13.243 7.80914 13.8762 8.19967 14.2667C8.59019 14.6572 9.22336 14.6572 9.61388 14.2667L13.1494 10.7312L16.6849 14.2667C17.0755 14.6572 17.7086 14.6572 18.0992 14.2667C18.4897 13.8762 18.4897 13.243 18.0992 12.8525L14.5636 9.31698L18.0992 5.78144C18.4897 5.39092 18.4897 4.75775 18.0992 4.36723Z" fill="white"/>
</symbol>

<symbol id="remove" viewBox="0 0 24 24" xmlns="http://www.w3.org/2000/svg">
<path d="M6.97363 12.9062C6.34733 12.9062 5.89876 12.7877 5.62793 12.5507C5.36556 12.3053 5.23438 11.9879 5.23438 11.5986C5.23438 11.2092 5.36556 10.8961 5.62793 10.6591C5.89876 10.4137 6.34733 10.2952 6.97363 10.3036C14.44 10.3036 10.571 10.3036 17.0156 10.3036C17.6419 10.3036 18.0863 10.4221 18.3486 10.6591C18.6195 10.8961 18.7549 11.2092 18.7549 11.5986C18.7549 11.9879 18.6195 12.3053 18.3486 12.5507C18.0863 12.7877 17.6419 12.9062 17.0156 12.9062C9.63742 12.9062 13.3678 12.9062 6.97363 12.9062Z" stroke="none"/>
</symbol>

<symbol id="edit" viewBox="0 0 22 22" xmlns="http://www.w3.org/2000/svg">
<path fill-rule="evenodd" clip-rule="evenodd" d="M17.3745 2.62547C17.72 2.28003 18.3461 2.34613 18.7731 2.7731L20.3193 4.3193C20.7463 4.74627 20.8124 5.37243 20.4669 5.71787L18.6115 7.57331L15.5191 4.48091L17.3745 2.62547ZM17.993 8.1918L14.9006 5.0994L5.62344 14.3766L8.71584 17.469L17.993 8.1918ZM8.09736 18.0874L5.00496 14.995L4.74469 15.2553C4.60266 15.3973 4.52461 15.5949 4.52337 15.8155L3.77535 18.7134C3.7736 19.0246 4.0678 19.3188 4.37904 19.3171L7.27695 18.569C7.49751 18.5678 7.69506 18.4897 7.83709 18.3477L8.09736 18.0874Z" stroke="none"/>
</symbol>

<symbol id="liste" viewBox="0 0 32 32"  xmlns="http://www.w3.org/2000/svg">
<circle cx="7.75" cy="10.75" r="0.75" fill="white"/>
<rect x="10" y="10" width="15" height="1.5" rx="0.75" fill="white"/>
<circle cx="7.75" cy="16.25" r="0.75" fill="white"/>
<rect x="10" y="15.5" width="15" height="1.5" rx="0.75" fill="white"/>
<circle cx="7.75" cy="21.75" r="0.75" fill="white"/>
<rect x="10" y="21" width="15" height="1.5" rx="0.75" fill="white"/>
</symbol>

<svg id="user" viewBox="0 0 28 25" xmlns="http://www.w3.org/2000/svg">
<path d="M21.0256 13.9213C22.2638 12.4488 23 10.5413 23 8.5C22.9665 3.81496 19.185 0 14.5 0C9.81496 0 6 3.81496 6 8.5C6 13.185 9.81496 17 14.5 17C16.5079 17 18.3819 16.2972 19.8209 15.126C20.2289 14.717 20.2289 14.717 21.0256 13.9213ZM7.67323 8.5C7.67323 4.7185 10.7185 1.67323 14.5 1.67323C18.2815 1.67323 21.3268 4.7185 21.3268 8.5C21.3268 12.2815 18.2815 15.3268 14.5 15.3268C10.7185 15.3268 7.67323 12.248 7.67323 8.5Z" fill="#333333"/>
<path d="M13.2564 17.0414C11.6597 16.8372 10.0864 16.1466 8.76423 15H8.68966C3.89049 15 0 19.1129 0 24.1864V23.9793C0 24.543 0.432277 25 0.965517 25C1.49876 25 1.93103 24.543 1.93103 23.9793V24.1864C1.93103 20.2403 4.95697 17.0414 8.68966 17.0414H13.2564Z" fill="#333333"/>
<path d="M15.3566 17.0414H19.3103C23.043 17.0414 26.069 20.2403 26.069 24.1864V23.9793C26.069 24.543 26.5012 25 27.0345 25C27.5677 25 28 24.543 28 23.9793V24.1864C28 19.335 24.4427 15.3619 19.9351 15.0234C18.5996 16.1728 16.9994 16.8552 15.3566 17.0414Z" fill="#333333"/>
</svg>

<symbol id="computer" viewBox="0 0 22 22" xmlns="http://www.w3.org/2000/svg">
<rect x="2.5" y="3" width="17" height="11" rx="0.5" stroke-width="2" fill="none"/>
<rect x="2" y="12" width="18" height="2" stroke="none" />
<rect x="9" y="15" width="4" height="2" stroke="none"/>
<path d="M7 17.382C7 17.1479 7.13226 16.9339 7.34164 16.8292L8.78885 16.1056C8.92771 16.0361 9.08082 16 9.23607 16H12.7639C12.9192 16 13.0723 16.0361 13.2111 16.1056L14.6584 16.8292C14.8677 16.9339 15 17.1479 15 17.382C15 17.7233 14.7233 18 14.382 18H7.61803C7.2767 18 7 17.7233 7 17.382Z"/>
</symbol>

<symbol id="date" viewBox="0 0 22 22" xmlns="http://www.w3.org/2000/svg">
<path d="M8 10H5V13H8V10Z" fill="#333333"/>
<path fill-rule="evenodd" clip-rule="evenodd" d="M6 2C5.44772 2 5 2.44772 5 3V4H3C2.44771 4 2 4.44772 2 5V19C2 19.5523 2.44771 20 3 20H19C19.5523 20 20 19.5523 20 19V5C20 4.44772 19.5523 4 19 4H17V3C17 2.44772 16.5523 2 16 2C15.4477 2 15 2.44772 15 3V4H7V3C7 2.44772 6.55228 2 6 2ZM4 9V18H18V9H4Z" fill="#333333"/>
</symbol>

<symbol id ="email" viewBox="0 0 22 22" xmlns="http://www.w3.org/2000/svg">
<path fill-rule="evenodd" clip-rule="evenodd" d="M3.5 4H19.5C20.3284 4 21 4.67157 21 5.5V16.0714C21 16.8998 20.3284 17.5714 19.5 17.5714H3.5C2.67157 17.5714 2 16.8998 2 16.0714V5.5C2 4.67157 2.67157 4 3.5 4ZM2.91716 6.02444C3.04832 5.78143 3.35163 5.69075 3.59464 5.8219L11.2431 9.94966C11.5474 10.1138 11.9148 10.1093 12.2149 9.93753L19.3945 5.82797C19.6341 5.69079 19.9396 5.77387 20.0768 6.01353C20.214 6.25318 20.1309 6.55867 19.8913 6.69585L12.7116 10.8054C12.1116 11.1489 11.3767 11.1581 10.7682 10.8297L3.11971 6.70192C2.8767 6.57077 2.78602 6.26745 2.91716 6.02444Z" stroke="none"/>
</symbol>

<symbol id="password" viewBox="0 0 22 22" xmlns="http://www.w3.org/2000/svg">
<path fill-rule="evenodd" clip-rule="evenodd" d="M4.89603 10C4.40117 10 4.00001 10.4012 4.00001 10.896L4 18.2042C4 18.699 4.40116 19.1002 4.89602 19.1002H17.1043C17.5992 19.1002 18.0003 18.699 18.0003 18.2042L18.0003 10.896C18.0003 10.4012 17.5992 10 17.1043 10H4.89603ZM12.3442 13.4441C12.3442 13.9365 12.0794 14.367 11.6845 14.6011L12.3442 17.0002H9.65611L10.3158 14.6011C9.92088 14.367 9.65611 13.9365 9.65611 13.4441C9.65611 12.7018 10.2579 12.1 11.0001 12.1C11.7424 12.1 12.3442 12.7018 12.3442 13.4441Z" stroke="none"/>
<path d="M13.8017 10.0002V7.90011C13.8017 6.35368 12.5481 5.10005 11.0017 5.10005C9.45524 5.10005 8.20161 6.35368 8.20161 7.90011V10.0002H6.10156V7.90011C6.10156 5.19386 8.29542 3 11.0017 3C13.7079 3 15.9018 5.19385 15.9018 7.90011V10.0002H13.8017Z" stroke="none"/>
</symbol>

<symbol id="pass" viewBox="0 0 22 22" xmlns="http://www.w3.org/2000/svg">
<path fill-rule="evenodd" clip-rule="evenodd" d="M1.55556 5C1.24873 5 1 5.24873 1 5.55556V14.4444C1 14.7513 1.24873 15 1.55556 15H20.4444C20.7513 15 21 14.7513 21 14.4444V5.55556C21 5.24873 20.7513 5 20.4444 5H1.55556ZM4.77222 8.76388C4.78333 8.77499 4.79722 8.78055 4.81389 8.78055H4.91667C4.93333 8.78055 4.94722 8.77499 4.95833 8.76388C4.96944 8.75277 4.97683 8.73888 4.98055 8.72221L5.03055 8.3861H5.43889L5.38889 8.72221C5.38705 8.73888 5.39167 8.75277 5.40278 8.76388C5.41389 8.77499 5.42778 8.78055 5.44444 8.78055H5.54722C5.56389 8.78055 5.57778 8.77499 5.58889 8.76388C5.6 8.75277 5.60739 8.73888 5.61111 8.72221L5.66111 8.3861H5.99444C6.01294 8.3861 6.02778 8.38055 6.03889 8.36943C6.05183 8.35832 6.05833 8.34349 6.05833 8.32499V8.23055C6.05833 8.21205 6.05183 8.19721 6.03889 8.1861C6.02778 8.17499 6.01294 8.16943 5.99444 8.16943H5.69444L5.76667 7.68055H6.06667C6.08517 7.68055 6.1 7.67499 6.11111 7.66388C6.12406 7.65277 6.13056 7.63793 6.13056 7.61943V7.52499C6.13056 7.50649 6.12406 7.49166 6.11111 7.48055C6.1 7.46943 6.08517 7.46388 6.06667 7.46388H5.79722L5.84722 7.12777C5.84905 7.1111 5.84444 7.09721 5.83333 7.0861C5.82222 7.07499 5.80833 7.06943 5.79167 7.06943H5.68889C5.67222 7.06943 5.65833 7.07499 5.64722 7.0861C5.63794 7.09721 5.6315 7.1111 5.62778 7.12777L5.57778 7.46388H5.16667L5.21667 7.12777C5.2185 7.1111 5.21389 7.09721 5.20278 7.0861C5.19167 7.07499 5.17778 7.06943 5.16111 7.06943H5.05833C5.04167 7.06943 5.02778 7.07499 5.01667 7.0861C5.00739 7.09721 5.00094 7.1111 4.99722 7.12777L4.94722 7.46388H4.60555C4.58705 7.46388 4.57222 7.46943 4.56111 7.48055C4.55 7.49166 4.54444 7.50649 4.54444 7.52499V7.61943C4.54444 7.63793 4.55 7.65277 4.56111 7.66388C4.57222 7.67499 4.58705 7.68055 4.60555 7.68055H4.91389L4.84167 8.16943H4.53333C4.51483 8.16943 4.5 8.17499 4.48889 8.1861C4.47778 8.19721 4.47222 8.21205 4.47222 8.23055V8.32499C4.47222 8.34349 4.47778 8.35832 4.48889 8.36943C4.5 8.38055 4.51483 8.3861 4.53333 8.3861H4.80833L4.75833 8.72221C4.7565 8.73888 4.76111 8.75277 4.77222 8.76388ZM6.34239 8.87221C6.3535 8.88332 6.3665 8.88888 6.38128 8.88888H6.52294C6.5415 8.88888 6.55628 8.88427 6.56739 8.87499C6.58039 8.86388 6.58872 8.85277 6.59239 8.84166L6.74517 8.44721H7.65628L7.80905 8.84166C7.81278 8.85277 7.82017 8.86388 7.83128 8.87499C7.84239 8.88427 7.85817 8.88888 7.8785 8.88888H8.02017C8.035 8.88888 8.04794 8.88332 8.05906 8.87221C8.07017 8.8611 8.07572 8.84816 8.07572 8.83332L8.07017 8.80277L7.38406 7.00555C7.36928 6.96482 7.33961 6.94443 7.29517 6.94443H7.10628C7.06183 6.94443 7.03222 6.96482 7.01739 7.00555L6.3285 8.80277C6.32667 8.80832 6.32572 8.81849 6.32572 8.83332C6.32572 8.84816 6.33128 8.8611 6.34239 8.87221ZM8.38939 8.87221C8.40239 8.88332 8.41811 8.88888 8.43661 8.88888H8.58383C8.60239 8.88888 8.61811 8.88332 8.63106 8.87221C8.64406 8.85927 8.6505 8.84349 8.6505 8.82499V8.13055H9.14217C9.35328 8.13055 9.51811 8.08054 9.63661 7.98054C9.757 7.87871 9.81717 7.73149 9.81717 7.53888C9.81717 7.34627 9.757 7.19904 9.63661 7.09721C9.51628 6.99538 9.35144 6.94443 9.14217 6.94443H8.43661C8.41811 6.94443 8.40239 6.95093 8.38939 6.96388C8.37828 6.97499 8.37272 6.99071 8.37272 7.0111V8.82499C8.37272 8.84349 8.37828 8.85927 8.38939 8.87221ZM10.5966 8.87221C10.6096 8.88332 10.6253 8.88888 10.6438 8.88888H10.7883C10.8068 8.88888 10.8226 8.88332 10.8355 8.87221C10.8485 8.85927 10.8549 8.84349 10.8549 8.82499V7.19166H11.3855C11.4041 7.19166 11.4198 7.1861 11.4327 7.17499C11.4457 7.16205 11.4522 7.14627 11.4522 7.12777V7.0111C11.4522 6.99071 11.4457 6.97499 11.4327 6.96388C11.4216 6.95093 11.4059 6.94443 11.3855 6.94443H10.0466C10.0281 6.94443 10.0124 6.95093 9.99939 6.96388C9.98828 6.97682 9.98272 6.9926 9.98272 7.0111V7.12777C9.98272 7.14627 9.98828 7.16205 9.99939 7.17499C10.0124 7.1861 10.0281 7.19166 10.0466 7.19166H10.5799V8.82499C10.5799 8.84349 10.5855 8.85927 10.5966 8.87221ZM11.7803 8.87221C11.7932 8.88332 11.8089 8.88888 11.8275 8.88888H11.9747C11.9932 8.88888 12.0081 8.88332 12.0192 8.87221C12.0321 8.85927 12.0386 8.84349 12.0386 8.82499V7.00832C12.0386 6.98982 12.0321 6.97499 12.0192 6.96388C12.0081 6.95093 11.9932 6.94443 11.9747 6.94443H11.8275C11.8089 6.94443 11.7932 6.95093 11.7803 6.96388C11.7692 6.97499 11.7636 6.98982 11.7636 7.00832V8.82499C11.7636 8.84349 11.7692 8.85927 11.7803 8.87221ZM12.6564 8.71666C12.7861 8.84999 12.975 8.91666 13.2231 8.91666C13.3879 8.91666 13.5278 8.88793 13.6426 8.83055C13.7574 8.77127 13.8444 8.69443 13.9037 8.59999C13.9629 8.50554 13.9953 8.40371 14.0009 8.29443C14.0028 8.27777 13.9972 8.26482 13.9842 8.25555C13.9731 8.24443 13.9592 8.23888 13.9426 8.23888H13.7898C13.7713 8.23888 13.7564 8.24349 13.7453 8.25277C13.7342 8.26204 13.7259 8.27871 13.7203 8.30277C13.6907 8.44166 13.6342 8.53982 13.5509 8.59721C13.4694 8.65277 13.3602 8.68055 13.2231 8.68055C12.9046 8.68055 12.7398 8.50371 12.7287 8.14999C12.7268 8.09627 12.7259 8.0176 12.7259 7.91388C12.7259 7.81016 12.7268 7.73332 12.7287 7.68332C12.7398 7.3296 12.9046 7.15277 13.2231 7.15277C13.3602 7.15277 13.4694 7.18149 13.5509 7.23888C13.6324 7.29443 13.6889 7.39166 13.7203 7.53055C13.7296 7.57316 13.7528 7.59443 13.7898 7.59443H13.9426C13.9574 7.59443 13.9703 7.58982 13.9814 7.58055C13.9944 7.56943 14.0009 7.55649 14.0009 7.54166V7.5361C13.9953 7.42871 13.9629 7.32777 13.9037 7.23332C13.8444 7.13888 13.7574 7.06293 13.6426 7.00555C13.5278 6.94627 13.3879 6.91666 13.2231 6.91666C12.9768 6.91666 12.7889 6.98427 12.6592 7.11943C12.5296 7.25277 12.4602 7.4361 12.4509 7.66943C12.4491 7.72127 12.4481 7.8046 12.4481 7.91943C12.4481 8.03238 12.4491 8.11388 12.4509 8.16388C12.4602 8.39904 12.5287 8.58332 12.6564 8.71666ZM4.25 11C4.11193 11 4 11.1119 4 11.25C4 11.3881 4.11193 11.5 4.25 11.5H12.7259C12.864 11.5 12.9759 11.3881 12.9759 11.25C12.9759 11.1119 12.864 11 12.7259 11H4.25ZM16.6144 11.9418H16.0068C16.0133 12.1185 16.0594 12.249 16.1451 12.3333C16.2321 12.4177 16.3749 12.4598 16.5735 12.4598C16.702 12.4598 16.8163 12.4398 16.9163 12.3996L17 12.9398C16.8273 12.9799 16.6566 13 16.4878 13C16.1373 13 15.8575 12.9063 15.6485 12.7189C15.4408 12.5315 15.3317 12.2724 15.3213 11.9418H15V11.6205H15.3213V11.3755H15V11.0562H15.3272C15.3518 10.7242 15.4726 10.4652 15.6894 10.2791C15.9062 10.093 16.1925 10 16.5482 10C16.6858 10 16.8364 10.0207 17 10.0622L16.9163 10.6044C16.815 10.5629 16.7066 10.5422 16.591 10.5422C16.4119 10.5422 16.2749 10.5843 16.1801 10.6687C16.0854 10.7517 16.0295 10.8809 16.0127 11.0562H16.6144V11.3755H16.0068V11.6205H16.6144V11.9418ZM9.12828 7.89721C9.2635 7.89721 9.36533 7.86666 9.43383 7.80554C9.50422 7.74443 9.53939 7.65554 9.53939 7.53888C9.53939 7.42221 9.50517 7.33332 9.43661 7.27221C9.36811 7.20927 9.26533 7.17777 9.12828 7.17777H8.64772V7.89721H9.12828ZM7.20072 7.22221L7.57572 8.20832H6.82572L7.20072 7.22221ZM5.54444 7.68055L5.47222 8.16943H5.06389L5.13611 7.68055H5.54444ZM19.75 6C19.6119 6 19.5 6.11193 19.5 6.25V6.75C19.5 6.88807 19.6119 7 19.75 7C19.8881 7 20 6.88807 20 6.75V6.25C20 6.11193 19.8881 6 19.75 6ZM19.5 8.25C19.5 8.11193 19.6119 8 19.75 8C19.8881 8 20 8.11193 20 8.25V10.75C20 10.8881 19.8881 11 19.75 11C19.6119 11 19.5 10.8881 19.5 10.75V8.25ZM19.75 12C19.6119 12 19.5 12.1119 19.5 12.25V13.75C19.5 13.8881 19.6119 14 19.75 14C19.8881 14 20 13.8881 20 13.75V12.25C20 12.1119 19.8881 12 19.75 12Z" fill="#333333"/>
</symbol>

<symbol id="scan" viewBox="0 0 22 22" xmlns="http://www.w3.org/2000/svg">
<rect x="3" y="1" width="4" height="1" stroke="none"/>
<rect x="3" y="20" width="4" height="1" stroke="none"/>
<rect x="3" y="21" width="4" height="1" transform="rotate(-90 3 21)" stroke="none"/>
<rect x="3" y="5" width="4" height="1" transform="rotate(-90 3 5)" stroke="none"/>
<rect x="18" y="5" width="4" height="1" transform="rotate(-90 18 5)" stroke="none"/>
<rect x="18" y="21" width="4" height="1" transform="rotate(-90 18 21)" stroke="none"/>
<rect x="15" y="1" width="4" height="1" stroke="none"/>
<rect x="15" y="20" width="4" height="1" stroke="none"/>
<path fill-rule="evenodd" clip-rule="evenodd" d="M6 5C6 4.44772 6.44772 4 7 4H13V6C13 6.55228 13.4477 7 14 7H16V17C16 17.5523 15.5523 18 15 18H7C6.44772 18 6 17.5523 6 17V5ZM8.5 8C8.22386 8 8 8.22386 8 8.5C8 8.77614 8.22386 9 8.5 9H11.5C11.7761 9 12 8.77614 12 8.5C12 8.22386 11.7761 8 11.5 8H8.5ZM8 11.5C8 11.2239 8.22386 11 8.5 11H13.5C13.7761 11 14 11.2239 14 11.5C14 11.7761 13.7761 12 13.5 12H8.5C8.22386 12 8 11.7761 8 11.5ZM8.5 14C8.22386 14 8 14.2239 8 14.5C8 14.7761 8.22386 15 8.5 15H13.5C13.7761 15 14 14.7761 14 14.5C14 14.2239 13.7761 14 13.5 14H8.5Z" stroke="none"/>
</symbol>

<symbol id="network" viewBox="0 0 22 22" fill="none" xmlns="http://www.w3.org/2000/svg">
<g clip-path="url(#clip0)">
<circle cx="11" cy="11" r="2.5" stroke="#333333"/>
<circle cx="11" cy="3.43506" r="1.5" stroke="#333333"/>
<path d="M11 4.93506V8.93506" stroke="#333333"/>
<circle r="1.5" transform="matrix(1 0 0 -1 11 18.4351)" stroke="#333333"/>
<path d="M11 16.9351V12.9351" stroke="#333333"/>
<circle cx="18.5" cy="10.9351" r="1.5" transform="rotate(90 18.5 10.9351)" stroke="#333333"/>
<path d="M17 10.9351L13 10.9351" stroke="#333333"/>
<circle r="1.5" transform="matrix(4.37114e-08 1 1 -4.37114e-08 3.5 10.9351)" stroke="#333333"/>
<path d="M5 10.9351L9 10.9351" stroke="#333333"/>
<circle cx="16.3047" cy="5.63171" r="1.5" transform="rotate(45 16.3047 5.63171)" stroke="#333333"/>
<path d="M15.2422 6.69238L12.4138 9.52081" stroke="#333333"/>
<circle r="1.5" transform="matrix(0.707107 0.707107 0.707107 -0.707107 5.69561 16.2383)" stroke="#333333"/>
<path d="M6.75781 15.1777L9.58624 12.3492" stroke="#333333"/>
<circle cx="16.3044" cy="16.2383" r="1.5" transform="rotate(135 16.3044 16.2383)" stroke="#333333"/>
<path d="M15.2422 15.1777L12.4138 12.3492" stroke="#333333"/>
<circle r="1.5" transform="matrix(-0.707107 0.707107 0.707107 0.707107 5.69531 5.63171)" stroke="#333333"/>
<path d="M6.75781 6.69238L9.58624 9.52081" stroke="#333333"/>
</g>
<defs>
<clipPath id="clip0">
<rect width="22" height="22" fill="white"/>
</clipPath>
</defs>
</symbol>

<symbol id="facebook" viewBox="0 0 30 30" fill="none" xmlns="http://www.w3.org/2000/svg">
<rect width="30" height="30" rx="15" fill="#F4F4F4"/>
<path fill-rule="evenodd" clip-rule="evenodd" d="M13.3774 22.1509H16.3208V16.4151H18.5094L18.9245 13.6981H16.3208V11.9245C16.3208 10.9686 16.8239 10.4906 17.8302 10.4906H19V8.18868C18.2956 8.06289 17.6038 8 16.9245 8C16.195 8 15.566 8.13836 15.0377 8.41509C14.5346 8.69182 14.1321 9.10692 13.8302 9.66038C13.5283 10.2138 13.3774 10.8679 13.3774 11.6226V13.6981H11V16.4151H13.3774V22.1509Z" fill="#696969"/>
</symbol>

<symbol id="twitter" viewBox="0 0 30 30" fill="none" xmlns="http://www.w3.org/2000/svg">
<rect width="30" height="30" rx="15" fill="#F4F4F4"/>
<path d="M22.1818 10.4308C21.7682 11.0462 21.2807 11.5692 20.7193 12V12.3692C20.7193 13.7538 20.4091 15.0923 19.7886 16.3846C19.1977 17.6769 18.2523 18.7692 16.9523 19.6615C15.6523 20.5538 14.1602 21 12.4761 21C10.8511 21 9.35909 20.5385 8 19.6154C8.20682 19.6462 8.44318 19.6615 8.70909 19.6615C10.0386 19.6615 11.2352 19.2308 12.2989 18.3692C11.6784 18.3692 11.117 18.1846 10.6148 17.8154C10.1125 17.4154 9.77273 16.9077 9.59545 16.2923C10.0682 16.3538 10.5114 16.3385 10.925 16.2462C10.2455 16.0923 9.68409 15.7385 9.24091 15.1846C8.79773 14.6308 8.57614 13.9846 8.57614 13.2462V13.2C8.98977 13.4462 9.43295 13.5846 9.90568 13.6154C9.66932 13.4308 9.44773 13.2 9.24091 12.9231C9.03409 12.6462 8.87159 12.3538 8.75341 12.0462C8.63523 11.7077 8.57614 11.3846 8.57614 11.0769C8.57614 10.5231 8.70909 10.0154 8.975 9.55385C10.5409 11.5231 12.55 12.5846 15.0023 12.7385C14.7955 11.7231 14.9875 10.8462 15.5784 10.1077C16.1693 9.36923 16.9227 9 17.8386 9C18.6659 9 19.3602 9.32308 19.9216 9.96923C20.5716 9.84615 21.192 9.6 21.783 9.23077C21.5466 9.93846 21.1182 10.4923 20.4977 10.8923C21.0591 10.8308 21.6205 10.6769 22.1818 10.4308Z" fill="#696969"/>
</symbol>

<symbol id="instagram" viewBox="0 0 30 30" fill="none" xmlns="http://www.w3.org/2000/svg">
<rect width="30" height="30" rx="15" fill="#F4F4F4"/>
<path fill-rule="evenodd" clip-rule="evenodd" d="M15 10.8929C13.8571 10.8929 12.8809 11.2976 12.0714 12.1071C11.2857 12.8929 10.8929 13.8571 10.8929 15C10.8929 16.1429 11.2857 17.1191 12.0714 17.9286C12.8809 18.7143 13.8571 19.1071 15 19.1071C16.1429 19.1071 17.1071 18.7143 17.8929 17.9286C18.7024 17.1191 19.1071 16.1429 19.1071 15C19.1071 13.8571 18.7024 12.8929 17.8929 12.1071C17.1071 11.2976 16.1429 10.8929 15 10.8929ZM15 17.6786C14.2619 17.6786 13.6309 17.4166 13.1071 16.8929C12.5833 16.3691 12.3214 15.7381 12.3214 15C12.3214 14.2619 12.5833 13.6309 13.1071 13.1071C13.6309 12.5834 14.2619 12.3214 15 12.3214C15.7381 12.3214 16.3691 12.5834 16.8929 13.1071C17.4167 13.6309 17.6786 14.2619 17.6786 15C17.6786 15.7381 17.4167 16.3691 16.8929 16.8929C16.3691 17.4166 15.7381 17.6786 15 17.6786Z" fill="#696969"/>
<path d="M20.2143 10.7143C20.2143 10.4524 20.1191 10.2381 19.9286 10.0714C19.7619 9.88093 19.5476 9.78571 19.2857 9.78571C19.0238 9.78571 18.7976 9.88093 18.6071 10.0714C18.4167 10.2381 18.3214 10.4524 18.3214 10.7143C18.3214 10.9762 18.4167 11.2024 18.6071 11.3929C18.7976 11.5834 19.0238 11.6786 19.2857 11.6786C19.5476 11.6786 19.7619 11.5834 19.9286 11.3929C20.1191 11.2024 20.2143 10.9762 20.2143 10.7143Z" fill="#696969"/>
<path fill-rule="evenodd" clip-rule="evenodd" d="M22.9643 11.7143C22.9881 12.3571 23 13.4524 23 15C23 16.5476 22.9881 17.6429 22.9643 18.2857C22.8929 19.7381 22.4524 20.8691 21.6429 21.6786C20.8571 22.4643 19.7381 22.8809 18.2857 22.9286C17.6429 22.9762 16.5476 23 15 23C13.4524 23 12.3571 22.9762 11.7143 22.9286C10.2619 22.8571 9.14286 22.4286 8.35714 21.6429C8.04762 21.3571 7.79762 21.0238 7.60714 20.6429C7.41666 20.2619 7.2738 19.8929 7.17857 19.5357C7.10714 19.1786 7.07143 18.7619 7.07143 18.2857C7.0238 17.6429 7 16.5476 7 15C7 13.4524 7.0238 12.3452 7.07143 11.6786C7.14286 10.25 7.57143 9.14286 8.35714 8.35714C9.14286 7.54764 10.2619 7.10714 11.7143 7.03571C12.3571 7.01192 13.4524 7 15 7C16.5476 7 17.6429 7.01192 18.2857 7.03571C19.7381 7.10714 20.8571 7.54764 21.6429 8.35714C22.4524 9.14286 22.8929 10.2619 22.9643 11.7143ZM21.4286 19C21.3809 19.2857 21.3214 19.5238 21.25 19.7143C20.9643 20.4286 20.4524 20.9405 19.7143 21.25C19.5238 21.3214 19.2738 21.3809 18.9643 21.4286C18.6786 21.4762 18.3214 21.5119 17.8929 21.5357C17.4881 21.5595 17.1548 21.5714 16.8929 21.5714H13.0714C12.8333 21.5714 12.5 21.5595 12.0714 21.5357C11.6667 21.5119 11.3095 21.4762 11 21.4286C10.7143 21.3809 10.4762 21.3214 10.2857 21.25C9.57143 20.9643 9.05952 20.4524 8.75 19.7143C8.70238 19.5476 8.65477 19.3334 8.60714 19.0714C8.55952 18.8095 8.5238 18.5595 8.5 18.3214C8.4762 18.0595 8.45238 17.75 8.42857 17.3929V13.1071C8.42857 12.8452 8.44048 12.5119 8.46429 12.1071C8.48809 11.6786 8.5238 11.3214 8.57143 11.0357C8.61905 10.7262 8.67857 10.4762 8.75 10.2857C9.03571 9.54764 9.54762 9.03571 10.2857 8.75C10.4762 8.67857 10.7143 8.61907 11 8.57143C11.3095 8.52379 11.6667 8.48808 12.0714 8.46429C12.5 8.4405 12.8452 8.42857 13.1071 8.42857H16.8929C17.1548 8.42857 17.4881 8.4405 17.8929 8.46429C18.3214 8.48808 18.6786 8.52379 18.9643 8.57143C19.2738 8.61907 19.5238 8.67857 19.7143 8.75C20.4524 9.03571 20.9643 9.54764 21.25 10.2857C21.3214 10.4762 21.3809 10.7262 21.4286 11.0357C21.4762 11.3214 21.5119 11.6786 21.5357 12.1071C21.5595 12.5119 21.5714 12.8452 21.5714 13.1071V16.8929C21.5714 17.1548 21.5595 17.5 21.5357 17.9286C21.5119 18.3334 21.4762 18.6905 21.4286 19Z" fill="#696969"/>
</symbol>

<symbol id="linkedin" viewBox="0 0 30 30" fill="none" xmlns="http://www.w3.org/2000/svg">
<rect width="30" height="30" rx="15" fill="#F4F4F4"/>
<path fill-rule="evenodd" clip-rule="evenodd" d="M11.925 21H11.8844H9.20312V12.3062H11.925V21ZM10.5437 11.1281C10.1104 11.1281 9.74479 10.9792 9.44687 10.6812C9.14896 10.3562 9 9.99062 9 9.58437C9 9.15104 9.14896 8.78542 9.44687 8.4875C9.74479 8.1625 10.1104 8 10.5437 8C10.9771 8 11.3427 8.1625 11.6406 8.4875C11.9656 8.78542 12.1281 9.15104 12.1281 9.58437C12.1281 9.99062 11.9656 10.3562 11.6406 10.6812C11.3427 10.9792 10.9771 11.1281 10.5437 11.1281ZM22 16.2469V21H19.3187V16.775C19.3187 16.45 19.3052 16.1927 19.2781 16.0031C19.251 15.7865 19.1969 15.5427 19.1156 15.2719C19.0615 15.001 18.926 14.7979 18.7094 14.6625C18.4927 14.5271 18.2219 14.4594 17.8969 14.4594C17.274 14.4594 16.8542 14.6625 16.6375 15.0687C16.4208 15.475 16.3125 16.0167 16.3125 16.6937V21H13.5906V12.3062H16.1906V13.4844H16.2312C16.4208 13.1052 16.7323 12.7802 17.1656 12.5094C17.626 12.2385 18.1677 12.1031 18.7906 12.1031C19.4406 12.1031 19.9823 12.2115 20.4156 12.4281C20.876 12.6177 21.2146 12.9156 21.4312 13.3219C21.6479 13.701 21.7969 14.1208 21.8781 14.5812C21.9594 15.0417 22 15.5969 22 16.2469Z" fill="#696969"/>
</symbol>

<symbol id="public" viewBox="0 0 22 22" xmlns="http://www.w3.org/2000/svg">
<path d="M13.0474 10.437C14.2168 9.73893 15 8.46093 15 7C15 4.79086 13.2091 3 11 3C8.79086 3 7 4.79086 7 7C7 8.46093 7.7832 9.73893 8.95263 10.437C7.21207 11.2192 6 12.9681 6 15V18H16V15C16 12.9681 14.7879 11.2192 13.0474 10.437Z" fill="#333333"/>
<path fill-rule="evenodd" clip-rule="evenodd" d="M16.917 14H21V11.8C21 10.3099 20.1516 9.02743 18.9332 8.45382C19.7518 7.94188 20.3 7.00468 20.3 5.93333C20.3 4.3133 19.0464 3 17.5 3C16.542 3 15.6963 3.50407 15.1915 4.27286C15.7028 5.05718 16 5.99389 16 7C16 7.44599 15.9416 7.87827 15.832 8.28963C15.9075 8.34834 15.9858 8.40316 16.0668 8.45382C15.9493 8.50916 15.8352 8.57108 15.725 8.63916C15.5088 9.26223 15.173 9.82915 14.7453 10.3124C15.8722 11.214 16.6677 12.514 16.917 14ZM14.9929 7.24086C14.9976 7.16118 15 7.08087 15 7C15 6.48461 14.9025 5.99199 14.725 5.53957C14.7085 5.66836 14.7 5.79981 14.7 5.93333C14.7 6.40316 14.8054 6.84718 14.9929 7.24086ZM15.9 14H14V11.8C14 11.5447 14.0249 11.2955 14.0723 11.055C14.9949 11.7745 15.6585 12.8106 15.9 14Z" fill="#333333"/>
<path fill-rule="evenodd" clip-rule="evenodd" d="M6.80852 4.27286C6.30371 3.50407 5.45804 3 4.5 3C2.9536 3 1.7 4.3133 1.7 5.93333C1.7 7.00468 2.24824 7.94188 3.06684 8.45382C1.84845 9.02743 1 10.3099 1 11.8V14H5.08296C5.33228 12.514 6.12778 11.214 7.25473 10.3124C6.82705 9.82915 6.49117 9.26223 6.27499 8.63916C6.16478 8.57108 6.05069 8.50916 5.93316 8.45382C6.01417 8.40316 6.09253 8.34834 6.16797 8.28963C6.05843 7.87827 6 7.44599 6 7C6 5.99389 6.29717 5.05718 6.80852 4.27286ZM7.9277 11.055C7.0051 11.7745 6.34145 12.8106 6.10002 14H8V11.8C8 11.5447 7.9751 11.2955 7.9277 11.055ZM7.27499 5.53957C7.29148 5.66836 7.3 5.79981 7.3 5.93333C7.3 6.40316 7.19457 6.84718 7.00713 7.24086C7.0024 7.16118 7 7.08087 7 7C7 6.48461 7.09747 5.99199 7.27499 5.53957Z" fill="#333333"/>
</symbol>

<symbol id="structure" viewBox="0 0 22 22" xmlns="http://www.w3.org/2000/svg">
<path fill-rule="evenodd" clip-rule="evenodd" d="M11 3C11.2228 3.00746 11.4372 3.08448 11.612 3.21953L11.6211 3.21857L11.6971 3.28918L18.6775 9.0457C18.6952 9.06031 18.7119 9.07606 18.7275 9.09284C18.8592 9.23463 18.9477 9.40976 18.983 9.59841C19.0181 9.78692 18.9987 9.9816 18.9268 10.1599C18.8549 10.3383 18.7333 10.4933 18.5761 10.6073C18.4187 10.7214 18.232 10.7899 18.037 10.8052C18.0232 10.8063 18.0092 10.8068 17.9953 10.8068H17.2786L17.3466 17.9693L17.3466 17.974C17.3466 18.246 17.2364 18.5068 17.0402 18.6991C16.844 18.8913 16.5779 18.9994 16.3003 18.9994H13.1615C12.884 18.9994 12.6178 18.8913 12.4216 18.6991C12.2254 18.5068 12.1152 18.246 12.1152 17.974V14.493C12.1152 14.4908 12.1152 14.4886 12.1152 14.4864C12.1152 14.4837 12.1153 14.481 12.1154 14.4783C12.1389 13.6731 12.0857 13.088 11.9055 12.7135C11.8228 12.5416 11.7197 12.4288 11.5913 12.3537C11.4661 12.2806 11.2814 12.2228 11 12.2171V12.2177C10.7186 12.2234 10.5339 12.2812 10.4087 12.3543C10.2803 12.4294 10.1772 12.5422 10.0945 12.7141C9.91426 13.0886 9.86107 13.6737 9.88462 14.4789C9.88469 14.4815 9.88475 14.4841 9.88478 14.4867C9.88481 14.489 9.88483 14.4913 9.88483 14.4936V17.9746C9.88483 18.2466 9.77456 18.5074 9.57838 18.6997C9.38219 18.8919 9.11604 19 8.83854 19H5.69966C5.42215 19 5.156 18.8919 4.95982 18.6997C4.76364 18.5074 4.65336 18.2466 4.65336 17.9746L4.65339 17.9699L4.72135 10.8074H4.00466C3.99075 10.8074 3.97684 10.8069 3.96298 10.8058C3.76805 10.7905 3.58128 10.722 3.42389 10.6079C3.26667 10.4939 3.14509 10.3389 3.07317 10.1605C3.0013 9.9822 2.98192 9.78752 3.01705 9.599C3.0523 9.41035 3.14082 9.23522 3.27253 9.09344C3.28812 9.07666 3.30483 9.06091 3.32255 9.04629L10.3029 3.28978L10.3789 3.21917L10.388 3.22013C10.5628 3.08508 10.7772 3.00806 11 3.0006V3Z" fill="#333333"/>
</symbol>

<symbol id="tel" viewBox="0 0 22 22" xmlns="http://www.w3.org/2000/svg">
<path d="M14.4979 12.1969L11.9719 14.7228L6.92 9.67091L9.44596 7.14494C9.74589 6.84502 9.74589 6.35946 9.44596 6.0603L5.61061 2.22494C5.31068 1.92502 4.82512 1.92502 4.52597 2.22494L2 4.75091C2 13.2401 8.40121 19.6428 16.8919 19.6428L19.4179 17.1169C19.7178 16.8169 19.7178 16.3314 19.4179 16.0322L15.5825 12.1969C15.2834 11.8977 14.7971 11.8977 14.4979 12.1969Z" fill="#333333"/>
</symbol>

<symbol id="web" viewBox="0 0 32 32" fill="none" xmlns="http://www.w3.org/2000/svg">
<rect x="11" y="10" width="2" height="2" fill="#333333"/>
<path d="M6.75 16C6.75 13.6528 8.65279 11.75 11 11.75H13C15.3472 11.75 17.25 13.6528 17.25 16V23C17.25 25.8995 14.8995 28.25 12 28.25C9.10051 28.25 6.75 25.8995 6.75 23V16Z" stroke="#333333" stroke-width="1.5"/>
<rect x="11" y="14.5" width="2" height="5" rx="1" fill="#333333"/>
<path d="M12 10.5C12 9.33333 12 9.7 12 8.5C12 7 13 3 16.9999 3C20.9998 3 21.9999 7 21.9999 9.5C21.9999 12 21.9999 11 21.9999 12.5C21.9999 14 22.4999 17 24.9999 17C27.4999 17 27.9999 14.5 27.9999 12.5" stroke="#333333" stroke-width="1.5"/>
</symbol>

<symbol id="watch" viewBox="0 0 32 32" fill="none" xmlns="http://www.w3.org/2000/svg">
<path d="M8 16C9.25818 18.3413 12.3636 20 16 20C19.6364 20 22.7418 18.3413 24 16" stroke="#333333" stroke-width="1.5" stroke-linecap="round"/>
<path fill-rule="evenodd" clip-rule="evenodd" d="M16 12C13.7867 12 12 13.7867 12 16C12 18.2133 13.7867 20 16 20C18.2133 20 20 18.2133 20 16C20 13.7867 18.2133 12 16 12Z" stroke="#333333" stroke-width="1.5" stroke-linecap="round"/>
<path d="M8 16C9.25818 13.6587 12.3636 12 16 12C19.6364 12 22.7418 13.6587 24 16" stroke="#333333" stroke-width="1.5" stroke-linecap="round"/>
<circle cx="16" cy="16" r="11.25" stroke="#333333" stroke-width="1.5"/>
<path d="M24 24.5L28 28.5" stroke="#333333" stroke-width="1.5" stroke-linecap="round"/>
<circle cx="16" cy="16" r="1.5" fill="#333333"/>
</symbol>

<symbol id="docs" viewBox="0 0 32 32" fill="none" xmlns="http://www.w3.org/2000/svg">
<rect x="11" y="2" width="16" height="21" rx="2" fill="white" stroke="#333333" stroke-width="1.5" stroke-linecap="round"/>
<rect x="7" y="6" width="16" height="21" rx="2" fill="white" stroke="#333333" stroke-width="1.5" stroke-linecap="round"/>
<path d="M11 15H19" stroke="#333333" stroke-width="1.5" stroke-linecap="round"/>
<path d="M11 19H19" stroke="#333333" stroke-width="1.5" stroke-linecap="round"/>
<path d="M11 23H19" stroke="#333333" stroke-width="1.5" stroke-linecap="round"/>
</symbol>

<symbol id="workhere" viewBox="0 0 32 32" fill="none" xmlns="http://www.w3.org/2000/svg">
<path d="M17.4211 8.42773L18.0467 8.01412C17.8931 7.78179 17.6234 7.65371 17.3463 7.68147C17.0692 7.70923 16.8303 7.88827 16.7258 8.14644L17.4211 8.42773ZM8.76791 27.8156C8.61255 28.1996 8.79789 28.6368 9.18187 28.7922C9.56584 28.9475 10.0031 28.7622 10.1584 28.3782L8.76791 27.8156ZM15.5263 8.42773L16.2178 8.71816C16.331 8.44856 16.2773 8.13774 16.08 7.92186C15.8828 7.70598 15.5781 7.62441 15.2994 7.71289L15.5263 8.42773ZM12.5436 15.5295L13.2351 15.8199L12.5436 15.5295ZM12.9615 17.2587L13.444 16.6846L12.9615 17.2587ZM18.5579 21.9616L19.2597 21.697C19.2143 21.5767 19.1388 21.4701 19.0404 21.3874L18.5579 21.9616ZM20.5087 29.2637C20.6548 29.6513 21.0875 29.8471 21.4751 29.701C21.8626 29.5549 22.0584 29.1222 21.9123 28.7346L20.5087 29.2637ZM10.4105 10.0518L10.1836 9.33695C10.075 9.37141 9.97576 9.43014 9.89328 9.50869L10.4105 10.0518ZM6.48276 12.7568C6.18281 13.0425 6.17123 13.5172 6.4569 13.8172C6.74256 14.1171 7.21729 14.1287 7.51724 13.843L6.48276 12.7568ZM20.6421 13.2999L20.0165 13.7135C20.104 13.846 20.2314 13.9472 20.3802 14.0027L20.6421 13.2999ZM24.7381 15.6268C25.1262 15.7714 25.5581 15.574 25.7028 15.1859C25.8474 14.7977 25.65 14.3658 25.2619 14.2212L24.7381 15.6268ZM16.7258 8.14644L12.9279 17.5335L14.3184 18.096L18.1163 8.70902L16.7258 8.14644ZM12.9279 17.5335L8.76791 27.8156L10.1584 28.3782L14.3184 18.096L12.9279 17.5335ZM14.8348 8.13731L11.8521 15.2391L13.2351 15.8199L16.2178 8.71816L14.8348 8.13731ZM12.479 17.8329L13.1407 18.3889L14.1057 17.2406L13.444 16.6846L12.479 17.8329ZM13.1407 18.3889L18.0754 22.5358L19.0404 21.3874L14.1057 17.2406L13.1407 18.3889ZM17.8561 22.2261L20.5087 29.2637L21.9123 28.7346L19.2597 21.697L17.8561 22.2261ZM15.2994 7.71289L10.1836 9.33695L10.6375 10.7666L15.7533 9.14258L15.2994 7.71289ZM9.89328 9.50869L6.48276 12.7568L7.51724 13.843L10.9278 10.5949L9.89328 9.50869ZM16.7954 8.84135L20.0165 13.7135L21.2677 12.8863L18.0467 8.01412L16.7954 8.84135ZM20.3802 14.0027L24.7381 15.6268L25.2619 14.2212L20.904 12.5971L20.3802 14.0027ZM11.8521 15.2391C11.4705 16.1477 11.7245 17.1989 12.479 17.8329L13.444 16.6846C13.1925 16.4732 13.1078 16.1228 13.2351 15.8199L11.8521 15.2391Z" fill="#333333"/>
<circle cx="17.2853" cy="4.57143" r="1.82143" fill="#333333" stroke="#333333" stroke-width="1.5"/>
<ellipse cx="16.4616" cy="8.06669" rx="1.74777" ry="0.783482" fill="#333333"/>
</symbol>

<symbol id="advisor" viewBox="0 0 32 32" fill="none" xmlns="http://www.w3.org/2000/svg">
<path d="M14.5 2.86603C15.4282 2.33013 16.5718 2.33013 17.5 2.86603L26.6244 8.13397C27.5526 8.66987 28.1244 9.66025 28.1244 10.7321V21.2679C28.1244 22.3397 27.5526 23.3301 26.6244 23.866L17.5 29.134C16.5718 29.6699 15.4282 29.6699 14.5 29.134L5.37564 23.866C4.44744 23.3301 3.87564 22.3397 3.87564 21.2679V10.7321C3.87564 9.66025 4.44744 8.66987 5.37564 8.13397L14.5 2.86603Z" stroke="#333333" stroke-width="1.5"/>
<path d="M18.5906 17.1168L16.0096 18.7232L13.4285 17.1168V13.904L16.0096 12.2767L18.5416 13.8731H22L22 11.7552L16.0097 8L10 11.7552V19.2656L16.0097 23L22 19.2656V17.1168L18.5906 17.1168Z" stroke="#333333" stroke-width="1.5"/>
</symbol>

<symbol id="printStructure" viewBox="0 0 32 32" fill="none" xmlns="http://www.w3.org/2000/svg">
<path d="M8 11.9993V2.66602H24V11.9993" stroke="#333333" stroke-width="1.5" stroke-linecap="round" stroke-linejoin="round"/>
<path d="M8.00033 24H5.33366C4.62641 24 3.94814 23.719 3.44804 23.219C2.94794 22.7189 2.66699 22.0406 2.66699 21.3333V14.6667C2.66699 13.9594 2.94794 13.2811 3.44804 12.781C3.94814 12.281 4.62641 12 5.33366 12H26.667C27.3742 12 28.0525 12.281 28.5526 12.781C29.0527 13.2811 29.3337 13.9594 29.3337 14.6667V21.3333C29.3337 22.0406 29.0527 22.7189 28.5526 23.219C28.0525 23.719 27.3742 24 26.667 24H24.0003" stroke="#333333" stroke-width="1.5" stroke-linecap="round" stroke-linejoin="round"/>
<path d="M24 18.666H8V29.3327H24V18.666Z" stroke="#333333" stroke-width="1.5" stroke-linecap="round" stroke-linejoin="round"/>
</symbol>

<symbol id="services" viewBox="0 0 32 32" xmlns="http://www.w3.org/2000/svg">
<path d="M26.1416 18.2344C26.3994 18.349 26.4854 18.5495 26.3994 18.8359C25.9124 20.3542 25.1247 21.7005 24.0361 22.875C23.8643 23.0755 23.6637 23.1185 23.4346 23.0039L21.5869 21.9297C20.8135 22.5885 19.9398 23.0898 18.9658 23.4336V25.5391C18.9658 25.8255 18.8369 25.9974 18.5791 26.0547C17.0036 26.3984 15.4424 26.3984 13.8955 26.0547C13.609 25.9974 13.4658 25.8255 13.4658 25.5391V23.4336C12.4919 23.0898 11.6182 22.5885 10.8447 21.9297L9.04004 23.0039C8.78223 23.1185 8.56738 23.0755 8.39551 22.875C7.30697 21.7005 6.51921 20.3542 6.03223 18.8359C5.94629 18.5781 6.03223 18.3776 6.29004 18.2344L8.09473 17.1602C8.00879 16.6732 7.96582 16.1719 7.96582 15.6562C7.96582 15.1406 8.00879 14.6393 8.09473 14.1523L6.29004 13.0781C6.03223 12.9635 5.94629 12.763 6.03223 12.4766C6.51921 10.9583 7.30697 9.61198 8.39551 8.4375C8.56738 8.23698 8.78223 8.20833 9.04004 8.35156L10.8447 9.38281C11.6182 8.72396 12.4919 8.22266 13.4658 7.87891V5.77344C13.4658 5.48698 13.5947 5.3151 13.8525 5.25781C15.4281 4.91406 17.0036 4.91406 18.5791 5.25781C18.8369 5.3151 18.9658 5.48698 18.9658 5.77344V7.87891C19.9398 8.22266 20.8135 8.72396 21.5869 9.38281L23.3916 8.30859C23.6494 8.19401 23.8643 8.23698 24.0361 8.4375C25.1247 9.61198 25.9124 10.9583 26.3994 12.4766C26.4854 12.763 26.3994 12.9635 26.1416 13.0781L24.3369 14.1523C24.5088 15.1549 24.5088 16.1576 24.3369 17.1602L26.1416 18.2344ZM13.7666 18.1055C14.4541 18.7643 15.2705 19.0938 16.2158 19.0938C17.1611 19.0938 17.9632 18.7643 18.6221 18.1055C19.3096 17.418 19.6533 16.6016 19.6533 15.6562C19.6533 14.7109 19.3096 13.9089 18.6221 13.25C17.9632 12.5625 17.1611 12.2188 16.2158 12.2188C15.2705 12.2188 14.4541 12.5625 13.7666 13.25C13.1077 13.9089 12.7783 14.7109 12.7783 15.6562C12.7783 16.6016 13.1077 17.418 13.7666 18.1055Z" fill="black"/>
</symbol>

<symbol id="print" viewBox="0 0 32 32" xmlns="http://www.w3.org/2000/svg">
<rect x="10" y="8" width="12" height="5" stroke-width="2" fill="none"/>
<rect x="10" y="17" width="12" height="8" stroke-width="2" fill="none"/>
<path fill-rule="evenodd" clip-rule="evenodd" d="M6 12C5.44772 12 5 12.4477 5 13V21H9V17H23V21H27V13C27 12.4477 26.5523 12 26 12H6Z"/>
</symbol>

<symbol id="menu" viewBox="0 0 32 32" fill="none" xmlns="http://www.w3.org/2000/svg">
<rect x="5" y="9" width="23" height="2" rx="1" fill="#333333"/>
<rect x="5" y="15" width="23" height="2" rx="1" fill="#333333"/>
<rect x="5" y="21" width="23" height="2" rx="1" fill="#333333"/>
</symbol>

<symbol id="news-location" viewBox="0 0 29 31" xmlns="http://www.w3.org/2000/svg">
<path d="M13.8789 7.40777L13.8789 1.18555" stroke-linecap="round" stroke-linejoin="round"/>
<path d="M13.3789 3.44639V1.86578C13.3665 1.85795 13.3533 1.84995 13.3392 1.84189C13.2087 1.76732 13.0017 1.68555 12.7122 1.68555C12.4228 1.68555 12.2158 1.76732 12.0853 1.84189C12.0712 1.84995 12.058 1.85795 12.0456 1.86578V3.44639C12.2373 3.38974 12.4598 3.35221 12.7122 3.35221C12.9647 3.35221 13.1872 3.38974 13.3789 3.44639Z"/>
<path d="M11.0469 2.81338V4.39398C11.0345 4.40181 11.0212 4.40981 11.0071 4.41787C10.8766 4.49245 10.6696 4.57422 10.3802 4.57422C10.0908 4.57422 9.88378 4.49245 9.75328 4.41787C9.73917 4.40981 9.72592 4.40181 9.71354 4.39398V2.81338C9.90529 2.87003 10.1278 2.90755 10.3802 2.90755C10.6326 2.90755 10.8551 2.87003 11.0469 2.81338Z"/>
<path d="M4.34813 13.1299L14.2096 7.21298L24.0711 13.1299H4.34813Z"/>
<path d="M3.04297 14.1299H25.3763V14.1854C25.3763 14.4616 25.1524 14.6854 24.8763 14.6854H3.54297C3.26683 14.6854 3.04297 14.4616 3.04297 14.1854V14.1299Z" stroke-width="0.777778"/>
<path d="M3.04297 27.3521H25.3763V27.9076H3.04297V27.3521Z" stroke-width="0.777778"/>
<path d="M0.710938 29.6855H27.7109V30.2411H0.710938V29.6855Z" stroke-width="0.777778"/>
<rect x="5.37891" y="16.4634" width="1.33333" height="9.11111"/>
<rect x="10.8203" y="16.4634" width="1.33333" height="9.11111"/>
<rect x="16.2656" y="16.4634" width="1.33333" height="9.11111"/>
<rect x="21.7109" y="16.4634" width="1.33333" height="9.11111"/>
</symbol>

<symbol id="news-public" viewBox="0 0 32 32" xmlns="http://www.w3.org/2000/svg">
<path d="M23.5985 23.9446C24.6326 23.3273 25.3251 22.1973 25.3251 20.9055C25.3251 18.9522 23.7416 17.3687 21.7882 17.3687C19.8349 17.3687 18.2514 18.9522 18.2514 20.9055C18.2514 22.1973 18.9439 23.3273 19.9779 23.9446C18.4389 24.6362 17.3672 26.1825 17.3672 27.9792V29.5265H26.2093V27.9792C26.2093 26.1825 25.1376 24.6362 23.5985 23.9446Z" stroke="none"/>
<path d="M11.4423 23.9446C12.4763 23.3273 13.1688 22.1973 13.1688 20.9055C13.1688 18.9522 11.5853 17.3687 9.63199 17.3687C7.67865 17.3687 6.09515 18.9522 6.09515 20.9055C6.09515 22.1973 6.78766 23.3273 7.82169 23.9446C6.28266 24.6362 5.21094 26.1825 5.21094 27.9792V29.5265H14.053V27.9792C14.053 26.1825 12.9813 24.6362 11.4423 23.9446Z" stroke="none"/>
<path d="M16.9696 9.5759C18.0037 8.95863 18.6962 7.82861 18.6962 6.53684C18.6962 4.5835 17.1127 3 15.1593 3C13.206 3 11.6225 4.5835 11.6225 6.53684C11.6225 7.82861 12.315 8.95863 13.349 9.5759C11.81 10.2675 10.7383 11.8139 10.7383 13.6105V15.1579H19.5804V13.6105C19.5804 11.8139 18.5087 10.2675 16.9696 9.5759Z" stroke="none"/>
</symbol>

<symbol id="news-header" viewBox="0 0 89 88" fill="none" xmlns="http://www.w3.org/2000/svg">
<path d="M63.5 72H27.0391C29.1476 70.3259 30.5 67.7505 30.5 64.8571V17H70.5V65C70.5 68.866 67.3659 72 63.5 72Z" stroke="#828282" stroke-width="2"/>
<path fill-rule="evenodd" clip-rule="evenodd" d="M36.5 52C36.5 51.4477 36.9477 51 37.5 51H63.5C64.0523 51 64.5 51.4477 64.5 52C64.5 52.5523 64.0523 53 63.5 53H37.5C36.9477 53 36.5 52.5523 36.5 52ZM36.5 58C36.5 57.4477 36.9477 57 37.5 57H63.5C64.0523 57 64.5 57.4477 64.5 58C64.5 58.5523 64.0523 59 63.5 59H37.5C36.9477 59 36.5 58.5523 36.5 58ZM37.5 63C36.9477 63 36.5 63.4477 36.5 64C36.5 64.5523 36.9477 65 37.5 65H52.5C53.0523 65 53.5 64.5523 53.5 64C53.5 63.4477 53.0523 63 52.5 63H37.5Z" fill="#828282"/>
<path d="M30.5 72C27 72 27 72 23 72C18.8055 71.702 15.5 68.3806 15.5 64.327V55H30" stroke="#828282" stroke-width="2"/>
<path fill-rule="evenodd" clip-rule="evenodd" d="M15.9211 67.663C16.1618 68.4235 16.5012 69.1312 16.9283 69.7667L29.5 57.195V55L28.5841 55L15.9211 67.663ZM20.9667 72.7284C20.1942 72.5073 19.4861 72.1679 18.8539 71.7302L29.5 61.0841V64.195L20.9667 72.7284ZM25.4046 72.1795C26.7069 71.4951 27.7523 70.4308 28.4608 69.1232L25.4046 72.1795ZM24.695 55L21.5841 55L15.5 61.0841V64.195L24.695 55ZM15.5 55L17.695 55L15.5 57.195V55Z" fill="#828282"/>
<rect x="34.5" y="24" width="32" height="20" rx="2" fill="#BDBDBD"/>
</symbol>



<symbol id="calendar" viewBox="0 0 22 22" xmlns="http://www.w3.org/2000/svg">
<path d="M8 10H5V13H8V10Z" fill="#333333"/>
<path fill-rule="evenodd" clip-rule="evenodd" d="M6 2C5.44772 2 5 2.44772 5 3V4H3C2.44772 4 2 4.44772 2 5V19C2 19.5523 2.44772 20 3 20H19C19.5523 20 20 19.5523 20 19V5C20 4.44772 19.5523 4 19 4H17V3C17 2.44772 16.5523 2 16 2C15.4477 2 15 2.44772 15 3V4H7V3C7 2.44772 6.55229 2 6 2ZM4 9V18H18V9H4Z" fill="#333333"/>
</symbol>

<symbol id="group" viewBox="0 0 22 22" xmlns="http://www.w3.org/2000/svg">
<path d="M13.0474 10.437C14.2168 9.73893 15 8.46093 15 7C15 4.79086 13.2091 3 11 3C8.79086 3 7 4.79086 7 7C7 8.46093 7.7832 9.73893 8.95263 10.437C7.21207 11.2192 6 12.9681 6 15V18H16V15C16 12.9681 14.7879 11.2192 13.0474 10.437Z" fill="#333333"/>
<path fill-rule="evenodd" clip-rule="evenodd" d="M16.917 14H21V11.8C21 10.3099 20.1516 9.02743 18.9332 8.45382C19.7518 7.94188 20.3 7.00468 20.3 5.93333C20.3 4.3133 19.0464 3 17.5 3C16.542 3 15.6963 3.50407 15.1915 4.27286C15.7028 5.05718 16 5.99389 16 7C16 7.44599 15.9416 7.87827 15.832 8.28963C15.9075 8.34834 15.9858 8.40316 16.0668 8.45382C15.9493 8.50916 15.8352 8.57108 15.725 8.63916C15.5088 9.26223 15.173 9.82915 14.7453 10.3124C15.8722 11.214 16.6677 12.514 16.917 14ZM14.9929 7.24086C14.9976 7.16118 15 7.08087 15 7C15 6.48461 14.9025 5.99199 14.725 5.53957C14.7085 5.66836 14.7 5.79981 14.7 5.93333C14.7 6.40316 14.8054 6.84718 14.9929 7.24086ZM15.9 14H14V11.8C14 11.5447 14.0249 11.2955 14.0723 11.055C14.9949 11.7745 15.6585 12.8106 15.9 14Z" fill="#333333"/>
<path fill-rule="evenodd" clip-rule="evenodd" d="M6.80852 4.27286C6.30371 3.50407 5.45804 3 4.5 3C2.9536 3 1.7 4.3133 1.7 5.93333C1.7 7.00468 2.24824 7.94188 3.06684 8.45382C1.84845 9.02743 1 10.3099 1 11.8V14H5.08296C5.33228 12.514 6.12778 11.214 7.25473 10.3124C6.82705 9.82915 6.49117 9.26223 6.27499 8.63916C6.16478 8.57108 6.05069 8.50916 5.93316 8.45382C6.01417 8.40316 6.09253 8.34834 6.16797 8.28963C6.05843 7.87827 6 7.44599 6 7C6 5.99389 6.29717 5.05718 6.80852 4.27286ZM7.9277 11.055C7.0051 11.7745 6.34145 12.8106 6.10002 14H8V11.8C8 11.5447 7.9751 11.2955 7.9277 11.055ZM7.27499 5.53957C7.29148 5.66836 7.3 5.79981 7.3 5.93333C7.3 6.40316 7.19457 6.84718 7.00713 7.24086C7.0024 7.16118 7 7.08087 7 7C7 6.48461 7.09747 5.99199 7.27499 5.53957Z" fill="#333333"/>
</symbol>

<symbol id="mdm" viewBox="0 0 19 24" xmlns="http://www.w3.org/2000/svg">
<mask id="path-1-outside-1" maskUnits="userSpaceOnUse" x="0" y="-0.108661" width="19" height="24" fill="black">
<rect fill="white" y="-0.108661" width="19" height="24"/>
<path fill-rule="evenodd" clip-rule="evenodd" d="M2.84054 5.57617C1.72559 6.04339 1 7.13416 1 8.34305V23H8V18.5C8 17.6716 8.67157 17 9.5 17C10.3284 17 11 17.6716 11 18.5V23H18V8.40362C18 7.1644 17.2381 6.05271 16.0823 5.60565L14.5555 5.01505C14.1291 4.85011 13.746 4.5899 13.4355 4.2543L10.9183 1.5332C10.1451 0.6974 8.83121 0.674761 8.0297 1.48343L5.19821 4.34019C4.92065 4.62023 4.5906 4.84281 4.22694 4.9952L2.84054 5.57617Z"/>
</mask>
<path d="M2.84054 5.57617L3.03378 6.03731L2.84054 5.57617ZM1 23H0.5V23.5H1V23ZM8 23V23.5H8.5V23H8ZM11 23H10.5V23.5H11V23ZM18 23V23.5H18.5V23H18ZM16.0823 5.60565L16.2627 5.13932L16.0823 5.60565ZM14.5555 5.01505L14.3751 5.48138H14.3751L14.5555 5.01505ZM13.4355 4.2543L13.0685 4.59383V4.59383L13.4355 4.2543ZM10.9183 1.5332L11.2854 1.19366V1.19366L10.9183 1.5332ZM8.0297 1.48343L8.38482 1.8354V1.8354L8.0297 1.48343ZM5.19821 4.34019L4.84309 3.98821L5.19821 4.34019ZM4.22694 4.9952L4.42019 5.45634L4.22694 4.9952ZM1.5 8.34305C1.5 7.33564 2.10466 6.42666 3.03378 6.03731L2.6473 5.11502C1.34652 5.66011 0.5 6.93268 0.5 8.34305H1.5ZM1.5 23V8.34305H0.5V23H1.5ZM8 22.5H1V23.5H8V22.5ZM8.5 23V18.5H7.5V23H8.5ZM8.5 18.5C8.5 17.9477 8.94772 17.5 9.5 17.5V16.5C8.39543 16.5 7.5 17.3954 7.5 18.5H8.5ZM9.5 17.5C10.0523 17.5 10.5 17.9477 10.5 18.5H11.5C11.5 17.3954 10.6046 16.5 9.5 16.5V17.5ZM10.5 18.5V23H11.5V18.5H10.5ZM18 22.5H11V23.5H18V22.5ZM17.5 8.40362V23H18.5V8.40362H17.5ZM15.9019 6.07197C16.865 6.44453 17.5 7.37094 17.5 8.40362H18.5C18.5 6.95786 17.6111 5.66089 16.2627 5.13932L15.9019 6.07197ZM14.3751 5.48138L15.9019 6.07197L16.2627 5.13932L14.7359 4.54872L14.3751 5.48138ZM13.0685 4.59383C13.4307 4.98537 13.8776 5.28895 14.3751 5.48138L14.7359 4.54872C14.3805 4.41127 14.0613 4.19443 13.8026 3.91476L13.0685 4.59383ZM10.5513 1.87273L13.0685 4.59383L13.8026 3.91476L11.2854 1.19366L10.5513 1.87273ZM8.38482 1.8354C8.98595 1.22891 9.97141 1.24589 10.5513 1.87273L11.2854 1.19366C10.3189 0.148915 8.67647 0.120616 7.67458 1.13145L8.38482 1.8354ZM5.55333 4.69216L8.38482 1.8354L7.67458 1.13145L4.84309 3.98821L5.55333 4.69216ZM4.42019 5.45634C4.84445 5.27856 5.22951 5.01888 5.55333 4.69216L4.84309 3.98821C4.61179 4.22158 4.33675 4.40706 4.0337 4.53405L4.42019 5.45634ZM3.03378 6.03731L4.42019 5.45634L4.0337 4.53405L2.6473 5.11502L3.03378 6.03731Z" fill="white" mask="url(#path-1-outside-1)"/>
<path fill-rule="evenodd" clip-rule="evenodd" d="M2.84054 5.57617C1.72559 6.04339 1 7.13416 1 8.34305V23H8V18.5C8 17.6716 8.67157 17 9.5 17C10.3284 17 11 17.6716 11 18.5V23H18V8.40362C18 7.1644 17.2381 6.05271 16.0823 5.60565L14.5555 5.01505C14.1291 4.85011 13.746 4.5899 13.4355 4.2543L10.9183 1.5332C10.1451 0.6974 8.83121 0.674761 8.0297 1.48343L5.19821 4.34018C4.92065 4.62023 4.5906 4.84281 4.22694 4.9952L2.84054 5.57617ZM11 4.5C11 5.32843 10.3284 6 9.5 6C8.67157 6 8 5.32843 8 4.5C8 3.67157 8.67157 3 9.5 3C10.3284 3 11 3.67157 11 4.5ZM4.25 15.9354C3.54057 16.0544 3 16.6714 3 17.4146V18.75H4.25V15.9354ZM3 21.9146V19.25H4.25V21.9146H3ZM4.75 21.9146V19.25H6V21.9146H4.75ZM6 17.4146V18.75H4.75V15.9354C5.45943 16.0544 6 16.6714 6 17.4146ZM13 17.4146C13 16.6714 13.5406 16.0544 14.25 15.9354V18.75H13V17.4146ZM13 19.25V21.9146H14.25V19.25H13ZM14.75 19.25V21.9146H16V19.25H14.75ZM16 18.75V17.4146C16 16.6714 15.4594 16.0544 14.75 15.9354V18.75H16ZM14.25 8C13.5406 8.11902 13 8.73601 13 9.47926V10.8146H14.25V8ZM13 13.9793V11.3146H14.25V13.9793H13ZM14.75 13.9793V11.3146H16V13.9793H14.75ZM16 9.47926V10.8146H14.75V8C15.4594 8.11902 16 8.73601 16 9.47926ZM8 9.47926C8 8.73601 8.54057 8.11902 9.25 8V10.8146H8V9.47926ZM8 11.3146V13.9793H9.25V11.3146H8ZM9.75 11.3146V13.9793H11V11.3146H9.75ZM11 10.8146V9.47926C11 8.73601 10.4594 8.11902 9.75 8V10.8146H11ZM4.25 8C3.54057 8.11902 3 8.73601 3 9.47926V10.8146H4.25V8ZM3 13.9793V11.3146H4.25V13.9793H3ZM4.75 13.9793V11.3146H6V13.9793H4.75ZM6 9.47926V10.8146H4.75V8C5.45943 8.11902 6 8.73601 6 9.47926Z" stroke="none"/>
</symbol>

<symbol id="mdm" viewBox="0 0 18 24" fill="none" xmlns="http://www.w3.org/2000/svg">
<path fill-rule="evenodd" clip-rule="evenodd" d="M0 23.1087V7.95171C0 6.54134 0.84652 5.26877 2.1473 4.72368L3.5337 4.14271C3.83675 4.01572 4.11179 3.83024 4.34309 3.59687L7.17458 0.740107C8.17647 -0.270723 9.81889 -0.242424 10.7854 0.802322L13.3026 3.52342C13.5613 3.80309 13.8805 4.01994 14.2359 4.15738L15.7627 4.74798C17.1111 5.26956 18 6.56652 18 8.01228V23.1087H10V18.1087C10 17.5564 9.55229 17.1087 9 17.1087C8.44772 17.1087 8 17.5564 8 18.1087V23.1087H0ZM10.5 22.6087V18.1087C10.5 17.2802 9.82843 16.6087 9 16.6087C8.17157 16.6087 7.5 17.2802 7.5 18.1087V22.6087H0.5V7.95171C0.5 6.74282 1.22559 5.65205 2.34054 5.18483L3.72694 4.60386C4.0906 4.45147 4.42065 4.22889 4.69821 3.94885L7.5297 1.09209C8.33121 0.283422 9.64515 0.306061 10.4183 1.14186L12.9355 3.86296C13.246 4.19857 13.6291 4.45878 14.0555 4.62371L15.5823 5.21431C16.7381 5.66137 17.5 6.77306 17.5 8.01228V22.6087H10.5Z" fill="white"/>
<path fill-rule="evenodd" clip-rule="evenodd" d="M2.34054 5.18483C1.22559 5.65205 0.5 6.74282 0.5 7.95171V22.6087L7.5 22.6087V18.1087C7.5 17.2802 8.17157 16.6087 9 16.6087C9.82843 16.6087 10.5 17.2802 10.5 18.1087V22.6087L17.5 22.6087V8.01228C17.5 6.77306 16.7381 5.66137 15.5823 5.21431L14.0555 4.62371C13.6291 4.45877 13.246 4.19856 12.9355 3.86296L10.4183 1.14186C9.64515 0.306061 8.33121 0.283422 7.5297 1.09209L4.69821 3.94885C4.42065 4.22889 4.0906 4.45147 3.72694 4.60386L2.34054 5.18483ZM10.5 4.10866C10.5 4.93709 9.82843 5.60866 9 5.60866C8.17157 5.60866 7.5 4.93709 7.5 4.10866C7.5 3.28023 8.17157 2.60866 9 2.60866C9.82843 2.60866 10.5 3.28023 10.5 4.10866ZM3.75 15.544C3.04057 15.6631 2.5 16.2801 2.5 17.0233V18.3587H3.75V15.544ZM2.5 21.5233V18.8587H3.75V21.5233H2.5ZM4.25 21.5233V18.8587H5.5V21.5233H4.25ZM5.5 17.0233V18.3587H4.25V15.544C4.95943 15.6631 5.5 16.2801 5.5 17.0233ZM12.5 17.0233C12.5 16.2801 13.0406 15.6631 13.75 15.544V18.3587H12.5V17.0233ZM12.5 18.8587V21.5233H13.75V18.8587H12.5ZM14.25 18.8587V21.5233H15.5V18.8587H14.25ZM15.5 18.3587V17.0233C15.5 16.2801 14.9594 15.6631 14.25 15.544V18.3587H15.5ZM13.75 7.60866C13.0406 7.72768 12.5 8.34467 12.5 9.08792V10.4233H13.75V7.60866ZM12.5 13.5879V10.9233H13.75V13.5879H12.5ZM14.25 13.5879V10.9233H15.5V13.5879H14.25ZM15.5 9.08792V10.4233H14.25V7.60866C14.9594 7.72768 15.5 8.34467 15.5 9.08792ZM7.5 9.08792C7.5 8.34467 8.04057 7.72768 8.75 7.60866V10.4233H7.5V9.08792ZM7.5 10.9233V13.5879H8.75V10.9233H7.5ZM9.25 10.9233V13.5879H10.5V10.9233H9.25ZM10.5 10.4233V9.08792C10.5 8.34467 9.95943 7.72768 9.25 7.60866V10.4233H10.5ZM3.75 7.60866C3.04057 7.72768 2.5 8.34467 2.5 9.08792V10.4233H3.75V7.60866ZM2.5 13.5879V10.9233H3.75V13.5879H2.5ZM4.25 13.5879V10.9233H5.5V13.5879H4.25ZM5.5 9.08792V10.4233H4.25V7.60866C4.95943 7.72768 5.5 8.34467 5.5 9.08792Z"/>
</symbol>

<symbol id="mdmActive" viewBox="0 0 18 24" fill="none" xmlns="http://www.w3.org/2000/svg">
<path fill-rule="evenodd" clip-rule="evenodd" d="M0 23.1087V7.95171C0 6.54134 0.84652 5.26877 2.1473 4.72368L3.5337 4.14271C3.83675 4.01572 4.11179 3.83024 4.34309 3.59687L7.17458 0.740107C8.17647 -0.270723 9.81889 -0.242424 10.7854 0.802322L13.3026 3.52342C13.5613 3.80309 13.8805 4.01994 14.2359 4.15738L15.7627 4.74798C17.1111 5.26956 18 6.56652 18 8.01228V23.1087H10V18.1087C10 17.5564 9.55229 17.1087 9 17.1087C8.44772 17.1087 8 17.5564 8 18.1087V23.1087H0ZM10.5 22.6087V18.1087C10.5 17.2802 9.82843 16.6087 9 16.6087C8.17157 16.6087 7.5 17.2802 7.5 18.1087V22.6087H0.5V7.95171C0.5 6.74282 1.22559 5.65205 2.34054 5.18483L3.72694 4.60386C4.0906 4.45147 4.42065 4.22889 4.69821 3.94885L7.5297 1.09209C8.33121 0.283422 9.64515 0.306061 10.4183 1.14186L12.9355 3.86296C13.246 4.19857 13.6291 4.45878 14.0555 4.62371L15.5823 5.21431C16.7381 5.66137 17.5 6.77306 17.5 8.01228V22.6087H10.5Z" fill="white"/>
<path fill-rule="evenodd" clip-rule="evenodd" d="M2.34054 5.18483C1.22559 5.65205 0.5 6.74282 0.5 7.95171V22.6087L7.5 22.6087V18.1087C7.5 17.2802 8.17157 16.6087 9 16.6087C9.82843 16.6087 10.5 17.2802 10.5 18.1087V22.6087L17.5 22.6087V8.01228C17.5 6.77306 16.7381 5.66137 15.5823 5.21431L14.0555 4.62371C13.6291 4.45877 13.246 4.19856 12.9355 3.86296L10.4183 1.14186C9.64515 0.306061 8.33121 0.283422 7.5297 1.09209L4.69821 3.94885C4.42065 4.22889 4.0906 4.45147 3.72694 4.60386L2.34054 5.18483ZM10.5 4.10866C10.5 4.93709 9.82843 5.60866 9 5.60866C8.17157 5.60866 7.5 4.93709 7.5 4.10866C7.5 3.28023 8.17157 2.60866 9 2.60866C9.82843 2.60866 10.5 3.28023 10.5 4.10866ZM3.75 15.544C3.04057 15.6631 2.5 16.2801 2.5 17.0233V18.3587H3.75V15.544ZM2.5 21.5233V18.8587H3.75V21.5233H2.5ZM4.25 21.5233V18.8587H5.5V21.5233H4.25ZM5.5 17.0233V18.3587H4.25V15.544C4.95943 15.6631 5.5 16.2801 5.5 17.0233ZM12.5 17.0233C12.5 16.2801 13.0406 15.6631 13.75 15.544V18.3587H12.5V17.0233ZM12.5 18.8587V21.5233H13.75V18.8587H12.5ZM14.25 18.8587V21.5233H15.5V18.8587H14.25ZM15.5 18.3587V17.0233C15.5 16.2801 14.9594 15.6631 14.25 15.544V18.3587H15.5ZM13.75 7.60866C13.0406 7.72768 12.5 8.34467 12.5 9.08792V10.4233H13.75V7.60866ZM12.5 13.5879V10.9233H13.75V13.5879H12.5ZM14.25 13.5879V10.9233H15.5V13.5879H14.25ZM15.5 9.08792V10.4233H14.25V7.60866C14.9594 7.72768 15.5 8.34467 15.5 9.08792ZM7.5 9.08792C7.5 8.34467 8.04057 7.72768 8.75 7.60866V10.4233H7.5V9.08792ZM7.5 10.9233V13.5879H8.75V10.9233H7.5ZM9.25 10.9233V13.5879H10.5V10.9233H9.25ZM10.5 10.4233V9.08792C10.5 8.34467 9.95943 7.72768 9.25 7.60866V10.4233H10.5ZM3.75 7.60866C3.04057 7.72768 2.5 8.34467 2.5 9.08792V10.4233H3.75V7.60866ZM2.5 13.5879V10.9233H3.75V13.5879H2.5ZM4.25 13.5879V10.9233H5.5V13.5879H4.25ZM5.5 9.08792V10.4233H4.25V7.60866C4.95943 7.72768 5.5 8.34467 5.5 9.08792Z" fill="#ED3939"/>
</symbol>

<symbol id="mdmHover" viewBox="0 0 48 48" fill="none" xmlns="http://www.w3.org/2000/svg">
<path fill-rule="evenodd" clip-rule="evenodd" d="M15 35.1087V19.9517C15 18.5413 15.8465 17.2688 17.1473 16.7237L18.5337 16.1427C18.8367 16.0157 19.1118 15.8302 19.3431 15.5969L22.1746 12.7401C23.1765 11.7293 24.8189 11.7576 25.7854 12.8023L28.3026 15.5234C28.5613 15.8031 28.8805 16.0199 29.2359 16.1574L30.7627 16.748C32.1111 17.2696 33 18.5665 33 20.0123V35.1087H25V30.1087C25 29.5564 24.5523 29.1087 24 29.1087C23.4477 29.1087 23 29.5564 23 30.1087V35.1087H15ZM25.5 34.6087V30.1087C25.5 29.2802 24.8284 28.6087 24 28.6087C23.1716 28.6087 22.5 29.2802 22.5 30.1087V34.6087H15.5V19.9517C15.5 18.7428 16.2256 17.652 17.3405 17.1848L18.7269 16.6039C19.0906 16.4515 19.4206 16.2289 19.6982 15.9488L22.5297 13.0921C23.3312 12.2834 24.6451 12.3061 25.4183 13.1419L27.9355 15.863C28.246 16.1986 28.6291 16.4588 29.0555 16.6237L30.5823 17.2143C31.7381 17.6614 32.5 18.7731 32.5 20.0123V34.6087H25.5Z" fill="white"/>
<path fill-rule="evenodd" clip-rule="evenodd" d="M17.3405 17.1848C16.2256 17.652 15.5 18.7428 15.5 19.9517V34.6087L22.5 34.6087V30.1087C22.5 29.2802 23.1716 28.6087 24 28.6087C24.8284 28.6087 25.5 29.2802 25.5 30.1087V34.6087L32.5 34.6087V20.0123C32.5 18.7731 31.7381 17.6614 30.5823 17.2143L29.0555 16.6237C28.6291 16.4588 28.246 16.1986 27.9355 15.863L25.4183 13.1419C24.6451 12.3061 23.3312 12.2834 22.5297 13.0921L19.6982 15.9488C19.4206 16.2289 19.0906 16.4515 18.7269 16.6039L17.3405 17.1848ZM25.5 16.1087C25.5 16.9371 24.8284 17.6087 24 17.6087C23.1716 17.6087 22.5 16.9371 22.5 16.1087C22.5 15.2802 23.1716 14.6087 24 14.6087C24.8284 14.6087 25.5 15.2802 25.5 16.1087ZM18.75 27.544C18.0406 27.6631 17.5 28.2801 17.5 29.0233V30.3587H18.75V27.544ZM17.5 33.5233V30.8587H18.75V33.5233H17.5ZM19.25 33.5233V30.8587H20.5V33.5233H19.25ZM20.5 29.0233V30.3587H19.25V27.544C19.9594 27.6631 20.5 28.2801 20.5 29.0233ZM27.5 29.0233C27.5 28.2801 28.0406 27.6631 28.75 27.544V30.3587H27.5V29.0233ZM27.5 30.8587V33.5233H28.75V30.8587H27.5ZM29.25 30.8587V33.5233H30.5V30.8587H29.25ZM30.5 30.3587V29.0233C30.5 28.2801 29.9594 27.6631 29.25 27.544V30.3587H30.5ZM28.75 19.6087C28.0406 19.7277 27.5 20.3447 27.5 21.0879V22.4233H28.75V19.6087ZM27.5 25.5879V22.9233H28.75V25.5879H27.5ZM29.25 25.5879V22.9233H30.5V25.5879H29.25ZM30.5 21.0879V22.4233H29.25V19.6087C29.9594 19.7277 30.5 20.3447 30.5 21.0879ZM22.5 21.0879C22.5 20.3447 23.0406 19.7277 23.75 19.6087V22.4233H22.5V21.0879ZM22.5 22.9233V25.5879H23.75V22.9233H22.5ZM24.25 22.9233V25.5879H25.5V22.9233H24.25ZM25.5 22.4233V21.0879C25.5 20.3447 24.9594 19.7277 24.25 19.6087V22.4233H25.5ZM18.75 19.6087C18.0406 19.7277 17.5 20.3447 17.5 21.0879V22.4233H18.75V19.6087ZM17.5 25.5879V22.9233H18.75V25.5879H17.5ZM19.25 25.5879V22.9233H20.5V25.5879H19.25ZM20.5 21.0879V22.4233H19.25V19.6087C19.9594 19.7277 20.5 20.3447 20.5 21.0879Z" fill="#BD9E6A"/>
</symbol>

<symbol id="user-location" viewBox="0 0 34 34" fill="none" xmlns="http://www.w3.org/2000/svg">
<circle cx="17" cy="17" r="16.5" fill="#ED3939" fill-opacity="0.15" stroke="white"/>
<circle cx="17" cy="17" r="6" fill="#ED3939"/>
<path opacity="0.35" d="M19.625 12.9167C18.1502 12.2215 16.7083 12.0417 15.25 12.9167C16.4166 12.9167 18.7694 14.3782 19.3737 15.1918C20.5 16.7084 20.6016 19.0553 20.2083 19.3334C20.4541 19.4724 21.5026 18.3063 21.6666 17C21.8306 15.6948 21.0998 13.6119 19.625 12.9167Z" fill="white"/>
</symbol>


<symbol id="conseillerFranceService" viewBox="0 0 48 48" xmlns="http://www.w3.org/2000/svg">
<path d="M24.1752 4.3111L12 11.3612V25.4094L23.5247 45.3111H24.8255L36.3503 25.4094V11.3612L24.1752 4.3111Z"/>
<path fill-rule="evenodd" clip-rule="evenodd" d="M24.1752 2L38.3503 10.2083V25.9467L25.9785 47.3111H22.3718L10 25.9467V10.2082L24.1752 2ZM12 25.4094V11.3612L24.1752 4.31111L36.3503 11.3612V25.4094L24.8255 45.3111H23.5247L12 25.4094Z" fill="white"/>
<path d="M27.661 16.3823H32.2657V13.7028L24.175 9.02002L16.0582 13.7028V23.0682L24.175 27.725L32.2657 23.0682V20.3887H27.661V16.3823Z" fill="white"/>
<path d="M27.661 20.3886V16.3823L24.1749 14.3531L20.6889 16.3823V20.3886L24.1749 22.3918L27.661 20.3886Z" fill="#000091"/>
</symbol>

<symbol id="conseillerFranceServiceSelected" viewBox="0 0 48 48" fill="none" xmlns="http://www.w3.org/2000/svg">
<path d="M24.1752 4.3111L12 11.3612V25.4094L23.5247 45.3111H24.8255L36.3503 25.4094V11.3612L24.1752 4.3111Z" fill="white"/>
<path fill-rule="evenodd" clip-rule="evenodd" d="M24.1752 2L38.3503 10.2083V25.9467L25.9785 47.3111H22.3718L10 25.9467V10.2082L24.1752 2ZM12 25.4094V11.3612L24.1752 4.31111L36.3503 11.3612V25.4094L24.8255 45.3111H23.5247L12 25.4094Z" fill="#ED3939"/>
<path d="M27.661 16.3823H32.2657V13.7028L24.175 9.02002L16.0582 13.7028V23.0682L24.175 27.725L32.2657 23.0682V20.3887H27.661V16.3823Z" fill="#ED3939"/>
<path d="M27.661 20.3886V16.3823L24.1749 14.3531L20.6889 16.3823V20.3886L24.1749 22.3918L27.661 20.3886Z" fill="#3B3BE7"/>
</symbol>

<symbol id="conseillerFranceServiceAdded" viewBox="0 0 48 48" fill="none" xmlns="http://www.w3.org/2000/svg">
<path d="M24.1752 4.3111L12 11.3612V25.4094L23.5247 45.3111H24.8255L36.3503 25.4094V11.3612L24.1752 4.3111Z" fill="#47C562"/>
<path fill-rule="evenodd" clip-rule="evenodd" d="M24.1752 2L38.3503 10.2083V25.9467L25.9785 47.3111H22.3718L10 25.9467V10.2082L24.1752 2ZM12 25.4094V11.3612L24.1752 4.31111L36.3503 11.3612V25.4094L24.8255 45.3111H23.5247L12 25.4094Z" fill="white"/>
<path d="M32.5 23.5746V13.9001L24.25 9L16 13.9001V23.5746L24.25 28.4118L32.5 23.5746Z" fill="white"/>
<path d="M30.6177 15.3789C29.9985 14.8285 29.0504 14.8843 28.5 15.5035L23.452 21.1104L20.4396 18.507C19.7939 17.988 18.8497 18.0909 18.3308 18.7366C17.8119 19.3824 17.9147 20.3266 18.5605 20.8455L22.6853 24.3429C23.3085 24.8436 24.2149 24.7677 24.746 24.1702L30.7422 17.4966C31.2926 16.8774 31.2368 15.9293 30.6177 15.3789Z" fill="#47C562"/>
</symbol>

<symbol id="conseillerFranceServiceHover" viewBox="0 0 48 48" fill="none" xmlns="http://www.w3.org/2000/svg">
<path d="M24.1752 4.3111L12 11.3612V25.4094L23.5247 45.3111H24.8255L36.3503 25.4094V11.3612L24.1752 4.3111Z" fill="#A00000"/>
<path fill-rule="evenodd" clip-rule="evenodd" d="M24.1752 2L38.3503 10.2083V25.9467L25.9785 47.3111H22.3718L10 25.9467V10.2082L24.1752 2ZM12 25.4094V11.3612L24.1752 4.31111L36.3503 11.3612V25.4094L24.8255 45.3111H23.5247L12 25.4094Z" fill="white"/>
<path d="M27.661 16.3823H32.2657V13.7028L24.175 9.02002L16.0582 13.7028V23.0682L24.175 27.725L32.2657 23.0682V20.3887H27.661V16.3823Z" fill="white" fill-opacity="0.8"/>
<path d="M27.661 20.3886V16.3823L24.1749 14.3531L20.6889 16.3823V20.3886L24.1749 22.3918L27.661 20.3886Z" fill="#010176"/>
</symbol>

<symbol id="borne" viewBox="0 0 22 22" xmlns="http://www.w3.org/2000/svg">
<rect x="5" width="12" height="9" rx="1" stroke-width="1.9" fill="none"/>
<path d="M6 14H16L14.6364 22H7.36364L6 14Z"/>
<path d="M5.04692 10.1658C5.12212 10.0617 5.24275 10 5.37119 10H16.6288C16.7573 10 16.8779 10.0617 16.9531 10.1658L18.542 12.3658C18.733 12.6303 18.544 13 18.2177 13H3.7823C3.45599 13 3.26698 12.6303 3.45803 12.3658L5.04692 10.1658Z" stroke="none"/>
</symbol>

<symbol id="wifi" viewBox="0 0 22 22" xmlns="http://www.w3.org/2000/svg">
<path d="M1.08488 8.63175C3.61838 6.09825 7.11838 4.53125 10.9844 4.53125C14.8504 4.53125 18.3504 6.09825 20.8839 8.63175L19.4697 10.046C17.2981 7.87439 14.2981 6.53125 10.9844 6.53125C7.67066 6.53125 4.67066 7.8744 2.49909 10.046L1.08488 8.63175Z" stroke="none"/>
<path d="M1.20434 28.5488C3.72784 31.0128 7.17878 32.5312 10.9844 32.5312C14.7486 32.5312 18.1658 31.0457 20.6818 28.6288C20.0912 29.196 19.4494 29.7127 18.7624 30.1718C16.4601 31.7102 13.7533 32.5312 10.9844 32.5312C8.21543 32.5312 5.50867 31.7102 3.20639 30.1718C2.48717 29.6913 1.81751 29.1474 1.20434 28.5488Z" stroke="none"/>
<path d="M18.0554 11.4602C16.2458 9.65054 13.7458 8.53125 10.9844 8.53125C8.22295 8.53125 5.72295 9.65054 3.91331 11.4602L5.32752 12.8744C6.77523 11.4267 8.77523 10.5312 10.9844 10.5312C13.1935 10.5312 15.1935 11.4267 16.6412 12.8744L18.0554 11.4602Z" stroke="none"/>
<path d="M15.227 14.2886C14.1412 13.2028 12.6412 12.5312 10.9844 12.5312C9.32752 12.5312 7.82752 13.2028 6.74173 14.2886L8.15595 15.7028C8.8798 14.979 9.8798 14.5312 10.9844 14.5312C12.0889 14.5312 13.0889 14.979 13.8128 15.7028L15.227 14.2886Z" stroke="none"/>
<path d="M12.3986 17.117C12.0367 16.7551 11.5367 16.5312 10.9844 16.5312C10.4321 16.5312 9.93209 16.7551 9.57016 17.117L10.9844 18.5312L12.3986 17.117Z" stroke="none"/>
</symbol>

<symbol id="moreOpts" viewBox="0 0 22 22" xmlns="http://www.w3.org/2000/svg">
<path fill-rule="evenodd" clip-rule="evenodd" d="M11 7.66675C12.1 7.66675 13 6.76675 13 5.66675C13 4.56675 12.1 3.66675 11 3.66675C9.9 3.66675 9 4.56675 9 5.66675C9 6.76675 9.9 7.66675 11 7.66675ZM11 9.66675C9.9 9.66675 9 10.5667 9 11.6667C9 12.7667 9.9 13.6667 11 13.6667C12.1 13.6667 13 12.7667 13 11.6667C13 10.5667 12.1 9.66675 11 9.66675ZM9 17.6667C9 16.5667 9.9 15.6667 11 15.6667C12.1 15.6667 13 16.5667 13 17.6667C13 18.7667 12.1 19.6667 11 19.6667C9.9 19.6667 9 18.7667 9 17.6667Z" stroke="none"/>
</symbol>

<symbol id="camera" width="100" height="113" viewBox="0 0 100 113" fill="none" xmlns="http://www.w3.org/2000/svg">
<rect width="100" height="113" rx="12" fill="#F8F8F8"/>
<path d="M27 11H15C13.8954 11 13 11.8954 13 13V25" stroke="#BDBDBD" stroke-width="2" stroke-linecap="round"/>
<path d="M27 100H15C13.8954 100 13 99.1046 13 98V86" stroke="#BDBDBD" stroke-width="2" stroke-linecap="round"/>
<path d="M73 11H85C86.1046 11 87 11.8954 87 13V25" stroke="#BDBDBD" stroke-width="2" stroke-linecap="round"/>
<path d="M73 100H85C86.1046 100 87 99.1046 87 98V86" stroke="#BDBDBD" stroke-width="2" stroke-linecap="round"/>
<path fill-rule="evenodd" clip-rule="evenodd" d="M61.1175 39.1429H72.7941C75.6692 39.1429 78 41.5002 78 44.4082V70.7347C78 73.6426 75.6692 76 72.7941 76H24.2059C21.3308 76 19 73.6426 19 70.7347V44.4082C19 41.5002 21.3308 39.1429 24.2059 39.1429H36.7502C37.8558 35.5825 41.1444 33 45.0294 33H52.8382C56.7232 33 60.0119 35.5825 61.1175 39.1429ZM49.5 70C56.9558 70 63 63.9558 63 56.5C63 49.0442 56.9558 43 49.5 43C42.0442 43 36 49.0442 36 56.5C36 63.9558 42.0442 70 49.5 70Z" fill="#C4C4C4"/>
<circle cx="49.5" cy="56.5" r="10.5" fill="#BDBDBD"/>
</symbol>

<symbol id="locateMe" width="25" height="34" viewBox="0 0 24 27" fill="none" xmlns="http://www.w3.org/2000/svg">
<path fill-rule="evenodd" clip-rule="evenodd" d="M15.5591 23.2986C19.8303 19.413 23.125 16.4157 23.125 11.5C23.125 5.14873 17.9763 0 11.625 0C5.27373 0 0.125 5.14873 0.125 11.5C0.125 16.6933 2.79938 19.0768 7.87479 23.6001C9.00649 24.6087 10.2576 25.7237 11.625 27C12.9811 25.6439 14.3117 24.4334 15.5591 23.2986ZM11.625 16C14.1103 16 16.125 13.9853 16.125 11.5C16.125 9.01472 14.1103 7 11.625 7C9.13972 7 7.125 9.01472 7.125 11.5C7.125 13.9853 9.13972 16 11.625 16Z" fill="#828282"/>
</symbol>

<symbol id="passNumeric" width="25" height="45" viewBox="0 0 38 38" fill="none" xmlns="http://www.w3.org/2000/svg">
<path fill-rule="evenodd" clip-rule="evenodd" d="M1.875 9.49658H35.875V14.8452C34.0229 15.5776 32.7128 17.3841 32.7128 19.4966C32.7128 21.6091 34.0229 23.4157 35.875 24.148V29.4966H1.875V24.148C3.72706 23.4157 5.03717 21.6091 5.03717 19.4966C5.03717 17.3841 3.72706 15.5776 1.875 14.8452V9.49658Z" fill="white"/>
<path d="M35.875 9.49658H36.525C36.525 9.1376 36.234 8.84658 35.875 8.84658V9.49658ZM1.875 9.49658V8.84658C1.51601 8.84658 1.225 9.1376 1.225 9.49658H1.875ZM35.875 14.8452L36.114 15.4497C36.3621 15.3516 36.525 15.1119 36.525 14.8452H35.875ZM35.875 24.148H36.525C36.525 23.8813 36.3621 23.6417 36.114 23.5436L35.875 24.148ZM35.875 29.4966V30.1466C36.234 30.1466 36.525 29.8556 36.525 29.4966H35.875ZM1.875 29.4966H1.225C1.225 29.8556 1.51601 30.1466 1.875 30.1466L1.875 29.4966ZM1.875 24.148L1.63598 23.5436C1.38794 23.6417 1.225 23.8813 1.225 24.148H1.875ZM1.875 14.8452H1.225C1.225 15.1119 1.38794 15.3516 1.63598 15.4497L1.875 14.8452ZM35.875 8.84658H1.875V10.1466H35.875V8.84658ZM36.525 14.8452V9.49658H35.225V14.8452H36.525ZM33.3628 19.4966C33.3628 17.6598 34.5016 16.0873 36.114 15.4497L35.636 14.2407C33.5443 15.0679 32.0628 17.1084 32.0628 19.4966H33.3628ZM36.114 23.5436C34.5016 22.906 33.3628 21.3335 33.3628 19.4966H32.0628C32.0628 21.8848 33.5443 23.9254 35.636 24.7525L36.114 23.5436ZM36.525 29.4966V24.148H35.225V29.4966H36.525ZM1.875 30.1466H35.875V28.8466H1.875V30.1466ZM1.225 24.148V29.4966H2.525V24.148H1.225ZM4.38717 19.4966C4.38717 21.3335 3.24841 22.906 1.63598 23.5436L2.11402 24.7525C4.20571 23.9254 5.68717 21.8848 5.68717 19.4966H4.38717ZM1.63598 15.4497C3.24841 16.0873 4.38717 17.6597 4.38717 19.4966H5.68717C5.68717 17.1084 4.20571 15.0679 2.11402 14.2407L1.63598 15.4497ZM1.225 9.49658V14.8452H2.525V9.49658H1.225Z" fill="#4F4F4F"/>
<line x1="28.6031" y1="10.1466" x2="28.6031" y2="28.8466" stroke="#4F4F4F" stroke-width="1.3" stroke-linecap="round" stroke-dasharray="2 3"/>
<line x1="10.0176" y1="19.9287" x2="20.0176" y2="19.9287" stroke="#348899" stroke-width="2" stroke-linecap="round"/>
<line x1="10.0176" y1="24.9287" x2="16.0176" y2="24.9287" stroke="#348899" stroke-width="2" stroke-linecap="round"/>
</symbol>

<symbol id="search" width="32" height="32" viewBox="0 0 32 32" fill="none" xmlns="http://www.w3.org/2000/svg">
<path d="M19.8262 19.8262L24.0001 24.0001Z" fill="#333333"/>
<path d="M19.8262 19.8262L24.0001 24.0001" stroke="#828282" stroke-width="2" stroke-linecap="round" stroke-linejoin="round"/>
<path d="M14.6087 21.2174C18.2586 21.2174 21.2174 18.2586 21.2174 14.6087C21.2174 10.9588 18.2586 8 14.6087 8C10.9588 8 8 10.9588 8 14.6087C8 18.2586 10.9588 21.2174 14.6087 21.2174Z" stroke="#828282" stroke-width="2" stroke-linecap="round" stroke-linejoin="round"/>
</symbol>

<symbol id="tagDelete" width="22" height="22" viewBox="0 0 22 22" fill="none" xmlns="http://www.w3.org/2000/svg">
<path d="M6.5 6.5L15.5 15.5" stroke="#BDBDBD" stroke-width="1.5" stroke-linecap="round"/>
<path d="M15.5 6.5L6.5 15.5" stroke="#BDBDBD" stroke-width="1.5" stroke-linecap="round"/>
</symbol>

<symbol id="tagReset" width="26" height="26" viewBox="0 0 32 32" fill="none" xmlns="http://www.w3.org/2000/svg">
<path d="M7.04307 8H7V14H13V13.9569L7.04307 8Z" fill="#696969"/>
<path d="M10.3738 21.6869C11.5497 22.8501 13.0573 23.6202 14.6889 23.8913C16.3206 24.1623 17.9962 23.9209 19.485 23.2004C20.9738 22.4798 22.2027 21.3155 23.0025 19.8676C23.8023 18.4198 24.1336 16.7597 23.9509 15.1158C23.7683 13.4719 23.0805 11.925 21.9824 10.6881C20.8843 9.45121 19.4297 8.58509 17.819 8.20897C16.2083 7.83285 14.5207 7.96523 12.9883 8.58789C11.456 9.21054 10.1543 10.2929 9.26242 11.6859" stroke="#696969" stroke-width="1.5"/>
</symbol>

<symbol id="closeModal" width="40" height="40" viewBox="0 0 40 40" fill="none" xmlns="http://www.w3.org/2000/svg">
<path d="M27.0279 11.9135C27.5486 11.3928 28.2873 11.2873 28.6778 11.6778C29.0683 12.0683 28.9628 12.807 28.4421 13.3277L13.3572 28.4127C12.8365 28.9334 12.0978 29.0389 11.7072 28.6484C11.3167 28.2578 11.4222 27.5192 11.9429 26.9985L27.0279 11.9135Z" fill="#333333"/>
<path d="M28.0279 27.0279C28.5486 27.5486 28.6541 28.2873 28.2636 28.6778C27.8731 29.0683 27.1344 28.9628 26.6137 28.4421L11.5287 13.3572C11.008 12.8365 10.9025 12.0978 11.293 11.7072C11.6836 11.3167 12.4223 11.4222 12.943 11.9429L28.0279 27.0279Z" fill="#333333"/>
</symbol>

</svg>
