<svg xmlns="http://www.w3.org/2000/svg">
<symbol id="map-marker" viewBox="0 0 48 48" xmlns="http://www.w3.org/2000/svg">
<path d="M23.74 45.7307L24.4466 46.3909L25.1301 45.7067C27.1682 43.6665 29.1698 41.8435 31.0637 40.1188L31.2426 39.9559C37.5627 34.201 42.8674 29.3707 42.8674 21.463C42.8674 11.2671 34.6104 3 24.4227 3C14.2349 3 5.97791 11.2671 5.97791 21.463C5.97791 25.615 7.05764 28.6957 9.15679 31.6153C11.1977 34.4541 14.2063 37.1381 17.9903 40.514L18.0681 40.5834C19.7853 42.1155 21.6751 43.8015 23.74 45.7307ZM30.2489 21.463C30.2489 24.6856 27.6394 27.2963 24.4227 27.2963C21.2059 27.2963 18.5965 24.6856 18.5965 21.463C18.5965 18.2403 21.2059 15.6296 24.4227 15.6296C27.6394 15.6296 30.2489 18.2403 30.2489 21.463Z" stroke="white" stroke-width="2"/>
</symbol>

<symbol  id="map-markerSelected" viewBox="0 0 48 48" fill="none" xmlns="http://www.w3.org/2000/svg">
<path d="M23.74 45.7307L24.4466 46.3909L25.1301 45.7067C27.1682 43.6665 29.1698 41.8435 31.0637 40.1188L31.2426 39.9559C37.5627 34.201 42.8674 29.3707 42.8674 21.463C42.8674 11.2671 34.6104 3 24.4227 3C14.2349 3 5.97791 11.2671 5.97791 21.463C5.97791 25.615 7.05764 28.6957 9.15679 31.6153C11.1977 34.4541 14.2063 37.1381 17.9903 40.514L18.0681 40.5834C19.7853 42.1155 21.6751 43.8015 23.74 45.7307ZM30.2489 21.463C30.2489 24.6856 27.6394 27.2963 24.4227 27.2963C21.2059 27.2963 18.5965 24.6856 18.5965 21.463C18.5965 18.2403 21.2059 15.6296 24.4227 15.6296C27.6394 15.6296 30.2489 18.2403 30.2489 21.463Z" fill="#ED3939" stroke="white" stroke-width="2"/>
</symbol>

<symbol  id="map-markerHover" viewBox="0 0 48 48" fill="none" xmlns="http://www.w3.org/2000/svg">
<path d="M23.74 45.7307L24.4466 46.3909L25.1301 45.7067C27.1682 43.6665 29.1698 41.8435 31.0637 40.1188L31.2426 39.9559C37.5627 34.201 42.8674 29.3707 42.8674 21.463C42.8674 11.2671 34.6104 3 24.4227 3C14.2349 3 5.97791 11.2671 5.97791 21.463C5.97791 25.615 7.05764 28.6957 9.15679 31.6153C11.1977 34.4541 14.2063 37.1381 17.9903 40.514L18.0681 40.5834C19.7853 42.1155 21.6751 43.8015 23.74 45.7307ZM30.2489 21.463C30.2489 24.6856 27.6394 27.2963 24.4227 27.2963C21.2059 27.2963 18.5965 24.6856 18.5965 21.463C18.5965 18.2403 21.2059 15.6296 24.4227 15.6296C27.6394 15.6296 30.2489 18.2403 30.2489 21.463Z" fill="#117083" stroke="white" stroke-width="2"/>
</symbol>

<symbol id="map-marker-added" viewBox="0 0 48 48" fill="none" xmlns="http://www.w3.org/2000/svg">
<path d="M23.74 45.7307L24.4466 46.3909L25.1301 45.7067C27.1682 43.6665 29.1698 41.8435 31.0637 40.1188L31.2426 39.9559C37.5627 34.201 42.8674 29.3707 42.8674 21.463C42.8674 11.2671 34.6104 3 24.4227 3C14.2349 3 5.97791 11.2671 5.97791 21.463C5.97791 25.615 7.05764 28.6957 9.15679 31.6153C11.1977 34.4541 14.2063 37.1381 17.9903 40.514L18.0681 40.5834C19.7853 42.1155 21.6751 43.8015 23.74 45.7307ZM30.2489 21.463C30.2489 24.6856 27.6394 27.2963 24.4227 27.2963C21.2059 27.2963 18.5965 24.6856 18.5965 21.463C18.5965 18.2403 21.2059 15.6296 24.4227 15.6296C27.6394 15.6296 30.2489 18.2403 30.2489 21.463Z" fill="#47C562" stroke="white" stroke-width="2"/>
<circle cx="24.5" cy="21.5" r="11.5" fill="white"/>
<path d="M32.3299 15.8789C31.7108 15.3285 30.7627 15.3843 30.2123 16.0035L23.0123 24.1034L18.9396 20.8308C18.2939 20.3118 17.3497 20.4147 16.8308 21.0604C16.3119 21.7062 16.4147 22.6504 17.0605 23.1693L22.2457 27.3359C22.8688 27.8367 23.7752 27.7607 24.3064 27.1632L32.4545 17.9966C33.0049 17.3774 32.9491 16.4293 32.3299 15.8789Z" fill="#47C562"/>
</symbol>

<symbol id="adress" viewBox="0 0 22 22" xmlns="http://www.w3.org/2000/svg">
<path fill-rule="evenodd" clip-rule="evenodd" d="M11 2C12.6055 2.0145 14.1397 2.68885 15.265 3.87463C16.3902 5.06042 17.0142 6.66048 16.9998 8.32269C16.9998 11.8208 12.1242 19 11 19C9.87584 19 5.00025 11.8208 5.00025 8.32269C4.98578 6.66048 5.60982 5.06042 6.73504 3.87463C7.86026 2.68885 9.39446 2.0145 11 2ZM10.9999 5.55695C12.0865 5.53677 13.0768 6.19906 13.5059 7.23274C13.9349 8.26643 13.7173 9.4661 12.9553 10.2683C12.1933 11.0704 11.0384 11.3157 10.0329 10.8888C9.02744 10.4619 8.37129 9.44779 8.37266 8.32272C8.36215 6.80858 9.53743 5.57133 10.9999 5.55695Z" fill="#333333"/>
</symbol>

<symbol id="tablet" viewBox="0 0 22 22" xmlns="http://www.w3.org/2000/svg">
<path fill-rule="evenodd" clip-rule="evenodd" d="M16 18C16.5523 18 17 17.5523 17 17V4C17 3.44772 16.5523 3 16 3H6C5.44772 3 5 3.44772 5 4V17C5 17.5523 5.44772 18 6 18H16ZM16 4H6V16H16V4ZM11 17.5C11.2761 17.5 11.5 17.2761 11.5 17C11.5 16.7239 11.2761 16.5 11 16.5C10.7239 16.5 10.5 16.7239 10.5 17C10.5 17.2761 10.7239 17.5 11 17.5Z" stroke="none"/>
</symbol>

<symbol id="transport" viewBox="0 0 32 32" fill="none" xmlns="http://www.w3.org/2000/svg">
<path fill-rule="evenodd" clip-rule="evenodd" d="M7 4C5.89543 4 5 4.89543 5 6V23C5 24.1046 5.89543 25 7 25L7 26.5C7 27.3284 7.67157 28 8.5 28C9.32843 28 10 27.3284 10 26.5V25H21V26.5C21 27.3284 21.6716 28 22.5 28C23.3284 28 24 27.3284 24 26.5V25C25.1046 25 26 24.1046 26 23V6C26 4.89543 25.1046 4 24 4H7ZM24 9H7V18H24V9ZM12 22H19L18.125 23H12.875L12 22ZM10 6C9.44772 6 9 6.44772 9 7C9 7.55228 9.44772 8 10 8H21C21.5523 8 22 7.55228 22 7C22 6.44772 21.5523 6 21 6H10ZM10.6668 21.8754C10.4609 21.1805 9.89524 20.6514 9.18821 20.4923L7 20V23H11L10.6668 21.8754ZM21.8118 20.4923C21.1048 20.6514 20.5391 21.1805 20.3332 21.8754L20 23H24V20L21.8118 20.4923Z" fill="black"/>
</symbol>

<symbol id="paste" viewBox="0 0 24 24" fill="none" xmlns="http://www.w3.org/2000/svg">
<path d="M14 16L5 16V4H14L14 16Z" stroke="#333333" stroke-width="2"/>
<path d="M19 21C19.5523 21 20 20.5523 20 20V7C20 6.44772 19.5523 6 19 6H16V17C16 17.5523 15.5523 18 15 18H9V20C9 20.5523 9.44772 21 10 21H19Z" fill="#32383D"/>
</symbol>

<symbol id="copy" viewBox="0 0 24 24" fill="none" xmlns="http://www.w3.org/2000/svg">
<path fill-rule="evenodd" clip-rule="evenodd" d="M4 4C4 3.44771 4.44772 3 5 3H14C14.5523 3 15 3.44772 15 4V6H9C8.44772 6 8 6.44772 8 7V18H5C4.44772 18 4 17.5523 4 17V4ZM10 7C9.44772 7 9 7.44772 9 8V20C9 20.5523 9.44771 21 10 21H19C19.5523 21 20 20.5523 20 20V8C20 7.44772 19.5523 7 19 7H10Z" fill="#32383D"/>
</symbol>

<symbol id="cancel" viewBox="0 0 24 24" xmlns="http://www.w3.org/2000/svg">
<path d="M16.9498 5.36385C17.3403 4.97332 17.9734 4.97332 18.364 5.36385C18.7545 5.75437 18.7545 6.38753 18.364 6.77806L7.05026 18.0918C6.65973 18.4823 6.02657 18.4823 5.63605 18.0918C5.24552 17.7012 5.24552 17.0681 5.63605 16.6776L16.9498 5.36385Z" stroke="none"/>
<path d="M18.364 16.6777C18.7545 17.0682 18.7545 17.7013 18.364 18.0919C17.9734 18.4824 17.3403 18.4824 16.9498 18.0919L5.63605 6.77816C5.24552 6.38764 5.24552 5.75447 5.63605 5.36395C6.02657 4.97343 6.65974 4.97343 7.05026 5.36395L18.364 16.6777Z" stroke="none"/>
</symbol>

<symbol id="nok" viewBox="0 0 32 32" fill="none" xmlns="http://www.w3.org/2000/svg">
<circle cx="16" cy="16" r="13" fill="#DA6C2E"/>
<path d="M16.25 17.5L16.25 9.00001" stroke="white" stroke-width="3" stroke-linecap="round" stroke-linejoin="round"/>
<path d="M16.25 23.6065L16.25 22.9999" stroke="white" stroke-width="3" stroke-linecap="round" stroke-linejoin="round"/>
</symbol>

<symbol id="ok" viewBox="0 0 32 32" fill="none" xmlns="http://www.w3.org/2000/svg">
<circle cx="16" cy="16" r="13" fill="#47C562"/>
<path d="M11 16.8182L14.8889 20L21 13" stroke="white" stroke-width="3" stroke-linecap="round" stroke-linejoin="round"/>
</symbol>

<symbol id="add" viewBox="0 0 24 24" xmlns="http://www.w3.org/2000/svg">
<path d="M12 5C11.4477 5 11 5.44772 11 6V11H6C5.44772 11 5 11.4477 5 12C5 12.5523 5.44772 13 6 13H11V18C11 18.5523 11.4477 19 12 19C12.5523 19 13 18.5523 13 18V13H18C18.5523 13 19 12.5523 19 12C19 11.4477 18.5523 11 18 11H13V6C13 5.44772 12.5523 5 12 5Z" stroke="none"/>
</symbol>

<symbol id="validate" fill="none" xmlns="http://www.w3.org/2000/svg" viewBox="0 0 24 24">
<path d="M6.5 12.344l4.278 3.437L17.5 8.22" stroke="#fff" stroke-width="2" stroke-linecap="round" stroke-linejoin="round"></path>
</symbol>

<symbol id="delete" viewBox="0 0 27 17" fill="none" xmlns="http://www.w3.org/2000/svg">
<path d="M18.0992 4.36723C17.7086 3.9767 17.0755 3.9767 16.6849 4.36723L13.1494 7.90276L9.61388 4.36723C9.22336 3.9767 8.59019 3.9767 8.19967 4.36723C7.80914 4.75775 7.80914 5.39092 8.19967 5.78144L11.7352 9.31698L8.19967 12.8525C7.80914 13.243 7.80914 13.8762 8.19967 14.2667C8.59019 14.6572 9.22336 14.6572 9.61388 14.2667L13.1494 10.7312L16.6849 14.2667C17.0755 14.6572 17.7086 14.6572 18.0992 14.2667C18.4897 13.8762 18.4897 13.243 18.0992 12.8525L14.5636 9.31698L18.0992 5.78144C18.4897 5.39092 18.4897 4.75775 18.0992 4.36723Z" fill="white"/>
</symbol>

<symbol id="remove" viewBox="0 0 24 24" xmlns="http://www.w3.org/2000/svg">
<path d="M6.97363 12.9062C6.34733 12.9062 5.89876 12.7877 5.62793 12.5507C5.36556 12.3053 5.23438 11.9879 5.23438 11.5986C5.23438 11.2092 5.36556 10.8961 5.62793 10.6591C5.89876 10.4137 6.34733 10.2952 6.97363 10.3036C14.44 10.3036 10.571 10.3036 17.0156 10.3036C17.6419 10.3036 18.0863 10.4221 18.3486 10.6591C18.6195 10.8961 18.7549 11.2092 18.7549 11.5986C18.7549 11.9879 18.6195 12.3053 18.3486 12.5507C18.0863 12.7877 17.6419 12.9062 17.0156 12.9062C9.63742 12.9062 13.3678 12.9062 6.97363 12.9062Z" stroke="none"/>
</symbol>

<symbol id="edit" viewBox="0 0 22 22" xmlns="http://www.w3.org/2000/svg">
<path fill-rule="evenodd" clip-rule="evenodd" d="M17.3745 2.62547C17.72 2.28003 18.3461 2.34613 18.7731 2.7731L20.3193 4.3193C20.7463 4.74627 20.8124 5.37243 20.4669 5.71787L18.6115 7.57331L15.5191 4.48091L17.3745 2.62547ZM17.993 8.1918L14.9006 5.0994L5.62344 14.3766L8.71584 17.469L17.993 8.1918ZM8.09736 18.0874L5.00496 14.995L4.74469 15.2553C4.60266 15.3973 4.52461 15.5949 4.52337 15.8155L3.77535 18.7134C3.7736 19.0246 4.0678 19.3188 4.37904 19.3171L7.27695 18.569C7.49751 18.5678 7.69506 18.4897 7.83709 18.3477L8.09736 18.0874Z" stroke="none"/>
</symbol>

<symbol id="liste" viewBox="0 0 32 32"  xmlns="http://www.w3.org/2000/svg">
<rect x="10" y="9" width="16" height="2" rx="1" />
<rect x="10" y="15" width="16" height="2" rx="1" />
<rect x="10" y="21" width="16" height="2" rx="1" />
<rect x="6" y="9" width="2" height="2" rx="1" />
<rect x="6" y="15" width="2" height="2" rx="1" />
<rect x="6" y="21" width="2" height="2" rx="1"/>
</symbol>

<svg id="user" viewBox="0 0 28 25" xmlns="http://www.w3.org/2000/svg">
<path d="M21.0256 13.9213C22.2638 12.4488 23 10.5413 23 8.5C22.9665 3.81496 19.185 0 14.5 0C9.81496 0 6 3.81496 6 8.5C6 13.185 9.81496 17 14.5 17C16.5079 17 18.3819 16.2972 19.8209 15.126C20.2289 14.717 20.2289 14.717 21.0256 13.9213ZM7.67323 8.5C7.67323 4.7185 10.7185 1.67323 14.5 1.67323C18.2815 1.67323 21.3268 4.7185 21.3268 8.5C21.3268 12.2815 18.2815 15.3268 14.5 15.3268C10.7185 15.3268 7.67323 12.248 7.67323 8.5Z" fill="#333333"/>
<path d="M13.2564 17.0414C11.6597 16.8372 10.0864 16.1466 8.76423 15H8.68966C3.89049 15 0 19.1129 0 24.1864V23.9793C0 24.543 0.432277 25 0.965517 25C1.49876 25 1.93103 24.543 1.93103 23.9793V24.1864C1.93103 20.2403 4.95697 17.0414 8.68966 17.0414H13.2564Z" fill="#333333"/>
<path d="M15.3566 17.0414H19.3103C23.043 17.0414 26.069 20.2403 26.069 24.1864V23.9793C26.069 24.543 26.5012 25 27.0345 25C27.5677 25 28 24.543 28 23.9793V24.1864C28 19.335 24.4427 15.3619 19.9351 15.0234C18.5996 16.1728 16.9994 16.8552 15.3566 17.0414Z" fill="#333333"/>
</svg>

<symbol id="computer" viewBox="0 0 22 22" xmlns="http://www.w3.org/2000/svg">
<rect x="2.5" y="3" width="17" height="11" rx="0.5" stroke-width="2" fill="none"/>
<rect x="2" y="12" width="18" height="2" stroke="none" />
<rect x="9" y="15" width="4" height="2" stroke="none"/>
<path d="M7 17.382C7 17.1479 7.13226 16.9339 7.34164 16.8292L8.78885 16.1056C8.92771 16.0361 9.08082 16 9.23607 16H12.7639C12.9192 16 13.0723 16.0361 13.2111 16.1056L14.6584 16.8292C14.8677 16.9339 15 17.1479 15 17.382C15 17.7233 14.7233 18 14.382 18H7.61803C7.2767 18 7 17.7233 7 17.382Z"/>
</symbol>

<symbol id="date" viewBox="0 0 22 22" xmlns="http://www.w3.org/2000/svg">
<path d="M8 10H5V13H8V10Z" fill="#333333"/>
<path fill-rule="evenodd" clip-rule="evenodd" d="M6 2C5.44772 2 5 2.44772 5 3V4H3C2.44771 4 2 4.44772 2 5V19C2 19.5523 2.44771 20 3 20H19C19.5523 20 20 19.5523 20 19V5C20 4.44772 19.5523 4 19 4H17V3C17 2.44772 16.5523 2 16 2C15.4477 2 15 2.44772 15 3V4H7V3C7 2.44772 6.55228 2 6 2ZM4 9V18H18V9H4Z" fill="#333333"/>
</symbol>

<symbol id ="email" viewBox="0 0 22 22" xmlns="http://www.w3.org/2000/svg">
<path fill-rule="evenodd" clip-rule="evenodd" d="M3.5 4H19.5C20.3284 4 21 4.67157 21 5.5V16.0714C21 16.8998 20.3284 17.5714 19.5 17.5714H3.5C2.67157 17.5714 2 16.8998 2 16.0714V5.5C2 4.67157 2.67157 4 3.5 4ZM2.91716 6.02444C3.04832 5.78143 3.35163 5.69075 3.59464 5.8219L11.2431 9.94966C11.5474 10.1138 11.9148 10.1093 12.2149 9.93753L19.3945 5.82797C19.6341 5.69079 19.9396 5.77387 20.0768 6.01353C20.214 6.25318 20.1309 6.55867 19.8913 6.69585L12.7116 10.8054C12.1116 11.1489 11.3767 11.1581 10.7682 10.8297L3.11971 6.70192C2.8767 6.57077 2.78602 6.26745 2.91716 6.02444Z" stroke="none"/>
</symbol>

<symbol id="password" viewBox="0 0 22 22" xmlns="http://www.w3.org/2000/svg">
<path fill-rule="evenodd" clip-rule="evenodd" d="M4.89603 10C4.40117 10 4.00001 10.4012 4.00001 10.896L4 18.2042C4 18.699 4.40116 19.1002 4.89602 19.1002H17.1043C17.5992 19.1002 18.0003 18.699 18.0003 18.2042L18.0003 10.896C18.0003 10.4012 17.5992 10 17.1043 10H4.89603ZM12.3442 13.4441C12.3442 13.9365 12.0794 14.367 11.6845 14.6011L12.3442 17.0002H9.65611L10.3158 14.6011C9.92088 14.367 9.65611 13.9365 9.65611 13.4441C9.65611 12.7018 10.2579 12.1 11.0001 12.1C11.7424 12.1 12.3442 12.7018 12.3442 13.4441Z" stroke="none"/>
<path d="M13.8017 10.0002V7.90011C13.8017 6.35368 12.5481 5.10005 11.0017 5.10005C9.45524 5.10005 8.20161 6.35368 8.20161 7.90011V10.0002H6.10156V7.90011C6.10156 5.19386 8.29542 3 11.0017 3C13.7079 3 15.9018 5.19385 15.9018 7.90011V10.0002H13.8017Z" stroke="none"/>
</symbol>

<symbol id="pass" viewBox="0 0 22 22" xmlns="http://www.w3.org/2000/svg">
<path fill-rule="evenodd" clip-rule="evenodd" d="M1.55556 5C1.24873 5 1 5.24873 1 5.55556V14.4444C1 14.7513 1.24873 15 1.55556 15H20.4444C20.7513 15 21 14.7513 21 14.4444V5.55556C21 5.24873 20.7513 5 20.4444 5H1.55556ZM4.77222 8.76388C4.78333 8.77499 4.79722 8.78055 4.81389 8.78055H4.91667C4.93333 8.78055 4.94722 8.77499 4.95833 8.76388C4.96944 8.75277 4.97683 8.73888 4.98055 8.72221L5.03055 8.3861H5.43889L5.38889 8.72221C5.38705 8.73888 5.39167 8.75277 5.40278 8.76388C5.41389 8.77499 5.42778 8.78055 5.44444 8.78055H5.54722C5.56389 8.78055 5.57778 8.77499 5.58889 8.76388C5.6 8.75277 5.60739 8.73888 5.61111 8.72221L5.66111 8.3861H5.99444C6.01294 8.3861 6.02778 8.38055 6.03889 8.36943C6.05183 8.35832 6.05833 8.34349 6.05833 8.32499V8.23055C6.05833 8.21205 6.05183 8.19721 6.03889 8.1861C6.02778 8.17499 6.01294 8.16943 5.99444 8.16943H5.69444L5.76667 7.68055H6.06667C6.08517 7.68055 6.1 7.67499 6.11111 7.66388C6.12406 7.65277 6.13056 7.63793 6.13056 7.61943V7.52499C6.13056 7.50649 6.12406 7.49166 6.11111 7.48055C6.1 7.46943 6.08517 7.46388 6.06667 7.46388H5.79722L5.84722 7.12777C5.84905 7.1111 5.84444 7.09721 5.83333 7.0861C5.82222 7.07499 5.80833 7.06943 5.79167 7.06943H5.68889C5.67222 7.06943 5.65833 7.07499 5.64722 7.0861C5.63794 7.09721 5.6315 7.1111 5.62778 7.12777L5.57778 7.46388H5.16667L5.21667 7.12777C5.2185 7.1111 5.21389 7.09721 5.20278 7.0861C5.19167 7.07499 5.17778 7.06943 5.16111 7.06943H5.05833C5.04167 7.06943 5.02778 7.07499 5.01667 7.0861C5.00739 7.09721 5.00094 7.1111 4.99722 7.12777L4.94722 7.46388H4.60555C4.58705 7.46388 4.57222 7.46943 4.56111 7.48055C4.55 7.49166 4.54444 7.50649 4.54444 7.52499V7.61943C4.54444 7.63793 4.55 7.65277 4.56111 7.66388C4.57222 7.67499 4.58705 7.68055 4.60555 7.68055H4.91389L4.84167 8.16943H4.53333C4.51483 8.16943 4.5 8.17499 4.48889 8.1861C4.47778 8.19721 4.47222 8.21205 4.47222 8.23055V8.32499C4.47222 8.34349 4.47778 8.35832 4.48889 8.36943C4.5 8.38055 4.51483 8.3861 4.53333 8.3861H4.80833L4.75833 8.72221C4.7565 8.73888 4.76111 8.75277 4.77222 8.76388ZM6.34239 8.87221C6.3535 8.88332 6.3665 8.88888 6.38128 8.88888H6.52294C6.5415 8.88888 6.55628 8.88427 6.56739 8.87499C6.58039 8.86388 6.58872 8.85277 6.59239 8.84166L6.74517 8.44721H7.65628L7.80905 8.84166C7.81278 8.85277 7.82017 8.86388 7.83128 8.87499C7.84239 8.88427 7.85817 8.88888 7.8785 8.88888H8.02017C8.035 8.88888 8.04794 8.88332 8.05906 8.87221C8.07017 8.8611 8.07572 8.84816 8.07572 8.83332L8.07017 8.80277L7.38406 7.00555C7.36928 6.96482 7.33961 6.94443 7.29517 6.94443H7.10628C7.06183 6.94443 7.03222 6.96482 7.01739 7.00555L6.3285 8.80277C6.32667 8.80832 6.32572 8.81849 6.32572 8.83332C6.32572 8.84816 6.33128 8.8611 6.34239 8.87221ZM8.38939 8.87221C8.40239 8.88332 8.41811 8.88888 8.43661 8.88888H8.58383C8.60239 8.88888 8.61811 8.88332 8.63106 8.87221C8.64406 8.85927 8.6505 8.84349 8.6505 8.82499V8.13055H9.14217C9.35328 8.13055 9.51811 8.08054 9.63661 7.98054C9.757 7.87871 9.81717 7.73149 9.81717 7.53888C9.81717 7.34627 9.757 7.19904 9.63661 7.09721C9.51628 6.99538 9.35144 6.94443 9.14217 6.94443H8.43661C8.41811 6.94443 8.40239 6.95093 8.38939 6.96388C8.37828 6.97499 8.37272 6.99071 8.37272 7.0111V8.82499C8.37272 8.84349 8.37828 8.85927 8.38939 8.87221ZM10.5966 8.87221C10.6096 8.88332 10.6253 8.88888 10.6438 8.88888H10.7883C10.8068 8.88888 10.8226 8.88332 10.8355 8.87221C10.8485 8.85927 10.8549 8.84349 10.8549 8.82499V7.19166H11.3855C11.4041 7.19166 11.4198 7.1861 11.4327 7.17499C11.4457 7.16205 11.4522 7.14627 11.4522 7.12777V7.0111C11.4522 6.99071 11.4457 6.97499 11.4327 6.96388C11.4216 6.95093 11.4059 6.94443 11.3855 6.94443H10.0466C10.0281 6.94443 10.0124 6.95093 9.99939 6.96388C9.98828 6.97682 9.98272 6.9926 9.98272 7.0111V7.12777C9.98272 7.14627 9.98828 7.16205 9.99939 7.17499C10.0124 7.1861 10.0281 7.19166 10.0466 7.19166H10.5799V8.82499C10.5799 8.84349 10.5855 8.85927 10.5966 8.87221ZM11.7803 8.87221C11.7932 8.88332 11.8089 8.88888 11.8275 8.88888H11.9747C11.9932 8.88888 12.0081 8.88332 12.0192 8.87221C12.0321 8.85927 12.0386 8.84349 12.0386 8.82499V7.00832C12.0386 6.98982 12.0321 6.97499 12.0192 6.96388C12.0081 6.95093 11.9932 6.94443 11.9747 6.94443H11.8275C11.8089 6.94443 11.7932 6.95093 11.7803 6.96388C11.7692 6.97499 11.7636 6.98982 11.7636 7.00832V8.82499C11.7636 8.84349 11.7692 8.85927 11.7803 8.87221ZM12.6564 8.71666C12.7861 8.84999 12.975 8.91666 13.2231 8.91666C13.3879 8.91666 13.5278 8.88793 13.6426 8.83055C13.7574 8.77127 13.8444 8.69443 13.9037 8.59999C13.9629 8.50554 13.9953 8.40371 14.0009 8.29443C14.0028 8.27777 13.9972 8.26482 13.9842 8.25555C13.9731 8.24443 13.9592 8.23888 13.9426 8.23888H13.7898C13.7713 8.23888 13.7564 8.24349 13.7453 8.25277C13.7342 8.26204 13.7259 8.27871 13.7203 8.30277C13.6907 8.44166 13.6342 8.53982 13.5509 8.59721C13.4694 8.65277 13.3602 8.68055 13.2231 8.68055C12.9046 8.68055 12.7398 8.50371 12.7287 8.14999C12.7268 8.09627 12.7259 8.0176 12.7259 7.91388C12.7259 7.81016 12.7268 7.73332 12.7287 7.68332C12.7398 7.3296 12.9046 7.15277 13.2231 7.15277C13.3602 7.15277 13.4694 7.18149 13.5509 7.23888C13.6324 7.29443 13.6889 7.39166 13.7203 7.53055C13.7296 7.57316 13.7528 7.59443 13.7898 7.59443H13.9426C13.9574 7.59443 13.9703 7.58982 13.9814 7.58055C13.9944 7.56943 14.0009 7.55649 14.0009 7.54166V7.5361C13.9953 7.42871 13.9629 7.32777 13.9037 7.23332C13.8444 7.13888 13.7574 7.06293 13.6426 7.00555C13.5278 6.94627 13.3879 6.91666 13.2231 6.91666C12.9768 6.91666 12.7889 6.98427 12.6592 7.11943C12.5296 7.25277 12.4602 7.4361 12.4509 7.66943C12.4491 7.72127 12.4481 7.8046 12.4481 7.91943C12.4481 8.03238 12.4491 8.11388 12.4509 8.16388C12.4602 8.39904 12.5287 8.58332 12.6564 8.71666ZM4.25 11C4.11193 11 4 11.1119 4 11.25C4 11.3881 4.11193 11.5 4.25 11.5H12.7259C12.864 11.5 12.9759 11.3881 12.9759 11.25C12.9759 11.1119 12.864 11 12.7259 11H4.25ZM16.6144 11.9418H16.0068C16.0133 12.1185 16.0594 12.249 16.1451 12.3333C16.2321 12.4177 16.3749 12.4598 16.5735 12.4598C16.702 12.4598 16.8163 12.4398 16.9163 12.3996L17 12.9398C16.8273 12.9799 16.6566 13 16.4878 13C16.1373 13 15.8575 12.9063 15.6485 12.7189C15.4408 12.5315 15.3317 12.2724 15.3213 11.9418H15V11.6205H15.3213V11.3755H15V11.0562H15.3272C15.3518 10.7242 15.4726 10.4652 15.6894 10.2791C15.9062 10.093 16.1925 10 16.5482 10C16.6858 10 16.8364 10.0207 17 10.0622L16.9163 10.6044C16.815 10.5629 16.7066 10.5422 16.591 10.5422C16.4119 10.5422 16.2749 10.5843 16.1801 10.6687C16.0854 10.7517 16.0295 10.8809 16.0127 11.0562H16.6144V11.3755H16.0068V11.6205H16.6144V11.9418ZM9.12828 7.89721C9.2635 7.89721 9.36533 7.86666 9.43383 7.80554C9.50422 7.74443 9.53939 7.65554 9.53939 7.53888C9.53939 7.42221 9.50517 7.33332 9.43661 7.27221C9.36811 7.20927 9.26533 7.17777 9.12828 7.17777H8.64772V7.89721H9.12828ZM7.20072 7.22221L7.57572 8.20832H6.82572L7.20072 7.22221ZM5.54444 7.68055L5.47222 8.16943H5.06389L5.13611 7.68055H5.54444ZM19.75 6C19.6119 6 19.5 6.11193 19.5 6.25V6.75C19.5 6.88807 19.6119 7 19.75 7C19.8881 7 20 6.88807 20 6.75V6.25C20 6.11193 19.8881 6 19.75 6ZM19.5 8.25C19.5 8.11193 19.6119 8 19.75 8C19.8881 8 20 8.11193 20 8.25V10.75C20 10.8881 19.8881 11 19.75 11C19.6119 11 19.5 10.8881 19.5 10.75V8.25ZM19.75 12C19.6119 12 19.5 12.1119 19.5 12.25V13.75C19.5 13.8881 19.6119 14 19.75 14C19.8881 14 20 13.8881 20 13.75V12.25C20 12.1119 19.8881 12 19.75 12Z" fill="#333333"/>
</symbol>

<symbol id="scan" viewBox="0 0 22 22" xmlns="http://www.w3.org/2000/svg">
<rect x="3" y="1" width="4" height="1" stroke="none"/>
<rect x="3" y="20" width="4" height="1" stroke="none"/>
<rect x="3" y="21" width="4" height="1" transform="rotate(-90 3 21)" stroke="none"/>
<rect x="3" y="5" width="4" height="1" transform="rotate(-90 3 5)" stroke="none"/>
<rect x="18" y="5" width="4" height="1" transform="rotate(-90 18 5)" stroke="none"/>
<rect x="18" y="21" width="4" height="1" transform="rotate(-90 18 21)" stroke="none"/>
<rect x="15" y="1" width="4" height="1" stroke="none"/>
<rect x="15" y="20" width="4" height="1" stroke="none"/>
<path fill-rule="evenodd" clip-rule="evenodd" d="M6 5C6 4.44772 6.44772 4 7 4H13V6C13 6.55228 13.4477 7 14 7H16V17C16 17.5523 15.5523 18 15 18H7C6.44772 18 6 17.5523 6 17V5ZM8.5 8C8.22386 8 8 8.22386 8 8.5C8 8.77614 8.22386 9 8.5 9H11.5C11.7761 9 12 8.77614 12 8.5C12 8.22386 11.7761 8 11.5 8H8.5ZM8 11.5C8 11.2239 8.22386 11 8.5 11H13.5C13.7761 11 14 11.2239 14 11.5C14 11.7761 13.7761 12 13.5 12H8.5C8.22386 12 8 11.7761 8 11.5ZM8.5 14C8.22386 14 8 14.2239 8 14.5C8 14.7761 8.22386 15 8.5 15H13.5C13.7761 15 14 14.7761 14 14.5C14 14.2239 13.7761 14 13.5 14H8.5Z" stroke="none"/>
</symbol>

<symbol id="network" viewBox="0 0 22 22" fill="none" xmlns="http://www.w3.org/2000/svg">
<g clip-path="url(#clip0)">
<circle cx="11" cy="11" r="2.5" stroke="#333333"/>
<circle cx="11" cy="3.43506" r="1.5" stroke="#333333"/>
<path d="M11 4.93506V8.93506" stroke="#333333"/>
<circle r="1.5" transform="matrix(1 0 0 -1 11 18.4351)" stroke="#333333"/>
<path d="M11 16.9351V12.9351" stroke="#333333"/>
<circle cx="18.5" cy="10.9351" r="1.5" transform="rotate(90 18.5 10.9351)" stroke="#333333"/>
<path d="M17 10.9351L13 10.9351" stroke="#333333"/>
<circle r="1.5" transform="matrix(4.37114e-08 1 1 -4.37114e-08 3.5 10.9351)" stroke="#333333"/>
<path d="M5 10.9351L9 10.9351" stroke="#333333"/>
<circle cx="16.3047" cy="5.63171" r="1.5" transform="rotate(45 16.3047 5.63171)" stroke="#333333"/>
<path d="M15.2422 6.69238L12.4138 9.52081" stroke="#333333"/>
<circle r="1.5" transform="matrix(0.707107 0.707107 0.707107 -0.707107 5.69561 16.2383)" stroke="#333333"/>
<path d="M6.75781 15.1777L9.58624 12.3492" stroke="#333333"/>
<circle cx="16.3044" cy="16.2383" r="1.5" transform="rotate(135 16.3044 16.2383)" stroke="#333333"/>
<path d="M15.2422 15.1777L12.4138 12.3492" stroke="#333333"/>
<circle r="1.5" transform="matrix(-0.707107 0.707107 0.707107 0.707107 5.69531 5.63171)" stroke="#333333"/>
<path d="M6.75781 6.69238L9.58624 9.52081" stroke="#333333"/>
</g>
<defs>
<clipPath id="clip0">
<rect width="22" height="22" fill="white"/>
</clipPath>
</defs>
</symbol>

<symbol id="facebook" viewBox="0 0 30 30" fill="none" xmlns="http://www.w3.org/2000/svg">
<rect x="0.5" y="0.5" width="29" height="29" rx="3.5" fill="white" stroke="#BDBDBD"/>
<path fill-rule="evenodd" clip-rule="evenodd" d="M13.0938 24.4152H16.9241V16.9509H19.7723L20.3125 13.4152H16.9241V11.1071C16.9241 9.8631 17.5789 9.24107 18.8884 9.24107H20.4107V6.24554C19.494 6.08185 18.5938 6 17.7098 6C16.7604 6 15.942 6.18006 15.2545 6.54018C14.5997 6.9003 14.0759 7.44048 13.683 8.16071C13.2902 8.88095 13.0938 9.73214 13.0938 10.7143V13.4152H10V16.9509H13.0938V24.4152Z" fill="#333333"/>
</symbol>

<symbol id="twitter" viewBox="0 0 30 30" fill="none" xmlns="http://www.w3.org/2000/svg">
<rect x="0.5" y="0.5" width="29" height="29" rx="3.5" fill="white" stroke="#BDBDBD"/>
<path d="M22.7143 10.5223C22.256 11.1771 21.7158 11.7336 21.0938 12.192V12.5848C21.0938 14.058 20.75 15.4821 20.0625 16.8571C19.4077 18.2321 18.3601 19.3943 16.9196 20.3438C15.4792 21.2932 13.8259 21.7679 11.9598 21.7679C10.1592 21.7679 8.50595 21.2768 7 20.2946C7.22917 20.3274 7.49107 20.3438 7.78571 20.3438C9.25893 20.3438 10.5848 19.8854 11.7634 18.9688C11.0759 18.9688 10.4539 18.7723 9.89732 18.3795C9.34077 17.9539 8.96429 17.4137 8.76786 16.7589C9.29167 16.8244 9.78274 16.808 10.2411 16.7098C9.4881 16.5461 8.86607 16.1696 8.375 15.5804C7.88393 14.9911 7.63839 14.3036 7.63839 13.5179V13.4688C8.09673 13.7307 8.5878 13.878 9.11161 13.9107C8.8497 13.7143 8.60417 13.4688 8.375 13.1741C8.14583 12.8795 7.96577 12.5685 7.83482 12.2411C7.70387 11.881 7.63839 11.5372 7.63839 11.2098C7.63839 10.6205 7.78571 10.0804 8.08036 9.58929C9.81548 11.6845 12.0417 12.814 14.7589 12.9777C14.5298 11.8973 14.7426 10.9643 15.3973 10.1786C16.0521 9.39286 16.8869 9 17.9018 9C18.8185 9 19.5878 9.34375 20.2098 10.0312C20.9301 9.9003 21.6176 9.63839 22.2723 9.24554C22.0104 9.99851 21.5357 10.5878 20.8482 11.0134C21.4702 10.9479 22.0923 10.7842 22.7143 10.5223Z" fill="#333333"/>
</symbol>

<symbol id="instagram" viewBox="0 0 30 30" fill="none" xmlns="http://www.w3.org/2000/svg">
<rect x="0.5" y="0.5" width="29" height="29" rx="3.5" fill="white" stroke="#BDBDBD"/>
<path fill-rule="evenodd" clip-rule="evenodd" d="M14.9511 10.8691C13.8152 10.8691 12.845 11.2714 12.0404 12.0759C11.2595 12.8568 10.8691 13.8152 10.8691 14.9511C10.8691 16.087 11.2595 17.0572 12.0404 17.8618C12.845 18.6427 13.8152 19.0331 14.9511 19.0331C16.087 19.0331 17.0453 18.6427 17.8263 17.8618C18.6308 17.0572 19.0331 16.087 19.0331 14.9511C19.0331 13.8152 18.6308 12.8568 17.8263 12.0759C17.0453 11.2714 16.087 10.8691 14.9511 10.8691ZM14.9511 17.6133C14.2175 17.6133 13.5904 17.353 13.0698 16.8324C12.5492 16.3118 12.2889 15.6847 12.2889 14.9511C12.2889 14.2175 12.5492 13.5904 13.0698 13.0698C13.5904 12.5492 14.2175 12.2889 14.9511 12.2889C15.6847 12.2889 16.3118 12.5492 16.8324 13.0698C17.353 13.5904 17.6133 14.2175 17.6133 14.9511C17.6133 15.6847 17.353 16.3118 16.8324 16.8324C16.3118 17.353 15.6847 17.6133 14.9511 17.6133Z" fill="#333333"/>
<path d="M20.1335 10.6916C20.1335 10.4313 20.0388 10.2183 19.8495 10.0526C19.6839 9.86332 19.4709 9.76868 19.2106 9.76868C18.9503 9.76868 18.7255 9.86332 18.5362 10.0526C18.3469 10.2183 18.2522 10.4313 18.2522 10.6916C18.2522 10.9519 18.3469 11.1767 18.5362 11.366C18.7255 11.5553 18.9503 11.65 19.2106 11.65C19.4709 11.65 19.6839 11.5553 19.8495 11.366C20.0388 11.1767 20.1335 10.9519 20.1335 10.6916Z" fill="#333333"/>
<path fill-rule="evenodd" clip-rule="evenodd" d="M22.8667 11.6855C22.8903 12.3244 22.9022 13.4129 22.9022 14.9511C22.9022 16.4893 22.8903 17.5778 22.8667 18.2167C22.7957 19.6602 22.3579 20.7843 21.5533 21.5888C20.7724 22.3697 19.6602 22.7838 18.2167 22.8312C17.5778 22.8785 16.4892 22.9022 14.9511 22.9022C13.4129 22.9022 12.3244 22.8785 11.6855 22.8312C10.242 22.7602 9.12976 22.3342 8.34885 21.5533C8.04122 21.2694 7.79275 20.938 7.60343 20.5594C7.41411 20.1808 7.27213 19.814 7.17748 19.4591C7.10649 19.1041 7.07099 18.69 7.07099 18.2167C7.02366 17.5778 7 16.4893 7 14.9511C7 13.4129 7.02366 12.3125 7.07099 11.65C7.14198 10.2301 7.56793 9.12976 8.34885 8.34885C9.12976 7.54429 10.242 7.10649 11.6855 7.0355C12.3244 7.01185 13.4129 7 14.9511 7C16.4892 7 17.5778 7.01185 18.2167 7.0355C19.6602 7.10649 20.7724 7.54429 21.5533 8.34885C22.3579 9.12976 22.7957 10.242 22.8667 11.6855ZM21.3404 18.9266C21.293 19.2106 21.2339 19.4472 21.1629 19.6365C20.8789 20.3465 20.3701 20.8553 19.6365 21.1629C19.4472 21.2339 19.1988 21.293 18.8911 21.3404C18.6072 21.3877 18.2522 21.4232 17.8263 21.4468C17.424 21.4705 17.0927 21.4823 16.8324 21.4823H13.0343C12.7977 21.4823 12.4664 21.4705 12.0404 21.4468C11.6381 21.4232 11.2832 21.3877 10.9755 21.3404C10.6916 21.293 10.4549 21.2339 10.2656 21.1629C9.55571 20.8789 9.04693 20.3701 8.7393 19.6365C8.69197 19.4709 8.64465 19.2579 8.59732 18.9976C8.54998 18.7373 8.51449 18.4888 8.49083 18.2522C8.46717 17.9919 8.4435 17.6843 8.41984 17.3293V13.0698C8.41984 12.8095 8.43167 12.4782 8.45533 12.0759C8.47899 11.65 8.51449 11.295 8.56182 11.011C8.60915 10.7034 8.66831 10.455 8.7393 10.2656C9.02327 9.53206 9.53205 9.02327 10.2656 8.7393C10.4549 8.66831 10.6916 8.60917 10.9755 8.56182C11.2832 8.51447 11.6381 8.47898 12.0404 8.45533C12.4664 8.43169 12.8095 8.41984 13.0698 8.41984H16.8324C17.0927 8.41984 17.424 8.43169 17.8263 8.45533C18.2522 8.47898 18.6072 8.51447 18.8911 8.56182C19.1988 8.60917 19.4472 8.66831 19.6365 8.7393C20.3701 9.02327 20.8789 9.53206 21.1629 10.2656C21.2339 10.455 21.293 10.7034 21.3404 11.011C21.3877 11.295 21.4232 11.65 21.4468 12.0759C21.4705 12.4782 21.4823 12.8095 21.4823 13.0698V16.8324C21.4823 17.0927 21.4705 17.4358 21.4468 17.8618C21.4232 18.2641 21.3877 18.619 21.3404 18.9266Z" fill="#333333"/>
</symbol>

<symbol id="linkedin" viewBox="0 0 30 30" fill="none" xmlns="http://www.w3.org/2000/svg">
<rect x="0.5" y="0.5" width="29" height="29" rx="3.5" fill="white" stroke="#BDBDBD"/>
<path fill-rule="evenodd" clip-rule="evenodd" d="M10.5357 22.7143H10.4866H7.24554V12.2054H10.5357V22.7143ZM8.86607 10.7812C8.34226 10.7812 7.9003 10.6012 7.54018 10.2411C7.18006 9.84821 7 9.40625 7 8.91518C7 8.39137 7.18006 7.9494 7.54018 7.58929C7.9003 7.19643 8.34226 7 8.86607 7C9.38988 7 9.83185 7.19643 10.192 7.58929C10.5848 7.9494 10.7812 8.39137 10.7812 8.91518C10.7812 9.40625 10.5848 9.84821 10.192 10.2411C9.83185 10.6012 9.38988 10.7812 8.86607 10.7812ZM22.7143 16.9688V22.7143H19.4732V17.6071C19.4732 17.2143 19.4568 16.9033 19.4241 16.6741C19.3914 16.4122 19.3259 16.1176 19.2277 15.7902C19.1622 15.4628 18.9985 15.2173 18.7366 15.0536C18.4747 14.8899 18.1473 14.808 17.7545 14.808C17.0015 14.808 16.494 15.0536 16.2321 15.5446C15.9702 16.0357 15.8393 16.6905 15.8393 17.5089V22.7143H12.5491V12.2054H15.692V13.6295H15.7411C15.9702 13.1711 16.3467 12.7783 16.8705 12.4509C17.4271 12.1235 18.0818 11.9598 18.8348 11.9598C19.6205 11.9598 20.2753 12.0908 20.7991 12.3527C21.3557 12.5818 21.7649 12.942 22.0268 13.433C22.2887 13.8914 22.4688 14.3988 22.567 14.9554C22.6652 15.5119 22.7143 16.183 22.7143 16.9688Z" fill="#333333"/>
</symbol>

<symbol id="public" viewBox="0 0 22 22" xmlns="http://www.w3.org/2000/svg">
<path d="M13.0474 10.437C14.2168 9.73893 15 8.46093 15 7C15 4.79086 13.2091 3 11 3C8.79086 3 7 4.79086 7 7C7 8.46093 7.7832 9.73893 8.95263 10.437C7.21207 11.2192 6 12.9681 6 15V18H16V15C16 12.9681 14.7879 11.2192 13.0474 10.437Z" fill="#333333"/>
<path fill-rule="evenodd" clip-rule="evenodd" d="M16.917 14H21V11.8C21 10.3099 20.1516 9.02743 18.9332 8.45382C19.7518 7.94188 20.3 7.00468 20.3 5.93333C20.3 4.3133 19.0464 3 17.5 3C16.542 3 15.6963 3.50407 15.1915 4.27286C15.7028 5.05718 16 5.99389 16 7C16 7.44599 15.9416 7.87827 15.832 8.28963C15.9075 8.34834 15.9858 8.40316 16.0668 8.45382C15.9493 8.50916 15.8352 8.57108 15.725 8.63916C15.5088 9.26223 15.173 9.82915 14.7453 10.3124C15.8722 11.214 16.6677 12.514 16.917 14ZM14.9929 7.24086C14.9976 7.16118 15 7.08087 15 7C15 6.48461 14.9025 5.99199 14.725 5.53957C14.7085 5.66836 14.7 5.79981 14.7 5.93333C14.7 6.40316 14.8054 6.84718 14.9929 7.24086ZM15.9 14H14V11.8C14 11.5447 14.0249 11.2955 14.0723 11.055C14.9949 11.7745 15.6585 12.8106 15.9 14Z" fill="#333333"/>
<path fill-rule="evenodd" clip-rule="evenodd" d="M6.80852 4.27286C6.30371 3.50407 5.45804 3 4.5 3C2.9536 3 1.7 4.3133 1.7 5.93333C1.7 7.00468 2.24824 7.94188 3.06684 8.45382C1.84845 9.02743 1 10.3099 1 11.8V14H5.08296C5.33228 12.514 6.12778 11.214 7.25473 10.3124C6.82705 9.82915 6.49117 9.26223 6.27499 8.63916C6.16478 8.57108 6.05069 8.50916 5.93316 8.45382C6.01417 8.40316 6.09253 8.34834 6.16797 8.28963C6.05843 7.87827 6 7.44599 6 7C6 5.99389 6.29717 5.05718 6.80852 4.27286ZM7.9277 11.055C7.0051 11.7745 6.34145 12.8106 6.10002 14H8V11.8C8 11.5447 7.9751 11.2955 7.9277 11.055ZM7.27499 5.53957C7.29148 5.66836 7.3 5.79981 7.3 5.93333C7.3 6.40316 7.19457 6.84718 7.00713 7.24086C7.0024 7.16118 7 7.08087 7 7C7 6.48461 7.09747 5.99199 7.27499 5.53957Z" fill="#333333"/>
</symbol>

<symbol id="structure" viewBox="0 0 22 22" xmlns="http://www.w3.org/2000/svg">
<path fill-rule="evenodd" clip-rule="evenodd" d="M11 3C11.2228 3.00746 11.4372 3.08448 11.612 3.21953L11.6211 3.21857L11.6971 3.28918L18.6775 9.0457C18.6952 9.06031 18.7119 9.07606 18.7275 9.09284C18.8592 9.23463 18.9477 9.40976 18.983 9.59841C19.0181 9.78692 18.9987 9.9816 18.9268 10.1599C18.8549 10.3383 18.7333 10.4933 18.5761 10.6073C18.4187 10.7214 18.232 10.7899 18.037 10.8052C18.0232 10.8063 18.0092 10.8068 17.9953 10.8068H17.2786L17.3466 17.9693L17.3466 17.974C17.3466 18.246 17.2364 18.5068 17.0402 18.6991C16.844 18.8913 16.5779 18.9994 16.3003 18.9994H13.1615C12.884 18.9994 12.6178 18.8913 12.4216 18.6991C12.2254 18.5068 12.1152 18.246 12.1152 17.974V14.493C12.1152 14.4908 12.1152 14.4886 12.1152 14.4864C12.1152 14.4837 12.1153 14.481 12.1154 14.4783C12.1389 13.6731 12.0857 13.088 11.9055 12.7135C11.8228 12.5416 11.7197 12.4288 11.5913 12.3537C11.4661 12.2806 11.2814 12.2228 11 12.2171V12.2177C10.7186 12.2234 10.5339 12.2812 10.4087 12.3543C10.2803 12.4294 10.1772 12.5422 10.0945 12.7141C9.91426 13.0886 9.86107 13.6737 9.88462 14.4789C9.88469 14.4815 9.88475 14.4841 9.88478 14.4867C9.88481 14.489 9.88483 14.4913 9.88483 14.4936V17.9746C9.88483 18.2466 9.77456 18.5074 9.57838 18.6997C9.38219 18.8919 9.11604 19 8.83854 19H5.69966C5.42215 19 5.156 18.8919 4.95982 18.6997C4.76364 18.5074 4.65336 18.2466 4.65336 17.9746L4.65339 17.9699L4.72135 10.8074H4.00466C3.99075 10.8074 3.97684 10.8069 3.96298 10.8058C3.76805 10.7905 3.58128 10.722 3.42389 10.6079C3.26667 10.4939 3.14509 10.3389 3.07317 10.1605C3.0013 9.9822 2.98192 9.78752 3.01705 9.599C3.0523 9.41035 3.14082 9.23522 3.27253 9.09344C3.28812 9.07666 3.30483 9.06091 3.32255 9.04629L10.3029 3.28978L10.3789 3.21917L10.388 3.22013C10.5628 3.08508 10.7772 3.00806 11 3.0006V3Z" fill="#333333"/>
</symbol>

<symbol id="tel" viewBox="0 0 22 22" xmlns="http://www.w3.org/2000/svg">
<path d="M14.4979 12.1969L11.9719 14.7228L6.92 9.67091L9.44596 7.14494C9.74589 6.84502 9.74589 6.35946 9.44596 6.0603L5.61061 2.22494C5.31068 1.92502 4.82512 1.92502 4.52597 2.22494L2 4.75091C2 13.2401 8.40121 19.6428 16.8919 19.6428L19.4179 17.1169C19.7178 16.8169 19.7178 16.3314 19.4179 16.0322L15.5825 12.1969C15.2834 11.8977 14.7971 11.8977 14.4979 12.1969Z" fill="#333333"/>
</symbol>

<symbol id="web" viewBox="0 0 22 22" xmlns="http://www.w3.org/2000/svg">
<path d="M11 4C7.13895 4 4 7.13895 4 11C4 14.8611 7.13895 18 11 18C14.8611 18 18 14.8611 18 11C18 7.13895 14.8611 4 11 4ZM16.2611 8.31789H14.4926C14.2568 7.25684 13.9032 6.32842 13.4316 5.60632C14.6547 6.16632 15.6568 7.12421 16.2611 8.31789ZM16.9095 11C16.9095 11.5453 16.8358 12.0905 16.6884 12.5916H14.6842C14.7432 12.0758 14.7726 11.5453 14.7726 11C14.7726 10.4547 14.7432 9.92421 14.6842 9.40842H16.7032C16.8358 9.90948 16.9095 10.4547 16.9095 11ZM5.09053 11C5.09053 10.4547 5.16421 9.90948 5.31158 9.40842H7.33052C7.27158 9.92421 7.24211 10.4547 7.24211 11C7.24211 11.5453 7.27158 12.0758 7.33052 12.5916H5.31158C5.16421 12.0905 5.09053 11.5453 5.09053 11ZM8.31789 11C8.31789 10.4695 8.3621 9.93895 8.43579 9.40842H10.4695V12.5916H8.43579C8.3621 12.0611 8.31789 11.5305 8.31789 11ZM11.5453 5.22316C12.3558 5.60631 13.0042 6.84421 13.3579 8.33263H11.5453V5.22316ZM10.4547 5.22316V8.33263H8.64211C8.99579 6.84421 9.64421 5.60631 10.4547 5.22316ZM10.4547 13.6821V16.7916C9.64421 16.4084 8.99579 15.1705 8.64211 13.6821H10.4547ZM11.5453 16.7768V13.6674H13.3579C13.0042 15.1558 12.3558 16.3937 11.5453 16.7768ZM11.5453 12.5916V9.40842H13.5789C13.6526 9.93895 13.6968 10.4695 13.6968 11C13.6968 11.5305 13.6526 12.0611 13.5789 12.5916H11.5453ZM8.56842 5.62105C8.11158 6.34316 7.74316 7.27158 7.50737 8.33263H5.73895C6.34316 7.12421 7.34526 6.16632 8.56842 5.62105ZM5.73895 13.6821H7.50737C7.74316 14.7432 8.09684 15.6716 8.56842 16.3937C7.34526 15.8337 6.34316 14.8758 5.73895 13.6821ZM13.4316 16.3789C13.8884 15.6568 14.2568 14.7284 14.4926 13.6674H16.2611C15.6568 14.8758 14.6547 15.8337 13.4316 16.3789Z" fill="#333333"/>
</symbol>

<symbol id="accueil" viewBox="0 0 32 32" xmlns="http://www.w3.org/2000/svg">
<path d="M17.375 10.8789C19.724 11.194 21.6862 12.2539 23.2617 14.0586C24.8372 15.8633 25.625 17.9688 25.625 20.375H6.375C6.375 17.9688 7.16276 15.8633 8.73828 14.0586C10.3138 12.2539 12.276 11.194 14.625 10.8789V10.0625H13.9375C13.737 10.0625 13.5651 10.0052 13.4219 9.89062C13.3073 9.7474 13.25 9.57552 13.25 9.375V8.6875C13.25 8.48698 13.3073 8.32943 13.4219 8.21484C13.5651 8.07161 13.737 8 13.9375 8H18.0625C18.263 8 18.4206 8.07161 18.5352 8.21484C18.6784 8.32943 18.75 8.48698 18.75 8.6875V9.375C18.75 9.57552 18.6784 9.7474 18.5352 9.89062C18.4206 10.0052 18.263 10.0625 18.0625 10.0625H17.375V10.8789ZM26.3125 21.75C26.513 21.75 26.6706 21.8216 26.7852 21.9648C26.9284 22.0794 27 22.237 27 22.4375V23.8125C27 24.013 26.9284 24.1849 26.7852 24.3281C26.6706 24.4427 26.513 24.5 26.3125 24.5H5.6875C5.48698 24.5 5.3151 24.4427 5.17188 24.3281C5.05729 24.1849 5 24.013 5 23.8125V22.4375C5 22.237 5.05729 22.0794 5.17188 21.9648C5.3151 21.8216 5.48698 21.75 5.6875 21.75H26.3125Z" fill="black"/>
</symbol>

<symbol id="demarches" viewBox="0 0 32 32" xmlns="http://www.w3.org/2000/svg">
<rect x="11" y="10" width="2" height="2" fill="black"/>
<path fill-rule="evenodd" clip-rule="evenodd" d="M11 11C8.23858 11 6 13.2386 6 16V23C6 26.3137 8.68629 29 12 29C15.3137 29 18 26.3137 18 23V16C18 13.2386 15.7614 11 13 11H11ZM12 14.5C11.4477 14.5 11 14.9477 11 15.5V18.5C11 19.0523 11.4477 19.5 12 19.5C12.5523 19.5 13 19.0523 13 18.5V15.5C13 14.9477 12.5523 14.5 12 14.5Z" fill="black"/>
<path d="M12 10.5C12 9.33333 12 9.7 12 8.5C12 7 13 3 16.9999 3C20.9998 3 21.9999 7 21.9999 9.5C21.9999 12 21.9999 11 21.9999 12.5C21.9999 14 22.4999 17 24.9999 17C27.4999 17 27.9999 14.5 27.9999 12.5" stroke="black"/>
</symbol>

<symbol id="equipement" viewBox="0 0 32 32" xmlns="http://www.w3.org/2000/svg">
<path d="M18.75 19.0625V17H27V23.1875C27 23.7318 26.7852 24.2044 26.3555 24.6055C25.9544 25.0352 25.4818 25.25 24.9375 25.25H7.0625C6.51823 25.25 6.03125 25.0352 5.60156 24.6055C5.20052 24.2044 5 23.7318 5 23.1875V17H13.25V19.0625C13.25 19.263 13.3073 19.4349 13.4219 19.5781C13.5651 19.6927 13.737 19.75 13.9375 19.75H18.0625C18.263 19.75 18.4206 19.6927 18.5352 19.5781C18.6784 19.4349 18.75 19.263 18.75 19.0625ZM24.9375 10.125C25.4818 10.125 25.9544 10.3398 26.3555 10.7695C26.7852 11.1706 27 11.6432 27 12.1875V15.625H5V12.1875C5 11.6432 5.20052 11.1706 5.60156 10.7695C6.03125 10.3398 6.51823 10.125 7.0625 10.125H10.5V8.0625C10.5 7.51823 10.7005 7.04557 11.1016 6.64453C11.5312 6.21484 12.0182 6 12.5625 6H19.4375C19.9818 6 20.4544 6.21484 20.8555 6.64453C21.2852 7.04557 21.5 7.51823 21.5 8.0625V10.125H24.9375ZM18.75 10.125V8.75H13.25V10.125H18.75Z" fill="black"/>
</symbol>

<symbol id ="label" viewBox="0 0 32 32" xmlns="http://www.w3.org/2000/svg">
<path d="M6.375 26.75V24H25.625V26.75H6.375ZM22.875 15.75C24.0208 15.75 24.9948 16.151 25.7969 16.9531C26.599 17.7552 27 18.7292 27 19.875V21.25C27 21.6224 26.8568 21.9518 26.5703 22.2383C26.3125 22.4961 25.9974 22.625 25.625 22.625H6.375C6.0026 22.625 5.67318 22.4961 5.38672 22.2383C5.12891 21.9518 5 21.6224 5 21.25V19.875C5 18.7292 5.40104 17.7552 6.20312 16.9531C7.00521 16.151 7.97917 15.75 9.125 15.75H12.0039C12.3477 15.75 12.6341 15.6354 12.8633 15.4062C13.1211 15.1484 13.25 14.8477 13.25 14.5039V14.4609C13.25 13.3151 12.9206 12.026 12.2617 10.5938C12.0039 10.0495 11.875 9.47656 11.875 8.875C11.875 7.61458 12.362 6.56901 13.3359 5.73828C14.3099 4.90755 15.4414 4.60677 16.7305 4.83594C17.5612 4.97917 18.2773 5.36589 18.8789 5.99609C19.5091 6.59766 19.9102 7.3138 20.082 8.14453C20.2253 9.0612 20.082 9.92057 19.6523 10.7227C19.0508 11.9258 18.75 13.043 18.75 14.0742V14.5039C18.75 14.8477 18.8646 15.1484 19.0938 15.4062C19.3516 15.6354 19.6523 15.75 19.9961 15.75H22.875Z" fill="black"/>
</symbol>

<symbol id="services" viewBox="0 0 32 32" xmlns="http://www.w3.org/2000/svg">
<path d="M26.1416 18.2344C26.3994 18.349 26.4854 18.5495 26.3994 18.8359C25.9124 20.3542 25.1247 21.7005 24.0361 22.875C23.8643 23.0755 23.6637 23.1185 23.4346 23.0039L21.5869 21.9297C20.8135 22.5885 19.9398 23.0898 18.9658 23.4336V25.5391C18.9658 25.8255 18.8369 25.9974 18.5791 26.0547C17.0036 26.3984 15.4424 26.3984 13.8955 26.0547C13.609 25.9974 13.4658 25.8255 13.4658 25.5391V23.4336C12.4919 23.0898 11.6182 22.5885 10.8447 21.9297L9.04004 23.0039C8.78223 23.1185 8.56738 23.0755 8.39551 22.875C7.30697 21.7005 6.51921 20.3542 6.03223 18.8359C5.94629 18.5781 6.03223 18.3776 6.29004 18.2344L8.09473 17.1602C8.00879 16.6732 7.96582 16.1719 7.96582 15.6562C7.96582 15.1406 8.00879 14.6393 8.09473 14.1523L6.29004 13.0781C6.03223 12.9635 5.94629 12.763 6.03223 12.4766C6.51921 10.9583 7.30697 9.61198 8.39551 8.4375C8.56738 8.23698 8.78223 8.20833 9.04004 8.35156L10.8447 9.38281C11.6182 8.72396 12.4919 8.22266 13.4658 7.87891V5.77344C13.4658 5.48698 13.5947 5.3151 13.8525 5.25781C15.4281 4.91406 17.0036 4.91406 18.5791 5.25781C18.8369 5.3151 18.9658 5.48698 18.9658 5.77344V7.87891C19.9398 8.22266 20.8135 8.72396 21.5869 9.38281L23.3916 8.30859C23.6494 8.19401 23.8643 8.23698 24.0361 8.4375C25.1247 9.61198 25.9124 10.9583 26.3994 12.4766C26.4854 12.763 26.3994 12.9635 26.1416 13.0781L24.3369 14.1523C24.5088 15.1549 24.5088 16.1576 24.3369 17.1602L26.1416 18.2344ZM13.7666 18.1055C14.4541 18.7643 15.2705 19.0938 16.2158 19.0938C17.1611 19.0938 17.9632 18.7643 18.6221 18.1055C19.3096 17.418 19.6533 16.6016 19.6533 15.6562C19.6533 14.7109 19.3096 13.9089 18.6221 13.25C17.9632 12.5625 17.1611 12.2188 16.2158 12.2188C15.2705 12.2188 14.4541 12.5625 13.7666 13.25C13.1077 13.9089 12.7783 14.7109 12.7783 15.6562C12.7783 16.6016 13.1077 17.418 13.7666 18.1055Z" fill="black"/>
</symbol>

<symbol id="print" viewBox="0 0 32 32" xmlns="http://www.w3.org/2000/svg">
<rect x="10" y="8" width="12" height="5" stroke-width="2" fill="none"/>
<rect x="10" y="17" width="12" height="8" stroke-width="2" fill="none"/>
<path fill-rule="evenodd" clip-rule="evenodd" d="M6 12C5.44772 12 5 12.4477 5 13V21H9V17H23V21H27V13C27 12.4477 26.5523 12 26 12H6Z"/>
</symbol>

<symbol id="menu" viewBox="0 0 32 32" fill="none" xmlns="http://www.w3.org/2000/svg">
<rect x="5" y="9" width="23" height="2" rx="1" fill="#333333"/>
<rect x="5" y="15" width="23" height="2" rx="1" fill="#333333"/>
<rect x="5" y="21" width="23" height="2" rx="1" fill="#333333"/>
</symbol>

<symbol id="news-location" viewBox="0 0 29 31" xmlns="http://www.w3.org/2000/svg">
<path d="M13.8789 7.40777L13.8789 1.18555" stroke-linecap="round" stroke-linejoin="round"/>
<path d="M13.3789 3.44639V1.86578C13.3665 1.85795 13.3533 1.84995 13.3392 1.84189C13.2087 1.76732 13.0017 1.68555 12.7122 1.68555C12.4228 1.68555 12.2158 1.76732 12.0853 1.84189C12.0712 1.84995 12.058 1.85795 12.0456 1.86578V3.44639C12.2373 3.38974 12.4598 3.35221 12.7122 3.35221C12.9647 3.35221 13.1872 3.38974 13.3789 3.44639Z"/>
<path d="M11.0469 2.81338V4.39398C11.0345 4.40181 11.0212 4.40981 11.0071 4.41787C10.8766 4.49245 10.6696 4.57422 10.3802 4.57422C10.0908 4.57422 9.88378 4.49245 9.75328 4.41787C9.73917 4.40981 9.72592 4.40181 9.71354 4.39398V2.81338C9.90529 2.87003 10.1278 2.90755 10.3802 2.90755C10.6326 2.90755 10.8551 2.87003 11.0469 2.81338Z"/>
<path d="M4.34813 13.1299L14.2096 7.21298L24.0711 13.1299H4.34813Z"/>
<path d="M3.04297 14.1299H25.3763V14.1854C25.3763 14.4616 25.1524 14.6854 24.8763 14.6854H3.54297C3.26683 14.6854 3.04297 14.4616 3.04297 14.1854V14.1299Z" stroke-width="0.777778"/>
<path d="M3.04297 27.3521H25.3763V27.9076H3.04297V27.3521Z" stroke-width="0.777778"/>
<path d="M0.710938 29.6855H27.7109V30.2411H0.710938V29.6855Z" stroke-width="0.777778"/>
<rect x="5.37891" y="16.4634" width="1.33333" height="9.11111"/>
<rect x="10.8203" y="16.4634" width="1.33333" height="9.11111"/>
<rect x="16.2656" y="16.4634" width="1.33333" height="9.11111"/>
<rect x="21.7109" y="16.4634" width="1.33333" height="9.11111"/>
</symbol>

<symbol id="news-public" viewBox="0 0 32 32" xmlns="http://www.w3.org/2000/svg">
<path d="M23.5985 23.9446C24.6326 23.3273 25.3251 22.1973 25.3251 20.9055C25.3251 18.9522 23.7416 17.3687 21.7882 17.3687C19.8349 17.3687 18.2514 18.9522 18.2514 20.9055C18.2514 22.1973 18.9439 23.3273 19.9779 23.9446C18.4389 24.6362 17.3672 26.1825 17.3672 27.9792V29.5265H26.2093V27.9792C26.2093 26.1825 25.1376 24.6362 23.5985 23.9446Z" stroke="none"/>
<path d="M11.4423 23.9446C12.4763 23.3273 13.1688 22.1973 13.1688 20.9055C13.1688 18.9522 11.5853 17.3687 9.63199 17.3687C7.67865 17.3687 6.09515 18.9522 6.09515 20.9055C6.09515 22.1973 6.78766 23.3273 7.82169 23.9446C6.28266 24.6362 5.21094 26.1825 5.21094 27.9792V29.5265H14.053V27.9792C14.053 26.1825 12.9813 24.6362 11.4423 23.9446Z" stroke="none"/>
<path d="M16.9696 9.5759C18.0037 8.95863 18.6962 7.82861 18.6962 6.53684C18.6962 4.5835 17.1127 3 15.1593 3C13.206 3 11.6225 4.5835 11.6225 6.53684C11.6225 7.82861 12.315 8.95863 13.349 9.5759C11.81 10.2675 10.7383 11.8139 10.7383 13.6105V15.1579H19.5804V13.6105C19.5804 11.8139 18.5087 10.2675 16.9696 9.5759Z" stroke="none"/>
</symbol>

<symbol id="calendar" viewBox="0 0 22 22" xmlns="http://www.w3.org/2000/svg">
<path d="M8 10H5V13H8V10Z" fill="#333333"/>
<path fill-rule="evenodd" clip-rule="evenodd" d="M6 2C5.44772 2 5 2.44772 5 3V4H3C2.44772 4 2 4.44772 2 5V19C2 19.5523 2.44772 20 3 20H19C19.5523 20 20 19.5523 20 19V5C20 4.44772 19.5523 4 19 4H17V3C17 2.44772 16.5523 2 16 2C15.4477 2 15 2.44772 15 3V4H7V3C7 2.44772 6.55229 2 6 2ZM4 9V18H18V9H4Z" fill="#333333"/>
</symbol>

<symbol id="group" viewBox="0 0 22 22" xmlns="http://www.w3.org/2000/svg">
<path d="M13.0474 10.437C14.2168 9.73893 15 8.46093 15 7C15 4.79086 13.2091 3 11 3C8.79086 3 7 4.79086 7 7C7 8.46093 7.7832 9.73893 8.95263 10.437C7.21207 11.2192 6 12.9681 6 15V18H16V15C16 12.9681 14.7879 11.2192 13.0474 10.437Z" fill="#333333"/>
<path fill-rule="evenodd" clip-rule="evenodd" d="M16.917 14H21V11.8C21 10.3099 20.1516 9.02743 18.9332 8.45382C19.7518 7.94188 20.3 7.00468 20.3 5.93333C20.3 4.3133 19.0464 3 17.5 3C16.542 3 15.6963 3.50407 15.1915 4.27286C15.7028 5.05718 16 5.99389 16 7C16 7.44599 15.9416 7.87827 15.832 8.28963C15.9075 8.34834 15.9858 8.40316 16.0668 8.45382C15.9493 8.50916 15.8352 8.57108 15.725 8.63916C15.5088 9.26223 15.173 9.82915 14.7453 10.3124C15.8722 11.214 16.6677 12.514 16.917 14ZM14.9929 7.24086C14.9976 7.16118 15 7.08087 15 7C15 6.48461 14.9025 5.99199 14.725 5.53957C14.7085 5.66836 14.7 5.79981 14.7 5.93333C14.7 6.40316 14.8054 6.84718 14.9929 7.24086ZM15.9 14H14V11.8C14 11.5447 14.0249 11.2955 14.0723 11.055C14.9949 11.7745 15.6585 12.8106 15.9 14Z" fill="#333333"/>
<path fill-rule="evenodd" clip-rule="evenodd" d="M6.80852 4.27286C6.30371 3.50407 5.45804 3 4.5 3C2.9536 3 1.7 4.3133 1.7 5.93333C1.7 7.00468 2.24824 7.94188 3.06684 8.45382C1.84845 9.02743 1 10.3099 1 11.8V14H5.08296C5.33228 12.514 6.12778 11.214 7.25473 10.3124C6.82705 9.82915 6.49117 9.26223 6.27499 8.63916C6.16478 8.57108 6.05069 8.50916 5.93316 8.45382C6.01417 8.40316 6.09253 8.34834 6.16797 8.28963C6.05843 7.87827 6 7.44599 6 7C6 5.99389 6.29717 5.05718 6.80852 4.27286ZM7.9277 11.055C7.0051 11.7745 6.34145 12.8106 6.10002 14H8V11.8C8 11.5447 7.9751 11.2955 7.9277 11.055ZM7.27499 5.53957C7.29148 5.66836 7.3 5.79981 7.3 5.93333C7.3 6.40316 7.19457 6.84718 7.00713 7.24086C7.0024 7.16118 7 7.08087 7 7C7 6.48461 7.09747 5.99199 7.27499 5.53957Z" fill="#333333"/>
</symbol>

<symbol id="mdm" viewBox="0 0 19 24" xmlns="http://www.w3.org/2000/svg">
<mask id="path-1-outside-1" maskUnits="userSpaceOnUse" x="0" y="-0.108661" width="19" height="24" fill="black">
<rect fill="white" y="-0.108661" width="19" height="24"/>
<path fill-rule="evenodd" clip-rule="evenodd" d="M2.84054 5.57617C1.72559 6.04339 1 7.13416 1 8.34305V23H8V18.5C8 17.6716 8.67157 17 9.5 17C10.3284 17 11 17.6716 11 18.5V23H18V8.40362C18 7.1644 17.2381 6.05271 16.0823 5.60565L14.5555 5.01505C14.1291 4.85011 13.746 4.5899 13.4355 4.2543L10.9183 1.5332C10.1451 0.6974 8.83121 0.674761 8.0297 1.48343L5.19821 4.34019C4.92065 4.62023 4.5906 4.84281 4.22694 4.9952L2.84054 5.57617Z"/>
</mask>
<path d="M2.84054 5.57617L3.03378 6.03731L2.84054 5.57617ZM1 23H0.5V23.5H1V23ZM8 23V23.5H8.5V23H8ZM11 23H10.5V23.5H11V23ZM18 23V23.5H18.5V23H18ZM16.0823 5.60565L16.2627 5.13932L16.0823 5.60565ZM14.5555 5.01505L14.3751 5.48138H14.3751L14.5555 5.01505ZM13.4355 4.2543L13.0685 4.59383V4.59383L13.4355 4.2543ZM10.9183 1.5332L11.2854 1.19366V1.19366L10.9183 1.5332ZM8.0297 1.48343L8.38482 1.8354V1.8354L8.0297 1.48343ZM5.19821 4.34019L4.84309 3.98821L5.19821 4.34019ZM4.22694 4.9952L4.42019 5.45634L4.22694 4.9952ZM1.5 8.34305C1.5 7.33564 2.10466 6.42666 3.03378 6.03731L2.6473 5.11502C1.34652 5.66011 0.5 6.93268 0.5 8.34305H1.5ZM1.5 23V8.34305H0.5V23H1.5ZM8 22.5H1V23.5H8V22.5ZM8.5 23V18.5H7.5V23H8.5ZM8.5 18.5C8.5 17.9477 8.94772 17.5 9.5 17.5V16.5C8.39543 16.5 7.5 17.3954 7.5 18.5H8.5ZM9.5 17.5C10.0523 17.5 10.5 17.9477 10.5 18.5H11.5C11.5 17.3954 10.6046 16.5 9.5 16.5V17.5ZM10.5 18.5V23H11.5V18.5H10.5ZM18 22.5H11V23.5H18V22.5ZM17.5 8.40362V23H18.5V8.40362H17.5ZM15.9019 6.07197C16.865 6.44453 17.5 7.37094 17.5 8.40362H18.5C18.5 6.95786 17.6111 5.66089 16.2627 5.13932L15.9019 6.07197ZM14.3751 5.48138L15.9019 6.07197L16.2627 5.13932L14.7359 4.54872L14.3751 5.48138ZM13.0685 4.59383C13.4307 4.98537 13.8776 5.28895 14.3751 5.48138L14.7359 4.54872C14.3805 4.41127 14.0613 4.19443 13.8026 3.91476L13.0685 4.59383ZM10.5513 1.87273L13.0685 4.59383L13.8026 3.91476L11.2854 1.19366L10.5513 1.87273ZM8.38482 1.8354C8.98595 1.22891 9.97141 1.24589 10.5513 1.87273L11.2854 1.19366C10.3189 0.148915 8.67647 0.120616 7.67458 1.13145L8.38482 1.8354ZM5.55333 4.69216L8.38482 1.8354L7.67458 1.13145L4.84309 3.98821L5.55333 4.69216ZM4.42019 5.45634C4.84445 5.27856 5.22951 5.01888 5.55333 4.69216L4.84309 3.98821C4.61179 4.22158 4.33675 4.40706 4.0337 4.53405L4.42019 5.45634ZM3.03378 6.03731L4.42019 5.45634L4.0337 4.53405L2.6473 5.11502L3.03378 6.03731Z" fill="white" mask="url(#path-1-outside-1)"/>
<path fill-rule="evenodd" clip-rule="evenodd" d="M2.84054 5.57617C1.72559 6.04339 1 7.13416 1 8.34305V23H8V18.5C8 17.6716 8.67157 17 9.5 17C10.3284 17 11 17.6716 11 18.5V23H18V8.40362C18 7.1644 17.2381 6.05271 16.0823 5.60565L14.5555 5.01505C14.1291 4.85011 13.746 4.5899 13.4355 4.2543L10.9183 1.5332C10.1451 0.6974 8.83121 0.674761 8.0297 1.48343L5.19821 4.34018C4.92065 4.62023 4.5906 4.84281 4.22694 4.9952L2.84054 5.57617ZM11 4.5C11 5.32843 10.3284 6 9.5 6C8.67157 6 8 5.32843 8 4.5C8 3.67157 8.67157 3 9.5 3C10.3284 3 11 3.67157 11 4.5ZM4.25 15.9354C3.54057 16.0544 3 16.6714 3 17.4146V18.75H4.25V15.9354ZM3 21.9146V19.25H4.25V21.9146H3ZM4.75 21.9146V19.25H6V21.9146H4.75ZM6 17.4146V18.75H4.75V15.9354C5.45943 16.0544 6 16.6714 6 17.4146ZM13 17.4146C13 16.6714 13.5406 16.0544 14.25 15.9354V18.75H13V17.4146ZM13 19.25V21.9146H14.25V19.25H13ZM14.75 19.25V21.9146H16V19.25H14.75ZM16 18.75V17.4146C16 16.6714 15.4594 16.0544 14.75 15.9354V18.75H16ZM14.25 8C13.5406 8.11902 13 8.73601 13 9.47926V10.8146H14.25V8ZM13 13.9793V11.3146H14.25V13.9793H13ZM14.75 13.9793V11.3146H16V13.9793H14.75ZM16 9.47926V10.8146H14.75V8C15.4594 8.11902 16 8.73601 16 9.47926ZM8 9.47926C8 8.73601 8.54057 8.11902 9.25 8V10.8146H8V9.47926ZM8 11.3146V13.9793H9.25V11.3146H8ZM9.75 11.3146V13.9793H11V11.3146H9.75ZM11 10.8146V9.47926C11 8.73601 10.4594 8.11902 9.75 8V10.8146H11ZM4.25 8C3.54057 8.11902 3 8.73601 3 9.47926V10.8146H4.25V8ZM3 13.9793V11.3146H4.25V13.9793H3ZM4.75 13.9793V11.3146H6V13.9793H4.75ZM6 9.47926V10.8146H4.75V8C5.45943 8.11902 6 8.73601 6 9.47926Z" stroke="none"/>
</symbol>

<symbol id="mdm" viewBox="0 0 18 24" fill="none" xmlns="http://www.w3.org/2000/svg">
<path fill-rule="evenodd" clip-rule="evenodd" d="M0 23.1087V7.95171C0 6.54134 0.84652 5.26877 2.1473 4.72368L3.5337 4.14271C3.83675 4.01572 4.11179 3.83024 4.34309 3.59687L7.17458 0.740107C8.17647 -0.270723 9.81889 -0.242424 10.7854 0.802322L13.3026 3.52342C13.5613 3.80309 13.8805 4.01994 14.2359 4.15738L15.7627 4.74798C17.1111 5.26956 18 6.56652 18 8.01228V23.1087H10V18.1087C10 17.5564 9.55229 17.1087 9 17.1087C8.44772 17.1087 8 17.5564 8 18.1087V23.1087H0ZM10.5 22.6087V18.1087C10.5 17.2802 9.82843 16.6087 9 16.6087C8.17157 16.6087 7.5 17.2802 7.5 18.1087V22.6087H0.5V7.95171C0.5 6.74282 1.22559 5.65205 2.34054 5.18483L3.72694 4.60386C4.0906 4.45147 4.42065 4.22889 4.69821 3.94885L7.5297 1.09209C8.33121 0.283422 9.64515 0.306061 10.4183 1.14186L12.9355 3.86296C13.246 4.19857 13.6291 4.45878 14.0555 4.62371L15.5823 5.21431C16.7381 5.66137 17.5 6.77306 17.5 8.01228V22.6087H10.5Z" fill="white"/>
<path fill-rule="evenodd" clip-rule="evenodd" d="M2.34054 5.18483C1.22559 5.65205 0.5 6.74282 0.5 7.95171V22.6087L7.5 22.6087V18.1087C7.5 17.2802 8.17157 16.6087 9 16.6087C9.82843 16.6087 10.5 17.2802 10.5 18.1087V22.6087L17.5 22.6087V8.01228C17.5 6.77306 16.7381 5.66137 15.5823 5.21431L14.0555 4.62371C13.6291 4.45877 13.246 4.19856 12.9355 3.86296L10.4183 1.14186C9.64515 0.306061 8.33121 0.283422 7.5297 1.09209L4.69821 3.94885C4.42065 4.22889 4.0906 4.45147 3.72694 4.60386L2.34054 5.18483ZM10.5 4.10866C10.5 4.93709 9.82843 5.60866 9 5.60866C8.17157 5.60866 7.5 4.93709 7.5 4.10866C7.5 3.28023 8.17157 2.60866 9 2.60866C9.82843 2.60866 10.5 3.28023 10.5 4.10866ZM3.75 15.544C3.04057 15.6631 2.5 16.2801 2.5 17.0233V18.3587H3.75V15.544ZM2.5 21.5233V18.8587H3.75V21.5233H2.5ZM4.25 21.5233V18.8587H5.5V21.5233H4.25ZM5.5 17.0233V18.3587H4.25V15.544C4.95943 15.6631 5.5 16.2801 5.5 17.0233ZM12.5 17.0233C12.5 16.2801 13.0406 15.6631 13.75 15.544V18.3587H12.5V17.0233ZM12.5 18.8587V21.5233H13.75V18.8587H12.5ZM14.25 18.8587V21.5233H15.5V18.8587H14.25ZM15.5 18.3587V17.0233C15.5 16.2801 14.9594 15.6631 14.25 15.544V18.3587H15.5ZM13.75 7.60866C13.0406 7.72768 12.5 8.34467 12.5 9.08792V10.4233H13.75V7.60866ZM12.5 13.5879V10.9233H13.75V13.5879H12.5ZM14.25 13.5879V10.9233H15.5V13.5879H14.25ZM15.5 9.08792V10.4233H14.25V7.60866C14.9594 7.72768 15.5 8.34467 15.5 9.08792ZM7.5 9.08792C7.5 8.34467 8.04057 7.72768 8.75 7.60866V10.4233H7.5V9.08792ZM7.5 10.9233V13.5879H8.75V10.9233H7.5ZM9.25 10.9233V13.5879H10.5V10.9233H9.25ZM10.5 10.4233V9.08792C10.5 8.34467 9.95943 7.72768 9.25 7.60866V10.4233H10.5ZM3.75 7.60866C3.04057 7.72768 2.5 8.34467 2.5 9.08792V10.4233H3.75V7.60866ZM2.5 13.5879V10.9233H3.75V13.5879H2.5ZM4.25 13.5879V10.9233H5.5V13.5879H4.25ZM5.5 9.08792V10.4233H4.25V7.60866C4.95943 7.72768 5.5 8.34467 5.5 9.08792Z"/>
</symbol>

<symbol id="mdmActive" viewBox="0 0 18 24" fill="none" xmlns="http://www.w3.org/2000/svg">
<path fill-rule="evenodd" clip-rule="evenodd" d="M0 23.1087V7.95171C0 6.54134 0.84652 5.26877 2.1473 4.72368L3.5337 4.14271C3.83675 4.01572 4.11179 3.83024 4.34309 3.59687L7.17458 0.740107C8.17647 -0.270723 9.81889 -0.242424 10.7854 0.802322L13.3026 3.52342C13.5613 3.80309 13.8805 4.01994 14.2359 4.15738L15.7627 4.74798C17.1111 5.26956 18 6.56652 18 8.01228V23.1087H10V18.1087C10 17.5564 9.55229 17.1087 9 17.1087C8.44772 17.1087 8 17.5564 8 18.1087V23.1087H0ZM10.5 22.6087V18.1087C10.5 17.2802 9.82843 16.6087 9 16.6087C8.17157 16.6087 7.5 17.2802 7.5 18.1087V22.6087H0.5V7.95171C0.5 6.74282 1.22559 5.65205 2.34054 5.18483L3.72694 4.60386C4.0906 4.45147 4.42065 4.22889 4.69821 3.94885L7.5297 1.09209C8.33121 0.283422 9.64515 0.306061 10.4183 1.14186L12.9355 3.86296C13.246 4.19857 13.6291 4.45878 14.0555 4.62371L15.5823 5.21431C16.7381 5.66137 17.5 6.77306 17.5 8.01228V22.6087H10.5Z" fill="white"/>
<path fill-rule="evenodd" clip-rule="evenodd" d="M2.34054 5.18483C1.22559 5.65205 0.5 6.74282 0.5 7.95171V22.6087L7.5 22.6087V18.1087C7.5 17.2802 8.17157 16.6087 9 16.6087C9.82843 16.6087 10.5 17.2802 10.5 18.1087V22.6087L17.5 22.6087V8.01228C17.5 6.77306 16.7381 5.66137 15.5823 5.21431L14.0555 4.62371C13.6291 4.45877 13.246 4.19856 12.9355 3.86296L10.4183 1.14186C9.64515 0.306061 8.33121 0.283422 7.5297 1.09209L4.69821 3.94885C4.42065 4.22889 4.0906 4.45147 3.72694 4.60386L2.34054 5.18483ZM10.5 4.10866C10.5 4.93709 9.82843 5.60866 9 5.60866C8.17157 5.60866 7.5 4.93709 7.5 4.10866C7.5 3.28023 8.17157 2.60866 9 2.60866C9.82843 2.60866 10.5 3.28023 10.5 4.10866ZM3.75 15.544C3.04057 15.6631 2.5 16.2801 2.5 17.0233V18.3587H3.75V15.544ZM2.5 21.5233V18.8587H3.75V21.5233H2.5ZM4.25 21.5233V18.8587H5.5V21.5233H4.25ZM5.5 17.0233V18.3587H4.25V15.544C4.95943 15.6631 5.5 16.2801 5.5 17.0233ZM12.5 17.0233C12.5 16.2801 13.0406 15.6631 13.75 15.544V18.3587H12.5V17.0233ZM12.5 18.8587V21.5233H13.75V18.8587H12.5ZM14.25 18.8587V21.5233H15.5V18.8587H14.25ZM15.5 18.3587V17.0233C15.5 16.2801 14.9594 15.6631 14.25 15.544V18.3587H15.5ZM13.75 7.60866C13.0406 7.72768 12.5 8.34467 12.5 9.08792V10.4233H13.75V7.60866ZM12.5 13.5879V10.9233H13.75V13.5879H12.5ZM14.25 13.5879V10.9233H15.5V13.5879H14.25ZM15.5 9.08792V10.4233H14.25V7.60866C14.9594 7.72768 15.5 8.34467 15.5 9.08792ZM7.5 9.08792C7.5 8.34467 8.04057 7.72768 8.75 7.60866V10.4233H7.5V9.08792ZM7.5 10.9233V13.5879H8.75V10.9233H7.5ZM9.25 10.9233V13.5879H10.5V10.9233H9.25ZM10.5 10.4233V9.08792C10.5 8.34467 9.95943 7.72768 9.25 7.60866V10.4233H10.5ZM3.75 7.60866C3.04057 7.72768 2.5 8.34467 2.5 9.08792V10.4233H3.75V7.60866ZM2.5 13.5879V10.9233H3.75V13.5879H2.5ZM4.25 13.5879V10.9233H5.5V13.5879H4.25ZM5.5 9.08792V10.4233H4.25V7.60866C4.95943 7.72768 5.5 8.34467 5.5 9.08792Z" fill="#ED3939"/>
</symbol>

<symbol id="mdmHover" viewBox="0 0 48 48" fill="none" xmlns="http://www.w3.org/2000/svg">
<path fill-rule="evenodd" clip-rule="evenodd" d="M15 35.1087V19.9517C15 18.5413 15.8465 17.2688 17.1473 16.7237L18.5337 16.1427C18.8367 16.0157 19.1118 15.8302 19.3431 15.5969L22.1746 12.7401C23.1765 11.7293 24.8189 11.7576 25.7854 12.8023L28.3026 15.5234C28.5613 15.8031 28.8805 16.0199 29.2359 16.1574L30.7627 16.748C32.1111 17.2696 33 18.5665 33 20.0123V35.1087H25V30.1087C25 29.5564 24.5523 29.1087 24 29.1087C23.4477 29.1087 23 29.5564 23 30.1087V35.1087H15ZM25.5 34.6087V30.1087C25.5 29.2802 24.8284 28.6087 24 28.6087C23.1716 28.6087 22.5 29.2802 22.5 30.1087V34.6087H15.5V19.9517C15.5 18.7428 16.2256 17.652 17.3405 17.1848L18.7269 16.6039C19.0906 16.4515 19.4206 16.2289 19.6982 15.9488L22.5297 13.0921C23.3312 12.2834 24.6451 12.3061 25.4183 13.1419L27.9355 15.863C28.246 16.1986 28.6291 16.4588 29.0555 16.6237L30.5823 17.2143C31.7381 17.6614 32.5 18.7731 32.5 20.0123V34.6087H25.5Z" fill="white"/>
<path fill-rule="evenodd" clip-rule="evenodd" d="M17.3405 17.1848C16.2256 17.652 15.5 18.7428 15.5 19.9517V34.6087L22.5 34.6087V30.1087C22.5 29.2802 23.1716 28.6087 24 28.6087C24.8284 28.6087 25.5 29.2802 25.5 30.1087V34.6087L32.5 34.6087V20.0123C32.5 18.7731 31.7381 17.6614 30.5823 17.2143L29.0555 16.6237C28.6291 16.4588 28.246 16.1986 27.9355 15.863L25.4183 13.1419C24.6451 12.3061 23.3312 12.2834 22.5297 13.0921L19.6982 15.9488C19.4206 16.2289 19.0906 16.4515 18.7269 16.6039L17.3405 17.1848ZM25.5 16.1087C25.5 16.9371 24.8284 17.6087 24 17.6087C23.1716 17.6087 22.5 16.9371 22.5 16.1087C22.5 15.2802 23.1716 14.6087 24 14.6087C24.8284 14.6087 25.5 15.2802 25.5 16.1087ZM18.75 27.544C18.0406 27.6631 17.5 28.2801 17.5 29.0233V30.3587H18.75V27.544ZM17.5 33.5233V30.8587H18.75V33.5233H17.5ZM19.25 33.5233V30.8587H20.5V33.5233H19.25ZM20.5 29.0233V30.3587H19.25V27.544C19.9594 27.6631 20.5 28.2801 20.5 29.0233ZM27.5 29.0233C27.5 28.2801 28.0406 27.6631 28.75 27.544V30.3587H27.5V29.0233ZM27.5 30.8587V33.5233H28.75V30.8587H27.5ZM29.25 30.8587V33.5233H30.5V30.8587H29.25ZM30.5 30.3587V29.0233C30.5 28.2801 29.9594 27.6631 29.25 27.544V30.3587H30.5ZM28.75 19.6087C28.0406 19.7277 27.5 20.3447 27.5 21.0879V22.4233H28.75V19.6087ZM27.5 25.5879V22.9233H28.75V25.5879H27.5ZM29.25 25.5879V22.9233H30.5V25.5879H29.25ZM30.5 21.0879V22.4233H29.25V19.6087C29.9594 19.7277 30.5 20.3447 30.5 21.0879ZM22.5 21.0879C22.5 20.3447 23.0406 19.7277 23.75 19.6087V22.4233H22.5V21.0879ZM22.5 22.9233V25.5879H23.75V22.9233H22.5ZM24.25 22.9233V25.5879H25.5V22.9233H24.25ZM25.5 22.4233V21.0879C25.5 20.3447 24.9594 19.7277 24.25 19.6087V22.4233H25.5ZM18.75 19.6087C18.0406 19.7277 17.5 20.3447 17.5 21.0879V22.4233H18.75V19.6087ZM17.5 25.5879V22.9233H18.75V25.5879H17.5ZM19.25 25.5879V22.9233H20.5V25.5879H19.25ZM20.5 21.0879V22.4233H19.25V19.6087C19.9594 19.7277 20.5 20.3447 20.5 21.0879Z" fill="#BD9E6A"/>
</symbol>

<symbol id="conseillerFranceService" viewBox="0 0 48 48" xmlns="http://www.w3.org/2000/svg">
<path d="M24.1752 4.3111L12 11.3612V25.4094L23.5247 45.3111H24.8255L36.3503 25.4094V11.3612L24.1752 4.3111Z"/>
<path fill-rule="evenodd" clip-rule="evenodd" d="M24.1752 2L38.3503 10.2083V25.9467L25.9785 47.3111H22.3718L10 25.9467V10.2082L24.1752 2ZM12 25.4094V11.3612L24.1752 4.31111L36.3503 11.3612V25.4094L24.8255 45.3111H23.5247L12 25.4094Z" fill="white"/>
<path d="M27.661 16.3823H32.2657V13.7028L24.175 9.02002L16.0582 13.7028V23.0682L24.175 27.725L32.2657 23.0682V20.3887H27.661V16.3823Z" fill="white"/>
<path d="M27.661 20.3886V16.3823L24.1749 14.3531L20.6889 16.3823V20.3886L24.1749 22.3918L27.661 20.3886Z" fill="#000091"/>
</symbol>

<symbol id="conseillerFranceServiceSelected" viewBox="0 0 48 48" fill="none" xmlns="http://www.w3.org/2000/svg">
<path d="M24.1752 4.3111L12 11.3612V25.4094L23.5247 45.3111H24.8255L36.3503 25.4094V11.3612L24.1752 4.3111Z" fill="white"/>
<path fill-rule="evenodd" clip-rule="evenodd" d="M24.1752 2L38.3503 10.2083V25.9467L25.9785 47.3111H22.3718L10 25.9467V10.2082L24.1752 2ZM12 25.4094V11.3612L24.1752 4.31111L36.3503 11.3612V25.4094L24.8255 45.3111H23.5247L12 25.4094Z" fill="#ED3939"/>
<path d="M27.661 16.3823H32.2657V13.7028L24.175 9.02002L16.0582 13.7028V23.0682L24.175 27.725L32.2657 23.0682V20.3887H27.661V16.3823Z" fill="#ED3939"/>
<path d="M27.661 20.3886V16.3823L24.1749 14.3531L20.6889 16.3823V20.3886L24.1749 22.3918L27.661 20.3886Z" fill="#3B3BE7"/>
</symbol>

<symbol id="conseillerFranceServiceAdded" viewBox="0 0 48 48" fill="none" xmlns="http://www.w3.org/2000/svg">
<path d="M24.1752 4.3111L12 11.3612V25.4094L23.5247 45.3111H24.8255L36.3503 25.4094V11.3612L24.1752 4.3111Z" fill="#47C562"/>
<path fill-rule="evenodd" clip-rule="evenodd" d="M24.1752 2L38.3503 10.2083V25.9467L25.9785 47.3111H22.3718L10 25.9467V10.2082L24.1752 2ZM12 25.4094V11.3612L24.1752 4.31111L36.3503 11.3612V25.4094L24.8255 45.3111H23.5247L12 25.4094Z" fill="white"/>
<path d="M32.5 23.5746V13.9001L24.25 9L16 13.9001V23.5746L24.25 28.4118L32.5 23.5746Z" fill="white"/>
<path d="M30.6177 15.3789C29.9985 14.8285 29.0504 14.8843 28.5 15.5035L23.452 21.1104L20.4396 18.507C19.7939 17.988 18.8497 18.0909 18.3308 18.7366C17.8119 19.3824 17.9147 20.3266 18.5605 20.8455L22.6853 24.3429C23.3085 24.8436 24.2149 24.7677 24.746 24.1702L30.7422 17.4966C31.2926 16.8774 31.2368 15.9293 30.6177 15.3789Z" fill="#47C562"/>
</symbol>

<symbol id="conseillerFranceServiceHover" viewBox="0 0 48 48" fill="none" xmlns="http://www.w3.org/2000/svg">
<path d="M24.1752 4.3111L12 11.3612V25.4094L23.5247 45.3111H24.8255L36.3503 25.4094V11.3612L24.1752 4.3111Z" fill="#A00000"/>
<path fill-rule="evenodd" clip-rule="evenodd" d="M24.1752 2L38.3503 10.2083V25.9467L25.9785 47.3111H22.3718L10 25.9467V10.2082L24.1752 2ZM12 25.4094V11.3612L24.1752 4.31111L36.3503 11.3612V25.4094L24.8255 45.3111H23.5247L12 25.4094Z" fill="white"/>
<path d="M27.661 16.3823H32.2657V13.7028L24.175 9.02002L16.0582 13.7028V23.0682L24.175 27.725L32.2657 23.0682V20.3887H27.661V16.3823Z" fill="white" fill-opacity="0.8"/>
<path d="M27.661 20.3886V16.3823L24.1749 14.3531L20.6889 16.3823V20.3886L24.1749 22.3918L27.661 20.3886Z" fill="#010176"/>
</symbol>

<symbol id="borne" viewBox="0 0 22 22" xmlns="http://www.w3.org/2000/svg">
<rect x="5" width="12" height="9" rx="1" stroke-width="1.9" fill="none"/>
<path d="M6 14H16L14.6364 22H7.36364L6 14Z"/>
<path d="M5.04692 10.1658C5.12212 10.0617 5.24275 10 5.37119 10H16.6288C16.7573 10 16.8779 10.0617 16.9531 10.1658L18.542 12.3658C18.733 12.6303 18.544 13 18.2177 13H3.7823C3.45599 13 3.26698 12.6303 3.45803 12.3658L5.04692 10.1658Z" stroke="none"/>
</symbol>

<symbol id="wifi" viewBox="0 0 22 22" xmlns="http://www.w3.org/2000/svg">
<path d="M1.08488 8.63175C3.61838 6.09825 7.11838 4.53125 10.9844 4.53125C14.8504 4.53125 18.3504 6.09825 20.8839 8.63175L19.4697 10.046C17.2981 7.87439 14.2981 6.53125 10.9844 6.53125C7.67066 6.53125 4.67066 7.8744 2.49909 10.046L1.08488 8.63175Z" stroke="none"/>
<path d="M1.20434 28.5488C3.72784 31.0128 7.17878 32.5312 10.9844 32.5312C14.7486 32.5312 18.1658 31.0457 20.6818 28.6288C20.0912 29.196 19.4494 29.7127 18.7624 30.1718C16.4601 31.7102 13.7533 32.5312 10.9844 32.5312C8.21543 32.5312 5.50867 31.7102 3.20639 30.1718C2.48717 29.6913 1.81751 29.1474 1.20434 28.5488Z" stroke="none"/>
<path d="M18.0554 11.4602C16.2458 9.65054 13.7458 8.53125 10.9844 8.53125C8.22295 8.53125 5.72295 9.65054 3.91331 11.4602L5.32752 12.8744C6.77523 11.4267 8.77523 10.5312 10.9844 10.5312C13.1935 10.5312 15.1935 11.4267 16.6412 12.8744L18.0554 11.4602Z" stroke="none"/>
<path d="M15.227 14.2886C14.1412 13.2028 12.6412 12.5312 10.9844 12.5312C9.32752 12.5312 7.82752 13.2028 6.74173 14.2886L8.15595 15.7028C8.8798 14.979 9.8798 14.5312 10.9844 14.5312C12.0889 14.5312 13.0889 14.979 13.8128 15.7028L15.227 14.2886Z" stroke="none"/>
<path d="M12.3986 17.117C12.0367 16.7551 11.5367 16.5312 10.9844 16.5312C10.4321 16.5312 9.93209 16.7551 9.57016 17.117L10.9844 18.5312L12.3986 17.117Z" stroke="none"/>
</symbol>

<symbol id="moreOpts" viewBox="0 0 22 22" xmlns="http://www.w3.org/2000/svg">
<path fill-rule="evenodd" clip-rule="evenodd" d="M11 7.66675C12.1 7.66675 13 6.76675 13 5.66675C13 4.56675 12.1 3.66675 11 3.66675C9.9 3.66675 9 4.56675 9 5.66675C9 6.76675 9.9 7.66675 11 7.66675ZM11 9.66675C9.9 9.66675 9 10.5667 9 11.6667C9 12.7667 9.9 13.6667 11 13.6667C12.1 13.6667 13 12.7667 13 11.6667C13 10.5667 12.1 9.66675 11 9.66675ZM9 17.6667C9 16.5667 9.9 15.6667 11 15.6667C12.1 15.6667 13 16.5667 13 17.6667C13 18.7667 12.1 19.6667 11 19.6667C9.9 19.6667 9 18.7667 9 17.6667Z" stroke="none"/>
</symbol>

<symbol id="camera" width="100" height="113" viewBox="0 0 100 113" fill="none" xmlns="http://www.w3.org/2000/svg">
<rect width="100" height="113" rx="12" fill="#F8F8F8"/>
<path d="M27 11H15C13.8954 11 13 11.8954 13 13V25" stroke="#BDBDBD" stroke-width="2" stroke-linecap="round"/>
<path d="M27 100H15C13.8954 100 13 99.1046 13 98V86" stroke="#BDBDBD" stroke-width="2" stroke-linecap="round"/>
<path d="M73 11H85C86.1046 11 87 11.8954 87 13V25" stroke="#BDBDBD" stroke-width="2" stroke-linecap="round"/>
<path d="M73 100H85C86.1046 100 87 99.1046 87 98V86" stroke="#BDBDBD" stroke-width="2" stroke-linecap="round"/>
<path fill-rule="evenodd" clip-rule="evenodd" d="M61.1175 39.1429H72.7941C75.6692 39.1429 78 41.5002 78 44.4082V70.7347C78 73.6426 75.6692 76 72.7941 76H24.2059C21.3308 76 19 73.6426 19 70.7347V44.4082C19 41.5002 21.3308 39.1429 24.2059 39.1429H36.7502C37.8558 35.5825 41.1444 33 45.0294 33H52.8382C56.7232 33 60.0119 35.5825 61.1175 39.1429ZM49.5 70C56.9558 70 63 63.9558 63 56.5C63 49.0442 56.9558 43 49.5 43C42.0442 43 36 49.0442 36 56.5C36 63.9558 42.0442 70 49.5 70Z" fill="#C4C4C4"/>
<circle cx="49.5" cy="56.5" r="10.5" fill="#BDBDBD"/>
</symbol>

<symbol id="locateMe" width="25" height="34" viewBox="0 0 24 27" fill="none" xmlns="http://www.w3.org/2000/svg">
<path fill-rule="evenodd" clip-rule="evenodd" d="M15.5591 23.2986C19.8303 19.413 23.125 16.4157 23.125 11.5C23.125 5.14873 17.9763 0 11.625 0C5.27373 0 0.125 5.14873 0.125 11.5C0.125 16.6933 2.79938 19.0768 7.87479 23.6001C9.00649 24.6087 10.2576 25.7237 11.625 27C12.9811 25.6439 14.3117 24.4334 15.5591 23.2986ZM11.625 16C14.1103 16 16.125 13.9853 16.125 11.5C16.125 9.01472 14.1103 7 11.625 7C9.13972 7 7.125 9.01472 7.125 11.5C7.125 13.9853 9.13972 16 11.625 16Z" fill="#828282"/>
</symbol>

<symbol id="passNumeric" width="25" height="45" viewBox="0 0 38 38" fill="none" xmlns="http://www.w3.org/2000/svg">
<path fill-rule="evenodd" clip-rule="evenodd" d="M1.875 9.49658H35.875V14.8452C34.0229 15.5776 32.7128 17.3841 32.7128 19.4966C32.7128 21.6091 34.0229 23.4157 35.875 24.148V29.4966H1.875V24.148C3.72706 23.4157 5.03717 21.6091 5.03717 19.4966C5.03717 17.3841 3.72706 15.5776 1.875 14.8452V9.49658Z" fill="white"/>
<path d="M35.875 9.49658H36.525C36.525 9.1376 36.234 8.84658 35.875 8.84658V9.49658ZM1.875 9.49658V8.84658C1.51601 8.84658 1.225 9.1376 1.225 9.49658H1.875ZM35.875 14.8452L36.114 15.4497C36.3621 15.3516 36.525 15.1119 36.525 14.8452H35.875ZM35.875 24.148H36.525C36.525 23.8813 36.3621 23.6417 36.114 23.5436L35.875 24.148ZM35.875 29.4966V30.1466C36.234 30.1466 36.525 29.8556 36.525 29.4966H35.875ZM1.875 29.4966H1.225C1.225 29.8556 1.51601 30.1466 1.875 30.1466L1.875 29.4966ZM1.875 24.148L1.63598 23.5436C1.38794 23.6417 1.225 23.8813 1.225 24.148H1.875ZM1.875 14.8452H1.225C1.225 15.1119 1.38794 15.3516 1.63598 15.4497L1.875 14.8452ZM35.875 8.84658H1.875V10.1466H35.875V8.84658ZM36.525 14.8452V9.49658H35.225V14.8452H36.525ZM33.3628 19.4966C33.3628 17.6598 34.5016 16.0873 36.114 15.4497L35.636 14.2407C33.5443 15.0679 32.0628 17.1084 32.0628 19.4966H33.3628ZM36.114 23.5436C34.5016 22.906 33.3628 21.3335 33.3628 19.4966H32.0628C32.0628 21.8848 33.5443 23.9254 35.636 24.7525L36.114 23.5436ZM36.525 29.4966V24.148H35.225V29.4966H36.525ZM1.875 30.1466H35.875V28.8466H1.875V30.1466ZM1.225 24.148V29.4966H2.525V24.148H1.225ZM4.38717 19.4966C4.38717 21.3335 3.24841 22.906 1.63598 23.5436L2.11402 24.7525C4.20571 23.9254 5.68717 21.8848 5.68717 19.4966H4.38717ZM1.63598 15.4497C3.24841 16.0873 4.38717 17.6597 4.38717 19.4966H5.68717C5.68717 17.1084 4.20571 15.0679 2.11402 14.2407L1.63598 15.4497ZM1.225 9.49658V14.8452H2.525V9.49658H1.225Z" fill="#4F4F4F"/>
<line x1="28.6031" y1="10.1466" x2="28.6031" y2="28.8466" stroke="#4F4F4F" stroke-width="1.3" stroke-linecap="round" stroke-dasharray="2 3"/>
<line x1="10.0176" y1="19.9287" x2="20.0176" y2="19.9287" stroke="#348899" stroke-width="2" stroke-linecap="round"/>
<line x1="10.0176" y1="24.9287" x2="16.0176" y2="24.9287" stroke="#348899" stroke-width="2" stroke-linecap="round"/>
</symbol>

</svg>
