<svg width="22" height="22" viewBox="0 0 22 22" fill="none" xmlns="http://www.w3.org/2000/svg">
<path fill-rule="evenodd" clip-rule="evenodd" d="M11 3C11.2228 3.00746 11.4372 3.08448 11.612 3.21953L11.6211 3.21857L11.6971 3.28918L18.6775 9.0457C18.6952 9.06031 18.7119 9.07606 18.7275 9.09284C18.8592 9.23463 18.9477 9.40976 18.983 9.59841C19.0181 9.78692 18.9987 9.9816 18.9268 10.1599C18.8549 10.3383 18.7333 10.4933 18.5761 10.6073C18.4187 10.7214 18.232 10.7899 18.037 10.8052C18.0232 10.8063 18.0092 10.8068 17.9953 10.8068H17.2786L17.3466 17.9693L17.3466 17.974C17.3466 18.246 17.2364 18.5068 17.0402 18.6991C16.844 18.8913 16.5779 18.9994 16.3003 18.9994H13.1615C12.884 18.9994 12.6178 18.8913 12.4216 18.6991C12.2254 18.5068 12.1152 18.246 12.1152 17.974V14.493C12.1152 14.4908 12.1152 14.4886 12.1152 14.4864C12.1152 14.4837 12.1153 14.481 12.1154 14.4783C12.1389 13.6731 12.0857 13.088 11.9055 12.7135C11.8228 12.5416 11.7197 12.4288 11.5913 12.3537C11.4661 12.2806 11.2814 12.2228 11 12.2171V12.2177C10.7186 12.2234 10.5339 12.2812 10.4087 12.3543C10.2803 12.4294 10.1772 12.5422 10.0945 12.7141C9.91426 13.0886 9.86107 13.6737 9.88462 14.4789C9.88469 14.4815 9.88475 14.4841 9.88478 14.4867C9.88481 14.489 9.88483 14.4913 9.88483 14.4936V17.9746C9.88483 18.2466 9.77456 18.5074 9.57838 18.6997C9.38219 18.8919 9.11604 19 8.83854 19H5.69966C5.42215 19 5.156 18.8919 4.95982 18.6997C4.76364 18.5074 4.65336 18.2466 4.65336 17.9746L4.65339 17.9699L4.72135 10.8074H4.00466C3.99075 10.8074 3.97684 10.8069 3.96298 10.8058C3.76805 10.7905 3.58128 10.722 3.42389 10.6079C3.26667 10.4939 3.14509 10.3389 3.07317 10.1605C3.0013 9.9822 2.98192 9.78752 3.01705 9.599C3.0523 9.41035 3.14082 9.23522 3.27253 9.09344C3.28812 9.07666 3.30483 9.06091 3.32255 9.04629L10.3029 3.28978L10.3789 3.21917L10.388 3.22013C10.5628 3.08508 10.7772 3.00806 11 3.0006V3Z" fill="#333333"/>
</svg>
