<svg width="32" height="32" viewBox="0 0 32 32" fill="none" xmlns="http://www.w3.org/2000/svg">
<path d="M7.04307 8H7V14H13V13.9569L7.04307 8Z" fill="#696969"/>
<path d="M10.3738 21.6869C11.5497 22.8501 13.0573 23.6202 14.6889 23.8913C16.3206 24.1623 17.9962 23.9209 19.485 23.2004C20.9738 22.4798 22.2027 21.3155 23.0025 19.8676C23.8023 18.4198 24.1336 16.7597 23.9509 15.1158C23.7683 13.4719 23.0805 11.925 21.9824 10.6881C20.8843 9.45121 19.4297 8.58509 17.819 8.20897C16.2083 7.83285 14.5207 7.96523 12.9883 8.58789C11.456 9.21054 10.1543 10.2929 9.26242 11.6859" stroke="#696969" stroke-width="1.5"/>
</svg>
