<svg width="32" height="32" viewBox="0 0 32 32" fill="none" xmlns="http://www.w3.org/2000/svg">
<path fill-rule="evenodd" clip-rule="evenodd" d="M7 4C5.89543 4 5 4.89543 5 6V23C5 24.1046 5.89543 25 7 25L7 26.5C7 27.3284 7.67157 28 8.5 28C9.32843 28 10 27.3284 10 26.5V25H21V26.5C21 27.3284 21.6716 28 22.5 28C23.3284 28 24 27.3284 24 26.5V25C25.1046 25 26 24.1046 26 23V6C26 4.89543 25.1046 4 24 4H7ZM24 9H7V18H24V9ZM12 22H19L18.125 23H12.875L12 22ZM10 6C9.44772 6 9 6.44772 9 7C9 7.55228 9.44772 8 10 8H21C21.5523 8 22 7.55228 22 7C22 6.44772 21.5523 6 21 6H10ZM10.6668 21.8754C10.4609 21.1805 9.89524 20.6514 9.18821 20.4923L7 20V23H11L10.6668 21.8754ZM21.8118 20.4923C21.1048 20.6514 20.5391 21.1805 20.3332 21.8754L20 23H24V20L21.8118 20.4923Z" fill="black"/>
</svg>
