<svg width="28" height="25" viewBox="0 0 28 25" fill="none" xmlns="http://www.w3.org/2000/svg">
<path d="M21.0256 13.9213C22.2638 12.4488 23 10.5413 23 8.5C22.9665 3.81496 19.185 0 14.5 0C9.81496 0 6 3.81496 6 8.5C6 13.185 9.81496 17 14.5 17C16.5079 17 18.3819 16.2972 19.8209 15.126C20.2289 14.717 20.2289 14.717 21.0256 13.9213ZM7.67323 8.5C7.67323 4.7185 10.7185 1.67323 14.5 1.67323C18.2815 1.67323 21.3268 4.7185 21.3268 8.5C21.3268 12.2815 18.2815 15.3268 14.5 15.3268C10.7185 15.3268 7.67323 12.248 7.67323 8.5Z" fill="#333333"/>
<path d="M13.2564 17.0414C11.6597 16.8372 10.0864 16.1466 8.76423 15H8.68966C3.89049 15 0 19.1129 0 24.1864V23.9793C0 24.543 0.432277 25 0.965517 25C1.49876 25 1.93103 24.543 1.93103 23.9793V24.1864C1.93103 20.2403 4.95697 17.0414 8.68966 17.0414H13.2564Z" fill="#333333"/>
<path d="M15.3566 17.0414H19.3103C23.043 17.0414 26.069 20.2403 26.069 24.1864V23.9793C26.069 24.543 26.5012 25 27.0345 25C27.5677 25 28 24.543 28 23.9793V24.1864C28 19.335 24.4427 15.3619 19.9351 15.0234C18.5996 16.1728 16.9994 16.8552 15.3566 17.0414Z" fill="#333333"/>
</svg>
