<svg width="22" height="22" viewBox="0 0 22 22" fill="none" xmlns="http://www.w3.org/2000/svg">
<path d="M11 4C7.13895 4 4 7.13895 4 11C4 14.8611 7.13895 18 11 18C14.8611 18 18 14.8611 18 11C18 7.13895 14.8611 4 11 4ZM16.2611 8.31789H14.4926C14.2568 7.25684 13.9032 6.32842 13.4316 5.60632C14.6547 6.16632 15.6568 7.12421 16.2611 8.31789ZM16.9095 11C16.9095 11.5453 16.8358 12.0905 16.6884 12.5916H14.6842C14.7432 12.0758 14.7726 11.5453 14.7726 11C14.7726 10.4547 14.7432 9.92421 14.6842 9.40842H16.7032C16.8358 9.90948 16.9095 10.4547 16.9095 11ZM5.09053 11C5.09053 10.4547 5.16421 9.90948 5.31158 9.40842H7.33052C7.27158 9.92421 7.24211 10.4547 7.24211 11C7.24211 11.5453 7.27158 12.0758 7.33052 12.5916H5.31158C5.16421 12.0905 5.09053 11.5453 5.09053 11ZM8.31789 11C8.31789 10.4695 8.3621 9.93895 8.43579 9.40842H10.4695V12.5916H8.43579C8.3621 12.0611 8.31789 11.5305 8.31789 11ZM11.5453 5.22316C12.3558 5.60631 13.0042 6.84421 13.3579 8.33263H11.5453V5.22316ZM10.4547 5.22316V8.33263H8.64211C8.99579 6.84421 9.64421 5.60631 10.4547 5.22316ZM10.4547 13.6821V16.7916C9.64421 16.4084 8.99579 15.1705 8.64211 13.6821H10.4547ZM11.5453 16.7768V13.6674H13.3579C13.0042 15.1558 12.3558 16.3937 11.5453 16.7768ZM11.5453 12.5916V9.40842H13.5789C13.6526 9.93895 13.6968 10.4695 13.6968 11C13.6968 11.5305 13.6526 12.0611 13.5789 12.5916H11.5453ZM8.56842 5.62105C8.11158 6.34316 7.74316 7.27158 7.50737 8.33263H5.73895C6.34316 7.12421 7.34526 6.16632 8.56842 5.62105ZM5.73895 13.6821H7.50737C7.74316 14.7432 8.09684 15.6716 8.56842 16.3937C7.34526 15.8337 6.34316 14.8758 5.73895 13.6821ZM13.4316 16.3789C13.8884 15.6568 14.2568 14.7284 14.4926 13.6674H16.2611C15.6568 14.8758 14.6547 15.8337 13.4316 16.3789Z" fill="#333333"/>
</svg>
