<svg width="22" height="22" viewBox="0 0 22 22" fill="none" xmlns="http://www.w3.org/2000/svg">
<g clip-path="url(#clip0)">
<path d="M1.08488 8.63175C3.61838 6.09825 7.11838 4.53125 10.9844 4.53125C14.8504 4.53125 18.3504 6.09825 20.8839 8.63175L19.4697 10.046C17.2981 7.87439 14.2981 6.53125 10.9844 6.53125C7.67067 6.53125 4.67067 7.8744 2.4991 10.046L1.08488 8.63175Z" fill="#333333"/>
<path d="M0.987882 8.72971C-1.46518 11.2313 -2.98671 14.6496 -3.01522 18.4233C-3.00846 17.5465 -2.91931 16.6682 -2.74662 15.8C-2.21539 13.1293 -0.917109 10.6726 0.987882 8.72971Z" fill="#333333"/>
<path d="M-3.0153 18.6274C-2.99021 22.3568 -1.50692 25.7399 0.892926 28.235C-0.3114 26.9826 -1.27828 25.5103 -1.94994 23.8888C-2.64453 22.2119 -3.00294 20.4247 -3.0153 18.6274Z" fill="#333333"/>
<path d="M1.20434 28.5488C3.72785 31.0128 7.17879 32.5312 10.9844 32.5312C14.7486 32.5312 18.1659 31.0457 20.6818 28.6288C20.0912 29.196 19.4494 29.7127 18.7624 30.1718C16.4601 31.7102 13.7533 32.5312 10.9844 32.5312C8.21544 32.5312 5.50868 31.7102 3.20639 30.1718C2.48717 29.6913 1.81752 29.1474 1.20434 28.5488Z" fill="#333333"/>
<path d="M21.0019 28.3113C23.4506 25.8035 24.9655 22.3797 24.9842 18.6022C24.975 20.408 24.6165 22.2041 23.9187 23.8888C23.2333 25.5434 22.2406 27.0425 21.0019 28.3113Z" fill="#333333"/>
<path d="M24.9841 18.4483C24.9621 14.6515 23.4287 11.2129 20.9551 8.70353C22.8742 10.6505 24.1818 13.1173 24.7154 15.8C24.8897 16.6764 24.9789 17.5632 24.9841 18.4483Z" fill="#333333"/>
<path d="M18.0554 11.4602C16.2458 9.65054 13.7458 8.53125 10.9844 8.53125C8.22295 8.53125 5.72295 9.65054 3.91331 11.4602L5.32752 12.8744C6.77524 11.4267 8.77524 10.5312 10.9844 10.5312C13.1935 10.5312 15.1935 11.4267 16.6412 12.8744L18.0554 11.4602Z" fill="#333333"/>
<path d="M15.227 14.2886C14.1412 13.2028 12.6412 12.5312 10.9844 12.5312C9.32752 12.5312 7.82752 13.2028 6.74174 14.2886L8.15595 15.7028C8.87981 14.979 9.87981 14.5312 10.9844 14.5312C12.0889 14.5312 13.0889 14.979 13.8128 15.7028L15.227 14.2886Z" fill="#333333"/>
<path d="M12.3986 17.117C12.0367 16.7551 11.5367 16.5312 10.9844 16.5312C10.4321 16.5312 9.93209 16.7551 9.57016 17.117L10.9844 18.5312L12.3986 17.117Z" fill="#333333"/>
</g>
<defs>
<clipPath id="clip0">
<rect width="22" height="22" fill="white"/>
</clipPath>
</defs>
</svg>
