<svg id="svg" version="1.1" xmlns="http://www.w3.org/2000/svg" xmlns:xlink="http://www.w3.org/1999/xlink" width="400" height="400" viewBox="0, 0, 400,400"><g id="svgg"><path id="path0" d="M166.189 90.928 C 127.388 95.450,95.770 132.829,84.795 187.152 C 80.880 206.528,79.330 232.124,81.751 237.412 C 84.172 242.700,84.074 242.647,109.510 252.187 C 121.086 256.528,130.865 260.245,131.242 260.447 C 131.952 260.826,132.362 297.987,131.656 297.987 C 131.508 297.987,126.460 295.880,120.439 293.305 L 109.492 288.624 106.224 288.607 C 94.066 288.546,88.176 303.752,97.260 311.749 C 98.886 313.179,135.710 329.404,141.515 331.248 C 147.317 333.090,154.291 329.910,157.131 324.128 L 158.198 321.956 158.198 284.756 L 158.198 247.555 157.073 245.334 C 154.570 240.391,155.070 240.646,128.284 230.659 C 117.105 226.491,107.804 222.946,107.616 222.781 C 107.194 222.410,107.931 212.423,108.951 204.693 C 116.031 151.041,145.383 114.022,178.197 117.360 C 213.143 120.914,238.789 167.086,239.436 227.613 C 239.528 236.216,241.371 239.720,247.252 242.472 C 252.673 245.008,252.684 245.006,279.482 234.368 L 281.496 233.568 281.496 251.727 L 281.496 269.887 263.593 277.896 C 247.826 284.950,245.449 286.126,243.668 287.751 C 234.510 296.101,240.484 311.231,252.924 311.196 L 256.376 311.186 278.399 301.302 C 306.595 288.647,304.861 289.612,307.216 285.267 L 308.533 282.838 308.637 246.727 C 308.755 205.407,308.989 208.358,305.262 204.279 C 302.437 201.188,299.567 199.989,295.110 200.037 L 291.659 200.074 278.619 205.242 L 265.580 210.409 265.300 208.656 C 265.146 207.692,264.678 204.056,264.260 200.575 C 255.859 130.557,215.295 85.204,166.189 90.928 M278.044 106.424 L 278.044 118.888 290.508 118.888 L 302.972 118.888 302.972 106.424 L 302.972 93.960 290.508 93.960 L 278.044 93.960 278.044 106.424 M141.485 176.136 C 134.253 181.009,140.658 198.172,152.587 205.882 C 163.322 212.821,181.691 213.765,193.289 207.975 C 208.348 200.456,214.781 176.031,201.701 176.031 C 197.363 176.031,195.260 178.410,194.842 183.789 C 193.278 203.952,154.715 202.916,152.061 182.640 C 151.228 176.276,146.024 173.076,141.485 176.136 " stroke="none" fill="#242c83" fill-rule="evenodd"></path><path id="path1" d="M185.810 3.119 C 73.093 11.092,-9.895 112.386,4.245 224.736 C 15.388 313.283,85.268 383.714,173.538 395.364 C 289.109 410.617,391.790 324.487,396.926 207.982 C 402.095 90.742,303.239 -5.186,185.810 3.119 M186.385 91.245 C 227.271 98.377,258.592 143.042,264.854 203.143 C 265.201 206.477,265.538 209.404,265.603 209.647 C 265.675 209.921,270.751 208.105,278.881 204.896 C 291.855 199.775,292.086 199.701,295.110 199.688 C 300.643 199.665,304.926 202.229,307.604 207.167 L 308.917 209.588 309.036 244.871 C 309.177 286.582,309.271 285.793,303.666 289.802 C 301.146 291.604,257.764 310.908,255.146 311.392 C 242.496 313.730,233.894 298.052,242.563 288.457 C 244.637 286.161,245.070 285.939,263.993 277.449 L 281.304 269.682 281.404 251.769 C 281.483 237.487,281.405 233.894,281.020 234.044 C 280.754 234.148,275.187 236.360,268.648 238.960 L 256.759 243.687 252.924 243.704 C 248.297 243.723,246.513 243.047,243.384 240.088 C 239.708 236.611,239.231 234.969,239.096 225.343 C 238.411 176.548,219.906 134.946,193.097 121.932 C 152.831 102.386,111.770 148.721,107.916 218.052 L 107.659 222.682 129.477 230.859 C 154.751 240.332,155.082 240.508,157.588 245.829 L 158.581 247.939 158.581 284.756 L 158.581 321.572 157.477 323.963 C 154.878 329.589,148.245 333.048,142.535 331.754 C 140.137 331.210,100.744 314.410,98.436 312.946 C 90.826 308.120,90.777 295.924,98.347 290.716 C 103.931 286.874,106.424 287.129,120.174 292.950 C 126.218 295.509,131.251 297.603,131.357 297.603 C 131.464 297.603,131.506 289.294,131.451 279.138 L 131.352 260.673 109.299 252.388 C 86.255 243.731,85.446 243.355,83.011 240.165 C 80.642 237.064,80.335 235.475,80.430 226.846 C 81.366 142.173,128.985 81.232,186.385 91.245 M303.356 106.232 L 303.356 118.888 290.508 118.888 L 277.661 118.888 277.661 106.232 L 277.661 93.576 290.508 93.576 L 303.356 93.576 303.356 106.232 M148.433 175.655 C 150.536 176.728,151.748 178.736,152.245 181.975 C 153.762 191.868,161.474 197.397,174.305 197.793 C 187.086 198.187,194.083 193.318,194.720 183.584 C 195.015 179.078,196.835 176.407,200.016 175.811 C 213.432 173.294,210.654 197.042,196.430 206.465 C 184.800 214.169,164.735 213.984,152.477 206.059 C 144.222 200.721,138.078 190.489,138.066 182.056 C 138.058 176.614,143.602 173.190,148.433 175.655 " stroke="none" fill="#fb4414" fill-rule="evenodd"></path><path id="path2" d="M173.257 90.403 C 173.946 90.488,174.982 90.486,175.558 90.399 C 176.134 90.311,175.570 90.241,174.305 90.243 C 173.039 90.246,172.568 90.317,173.257 90.403 M303.144 106.232 C 303.144 113.298,303.196 116.189,303.259 112.656 C 303.322 109.123,303.322 103.341,303.259 99.808 C 303.196 96.275,303.144 99.166,303.144 106.232 M158.573 284.756 C 158.573 303.950,158.620 311.746,158.677 302.080 C 158.734 292.414,158.734 276.710,158.677 267.181 C 158.620 257.652,158.573 265.561,158.573 284.756 " stroke="none" fill="#a03843" fill-rule="evenodd"></path><path id="path3" d="M176.894 90.389 C 177.263 90.485,177.867 90.485,178.236 90.389 C 178.605 90.293,178.303 90.214,177.565 90.214 C 176.826 90.214,176.524 90.293,176.894 90.389 M277.833 106.232 C 277.833 113.298,277.884 116.189,277.948 112.656 C 278.011 109.123,278.011 103.341,277.948 99.808 C 277.884 96.275,277.833 99.166,277.833 106.232 M175.360 198.165 C 175.940 198.253,176.889 198.253,177.469 198.165 C 178.049 198.078,177.574 198.006,176.414 198.006 C 175.254 198.006,174.779 198.078,175.360 198.165 M294.439 199.695 C 294.914 199.787,295.690 199.787,296.165 199.695 C 296.640 199.604,296.251 199.529,295.302 199.529 C 294.353 199.529,293.965 199.604,294.439 199.695 M239.015 221.285 C 239.015 222.023,239.094 222.325,239.191 221.956 C 239.287 221.587,239.287 220.983,239.191 220.614 C 239.094 220.244,239.015 220.547,239.015 221.285 M80.292 229.722 C 80.292 231.726,80.356 232.546,80.435 231.544 C 80.514 230.542,80.514 228.902,80.435 227.900 C 80.356 226.898,80.292 227.718,80.292 229.722 M239.036 230.297 C 239.039 231.352,239.113 231.738,239.201 231.155 C 239.290 230.572,239.287 229.709,239.196 229.237 C 239.105 228.766,239.033 229.243,239.036 230.297 M92.515 301.822 C 92.515 302.560,92.594 302.862,92.690 302.493 C 92.787 302.124,92.787 301.520,92.690 301.151 C 92.594 300.781,92.515 301.083,92.515 301.822 M144.104 332.006 C 144.578 332.097,145.355 332.097,145.829 332.006 C 146.304 331.915,145.916 331.840,144.966 331.840 C 144.017 331.840,143.629 331.915,144.104 332.006 " stroke="none" fill="#ce3c2c" fill-rule="evenodd"></path><path id="path4" d="M284.300 93.863 C 287.847 93.927,293.542 93.927,296.956 93.863 C 300.371 93.800,297.469 93.748,290.508 93.748 C 283.547 93.748,280.754 93.800,284.300 93.863 M173.447 117.245 C 174.030 117.334,174.893 117.331,175.365 117.240 C 175.837 117.149,175.360 117.077,174.305 117.080 C 173.250 117.083,172.864 117.157,173.447 117.245 M144.295 175.145 C 144.664 175.241,145.268 175.241,145.638 175.145 C 146.007 175.048,145.705 174.969,144.966 174.969 C 144.228 174.969,143.926 175.048,144.295 175.145 M200.359 202.972 L 199.233 204.219 200.479 203.092 C 201.165 202.473,201.726 201.912,201.726 201.846 C 201.726 201.550,201.409 201.810,200.359 202.972 M174.017 211.974 C 174.703 212.060,175.825 212.060,176.510 211.974 C 177.196 211.889,176.635 211.820,175.264 211.820 C 173.893 211.820,173.332 211.889,174.017 211.974 M308.909 246.021 C 308.909 265.005,308.955 272.715,309.012 263.154 C 309.069 253.594,309.069 238.062,309.012 228.638 C 308.955 219.215,308.909 227.037,308.909 246.021 M80.634 221.093 C 80.638 221.937,80.716 222.237,80.808 221.760 C 80.900 221.283,80.896 220.592,80.800 220.226 C 80.704 219.859,80.629 220.249,80.634 221.093 M131.721 279.386 C 131.721 289.722,131.771 293.895,131.831 288.660 C 131.891 283.425,131.891 274.968,131.831 269.868 C 131.770 264.768,131.721 269.051,131.721 279.386 " stroke="none" fill="#843454" fill-rule="evenodd"></path></g></svg>