<svg width="1197.501" height="1180.188" viewBox="0 0 316.839 312.258" xml:space="preserve" xmlns="http://www.w3.org/2000/svg"><path style="fill:#f9d308;stroke-width:.264583" d="M28.658 112.83c.653-45.534 23.716-90.004 60.213-117.144C89.407.37 90.773 5.69 85.516 8.12 54.76 35.938 36.504 76.7 35.99 118.143c.752 4.13-5.06 1.364-7.48 2.161zm82.747-127.69c-4.173-5.99 11.006-7.219 15.117-10.409 5.37-.872 17.779-9.765 15.83.429-9.857 3.197-19.473 7.663-28.75 12.456zm131.754-6.697c-23.34-9.023-48.885-12.152-73.717-9.084-9.906-6.3 7.454-3.763 11.352-4.579 21.942.155 43.99 4.715 63.82 14.199z" transform="translate(65.135 55.353)"/><path style="fill:#68c32e;stroke-width:.264583" d="M185.747 93.423c-.606-.803-1.837-2.001-2.735-2.664-.899-.662-2.288-1.533-3.089-1.935-.8-.403-2.308-1.039-3.35-1.413s-3.186-.942-4.763-1.261c-2.317-.469-4.085-.604-9.217-.703-4.796-.094-7.25-.02-10.025.301-2.021.234-3.899.425-4.172.425-.326 0-.909-.635-1.683-1.832-.652-1.008-1.186-1.907-1.186-1.999s.678-.466 1.506-.832c.828-.367 3.516-1.674 5.973-2.905s5.53-2.838 6.829-3.57 2.361-1.398 2.361-1.48-.753-1.355-1.673-2.828-2.281-3.809-3.024-5.191c-.743-1.383-2.021-4.053-2.841-5.935s-2.01-4.977-2.642-6.879-1.468-4.883-1.856-6.625-.872-4.421-1.076-5.953-.374-4.855-.376-7.383c-.003-2.824.153-5.666.407-7.372.226-1.526.708-3.923 1.071-5.325s1.194-3.86 1.847-5.46a216 216 0 0 1 1.318-3.191c.073-.155-.468-.67-1.2-1.144-.78-.505-1.813-1.54-2.492-2.498-.637-.899-1.541-2.397-2.008-3.329s-1.246-2.906-1.732-4.388c-.485-1.481-1.188-4.231-1.56-6.11-.374-1.88-.857-4.906-1.073-6.725-.217-1.819-.514-5.331-.661-7.805s-.269-6.773-.27-9.553.117-7.482.263-10.45c.146-2.969.387-6.945.536-8.837s.342-4 .428-4.683l.158-1.244 2.07 1.576c1.14.867 3.417 2.811 5.062 4.32 1.644 1.509 4.781 4.574 6.97 6.811s5.134 5.354 6.543 6.926a209 209 0 0 1 5.298 6.217 256 256 0 0 1 5.12 6.536 183 183 0 0 1 4.777 6.756 172 172 0 0 1 4.514 7.208c1.166 1.995 2.844 5.092 3.73 6.883.885 1.791 2.271 4.908 3.081 6.926s1.89 5.104 2.4 6.859 1.113 4.264 1.342 5.578c.33 1.9.381 3.495.25 7.811-.09 2.984-.236 8.004-.325 11.158-.1 3.558-.043 7.07.148 9.26.169 1.94.594 4.957.946 6.704.351 1.747.955 4.129 1.341 5.292.387 1.163 1.227 3.127 1.868 4.364.64 1.236 1.49 2.631 1.888 3.099l.724.85 2.778-.427c1.977-.304 4.762-.435 9.657-.454 5.545-.02 7.444.069 9.79.462 1.6.268 4.041.848 5.424 1.288 1.382.44 3.168 1.131 3.968 1.535s2.195 1.278 3.098 1.943c.903.666 2.231 1.96 2.952 2.877.927 1.18 1.606 1.771 2.326 2.024.56.196 1.89.833 2.955 1.414 1.066.582 2.798 1.741 3.85 2.577 1.05.835 2.321 2.036 2.822 2.67.501.632.733 1.073.516.98s-1.342-.546-2.5-1.005c-1.157-.46-3.337-1.114-4.845-1.455s-4.325-.752-6.26-.914c-2.524-.212-4.565-.217-7.223-.017-2.037.154-4.762.463-6.055.687a97 97 0 0 0-5.13 1.082c-1.527.371-4.354 1.204-6.28 1.85-1.928.647-4.904 1.775-6.615 2.506-1.712.732-5.195 2.419-7.742 3.748a627 627 0 0 1-6.614 3.413c-1.092.547-2.778 1.292-3.747 1.656l-1.763.661z" transform="translate(65.135 55.353)"/><path style="fill:#176cbe;stroke-width:.264583" d="M215.184 256.792c-1.053-.095-2.541-.317-3.308-.493-.766-.177-2.28-.74-3.364-1.253-1.24-.587-2.472-1.434-3.324-2.287-.752-.75-1.727-2.119-2.193-3.073-.46-.946-1.046-2.494-1.3-3.44-.356-1.323-.464-2.787-.468-6.35-.005-4.265.053-4.838.733-7.276.405-1.455 1.37-3.955 2.142-5.556s2.115-3.863 2.984-5.027 2.225-2.696 3.013-3.403c.788-.708 1.928-1.627 2.533-2.044.605-.416 1.926-1.171 2.936-1.678s2.898-1.24 4.196-1.63c2.027-.61 2.846-.711 5.8-.718 2.778-.006 3.757.097 5.093.537.909.3 2.24.922 2.956 1.382.717.46 1.627 1.26 2.022 1.779s.94 1.525 1.21 2.237c.305.801.493 1.98.493 3.096 0 .99-.192 2.448-.427 3.238s-.76 2.098-1.168 2.906-1.216 2.07-1.796 2.804-1.87 1.948-2.867 2.698-2.705 1.828-3.796 2.395c-1.092.568-2.818 1.289-3.837 1.602-1.018.313-2.94.734-4.268.935-1.33.2-3.846.448-5.592.55l-3.176.186-.167 1.486c-.091.817-.046 2.426.101 3.575s.546 2.697.887 3.44c.342.742.943 1.73 1.337 2.196s1.395 1.18 2.225 1.588c1.398.686 1.734.74 4.552.721 2.681-.017 3.347-.12 5.6-.865 2.181-.721 2.657-.799 3.247-.53.38.173.757.578.838.9.084.335-.084 1.038-.392 1.641-.296.581-.93 1.387-1.41 1.79-.48.405-1.229.885-1.665 1.068-.437.183-1.746.46-2.91.614a53 53 0 0 1-3.837.356c-.946.042-2.581-.003-3.633-.097m-1.83-19.962c.895-.231 2.47-.81 3.502-1.286s2.793-1.485 3.915-2.242 2.85-2.14 3.84-3.074c1.056-.997 2.132-2.329 2.606-3.225.444-.84.951-2.234 1.127-3.098s.248-2.105.158-2.757c-.089-.652-.455-1.685-.814-2.297-.38-.647-1.03-1.29-1.56-1.542-.5-.237-1.56-.432-2.355-.432-1.121 0-1.858.207-3.283.92-1.257.628-2.387 1.488-3.572 2.716-.976 1.01-2.104 2.528-2.579 3.468-.464.92-1.198 2.757-1.631 4.082s-1.081 3.86-1.44 5.633c-.36 1.773-.653 3.298-.653 3.39 0 .09.25.164.557.164.306 0 1.289-.189 2.183-.42m-111.688 19.696c-.913-.13-2.321-.485-3.13-.788s-1.873-.903-2.364-1.335c-.492-.432-1.212-1.435-1.601-2.23-.66-1.35-.698-1.614-.565-4.017.093-1.677 1.08-7.355 2.836-16.33 1.482-7.567 2.817-13.907 2.968-14.089.21-.252.074-.33-.573-.33-.582 0-1.087-.241-1.62-.774-.425-.425-.773-.953-.773-1.173s.116-.706.258-1.079.648-.916 1.125-1.207c.476-.29 1.191-.528 1.589-.529.53 0 .76-.16.864-.596.078-.328.308-1.786.51-3.241.203-1.456.492-2.962.641-3.349s.714-1.144 1.254-1.684 1.47-1.203 2.067-1.474c.596-.271 1.633-.496 2.302-.499.842-.004 1.496.182 2.117.603.773.524.897.755.886 1.654-.007.574-.337 2.473-.733 4.22s-.78 3.449-.855 3.783l-.136.61 3.253-.062c2.756-.051 3.364.012 3.98.416.4.262.797.751.881 1.087s.074.86-.024 1.166c-.097.306-.483.84-.858 1.189-.375.347-1.192.76-1.816.917s-2.333.286-3.796.286c-1.464 0-2.661.062-2.661.138 0 .075-1.062 5.523-2.36 12.104-1.298 6.582-2.494 13.021-2.659 14.309-.218 1.706-.221 2.718-.011 3.73.2.962.536 1.627 1.09 2.157.773.74.895.767 3.388.767 1.844 0 2.717.108 3.039.375.249.207.567.591.708.854.176.329.143.75-.106 1.345-.2.476-.843 1.3-1.43 1.83-.732.66-1.5 1.056-2.435 1.256-.752.162-1.867.279-2.478.26-.612-.017-1.859-.139-2.772-.27m-90.216-.362c-.91-.198-2.278-.694-3.043-1.104-.764-.41-1.945-1.295-2.625-1.968s-1.633-1.982-2.117-2.91c-.842-1.613-.88-1.814-.88-4.597 0-2.72.055-3.027.838-4.68.577-1.219 1.441-2.38 2.778-3.736 1.067-1.082 2.826-2.539 3.91-3.238 1.084-.7 2.908-1.667 4.054-2.15 1.146-.484 2.998-1.11 4.115-1.393a43 43 0 0 1 4.148-.785c1.165-.15 3.39-.351 4.947-.448l2.83-.177.179-1.436c.098-.79.096-2.172-.006-3.072s-.41-2.275-.684-3.055-.816-1.835-1.205-2.344c-.388-.51-1.235-1.262-1.881-1.672-.71-.45-1.91-.876-3.027-1.076-1.422-.254-2.363-.262-4.06-.035-1.216.163-3.123.61-4.237.995-1.737.6-2.135.654-2.79.383-.42-.174-.83-.526-.911-.782s-.019-.81.14-1.228c.157-.42.667-1.16 1.13-1.646.465-.486 1.26-1.096 1.77-1.357s1.82-.633 2.91-.827c1.099-.196 3.64-.342 5.69-.328 2.86.02 4.174.152 5.77.58 1.138.304 2.798.942 3.69 1.418.893.475 2.188 1.43 2.878 2.12.717.716 1.655 2.078 2.187 3.176.513 1.057 1.122 2.869 1.353 4.026.23 1.158.425 3.36.43 4.895.008 2.183-.227 4.059-1.08 8.611-.6 3.202-1.324 7.641-1.61 9.866s-.522 4.63-.522 5.345c0 .716-.14 1.607-.31 1.981s-.72.934-1.223 1.245c-.502.31-1.404.656-2.005.769-.63.118-1.568.087-2.217-.073a3.8 3.8 0 0 1-1.918-1.182c-.468-.533-.792-1.198-.79-1.622 0-.395.24-2.256.53-4.135s.491-3.452.448-3.495-.745.84-1.56 1.961c-.814 1.122-2.094 2.737-2.843 3.589s-1.982 2.082-2.74 2.735c-.759.652-2.034 1.518-2.834 1.924s-2.087.871-2.858 1.035-1.783.288-2.249.277c-.465-.012-1.59-.183-2.5-.38m9.044-6.59c.904-.443 2.304-1.496 3.333-2.508 1.18-1.162 2.085-2.365 2.703-3.598.511-1.019 1.29-2.983 1.733-4.366.442-1.382 1.051-3.8 1.355-5.37.303-1.573.551-2.912.551-2.977 0-.066-.273-.12-.606-.12s-1.315.182-2.183.404-2.567.876-3.777 1.452-3.111 1.674-4.225 2.44-2.753 2.108-3.641 2.98c-.917.901-1.92 2.218-2.32 3.043-.387.8-.828 2.11-.98 2.91s-.201 1.932-.108 2.514c.093.583.423 1.517.734 2.077.31.56.982 1.246 1.493 1.524.701.382 1.35.488 2.653.432 1.256-.054 2.15-.282 3.285-.837m-84.12 5.728c-.436-.277-.95-.693-1.141-.925s-.357-.757-.367-1.167.298-1.74.683-2.956 1.341-4.55 2.122-7.409c.782-2.859 2.148-8.248 3.037-11.976s2.025-8.847 2.526-11.377 1.099-5.85 1.33-7.377.496-3.95.588-5.38c.13-2.01.295-2.789.723-3.425.306-.453.972-1.067 1.48-1.364.824-.482 1.36-.54 4.894-.526 3.28.012 4.13.097 4.895.49.51.262 1.25.78 1.648 1.15.396.372.835 1.043.975 1.492s.39 1.947.557 3.33c.166 1.382.582 4.24.923 6.35.34 2.11 1.413 8.42 2.382 14.022s1.812 10.237 1.872 10.297.15.06.2 0 3.465-5.885 7.587-12.942a4793 4793 0 0 0 8.403-14.42c.499-.873 1.482-2.73 2.184-4.124.702-1.395 1.57-2.886 1.93-3.313s1.184-1.042 1.833-1.366c.65-.324 1.809-.708 2.577-.854.769-.146 2.575-.265 4.015-.265 1.64 0 2.948.138 3.502.369.485.203 1.077.646 1.314.985s.431.991.431 1.45-.166 1.304-.368 1.878c-.203.575-.852 3.299-1.442 6.053-.591 2.754-1.851 9.2-2.801 14.324-.95 5.123-2.141 11.791-2.647 14.816s-1.085 6.965-1.286 8.755c-.272 2.406-.503 3.435-.887 3.95-.286.384-.99.941-1.564 1.239-.813.422-1.549.543-3.337.547-1.92.005-2.416-.085-3.043-.549-.412-.305-.923-.862-1.135-1.236-.35-.617-.32-.957.314-3.547.385-1.575 2.258-10.89 4.16-20.697 1.904-9.809 3.412-17.883 3.352-17.942s-.703.88-1.43 2.09-3.638 6.188-6.469 11.063c-2.83 4.875-6.876 11.84-8.99 15.478-2.112 3.638-4.304 7.507-4.869 8.599-.826 1.594-1.245 2.103-2.134 2.59-.753.411-1.57.61-2.559.622-.942.011-1.732-.148-2.246-.452-.437-.257-.92-.716-1.076-1.019s-.58-2.543-.945-4.978c-.364-2.435-1.606-9.4-2.76-15.478a4579 4579 0 0 1-2.7-14.327c-.41-2.225-.67-3.117-.807-2.778-.112.274-1.455 6.749-2.985 14.389s-3.143 16.153-3.584 18.917c-.44 2.765-.86 5.393-.934 5.84-.072.448-.49 1.179-.926 1.626s-1.235 1.021-1.774 1.277c-.538.255-1.757.514-2.708.574-1.376.087-1.891.007-2.523-.393m111.012-.259c-.5-.254-1.148-.79-1.441-1.19-.487-.664-.506-.853-.216-2.117.175-.764 1.382-7.194 2.683-14.29 1.302-7.096 2.492-14.027 2.645-15.402s.279-3.116.279-3.868c0-.91.178-1.657.533-2.231.293-.475.918-1.041 1.39-1.259.47-.218 1.658-.478 2.64-.578 1.128-.116 2.123-.07 2.707.122.508.167 1.164.61 1.457.982.293.373.533 1.05.533 1.503s-.289 2.014-.64 3.469c-.353 1.454-.574 2.704-.493 2.778s.2-.016.265-.197c.065-.182.717-1.249 1.45-2.37.732-1.122 2.062-2.77 2.955-3.66a13.7 13.7 0 0 1 3.67-2.63c1.167-.575 2.59-1.06 3.31-1.13 1.108-.107 1.35-.033 1.987.604.538.538.725.986.725 1.738 0 .753-.208 1.25-.812 1.938-.447.509-1.19 1.158-1.654 1.442-.462.284-1.81.829-2.994 1.21-1.184.382-2.703 1.06-3.376 1.505-.673.446-1.815 1.475-2.539 2.286-.723.812-1.781 2.378-2.351 3.48s-1.338 2.964-1.706 4.14c-.369 1.176-1.028 3.974-1.466 6.218a190 190 0 0 0-1.326 7.784 919 919 0 0 0-.787 5.616c-.159 1.173-.472 2.212-.812 2.69-.304.427-1.066 1.025-1.693 1.329-.728.352-1.66.551-2.578.551-.846 0-1.812-.19-2.345-.463m27.47.068c-.38-.207-.866-.648-1.082-.982a5 5 0 0 1-.545-1.212c-.084-.334.066-1.524.333-2.646.268-1.122 1.029-4.957 1.691-8.523a688 688 0 0 0 2.148-12.27c.52-3.183 1.04-7.35 1.157-9.26.145-2.37.352-3.743.653-4.325.242-.469.682-.981.978-1.14s1.558-.465 2.806-.683 2.595-.324 2.995-.237 1.052.5 1.45.917c.5.521.726 1.036.726 1.656 0 .494-.245 2.083-.544 3.53s-1.08 5.607-1.735 9.245c-.656 3.638-1.608 9.114-2.117 12.17-.51 3.056-1.074 6.854-1.254 8.439-.234 2.056-.485 3.118-.874 3.704-.3.452-1.075 1.09-1.723 1.417-.847.428-1.63.593-2.776.585-.879-.006-1.908-.18-2.288-.385m43.276-.488c-.486-.487-.961-1.192-1.055-1.567-.099-.392.113-1.96.497-3.68.368-1.649 1.33-6.688 2.137-11.2.808-4.51 1.709-9.809 2.002-11.774.294-1.964.604-4.822.689-6.35s.266-3.147.403-3.599c.136-.451.525-1.08.863-1.398.454-.426 1.309-.69 3.267-1.008 2.572-.418 2.68-.415 3.542.089.49.285 1.064.83 1.277 1.21.316.562.335.977.104 2.235-.156.85-1.242 6.844-2.414 13.32-1.172 6.475-2.32 13.083-2.553 14.684s-.535 3.888-.67 5.083c-.142 1.247-.445 2.475-.712 2.882-.256.39-1.065.989-1.799 1.33-.955.445-1.81.622-3.014.624-1.553.003-1.746-.064-2.564-.881m20.12.472c-.437-.225-1-.67-1.252-.99-.251-.32-.459-1-.461-1.509a8.2 8.2 0 0 1 .252-1.852c.14-.51.788-3.843 1.439-7.408.65-3.566 1.734-9.638 2.408-13.494s1.312-8.455 1.417-10.218c.14-2.327.316-3.397.644-3.898.249-.38.822-.881 1.275-1.115.494-.256 1.788-.48 3.239-.563 2.232-.127 2.486-.09 3.341.495.688.469.948.854 1.01 1.498.047.476-.102 1.686-.33 2.69-.228 1.002-.415 2.03-.415 2.285s.658-.5 1.463-1.676 2.056-2.73 2.781-3.456c.725-.725 2.06-1.68 2.969-2.122s2.36-.947 3.226-1.123c.892-.18 2.212-.246 3.043-.151.807.093 2.09.471 2.853.842.774.376 1.79 1.166 2.3 1.788.503.613 1.16 1.688 1.46 2.388s.742 2.275.982 3.5c.241 1.224.466 2.195.5 2.158.034-.038.806-1.183 1.715-2.546.908-1.362 2.346-3.219 3.195-4.126.879-.94 2.213-2.006 3.102-2.48.858-.457 2.32-1.026 3.249-1.264q1.69-.433 3.277-.282c.874.083 2.243.362 3.043.621 1.02.331 1.864.869 2.822 1.8 1.087 1.058 1.459 1.651 1.821 2.907.343 1.19.416 2.1.296 3.704-.088 1.17-.933 6.368-1.877 11.551-.945 5.184-1.842 10.2-1.993 11.148-.151.947-.44 3.226-.643 5.064-.316 2.86-.467 3.472-1.051 4.238-.376.492-1.2 1.145-1.832 1.451-.758.367-1.665.557-2.666.557-.835 0-1.862-.178-2.282-.396-.42-.217-.95-.66-1.178-.985s-.412-.892-.412-1.263.297-1.98.66-3.579c.363-1.598 1.304-6.596 2.093-11.108.788-4.51 1.578-9.095 1.757-10.186s.328-3.056.333-4.366-.136-2.818-.314-3.352-.507-1.124-.732-1.31c-.238-.198-1.022-.326-1.873-.306-1.05.025-1.92.262-3.083.84-.89.444-2.058 1.227-2.594 1.74a28 28 0 0 0-1.89 2.057c-.505.619-1.339 1.899-1.854 2.845s-1.234 2.613-1.597 3.704c-.364 1.091-.961 3.294-1.329 4.895-.367 1.6-.967 4.696-1.334 6.879a203 203 0 0 0-1.084 7.402c-.282 2.312-.583 3.698-.92 4.243-.275.446-.978 1.079-1.562 1.407s-1.651.666-2.372.752c-1.02.12-1.567.031-2.464-.403-.633-.306-1.372-.93-1.64-1.384-.343-.58-.444-1.115-.339-1.792.082-.53.577-3.048 1.099-5.595s1.412-7.368 1.979-10.715c.566-3.347 1.173-7.259 1.35-8.692.175-1.433.254-3.55.175-4.706-.084-1.23-.315-2.36-.556-2.728-.227-.346-.785-.711-1.24-.811s-1.377-.1-2.05.003c-.674.1-1.805.477-2.514.837-.709.359-1.816 1.139-2.46 1.733-.645.594-1.695 1.867-2.333 2.828s-1.457 2.42-1.82 3.24a27 27 0 0 0-1.063 2.911c-.222.78-.707 2.786-1.077 4.46s-1.024 5.185-1.453 7.805-.92 5.953-1.092 7.408c-.171 1.455-.49 2.95-.709 3.32s-.784.939-1.258 1.264c-.474.324-1.266.706-1.76.847-.493.142-1.374.257-1.957.256-.583 0-1.417-.185-1.854-.41zm-55.576-46.777c-.444-.202-1.129-.748-1.522-1.215-.58-.69-.714-1.114-.714-2.254 0-1.021.201-1.793.737-2.824.505-.972 1.133-1.686 1.992-2.264.69-.465 1.765-.922 2.39-1.015.63-.095 1.652-.032 2.292.14.668.18 1.539.695 2.062 1.218.875.875.903.965.8 2.594-.083 1.289-.295 1.99-.897 2.965-.435.702-1.295 1.632-1.913 2.066-.901.633-1.45.806-2.772.872-1.008.05-1.962-.06-2.455-.283m43.546-.238c-.71-.364-1.355-.955-1.66-1.521-.367-.68-.464-1.256-.365-2.165.074-.681.375-1.71.67-2.287.293-.576 1.025-1.468 1.625-1.981.65-.557 1.612-1.06 2.382-1.244.71-.17 1.752-.232 2.314-.137s1.406.406 1.876.692c.471.286 1.037.957 1.262 1.497.268.642.356 1.37.254 2.112-.085.623-.384 1.58-.663 2.128-.279.547-.845 1.333-1.258 1.745s-1.194.977-1.736 1.254c-.565.288-1.53.502-2.262.502-.805 0-1.708-.22-2.439-.595m-163.784-18.463c-1.236-.127-3.128-.428-4.205-.667s-2.772-.767-3.767-1.172-2.4-1.115-3.122-1.579-2.09-1.665-3.038-2.67a15.7 15.7 0 0 1-2.788-4.026c-.585-1.208-1.33-3.206-1.655-4.438-.51-1.926-.594-2.928-.601-7.136-.007-3.69.113-5.545.486-7.54.272-1.455.885-3.844 1.362-5.307.476-1.464 1.289-3.552 1.805-4.64s1.554-2.927 2.305-4.086c.795-1.226 2.493-3.213 4.063-4.753 1.715-1.683 3.47-3.107 4.825-3.913 1.17-.698 3.091-1.685 4.27-2.194 1.177-.51 3.264-1.21 4.637-1.56 1.373-.347 3.461-.765 4.642-.926 1.18-.162 3.785-.293 5.789-.292 2.003 0 4.668.173 5.92.383 1.253.209 2.623.559 3.044.776.421.218.988.642 1.26.942.27.3.552 1.072.625 1.717.12 1.059.042 1.27-.805 2.193-.902.985-.997 1.022-2.61 1.008-1.212-.01-2.187-.225-3.527-.774-1.716-.704-2.113-.76-5.424-.772-2.602-.009-4.038.113-5.291.45-.946.255-2.587.872-3.646 1.373-1.06.5-2.642 1.46-3.515 2.132s-2.19 1.944-2.925 2.827-1.637 2.083-2.005 2.667c-.369.583-1.119 1.964-1.668 3.068s-1.357 3.139-1.795 4.521c-.439 1.383-1.013 3.705-1.275 5.16-.34 1.885-.474 3.902-.464 7.011.011 3.57.115 4.734.566 6.388.303 1.113.93 2.772 1.392 3.689.47.93 1.523 2.347 2.386 3.21.967.968 2.177 1.84 3.237 2.337.93.435 2.574.98 3.651 1.208 1.405.299 2.86.384 5.135.299 2.73-.102 3.508-.238 5.556-.973 1.31-.47 2.65-.919 2.979-.997.328-.078.945.002 1.37.178s.84.495.921.708c.082.214-.076.828-.35 1.365-.276.537-.937 1.425-1.47 1.973s-1.553 1.292-2.266 1.653c-.714.362-2.105.768-3.093.903-.987.136-3.343.305-5.235.377-1.892.071-4.45.026-5.686-.101m152.839-.423c-.995-.213-2.407-.624-3.14-.912-.731-.289-1.825-.865-2.43-1.282-.606-.416-1.615-1.314-2.242-1.995-.628-.68-1.484-1.974-1.902-2.873-.419-.899-.954-2.35-1.19-3.222-.238-.886-.49-3.168-.57-5.16-.108-2.698-.037-4.135.292-5.876.24-1.267.742-3.232 1.118-4.366s1.282-3.216 2.015-4.628c.732-1.412 2.067-3.498 2.966-4.635.9-1.137 2.3-2.635 3.112-3.33.812-.693 2.425-1.83 3.584-2.527s3.053-1.58 4.208-1.961c1.155-.382 2.868-.819 3.806-.97.938-.153 2.54-.277 3.558-.275 1.018 0 2.634.168 3.59.371s2.291.629 2.968.946c.676.318 1.75 1.036 2.386 1.596.73.643 1.425 1.618 1.886 2.645.555 1.236.733 2.05.741 3.394.006.972-.195 2.48-.446 3.35s-.892 2.412-1.423 3.426c-.53 1.014-1.621 2.51-2.423 3.325-.802.814-2.218 1.994-3.146 2.62s-2.536 1.532-3.572 2.01c-1.036.48-2.837 1.114-4.001 1.41-1.164.297-3.188.661-4.498.811s-3.542.345-4.96.435l-2.58.162v2.862c0 2.071.139 3.31.504 4.482.277.89.837 2.062 1.246 2.603.408.541.925 1.14 1.15 1.33.223.19 1.012.637 1.753.992s2.05.719 2.91.809 2.44.027 3.51-.139c1.069-.165 2.893-.622 4.053-1.013 1.956-.66 2.16-.683 2.818-.308.582.332.703.58.677 1.394-.02.67-.286 1.307-.817 1.968-.432.538-1.282 1.255-1.888 1.593-.621.348-2.11.78-3.415.992-1.273.206-3.684.366-5.358.355s-3.856-.195-4.85-.409m2.32-20.124c1.028-.365 2.603-1.069 3.5-1.564.898-.495 2.565-1.596 3.705-2.445 1.14-.85 2.646-2.162 3.346-2.917s1.651-2.173 2.112-3.151c.733-1.557.839-2.06.843-4.028.004-1.78-.106-2.437-.525-3.147-.29-.495-.836-1.128-1.211-1.407s-1.165-.617-1.754-.75c-.775-.174-1.5-.129-2.622.164-.853.222-2.1.756-2.77 1.186s-1.937 1.53-2.815 2.444-1.953 2.371-2.39 3.24c-.436.867-1.154 2.708-1.595 4.09-.44 1.383-1.056 3.764-1.368 5.292s-.627 3.06-.7 3.406c-.127.61-.096.622 1.123.44.69-.104 2.094-.488 3.122-.853m107.04 20.159c-.945-.191-2.4-.604-3.234-.918-.833-.314-2.212-1.084-3.065-1.712-.92-.678-1.996-1.81-2.648-2.786-.605-.905-1.394-2.58-1.755-3.721-.381-1.208-.754-3.255-.891-4.891-.13-1.548-.139-3.869-.02-5.157s.454-3.276.746-4.417a37 37 0 0 1 1.345-4.054c.449-1.088 1.182-2.633 1.63-3.433s1.407-2.26 2.132-3.244 2.196-2.6 3.27-3.589c1.074-.99 2.851-2.313 3.95-2.941 1.097-.628 2.974-1.478 4.17-1.889 1.197-.41 2.95-.87 3.896-1.022s2.553-.275 3.572-.273c1.018 0 2.641.17 3.606.374.965.205 2.368.683 3.118 1.063s1.815 1.143 2.367 1.695 1.281 1.577 1.62 2.278c.409.842.66 1.932.742 3.211.102 1.58-.003 2.34-.56 4.129-.377 1.206-1.058 2.788-1.514 3.515s-1.443 1.963-2.194 2.744-2.397 2.107-3.66 2.944c-1.261.838-3.285 1.882-4.497 2.32s-3.156.987-4.32 1.22c-1.164.234-3.724.545-5.688.691-1.965.147-3.772.267-4.016.267-.342 0-.489.351-.637 1.522-.11.873-.063 2.423.111 3.638.19 1.318.61 2.737 1.112 3.76.444.905 1.242 2.003 1.773 2.44.531.439 1.508.983 2.17 1.21.664.227 1.861.482 2.662.567s2.322.02 3.381-.145c1.06-.164 2.82-.607 3.913-.985 1.711-.59 2.093-.64 2.76-.364.427.176.842.53.924.787.081.256.022.794-.13 1.196-.153.402-.521 1.072-.818 1.49-.297.416-1.063 1.064-1.701 1.438-.736.431-2.016.82-3.489 1.059-1.28.207-3.696.367-5.37.353-1.673-.013-3.816-.18-4.762-.37m.588-19.693c1.097-.28 2.932-.984 4.077-1.563 1.146-.58 2.976-1.68 4.067-2.446s2.713-2.132 3.603-3.034c.896-.908 1.924-2.286 2.303-3.088.377-.796.803-2.21.947-3.142s.17-2.178.057-2.769c-.113-.59-.434-1.462-.714-1.937-.279-.474-.898-1.104-1.375-1.4-.622-.384-1.321-.537-2.468-.537-1.267 0-1.96.177-3.333.854-1.06.522-2.374 1.49-3.38 2.492-.906.9-1.976 2.2-2.38 2.89-.403.688-1.196 2.566-1.762 4.172-.566 1.607-1.326 4.384-1.688 6.172s-.658 3.385-.658 3.549c0 .163.16.297.355.297s1.252-.23 2.35-.51M40.251 188.959a16 16 0 0 1-2.715-1.101c-.708-.386-1.888-1.336-2.622-2.112s-1.655-2.096-2.047-2.933c-.636-1.357-.712-1.823-.703-4.3.01-2.274.124-3.062.63-4.342.462-1.166 1.166-2.134 2.768-3.804 1.181-1.232 2.803-2.685 3.603-3.228s2.18-1.355 3.066-1.801c.886-.447 2.56-1.12 3.72-1.495a39 39 0 0 1 4.342-1.08c1.228-.217 3.483-.46 5.011-.54 1.528-.078 3.154-.199 3.613-.268.8-.12.842-.19 1.006-1.64.094-.832.045-2.387-.11-3.454-.154-1.067-.53-2.521-.835-3.232-.31-.72-1.116-1.815-1.822-2.475-.9-.842-1.712-1.315-2.805-1.632-1.194-.347-2.163-.416-4.327-.305-2.026.103-3.333.33-4.774.826-1.091.377-2.239.686-2.55.687-.311 0-.832-.214-1.157-.477-.49-.397-.557-.629-.395-1.366.117-.533.683-1.374 1.42-2.108.727-.724 1.658-1.349 2.285-1.534.582-.172 1.952-.45 3.043-.619 1.174-.181 3.498-.253 5.689-.176 2.837.1 4.137.269 5.556.723 1.019.325 2.44.89 3.16 1.254s1.972 1.333 2.781 2.153 1.798 2.165 2.195 2.99c.398.826.915 2.195 1.148 3.043.235.85.487 3.087.563 4.982.13 3.251.07 3.81-1.083 10.187-.67 3.71-1.399 8.152-1.618 9.869s-.4 3.8-.4 4.63c-.001 1.028-.165 1.777-.518 2.355-.284.466-.892 1.041-1.351 1.279-.46.237-1.447.49-2.195.56-1.076.103-1.606.002-2.547-.484-.654-.338-1.366-.938-1.584-1.332-.355-.645-.338-1.111.17-4.63.311-2.152.53-3.95.485-3.997-.044-.046-.942 1.085-1.995 2.514s-2.85 3.512-3.99 4.63c-1.47 1.44-2.652 2.32-4.048 3.01-1.73.854-2.261.987-4.304 1.074-1.558.067-2.805-.033-3.76-.301m9.453-6.417c.818-.397 2.282-1.47 3.254-2.384 1.259-1.184 2.07-2.25 2.823-3.704.58-1.123 1.415-3.173 1.855-4.556.44-1.382 1.05-3.81 1.355-5.397.306-1.586.5-2.94.432-3.008-.069-.068-.961.064-1.984.295-1.022.231-2.723.788-3.78 1.238-1.058.45-3.055 1.573-4.438 2.495-1.384.922-3.243 2.388-4.133 3.258-.896.875-1.928 2.217-2.313 3.004-.382.782-.827 2.137-.988 3.01-.219 1.18-.215 1.94.013 2.96.168.756.558 1.693.865 2.084.308.391 1.045.939 1.638 1.217.819.383 1.422.47 2.497.358.78-.082 2.086-.473 2.904-.87m145.766 6.407c-.835-.203-1.966-.599-2.513-.88-.548-.282-1.31-.85-1.694-1.264-.384-.413-.938-1.23-1.231-1.816s-.613-1.598-.71-2.25c-.103-.69-.008-2.23.23-3.697.223-1.382 1.54-8.34 2.929-15.463 1.464-7.512 2.663-13.037 2.854-13.159.204-.129.007-.211-.509-.214-.512-.002-1.156-.27-1.653-.689-.503-.423-.814-.933-.814-1.336 0-.358.174-.987.386-1.399.233-.45.814-.918 1.46-1.177.592-.236 1.238-.43 1.438-.43s.429-.268.51-.595.29-1.726.462-3.109c.173-1.382.53-2.941.792-3.464s.905-1.328 1.428-1.787c.523-.46 1.394-1.022 1.934-1.25s1.475-.416 2.077-.418c.603-.002 1.47.19 1.93.428.46.237.966.718 1.126 1.07.223.49.19.995-.138 2.17-.236.842-.67 2.705-.964 4.14s-.535 2.728-.535 2.873c0 .172 1.012.199 2.88.077 2.414-.158 3.03-.117 3.812.254.539.256 1.066.766 1.25 1.21.269.649.242.897-.174 1.609-.27.463-.968 1.091-1.55 1.397-.927.486-1.444.546-4.162.488-3.03-.065-3.107-.052-3.236.53a508 508 0 0 0-.917 4.564c-.432 2.183-1.383 7.013-2.114 10.735s-1.51 7.889-1.733 9.26c-.222 1.372-.404 3.123-.405 3.892 0 .769.162 1.78.362 2.249.2.468.685 1.149 1.08 1.513.664.611.913.661 3.313.661 2.18 0 2.684.08 3.153.504.307.277.558.825.558 1.217s-.365 1.217-.81 1.832c-.473.651-1.273 1.328-1.919 1.621-.874.397-1.696.5-3.886.487-1.528-.01-3.462-.182-4.297-.384m-205.622-.65c-.422-.13-1.106-.562-1.522-.96-.509-.487-.755-.987-.755-1.533 0-.446.295-2.003.655-3.459s2.087-10.505 3.84-20.108 3.363-18.806 3.58-20.45c.215-1.645.394-3.61.396-4.366.002-.757.15-1.662.33-2.012s.627-.858.994-1.13c.431-.32 1.51-.599 3.043-.787 2.008-.246 2.526-.228 3.347.117.535.224 1.182.728 1.438 1.12.415.633.432.905.154 2.469-.172.967-.968 5.15-1.768 9.298s-1.455 7.714-1.456 7.925c0 .212.585-.502 1.3-1.587s1.797-2.483 2.402-3.107 1.73-1.554 2.5-2.065c.77-.512 2.269-1.232 3.33-1.6 1.27-.443 2.748-.719 4.334-.81 1.323-.077 3.12-.006 3.993.156s2.326.657 3.23 1.1c.94.46 2.039 1.268 2.57 1.889.51.596 1.126 1.68 1.368 2.407.339 1.02.407 1.905.297 3.865-.079 1.399-.99 7.365-2.025 13.258-1.035 5.894-2.072 12.204-2.304 14.023-.232 1.82-.59 3.636-.794 4.036-.205.401-.867 1.056-1.47 1.456-.938.62-1.372.726-2.97.726-1.495 0-2.033-.115-2.674-.573-.442-.315-.971-.886-1.176-1.268-.328-.613-.303-1.033.206-3.528.318-1.558 1.365-7.357 2.327-12.887s1.812-11.156 1.89-12.501c.112-1.93.046-2.699-.312-3.635-.25-.653-.784-1.423-1.188-1.71-.403-.288-1.292-.648-1.975-.801-.848-.19-1.764-.195-2.883-.014-.902.145-2.4.638-3.328 1.095-.971.478-2.323 1.466-3.186 2.33-.992.991-1.912 2.302-2.717 3.87-.67 1.303-1.638 3.68-2.151 5.28-.514 1.601-1.306 4.776-1.762 7.056s-1.227 6.48-1.715 9.335c-.746 4.36-.996 5.331-1.568 6.08-.373.49-1.188 1.131-1.81 1.425-.623.293-1.609.595-2.19.671-.583.076-1.404.032-1.825-.097m87.946-.293c-.364-.145-.989-.576-1.389-.959-.54-.517-.728-.95-.728-1.687 0-.546.116-1.296.257-1.668s1.34-6.66 2.662-13.974c1.754-9.704 2.461-14.25 2.614-16.82.173-2.898.304-3.65.74-4.234.291-.39.881-.916 1.31-1.168.481-.281 1.642-.521 3.016-.623 2.065-.153 2.303-.117 3.156.466.508.347 1.033.944 1.167 1.327.18.513.054 1.506-.484 3.781-.4 1.697-.674 3.14-.607 3.207s.604-.685 1.194-1.673c.59-.987 1.633-2.45 2.318-3.25.686-.8 1.916-1.959 2.734-2.575s2.26-1.432 3.207-1.812c.946-.38 2.132-.692 2.637-.692.692 0 1.097.201 1.653.824.426.477.736 1.13.736 1.548 0 .398-.22 1.08-.485 1.517-.267.437-.961 1.124-1.544 1.528s-2.19 1.122-3.57 1.596c-1.452.5-3.087 1.288-3.883 1.872-.755.555-1.91 1.706-2.567 2.559-.656.853-1.664 2.538-2.24 3.745-.577 1.206-1.404 3.622-1.84 5.369s-1.205 5.615-1.71 8.599-.998 6.376-1.098 7.54c-.099 1.164-.348 2.53-.553 3.033s-.577 1.146-.826 1.427c-.25.28-.93.729-1.511.996-.597.274-1.636.481-2.382.475-.727-.006-1.62-.13-1.984-.274m67.1.037c-.422-.134-1.106-.57-1.522-.968-.49-.47-.755-.993-.755-1.49 0-.421.236-1.69.524-2.817s1.475-7.697 2.637-14.596c1.296-7.69 2.178-13.723 2.278-15.588.09-1.674.276-3.413.413-3.864s.537-1.092.89-1.424c.464-.436 1.25-.7 2.837-.956 1.547-.248 2.482-.276 3.168-.092.535.143 1.279.624 1.653 1.07.375.444.677 1.067.672 1.383s-.18 1.35-.388 2.295c-.208.946-.382 2.01-.387 2.363-.007.497.216.27.984-.999.546-.903 1.514-2.172 2.152-2.819.716-.727 2.081-1.63 3.571-2.362 1.528-.751 3.232-1.348 4.651-1.63 1.583-.314 2.94-.402 4.63-.3 1.57.096 3.003.369 4.175.796.98.358 2.291 1.067 2.912 1.575.62.509 1.424 1.506 1.786 2.217.568 1.114.653 1.618.624 3.673-.024 1.667-.56 5.277-1.789 12.038-.965 5.312-1.998 11.503-2.296 13.759a687 687 0 0 0-.68 5.28c-.108.902-.37 1.41-1.115 2.155-.535.535-1.447 1.105-2.026 1.265s-1.588.293-2.243.293c-.655.001-1.599-.207-2.098-.461s-1.143-.785-1.431-1.178l-.525-.715.689-2.857c.378-1.571 1.05-4.761 1.494-7.09s1.233-6.614 1.754-9.525c.544-3.037 1.011-6.65 1.098-8.479.133-2.834.09-3.322-.39-4.41-.298-.671-.834-1.413-1.192-1.647-.357-.235-1.37-.553-2.248-.708-1.166-.205-1.998-.199-3.071.024-.81.168-2.214.676-3.12 1.13-1.01.503-2.385 1.55-3.544 2.694-1.417 1.4-2.128 2.37-2.825 3.856-.513 1.091-1.182 2.937-1.487 4.1a75 75 0 0 0-.952 4.234c-.218 1.164-.807 4.855-1.309 8.202s-.99 6.935-1.087 7.973c-.103 1.097-.383 2.228-.671 2.701-.272.448-.997 1.07-1.61 1.383-.615.313-1.78.613-2.591.665-.81.053-1.82-.014-2.24-.149m-161-68.936c-.784-.22-2.01-.716-2.72-1.103-.712-.387-1.884-1.294-2.606-2.015-.72-.721-1.617-1.96-1.992-2.751-.374-.792-.783-2.067-.908-2.834-.124-.767-.127-2.157-.006-3.09.122-.931.41-2.213.64-2.847s.845-1.734 1.366-2.445 1.719-1.987 2.659-2.835c.94-.85 2.508-2.016 3.485-2.594s2.52-1.38 3.43-1.782 2.8-1.022 4.2-1.377c1.399-.355 3.928-.772 5.62-.926a805 805 0 0 1 4.762-.422l1.684-.14-.112-3.217c-.1-2.834-.203-3.416-.868-4.886-.482-1.066-1.178-2.041-1.924-2.698-.643-.566-1.77-1.228-2.503-1.472-1.047-.348-1.968-.415-4.279-.314-2.198.096-3.48.304-5.06.822-1.164.382-2.366.695-2.671.697s-.752-.214-.992-.48c-.241-.266-.438-.713-.437-.992 0-.28.28-.968.619-1.528.34-.561 1.12-1.358 1.735-1.771s1.796-.907 2.623-1.097c.96-.221 3.273-.342 6.399-.335 4.596.01 5.025.054 7.032.725 1.176.392 2.842 1.174 3.704 1.737s1.826 1.308 2.144 1.656c.317.349.989 1.32 1.493 2.16.504.838 1.191 2.505 1.526 3.703.501 1.794.61 2.832.613 5.883.003 3.175-.137 4.441-.975 8.863-.538 2.838-1.161 6.395-1.384 7.906-.223 1.51-.521 4.159-.662 5.886s-.4 3.37-.575 3.65-.742.744-1.26 1.03c-.517.287-1.33.603-1.806.704s-1.35.102-1.94.002c-.62-.104-1.457-.517-1.978-.976-.835-.732-.904-.91-.89-2.288.008-.821.23-2.744.493-4.272.264-1.528.436-2.828.383-2.888-.054-.06-.137-.06-.187 0s-.984 1.3-2.078 2.756c-1.095 1.455-2.913 3.521-4.041 4.59-1.44 1.366-2.647 2.229-4.05 2.895-1.69.802-2.328.961-4.138 1.03-1.34.05-2.674-.07-3.567-.32m9.366-6.474c.873-.422 2.272-1.378 3.11-2.126s1.993-2.154 2.568-3.124c.574-.97 1.477-3.061 2.007-4.648s1.232-4.266 1.562-5.953c.349-1.788.494-3.108.348-3.164-.138-.053-1.103.107-2.145.355-1.042.249-2.966.961-4.275 1.583-1.31.623-3.218 1.727-4.24 2.454s-2.54 1.945-3.371 2.705c-1.055.964-1.802 1.968-2.47 3.318-.699 1.415-.994 2.407-1.097 3.68-.1 1.262-.019 2.058.298 2.889.241.63.763 1.454 1.16 1.831.399.378 1.14.808 1.65.958s1.462.212 2.117.14c.654-.072 1.905-.476 2.778-.898m-35.244 5.9c-.758-.224-1.863-.822-2.457-1.33s-1.336-1.417-1.65-2.02c-.435-.837-.597-1.707-.683-3.68-.072-1.654.05-3.653.338-5.556.248-1.635 1.324-7.973 2.391-14.085 1.068-6.112 2.191-12.78 2.498-14.817.306-2.037.717-5.413.913-7.501.342-3.654.385-3.827 1.148-4.59.573-.573 1.26-.892 2.481-1.154.93-.2 2.152-.367 2.717-.372.581-.005 1.4.222 1.887.523.473.292 1 .869 1.17 1.282.264.636.107 1.81-1.026 7.682-.736 3.813-2.354 12.937-3.595 20.276s-2.327 14.269-2.413 15.4c-.091 1.212-.034 2.504.141 3.145.163.6.61 1.403.993 1.786.53.53.961.697 1.804.697.608 0 1.732-.186 2.496-.413s1.705-.375 2.09-.33c.435.05.853.355 1.103.803.37.661.36.801-.123 1.7-.29.54-1.045 1.309-1.678 1.71-.633.402-1.74.857-2.46 1.012-.72.154-2.525.271-4.009.26-1.589-.013-3.266-.19-4.076-.428m143.194-.64a210 210 0 0 1-6.483-.631 251 251 0 0 1-7.937-1.083c-2.401-.37-6.39-1.074-8.864-1.564a343 343 0 0 1-9.079-1.956c-2.52-.585-7.044-1.754-10.054-2.596l-5.473-1.532 6.615-.172c4.297-.111 8.097-.368 10.848-.733 2.328-.309 5.304-.746 6.614-.972s3.75-.706 5.424-1.068a272 272 0 0 0 7.183-1.696 205 205 0 0 0 8.466-2.37c2.38-.732 5.875-1.885 7.767-2.563s3.822-1.39 4.29-1.584l.852-.352-1.93-2.976a113 113 0 0 1-3.56-5.956 117 117 0 0 1-3.082-6.15 104 104 0 0 1-2.647-6.471c-.658-1.815-1.542-4.532-1.965-6.04a89 89 0 0 1-1.318-5.499 83 83 0 0 1-.833-5.12c-.157-1.298-.281-4.334-.278-6.747.004-2.531.174-5.473.403-6.957.217-1.415.64-3.528.937-4.696a54 54 0 0 1 1.232-4.043c.378-1.055.971-2.48 1.317-3.167s.629-1.356.629-1.489-.362-.391-.805-.575-1.452-1.048-2.243-1.923c-.851-.94-1.924-2.573-2.627-3.998-.654-1.325-1.54-3.492-1.97-4.817-.43-1.324-1.08-3.884-1.447-5.688a106 106 0 0 1-1.077-6.588c-.227-1.819-.531-5.212-.677-7.54s-.263-6.972-.26-10.32c.002-3.346.118-8.228.258-10.847.14-2.62.383-6.608.54-8.864.156-2.255.338-4.367.405-4.693.111-.54.37-.39 2.962 1.719 1.562 1.27 4.91 4.335 7.44 6.81s6.089 6.097 7.907 8.05 4.8 5.347 6.628 7.541c1.827 2.194 4.57 5.656 6.096 7.693s3.985 5.55 5.465 7.805 3.468 5.47 4.42 7.144c.951 1.674 2.27 4.122 2.93 5.441s1.76 3.7 2.443 5.292c.684 1.591 1.815 4.62 2.512 6.73s1.536 5.086 1.861 6.614c.569 2.669.583 3.055.359 9.79a450 450 0 0 0-.217 13.361c.013 4.459.15 7.256.46 9.393.243 1.673.74 4.277 1.106 5.785.365 1.508 1.013 3.614 1.44 4.68.427 1.067 1.11 2.516 1.519 3.222a38 38 0 0 0 1.535 2.403c.699.987.89 1.105 1.588.983.436-.076 1.686-.26 2.778-.407 1.091-.148 4.425-.342 7.408-.43 4.131-.124 6.275-.062 8.996.257 1.964.231 4.76.722 6.211 1.092 1.468.373 3.831 1.253 5.324 1.982 1.702.831 3.244 1.823 4.217 2.712.844.77 1.906 1.912 2.36 2.537.645.888 1.255 1.323 2.8 1.994 1.086.473 2.808 1.403 3.827 2.068 1.018.664 2.415 1.71 3.103 2.322s1.49 1.45 1.783 1.861l.532.747-2.048-.796c-1.126-.438-3.128-1.07-4.448-1.405s-3.642-.754-5.16-.93c-1.745-.204-4.459-.266-7.389-.17-2.546.083-5.74.339-7.099.57s-3.7.708-5.204 1.064c-1.505.355-4.232 1.133-6.061 1.728s-4.785 1.68-6.57 2.41c-1.784.732-5.446 2.476-8.138 3.876a980 980 0 0 1-7.144 3.685c-1.237.626-3.32 1.49-4.63 1.92a74 74 0 0 1-4.498 1.303 73 73 0 0 1-4.63.93c-1.383.225-3.943.531-5.69.68-1.745.148-5.913.254-9.26.235s-7.395-.134-8.995-.256" transform="translate(65.135 55.353)"/></svg>
