<svg width="88" height="88" viewBox="0 0 88 88" fill="none" xmlns="http://www.w3.org/2000/svg"><rect y="-0.000488281" width="88" height="88" rx="16" fill="#f5f5fe"></rect><path d="M21.5 26.4999C21.5 24.9467 21.5 24.1702 21.7537 23.5576C22.092 22.7408 22.741 22.0919 23.5577 21.7536C24.1703 21.4999 24.9469 21.4999 26.5 21.4999C31.1594 21.4999 33.4891 21.4999 35.3268 22.2611C37.7772 23.276 39.7238 25.2228 40.7388 27.673C41.5 29.5108 41.5 31.8405 41.5 36.4999C41.5 38.053 41.5 38.8296 41.2463 39.4421C40.908 40.259 40.259 40.9078 39.4423 41.2461C38.8297 41.4998 38.0532 41.4998 36.5 41.4998C31.8406 41.4998 29.5109 41.4998 27.6732 40.7386C25.2229 39.7238 23.2761 37.777 22.2612 35.3267C21.5 33.489 21.5 31.1593 21.5 26.4999Z" fill="#000091"></path><path d="M51.5 41.4998C49.9468 41.4998 49.1703 41.4998 48.5577 41.2461C47.741 40.9078 47.092 40.259 46.7537 39.4421C46.5 38.8296 46.5 38.053 46.5 36.4999C46.5 31.8405 46.5 29.5108 47.2612 27.673C48.2762 25.2228 50.2228 23.276 52.6732 22.2611C54.5108 21.4999 56.8407 21.4999 61.5 21.4999C63.0532 21.4999 63.8297 21.4999 64.4423 21.7536C65.259 22.0919 65.908 22.7408 66.2463 23.5576C66.5 24.1702 66.5 24.9467 66.5 26.4999C66.5 31.1593 66.5 33.489 65.7388 35.3267C64.7238 37.777 62.7772 39.7238 60.3268 40.7386C58.4892 41.4998 56.1593 41.4998 51.5 41.4998Z" fill="#000091"></path><path d="M36.5 46.4998C38.0532 46.4998 38.8297 46.4998 39.4423 46.7536C40.259 47.0919 40.908 47.7408 41.2463 48.5576C41.5 49.1701 41.5 49.9468 41.5 51.4998C41.5 56.1593 41.5 58.4889 40.7388 60.3266C39.7238 62.7769 37.7772 64.7238 35.3268 65.7386C33.4891 66.4998 31.1594 66.4998 26.5 66.4998C24.9469 66.4998 24.1703 66.4998 23.5577 66.2461C22.741 65.9078 22.092 65.2589 21.7537 64.4421C21.5 63.8296 21.5 63.0529 21.5 61.4998C21.5 56.8404 21.5 54.5108 22.2612 52.6729C23.2761 50.2228 25.2229 48.2759 27.6732 47.2611C29.5109 46.4998 31.8406 46.4998 36.5 46.4998Z" fill="#000091"></path><path d="M66.5 61.4998C66.5 63.0529 66.5 63.8296 66.2463 64.4421C65.908 65.2589 65.259 65.9078 64.4423 66.2461C63.8297 66.4998 63.0532 66.4998 61.5 66.4998C56.8407 66.4998 54.5108 66.4998 52.6732 65.7386C50.2228 64.7238 48.2762 62.7769 47.2612 60.3266C46.5 58.4889 46.5 56.1593 46.5 51.4998C46.5 49.9468 46.5 49.1701 46.7537 48.5576C47.092 47.7408 47.741 47.0919 48.5577 46.7536C49.1703 46.4998 49.9468 46.4998 51.5 46.4998C56.1595 46.4998 58.4892 46.4998 60.3268 47.2611C62.7772 48.2759 64.7238 50.2228 65.7388 52.6729C66.5 54.5108 66.5 56.8404 66.5 61.4998Z" fill="#000091"></path></svg>
