<svg
   width="50.390348"
   viewBox="0 0 124.836 34.311569"
   version="1.1"
   id="svg14"
   sodipodi:docname="CnFS.svg"
   height="34.311569"
   inkscape:version="1.1.2 (0a00cf5339, 2022-02-04)"
   xmlns:inkscape="http://www.inkscape.org/namespaces/inkscape"
   xmlns:sodipodi="http://sodipodi.sourceforge.net/DTD/sodipodi-0.dtd"
   xmlns="http://www.w3.org/2000/svg"
   xmlns:svg="http://www.w3.org/2000/svg">
    <g clip-path="url(#a)">
        <path d="M.3 5.1h15.4c8.4 0 13.1 3.9 13.1 10.8 0 7-4.7 10.8-13.1 10.8H.3V5.1Zm14.3 16.3c4.2 0 6.6-2 6.6-5.5s-2.4-5.5-6.6-5.5H8v11h6.6Zm90.9-16.3h9.2l10.6 21.7h-8.2l-1.7-3.8h-10.8l-1.7 3.8h-8.2l10.8-21.7Zm8.4 13.4L110 9.9l-3.9 8.6h7.8Zm-31.1 5.2-1.4-2.3c-.9-1.3-2.2-1.9-3.7-1.9h-4.6v7.2h-7.9V5h18.3c5.8 0 9.2 2.5 9.2 6.9 0 3.2-2.3 5.5-6.3 6.3.7.3 1.4.8 1.9 1.6l1.5 2.3c.4.5.9.9 1.8.9.5 0 1.2-.3 1.6-.7l1.3 3.2c-1.2 1-3.6 1.8-5.6 1.8-3.2.1-4.9-1.8-6.1-3.6Zm-1.7-8.6c2.3 0 3.6-1 3.6-2.7 0-1.7-1.3-2.7-3.6-2.7h-8v5.4h8Z" fill="#5B12EB"/>
        <path d="M46.8 0C38 0 30.9 7.1 30.9 15.9 30.9 29 46.8 36 46.8 36s15.9-7 15.9-20.1C62.7 7.1 55.6 0 46.8 0Zm3.9 19.8c-2.1 2.1-5.6 2.1-7.7 0-2.1-2.1-2.1-5.6 0-7.7 2.1-2.1 5.6-2.1 7.7 0 2.1 2.1 2.1 5.5 0 7.7Z" fill="#9C6FF4"/>
    </g>
    <defs>
        <clipPath id="a">
            <path fill="#fff" d="M0 0h140v64H0z"/>
        </clipPath>
    </defs>
</svg>
