<svg id="svg" version="1.1" xmlns="http://www.w3.org/2000/svg" xmlns:xlink="http://www.w3.org/1999/xlink" width="400" height="225" viewBox="0, 0, 400,225"><g id="svgg"><path id="path0" d="M181.345 94.678 L 180.833 95.189 180.833 102.907 C 180.833 111.489,180.828 111.458,182.259 111.458 C 183.548 111.458,183.542 111.505,183.542 102.756 L 183.542 94.815 183.079 94.491 C 182.426 94.034,181.936 94.087,181.345 94.678 M186.522 94.669 C 185.863 95.235,185.514 99.013,186.031 99.979 C 186.984 101.760,188.750 98.947,188.750 95.648 C 188.750 94.246,187.601 93.742,186.522 94.669 M196.855 94.338 C 196.342 94.556,193.750 96.716,193.750 96.925 C 193.750 98.325,196.430 97.891,198.281 96.191 C 199.274 95.280,198.131 93.794,196.855 94.338 M204.807 95.757 C 204.481 96.171,204.375 96.607,204.375 97.528 L 204.375 98.750 203.574 98.750 C 202.642 98.750,202.083 99.240,202.083 100.057 C 202.083 100.737,202.775 101.250,203.692 101.250 L 204.375 101.250 204.387 105.156 C 204.400 109.572,204.546 110.271,205.604 110.982 C 206.978 111.906,209.623 111.474,209.923 110.276 C 210.140 109.413,209.775 109.063,208.658 109.063 C 207.149 109.063,207.083 108.882,207.083 104.752 L 207.083 101.250 208.102 101.250 C 210.655 101.250,210.905 98.977,208.377 98.752 L 207.188 98.646 207.130 97.292 C 207.046 95.302,205.808 94.484,204.807 95.757 M122.952 96.381 C 121.706 97.016,121.073 98.121,117.177 106.458 C 112.357 116.771,112.582 116.188,112.892 117.577 C 113.145 118.706,114.167 119.965,115.098 120.294 C 115.415 120.406,140.636 124.623,148.187 125.827 C 149.849 126.092,150.885 125.865,151.865 125.021 C 152.796 124.220,161.901 105.889,162.036 104.545 C 162.364 101.273,160.121 100.321,149.583 99.260 C 148.839 99.185,143.167 98.468,136.979 97.666 C 123.212 95.883,123.821 95.938,122.952 96.381 M193.909 98.957 C 188.467 100.596,188.401 109.538,193.818 111.147 C 197.403 112.211,202.219 110.049,200.244 108.261 C 199.738 107.804,199.550 107.822,198.198 108.461 C 196.091 109.458,193.728 108.853,192.812 107.083 C 192.270 106.034,192.244 106.042,196.516 106.042 C 201.457 106.042,201.569 105.998,201.401 104.151 C 201.068 100.479,197.371 97.915,193.909 98.957 M214.479 99.139 C 210.132 101.121,209.743 108.331,213.854 110.740 C 215.638 111.786,217.892 111.683,219.526 110.481 L 220.197 109.987 220.331 110.520 C 220.567 111.460,221.921 111.797,222.572 111.077 C 223.123 110.468,223.090 99.597,222.536 99.095 C 221.850 98.474,220.208 98.943,220.208 99.759 C 220.208 99.856,219.679 99.669,219.033 99.343 C 217.604 98.622,215.792 98.541,214.479 99.139 M226.042 99.167 C 225.640 99.568,225.625 99.861,225.625 107.292 C 225.625 115.863,225.620 115.833,227.051 115.833 C 228.147 115.833,228.333 115.356,228.333 112.544 L 228.333 110.017 229.362 110.657 C 235.323 114.362,240.873 105.168,235.695 100.165 C 233.906 98.436,230.282 98.301,228.943 99.914 C 228.605 100.322,228.333 100.282,228.333 99.824 C 228.333 98.844,226.803 98.405,226.042 99.167 M243.136 99.110 C 238.066 100.900,238.187 109.464,243.305 111.101 C 246.242 112.040,250.339 110.847,250.168 109.102 C 250.056 107.956,249.243 107.705,247.879 108.394 C 245.513 109.592,242.887 108.721,242.201 106.510 L 242.055 106.042 246.085 106.042 C 250.855 106.042,251.042 105.980,251.042 104.415 C 251.041 100.608,246.853 97.798,243.136 99.110 M134.896 100.225 C 139.250 100.786,144.172 101.425,145.833 101.644 C 147.495 101.864,151.057 102.311,153.750 102.637 C 158.706 103.236,159.409 103.435,159.358 104.219 C 159.349 104.362,157.263 108.651,154.723 113.750 L 150.104 123.021 149.406 123.088 C 149.022 123.124,147.568 122.961,146.177 122.725 C 144.785 122.489,138.255 121.399,131.667 120.302 C 125.078 119.206,118.904 118.177,117.946 118.015 C 116.026 117.691,115.625 117.475,115.625 116.763 C 115.625 116.229,123.193 99.906,123.719 99.307 C 124.129 98.838,124.095 98.835,134.896 100.225 M197.233 101.598 C 197.936 101.932,198.748 102.944,198.749 103.490 C 198.750 103.686,198.005 103.750,195.715 103.750 L 192.680 103.750 192.828 103.281 C 193.388 101.511,195.416 100.736,197.233 101.598 M218.319 101.555 C 219.697 102.268,220.581 104.098,220.323 105.708 C 219.577 110.376,213.638 109.838,213.658 105.104 C 213.670 102.237,216.084 100.399,218.319 101.555 M233.125 101.562 C 235.625 102.855,235.596 107.368,233.080 108.669 C 231.579 109.445,229.644 108.726,228.802 107.079 C 227.138 103.822,230.124 100.011,233.125 101.562 M246.773 101.550 C 247.453 101.834,248.331 102.926,248.333 103.490 C 248.333 103.686,247.588 103.750,245.298 103.750 L 242.264 103.750 242.412 103.281 C 242.963 101.540,244.904 100.769,246.773 101.550 M234.479 112.956 C 232.663 113.981,231.352 115.644,231.917 116.208 C 232.584 116.876,236.301 115.125,236.422 114.086 C 236.548 112.999,235.493 112.384,234.479 112.956 M250.874 113.344 C 250.084 113.661,250.277 115.636,251.121 115.861 C 252.062 116.111,252.920 115.851,253.150 115.247 C 253.717 113.756,252.462 112.707,250.874 113.344 M181.732 117.295 C 180.897 117.628,180.833 118.085,180.833 123.700 C 180.833 129.582,180.924 130.000,182.207 130.000 C 183.425 130.000,183.542 129.639,183.543 125.874 C 183.545 120.804,183.900 120.002,186.215 119.835 C 187.277 119.758,187.500 119.811,188.035 120.272 L 188.646 120.796 188.750 125.000 C 188.864 129.604,188.988 130.000,190.320 130.000 C 192.016 130.000,192.365 121.111,190.763 118.706 C 189.507 116.819,185.921 116.716,184.291 118.519 C 183.776 119.088,183.542 119.075,183.542 118.477 C 183.542 117.531,182.632 116.936,181.732 117.295 M195.013 117.348 C 193.909 117.904,193.784 125.033,194.837 127.329 C 196.497 130.946,202.361 130.924,204.299 127.292 C 204.891 126.180,205.011 118.174,204.442 117.674 C 203.779 117.092,203.233 117.043,202.637 117.511 L 202.083 117.947 202.083 121.688 C 202.083 126.816,201.568 127.782,199.035 127.403 C 197.257 127.136,197.083 126.663,197.083 122.090 C 197.083 117.456,196.672 116.513,195.013 117.348 M208.054 117.511 L 207.500 117.947 207.500 123.557 C 207.500 129.734,207.556 130.000,208.854 130.000 C 210.066 130.000,210.208 129.528,210.208 125.500 C 210.208 120.704,210.640 119.792,212.910 119.792 C 214.969 119.792,215.208 120.366,215.208 125.302 C 215.208 129.517,215.343 130.000,216.516 130.000 C 217.816 130.000,217.917 129.693,217.917 125.711 C 217.917 120.748,218.373 119.792,220.739 119.792 C 222.739 119.792,222.917 120.218,222.917 125.025 C 222.917 129.811,223.517 130.994,225.237 129.602 C 226.167 128.850,226.008 120.530,225.031 118.858 C 223.778 116.713,220.822 116.589,218.632 118.591 C 217.928 119.234,217.500 119.505,217.500 119.307 C 217.500 117.220,213.035 116.538,211.081 118.327 C 210.251 119.086,210.208 119.093,210.208 118.470 C 210.208 117.438,208.892 116.852,208.054 117.511 M232.322 117.311 C 226.705 118.395,225.822 127.110,231.100 129.380 C 233.306 130.329,236.331 130.023,237.840 128.698 C 239.430 127.301,237.960 125.754,236.122 126.890 C 234.436 127.932,231.939 127.438,230.887 125.855 C 230.035 124.572,230.004 124.583,234.384 124.583 L 238.352 124.583 238.885 124.050 C 239.362 123.574,239.403 123.413,239.273 122.540 C 238.746 119.010,235.637 116.671,232.322 117.311 M241.924 117.301 C 241.107 117.626,241.019 118.324,241.084 123.912 C 241.151 129.683,241.227 130.000,242.533 130.000 C 243.729 130.000,243.958 129.263,243.958 125.419 C 243.958 120.155,244.652 119.108,247.643 119.860 C 248.918 120.181,249.726 118.487,248.728 117.584 C 247.853 116.793,245.119 117.394,244.305 118.556 C 244.004 118.986,243.997 118.983,243.861 118.365 C 243.649 117.398,242.822 116.944,241.924 117.301 M250.966 117.515 L 250.417 117.947 250.417 123.557 C 250.417 129.734,250.473 130.000,251.771 130.000 C 253.069 130.000,253.125 129.734,253.125 123.557 L 253.125 117.947 252.576 117.515 C 252.274 117.278,251.912 117.083,251.771 117.083 C 251.630 117.083,251.268 117.278,250.966 117.515 M259.413 117.307 C 254.185 118.332,253.296 127.124,258.186 129.445 C 259.887 130.252,262.236 130.030,263.634 128.930 L 264.167 128.511 264.167 130.894 C 264.167 133.606,264.485 134.375,265.608 134.375 C 266.892 134.375,266.886 134.422,266.825 125.609 L 266.771 117.610 266.217 117.344 C 265.462 116.982,264.614 117.323,264.318 118.108 L 264.090 118.712 263.450 118.225 C 262.293 117.342,260.875 117.020,259.413 117.307 M270.482 117.295 C 269.688 117.612,269.583 118.149,269.583 121.928 C 269.583 128.039,270.874 130.000,274.896 130.000 C 278.887 130.000,280.061 128.302,280.171 122.365 C 280.262 117.509,279.868 116.526,278.158 117.344 L 277.604 117.609 277.489 121.669 C 277.346 126.688,276.985 127.500,274.896 127.500 C 272.817 127.500,272.451 126.685,272.305 121.728 C 272.239 119.494,272.096 117.642,271.979 117.533 C 271.633 117.209,270.964 117.103,270.482 117.295 M286.875 117.283 C 280.675 118.644,280.263 127.890,286.321 129.689 C 289.670 130.684,294.397 128.488,292.536 126.803 C 292.034 126.349,291.618 126.368,290.590 126.893 C 288.618 127.899,286.323 127.451,285.262 125.855 C 284.427 124.597,284.380 124.614,288.975 124.543 C 293.854 124.469,293.866 124.463,293.682 122.579 C 293.359 119.275,289.935 116.611,286.875 117.283 M235.326 120.182 C 235.958 120.568,236.731 121.810,236.536 122.127 C 236.281 122.538,230.625 122.313,230.625 121.891 C 230.625 120.269,233.659 119.166,235.326 120.182 M262.626 120.188 C 266.122 122.319,263.738 128.560,259.911 127.297 C 256.217 126.078,257.077 119.793,260.938 119.793 C 261.593 119.793,262.219 119.939,262.626 120.188 M289.752 120.214 C 290.312 120.555,291.042 121.668,291.042 122.181 C 291.042 122.242,289.682 122.292,288.021 122.292 C 284.794 122.292,284.777 122.285,285.323 121.230 C 286.040 119.843,288.295 119.325,289.752 120.214 " stroke="none" fill="#f3d1b9" fill-rule="evenodd"></path><path id="path1" d="M0.000 112.500 L 0.000 225.000 200.000 225.000 L 400.000 225.000 400.000 112.500 L 400.000 0.000 200.000 0.000 L 0.000 0.000 0.000 112.500 M153.678 78.467 C 154.074 78.655,154.613 79.100,154.875 79.456 C 155.516 80.328,160.424 94.875,160.420 95.892 C 160.413 97.539,159.186 99.103,157.503 99.607 C 156.521 99.901,156.407 100.208,157.281 100.208 C 159.636 100.208,161.580 101.463,162.075 103.302 C 162.430 104.620,162.295 104.991,159.232 111.116 C 157.693 114.194,156.471 116.749,156.516 116.793 C 156.560 116.838,158.675 117.340,161.214 117.909 C 163.754 118.477,166.009 119.038,166.227 119.154 C 167.665 119.924,168.143 121.797,167.240 123.130 C 166.790 123.794,150.715 132.789,148.088 133.847 C 145.751 134.788,145.732 134.785,126.230 130.443 C 106.458 126.041,107.570 126.328,106.804 125.419 C 105.254 123.576,106.194 122.031,110.159 119.904 L 112.862 118.454 112.758 117.161 L 112.654 115.869 116.870 106.841 C 120.874 98.266,121.665 96.828,122.529 96.553 C 122.869 96.445,122.831 96.238,122.077 94.103 C 121.142 91.454,121.066 90.512,121.685 89.234 C 122.359 87.840,122.433 87.809,136.990 82.843 C 151.631 77.850,152.112 77.724,153.678 78.467 M138.037 85.642 C 130.712 88.144,124.585 90.325,124.421 90.490 C 124.162 90.748,124.240 91.143,125.010 93.475 L 125.896 96.162 137.592 97.663 L 149.288 99.164 153.134 97.890 C 155.249 97.189,157.107 96.496,157.264 96.349 C 157.551 96.080,153.327 82.711,152.575 81.510 C 152.138 80.811,152.376 80.743,138.037 85.642 M183.333 94.583 C 183.735 94.985,183.750 95.278,183.750 102.822 L 183.750 110.644 183.239 111.155 C 182.560 111.834,181.516 111.742,180.993 110.958 C 180.637 110.425,180.811 94.953,181.178 94.548 C 181.645 94.032,182.801 94.051,183.333 94.583 M188.742 94.839 C 189.032 95.358,189.019 95.602,188.594 97.634 C 188.005 100.447,187.474 101.072,186.236 100.409 C 185.538 100.036,185.636 95.387,186.357 94.666 C 187.085 93.937,188.287 94.025,188.742 94.839 M198.369 94.511 C 199.376 95.423,198.768 96.294,196.291 97.485 C 193.385 98.882,192.671 97.415,195.260 95.367 C 196.876 94.089,197.663 93.872,198.369 94.511 M206.985 95.697 C 207.169 95.959,207.292 96.616,207.292 97.338 L 207.292 98.542 208.268 98.542 C 209.405 98.542,210.208 99.132,210.208 99.968 C 210.208 100.857,209.655 101.250,208.401 101.250 L 207.282 101.250 207.339 105.052 L 207.396 108.854 208.537 108.854 C 209.566 108.854,209.704 108.908,209.945 109.408 C 211.073 111.744,205.879 112.513,204.677 110.188 C 204.443 109.735,204.375 108.667,204.375 105.427 L 204.375 101.250 203.463 101.250 C 202.481 101.250,202.196 101.042,201.976 100.166 C 201.776 99.370,202.623 98.542,203.636 98.542 L 204.375 98.542 204.375 97.220 C 204.375 95.215,205.988 94.273,206.985 95.697 M197.972 99.123 C 199.674 99.877,200.998 101.590,201.456 103.634 C 201.980 105.972,201.450 106.250,196.469 106.250 C 192.192 106.250,192.086 106.302,193.494 107.710 C 194.756 108.972,196.995 109.211,198.392 108.232 C 199.538 107.430,201.060 108.234,200.748 109.477 C 200.120 111.978,194.108 112.265,191.510 109.918 C 186.470 105.364,191.832 96.408,197.972 99.123 M219.131 99.277 C 220.018 99.772,220.398 99.734,220.413 99.148 C 220.418 98.978,221.409 98.542,221.790 98.542 C 221.962 98.542,222.332 98.772,222.614 99.053 L 223.125 99.564 223.125 105.104 L 223.125 110.644 222.614 111.155 C 221.848 111.921,220.208 111.477,220.208 110.503 C 220.208 110.278,220.011 110.331,219.427 110.711 C 215.727 113.118,211.226 110.441,210.882 105.629 C 210.516 100.519,215.074 97.009,219.131 99.277 M228.030 99.053 C 228.312 99.334,228.542 99.659,228.542 99.774 C 228.542 99.889,228.987 99.706,229.531 99.369 C 233.299 97.031,237.789 100.150,237.789 105.104 C 237.789 110.007,233.487 113.066,229.609 110.921 C 229.108 110.644,228.662 110.417,228.620 110.417 C 228.577 110.417,228.542 111.452,228.542 112.718 C 228.542 115.721,227.430 117.014,226.042 115.625 C 225.611 115.194,225.370 99.866,225.784 99.253 C 226.320 98.462,227.348 98.371,228.030 99.053 M247.568 99.129 C 250.082 100.241,252.069 104.150,250.873 105.629 C 250.457 106.143,250.432 106.146,246.373 106.210 C 244.128 106.246,242.292 106.349,242.292 106.440 C 242.292 108.208,245.682 109.414,247.698 108.363 C 249.784 107.276,251.386 108.719,249.769 110.230 C 247.603 112.253,242.837 111.938,240.818 109.638 C 236.386 104.591,241.592 96.486,247.568 99.129 M123.606 99.635 C 123.208 100.166,115.571 116.682,115.675 116.786 C 115.735 116.846,116.193 116.668,116.694 116.390 C 128.469 109.864,126.453 110.095,141.700 113.526 C 147.849 114.910,153.006 116.042,153.160 116.042 C 153.475 116.042,159.167 104.811,159.167 104.191 C 159.167 103.485,158.658 103.345,154.045 102.784 L 149.479 102.227 139.922 105.385 C 127.025 109.645,127.402 109.707,125.120 102.945 C 124.457 100.982,123.889 99.375,123.858 99.375 C 123.827 99.375,123.713 99.492,123.606 99.635 M127.203 99.844 C 127.954 102.236,129.159 105.291,129.404 105.429 C 129.599 105.538,132.066 104.821,136.260 103.437 C 139.864 102.248,142.651 101.269,142.454 101.262 C 142.257 101.256,138.835 100.828,134.850 100.313 C 126.301 99.208,127.017 99.252,127.203 99.844 M194.988 101.445 C 194.034 101.739,193.552 102.084,193.231 102.704 C 192.697 103.737,192.729 103.750,195.729 103.750 C 198.285 103.750,198.542 103.716,198.542 103.380 C 198.542 102.174,196.404 101.010,194.988 101.445 M215.988 101.545 C 212.453 102.818,213.271 108.819,216.979 108.819 C 221.013 108.819,221.387 102.136,217.396 101.382 C 217.052 101.317,216.418 101.390,215.988 101.545 M230.869 101.455 C 228.468 102.030,227.598 105.973,229.461 107.836 C 232.308 110.683,236.352 106.962,234.484 103.214 C 233.743 101.725,232.422 101.083,230.869 101.455 M244.641 101.450 C 243.660 101.686,243.017 102.172,242.712 102.907 C 242.348 103.787,242.286 103.770,245.492 103.704 L 248.333 103.646 247.968 102.931 C 247.328 101.675,246.057 101.109,244.641 101.450 M236.302 113.078 C 237.179 113.848,236.576 114.743,234.479 115.784 C 232.615 116.709,232.378 116.753,231.886 116.261 C 231.223 115.598,231.353 115.305,232.865 114.048 C 234.830 112.413,235.371 112.260,236.302 113.078 M253.006 113.452 C 253.973 114.419,253.199 116.042,251.771 116.042 C 250.326 116.042,249.609 114.549,250.553 113.506 C 250.993 113.020,252.539 112.986,253.006 113.452 M127.292 114.204 C 126.517 114.424,119.803 117.943,119.796 118.133 C 119.789 118.317,149.555 123.167,149.793 123.020 C 149.914 122.945,150.467 121.978,151.024 120.869 L 152.035 118.854 141.069 116.403 C 130.150 113.962,128.862 113.756,127.292 114.204 M183.268 117.536 C 183.533 117.785,183.750 118.177,183.750 118.406 C 183.750 118.816,183.758 118.815,184.219 118.383 C 186.039 116.674,189.552 116.719,190.770 118.465 C 191.562 119.602,191.667 120.346,191.667 124.858 C 191.667 129.827,191.617 130.000,190.188 130.000 C 188.855 130.000,188.750 129.661,188.750 125.364 C 188.750 120.408,188.313 119.504,186.095 119.864 C 184.060 120.194,183.757 120.914,183.753 125.422 C 183.750 129.629,183.636 130.000,182.348 130.000 C 180.829 130.000,180.833 130.020,180.833 123.521 C 180.833 117.775,180.837 117.730,181.296 117.408 C 181.944 116.954,182.701 117.004,183.268 117.536 M196.667 117.500 C 197.052 117.885,197.083 118.194,197.083 121.569 C 197.083 125.502,197.245 126.319,198.149 126.952 C 198.908 127.483,200.477 127.399,201.186 126.789 L 201.771 126.287 201.875 122.123 C 201.992 117.440,202.104 117.083,203.455 117.083 C 204.889 117.083,205.051 117.640,204.966 122.292 C 204.852 128.530,203.774 130.009,199.351 129.995 C 195.277 129.983,194.167 128.224,194.167 121.783 C 194.167 117.471,194.287 117.083,195.625 117.083 C 195.972 117.083,196.435 117.269,196.667 117.500 M209.985 117.632 C 210.222 117.934,210.417 118.327,210.417 118.505 C 210.417 118.742,210.569 118.682,210.990 118.279 C 212.598 116.739,216.189 116.752,217.080 118.302 C 217.638 119.272,217.629 119.272,218.645 118.378 C 220.910 116.384,224.015 116.689,225.265 119.028 C 225.697 119.836,225.734 120.210,225.796 124.441 C 225.873 129.676,225.794 130.000,224.439 130.000 C 222.994 130.000,222.917 129.780,222.916 125.645 C 222.914 120.667,222.585 119.792,220.719 119.792 C 218.592 119.792,218.125 120.812,218.125 125.454 C 218.125 129.626,218.010 130.000,216.723 130.000 C 215.299 130.000,215.209 129.753,215.203 125.853 C 215.196 121.004,214.777 119.792,213.107 119.792 C 210.839 119.792,210.417 120.643,210.417 125.212 C 210.417 129.491,210.253 129.994,208.854 129.994 C 207.375 129.994,207.292 129.646,207.292 123.479 C 207.292 117.451,207.382 117.083,208.854 117.083 C 209.361 117.083,209.672 117.234,209.985 117.632 M235.938 117.657 C 237.832 118.628,239.140 120.515,239.323 122.540 C 239.508 124.576,239.490 124.583,234.551 124.583 C 232.277 124.583,230.417 124.663,230.417 124.761 C 230.417 126.729,233.782 127.880,236.196 126.738 C 238.230 125.776,239.604 127.502,237.862 128.831 C 234.580 131.334,229.065 129.813,227.819 126.063 C 226.002 120.592,231.189 115.221,235.938 117.657 M243.542 117.500 C 243.771 117.729,243.958 118.123,243.958 118.374 C 243.958 118.808,243.993 118.799,244.635 118.194 C 246.786 116.168,250.644 117.289,248.947 119.446 C 248.511 120.001,248.447 120.016,247.103 119.883 C 244.482 119.625,243.958 120.617,243.958 125.841 C 243.958 129.723,243.860 130.000,242.480 130.000 C 241.075 130.000,241.042 129.850,241.042 123.495 C 241.042 117.279,241.086 117.083,242.500 117.083 C 242.847 117.083,243.310 117.269,243.542 117.500 M252.902 117.632 C 253.413 118.282,253.579 128.310,253.094 129.232 C 252.578 130.212,251.322 130.317,250.631 129.439 C 249.988 128.622,250.056 118.243,250.709 117.521 C 251.289 116.882,252.353 116.935,252.902 117.632 M263.105 117.865 C 263.873 118.342,264.167 118.440,264.167 118.221 C 264.167 117.213,265.775 116.761,266.601 117.536 L 267.083 117.989 267.083 125.719 C 267.083 134.420,267.091 134.375,265.682 134.375 C 264.336 134.375,264.167 134.023,264.167 131.229 L 264.167 128.772 263.000 129.386 C 258.465 131.771,253.829 127.409,254.985 121.845 C 255.803 117.903,259.920 115.885,263.105 117.865 M272.018 117.536 C 272.487 117.977,272.500 118.092,272.500 121.672 C 272.500 126.553,272.815 127.292,274.896 127.292 C 276.974 127.292,277.292 126.550,277.292 121.701 C 277.292 117.626,277.467 117.083,278.786 117.083 C 280.105 117.083,280.208 117.452,280.208 122.164 C 280.208 126.408,280.208 126.411,279.626 127.525 C 277.924 130.784,272.232 130.970,270.314 127.830 L 269.688 126.805 269.624 122.372 C 269.563 118.133,269.579 117.921,269.989 117.511 C 270.544 116.956,271.411 116.966,272.018 117.536 M290.375 117.720 C 292.401 118.733,293.744 120.754,293.748 122.796 C 293.751 124.570,293.714 124.583,288.931 124.583 L 284.802 124.583 285.019 125.156 C 285.782 127.169,288.220 127.868,290.582 126.751 C 292.336 125.921,293.775 126.924,292.786 128.287 C 291.107 130.599,285.574 130.512,283.492 128.141 C 278.996 123.020,284.451 114.760,290.375 117.720 M153.782 122.012 C 152.165 125.227,151.292 126.042,149.463 126.042 C 148.894 126.042,138.373 124.345,115.478 120.562 C 115.193 120.515,109.313 123.619,109.540 123.696 C 110.506 124.025,144.467 131.457,145.000 131.457 C 145.401 131.456,146.104 131.353,146.563 131.227 C 147.619 130.936,164.418 121.826,164.214 121.654 C 164.131 121.584,162.234 121.128,160.000 120.642 C 157.766 120.156,155.732 119.710,155.480 119.651 C 155.075 119.556,154.882 119.825,153.782 122.012 M232.231 120.141 C 231.687 120.366,231.312 120.720,231.028 121.276 L 230.617 122.083 233.537 122.083 C 235.144 122.083,236.458 122.013,236.458 121.927 C 236.450 120.422,234.025 119.397,232.231 120.141 M259.796 120.013 C 257.427 121.009,256.950 124.684,258.946 126.563 C 260.406 127.935,263.033 127.246,263.880 125.267 C 265.144 122.311,262.480 118.884,259.796 120.013 M286.753 120.088 C 286.063 120.388,285.208 121.335,285.208 121.799 C 285.208 122.025,285.783 122.083,288.021 122.083 C 291.103 122.083,291.232 122.021,290.382 120.940 C 289.552 119.886,288.036 119.529,286.753 120.088 " stroke="none" fill="#0434ab" fill-rule="evenodd"></path><path id="path2" d="" stroke="none" fill="#5764ab" fill-rule="evenodd"></path><path id="path3" d="M188.798 95.625 C 188.798 96.026,188.841 96.190,188.894 95.990 C 188.946 95.789,188.946 95.461,188.894 95.260 C 188.841 95.060,188.798 95.224,188.798 95.625 M183.636 102.917 C 183.636 107.214,183.664 108.971,183.698 106.823 C 183.731 104.674,183.731 101.159,183.698 99.010 C 183.664 96.862,183.636 98.620,183.636 102.917 M207.170 97.292 L 207.188 98.646 208.125 98.663 L 209.063 98.680 208.187 98.600 L 207.311 98.520 207.232 97.229 L 207.152 95.938 207.170 97.292 M195.052 98.685 C 195.253 98.738,195.581 98.738,195.781 98.685 C 195.982 98.633,195.818 98.590,195.417 98.590 C 195.016 98.590,194.852 98.633,195.052 98.685 M203.284 98.689 C 203.543 98.739,203.918 98.737,204.117 98.685 C 204.316 98.633,204.104 98.592,203.646 98.594 C 203.188 98.597,203.025 98.639,203.284 98.689 M223.008 105.104 C 223.008 108.198,223.037 109.493,223.072 107.981 C 223.108 106.470,223.108 103.939,223.072 102.356 C 223.037 100.774,223.008 102.010,223.008 105.104 M235.833 100.313 C 236.222 100.714,236.587 101.042,236.644 101.042 C 236.702 101.042,236.430 100.714,236.042 100.313 C 235.653 99.911,235.288 99.583,235.231 99.583 C 235.173 99.583,235.445 99.911,235.833 100.313 M207.169 104.792 C 207.169 106.797,207.200 107.617,207.238 106.615 C 207.277 105.612,207.277 103.971,207.238 102.969 C 207.200 101.966,207.169 102.786,207.169 104.792 M210.902 105.104 C 210.903 105.906,210.940 106.209,210.985 105.777 C 211.030 105.344,211.030 104.688,210.984 104.318 C 210.938 103.948,210.901 104.302,210.902 105.104 M189.643 105.313 C 189.644 105.885,189.685 106.095,189.733 105.778 C 189.781 105.462,189.779 104.993,189.730 104.737 C 189.681 104.480,189.641 104.740,189.643 105.313 M213.594 105.104 C 213.597 105.563,213.639 105.725,213.689 105.466 C 213.739 105.207,213.737 104.832,213.685 104.633 C 213.633 104.434,213.592 104.646,213.594 105.104 M220.261 105.104 C 220.263 105.563,220.306 105.725,220.356 105.466 C 220.406 105.207,220.404 104.832,220.351 104.633 C 220.299 104.434,220.259 104.646,220.261 105.104 M239.219 105.104 C 239.222 105.563,239.264 105.725,239.314 105.466 C 239.364 105.207,239.362 104.832,239.310 104.633 C 239.258 104.434,239.217 104.646,239.219 105.104 M192.503 106.406 C 192.505 106.661,192.555 106.694,192.669 106.515 C 192.784 106.333,193.903 106.242,196.572 106.198 L 200.313 106.136 196.406 106.089 C 192.806 106.045,192.500 106.070,192.503 106.406 M242.083 106.198 C 242.083 106.284,243.231 106.330,244.635 106.300 C 249.435 106.197,249.896 106.123,245.990 106.082 C 243.841 106.060,242.083 106.112,242.083 106.198 M190.833 109.232 C 190.833 109.268,191.138 109.572,191.510 109.909 L 192.188 110.521 191.576 109.844 C 191.005 109.213,190.833 109.071,190.833 109.232 M228.414 112.500 C 228.414 113.932,228.447 114.518,228.488 113.802 C 228.528 113.086,228.528 111.914,228.488 111.198 C 228.447 110.482,228.414 111.068,228.414 112.500 M195.885 111.602 C 196.086 111.654,196.414 111.654,196.615 111.602 C 196.815 111.550,196.651 111.507,196.250 111.507 C 195.849 111.507,195.685 111.550,195.885 111.602 M250.261 114.688 C 250.263 115.146,250.306 115.309,250.356 115.050 C 250.406 114.791,250.404 114.416,250.351 114.216 C 250.299 114.017,250.259 114.229,250.261 114.688 M218.424 118.594 L 217.813 119.271 218.490 118.659 C 219.121 118.089,219.262 117.917,219.101 117.917 C 219.066 117.917,218.761 118.221,218.424 118.594 M183.566 118.490 C 183.537 119.051,183.801 119.094,184.193 118.594 C 184.449 118.267,184.443 118.258,184.132 118.501 C 183.838 118.731,183.770 118.715,183.687 118.396 C 183.611 118.100,183.585 118.120,183.566 118.490 M266.969 125.833 C 266.969 130.130,266.997 131.888,267.031 129.740 C 267.065 127.591,267.065 124.076,267.031 121.927 C 266.997 119.779,266.969 121.536,266.969 125.833 M272.377 121.563 C 272.377 123.510,272.408 124.335,272.446 123.396 C 272.485 122.456,272.485 120.862,272.447 119.854 C 272.409 118.846,272.377 119.615,272.377 121.563 M277.377 121.563 C 277.377 123.510,277.408 124.335,277.446 123.396 C 277.485 122.456,277.485 120.862,277.447 119.854 C 277.409 118.846,277.377 119.615,277.377 121.563 M283.739 118.906 L 283.021 119.688 283.802 118.970 C 284.529 118.301,284.679 118.125,284.520 118.125 C 284.485 118.125,284.134 118.477,283.739 118.906 M201.961 121.979 C 201.961 124.042,201.992 124.857,202.030 123.792 C 202.068 122.726,202.068 121.038,202.030 120.042 C 201.992 119.045,201.961 119.917,201.961 121.979 M204.876 121.667 C 204.876 123.557,204.908 124.331,204.947 123.385 C 204.985 122.440,204.985 120.893,204.947 119.948 C 204.908 119.003,204.876 119.776,204.876 121.667 M207.382 123.333 C 207.382 126.141,207.411 127.289,207.447 125.885 C 207.483 124.482,207.483 122.185,207.447 120.781 C 207.411 119.378,207.382 120.526,207.382 123.333 M250.299 123.542 C 250.299 126.464,250.328 127.659,250.364 126.198 C 250.400 124.737,250.400 122.346,250.364 120.885 C 250.328 119.424,250.299 120.620,250.299 123.542 M253.215 123.333 C 253.215 126.141,253.245 127.289,253.281 125.885 C 253.317 124.482,253.317 122.185,253.281 120.781 C 253.245 119.378,253.215 120.526,253.215 123.333 M285.003 121.927 C 285.000 122.258,285.282 122.292,288.021 122.292 C 289.682 122.292,291.042 122.221,291.042 122.135 C 291.042 122.049,289.762 122.008,288.197 122.043 C 286.027 122.092,285.311 122.042,285.179 121.835 C 285.050 121.631,285.006 121.654,285.003 121.927 M218.002 125.417 C 218.002 127.422,218.034 128.242,218.072 127.240 C 218.110 126.237,218.110 124.596,218.072 123.594 C 218.034 122.591,218.002 123.411,218.002 125.417 M233.542 122.083 L 230.521 122.205 233.477 122.248 C 235.272 122.275,236.484 122.210,236.563 122.083 C 236.633 121.969,236.662 121.895,236.627 121.918 C 236.591 121.942,235.203 122.016,233.542 122.083 M183.627 125.625 C 183.627 127.630,183.659 128.451,183.697 127.448 C 183.735 126.445,183.735 124.805,183.697 123.802 C 183.659 122.799,183.627 123.620,183.627 125.625 M254.858 123.542 C 254.858 124.286,254.896 124.591,254.942 124.219 C 254.989 123.846,254.989 123.237,254.942 122.865 C 254.896 122.492,254.858 122.797,254.858 123.542 M257.557 123.542 C 257.557 124.057,257.597 124.268,257.647 124.010 C 257.697 123.753,257.697 123.331,257.647 123.073 C 257.597 122.815,257.557 123.026,257.557 123.542 M264.219 123.646 C 264.222 124.104,264.264 124.267,264.314 124.008 C 264.364 123.749,264.362 123.374,264.310 123.175 C 264.258 122.975,264.217 123.188,264.219 123.646 M210.291 125.938 C 210.291 127.542,210.324 128.170,210.363 127.335 C 210.403 126.499,210.403 125.186,210.363 124.418 C 210.323 123.650,210.290 124.333,210.291 125.938 M199.219 127.435 C 199.419 127.488,199.747 127.488,199.948 127.435 C 200.148 127.383,199.984 127.340,199.583 127.340 C 199.182 127.340,199.018 127.383,199.219 127.435 M260.469 127.435 C 260.669 127.488,260.997 127.488,261.198 127.435 C 261.398 127.383,261.234 127.340,260.833 127.340 C 260.432 127.340,260.268 127.383,260.469 127.435 M274.534 127.439 C 274.793 127.489,275.168 127.487,275.367 127.435 C 275.566 127.383,275.354 127.342,274.896 127.344 C 274.438 127.347,274.275 127.389,274.534 127.439 " stroke="none" fill="#738bcc" fill-rule="evenodd"></path><path id="path4" d="M143.333 80.734 C 123.141 87.605,123.288 87.553,122.537 88.212 C 121.034 89.531,120.928 90.775,122.045 93.953 L 122.813 96.135 124.323 96.140 C 125.154 96.143,125.833 96.083,125.833 96.007 C 125.833 95.930,125.454 94.808,124.989 93.512 C 124.516 92.190,124.194 90.961,124.256 90.713 C 124.381 90.216,151.185 80.942,152.106 81.078 C 152.769 81.175,157.771 95.777,157.325 96.314 C 157.172 96.498,155.415 97.189,153.420 97.851 C 151.424 98.512,149.792 99.107,149.792 99.172 C 149.792 99.237,151.186 99.461,152.891 99.671 L 155.990 100.051 157.337 99.603 C 159.233 98.972,160.417 97.544,160.417 95.889 C 160.417 95.568,159.299 91.955,157.932 87.859 C 154.077 76.305,155.011 76.761,143.333 80.734 M123.956 99.194 C 123.950 99.810,126.344 106.393,126.798 107.010 C 127.463 107.913,128.980 108.622,129.962 108.488 C 131.038 108.341,149.549 102.223,149.167 102.141 C 148.995 102.104,147.542 101.896,145.938 101.678 L 143.021 101.283 136.404 103.460 C 128.504 106.060,129.314 106.172,128.022 102.296 C 127.488 100.692,126.987 99.341,126.910 99.294 C 126.450 99.014,123.958 98.930,123.956 99.194 M127.396 111.142 C 127.281 111.179,126.702 111.359,126.108 111.542 C 125.514 111.725,123.405 112.753,121.420 113.826 C 119.436 114.899,117.320 116.043,116.719 116.367 C 115.087 117.247,115.333 117.590,117.855 117.958 L 119.512 118.199 123.037 116.308 C 128.583 113.332,127.381 113.329,140.860 116.354 C 146.731 117.672,151.687 118.750,151.875 118.750 C 152.192 118.750,153.534 116.362,153.318 116.179 C 152.378 115.382,128.585 110.758,127.396 111.142 M155.681 118.209 L 155.024 119.543 156.418 119.855 C 157.185 120.026,159.219 120.472,160.938 120.846 C 162.656 121.220,164.131 121.584,164.214 121.654 C 164.446 121.850,147.507 130.981,146.388 131.263 C 144.967 131.621,145.179 131.661,126.483 127.490 L 109.377 123.674 111.095 122.745 C 112.040 122.235,113.330 121.525,113.962 121.169 L 115.112 120.521 114.014 119.466 L 112.916 118.412 110.260 119.840 C 106.211 122.016,105.249 123.570,106.804 125.419 C 107.570 126.328,106.458 126.041,126.230 130.443 C 145.732 134.785,145.751 134.788,148.088 133.847 C 150.715 132.789,166.790 123.794,167.240 123.130 C 168.143 121.797,167.665 119.924,166.227 119.154 C 165.901 118.980,156.890 116.875,156.469 116.875 C 156.398 116.875,156.043 117.475,155.681 118.209 " stroke="none" fill="#78346c" fill-rule="evenodd"></path></g></svg>