<?xml version="1.0" encoding="UTF-8" standalone="no"?>
<svg
   width="54.15308"
   viewBox="0 0 134.15772 38.16563"
   version="1.1"
   id="svg14"
   sodipodi:docname="fibre-64.svg"
   height="38.16563"
   inkscape:version="1.1.2 (0a00cf5339, 2022-02-04)"
   xmlns:inkscape="http://www.inkscape.org/namespaces/inkscape"
   xmlns:sodipodi="http://sodipodi.sourceforge.net/DTD/sodipodi-0.dtd"
   xmlns="http://www.w3.org/2000/svg"
   xmlns:svg="http://www.w3.org/2000/svg">
  <sodipodi:namedview
     id="namedview14"
     pagecolor="#ffffff"
     bordercolor="#000000"
     borderopacity="0.25"
     inkscape:pageshadow="2"
     inkscape:pageopacity="0.0"
     inkscape:pagecheckerboard="0"
     showgrid="false"
     inkscape:zoom="12.721657"
     inkscape:cx="15.210283"
     inkscape:cy="38.595602"
     inkscape:window-width="2560"
     inkscape:window-height="1363"
     inkscape:window-x="0"
     inkscape:window-y="0"
     inkscape:window-maximized="1"
     inkscape:current-layer="svg14"
     fit-margin-top="0"
     fit-margin-left="0"
     fit-margin-right="0"
     fit-margin-bottom="0" />
  <defs
     id="defs11">
    <clipPath
       id="a">
      <path
         fill="#ffffff"
         d="M 0,0 H 140 V 64 H 0 Z"
         id="path8" />
    </clipPath>
  </defs>
  <path
     id="path2104"
     style="fill:#f03e2a;fill-opacity:1;stroke-width:0.00499631;stroke-linecap:square;paint-order:markers fill stroke"
     d="m 79.727065,-28.191528 c -1.637871,0.01322 -2.779433,0.149363 -2.779433,0.149363 -0.406959,-0.0014 -0.807097,0.107137 -1.159578,0.310552 -0.711699,0.411028 -1.143796,1.17051 -1.143709,1.992375 V -0.29351221 H 69.536166 V -20.203597 c -0.0022,-0.354394 -0.215521,-0.984132 -1.151832,-0.9877 -0.936314,-0.0037 -1.155746,0.619888 -1.151455,0.9877 v 19.91008479 c -0.0014,0.4069582 0.107502,0.807095 0.310914,1.1595766 0.411026,0.71170091 1.170511,1.14379571 1.992373,1.14370961 h 5.108179 c 0.406959,0.00142 0.807087,-0.1075022 1.159568,-0.3109129 0.711701,-0.4110274 1.143804,-1.17051211 1.143719,-1.99237331 V -25.739231 c 0,0 12.228664,-1.752288 12.247081,4.795415 0.01546,5.483926 -6.803251,5.901858 -9.020264,5.893019 -0.432259,-0.02028 -0.689697,-0.01918 -0.689697,-0.01918 -0.354402,0.0022 -0.984132,0.215149 -0.987707,1.151462 -0.0037,0.93632 0.619895,1.156114 0.987707,1.151833 0,0 11.088142,0.03997 11.052111,6.4097478 -0.0361,6.36976609 -11.125872,5.95719669 -11.125872,5.95719669 -0.354403,0.00212 -0.984141,0.2151496 -0.987708,1.151462 -0.0037,0.93632071 0.619896,1.15574351 0.987708,1.15146211 v 3.798e-4 c 0,0 13.017143,0.9562332 13.193096,-8.0565401 0.08778,-4.4914173 -3.170325,-6.7202553 -6.461005,-7.8267543 2.251304,-0.797187 5.016013,-2.759805 5.097489,-7.593661 0.09922,-5.884549 -7.327815,-6.65204 -11.513506,-6.618132 z m -49.410991,0.01407 c 0,0 1.4e-5,6.88e-4 0,6.88e-4 -1.878764,0.01727 -1.950157,0.373835 -2.047329,0.599696 -0.09968,0.231742 -0.851239,2.145065 -0.851239,2.145065 L 18.302821,-0.34914511 H 2.303357 V -27.031243 c -0.00224,-0.354402 -0.2155212,-0.984133 -1.151832,-0.987701 -0.93632395,-0.0037 -1.15574595,0.619889 -1.151463953168,0.987701 V -0.34370041 C -3.9595317e-4,0.06134779 0.10849605,0.45946239 0.31098407,0.81033829 0.72201107,1.5220392 1.4814934,1.9541411 2.303357,1.9540562 h 15.999464 c 0,0 1.591595,0.066729 2.164614,-1.51658981 L 29.58212,-24.645337 h 3.8e-4 c 0,0 0.400835,-1.078957 0.439641,-1.17949 0.03881,-0.100542 0.08412,-0.200209 0.365127,-0.201371 0.281019,0.0014 0.333319,0.100825 0.372145,0.201371 0.03881,0.100541 0.439632,1.17949 0.439632,1.17949 h 3.82e-4 L 40.314113,0.43746639 42.478726,-0.34923011 33.36404,-25.432036 c 0,0 -0.75154,-1.913319 -0.851238,-2.145064 -0.09718,-0.225859 -0.168571,-0.582417 -2.047327,-0.599696 -9e-6,-2.7e-5 0,-6.86e-4 0,-6.86e-4 -0.02561,-8e-6 -0.04954,2.29e-4 -0.0745,3.8e-4 -0.02512,-7.4e-5 -0.0491,-3.8e-4 -0.07487,-3.8e-4 z m 87.675466,0.0029 c -0.39379,0.0048 -0.78011,0.113496 -1.12158,0.310543 -0.71169,0.411026 -1.1438,1.170518 -1.14371,1.992374 v 9.107303 c -10e-4,0.406959 0.10748,0.807095 0.31091,1.159576 0.41103,0.7117 1.17052,1.143797 1.99238,1.143719 h 11.39621 v 1.065151 h -11.51497 c -0.40695,-0.0014 -0.8071,0.107515 -1.15958,0.310916 -0.7117,0.411028 -1.1438,1.170511 -1.14373,1.992373 v 7.2034526 c -0.001,0.4069583 0.10748,0.8070867 0.31093,1.1595754 0.41103,0.7117009 1.17053,1.1437969 1.99238,1.143712 h 13.94367 v -2.3032721 h -13.94367 v -7.2034529 h 11.51497 c 0.40694,0.0014 0.8071,-0.107502 1.15959,-0.310915 0.71167,-0.411028 1.14378,-1.170512 1.14369,-1.992374 v -1.06515 c 0.001,-0.406968 -0.10747,-0.807096 -0.31091,-1.159578 -0.41103,-0.7117 -1.17051,-1.143803 -1.99237,-1.143718 h -11.39622 v -9.107304 h 14.647 c 0.35439,-0.0022 0.98413,-0.215141 0.98771,-1.151456 0.004,-0.936319 -0.61988,-1.155743 -0.98771,-1.151461 h -14.647 c -0.0129,-4.3e-5 -0.0252,-1.52e-4 -0.038,0 z m 13.86291,26.588695 v 1.26026669 0.0092 h -18.71253 v 0.016623 c -0.004,-0.00283 -0.009,-0.00578 -0.0106,-0.00649 l 0.0106,-0.00991 -9.97109,-10.95029969 c 0,0 9.00705,0.03013 8.92916,-8.665824 -0.0886,-9.897427 -14.591314,-8.022233 -14.591314,-8.022233 -0.406944,-0.0014 -0.807081,0.107503 -1.159566,0.310916 -0.711707,0.411026 -1.143804,1.170511 -1.143709,1.992371 v 25.44537039 h 2.303275 V -25.651316 c 0,0 12.245054,-1.593135 12.343714,5.782015 0.0987,7.375148 -8.27303,6.573868 -8.27303,6.573868 0,0 -1.931234,-0.296033 -1.868074,0.850503 0.0631,1.146529 1.744524,2.7399724 1.744524,2.7399724 l 9.97109,10.9503107 c 0,0 0.68381,0.7899456 1.78177,0.7321053 h 18.64578 c 0.40694,0.00142 0.80708,-0.1071247 1.15956,-0.3105425 0.71172,-0.4110273 1.14379,-1.17051081 1.14371,-1.99237321 V -1.5857241 c 10e-4,-0.4069594 -0.10701,-0.8070879 -0.31053,-1.1595707 -0.41104,-0.7116985 -1.17055,-1.1438028 -1.99239,-1.1437167 v 2.3032874 z M 68.357784,-28.16947 a 1.5030992,1.5030992 0 0 0 -1.100198,0.483897 1.5030992,1.5030992 0 0 0 0.08483,2.123303 l 1.019788,-1.103885 -1.017947,1.105728 a 1.5030992,1.5030992 0 0 0 2.123675,-0.0874 1.5030992,1.5030992 0 0 0 -0.08706,-2.123672 1.5030992,1.5030992 0 0 0 -1.023108,-0.397961 z m -18.896933,0.04611 c -0.406958,-0.0014 -0.807094,0.107503 -1.159575,0.310915 -0.711701,0.411027 -1.143796,1.17051 -1.143711,1.992372 v 8.86277 c -0.0014,0.406962 0.107502,0.807096 0.310915,1.159579 0.411026,0.7117 1.17051,1.143804 1.992371,1.143718 h 11.462228 v 1.400782 H 49.468967 c -0.40696,-0.0014 -0.807095,0.107502 -1.159576,0.310915 -0.711703,0.411027 -1.143797,1.170512 -1.143711,1.992374 V 1.0489284 h -0.0014 c 0.0022,0.3544022 0.215513,0.9841398 1.151825,0.9877075 0.936322,0.00354 1.155745,-0.6198958 1.151462,-0.9877075 V -10.949931 h 0.0014 11.454111 c 0.406961,0.0014 0.807095,-0.107491 1.159577,-0.310915 0.711699,-0.411028 1.143805,-1.170512 1.143718,-1.992374 v -1.400782 c 0.0014,-0.40696 -0.107515,-0.807095 -0.310922,-1.159576 -0.411026,-0.711701 -1.170511,-1.143804 -1.992373,-1.143721 H 49.460852 v -8.86277 h 14.880832 c 0.354403,-0.0022 0.98414,-0.215514 0.987701,-1.151826 0.0037,-0.936319 -0.619886,-1.155743 -0.987701,-1.15146 z M 34.255454,-8.241313 c -0.04603,-4.2e-5 -0.08945,0.0014 -0.130563,0.0048 h -8.353067 v -3.82e-4 c -0.354402,0.0022 -0.984133,0.215522 -0.987701,1.151833 -0.0037,0.9363206 0.619894,1.1557434 0.987701,1.1514561 h 8.480314 c 0,0 3.8e-4,0 3.8e-4,0 l 2.907425,8.0008436 2.164241,-0.7863261 -2.907417,-8.0012069 c 0,0 0,-3.823e-4 0,-3.823e-4 -0.0014,-0.00366 -0.479486,-1.5191314 -2.161294,-1.5206504 z" />
  <path
     style="fill:#231f20;fill-opacity:1;stroke-width:0.287463"
     d="M 28.599114,66.214081 C 23.981299,65.649702 19.965215,64.420453 16.856034,62.619742 13.920354,60.919511 10.784863,57.654397 9.2526216,54.70201 7.3185241,50.975286 6.8064762,48.649766 6.7975771,43.552207 6.7836792,35.592845 7.3701964,34.242479 19.975345,13.224447 l 9.998896,-16.6723206 h 19.306476 c 0,0 -3.427177,5.8637434 -8.033281,13.6683736 -3.320213,5.625801 -6.073203,10.329546 -6.117747,10.452769 -0.04453,0.123227 1.378393,0.303956 3.162105,0.40162 6.508919,0.356386 10.744676,2.045452 14.488453,5.777477 2.688849,2.680402 4.277741,5.483728 5.339196,9.420084 0.912275,3.383129 0.909277,10.214258 -0.0058,13.603976 -1.071319,3.967748 -2.696825,6.856752 -5.351808,9.511742 -1.959463,1.959465 -2.813385,2.569468 -5.342194,3.816259 -3.221571,1.588347 -6.095434,2.436542 -9.851135,2.907472 -2.21364,0.277561 -7.080668,0.333009 -8.969339,0.102181 z m 7.592938,-15.207043 c 3.278347,-0.973567 5.009615,-3.682486 5.03994,-7.886027 0.02199,-3.047325 -0.535043,-4.715709 -2.121592,-6.354423 -1.750829,-1.808405 -3.710763,-2.405747 -7.189586,-2.191211 -4.856232,0.299474 -7.05957,2.183761 -7.77259,6.647072 -0.687627,4.30436 0.972847,8.218503 4.003494,9.437239 2.202625,0.885761 5.716183,1.037547 8.040334,0.34735 z m 58.667612,2.462687 H 64.963363 V 45.604924 L 92.408101,-2.0111696 H 110.95757 V 39.096505 h 6.03685 v 14.37322 h -6.03676 V 66.118164 H 94.859664 Z m 1.933613,-33.417737 0.06512,-2.515316 -12.560136,22.212522 11.855036,0.06595 z"
     id="path836"
     sodipodi:nodetypes="cssssccssssscsssccsssssssccccccccccccccccc" />
</svg>
