<svg id="svg" version="1.1" xmlns="http://www.w3.org/2000/svg" xmlns:xlink="http://www.w3.org/1999/xlink" width="400" height="400" viewBox="0, 0, 400,400"><g id="svgg"><path id="path0" d="M318.800 139.575 C 303.621 142.631,294.439 153.436,295.318 167.206 C 295.996 177.825,302.017 184.782,315.400 190.409 C 315.840 190.595,316.830 191.016,317.600 191.345 C 318.370 191.675,321.430 192.966,324.400 194.214 C 335.987 199.084,338.249 201.240,337.379 206.584 C 335.778 216.409,319.010 216.502,305.525 206.760 L 302.851 204.828 301.125 206.910 C 300.176 208.055,299.016 209.444,298.547 209.996 C 290.934 218.953,291.243 218.136,294.500 220.696 C 314.562 236.466,345.689 233.575,355.065 215.071 C 357.083 211.089,357.600 208.666,357.600 203.190 C 357.600 191.210,352.408 184.389,339.200 179.021 C 337.770 178.440,336.240 177.797,335.800 177.593 C 335.360 177.389,334.010 176.852,332.800 176.400 C 331.590 175.948,330.240 175.415,329.800 175.217 C 329.360 175.018,327.200 174.090,325.000 173.154 C 317.648 170.026,315.205 167.781,315.201 164.149 C 315.193 154.510,330.377 152.936,342.952 161.272 C 345.250 162.795,345.316 162.813,345.862 162.032 C 346.170 161.593,348.394 158.810,350.804 155.848 L 355.187 150.462 353.194 148.670 C 344.397 140.762,330.784 137.162,318.800 139.575 M44.179 140.912 C 44.070 141.193,44.031 144.928,44.091 149.212 L 44.200 157.000 56.300 157.106 L 68.400 157.212 68.406 192.906 C 68.409 212.538,68.557 228.828,68.734 229.107 C 68.983 229.499,71.237 229.590,78.628 229.507 L 88.200 229.400 88.302 193.306 L 88.404 157.212 100.502 157.106 L 112.600 157.000 112.708 148.700 L 112.816 140.400 78.596 140.400 C 51.168 140.400,44.336 140.502,44.179 140.912 M120.274 140.660 C 120.123 140.810,120.000 160.793,120.000 185.067 L 120.000 229.200 130.002 229.200 L 140.003 229.200 139.902 184.900 L 139.800 140.600 130.174 140.493 C 124.879 140.434,120.424 140.509,120.274 140.660 M154.400 185.003 L 154.400 229.605 182.500 229.503 L 210.600 229.400 210.708 221.100 L 210.816 212.800 192.408 212.800 L 174.000 212.800 174.000 202.405 L 174.000 192.010 189.100 191.905 L 204.200 191.800 204.308 183.705 L 204.417 175.610 189.308 175.505 L 174.200 175.400 174.092 166.300 L 173.985 157.200 191.792 157.200 L 209.600 157.200 209.600 148.800 L 209.600 140.400 182.000 140.400 L 154.400 140.400 154.400 185.003 M222.267 140.667 C 222.120 140.813,222.000 160.793,222.000 185.067 L 222.000 229.200 231.795 229.200 L 241.591 229.200 241.695 213.300 L 241.800 197.400 247.539 197.400 L 253.278 197.400 254.173 199.000 C 254.665 199.880,256.474 203.300,258.192 206.600 C 259.911 209.900,261.445 212.780,261.602 213.000 C 261.759 213.220,263.204 215.920,264.814 219.000 C 266.423 222.080,268.286 225.635,268.952 226.900 L 270.164 229.200 281.082 229.200 C 287.339 229.200,292.000 229.045,292.000 228.838 C 292.000 228.638,291.132 226.973,290.072 225.138 C 289.012 223.302,286.365 218.650,284.191 214.800 C 282.017 210.950,279.015 205.676,277.519 203.081 C 276.024 200.485,274.800 198.283,274.800 198.187 C 274.800 198.091,274.239 197.100,273.553 195.986 C 272.868 194.872,272.373 193.913,272.453 193.855 C 272.534 193.797,273.971 192.908,275.647 191.879 C 284.055 186.719,287.979 179.177,287.993 168.151 C 288.015 151.438,278.871 142.448,260.200 140.825 C 254.959 140.370,222.698 140.235,222.267 140.667 M257.200 156.371 C 265.225 157.435,268.800 161.098,268.800 168.256 C 268.800 178.055,262.709 181.829,247.400 181.515 L 241.800 181.400 241.694 169.204 C 241.636 162.496,241.675 156.781,241.781 156.504 C 242.011 155.905,252.974 155.810,257.200 156.371 M45.200 285.193 L 45.200 329.600 72.800 329.600 L 100.400 329.600 100.400 321.400 L 100.400 313.200 82.802 313.200 L 65.204 313.200 65.102 277.100 L 65.000 241.000 55.100 240.893 L 45.200 240.786 45.200 285.193 M110.400 285.200 L 110.400 329.600 120.400 329.600 L 130.400 329.600 130.400 285.833 C 130.400 261.761,130.291 241.781,130.157 241.433 C 129.945 240.880,128.686 240.800,120.157 240.800 L 110.400 240.800 110.400 285.200 M146.000 285.200 L 146.000 329.600 174.400 329.600 L 202.800 329.600 202.800 321.404 L 202.800 313.208 184.300 313.104 L 165.800 313.000 165.800 302.800 L 165.800 292.600 180.900 292.495 L 196.000 292.390 196.000 284.195 L 196.000 276.000 181.433 276.000 C 173.421 276.000,166.581 275.891,166.233 275.757 C 165.682 275.546,165.600 274.356,165.600 266.557 L 165.600 257.600 183.600 257.600 L 201.600 257.600 201.600 249.200 L 201.600 240.800 173.800 240.800 L 146.000 240.800 146.000 285.200 M215.067 241.067 C 214.448 241.686,214.776 294.282,215.431 299.332 C 218.363 321.946,229.745 331.727,252.400 331.100 C 269.302 330.632,278.978 323.126,283.206 307.200 C 285.037 300.304,285.200 297.111,285.200 268.130 L 285.200 240.800 275.822 240.800 L 266.444 240.800 266.306 269.300 C 266.154 300.748,266.118 301.242,263.551 306.677 C 258.897 316.531,243.285 317.195,237.764 307.775 C 235.024 303.099,235.074 303.752,234.910 270.700 L 234.762 240.800 225.048 240.800 C 219.705 240.800,215.213 240.920,215.067 241.067 M292.000 240.934 C 292.000 241.084,292.584 242.201,295.592 247.800 C 299.304 254.710,300.158 256.301,301.607 259.000 C 302.434 260.540,303.874 263.240,304.808 265.000 C 305.742 266.760,306.997 269.100,307.598 270.200 C 308.198 271.300,309.548 273.820,310.598 275.800 C 311.648 277.780,313.023 280.322,313.654 281.449 C 314.284 282.575,314.800 283.735,314.800 284.026 C 314.800 284.443,305.884 301.267,298.385 315.000 C 297.056 317.433,295.543 320.246,293.004 325.000 C 291.946 326.980,290.906 328.825,290.692 329.100 C 290.382 329.497,292.510 329.599,301.051 329.593 L 311.800 329.586 312.779 327.293 C 313.317 326.032,314.544 323.290,315.505 321.200 C 316.466 319.110,317.584 316.680,317.988 315.800 C 319.983 311.464,321.200 308.729,321.200 308.584 C 321.200 308.496,321.663 307.383,322.230 306.112 C 322.796 304.840,323.498 303.260,323.789 302.600 C 324.080 301.940,324.649 300.455,325.053 299.300 C 326.236 295.920,326.426 296.138,330.886 306.000 C 331.855 308.143,336.265 317.383,339.716 324.500 L 342.188 329.600 353.094 329.600 C 359.092 329.600,364.000 329.500,364.000 329.378 C 364.000 329.256,363.481 328.221,362.846 327.078 C 362.211 325.935,361.019 323.740,360.196 322.200 C 359.372 320.660,358.566 319.220,358.404 319.000 C 358.242 318.780,357.295 317.067,356.300 315.194 C 354.340 311.507,353.695 310.332,349.541 302.885 C 348.034 300.182,346.800 297.916,346.800 297.850 C 346.800 297.784,345.367 295.163,343.615 292.027 C 341.863 288.890,340.322 285.985,340.191 285.571 C 340.034 285.077,341.079 282.648,343.229 278.509 C 345.032 275.039,347.676 269.950,349.104 267.200 C 350.533 264.450,352.645 260.400,353.799 258.200 C 354.952 256.000,357.292 251.500,358.998 248.200 C 360.705 244.900,362.258 242.029,362.450 241.820 C 363.304 240.893,362.213 240.793,352.343 240.893 C 343.535 240.983,341.836 241.095,341.562 241.600 C 341.384 241.930,340.974 242.830,340.652 243.600 C 338.975 247.603,333.916 259.507,333.597 260.200 C 332.937 261.631,330.528 267.747,329.775 269.900 C 328.710 272.950,328.378 272.799,326.458 268.400 C 323.886 262.505,316.712 246.877,314.890 243.200 L 313.800 241.000 302.900 240.894 C 296.905 240.835,292.000 240.853,292.000 240.934 " stroke="none" fill="#fafafb" fill-rule="evenodd"></path><path id="path1" d="M101.230 31.364 C 100.972 31.675,100.657 32.570,100.530 33.353 C 100.397 34.173,100.023 34.861,99.649 34.974 C 94.831 36.426,77.875 36.845,73.200 35.628 C 65.292 33.568,63.120 33.617,62.375 35.875 C 61.581 38.282,62.197 39.873,65.030 42.735 C 66.532 44.252,67.786 45.923,68.051 46.764 C 68.698 48.814,68.966 68.646,68.393 72.044 L 67.942 74.715 65.871 74.957 C 59.904 75.654,48.584 76.440,42.400 76.587 C 38.550 76.678,35.279 76.763,35.131 76.776 C 34.439 76.838,33.946 79.625,34.389 80.968 C 35.221 83.488,39.538 83.946,56.200 83.284 C 67.897 82.819,66.967 82.528,66.676 86.564 C 66.073 94.931,60.401 110.709,55.295 118.224 C 50.585 125.157,53.032 130.573,59.724 128.029 C 61.947 127.184,67.576 115.347,70.772 104.800 C 72.338 99.630,73.798 94.980,74.017 94.466 C 74.235 93.952,74.783 91.260,75.234 88.483 C 75.686 85.706,76.143 83.292,76.251 83.117 C 76.564 82.611,83.771 82.773,89.000 83.404 C 101.688 84.935,106.400 83.806,106.400 79.235 C 106.400 75.506,103.556 74.800,88.546 74.800 L 76.945 74.800 76.972 59.800 L 77.000 44.799 78.200 44.610 C 78.860 44.507,83.000 44.145,87.400 43.808 C 107.700 42.250,107.715 42.247,109.566 39.647 C 112.218 35.924,104.122 27.880,101.230 31.364 M341.731 76.018 C 335.776 77.195,331.697 82.107,328.957 91.400 C 328.568 92.720,327.810 94.474,327.273 95.298 C 326.735 96.123,325.713 98.263,325.002 100.054 C 323.048 104.973,319.508 108.099,311.031 112.392 C 298.182 118.898,281.411 122.248,278.127 118.963 C 276.870 117.706,276.796 112.979,277.991 110.344 C 278.426 109.385,278.786 107.786,278.791 106.791 C 278.804 104.235,280.675 101.468,287.304 94.204 L 289.491 91.808 291.121 93.281 C 295.264 97.024,300.357 95.114,299.893 89.992 C 299.284 83.276,293.287 78.151,289.079 80.751 C 288.324 81.218,287.097 81.601,286.353 81.603 C 279.886 81.619,269.887 95.853,268.025 107.694 C 267.359 111.929,258.211 117.880,250.615 119.019 L 248.704 119.305 248.907 113.953 C 249.079 109.419,249.399 107.376,250.995 100.600 C 253.845 88.505,253.800 85.853,250.695 82.927 C 246.648 79.115,241.238 80.161,234.989 85.965 C 230.725 89.925,230.800 89.924,230.800 86.016 C 230.800 81.573,228.369 79.564,224.424 80.746 C 222.698 81.263,222.658 81.341,222.022 85.400 C 220.302 96.397,219.997 98.675,219.976 100.709 C 219.962 101.969,219.635 104.614,219.249 106.588 L 218.547 110.175 209.373 114.461 C 200.636 118.544,200.072 118.749,197.500 118.774 L 194.800 118.800 194.800 115.793 C 194.800 113.542,195.272 110.903,196.677 105.293 C 201.752 85.041,196.875 76.150,182.574 79.579 C 169.722 82.661,158.833 94.132,156.986 106.537 C 156.450 110.143,150.107 114.385,138.518 118.890 C 135.304 120.140,135.029 119.862,135.349 115.690 C 135.604 112.356,135.909 110.447,137.407 102.800 C 139.909 90.020,138.879 88.336,125.890 83.980 C 123.201 83.078,120.856 82.083,120.680 81.770 C 120.211 80.934,117.867 81.075,116.679 82.010 C 114.744 83.531,113.462 86.889,113.500 90.340 C 113.531 93.234,113.310 94.349,111.347 101.200 C 110.309 104.822,108.399 107.953,105.514 110.763 C 102.569 113.631,102.270 114.558,103.323 117.563 C 105.579 124.003,113.667 116.883,117.366 105.200 C 119.148 99.570,121.041 95.601,121.944 95.598 C 122.305 95.596,124.550 96.536,126.933 97.685 C 132.076 100.166,131.943 99.323,128.538 107.800 C 122.035 123.990,128.782 132.402,143.000 125.830 C 148.533 123.273,150.243 122.422,153.326 120.695 C 157.456 118.381,157.277 118.307,157.581 122.444 C 158.284 132.020,169.338 130.938,183.336 119.923 C 185.767 118.010,185.839 118.018,186.138 120.201 C 187.393 129.359,198.106 130.130,213.074 122.141 C 216.783 120.162,216.953 120.227,216.365 123.407 C 215.608 127.499,216.690 128.879,220.716 128.956 C 225.101 129.040,225.906 128.223,226.588 123.000 C 228.481 108.502,234.616 95.271,241.349 91.166 C 243.455 89.882,243.671 90.743,242.617 96.200 C 242.319 97.740,241.797 100.440,241.457 102.200 C 241.117 103.960,240.381 107.560,239.822 110.200 C 237.966 118.970,238.604 124.420,241.788 126.997 C 245.495 129.996,256.785 127.322,267.086 121.005 L 268.772 119.971 269.750 121.886 C 272.263 126.803,276.606 128.955,284.000 128.946 C 288.579 128.940,292.142 128.086,299.600 125.210 C 302.578 124.061,303.722 123.631,310.051 121.283 C 315.503 119.261,319.245 117.539,322.077 115.751 C 324.043 114.510,324.000 114.488,324.000 116.749 C 324.000 127.482,337.685 131.983,353.906 126.585 C 365.434 122.748,371.600 117.357,371.600 111.114 C 371.600 105.861,367.389 105.747,363.281 110.887 C 358.509 116.861,353.255 119.519,344.600 120.339 C 336.319 121.123,333.200 119.756,333.200 115.341 C 333.200 113.956,333.521 113.539,337.453 109.821 C 346.673 101.103,349.138 96.132,349.465 85.600 C 349.741 76.707,348.158 74.747,341.731 76.018 M340.796 89.900 C 340.769 91.752,337.462 98.209,336.761 97.776 C 336.455 97.587,337.257 94.616,338.018 93.122 C 339.279 90.648,340.811 88.871,340.796 89.900 M187.715 91.504 C 188.506 92.220,188.402 96.477,187.539 98.758 C 187.339 99.285,186.987 101.085,186.755 102.758 C 186.394 105.373,186.107 106.096,184.713 107.908 C 179.798 114.294,166.400 122.592,166.400 119.249 C 166.400 117.747,168.239 109.048,168.764 108.066 C 169.004 107.619,169.200 106.651,169.200 105.915 C 169.200 104.063,169.697 103.425,176.555 96.470 L 182.600 90.339 184.783 90.583 C 185.984 90.717,187.303 91.131,187.715 91.504 M205.400 359.872 C 201.365 360.130,180.670 361.732,173.000 362.381 C 170.360 362.605,166.972 362.790,165.471 362.794 C 160.240 362.806,155.863 367.014,159.216 368.809 C 161.622 370.096,176.265 369.999,191.200 368.597 C 203.968 367.399,212.486 366.516,223.988 365.200 C 227.831 364.760,231.192 364.400,231.457 364.400 C 232.012 364.400,234.400 362.477,234.400 362.030 C 234.400 360.355,217.511 359.098,205.400 359.872 M388.160 396.159 C 387.321 398.347,387.836 398.592,393.525 398.712 L 398.850 398.824 398.725 397.312 L 398.600 395.800 393.492 395.688 C 389.314 395.596,388.343 395.682,388.160 396.159 M391.900 396.795 C 392.615 396.798,393.200 396.980,393.200 397.200 C 393.200 397.422,392.133 397.600,390.800 397.600 C 389.480 397.600,388.400 397.450,388.400 397.267 C 388.400 396.642,388.978 396.353,389.790 396.571 C 390.235 396.691,391.185 396.792,391.900 396.795 M397.200 397.200 C 397.657 397.495,397.495 397.589,396.524 397.594 C 395.822 397.597,395.136 397.420,395.000 397.200 C 394.683 396.687,396.407 396.687,397.200 397.200 " stroke="none" fill="#f8045b" fill-rule="evenodd"></path><path id="path2" d="M0.000 200.000 L 0.000 400.000 200.000 400.000 L 400.000 400.000 400.000 200.000 L 400.000 0.000 200.000 0.000 L 0.000 0.000 0.000 200.000 M107.847 33.403 C 110.709 36.322,111.050 37.563,109.566 39.647 C 107.715 42.247,107.700 42.250,87.400 43.808 C 83.000 44.145,78.860 44.507,78.200 44.610 L 77.000 44.799 76.972 59.800 L 76.945 74.800 88.546 74.800 C 103.556 74.800,106.400 75.506,106.400 79.235 C 106.400 83.806,101.688 84.935,89.000 83.404 C 83.771 82.773,76.564 82.611,76.251 83.117 C 76.143 83.292,75.686 85.706,75.234 88.483 C 74.783 91.260,74.235 93.952,74.017 94.466 C 73.798 94.980,72.338 99.630,70.772 104.800 C 67.576 115.347,61.947 127.184,59.724 128.029 C 53.032 130.573,50.585 125.157,55.295 118.224 C 60.401 110.709,66.073 94.931,66.676 86.564 C 66.967 82.528,67.897 82.819,56.200 83.284 C 39.538 83.946,35.221 83.488,34.389 80.968 C 33.946 79.625,34.439 76.838,35.131 76.776 C 35.279 76.763,38.550 76.678,42.400 76.587 C 48.584 76.440,59.904 75.654,65.871 74.957 L 67.942 74.715 68.393 72.044 C 68.966 68.646,68.698 48.814,68.051 46.764 C 67.786 45.923,66.532 44.252,65.030 42.735 C 62.197 39.873,61.581 38.282,62.375 35.875 C 63.120 33.617,65.292 33.568,73.200 35.628 C 77.875 36.845,94.831 36.426,99.649 34.974 C 100.023 34.861,100.397 34.173,100.530 33.353 C 101.133 29.637,104.175 29.658,107.847 33.403 M346.792 76.113 C 349.123 77.293,349.663 79.209,349.465 85.600 C 349.138 96.132,346.673 101.103,337.453 109.821 C 333.521 113.539,333.200 113.956,333.200 115.341 C 333.200 119.756,336.319 121.123,344.600 120.339 C 353.255 119.519,358.509 116.861,363.281 110.887 C 367.389 105.747,371.600 105.861,371.600 111.114 C 371.600 117.357,365.434 122.748,353.906 126.585 C 337.685 131.983,324.000 127.482,324.000 116.749 C 324.000 114.488,324.043 114.510,322.077 115.751 C 319.245 117.539,315.503 119.261,310.051 121.283 C 303.722 123.631,302.578 124.061,299.600 125.210 C 292.142 128.086,288.579 128.940,284.000 128.946 C 276.606 128.955,272.263 126.803,269.750 121.886 L 268.772 119.971 267.086 121.005 C 256.785 127.322,245.495 129.996,241.788 126.997 C 238.604 124.420,237.966 118.970,239.822 110.200 C 240.381 107.560,241.117 103.960,241.457 102.200 C 241.797 100.440,242.319 97.740,242.617 96.200 C 243.671 90.743,243.455 89.882,241.349 91.166 C 234.616 95.271,228.481 108.502,226.588 123.000 C 225.906 128.223,225.101 129.040,220.716 128.956 C 216.690 128.879,215.608 127.499,216.365 123.407 C 216.953 120.227,216.783 120.162,213.074 122.141 C 198.106 130.130,187.393 129.359,186.138 120.201 C 185.839 118.018,185.767 118.010,183.336 119.923 C 169.338 130.938,158.284 132.020,157.581 122.444 C 157.277 118.307,157.456 118.381,153.326 120.695 C 150.243 122.422,148.533 123.273,143.000 125.830 C 128.782 132.402,122.035 123.990,128.538 107.800 C 131.943 99.323,132.076 100.166,126.933 97.685 C 124.550 96.536,122.305 95.596,121.944 95.598 C 121.041 95.601,119.148 99.570,117.366 105.200 C 114.438 114.447,107.932 121.988,104.852 119.705 C 101.861 117.488,102.113 114.075,105.514 110.763 C 108.399 107.953,110.309 104.822,111.347 101.200 C 113.310 94.349,113.531 93.234,113.500 90.340 C 113.462 86.889,114.744 83.531,116.679 82.010 C 117.867 81.075,120.211 80.934,120.680 81.770 C 120.856 82.083,123.201 83.078,125.890 83.980 C 138.879 88.336,139.909 90.020,137.407 102.800 C 134.241 118.964,134.348 120.511,138.518 118.890 C 150.107 114.385,156.450 110.143,156.986 106.537 C 158.833 94.132,169.722 82.661,182.574 79.579 C 196.875 76.150,201.752 85.041,196.677 105.293 C 195.272 110.903,194.800 113.542,194.800 115.793 L 194.800 118.800 197.500 118.774 C 200.072 118.749,200.636 118.544,209.373 114.461 L 218.547 110.175 219.249 106.588 C 219.635 104.614,219.962 101.969,219.976 100.709 C 219.997 98.675,220.302 96.397,222.022 85.400 C 222.658 81.341,222.698 81.263,224.424 80.746 C 228.369 79.564,230.800 81.573,230.800 86.016 C 230.800 89.924,230.725 89.925,234.989 85.965 C 241.238 80.161,246.648 79.115,250.695 82.927 C 253.800 85.853,253.845 88.505,250.995 100.600 C 249.399 107.376,249.079 109.419,248.907 113.953 L 248.704 119.305 250.615 119.019 C 258.211 117.880,267.359 111.929,268.025 107.694 C 269.887 95.853,279.886 81.619,286.353 81.603 C 287.097 81.601,288.324 81.218,289.079 80.751 C 293.287 78.151,299.284 83.276,299.893 89.992 C 300.357 95.114,295.264 97.024,291.121 93.281 L 289.491 91.808 287.304 94.204 C 280.675 101.468,278.804 104.235,278.791 106.791 C 278.786 107.786,278.426 109.385,277.991 110.344 C 276.796 112.979,276.870 117.706,278.127 118.963 C 281.411 122.248,298.182 118.898,311.031 112.392 C 319.508 108.099,323.048 104.973,325.002 100.054 C 325.713 98.263,326.735 96.123,327.273 95.298 C 327.810 94.474,328.568 92.720,328.957 91.400 C 331.253 83.613,334.129 79.383,338.731 77.029 C 341.262 75.734,345.165 75.290,346.792 76.113 M339.344 90.903 C 337.676 93.430,336.179 97.416,336.761 97.776 C 337.462 98.209,340.769 91.752,340.796 89.900 C 340.805 89.228,340.150 89.681,339.344 90.903 M176.555 96.470 C 169.697 103.425,169.200 104.063,169.200 105.915 C 169.200 106.651,169.004 107.619,168.764 108.066 C 168.239 109.048,166.400 117.747,166.400 119.249 C 166.400 122.592,179.798 114.294,184.713 107.908 C 186.107 106.096,186.394 105.373,186.755 102.758 C 186.987 101.085,187.339 99.285,187.539 98.758 C 189.367 93.930,188.373 90.984,184.783 90.583 L 182.600 90.339 176.555 96.470 M332.410 138.825 C 340.197 139.801,347.995 143.336,353.800 148.521 C 355.664 150.186,355.758 150.358,355.180 151.054 C 354.839 151.464,352.511 154.365,350.005 157.500 C 344.770 164.052,345.490 163.661,342.518 161.568 C 331.075 153.513,315.865 154.819,315.814 163.862 C 315.789 168.209,317.522 169.575,329.400 174.575 C 330.060 174.853,331.230 175.315,332.000 175.602 C 334.023 176.356,340.696 179.117,342.800 180.070 C 347.861 182.363,353.460 187.245,355.570 191.204 C 359.794 199.130,358.902 211.780,353.645 218.495 C 343.330 231.671,323.693 235.228,304.849 227.334 C 298.099 224.506,289.695 218.336,291.500 217.533 C 291.665 217.460,293.508 215.330,295.596 212.800 C 297.684 210.270,299.622 207.959,299.902 207.665 C 300.183 207.371,300.881 206.516,301.454 205.765 C 302.770 204.039,302.659 204.023,305.805 206.404 C 318.367 215.912,335.210 215.882,336.998 206.350 C 337.866 201.726,335.120 199.107,325.060 194.963 C 322.696 193.990,320.700 193.143,319.000 192.393 C 318.560 192.199,316.450 191.309,314.310 190.416 C 300.672 184.720,295.000 177.373,295.000 165.400 C 295.000 147.626,311.142 136.159,332.410 138.825 M113.108 148.700 L 113.000 157.400 100.902 157.506 L 88.804 157.612 88.702 193.706 L 88.600 229.800 78.400 229.800 L 68.200 229.800 68.098 193.700 L 67.996 157.600 56.431 157.600 C 50.070 157.600,44.581 157.491,44.233 157.357 C 43.683 157.146,43.600 155.991,43.600 148.557 L 43.600 140.000 78.408 140.000 L 113.216 140.000 113.108 148.700 M140.000 185.007 L 140.000 230.014 129.900 229.907 L 119.800 229.800 119.697 185.400 C 119.640 160.980,119.680 140.775,119.784 140.500 C 119.930 140.118,122.346 140.000,129.987 140.000 L 140.000 140.000 140.000 185.007 M209.908 148.700 L 209.800 157.400 192.100 157.504 L 174.400 157.608 174.400 166.199 L 174.400 174.790 189.500 174.895 L 204.600 175.000 204.708 183.371 C 204.792 189.801,204.699 191.817,204.308 192.065 C 204.029 192.243,197.185 192.391,189.100 192.394 L 174.400 192.400 174.400 202.396 L 174.400 212.392 192.900 212.496 L 211.400 212.600 211.508 220.971 C 211.592 227.401,211.499 229.417,211.108 229.665 C 210.524 230.036,155.192 230.125,154.233 229.757 C 153.572 229.504,153.210 140.923,153.867 140.267 C 154.013 140.120,166.707 140.000,182.074 140.000 L 210.016 140.000 209.908 148.700 M266.600 141.160 C 279.622 144.303,286.164 150.724,288.167 162.330 C 290.369 175.092,285.501 186.920,275.800 192.380 C 274.480 193.123,273.318 193.798,273.218 193.881 C 272.995 194.065,273.806 195.628,277.222 201.600 C 280.932 208.087,285.369 215.914,286.405 217.800 C 286.888 218.680,288.543 221.593,290.082 224.274 C 291.621 226.954,292.761 229.339,292.616 229.574 C 292.440 229.859,288.722 230.000,281.404 230.000 L 270.454 230.000 269.695 228.900 C 268.990 227.879,267.891 225.860,263.050 216.700 C 262.032 214.775,260.413 211.715,259.451 209.900 C 258.490 208.085,256.754 204.800,255.594 202.600 C 254.434 200.400,253.309 198.375,253.093 198.100 C 252.816 197.746,251.196 197.600,247.551 197.600 L 242.400 197.600 242.400 213.592 L 242.400 229.585 241.500 229.805 C 241.005 229.926,236.370 229.975,231.200 229.913 L 221.800 229.800 221.698 184.866 L 221.597 139.932 242.298 140.112 C 261.829 140.282,263.204 140.341,266.600 141.160 M242.400 168.966 L 242.400 181.200 248.300 181.186 C 262.939 181.151,268.159 177.743,268.188 168.200 C 268.215 159.267,265.038 157.166,251.100 156.899 L 242.400 156.732 242.400 168.966 M65.298 276.500 L 65.400 312.600 83.000 312.800 L 100.600 313.000 100.600 321.600 L 100.600 330.200 72.800 330.200 L 45.000 330.200 44.897 285.800 C 44.840 261.380,44.880 241.175,44.984 240.900 C 45.130 240.518,47.545 240.400,55.185 240.400 L 65.196 240.400 65.298 276.500 M130.710 284.600 C 130.770 308.800,130.721 329.008,130.600 329.507 L 130.381 330.414 120.291 330.307 L 110.200 330.200 110.097 285.800 C 110.040 261.380,110.081 241.172,110.187 240.893 C 110.337 240.498,112.618 240.410,120.490 240.493 L 130.600 240.600 130.710 284.600 M201.800 249.200 L 201.800 257.800 184.100 257.904 L 166.400 258.008 166.400 266.604 L 166.400 275.200 181.151 275.200 C 193.194 275.200,195.986 275.301,196.359 275.751 C 196.678 276.135,196.784 278.778,196.708 284.451 L 196.600 292.600 181.500 292.705 L 166.400 292.810 166.400 302.805 L 166.400 312.800 184.808 312.800 L 203.216 312.800 203.108 321.500 L 203.000 330.200 174.400 330.200 L 145.800 330.200 145.698 285.297 L 145.597 240.395 173.698 240.497 L 201.800 240.600 201.800 249.200 M235.229 270.200 C 235.355 286.480,235.590 300.250,235.751 300.800 C 237.046 305.218,237.533 306.452,238.691 308.249 C 244.020 316.525,258.493 315.693,262.973 306.853 C 265.402 302.060,265.342 302.900,265.581 270.400 L 265.800 240.600 275.572 240.493 C 283.123 240.410,285.417 240.501,285.666 240.893 C 286.267 241.840,286.049 288.738,285.409 295.950 C 283.208 320.784,272.418 331.750,250.200 331.736 C 228.531 331.722,216.795 320.403,214.808 297.600 C 214.587 295.070,214.405 281.162,214.403 266.693 L 214.400 240.386 224.700 240.493 L 235.000 240.600 235.229 270.200 M314.893 241.905 C 315.274 242.727,316.411 245.200,317.419 247.400 C 320.536 254.200,320.674 254.501,322.387 258.200 C 323.305 260.180,324.210 262.160,324.399 262.600 C 324.588 263.040,325.364 264.764,326.123 266.432 C 326.882 268.100,327.627 269.855,327.778 270.332 C 328.237 271.777,328.679 271.336,329.817 268.300 C 330.414 266.705,331.135 264.860,331.418 264.200 C 333.157 260.149,338.136 248.436,338.474 247.600 C 338.697 247.050,339.456 245.250,340.161 243.600 L 341.444 240.600 352.322 240.494 C 359.950 240.419,363.200 240.517,363.200 240.822 C 363.200 241.061,362.323 242.909,361.251 244.928 C 360.180 246.948,358.087 250.940,356.601 253.800 C 350.320 265.888,348.553 269.281,345.872 274.400 C 344.317 277.370,342.431 281.006,341.682 282.481 L 340.319 285.161 341.525 287.281 C 342.188 288.446,343.166 290.210,343.699 291.200 C 344.232 292.190,346.251 295.880,348.184 299.400 C 350.117 302.920,352.237 306.790,352.894 308.000 C 353.551 309.210,355.131 312.090,356.404 314.400 C 357.677 316.710,359.158 319.410,359.695 320.400 C 360.232 321.390,361.598 323.887,362.730 325.948 C 363.861 328.010,364.690 329.855,364.570 330.048 C 364.202 330.643,342.574 330.492,342.076 329.891 C 341.459 329.149,334.258 314.522,331.593 308.600 C 331.098 307.500,330.113 305.340,329.403 303.800 C 328.693 302.260,327.782 300.235,327.379 299.300 C 326.482 297.219,326.302 297.198,325.634 299.100 C 325.345 299.925,324.873 301.140,324.587 301.800 C 324.300 302.460,322.987 305.520,321.668 308.600 C 320.350 311.680,318.691 315.460,317.982 317.000 C 314.282 325.034,312.743 328.295,312.224 329.200 L 311.651 330.200 301.152 330.307 C 295.183 330.368,290.496 330.256,290.288 330.048 C 290.067 329.827,293.161 323.690,298.105 314.541 C 302.605 306.213,307.158 297.780,308.223 295.800 C 309.287 293.820,310.847 290.940,311.690 289.400 C 312.532 287.860,313.514 286.029,313.870 285.331 L 314.518 284.063 310.799 277.131 C 308.753 273.319,306.477 269.075,305.740 267.700 C 305.003 266.325,303.797 264.075,303.059 262.700 C 302.322 261.325,300.859 258.580,299.809 256.600 C 298.758 254.620,297.584 252.460,297.200 251.800 C 295.540 248.947,291.600 241.232,291.600 240.835 C 291.600 240.532,295.029 240.401,302.900 240.405 L 314.200 240.409 314.893 241.905 M225.653 359.996 C 229.601 360.380,234.400 361.496,234.400 362.030 C 234.400 362.477,232.012 364.400,231.457 364.400 C 231.192 364.400,227.831 364.760,223.988 365.200 C 178.194 370.440,159.318 371.123,158.194 367.581 C 157.489 365.359,161.375 362.803,165.471 362.794 C 166.972 362.790,170.360 362.605,173.000 362.381 C 180.670 361.732,201.365 360.130,205.400 359.872 C 210.047 359.575,222.088 359.649,225.653 359.996 M398.724 397.300 L 398.848 398.800 393.424 398.800 L 388.000 398.800 388.000 397.467 C 388.000 395.574,388.026 395.566,393.578 395.689 L 398.600 395.800 398.724 397.300 " stroke="none" fill="#4424cb" fill-rule="evenodd"></path><path id="path3" d="M44.262 140.300 C 44.094 140.572,68.520 140.569,100.400 140.293 C 107.110 140.235,97.266 140.146,78.524 140.094 C 59.782 140.042,44.364 140.135,44.262 140.300 M120.262 140.300 C 120.160 140.465,124.542 140.600,130.000 140.600 C 135.458 140.600,139.840 140.465,139.738 140.300 C 139.636 140.135,135.254 140.000,130.000 140.000 C 124.746 140.000,120.364 140.135,120.262 140.300 M154.184 140.500 C 154.080 140.775,154.041 160.980,154.099 185.400 L 154.204 229.800 154.302 185.103 L 154.400 140.405 182.100 140.300 L 209.800 140.194 182.087 140.097 C 160.214 140.020,154.335 140.105,154.184 140.500 M222.047 140.543 C 221.718 140.940,221.624 152.945,221.698 185.243 L 221.800 229.400 231.891 229.507 L 241.982 229.614 242.091 213.445 C 242.151 204.552,242.065 197.360,241.900 197.462 C 241.735 197.564,241.600 204.747,241.600 213.424 L 241.600 229.200 231.798 229.200 L 221.997 229.200 222.098 184.900 L 222.200 140.600 239.000 140.393 L 255.800 140.187 239.149 140.093 C 225.525 140.017,222.416 140.099,222.047 140.543 M112.715 148.800 C 112.652 153.421,112.735 157.201,112.900 157.200 C 113.065 157.200,113.200 153.420,113.200 148.800 C 113.200 144.180,113.117 140.400,113.015 140.400 C 112.914 140.400,112.779 144.180,112.715 148.800 M258.307 140.690 C 259.026 140.779,260.106 140.777,260.707 140.686 C 261.308 140.595,260.720 140.522,259.400 140.524 C 258.080 140.526,257.588 140.601,258.307 140.690 M209.769 148.800 C 209.769 153.310,209.827 155.155,209.898 152.900 C 209.970 150.645,209.970 146.955,209.898 144.700 C 209.827 142.445,209.769 144.290,209.769 148.800 M310.800 141.800 C 310.250 142.114,309.980 142.372,310.200 142.372 C 310.420 142.372,311.050 142.114,311.600 141.800 C 312.150 141.486,312.420 141.228,312.200 141.228 C 311.980 141.228,311.350 141.486,310.800 141.800 M280.783 148.500 C 281.764 149.545,282.619 150.400,282.683 150.400 C 282.984 150.400,282.666 150.041,280.900 148.383 L 279.000 146.600 280.783 148.500 M353.600 149.000 C 354.346 149.770,355.047 150.400,355.157 150.400 C 355.267 150.400,354.746 149.770,354.000 149.000 C 353.254 148.230,352.553 147.600,352.443 147.600 C 352.333 147.600,352.854 148.230,353.600 149.000 M349.755 157.081 C 348.907 158.116,348.422 158.834,348.677 158.676 C 349.221 158.340,351.755 155.200,351.482 155.200 C 351.380 155.200,350.603 156.047,349.755 157.081 M241.781 156.504 C 241.675 156.781,241.636 162.496,241.694 169.204 L 241.800 181.400 248.200 181.415 L 254.600 181.430 248.300 181.305 L 242.000 181.180 242.000 168.800 L 242.000 156.419 248.900 156.299 L 255.800 156.180 248.887 156.090 C 243.629 156.022,241.929 156.121,241.781 156.504 M257.233 156.547 C 257.325 156.628,258.120 156.804,259.000 156.938 C 260.115 157.107,260.358 157.071,259.800 156.819 C 259.032 156.471,256.890 156.244,257.233 156.547 M287.268 159.800 C 287.262 160.240,287.411 160.960,287.600 161.400 C 288.038 162.419,288.038 161.368,287.600 160.000 C 287.343 159.196,287.277 159.157,287.268 159.800 M315.320 164.000 C 315.320 165.210,315.395 165.705,315.487 165.100 C 315.578 164.495,315.578 163.505,315.487 162.900 C 315.395 162.295,315.320 162.790,315.320 164.000 M294.937 165.400 C 294.939 167.160,295.009 167.830,295.093 166.889 C 295.178 165.949,295.177 164.509,295.091 163.689 C 295.005 162.870,294.936 163.640,294.937 165.400 M288.148 168.000 C 288.148 170.310,288.214 171.255,288.295 170.100 C 288.376 168.945,288.376 167.055,288.295 165.900 C 288.214 164.745,288.148 165.690,288.148 168.000 M268.542 168.200 C 268.541 170.180,268.608 171.040,268.692 170.112 C 268.776 169.184,268.777 167.564,268.695 166.512 C 268.612 165.460,268.543 166.220,268.542 168.200 M174.345 175.305 C 174.513 175.473,181.389 175.563,189.625 175.505 L 204.600 175.399 189.320 175.200 C 180.916 175.090,174.177 175.137,174.345 175.305 M301.800 182.400 C 302.659 183.280,303.452 184.000,303.562 184.000 C 303.672 184.000,303.059 183.280,302.200 182.400 C 301.341 181.520,300.548 180.800,300.438 180.800 C 300.328 180.800,300.941 181.520,301.800 182.400 M280.386 188.300 L 278.200 190.600 280.500 188.414 C 281.765 187.211,282.800 186.176,282.800 186.114 C 282.800 185.817,282.418 186.163,280.386 188.300 M335.247 200.182 C 335.823 200.852,336.493 201.760,336.735 202.200 C 336.977 202.640,337.181 202.768,337.188 202.485 C 337.195 202.201,336.525 201.293,335.700 200.467 C 334.865 199.630,334.664 199.504,335.247 200.182 M357.748 203.200 C 357.748 205.510,357.814 206.455,357.895 205.300 C 357.976 204.145,357.976 202.255,357.895 201.100 C 357.814 199.945,357.748 200.890,357.748 203.200 M255.000 201.200 C 255.341 201.860,255.711 202.400,255.821 202.400 C 255.931 202.400,255.741 201.860,255.400 201.200 C 255.059 200.540,254.689 200.000,254.579 200.000 C 254.469 200.000,254.659 200.540,255.000 201.200 M337.293 205.200 C 337.293 205.970,337.375 206.285,337.476 205.900 C 337.576 205.515,337.576 204.885,337.476 204.500 C 337.375 204.115,337.293 204.430,337.293 205.200 M300.001 207.798 C 299.486 208.348,299.139 208.864,299.232 208.946 C 299.324 209.028,299.819 208.578,300.330 207.947 C 301.476 206.535,301.274 206.444,300.001 207.798 M192.415 212.698 L 210.831 212.808 210.715 221.204 C 210.652 225.822,210.739 229.601,210.908 229.600 C 211.077 229.600,211.167 225.775,211.108 221.100 L 211.000 212.600 192.500 212.594 L 174.000 212.588 192.415 212.698 M323.312 213.895 C 324.364 213.977,325.984 213.976,326.912 213.892 C 327.840 213.808,326.980 213.741,325.000 213.742 C 323.020 213.743,322.260 213.812,323.312 213.895 M292.262 217.131 C 291.382 218.103,291.426 218.529,292.500 219.438 C 293.399 220.199,293.399 220.199,292.700 219.369 C 291.833 218.339,291.828 218.053,292.662 217.131 C 293.026 216.729,293.234 216.400,293.124 216.400 C 293.014 216.400,292.626 216.729,292.262 217.131 M351.983 219.700 C 351.240 220.635,350.948 221.146,351.335 220.836 C 352.063 220.251,353.777 218.000,353.494 218.000 C 353.406 218.000,352.726 218.765,351.983 219.700 M292.000 228.794 C 292.000 229.039,287.905 229.230,281.100 229.300 L 270.200 229.413 281.300 229.507 C 290.941 229.588,292.400 229.521,292.400 229.000 C 292.400 228.670,292.310 228.400,292.200 228.400 C 292.090 228.400,292.000 228.577,292.000 228.794 M124.900 229.499 C 127.705 229.568,132.295 229.568,135.100 229.499 C 137.905 229.430,135.610 229.374,130.000 229.374 C 124.390 229.374,122.095 229.430,124.900 229.499 M322.300 231.095 C 323.455 231.176,325.345 231.176,326.500 231.095 C 327.655 231.014,326.710 230.948,324.400 230.948 C 322.090 230.948,321.145 231.014,322.300 231.095 M214.584 241.300 C 214.479 241.575,214.439 253.050,214.496 266.800 L 214.600 291.800 214.800 266.300 C 214.910 252.275,214.949 240.800,214.887 240.800 C 214.826 240.800,214.689 241.025,214.584 241.300 M266.189 267.800 C 266.189 282.760,266.239 288.822,266.300 281.271 C 266.361 273.720,266.361 261.480,266.300 254.071 C 266.239 246.662,266.189 252.840,266.189 267.800 M285.389 267.200 C 285.389 281.830,285.439 287.815,285.500 280.500 C 285.561 273.185,285.561 261.215,285.500 253.900 C 285.439 246.585,285.389 252.570,285.389 267.200 M145.797 285.600 L 145.800 329.800 174.400 329.800 L 203.000 329.800 203.012 321.500 L 203.025 313.199 202.904 321.400 L 202.784 329.600 174.394 329.600 L 146.003 329.600 145.899 285.500 L 145.795 241.400 145.797 285.600 M165.600 266.557 C 165.600 274.356,165.682 275.546,166.233 275.757 C 166.581 275.891,173.417 276.000,181.425 276.000 L 195.984 276.000 196.100 284.300 L 196.217 292.600 196.309 284.105 L 196.400 275.610 181.300 275.505 L 166.200 275.400 166.200 266.500 C 166.200 261.605,166.065 257.600,165.900 257.600 C 165.735 257.600,165.600 261.631,165.600 266.557 M352.600 260.400 C 352.259 261.060,352.069 261.600,352.179 261.600 C 352.289 261.600,352.659 261.060,353.000 260.400 C 353.341 259.740,353.531 259.200,353.421 259.200 C 353.311 259.200,352.941 259.740,352.600 260.400 M322.828 260.200 C 322.828 260.420,323.086 261.050,323.400 261.600 C 323.714 262.150,323.972 262.420,323.972 262.200 C 323.972 261.980,323.714 261.350,323.400 260.800 C 323.086 260.250,322.828 259.980,322.828 260.200 M329.644 269.244 C 329.398 269.951,329.266 270.600,329.352 270.685 C 329.438 270.771,329.709 270.262,329.956 269.556 C 330.202 268.849,330.334 268.200,330.248 268.115 C 330.162 268.029,329.891 268.538,329.644 269.244 M165.867 292.667 C 165.497 293.036,165.529 312.709,165.900 312.938 C 166.065 313.040,166.200 308.461,166.200 302.762 C 166.200 297.063,166.185 292.400,166.167 292.400 C 166.148 292.400,166.013 292.520,165.867 292.667 M234.893 296.800 C 234.893 297.570,234.975 297.885,235.076 297.500 C 235.176 297.115,235.176 296.485,235.076 296.100 C 234.975 295.715,234.893 296.030,234.893 296.800 M265.709 297.200 C 265.709 298.190,265.787 298.595,265.882 298.100 C 265.978 297.605,265.978 296.795,265.882 296.300 C 265.787 295.805,265.709 296.210,265.709 297.200 M214.893 297.200 C 214.893 297.970,214.975 298.285,215.076 297.900 C 215.176 297.515,215.176 296.885,215.076 296.500 C 214.975 296.115,214.893 296.430,214.893 297.200 M284.893 298.000 C 284.893 298.770,284.975 299.085,285.076 298.700 C 285.176 298.315,285.176 297.685,285.076 297.300 C 284.975 296.915,284.893 297.230,284.893 298.000 M215.293 300.000 C 215.293 300.770,215.375 301.085,215.476 300.700 C 215.576 300.315,215.576 299.685,215.476 299.300 C 215.375 298.915,215.293 299.230,215.293 300.000 M235.228 299.833 C 235.244 300.475,235.416 301.360,235.610 301.800 C 235.847 302.334,235.886 302.002,235.727 300.800 C 235.446 298.680,235.188 298.180,235.228 299.833 M284.493 300.800 C 284.493 301.570,284.575 301.885,284.676 301.500 C 284.776 301.115,284.776 300.485,284.676 300.100 C 284.575 299.715,284.493 300.030,284.493 300.800 M239.800 310.400 C 240.659 311.280,241.452 312.000,241.562 312.000 C 241.672 312.000,241.059 311.280,240.200 310.400 C 239.341 309.520,238.548 308.800,238.438 308.800 C 238.328 308.800,238.941 309.520,239.800 310.400 M260.778 310.300 L 259.400 311.800 260.900 310.422 C 262.296 309.138,262.584 308.800,262.278 308.800 C 262.212 308.800,261.537 309.475,260.778 310.300 M224.600 322.400 C 225.459 323.280,226.252 324.000,226.362 324.000 C 226.472 324.000,225.859 323.280,225.000 322.400 C 224.141 321.520,223.348 320.800,223.238 320.800 C 223.128 320.800,223.741 321.520,224.600 322.400 M353.200 329.600 L 342.200 329.819 353.300 329.910 C 360.494 329.968,364.400 329.859,364.400 329.600 C 364.400 329.380,364.355 329.241,364.300 329.290 C 364.245 329.340,359.250 329.479,353.200 329.600 M58.900 329.900 C 66.545 329.961,79.055 329.961,86.700 329.900 C 94.345 329.839,88.090 329.789,72.800 329.789 C 57.510 329.789,51.255 329.839,58.900 329.900 M115.300 329.899 C 118.105 329.968,122.695 329.968,125.500 329.899 C 128.305 329.830,126.010 329.774,120.400 329.774 C 114.790 329.774,112.495 329.830,115.300 329.899 M295.724 329.899 C 298.762 329.967,303.622 329.967,306.524 329.899 C 309.426 329.831,306.940 329.775,301.000 329.775 C 295.060 329.775,292.686 329.831,295.724 329.899 M247.300 331.497 C 249.005 331.572,251.795 331.572,253.500 331.497 C 255.205 331.422,253.810 331.361,250.400 331.361 C 246.990 331.361,245.595 331.422,247.300 331.497 M388.690 396.644 C 388.024 397.310,388.530 397.520,390.800 397.520 C 392.120 397.520,393.200 397.358,393.200 397.160 C 393.200 396.962,392.615 396.798,391.900 396.795 C 391.185 396.792,390.235 396.691,389.790 396.571 C 389.344 396.452,388.849 396.484,388.690 396.644 M394.946 397.113 C 395.052 397.285,395.738 397.465,396.470 397.515 C 397.466 397.581,397.649 397.504,397.200 397.208 C 396.489 396.739,394.667 396.662,394.946 397.113 " stroke="none" fill="#a494e4" fill-rule="evenodd"></path><path id="path4" d="M323.505 138.683 C 324.002 138.779,324.722 138.775,325.105 138.675 C 325.487 138.575,325.080 138.496,324.200 138.501 C 323.320 138.505,323.007 138.587,323.505 138.683 M328.305 138.683 C 328.802 138.779,329.522 138.775,329.905 138.675 C 330.287 138.575,329.880 138.496,329.000 138.501 C 328.120 138.505,327.807 138.587,328.305 138.683 M316.400 139.618 C 315.962 139.915,316.124 139.952,317.000 139.756 C 318.471 139.427,318.790 139.198,317.767 139.206 C 317.345 139.209,316.730 139.395,316.400 139.618 M334.833 139.344 C 334.925 139.423,335.540 139.608,336.200 139.756 C 337.076 139.952,337.238 139.915,336.800 139.618 C 336.260 139.253,334.432 138.998,334.833 139.344 M43.680 148.700 C 43.761 157.409,43.902 156.393,44.096 145.699 C 44.153 142.564,44.065 139.999,43.900 139.999 C 43.735 140.000,43.636 143.915,43.680 148.700 M119.784 140.500 C 119.680 140.775,119.640 160.980,119.697 185.400 L 119.800 229.800 129.900 229.811 L 140.000 229.821 129.997 229.704 L 119.993 229.586 120.097 184.793 C 120.153 160.157,120.149 140.000,120.087 140.000 C 120.026 140.000,119.889 140.225,119.784 140.500 M153.784 140.500 C 153.680 140.775,153.640 160.980,153.697 185.400 L 153.800 229.800 154.000 184.900 C 154.110 160.205,154.149 140.000,154.087 140.000 C 154.026 140.000,153.889 140.225,153.784 140.500 M256.505 140.287 C 257.114 140.379,258.014 140.377,258.505 140.282 C 258.997 140.187,258.500 140.111,257.400 140.114 C 256.300 140.117,255.897 140.195,256.505 140.287 M350.000 145.711 C 350.000 145.787,350.585 146.278,351.300 146.801 C 352.104 147.390,352.384 147.487,352.033 147.055 C 351.500 146.399,350.000 145.407,350.000 145.711 M281.200 148.600 C 281.946 149.370,282.647 150.000,282.757 150.000 C 282.867 150.000,282.346 149.370,281.600 148.600 C 280.854 147.830,280.153 147.200,280.043 147.200 C 279.933 147.200,280.454 147.830,281.200 148.600 M354.153 149.067 C 354.859 149.856,355.173 150.536,354.985 150.867 C 354.740 151.299,354.786 151.304,355.227 150.894 C 355.681 150.472,355.542 150.171,354.395 149.094 L 353.018 147.800 354.153 149.067 M322.800 156.420 C 322.126 156.649,322.451 156.684,323.800 156.528 C 324.900 156.401,325.875 156.231,325.967 156.149 C 326.282 155.868,323.799 156.080,322.800 156.420 M328.100 156.276 C 328.485 156.376,329.115 156.376,329.500 156.276 C 329.885 156.175,329.570 156.093,328.800 156.093 C 328.030 156.093,327.715 156.175,328.100 156.276 M242.094 168.900 L 242.188 181.400 242.300 169.109 L 242.412 156.818 249.906 156.699 L 257.400 156.581 249.700 156.491 L 242.000 156.400 242.094 168.900 M192.000 157.200 L 174.200 157.413 191.876 157.506 C 203.331 157.567,209.640 157.459,209.800 157.200 C 209.936 156.980,209.992 156.842,209.924 156.894 C 209.856 156.945,201.790 157.083,192.000 157.200 M56.098 157.497 L 67.996 157.612 68.098 193.706 L 68.200 229.800 78.400 229.800 L 88.600 229.800 88.603 193.800 L 88.606 157.800 88.501 193.700 L 88.396 229.600 78.400 229.600 L 68.404 229.600 68.302 193.500 L 68.200 157.400 56.200 157.391 L 44.200 157.382 56.098 157.497 M94.700 157.499 C 98.055 157.566,103.545 157.566,106.900 157.499 C 110.255 157.432,107.510 157.378,100.800 157.378 C 94.090 157.378,91.345 157.432,94.700 157.499 M260.800 157.533 C 261.130 157.736,261.850 158.024,262.400 158.171 C 263.095 158.357,263.217 158.325,262.800 158.067 C 262.470 157.864,261.750 157.576,261.200 157.429 C 260.505 157.243,260.383 157.275,260.800 157.533 M174.188 166.500 L 174.200 175.000 189.292 175.105 L 204.384 175.210 204.504 183.605 L 204.624 192.001 204.612 183.500 L 204.600 175.000 189.508 174.895 L 174.416 174.790 174.296 166.395 L 174.176 157.999 174.188 166.500 M264.400 158.925 C 264.400 158.994,264.985 159.579,265.700 160.225 L 267.000 161.400 265.825 160.100 C 264.730 158.888,264.400 158.616,264.400 158.925 M343.949 162.536 C 344.655 163.391,345.362 163.379,346.051 162.500 C 346.554 161.859,346.539 161.848,345.868 162.376 C 345.248 162.863,345.002 162.869,344.268 162.412 C 343.477 161.919,343.449 161.930,343.949 162.536 M288.542 168.200 C 288.541 170.180,288.608 171.040,288.692 170.112 C 288.776 169.184,288.777 167.564,288.695 166.512 C 288.612 165.460,288.543 166.220,288.542 168.200 M295.206 171.033 C 295.209 171.455,295.395 172.070,295.618 172.400 C 295.915 172.838,295.952 172.676,295.756 171.800 C 295.427 170.329,295.198 170.010,295.206 171.033 M265.426 176.700 C 264.562 177.805,264.493 177.990,265.163 177.404 C 265.965 176.704,267.023 175.200,266.714 175.200 C 266.651 175.200,266.072 175.875,265.426 176.700 M255.300 181.076 C 255.685 181.176,256.315 181.176,256.700 181.076 C 257.085 180.975,256.770 180.893,256.000 180.893 C 255.230 180.893,254.915 180.975,255.300 181.076 M280.400 188.600 C 279.428 189.590,278.723 190.400,278.833 190.400 C 278.943 190.400,279.828 189.590,280.800 188.600 C 281.772 187.610,282.477 186.800,282.367 186.800 C 282.257 186.800,281.372 187.610,280.400 188.600 M174.180 192.508 C 174.073 192.787,174.037 197.422,174.100 202.808 L 174.215 212.600 174.307 202.505 L 174.400 192.410 189.300 192.300 L 204.200 192.190 189.287 192.095 C 177.538 192.020,174.334 192.108,174.180 192.508 M242.183 197.701 C 242.077 197.976,242.040 205.311,242.100 214.001 L 242.210 229.800 242.305 213.700 L 242.400 197.600 247.520 197.600 C 251.050 197.600,252.814 197.755,253.201 198.100 C 253.678 198.525,253.682 198.496,253.232 197.900 C 252.558 197.009,242.518 196.828,242.183 197.701 M358.140 203.200 C 358.140 205.070,358.209 205.835,358.293 204.900 C 358.377 203.965,358.377 202.435,358.293 201.500 C 358.209 200.565,358.140 201.330,358.140 203.200 M301.949 205.064 C 301.448 205.670,301.477 205.681,302.278 205.182 C 303.048 204.703,303.268 204.731,304.078 205.418 L 305.000 206.200 304.238 205.300 C 303.331 204.229,302.693 204.164,301.949 205.064 M211.199 221.119 L 211.399 229.800 211.508 221.428 C 211.568 216.824,211.478 212.918,211.308 212.748 C 211.139 212.578,211.090 216.345,211.199 221.119 M350.585 221.700 L 348.600 223.800 350.700 221.815 C 352.651 219.971,352.983 219.600,352.685 219.600 C 352.622 219.600,351.677 220.545,350.585 221.700 M269.973 229.306 C 270.666 230.221,292.452 230.205,292.637 229.290 C 292.694 229.010,292.649 228.965,292.537 229.190 C 292.220 229.829,270.720 229.743,269.999 229.100 C 269.522 228.674,269.518 228.705,269.973 229.306 M221.947 229.707 C 222.116 229.876,226.652 229.966,232.027 229.907 L 241.800 229.799 231.719 229.599 C 226.175 229.490,221.777 229.538,221.947 229.707 M168.529 229.900 C 176.411 229.961,189.191 229.961,196.929 229.900 C 204.668 229.839,198.220 229.789,182.600 229.790 C 166.980 229.790,160.648 229.839,168.529 229.900 M335.000 230.000 C 334.496 230.217,334.422 230.344,334.800 230.344 C 335.130 230.344,335.760 230.189,336.200 230.000 C 336.704 229.783,336.778 229.656,336.400 229.656 C 336.070 229.656,335.440 229.811,335.000 230.000 M318.500 231.076 C 318.885 231.176,319.515 231.176,319.900 231.076 C 320.285 230.975,319.970 230.893,319.200 230.893 C 318.430 230.893,318.115 230.975,318.500 231.076 M329.105 231.083 C 329.602 231.179,330.322 231.175,330.705 231.075 C 331.087 230.975,330.680 230.896,329.800 230.901 C 328.920 230.905,328.607 230.987,329.105 231.083 M322.912 231.495 C 323.964 231.577,325.584 231.576,326.512 231.492 C 327.440 231.408,326.580 231.341,324.600 231.342 C 322.620 231.343,321.860 231.412,322.912 231.495 M44.984 240.900 C 44.880 241.175,44.840 261.380,44.897 285.800 L 45.000 330.200 72.800 330.200 L 100.600 330.200 100.600 321.600 L 100.600 313.000 82.938 312.800 C 73.224 312.690,65.359 312.735,65.462 312.900 C 65.564 313.065,73.467 313.200,83.024 313.200 L 100.400 313.200 100.400 321.600 L 100.400 330.000 72.800 330.000 L 45.200 330.000 45.200 285.407 L 45.200 240.814 55.300 240.700 L 65.400 240.586 55.287 240.493 C 47.496 240.421,45.131 240.515,44.984 240.900 M110.187 240.893 C 110.081 241.172,110.040 261.380,110.097 285.800 L 110.200 330.200 120.300 330.211 L 130.400 330.221 120.400 330.104 L 110.400 329.986 110.400 285.393 L 110.400 240.800 120.398 240.800 L 130.397 240.800 130.501 285.200 L 130.605 329.600 130.603 285.100 L 130.600 240.600 120.490 240.493 C 112.618 240.410,110.337 240.498,110.187 240.893 M145.600 240.697 C 145.600 240.864,158.200 240.953,173.600 240.895 L 201.600 240.789 201.600 249.190 L 201.600 257.592 183.900 257.696 L 166.200 257.800 166.200 266.600 L 166.200 275.400 181.100 275.407 L 196.000 275.415 181.200 275.303 L 166.400 275.190 166.400 266.599 L 166.400 258.008 184.100 257.904 L 201.800 257.800 201.800 249.200 L 201.800 240.600 173.700 240.497 C 158.245 240.441,145.600 240.531,145.600 240.697 M214.400 240.693 C 214.400 240.862,218.988 240.949,224.597 240.887 L 234.794 240.774 234.901 268.287 L 235.008 295.800 235.004 268.200 L 235.000 240.600 224.700 240.493 C 219.035 240.435,214.400 240.525,214.400 240.693 M265.784 240.900 C 265.679 241.175,265.641 253.640,265.699 268.600 L 265.806 295.800 265.903 268.307 L 266.000 240.814 275.900 240.700 L 285.800 240.585 275.887 240.493 C 268.257 240.421,265.931 240.515,265.784 240.900 M291.606 241.100 C 291.611 241.614,291.699 241.664,291.938 241.287 C 292.192 240.886,294.669 240.799,303.332 240.887 C 309.420 240.949,314.400 240.865,314.400 240.700 C 314.400 240.535,309.270 240.400,303.000 240.400 C 292.407 240.400,291.600 240.450,291.606 241.100 M341.461 240.700 C 341.359 240.865,346.059 240.949,351.906 240.887 C 360.217 240.799,362.608 240.886,362.862 241.287 C 363.101 241.664,363.189 241.614,363.194 241.100 C 363.200 240.360,341.914 239.968,341.461 240.700 M285.788 266.200 C 285.788 280.060,285.839 285.672,285.900 278.671 C 285.961 271.670,285.961 260.330,285.900 253.471 C 285.838 246.612,285.788 252.340,285.788 266.200 M196.491 284.095 L 196.400 292.390 181.300 292.495 L 166.200 292.600 166.200 302.800 L 166.200 313.000 184.800 313.006 L 203.400 313.012 184.900 312.902 L 166.400 312.792 166.400 302.796 L 166.400 292.800 181.413 292.800 C 193.230 292.800,196.467 292.691,196.621 292.289 C 196.729 292.008,196.765 288.183,196.700 283.789 L 196.582 275.800 196.491 284.095 M214.509 293.200 C 214.509 294.190,214.587 294.595,214.682 294.100 C 214.778 293.605,214.778 292.795,214.682 292.300 C 214.587 291.805,214.509 292.210,214.509 293.200 M285.293 294.800 C 285.293 295.570,285.375 295.885,285.476 295.500 C 285.576 295.115,285.576 294.485,285.476 294.100 C 285.375 293.715,285.293 294.030,285.293 294.800 M235.293 297.600 C 235.293 298.370,235.375 298.685,235.476 298.300 C 235.576 297.915,235.576 297.285,235.476 296.900 C 235.375 296.515,235.293 296.830,235.293 297.600 M216.456 307.600 C 216.456 307.930,216.611 308.560,216.800 309.000 C 217.017 309.504,217.144 309.578,217.144 309.200 C 217.144 308.870,216.989 308.240,216.800 307.800 C 216.583 307.296,216.456 307.222,216.456 307.600 M283.029 308.629 C 282.881 309.215,282.838 309.772,282.932 309.866 C 283.027 309.960,283.224 309.558,283.371 308.971 C 283.519 308.385,283.562 307.828,283.468 307.734 C 283.373 307.640,283.176 308.042,283.029 308.629 M249.500 314.282 C 249.995 314.378,250.805 314.378,251.300 314.282 C 251.795 314.187,251.390 314.109,250.400 314.109 C 249.410 314.109,249.005 314.187,249.500 314.282 M316.465 319.417 C 315.795 320.888,315.923 321.202,316.647 319.865 C 316.986 319.240,317.188 318.654,317.096 318.563 C 317.005 318.471,316.721 318.856,316.465 319.417 M223.600 321.725 C 223.600 321.794,224.185 322.379,224.900 323.025 L 226.200 324.200 225.025 322.900 C 223.930 321.688,223.600 321.416,223.600 321.725 M364.219 329.300 C 364.564 330.205,343.007 330.399,341.999 329.500 C 341.522 329.075,341.518 329.104,341.968 329.700 C 342.450 330.337,343.487 330.400,353.425 330.400 C 364.288 330.400,365.606 330.240,364.421 329.065 C 364.064 328.710,364.016 328.766,364.219 329.300 M290.103 329.600 C 290.282 330.258,311.014 330.745,311.654 330.107 C 311.823 329.938,307.169 329.851,301.312 329.913 C 293.001 330.001,290.584 329.913,290.301 329.513 C 290.025 329.122,289.978 329.143,290.103 329.600 M145.862 330.100 C 145.964 330.265,158.806 330.400,174.400 330.400 C 189.994 330.400,202.836 330.265,202.938 330.100 C 203.040 329.935,190.198 329.800,174.400 329.800 C 158.602 329.800,145.760 329.935,145.862 330.100 M248.512 331.895 C 249.564 331.977,251.184 331.976,252.112 331.892 C 253.040 331.808,252.180 331.741,250.200 331.742 C 248.220 331.743,247.460 331.812,248.512 331.895 " stroke="none" fill="#917add" fill-rule="evenodd"></path></g></svg>