<?xml version="1.0" encoding="UTF-8" standalone="no"?>
<!-- Created with Inkscape (http://www.inkscape.org/) -->

<svg
   width="46.222534mm"
   height="43.215061mm"
   viewBox="0 0 46.222534 43.215061"
   version="1.1"
   id="svg5"
   xml:space="preserve"
   xmlns:inkscape="http://www.inkscape.org/namespaces/inkscape"
   xmlns:sodipodi="http://sodipodi.sourceforge.net/DTD/sodipodi-0.dtd"
   xmlns="http://www.w3.org/2000/svg"
   xmlns:svg="http://www.w3.org/2000/svg"><sodipodi:namedview
     id="namedview7"
     pagecolor="#ffffff"
     bordercolor="#000000"
     borderopacity="0.25"
     inkscape:showpageshadow="2"
     inkscape:pageopacity="0.0"
     inkscape:pagecheckerboard="0"
     inkscape:deskcolor="#d1d1d1"
     inkscape:document-units="mm"
     showgrid="false" /><defs
     id="defs2" /><g
     inkscape:label="Layer 1"
     inkscape:groupmode="layer"
     id="layer1"
     transform="translate(-79.875917,-42.112139)"><path
       style="fill:#ef0066;fill-opacity:1;stroke-width:0.264583"
       d="m 98.722143,83.300963 c -6.56927,-3.81299 -12.304852,-7.00429 -18.846226,-10.95953 v -22.71186 l 11.521475,-6.65831 9.655088,5.42079 c 0,0 0.68446,-0.4607 -6.995216,4.246 -7.907032,4.84604 -8.519303,6.06175 -6.15825,8.52616 3.209073,3.34955 8.566905,3.30713 14.110706,-0.0425 l 1.83636,-1.10954 1.80366,0.91602 c 4.26072,2.16389 17.65858,10.15252 18.165,10.83109 0.62496,0.69448 0.5225,0.75518 0.002,1.45521 -1.24963,1.67971 -2.19398,1.38648 -9.84171,-3.05593 -7.45619,-4.33116 -7.70657,-4.44937 -8.51158,-4.01854 -1.51651,0.81161 -0.80694,1.44437 6.22357,5.54979 7.10067,4.1464 7.62968,4.63352 5.95312,5.48172 -1.63955,0.82947 -1.89629,0.72354 -10.69234,-4.4119 -6.10348,-3.56343 -7.091645,-3.92845 -7.602082,-2.80816 -0.44091,0.96769 -0.314694,1.06607 6.123592,4.77299 8.23751,4.74285 8.15181,4.67142 6.72601,5.60563 -1.74408,1.14277 -3.17542,0.52488 -14.355363,-6.19702 -3.044488,-1.83049 -4.465322,-1.93395 -4.235879,-0.30844 0.106176,0.75221 0.337746,0.90674 7.896482,5.26918 6.40689,3.69767 6.4438,3.75094 3.70417,5.34601 -2.2761,1.32518 -2.21637,1.33567 -6.482296,-1.13887 z"
       id="path231"
       sodipodi:nodetypes="sccccssscsccsssssssssssscs" /><path
       d="m 115.90148,64.836093 c -4.94771,-2.92768 -9.7005,-5.6324 -10.56176,-6.01049 l -1.56592,-0.68744 -1.47678,0.84877 c -3.753886,2.1575 -5.307056,2.77785 -7.256704,2.89838 -3.858916,0.23857 -7.849061,-2.22301 -6.592139,-4.06678 0.110671,-0.16235 5.739291,-3.7 12.508043,-7.86145 0,0 8.05651,-5.92719 12.30683,-7.56628 4.25032,-1.63909 12.39949,4.37832 12.76027,6.95445 0.16182,1.15547 0.012,19.27895 0.0111,20.66954 -9e-4,1.39059 -4.94963,-2.11157 -10.13294,-5.17867 z"
       style="fill:#003c5c;fill-opacity:1;stroke-width:0.264583"
       id="path337" /></g></svg>
