<svg width="832.655" height="829.25" viewBox="0 0 220.307 219.406" xml:space="preserve" xmlns="http://www.w3.org/2000/svg"><path style="font-variation-settings:normal;opacity:1;vector-effect:none;fill:#e61c73;fill-opacity:1;fill-rule:evenodd;stroke-width:.197342;stroke-linecap:butt;stroke-linejoin:miter;stroke-miterlimit:4;stroke-dasharray:none;stroke-dashoffset:0;stroke-opacity:1;-inkscape-stroke:none;stop-color:#000;stop-opacity:1" d="M-165.194-31.347a110.153 110.153 0 0 0-110.14 110.161A110.15 110.15 0 0 0-179.18 188.06a36.88 36.88 0 0 1-22.88-34.107 36.88 36.88 0 0 1 36.873-36.88 36.88 36.88 0 0 1 36.882 36.872v.005a36.88 36.88 0 0 1-22.879 34.11A110.15 110.15 0 0 0-55.028 78.805v-.016A110.153 110.153 0 0 0-165.194-31.347" transform="translate(275.335 31.347)"/></svg>
