<svg width="474.155" height="439.747" viewBox="0 0 125.454 116.35" xml:space="preserve" xmlns="http://www.w3.org/2000/svg"><path style="fill:#fcdf01;stroke-width:.264583" d="M-503.474 33.815c0-.086 1.945-3.866 4.322-8.4s6.45-12.318 9.05-17.297c2.6-4.978 4.763-9.016 4.807-8.972.044.043-.094 2.39-.307 5.215-.212 2.825-.47 7.488-.57 10.362-.11 3.074-.087 5.222.054 5.216.131-.005.537-.18.9-.387.364-.208.751-.383.86-.388.11-.005.199.17.199.388s.059.396.131.396 3.02-1.656 6.549-3.68l6.417-3.682.567-3.279c.312-1.803.93-4.773 1.375-6.6a100 100 0 0 1 1.901-6.6 115 115 0 0 1 2.446-6.52c.744-1.782 1.422-3.24 1.508-3.24s.37 1.28.631 2.844c.262 1.564.83 4.63 1.263 6.813a176 176 0 0 0 1.735 7.673c.521 2.037 1.535 5.43 2.254 7.54.718 2.11 1.767 4.82 2.33 6.023s1.282 2.549 1.598 2.992c.315.443.527.851.47.908-.056.056-11.346 2.966-25.088 6.467s-25.08 6.364-25.194 6.364-.208-.07-.208-.156m65.875-20.675c-.604-.84-1.673-2.717-2.374-4.172s-1.641-3.75-2.09-5.098a90 90 0 0 1-1.502-5.16 201 201 0 0 1-1.443-6.271c-.416-1.961-.734-3.586-.705-3.612.028-.025 2.491-1.384 5.474-3.018 2.984-1.635 5.684-3.133 6.002-3.329.576-.355.57-.37-1.168-3.537-.961-1.749-1.842-3.18-1.96-3.18-.116 0-2.376 1.192-5.023 2.65-2.646 1.456-4.833 2.617-4.86 2.579s-.618-3.52-1.314-7.737-1.322-7.816-1.391-7.997c-.098-.256-.296-.242-.882.06-.415.215-.82.39-.9.39s-.145-.178-.145-.396-.117-.397-.259-.397-3.119 1.62-6.615 3.602c-6.02 3.41-6.43 3.692-7.711 5.303-.745.936-1.387 1.667-1.428 1.624s.033-.792.163-1.665.611-3.97 1.07-6.88l.835-5.291 6.476-12.436c3.561-6.839 6.555-12.523 6.653-12.632s4.955 6.738 10.794 15.214 13.706 19.892 17.482 25.37l6.866 9.962-1.751 1.151c-.963.634-2.752 2.105-3.975 3.269s-2.778 2.96-3.455 3.99-1.744 3.114-2.372 4.63a263 263 0 0 1-2.323 5.403c-.65 1.455-1.953 4.042-2.896 5.75-.943 1.707-1.818 3.168-1.944 3.245-.126.078-.724-.545-1.329-1.384m11.456.688c.404-.301 1.496-1.523 2.426-2.714a61 61 0 0 0 3.08-4.405c.764-1.231 2.131-3.727 3.04-5.546.907-1.819 2.09-4.379 2.627-5.688.538-1.31 1.055-2.463 1.15-2.563s2.593 3.333 5.551 7.63c2.959 4.295 5.34 7.848 5.292 7.893-.048.046-5.303 1.405-11.677 3.02-6.374 1.616-11.731 2.933-11.906 2.929-.174-.005.013-.255.417-.556" transform="translate(507.341 82.379)"/><path style="fill:#02b8f0;stroke-width:.264583" d="M-449.711 23.762c-.756-.377-1.8-1.18-2.321-1.786s-1.377-1.867-1.903-2.803c-.525-.936-1.54-3.198-2.255-5.027s-1.815-5.118-2.445-7.31c-.629-2.19-1.564-5.941-2.078-8.334s-1.366-6.85-1.894-9.907c-.527-3.056-1.001-5.598-1.053-5.65-.051-.051-.622.96-1.268 2.25-.645 1.288-1.837 4.009-2.648 6.046-.81 2.037-1.957 5.312-2.548 7.276-.591 1.965-1.426 5.299-1.856 7.409-.429 2.11-.858 4.442-.952 5.182l-.172 1.345-5.064 2.916a982 982 0 0 1-6.587 3.767c-1.007.564-1.52.733-1.52.501.002-.192.124-2.97.273-6.17.15-3.202.502-8.798.783-12.436s.82-9.056 1.195-12.039.918-7.031 1.204-8.996a446 446 0 0 1 1.433-8.867c.502-2.912 1.51-8.21 2.242-11.774.73-3.563 1.983-9.203 2.784-12.534.8-3.33 2.225-8.867 3.165-12.303s1.95-7.022 2.244-7.967l.535-1.72 5.895-3.349c3.242-1.841 6.18-3.492 6.53-3.668.553-.279.614-.265.47.11-.09.237-.936 3.197-1.878 6.58a530 530 0 0 0-3.19 12.1 468 468 0 0 0-2.781 12.04 462 462 0 0 0-2.382 12.038 423 423 0 0 0-1.99 12.285c-.503 3.483-.87 6.377-.815 6.431s.678-.713 1.385-1.706 1.88-2.595 2.608-3.56c1.21-1.605 1.652-1.943 5.16-3.948l6.482-3.705c2.545-1.455 2.653-1.49 2.835-.943.105.313.796 4.184 1.537 8.602s1.31 8.061 1.266 8.096c-.045.034-2.2 1.224-4.79 2.644-4.565 2.5-4.699 2.598-4.342 3.149.203.313.993 1.73 1.756 3.148s1.504 2.58 1.647 2.58 1.846-.875 3.784-1.945l3.523-1.945.858 3.99c.472 2.194 1.264 5.4 1.76 7.122.495 1.722 1.255 4.021 1.686 5.108a54 54 0 0 0 1.614 3.62 33 33 0 0 0 1.825 3.1c.547.8 1.432 1.872 1.965 2.381.806.77 1.011.859 1.216.53.135-.22 1.07-1.817 2.077-3.552s2.373-4.355 3.035-5.821A336 336 0 0 0-429.138.54c.732-1.725 1.773-3.868 2.314-4.762.541-.895 1.884-2.52 2.983-3.61 1.1-1.092 2.967-2.672 4.15-3.512 1.182-.84 4.395-2.857 7.139-4.483s6.456-3.704 8.248-4.618 4.19-1.958 5.33-2.318 3.127-.834 4.415-1.054 4.592-.642 7.342-.939 5.129-.54 5.287-.54-.127.28-.634.62c-.507.342-3.312 2.007-6.235 3.7l-5.313 3.08-5.402.545c-2.972.3-6.448.723-7.725.94-1.278.217-2.6.5-2.938.629-.338.128-1.17.868-1.85 1.644s-1.757 2.422-2.395 3.66c-.637 1.236-1.778 3.737-2.534 5.556-.757 1.819-2.15 4.834-3.098 6.7s-2.56 4.664-3.584 6.218c-1.024 1.553-2.648 3.64-3.609 4.635-.96.996-2.29 2.21-2.954 2.698s-4.117 2.575-7.673 4.638-6.927 3.914-7.491 4.115c-.564.2-1.463.364-1.999.364-.535 0-1.591-.308-2.347-.684" transform="translate(507.341 82.379)"/><path style="fill:#048a4a;stroke-width:.264583" d="M-507.33 29.297c.073-.19 5.09-8.176 11.148-17.746 6.059-9.57 11.13-17.518 11.272-17.664.165-.17.19.559.07 2.057l-.187 2.322-3.352 6.41a20714 20714 0 0 0-7.917 15.155l-4.564 8.746-3.302.534c-2.583.417-3.272.458-3.168.186m78.833-13.581c1.413-.99 2.14-1.219 11.373-3.572 5.425-1.383 9.936-2.514 10.024-2.514s.539.662 1.002 1.47c.463.81.799 1.51.747 1.558s-5.538.993-12.191 2.101-12.18 2.014-12.281 2.014.495-.476 1.326-1.057m-28.164-24.541c-.763-1.419-1.553-2.835-1.756-3.148-.357-.55-.226-.646 4.209-3.073l10.74-5.88c3.389-1.858 6.196-3.332 6.238-3.278.042.055.811 1.43 1.709 3.056s1.632 3.054 1.632 3.175c0 .12-2.887 1.802-6.416 3.737s-8.202 4.52-10.385 5.744-4.107 2.23-4.276 2.237c-.17.005-.932-1.151-1.695-2.57m15.692-38.167-9.3-13.495.821-1.322c.452-.727.893-1.317.98-1.311.088.005 3.612 6.093 7.833 13.528l8.405 14.806c.404.709.695 1.289.648 1.289s-4.271-6.073-9.387-13.495" transform="translate(507.341 82.379)"/></svg>
