<svg width="220.836" height="98.936" viewBox="0 0 58.429 26.177" xml:space="preserve" xmlns="http://www.w3.org/2000/svg"><path style="fill:#f0c401;fill-opacity:1;stroke-width:.4" d="M-223.117 66.403h12.981v2.588h-12.981z" transform="translate(228.27 -66.403)"/><path style="fill:#000;fill-opacity:1;stroke-width:.346289" d="M-204.967 66.403v12.355h2.651v-4.883h4.462v4.883h2.651V66.403h-2.651v4.884h-4.462v-4.884Z" transform="translate(228.27 -66.403)"/><path style="fill:#f0c401;fill-opacity:1;stroke-width:.4" d="M-223.117 76.17h12.981v2.588h-12.981z" transform="translate(228.27 -66.403)"/><path style="fill:#f0c401;fill-opacity:1;stroke-width:.470083" d="M-228.064 71.287h17.928v2.588h-17.928z" transform="translate(228.27 -66.403)"/><path style="fill:#000;fill-opacity:1;stroke-width:.331553" d="M-191.94 66.403v8.489s-.122 4.137 4.87 4.137c4.99 0 4.782-4.137 4.782-4.137v-8.489h-2.652v8.489s-.09 1.753-2.215 1.753-2.134-1.753-2.134-1.753v-8.489z" transform="translate(228.27 -66.403)"/><path style="fill:#000;fill-opacity:1;stroke-width:.4" d="M-179.065 66.403v12.355h5.796s3.44-.31 3.428-3.428c-.01-2.384-1.551-2.978-1.551-2.978s1.03-.785 1.03-2.511c0-1.727-.75-3.402-3.4-3.402v-.036h-2.652zm5.352 2.307c.225-.003 1.124.066 1.124 1.33 0 1.443-.68 1.386-.68 1.386h-3.145v-2.714h2.651zm-2.701 5.025h3.145s.983.008.983 1.44c0 1.433-.983 1.274-.983 1.274h-3.145z" transform="translate(228.27 -66.403)"/><path style="fill:#f0c401;fill-opacity:1;stroke-width:.256991" d="M-228.27 84.639v7.938h3.724s2.21-.2 2.203-2.203c-.006-1.532-.997-1.913-.997-1.913s.662-.504.662-1.614c0-1.109-.482-2.185-2.185-2.185v-.023h-1.704zm3.439 1.482c.144-.002.722.043.722.854 0 .928-.437.891-.437.891h-2.02v-1.743h1.703zm-1.736 3.229h2.021s.632.004.632.925c0 .92-.632.819-.632.819h-2.02zm7.467-4.711h-1.704v7.938h1.703V89.88h.95l1.502 2.698h1.95l-1.786-2.93c.873-.67 1.405-.806 1.421-2.546s-1.363-2.475-2.333-2.439v-.023zm1.494 3.763-1.495-.007v-2.272l1.455-.002c.088-.002.934.026.934 1.158 0 1.133-.894 1.123-.894 1.123" transform="translate(228.27 -66.403)"/><path style="fill:#000;fill-opacity:1;stroke-width:.4" d="M-209.077 84.48a.88.88 0 0 0-.81.546h-2.56v.66h2.56a.88.88 0 0 0 .81.546.876.876 0 0 0 .877-.876.876.876 0 0 0-.877-.877m0 6.302a.88.88 0 0 0-.81.547h-2.56v.66h2.56a.88.88 0 0 0 .81.546.876.876 0 0 0 .877-.876.876.876 0 0 0-.877-.877m-4.331-1.553a.88.88 0 0 0 .81-.546h2.56v-.66h-2.56a.88.88 0 0 0-.81-.546.876.876 0 0 0-.877.876.876.876 0 0 0 .877.876" transform="translate(228.27 -66.403)"/><path style="fill:#f0c401;fill-opacity:1;stroke-width:.256997" d="M-175.242 84.64v7.937h4.907v-1.483h-3.204v-1.745h2.828v-1.483h-2.828v-1.744h3.204V84.64h-3.204z" transform="translate(228.27 -66.403)"/><path style="fill:#f0c401;fill-opacity:1;stroke-width:.4" d="M-207.176 84.682h6.05v1.484h-6.05z" transform="translate(228.27 -66.403)"/><path style="fill:#f0c401;fill-opacity:1;stroke-width:.318418" d="M-188.956 84.4c-2.308 0-4.125 2.033-4.125 4.013s1.335 4.167 4.122 4.167 4.17-1.868 4.17-2.864v-1.364h-4.17v1.364h2.438s-.422 1.29-2.233 1.29-2.627-1.18-2.627-2.565c0-1.384 1.165-2.271 2.369-2.271s1.941.66 2.225 1.151l1.469-.952s-1.33-1.97-3.638-1.97" transform="translate(228.27 -66.403)"/><path style="fill:#f0c401;fill-opacity:1;stroke-width:.392854" d="M-204.996 86.144h1.69v6.411h-1.69z" transform="translate(228.27 -66.403)"/><path style="fill:#f0c401;fill-opacity:1;stroke-width:.4" d="M-183.324 84.64v7.937h1.62v-4.714l3.03 4.714h1.62V84.64h-1.62v4.782l-3.03-4.714v-.068h-.044zm-15.046-.035-2.917 7.972h1.78l.567-1.445h3.148l.566 1.445h1.781l-2.917-7.972zm1.012 1.907 1.069 3.134h-2.138z" transform="translate(228.27 -66.403)"/></svg>
