<svg width="900" height="900" viewBox="0 0 238.125 238.125" xml:space="preserve" xmlns="http://www.w3.org/2000/svg"><path style="font-variation-settings:normal;opacity:1;vector-effect:none;fill:#4197d4;fill-opacity:1;fill-rule:evenodd;stroke-width:.341438;stroke-linecap:butt;stroke-linejoin:miter;stroke-miterlimit:4;stroke-dasharray:none;stroke-dashoffset:0;stroke-opacity:1;-inkscape-stroke:none;stop-color:#000;stop-opacity:1" d="M534.732 20.323a119.063 119.063 0 0 1-119.058 119.062A119.063 119.063 0 0 1 296.607 20.332 119.063 119.063 0 0 1 415.657-98.74 119.063 119.063 0 0 1 534.732 20.306" transform="translate(-296.607 98.74)"/><path style="fill:#fff;fill-opacity:1;stroke-width:.264583" d="M390.512 77.23c.35-2.716 4.292-10.692-1.21-9.456h-12.678c-1.288-4.543 1.117-9.68 1.869-14.155 1.649-9.823 4.133-19.535 6.217-29.236 3.214-15.234 6.41-30.52 9.657-45.769.984-6.353 3.51-12.574 2.779-19.101-.143-2.097-7.734-.309-11.037.554-5.315 1.39-13.282 3.65-15.82 5.904-2.329 5.42-2.53 11.479-4.121 17.15-3.305 15.714-6.683 31.57-10.019 47.228-2.83 13.747-5.971 27.512-8.605 41.316-.85 3.769 1.957 6.682 5.651 6.692 12.27.033 24.538-.003 36.807-.005zm26.007.574c5.058-3.953 6.971-10.707 10.727-15.808 6.353-10.775 12.917-21.46 19.256-32.194 2.076 4.177-2.288 12.874-2.947 18.72-1.857 8.85-3.986 17.638-5.874 26.515-.557 4.502 3.86 3.155 6.567 3.32h37.086c.7-2.647 5.198-10.414.564-10.583h-14.505c-1.164-4.438 1.72-9.515 2.116-14.287 2.42-12.138 5.065-24.336 7.495-36.51.85-4.22 2.621-10.138-.989-13.785-4.282-.571-8.774-.362-13.533-.236-5.316.14-11.785-.172-15.011 5.404-4.374 5.51-8.616 11.158-12.95 16.684 2.739-14.88 5.866-29.617 8.795-44.45 1.908-10.493 4.488-20.945 5.984-31.52 1.008-6.974-6.135-3.585-9.676-2.614-5.446 1.907-11.546 2.297-16.59 5.124-3.684 5.631-3.224 12.986-5.272 19.319-2.938 14.577-6.113 28.971-9.117 43.585-4.027 18.917-7.933 37.818-11.96 56.775-.974 3.272-.014 7.117 3.63 7.095 5.164-.032 10.455.25 15.538-.185l.334-.185z" transform="translate(-296.607 98.74)"/></svg>
