<svg width="1025.224" height="529.702" viewBox="0 0 271.257 140.15" xml:space="preserve" xmlns="http://www.w3.org/2000/svg"><path style="fill:#aac644;fill-opacity:1;stroke-width:.4" d="M-22.507 158.445v-34.798l-68.262 8.285-6.086.055-82.692-1.527-67.186 27.985z" transform="translate(293.765 -29.128)"/><path style="fill:#074a60;fill-opacity:1;stroke-width:.4" d="M-22.507 134.97V57.943s-82.996-34.256-181.898-28.066c-68.786 4.306-89.36 21.424-89.36 21.424a25481 25481 0 0 0 39.81 117.979s42.975-30.923 102.178-34.926c58.667-3.967 93.707-2.187 129.27.618" transform="translate(293.765 -29.128)"/><path style="fill:#fff;fill-opacity:1;stroke-width:.264583" d="m-90.77 131.932-.002-13.003.076-11.018c-4.568.8-4.94 6.055-6.159 10.53v13.546zm-84.7-13.441.166 1.722h6.086l-.032-12.491c-3.557 5.883-3.588 5.758-6.22 10.769m-66.333-3.702h13.128l1.956 5.574h6.568l-11.57-33.223h-7.067l-11.92 33.223h6.845zm6.514-17.859 4.29 11.912-8.665.127zm23.083 4.366h3.697V95.21h-3.704v-8.202h-6.086v8.202h-3.836l-.15 6.086h3.986v19.067h5.954zm13.755-14.288h-6.09v33.355h5.954zm38.89 25.136.132-8.07.308-.53c.94-1.616 2.565-2.513 4.551-2.513h1.253l1.087.705c.598.387 1.366 1.191 1.707 1.786l.62 1.08.08 7.88.08 7.88 2.963-.074 2.962-.075.07-7.391c.108-11.302-.997-14.168-6.505-16.88l-1.756-.864h-5.568l-1.53.717c-1.974.925-4.402 3.251-5.455 5.226l-.83 1.557-.251 1.938c-.29 2.233-.36 15.385-.084 15.661.102.102 1.501.151 3.11.11l2.924-.074zm27.252-10.848h3.704V95.21h-3.704v-8.202h-6.085v8.202h-3.837v6.086h3.837v19.067h6.085zm12.17-6.086h-5.952l.115 25.153h5.838zm-108.478-23.283h-13.494V44.939h-6.35v33.073h19.844zM-192.9 53.14h-6.085v24.871h6.085zm10.451 17.264c0-4.183.124-7.895.192-8.268.323-1.773 2.263-3.34 5.762-3.501v-6.073l-1.39.174c-4.775.602-8.999 3.545-10.588 7.534l-.043 1.205-.095 8.268-.095 8.268h6.258z" transform="translate(293.765 -29.128)"/><path style="font-variation-settings:normal;opacity:1;vector-effect:none;fill:#fff;fill-opacity:1;fill-rule:evenodd;stroke-width:.343583;stroke-linecap:butt;stroke-linejoin:miter;stroke-miterlimit:4;stroke-dasharray:none;stroke-dashoffset:0;stroke-opacity:1;-inkscape-stroke:none;stop-color:#000;stop-opacity:1" d="M-215.438 52.702a12.894 12.894 0 0 0-12.892 12.895 12.894 12.894 0 0 0 12.894 12.893 12.894 12.894 0 0 0 12.894-12.894v-.002a12.894 12.894 0 0 0-12.896-12.892m0 6.093a6.8 6.8 0 0 1 6.803 6.8 6.8 6.8 0 0 1-6.801 6.802 6.8 6.8 0 0 1-6.802-6.8 6.8 6.8 0 0 1 6.8-6.802" transform="translate(293.765 -29.128)"/><path style="font-variation-settings:normal;vector-effect:none;fill:#fff;fill-opacity:1;fill-rule:evenodd;stroke-width:.343583;stroke-linecap:butt;stroke-linejoin:miter;stroke-miterlimit:4;stroke-dasharray:none;stroke-dashoffset:0;stroke-opacity:1;-inkscape-stroke:none;stop-color:#000" d="M-182.146 94.83a12.894 12.894 0 0 0-12.892 12.895 12.894 12.894 0 0 0 12.894 12.893 12.894 12.894 0 0 0 12.894-12.894v-.002a12.894 12.894 0 0 0-12.896-12.892m.001 6.093a6.8 6.8 0 0 1 6.802 6.8 6.8 6.8 0 0 1-6.801 6.802 6.8 6.8 0 0 1-6.802-6.8 6.8 6.8 0 0 1 6.801-6.802m78.556-6.121a12.894 12.894 0 0 0-12.893 12.895 12.894 12.894 0 0 0 12.895 12.893 12.894 12.894 0 0 0 12.893-12.894v-.002a12.894 12.894 0 0 0-12.895-12.892m0 6.093a6.8 6.8 0 0 1 6.803 6.8 6.8 6.8 0 0 1-6.801 6.802 6.8 6.8 0 0 1-6.802-6.8 6.8 6.8 0 0 1 6.8-6.802m-59.377-48.143a12.894 12.894 0 0 0-12.892 12.895 12.894 12.894 0 0 0 12.894 12.893 12.894 12.894 0 0 0 12.631-10.309l-.232-.008h-6.042l-.081.027a6.8 6.8 0 0 1-6.276 4.197 6.8 6.8 0 0 1-3.402-.911l10.156-6.66 5.395-3.522a12.89 12.89 0 0 0-12.15-8.602m.001 6.093a6.8 6.8 0 0 1 3.362.892l-10.127 6.594a7 7 0 0 1-.036-.685 6.8 6.8 0 0 1 6.801-6.801M-49.891 94.91a12.894 12.894 0 0 0-12.893 12.895 12.894 12.894 0 0 0 12.894 12.893 12.894 12.894 0 0 0 12.631-10.309l-.232-.009h-6.042l-.081.027a6.8 6.8 0 0 1-6.276 4.198 6.8 6.8 0 0 1-3.402-.912l10.156-6.66 5.395-3.522a12.89 12.89 0 0 0-12.15-8.602zm0 6.093a6.8 6.8 0 0 1 3.362.891l-10.127 6.594a7 7 0 0 1-.036-.684 6.8 6.8 0 0 1 6.801-6.801" transform="translate(293.765 -29.128)"/><path style="fill:#fff;fill-opacity:1;stroke-width:.26374" d="M-87.568 95.21v16.054s1.815 9.34 10.721 9.34 11.205-8.32 11.209-9.208h.001V95.342h-6.026v16.054s-.932 3.317-4.86 3.317-5.02-3.45-5.02-3.45V95.21Z" transform="translate(293.765 -29.128)"/></svg>
