<svg xmlns="http://www.w3.org/2000/svg" viewBox="0 0 254.95 158"><defs><style>.a{fill:#fff;}</style></defs><title>Logotype</title><path d="M0,79a126.93,126.93,0,0,0,27.43,79H227.52a127.48,127.48,0,0,0,0-158H27.43A126.93,126.93,0,0,0,0,79Z"/><path class="a" d="M131.12,48.94a2.1,2.1,0,0,0-.34.18,2.16,2.16,0,0,0-.3.24,1.94,1.94,0,0,0-.24.3,2.06,2.06,0,0,0-.18.34,2.21,2.21,0,0,0-.11.37,2,2,0,0,0,0,.38,2,2,0,0,0,.57,1.38,2.12,2.12,0,0,0,.3.24,2,2,0,0,0,.34.18,1.88,1.88,0,0,0,.37.11,1.74,1.74,0,0,0,.38,0,2,2,0,0,0,1.92-2.34,1.9,1.9,0,0,0-.11-.37,1.76,1.76,0,0,0-.18-.34,1.78,1.78,0,0,0-.25-.3,2,2,0,0,0-1.76-.53A1.88,1.88,0,0,0,131.12,48.94Z"/><path class="a" d="M78.86,73.78a2,2,0,1,0-2.27,1.58,2,2,0,0,0,.35,0A2,2,0,0,0,78.86,73.78Z"/><path class="a" d="M88.25,55.24a2,2,0,1,0-1.46-.66A2,2,0,0,0,88.25,55.24Z"/><path class="a" d="M79.92,64.12a2,2,0,0,0-1.53,3.61,2,2,0,0,0,.76.15A2,2,0,0,0,81,66.69h0A2,2,0,0,0,79.92,64.12Z"/><path class="a" d="M81.41,58a2,2,0,1,0,2.73-.45A2,2,0,0,0,81.41,58Z"/><path class="a" d="M91.89,106.49a2,2,0,0,0-2.33,3.15,1.93,1.93,0,0,0,1.16.38,2,2,0,0,0,1.17-3.53Z"/><path class="a" d="M99.29,112.78a2,2,0,1,0-2.57,1,2,2,0,0,0,.78.16A2,2,0,0,0,99.29,112.78Z"/><path class="a" d="M105.35,112.4a2,2,0,1,0-.74,3.84,1.86,1.86,0,0,0,.37,0,2,2,0,0,0,.37-3.88Z"/><path class="a" d="M83.69,101.26a2,2,0,1,0,2.76.2A2,2,0,0,0,83.69,101.26Z"/><path class="a" d="M82.26,95.36a2,2,0,1,0-.8,2.65A2,2,0,0,0,82.26,95.36Z"/><path class="a" d="M74.47,81.35a2,2,0,0,0,2,1.87h.09a2,2,0,1,0-2-1.87Z"/><path class="a" d="M112.73,113a2,2,0,1,0,.12,3.91s-1.08,0,0,0a2,2,0,0,0-.12-3.91Z"/><path class="a" d="M79.52,88.48a2,2,0,1,0-1.37,2.4A2,2,0,0,0,79.52,88.48Z"/><path class="a" d="M146.22,88.76a2,2,0,1,0-.4,0A1.84,1.84,0,0,0,146.22,88.76Z"/><path class="a" d="M156.11,95a2,2,0,1,0,2.53-1.12A2,2,0,0,0,156.11,95Z"/><path class="a" d="M142,93.44A2,2,0,0,0,143,96a1.92,1.92,0,0,0,.81.18A2,2,0,1,0,142,93.44Z"/><path class="a" d="M161.39,64.7l.31,0h0a2,2,0,1,0-.31,0Z"/><path class="a" d="M148.91,79.07a2,2,0,1,0-2,1.88H147A2,2,0,0,0,148.91,79.07Z"/><path class="a" d="M181.32,79.51a2,2,0,0,0-.41,3.89h.2a2,2,0,0,0,.2-3.9Z"/><path class="a" d="M172,92.62a2,2,0,1,0,2.69.64A2,2,0,0,0,172,92.62Z"/><path class="a" d="M109.73,46.4a1.95,1.95,0,1,0-.11,0Z"/><path class="a" d="M117.12,46.79l.32,0a1.95,1.95,0,1,0-.32,0Z"/><path class="a" d="M92.93,49.7A2,2,0,1,0,93.7,47,2,2,0,0,0,92.93,49.7Z"/><path class="a" d="M101.35,43.88h0a2,2,0,1,0,2.42,1.34A2,2,0,0,0,101.35,43.88Z"/><path class="a" d="M155.32,67.27a2,2,0,1,0-1.13.36A2,2,0,0,0,155.32,67.27Z"/><path class="a" d="M124.24,48.8a1.93,1.93,0,0,0,.74.15,2,2,0,0,0,.74-3.77h0a2,2,0,0,0-1.48,3.62Z"/><path class="a" d="M150.73,72.43a2,2,0,1,0-1.72,1A2,2,0,0,0,150.73,72.43Z"/><path class="a" d="M180.16,75.7a1.89,1.89,0,0,0,.68-.12,1.95,1.95,0,1,0-.68.12Z"/><path class="a" d="M169.16,65.26a2,2,0,1,0-.58-.09A1.92,1.92,0,0,0,169.16,65.26Z"/><path class="a" d="M177.22,65.82a2,2,0,1,0,.07,2.77A2,2,0,0,0,177.22,65.82Z"/><path class="a" d="M141.34,102.16a2,2,0,1,0-2.74.37,1.93,1.93,0,0,0,1.18.4A2,2,0,0,0,141.34,102.16Z"/><path class="a" d="M133.12,105.16a2,2,0,1,0,2.76.23A2,2,0,0,0,133.12,105.16Z"/><path class="a" d="M165.47,94.79a2,2,0,0,0,.17,3.9h.18a2,2,0,1,0-.35-3.89Z"/><path class="a" d="M178.57,90.77a2,2,0,1,0-1-.3A2,2,0,0,0,178.57,90.77Z"/><path class="a" d="M127,109.28a2,2,0,1,0,2.63.84A2,2,0,0,0,127,109.28Z"/><path class="a" d="M120.06,111.93a2,2,0,1,0,2.38,1.4A2,2,0,0,0,120.06,111.93Z"/><path class="a" d="M149.6,91.95a2.08,2.08,0,0,0,.18.34,2.22,2.22,0,0,0,.24.3,2,2,0,0,0,2.77,0,2.18,2.18,0,0,0,.24-.3,2,2,0,0,0,.18-.34,2.25,2.25,0,0,0,.11-.37,1.94,1.94,0,0,0-.53-1.76,2,2,0,0,0-3.34,1.38,1.71,1.71,0,0,0,0,.38A1.92,1.92,0,0,0,149.6,91.95Z"/><path class="a" d="M174.61,57.17a2.47,2.47,0,0,0,.38-.31,2.63,2.63,0,0,0,.31-.38,2.74,2.74,0,0,0,.23-.43,2.64,2.64,0,0,0,.14-.47,2.39,2.39,0,0,0,0-1A2.46,2.46,0,0,0,174.61,53a2.54,2.54,0,0,0-.9-.37,2.52,2.52,0,0,0-2.25.68,2.69,2.69,0,0,0-.31.38,2.64,2.64,0,0,0-.23.43,2.59,2.59,0,0,0-.14.47,2.39,2.39,0,0,0,0,1,2.59,2.59,0,0,0,.14.47,2.74,2.74,0,0,0,.23.43,2.66,2.66,0,0,0,.31.38,2.57,2.57,0,0,0,.81.54,2.57,2.57,0,0,0,.47.14,2.39,2.39,0,0,0,1,0,2.57,2.57,0,0,0,.47-.14A2.62,2.62,0,0,0,174.61,57.17Z"/><path class="a" d="M93,57.87a2.49,2.49,0,0,0,1.62,4.38,2.49,2.49,0,0,0,1.89-4.11A2.49,2.49,0,0,0,93,57.87Z"/><path class="a" d="M101.05,53a2.49,2.49,0,1,0,3.24,1.39A2.49,2.49,0,0,0,101.05,53Z"/><path class="a" d="M91.23,67.61a2.49,2.49,0,1,0-2.14,1.22A2.49,2.49,0,0,0,91.23,67.61Z"/><path class="a" d="M85.35,80.49a2.49,2.49,0,0,0,.31,5l.31,0a2.49,2.49,0,1,0-.62-4.94Z"/><path class="a" d="M117.44,107.78a2.49,2.49,0,1,0-.5,0A2.39,2.39,0,0,0,117.44,107.78Z"/><path class="a" d="M86.5,71.93a2.49,2.49,0,1,0-1,4.88,2.46,2.46,0,0,0,.5.05,2.49,2.49,0,0,0,.5-4.93Z"/><path class="a" d="M110.37,56h.12a2.47,2.47,0,1,0-.12,0Z"/><path class="a" d="M135.09,91.69a2.49,2.49,0,1,0-1.39-3.24A2.48,2.48,0,0,0,135.09,91.69Z"/><path class="a" d="M140.32,81.1a2.49,2.49,0,1,0-2.61,2.36h.12A2.49,2.49,0,0,0,140.32,81.1Z"/><path class="a" d="M141.16,66.72a2.49,2.49,0,1,0-.62-3.47A2.48,2.48,0,0,0,141.16,66.72Z"/><path class="a" d="M118.92,57a2.49,2.49,0,1,0-.69-.1A2.46,2.46,0,0,0,118.92,57Z"/><path class="a" d="M155.53,52.27a2.49,2.49,0,0,0,.74,4.87A2.54,2.54,0,0,0,157,57a2.49,2.49,0,0,0-1.48-4.75Z"/><path class="a" d="M141.27,73.12a2.49,2.49,0,1,0-3.08,1.71,2.46,2.46,0,0,0,.69.1A2.49,2.49,0,0,0,141.27,73.12Z"/><path class="a" d="M146.58,60a2.49,2.49,0,1,0,.54-3.48A2.49,2.49,0,0,0,146.58,60Z"/><path class="a" d="M162.29,53.41A2.49,2.49,0,0,0,164.72,56h.06a2.49,2.49,0,1,0-2.49-2.55Z"/><path class="a" d="M108.66,103.2a2.49,2.49,0,1,0-.62,4.94l.31,0a2.49,2.49,0,0,0,.31-5Z"/><path class="a" d="M133.18,94.85a2.49,2.49,0,1,0,.27,3.51A2.49,2.49,0,0,0,133.18,94.85Z"/><path class="a" d="M101.21,101a2.49,2.49,0,1,0,1.13,3.33A2.49,2.49,0,0,0,101.21,101Z"/><path class="a" d="M94.88,96.43a2.49,2.49,0,1,0,0,3.52A2.49,2.49,0,0,0,94.88,96.43Z"/><path class="a" d="M127.11,101a2.49,2.49,0,1,0-.88,3.41A2.49,2.49,0,0,0,127.11,101Z"/><path class="a" d="M90.36,90.1a2.49,2.49,0,1,0-2.23,3.59,2.53,2.53,0,0,0,1.1-.26A2.49,2.49,0,0,0,90.36,90.1Z"/><path class="a" d="M124.66,59.6A2.29,2.29,0,0,0,125,60a2.47,2.47,0,0,0,2.24.68,2.38,2.38,0,0,0,.47-.14,2.76,2.76,0,0,0,.43-.23,2.66,2.66,0,0,0,.38-.31,2.13,2.13,0,0,0,.31-.38,2.47,2.47,0,0,0,.23-.43,2.76,2.76,0,0,0,.14-.47,2.52,2.52,0,0,0,0-.49,2.49,2.49,0,0,0-.73-1.76,2.45,2.45,0,0,0-.38-.31,2.74,2.74,0,0,0-.43-.23,2.6,2.6,0,0,0-.47-.14,2.5,2.5,0,0,0-3,2.44,2.57,2.57,0,0,0,0,.49,2.85,2.85,0,0,0,.14.47A2.79,2.79,0,0,0,124.66,59.6Z"/><path class="a" d="M188.88,22.68a2.47,2.47,0,0,0,.43.23,2.33,2.33,0,0,0,.47.14,2.47,2.47,0,0,0,.49,0,2.51,2.51,0,0,0,1.76-.73,2.45,2.45,0,0,0,.31-.38,2.36,2.36,0,0,0,.23-.43,2.41,2.41,0,0,0,.14-.46,2.56,2.56,0,0,0,0-.49,2.51,2.51,0,0,0,0-.49,2.36,2.36,0,0,0-.14-.47,2.48,2.48,0,0,0-.23-.43,2.57,2.57,0,0,0-.31-.38,2.13,2.13,0,0,0-.38-.31,2.62,2.62,0,0,0-.43-.23,2.79,2.79,0,0,0-.47-.14,2.5,2.5,0,0,0-1,0,2.61,2.61,0,0,0-.47.14,2.82,2.82,0,0,0-.43.23,2.24,2.24,0,0,0-.38.31,2.4,2.4,0,0,0-.31.38,2.48,2.48,0,0,0-.23.43,2.32,2.32,0,0,0-.14.47,2.47,2.47,0,0,0,0,.49,2.52,2.52,0,0,0,.73,1.76A2.63,2.63,0,0,0,188.88,22.68Z"/><path class="a" d="M164.43,103.38a2.49,2.49,0,0,0,0,5h0a2.49,2.49,0,0,0-.07-5Z"/><path class="a" d="M171.82,102.1a2.49,2.49,0,1,0,3.16,1.54A2.49,2.49,0,0,0,171.82,102.1Z"/><path class="a" d="M187.7,96A2.49,2.49,0,1,0,185.65,97,2.49,2.49,0,0,0,187.7,96Z"/><path class="a" d="M179.93,103a2.49,2.49,0,1,0-2-1A2.49,2.49,0,0,0,179.93,103Z"/><circle class="a" cx="190.26" cy="28.94" r="2.49"/><circle class="a" cx="190.26" cy="53.9" r="2.49"/><circle class="a" cx="190.26" cy="62.22" r="2.49"/><path class="a" d="M157,102.32a2.49,2.49,0,1,0,1.64,3.11A2.49,2.49,0,0,0,157,102.32Z"/><circle class="a" cx="190.26" cy="37.26" r="2.49"/><circle class="a" cx="190.26" cy="45.58" r="2.49"/><path class="a" d="M188.52,89.46a2.48,2.48,0,0,0,3.09-1.69,2.49,2.49,0,1,0-3.09,1.69Z"/><circle class="a" cx="190.26" cy="78.86" r="2.49"/><circle class="a" cx="190.26" cy="70.54" r="2.49"/><path class="a" d="M149.79,103.29a2.49,2.49,0,0,0,.43-.23,2.26,2.26,0,0,0,.38-.31,2.42,2.42,0,0,0,.31-.38,2.76,2.76,0,0,0,.23-.43,2.66,2.66,0,0,0,.14-.47,2.56,2.56,0,0,0,0-1,2.48,2.48,0,0,0-.37-.9,2.44,2.44,0,0,0-.31-.38,2.62,2.62,0,0,0-.38-.31,2.77,2.77,0,0,0-.43-.23,2.58,2.58,0,0,0-.47-.14,2.48,2.48,0,0,0-1,0,2.77,2.77,0,0,0-.47.14,2.73,2.73,0,0,0-.43.23,2.45,2.45,0,0,0-.38.31,2.69,2.69,0,0,0-.31.38,2.38,2.38,0,0,0-.23.43,2.36,2.36,0,0,0-.14.47,2.39,2.39,0,0,0,0,1,2.37,2.37,0,0,0,.14.47,2.48,2.48,0,0,0,.23.43,2.66,2.66,0,0,0,.31.38,2.13,2.13,0,0,0,.38.31,2.46,2.46,0,0,0,.43.23,2.77,2.77,0,0,0,.47.14,2.56,2.56,0,0,0,.49,0,2.51,2.51,0,0,0,.49,0A2.58,2.58,0,0,0,149.79,103.29Z"/><path class="a" d="M170.6,46.68a2.71,2.71,0,0,0,.26.49,2.79,2.79,0,0,0,.36.43,2.57,2.57,0,0,0,.43.35,2.94,2.94,0,0,0,.49.26,2.86,2.86,0,0,0,.53.16,2.74,2.74,0,0,0,1.11,0,2.75,2.75,0,0,0,.53-.16,2.8,2.8,0,0,0,.49-.26,2.88,2.88,0,0,0,.43-.35,2.76,2.76,0,0,0,.36-.43,2.94,2.94,0,0,0,.26-.49,2.74,2.74,0,0,0,.16-.53,3,3,0,0,0,.05-.56A2.93,2.93,0,0,0,176,45a2.83,2.83,0,0,0-.16-.53,3.18,3.18,0,0,0-.26-.49,2.57,2.57,0,0,0-.36-.43,2.9,2.9,0,0,0-.43-.36,2.85,2.85,0,0,0-.49-.26,2.73,2.73,0,0,0-.53-.16,2.79,2.79,0,0,0-1.11,0,2.84,2.84,0,0,0-.53.16,3,3,0,0,0-.49.26,2.95,2.95,0,0,0-.79.79,2.91,2.91,0,0,0-.26.49,2.87,2.87,0,0,0-.16.53,2.93,2.93,0,0,0-.06.55,3,3,0,0,0,.06.56A2.77,2.77,0,0,0,170.6,46.68Z"/><path class="a" d="M104.57,98.35a2.89,2.89,0,0,0,1,.18,2.84,2.84,0,1,0-1-.18Z"/><path class="a" d="M135.52,54.41a2.84,2.84,0,1,0,4-.25A2.84,2.84,0,0,0,135.52,54.41Z"/><path class="a" d="M163.55,47.24h0a2.85,2.85,0,1,0-2.89-2.8A2.85,2.85,0,0,0,163.59,47.24Z"/><path class="a" d="M114.62,93.66a2.84,2.84,0,0,0,.58,5.63,3.05,3.05,0,0,0,.59-.06,2.85,2.85,0,0,0-1.17-5.57Z"/><path class="a" d="M94.56,83.65h.19a2.84,2.84,0,0,0,2.65-3h0a2.85,2.85,0,1,0-2.84,3Z"/><path class="a" d="M145.06,52.8a2.81,2.81,0,0,0,1.53-.45,2.85,2.85,0,1,0-3.07-4.79h0a2.84,2.84,0,0,0,1.54,5.24Z"/><path class="a" d="M123.7,94.71a2.85,2.85,0,1,0-2-.85A2.82,2.82,0,0,0,123.7,94.71Z"/><path class="a" d="M128.39,86.28a2.84,2.84,0,1,0-2.78-3.47h0a2.85,2.85,0,0,0,2.15,3.4A2.9,2.9,0,0,0,128.39,86.28Z"/><path class="a" d="M134.82,65.65A2.84,2.84,0,1,0,131,67a2.8,2.8,0,0,0,1.23.28A2.84,2.84,0,0,0,134.82,65.65Z"/><path class="a" d="M132.1,74.19a2.84,2.84,0,1,0-3.28,2.33,2.74,2.74,0,0,0,.48,0A2.85,2.85,0,0,0,132.1,74.19Z"/><path class="a" d="M153.91,48.72a2.85,2.85,0,1,0-2.72-2A2.84,2.84,0,0,0,153.91,48.72Z"/><path class="a" d="M97.89,92.71a2.81,2.81,0,0,0,1.69-.56,2.84,2.84,0,1,0-1.69.56Z"/><path class="a" d="M110.11,62.37a2.84,2.84,0,0,0,2.62,3h.21a2.84,2.84,0,1,0-2.84-3.05Z"/><path class="a" d="M94.17,70A2.84,2.84,0,1,0,98,68.9,2.84,2.84,0,0,0,94.17,70Z"/><path class="a" d="M103.51,67.44a2.84,2.84,0,1,0-2.5-1.49A2.86,2.86,0,0,0,103.51,67.44Z"/><path class="a" d="M119.41,67.11a3.08,3.08,0,0,0,.26.49A3,3,0,0,0,120,68a2.77,2.77,0,0,0,.43.35,2.72,2.72,0,0,0,.49.26,2.78,2.78,0,0,0,.53.16,2.74,2.74,0,0,0,1.11,0,2.9,2.9,0,0,0,.53-.16,3,3,0,0,0,.49-.26A2.93,2.93,0,0,0,124,68a2.84,2.84,0,1,0-4.85-2,3,3,0,0,0,.05.56A3.05,3.05,0,0,0,119.41,67.11Z"/><path class="a" d="M196.73,21.7a2.82,2.82,0,0,0,.26.49,2.76,2.76,0,0,0,.36.43,2.92,2.92,0,0,0,.43.35,3,3,0,0,0,.49.26,2.87,2.87,0,0,0,.53.16,2.67,2.67,0,0,0,.55.06,2.71,2.71,0,0,0,.56-.06,2.81,2.81,0,0,0,1-.42,3,3,0,0,0,.43-.35,2.74,2.74,0,0,0,.35-.43,2.84,2.84,0,0,0,.26-.49,3.05,3.05,0,0,0,.16-.53,2.92,2.92,0,0,0,0-1.11,3,3,0,0,0-.16-.53,2.86,2.86,0,0,0-.26-.49,2.72,2.72,0,0,0-.35-.43,2.76,2.76,0,0,0-.43-.35,2.66,2.66,0,0,0-.49-.26,2.75,2.75,0,0,0-.53-.16,2.79,2.79,0,0,0-1.11,0,2.87,2.87,0,0,0-.53.16,2.9,2.9,0,0,0-.49.26,2.69,2.69,0,0,0-.43.35A2.74,2.74,0,0,0,197,19a2.84,2.84,0,0,0-.26.49,2.73,2.73,0,0,0-.16.53,2.72,2.72,0,0,0,0,1.11A2.79,2.79,0,0,0,196.73,21.7Z"/><circle class="a" cx="199.36" cy="30.36" r="2.85"/><circle class="a" cx="199.36" cy="59.6" r="2.84"/><circle class="a" cx="199.36" cy="79.09" r="2.84"/><path class="a" d="M198.91,86a2.84,2.84,0,0,0-1.46,5.5,2.88,2.88,0,0,0,.73.1,2.84,2.84,0,0,0,.73-5.59Z"/><path class="a" d="M195.87,95.24a2.84,2.84,0,1,0,1,3.9A2.84,2.84,0,0,0,195.87,95.24Z"/><circle class="a" cx="199.36" cy="49.85" r="2.84"/><circle class="a" cx="199.36" cy="69.34" r="2.84"/><path class="a" d="M186.39,103.2a2.84,2.84,0,1,0,4,.11A2.85,2.85,0,0,0,186.39,103.2Z"/><circle class="a" cx="199.36" cy="40.1" r="2.84"/><path class="a" d="M179.13,108.41a2.84,2.84,0,0,0,1.33,5.36,2.8,2.8,0,0,0,1.32-.33,2.84,2.84,0,0,0-2.65-5Z"/><path class="a" d="M153.08,110.19a2.85,2.85,0,1,0,1.71,3.64A2.84,2.84,0,0,0,153.08,110.19Z"/><path class="a" d="M161.82,112a2.84,2.84,0,1,0-.39,5.68h.2a2.84,2.84,0,0,0,.19-5.68Z"/><path class="a" d="M170.73,111.42a2.84,2.84,0,0,0,.58,5.63,3,3,0,0,0,.58-.06,2.84,2.84,0,1,0-1.16-5.57Z"/><path class="a" d="M146.13,107.24a3.11,3.11,0,0,0-.26-.49,3,3,0,0,0-.36-.43,2.87,2.87,0,0,0-2.57-.78,3,3,0,0,0-1,.42,2.93,2.93,0,0,0-.43.36,3,3,0,0,0-.36.43,3.07,3.07,0,0,0-.26.49,2.77,2.77,0,0,0-.16.53,2.91,2.91,0,0,0,0,1.11,2.76,2.76,0,0,0,.16.53,3.09,3.09,0,0,0,.26.49,3.17,3.17,0,0,0,.36.43,2.8,2.8,0,0,0,.43.36,2.73,2.73,0,0,0,.49.26,2.77,2.77,0,0,0,.53.16,3,3,0,0,0,.56.06,2.86,2.86,0,0,0,2-.84,3.16,3.16,0,0,0,.36-.43,3.13,3.13,0,0,0,.26-.49,2.76,2.76,0,0,0,.16-.53,2.76,2.76,0,0,0,0-1.11A2.77,2.77,0,0,0,146.13,107.24Z"/><path class="a" d="M73.53,33l0,0a4.22,4.22,0,0,0-6.12,5.8l0,0A4.22,4.22,0,0,0,73.53,33Zm-1.59,4.45a2.07,2.07,0,0,1-3-.16l0,0a2,2,0,0,1,0-2.93,2.07,2.07,0,0,1,3,.16l0,0A2,2,0,0,1,71.94,37.45Z"/><path class="a" d="M78.74,35.53a1.1,1.1,0,0,0,1.86-1.19l-1.25-2A3,3,0,0,0,82,32.06c1.56-1,2.23-3.11.83-5.3l0,0c-1.4-2.19-3.62-2.47-5.15-1.49a2.86,2.86,0,0,0-1.37,2.37l-.05-.09a1.1,1.1,0,1,0-1.86,1.19Zm-.53-8.4a2,2,0,0,1,2.76.79l0,0a1.91,1.91,0,1,1-3.2,2l0,0A2,2,0,0,1,78.21,27.13Z"/><path class="a" d="M85.26,25.59a3.9,3.9,0,0,0,5.29,2.18,4,4,0,0,0,2.14-1.9.87.87,0,0,0,0-.72.84.84,0,0,0-1.12-.48.82.82,0,0,0-.43.36,2.54,2.54,0,0,1-1.25,1.08,1.81,1.81,0,0,1-2.34-.69l4-1.66a1,1,0,0,0,.55-1.37,3.68,3.68,0,0,0-4.89-2,3.88,3.88,0,0,0-2,5.21ZM87.95,22a1.67,1.67,0,0,1,2.15.91L87,24.17A1.74,1.74,0,0,1,87.95,22Z"/><path class="a" d="M95.87,24.57A1.1,1.1,0,0,0,98,24.1l-.72-3.25c-.23-1,.18-1.66,1-1.84s1.42.24,1.65,1.26l.72,3.25a1.1,1.1,0,1,0,2.16-.48L102,19.1c-.38-1.75-1.57-2.61-3.21-2.25a2.76,2.76,0,0,0-2,1.71l0-.08a1.1,1.1,0,0,0-2.16.48Z"/><path class="a" d="M108.87,23.71a2.86,2.86,0,0,0,2.38-1.35v.1a1.1,1.1,0,0,0,2.21-.08l-.3-8.57a1.1,1.1,0,1,0-2.21.08l.1,2.82a3,3,0,0,0-2.47-1.08c-1.84.06-3.49,1.55-3.4,4.15v0C105.28,22.41,107.05,23.77,108.87,23.71Zm.35-6.22a2,2,0,0,1,2,2.08v0a1.91,1.91,0,1,1-3.79.13v0A2,2,0,0,1,109.22,17.48Z"/><path class="a" d="M118.37,24.06a3,3,0,0,0,2.47-.64h0a1,1,0,0,0,.92,1.06,1.06,1.06,0,0,0,1.22-.9l.51-3.51A3.4,3.4,0,0,0,123,17.5a3.6,3.6,0,0,0-2.48-1.24,6.76,6.76,0,0,0-2.52,0,.92.92,0,0,0-.71.76.9.9,0,0,0,.78,1,.93.93,0,0,0,.32,0,5.09,5.09,0,0,1,1.54,0c1.09.16,1.58.74,1.45,1.65l0,.13a5.55,5.55,0,0,0-1.84-.59c-1.83-.26-3.22.33-3.46,2v0A2.41,2.41,0,0,0,118.37,24.06Zm-.18-2.55c.1-.69.73-1,1.66-.85a3.42,3.42,0,0,1,1.35.49l-.06.39c-.11.79-.89,1.25-1.91,1.11-.7-.1-1.14-.52-1.06-1.11Z"/><path class="a" d="M127.89,26.08a3.26,3.26,0,0,0,1.27.15.9.9,0,0,0,.78-.63.92.92,0,0,0-.62-1.14l-.25-.06c-.47-.14-.61-.44-.47-.93l.94-3.19.93.28a.94.94,0,0,0,.53-1.81l-.93-.28.28-.93a1.1,1.1,0,1,0-2.12-.62l-.28.93-.07,0a.94.94,0,0,0-.53,1.81l.07,0-1,3.54C125.87,24.93,126.59,25.7,127.89,26.08Z"/><path class="a" d="M133.88,28.31a3,3,0,0,0,2.55.08h0a1,1,0,0,0,.58,1.27,1.06,1.06,0,0,0,1.42-.52l1.48-3.22a3.4,3.4,0,0,0,.27-2.61,3.6,3.6,0,0,0-2-1.89,6.76,6.76,0,0,0-2.43-.67.91.91,0,0,0-.9.53.9.9,0,0,0,.46,1.2,1,1,0,0,0,.31.08,5.08,5.08,0,0,1,1.48.44c1,.46,1.31,1.16.92,2l-.05.12a5.53,5.53,0,0,0-1.6-1.08c-1.68-.77-3.18-.6-3.89.95v0A2.41,2.41,0,0,0,133.88,28.31Zm.54-2.47v0c.29-.63,1-.73,1.84-.34a3.42,3.42,0,0,1,1.16.85l-.16.36a1.51,1.51,0,0,1-2.14.52C134.48,26.9,134.17,26.38,134.42,25.84Z"/><circle class="a" cx="142.57" cy="131.41" r="0.15"/><circle class="a" cx="134.5" cy="135.45" r="0.3"/><circle class="a" cx="125.92" cy="138.23" r="0.45"/><circle class="a" cx="117.02" cy="139.72" r="0.6"/><circle class="a" cx="108" cy="139.88" r="0.75"/><circle class="a" cx="99.06" cy="138.69" r="0.9"/><circle class="a" cx="90.4" cy="136.16" r="1.05"/><circle class="a" cx="82.21" cy="132.38" r="1.2"/><circle class="a" cx="74.68" cy="127.42" r="1.35"/><circle class="a" cx="67.96" cy="121.39" r="1.5"/><circle class="a" cx="62.21" cy="114.44" r="1.65"/><circle class="a" cx="57.57" cy="106.71" r="1.8"/><circle class="a" cx="54.14" cy="98.36" r="1.95"/><circle class="a" cx="51.99" cy="89.6" r="2.1"/><circle class="a" cx="51.16" cy="80.62" r="2.25"/><circle class="a" cx="51.67" cy="71.61" r="2.4"/><circle class="a" cx="53.53" cy="62.78" r="2.55"/><circle class="a" cx="56.69" cy="54.33" r="2.7"/><circle class="a" cx="61.08" cy="46.44" r="2.84"/><circle class="a" cx="181.41" cy="62.22" r="1.96"/><circle class="a" cx="181.16" cy="53.53" r="1.96"/><circle class="a" cx="181.16" cy="45.3" r="1.96"/><circle class="a" cx="181.16" cy="37.07" r="1.96"/><circle class="a" cx="181.16" cy="28.84" r="1.96"/><circle class="a" cx="181.16" cy="20.61" r="1.96"/></svg>