<?xml version="1.0" standalone="no"?>
<!DOCTYPE svg PUBLIC "-//W3C//DTD SVG 20010904//EN"
 "http://www.w3.org/TR/2001/REC-SVG-20010904/DTD/svg10.dtd">
<svg version="1.0" xmlns="http://www.w3.org/2000/svg"
 width="200.000000pt" height="160.000000pt" viewBox="0 0 200.000000 160.000000"
 preserveAspectRatio="xMidYMid meet">

<g transform="translate(0.000000,160.000000) scale(0.100000,-0.100000)"
fill="#000000" stroke="none">
<path d="M1030 1415 l0 -155 35 0 35 0 1 88 0 87 32 -62 c42 -85 65 -86 106
-5 l30 57 1 -82 0 -83 40 0 41 0 -3 153 -3 152 -37 3 -37 3 -42 -83 -42 -83
-41 83 c-40 81 -41 82 -78 82 l-38 0 0 -155z"/>
<path d="M1860 1514 c0 -55 0 -55 -22 -40 -34 24 -74 20 -109 -12 -59 -53 -48
-161 21 -197 37 -19 57 -19 94 0 26 14 31 14 47 -1 26 -23 53 -14 57 20 2 16
-1 33 -7 39 -7 7 -11 58 -11 129 l0 118 -35 0 -35 0 0 -56z m-19 -94 c14 -8
19 -21 19 -51 0 -32 -5 -41 -24 -50 -51 -24 -94 36 -62 86 18 27 36 31 67 15z"/>
<path d="M617 1543 c-16 -15 -4 -48 32 -92 97 -117 161 -249 187 -390 21 -108
25 -116 60 -116 26 0 29 4 32 37 4 49 -31 192 -67 278 -58 134 -173 290 -215
290 -13 0 -26 -3 -29 -7z"/>
<path d="M34 1497 c-16 -41 -2 -51 91 -64 111 -16 193 -53 269 -122 31 -28 60
-51 65 -51 52 0 56 55 7 98 -106 93 -217 141 -343 149 -69 5 -84 3 -89 -10z"/>
<path d="M1474 1480 c-28 -11 -61 -54 -69 -89 -8 -37 16 -95 49 -116 39 -26
95 -29 136 -8 19 10 36 25 38 34 4 22 -48 32 -69 13 -20 -18 -44 -18 -63 2
-29 28 -17 34 69 34 95 0 100 5 71 75 -23 54 -100 80 -162 55z m84 -52 c25
-25 13 -38 -33 -38 -30 0 -45 4 -45 13 0 19 21 37 45 37 12 0 26 -5 33 -12z"/>
<path d="M46 1364 c-19 -18 -19 -20 -6 -43 6 -13 26 -20 64 -25 73 -8 150 -38
207 -80 78 -58 149 -189 149 -276 0 -50 20 -75 53 -66 25 6 27 11 27 54 -1
114 -48 221 -135 308 -68 69 -136 107 -227 129 -81 19 -113 19 -132 -1z"/>
<path d="M597 1353 c-13 -12 -7 -48 14 -78 122 -180 146 -384 67 -588 -24 -64
-27 -81 -17 -93 38 -46 94 35 123 178 39 187 3 379 -98 531 -27 41 -44 57 -60
57 -13 0 -26 -3 -29 -7z"/>
<path d="M1030 1075 l0 -155 35 0 34 0 3 86 3 86 68 -86 c58 -73 73 -86 98
-86 l29 0 0 155 0 155 -35 0 -34 0 -3 -87 -3 -88 -70 87 c-57 72 -75 88 -97
88 l-28 0 0 -155z"/>
<path d="M562 1158 c-16 -16 -15 -32 8 -106 27 -85 26 -187 -1 -279 -25 -84
-21 -106 18 -101 32 4 45 26 69 119 43 169 -25 436 -94 367z"/>
<path d="M1332 1050 c2 -76 7 -103 20 -116 22 -22 94 -21 120 3 19 17 20 17
29 0 6 -10 22 -17 39 -17 26 0 30 4 30 29 0 17 -4 33 -10 36 -5 3 -10 42 -10
86 l0 79 -35 0 -35 0 0 -80 c0 -78 -1 -81 -27 -91 -40 -15 -53 9 -53 98 l0 73
-36 0 -36 0 4 -100z"/>
<path d="M1590 1035 l0 -115 35 0 35 0 0 69 c0 73 16 105 49 99 13 -3 17 -19
19 -86 l3 -82 34 0 35 0 0 64 c0 76 22 113 58 102 20 -7 22 -14 22 -87 l0 -79
35 0 35 0 0 93 c0 113 -12 137 -68 137 -21 0 -48 -7 -60 -16 -21 -15 -25 -15
-41 0 -22 20 -80 21 -109 0 -20 -14 -22 -14 -22 0 0 11 -10 16 -30 16 l-30 0
0 -115z"/>
<path d="M48 959 c-12 -6 -18 -22 -18 -45 0 -28 5 -36 26 -44 29 -11 58 0 68
26 9 25 7 33 -14 54 -22 22 -37 24 -62 9z"/>
<path d="M1030 735 l0 -115 68 0 c73 0 83 4 101 37 12 23 0 73 -18 73 -5 0 -3
13 5 30 13 25 13 34 2 57 -12 26 -18 28 -86 31 l-72 3 0 -116z m124 79 c35
-34 11 -64 -51 -64 l-43 0 0 40 c0 40 0 40 39 40 23 0 46 -7 55 -16z m17 -116
c10 -18 8 -24 -11 -40 -13 -10 -38 -18 -61 -18 -39 0 -39 0 -39 40 l0 40 50 0
c40 0 51 -4 61 -22z"/>
<path d="M1230 735 c0 -96 3 -115 15 -115 11 0 15 12 15 50 l0 50 55 0 c42 0
55 3 55 15 0 12 -13 15 -56 15 l-55 0 3 38 3 37 63 3 c90 4 76 22 -18 22 l-80
0 0 -115z"/>
<path d="M1437 829 c-39 -30 -52 -87 -31 -138 27 -67 89 -90 154 -56 31 16 41
45 15 45 -8 0 -15 -4 -15 -9 0 -5 -13 -14 -29 -21 -65 -26 -127 52 -98 122 24
58 98 72 129 24 5 -8 11 -7 20 2 11 11 9 17 -11 33 -32 26 -100 25 -134 -2z"/>
<path d="M315 810 c-23 -44 -74 -99 -118 -127 -31 -20 -38 -29 -35 -51 5 -41
40 -40 102 1 74 49 138 150 122 192 -10 27 -54 18 -71 -15z"/>
<path d="M270 475 c-15 -18 -7 -31 32 -51 28 -15 29 -17 14 -32 -13 -14 -20
-14 -36 -4 -12 7 -20 8 -20 2 0 -16 49 -23 65 -10 22 19 19 29 -20 52 -41 23
-41 44 -1 41 14 -1 24 2 21 8 -9 14 -41 11 -55 -6z"/>
<path d="M384 475 c-8 -20 2 -45 18 -44 10 0 10 2 1 6 -18 7 -16 32 2 39 8 4
23 0 33 -7 15 -13 16 -12 3 4 -17 21 -50 22 -57 2z"/>
<path d="M567 472 c-33 -36 -10 -102 36 -102 23 0 57 36 57 60 0 25 -34 60
-58 60 -11 0 -26 -8 -35 -18z m69 -17 c15 -23 15 -27 0 -50 -28 -43 -76 -27
-76 25 0 52 48 68 76 25z"/>
<path d="M1158 479 c-10 -5 -18 -18 -18 -27 0 -13 3 -12 16 6 17 25 43 28 64
10 12 -11 12 -10 1 5 -15 19 -37 21 -63 6z"/>
<path d="M1351 471 c-12 -12 -21 -30 -21 -41 0 -28 37 -62 63 -58 12 2 28 15
37 31 13 24 13 30 0 55 -20 34 -53 39 -79 13z m63 -7 c9 -8 16 -24 16 -34 0
-22 -25 -50 -45 -50 -20 0 -45 28 -45 50 0 22 25 50 45 50 7 0 21 -7 29 -16z"/>
<path d="M35 425 c0 -31 4 -55 10 -55 6 0 9 18 7 43 -3 41 -2 42 12 17 20 -33
20 -17 1 20 -22 43 -30 37 -30 -25z"/>
<path d="M125 450 c-19 -37 -19 -53 1 -20 14 25 15 24 12 -17 -2 -25 1 -43 7
-43 6 0 10 24 10 55 0 62 -8 68 -30 25z"/>
<path d="M195 425 c0 -30 5 -55 10 -55 6 0 10 25 10 55 0 30 -4 55 -10 55 -5
0 -10 -25 -10 -55z"/>
<path d="M490 470 c0 -5 5 -10 10 -10 6 0 10 5 10 10 0 6 -4 10 -10 10 -5 0
-10 -4 -10 -10z"/>
<path d="M695 425 c0 -30 5 -55 10 -55 6 0 9 20 6 47 -3 44 -2 46 14 33 17
-14 17 -14 4 8 -23 36 -34 25 -34 -33z"/>
<path d="M779 434 c2 -37 0 -45 -10 -38 -10 6 -10 3 1 -11 17 -20 17 -20 22
53 2 24 -1 42 -7 42 -6 0 -9 -19 -6 -46z"/>
<path d="M895 425 c0 -34 4 -55 11 -55 7 0 9 10 6 25 -6 34 16 33 46 -2 l24
-28 -15 26 c-14 24 -14 28 0 42 23 22 1 47 -41 47 -31 0 -31 0 -31 -55z m70
25 c0 -9 -11 -16 -27 -18 -23 -3 -28 1 -28 18 0 17 5 21 28 18 16 -2 27 -9 27
-18z"/>
<path d="M1015 425 l0 -55 38 0 c20 0 37 4 37 8 0 5 -13 7 -30 4 -26 -4 -30
-1 -30 18 0 18 4 21 25 18 16 -3 25 -1 25 7 0 8 -9 10 -25 7 -21 -3 -25 0 -25
18 0 19 4 22 30 18 17 -3 30 -1 30 4 0 4 -17 8 -37 8 l-38 0 0 -55z"/>
<path d="M1275 425 c0 -30 5 -55 10 -55 6 0 10 25 10 55 0 30 -4 55 -10 55 -5
0 -10 -25 -10 -55z"/>
<path d="M1485 425 c0 -30 5 -55 10 -55 6 0 9 20 7 48 -4 45 -3 46 13 27 17
-19 17 -19 3 4 -24 41 -33 34 -33 -24z"/>
<path d="M1568 435 c3 -30 0 -45 -8 -45 -6 0 -8 -4 -5 -10 14 -23 23 -7 27 45
2 33 -1 55 -7 55 -6 0 -9 -19 -7 -45z"/>
<path d="M1660 474 c0 -3 7 -12 15 -20 21 -22 19 -44 -6 -44 -16 0 -19 4 -13
23 8 27 4 22 -24 -25 -17 -30 -18 -38 -7 -38 8 0 14 6 13 13 -2 8 9 12 32 12
23 0 34 -4 33 -12 -2 -7 3 -13 11 -13 10 0 7 14 -12 55 -14 30 -29 55 -34 55
-4 0 -8 -3 -8 -6z"/>
<path d="M1760 470 c0 -5 5 -10 10 -10 6 0 10 5 10 10 0 6 -4 10 -10 10 -5 0
-10 -4 -10 -10z"/>
<path d="M1868 425 l4 -55 36 2 37 1 -32 4 c-43 6 -47 40 -5 46 l27 4 -27 2
c-21 1 -28 6 -28 22 0 18 5 21 30 17 17 -3 30 -1 30 4 0 4 -17 8 -37 8 l-38 0
3 -55z"/>
<path d="M429 422 c8 -6 11 -17 8 -26 -7 -18 -37 -21 -55 -6 -7 5 -6 3 2 -6
21 -24 68 -11 64 18 -2 12 -10 23 -18 25 -12 4 -13 3 -1 -5z"/>
<path d="M1137 411 c7 -28 48 -49 70 -35 22 14 36 54 19 54 -7 0 -12 -10 -12
-22 1 -35 -34 -36 -61 -2 -20 26 -22 27 -16 5z"/>
<path d="M82 388 c2 -5 8 -9 13 -9 5 0 11 4 13 9 1 5 -4 9 -13 9 -9 0 -14 -4
-13 -9z"/>
<path d="M490 380 c0 -5 5 -10 10 -10 6 0 10 5 10 10 0 6 -4 10 -10 10 -5 0
-10 -4 -10 -10z"/>
<path d="M1790 380 l-35 -7 38 -2 c20 0 37 4 37 9 0 6 -1 9 -2 9 -2 -1 -19 -5
-38 -9z"/>
<path d="M1105 340 c-3 -6 1 -7 9 -4 18 7 21 14 7 14 -6 0 -13 -4 -16 -10z"/>
<path d="M171 301 c-12 -12 -21 -30 -21 -41 0 -28 37 -62 63 -58 12 2 28 15
37 31 13 24 13 30 0 55 -20 34 -53 39 -79 13z m63 -7 c9 -8 16 -24 16 -34 0
-22 -25 -50 -45 -50 -20 0 -45 28 -45 50 0 22 25 50 45 50 7 0 21 -7 29 -16z"/>
<path d="M905 260 c0 -50 3 -60 17 -60 13 0 16 7 12 38 l-4 37 18 -37 c9 -21
20 -38 23 -38 4 0 14 17 23 38 l16 37 -4 -37 c-4 -31 -1 -38 12 -38 14 0 17
10 17 60 0 74 -22 83 -47 18 l-16 -43 -18 43 c-26 65 -49 57 -49 -18z"/>
<path d="M1075 260 l0 -60 43 0 c31 0 42 4 39 13 -2 7 -15 11 -30 9 -20 -3
-27 1 -27 13 0 13 6 16 25 11 18 -5 25 -2 25 9 0 9 -9 15 -25 15 -16 0 -25 6
-25 16 0 11 8 14 27 12 15 -2 28 2 30 10 3 8 -8 12 -39 12 l-43 0 0 -60z"/>
<path d="M1195 260 c0 -58 1 -60 25 -60 38 0 70 27 70 59 0 35 -28 61 -66 61
-29 0 -29 0 -29 -60z m70 20 c9 -30 -4 -60 -26 -60 -16 0 -19 7 -19 40 0 33 3
40 19 40 11 0 23 -9 26 -20z"/>
<path d="M1325 260 c0 -47 3 -60 15 -60 12 0 15 13 15 60 0 47 -3 60 -15 60
-12 0 -15 -13 -15 -60z"/>
<path d="M1419 293 c-6 -16 -17 -41 -25 -57 -18 -37 -18 -36 7 -36 15 0 19 5
15 15 -4 11 2 15 24 15 22 0 28 -4 24 -15 -4 -10 0 -15 15 -15 25 0 25 -1 7
36 -8 16 -19 41 -25 57 -6 15 -15 27 -21 27 -6 0 -15 -12 -21 -27z m34 -28 c7
-16 -8 -29 -23 -20 -10 6 -2 35 10 35 4 0 10 -7 13 -15z"/>
<path d="M1520 305 c0 -9 6 -12 16 -8 15 5 16 0 12 -45 -4 -44 -3 -52 12 -52
15 0 16 8 12 52 -4 45 -3 50 12 45 10 -4 16 -1 16 8 0 11 -11 15 -40 15 -29 0
-40 -4 -40 -15z"/>
<path d="M1625 260 c0 -47 3 -60 15 -60 12 0 15 13 15 60 0 47 -3 60 -15 60
-12 0 -15 -13 -15 -60z"/>
<path d="M1710 300 c-11 -11 -20 -29 -20 -40 0 -26 34 -60 60 -60 26 0 60 34
60 60 0 11 -9 29 -20 40 -11 11 -29 20 -40 20 -11 0 -29 -9 -40 -20z m70 -15
c15 -18 10 -45 -12 -59 -35 -22 -74 27 -48 59 16 19 44 19 60 0z"/>
<path d="M1845 260 c0 -49 3 -60 17 -60 13 0 15 8 11 43 l-5 42 27 -42 c14
-24 30 -43 36 -43 5 0 9 20 9 44 0 24 3 51 6 60 4 11 0 16 -13 16 -16 0 -18
-6 -15 -42 l3 -43 -26 43 c-37 59 -50 55 -50 -18z"/>
<path d="M35 255 c0 -34 4 -55 11 -55 7 0 9 10 6 25 -4 21 -1 25 21 25 13 0
30 7 37 15 18 22 -4 45 -44 45 -31 0 -31 0 -31 -55z m70 25 c0 -9 -11 -16 -27
-18 -23 -3 -28 1 -28 18 0 17 5 21 28 18 16 -2 27 -9 27 -18z"/>
<path d="M300 264 c4 -25 13 -50 21 -55 20 -13 45 -11 57 4 14 17 20 97 7 97
-6 0 -9 -18 -7 -44 3 -38 1 -45 -18 -51 -33 -10 -52 12 -48 57 2 23 -1 38 -8
38 -7 0 -9 -15 -4 -46z"/>
<path d="M435 255 c0 -34 4 -55 11 -55 7 0 9 10 6 25 -3 18 0 25 12 25 8 0 23
-11 32 -25 9 -14 21 -25 27 -25 5 0 2 9 -7 19 -14 16 -15 23 -5 39 20 31 5 52
-38 52 l-38 0 0 -55z m70 25 c0 -9 -11 -16 -27 -18 -23 -3 -28 1 -28 18 0 17
5 21 28 18 16 -2 27 -9 27 -18z"/>
<path d="M610 300 c0 -5 5 -10 10 -10 6 0 10 5 10 10 0 6 -4 10 -10 10 -5 0
-10 -4 -10 -10z"/>
<path d="M752 293 c-5 -10 -17 -35 -25 -55 -14 -32 -14 -38 -2 -38 9 0 12 6 9
15 -5 12 2 15 31 15 29 0 36 -3 31 -15 -3 -9 0 -15 9 -15 11 0 9 11 -9 51 -29
62 -32 65 -44 42z m16 -51 c-27 -5 -32 2 -18 29 l13 22 13 -24 c11 -22 11 -24
-8 -27z"/>
<path d="M640 210 l-35 -7 38 -2 c20 0 37 4 37 9 0 6 -1 9 -2 9 -2 -1 -19 -5
-38 -9z"/>
<path d="M505 170 c-3 -6 1 -7 9 -4 18 7 21 14 7 14 -6 0 -13 -4 -16 -10z"/>
<path d="M35 90 c0 -49 3 -60 17 -60 13 0 15 8 11 43 l-5 42 27 -42 c14 -24
30 -43 36 -43 5 0 9 20 9 44 0 24 3 51 6 60 4 11 0 16 -13 16 -16 0 -18 -6
-15 -42 l3 -43 -26 43 c-37 59 -50 55 -50 -18z"/>
<path d="M177 103 c10 -98 86 -98 96 0 4 39 2 47 -12 47 -14 0 -17 -9 -17 -47
1 -42 -2 -48 -19 -48 -17 0 -20 6 -19 48 0 38 -3 47 -17 47 -14 0 -16 -8 -12
-47z"/>
<path d="M305 90 c0 -50 3 -60 17 -60 13 0 16 7 12 37 l-4 38 18 -37 c9 -21
20 -38 23 -38 4 0 14 17 23 37 l16 38 -4 -38 c-4 -30 -1 -37 12 -37 14 0 17
10 17 60 0 74 -22 83 -47 18 l-16 -43 -18 43 c-26 65 -49 57 -49 -18z"/>
<path d="M475 90 l0 -60 43 0 c31 0 42 4 39 13 -2 7 -15 11 -30 9 -20 -3 -27
1 -27 13 0 13 6 16 25 11 18 -5 25 -2 25 9 0 9 -9 15 -25 15 -16 0 -25 6 -25
16 0 11 8 14 27 12 15 -2 28 2 30 10 3 8 -8 12 -39 12 l-43 0 0 -60z"/>
<path d="M595 90 c0 -51 3 -60 18 -60 14 0 17 5 12 20 -9 28 18 26 38 -3 8
-12 18 -19 22 -15 4 4 2 14 -4 22 -10 11 -9 19 1 35 19 31 0 55 -48 59 l-39 3
0 -61z m70 20 c0 -8 -10 -16 -22 -18 -18 -3 -23 2 -23 18 0 16 5 21 23 18 12
-2 22 -10 22 -18z"/>
<path d="M715 90 c0 -47 3 -60 15 -60 12 0 15 13 15 60 0 47 -3 60 -15 60 -12
0 -15 -13 -15 -60z"/>
<path d="M800 130 c-23 -23 -25 -39 -9 -72 13 -28 72 -58 91 -47 10 7 9 9 -4
9 -22 0 -23 13 -3 30 23 19 19 66 -7 84 -30 21 -44 20 -68 -4z m60 -14 c20
-26 8 -61 -22 -64 -22 -3 -29 2 -34 22 -11 44 29 74 56 42z"/>
<path d="M926 118 c3 -18 7 -43 10 -55 8 -42 80 -42 88 0 16 79 16 87 -2 87
-15 0 -18 -8 -18 -47 1 -45 -1 -48 -24 -48 -23 0 -25 3 -24 48 0 39 -3 47 -18
47 -14 0 -17 -6 -12 -32z"/>
<path d="M1065 90 l0 -60 43 0 c28 0 42 4 42 13 0 9 -10 12 -30 9 -23 -3 -30
0 -30 13 0 13 6 16 25 11 18 -5 25 -2 25 9 0 9 -9 15 -25 15 -16 0 -25 6 -25
16 0 11 8 14 27 12 15 -2 28 2 30 10 3 8 -8 12 -39 12 l-43 0 0 -60z"/>
</g>
</svg>
