<?xml version="1.0" encoding="UTF-8" standalone="no"?>
<svg height="660" width="600" xmlns="http://www.w3.org/2000/svg" xmlns:xlink="http://www.w3.org/1999/xlink"><radialGradient id="a" cx="221.44487" cy="226.33101" gradientTransform="matrix(1.353218 0 0 1.348928 -77.62935 -85.74693)" gradientUnits="userSpaceOnUse" r="300"><stop offset="0" stop-color="#fff" stop-opacity=".313726"/><stop offset=".19" stop-color="#fff" stop-opacity=".25098"/><stop offset=".60000002" stop-color="#6b6b6b" stop-opacity=".12549"/><stop offset="1" stop-opacity=".12549"/></radialGradient><path d="m300 300v358.5s270.47398-101.95684 296-358.5z" fill="#fff" fill-rule="evenodd"/><g stroke-width=".997537" transform="matrix(1.0024685 0 0 1.0024694 -.81285 -1.426106)"><use height="100%" stroke-linecap="round" stroke-width="1.246921" transform="matrix(-1 0 0 1 824.58313 0)" width="100%" xlink:href="#b"/><path d="m464 476c-19.044 0-34.5 22.4-34.5 50 0 18.2242 6.75172 34.16798 16.8125 42.90625 17.5344-14.81336 35.12133-31.60991 51.78125-50.46875-2.51377-24.022-16.82036-42.4375-34.09375-42.4375zm-72.49999 51.49999a34.5 49.999998 0 1 1 -69 0 34.5 49.999998 0 1 1 69 0z" fill-rule="evenodd" stroke="#313131" stroke-width="1.995074"/><g id="b" stroke-linecap="round" stroke-width="1.246921" transform="translate(0 -1.144105)"><path d="m336.63063 357.77003 5.79808 15.21995c-18.21698 17.95983-3.77729 60.75597-22.99182 56.15388 7.92727-4.94734-.52798-57.62328 17.19374-71.37383zm47.91429 40.05458 7.93256.59313c-2.88271 3.15899-3.20021 8.45998-1.56322 15.8161.62054 2.78852-2.34103 1.12287-2.75862.55173-5.11778-6.9995-3.27045-11.69579-3.61072-16.96096zm-6.04637-.49968 6.04637.49968c-1.90912 20.31902 12.75965 30.05928-3.77124 30.63537 6.9863-12.51741-7.31346-8.91425-2.27513-31.13505zm-7.94617-3.56908 7.94617 3.56908c-6.97482 16.82509 10.69096 30.20418-8.51842 37.17173 5.2711-8.51403-10.77239-30.07782.57225-40.74081zm-9.6423-5.90829 9.6423 5.90829c-13.67872 13.51181 8.12681 33.08031-7.59456 47.50304-2.65942 2.43974-5.5327 2.01082-4.42145-1.30043 3.28226-9.78036-12.76414-39.73158 2.37371-52.1109zm-9.42188-6.88522 9.42188 6.88522c-20.76017 17.89506 10.96061 53.80725-14.2076 66.4156-2.55016 1.27754-5.33833-3.50856-2.47081-3.90129 8.54382-1.17014-12.05546-43.8446 7.25653-69.39953zm-9.05949-7.97236 9.05949 7.97236c-21.41902 19.86847 3.61673 99.95405-27.15307 84.09437 17.18014-5.19258-3.78949-67.57189 18.09358-92.06673z" fill="#e20909" stroke="#000" stroke-linecap="round" stroke-linejoin="round" stroke-width="1.246921"/><path d="m387.25725 400.24189c-.51348 3.46148.54037 9.40332 2.15984 13.69637-1.62521-2.78639-3.148-8.3798-2.7625-13.00625m-4.52473-.72337c-3.11494 7.05973 2.76954 12.82649 3.00383 20.22607-.91559-5.04647-7.11058-13.9501-4.09307-20.4806m-44.98129-28.99776c-3.32793 3.89072-5.75807 17.90064-6.56486 23.85545-.74214 5.47022-1.22624 20.262-4.29275 27.65267 1.8982-6.43017 2.68979-21.35994 3.19993-27.66333.43966-5.43244 2.83678-20.68099 6.33318-24.36999m9.82582 10.51595c-16.73402 29.78086-.18819 70.7298-13.22722 82.7855 11.67366-12.77464-4.78719-54.03109 11.88519-83.5334m11.43267 8.4433c-10.23931 16.01348-2.38634 32.68559-3.6632 49.52624-1.18423-16.96887-7.12463-37.94159 2.27227-49.94381m10.16283 6.31183c-7.7916 12.71102 2.85139 27.70871-.98906 41.26886 2.66858-13.21621-8.50095-29.4627-.41559-41.63764m11.17296 4.45853c-5.31129 12.33663 3.17963 16.83038 1.22748 29.89496.5448-10.03195-7.42728-20.29917-2.33022-30.13648"/></g><path d="m376.99349 356.08581c1.66101 1.22212 3.62163 2.38604 6.99016 2.38604 4.54511 0 11.34081-5.00486 16.74866-5.00486 4.49014 0 8.01364 1.79547 10.33349 3.38433l-.71335 4.70492c-1.41877-1.3967-4.88531-4.74298-9.4471-4.74298-5.01166 0-10.90587 4.452-16.16043 4.452-4.21639 0-7.34998-3.33172-7.75143-5.17945z" fill="#e20909" stroke="#000" stroke-linecap="round" stroke-linejoin="round" stroke-width="1.246921"/><path d="m423.44989 334.9693c-.52453 1.85858-2.08292 2.67927-3.80955 3.48339-2.36745.80041-5.89538 1.08206-10.64587.30006-3.40016-.55973-7.50451-.51687-10.7111.27398-1.60342.39544-2.94084.99904-3.90087 1.78736-.91565.75186-1.44075 1.68656-1.36987 2.81802 2.16598 5.19874 27.74466 6.73639 16.38628 20.37848.42499 6.70429-1.76151 9.92491-7.68433 12.78548-2.97613 1.43738-6.04913 2.15231-8.46712 1.89173-2.41786-.26058-4.16926-1.45479-4.68366-3.87478-1.21441.49012-1.49262 1.72194-1.74822 2.87021.0795 1.12084.59616 2.26521 1.4612 3.03981 1.22981 1.10109 3.3394 1.78928 5.59691 1.91782 1.61381.0919 3.31629-.11147 4.85326-.67841-.9207.69078-3.12413 2.7108-4.87935 4.17485-14.13461 4.2548-19.9277.42522-23.87492-6.26228 3.9818-6.25034-5.1799-7.57714-8.45407-10.1501-7.35458-5.77949-12.39449-11.19453-7.48864-21.73531 4.28996 3.31099 7.10385 1.33957 9.7848-1.0959-3.44207.30774-5.49046.36552-7.89307-2.20484-1.92474-2.05913-3.10191-9.61429-10.59368-5.03591-3.01445 1.84219-4.36087 4.37665-8.16705 6.95373-8.89447 6.02225-10.83169 18.05478-19.00861 16.96033 8.44186 7.54391 12.8329-1.70136 18.4737-5.79261-5.6963 11.14826-.98837 14.00985 5.80566 15.21211-2.34504 8.99775 4.02335 7.69056 9.0542 7.97135-1.22989 7.34848 3.21848 8.13201 9.4195 6.88851-.60863 8.17287 4.45338 6.69763 7.97136 5.07505.91614 3.36626 2.59274 6.97975 6.8885 3.6269 1.34385 3.94077 3.41712 4.72767 5.80565 1.81345 1.40672 3.81435 4.93405 3.59328 5.7926 0 1.96424 8.69557 7.91484 17.43229 8.84547 25.06214-.00013.80621-.58589 1.6949-1.52643 2.66147-.94061.96657-2.23655 1.99022-3.653 3.03981-2.83278 2.09916-6.15329 4.33045-7.9583 6.51016-.56706.68483-1.16962 1.81316-1.90478 3.15723-.73504 1.34406-1.56974 2.89062-2.62233 4.34445-2.10518 2.90765-4.94926 5.4534-9.08029 5.4534-1.39837 0-2.47593-.33447-3.18333-.88716-.70732-.55269-1.06583-1.34721-1.00457-2.23093-1.41453.91703-1.46027 2.50354-1.44815 4.04438.70483 1.47139 2.57554 2.71365 5.77956 2.71365 2.59584 0 4.84212-.70552 6.75803-1.65689 3.15656.35644 5.97558-1.78194 12.64197 4.21399.92579 2.25635 2.91957 3.3994 5.38817 3.87478.013.001.0262.001.0391 0 .0128.001.0394.001.0522 0 .0286-.006.0559-.0233.0783-.0391.0148-.009.0281-.0137.0391-.0261.001-.0109.001-.0152 0-.0261.001-.0109.001-.0413 0-.0522.001-.0109.001-.002 0-.0131.001-.0109.001-.0413 0-.0522-1.04573-4.18169-.79907-7.53797.31311-9.9805 1.0778-2.36718 3.0315-3.81353 5.34353-4.33141 5.11298 7.58025-.28346 17.28807-.41199 25.93626l-1.47424 12.21143-12.18534 25.89711c-6.26655 10.62775 4.78016 18.10616 11.9766 12.05488-6.82014-.58026-5.19781-7.27487-.26093-10.01964 4.88582-2.71636 7.527-6.34437 8.80632-10.35884-.54011 8.8484-1.07042 17.15891-6.09267 23.18346-1.50535 1.80564 1.37772 2.80498 4.97068 2.80498.0713 1.90965 2.63215 3.62691 5.12724 3.6269 2.49502 0 5.04273-1.71725 5.11419-3.6269 3.59296 0 6.47591-.99934 4.97068-2.80498-5.02231-6.02454-5.55269-14.33506-6.09267-23.18346 1.27932 4.01448 3.90745 7.64247 8.79328 10.35884 4.937 2.74477 6.55933 9.43938-.26093 10.01964 7.1965 6.05128 18.25613-1.42713 11.98964-12.05488l-12.62892-26.53638-1.01762-11.62435c-3.02596-8.41706-5.24639-16.93171-.39894-25.88407 2.31191.51787 4.25262 1.96424 5.33049 4.33141 1.11205 2.44253 1.38493 5.79882.3392 9.9805-.0147.009-.0282.0398-.0391.0522.007.024.0203.0464.0391.0652-.001.0108-.001.0152 0 .0261.011.0124.0244.0169.0391.0261.011.0124.0244.0299.0391.0391.0129.001.0262.001.0391 0 .0129.001.0263.001.0391 0 .0129.001.0262.001.0391 0 2.27894-.26789 3.71837-1.25204 4.65756-2.57014.28215-.39594.48481-.84938.69146-1.29159 2.32923-3.53097 6.95461-4.49181 12.61588-4.27923 1.93245.97029 4.20653 1.70908 6.83631 1.70908 3.2039 0 5.06169-1.24226 5.76651-2.71365.70471-1.47139.27311-3.16611-1.12199-4.1618-.42685.73956-.87577 1.57727-1.31768 2.34835-.70727.55268-1.77178.88716-3.17028.88716-4.13109 0-7.00107-2.54575-9.10639-5.4534-1.05246-1.45383-1.88717-3.00039-2.62233-4.34445-.73516-1.34407-1.33765-2.4724-1.90477-3.15723-1.81643-2.19339-5.78232-4.47487-9.276-6.64062-1.74683-1.08288-3.37946-2.12559-4.56624-3.11809-1.18677-.9925-1.90477-1.92417-1.90477-2.71366.00006-5.86576 10.64992-11.37222 12.20293-16.6709l2.38295-8.13031c.85854 3.59328 4.39893 3.81435 5.80565 0 2.38854 2.91422 4.44875 2.12732 5.7926-1.81345 4.29576 3.35285 5.97236-.26064 6.8885-3.6269 3.51799 1.62258 8.57999 3.09782 7.97136-5.07505 6.20101 1.2435 10.64939.45997 9.4195-6.88851 5.03086-.28079 11.41229 1.0264 9.06725-7.97135 6.79404-1.20226 11.48891-4.06385 5.79261-15.21211 5.6408 4.09125 10.04489 13.33652 18.48675 5.79261-8.17692 1.09445-10.11414-10.93808-19.00861-16.96033-3.80618-2.57708-5.16565-5.11154-8.1801-6.95373-7.49178-4.57838-8.66894 2.97678-10.59368 5.03591-2.4026 2.57036-4.43795 2.51258-7.88003 2.20484 2.68096 2.43547 5.49485 4.40689 9.78481 1.0959 4.90586 10.54078-.14711 15.95582-7.50168 21.73531-3.27418 2.57296-12.42284 3.89976-8.44103 10.1501-4.37332 7.40939-11.0151 11.30679-28.75427 4.59234-3.26527-2.2378-5.90972-.26303-7.55387.56099 3.15886-3.12075 5.91911-7.17776 6.22313-11.33732.29062 1.0537.90655 2.62773 2.40054 4.08352 1.79199 1.74613 4.69491 3.08266 9.11944 2.23094-1.49881-.73232-3.459-2.03592-5.00982-3.1181-1.12173-1.3205-1.7629-2.98368-2.12657-4.81412-.70874-3.56643-.40684-7.72806-.9002-11.21991 1.13995.78922 2.69955 1.21766 4.1879 1.00458 1.62119-.23213 3.09596-1.20163 3.60081-3.06591.001-.0109.001-.0413 0-.0522-.0111-.0125-.0243-.004-.0391-.013.001-.0108.001-.0413 0-.0522-.0109-.0124-.0244-.0169-.0391-.0261-.011-.0124-.0243-.0169-.0391-.0261-.0128-.001-.0263-.001-.0391 0-.013-.001-.00015-.001-.0131 0-.0128-.001-.0262-.001-.0391 0-.0129-.001-.0393-.001-.0522 0-1.94933.5468-3.22612.51335-4.12267.10437-.89654-.40898-1.41965-1.2115-1.91782-2.24398-.91071-1.88751-1.7724-4.49035-3.90087-6.66671 1.19851.79622 2.80037 1.45873 4.47491 1.48729 1.95831.0334 3.8581-.83601 4.93154-3.13114-1.1284.0712-2.61072.40935-3.84868.63927-1.28677.004-2.47261-.33489-3.22247-.96543-1.19883-1.008-1.81935-2.25241-2.71365-3.39207-.82515-1.05142-2.03573-1.93425-4.04438-2.38749 4.35859-.96482 5.3442-4.55103 2.27007-7.09724z" fill="#e20909" stroke="#000" stroke-linecap="round" stroke-linejoin="round" stroke-width="1.246921"/><g fill="#e20909" stroke="#000" stroke-linecap="round" stroke-width=".997537"><g fill-rule="evenodd"><g stroke-linejoin="round"><path d="m409.39455 339.31593h12.74784v-5.29335h-12.74784"/><path d="m409.79678 339.31593h-12.74784v-5.29335h12.74784"/><path d="m396.88623 337.21165c-.74789 0-1.34932.55415-1.34932 1.24243 0 .68829.60143 1.24244 1.34932 1.24244h12.45107 1.36935 11.59606c.74788 0 1.34931-.55415 1.34931-1.24244 0-.68828-.60143-1.24243-1.34931-1.24243h-11.59606-1.36935z"/><path d="m409.34058 334.10013h12.96313c.74788 0 1.34997-.35463 1.34997-.79513s-.60209-.79513-1.34997-.79513h-12.96313"/><path d="m409.85073 334.10013h-12.96313c-.74789 0-1.34997-.35463-1.34997-.79513s.60208-.79513 1.34997-.79513h12.96313"/></g><path d="m395.94702 332.60464h27.29729l1.2025-3.61542c-3.53932 3.29244-6.24228 4.02496-8.46646 1.31721-1.26958 2.70727-4.21932 2.16784-6.38469-1.31721-2.03983 3.48505-4.86403 4.02448-6.38469 1.31721-3.92793 1.19595-4.5454 3.53031-8.46645-1.31721z"/><path d="m410.21655 330.30057c.0228-.99216.26825-1.91429.72526-2.78816 1.19647-2.51716 4.85094-2.45704 4.04536.62152-.29685 1.13442-1.30528 1.80115-2.50328 1.9155.0865-.2989.56209-1.35561.17815-1.56234-.61394.0232-1.37631 1.08423-1.55964 1.5902-.0265.0726-.019.15658-.0486.22803"/><path d="m408.69461 330.36616c-.0228-.99215-.26825-1.91429-.72526-2.78816-1.19647-2.51715-4.85094-2.45704-4.04536.62153.29685 1.13441 1.30527 1.80114 2.50328 1.9155-.0865-.29891-.5621-1.35562-.17815-1.56234.61395.0232 1.3763 1.08422 1.55964 1.59019.0265.0726.0191.15658.0486.22804"/></g><path d="m409.38486 320.75378c-1.26053 1.35877-2.10687 2.92993-1.74202 4.77264.2013 1.01663.68927 1.95818 1.0334 2.93756.21517.61445.27019 1.25632.24472 1.90215h1.06943c-.0512-.65059.0609-1.28108.24471-1.90215.32787-.98547.82673-1.92016 1.03339-2.93756.38639-1.90211-.52056-3.33664-1.7365-4.76663l-.0743-.0948z"/><path d="m406.91434 330.33426h5.090625v.82477h-5.090625z"/><path d="m396.50796 331.29543c-.47247-.87274-.71692-1.79514-.75372-2.78061-.21014-2.77911 2.99258-4.54016 3.82066-1.46757.30513 1.13221-.23959 2.21144-1.22299 2.90514-.0732-.30242-.18459-1.45587-.62052-1.44485-.52153.32476-.65697 1.62423-.5651 2.15449.0131.0762.0611.14541.0709.22211" fill-rule="evenodd"/><path d="m395.78153 331.74994.5626-.28537c-.36725-.53946-.58271-1.14252-.73133-1.77292-.2043-1.01829-.23494-2.07732-.56032-3.0632-.60831-1.84317-2.10752-2.63866-3.87275-3.2769l-.11155-.0454z"/><path d="m178.74106 484.40869h2.925159v.82477h-2.925159z" transform="matrix(.86822361 -.49617312 .49617312 .86822361 0 0)"/><path d="m422.68319 331.29517c.47247-.87273.71691-1.79513.75372-2.7806.21014-2.77911-2.99259-4.54016-3.82067-1.46758-.30513 1.13222.23959 2.21144 1.22299 2.90515.0732-.30242.18459-1.45587.62052-1.44485.52153.32476.65698 1.62423.56511 2.15449-.0131.0762-.0611.14541-.0709.22211" fill-rule="evenodd"/><path d="m423.40962 331.74968-.56261-.28537c.36725-.53945.58271-1.14251.73134-1.77291.20429-1.01829.23494-2.07733.5603-3.0632.60832-1.84318 2.10753-2.63866 3.87276-3.2769l.11155-.0454z"/><path d="m-532.50018 77.947998h2.925159v.82477h-2.925159z" transform="matrix(-.86822362 -.4961731 -.4961731 .86822362 0 0)"/></g><path d="m410.08287 351.83778c1.51734 1.14974 2.52901 2.44119 2.52901 9.2417 0 2.47293-2.59501 3.25989-6.72822 2.96892-4.13924-.29141-9.3859-.18978-13.21547.93599.6802-5.0307 10.18585-6.86056 16.74865-6.28517.76134-4.49757-4.24846-8.68453-13.35741-7.2745-3.64683-2.61481-9.74887.26129-10.10458 3.66635-4.98107-5.00297-.87307-11.23183 6.92096-11.23183 6.64478 5.44998 11.37018 3.55586 17.20706 7.97854z" fill="#e20909" stroke="#000" stroke-linecap="round" stroke-linejoin="round" stroke-width="1.246921"/><path d="m393.01345 343.64317c6.69468.54477 13.09444-.75831 19.46227-1.75433-2.78397.25331-8.14827 1.38456-9.86003 2.90573-1.0438.92757-2.75953 1.83476-3.98222 1.27126-.9077-.41832-1.55313-1.53415-2.36212-1.87023-.80899-.33609-1.78154.10758-3.2579-.55243z" style="fill:#e20909;fill-rule:evenodd;stroke:#000;stroke-width:1.246921;stroke-linecap:round;stroke-linejoin:round"/><path d="m421.2242 443c-1.65319 5.38158 3.68801 29.89249 16.195 25.58376-.94509 3.25186-4.40406 4.91172-7.9046 4.91172-11.66875 0-14.24093-16.5324-13.13504-23.41805m-15.99476-7.07743c1.65319 5.38157-3.68801 29.65463-16.19507 25.34589.94516 3.25186 4.40414 4.91173 7.90467 4.91173 11.66875 0 14.24093-16.53241 13.13504-23.41805" fill="#e20909" stroke="#000" stroke-linecap="round" stroke-linejoin="round" stroke-width="1.246921"/><g id="c" stroke-width="1.246921"><path d="m380.15458 449.97335c-1.26006.0303-2.54595.24624-3.7965.61318-4.1012 5.4363-9.5291 10.62405-21.6179 19.60875-1.66632 1.23846-3.14042 1.68734-8.02353 2.531-1.81184.31304-2.13237 3.63885-3.49644 4.76194-1.09104.89828-2.83315 1.48834-4.59234 2.07438-1.75914.58601-3.5372 1.17087-4.72279 2.1657-.79352.66583-1.39287 1.49964-1.69604 2.32226l.79583 3.05286c1.27434 1.02217 3.01033.87579 4.31836-.22179.48637-.40813.72917-1.00809 1.00458-1.57861.27546-.57057.57677-1.12367 1.05676-1.52643.29386-.24659.73137-.32859 1.2394-.39139.50807-.0629 1.05555-.0823 1.57862-.35226.26413-.13633.55599-.3167.83497-.52185-.083.099-.17761.20818-.26093.30007-.95116 1.04889-3.34368 2.5448-5.27075 4.1618-.86048.72201-1.26067 1.68091-1.29159 2.57014l1.90477 2.75279c.26812.10419.54401.20172.84802.23484.90545.0985 1.97149-.16543 2.90935-.95239.549-.4607.8312-.96693.97848-1.43511.14733-.46822.14619-.9158.10437-1.31768-.0418-.40193-.10816-.75478-.11742-1.04371-.009-.28899.0416-.45988.20875-.60014.54217-.45497 1.04392-.75336 1.57861-1.08285.36276-.22355.72346-.45541 1.10894-.78279-.20857.48434-.40601.95648-.61318 1.43511-.60795 1.40465-1.18001 2.7811-1.52643 3.97915-.34636 1.19802-.47209 2.24454-.15655 3.01372l4.67061 1.87868c.80939-.0104 1.78222-.34903 2.57014-.96543.78788-.61636 1.40112-1.50013 1.42206-2.54405.026-1.29489-.76776-2.47286-1.4612-3.60081-.69339-1.128-1.264-2.20487-.95238-3.36597.33326-1.24197.87254-2.12124 1.53947-2.94849.66698-.82729 1.47533-1.60607 2.30921-2.62232 2.04972.92849 5.76937.87367 8.36275-.10437 1.07739.33761 2.49552 1.09361 3.05286 2.13961.2907.54551.4115 1.33083.63927 2.12656.22772.7957.57638 1.65314 1.38292 2.21789.80088.56076 1.87743.92058 2.88326.96543 1.00577.0448 1.93985-.26281 2.50491-1.0698.0877-.12537.14368-.25938.22179-.39139l.7045-4.25313c-.2423-.9378-.77191-1.82001-1.65689-2.43968-.77439-.54223-2.14779-.94198-3.60081-1.27855-.93918-.21753-1.762-.31929-2.62233-.44358-1.35637-1.70132-4.04816-3.33235-2.63537-5.17942 4.71656-4.21178 12.3024-8.91551 17.37781-13.64654.25604-.23865.82056-.44801 1.55252-.65232.73189-.20431 1.64205-.41945 2.57015-.65232 1.76344-.44248 3.61642-1.02318 4.73584-2.12656-1.53963-3.41553-5.07833-4.90507-8.85851-4.81413z" fill="#e20909" stroke="#000" stroke-linecap="round" stroke-linejoin="round" stroke-width="1.246921"/><path d="m375.51567 482.15716c-.82151-.50355-1.73369-.88243-2.66295-1.06795-2.12382.13276-2.99429 2.57713-1.56555 4.40075 2.81851-.61027 5.11345 2.26922 3.63794 4.14063 3.33679-.38776 4.17059-2.38134 3.49384-4.24554-.4452-1.22639-1.53408-2.38862-2.90328-3.22789zm-45.82487 3.11159c-2.3706 2.13155-2.2763 6.0362 1.88867 5.57111-1.54273-1.05995-.55333-3.55334 2.39423-3.96834.5558-.94155.0298-2.67519-1.13574-2.92312-1.27731.0881-2.35697.60984-3.14716 1.32035zm5.15276 5.17491c-.1955.15796-.37186.33405-.54382.49891-1.14633 1.099-1.7485 2.36765-1.77527 3.61936-.0406 1.90263 2.0719 3.92643 4.82293 2.42745-2.15505-.83205-1.81525-3.88508 1.67418-5.06794.43582-1.20397-.61844-2.74886-2.10431-2.74929-.78825.37345-1.48712.79754-2.07371 1.27151zm9.81593 2.58247c-1.43231 2.13321-1.55234 4.57214-.45937 6.09313 1.03834 1.44499 3.80151 2.00405 5.97561-.24355-2.64354.1899-3.3006-2.97937-.70175-4.82066-.44603-1.99727-3.12662-2.57954-4.81449-1.02892z" fill="#e20909" stroke="#000" stroke-linecap="round" stroke-linejoin="round" stroke-width="1.246921"/></g><path d="m395.17517 443.06319c4.63127-4.63907 8.67072-5.13541 11.95959-.37767m28.82891-4.21737c-2.15152-4.38725-5.49294-5.91872-9.31589-6.29452m-10.58813-87.08927c4.92082-1.56288 6.29848.92356 8.01162 3.02661m-8.36769 3.38269c8.75299-1.35609 4.52258 8.41645 6.76536 12.64055m12.31414 42.35778c-4.94925-8.56751-10.45698-5.01367-16.0664-.37768m-3.27315-21.77904c6.76758-8.09562 7.86619-12.64813 9.44178-17.49877m-16.69954 16.61289s-16.97883 1.38129-16.24668 16.05466c.9329 18.69682 18.2763 15.83657 15.5403 31.97898m3.24276 17.8791v20.36069" fill="none" stroke="#000" stroke-linecap="round" stroke-linejoin="round" stroke-width="1.246921"/><path d="m444.5 513a34.5 49.999998 0 1 1 -69 0 34.5 49.999998 0 1 1 69 0z" stroke="#313131" stroke-linecap="round" stroke-linejoin="round" stroke-width="1.995074"/><use height="100%" stroke-width="1.246921" transform="matrix(-1 0 0 1 821.37368 -.06522)" width="100%" xlink:href="#c"/></g><path d="m300.24414 539.58203c-.24535.00056-.49969-.0275-.74805-.0312v117.42383c.46699.16939.93573.36253 1.40235.5293.24154.0879.47949.1634.7207.25 10.70678-4.1875 125.80053-50.86076 209.76953-154.64649.0369-.20351.0789-.40792.11524-.61133-14.6401 13.66622-51.61526 37.22478-73.87696 37.27344-20.31064.19507-56.01993-26.71893-62.50976-37.27346-6.14856 10.67662-49.80574 37.32985-74.87305 37.08591z" fill="#2b5df2" stroke="#fff" stroke-linecap="round" stroke-linejoin="round" stroke-width="2.5"/><path d="m300 612.31614.39806.0313c26.63578.0632 70.35515-29.89048 74.62639-36.00386m-74.62639-36.06636c8.10926 8.96293 43.79751 35.93246 74.62639 36.06634 5.53744 6.3421 17.29283 20.17532 31.71618 22.87744m56.06304-44.75481c-8.66336-2.3977-16.64754-6.49061-24.12917-14.15775-7.13951 8.55916-35.82946 36.07788-63.65005 36.0351m-28.64945 60.59396c-9.99365-.85445-20.14858-5.13889-28.47373-10.14171-8.32516-5.00282-14.82052-10.72403-17.49502-14.45204" fill="#2b5df2" stroke="#fff" stroke-linecap="round" stroke-linejoin="round" stroke-width="2.5"/><g fill-rule="evenodd"><path d="m1.5 1.5000199v259.2536801c0 13.51772.659266 26.63287 1.9278125 39.38267h.0621875c25.569996 256.44558 296.51 358.36363 296.51 358.36363v-358.36363-298.6363501z" fill="#fcef3c"/><path d="m266.65625 1.5332031-33.3125.0019531-.01172 623.6074238c12.40395 7.2781 23.69077 13.3059 33.3125 18.13281zm-66.63672.0058594-33.34375.0039063-.00976 578.0878912c11.32825 8.95747 22.52802 17.10449 33.34375 24.45312zm-66.66406.0058594-33.34375.0039062-.01172 515.0800819c10.80084 12.32571 22.00446 23.75611 33.34375 34.35937zm-66.69922.0078125-33.3125.0019531-.011719 411.8769525c9.555866 21.56103 20.855464 41.53935 33.3125 60.00586z" fill="#e20909" stroke="#000" stroke-width="2.5"/><path d="m598.5 1.5000199v259.2464401c0 13.51771-.66895 26.64011-1.93749 39.38991h-296.56251v-298.6363501z" fill="#fcef3c"/></g><g stroke="#000" stroke-linecap="round" stroke-linejoin="round" stroke-width=".974135" transform="matrix(1.0265947 0 0 1.0265094 352.47343 8.749825)"><g stroke-width="1.948269"><path d="m172.23749 124.44994c-1.75129-2.74527-4.06329-5.14529-4.9646-8.37247-.5985-1.52895-1.23857-4.45783-1.23522-1.22981-.95395 9.68216-3.93028 19.23581-6.95264 28.51607-1.04691 3.21457-2.21088 6.2443-3.28046 9.17391 3.19419-.93394 6.97837-3.97069 9.40091.004 2.1474 1.99863 4.44466 4.34323 5.31492 6.82418 2.15807-1.96506 2.1793-5.56823 2.59425-8.36285-.33498-3.14803 1.05629-5.9529 4.26156-6.78581 3.07036-2.49935 6.84632.27543 10.25882.52761 3.14164.23217.0195-2.02956-.73013-2.63706-5.98758-4.85262-11.30225-10.67453-14.66741-17.65795zm-12.01962 123.25075c-27.33433-15.59749-12.58641-56.02003-13.0664-81.03655-3.65451 5.73887-8.71707 10.32585-13.19293 15.41811-1.98297 2.25607-35.300705 30.41589-27.0844 29.10682 15.34504-5.21273 15.83235 8.72808 20.55696 9.90728 20.41683-4.53718 11.03454 17.16736 28.0287 28.25573.89851 1.22562 10.26208 1.4893 4.75807-1.65139z" fill="#e20909"/><path d="m17.109718 62.141803c11.886813-.56363 23.603172 2.020476 35.154305 4.481769 11.965243 8.193052 28.44921 7.385154 38.549791 19.09959 12.919216 14.983428 21.905746 34.454138 19.153586 54.407748-1.44433 10.47165-4.4052 20.68363-7.42531 30.75047-3.544132 11.81359-34.469348 28.82034-28.519144 29.85964 25.275294-2.36342 50.064324-25.38456 26.043904 11.30167-2.448889 4.26031-5.98743 10.22555-.213882 3.79858 15.682812-15.16194 33.978132-28.20287 46.481652-46.18635 11.54494-16.60479 18.84064-36.34679 19.79672-56.73416.9674-20.628759-8.93048-38.179794-21.47721-53.371575-18.36359-22.234915-69.19204-55.7578262-99.981197-46.805339-7.803728 2.269073-16.149647 8.507468-13.4941 18.043555 3.335074 11.97627-16.680439 7.546361-24.069567 5.85796-2.1444785 10.879249 14.671153 12.797353 22.645283 13.067645 6.808183.23077 21.641382 4.937747 20.868588 8.98696-10.160104-.267992-20.979435-3.721947-30.777925-1.053212-1.21518 1.293632-2.059566 2.879399-2.735494 4.495049z" fill="#2b5df2"/><path d="m110.14832 267.85945c-32.960368 1.08385-24.084097-36.89-9.81878-50.12401 7.18815-6.66848 18.55604-41.58369 8.92248-33.25359-45.758833 39.5675-68.242248-17.97141-103.5189033-22.4904-14.3766961 5.92007 8.3916693 2.08656 10.2473173 10.23747 9.662859 8.57595-6.6885936 23.64995 8.776394 26.97071 4.095183 20.86871 46.588317 15.24768 47.900708 16.59334-8.491223 7.4692-19.818675 8.47065-30.434926 10.34339-13.326783 4.85933 11.499893 3.65869 15.163085 9.66324 7.306516 4.3725 7.571922 19.98519 18.665235 12.22491 8.415408 7.31047 10.923695 20.93144 22.767633 24.47072 3.651477 4.66799 22.715657-2.97059 11.329757-4.63578z" fill="#e20909"/><path d="m92.092146 181.12868c1.747205 6.37406 6.758344-.99579 8.960234-3.35861 7.34207-5.36141 13.85592-35.12308 9.14846-52.08865-7.22526 30.65115-8.43078 32.5656-34.481898 45.61234 18.32851 1.34524 7.226308 2.53741 16.373204 9.83492zm-7.658331-102.069411c-7.622692-6.305677-19.027057-5.758107-28.120725-10.097573 9.383126 10.417416 17.144743 14.214645 11.664072 29.528193 11.554271 1.286481 5.426084-15.559259 9.427361-17.543768 7.414435 8.625399 8.157008 19.663159 4.566284 30.049939 15.989212-3.89384 11.719863-24.279285 2.463008-31.936791zm-9.16896-71.9276725c4.401164.030949 8.547378-4.8571322 10.896506-5.6941182 1.69722 3.6824244-9.376235 8.6969057-1.343554 9.2784677 10.05322.727848 20.605063-2.4305532 27.691973-9.71604242 9.42977 4.35222222-15.708618 12.27769942-7.4251 15.46515742 13.094 5.038509 26.51762 8.589222 37.85961-2.123884 5.11456 9.709454-16.5539 13.262122-21.98752 14.797032 14.93826 12.999683 31.19622 39.809371 53.31341 25.20368-6.94689 15.981673-30.70685 7.830058-40.37668-1.013313-3.85174-3.522534-4.1871 1.073496-1.63416 3.844698 4.47187 4.854216-4.61077 1.091637-5.13904-1.829972-1.65309-9.142688-12.20666 2.639564-9.16331-2.992656 6.17125-11.420931-14.75112-21.939894-9.14344-13.615528 5.63156 8.359821-14.368334 20.641819-17.933228 14.858722 28.476278-31.674768-20.881136-38.843256-41.332269-41.900351 8.658436-.775799 17.17737-3.0154813 25.716802-4.5618925z" fill="#e20909"/><path d="m96.689771 63.553334c14.078659 9.708305 25.786639 23.915505 29.650629 40.937546 4.79657 21.13033-2.66138 40.78908-6.98192 60.97608m46.54466-44.70531c6.71787 9.23204 3.48275 20.81278 3.57498 31.52474m-151.092611 39.90452c15.974571 11.50659 39.598657 11.56933 58.820221 12.94008m-14.575385 33.96459c5.533062-9.2676 13.771218-16.43128 21.045316-24.26266m-15.649349 27.50395c7.049266-17.7738 32.176068-32.44118 38.316588-49.60645m20.47435 25.4013c.46437-12.8899 5.71157-26.29945 13.49201-36.66532" fill="none"/><path d="m80.229981 35.855949c4.867664 9.289969 3.380322 19.530368-7.969299 26.235666 5.119789-1.273202 15.16275-7.633448 15.83026-14.943414.508926-5.573374-2.724649-8.411159-7.860961-11.292252z" fill="#e20909" fill-rule="evenodd"/></g><g stroke-width="1.862089" transform="matrix(1.0466712 0 0 1.0458926 -265.72905 -204.06333)"><ellipse cx="308.56744" cy="228.85275" fill="#fff" rx="5.156811" ry="4.639394"/><circle cx="306.76166" cy="227.56786" r="1.804016"/><path d="m293.72 226.99c11.406-2.9415 28.796-10.682 35.65 9.6866-9.3816-18.326-20.979-9.9945-35.65-9.6866z"/></g></g><path d="m300 300h296m-296.00001 358.39732v-656.89732" fill="none" stroke="#000" stroke-width="3"/><path d="m300.00001 658.5s298.5-112.32031 298.5-397.77183c0-285.451504 0-258.5516835 0-258.5516835h-597.00001v258.5516835c0 285.45152 298.50001 397.77183 298.50001 397.77183z" fill="url(#a)" fill-rule="evenodd"/><path d="m299.99999 658.39732s-298.49999-112.30261-298.49999-397.70914v-259.18818l596.99999.0000563v259.1881237c0 285.40653-298.5 397.70914-298.5 397.70914z" fill="none" stroke="#000" stroke-width="3"/></svg>