<svg width="143.197" height="38.138" viewBox="0 0 143.197 38.138" xmlns="http://www.w3.org/2000/svg"><g data-name="Groupe 52" fill="#071f32"><path data-name="Tracé 83" d="M66.165 15.254a8.08 8.08 0 0 1-8.294 8.1h-3.528v7.341h-5.244V7.341h8.866a8.02 8.02 0 0 1 8.2 7.913m-5.53 0a2.86 2.86 0 0 0-2.86-3.051h-3.528v6.006h3.528a2.68 2.68 0 0 0 2.86-2.955"/><path data-name="Rectangle 35" d="M115.168 7.341h5.244v23.453h-5.244z"/><path data-name="Tracé 84" d="M97.531 23.262v7.341h-5.244V7.341h9.438a7.985 7.985 0 0 1 3.814 15.063l4.862 8.485h-5.814l-4.1-7.341h-2.86v-.286zm0-4.672h3.909a2.86 2.86 0 0 0 2.669-3.146 2.86 2.86 0 0 0-2.669-3.146h-3.909z"/><path data-name="Tracé 85" d="M80.751 7.341h-6.769l-7.913 23.453h5.816l1.335-4.29a15.7 15.7 0 0 0 4.1.572 13.7 13.7 0 0 0 4.1-.572l1.335 4.1h5.914Zm-3.337 14.968a14.7 14.7 0 0 1-2.86-.381l2.86-8.676 2.86 8.676a9.8 9.8 0 0 1-2.86.381"/><path data-name="Tracé 86" d="M134.14 12.013a4.61 4.61 0 0 1 4.1 2.479l4.29-2.479a9.21 9.21 0 0 0-8.676-5.244c-3.909 0-7.913 2.479-7.913 7.15 0 5.434 5.244 6.578 6.96 7.15s4.862.953 4.862 3.051c0 1.335-1.525 1.907-3.337 1.907a5.57 5.57 0 0 1-4.862-3.051l-4.481 2.479a10.22 10.22 0 0 0 9.438 5.816c5.053 0 8.676-2.669 8.676-7.15 0-3.528-1.907-5.625-6.578-6.96-3.527-1.144-5.053-1.716-5.053-3.146-.1-1.239 1.049-2 2.574-2"/><path data-name="Tracé 87" d="M40.614 22.5c-.191 0-.191.191-.381.572-3.814 8.294-10.773 12.013-17.924 12.2-14.4.191-18.019-11.822-18.019-12.2l7.341 1.335s2.86 6.578 10.3 6.578c7.913 0 13.538-7.913 13.538-16.112A17.07 17.07 0 0 0 27.934 0L7.722 9.438c-.191 0-.191.381 0 .381 11.25 2.67 13.157 10.681 12.585 15.255 0 .763.381.572.763-.763a12.856 12.856 0 0 0-5.625-14.873l11.25-5.72c1.335 1.144 5.816 3.909 5.816 11.059s-4.1 13.538-10.3 13.538-8.485-6.388-8.485-6.388L.381 19.068a.41.41 0 0 0-.381.381 20.844 20.844 0 0 0 21.07 18.686c9.724 0 16.493-5.434 19.354-12.966.572-2.1.381-2.669.191-2.669"/></g></svg>
