<svg width="108" height="37" viewBox="0 0 108 37" fill="none" xmlns="http://www.w3.org/2000/svg">
  <path fill-rule="evenodd" clip-rule="evenodd"
    d="M104.933 7.60039C105.747 8.22003 106.427 9.00169 106.945 9.92797C107.456 10.8602 107.705 11.9128 107.726 13.0853V31.9332C107.726 33.2027 106.576 34.2251 105.163 34.2251H105.116C103.695 34.2251 102.552 33.1963 102.552 31.9332V13.0853C102.539 12.0387 102.189 11.2629 101.482 10.7696C100.809 10.2525 99.9682 10.0058 99.0266 9.9939C98.0846 9.98795 97.2777 10.2469 96.5779 10.722C95.878 11.197 95.5345 11.9732 95.5417 13.0134L95.5816 31.9217C95.5816 33.1848 94.4378 34.2136 93.0181 34.2136C91.5984 34.2136 90.4547 33.1908 90.4547 31.9217C90.4547 30.0179 90.4604 27.5464 90.4616 27.0237C90.4618 26.9619 90.4618 26.9273 90.4618 26.9242L90.4214 12.9773C90.4142 11.7627 90.6497 10.6739 91.1545 9.76C91.6589 8.83967 92.2983 8.06989 93.1323 7.47449C93.933 6.87866 94.8479 6.42786 95.8975 6.12122C96.9475 5.82055 97.97 5.68234 99.0195 5.69425C100.069 5.70616 101.119 5.86224 102.148 6.18716C103.177 6.51803 104.092 6.98712 104.933 7.60039ZM73.465 9.35682C73.465 7.34181 71.6346 5.70616 69.3809 5.70616C67.1272 5.70616 65.2969 7.34181 65.2969 9.35682V13.0071H69.4413V13.0011C71.6689 12.9709 73.465 11.3535 73.465 9.35682ZM81.1952 5.70616C82.7834 5.70616 84.0685 6.85484 84.0685 8.27403V31.6448C84.0685 33.0645 82.7834 34.2132 81.1952 34.2132C79.6076 34.2132 78.3226 33.0645 78.3226 31.6448V8.27403C78.3226 6.85484 79.6081 5.70616 81.1952 5.70616Z"
    fill="#E30613" />
  <path fill-rule="evenodd" clip-rule="evenodd"
    d="M37.694 5.2482C38.3089 4.21039 37.8663 2.92346 36.7053 2.37377C35.5443 1.82409 34.1046 2.21979 33.4896 3.2576L33.4896 3.25763C33.4891 3.2585 33.4797 3.27387 33.4577 3.30447C33.4352 3.33564 33.4038 3.37674 33.3621 3.4275C33.2781 3.5299 33.1644 3.65674 33.0207 3.80252C32.7325 4.09505 32.3557 4.43154 31.9199 4.76486C31.2055 5.31117 30.4449 5.76348 29.754 6.03653C29.5884 6.08152 29.4245 6.13163 29.2626 6.18713C28.2064 6.52395 27.3048 6.93307 26.4708 7.53442C25.6434 8.14173 24.9636 8.88173 24.4322 9.82587C23.9007 10.7704 23.6785 11.8468 23.6785 12.9951L23.6048 26.882V26.9241V26.9484C23.6048 30.2078 26.0674 33.0045 29.4178 33.8287L29.4986 33.8648L29.512 33.8708C30.434 34.1238 31.3423 34.2318 32.2029 34.2318C32.2174 34.2318 32.2318 34.2301 32.2452 34.2286C32.2568 34.2272 32.2676 34.2259 32.2772 34.2259C32.2904 34.2259 32.3022 34.2274 32.3139 34.2289L32.314 34.2289L32.3141 34.2289C32.3258 34.2304 32.3376 34.2318 32.3509 34.2318C33.4071 34.2318 34.4633 34.0936 35.4457 33.7568C36.5024 33.42 37.4035 33.0113 38.2381 32.4095C39.0316 31.8145 39.6373 31.2132 40.1487 30.2988C40.2163 30.1784 40.2834 30.0462 40.3371 29.9139C40.9699 28.4756 39.7049 26.942 37.9893 26.942C36.953 26.942 35.991 27.5013 35.6608 28.3795C35.1427 29.7327 33.8448 30.2499 32.3237 30.2499C30.9307 30.2499 29.7399 29.5341 29.148 28.4998C29.0605 28.3552 28.9934 28.1991 28.9329 28.0367C28.8183 27.7241 28.7445 27.3992 28.7445 27.056C28.7445 27.0511 28.7451 27.0466 28.7459 27.0423C28.7465 27.0389 28.7473 27.0355 28.7481 27.0322C28.7499 27.0247 28.7517 27.0173 28.7517 27.0083C28.7517 26.9962 28.7499 26.9855 28.7481 26.9749C28.7463 26.9643 28.7445 26.9539 28.7445 26.942V20.4708H32.2295C33.34 20.4708 34.4366 20.2845 35.4657 19.9298C36.4415 19.593 37.4174 19.1903 38.2447 18.5889C39.0792 17.9812 39.752 17.2416 40.2834 16.297C40.8149 15.3529 41.037 14.2765 41.037 13.1278V13.0615C41.037 13.0485 41.035 13.0356 41.0331 13.0237L41.0331 13.0237C41.0314 13.0133 41.0299 13.0036 41.0299 12.9951H41.037C41.037 11.8468 40.8082 10.7704 40.2834 9.82587C39.752 8.88173 39.0792 8.14173 38.2447 7.53442C37.7376 7.16193 37.2001 6.8417 36.6168 6.58721C37.0715 6.12274 37.4488 5.66194 37.694 5.2482ZM19.7696 9.93433C19.2515 9.00805 18.5716 8.22597 17.7575 7.60675C16.9164 6.99348 16.0019 6.52397 14.9724 6.19352C13.9428 5.8686 12.8933 5.71208 11.8437 5.70017C10.7942 5.68826 9.77174 5.82649 8.72171 6.12717C7.67216 6.43423 6.75725 6.88504 5.95653 7.48044C5.70865 7.65729 5.47798 7.84957 5.26295 8.05661C4.77815 7.66996 4.23024 7.32763 3.62332 7.03472C3.59049 7.02196 3.55103 7.00283 3.5182 6.98369C1.92151 6.26538 0.0393351 7.33159 0.00317654 8.92471L0.000330739 9.18966C-0.0163212 10.0555 0.597416 10.7943 1.47997 11.1502C1.90436 11.3186 2.25264 11.5691 2.51764 11.8894C2.90317 12.3167 3.14129 12.8116 3.2462 13.355L3.28554 26.9301L3.28532 27.0309C3.2841 27.5564 3.2784 30.0257 3.2784 31.9281C3.2784 33.1967 4.42217 34.2195 5.84235 34.2195C7.26157 34.2195 8.40577 33.1912 8.40577 31.9221L8.36535 13.0138C8.35821 11.9736 8.70171 11.1974 9.40157 10.7224C10.1014 10.2474 10.9088 9.98834 11.8503 9.99429C12.7919 10.0062 13.6331 10.2529 14.3058 10.77C14.6555 11.0167 14.9253 11.3357 15.0999 11.7201C15.4701 12.5201 16.2774 13.0917 17.2461 13.1036L17.5425 13.1095C19.3252 13.1278 20.5765 11.4798 19.8233 10.0304C19.8029 10.0003 19.7829 9.9641 19.7696 9.93433ZM34.773 15.4133C35.4529 14.9438 35.8292 14.1319 35.8292 13.1214V13.0496C35.8292 12.0391 35.4529 11.2332 34.773 10.7581C34.0194 10.2831 33.2658 10.0122 32.2838 10.0122C31.3018 10.0122 30.4744 10.2831 29.7946 10.7581C29.1152 11.2272 28.7383 12.0391 28.7383 13.0496V16.1529H32.2838C33.2658 16.1529 34.0932 15.8883 34.773 15.4133ZM57.6823 19.6653L52.1853 15.1369C51.0549 14.2225 50.6248 13.3081 50.6248 12.3461C50.6248 10.8066 51.8085 9.50776 53.6925 9.50776C55.3278 9.50776 56.2765 10.3979 56.8612 11.8171C57.1709 12.569 57.9445 13.0861 58.8394 13.0861H58.8594C60.2929 13.0861 61.2882 11.829 60.8376 10.6084C59.7881 7.76366 57.3588 5.7006 53.477 5.7006C48.6322 5.7006 45.4503 8.1545 45.4503 12.5388C45.4503 15.8101 47.1188 17.6928 49.2717 19.3289L54.6003 23.4185C56.3763 24.7654 57.13 25.9681 57.13 27.5561C57.13 29.3368 55.9995 30.491 53.9542 30.491C52.2519 30.491 51.1148 29.7634 50.3812 28.2897C49.9711 27.4719 49.1028 26.9246 48.1003 26.9246H47.9662C46.1359 26.9246 44.965 28.6385 45.759 30.1121C47.1583 32.7042 49.8359 34.2977 53.4694 34.2977C58.5825 34.2977 62.088 31.9404 62.088 27.1712C62.1027 23.6163 59.8956 21.4932 57.6823 19.6653Z"
    fill="black" />
</svg>
