<svg id="svg" version="1.1" xmlns="http://www.w3.org/2000/svg" xmlns:xlink="http://www.w3.org/1999/xlink" width="400" height="400" viewBox="0, 0, 400,400"><g id="svgg"><path id="path0" d="M212.828 161.901 C 209.888 163.400,208.891 167.000,210.610 169.909 C 212.941 173.856,219.602 172.881,220.791 168.419 C 222.086 163.559,217.284 159.628,212.828 161.901 M165.697 164.325 C 165.300 164.582,165.215 169.674,165.297 188.426 L 165.400 212.200 170.600 212.200 L 175.800 212.200 176.000 202.400 C 176.273 189.030,177.448 186.600,183.640 186.600 C 189.517 186.600,190.143 187.989,190.400 201.600 L 190.600 212.200 195.689 212.312 L 200.779 212.424 201.025 211.444 C 201.730 208.635,200.972 186.227,200.108 184.332 C 196.446 176.303,185.371 174.516,178.502 180.847 C 176.069 183.090,176.031 182.973,175.908 172.988 L 175.800 164.200 171.000 164.099 C 168.360 164.044,165.974 164.146,165.697 164.325 M14.364 166.700 C 11.955 169.388,9.400 173.261,7.833 176.600 C 7.420 177.480,6.952 178.476,6.792 178.813 C 5.905 180.686,5.909 183.600,6.799 183.600 C 6.989 183.600,8.372 184.155,9.872 184.832 C 11.372 185.510,13.140 186.304,13.800 186.596 C 20.072 189.373,23.417 190.921,24.139 191.382 C 28.267 194.014,32.912 192.551,35.375 187.840 C 37.190 184.371,36.357 179.365,33.732 177.965 C 33.148 177.654,28.965 174.750,24.436 171.511 C 15.284 164.968,15.727 165.179,14.364 166.700 M291.600 166.997 C 276.041 170.122,268.012 185.520,274.554 199.685 C 282.487 216.860,310.392 217.298,319.103 200.384 C 328.445 182.246,312.436 162.813,291.600 166.997 M117.401 167.256 C 117.286 167.555,117.239 177.790,117.296 190.000 L 117.400 212.200 122.600 212.200 L 127.800 212.200 127.910 206.086 L 128.021 199.972 129.037 199.586 C 130.319 199.099,136.036 199.081,137.298 199.561 C 137.967 199.816,138.934 201.262,140.575 204.461 C 143.322 209.816,144.405 211.693,144.979 212.094 C 145.625 212.545,156.800 212.466,156.800 212.011 C 156.800 211.614,150.450 201.382,149.127 199.646 C 147.981 198.142,148.225 197.556,151.055 195.026 C 160.131 186.910,157.463 172.362,146.114 168.089 C 142.811 166.846,117.835 166.121,117.401 167.256 M140.644 175.791 C 147.281 177.762,147.536 187.747,141.014 190.270 C 139.339 190.917,129.119 190.959,128.480 190.320 C 127.622 189.462,127.822 176.144,128.700 175.632 C 129.797 174.993,138.339 175.106,140.644 175.791 M303.203 177.040 C 311.437 181.522,312.797 194.157,305.717 200.390 C 294.647 210.134,278.904 197.341,285.056 183.600 C 288.186 176.607,296.732 173.518,303.203 177.040 M248.329 177.874 C 247.242 178.237,245.581 179.308,244.365 180.433 C 242.004 182.614,241.600 182.611,241.600 180.409 C 241.600 177.571,241.656 177.600,236.237 177.600 C 232.977 177.600,231.201 177.759,230.880 178.080 C 230.190 178.770,230.190 211.230,230.880 211.920 C 231.574 212.614,240.552 212.581,241.131 211.883 C 241.403 211.555,241.604 207.724,241.680 201.383 L 241.800 191.400 242.924 189.670 C 245.627 185.510,252.206 185.323,254.636 189.338 C 255.327 190.479,255.412 191.603,255.524 201.071 C 255.671 213.504,255.123 212.464,261.457 212.313 L 266.200 212.200 266.200 199.200 C 266.200 184.575,266.161 184.352,263.010 180.863 C 259.903 177.424,253.552 176.131,248.329 177.874 M337.315 178.203 C 329.526 180.857,326.200 185.944,326.200 195.200 C 326.201 206.418,332.841 212.874,344.279 212.777 C 350.775 212.722,360.065 207.900,358.996 205.139 C 358.793 204.614,358.428 204.373,354.135 201.936 L 352.070 200.763 350.681 201.983 C 344.383 207.512,336.818 203.701,336.818 195.000 C 336.818 186.834,343.750 182.803,349.823 187.439 C 352.014 189.110,351.802 189.115,354.871 187.327 C 359.271 184.764,359.447 184.464,357.700 182.521 C 353.383 177.721,344.347 175.807,337.315 178.203 M374.800 177.777 C 358.189 182.443,357.528 206.476,373.863 211.808 C 380.933 214.116,389.218 212.396,393.661 207.698 L 395.760 205.479 394.493 204.439 C 393.796 203.868,392.156 202.816,390.847 202.103 L 388.468 200.806 386.811 202.191 C 380.293 207.637,372.004 202.624,372.916 193.787 C 373.649 186.692,380.434 183.363,386.005 187.365 L 388.184 188.931 390.159 187.828 C 395.815 184.670,395.810 184.678,393.774 182.424 C 389.833 178.061,381.261 175.962,374.800 177.777 M210.188 178.088 C 210.079 178.370,210.038 186.160,210.096 195.400 L 210.200 212.200 215.400 212.200 L 220.600 212.200 220.600 195.000 L 220.600 177.800 215.492 177.688 C 211.627 177.603,210.336 177.701,210.188 178.088 M26.000 196.800 C 26.000 197.020,25.584 197.200,25.076 197.200 C 24.569 197.200,23.804 197.464,23.376 197.787 C 22.949 198.110,22.300 198.380,21.933 198.387 C 21.567 198.394,21.207 198.535,21.133 198.700 C 20.948 199.118,18.447 200.400,17.817 200.400 C 17.531 200.400,17.085 200.656,16.826 200.969 C 16.566 201.282,15.464 201.766,14.377 202.045 C 13.290 202.323,12.400 202.658,12.400 202.788 C 12.400 202.918,11.508 203.370,10.418 203.793 C 8.922 204.374,8.538 204.684,8.851 205.061 C 9.174 205.450,8.949 205.509,7.832 205.328 C 6.565 205.122,6.400 205.193,6.400 205.948 C 6.400 206.416,6.580 206.800,6.800 206.800 C 7.020 206.800,7.200 207.177,7.200 207.638 C 7.200 208.377,7.726 209.632,8.859 211.600 C 9.049 211.930,9.519 212.830,9.902 213.600 C 10.286 214.370,10.692 215.090,10.804 215.200 C 10.916 215.310,11.342 216.039,11.751 216.819 C 12.525 218.297,15.333 221.600,15.815 221.600 C 16.152 221.600,20.463 218.548,21.889 217.300 C 22.454 216.805,23.026 216.400,23.158 216.399 C 23.291 216.399,24.030 215.858,24.800 215.197 C 25.570 214.537,26.515 213.895,26.900 213.771 C 27.285 213.647,27.600 213.378,27.600 213.173 C 27.600 212.968,27.839 212.800,28.130 212.800 C 28.422 212.800,29.083 212.350,29.600 211.800 C 30.117 211.250,30.733 210.794,30.970 210.786 C 31.595 210.765,33.303 209.219,34.533 207.562 C 36.828 204.470,35.019 198.965,31.059 196.990 C 29.728 196.326,26.000 196.186,26.000 196.800 M33.200 203.520 C 33.200 203.916,33.403 204.443,33.651 204.691 C 33.928 204.968,33.987 205.575,33.803 206.271 L 33.504 207.400 33.052 206.129 C 32.803 205.429,32.485 204.744,32.344 204.606 C 31.996 204.265,32.405 202.800,32.847 202.800 C 33.041 202.800,33.200 203.124,33.200 203.520 M13.600 203.551 C 13.600 204.016,12.436 204.970,12.181 204.714 C 11.819 204.352,12.474 203.200,13.043 203.200 C 13.349 203.200,13.600 203.358,13.600 203.551 M14.343 206.356 C 15.201 206.900,14.175 207.302,12.737 206.986 C 11.821 206.785,11.639 206.621,12.047 206.363 C 12.749 205.918,13.647 205.915,14.343 206.356 M14.927 213.046 C 14.741 213.531,14.619 213.554,14.371 213.153 C 13.996 212.546,14.300 211.891,14.810 212.206 C 15.005 212.327,15.058 212.705,14.927 213.046 " stroke="none" fill="#213236" fill-rule="evenodd"></path><path id="path1" d="M0.000 200.000 L 0.000 400.000 200.000 400.000 L 400.000 400.000 400.000 200.000 L 400.000 0.000 200.000 0.000 L 0.000 0.000 0.000 200.000 M50.371 152.581 C 55.675 152.891,56.182 153.276,55.843 156.743 C 55.130 164.030,54.763 168.244,54.442 172.834 C 54.065 178.224,53.793 179.017,51.647 180.969 C 48.070 184.224,41.862 184.171,38.252 180.854 C 37.253 179.936,37.134 179.903,37.334 180.600 C 37.999 182.931,38.040 183.768,37.580 185.693 C 36.744 189.196,35.000 191.435,31.615 193.350 C 30.103 194.206,29.950 194.399,30.615 194.611 C 39.247 197.376,39.911 206.920,31.854 212.422 C 30.064 213.644,25.990 216.537,22.800 218.851 C 16.229 223.616,15.697 223.855,14.309 222.651 C 10.380 219.243,4.505 208.437,4.876 205.301 C 5.003 204.223,5.532 203.934,15.225 199.635 C 16.421 199.105,19.442 197.691,21.939 196.494 C 26.587 194.265,26.717 194.101,24.734 192.979 C 22.951 191.970,15.381 188.400,15.024 188.400 C 14.939 188.400,13.008 187.529,10.734 186.464 C 8.460 185.399,6.297 184.419,5.926 184.286 C 2.840 183.182,7.460 172.364,13.860 165.710 C 15.782 163.712,15.127 163.417,25.668 171.027 C 29.041 173.462,32.520 175.876,33.400 176.392 C 34.280 176.907,35.432 177.705,35.959 178.165 L 36.919 179.000 36.613 178.000 C 36.445 177.450,36.151 175.110,35.961 172.800 C 35.770 170.490,35.278 165.540,34.867 161.800 C 34.038 154.258,34.158 153.404,36.107 152.977 C 37.711 152.624,44.348 152.119,45.600 152.254 C 46.150 152.313,48.297 152.460,50.371 152.581 M217.260 160.410 C 221.854 161.686,223.364 168.035,219.913 171.565 C 215.978 175.590,208.800 172.673,208.800 167.049 C 208.800 162.420,212.904 159.200,217.260 160.410 M176.171 163.429 C 176.517 163.774,176.809 164.269,176.821 164.529 C 176.832 164.788,176.843 167.970,176.845 171.600 C 176.846 175.230,176.942 178.699,177.057 179.309 L 177.268 180.418 179.282 178.939 C 185.369 174.471,193.788 175.055,198.371 180.263 C 201.734 184.082,202.000 185.572,202.000 200.563 C 202.000 214.988,202.698 213.600,195.440 213.600 C 189.105 213.600,189.605 214.595,189.581 201.926 C 189.559 190.192,189.427 189.619,186.415 188.100 C 183.277 186.517,180.099 187.426,178.128 190.470 L 177.008 192.200 176.929 202.387 C 176.857 211.705,176.789 212.620,176.125 213.114 C 175.051 213.915,165.325 213.645,164.791 212.800 C 163.921 211.422,164.311 164.489,165.200 163.600 C 166.277 162.523,175.127 162.385,176.171 163.429 M77.107 166.783 C 81.249 171.592,85.177 179.228,85.194 182.504 C 85.201 183.708,84.998 183.823,75.200 188.190 C 65.087 192.698,62.461 194.191,63.875 194.632 C 64.274 194.756,64.870 195.030,65.200 195.240 C 66.263 195.918,74.863 200.011,79.600 202.093 C 85.477 204.677,85.500 204.698,84.882 207.009 C 83.396 212.565,76.481 223.200,74.355 223.200 C 73.927 223.200,72.457 222.342,71.089 221.293 C 69.720 220.244,68.206 219.119,67.725 218.793 C 67.244 218.467,64.689 216.625,62.047 214.700 C 59.405 212.775,57.126 211.200,56.983 211.200 C 53.720 211.200,51.883 204.540,53.944 200.183 C 55.378 197.152,57.120 195.591,60.145 194.628 C 61.066 194.335,60.323 193.200,59.211 193.200 C 56.560 193.200,52.801 187.715,52.800 183.846 C 52.800 179.845,53.615 178.405,56.851 176.694 C 58.549 175.796,62.359 173.096,70.353 167.123 C 74.206 164.245,74.892 164.210,77.107 166.783 M143.800 166.455 C 148.357 167.328,152.774 170.122,154.815 173.424 C 159.144 180.429,157.180 192.242,150.986 196.460 C 149.048 197.779,149.474 199.071,153.882 205.248 C 154.607 206.264,155.200 207.193,155.200 207.313 C 155.200 207.432,155.830 208.487,156.600 209.656 C 158.967 213.250,158.633 213.489,151.179 213.526 C 143.774 213.563,144.663 214.237,139.791 204.900 L 137.443 200.400 133.348 200.400 C 128.496 200.400,128.859 199.898,128.868 206.600 C 128.876 212.605,128.917 212.226,128.171 212.971 C 127.263 213.880,118.184 213.884,116.889 212.977 L 116.000 212.355 116.000 189.709 C 116.000 170.652,116.091 166.963,116.571 166.431 C 117.275 165.653,139.712 165.672,143.800 166.455 M303.974 166.243 C 316.228 169.241,324.286 180.798,322.456 192.751 C 317.768 223.372,270.557 219.695,271.729 188.800 C 272.178 176.949,279.397 168.533,291.400 165.870 C 293.506 165.403,301.512 165.640,303.974 166.243 M257.754 176.481 C 265.781 178.825,267.200 182.342,267.200 199.886 L 267.200 212.820 266.100 213.240 C 264.376 213.898,255.662 213.546,255.191 212.800 C 254.978 212.463,254.810 207.624,254.806 201.759 C 254.800 191.594,254.776 191.283,253.900 190.000 C 251.249 186.116,245.808 186.462,243.334 190.671 L 242.200 192.600 242.157 202.564 C 242.106 214.546,242.634 213.600,236.000 213.600 C 229.099 213.600,229.800 215.724,229.800 194.817 C 229.800 174.209,229.058 176.412,236.000 176.412 C 241.810 176.412,241.802 176.409,242.169 178.903 L 242.450 180.806 244.325 179.281 C 248.104 176.209,253.192 175.148,257.754 176.481 M348.622 176.548 C 352.257 177.329,355.486 179.034,357.899 181.447 C 360.839 184.387,360.722 184.790,356.074 187.682 C 351.791 190.347,351.796 190.346,350.200 188.949 C 343.864 183.407,335.790 188.824,337.759 197.295 C 339.163 203.335,345.246 205.377,349.919 201.376 C 351.985 199.608,352.076 199.618,356.355 202.061 C 361.146 204.796,361.246 205.749,357.116 209.361 C 348.208 217.153,332.128 214.490,326.988 204.371 C 319.247 189.133,331.835 172.944,348.622 176.548 M385.057 176.628 C 391.119 178.034,397.092 182.532,396.151 184.984 C 396.017 185.333,394.232 186.618,392.185 187.840 C 388.109 190.272,388.189 190.268,385.400 188.175 C 379.723 183.913,373.626 188.110,374.081 195.967 C 374.483 202.921,381.373 206.009,386.145 201.374 C 387.831 199.738,388.691 199.668,390.800 201.000 C 391.671 201.550,392.490 202.000,392.620 202.000 C 393.557 202.000,396.400 204.558,396.400 205.401 C 396.400 208.193,389.849 212.477,384.030 213.491 C 369.509 216.020,358.931 205.219,361.630 190.619 C 363.543 180.271,373.954 174.053,385.057 176.628 M129.095 176.900 C 128.708 177.917,128.788 187.917,129.192 188.980 L 129.611 190.080 134.705 189.936 C 142.414 189.719,144.800 188.100,144.800 183.088 C 144.800 177.939,142.433 176.400,134.517 176.400 C 130.700 176.400,129.234 176.535,129.095 176.900 M221.104 194.774 C 221.179 207.917,221.084 213.025,220.758 213.226 C 219.915 213.747,210.084 213.444,209.520 212.880 C 208.727 212.087,208.763 178.011,209.558 177.052 C 210.040 176.470,210.858 176.393,215.558 176.489 L 221.000 176.600 221.104 194.774 M293.909 176.992 C 287.661 178.712,283.463 185.700,284.825 192.116 C 287.658 205.469,304.606 206.615,308.853 193.740 C 312.080 183.959,303.506 174.350,293.909 176.992 M50.450 206.106 C 53.243 208.236,53.702 209.404,54.255 215.781 C 54.897 223.180,55.539 229.746,55.845 232.056 C 56.258 235.168,55.590 235.390,45.824 235.396 C 33.134 235.402,33.824 235.968,34.849 226.400 C 35.261 222.550,35.717 217.420,35.863 215.000 C 36.338 207.094,38.431 204.827,45.269 204.809 C 48.576 204.800,48.818 204.861,50.450 206.106 " stroke="none" fill="#fbfbfb" fill-rule="evenodd"></path><path id="path2" d="M41.349 153.231 C 34.645 153.656,34.790 153.415,35.791 162.462 C 36.116 165.398,36.558 169.819,36.774 172.287 C 37.325 178.581,38.541 180.736,42.149 181.807 C 46.495 183.098,49.797 182.114,52.296 178.785 C 53.044 177.787,54.883 162.424,54.973 156.409 C 55.016 153.565,50.974 152.622,41.349 153.231 M65.200 171.363 C 53.392 179.620,52.611 180.533,53.394 185.167 C 54.615 192.392,60.189 194.675,67.869 191.094 C 70.471 189.881,75.257 187.676,78.505 186.193 C 85.449 183.024,85.393 183.108,83.635 178.560 C 81.183 172.216,76.480 165.587,74.451 165.614 C 73.761 165.624,70.585 167.598,65.200 171.363 M58.983 195.952 C 55.601 197.489,53.457 201.317,53.854 205.114 C 54.173 208.166,54.787 208.925,59.675 212.314 C 61.806 213.791,65.586 216.457,68.075 218.237 C 73.826 222.351,74.188 222.542,75.196 222.002 C 77.106 220.980,82.005 213.203,83.619 208.633 C 84.887 205.038,84.886 205.037,75.600 201.015 C 73.730 200.205,70.207 198.565,67.771 197.371 C 62.921 194.993,61.573 194.776,58.983 195.952 M41.914 206.055 C 38.313 207.068,37.083 209.756,36.447 218.000 C 36.218 220.970,35.821 225.506,35.565 228.080 C 34.899 234.770,34.970 234.817,45.720 234.777 C 55.357 234.742,55.314 234.785,54.409 226.055 C 54.166 223.715,53.798 219.730,53.591 217.200 C 52.954 209.429,52.443 208.070,49.604 206.602 C 48.139 205.845,43.768 205.534,41.914 206.055 " stroke="none" fill="#d64637" fill-rule="evenodd"></path><path id="path3" d="M40.951 152.430 C 33.626 153.000,33.861 152.639,34.867 161.800 C 35.278 165.540,35.770 170.490,35.961 172.800 C 36.151 175.110,36.445 177.450,36.613 178.000 L 36.919 179.000 35.959 178.165 C 35.432 177.705,34.280 176.907,33.400 176.392 C 32.520 175.876,29.041 173.462,25.668 171.027 C 15.127 163.417,15.782 163.712,13.860 165.710 C 7.460 172.364,2.840 183.182,5.926 184.286 C 6.297 184.419,8.460 185.399,10.734 186.464 C 13.008 187.529,14.939 188.400,15.024 188.400 C 15.381 188.400,22.951 191.970,24.734 192.979 C 26.717 194.101,26.587 194.265,21.939 196.494 C 19.442 197.691,16.421 199.105,15.225 199.635 C 5.532 203.934,5.003 204.223,4.876 205.301 C 4.505 208.437,10.380 219.243,14.309 222.651 C 15.697 223.855,16.229 223.616,22.800 218.851 C 25.990 216.537,30.064 213.644,31.854 212.422 C 39.911 206.920,39.247 197.376,30.615 194.611 C 29.950 194.399,30.103 194.206,31.615 193.350 C 35.000 191.435,36.744 189.196,37.580 185.693 C 38.040 183.768,37.999 182.931,37.334 180.600 C 37.134 179.903,37.253 179.936,38.252 180.854 C 40.722 183.124,46.917 184.137,49.447 182.686 C 53.115 180.582,54.026 178.786,54.442 172.834 C 54.763 168.244,55.130 164.030,55.843 156.743 C 56.182 153.276,55.675 152.891,50.371 152.581 C 48.297 152.460,46.150 152.313,45.600 152.254 C 45.050 152.194,42.958 152.274,40.951 152.430 M53.802 154.040 C 55.252 154.739,55.257 154.861,54.257 165.600 C 53.430 174.488,52.913 177.962,52.296 178.785 C 49.797 182.114,46.495 183.098,42.149 181.807 C 38.541 180.736,37.325 178.581,36.774 172.287 C 36.558 169.819,36.116 165.398,35.791 162.462 C 34.940 154.770,34.953 154.599,36.449 153.980 C 39.220 152.832,51.384 152.874,53.802 154.040 M213.400 160.530 C 210.371 161.716,208.800 163.942,208.800 167.049 C 208.800 172.673,215.978 175.590,219.913 171.565 C 224.733 166.634,219.680 158.073,213.400 160.530 M217.713 161.348 C 223.471 163.802,221.654 172.800,215.400 172.800 C 209.053 172.800,207.194 163.945,213.000 161.365 C 214.559 160.672,216.113 160.667,217.713 161.348 M165.200 163.600 C 164.311 164.489,163.921 211.422,164.791 212.800 C 165.325 213.645,175.051 213.915,176.125 213.114 C 176.789 212.620,176.857 211.705,176.929 202.387 L 177.008 192.200 178.128 190.470 C 180.099 187.426,183.277 186.517,186.415 188.100 C 189.427 189.619,189.559 190.192,189.581 201.926 C 189.605 214.595,189.105 213.600,195.440 213.600 C 202.698 213.600,202.000 214.988,202.000 200.563 C 202.000 185.572,201.734 184.082,198.371 180.263 C 193.788 175.055,185.369 174.471,179.282 178.939 L 177.268 180.418 177.057 179.309 C 176.942 178.699,176.846 175.230,176.845 171.600 C 176.843 167.970,176.832 164.788,176.821 164.529 C 176.736 162.608,166.972 161.828,165.200 163.600 M176.010 164.626 C 176.224 165.190,176.400 169.240,176.400 173.626 C 176.400 182.484,176.380 182.433,178.903 180.155 C 183.652 175.864,192.364 175.603,196.923 179.615 C 201.043 183.242,201.500 185.611,201.200 201.800 L 201.000 212.600 195.831 212.712 C 191.965 212.797,190.581 212.696,190.337 212.312 C 190.159 212.031,190.009 207.210,190.006 201.600 C 189.997 188.502,189.264 186.800,183.634 186.800 C 177.741 186.800,176.654 189.065,176.400 201.881 C 176.163 213.843,176.712 212.857,170.367 212.713 L 165.400 212.600 165.297 188.426 C 165.215 169.351,165.300 164.184,165.697 163.932 C 167.164 163.000,175.608 163.569,176.010 164.626 M70.353 167.123 C 62.359 173.096,58.549 175.796,56.851 176.694 C 53.615 178.405,52.800 179.845,52.800 183.846 C 52.801 187.715,56.560 193.200,59.211 193.200 C 60.323 193.200,61.066 194.335,60.145 194.628 C 57.120 195.591,55.378 197.152,53.944 200.183 C 51.883 204.540,53.720 211.200,56.983 211.200 C 57.126 211.200,59.405 212.775,62.047 214.700 C 64.689 216.625,67.244 218.467,67.725 218.793 C 68.206 219.119,69.720 220.244,71.089 221.293 C 72.457 222.342,73.927 223.200,74.355 223.200 C 76.481 223.200,83.396 212.565,84.882 207.009 C 85.500 204.698,85.477 204.677,79.600 202.093 C 74.863 200.011,66.263 195.918,65.200 195.240 C 64.870 195.030,64.274 194.756,63.875 194.632 C 62.461 194.191,65.087 192.698,75.200 188.190 C 84.998 183.823,85.201 183.708,85.194 182.504 C 85.170 177.879,77.160 164.760,74.400 164.824 C 73.834 164.837,72.078 165.835,70.353 167.123 M24.950 171.196 C 29.598 174.494,33.806 177.474,34.302 177.817 C 40.809 182.316,34.408 195.132,26.783 192.874 C 24.591 192.225,6.679 184.005,5.868 183.276 C 4.283 181.851,7.640 174.292,12.698 167.900 C 15.520 164.333,15.131 164.228,24.950 171.196 M77.366 167.781 C 80.914 171.933,85.146 180.569,84.633 182.609 C 84.460 183.299,83.088 184.102,78.505 186.193 C 75.257 187.676,70.471 189.881,67.869 191.094 C 60.189 194.675,54.615 192.392,53.394 185.167 C 52.611 180.533,53.392 179.620,65.200 171.363 C 74.777 164.666,74.719 164.683,77.366 167.781 M116.571 166.431 C 116.091 166.963,116.000 170.652,116.000 189.709 L 116.000 212.355 116.889 212.977 C 118.184 213.884,127.263 213.880,128.171 212.971 C 128.917 212.226,128.876 212.605,128.868 206.600 C 128.859 199.898,128.496 200.400,133.348 200.400 L 137.443 200.400 139.791 204.900 C 144.663 214.237,143.774 213.563,151.179 213.526 C 158.633 213.489,158.967 213.250,156.600 209.656 C 155.830 208.487,155.200 207.432,155.200 207.313 C 155.200 207.193,154.607 206.264,153.882 205.248 C 149.474 199.071,149.048 197.779,150.986 196.460 C 160.468 190.003,158.817 172.750,148.250 167.863 C 144.070 165.930,118.086 164.756,116.571 166.431 M291.400 165.870 C 273.520 169.838,265.584 189.536,276.106 203.830 C 289.429 221.928,319.074 214.842,322.456 192.751 C 324.969 176.338,308.494 162.078,291.400 165.870 M301.027 166.419 C 314.512 168.798,322.458 177.990,321.910 190.576 C 320.712 218.078,278.953 221.652,272.623 194.794 C 268.745 178.339,283.732 163.367,301.027 166.419 M144.983 167.392 C 152.833 169.620,156.187 174.110,156.195 182.400 C 156.202 189.193,155.613 190.808,151.710 194.708 C 148.210 198.206,148.242 197.596,151.300 202.446 C 158.501 213.867,158.528 212.800,151.034 212.800 C 144.172 212.800,144.814 213.217,141.312 206.482 C 137.520 199.189,137.997 199.599,133.304 199.606 C 128.000 199.614,128.237 199.333,128.347 205.491 C 128.398 208.326,128.255 211.130,128.029 211.723 L 127.620 212.800 122.690 212.800 C 119.389 212.800,117.601 212.641,117.280 212.320 C 116.918 211.958,116.800 206.344,116.800 189.507 L 116.800 167.174 117.700 166.789 C 119.322 166.094,142.191 166.599,144.983 167.392 M128.900 175.865 C 128.288 176.112,128.173 189.812,128.779 190.187 C 129.514 190.641,139.779 190.501,141.000 190.020 C 146.937 187.680,146.887 178.305,140.926 176.180 C 139.445 175.651,130.040 175.405,128.900 175.865 M249.400 176.461 C 247.225 177.182,246.222 177.739,244.325 179.281 L 242.450 180.806 242.169 178.903 C 241.802 176.409,241.810 176.412,236.000 176.412 C 229.058 176.412,229.800 174.209,229.800 194.817 C 229.800 215.724,229.099 213.600,236.000 213.600 C 242.634 213.600,242.106 214.546,242.157 202.564 L 242.200 192.600 243.334 190.671 C 245.808 186.462,251.249 186.116,253.900 190.000 C 254.776 191.283,254.800 191.594,254.806 201.759 C 254.810 207.624,254.978 212.463,255.191 212.800 C 255.662 213.546,264.376 213.898,266.100 213.240 L 267.200 212.820 267.200 199.886 C 267.200 185.595,266.999 184.305,264.199 180.635 C 261.365 176.918,254.156 174.885,249.400 176.461 M292.636 176.629 C 282.782 180.240,280.984 194.676,289.601 201.001 C 298.291 207.380,309.846 201.009,309.969 189.771 C 310.075 180.100,301.308 173.452,292.636 176.629 M339.197 176.566 C 320.153 180.749,319.793 208.493,338.721 213.204 C 345.241 214.827,352.634 213.282,357.116 209.361 C 361.246 205.749,361.146 204.796,356.355 202.061 C 352.076 199.618,351.985 199.608,349.919 201.376 C 345.246 205.377,339.163 203.335,337.759 197.295 C 335.790 188.824,343.864 183.407,350.200 188.949 C 351.796 190.346,351.791 190.347,356.074 187.682 C 360.722 184.790,360.839 184.387,357.899 181.447 C 353.415 176.963,346.091 175.051,339.197 176.566 M375.265 176.635 C 355.253 181.016,356.803 210.634,377.200 213.595 C 385.110 214.743,396.400 209.925,396.400 205.401 C 396.400 204.558,393.557 202.000,392.620 202.000 C 392.490 202.000,391.671 201.550,390.800 201.000 C 388.691 199.668,387.831 199.738,386.145 201.374 C 381.373 206.009,374.483 202.921,374.081 195.967 C 373.626 188.110,379.723 183.913,385.400 188.175 C 388.189 190.268,388.109 190.272,392.185 187.840 C 396.276 185.398,396.674 184.890,395.808 183.215 C 393.152 178.080,383.212 174.896,375.265 176.635 M141.459 177.228 C 143.822 178.372,144.800 180.088,144.800 183.088 C 144.800 188.100,142.414 189.719,134.705 189.936 L 129.611 190.080 129.192 188.980 C 128.788 187.917,128.708 177.917,129.095 176.900 C 129.451 175.965,139.394 176.229,141.459 177.228 M209.558 177.052 C 208.763 178.011,208.727 212.087,209.520 212.880 C 210.084 213.444,219.915 213.747,220.758 213.226 C 221.084 213.025,221.179 207.917,221.104 194.774 L 221.000 176.600 215.558 176.489 C 210.858 176.393,210.040 176.470,209.558 177.052 M299.672 176.853 C 306.924 178.408,311.272 186.406,308.853 193.740 C 304.606 206.615,287.658 205.469,284.825 192.116 C 282.933 183.204,290.934 174.979,299.672 176.853 M258.482 177.422 C 265.290 179.741,266.800 183.904,266.800 200.351 C 266.800 214.010,267.372 212.800,260.910 212.800 C 254.816 212.800,255.327 213.859,255.297 201.156 C 255.266 188.134,254.451 186.440,248.420 186.876 C 242.741 187.287,241.839 189.307,241.668 201.998 C 241.587 208.005,241.374 211.990,241.119 212.298 C 240.505 213.038,231.463 212.999,230.845 212.254 C 230.519 211.861,230.421 206.885,230.496 194.554 L 230.600 177.400 236.000 177.400 L 241.400 177.400 241.618 179.298 C 241.810 180.969,242.800 182.986,242.800 181.707 C 242.800 178.526,253.302 175.657,258.482 177.422 M351.163 177.962 C 355.064 179.432,359.386 182.927,359.108 184.387 C 358.875 185.612,352.240 189.580,351.429 188.979 C 345.123 184.304,339.845 185.091,337.620 191.039 C 334.096 200.457,344.170 208.711,350.562 201.643 C 351.668 200.419,352.507 200.580,356.029 202.691 C 359.756 204.925,359.841 205.070,358.511 206.940 C 354.961 211.929,344.809 214.513,337.562 212.271 C 320.183 206.897,321.997 180.692,340.000 177.058 C 342.258 176.602,349.005 177.149,351.163 177.962 M385.416 177.413 C 388.946 178.320,391.799 179.902,393.841 182.085 C 396.105 184.505,396.092 184.538,391.849 187.151 L 388.356 189.302 386.148 187.782 C 378.634 182.607,370.623 189.794,373.816 198.844 C 375.740 204.297,383.194 205.892,386.962 201.656 C 388.051 200.433,388.739 200.566,392.358 202.700 C 396.179 204.953,396.274 205.314,393.751 208.011 C 386.201 216.082,369.042 214.163,364.149 204.701 C 356.236 189.399,368.888 173.165,385.416 177.413 M220.600 195.000 L 220.600 212.600 215.604 212.713 C 211.255 212.812,210.543 212.737,210.104 212.137 C 209.571 211.408,209.330 179.169,209.847 177.821 C 210.060 177.267,210.821 177.193,215.347 177.289 L 220.600 177.400 220.600 195.000 M30.426 195.201 C 34.104 196.222,37.077 200.836,36.693 204.928 C 36.445 207.572,34.832 209.731,31.183 212.303 C 29.543 213.460,26.620 215.530,24.689 216.903 C 17.951 221.695,16.245 222.800,15.587 222.800 C 13.803 222.800,7.402 212.970,5.627 207.506 C 4.739 204.771,4.747 204.765,15.455 200.061 C 17.465 199.178,20.435 197.787,22.055 196.969 C 26.504 194.724,27.757 194.459,30.426 195.201 M67.771 197.371 C 70.207 198.565,73.730 200.205,75.600 201.015 C 84.886 205.037,84.887 205.038,83.619 208.633 C 82.005 213.203,77.106 220.980,75.196 222.002 C 74.188 222.542,73.826 222.351,68.075 218.237 C 65.586 216.457,61.806 213.791,59.675 212.314 C 53.839 208.268,52.442 205.321,54.338 201.055 C 57.031 194.996,60.812 193.959,67.771 197.371 M40.509 205.455 C 37.170 207.101,36.221 209.051,35.863 215.000 C 35.717 217.420,35.261 222.550,34.849 226.400 C 33.824 235.968,33.134 235.402,45.824 235.396 C 55.590 235.390,56.258 235.168,55.845 232.056 C 55.539 229.746,54.897 223.180,54.255 215.781 C 53.702 209.404,53.243 208.236,50.450 206.106 C 48.418 204.556,43.046 204.204,40.509 205.455 M49.604 206.602 C 52.443 208.070,52.954 209.429,53.591 217.200 C 53.798 219.730,54.166 223.715,54.409 226.055 C 55.314 234.785,55.357 234.742,45.720 234.777 C 34.970 234.817,34.899 234.770,35.565 228.080 C 35.821 225.506,36.218 220.970,36.447 218.000 C 36.970 211.224,37.305 209.929,39.035 208.014 C 41.170 205.651,46.411 204.951,49.604 206.602 " stroke="none" fill="#9ca6a7" fill-rule="evenodd"></path><path id="path4" d="M213.200 161.248 C 212.086 161.691,210.000 163.554,210.000 164.106 C 210.000 164.301,210.463 163.911,211.029 163.238 C 213.134 160.737,217.101 160.621,219.472 162.992 C 220.202 163.722,220.800 164.192,220.800 164.035 C 220.800 162.086,215.750 160.234,213.200 161.248 M165.737 163.906 C 165.483 164.068,167.670 164.200,170.598 164.200 C 173.527 164.200,175.839 164.065,175.738 163.900 C 175.499 163.513,166.348 163.518,165.737 163.906 M12.698 167.900 C 7.640 174.292,4.283 181.851,5.868 183.276 C 6.679 184.005,24.591 192.225,26.783 192.874 C 34.408 195.132,40.809 182.316,34.302 177.817 C 33.806 177.474,29.598 174.494,24.950 171.196 C 15.131 164.228,15.520 164.333,12.698 167.900 M176.091 173.476 C 175.990 182.921,176.062 183.164,178.312 180.920 C 179.150 180.084,179.279 179.895,178.599 180.500 C 176.449 182.412,176.427 182.341,176.300 173.300 L 176.183 165.000 176.091 173.476 M24.436 171.511 C 28.965 174.750,33.148 177.654,33.732 177.965 C 36.357 179.365,37.190 184.371,35.375 187.840 C 32.912 192.551,28.267 194.014,24.139 191.382 C 23.417 190.921,20.072 189.373,13.800 186.596 C 13.140 186.304,11.372 185.510,9.872 184.832 C 8.372 184.155,6.989 183.600,6.799 183.600 C 5.909 183.600,5.905 180.686,6.792 178.813 C 6.952 178.476,7.420 177.480,7.833 176.600 C 9.949 172.091,14.653 165.581,15.775 165.611 C 16.009 165.618,19.906 168.273,24.436 171.511 M295.491 166.289 C 296.201 166.377,297.461 166.379,298.291 166.292 C 299.121 166.205,298.540 166.133,297.000 166.131 C 295.460 166.129,294.781 166.200,295.491 166.289 M123.500 166.699 C 126.415 166.767,131.185 166.767,134.100 166.699 C 137.015 166.631,134.630 166.575,128.800 166.575 C 122.970 166.575,120.585 166.631,123.500 166.699 M117.067 167.067 C 116.549 167.585,116.757 211.797,117.280 212.320 C 117.815 212.855,127.416 213.020,127.739 212.500 C 127.841 212.335,125.557 212.200,122.662 212.200 L 117.400 212.200 117.400 189.500 C 117.400 177.015,117.385 166.800,117.367 166.800 C 117.348 166.800,117.213 166.920,117.067 167.067 M140.700 167.082 C 141.195 167.178,142.005 167.178,142.500 167.082 C 142.995 166.987,142.590 166.909,141.600 166.909 C 140.610 166.909,140.205 166.987,140.700 167.082 M286.390 168.128 C 284.339 168.972,280.400 171.402,280.400 171.823 C 280.400 171.925,281.381 171.357,282.579 170.561 C 283.778 169.765,285.893 168.693,287.279 168.178 C 288.666 167.663,289.530 167.237,289.200 167.230 C 288.870 167.224,287.606 167.628,286.390 168.128 M147.309 168.568 C 148.578 169.090,150.468 170.181,151.509 170.992 L 153.400 172.466 151.800 170.983 C 150.191 169.491,146.716 167.603,145.600 167.613 C 145.270 167.616,146.039 168.046,147.309 168.568 M307.967 168.625 C 308.719 168.951,309.934 169.589,310.667 170.042 C 311.400 170.495,312.000 170.764,312.000 170.641 C 312.000 170.273,307.850 168.007,307.200 168.019 C 306.870 168.026,307.215 168.298,307.967 168.625 M219.429 170.762 L 218.258 172.200 219.609 170.913 C 220.351 170.205,220.878 169.558,220.779 169.475 C 220.681 169.392,220.073 169.971,219.429 170.762 M312.600 171.073 C 314.158 172.643,316.854 174.815,315.800 173.652 C 315.140 172.923,314.060 171.954,313.400 171.499 C 312.740 171.043,312.380 170.852,312.600 171.073 M213.338 172.494 C 213.592 172.656,214.520 172.788,215.400 172.788 C 216.280 172.788,217.208 172.656,217.462 172.494 C 217.716 172.332,216.788 172.200,215.400 172.200 C 214.012 172.200,213.084 172.332,213.338 172.494 M276.621 175.648 C 276.043 176.334,275.305 177.459,274.980 178.148 C 274.655 178.837,274.616 179.059,274.894 178.642 C 275.172 178.225,275.984 177.100,276.697 176.142 C 278.201 174.124,278.155 173.825,276.621 175.648 M128.700 175.632 C 127.822 176.144,127.622 189.462,128.480 190.320 C 128.778 190.618,130.029 190.773,131.780 190.728 L 134.600 190.656 131.600 190.428 L 128.600 190.200 128.491 183.110 C 128.363 174.793,127.646 175.659,134.800 175.484 L 139.400 175.371 134.400 175.298 C 131.583 175.256,129.094 175.402,128.700 175.632 M317.599 176.300 C 318.122 177.015,318.613 177.600,318.689 177.600 C 318.993 177.600,318.001 176.100,317.345 175.567 C 316.913 175.216,317.010 175.496,317.599 176.300 M295.491 175.889 C 296.201 175.977,297.461 175.979,298.291 175.892 C 299.121 175.805,298.540 175.733,297.000 175.731 C 295.460 175.729,294.781 175.800,295.491 175.889 M142.304 176.798 C 143.021 177.235,143.965 178.179,144.402 178.896 C 144.839 179.613,145.198 179.954,145.199 179.653 C 145.199 179.352,144.501 178.407,143.647 177.553 C 142.793 176.699,141.848 176.001,141.547 176.001 C 141.246 176.002,141.587 176.361,142.304 176.798 M301.546 176.616 C 302.286 176.937,303.006 177.194,303.146 177.186 C 303.666 177.157,301.376 176.028,300.800 176.030 C 300.470 176.031,300.806 176.294,301.546 176.616 M186.700 177.093 C 187.635 177.177,189.165 177.177,190.100 177.093 C 191.035 177.009,190.270 176.940,188.400 176.940 C 186.530 176.940,185.765 177.009,186.700 177.093 M252.112 177.095 C 253.164 177.177,254.784 177.176,255.712 177.092 C 256.640 177.008,255.780 176.941,253.800 176.942 C 251.820 176.943,251.060 177.012,252.112 177.095 M342.300 177.093 C 343.235 177.177,344.765 177.177,345.700 177.093 C 346.635 177.009,345.870 176.940,344.000 176.940 C 342.130 176.940,341.365 177.009,342.300 177.093 M378.700 177.093 C 379.635 177.177,381.165 177.177,382.100 177.093 C 383.035 177.009,382.270 176.940,380.400 176.940 C 378.530 176.940,377.765 177.009,378.700 177.093 M182.100 177.989 C 181.165 178.414,180.400 178.850,180.400 178.958 C 180.400 179.140,183.990 177.683,184.367 177.348 C 184.799 176.964,183.633 177.293,182.100 177.989 M209.843 177.833 C 209.709 178.181,209.642 185.966,209.693 195.133 L 209.787 211.800 209.993 194.800 L 210.200 177.800 215.462 177.800 C 218.357 177.800,220.641 177.665,220.539 177.500 C 220.132 176.845,210.102 177.157,209.843 177.833 M230.678 177.456 C 230.525 177.608,230.400 177.919,230.400 178.147 C 230.400 178.394,230.593 178.367,230.880 178.080 C 231.490 177.470,241.037 177.406,241.337 178.010 C 241.449 178.236,241.494 178.191,241.437 177.910 C 241.325 177.354,231.207 176.927,230.678 177.456 M259.345 178.148 C 260.415 178.689,261.945 179.732,262.745 180.466 L 264.198 181.800 262.999 180.472 C 261.657 178.986,259.900 177.823,258.400 177.428 C 257.850 177.283,258.275 177.607,259.345 178.148 M289.322 178.229 L 288.200 179.258 289.500 178.354 C 290.215 177.857,290.800 177.393,290.800 177.325 C 290.800 177.009,290.358 177.280,289.322 178.229 M303.600 177.288 C 303.600 177.366,304.455 178.133,305.500 178.992 C 306.545 179.851,307.040 180.140,306.600 179.634 C 305.822 178.739,303.600 177.002,303.600 177.288 M338.000 177.618 C 337.562 177.915,337.724 177.952,338.600 177.756 C 340.071 177.427,340.390 177.198,339.367 177.206 C 338.945 177.209,338.330 177.395,338.000 177.618 M348.033 177.344 C 348.125 177.423,348.740 177.608,349.400 177.756 C 350.276 177.952,350.438 177.915,350.000 177.618 C 349.460 177.253,347.632 176.998,348.033 177.344 M374.200 177.600 C 373.181 178.038,374.232 178.038,375.600 177.600 C 376.404 177.343,376.443 177.277,375.800 177.268 C 375.360 177.262,374.640 177.411,374.200 177.600 M385.000 177.600 C 385.440 177.789,386.070 177.944,386.400 177.944 C 386.778 177.944,386.704 177.817,386.200 177.600 C 385.760 177.411,385.130 177.256,384.800 177.256 C 384.422 177.256,384.496 177.383,385.000 177.600 M195.211 178.660 C 195.755 179.024,196.751 179.789,197.423 180.360 C 198.096 180.932,197.854 180.635,196.885 179.700 C 195.916 178.765,194.920 178.000,194.672 178.000 C 194.425 178.000,194.667 178.297,195.211 178.660 M335.200 178.600 C 333.894 179.347,334.351 179.355,336.054 178.616 C 336.794 178.294,337.130 178.031,336.800 178.030 C 336.470 178.029,335.750 178.286,335.200 178.600 M353.046 179.186 C 354.351 179.838,355.845 180.769,356.365 181.254 C 356.886 181.739,357.233 181.900,357.137 181.612 C 356.925 180.974,352.089 178.000,351.264 178.000 C 350.938 178.000,351.740 178.534,353.046 179.186 M371.600 178.600 C 371.050 178.914,370.780 179.172,371.000 179.172 C 371.220 179.172,371.850 178.914,372.400 178.600 C 372.950 178.286,373.220 178.028,373.000 178.028 C 372.780 178.028,372.150 178.286,371.600 178.600 M244.400 180.034 L 242.600 181.665 244.500 180.184 C 246.166 178.886,246.659 178.397,246.300 178.401 C 246.245 178.402,245.390 179.136,244.400 180.034 M390.000 179.460 C 393.613 181.572,395.623 183.981,394.728 185.126 C 394.254 185.731,394.271 185.744,394.900 185.251 C 395.285 184.949,395.600 184.540,395.600 184.342 C 395.600 183.222,389.844 178.389,388.529 178.404 C 388.348 178.406,389.010 178.881,390.000 179.460 M156.093 180.000 C 156.093 180.770,156.175 181.085,156.276 180.700 C 156.376 180.315,156.376 179.685,156.276 179.300 C 156.175 178.915,156.093 179.230,156.093 180.000 M332.600 180.235 L 331.400 181.266 332.700 180.406 C 333.415 179.933,334.000 179.468,334.000 179.373 C 334.000 179.073,333.831 179.178,332.600 180.235 M286.920 180.500 C 286.469 180.995,285.894 181.850,285.642 182.400 C 285.253 183.248,285.261 183.286,285.692 182.646 C 285.971 182.232,286.621 181.377,287.136 180.746 C 288.245 179.387,288.092 179.213,286.920 180.500 M367.950 180.810 C 367.372 181.241,366.414 182.271,365.821 183.097 L 364.742 184.600 365.971 183.215 C 366.647 182.453,367.695 181.425,368.300 180.929 C 369.653 179.822,369.392 179.733,367.950 180.810 M145.293 181.600 C 145.293 182.370,145.375 182.685,145.476 182.300 C 145.576 181.915,145.576 181.285,145.476 180.900 C 145.375 180.515,145.293 180.830,145.293 181.600 M241.600 181.300 C 241.600 181.659,241.792 182.071,242.027 182.216 C 242.713 182.640,242.780 182.261,242.167 181.423 C 241.693 180.774,241.600 180.754,241.600 181.300 M329.775 182.900 L 328.600 184.200 329.900 183.025 C 330.615 182.379,331.200 181.794,331.200 181.725 C 331.200 181.416,330.870 181.688,329.775 182.900 M358.243 183.084 C 358.930 184.325,358.927 184.398,358.177 185.284 L 357.400 186.200 358.300 185.438 C 359.404 184.503,359.413 184.080,358.358 182.800 L 357.533 181.800 358.243 183.084 M156.093 185.200 C 156.093 185.970,156.175 186.285,156.276 185.900 C 156.376 185.515,156.376 184.885,156.276 184.500 C 156.175 184.115,156.093 184.430,156.093 185.200 M284.229 185.429 C 284.081 186.015,284.038 186.572,284.132 186.666 C 284.227 186.760,284.424 186.358,284.571 185.771 C 284.719 185.185,284.762 184.628,284.668 184.534 C 284.573 184.440,284.376 184.842,284.229 185.429 M363.781 186.037 C 363.429 186.718,363.212 187.345,363.299 187.432 C 363.386 187.519,363.756 186.962,364.122 186.195 C 364.944 184.470,364.659 184.338,363.781 186.037 M321.734 188.400 C 321.734 190.050,321.805 190.725,321.891 189.900 C 321.978 189.075,321.978 187.725,321.891 186.900 C 321.805 186.075,321.734 186.750,321.734 188.400 M343.705 185.887 C 344.314 185.979,345.214 185.977,345.705 185.882 C 346.197 185.787,345.700 185.711,344.600 185.714 C 343.500 185.717,343.097 185.795,343.705 185.887 M380.105 185.887 C 380.714 185.979,381.614 185.977,382.105 185.882 C 382.597 185.787,382.100 185.711,381.000 185.714 C 379.900 185.717,379.497 185.795,380.105 185.887 M144.617 186.745 C 144.477 187.188,143.734 188.102,142.967 188.775 C 142.200 189.449,141.713 189.994,141.886 189.987 C 142.782 189.949,145.561 186.628,145.091 186.157 C 144.971 186.038,144.758 186.302,144.617 186.745 M347.800 186.556 C 348.460 186.844,349.566 187.557,350.258 188.140 C 350.950 188.723,351.702 189.200,351.929 189.200 C 352.387 189.200,357.200 186.405,357.200 186.139 C 357.200 185.933,355.884 186.622,353.908 187.863 C 351.994 189.065,351.947 189.060,349.773 187.400 C 348.764 186.630,347.638 186.007,347.269 186.016 C 346.894 186.024,347.127 186.261,347.800 186.556 M182.500 186.687 C 183.105 186.778,184.095 186.778,184.700 186.687 C 185.305 186.595,184.810 186.520,183.600 186.520 C 182.390 186.520,181.895 186.595,182.500 186.687 M247.400 186.600 C 248.361 186.928,252.025 187.062,251.534 186.751 C 251.240 186.565,250.100 186.424,249.000 186.438 C 247.900 186.452,247.180 186.525,247.400 186.600 M272.140 189.600 C 272.140 191.470,272.209 192.235,272.293 191.300 C 272.377 190.365,272.377 188.835,272.293 187.900 C 272.209 186.965,272.140 187.730,272.140 189.600 M179.298 187.835 C 178.581 188.400,177.800 189.253,177.562 189.731 C 177.244 190.369,177.378 190.304,178.064 189.488 C 178.579 188.876,179.540 188.023,180.200 187.591 C 180.860 187.159,181.220 186.806,181.000 186.807 C 180.780 186.808,180.014 187.271,179.298 187.835 M186.600 187.267 C 187.040 187.510,187.769 188.000,188.219 188.355 C 188.670 188.710,188.532 188.505,187.913 187.900 C 187.294 187.295,186.565 186.805,186.294 186.812 C 186.022 186.819,186.160 187.023,186.600 187.267 M339.096 187.900 C 338.038 189.005,336.784 191.531,336.819 192.487 C 336.829 192.769,337.182 192.117,337.604 191.037 C 338.025 189.958,338.861 188.563,339.460 187.937 C 340.059 187.312,340.460 186.800,340.350 186.800 C 340.240 186.800,339.676 187.295,339.096 187.900 M375.241 188.214 C 374.559 188.992,374.000 189.748,374.000 189.894 C 374.000 190.040,374.136 189.989,374.303 189.780 C 374.470 189.571,375.133 188.815,375.778 188.100 C 376.422 187.385,376.845 186.800,376.716 186.800 C 376.588 186.800,375.924 187.436,375.241 188.214 M385.200 186.946 C 385.200 187.056,385.740 187.530,386.400 188.000 C 387.060 188.470,387.600 188.764,387.600 188.654 C 387.600 188.544,387.060 188.070,386.400 187.600 C 385.740 187.130,385.200 186.836,385.200 186.946 M244.122 188.229 L 243.000 189.258 244.300 188.354 C 245.015 187.857,245.600 187.393,245.600 187.325 C 245.600 187.009,245.158 187.280,244.122 188.229 M310.128 189.600 C 310.128 191.030,310.201 191.615,310.289 190.900 C 310.378 190.185,310.378 189.015,310.289 188.300 C 310.201 187.585,310.128 188.170,310.128 189.600 M266.397 200.000 L 266.200 212.200 261.457 212.313 C 258.045 212.394,256.539 212.282,256.092 211.913 C 255.575 211.486,255.503 211.501,255.668 212.000 C 255.951 212.860,265.654 213.099,266.347 212.263 C 266.683 211.859,266.782 208.382,266.703 199.752 L 266.594 187.800 266.397 200.000 M283.709 189.600 C 283.709 190.590,283.787 190.995,283.882 190.500 C 283.978 190.005,283.978 189.195,283.882 188.700 C 283.787 188.205,283.709 188.610,283.709 189.600 M137.905 190.683 C 138.402 190.779,139.122 190.775,139.505 190.675 C 139.887 190.575,139.480 190.496,138.600 190.501 C 137.720 190.505,137.407 190.587,137.905 190.683 M255.314 193.400 C 255.317 194.500,255.395 194.903,255.487 194.295 C 255.579 193.686,255.577 192.786,255.482 192.295 C 255.387 191.803,255.311 192.300,255.314 193.400 M325.744 195.200 C 325.744 197.290,325.812 198.145,325.894 197.100 C 325.976 196.055,325.976 194.345,325.894 193.300 C 325.812 192.255,325.744 193.110,325.744 195.200 M190.096 201.800 C 190.050 207.300,190.159 212.031,190.337 212.312 C 190.845 213.112,200.875 212.820,201.098 212.000 C 201.222 211.543,201.175 211.522,200.899 211.913 C 200.630 212.294,199.260 212.397,195.568 212.313 L 190.600 212.200 190.390 202.000 L 190.179 191.800 190.096 201.800 M151.100 194.944 C 148.182 197.653,147.960 198.212,149.232 199.656 L 150.064 200.600 149.432 199.611 C 148.447 198.070,148.619 197.686,151.500 194.975 C 152.985 193.578,154.110 192.435,154.000 192.436 C 153.890 192.437,152.585 193.566,151.100 194.944 M284.056 192.800 C 284.056 193.130,284.211 193.760,284.400 194.200 C 284.617 194.704,284.744 194.778,284.744 194.400 C 284.744 194.070,284.589 193.440,284.400 193.000 C 284.183 192.496,284.056 192.422,284.056 192.800 M372.924 195.000 C 372.926 196.320,373.001 196.812,373.090 196.093 C 373.179 195.374,373.177 194.294,373.086 193.693 C 372.995 193.092,372.922 193.680,372.924 195.000 M176.172 202.400 C 176.172 207.570,176.229 209.685,176.299 207.100 C 176.368 204.515,176.368 200.285,176.299 197.700 C 176.229 195.115,176.172 197.230,176.172 202.400 M26.000 195.176 C 25.450 195.345,23.675 196.152,22.055 196.969 C 20.435 197.787,17.465 199.178,15.455 200.061 C 4.747 204.765,4.739 204.771,5.627 207.506 C 7.402 212.970,13.803 222.800,15.587 222.800 C 16.245 222.800,17.951 221.695,24.689 216.903 C 26.620 215.530,29.543 213.460,31.183 212.303 C 36.436 208.600,37.773 205.390,36.012 200.710 C 34.374 196.358,30.009 193.945,26.000 195.176 M31.059 196.990 C 35.019 198.965,36.828 204.470,34.533 207.562 C 33.303 209.219,31.595 210.765,30.970 210.786 C 30.733 210.794,30.117 211.250,29.600 211.800 C 29.083 212.350,28.422 212.800,28.130 212.800 C 27.839 212.800,27.600 212.968,27.600 213.173 C 27.600 213.378,27.285 213.647,26.900 213.771 C 26.515 213.895,25.570 214.537,24.800 215.197 C 24.030 215.858,23.291 216.399,23.158 216.399 C 23.026 216.400,22.454 216.805,21.889 217.300 C 20.463 218.548,16.152 221.600,15.815 221.600 C 15.333 221.600,12.525 218.297,11.751 216.819 C 11.342 216.039,10.916 215.310,10.804 215.200 C 10.692 215.090,10.286 214.370,9.902 213.600 C 9.519 212.830,9.049 211.930,8.859 211.600 C 7.726 209.632,7.200 208.377,7.200 207.638 C 7.200 207.177,7.020 206.800,6.800 206.800 C 6.580 206.800,6.400 206.416,6.400 205.948 C 6.400 205.193,6.565 205.122,7.832 205.328 C 8.949 205.509,9.174 205.450,8.851 205.061 C 8.538 204.684,8.922 204.374,10.418 203.793 C 11.508 203.370,12.400 202.918,12.400 202.788 C 12.400 202.658,13.290 202.323,14.377 202.045 C 15.464 201.766,16.566 201.282,16.826 200.969 C 17.085 200.656,17.531 200.400,17.817 200.400 C 18.447 200.400,20.948 199.118,21.133 198.700 C 21.207 198.535,21.567 198.394,21.933 198.387 C 22.300 198.380,22.949 198.110,23.376 197.787 C 23.804 197.464,24.569 197.200,25.076 197.200 C 25.584 197.200,26.000 197.020,26.000 196.800 C 26.000 196.186,29.728 196.326,31.059 196.990 M307.981 197.235 C 307.735 197.695,306.881 198.820,306.084 199.735 L 304.634 201.400 306.023 200.112 C 307.333 198.899,309.092 196.400,308.637 196.400 C 308.522 196.400,308.227 196.776,307.981 197.235 M336.827 197.600 C 336.796 199.479,340.251 204.003,341.714 203.999 C 341.981 203.998,341.660 203.663,341.000 203.256 C 339.280 202.193,338.460 201.155,337.597 198.944 C 337.179 197.875,336.833 197.270,336.827 197.600 M286.791 198.788 C 287.257 199.441,287.842 200.102,288.091 200.256 C 288.341 200.411,288.041 199.876,287.425 199.068 C 286.088 197.315,285.584 197.092,286.791 198.788 M131.300 199.494 C 132.345 199.576,134.055 199.576,135.100 199.494 C 136.145 199.412,135.290 199.344,133.200 199.344 C 131.110 199.344,130.255 199.412,131.300 199.494 M128.150 200.187 C 128.026 200.510,128.017 201.005,128.131 201.287 C 128.244 201.569,128.351 201.410,128.368 200.933 C 128.386 200.457,128.625 199.976,128.900 199.865 C 129.292 199.707,129.289 199.656,128.887 199.632 C 128.606 199.614,128.274 199.864,128.150 200.187 M137.984 200.475 C 138.433 200.957,138.800 201.527,138.800 201.742 C 138.800 201.957,138.904 202.029,139.032 201.901 C 139.329 201.604,138.028 199.600,137.538 199.600 C 137.335 199.600,137.536 199.994,137.984 200.475 M255.348 204.000 C 255.348 206.310,255.414 207.255,255.495 206.100 C 255.576 204.945,255.576 203.055,255.495 201.900 C 255.414 200.745,255.348 201.690,255.348 204.000 M289.167 200.945 C 289.700 201.601,291.200 202.593,291.200 202.289 C 291.200 202.213,290.615 201.722,289.900 201.199 C 289.096 200.610,288.816 200.513,289.167 200.945 M350.430 201.768 C 349.930 202.300,348.993 202.954,348.348 203.222 C 347.702 203.489,347.255 203.788,347.353 203.886 C 347.451 203.984,347.952 203.844,348.466 203.574 C 349.645 202.954,352.144 200.800,351.684 200.800 C 351.494 200.800,350.930 201.236,350.430 201.768 M374.603 201.200 C 374.914 201.942,376.862 203.513,377.860 203.827 C 378.489 204.026,378.480 203.988,377.800 203.578 C 377.360 203.312,376.404 202.533,375.675 201.847 C 374.947 201.161,374.464 200.870,374.603 201.200 M386.962 201.656 C 386.543 202.128,385.480 202.844,384.600 203.248 C 383.720 203.652,383.237 203.986,383.526 203.991 C 383.816 203.996,384.446 203.794,384.926 203.541 C 386.070 202.941,388.530 200.800,388.076 200.800 C 387.882 200.800,387.381 201.185,386.962 201.656 M139.800 203.600 C 140.141 204.260,140.511 204.800,140.621 204.800 C 140.731 204.800,140.541 204.260,140.200 203.600 C 139.859 202.940,139.489 202.400,139.379 202.400 C 139.269 202.400,139.459 202.940,139.800 203.600 M292.716 203.002 C 293.440 203.340,295.060 203.681,296.316 203.761 C 297.572 203.841,298.150 203.832,297.600 203.741 C 295.930 203.463,293.046 202.865,292.199 202.620 C 291.760 202.492,291.992 202.664,292.716 203.002 M363.219 202.516 C 363.133 203.971,367.528 209.354,369.617 210.353 C 370.408 210.731,370.365 210.644,369.400 209.911 C 367.352 208.356,365.165 205.879,364.180 204.000 C 363.662 203.010,363.229 202.342,363.219 202.516 M32.290 203.577 C 32.178 204.004,32.202 204.467,32.344 204.606 C 32.485 204.744,32.803 205.429,33.052 206.129 L 33.504 207.400 33.803 206.271 C 33.987 205.575,33.928 204.968,33.651 204.691 C 33.403 204.443,33.200 203.916,33.200 203.520 C 33.200 202.558,32.546 202.599,32.290 203.577 M128.150 207.000 C 128.151 209.420,128.216 210.358,128.296 209.085 C 128.376 207.812,128.375 205.832,128.294 204.685 C 128.214 203.538,128.149 204.580,128.150 207.000 M277.182 204.293 C 279.304 207.113,285.736 211.675,287.458 211.581 C 287.646 211.571,286.900 211.101,285.800 210.537 C 282.309 208.748,279.739 206.875,277.796 204.706 C 276.289 203.024,276.166 202.941,277.182 204.293 M12.233 203.857 C 12.095 204.219,12.071 204.604,12.181 204.714 C 12.436 204.970,13.600 204.016,13.600 203.551 C 13.600 202.930,12.494 203.178,12.233 203.857 M314.400 206.340 C 312.624 208.138,312.307 208.579,313.400 207.729 C 315.102 206.406,317.828 203.564,317.310 203.653 C 317.139 203.683,315.830 204.891,314.400 206.340 M343.507 204.290 C 344.226 204.379,345.306 204.377,345.907 204.286 C 346.508 204.195,345.920 204.122,344.600 204.124 C 343.280 204.126,342.788 204.201,343.507 204.290 M379.700 204.287 C 380.305 204.378,381.295 204.378,381.900 204.287 C 382.505 204.195,382.010 204.120,380.800 204.120 C 379.590 204.120,379.095 204.195,379.700 204.287 M329.199 206.700 C 329.722 207.415,330.213 208.000,330.289 208.000 C 330.593 208.000,329.601 206.500,328.945 205.967 C 328.513 205.616,328.610 205.896,329.199 206.700 M12.047 206.363 C 11.639 206.621,11.821 206.785,12.737 206.986 C 14.175 207.302,15.201 206.900,14.343 206.356 C 13.647 205.915,12.749 205.918,12.047 206.363 M393.200 208.200 C 392.228 209.190,391.523 210.000,391.633 210.000 C 391.743 210.000,392.628 209.190,393.600 208.200 C 394.572 207.210,395.277 206.400,395.167 206.400 C 395.057 206.400,394.172 207.210,393.200 208.200 M331.757 209.130 C 332.165 209.791,336.053 211.994,336.800 211.987 C 337.130 211.985,336.622 211.629,335.671 211.198 C 334.720 210.766,333.382 210.015,332.699 209.528 C 332.015 209.041,331.591 208.862,331.757 209.130 M354.420 210.031 C 353.440 210.674,352.814 211.200,353.027 211.200 C 353.464 211.200,356.400 209.272,356.400 208.986 C 356.400 208.729,356.414 208.722,354.420 210.031 M143.788 211.094 C 144.590 212.751,145.102 212.856,151.600 212.703 L 157.000 212.575 151.116 212.487 C 146.998 212.426,145.103 212.250,144.802 211.900 C 144.566 211.625,144.100 211.040,143.767 210.600 C 143.254 209.922,143.257 209.998,143.788 211.094 M371.600 211.400 C 372.150 211.714,372.870 211.971,373.200 211.970 C 373.530 211.969,373.194 211.706,372.454 211.384 C 370.751 210.645,370.294 210.653,371.600 211.400 M230.768 212.100 C 231.220 212.697,231.990 212.800,236.000 212.800 C 240.010 212.800,240.780 212.697,241.232 212.100 C 241.682 211.504,241.678 211.475,241.201 211.900 C 240.821 212.239,239.146 212.400,236.000 212.400 C 232.854 212.400,231.179 212.239,230.799 211.900 C 230.322 211.475,230.318 211.504,230.768 212.100 M14.254 212.313 C 14.143 212.492,14.196 212.870,14.371 213.153 C 14.619 213.554,14.741 213.531,14.927 213.046 C 15.179 212.390,14.598 211.757,14.254 212.313 M165.462 212.500 C 165.564 212.665,167.876 212.800,170.600 212.800 C 173.324 212.800,175.636 212.665,175.738 212.500 C 175.840 212.335,173.528 212.200,170.600 212.200 C 167.672 212.200,165.360 212.335,165.462 212.500 M210.262 212.500 C 210.364 212.665,212.676 212.800,215.400 212.800 C 218.124 212.800,220.436 212.665,220.538 212.500 C 220.640 212.335,218.328 212.200,215.400 212.200 C 212.472 212.200,210.160 212.335,210.262 212.500 M338.200 212.381 C 338.968 212.729,341.110 212.956,340.767 212.653 C 340.675 212.572,339.880 212.396,339.000 212.262 C 337.885 212.093,337.642 212.129,338.200 212.381 M374.600 212.400 C 375.040 212.589,375.670 212.744,376.000 212.744 C 376.378 212.744,376.304 212.617,375.800 212.400 C 375.360 212.211,374.730 212.056,374.400 212.056 C 374.022 212.056,374.096 212.183,374.600 212.400 M384.600 212.400 C 383.581 212.838,384.632 212.838,386.000 212.400 C 386.804 212.143,386.843 212.077,386.200 212.068 C 385.760 212.062,385.040 212.211,384.600 212.400 M295.100 213.095 C 296.255 213.176,298.145 213.176,299.300 213.095 C 300.455 213.014,299.510 212.948,297.200 212.948 C 294.890 212.948,293.945 213.014,295.100 213.095 M342.500 213.091 C 343.325 213.178,344.675 213.178,345.500 213.091 C 346.325 213.005,345.650 212.934,344.000 212.934 C 342.350 212.934,341.675 213.005,342.500 213.091 M378.691 213.089 C 379.401 213.177,380.661 213.179,381.491 213.092 C 382.321 213.005,381.740 212.933,380.200 212.931 C 378.660 212.929,377.981 213.000,378.691 213.089 " stroke="none" fill="#65a9a6" fill-rule="evenodd"></path></g></svg>