<?xml version="1.0" encoding="UTF-8" standalone="no"?>
<!-- Created with Inkscape (http://www.inkscape.org/) -->

<svg
   width="141.9198mm"
   height="141.9198mm"
   viewBox="0 0 141.9198 141.9198"
   version="1.1"
   id="svg5"
   xml:space="preserve"
   inkscape:version="1.2.2 (b0a8486541, 2022-12-01)"
   sodipodi:docname="siilab.svg"
   xmlns:inkscape="http://www.inkscape.org/namespaces/inkscape"
   xmlns:sodipodi="http://sodipodi.sourceforge.net/DTD/sodipodi-0.dtd"
   xmlns="http://www.w3.org/2000/svg"
   xmlns:svg="http://www.w3.org/2000/svg"><sodipodi:namedview
     id="namedview7"
     pagecolor="#ffffff"
     bordercolor="#000000"
     borderopacity="0.25"
     inkscape:showpageshadow="2"
     inkscape:pageopacity="0.0"
     inkscape:pagecheckerboard="0"
     inkscape:deskcolor="#d1d1d1"
     inkscape:document-units="mm"
     showgrid="false"
     inkscape:zoom="1"
     inkscape:cx="336"
     inkscape:cy="334.5"
     inkscape:window-width="1452"
     inkscape:window-height="1233"
     inkscape:window-x="976"
     inkscape:window-y="65"
     inkscape:window-maximized="0"
     inkscape:current-layer="layer1" /><defs
     id="defs2" /><g
     inkscape:label="Layer 1"
     inkscape:groupmode="layer"
     id="layer1"
     transform="translate(-37.546913,-29.918915)"><circle
       style="font-variation-settings:normal;opacity:1;vector-effect:none;fill:#ffffff;fill-opacity:1;fill-rule:evenodd;stroke-width:0.300018;stroke-linecap:butt;stroke-linejoin:miter;stroke-miterlimit:4;stroke-dasharray:none;stroke-dashoffset:0;stroke-opacity:1;-inkscape-stroke:none;stop-color:#000000;stop-opacity:1"
       id="path12483"
       r="70.9599"
       cy="100.87881"
       cx="108.50681" /><path
       id="path331"
       style="color:#000000;opacity:1;fill:#004467;fill-opacity:1;fill-rule:evenodd;-inkscape-stroke:none"
       d="m 79.392053,147.1321 c 0.411056,-0.68269 0.845451,-1.39996 1.280025,-2.11511 -15.71186,-8.92592 -26.304337,-25.80795 -26.304337,-45.181223 0,-8.551662 2.064808,-16.618254 5.721614,-23.729818 l -2.216402,-1.096057 c -3.826676,7.444563 -5.987231,15.884334 -5.987231,24.825875 0,20.250813 11.081485,37.926803 27.506331,47.296333 z"
       sodipodi:nodetypes="ccsccsc" /><path
       id="path331-6"
       style="color:#000000;fill:#75b49c;fill-opacity:1;fill-rule:evenodd;-inkscape-stroke:none"
       d="m 106.30152,45.421517 c -10.880675,0 -21.018662,3.198647 -29.524349,8.706285 -7.985587,5.170861 -14.532392,12.376968 -18.904218,20.88209 l 2.216402,1.096057 c 8.614089,-16.752163 26.067674,-28.203963 46.212165,-28.203963 14.63579,0 27.84893,6.047204 37.28558,15.777848 0.52241,-0.542012 1.28743,-1.343418 1.70997,-1.778703 C 135.4094,51.738943 121.58998,45.421517 106.30152,45.421517 Z"
       sodipodi:nodetypes="ssccsccs" /><path
       d="m 145.29707,61.901131 c -0.42254,0.435285 -1.18756,1.236693 -1.70997,1.778703 9.06553,9.348015 14.64614,22.095631 14.64614,36.155934 0,9.190202 -2.38612,17.818282 -6.5686,25.304402 l 2.24845,1.04076 c 4.33191,-7.80758 6.80268,-16.7889 6.80268,-26.345162 0,-14.749053 -5.87997,-28.131023 -15.4187,-37.934637 z"
       style="color:#000000;fill:#d9c53c;fill-opacity:1;fill-rule:evenodd;-inkscape-stroke:none"
       id="path3589" /><rect
       style="opacity:1;fill:#201e1f;fill-opacity:1;stroke:none;stroke-width:2.97019;stroke-dasharray:none;stroke-opacity:1"
       id="rect6059"
       width="2.9164321"
       height="35.297016"
       x="108.27911"
       y="62.057491" /><rect
       style="fill:#201e1f;fill-opacity:1;stroke:none;stroke-width:2.97019;stroke-dasharray:none;stroke-opacity:1"
       id="rect6059-5"
       width="2.9164321"
       height="35.297016"
       x="119.12936"
       y="62.057491" /><rect
       style="fill:#201e1f;fill-opacity:1;stroke:none;stroke-width:2.45383;stroke-dasharray:none;stroke-opacity:1"
       id="rect6059-5-6"
       width="2.4080582"
       height="29.177181"
       x="77.755646"
       y="99.730759" /><path
       id="rect6059-5-6-9"
       style="fill:#201e1f;fill-opacity:1;stroke:none;stroke-width:2.44634;stroke-dasharray:none;stroke-opacity:1"
       d="m 125.75873,99.90863 v 28.99926 h 9.08007 c 4.74057,-7.7e-4 7.3727,-2.79989 7.63002,-8.28941 0.0783,-4.66323 -2.82533,-5.81662 -4.38939,-6.73551 0,0 2.80499,-0.95642 2.80499,-6.63577 0,-5.45065 -3.73385,-7.19733 -6.04562,-7.329268 v -0.0093 h -0.28422 -8.79585 z m 2.40812,2.40812 h 6.38773 c 1.07716,0 4.02456,1.17167 4.02456,5.25343 0,4.08176 -2.45284,5.5806 -3.67833,5.5454 -6.73396,0 -6.73396,0 -6.73396,0 z m 0,13.20643 h 6.73396 c 0,0 5.41259,-0.10064 5.41259,5.62136 0,4.93032 -4.28627,5.33924 -5.4746,5.35833 v -0.003 h -0.30954 -6.36241 z"
       sodipodi:nodetypes="cccccsccccccscccccscccccc" /><rect
       style="fill:#201e1f;fill-opacity:1;stroke:none;stroke-width:1.72252;stroke-dasharray:none;stroke-opacity:1"
       id="rect6059-5-6-2"
       width="2.4080582"
       height="14.377406"
       x="126.49988"
       y="-92.133057"
       transform="rotate(90)" /><path
       style="opacity:1;fill:#201e1f;fill-opacity:1;stroke:none;stroke-width:2.5;stroke-dasharray:none;stroke-opacity:1"
       d="m 98.202519,72.199372 h 3.029201 c 0,0 0.60387,-10.645878 -11.138776,-10.645878 -11.653554,0 -11.319523,10.15942 -11.319523,10.15942 0,0 -0.474726,6.565898 8.424484,8.292968 8.89921,1.72707 12.350168,4.59549 12.306078,8.419748 -0.04409,3.824256 -3.577399,7.085597 -8.983824,7.021655 -10.783405,-0.127536 -9.848083,-9.542084 -9.848083,-9.542084 l -3.021327,-0.132548 c 0,0 -1.770242,12.176429 12.176429,12.176429 13.946672,0 12.461052,-9.330404 12.461052,-10.693905 0,-1.363504 1.3e-4,-7.151018 -11.910523,-9.403273 -11.910652,-2.252258 -8.190399,-8.932971 -8.190399,-8.932971 0,0 1.504924,-4.811993 7.851603,-4.811993 5.659028,0 8.163608,5.007867 8.163608,8.092432 z"
       id="path7300"
       sodipodi:nodetypes="ccscsssccssscsc" /><path
       style="opacity:1;fill:#201e1f;fill-opacity:1;stroke:none;stroke-width:2.5;stroke-dasharray:none;stroke-opacity:1"
       d="M 82.400996,156.84134 114.61469,99.730757 h 2.85249 l 0.21724,29.177183 h -2.43189 l 4.7e-4,-7.44897 -10.253,-0.0571 -19.98827,35.42067 z"
       id="path8115"
       sodipodi:nodetypes="ccccccccc" /><path
       style="opacity:1;fill:#ffffff;fill-opacity:1;stroke:none;stroke-width:2.52958;stroke-dasharray:none;stroke-opacity:1"
       d="m 115.253,103.45765 -8.79145,15.62679 h 8.79145 z"
       id="path8171"
       sodipodi:nodetypes="cccc" /><path
       id="path8173"
       style="font-variation-settings:normal;opacity:1;vector-effect:none;fill:#231f20;fill-opacity:1;fill-rule:evenodd;stroke-width:0.357675;stroke-linecap:butt;stroke-linejoin:miter;stroke-miterlimit:4;stroke-dasharray:none;stroke-dashoffset:0;stroke-opacity:1;-inkscape-stroke:none;stop-color:#000000;stop-opacity:1"
       d="m 115.70818,41.633634 a 6.3563623,6.3563623 0 0 0 -6.35672,6.356202 6.3563623,6.3563623 0 0 0 2.24069,4.837947 l -0.59324,2.836003 2.62981,-1.671733 a 6.3563623,6.3563623 0 0 0 2.07946,0.354501 6.3563623,6.3563623 0 0 0 6.3562,-6.356718 6.3563623,6.3563623 0 0 0 -6.3562,-6.356202 z" /><circle
       style="font-variation-settings:normal;opacity:1;vector-effect:none;fill:#ffffff;fill-opacity:1;fill-rule:evenodd;stroke:#201e1f;stroke-width:0.353663;stroke-linecap:butt;stroke-linejoin:miter;stroke-miterlimit:4;stroke-dasharray:none;stroke-dashoffset:0;stroke-opacity:1;-inkscape-stroke:none;stop-color:#000000;stop-opacity:1"
       id="path11103"
       cx="108.92596"
       cy="46.729401"
       r="4.1585774" /><path
       style="opacity:1;fill:#ffffff;fill-opacity:1;stroke:#201e1f;stroke-width:0.4;stroke-dasharray:none;stroke-opacity:1"
       d="m 106.23225,49.106917 -0.0146,2.541408 2.52404,-2.024782 z"
       id="path11159" /><path
       style="opacity:1;fill:#ffffff;fill-opacity:1;stroke:none;stroke-width:0.4;stroke-dasharray:none;stroke-opacity:1"
       d="m 106.01524,49.450566 0.67391,0.662181 0.72616,0.300133 0.47424,0.156977 1.96474,-0.858724 -3.89848,-1.410454 z"
       id="path12079" /><g
       aria-label="Laboratoire
d'innovation territoriale"
       transform="scale(0.97338573,1.027342)"
       id="text12135"
       style="font-size:5.49422px;opacity:1;fill:#231f20;stroke-width:0.389354"><path
         d="m 105.86755,134.61316 v -3.92287 h 0.49448 v 3.48333 h 1.7142 v 0.43954 z"
         id="path12524" /><path
         d="m 109.79592,131.61881 q 0.53843,0 0.79666,0.23625 0.25823,0.23625 0.25823,0.75271 v 2.00539 h -0.35163 l -0.0934,-0.41756 h -0.022 q -0.1923,0.24174 -0.40657,0.35712 -0.20878,0.11538 -0.58239,0.11538 -0.40108,0 -0.6648,-0.20878 -0.26372,-0.21427 -0.26372,-0.6648 0,-0.43954 0.34613,-0.67579 0.34614,-0.24174 1.06588,-0.26372 l 0.49997,-0.0165 v -0.17582 q 0,-0.36811 -0.15933,-0.51096 -0.15933,-0.14285 -0.45052,-0.14285 -0.23076,0 -0.43954,0.0714 -0.20878,0.0659 -0.39009,0.15384 l -0.14834,-0.36262 q 0.19229,-0.10439 0.45602,-0.17581 0.26372,-0.0769 0.54942,-0.0769 z m 0.14285,1.57135 q -0.54942,0.022 -0.7637,0.17581 -0.20878,0.15384 -0.20878,0.43404 0,0.24724 0.14834,0.36262 0.15384,0.11538 0.39009,0.11538 0.37361,0 0.62085,-0.20328 0.24724,-0.20878 0.24724,-0.63733 v -0.26373 z"
         id="path12526" /><path
         d="m 112.24634,131.45398 q 0,0.18681 -0.011,0.35163 -0.005,0.15934 -0.0165,0.25274 h 0.0275 q 0.12637,-0.18681 0.34614,-0.31317 0.21977,-0.12637 0.5659,-0.12637 0.54943,0 0.87908,0.38459 0.33515,0.37911 0.33515,1.13731 0,0.7582 -0.33515,1.1428 -0.33515,0.38459 -0.87908,0.38459 -0.34613,0 -0.5659,-0.12637 -0.21977,-0.12636 -0.34614,-0.30218 h -0.0385 l -0.0989,0.37361 h -0.34614 v -4.17561 h 0.48349 z m 0.82963,0.56591 q -0.46701,0 -0.64832,0.26921 -0.18131,0.26922 -0.18131,0.83513 v 0.022 q 0,0.54393 0.17582,0.83512 0.18131,0.2857 0.6648,0.2857 0.39558,0 0.58788,-0.29119 0.19779,-0.29119 0.19779,-0.84062 0,-1.11532 -0.79666,-1.11532 z"
         id="path12528" /><path
         d="m 117.7021,133.13521 q 0,0.73074 -0.3736,1.13181 -0.36812,0.40108 -0.99995,0.40108 -0.39009,0 -0.69777,-0.17581 -0.30218,-0.18131 -0.478,-0.52195 -0.17581,-0.34614 -0.17581,-0.83513 0,-0.73073 0.36811,-1.12631 0.36812,-0.39558 0.99995,-0.39558 0.40108,0 0.70326,0.1813 0.30768,0.17582 0.478,0.51646 0.17581,0.33515 0.17581,0.82413 z m -2.22516,0 q 0,0.52195 0.20329,0.82963 0.20878,0.30218 0.65931,0.30218 0.44503,0 0.65381,-0.30218 0.20878,-0.30768 0.20878,-0.82963 0,-0.52195 -0.20878,-0.81863 -0.20878,-0.29669 -0.65931,-0.29669 -0.45052,0 -0.65381,0.29669 -0.20329,0.29668 -0.20329,0.81863 z"
         id="path12530" /><path
         d="m 119.83935,131.61332 q 0.0824,0 0.17582,0.011 0.0989,0.005 0.17032,0.022 l -0.0604,0.44503 q -0.0714,-0.0165 -0.15933,-0.0275 -0.0824,-0.011 -0.15933,-0.011 -0.22527,0 -0.42306,0.12637 -0.19779,0.12087 -0.31866,0.34614 -0.11538,0.21976 -0.11538,0.51645 v 1.57135 h -0.48349 v -2.9449 h 0.39558 l 0.0549,0.53843 h 0.022 q 0.14285,-0.24174 0.36811,-0.41756 0.22527,-0.17581 0.53294,-0.17581 z"
         id="path12532" /><path
         d="m 121.74035,131.61881 q 0.53843,0 0.79666,0.23625 0.25823,0.23625 0.25823,0.75271 v 2.00539 h -0.35163 l -0.0934,-0.41756 h -0.022 q -0.1923,0.24174 -0.40657,0.35712 -0.20878,0.11538 -0.58239,0.11538 -0.40108,0 -0.6648,-0.20878 -0.26372,-0.21427 -0.26372,-0.6648 0,-0.43954 0.34613,-0.67579 0.34614,-0.24174 1.06588,-0.26372 l 0.49998,-0.0165 v -0.17582 q 0,-0.36811 -0.15934,-0.51096 -0.15933,-0.14285 -0.45052,-0.14285 -0.23076,0 -0.43954,0.0714 -0.20878,0.0659 -0.39009,0.15384 l -0.14834,-0.36262 q 0.1923,-0.10439 0.45602,-0.17581 0.26372,-0.0769 0.54942,-0.0769 z m 0.14285,1.57135 q -0.54942,0.022 -0.7637,0.17581 -0.20878,0.15384 -0.20878,0.43404 0,0.24724 0.14835,0.36262 0.15383,0.11538 0.39009,0.11538 0.3736,0 0.62084,-0.20328 0.24724,-0.20878 0.24724,-0.63733 v -0.26373 z"
         id="path12534" /><path
         d="m 124.69075,134.27252 q 0.10988,0 0.22526,-0.0165 0.11538,-0.022 0.18681,-0.044 v 0.36811 q -0.0769,0.0385 -0.21977,0.0604 -0.14285,0.0275 -0.27471,0.0275 -0.23076,0 -0.42855,-0.0769 -0.1923,-0.0824 -0.31317,-0.2802 -0.12088,-0.19779 -0.12088,-0.55492 v -1.7142 h -0.41756 v -0.23075 l 0.42306,-0.1923 0.1923,-0.62634 h 0.2857 v 0.67579 h 0.8516 v 0.3736 h -0.8516 v 1.70321 q 0,0.26922 0.12636,0.40108 0.13186,0.12637 0.33515,0.12637 z"
         id="path12536" /><path
         d="m 128.25101,133.13521 q 0,0.73074 -0.37361,1.13181 -0.36811,0.40108 -0.99995,0.40108 -0.39009,0 -0.69777,-0.17581 -0.30218,-0.18131 -0.47799,-0.52195 -0.17582,-0.34614 -0.17582,-0.83513 0,-0.73073 0.36811,-1.12631 0.36812,-0.39558 0.99995,-0.39558 0.40108,0 0.70326,0.1813 0.30768,0.17582 0.478,0.51646 0.17582,0.33515 0.17582,0.82413 z m -2.22516,0 q 0,0.52195 0.20328,0.82963 0.20878,0.30218 0.65931,0.30218 0.44503,0 0.65381,-0.30218 0.20878,-0.30768 0.20878,-0.82963 0,-0.52195 -0.20878,-0.81863 -0.20878,-0.29669 -0.65931,-0.29669 -0.45052,0 -0.65381,0.29669 -0.20328,0.29668 -0.20328,0.81863 z"
         id="path12538" /><path
         d="m 129.26194,130.56392 q 0.10988,0 0.1923,0.0769 0.0879,0.0714 0.0879,0.23076 0,0.15383 -0.0879,0.23075 -0.0824,0.0769 -0.1923,0.0769 -0.12087,0 -0.20329,-0.0769 -0.0824,-0.0769 -0.0824,-0.23075 0,-0.15934 0.0824,-0.23076 0.0824,-0.0769 0.20329,-0.0769 z m 0.23625,1.10434 v 2.9449 h -0.48349 v -2.9449 z"
         id="path12540" /><path
         d="m 131.80576,131.61332 q 0.0824,0 0.17582,0.011 0.0989,0.005 0.17032,0.022 l -0.0604,0.44503 q -0.0714,-0.0165 -0.15933,-0.0275 -0.0824,-0.011 -0.15934,-0.011 -0.22526,0 -0.42305,0.12637 -0.19779,0.12087 -0.31866,0.34614 -0.11538,0.21976 -0.11538,0.51645 v 1.57135 h -0.48349 v -2.9449 h 0.39558 l 0.0549,0.53843 h 0.022 q 0.14285,-0.24174 0.36811,-0.41756 0.22526,-0.17581 0.53294,-0.17581 z"
         id="path12542" /><path
         d="m 133.72873,131.61332 q 0.37911,0 0.64832,0.16482 0.27471,0.16483 0.41756,0.46701 0.14835,0.29669 0.14835,0.69777 v 0.29119 h -2.01638 q 0.011,0.49997 0.25273,0.7637 0.24724,0.25822 0.68678,0.25822 0.2802,0 0.49448,-0.0494 0.21977,-0.055 0.45053,-0.15384 v 0.42305 q -0.22527,0.0989 -0.44504,0.14285 -0.21977,0.0495 -0.52195,0.0495 -0.41756,0 -0.74172,-0.17032 -0.31866,-0.17032 -0.49997,-0.50547 -0.17582,-0.34064 -0.17582,-0.82962 0,-0.4835 0.15934,-0.82963 0.16482,-0.34614 0.45602,-0.53294 0.29668,-0.1868 0.68677,-0.1868 z m -0.005,0.39558 q -0.34614,0 -0.54942,0.22526 -0.19779,0.21977 -0.23625,0.61535 h 1.49992 q -0.005,-0.3736 -0.17582,-0.60436 -0.17032,-0.23625 -0.53843,-0.23625 z"
         id="path12544" /><path
         d="m 106.84552,141.53588 q -0.54942,0 -0.87907,-0.37911 -0.32966,-0.38459 -0.32966,-1.14279 0,-0.75821 0.32966,-1.1428 0.33514,-0.39009 0.88456,-0.39009 0.34065,0 0.55492,0.12637 0.21977,0.12636 0.35713,0.30767 h 0.033 q -0.005,-0.0714 -0.022,-0.20878 -0.011,-0.14285 -0.011,-0.22526 v -1.17576 h 0.48349 v 4.1756 h -0.39009 l -0.0714,-0.39558 h -0.022 q -0.13187,0.1868 -0.35163,0.31866 -0.21977,0.13187 -0.56591,0.13187 z m 0.0769,-0.40108 q 0.46701,0 0.65381,-0.25274 0.1923,-0.25822 0.1923,-0.77468 v -0.0879 q 0,-0.54942 -0.18131,-0.84061 -0.18131,-0.29669 -0.67029,-0.29669 -0.39009,0 -0.58789,0.31317 -0.19229,0.30767 -0.19229,0.82963 0,0.52744 0.19229,0.81863 0.1978,0.2912 0.59338,0.2912 z"
         id="path12546" /><path
         d="m 109.59263,137.55806 -0.10989,1.41751 h -0.30218 l -0.10988,-1.41751 z"
         id="path12548" /><path
         d="m 110.664,137.43169 q 0.10989,0 0.1923,0.0769 0.0879,0.0714 0.0879,0.23076 0,0.15384 -0.0879,0.23076 -0.0824,0.0769 -0.1923,0.0769 -0.12087,0 -0.20328,-0.0769 -0.0824,-0.0769 -0.0824,-0.23076 0,-0.15933 0.0824,-0.23076 0.0824,-0.0769 0.20328,-0.0769 z m 0.23626,1.10434 v 2.9449 h -0.4835 v -2.9449 z"
         id="path12550" /><path
         d="m 113.25178,138.48109 q 0.52744,0 0.79666,0.25823 0.26922,0.25273 0.26922,0.82413 v 1.91748 h -0.478 v -1.88451 q 0,-0.70876 -0.65931,-0.70876 -0.48898,0 -0.67579,0.27471 -0.1868,0.27471 -0.1868,0.79117 v 1.52739 h -0.48349 v -2.9449 h 0.39009 l 0.0714,0.40108 h 0.0275 q 0.14284,-0.23076 0.39558,-0.34064 0.25273,-0.11538 0.53294,-0.11538 z"
         id="path12552" /><path
         d="m 116.64721,138.48109 q 0.52744,0 0.79666,0.25823 0.26921,0.25273 0.26921,0.82413 v 1.91748 h -0.47799 v -1.88451 q 0,-0.70876 -0.65931,-0.70876 -0.48898,0 -0.67579,0.27471 -0.1868,0.27471 -0.1868,0.79117 v 1.52739 h -0.48349 v -2.9449 h 0.39009 l 0.0714,0.40108 h 0.0275 q 0.14285,-0.23076 0.39559,-0.34064 0.25273,-0.11538 0.53294,-0.11538 z"
         id="path12554" /><path
         d="m 121.18543,140.00299 q 0,0.73073 -0.3736,1.13181 -0.36812,0.40108 -0.99995,0.40108 -0.39009,0 -0.69777,-0.17582 -0.30218,-0.18131 -0.478,-0.52195 -0.17581,-0.34614 -0.17581,-0.83512 0,-0.73073 0.36811,-1.12632 0.36811,-0.39558 0.99995,-0.39558 0.40108,0 0.70326,0.18131 0.30768,0.17581 0.478,0.51646 0.17581,0.33514 0.17581,0.82413 z m -2.22516,0 q 0,0.52195 0.20329,0.82963 0.20878,0.30218 0.65931,0.30218 0.44503,0 0.65381,-0.30218 0.20878,-0.30768 0.20878,-0.82963 0,-0.52195 -0.20878,-0.81864 -0.20878,-0.29669 -0.65931,-0.29669 -0.45052,0 -0.65381,0.29669 -0.20329,0.29669 -0.20329,0.81864 z"
         id="path12556" /><path
         d="m 122.48756,141.48093 -1.11533,-2.9449 h 0.51646 l 0.62634,1.73618 q 0.044,0.12087 0.0934,0.26921 0.0495,0.14835 0.0879,0.2857 0.0385,0.13186 0.0549,0.22526 h 0.022 q 0.022,-0.0934 0.0604,-0.23075 0.044,-0.13736 0.0934,-0.2857 0.0549,-0.14835 0.0934,-0.26372 l 0.62634,-1.73618 h 0.51645 l -1.12082,2.9449 z"
         id="path12558" /><path
         d="m 125.74563,138.48658 q 0.53843,0 0.79666,0.23626 0.25823,0.23625 0.25823,0.7527 v 2.00539 h -0.35163 l -0.0934,-0.41756 h -0.022 q -0.1923,0.24175 -0.40658,0.35713 -0.20878,0.11538 -0.58238,0.11538 -0.40108,0 -0.6648,-0.20878 -0.26373,-0.21428 -0.26373,-0.6648 0,-0.43954 0.34614,-0.67579 0.34614,-0.24175 1.06588,-0.26373 l 0.49997,-0.0165 v -0.17581 q 0,-0.36812 -0.15933,-0.51097 -0.15933,-0.14285 -0.45053,-0.14285 -0.23075,0 -0.43953,0.0714 -0.20878,0.0659 -0.39009,0.15384 l -0.14835,-0.36262 q 0.1923,-0.10439 0.45602,-0.17582 0.26373,-0.0769 0.54943,-0.0769 z m 0.14285,1.57135 q -0.54943,0.022 -0.7637,0.17582 -0.20878,0.15383 -0.20878,0.43404 0,0.24724 0.14834,0.36262 0.15384,0.11538 0.39009,0.11538 0.37361,0 0.62085,-0.20329 0.24724,-0.20878 0.24724,-0.63733 v -0.26372 z"
         id="path12560" /><path
         d="m 128.69603,141.14029 q 0.10988,0 0.22526,-0.0165 0.11538,-0.022 0.1868,-0.0439 v 0.36811 q -0.0769,0.0385 -0.21977,0.0604 -0.14285,0.0275 -0.27471,0.0275 -0.23075,0 -0.42855,-0.0769 -0.19229,-0.0824 -0.31317,-0.28021 -0.12087,-0.19779 -0.12087,-0.55491 v -1.7142 h -0.41756 v -0.23076 l 0.42305,-0.1923 0.1923,-0.62634 h 0.2857 v 0.67579 h 0.85161 v 0.37361 h -0.85161 v 1.70321 q 0,0.26921 0.12637,0.40108 0.13186,0.12636 0.33515,0.12636 z"
         id="path12562" /><path
         d="m 129.94321,137.43169 q 0.10989,0 0.1923,0.0769 0.0879,0.0714 0.0879,0.23076 0,0.15384 -0.0879,0.23076 -0.0824,0.0769 -0.1923,0.0769 -0.12087,0 -0.20328,-0.0769 -0.0824,-0.0769 -0.0824,-0.23076 0,-0.15933 0.0824,-0.23076 0.0824,-0.0769 0.20328,-0.0769 z m 0.23626,1.10434 v 2.9449 h -0.4835 v -2.9449 z"
         id="path12564" /><path
         d="m 133.67379,140.00299 q 0,0.73073 -0.37361,1.13181 -0.36811,0.40108 -0.99995,0.40108 -0.39009,0 -0.69776,-0.17582 -0.30219,-0.18131 -0.478,-0.52195 -0.17582,-0.34614 -0.17582,-0.83512 0,-0.73073 0.36812,-1.12632 0.36811,-0.39558 0.99994,-0.39558 0.40108,0 0.70326,0.18131 0.30768,0.17581 0.478,0.51646 0.17582,0.33514 0.17582,0.82413 z m -2.22516,0 q 0,0.52195 0.20328,0.82963 0.20878,0.30218 0.65931,0.30218 0.44503,0 0.65381,-0.30218 0.20878,-0.30768 0.20878,-0.82963 0,-0.52195 -0.20878,-0.81864 -0.20878,-0.29669 -0.6593,-0.29669 -0.45053,0 -0.65382,0.29669 -0.20328,0.29669 -0.20328,0.81864 z"
         id="path12566" /><path
         d="m 135.85499,138.48109 q 0.52744,0 0.79666,0.25823 0.26922,0.25273 0.26922,0.82413 v 1.91748 h -0.478 v -1.88451 q 0,-0.70876 -0.65931,-0.70876 -0.48898,0 -0.67578,0.27471 -0.18681,0.27471 -0.18681,0.79117 v 1.52739 h -0.48349 v -2.9449 h 0.39009 l 0.0714,0.40108 h 0.0275 q 0.14285,-0.23076 0.39558,-0.34064 0.25273,-0.11538 0.53294,-0.11538 z"
         id="path12568" /><path
         d="m 140.24487,141.14029 q 0.10989,0 0.22527,-0.0165 0.11537,-0.022 0.1868,-0.0439 v 0.36811 q -0.0769,0.0385 -0.21977,0.0604 -0.14285,0.0275 -0.27471,0.0275 -0.23076,0 -0.42855,-0.0769 -0.1923,-0.0824 -0.31317,-0.28021 -0.12087,-0.19779 -0.12087,-0.55491 v -1.7142 h -0.41756 v -0.23076 l 0.42305,-0.1923 0.1923,-0.62634 h 0.2857 v 0.67579 h 0.8516 v 0.37361 h -0.8516 v 1.70321 q 0,0.26921 0.12637,0.40108 0.13186,0.12636 0.33514,0.12636 z"
         id="path12570" /><path
         d="m 142.38213,138.48109 q 0.3791,0 0.64831,0.16483 0.27471,0.16482 0.41756,0.46701 0.14835,0.29668 0.14835,0.69776 v 0.29119 h -2.01638 q 0.011,0.49998 0.25273,0.7637 0.24724,0.25823 0.68678,0.25823 0.28021,0 0.49448,-0.0494 0.21977,-0.0549 0.45053,-0.15384 v 0.42306 q -0.22527,0.0989 -0.44504,0.14285 -0.21976,0.0494 -0.52195,0.0494 -0.41756,0 -0.74172,-0.17032 -0.31866,-0.17033 -0.49997,-0.50547 -0.17581,-0.34064 -0.17581,-0.82963 0,-0.48349 0.15933,-0.82963 0.16482,-0.34613 0.45602,-0.53294 0.29669,-0.1868 0.68678,-0.1868 z m -0.005,0.39558 q -0.34613,0 -0.54942,0.22527 -0.19779,0.21977 -0.23625,0.61535 h 1.49992 q -0.005,-0.37361 -0.17582,-0.60436 -0.17032,-0.23626 -0.53843,-0.23626 z"
         id="path12572" /><path
         d="m 145.71711,138.48109 q 0.0824,0 0.17582,0.011 0.0989,0.005 0.17032,0.022 l -0.0604,0.44503 q -0.0714,-0.0165 -0.15933,-0.0275 -0.0824,-0.011 -0.15933,-0.011 -0.22527,0 -0.42306,0.12636 -0.19779,0.12088 -0.31866,0.34614 -0.11538,0.21977 -0.11538,0.51646 v 1.57134 h -0.48349 v -2.9449 h 0.39558 l 0.0549,0.53844 h 0.022 q 0.14285,-0.24175 0.36811,-0.41757 0.22527,-0.17581 0.53294,-0.17581 z"
         id="path12574" /><path
         d="m 147.98622,138.48109 q 0.0824,0 0.17582,0.011 0.0989,0.005 0.17032,0.022 l -0.0604,0.44503 q -0.0714,-0.0165 -0.15933,-0.0275 -0.0824,-0.011 -0.15933,-0.011 -0.22526,0 -0.42306,0.12636 -0.19779,0.12088 -0.31866,0.34614 -0.11538,0.21977 -0.11538,0.51646 v 1.57134 h -0.48349 v -2.9449 h 0.39558 l 0.0549,0.53844 h 0.022 q 0.14285,-0.24175 0.36811,-0.41757 0.22527,-0.17581 0.53294,-0.17581 z"
         id="path12576" /><path
         d="m 149.12902,137.43169 q 0.10989,0 0.1923,0.0769 0.0879,0.0714 0.0879,0.23076 0,0.15384 -0.0879,0.23076 -0.0824,0.0769 -0.1923,0.0769 -0.12087,0 -0.20328,-0.0769 -0.0824,-0.0769 -0.0824,-0.23076 0,-0.15933 0.0824,-0.23076 0.0824,-0.0769 0.20328,-0.0769 z m 0.23626,1.10434 v 2.9449 h -0.4835 v -2.9449 z"
         id="path12578" /><path
         d="m 151.28275,141.14029 q 0.10989,0 0.22527,-0.0165 0.11537,-0.022 0.1868,-0.0439 v 0.36811 q -0.0769,0.0385 -0.21977,0.0604 -0.14285,0.0275 -0.27471,0.0275 -0.23076,0 -0.42855,-0.0769 -0.1923,-0.0824 -0.31317,-0.28021 -0.12087,-0.19779 -0.12087,-0.55491 v -1.7142 h -0.41756 v -0.23076 l 0.42305,-0.1923 0.1923,-0.62634 h 0.2857 v 0.67579 h 0.8516 v 0.37361 h -0.8516 v 1.70321 q 0,0.26921 0.12637,0.40108 0.13186,0.12636 0.33514,0.12636 z"
         id="path12580" /><path
         d="m 154.84301,140.00299 q 0,0.73073 -0.37361,1.13181 -0.36811,0.40108 -0.99995,0.40108 -0.39009,0 -0.69776,-0.17582 -0.30218,-0.18131 -0.478,-0.52195 -0.17582,-0.34614 -0.17582,-0.83512 0,-0.73073 0.36812,-1.12632 0.36811,-0.39558 0.99995,-0.39558 0.40107,0 0.70326,0.18131 0.30767,0.17581 0.47799,0.51646 0.17582,0.33514 0.17582,0.82413 z m -2.22516,0 q 0,0.52195 0.20329,0.82963 0.20878,0.30218 0.6593,0.30218 0.44503,0 0.65381,-0.30218 0.20878,-0.30768 0.20878,-0.82963 0,-0.52195 -0.20878,-0.81864 -0.20878,-0.29669 -0.6593,-0.29669 -0.45053,0 -0.65381,0.29669 -0.20329,0.29669 -0.20329,0.81864 z"
         id="path12582" /><path
         d="m 156.98026,138.48109 q 0.0824,0 0.17581,0.011 0.0989,0.005 0.17032,0.022 l -0.0604,0.44503 q -0.0714,-0.0165 -0.15934,-0.0275 -0.0824,-0.011 -0.15933,-0.011 -0.22526,0 -0.42305,0.12636 -0.19779,0.12088 -0.31867,0.34614 -0.11538,0.21977 -0.11538,0.51646 v 1.57134 h -0.48349 v -2.9449 h 0.39559 l 0.0549,0.53844 h 0.022 q 0.14285,-0.24175 0.36811,-0.41757 0.22526,-0.17581 0.53294,-0.17581 z"
         id="path12584" /><path
         d="m 158.12305,137.43169 q 0.10989,0 0.1923,0.0769 0.0879,0.0714 0.0879,0.23076 0,0.15384 -0.0879,0.23076 -0.0824,0.0769 -0.1923,0.0769 -0.12087,0 -0.20328,-0.0769 -0.0824,-0.0769 -0.0824,-0.23076 0,-0.15933 0.0824,-0.23076 0.0824,-0.0769 0.20328,-0.0769 z m 0.23626,1.10434 v 2.9449 h -0.4835 v -2.9449 z"
         id="path12586" /><path
         d="m 160.40865,138.48658 q 0.53843,0 0.79666,0.23626 0.25823,0.23625 0.25823,0.7527 v 2.00539 h -0.35163 l -0.0934,-0.41756 h -0.022 q -0.1923,0.24175 -0.40657,0.35713 -0.20878,0.11538 -0.58239,0.11538 -0.40108,0 -0.6648,-0.20878 -0.26372,-0.21428 -0.26372,-0.6648 0,-0.43954 0.34613,-0.67579 0.34614,-0.24175 1.06588,-0.26373 l 0.49998,-0.0165 v -0.17581 q 0,-0.36812 -0.15934,-0.51097 -0.15933,-0.14285 -0.45052,-0.14285 -0.23076,0 -0.43954,0.0714 -0.20878,0.0659 -0.39009,0.15384 l -0.14834,-0.36262 q 0.19229,-0.10439 0.45602,-0.17582 0.26372,-0.0769 0.54942,-0.0769 z m 0.14285,1.57135 q -0.54942,0.022 -0.7637,0.17582 -0.20878,0.15383 -0.20878,0.43404 0,0.24724 0.14835,0.36262 0.15383,0.11538 0.39008,0.11538 0.37361,0 0.62085,-0.20329 0.24724,-0.20878 0.24724,-0.63733 v -0.26372 z"
         id="path12588" /><path
         d="m 162.85907,141.48093 h -0.48349 v -4.1756 h 0.48349 z"
         id="path12590" /><path
         d="m 164.93039,138.48109 q 0.3791,0 0.64832,0.16483 0.27471,0.16482 0.41756,0.46701 0.14835,0.29668 0.14835,0.69776 v 0.29119 h -2.01638 q 0.011,0.49998 0.25273,0.7637 0.24724,0.25823 0.68678,0.25823 0.2802,0 0.49448,-0.0494 0.21977,-0.0549 0.45052,-0.15384 v 0.42306 q -0.22526,0.0989 -0.44503,0.14285 -0.21977,0.0494 -0.52195,0.0494 -0.41756,0 -0.74172,-0.17032 -0.31866,-0.17033 -0.49997,-0.50547 -0.17582,-0.34064 -0.17582,-0.82963 0,-0.48349 0.15933,-0.82963 0.16483,-0.34613 0.45603,-0.53294 0.29668,-0.1868 0.68677,-0.1868 z m -0.005,0.39558 q -0.34614,0 -0.54942,0.22527 -0.1978,0.21977 -0.23626,0.61535 h 1.49993 q -0.006,-0.37361 -0.17582,-0.60436 -0.17032,-0.23626 -0.53843,-0.23626 z"
         id="path12592" /></g></g></svg>
