<svg xmlns="http://www.w3.org/2000/svg" width="191.999" height="55.998" fill="none"><clipPath id="a"><path d="M0 0h192v56H0Z"/></clipPath><g clip-path="url(#a)" transform="translate(-.001 -.001)"><path fill="#3e3a71" d="M65.25 34.13c-.121-.609 1.366-4.508 1.7-4.356.698.427 2.976 2.072 5.556 2.072 1.791 0 2.945-.549 2.945-1.858 0-.975-.729-1.706-3.856-2.346-3.977-.822-6.193-2.68-6.193-6.67 0-3.473 2.823-6.488 7.954-6.488 3.218 0 5.92.852 7.104 1.797.395.304-1.426 4.264-1.73 4.234a12.5 12.5 0 0 0-5.252-1.34c-1.822 0-2.672.73-2.672 1.736 0 .944.516 1.431 3.46 2.102 3.917.913 6.953 2.497 6.953 6.67 0 3.229-2.58 6.61-8.5 6.61-3.4 0-6.376-1.34-7.469-2.163m32.88-5.178c0 3.93-2.824 7.463-7.681 7.554-4.312 0-7.712-2.985-7.712-7.95a7.52 7.52 0 0 1 2.234-5.393 7.5 7.5 0 0 1 5.417-2.16c4.31 0 7.742 2.923 7.742 7.95m-7.5-3.32c-2.155-.06-3.218 1.31-3.218 3.29 0 2.132 1.366 3.29 2.794 3.32 2.125.06 3.248-1.219 3.248-3.35 0-2.437-1.396-3.199-2.823-3.26m14.754-12.398c.213.365-.212 20.804-.364 23.15 0 0-4.098.03-4.342-.122-.242-.183-.242-22.51.213-22.906.425-.396 4.403-.335 4.493-.122m5.586.213c1.64 0 2.793 1.127 2.793 3.015 0 1.34-1.153 2.376-2.793 2.376-1.578 0-2.672-.883-2.672-2.558 0-1.645.486-2.833 2.672-2.833m2.429 7.676c.091.122-.151 14.743-.243 14.956-.121.213-4.463.122-4.524.03-.06-.091-.334-14.65-.151-14.986.182-.305 4.797-.122 4.918 0m18.186.061c.06.335.243 10.021.273 11.88.091 8.04-3.947 9.868-7.742 9.868-3.613 0-6.133-1.523-6.497-2.193.358-1.15.868-2.246 1.518-3.26.152-.151 1.761 1.34 4.341 1.34 2.611 0 3.553-1.918 3.492-4.568-.243.427-1.457 1.797-4.159 1.797a7 7 0 0 1-5.023-2.111 7 7 0 0 1-1.991-5.077c0-4.752 3.431-7.737 7.105-7.737a6.03 6.03 0 0 1 4.371 1.736c0-.183.061-1.462.061-1.645.486-.365 4.159-.122 4.251-.03m-7.59 10.874c1.639 0 3.036-1.158 3.036-3.168 0-1.828-.972-3.198-3.036-3.198-1.64 0-2.946 1.096-2.946 3.168 0 1.919 1.033 3.198 2.946 3.198m20.583 4.021c.03-.64 0-1.523.03-1.736a5.48 5.48 0 0 1-4.493 2.254c-3.674 0-5.435-2.254-5.435-6.519 0-2.193.304-7.401.395-8.833.06-.305 4.615-.244 4.706-.152.06.335-.243 7.28-.243 8.468 0 1.705.729 2.74 2.307 2.74 1.67 0 2.551-1.278 2.581-2.619 0-.883.121-8.376.243-8.498.091-.122 4.493-.06 4.615.122.03.122-.061 8.285-.183 14.773-.273.396-4.22.274-4.523 0m10.352-22.632c1.64 0 2.794 1.127 2.794 3.015 0 1.34-1.154 2.376-2.794 2.376-1.578 0-2.671-.883-2.671-2.558 0-1.645.486-2.833 2.671-2.833m2.429 7.676c.091.122-.151 14.743-.242 14.956-.122.213-4.464.122-4.524.03-.061-.091-.334-14.65-.152-14.986.182-.305 4.797-.122 4.918 0m2.399 7.371c0-4.752 3.491-7.371 7.043-7.401 2.004 0 3.674 1.218 3.917 1.614 0-1.005-.061-9.169.212-9.351.273-.214 4.433-.396 5.04-.092.061.03-.304 22.571-.395 22.906-.091.092-3.4.396-4.493-.03 0-.213-.061-1.462-.091-1.676-.243.366-2.004 1.767-4.554 1.767-3.431 0-6.679-2.68-6.679-7.737m8.197 3.35c2.034 0 3.006-1.37 3.006-3.198 0-2.01-1.367-3.167-3.006-3.167-1.913 0-2.976 1.31-2.976 3.198 0 2.071 1.306 3.168 2.976 3.168m18.185.7a6.47 6.47 0 0 0 3.552-1.066c.304.305 1.548 2.833 1.579 3.29-.82.762-2.915 1.736-5.374 1.736-5.495 0-7.712-3.685-7.712-7.584 0-4.112 2.55-7.95 7.317-7.95 4.038 0 6.497 3.046 6.497 6.457.02.79-.072 1.58-.273 2.345-1.518.214-7.013.214-8.835.153 0 1.614 1.154 2.62 3.249 2.62m1.488-5.513c.06-1.492-.699-2.65-2.156-2.65-1.579 0-2.611 1.188-2.611 2.742z"/><path fill="#e65a46" d="m51.58 41.523 1.344-1.797a.3.3 0 0 0 .053-.114l.512-2.186a.257.257 0 0 1 .47-.107l1.93 3.465a.297.297 0 0 1-.197.422l-3.891.747a.257.257 0 0 1-.22-.43M4.342 14.477l-1.344 1.797a.3.3 0 0 0-.053.114l-.511 2.186a.257.257 0 0 1-.47.107l-1.93-3.465a.296.296 0 0 1 .196-.422l3.892-.747a.256.256 0 0 1 .22.43m10.115 37.175 1.794 1.346a.3.3 0 0 0 .114.053l2.183.512a.258.258 0 0 1 .108.47l-3.46 1.933a.296.296 0 0 1-.423-.197l-.745-3.897a.258.258 0 0 1 .29-.286q.078.011.139.066M41.466 4.348 39.67 3.002a.3.3 0 0 0-.114-.053l-2.183-.512a.257.257 0 0 1-.107-.47l3.46-1.933a.295.295 0 0 1 .422.197l.746 3.897a.258.258 0 0 1-.29.286.26.26 0 0 1-.14-.066"/><path d="M30.077 5.35a.93.93 0 0 0-.879-.977.93.93 0 0 0-.976.88l-.175 3.358a19 19 0 0 1 1.854.096zm-4.232 45.334a.93.93 0 0 0 .878.977.927.927 0 0 0 .976-.88l.177-3.392a19 19 0 0 1-1.854-.096Zm7.673-4.116 2.194 6.037a1.117 1.117 0 0 0 1.428.668 1.113 1.113 0 0 0 .666-1.43l-2.194-6.037a19 19 0 0 1-2.094.762M22.392 9.436 20.21 3.429a1.12 1.12 0 0 0-.998-.734 1.11 1.11 0 0 0-1.162 1.067q-.008.221.067.43l2.183 6.007a19 19 0 0 1 2.093-.763m-9.245 1.311a.927.927 0 0 0-1.607.602.93.93 0 0 0 .249.666l2.296 2.465q.651-.67 1.356-1.27zM44.132 44.02l-2.312-2.483q-.653.67-1.358 1.268l2.312 2.482a.928.928 0 1 0 1.358-1.268M5.325 25.898a.928.928 0 0 0-.738 1.55.93.93 0 0 0 .64.307l3.373.177q.001-.927.094-1.857zm45.271 4.238a.93.93 0 0 0 .976-.88.93.93 0 0 0-.878-.977l-3.37-.177a19 19 0 0 1-.098 1.857zm-4.09-7.691 6.009-2.19a1.115 1.115 0 0 0-.762-2.096l-6.007 2.189q.44 1.027.76 2.097M9.425 33.586 3.407 35.78a1.113 1.113 0 0 0-.667 1.43 1.115 1.115 0 0 0 1.428.666l6.02-2.194a20 20 0 0 1-.763-2.096m35.782-20.402a.93.93 0 0 0-.6-1.61.93.93 0 0 0-.666.25l-2.462 2.299q.67.652 1.267 1.359zM10.715 42.85a.93.93 0 0 0 1.266 1.36l2.48-2.315q-.671-.651-1.269-1.358ZM36.474 9.845S21.03 18.286 18.566 23.544a10.42 10.42 0 0 0 1.664 11.514 10.4 10.4 0 0 0 7.247 3.408 10.38 10.38 0 0 0 7.517-2.76 10.4 10.4 0 0 0 2.393-3.313c2.465-5.257-.913-22.548-.913-22.548M26.124 32.1a4.16 4.16 0 0 1-2.387-3.963 4.17 4.17 0 0 1 2.742-3.724 4.15 4.15 0 0 1 4.486 1.112 4.167 4.167 0 0 1-3.266 6.965 4.2 4.2 0 0 1-1.575-.39" fill="#3e3a71"/></g></svg>
