<svg xmlns="http://www.w3.org/2000/svg">

<symbol id="appels" viewBox="0 0 80 60" xmlns="http://www.w3.org/2000/svg">
<path d="M1.66016 23.2006C4.67429 23.0597 8.52282 22.3132 12.7892 21.1547C17.5608 19.8591 22.9197 18.0302 28.3314 15.8906C38.369 11.9223 48.6614 6.85659 55.7703 2.08884V2.14843V2.22928V2.31051V2.39211V2.47407V2.5564V2.6391V2.72216V2.80559V2.88938V2.97352V3.05802V3.14288V3.2281V3.31367V3.39959V3.48586V3.57248V3.65944V3.74676V3.83441V3.92241V4.01075V4.09943V4.18845V4.27781V4.3675V4.45752V4.54788V4.63856V4.72958V4.82092V4.91259V5.00458V5.0969V5.18954V5.2825V5.37577V5.46937V5.56327V5.6575V5.75203V5.84688V5.94203V6.03749V6.13326V6.22933V6.32571V6.42239V6.51937V6.61664V6.71422V6.81209V6.91025V7.0087V7.10745V7.20649V7.30581V7.40542V7.50532V7.6055V7.70596V7.8067V7.90772V8.00901V8.11059V8.21243V8.31455V8.41694V8.5196V8.62253V8.72573V8.82918V8.93291V9.03689V9.14114V9.24565V9.35041V9.45543V9.5607V9.66622V9.772V9.87803V9.9843V10.0908V10.1976V10.3046V10.4119V10.5194V10.6271V10.7351V10.8433V10.9517V11.0604V11.1693V11.2784V11.3878V11.4974V11.6072V11.7172V11.8275V11.938V12.0487V12.1596V12.2708V12.3821V12.4937V12.6054V12.7174V12.8296V12.942V13.0546V13.1675V13.2805V13.3937V13.5071V13.6207V13.7345V13.8485V13.9628V14.0771V14.1917V14.3065V14.4215V14.5366V14.6519V14.7674V14.8831V14.999V15.1151V15.2313V15.3477V15.4643V15.581V15.6979V15.815V15.9323V16.0497V16.1673V16.2851V16.403V16.521V16.6393V16.7577V16.8762V16.9949V17.1137V17.2327V17.3519V17.4712V17.5906V17.7102V17.83V17.9498V18.0698V18.19V18.3103V18.4307V18.5513V18.672V18.7928V18.9137V19.0348V19.156V19.2774V19.3988V19.5204V19.6421V19.7639V19.8858V20.0079V20.1301V20.2523V20.3747V20.4972V20.6198V20.7425V20.8654V20.9883V21.1113V21.2344V21.3576V21.481V21.6044V21.7279V21.8515V21.9752V22.099V22.2229V22.3468V22.4709V22.595V22.7192V22.8435V22.9679V23.0923V23.2169V23.3415V23.4661V23.5909V23.7157V23.8406V23.9655V24.0905V24.2156V24.3408V24.466V24.5912V24.7166V24.8419V24.9674V25.0929V25.2184V25.344V25.4696V25.5953V25.7211V25.8468V25.9726V26.0985V26.2244V26.3503V26.4763V26.6023V26.7284V26.8544V26.9806V27.1067V27.2328V27.359V27.4852V27.6115V27.7377V27.864V27.9903V28.1166V28.243V28.3693V28.4956V28.622V28.7484V28.8748V29.0012V29.1275V29.2539V29.3803V29.5067V29.6331V29.7595V29.8859V30.0123V30.1387V30.265V30.3914V30.5177V30.6441V30.7704V30.8967V31.023V31.1492V31.2754V31.4017V31.5279V31.654V31.7802V31.9063V32.0323V32.1584V32.2844V32.4104V32.5363V32.6622V32.7881V32.9139V33.0397V33.1654V33.2911V33.4168V33.5424V33.6679V33.7934V33.9188V34.0442V34.1696V34.2948V34.42V34.5452V34.6703V34.7953V34.9203V35.0452V35.17V35.2947V35.4194V35.544V35.6686V35.793V35.9174V36.0417V36.1659V36.2901V36.4141V36.5381V36.662V36.7858V36.9095V37.0331V37.1566V37.2801V37.4034V37.5266V37.6498V37.7728V37.8957V38.0186V38.1413V38.2639V38.3864V38.5088V38.6311V38.7533V38.8754V38.9973V39.1191V39.2408V39.3624V39.4839V39.6053V39.7265V39.8476V39.9685V40.0894V40.2101V40.3307V40.4511V40.5714V40.6916V40.8116V40.9315V41.0512V41.1708V41.2903V41.4096V41.5288V41.6478V41.7667V41.8854V42.004V42.1224V42.2406V42.3587V42.4766V42.5944V42.712V42.8294V42.9467V43.0638V43.1808V43.2975V43.4141V43.5306V43.6468V43.7629V43.8788V43.9945V44.11V44.2254V44.3406V44.4555V44.5703V44.6849V44.7993V44.9136V45.0276V45.1414V45.2551V45.3685V45.4818V45.5948V45.7076V45.8203V45.9327V46.0449V46.1569V46.2687V46.3803V46.4917V46.6029V46.7138V46.8245V46.9351V47.0453V47.1554V47.2653V47.3749V47.4843V47.5934V47.7024V47.8111V47.9195V48.0278V48.1358V48.2435V48.3511V48.4583V48.5654V48.6722V48.7787V48.885V48.9911V49.0969V49.2024V49.3078V49.4128V49.5176V49.6221V49.7264V49.8304V49.9342V50.0377V50.1409V50.2439V50.3465V50.449V50.5511V50.653V50.7546V50.8559V50.957V51.0578V51.1582V51.2585V51.3584V51.458V51.5574V51.6565V51.7552V51.8537V51.9519V52.0498V52.1474V52.2448V52.3418V52.4385V52.5349V52.631V52.7268V52.8223V52.9175V53.0124V53.1069V53.2012V53.2952V53.3888V53.4821V53.5751V53.6678V53.7601V53.8521V53.9439V54.0352V54.1263V54.217V54.3074V54.3975V54.4872V54.5766V54.5932C48.6675 50.7584 38.3441 46.5962 28.2733 43.3173C18.0609 39.9923 7.95384 37.5244 1.66016 37.2769V23.2006Z" fill="none" stroke-width="2"/>
<path fill-rule="evenodd" clip-rule="evenodd" d="M56.7703 0.181641C42.7428 10.2013 12.6838 22.2249 0.660156 22.2249V38.2564C3.19182 38.2564 8.06936 39.0833 11.8822 39.8595L6.27117 53.4863C5.78047 56.4517 7.78661 59.2534 10.752 59.7441C13.7174 60.2349 16.5192 58.2287 17.0099 55.2633L19.8979 41.4627L19.6442 39.9086L19.5098 39.51L41.2658 9.45105H45.2737L21.5122 42.2809C34.1261 45.936 48.342 51.4756 56.7703 56.2918V28.5373L42.6898 47.8979H38.682L55.0188 25.106L56.7703 28.386V11.4099L32.9349 43.1831H28.9271L55.4659 7.44562L56.7703 10.1451V0.181641ZM25.4388 18.068H21.4309L12.6838 31.1271V37.1106L25.4388 18.068Z" stroke="none"/>
<path fill-rule="evenodd" clip-rule="evenodd" d="M64.9531 28.002C64.9531 29.1368 65.919 30.0566 67.1105 30.0566L77.178 30.0566C78.3695 30.0566 79.3353 29.1368 79.3353 28.002C79.3353 26.8673 78.3695 25.9474 77.178 25.9474L67.1105 25.9474C65.919 25.9474 64.9531 26.8673 64.9531 28.002Z" stroke="none"/>
<path fill-rule="evenodd" clip-rule="evenodd" d="M63.6036 16.1736C64.0749 17.2789 65.353 17.7927 66.4582 17.3214L75.7969 13.3389C76.9021 12.8675 77.416 11.5895 76.9447 10.4843C76.4734 9.37908 75.1953 8.86521 74.0901 9.33653L64.7514 13.3191C63.6462 13.7904 63.1323 15.0684 63.6036 16.1736Z" stroke="none"/>
<path fill-rule="evenodd" clip-rule="evenodd" d="M63.6036 39.4919C64.0749 38.3867 65.353 37.8728 66.4582 38.3441L75.7969 42.3267C76.9021 42.798 77.416 44.076 76.9447 45.1812C76.4734 46.2864 75.1953 46.8003 74.0901 46.329L64.7514 42.3464C63.6462 41.8751 63.1323 40.5971 63.6036 39.4919Z" stroke="none"/>
</symbol>

<symbol id="projets" viewBox="0 0 32 32" xmlns="http://www.w3.org/2000/svg">
<mask id="path-1-inside-1" fill="white">
<path fill-rule="evenodd" clip-rule="evenodd" d="M4 7C4 5.34315 5.34315 4 7 4C8.65685 4 10 5.34315 10 7V24C10 25.6569 8.65685 27 7 27C5.34315 27 4 25.6569 4 24V7ZM7 26C8.10457 26 9 25.1046 9 24C9 22.8954 8.10457 22 7 22C5.89543 22 5 22.8954 5 24C5 25.1046 5.89543 26 7 26Z"/>
</mask>
<path d="M7 3C4.79086 3 3 4.79086 3 7H5C5 5.89543 5.89543 5 7 5V3ZM11 7C11 4.79086 9.20914 3 7 3V5C8.10457 5 9 5.89543 9 7H11ZM11 24V7H9V24H11ZM7 28C9.20914 28 11 26.2091 11 24H9C9 25.1046 8.10457 26 7 26V28ZM3 24C3 26.2091 4.79086 28 7 28V26C5.89543 26 5 25.1046 5 24H3ZM3 7V24H5V7H3ZM8 24C8 24.5523 7.55228 25 7 25V27C8.65685 27 10 25.6569 10 24H8ZM7 23C7.55228 23 8 23.4477 8 24H10C10 22.3431 8.65685 21 7 21V23ZM6 24C6 23.4477 6.44771 23 7 23V21C5.34315 21 4 22.3431 4 24H6ZM7 25C6.44772 25 6 24.5523 6 24H4C4 25.6569 5.34315 27 7 27V25Z" stroke="none" mask="url(#path-1-inside-1)"/>
<path fill-rule="evenodd" clip-rule="evenodd" d="M7 27H10L24 7H25.5L11.5 27H14L27.5 8L28 9.5L15.5 27H18L27.5 14L28 15.5L19.5 27H22L27.5 19.5L28 21L23.5 27H28V21V15.5V9.5V6H9.82929C9.93985 6.31278 10 6.64936 10 7V9L11.5 7H13L10 11.0909V14.4412L15.5 7H17L10 16.5789V21.0909L20 7H21.5L10 23.56V24C10 25.6569 8.65685 27 7 27Z" stroke="none"/>
<path d="M7 27H28V6.5H9.95852C9.9858 6.6626 10 6.82964 10 7V7.5H27V26H9.23611C8.68679 26.6137 7.8885 27 7 27Z" stroke="none"/>
<path d="M9 24C9 25.1046 8.10457 26 7 26C5.89543 26 5 25.1046 5 24C5 22.8954 5.89543 22 7 22C8.10457 22 9 22.8954 9 24Z" stroke="none"/>
</symbol>

<symbol id="ressources" viewBox="0 0 32 32" xmlns="http://www.w3.org/2000/svg">
<path d="M3.5 25V13.0495C7.32281 13.9728 11.7651 14.5 16.5 14.5C20.828 14.5 24.9112 14.0595 28.5 13.2789V25C28.5 25.2761 28.2761 25.5 28 25.5H4C3.72386 25.5 3.5 25.2761 3.5 25Z" fill="none"/>
<path fill-rule="evenodd" clip-rule="evenodd" d="M20 6H13V8H20V6ZM13 4C11.8954 4 11 4.89543 11 6V9H22V6C22 4.89543 21.1046 4 20 4H13Z" stroke="none"/>
<path d="M28.5 13.2602C27.6168 13.4803 26.8068 13.7326 26.0024 13.9831L25.9955 13.9852C24.3831 14.4874 22.7659 14.9905 20.5 15.2722V15C20.5 14.1716 19.8284 13.5 19 13.5H14C13.1716 13.5 12.5 14.1716 12.5 15V15.2709C9.84798 14.949 7.85358 14.3349 5.87723 13.7256L5.87212 13.724C5.09326 13.4839 4.31292 13.2433 3.5 13.0242V9C3.5 8.72386 3.72386 8.5 4 8.5H28C28.2761 8.5 28.5 8.72386 28.5 9V13.2602Z"/>
<path d="M3 13.4095C3.7817 13.6107 4.59178 13.795 5.42722 13.9611L3 17.4286V13.4095Z" stroke="none"/>
<path d="M29 13.6541V16L22 26L18.5 26L26.8278 14.1031C27.5713 13.9674 28.296 13.8174 29 13.6541Z" stroke="none"/>
<path d="M29 18.1429V23.1429L27 26H23.5L29 18.1429Z" stroke="none"/>
<path d="M28.7003 25.7138C28.788 25.6278 28.8598 25.5259 28.9112 25.4126L28.7003 25.7138Z" stroke="none"/>
<path d="M21.3318 14.8118C22.6365 14.7087 23.9059 14.5647 25.1318 14.3832L17 26H13.5L19.1037 17.9947C19.6073 17.9428 20 17.5173 20 17V16.7143L21.3318 14.8118Z" stroke="none"/>
<path d="M17.6 18L12 26H8.50001L14.1 18H17.6Z" stroke="none"/>
<path d="M13.0602 17.3426L7.00001 26H4C3.84543 26 3.69905 25.9649 3.56839 25.9023L11.35 14.7858C11.8954 14.8318 12.4472 14.8707 13.0047 14.9022C13.0016 14.9344 13 14.967 13 15V17C13 17.1203 13.0213 17.2357 13.0602 17.3426Z" stroke="none"/>
<path d="M6.75572 14.2061C7.78653 14.3818 8.8514 14.5304 9.94511 14.6498L3 24.5714V19.5714L6.75572 14.2061Z" stroke="none"/>
<rect x="13.5" y="14.5" width="6" height="3" rx="0.5" fill="none"/>
</symbol>

<symbol id="infos" viewBox="0 0 32 32" xmlns="http://www.w3.org/2000/svg">
<path d="M23 25.5H9.44949C10.0978 24.8647 10.5 23.9793 10.5 23V5.5H25.5V23C25.5 24.3807 24.3807 25.5 23 25.5Z" fill="none"/>
<rect x="12" y="16" width="12" height="1" rx="0.5" stroke="none"/>
<rect x="12" y="19" width="12" height="1" rx="0.5" stroke="none"/>
<rect x="12" y="22" width="12" height="1" rx="0.5" stroke="none"/>
<rect x="12" y="8" width="12" height="6" rx="1" stroke="none"/>
<path d="M11 12V13.5L5.00001 20.5V17.2273L9.60001 12H11Z" stroke="none"/>
<path d="M5.00001 22.5V22.2273L11 15.4091L11 18.5L6 24.5C5.48214 24.0507 5.00001 23.1722 5.00001 22.5Z" stroke="none"/>
<path d="M7.06819 24.8771C7.36151 24.9569 7.67471 25 8.00001 25C9.65686 25 11 23.8807 11 22.5V20.4091L7.06819 24.8771Z" stroke="none"/>
<path d="M8 12H5.00001L5 15.5L8 12Z" stroke="none"/>
<path d="M5.5 12.5H10.5V23C10.5 24.3807 9.38071 25.5 8 25.5C6.61929 25.5 5.5 24.3807 5.5 23V12.5Z" fill="none"/>
</symbol>

<symbol id="formations" viewBox="0 0 32 32" xmlns="http://www.w3.org/2000/svg">
<path fill-rule="evenodd" clip-rule="evenodd" d="M3 28V24.4C3 22.1088 4.1007 20.0762 5.79995 18.7998C4.80938 17.7598 4.2 16.3513 4.2 14.8C4.2 11.5967 6.79675 9 10 9C13.2033 9 15.8 11.5967 15.8 14.8C15.8 16.3513 15.1906 17.7598 14.2001 18.7998C15.8993 20.0762 17 22.1088 17 24.4V28H3ZM13.4307 19.4769C13.1256 19.2639 12.7998 19.0785 12.4568 18.9244C12.7774 18.7331 13.0738 18.5054 13.3403 18.2471C14.2405 17.3746 14.8 16.1527 14.8 14.8C14.8 12.149 12.651 10 10 10C7.34903 10 5.2 12.149 5.2 14.8C5.2 16.1527 5.75951 17.3746 6.65971 18.2471C6.92623 18.5054 7.2226 18.7331 7.54316 18.9244C7.20024 19.0785 6.87441 19.2639 6.56931 19.4769C5.01609 20.5613 4 22.362 4 24.4V27H16V24.4C16 22.362 14.9839 20.5613 13.4307 19.4769Z" stroke="none"/>
<path fill-rule="evenodd" clip-rule="evenodd" d="M2 6H30V22H16.5777C16.3879 21.4799 16.1381 20.9887 15.8369 20.5348L25.6379 7H24.1379L15.0488 19.5516C14.7868 19.2788 14.503 19.0273 14.2001 18.7998C15.1906 17.7598 15.8 16.3513 15.8 14.8C15.8 14.4589 15.7705 14.1246 15.7141 13.7996L20.6379 7H19.1379L15.2607 12.3543C14.8403 11.4515 14.1943 10.675 13.3952 10.0971L15.6379 7H14.1379L12.3353 9.48933C11.6208 9.17468 10.8308 9 10 9C9.70926 9 9.42352 9.02139 9.14426 9.06269L10.6379 7H9.13793L7.14742 9.74881C5.70291 10.5663 4.64387 11.9856 4.3108 13.666L3 15.4762V17.5476L4.28201 15.7772C4.46929 16.8805 4.96816 17.8775 5.68402 18.6744L5.28319 19.228C4.45784 19.9811 3.81311 20.9293 3.4223 22H2V6ZM29 7.19048V9.2619L20.5 21H19L29 7.19048ZM25.5 21H24L29 14.0952V16.1667L25.5 21ZM5.63793 7L3 10.6429V8.57143L4.13793 7H5.63793Z" stroke="none"/>
</symbol>

<symbol id="etudes" viewBox="0 0 32 32" xmlns="http://www.w3.org/2000/svg">
<path d="M27.722 26.2329L22.4916 21.0959C24.0154 19.2877 24.9215 16.9452 24.9215 14.4384C24.8803 8.68493 20.2265 4 14.4607 4C8.69498 4 4 8.68493 4 14.4384C4 20.1918 8.69498 24.8767 14.4607 24.8767C16.9318 24.8767 19.2381 24.0137 21.009 22.5753L26.2394 27.7123C26.4453 27.9178 26.6924 28 26.9807 28C27.2278 28 27.5161 27.9178 27.722 27.7123C28.0927 27.3014 28.0927 26.6438 27.722 26.2329ZM6.0592 14.4384C6.0592 9.79452 9.80695 6.05479 14.4607 6.05479C19.1145 6.05479 22.8623 9.79452 22.8623 14.4384C22.8623 19.0822 19.1145 22.8219 14.4607 22.8219C9.80695 22.8219 6.0592 19.0411 6.0592 14.4384Z" stroke="none"/>
<path fill-rule="evenodd" clip-rule="evenodd" d="M14.7457 5.3282C14.0022 5.11446 13.2157 5 12.4015 5C12.2296 5 12.0588 5.00511 11.8895 5.01518L10.4509 6.97689C11.5862 6.37483 12.878 6.02499 14.2521 6.00129L14.7457 5.3282ZM13.0585 7.62894C9.87909 8.24863 7.5 11.0292 7.5 14.3836C7.5 14.6426 7.51448 14.8985 7.5427 15.1504L13.0585 7.62894ZM7.97683 16.8961L14.8566 7.51456C15.8686 7.57953 16.8194 7.85975 17.6638 8.30994L9.59266 19.316C8.89414 18.6378 8.33923 17.8141 7.97683 16.8961ZM6.34942 16.7776C6.12204 16.018 6 15.2141 6 14.3836C6 13.8626 6.04717 13.353 6.13749 12.8588L4.25314 15.4284C4.49144 16.3727 4.89089 17.2551 5.42099 18.0437L6.34942 16.7776ZM6.96335 18.2781C7.41071 19.1257 7.99942 19.8888 8.69862 20.5352L8.49887 20.8076C7.68288 20.3787 6.94656 19.8199 6.31708 19.1594L6.96335 18.2781ZM17.141 6.45253C16.8055 6.22416 16.4523 6.01946 16.084 5.84081L15.874 6.12727C16.3089 6.20341 16.7322 6.31273 17.141 6.45253ZM13.3275 21.1841C12.3621 21.0332 11.464 20.6823 10.6762 20.1762L18.8131 9.08041C19.5054 9.65324 20.0826 10.359 20.5064 11.159C20.5221 11.2167 20.5373 11.2746 20.5518 11.3328L13.3275 21.1841ZM21.157 12.9614C21.2528 13.4201 21.3031 13.8957 21.3031 14.3836C21.3031 17.9947 18.5458 20.9409 15.0011 21.2418L21.157 12.9614ZM9.9145 5.37067C6.48201 6.42403 4 9.60441 4 13.3836L4.00016 13.4357L9.9145 5.37067Z" stroke="none"/>
</symbol>

<symbol id="dossiers" viewBox="0 0 32 32" xmlns="http://www.w3.org/2000/svg">
<path fill-rule="evenodd" clip-rule="evenodd" d="M2 9C2 7.89543 2.89543 7 4 7H8C9.10457 7 10 7.89543 10 9V10H27C27.5523 10 28 10.4477 28 11V13H6.32973C5.84861 13 5.43568 13.3426 5.34691 13.8155L3.28171 24.8155C3.16616 25.431 3.63831 26 4.26454 26H3C2.44772 26 2 25.5523 2 25V9Z" stroke="none"/>
<path d="M5.72708 13.8721C5.78513 13.6528 5.98357 13.5 6.21044 13.5H29.1416C29.4697 13.5 29.7089 13.8107 29.6249 14.1279L26.7136 25.1279C26.6555 25.3472 26.4571 25.5 26.2302 25.5H3.2991C2.97097 25.5 2.73179 25.1893 2.81574 24.8721L5.72708 13.8721Z" fill="none"/>
<path fill-rule="evenodd" clip-rule="evenodd" d="M29.2607 17.2341L30.049 14.2559C30.1737 13.7846 29.9418 13.3205 29.5453 13.113L20.8378 26H23.3378L29.2607 17.2341ZM24.8378 26H26.1709C26.6247 26 27.0215 25.6945 27.1376 25.2559L28.2948 20.8837L24.8378 26ZM25.6216 13H28.1216L19.3378 26H16.8378L25.6216 13ZM24.1216 13H21.6216L12.8378 26H15.3378L24.1216 13ZM17.6216 13H20.1216L11.3378 26H8.83784L17.6216 13ZM16.1216 13H13.6216L4.83784 26H7.33784L16.1216 13ZM9.62162 13H12.1216L3.33784 26H3.20521C2.57898 26 2.10683 25.431 2.22239 24.8155L2.44717 23.6182L9.62162 13ZM8.12162 13H5.27041C5.26124 13 5.2521 13.0001 5.24299 13.0004L4.13187 14.6448L3.02434 20.544L8.12162 13Z" stroke="none"/>
</symbol>

<symbol id="publishLogo" viewBox="0 0 310 273" fill="none" xmlns="http://www.w3.org/2000/svg">
<g opacity="0.35" filter="url(#filter0_f)">
<path d="M12 76.7061L181.621 30.7062L283.777 208.44L114.155 254.44L12 76.7061Z" fill="#348899"/>
</g>
<path d="M114.638 253.273L13.5131 77.3318L181.138 31.8732L282.263 207.814L114.638 253.273Z" fill="#EAF8FB" stroke="#79ACB6" stroke-width="2"/>
<path d="M56.0084 117.902C54.7257 115.671 55.8543 112.826 58.3181 112.08L188.148 72.8014C189.929 72.2624 191.847 73.0232 192.774 74.6367L215.093 113.467C216.376 115.699 215.247 118.544 212.783 119.289L82.9533 158.568C81.172 159.107 79.2544 158.346 78.327 156.733L56.0084 117.902Z" fill="#ABE6F2"/>
<path d="M72.5 81.3037L150.685 57.8712L154.671 64.8072L76.4866 88.2397L72.5 81.3037Z" fill="#117083"/>
<path d="M86.5 167.953L139.359 152.241L142.5 157.706L89.6408 173.418L86.5 167.953Z" fill="#117083"/>
<path d="M91.5 176.445L144.359 160.733L147.5 166.198L94.6408 181.91L91.5 176.445Z" fill="#117083"/>
<path d="M96.5 185.445L149.359 169.733L152.5 175.198L99.6408 190.91L96.5 185.445Z" fill="#117083"/>
<path d="M102.5 193.444L155.359 177.732L158.5 183.197L105.641 198.909L102.5 193.444Z" fill="#117083"/>
<path d="M107.5 202.444L160.359 186.732L163.5 192.197L110.641 207.909L107.5 202.444Z" fill="#117083"/>
<path d="M112.5 211.444L165.359 195.732L168.5 201.197L115.641 216.909L112.5 211.444Z" fill="#117083"/>
<path d="M116.5 221.444L169.359 205.732L172.5 211.197L119.641 226.909L116.5 221.444Z" fill="#117083"/>
<path d="M145.5 150.444L198.359 134.732L201.5 140.197L148.641 155.909L145.5 150.444Z" fill="#117083"/>
<path d="M151.5 158.444L204.359 142.732L207.5 148.197L154.641 163.909L151.5 158.444Z" fill="#117083"/>
<path d="M156.5 167.444L178.359 161.241L181.5 166.706L159.641 172.909L156.5 167.444Z" fill="#117083"/>
<path d="M100 84.6553L139.091 72.7225L143.078 79.6584L103.987 91.5912L100 84.6553Z" fill="#117083"/>
<g opacity="0.35" filter="url(#filter1_f)">
<path d="M252.112 73.7334C249.503 71.652 246.024 71.6753 244.34 73.7856L235.054 85.4249L235.088 85.4519L190.698 141.075L205.252 152.855L190.571 141.242L189.299 142.837C188.606 143.704 188.299 144.837 188.429 146.05L186.205 161.648L185.788 163.604C185.445 165.216 187.089 166.528 188.585 165.835L189.273 165.516C189.436 165.526 189.6 165.521 189.763 165.502L205.18 159.287C206.391 159.144 207.427 158.594 208.12 157.726L209.393 156.131L209.391 156.129L253.778 100.509L253.779 100.51L263.064 88.8704C264.748 86.7602 263.999 83.3622 261.391 81.2807L252.112 73.7334Z" fill="#DC2A59"/>
</g>
<path d="M252.739 72.9577L252.739 72.9576L252.732 72.9518C249.854 70.6558 245.7 70.4733 243.554 73.1618L243.554 73.1619L234.269 84.8012L233.648 85.5792L233.682 85.6061L189.913 140.452L189.293 141.228L189.297 141.231L188.513 142.213C187.666 143.275 187.298 144.626 187.418 146.026L185.216 161.473L184.806 163.395C184.291 165.813 186.758 167.781 189.001 166.743L189.48 166.521C189.612 166.519 189.744 166.511 189.876 166.495L190.009 166.48L190.133 166.43L205.432 160.262C206.819 160.067 208.052 159.409 208.898 158.35L210.17 156.755L210.798 155.969L210.796 155.967L253.929 101.918L253.93 101.918L254.557 101.133L263.842 89.4942C265.986 86.807 264.889 82.7988 262.014 80.5023C262.013 80.5013 262.012 80.5002 262.01 80.4991L252.739 72.9577Z" fill="#E04971" stroke="#E0718E" stroke-width="2"/>
<path d="M244.336 73.7856C246.02 71.6754 249.499 71.652 252.108 73.7335L261.386 81.2808C263.995 83.3622 264.744 86.7602 263.06 88.8705L253.775 100.51L235.05 85.4249L244.336 73.7856Z" fill="#E04971"/>
<path d="M254.161 100.03L235.505 84.9298L190.698 141.076L209.354 156.176L254.161 100.03Z" fill="#E0718E"/>
<path d="M209.393 156.131L190.571 141.242L189.298 142.837C188.606 143.705 188.299 144.838 188.429 146.05L186.075 162.56C186.257 164.27 188.054 165.704 189.762 165.503L205.18 159.288C206.391 159.145 207.427 158.594 208.12 157.727L209.393 156.131Z" fill="#FDECF0"/>
<path d="M185.399 164.08C185.176 165.596 186.672 166.789 188.101 166.236L194.734 163.665C194.734 163.665 194.763 161.501 191.65 159.018C188.537 156.534 186.434 157.041 186.434 157.041L185.399 164.08Z" fill="#E04971"/>
<rect x="190.742" y="140.706" width="24.0099" height="2" transform="rotate(38.3738 190.742 140.706)" fill="white"/>
<rect x="236.152" y="84.0303" width="24.0422" height="2" transform="rotate(38.3738 236.152 84.0303)" fill="white"/>
<defs>
<filter id="filter0_f" x="0" y="18.7061" width="295.777" height="247.734" filterUnits="userSpaceOnUse" color-interpolation-filters="sRGB">
<feFlood flood-opacity="0" result="BackgroundImageFix"/>
<feBlend mode="normal" in="SourceGraphic" in2="BackgroundImageFix" result="shape"/>
<feGaussianBlur stdDeviation="6" result="effect1_foregroundBlur"/>
</filter>
<filter id="filter1_f" x="173.742" y="60.1875" width="102.221" height="117.837" filterUnits="userSpaceOnUse" color-interpolation-filters="sRGB">
<feFlood flood-opacity="0" result="BackgroundImageFix"/>
<feBlend mode="normal" in="SourceGraphic" in2="BackgroundImageFix" result="shape"/>
<feGaussianBlur stdDeviation="6" result="effect1_foregroundBlur"/>
</filter>
</defs>
</symbol>

<symbol id="a-la-une" viewBox="0 0 32 32" xmlns="http://www.w3.org/2000/svg">
<path d="M23 25.5H9.44949C10.0978 24.8647 10.5 23.9793 10.5 23V5.5H25.5V23C25.5 24.3807 24.3807 25.5 23 25.5Z" fill="none"/>
<rect x="12" y="16" width="12" height="1" rx="0.5" stroke="none"/>
<rect x="12" y="19" width="12" height="1" rx="0.5" stroke="none"/>
<rect x="12" y="22" width="12" height="1" rx="0.5" stroke="none"/>
<rect x="12" y="8" width="12" height="6" rx="1" stroke="none"/>
<path d="M11 12V13.5L5.00001 20.5V17.2273L9.60001 12H11Z" stroke="none"/>
<path d="M5.00001 22.5V22.2273L11 15.4091L11 18.5L6 24.5C5.48214 24.0507 5.00001 23.1722 5.00001 22.5Z" stroke="none"/>
<path d="M7.06819 24.8771C7.36151 24.9569 7.67471 25 8.00001 25C9.65686 25 11 23.8807 11 22.5V20.4091L7.06819 24.8771Z" stroke="none"/>
<path d="M8 12H5.00001L5 15.5L8 12Z" stroke="none"/>
<path d="M5.5 12.5H10.5V23C10.5 24.3807 9.38071 25.5 8 25.5C6.61929 25.5 5.5 24.3807 5.5 23V12.5Z" fill="none"/>
</symbol>

<symbol id="allophones" viewBox="0 0 32 32" xmlns="http://www.w3.org/2000/svg">
<path d="M23 25.5H9.44949C10.0978 24.8647 10.5 23.9793 10.5 23V5.5H25.5V23C25.5 24.3807 24.3807 25.5 23 25.5Z" fill="none"/>
<rect x="12" y="16" width="12" height="1" rx="0.5" stroke="none"/>
<rect x="12" y="19" width="12" height="1" rx="0.5" stroke="none"/>
<rect x="12" y="22" width="12" height="1" rx="0.5" stroke="none"/>
<rect x="12" y="8" width="12" height="6" rx="1" stroke="none"/>
<path d="M11 12V13.5L5.00001 20.5V17.2273L9.60001 12H11Z" stroke="none"/>
<path d="M5.00001 22.5V22.2273L11 15.4091L11 18.5L6 24.5C5.48214 24.0507 5.00001 23.1722 5.00001 22.5Z" stroke="none"/>
<path d="M7.06819 24.8771C7.36151 24.9569 7.67471 25 8.00001 25C9.65686 25 11 23.8807 11 22.5V20.4091L7.06819 24.8771Z" stroke="none"/>
<path d="M8 12H5.00001L5 15.5L8 12Z" stroke="none"/>
<path d="M5.5 12.5H10.5V23C10.5 24.3807 9.38071 25.5 8 25.5C6.61929 25.5 5.5 24.3807 5.5 23V12.5Z" fill="none"/>
</symbol>

<symbol id="tout-public" viewBox="0 0 32 32" xmlns="http://www.w3.org/2000/svg">
<path d="M23 25.5H9.44949C10.0978 24.8647 10.5 23.9793 10.5 23V5.5H25.5V23C25.5 24.3807 24.3807 25.5 23 25.5Z" fill="none"/>
<rect x="12" y="16" width="12" height="1" rx="0.5" stroke="none"/>
<rect x="12" y="19" width="12" height="1" rx="0.5" stroke="none"/>
<rect x="12" y="22" width="12" height="1" rx="0.5" stroke="none"/>
<rect x="12" y="8" width="12" height="6" rx="1" stroke="none"/>
<path d="M11 12V13.5L5.00001 20.5V17.2273L9.60001 12H11Z" stroke="none"/>
<path d="M5.00001 22.5V22.2273L11 15.4091L11 18.5L6 24.5C5.48214 24.0507 5.00001 23.1722 5.00001 22.5Z" stroke="none"/>
<path d="M7.06819 24.8771C7.36151 24.9569 7.67471 25 8.00001 25C9.65686 25 11 23.8807 11 22.5V20.4091L7.06819 24.8771Z" stroke="none"/>
<path d="M8 12H5.00001L5 15.5L8 12Z" stroke="none"/>
<path d="M5.5 12.5H10.5V23C10.5 24.3807 9.38071 25.5 8 25.5C6.61929 25.5 5.5 24.3807 5.5 23V12.5Z" fill="none"/>
</symbol>

</svg>
